<?xml version="1.0" encoding="UTF-8" standalone="no"?>
<!DOCTYPE svg PUBLIC "-//W3C//DTD SVG 1.1//EN"
 "http://www.w3.org/Graphics/SVG/1.1/DTD/svg11.dtd">
<!-- Generated by graphviz version 2.38.0 (20140413.2041)
 -->
<!-- Title: Data/Ascii/AsciiDataIO.hpp Pages: 1 -->
<svg width="246pt" height="196pt"
 viewBox="0.00 0.00 246.00 196.00" xmlns="http://www.w3.org/2000/svg" xmlns:xlink="http://www.w3.org/1999/xlink">
<g id="graph0" class="graph" transform="scale(1 1) rotate(0) translate(4 192)">
<title>Data/Ascii/AsciiDataIO.hpp</title>
<polygon fill="white" stroke="none" points="-4,4 -4,-192 242,-192 242,4 -4,4"/>
<!-- Node1 -->
<g id="node1" class="node"><title>Node1</title>
<polygon fill="#bfbfbf" stroke="black" points="11.5,-168.5 11.5,-187.5 148.5,-187.5 148.5,-168.5 11.5,-168.5"/>
<text text-anchor="middle" x="80" y="-175.5" font-family="Helvetica,sans-Serif" font-size="10.00">Data/Ascii/AsciiDataIO.hpp</text>
</g>
<!-- Node2 -->
<g id="node2" class="node"><title>Node2</title>
<polygon fill="white" stroke="#bfbfbf" points="0,-112.5 0,-131.5 52,-131.5 52,-112.5 0,-112.5"/>
<text text-anchor="middle" x="26" y="-119.5" font-family="Helvetica,sans-Serif" font-size="10.00">memory</text>
</g>
<!-- Node1&#45;&gt;Node2 -->
<g id="edge1" class="edge"><title>Node1&#45;&gt;Node2</title>
<path fill="none" stroke="midnightblue" d="M71.083,-168.083C63.2195,-160.22 51.5688,-148.569 42.0813,-139.081"/>
<polygon fill="midnightblue" stroke="midnightblue" points="44.2971,-136.347 34.7511,-131.751 39.3473,-141.297 44.2971,-136.347"/>
</g>
<!-- Node3 -->
<g id="node3" class="node"><title>Node3</title>
<polygon fill="white" stroke="#bfbfbf" points="96,-0.5 96,-19.5 140,-19.5 140,-0.5 96,-0.5"/>
<text text-anchor="middle" x="118" y="-7.5" font-family="Helvetica,sans-Serif" font-size="10.00">vector</text>
</g>
<!-- Node1&#45;&gt;Node3 -->
<g id="edge2" class="edge"><title>Node1&#45;&gt;Node3</title>
<path fill="none" stroke="midnightblue" d="M82.043,-168.075C88.0246,-141.945 105.59,-65.2106 113.747,-29.577"/>
<polygon fill="midnightblue" stroke="midnightblue" points="117.219,-30.097 116.039,-19.5681 110.395,-28.5349 117.219,-30.097"/>
</g>
<!-- Node4 -->
<g id="node4" class="node"><title>Node4</title>
<g id="a_node4"><a xlink:href="Event_8hpp.html" target="_top" xlink:title="Core/Event.hpp">
<polygon fill="white" stroke="black" points="108.5,-112.5 108.5,-131.5 193.5,-131.5 193.5,-112.5 108.5,-112.5"/>
<text text-anchor="middle" x="151" y="-119.5" font-family="Helvetica,sans-Serif" font-size="10.00">Core/Event.hpp</text>
</a>
</g>
</g>
<!-- Node1&#45;&gt;Node4 -->
<g id="edge3" class="edge"><title>Node1&#45;&gt;Node4</title>
<path fill="none" stroke="midnightblue" d="M91.4074,-168.324C102.109,-160.185 118.341,-147.839 131.163,-138.087"/>
<polygon fill="midnightblue" stroke="midnightblue" points="133.544,-140.673 139.385,-131.834 129.307,-135.102 133.544,-140.673"/>
</g>
<!-- Node4&#45;&gt;Node3 -->
<g id="edge6" class="edge"><title>Node4&#45;&gt;Node3</title>
<path fill="none" stroke="midnightblue" d="M148.272,-112.387C145.418,-103.339 140.828,-88.6897 137,-76 132.278,-60.3473 127.079,-42.5199 123.316,-29.4992"/>
<polygon fill="midnightblue" stroke="midnightblue" points="126.666,-28.4852 120.533,-19.8457 119.94,-30.4239 126.666,-28.4852"/>
</g>
<!-- Node5 -->
<g id="node5" class="node"><title>Node5</title>
<g id="a_node5"><a xlink:href="Particle_8hpp.html" target="_top" xlink:title="Particle and FourMomentum class. ">
<polygon fill="white" stroke="red" points="146,-56.5 146,-75.5 238,-75.5 238,-56.5 146,-56.5"/>
<text text-anchor="middle" x="192" y="-63.5" font-family="Helvetica,sans-Serif" font-size="10.00">Core/Particle.hpp</text>
</a>
</g>
</g>
<!-- Node4&#45;&gt;Node5 -->
<g id="edge4" class="edge"><title>Node4&#45;&gt;Node5</title>
<path fill="none" stroke="midnightblue" d="M157.77,-112.083C163.562,-104.455 172.058,-93.2645 179.138,-83.9408"/>
<polygon fill="midnightblue" stroke="midnightblue" points="182.096,-85.8321 185.356,-75.7511 176.521,-81.5991 182.096,-85.8321"/>
</g>
<!-- Node5&#45;&gt;Node3 -->
<g id="edge5" class="edge"><title>Node5&#45;&gt;Node3</title>
<path fill="none" stroke="midnightblue" d="M180.111,-56.324C168.85,-48.1066 151.713,-35.6017 138.291,-25.8069"/>
<polygon fill="midnightblue" stroke="midnightblue" points="140.247,-22.9014 130.106,-19.8339 136.12,-28.5559 140.247,-22.9014"/>
</g>
</g>
</svg>
