<?xml version="1.0" encoding="UTF-8" standalone="no"?>
<!DOCTYPE svg PUBLIC "-//W3C//DTD SVG 1.1//EN"
 "http://www.w3.org/Graphics/SVG/1.1/DTD/svg11.dtd">
<!-- Generated by graphviz version 2.38.0 (20140413.2041)
 -->
<!-- Title: Tools/Adapters/BOSSAdapter.cpp Pages: 1 -->
<!--zoomable 285 -->
<svg id="main" version="1.1" xmlns="http://www.w3.org/2000/svg" xmlns:xlink="http://www.w3.org/1999/xlink" xml:space="preserve" onload="init(evt)">
<style type="text/css"><![CDATA[
.edge:hover path { stroke: red; }
.edge:hover polygon { stroke: red; fill: red; }
]]></style>
<script type="text/javascript"><![CDATA[
var edges = document.getElementsByTagName('g');
if (edges && edges.length) {
  for (var i=0;i<edges.length;i++) {
    if (edges[i].id.substr(0,4)=='edge') {
      edges[i].setAttribute('class','edge');
    }
  }
}
]]></script>
        <defs>
                <circle id="rim" cx="0" cy="0" r="7"/>
                <circle id="rim2" cx="0" cy="0" r="3.5"/>
                <g id="zoomPlus">
                        <use xlink:href="#rim" fill="#404040">
                                <set attributeName="fill" to="#808080" begin="zoomplus.mouseover" end="zoomplus.mouseout"/>
                        </use>
                        <path d="M-4,0h8M0,-4v8" fill="none" stroke="white" stroke-width="1.5" pointer-events="none"/>
                </g>
                <g id="zoomMin">
                        <use xlink:href="#rim" fill="#404040">
                                <set attributeName="fill" to="#808080" begin="zoomminus.mouseover" end="zoomminus.mouseout"/>
                        </use>
                        <path d="M-4,0h8" fill="none" stroke="white" stroke-width="1.5" pointer-events="none"/>
                </g>
                <g id="dirArrow">
                        <path fill="none" stroke="white" stroke-width="1.5" d="M0,-3.0v7 M-2.5,-0.5L0,-3.0L2.5,-0.5"/>
                </g>
               <g id="resetDef">
                       <use xlink:href="#rim2" fill="#404040">
                               <set attributeName="fill" to="#808080" begin="reset.mouseover" end="reset.mouseout"/>
                       </use>
               </g>
        </defs>

<script type="text/javascript">
var viewWidth = 1285;
var viewHeight = 285;
var sectionId = 'dynsection-0';
</script>
<script xlink:href="svgpan.js"/>
<svg id="graph" class="graph">
<g id="viewport">
<title>Tools/Adapters/BOSSAdapter.cpp</title>
<polygon fill="white" stroke="none" points="-4,4 -4,-281 1281.45,-281 1281.45,4 -4,4"/>
<!-- Node1 -->
<g id="node1" class="node"><title>Node1</title>
<polygon fill="#bfbfbf" stroke="black" points="164.18,-257.5 164.18,-276.5 330.18,-276.5 330.18,-257.5 164.18,-257.5"/>
<text text-anchor="middle" x="247.18" y="-264.5" font-family="Helvetica,sans-Serif" font-size="10.00">Tools/Adapters/BOSSAdapter.cpp</text>
</g>
<!-- Node2 -->
<g id="node2" class="node"><title>Node2</title>
<polygon fill="white" stroke="#bfbfbf" points="742.68,-0.5 742.68,-19.5 783.68,-19.5 783.68,-0.5 742.68,-0.5"/>
<text text-anchor="middle" x="763.18" y="-7.5" font-family="Helvetica,sans-Serif" font-size="10.00">string</text>
</g>
<!-- Node1&#45;&gt;Node2 -->
<g id="edge1" class="edge"><title>Node1&#45;&gt;Node2</title>
<path fill="none" stroke="midnightblue" d="M163.785,-259.87C130.658,-253.928 93.9188,-242.56 66.1797,-221 6.60189,-174.693 -25.5253,-110.958 26.1797,-56 50.7406,-29.8937 595.095,-15.0522 732.101,-11.7219"/>
<polygon fill="midnightblue" stroke="midnightblue" points="732.404,-15.2157 742.318,-11.4766 732.236,-8.2177 732.404,-15.2157"/>
</g>
<!-- Node3 -->
<g id="node3" class="node"><title>Node3</title>
<g id="a_node3"><a xlink:href="BOSSAdapter_8hpp.html" target="_top" xlink:title="BOSSAdapter.hpp">
<polygon fill="white" stroke="black" points="198.68,-196 198.68,-215 295.68,-215 295.68,-196 198.68,-196"/>
<text text-anchor="middle" x="247.18" y="-203" font-family="Helvetica,sans-Serif" font-size="10.00">BOSSAdapter.hpp</text>
</a>
</g>
</g>
<!-- Node1&#45;&gt;Node3 -->
<g id="edge2" class="edge"><title>Node1&#45;&gt;Node3</title>
<path fill="none" stroke="midnightblue" d="M247.18,-257.475C247.18,-249.08 247.18,-235.981 247.18,-225.163"/>
<polygon fill="midnightblue" stroke="midnightblue" points="250.68,-225.009 247.18,-215.009 243.68,-225.009 250.68,-225.009"/>
</g>
<!-- Node10 -->
<g id="node10" class="node"><title>Node10</title>
<g id="a_node10"><a xlink:href="Kinematics_8hpp.html" target="_top" xlink:title="Core/Kinematics.hpp">
<polygon fill="white" stroke="black" points="35.1797,-62 35.1797,-81 143.18,-81 143.18,-62 35.1797,-62"/>
<text text-anchor="middle" x="89.1797" y="-69" font-family="Helvetica,sans-Serif" font-size="10.00">Core/Kinematics.hpp</text>
</a>
</g>
</g>
<!-- Node1&#45;&gt;Node10 -->
<g id="edge20" class="edge"><title>Node1&#45;&gt;Node10</title>
<path fill="none" stroke="midnightblue" d="M206.621,-257.473C156.869,-244.599 74.6546,-214.928 38.1797,-154 24.1515,-130.567 48.8907,-103.794 68.571,-87.5236"/>
<polygon fill="midnightblue" stroke="midnightblue" points="70.8715,-90.1671 76.5679,-81.234 66.544,-84.665 70.8715,-90.1671"/>
</g>
<!-- Node13 -->
<g id="node13" class="node"><title>Node13</title>
<g id="a_node13"><a xlink:href="BuilderXML_8hpp.html" target="_top" xlink:title="Physics/BuilderXML.hpp">
<polygon fill="white" stroke="black" points="799.18,-196 799.18,-215 923.18,-215 923.18,-196 799.18,-196"/>
<text text-anchor="middle" x="861.18" y="-203" font-family="Helvetica,sans-Serif" font-size="10.00">Physics/BuilderXML.hpp</text>
</a>
</g>
</g>
<!-- Node1&#45;&gt;Node13 -->
<g id="edge21" class="edge"><title>Node1&#45;&gt;Node13</title>
<path fill="none" stroke="midnightblue" d="M330.306,-257.945C451.31,-246.219 674.002,-224.639 788.696,-213.524"/>
<polygon fill="midnightblue" stroke="midnightblue" points="789.164,-216.995 798.78,-212.547 788.489,-210.028 789.164,-216.995"/>
</g>
<!-- Node20 -->
<g id="node20" class="node"><title>Node20</title>
<polygon fill="white" stroke="#bfbfbf" points="941.68,-190.5 941.68,-220.5 1042.68,-220.5 1042.68,-190.5 941.68,-190.5"/>
<text text-anchor="start" x="949.68" y="-208.5" font-family="Helvetica,sans-Serif" font-size="10.00">boost/property_tree</text>
<text text-anchor="middle" x="992.18" y="-197.5" font-family="Helvetica,sans-Serif" font-size="10.00">/xml_parser.hpp</text>
</g>
<!-- Node1&#45;&gt;Node20 -->
<g id="edge41" class="edge"><title>Node1&#45;&gt;Node20</title>
<path fill="none" stroke="midnightblue" d="M330.183,-265.127C457.638,-262.773 709.214,-254.122 931.661,-220.878"/>
<polygon fill="midnightblue" stroke="midnightblue" points="932.199,-224.336 941.562,-219.379 931.151,-217.415 932.199,-224.336"/>
</g>
<!-- Node4 -->
<g id="node4" class="node"><title>Node4</title>
<polygon fill="white" stroke="#bfbfbf" points="889.18,-62 889.18,-81 941.18,-81 941.18,-62 889.18,-62"/>
<text text-anchor="middle" x="915.18" y="-69" font-family="Helvetica,sans-Serif" font-size="10.00">memory</text>
</g>
<!-- Node3&#45;&gt;Node4 -->
<g id="edge3" class="edge"><title>Node3&#45;&gt;Node4</title>
<path fill="none" stroke="midnightblue" d="M246.212,-195.932C244.831,-178.987 244.514,-141.255 266.18,-123 318.441,-78.9661 813.573,-102.291 880.18,-87 882.852,-86.3865 885.582,-85.5883 888.28,-84.6818"/>
<polygon fill="midnightblue" stroke="midnightblue" points="889.662,-87.9009 897.753,-81.061 887.162,-81.3623 889.662,-87.9009"/>
</g>
<!-- Node5 -->
<g id="node5" class="node"><title>Node5</title>
<polygon fill="white" stroke="#bfbfbf" points="275.18,-129 275.18,-148 315.18,-148 315.18,-129 275.18,-129"/>
<text text-anchor="middle" x="295.18" y="-136" font-family="Helvetica,sans-Serif" font-size="10.00">utility</text>
</g>
<!-- Node3&#45;&gt;Node5 -->
<g id="edge4" class="edge"><title>Node3&#45;&gt;Node5</title>
<path fill="none" stroke="midnightblue" d="M253.653,-195.734C261.066,-185.695 273.384,-169.014 282.684,-156.421"/>
<polygon fill="midnightblue" stroke="midnightblue" points="285.684,-158.251 288.809,-148.127 280.053,-154.092 285.684,-158.251"/>
</g>
<!-- Node6 -->
<g id="node6" class="node"><title>Node6</title>
<polygon fill="white" stroke="#bfbfbf" points="802.18,-0.5 802.18,-19.5 846.18,-19.5 846.18,-0.5 802.18,-0.5"/>
<text text-anchor="middle" x="824.18" y="-7.5" font-family="Helvetica,sans-Serif" font-size="10.00">vector</text>
</g>
<!-- Node3&#45;&gt;Node6 -->
<g id="edge5" class="edge"><title>Node3&#45;&gt;Node6</title>
<path fill="none" stroke="midnightblue" d="M243.615,-195.688C237.631,-179.303 227.833,-143.918 245.18,-123 401.012,64.9144 547.409,-72.6975 792.009,-19.771"/>
<polygon fill="midnightblue" stroke="midnightblue" points="792.881,-23.1623 801.865,-17.5465 791.34,-16.334 792.881,-23.1623"/>
</g>
<!-- Node7 -->
<g id="node7" class="node"><title>Node7</title>
<g id="a_node7"><a xlink:href="FunctionTreeIntensity_8hpp.html" target="_top" xlink:title="Core/FunctionTree/Function\lTreeIntensity.hpp">
<polygon fill="white" stroke="red" points="333.18,-123.5 333.18,-153.5 471.18,-153.5 471.18,-123.5 333.18,-123.5"/>
<text text-anchor="start" x="341.18" y="-141.5" font-family="Helvetica,sans-Serif" font-size="10.00">Core/FunctionTree/Function</text>
<text text-anchor="middle" x="402.18" y="-130.5" font-family="Helvetica,sans-Serif" font-size="10.00">TreeIntensity.hpp</text>
</a>
</g>
</g>
<!-- Node3&#45;&gt;Node7 -->
<g id="edge6" class="edge"><title>Node3&#45;&gt;Node7</title>
<path fill="none" stroke="midnightblue" d="M267.763,-195.869C291.021,-186.115 329.522,-169.97 359.371,-157.452"/>
<polygon fill="midnightblue" stroke="midnightblue" points="360.86,-160.623 368.728,-153.528 358.153,-154.168 360.86,-160.623"/>
</g>
<!-- Node9 -->
<g id="node9" class="node"><title>Node9</title>
<g id="a_node9"><a xlink:href="HelicityKinematics_8hpp.html" target="_top" xlink:title="Physics/HelicityFormalism\l/HelicityKinematics.hpp">
<polygon fill="white" stroke="red" points="47.1797,-123.5 47.1797,-153.5 181.18,-153.5 181.18,-123.5 47.1797,-123.5"/>
<text text-anchor="start" x="55.1797" y="-141.5" font-family="Helvetica,sans-Serif" font-size="10.00">Physics/HelicityFormalism</text>
<text text-anchor="middle" x="114.18" y="-130.5" font-family="Helvetica,sans-Serif" font-size="10.00">/HelicityKinematics.hpp</text>
</a>
</g>
</g>
<!-- Node3&#45;&gt;Node9 -->
<g id="edge11" class="edge"><title>Node3&#45;&gt;Node9</title>
<path fill="none" stroke="midnightblue" d="M229.518,-195.869C209.82,-186.242 177.381,-170.388 151.914,-157.942"/>
<polygon fill="midnightblue" stroke="midnightblue" points="153.405,-154.774 142.883,-153.528 150.331,-161.064 153.405,-154.774"/>
</g>
<!-- Node7&#45;&gt;Node4 -->
<g id="edge7" class="edge"><title>Node7&#45;&gt;Node4</title>
<path fill="none" stroke="midnightblue" d="M471.447,-124.274C474.394,-123.822 477.314,-123.394 480.18,-123 657.009,-98.6615 706.853,-129.647 880.18,-87 882.695,-86.3812 885.264,-85.6098 887.811,-84.7473"/>
<polygon fill="midnightblue" stroke="midnightblue" points="889.272,-87.9359 897.366,-81.0996 886.776,-81.3962 889.272,-87.9359"/>
</g>
<!-- Node8 -->
<g id="node8" class="node"><title>Node8</title>
<g id="a_node8"><a xlink:href="Function_8hpp.html" target="_top" xlink:title="Core/Function.hpp">
<polygon fill="white" stroke="red" points="959.68,-62 959.68,-81 1056.68,-81 1056.68,-62 959.68,-62"/>
<text text-anchor="middle" x="1008.18" y="-69" font-family="Helvetica,sans-Serif" font-size="10.00">Core/Function.hpp</text>
</a>
</g>
</g>
<!-- Node7&#45;&gt;Node8 -->
<g id="edge8" class="edge"><title>Node7&#45;&gt;Node8</title>
<path fill="none" stroke="midnightblue" d="M471.441,-124.226C474.389,-123.787 477.312,-123.375 480.18,-123 687.909,-95.816 743.379,-120.525 950.18,-87 956.021,-86.053 962.138,-84.8086 968.117,-83.4462"/>
<polygon fill="midnightblue" stroke="midnightblue" points="969.074,-86.8161 977.977,-81.0738 967.436,-80.0103 969.074,-86.8161"/>
</g>
<!-- Node8&#45;&gt;Node2 -->
<g id="edge9" class="edge"><title>Node8&#45;&gt;Node2</title>
<path fill="none" stroke="midnightblue" d="M974.471,-61.9543C966.513,-59.9696 958.053,-57.8866 950.18,-56 883.553,-40.0346 864.048,-38.4122 793.593,-19.9661"/>
<polygon fill="midnightblue" stroke="midnightblue" points="794.348,-16.5456 783.786,-17.3769 792.561,-23.3137 794.348,-16.5456"/>
</g>
<!-- Node8&#45;&gt;Node6 -->
<g id="edge10" class="edge"><title>Node8&#45;&gt;Node6</title>
<path fill="none" stroke="midnightblue" d="M981.817,-61.9751C948.715,-51.2709 891.958,-32.9174 856.339,-21.3993"/>
<polygon fill="midnightblue" stroke="midnightblue" points="857.044,-17.9488 846.452,-18.2021 854.89,-24.6092 857.044,-17.9488"/>
</g>
<!-- Node9&#45;&gt;Node6 -->
<g id="edge12" class="edge"><title>Node9&#45;&gt;Node6</title>
<path fill="none" stroke="midnightblue" d="M123.144,-123.484C136.3,-104.311 162.82,-70.6201 195.18,-56 313.461,-2.56046 645.085,-40.2566 791.707,-19.5085"/>
<polygon fill="midnightblue" stroke="midnightblue" points="792.598,-22.9119 801.939,-17.9116 791.519,-15.9957 792.598,-22.9119"/>
</g>
<!-- Node9&#45;&gt;Node10 -->
<g id="edge13" class="edge"><title>Node9&#45;&gt;Node10</title>
<path fill="none" stroke="midnightblue" d="M108.755,-123.396C105.05,-113.763 100.108,-100.914 96.1172,-90.5373"/>
<polygon fill="midnightblue" stroke="midnightblue" points="99.3804,-89.2715 92.5238,-81.1945 92.8469,-91.7844 99.3804,-89.2715"/>
</g>
<!-- Node11 -->
<g id="node11" class="node"><title>Node11</title>
<g id="a_node11"><a xlink:href="ParticleStateTransitionKinematicsInfo_8hpp.html" target="_top" xlink:title="Physics/ParticleStateTransition\lKinematicsInfo.hpp">
<polygon fill="white" stroke="red" points="717.18,-56.5 717.18,-86.5 871.18,-86.5 871.18,-56.5 717.18,-56.5"/>
<text text-anchor="start" x="725.18" y="-74.5" font-family="Helvetica,sans-Serif" font-size="10.00">Physics/ParticleStateTransition</text>
<text text-anchor="middle" x="794.18" y="-63.5" font-family="Helvetica,sans-Serif" font-size="10.00">KinematicsInfo.hpp</text>
</a>
</g>
</g>
<!-- Node9&#45;&gt;Node11 -->
<g id="edge16" class="edge"><title>Node9&#45;&gt;Node11</title>
<path fill="none" stroke="midnightblue" d="M181.476,-128.925C198.346,-126.879 216.415,-124.775 233.18,-123 400.566,-105.273 596.478,-88.5539 706.885,-79.5016"/>
<polygon fill="midnightblue" stroke="midnightblue" points="707.29,-82.9803 716.972,-78.6765 706.719,-76.0036 707.29,-82.9803"/>
</g>
<!-- Node10&#45;&gt;Node2 -->
<g id="edge14" class="edge"><title>Node10&#45;&gt;Node2</title>
<path fill="none" stroke="midnightblue" d="M124.661,-61.9815C135.086,-59.7377 146.545,-57.5215 157.18,-56 376.233,-24.6602 643.148,-14.467 732.439,-11.8068"/>
<polygon fill="midnightblue" stroke="midnightblue" points="732.773,-15.2988 742.669,-11.5123 732.572,-8.30166 732.773,-15.2988"/>
</g>
<!-- Node10&#45;&gt;Node6 -->
<g id="edge15" class="edge"><title>Node10&#45;&gt;Node6</title>
<path fill="none" stroke="midnightblue" d="M124.293,-61.9385C134.811,-59.6655 146.412,-57.4445 157.18,-56 434.062,-18.8544 511.552,-65.4254 791.882,-19.5918"/>
<polygon fill="midnightblue" stroke="midnightblue" points="792.649,-23.0125 801.94,-17.9221 791.502,-16.107 792.649,-23.0125"/>
</g>
<!-- Node11&#45;&gt;Node2 -->
<g id="edge18" class="edge"><title>Node11&#45;&gt;Node2</title>
<path fill="none" stroke="midnightblue" d="M786.833,-56.3993C782.514,-48.1098 777.015,-37.5542 772.406,-28.7077"/>
<polygon fill="midnightblue" stroke="midnightblue" points="775.415,-26.9091 767.691,-19.6578 769.207,-30.1435 775.415,-26.9091"/>
</g>
<!-- Node11&#45;&gt;Node6 -->
<g id="edge19" class="edge"><title>Node11&#45;&gt;Node6</title>
<path fill="none" stroke="midnightblue" d="M801.289,-56.3993C805.469,-48.1098 810.791,-37.5542 815.252,-28.7077"/>
<polygon fill="midnightblue" stroke="midnightblue" points="818.438,-30.1628 819.814,-19.6578 812.187,-27.0112 818.438,-30.1628"/>
</g>
<!-- Node12 -->
<g id="node12" class="node"><title>Node12</title>
<polygon fill="white" stroke="#bfbfbf" points="1209.68,-0.5 1209.68,-19.5 1244.68,-19.5 1244.68,-0.5 1209.68,-0.5"/>
<text text-anchor="middle" x="1227.18" y="-7.5" font-family="Helvetica,sans-Serif" font-size="10.00">map</text>
</g>
<!-- Node11&#45;&gt;Node12 -->
<g id="edge17" class="edge"><title>Node11&#45;&gt;Node12</title>
<path fill="none" stroke="midnightblue" d="M871.513,-57.3185C874.438,-56.8653 877.334,-56.4242 880.18,-56 998.679,-38.3331 1140.55,-21.1788 1199.44,-14.2332"/>
<polygon fill="midnightblue" stroke="midnightblue" points="1199.93,-17.7004 1209.45,-13.0572 1199.11,-10.7483 1199.93,-17.7004"/>
</g>
<!-- Node13&#45;&gt;Node4 -->
<g id="edge37" class="edge"><title>Node13&#45;&gt;Node4</title>
<path fill="none" stroke="midnightblue" d="M869.536,-195.989C878.317,-186.537 891.851,-170.434 899.18,-154 908.15,-133.884 912.112,-108.757 913.849,-91.7615"/>
<polygon fill="midnightblue" stroke="midnightblue" points="917.365,-91.7174 914.73,-81.4556 910.391,-91.1212 917.365,-91.7174"/>
</g>
<!-- Node13&#45;&gt;Node6 -->
<g id="edge40" class="edge"><title>Node13&#45;&gt;Node6</title>
<path fill="none" stroke="midnightblue" d="M902.548,-195.967C962.465,-183.414 1066.87,-160.728 1072.18,-154 1084.61,-138.245 1081.42,-73.6075 1065.18,-56 1037.47,-25.9605 915.704,-15.6664 856.598,-12.3978"/>
<polygon fill="midnightblue" stroke="midnightblue" points="856.495,-8.88789 846.327,-11.8661 856.133,-15.8785 856.495,-8.88789"/>
</g>
<!-- Node13&#45;&gt;Node7 -->
<g id="edge23" class="edge"><title>Node13&#45;&gt;Node7</title>
<path fill="none" stroke="midnightblue" d="M799.003,-197.266C725.523,-188.492 599.338,-172.716 481.396,-154.147"/>
<polygon fill="midnightblue" stroke="midnightblue" points="481.894,-150.682 471.47,-152.574 480.799,-157.596 481.894,-150.682"/>
</g>
<!-- Node13&#45;&gt;Node8 -->
<g id="edge22" class="edge"><title>Node13&#45;&gt;Node8</title>
<path fill="none" stroke="midnightblue" d="M898.771,-195.955C953.798,-183.272 1050.32,-160.281 1055.18,-154 1071.79,-132.516 1047,-104.564 1027.58,-87.606"/>
<polygon fill="midnightblue" stroke="midnightblue" points="1029.65,-84.772 1019.73,-81.0621 1025.17,-90.1511 1029.65,-84.772"/>
</g>
<!-- Node13&#45;&gt;Node11 -->
<g id="edge28" class="edge"><title>Node13&#45;&gt;Node11</title>
<path fill="none" stroke="midnightblue" d="M864.483,-195.807C869.833,-180.215 878.607,-146.896 866.18,-123 859.434,-110.029 847.661,-99.6957 835.565,-91.842"/>
<polygon fill="midnightblue" stroke="midnightblue" points="837.143,-88.7068 826.768,-86.5592 833.539,-94.7079 837.143,-88.7068"/>
</g>
<!-- Node13&#45;&gt;Node12 -->
<g id="edge36" class="edge"><title>Node13&#45;&gt;Node12</title>
<path fill="none" stroke="midnightblue" d="M899.752,-195.94C910.237,-193.8 921.614,-191.648 932.18,-190 1005.5,-178.563 1214.61,-209.231 1264.18,-154 1296.48,-118.007 1261.11,-57.439 1240.24,-28.0371"/>
<polygon fill="midnightblue" stroke="midnightblue" points="1242.83,-25.6405 1234.08,-19.6568 1237.19,-29.7869 1242.83,-25.6405"/>
</g>
<!-- Node14 -->
<g id="node14" class="node"><title>Node14</title>
<g id="a_node14"><a xlink:href="Value_8hpp.html" target="_top" xlink:title="Template implementation of Parameter for simple values. ">
<polygon fill="white" stroke="red" points="489.18,-129 489.18,-148 633.18,-148 633.18,-129 489.18,-129"/>
<text text-anchor="middle" x="561.18" y="-136" font-family="Helvetica,sans-Serif" font-size="10.00">Core/FunctionTree/Value.hpp</text>
</a>
</g>
</g>
<!-- Node13&#45;&gt;Node14 -->
<g id="edge24" class="edge"><title>Node13&#45;&gt;Node14</title>
<path fill="none" stroke="midnightblue" d="M821.651,-195.936C767.355,-184.171 669.724,-163.018 610.646,-150.218"/>
<polygon fill="midnightblue" stroke="midnightblue" points="611.31,-146.78 600.796,-148.083 609.828,-153.622 611.31,-146.78"/>
</g>
<!-- Node15 -->
<g id="node15" class="node"><title>Node15</title>
<g id="a_node15"><a xlink:href="DataSet_8hpp.html" target="_top" xlink:title="Data/DataSet.hpp">
<polygon fill="white" stroke="red" points="951.68,-129 951.68,-148 1046.68,-148 1046.68,-129 951.68,-129"/>
<text text-anchor="middle" x="999.18" y="-136" font-family="Helvetica,sans-Serif" font-size="10.00">Data/DataSet.hpp</text>
</a>
</g>
</g>
<!-- Node13&#45;&gt;Node15 -->
<g id="edge25" class="edge"><title>Node13&#45;&gt;Node15</title>
<path fill="none" stroke="midnightblue" d="M879.505,-195.869C903.116,-184.748 944.369,-165.317 971.731,-152.429"/>
<polygon fill="midnightblue" stroke="midnightblue" points="973.223,-155.595 980.779,-148.167 970.24,-149.262 973.223,-155.595"/>
</g>
<!-- Node16 -->
<g id="node16" class="node"><title>Node16</title>
<g id="a_node16"><a xlink:href="FitFractions_8hpp.html" target="_top" xlink:title="Tools/FitFractions.hpp">
<polygon fill="white" stroke="black" points="1141.18,-129 1141.18,-148 1255.18,-148 1255.18,-129 1141.18,-129"/>
<text text-anchor="middle" x="1198.18" y="-136" font-family="Helvetica,sans-Serif" font-size="10.00">Tools/FitFractions.hpp</text>
</a>
</g>
</g>
<!-- Node13&#45;&gt;Node16 -->
<g id="edge29" class="edge"><title>Node13&#45;&gt;Node16</title>
<path fill="none" stroke="midnightblue" d="M902.451,-195.934C912.193,-193.95 922.547,-191.873 932.18,-190 1018.69,-173.182 1040.67,-170.818 1127.18,-154 1133.5,-152.771 1140.13,-151.454 1146.7,-150.133"/>
<polygon fill="midnightblue" stroke="midnightblue" points="1147.8,-153.481 1156.91,-148.066 1146.41,-146.62 1147.8,-153.481"/>
</g>
<!-- Node17 -->
<g id="node17" class="node"><title>Node17</title>
<polygon fill="white" stroke="#bfbfbf" points="651.68,-123.5 651.68,-153.5 752.68,-153.5 752.68,-123.5 651.68,-123.5"/>
<text text-anchor="start" x="659.68" y="-141.5" font-family="Helvetica,sans-Serif" font-size="10.00">boost/property_tree</text>
<text text-anchor="middle" x="702.18" y="-130.5" font-family="Helvetica,sans-Serif" font-size="10.00">/ptree_fwd.hpp</text>
</g>
<!-- Node13&#45;&gt;Node17 -->
<g id="edge35" class="edge"><title>Node13&#45;&gt;Node17</title>
<path fill="none" stroke="midnightblue" d="M840.066,-195.869C816.207,-186.115 776.713,-169.97 746.093,-157.452"/>
<polygon fill="midnightblue" stroke="midnightblue" points="747.075,-154.072 736.495,-153.528 744.427,-160.552 747.075,-154.072"/>
</g>
<!-- Node18 -->
<g id="node18" class="node"><title>Node18</title>
<polygon fill="white" stroke="#bfbfbf" points="771.18,-129 771.18,-148 801.18,-148 801.18,-129 771.18,-129"/>
<text text-anchor="middle" x="786.18" y="-136" font-family="Helvetica,sans-Serif" font-size="10.00">set</text>
</g>
<!-- Node13&#45;&gt;Node18 -->
<g id="edge38" class="edge"><title>Node13&#45;&gt;Node18</title>
<path fill="none" stroke="midnightblue" d="M851.065,-195.734C839.032,-185.305 818.728,-167.709 804.033,-154.973"/>
<polygon fill="midnightblue" stroke="midnightblue" points="805.984,-152.032 796.134,-148.127 801.399,-157.322 805.984,-152.032"/>
</g>
<!-- Node19 -->
<g id="node19" class="node"><title>Node19</title>
<polygon fill="white" stroke="#bfbfbf" points="819.18,-129 819.18,-148 857.18,-148 857.18,-129 819.18,-129"/>
<text text-anchor="middle" x="838.18" y="-136" font-family="Helvetica,sans-Serif" font-size="10.00">tuple</text>
</g>
<!-- Node13&#45;&gt;Node19 -->
<g id="edge39" class="edge"><title>Node13&#45;&gt;Node19</title>
<path fill="none" stroke="midnightblue" d="M858.078,-195.734C854.664,-186.085 849.078,-170.3 844.693,-157.906"/>
<polygon fill="midnightblue" stroke="midnightblue" points="847.868,-156.387 841.232,-148.127 841.269,-158.722 847.868,-156.387"/>
</g>
<!-- Node15&#45;&gt;Node4 -->
<g id="edge26" class="edge"><title>Node15&#45;&gt;Node4</title>
<path fill="none" stroke="midnightblue" d="M987.851,-128.734C974.123,-118.111 950.781,-100.049 934.26,-87.2642"/>
<polygon fill="midnightblue" stroke="midnightblue" points="936.38,-84.4791 926.329,-81.1273 932.096,-90.0152 936.38,-84.4791"/>
</g>
<!-- Node15&#45;&gt;Node8 -->
<g id="edge27" class="edge"><title>Node15&#45;&gt;Node8</title>
<path fill="none" stroke="midnightblue" d="M1000.39,-128.734C1001.72,-119.183 1003.87,-103.618 1005.58,-91.2829"/>
<polygon fill="midnightblue" stroke="midnightblue" points="1009.08,-91.5129 1006.99,-81.1273 1002.15,-90.5527 1009.08,-91.5129"/>
</g>
<!-- Node16&#45;&gt;Node2 -->
<g id="edge33" class="edge"><title>Node16&#45;&gt;Node2</title>
<path fill="none" stroke="midnightblue" d="M1187.6,-128.828C1166.07,-111.696 1114.95,-73.6442 1065.18,-56 953.275,-16.3301 914.454,-44.0509 793.716,-19.7281"/>
<polygon fill="midnightblue" stroke="midnightblue" points="794.229,-16.2596 783.724,-17.6351 792.794,-23.1109 794.229,-16.2596"/>
</g>
<!-- Node16&#45;&gt;Node4 -->
<g id="edge32" class="edge"><title>Node16&#45;&gt;Node4</title>
<path fill="none" stroke="midnightblue" d="M1140.77,-129.021C1090,-120.768 1014.26,-106.598 950.18,-87 947.898,-86.3021 945.56,-85.5107 943.227,-84.6664"/>
<polygon fill="midnightblue" stroke="midnightblue" points="944.416,-81.3735 933.828,-81.0016 941.873,-87.8953 944.416,-81.3735"/>
</g>
<!-- Node16&#45;&gt;Node6 -->
<g id="edge34" class="edge"><title>Node16&#45;&gt;Node6</title>
<path fill="none" stroke="midnightblue" d="M1197.46,-128.926C1195.55,-111.97 1188.72,-74.2186 1165.18,-56 1117.47,-19.0754 932.63,-12.4052 856.86,-11.2337"/>
<polygon fill="midnightblue" stroke="midnightblue" points="856.546,-7.72935 846.501,-11.0978 856.454,-14.7287 856.546,-7.72935"/>
</g>
<!-- Node16&#45;&gt;Node8 -->
<g id="edge30" class="edge"><title>Node16&#45;&gt;Node8</title>
<path fill="none" stroke="midnightblue" d="M1172.95,-128.869C1139.5,-117.424 1080.32,-97.1807 1042.74,-84.3223"/>
<polygon fill="midnightblue" stroke="midnightblue" points="1043.81,-80.989 1033.21,-81.0637 1041.54,-87.6122 1043.81,-80.989"/>
</g>
<!-- Node16&#45;&gt;Node12 -->
<g id="edge31" class="edge"><title>Node16&#45;&gt;Node12</title>
<path fill="none" stroke="midnightblue" d="M1200.17,-128.805C1204.83,-108.494 1216.51,-57.5532 1222.88,-29.7768"/>
<polygon fill="midnightblue" stroke="midnightblue" points="1226.35,-30.285 1225.17,-19.7557 1219.53,-28.7207 1226.35,-30.285"/>
</g>
</g>
</svg>
        <g id="navigator" transform="translate(0 0)" fill="#404254">
                <rect fill="#f2f5e9" fill-opacity="0.5" stroke="#606060" stroke-width=".5" x="0" y="0" width="60" height="60"/>
                <use id="zoomplus" xlink:href="#zoomPlus" x="17" y="9" onmousedown="handleZoom(evt,'in')"/>
                <use id="zoomminus" xlink:href="#zoomMin" x="42" y="9" onmousedown="handleZoom(evt,'out')"/>
                <use id="reset" xlink:href="#resetDef" x="30" y="36" onmousedown="handleReset()"/>
                <g id="arrowUp" xlink:href="#dirArrow" transform="translate(30 24)" onmousedown="handlePan(0,-1)">
                  <use xlink:href="#rim" fill="#404040">
                        <set attributeName="fill" to="#808080" begin="arrowUp.mouseover" end="arrowUp.mouseout"/>
                  </use>
                  <path fill="none" stroke="white" stroke-width="1.5" d="M0,-3.0v7 M-2.5,-0.5L0,-3.0L2.5,-0.5"/>
                </g>
                <g id="arrowRight" xlink:href="#dirArrow" transform="rotate(90) translate(36 -43)" onmousedown="handlePan(1,0)">
                  <use xlink:href="#rim" fill="#404040">
                        <set attributeName="fill" to="#808080" begin="arrowRight.mouseover" end="arrowRight.mouseout"/>
                  </use>
                  <path fill="none" stroke="white" stroke-width="1.5" d="M0,-3.0v7 M-2.5,-0.5L0,-3.0L2.5,-0.5"/>
                </g>
                <g id="arrowDown" xlink:href="#dirArrow" transform="rotate(180) translate(-30 -48)" onmousedown="handlePan(0,1)">
                  <use xlink:href="#rim" fill="#404040">
                        <set attributeName="fill" to="#808080" begin="arrowDown.mouseover" end="arrowDown.mouseout"/>
                  </use>
                  <path fill="none" stroke="white" stroke-width="1.5" d="M0,-3.0v7 M-2.5,-0.5L0,-3.0L2.5,-0.5"/>
                </g>
                <g id="arrowLeft" xlink:href="#dirArrow" transform="rotate(270) translate(-36 17)" onmousedown="handlePan(-1,0)">
                  <use xlink:href="#rim" fill="#404040">
                        <set attributeName="fill" to="#808080" begin="arrowLeft.mouseover" end="arrowLeft.mouseout"/>
                  </use>
                  <path fill="none" stroke="white" stroke-width="1.5" d="M0,-3.0v7 M-2.5,-0.5L0,-3.0L2.5,-0.5"/>
                </g>
        </g>
        <svg viewBox="0 0 15 15" width="100%" height="30px" preserveAspectRatio="xMaxYMin meet">
         <g id="arrow_out" transform="scale(0.3 0.3)">
          <a xlink:href="BOSSAdapter_8cpp__incl_org.svg" target="_base">
           <rect id="button" ry="5" rx="5" y="6" x="6" height="38" width="38"
                fill="#f2f5e9" fill-opacity="0.5" stroke="#606060" stroke-width="1.0"/>
           <path id="arrow"
             d="M 11.500037,31.436501 C 11.940474,20.09759 22.043105,11.32322 32.158766,21.979434 L 37.068811,17.246167 C 37.068811,17.246167 37.088388,32 37.088388,32 L 22.160133,31.978069 C 22.160133,31.978069 26.997745,27.140456 26.997745,27.140456 C 18.528582,18.264221 13.291696,25.230495 11.500037,31.436501 z"
             style="fill:#404040;"/>
          </a>
         </g>
        </svg>
</svg>
