<?xml version="1.0" encoding="UTF-8" standalone="no"?>
<!DOCTYPE svg PUBLIC "-//W3C//DTD SVG 1.1//EN"
 "http://www.w3.org/Graphics/SVG/1.1/DTD/svg11.dtd">
<!-- Generated by graphviz version 2.38.0 (20140413.2041)
 -->
<!-- Title: Tools/Adapters/BOSSAdapter.hpp Pages: 1 -->
<svg width="819pt" height="218pt"
 viewBox="0.00 0.00 819.23 218.00" xmlns="http://www.w3.org/2000/svg" xmlns:xlink="http://www.w3.org/1999/xlink">
<g id="graph0" class="graph" transform="scale(1 1) rotate(0) translate(4 214)">
<title>Tools/Adapters/BOSSAdapter.hpp</title>
<polygon fill="white" stroke="none" points="-4,4 -4,-214 815.228,-214 815.228,4 -4,4"/>
<!-- Node1 -->
<g id="node1" class="node"><title>Node1</title>
<polygon fill="#bfbfbf" stroke="black" points="122,-190.5 122,-209.5 288,-209.5 288,-190.5 122,-190.5"/>
<text text-anchor="middle" x="205" y="-197.5" font-family="Helvetica,sans-Serif" font-size="10.00">Tools/Adapters/BOSSAdapter.hpp</text>
</g>
<!-- Node2 -->
<g id="node2" class="node"><title>Node2</title>
<polygon fill="white" stroke="#bfbfbf" points="0,-0.5 0,-19.5 52,-19.5 52,-0.5 0,-0.5"/>
<text text-anchor="middle" x="26" y="-7.5" font-family="Helvetica,sans-Serif" font-size="10.00">memory</text>
</g>
<!-- Node1&#45;&gt;Node2 -->
<g id="edge1" class="edge"><title>Node1&#45;&gt;Node2</title>
<path fill="none" stroke="midnightblue" d="M152.918,-190.446C125.771,-183.963 93.2665,-172.829 69,-154 41.0451,-132.31 35.9581,-120.953 26,-87 20.4421,-68.0499 21.3831,-45.2798 23.1236,-29.6341"/>
<polygon fill="midnightblue" stroke="midnightblue" points="26.6015,-30.0315 24.4507,-19.6573 19.6626,-29.1084 26.6015,-30.0315"/>
</g>
<!-- Node3 -->
<g id="node3" class="node"><title>Node3</title>
<polygon fill="white" stroke="#bfbfbf" points="78,-129 78,-148 118,-148 118,-129 78,-129"/>
<text text-anchor="middle" x="98" y="-136" font-family="Helvetica,sans-Serif" font-size="10.00">utility</text>
</g>
<!-- Node1&#45;&gt;Node3 -->
<g id="edge2" class="edge"><title>Node1&#45;&gt;Node3</title>
<path fill="none" stroke="midnightblue" d="M189.67,-190.475C172.03,-180.666 142.84,-164.435 122.142,-152.925"/>
<polygon fill="midnightblue" stroke="midnightblue" points="123.743,-149.81 113.302,-148.009 120.341,-155.928 123.743,-149.81"/>
</g>
<!-- Node4 -->
<g id="node4" class="node"><title>Node4</title>
<polygon fill="white" stroke="#bfbfbf" points="547,-0.5 547,-19.5 591,-19.5 591,-0.5 547,-0.5"/>
<text text-anchor="middle" x="569" y="-7.5" font-family="Helvetica,sans-Serif" font-size="10.00">vector</text>
</g>
<!-- Node1&#45;&gt;Node4 -->
<g id="edge3" class="edge"><title>Node1&#45;&gt;Node4</title>
<path fill="none" stroke="midnightblue" d="M288.184,-197.38C439.323,-192.346 748.647,-171.692 805,-87 812.632,-75.5294 813.783,-66.6156 805,-56 779.531,-25.2162 660.017,-15.3053 601.477,-12.2666"/>
<polygon fill="midnightblue" stroke="midnightblue" points="601.449,-8.76128 591.292,-11.7757 601.112,-15.7532 601.449,-8.76128"/>
</g>
<!-- Node5 -->
<g id="node5" class="node"><title>Node5</title>
<g id="a_node5"><a xlink:href="FunctionTreeIntensity_8hpp.html" target="_top" xlink:title="Core/FunctionTree/Function\lTreeIntensity.hpp">
<polygon fill="white" stroke="black" points="136,-123.5 136,-153.5 274,-153.5 274,-123.5 136,-123.5"/>
<text text-anchor="start" x="144" y="-141.5" font-family="Helvetica,sans-Serif" font-size="10.00">Core/FunctionTree/Function</text>
<text text-anchor="middle" x="205" y="-130.5" font-family="Helvetica,sans-Serif" font-size="10.00">TreeIntensity.hpp</text>
</a>
</g>
</g>
<!-- Node1&#45;&gt;Node5 -->
<g id="edge4" class="edge"><title>Node1&#45;&gt;Node5</title>
<path fill="none" stroke="midnightblue" d="M205,-190.475C205,-183.471 205,-173.192 205,-163.696"/>
<polygon fill="midnightblue" stroke="midnightblue" points="208.5,-163.523 205,-153.523 201.5,-163.523 208.5,-163.523"/>
</g>
<!-- Node8 -->
<g id="node8" class="node"><title>Node8</title>
<g id="a_node8"><a xlink:href="HelicityKinematics_8hpp.html" target="_top" xlink:title="Physics/HelicityFormalism\l/HelicityKinematics.hpp">
<polygon fill="white" stroke="black" points="502,-123.5 502,-153.5 636,-153.5 636,-123.5 502,-123.5"/>
<text text-anchor="start" x="510" y="-141.5" font-family="Helvetica,sans-Serif" font-size="10.00">Physics/HelicityFormalism</text>
<text text-anchor="middle" x="569" y="-130.5" font-family="Helvetica,sans-Serif" font-size="10.00">/HelicityKinematics.hpp</text>
</a>
</g>
</g>
<!-- Node1&#45;&gt;Node8 -->
<g id="edge11" class="edge"><title>Node1&#45;&gt;Node8</title>
<path fill="none" stroke="midnightblue" d="M257.152,-190.475C318.515,-180.445 420.967,-163.698 491.599,-152.152"/>
<polygon fill="midnightblue" stroke="midnightblue" points="492.477,-155.555 501.781,-150.488 491.347,-148.647 492.477,-155.555"/>
</g>
<!-- Node5&#45;&gt;Node2 -->
<g id="edge5" class="edge"><title>Node5&#45;&gt;Node2</title>
<path fill="none" stroke="midnightblue" d="M138.879,-123.498C100.942,-114.186 58.2747,-101.107 45,-87 30.6115,-71.7097 26.6671,-47.2235 25.8029,-30.1924"/>
<polygon fill="midnightblue" stroke="midnightblue" points="29.2949,-29.7293 25.6063,-19.7973 22.2961,-29.8618 29.2949,-29.7293"/>
</g>
<!-- Node6 -->
<g id="node6" class="node"><title>Node6</title>
<g id="a_node6"><a xlink:href="Function_8hpp.html" target="_top" xlink:title="Core/Function.hpp">
<polygon fill="white" stroke="red" points="218.5,-62 218.5,-81 315.5,-81 315.5,-62 218.5,-62"/>
<text text-anchor="middle" x="267" y="-69" font-family="Helvetica,sans-Serif" font-size="10.00">Core/Function.hpp</text>
</a>
</g>
</g>
<!-- Node5&#45;&gt;Node6 -->
<g id="edge6" class="edge"><title>Node5&#45;&gt;Node6</title>
<path fill="none" stroke="midnightblue" d="M218.453,-123.396C228.216,-113.161 241.441,-99.2959 251.622,-88.622"/>
<polygon fill="midnightblue" stroke="midnightblue" points="254.337,-90.8464 258.707,-81.1945 249.272,-86.0149 254.337,-90.8464"/>
</g>
<!-- Node7 -->
<g id="node7" class="node"><title>Node7</title>
<g id="a_node7"><a xlink:href="ParameterList_8hpp.html" target="_top" xlink:title="ParameterList class. ">
<polygon fill="white" stroke="red" points="54,-56.5 54,-86.5 200,-86.5 200,-56.5 54,-56.5"/>
<text text-anchor="start" x="62" y="-74.5" font-family="Helvetica,sans-Serif" font-size="10.00">Core/FunctionTree/Parameter</text>
<text text-anchor="middle" x="127" y="-63.5" font-family="Helvetica,sans-Serif" font-size="10.00">List.hpp</text>
</a>
</g>
</g>
<!-- Node5&#45;&gt;Node7 -->
<g id="edge8" class="edge"><title>Node5&#45;&gt;Node7</title>
<path fill="none" stroke="midnightblue" d="M188.075,-123.396C177.445,-114.538 163.552,-102.96 151.703,-93.0861"/>
<polygon fill="midnightblue" stroke="midnightblue" points="153.815,-90.2896 143.892,-86.5765 149.333,-95.6672 153.815,-90.2896"/>
</g>
<!-- Node6&#45;&gt;Node4 -->
<g id="edge7" class="edge"><title>Node6&#45;&gt;Node4</title>
<path fill="none" stroke="midnightblue" d="M299.737,-61.9356C307.961,-59.8891 316.784,-57.7828 325,-56 400.374,-39.6446 489.675,-24.1542 536.548,-16.3197"/>
<polygon fill="midnightblue" stroke="midnightblue" points="537.412,-19.7242 546.703,-14.6315 536.264,-12.819 537.412,-19.7242"/>
</g>
<!-- Node7&#45;&gt;Node2 -->
<g id="edge9" class="edge"><title>Node7&#45;&gt;Node2</title>
<path fill="none" stroke="midnightblue" d="M103.064,-56.3993C86.8749,-46.8619 65.5933,-34.3248 49.4969,-24.8422"/>
<polygon fill="midnightblue" stroke="midnightblue" points="51.089,-21.718 40.6964,-19.6578 47.5359,-27.7492 51.089,-21.718"/>
</g>
<!-- Node7&#45;&gt;Node4 -->
<g id="edge10" class="edge"><title>Node7&#45;&gt;Node4</title>
<path fill="none" stroke="midnightblue" d="M200.287,-57.351C203.228,-56.8835 206.141,-56.4312 209,-56 329.401,-37.8416 473.249,-21.4468 536.474,-14.5066"/>
<polygon fill="midnightblue" stroke="midnightblue" points="537.057,-17.9639 546.618,-13.3986 536.297,-11.0053 537.057,-17.9639"/>
</g>
<!-- Node8&#45;&gt;Node4 -->
<g id="edge12" class="edge"><title>Node8&#45;&gt;Node4</title>
<path fill="none" stroke="midnightblue" d="M601.147,-123.336C615.825,-115.034 631.747,-102.997 640,-87 646.317,-74.7556 646.641,-68.0716 640,-56 631.518,-40.5813 615.273,-29.7037 600.461,-22.5102"/>
<polygon fill="midnightblue" stroke="midnightblue" points="601.588,-19.1809 591.03,-18.3044 598.737,-25.574 601.588,-19.1809"/>
</g>
<!-- Node9 -->
<g id="node9" class="node"><title>Node9</title>
<g id="a_node9"><a xlink:href="Kinematics_8hpp.html" target="_top" xlink:title="Core/Kinematics.hpp">
<polygon fill="white" stroke="red" points="688,-62 688,-81 796,-81 796,-62 688,-62"/>
<text text-anchor="middle" x="742" y="-69" font-family="Helvetica,sans-Serif" font-size="10.00">Core/Kinematics.hpp</text>
</a>
</g>
</g>
<!-- Node8&#45;&gt;Node9 -->
<g id="edge13" class="edge"><title>Node8&#45;&gt;Node9</title>
<path fill="none" stroke="midnightblue" d="M606.538,-123.396C637.296,-111.84 680.369,-95.6562 709.628,-84.6629"/>
<polygon fill="midnightblue" stroke="midnightblue" points="711.228,-87.8006 719.358,-81.007 708.766,-81.2479 711.228,-87.8006"/>
</g>
<!-- Node10 -->
<g id="node10" class="node"><title>Node10</title>
<g id="a_node10"><a xlink:href="ParticleStateTransitionKinematicsInfo_8hpp.html" target="_top" xlink:title="Physics/ParticleStateTransition\lKinematicsInfo.hpp">
<polygon fill="white" stroke="red" points="334,-56.5 334,-86.5 488,-86.5 488,-56.5 334,-56.5"/>
<text text-anchor="start" x="342" y="-74.5" font-family="Helvetica,sans-Serif" font-size="10.00">Physics/ParticleStateTransition</text>
<text text-anchor="middle" x="411" y="-63.5" font-family="Helvetica,sans-Serif" font-size="10.00">KinematicsInfo.hpp</text>
</a>
</g>
</g>
<!-- Node8&#45;&gt;Node10 -->
<g id="edge15" class="edge"><title>Node8&#45;&gt;Node10</title>
<path fill="none" stroke="midnightblue" d="M534.716,-123.396C511.217,-113.728 479.846,-100.823 454.574,-90.4262"/>
<polygon fill="midnightblue" stroke="midnightblue" points="455.796,-87.1443 445.217,-86.5765 453.133,-93.6179 455.796,-87.1443"/>
</g>
<!-- Node11 -->
<g id="node11" class="node"><title>Node11</title>
<g id="a_node11"><a xlink:href="SubSystem_8hpp.html" target="_top" xlink:title="Contains SubSystem class. ">
<polygon fill="white" stroke="red" points="506.5,-62 506.5,-81 631.5,-81 631.5,-62 506.5,-62"/>
<text text-anchor="middle" x="569" y="-69" font-family="Helvetica,sans-Serif" font-size="10.00">Physics/SubSystem.hpp</text>
</a>
</g>
</g>
<!-- Node8&#45;&gt;Node11 -->
<g id="edge17" class="edge"><title>Node8&#45;&gt;Node11</title>
<path fill="none" stroke="midnightblue" d="M569,-123.396C569,-114.064 569,-101.714 569,-91.5173"/>
<polygon fill="midnightblue" stroke="midnightblue" points="572.5,-91.1945 569,-81.1945 565.5,-91.1946 572.5,-91.1945"/>
</g>
<!-- Node9&#45;&gt;Node4 -->
<g id="edge14" class="edge"><title>Node9&#45;&gt;Node4</title>
<path fill="none" stroke="midnightblue" d="M717.213,-61.9751C686.563,-51.4333 634.341,-33.4726 600.775,-21.9283"/>
<polygon fill="midnightblue" stroke="midnightblue" points="601.596,-18.5095 591.001,-18.5669 599.319,-25.129 601.596,-18.5095"/>
</g>
<!-- Node10&#45;&gt;Node4 -->
<g id="edge16" class="edge"><title>Node10&#45;&gt;Node4</title>
<path fill="none" stroke="midnightblue" d="M448.444,-56.3993C475.512,-46.2058 511.681,-32.5855 537.319,-22.9304"/>
<polygon fill="midnightblue" stroke="midnightblue" points="538.802,-26.1121 546.927,-19.3124 536.335,-19.5612 538.802,-26.1121"/>
</g>
<!-- Node11&#45;&gt;Node4 -->
<g id="edge18" class="edge"><title>Node11&#45;&gt;Node4</title>
<path fill="none" stroke="midnightblue" d="M569,-61.9751C569,-53.5803 569,-40.4806 569,-29.6631"/>
<polygon fill="midnightblue" stroke="midnightblue" points="572.5,-29.5091 569,-19.5091 565.5,-29.5091 572.5,-29.5091"/>
</g>
</g>
</svg>
