<?xml version="1.0" encoding="UTF-8" standalone="no"?>
<!DOCTYPE svg PUBLIC "-//W3C//DTD SVG 1.1//EN"
 "http://www.w3.org/Graphics/SVG/1.1/DTD/svg11.dtd">
<!-- Generated by graphviz version 2.38.0 (20140413.2041)
 -->
<!-- Title: Physics/BuilderXML.hpp Pages: 1 -->
<svg width="1257pt" height="274pt"
 viewBox="0.00 0.00 1257.18 274.00" xmlns="http://www.w3.org/2000/svg" xmlns:xlink="http://www.w3.org/1999/xlink">
<g id="graph0" class="graph" transform="scale(1 1) rotate(0) translate(4 270)">
<title>Physics/BuilderXML.hpp</title>
<polygon fill="white" stroke="none" points="-4,4 -4,-270 1253.18,-270 1253.18,4 -4,4"/>
<!-- Node1 -->
<g id="node1" class="node"><title>Node1</title>
<polygon fill="#bfbfbf" stroke="black" points="471.184,-246.5 471.184,-265.5 595.184,-265.5 595.184,-246.5 471.184,-246.5"/>
<text text-anchor="middle" x="533.184" y="-253.5" font-family="Helvetica,sans-Serif" font-size="10.00">Physics/BuilderXML.hpp</text>
</g>
<!-- Node2 -->
<g id="node2" class="node"><title>Node2</title>
<g id="a_node2"><a xlink:href="Function_8hpp.html" target="_top" xlink:title="Core/Function.hpp">
<polygon fill="white" stroke="black" points="407.684,-118 407.684,-137 504.684,-137 504.684,-118 407.684,-118"/>
<text text-anchor="middle" x="456.184" y="-125" font-family="Helvetica,sans-Serif" font-size="10.00">Core/Function.hpp</text>
</a>
</g>
</g>
<!-- Node1&#45;&gt;Node2 -->
<g id="edge1" class="edge"><title>Node1&#45;&gt;Node2</title>
<path fill="none" stroke="midnightblue" d="M472.702,-246.469C450.865,-240.144 428.368,-229.139 415.184,-210 400.379,-188.509 421.615,-160.921 438.632,-143.987"/>
<polygon fill="midnightblue" stroke="midnightblue" points="441.144,-146.428 446.009,-137.016 436.337,-141.341 441.144,-146.428"/>
</g>
<!-- Node5 -->
<g id="node5" class="node"><title>Node5</title>
<polygon fill="white" stroke="#bfbfbf" points="568.184,-0.5 568.184,-19.5 612.184,-19.5 612.184,-0.5 568.184,-0.5"/>
<text text-anchor="middle" x="590.184" y="-7.5" font-family="Helvetica,sans-Serif" font-size="10.00">vector</text>
</g>
<!-- Node1&#45;&gt;Node5 -->
<g id="edge42" class="edge"><title>Node1&#45;&gt;Node5</title>
<path fill="none" stroke="midnightblue" d="M471.076,-253.413C374.139,-250.037 192.077,-239.822 135.184,-210 59.0517,-170.093 -40.1652,-119.119 18.1836,-56 54.9483,-16.2294 442.077,-11.5549 557.733,-11.0486"/>
<polygon fill="midnightblue" stroke="midnightblue" points="558.07,-14.5475 568.058,-11.0116 558.045,-7.54757 558.07,-14.5475"/>
</g>
<!-- Node6 -->
<g id="node6" class="node"><title>Node6</title>
<g id="a_node6"><a xlink:href="FunctionTreeIntensity_8hpp.html" target="_top" xlink:title="Core/FunctionTree/Function\lTreeIntensity.hpp">
<polygon fill="white" stroke="black" points="230.184,-179.5 230.184,-209.5 368.184,-209.5 368.184,-179.5 230.184,-179.5"/>
<text text-anchor="start" x="238.184" y="-197.5" font-family="Helvetica,sans-Serif" font-size="10.00">Core/FunctionTree/Function</text>
<text text-anchor="middle" x="299.184" y="-186.5" font-family="Helvetica,sans-Serif" font-size="10.00">TreeIntensity.hpp</text>
</a>
</g>
</g>
<!-- Node1&#45;&gt;Node6 -->
<g id="edge5" class="edge"><title>Node1&#45;&gt;Node6</title>
<path fill="none" stroke="midnightblue" d="M499.657,-246.475C464.411,-237.513 408.076,-223.188 364.087,-212.003"/>
<polygon fill="midnightblue" stroke="midnightblue" points="364.887,-208.595 354.333,-209.523 363.162,-215.379 364.887,-208.595"/>
</g>
<!-- Node7 -->
<g id="node7" class="node"><title>Node7</title>
<polygon fill="white" stroke="#bfbfbf" points="189.184,-56.5 189.184,-75.5 241.184,-75.5 241.184,-56.5 189.184,-56.5"/>
<text text-anchor="middle" x="215.184" y="-63.5" font-family="Helvetica,sans-Serif" font-size="10.00">memory</text>
</g>
<!-- Node1&#45;&gt;Node7 -->
<g id="edge39" class="edge"><title>Node1&#45;&gt;Node7</title>
<path fill="none" stroke="midnightblue" d="M471.097,-250.696C392.963,-244.486 263.816,-231.352 221.184,-210 174.008,-186.372 130.401,-159.098 154.184,-112 160.991,-98.5199 173.951,-88.083 186.181,-80.6696"/>
<polygon fill="midnightblue" stroke="midnightblue" points="188.253,-83.5214 195.278,-75.5896 184.84,-77.4099 188.253,-83.5214"/>
</g>
<!-- Node9 -->
<g id="node9" class="node"><title>Node9</title>
<polygon fill="white" stroke="#bfbfbf" points="855.684,-56.5 855.684,-75.5 890.684,-75.5 890.684,-56.5 855.684,-56.5"/>
<text text-anchor="middle" x="873.184" y="-63.5" font-family="Helvetica,sans-Serif" font-size="10.00">map</text>
</g>
<!-- Node1&#45;&gt;Node9 -->
<g id="edge38" class="edge"><title>Node1&#45;&gt;Node9</title>
<path fill="none" stroke="midnightblue" d="M595.233,-255.295C679.816,-254.274 824.861,-246.989 860.184,-210 892.242,-176.428 884.541,-116.036 877.96,-85.6031"/>
<polygon fill="midnightblue" stroke="midnightblue" points="881.284,-84.4514 875.577,-75.5248 874.472,-86.0618 881.284,-84.4514"/>
</g>
<!-- Node10 -->
<g id="node10" class="node"><title>Node10</title>
<g id="a_node10"><a xlink:href="Value_8hpp.html" target="_top" xlink:title="Template implementation of Parameter for simple values. ">
<polygon fill="white" stroke="red" points="27.1836,-56.5 27.1836,-75.5 171.184,-75.5 171.184,-56.5 27.1836,-56.5"/>
<text text-anchor="middle" x="99.1836" y="-63.5" font-family="Helvetica,sans-Serif" font-size="10.00">Core/FunctionTree/Value.hpp</text>
</a>
</g>
</g>
<!-- Node1&#45;&gt;Node10 -->
<g id="edge14" class="edge"><title>Node1&#45;&gt;Node10</title>
<path fill="none" stroke="midnightblue" d="M471.158,-254.379C379.966,-252.315 215.405,-243.851 168.184,-210 126.082,-179.819 108.61,-116.891 102.295,-85.5568"/>
<polygon fill="midnightblue" stroke="midnightblue" points="105.707,-84.7587 100.448,-75.5611 98.8235,-86.0306 105.707,-84.7587"/>
</g>
<!-- Node11 -->
<g id="node11" class="node"><title>Node11</title>
<g id="a_node11"><a xlink:href="DataSet_8hpp.html" target="_top" xlink:title="Data/DataSet.hpp">
<polygon fill="white" stroke="black" points="424.684,-185 424.684,-204 519.684,-204 519.684,-185 424.684,-185"/>
<text text-anchor="middle" x="472.184" y="-192" font-family="Helvetica,sans-Serif" font-size="10.00">Data/DataSet.hpp</text>
</a>
</g>
</g>
<!-- Node1&#45;&gt;Node11 -->
<g id="edge15" class="edge"><title>Node1&#45;&gt;Node11</title>
<path fill="none" stroke="midnightblue" d="M524.444,-246.475C515.022,-237.285 499.82,-222.456 488.234,-211.156"/>
<polygon fill="midnightblue" stroke="midnightblue" points="490.51,-208.486 480.907,-204.009 485.622,-213.497 490.51,-208.486"/>
</g>
<!-- Node14 -->
<g id="node14" class="node"><title>Node14</title>
<g id="a_node14"><a xlink:href="ParticleStateTransitionKinematicsInfo_8hpp.html" target="_top" xlink:title="Physics/ParticleStateTransition\lKinematicsInfo.hpp">
<polygon fill="white" stroke="black" points="697.184,-179.5 697.184,-209.5 851.184,-209.5 851.184,-179.5 697.184,-179.5"/>
<text text-anchor="start" x="705.184" y="-197.5" font-family="Helvetica,sans-Serif" font-size="10.00">Physics/ParticleStateTransition</text>
<text text-anchor="middle" x="774.184" y="-186.5" font-family="Helvetica,sans-Serif" font-size="10.00">KinematicsInfo.hpp</text>
</a>
</g>
</g>
<!-- Node1&#45;&gt;Node14 -->
<g id="edge22" class="edge"><title>Node1&#45;&gt;Node14</title>
<path fill="none" stroke="midnightblue" d="M567.713,-246.475C604.09,-237.494 662.278,-223.128 707.624,-211.933"/>
<polygon fill="midnightblue" stroke="midnightblue" points="708.515,-215.318 717.385,-209.523 706.837,-208.522 708.515,-215.318"/>
</g>
<!-- Node16 -->
<g id="node16" class="node"><title>Node16</title>
<polygon fill="white" stroke="#bfbfbf" points="994.184,-56.5 994.184,-75.5 1024.18,-75.5 1024.18,-56.5 994.184,-56.5"/>
<text text-anchor="middle" x="1009.18" y="-63.5" font-family="Helvetica,sans-Serif" font-size="10.00">set</text>
</g>
<!-- Node1&#45;&gt;Node16 -->
<g id="edge40" class="edge"><title>Node1&#45;&gt;Node16</title>
<path fill="none" stroke="midnightblue" d="M595.286,-251.941C665.825,-247.333 783.889,-236.169 882.184,-210 957.476,-189.955 1000.88,-207.772 1044.18,-143 1056.97,-123.873 1040.54,-99.3207 1026.15,-83.3788"/>
<polygon fill="midnightblue" stroke="midnightblue" points="1028.42,-80.6942 1018.97,-75.9014 1023.37,-85.5404 1028.42,-80.6942"/>
</g>
<!-- Node17 -->
<g id="node17" class="node"><title>Node17</title>
<g id="a_node17"><a xlink:href="FitFractions_8hpp.html" target="_top" xlink:title="Tools/FitFractions.hpp">
<polygon fill="white" stroke="black" points="538.184,-185 538.184,-204 652.184,-204 652.184,-185 538.184,-185"/>
<text text-anchor="middle" x="595.184" y="-192" font-family="Helvetica,sans-Serif" font-size="10.00">Tools/FitFractions.hpp</text>
</a>
</g>
</g>
<!-- Node1&#45;&gt;Node17 -->
<g id="edge31" class="edge"><title>Node1&#45;&gt;Node17</title>
<path fill="none" stroke="midnightblue" d="M542.067,-246.475C551.643,-237.285 567.095,-222.456 578.87,-211.156"/>
<polygon fill="midnightblue" stroke="midnightblue" points="581.525,-213.458 586.317,-204.009 576.678,-208.408 581.525,-213.458"/>
</g>
<!-- Node18 -->
<g id="node18" class="node"><title>Node18</title>
<polygon fill="white" stroke="#bfbfbf" points="1091.68,-179.5 1091.68,-209.5 1192.68,-209.5 1192.68,-179.5 1091.68,-179.5"/>
<text text-anchor="start" x="1099.68" y="-197.5" font-family="Helvetica,sans-Serif" font-size="10.00">boost/property_tree</text>
<text text-anchor="middle" x="1142.18" y="-186.5" font-family="Helvetica,sans-Serif" font-size="10.00">/ptree_fwd.hpp</text>
</g>
<!-- Node1&#45;&gt;Node18 -->
<g id="edge37" class="edge"><title>Node1&#45;&gt;Node18</title>
<path fill="none" stroke="midnightblue" d="M595.51,-252.622C696.949,-248.13 903.86,-236.374 1077.18,-210 1078.65,-209.777 1080.13,-209.54 1081.62,-209.291"/>
<polygon fill="midnightblue" stroke="midnightblue" points="1082.35,-212.716 1091.57,-207.494 1081.11,-205.828 1082.35,-212.716"/>
</g>
<!-- Node19 -->
<g id="node19" class="node"><title>Node19</title>
<polygon fill="white" stroke="#bfbfbf" points="1211.18,-185 1211.18,-204 1249.18,-204 1249.18,-185 1211.18,-185"/>
<text text-anchor="middle" x="1230.18" y="-192" font-family="Helvetica,sans-Serif" font-size="10.00">tuple</text>
</g>
<!-- Node1&#45;&gt;Node19 -->
<g id="edge41" class="edge"><title>Node1&#45;&gt;Node19</title>
<path fill="none" stroke="midnightblue" d="M595.344,-254.052C738.749,-251.343 1089.09,-241.604 1202.18,-210 1203.85,-209.534 1205.53,-208.962 1207.2,-208.317"/>
<polygon fill="midnightblue" stroke="midnightblue" points="1208.8,-211.435 1216.41,-204.059 1205.86,-205.082 1208.8,-211.435"/>
</g>
<!-- Node3 -->
<g id="node3" class="node"><title>Node3</title>
<polygon fill="white" stroke="#bfbfbf" points="501.684,-56.5 501.684,-75.5 542.684,-75.5 542.684,-56.5 501.684,-56.5"/>
<text text-anchor="middle" x="522.184" y="-63.5" font-family="Helvetica,sans-Serif" font-size="10.00">string</text>
</g>
<!-- Node2&#45;&gt;Node3 -->
<g id="edge2" class="edge"><title>Node2&#45;&gt;Node3</title>
<path fill="none" stroke="midnightblue" d="M465.64,-117.975C475.932,-108.697 492.599,-93.6706 505.178,-82.331"/>
<polygon fill="midnightblue" stroke="midnightblue" points="507.661,-84.8046 512.745,-75.5091 502.974,-79.6054 507.661,-84.8046"/>
</g>
<!-- Node4 -->
<g id="node4" class="node"><title>Node4</title>
<polygon fill="white" stroke="#bfbfbf" points="361.684,-56.5 361.684,-75.5 444.684,-75.5 444.684,-56.5 361.684,-56.5"/>
<text text-anchor="middle" x="403.184" y="-63.5" font-family="Helvetica,sans-Serif" font-size="10.00">unordered_map</text>
</g>
<!-- Node2&#45;&gt;Node4 -->
<g id="edge3" class="edge"><title>Node2&#45;&gt;Node4</title>
<path fill="none" stroke="midnightblue" d="M448.59,-117.975C440.483,-108.873 427.449,-94.241 417.421,-82.983"/>
<polygon fill="midnightblue" stroke="midnightblue" points="420.028,-80.6483 410.763,-75.5091 414.801,-85.3043 420.028,-80.6483"/>
</g>
<!-- Node2&#45;&gt;Node5 -->
<g id="edge4" class="edge"><title>Node2&#45;&gt;Node5</title>
<path fill="none" stroke="midnightblue" d="M458.649,-117.538C463.091,-102.893 473.736,-73.6947 492.184,-56 510.645,-38.2917 537.319,-26.667 558.178,-19.6765"/>
<polygon fill="midnightblue" stroke="midnightblue" points="559.407,-22.9589 567.889,-16.6108 557.299,-16.2836 559.407,-22.9589"/>
</g>
<!-- Node6&#45;&gt;Node2 -->
<g id="edge7" class="edge"><title>Node6&#45;&gt;Node2</title>
<path fill="none" stroke="midnightblue" d="M333.25,-179.396C360.92,-167.941 399.571,-151.938 426.107,-140.952"/>
<polygon fill="midnightblue" stroke="midnightblue" points="427.735,-144.066 435.636,-137.007 425.058,-137.599 427.735,-144.066"/>
</g>
<!-- Node6&#45;&gt;Node7 -->
<g id="edge6" class="edge"><title>Node6&#45;&gt;Node7</title>
<path fill="none" stroke="midnightblue" d="M229.88,-184.479C204.607,-177.461 178.498,-165.022 163.184,-143 155.318,-131.688 157.456,-124.531 163.184,-112 168.961,-99.3602 180.236,-88.911 190.814,-81.2737"/>
<polygon fill="midnightblue" stroke="midnightblue" points="193.032,-84.0009 199.4,-75.5333 189.142,-78.1817 193.032,-84.0009"/>
</g>
<!-- Node8 -->
<g id="node8" class="node"><title>Node8</title>
<g id="a_node8"><a xlink:href="ParameterList_8hpp.html" target="_top" xlink:title="ParameterList class. ">
<polygon fill="white" stroke="red" points="243.184,-112.5 243.184,-142.5 389.184,-142.5 389.184,-112.5 243.184,-112.5"/>
<text text-anchor="start" x="251.184" y="-130.5" font-family="Helvetica,sans-Serif" font-size="10.00">Core/FunctionTree/Parameter</text>
<text text-anchor="middle" x="316.184" y="-119.5" font-family="Helvetica,sans-Serif" font-size="10.00">List.hpp</text>
</a>
</g>
</g>
<!-- Node6&#45;&gt;Node8 -->
<g id="edge8" class="edge"><title>Node6&#45;&gt;Node8</title>
<path fill="none" stroke="midnightblue" d="M302.872,-179.396C304.944,-171.474 307.585,-161.379 309.967,-152.271"/>
<polygon fill="midnightblue" stroke="midnightblue" points="313.358,-153.137 312.502,-142.577 306.586,-151.365 313.358,-153.137"/>
</g>
<!-- Node8&#45;&gt;Node3 -->
<g id="edge11" class="edge"><title>Node8&#45;&gt;Node3</title>
<path fill="none" stroke="midnightblue" d="M364.742,-112.475C404.088,-101.11 458.309,-85.4491 491.762,-75.7867"/>
<polygon fill="midnightblue" stroke="midnightblue" points="492.802,-79.1296 501.438,-72.992 490.86,-72.4045 492.802,-79.1296"/>
</g>
<!-- Node8&#45;&gt;Node5 -->
<g id="edge12" class="edge"><title>Node8&#45;&gt;Node5</title>
<path fill="none" stroke="midnightblue" d="M319.39,-112.431C323.859,-96.1868 333.593,-69.9218 352.184,-56 384.267,-31.9739 500.545,-18.7769 557.833,-13.604"/>
<polygon fill="midnightblue" stroke="midnightblue" points="558.153,-17.0895 567.81,-12.7307 557.543,-10.1161 558.153,-17.0895"/>
</g>
<!-- Node8&#45;&gt;Node7 -->
<g id="edge10" class="edge"><title>Node8&#45;&gt;Node7</title>
<path fill="none" stroke="midnightblue" d="M292.248,-112.399C276.058,-102.862 254.777,-90.3248 238.68,-80.8422"/>
<polygon fill="midnightblue" stroke="midnightblue" points="240.273,-77.718 229.88,-75.6578 236.72,-83.7492 240.273,-77.718"/>
</g>
<!-- Node8&#45;&gt;Node9 -->
<g id="edge9" class="edge"><title>Node8&#45;&gt;Node9</title>
<path fill="none" stroke="midnightblue" d="M389.455,-113.242C392.4,-112.805 395.318,-112.388 398.184,-112 567.218,-89.086 771.667,-73.9181 845.177,-68.8613"/>
<polygon fill="midnightblue" stroke="midnightblue" points="845.701,-72.3339 855.44,-68.1628 845.226,-65.35 845.701,-72.3339"/>
</g>
<!-- Node8&#45;&gt;Node10 -->
<g id="edge13" class="edge"><title>Node8&#45;&gt;Node10</title>
<path fill="none" stroke="midnightblue" d="M265.032,-112.475C226.942,-102.03 175.617,-87.9576 140.202,-78.2469"/>
<polygon fill="midnightblue" stroke="midnightblue" points="140.776,-74.7754 130.207,-75.5064 138.925,-81.5262 140.776,-74.7754"/>
</g>
<!-- Node11&#45;&gt;Node2 -->
<g id="edge21" class="edge"><title>Node11&#45;&gt;Node2</title>
<path fill="none" stroke="midnightblue" d="M470.026,-184.734C467.651,-175.085 463.765,-159.3 460.714,-146.906"/>
<polygon fill="midnightblue" stroke="midnightblue" points="464.096,-146.001 458.307,-137.127 457.299,-147.674 464.096,-146.001"/>
</g>
<!-- Node11&#45;&gt;Node7 -->
<g id="edge16" class="edge"><title>Node11&#45;&gt;Node7</title>
<path fill="none" stroke="midnightblue" d="M424.379,-186.205C348.508,-174.4 208.304,-151.57 201.184,-143 187.566,-126.61 196.234,-101.303 204.777,-84.4529"/>
<polygon fill="midnightblue" stroke="midnightblue" points="207.872,-86.0893 209.623,-75.6402 201.738,-82.7164 207.872,-86.0893"/>
</g>
<!-- Node12 -->
<g id="node12" class="node"><title>Node12</title>
<g id="a_node12"><a xlink:href="Event_8hpp.html" target="_top" xlink:title="Core/Event.hpp">
<polygon fill="white" stroke="black" points="637.684,-118 637.684,-137 722.684,-137 722.684,-118 637.684,-118"/>
<text text-anchor="middle" x="680.184" y="-125" font-family="Helvetica,sans-Serif" font-size="10.00">Core/Event.hpp</text>
</a>
</g>
</g>
<!-- Node11&#45;&gt;Node12 -->
<g id="edge17" class="edge"><title>Node11&#45;&gt;Node12</title>
<path fill="none" stroke="midnightblue" d="M499.804,-184.869C536.659,-173.351 602.034,-152.922 643.137,-140.077"/>
<polygon fill="midnightblue" stroke="midnightblue" points="644.279,-143.387 652.78,-137.064 642.191,-136.706 644.279,-143.387"/>
</g>
<!-- Node12&#45;&gt;Node5 -->
<g id="edge20" class="edge"><title>Node12&#45;&gt;Node5</title>
<path fill="none" stroke="midnightblue" d="M669.794,-117.916C658.672,-108.403 640.911,-92.2467 628.184,-76 616.621,-61.2401 606.086,-42.6142 599.057,-29.0883"/>
<polygon fill="midnightblue" stroke="midnightblue" points="602.041,-27.2332 594.406,-19.8875 595.793,-30.3911 602.041,-27.2332"/>
</g>
<!-- Node13 -->
<g id="node13" class="node"><title>Node13</title>
<g id="a_node13"><a xlink:href="Particle_8hpp.html" target="_top" xlink:title="Particle and FourMomentum class. ">
<polygon fill="white" stroke="red" points="637.184,-56.5 637.184,-75.5 729.184,-75.5 729.184,-56.5 637.184,-56.5"/>
<text text-anchor="middle" x="683.184" y="-63.5" font-family="Helvetica,sans-Serif" font-size="10.00">Core/Particle.hpp</text>
</a>
</g>
</g>
<!-- Node12&#45;&gt;Node13 -->
<g id="edge18" class="edge"><title>Node12&#45;&gt;Node13</title>
<path fill="none" stroke="midnightblue" d="M680.613,-117.975C681.037,-109.58 681.697,-96.4806 682.243,-85.6631"/>
<polygon fill="midnightblue" stroke="midnightblue" points="685.746,-85.6727 682.755,-75.5091 678.755,-85.3201 685.746,-85.6727"/>
</g>
<!-- Node13&#45;&gt;Node5 -->
<g id="edge19" class="edge"><title>Node13&#45;&gt;Node5</title>
<path fill="none" stroke="midnightblue" d="M668.242,-56.324C653.598,-47.8215 631.05,-34.7288 613.946,-24.7975"/>
<polygon fill="midnightblue" stroke="midnightblue" points="615.494,-21.6491 605.089,-19.6545 611.979,-27.7027 615.494,-21.6491"/>
</g>
<!-- Node14&#45;&gt;Node3 -->
<g id="edge24" class="edge"><title>Node14&#45;&gt;Node3</title>
<path fill="none" stroke="midnightblue" d="M722.008,-179.466C693.466,-170.809 657.959,-158.408 628.184,-143 594.749,-125.699 560.036,-98.8167 539.806,-82.0943"/>
<polygon fill="midnightblue" stroke="midnightblue" points="541.98,-79.3498 532.068,-75.6071 537.482,-84.714 541.98,-79.3498"/>
</g>
<!-- Node14&#45;&gt;Node5 -->
<g id="edge25" class="edge"><title>Node14&#45;&gt;Node5</title>
<path fill="none" stroke="midnightblue" d="M774.827,-179.169C775.25,-151.363 772.027,-89.8579 738.184,-56 707.261,-25.0636 655.778,-15.277 622.414,-12.2507"/>
<polygon fill="midnightblue" stroke="midnightblue" points="622.502,-8.74745 612.267,-11.4874 621.976,-15.7277 622.502,-8.74745"/>
</g>
<!-- Node14&#45;&gt;Node9 -->
<g id="edge23" class="edge"><title>Node14&#45;&gt;Node9</title>
<path fill="none" stroke="midnightblue" d="M798.766,-179.491C812.715,-170.531 829.638,-157.824 841.184,-143 854.621,-125.747 863.416,-102.025 868.324,-85.6965"/>
<polygon fill="midnightblue" stroke="midnightblue" points="871.785,-86.3169 871.11,-75.7436 865.044,-84.4297 871.785,-86.3169"/>
</g>
<!-- Node14&#45;&gt;Node13 -->
<g id="edge26" class="edge"><title>Node14&#45;&gt;Node13</title>
<path fill="none" stroke="midnightblue" d="M768.47,-179.408C761.227,-162.469 747.676,-133.625 731.184,-112 722.826,-101.041 711.684,-90.4164 702.238,-82.245"/>
<polygon fill="midnightblue" stroke="midnightblue" points="704.4,-79.4899 694.487,-75.7489 699.903,-84.8549 704.4,-79.4899"/>
</g>
<!-- Node15 -->
<g id="node15" class="node"><title>Node15</title>
<g id="a_node15"><a xlink:href="Properties_8hpp.html" target="_top" xlink:title="Core/Properties.hpp">
<polygon fill="white" stroke="red" points="931.184,-118 931.184,-137 1035.18,-137 1035.18,-118 931.184,-118"/>
<text text-anchor="middle" x="983.184" y="-125" font-family="Helvetica,sans-Serif" font-size="10.00">Core/Properties.hpp</text>
</a>
</g>
</g>
<!-- Node14&#45;&gt;Node15 -->
<g id="edge27" class="edge"><title>Node14&#45;&gt;Node15</title>
<path fill="none" stroke="midnightblue" d="M819.276,-179.476C857.066,-167.723 910.377,-151.143 945.819,-140.12"/>
<polygon fill="midnightblue" stroke="midnightblue" points="947.251,-143.341 955.761,-137.029 945.172,-136.656 947.251,-143.341"/>
</g>
<!-- Node15&#45;&gt;Node5 -->
<g id="edge30" class="edge"><title>Node15&#45;&gt;Node5</title>
<path fill="none" stroke="midnightblue" d="M976.006,-117.806C962.785,-102.457 932.922,-70.7835 900.184,-56 851.019,-33.7992 691.886,-18.9828 622.749,-13.4384"/>
<polygon fill="midnightblue" stroke="midnightblue" points="622.7,-9.92379 612.457,-12.6284 622.151,-16.9022 622.7,-9.92379"/>
</g>
<!-- Node15&#45;&gt;Node9 -->
<g id="edge28" class="edge"><title>Node15&#45;&gt;Node9</title>
<path fill="none" stroke="midnightblue" d="M967.423,-117.975C949.208,-108.122 919.011,-91.7883 897.716,-80.2697"/>
<polygon fill="midnightblue" stroke="midnightblue" points="899.376,-77.1883 888.915,-75.5091 896.045,-83.3453 899.376,-77.1883"/>
</g>
<!-- Node15&#45;&gt;Node16 -->
<g id="edge29" class="edge"><title>Node15&#45;&gt;Node16</title>
<path fill="none" stroke="midnightblue" d="M986.909,-117.975C990.654,-109.404 996.543,-95.9269 1001.33,-84.983"/>
<polygon fill="midnightblue" stroke="midnightblue" points="1004.67,-86.0739 1005.47,-75.5091 998.254,-83.271 1004.67,-86.0739"/>
</g>
<!-- Node17&#45;&gt;Node2 -->
<g id="edge32" class="edge"><title>Node17&#45;&gt;Node2</title>
<path fill="none" stroke="midnightblue" d="M576.725,-184.869C552.944,-173.748 511.392,-154.317 483.831,-141.429"/>
<polygon fill="midnightblue" stroke="midnightblue" points="485.259,-138.233 474.718,-137.167 482.294,-144.574 485.259,-138.233"/>
</g>
<!-- Node17&#45;&gt;Node3 -->
<g id="edge35" class="edge"><title>Node17&#45;&gt;Node3</title>
<path fill="none" stroke="midnightblue" d="M587.859,-184.962C579.728,-175.229 566.522,-158.638 557.184,-143 545.928,-124.152 535.764,-101.072 529.326,-85.3245"/>
<polygon fill="midnightblue" stroke="midnightblue" points="532.456,-83.7244 525.496,-75.7362 525.955,-86.3211 532.456,-83.7244"/>
</g>
<!-- Node17&#45;&gt;Node5 -->
<g id="edge36" class="edge"><title>Node17&#45;&gt;Node5</title>
<path fill="none" stroke="midnightblue" d="M594.942,-184.698C594.175,-156.693 591.778,-69.2128 590.709,-30.1598"/>
<polygon fill="midnightblue" stroke="midnightblue" points="594.195,-29.6144 590.422,-19.714 587.198,-29.8062 594.195,-29.6144"/>
</g>
<!-- Node17&#45;&gt;Node7 -->
<g id="edge34" class="edge"><title>Node17&#45;&gt;Node7</title>
<path fill="none" stroke="midnightblue" d="M558.789,-184.991C548.895,-182.851 538.158,-180.686 528.184,-179 463.283,-168.027 283.502,-186.591 234.184,-143 218.134,-128.814 214.641,-103.316 214.329,-85.7953"/>
<polygon fill="midnightblue" stroke="midnightblue" points="217.831,-85.6846 214.484,-75.6325 210.832,-85.578 217.831,-85.6846"/>
</g>
<!-- Node17&#45;&gt;Node9 -->
<g id="edge33" class="edge"><title>Node17&#45;&gt;Node9</title>
<path fill="none" stroke="midnightblue" d="M621.425,-184.942C649.13,-175.633 693.871,-159.819 731.184,-143 774.053,-123.676 821.878,-96.9434 849.648,-80.8749"/>
<polygon fill="midnightblue" stroke="midnightblue" points="851.713,-83.7227 858.593,-75.6657 848.19,-77.6736 851.713,-83.7227"/>
</g>
</g>
</svg>
