<?xml version="1.0" encoding="UTF-8" standalone="no"?>
<!DOCTYPE svg PUBLIC "-//W3C//DTD SVG 1.1//EN"
 "http://www.w3.org/Graphics/SVG/1.1/DTD/svg11.dtd">
<!-- Generated by graphviz version 2.38.0 (20140413.2041)
 -->
<!-- Title: Estimator/ChiOneD/ChiOneD.hpp Pages: 1 -->
<svg width="238pt" height="207pt"
 viewBox="0.00 0.00 238.00 207.00" xmlns="http://www.w3.org/2000/svg" xmlns:xlink="http://www.w3.org/1999/xlink">
<g id="graph0" class="graph" transform="scale(1 1) rotate(0) translate(4 203)">
<title>Estimator/ChiOneD/ChiOneD.hpp</title>
<polygon fill="white" stroke="none" points="-4,4 -4,-203 234,-203 234,4 -4,4"/>
<!-- Node1 -->
<g id="node1" class="node"><title>Node1</title>
<polygon fill="#bfbfbf" stroke="black" points="11,-168.5 11,-198.5 149,-198.5 149,-168.5 11,-168.5"/>
<text text-anchor="start" x="19" y="-186.5" font-family="Helvetica,sans-Serif" font-size="10.00">Estimator/ChiOneD/ChiOne</text>
<text text-anchor="middle" x="80" y="-175.5" font-family="Helvetica,sans-Serif" font-size="10.00">D.hpp</text>
</g>
<!-- Node2 -->
<g id="node2" class="node"><title>Node2</title>
<polygon fill="white" stroke="#bfbfbf" points="0,-112.5 0,-131.5 52,-131.5 52,-112.5 0,-112.5"/>
<text text-anchor="middle" x="26" y="-119.5" font-family="Helvetica,sans-Serif" font-size="10.00">memory</text>
</g>
<!-- Node1&#45;&gt;Node2 -->
<g id="edge1" class="edge"><title>Node1&#45;&gt;Node2</title>
<path fill="none" stroke="midnightblue" d="M67.2028,-168.399C59.275,-159.664 49.0635,-148.413 40.7899,-139.296"/>
<polygon fill="midnightblue" stroke="midnightblue" points="43.1698,-136.711 33.8575,-131.658 37.9863,-141.415 43.1698,-136.711"/>
</g>
<!-- Node3 -->
<g id="node3" class="node"><title>Node3</title>
<polygon fill="white" stroke="#bfbfbf" points="99,-0.5 99,-19.5 143,-19.5 143,-0.5 99,-0.5"/>
<text text-anchor="middle" x="121" y="-7.5" font-family="Helvetica,sans-Serif" font-size="10.00">vector</text>
</g>
<!-- Node1&#45;&gt;Node3 -->
<g id="edge2" class="edge"><title>Node1&#45;&gt;Node3</title>
<path fill="none" stroke="midnightblue" d="M82.3439,-168.332C86.3626,-144.805 95.1891,-96.2772 106,-56 108.405,-47.041 111.597,-37.2539 114.419,-29.1019"/>
<polygon fill="midnightblue" stroke="midnightblue" points="117.768,-30.1291 117.817,-19.5344 111.172,-27.7863 117.768,-30.1291"/>
</g>
<!-- Node4 -->
<g id="node4" class="node"><title>Node4</title>
<g id="a_node4"><a xlink:href="Estimator_8hpp.html" target="_top" xlink:title="Estimator/Estimator.hpp">
<polygon fill="white" stroke="black" points="108,-112.5 108,-131.5 230,-131.5 230,-112.5 108,-112.5"/>
<text text-anchor="middle" x="169" y="-119.5" font-family="Helvetica,sans-Serif" font-size="10.00">Estimator/Estimator.hpp</text>
</a>
</g>
</g>
<!-- Node1&#45;&gt;Node4 -->
<g id="edge3" class="edge"><title>Node1&#45;&gt;Node4</title>
<path fill="none" stroke="midnightblue" d="M101.092,-168.399C115.091,-159.04 133.411,-146.792 147.495,-137.377"/>
<polygon fill="midnightblue" stroke="midnightblue" points="149.682,-140.125 156.05,-131.658 145.791,-134.306 149.682,-140.125"/>
</g>
<!-- Node5 -->
<g id="node5" class="node"><title>Node5</title>
<g id="a_node5"><a xlink:href="Function_8hpp.html" target="_top" xlink:title="Core/Function.hpp">
<polygon fill="white" stroke="red" points="114.5,-56.5 114.5,-75.5 211.5,-75.5 211.5,-56.5 114.5,-56.5"/>
<text text-anchor="middle" x="163" y="-63.5" font-family="Helvetica,sans-Serif" font-size="10.00">Core/Function.hpp</text>
</a>
</g>
</g>
<!-- Node4&#45;&gt;Node5 -->
<g id="edge4" class="edge"><title>Node4&#45;&gt;Node5</title>
<path fill="none" stroke="midnightblue" d="M168.009,-112.083C167.214,-104.927 166.071,-94.6353 165.077,-85.6911"/>
<polygon fill="midnightblue" stroke="midnightblue" points="168.555,-85.3034 163.972,-75.7511 161.598,-86.0765 168.555,-85.3034"/>
</g>
<!-- Node5&#45;&gt;Node3 -->
<g id="edge5" class="edge"><title>Node5&#45;&gt;Node3</title>
<path fill="none" stroke="midnightblue" d="M156.065,-56.083C150.071,-48.3768 141.248,-37.0333 133.952,-27.6531"/>
<polygon fill="midnightblue" stroke="midnightblue" points="136.709,-25.4958 127.806,-19.7511 131.183,-29.7934 136.709,-25.4958"/>
</g>
</g>
</svg>
