<?xml version="1.0" encoding="UTF-8" standalone="no"?>
<!DOCTYPE svg PUBLIC "-//W3C//DTD SVG 1.1//EN"
 "http://www.w3.org/Graphics/SVG/1.1/DTD/svg11.dtd">
<!-- Generated by graphviz version 2.38.0 (20140413.2041)
 -->
<!-- Title: Estimator/ChiOneD/ChiOneD.cpp Pages: 1 -->
<svg width="290pt" height="263pt"
 viewBox="0.00 0.00 290.00 263.00" xmlns="http://www.w3.org/2000/svg" xmlns:xlink="http://www.w3.org/1999/xlink">
<g id="graph0" class="graph" transform="scale(1 1) rotate(0) translate(4 259)">
<title>Estimator/ChiOneD/ChiOneD.cpp</title>
<polygon fill="white" stroke="none" points="-4,4 -4,-259 286,-259 286,4 -4,4"/>
<!-- Node1 -->
<g id="node1" class="node"><title>Node1</title>
<polygon fill="#bfbfbf" stroke="black" points="144,-224.5 144,-254.5 282,-254.5 282,-224.5 144,-224.5"/>
<text text-anchor="start" x="152" y="-242.5" font-family="Helvetica,sans-Serif" font-size="10.00">Estimator/ChiOneD/ChiOne</text>
<text text-anchor="middle" x="213" y="-231.5" font-family="Helvetica,sans-Serif" font-size="10.00">D.cpp</text>
</g>
<!-- Node2 -->
<g id="node2" class="node"><title>Node2</title>
<g id="a_node2"><a xlink:href="ChiOneD_8hpp.html" target="_top" xlink:title="This class calculates a simple &#160;of a intensity and a dataset. ">
<polygon fill="white" stroke="black" points="86,-168.5 86,-187.5 162,-187.5 162,-168.5 86,-168.5"/>
<text text-anchor="middle" x="124" y="-175.5" font-family="Helvetica,sans-Serif" font-size="10.00">ChiOneD.hpp</text>
</a>
</g>
</g>
<!-- Node1&#45;&gt;Node2 -->
<g id="edge1" class="edge"><title>Node1&#45;&gt;Node2</title>
<path fill="none" stroke="midnightblue" d="M191.908,-224.399C177.909,-215.04 159.589,-202.792 145.505,-193.377"/>
<polygon fill="midnightblue" stroke="midnightblue" points="147.209,-190.306 136.95,-187.658 143.318,-196.125 147.209,-190.306"/>
</g>
<!-- Node6 -->
<g id="node6" class="node"><title>Node6</title>
<g id="a_node6"><a xlink:href="Function_8hpp.html" target="_top" xlink:title="Core/Function.hpp">
<polygon fill="white" stroke="red" points="120.5,-56.5 120.5,-75.5 217.5,-75.5 217.5,-56.5 120.5,-56.5"/>
<text text-anchor="middle" x="169" y="-63.5" font-family="Helvetica,sans-Serif" font-size="10.00">Core/Function.hpp</text>
</a>
</g>
</g>
<!-- Node1&#45;&gt;Node6 -->
<g id="edge7" class="edge"><title>Node1&#45;&gt;Node6</title>
<path fill="none" stroke="midnightblue" d="M221.804,-224.296C235.708,-199.877 259.198,-148.997 239,-112 231.181,-97.6789 216.638,-87.2355 202.824,-80.0358"/>
<polygon fill="midnightblue" stroke="midnightblue" points="204.001,-76.7188 193.469,-75.5617 200.981,-83.0338 204.001,-76.7188"/>
</g>
<!-- Node3 -->
<g id="node3" class="node"><title>Node3</title>
<polygon fill="white" stroke="#bfbfbf" points="0,-112.5 0,-131.5 52,-131.5 52,-112.5 0,-112.5"/>
<text text-anchor="middle" x="26" y="-119.5" font-family="Helvetica,sans-Serif" font-size="10.00">memory</text>
</g>
<!-- Node2&#45;&gt;Node3 -->
<g id="edge2" class="edge"><title>Node2&#45;&gt;Node3</title>
<path fill="none" stroke="midnightblue" d="M108.255,-168.324C92.6813,-159.743 68.6227,-146.486 50.5407,-136.522"/>
<polygon fill="midnightblue" stroke="midnightblue" points="52.1539,-133.415 41.7063,-131.655 48.7756,-139.546 52.1539,-133.415"/>
</g>
<!-- Node4 -->
<g id="node4" class="node"><title>Node4</title>
<polygon fill="white" stroke="#bfbfbf" points="102,-0.5 102,-19.5 146,-19.5 146,-0.5 102,-0.5"/>
<text text-anchor="middle" x="124" y="-7.5" font-family="Helvetica,sans-Serif" font-size="10.00">vector</text>
</g>
<!-- Node2&#45;&gt;Node4 -->
<g id="edge3" class="edge"><title>Node2&#45;&gt;Node4</title>
<path fill="none" stroke="midnightblue" d="M117.371,-168.275C111.235,-159.607 102.542,-145.669 99,-132 89.5789,-95.6429 104.739,-52.4169 115.263,-28.725"/>
<polygon fill="midnightblue" stroke="midnightblue" points="118.476,-30.1176 119.536,-19.5759 112.134,-27.1554 118.476,-30.1176"/>
</g>
<!-- Node5 -->
<g id="node5" class="node"><title>Node5</title>
<g id="a_node5"><a xlink:href="Estimator_8hpp.html" target="_top" xlink:title="Estimator/Estimator.hpp">
<polygon fill="white" stroke="black" points="108,-112.5 108,-131.5 230,-131.5 230,-112.5 108,-112.5"/>
<text text-anchor="middle" x="169" y="-119.5" font-family="Helvetica,sans-Serif" font-size="10.00">Estimator/Estimator.hpp</text>
</a>
</g>
</g>
<!-- Node2&#45;&gt;Node5 -->
<g id="edge4" class="edge"><title>Node2&#45;&gt;Node5</title>
<path fill="none" stroke="midnightblue" d="M131.431,-168.083C137.853,-160.377 147.306,-149.033 155.122,-139.653"/>
<polygon fill="midnightblue" stroke="midnightblue" points="157.994,-141.674 161.707,-131.751 152.617,-137.193 157.994,-141.674"/>
</g>
<!-- Node5&#45;&gt;Node6 -->
<g id="edge5" class="edge"><title>Node5&#45;&gt;Node6</title>
<path fill="none" stroke="midnightblue" d="M169,-112.083C169,-105.006 169,-94.8611 169,-85.9865"/>
<polygon fill="midnightblue" stroke="midnightblue" points="172.5,-85.751 169,-75.7511 165.5,-85.7511 172.5,-85.751"/>
</g>
<!-- Node6&#45;&gt;Node4 -->
<g id="edge6" class="edge"><title>Node6&#45;&gt;Node4</title>
<path fill="none" stroke="midnightblue" d="M161.569,-56.083C155.147,-48.3768 145.694,-37.0333 137.878,-27.6531"/>
<polygon fill="midnightblue" stroke="midnightblue" points="140.383,-25.1927 131.293,-19.7511 135.006,-29.674 140.383,-25.1927"/>
</g>
</g>
</svg>
