<?xml version="1.0" encoding="UTF-8" standalone="no"?>
<!DOCTYPE svg PUBLIC "-//W3C//DTD SVG 1.1//EN"
 "http://www.w3.org/Graphics/SVG/1.1/DTD/svg11.dtd">
<!-- Generated by graphviz version 2.38.0 (20140413.2041)
 -->
<!-- Title: ComPWA::Physics::Dynamics::FormFactor Pages: 1 -->
<svg width="500pt" height="204pt"
 viewBox="0.00 0.00 500.00 204.00" xmlns="http://www.w3.org/2000/svg" xmlns:xlink="http://www.w3.org/1999/xlink">
<g id="graph0" class="graph" transform="scale(1 1) rotate(0) translate(4 200)">
<title>ComPWA::Physics::Dynamics::FormFactor</title>
<polygon fill="white" stroke="none" points="-4,4 -4,-200 496,-200 496,4 -4,4"/>
<!-- Node1 -->
<g id="node1" class="node"><title>Node1</title>
<polygon fill="#bfbfbf" stroke="black" points="170,-116.5 170,-195.5 322,-195.5 322,-116.5 170,-116.5"/>
<text text-anchor="start" x="178" y="-183.5" font-family="Helvetica,sans-Serif" font-size="10.00">ComPWA::Physics::Dynamics</text>
<text text-anchor="middle" x="246" y="-172.5" font-family="Helvetica,sans-Serif" font-size="10.00">::FormFactor</text>
<polyline fill="none" stroke="black" points="170,-165.5 322,-165.5 "/>
<text text-anchor="middle" x="246" y="-153.5" font-family="Helvetica,sans-Serif" font-size="10.00"> </text>
<polyline fill="none" stroke="black" points="170,-146.5 322,-146.5 "/>
<text text-anchor="start" x="178" y="-134.5" font-family="Helvetica,sans-Serif" font-size="10.00">+ operator()()</text>
<text text-anchor="start" x="178" y="-123.5" font-family="Helvetica,sans-Serif" font-size="10.00">+ getName()</text>
</g>
<!-- Node2 -->
<g id="node2" class="node"><title>Node2</title>
<g id="a_node2"><a xlink:href="classComPWA_1_1Physics_1_1Dynamics_1_1BlattWeisskopfFormFactor.html" target="_top" xlink:title="Blatt&#45;Weisskopf form factors with normalization F(x=mR) = 1. ">
<polygon fill="white" stroke="black" points="0,-0.5 0,-79.5 152,-79.5 152,-0.5 0,-0.5"/>
<text text-anchor="start" x="8" y="-67.5" font-family="Helvetica,sans-Serif" font-size="10.00">ComPWA::Physics::Dynamics</text>
<text text-anchor="middle" x="76" y="-56.5" font-family="Helvetica,sans-Serif" font-size="10.00">::BlattWeisskopfFormFactor</text>
<polyline fill="none" stroke="black" points="0,-49.5 152,-49.5 "/>
<text text-anchor="middle" x="76" y="-37.5" font-family="Helvetica,sans-Serif" font-size="10.00"> </text>
<polyline fill="none" stroke="black" points="0,-30.5 152,-30.5 "/>
<text text-anchor="start" x="8" y="-18.5" font-family="Helvetica,sans-Serif" font-size="10.00">&#45; operator()()</text>
<text text-anchor="start" x="8" y="-7.5" font-family="Helvetica,sans-Serif" font-size="10.00">&#45; getName()</text>
</a>
</g>
</g>
<!-- Node1&#45;&gt;Node2 -->
<g id="edge1" class="edge"><title>Node1&#45;&gt;Node2</title>
<path fill="none" stroke="midnightblue" d="M180.021,-110.755C164.67,-100.461 148.446,-89.5815 133.495,-79.5555"/>
<polygon fill="none" stroke="midnightblue" points="178.191,-113.742 188.446,-116.405 182.09,-107.928 178.191,-113.742"/>
</g>
<!-- Node3 -->
<g id="node3" class="node"><title>Node3</title>
<g id="a_node3"><a xlink:href="classComPWA_1_1Physics_1_1Dynamics_1_1CrystalBarrelFormFactor.html" target="_top" xlink:title="Form factor for a0(980) used by Crystal Barrel (Phys.Rev.D78&#45;074023) ">
<polygon fill="white" stroke="black" points="170,-0.5 170,-79.5 322,-79.5 322,-0.5 170,-0.5"/>
<text text-anchor="start" x="178" y="-67.5" font-family="Helvetica,sans-Serif" font-size="10.00">ComPWA::Physics::Dynamics</text>
<text text-anchor="middle" x="246" y="-56.5" font-family="Helvetica,sans-Serif" font-size="10.00">::CrystalBarrelFormFactor</text>
<polyline fill="none" stroke="black" points="170,-49.5 322,-49.5 "/>
<text text-anchor="middle" x="246" y="-37.5" font-family="Helvetica,sans-Serif" font-size="10.00"> </text>
<polyline fill="none" stroke="black" points="170,-30.5 322,-30.5 "/>
<text text-anchor="start" x="178" y="-18.5" font-family="Helvetica,sans-Serif" font-size="10.00">&#45; operator()()</text>
<text text-anchor="start" x="178" y="-7.5" font-family="Helvetica,sans-Serif" font-size="10.00">&#45; getName()</text>
</a>
</g>
</g>
<!-- Node1&#45;&gt;Node3 -->
<g id="edge2" class="edge"><title>Node1&#45;&gt;Node3</title>
<path fill="none" stroke="midnightblue" d="M246,-106.146C246,-97.256 246,-88.0961 246,-79.5555"/>
<polygon fill="none" stroke="midnightblue" points="242.5,-106.405 246,-116.405 249.5,-106.405 242.5,-106.405"/>
</g>
<!-- Node4 -->
<g id="node4" class="node"><title>Node4</title>
<g id="a_node4"><a xlink:href="classComPWA_1_1Physics_1_1Dynamics_1_1NoFormFactor.html" target="_top" xlink:title="{ComPWA::Physics::Dynamics\l::NoFormFactor\n||+ operator()()\l+ getName()\l}">
<polygon fill="white" stroke="black" points="340,-0.5 340,-79.5 492,-79.5 492,-0.5 340,-0.5"/>
<text text-anchor="start" x="348" y="-67.5" font-family="Helvetica,sans-Serif" font-size="10.00">ComPWA::Physics::Dynamics</text>
<text text-anchor="middle" x="416" y="-56.5" font-family="Helvetica,sans-Serif" font-size="10.00">::NoFormFactor</text>
<polyline fill="none" stroke="black" points="340,-49.5 492,-49.5 "/>
<text text-anchor="middle" x="416" y="-37.5" font-family="Helvetica,sans-Serif" font-size="10.00"> </text>
<polyline fill="none" stroke="black" points="340,-30.5 492,-30.5 "/>
<text text-anchor="start" x="348" y="-18.5" font-family="Helvetica,sans-Serif" font-size="10.00">+ operator()()</text>
<text text-anchor="start" x="348" y="-7.5" font-family="Helvetica,sans-Serif" font-size="10.00">+ getName()</text>
</a>
</g>
</g>
<!-- Node1&#45;&gt;Node4 -->
<g id="edge3" class="edge"><title>Node1&#45;&gt;Node4</title>
<path fill="none" stroke="midnightblue" d="M311.979,-110.755C327.33,-100.461 343.554,-89.5815 358.505,-79.5555"/>
<polygon fill="none" stroke="midnightblue" points="309.91,-107.928 303.554,-116.405 313.809,-113.742 309.91,-107.928"/>
</g>
</g>
</svg>
