<?xml version="1.0" encoding="UTF-8" standalone="no"?>
<!DOCTYPE svg PUBLIC "-//W3C//DTD SVG 1.1//EN"
 "http://www.w3.org/Graphics/SVG/1.1/DTD/svg11.dtd">
<!-- Generated by graphviz version 2.38.0 (20140413.2041)
 -->
<!-- Title: ComPWA::Data::EvtGen::EvtGenStdRandomEngine Pages: 1 -->
<svg width="294pt" height="248pt"
 viewBox="0.00 0.00 294.00 248.00" xmlns="http://www.w3.org/2000/svg" xmlns:xlink="http://www.w3.org/1999/xlink">
<g id="graph0" class="graph" transform="scale(1 1) rotate(0) translate(4 244)">
<title>ComPWA::Data::EvtGen::EvtGenStdRandomEngine</title>
<polygon fill="white" stroke="none" points="-4,4 -4,-244 290,-244 290,4 -4,4"/>
<!-- Node1 -->
<g id="node1" class="node"><title>Node1</title>
<polygon fill="#bfbfbf" stroke="black" points="45.5,-0.5 45.5,-90.5 204.5,-90.5 204.5,-0.5 45.5,-0.5"/>
<text text-anchor="start" x="53.5" y="-78.5" font-family="Helvetica,sans-Serif" font-size="10.00">ComPWA::Data::EvtGen</text>
<text text-anchor="middle" x="125" y="-67.5" font-family="Helvetica,sans-Serif" font-size="10.00">::EvtGenStdRandomEngine</text>
<polyline fill="none" stroke="black" points="45.5,-60.5 204.5,-60.5 "/>
<text text-anchor="middle" x="125" y="-48.5" font-family="Helvetica,sans-Serif" font-size="10.00"> </text>
<polyline fill="none" stroke="black" points="45.5,-41.5 204.5,-41.5 "/>
<text text-anchor="start" x="53.5" y="-29.5" font-family="Helvetica,sans-Serif" font-size="10.00">+ EvtGenStdRandomEngine()</text>
<text text-anchor="start" x="53.5" y="-18.5" font-family="Helvetica,sans-Serif" font-size="10.00">+ setRandomNumberGenerator()</text>
<text text-anchor="start" x="53.5" y="-7.5" font-family="Helvetica,sans-Serif" font-size="10.00">+ random()</text>
</g>
<!-- Node2 -->
<g id="node2" class="node"><title>Node2</title>
<polygon fill="white" stroke="#bfbfbf" points="0,-160.5 0,-217.5 98,-217.5 98,-160.5 0,-160.5"/>
<text text-anchor="middle" x="49" y="-205.5" font-family="Helvetica,sans-Serif" font-size="10.00">EvtRandomEngine</text>
<polyline fill="none" stroke="#bfbfbf" points="0,-198.5 98,-198.5 "/>
<text text-anchor="middle" x="49" y="-186.5" font-family="Helvetica,sans-Serif" font-size="10.00"> </text>
<polyline fill="none" stroke="#bfbfbf" points="0,-179.5 98,-179.5 "/>
<text text-anchor="middle" x="49" y="-167.5" font-family="Helvetica,sans-Serif" font-size="10.00"> </text>
</g>
<!-- Node2&#45;&gt;Node1 -->
<g id="edge1" class="edge"><title>Node2&#45;&gt;Node1</title>
<path fill="none" stroke="midnightblue" d="M68.6679,-151.382C78.6142,-132.863 90.7643,-110.241 101.231,-90.7545"/>
<polygon fill="none" stroke="midnightblue" points="65.4823,-149.916 63.834,-160.381 71.6491,-153.228 65.4823,-149.916"/>
</g>
<!-- Node3 -->
<g id="node3" class="node"><title>Node3</title>
<g id="a_node3"><a xlink:href="classComPWA_1_1UniformRealNumberGenerator.html" target="_top" xlink:title="{ComPWA::UniformRealNumber\lGenerator\n||+ ~UniformRealNumberGenerator()\l+ operator()()\l+ getSeed()\l+ setSeed()\l}">
<polygon fill="white" stroke="black" points="116,-138.5 116,-239.5 286,-239.5 286,-138.5 116,-138.5"/>
<text text-anchor="start" x="124" y="-227.5" font-family="Helvetica,sans-Serif" font-size="10.00">ComPWA::UniformRealNumber</text>
<text text-anchor="middle" x="201" y="-216.5" font-family="Helvetica,sans-Serif" font-size="10.00">Generator</text>
<polyline fill="none" stroke="black" points="116,-209.5 286,-209.5 "/>
<text text-anchor="middle" x="201" y="-197.5" font-family="Helvetica,sans-Serif" font-size="10.00"> </text>
<polyline fill="none" stroke="black" points="116,-190.5 286,-190.5 "/>
<text text-anchor="start" x="124" y="-178.5" font-family="Helvetica,sans-Serif" font-size="10.00">+ ~UniformRealNumberGenerator()</text>
<text text-anchor="start" x="124" y="-167.5" font-family="Helvetica,sans-Serif" font-size="10.00">+ operator()()</text>
<text text-anchor="start" x="124" y="-156.5" font-family="Helvetica,sans-Serif" font-size="10.00">+ getSeed()</text>
<text text-anchor="start" x="124" y="-145.5" font-family="Helvetica,sans-Serif" font-size="10.00">+ setSeed()</text>
</a>
</g>
</g>
<!-- Node3&#45;&gt;Node1 -->
<g id="edge2" class="edge"><title>Node3&#45;&gt;Node1</title>
<path fill="none" stroke="#404040" d="M174.205,-138.112C167.858,-126.294 161.052,-113.623 154.588,-101.588"/>
<polygon fill="none" stroke="#404040" points="154.449,-101.329 148.086,-97.9361 148.771,-90.7576 155.134,-94.1507 154.449,-101.329"/>
<text text-anchor="middle" x="205" y="-112" font-family="Helvetica,sans-Serif" font-size="10.00"> &#45;NumberGenerator</text>
</g>
</g>
</svg>
