<?xml version="1.0" encoding="UTF-8" standalone="no"?>
<!DOCTYPE svg PUBLIC "-//W3C//DTD SVG 1.1//EN"
 "http://www.w3.org/Graphics/SVG/1.1/DTD/svg11.dtd">
<!-- Generated by graphviz version 2.38.0 (20140413.2041)
 -->
<!-- Title: ComPWA::Data::Root::RootGenerator Pages: 1 -->
<svg width="356pt" height="446pt"
 viewBox="0.00 0.00 355.50 446.00" xmlns="http://www.w3.org/2000/svg" xmlns:xlink="http://www.w3.org/1999/xlink">
<g id="graph0" class="graph" transform="scale(1 1) rotate(0) translate(4 442)">
<title>ComPWA::Data::Root::RootGenerator</title>
<polygon fill="white" stroke="none" points="-4,4 -4,-442 351.5,-442 351.5,4 -4,4"/>
<!-- Node1 -->
<g id="node1" class="node"><title>Node1</title>
<polygon fill="#bfbfbf" stroke="black" points="118,-0.5 118,-178.5 255,-178.5 255,-0.5 118,-0.5"/>
<text text-anchor="start" x="126" y="-166.5" font-family="Helvetica,sans-Serif" font-size="10.00">ComPWA::Data::Root</text>
<text text-anchor="middle" x="186.5" y="-155.5" font-family="Helvetica,sans-Serif" font-size="10.00">::RootGenerator</text>
<polyline fill="none" stroke="black" points="118,-148.5 255,-148.5 "/>
<text text-anchor="start" x="126" y="-136.5" font-family="Helvetica,sans-Serif" font-size="10.00">&#45; FinalStateMasses</text>
<text text-anchor="start" x="126" y="-125.5" font-family="Helvetica,sans-Serif" font-size="10.00">&#45; MaximumWeight</text>
<text text-anchor="start" x="126" y="-114.5" font-family="Helvetica,sans-Serif" font-size="10.00">&#45; CMSBoostVector</text>
<text text-anchor="start" x="126" y="-103.5" font-family="Helvetica,sans-Serif" font-size="10.00">&#45; CMSEnergyMinusMasses</text>
<polyline fill="none" stroke="black" points="118,-96.5 255,-96.5 "/>
<text text-anchor="start" x="126" y="-84.5" font-family="Helvetica,sans-Serif" font-size="10.00">+ RootGenerator()</text>
<text text-anchor="start" x="126" y="-73.5" font-family="Helvetica,sans-Serif" font-size="10.00">+ RootGenerator()</text>
<text text-anchor="start" x="126" y="-62.5" font-family="Helvetica,sans-Serif" font-size="10.00">+ RootGenerator()</text>
<text text-anchor="start" x="126" y="-51.5" font-family="Helvetica,sans-Serif" font-size="10.00">+ ~RootGenerator()</text>
<text text-anchor="start" x="126" y="-40.5" font-family="Helvetica,sans-Serif" font-size="10.00">+ generate()</text>
<text text-anchor="start" x="126" y="-29.5" font-family="Helvetica,sans-Serif" font-size="10.00">&#45; init()</text>
<text text-anchor="start" x="126" y="-18.5" font-family="Helvetica,sans-Serif" font-size="10.00">&#45; PDK()</text>
<text text-anchor="start" x="126" y="-7.5" font-family="Helvetica,sans-Serif" font-size="10.00">&#45; BoostAlongY()</text>
</g>
<!-- Node2 -->
<g id="node2" class="node"><title>Node2</title>
<g id="a_node2"><a xlink:href="classComPWA_1_1PhaseSpaceEventGenerator.html" target="_top" xlink:title="Interface class for PHSP event generators. ">
<polygon fill="white" stroke="black" points="0,-298 0,-366 191,-366 191,-298 0,-298"/>
<text text-anchor="middle" x="95.5" y="-354" font-family="Helvetica,sans-Serif" font-size="10.00">ComPWA::PhaseSpaceEventGenerator</text>
<polyline fill="none" stroke="black" points="0,-347 191,-347 "/>
<text text-anchor="middle" x="95.5" y="-335" font-family="Helvetica,sans-Serif" font-size="10.00"> </text>
<polyline fill="none" stroke="black" points="0,-328 191,-328 "/>
<text text-anchor="start" x="8" y="-316" font-family="Helvetica,sans-Serif" font-size="10.00">+ ~PhaseSpaceEventGenerator()</text>
<text text-anchor="start" x="8" y="-305" font-family="Helvetica,sans-Serif" font-size="10.00">+ generate()</text>
</a>
</g>
</g>
<!-- Node2&#45;&gt;Node1 -->
<g id="edge1" class="edge"><title>Node2&#45;&gt;Node1</title>
<path fill="none" stroke="midnightblue" d="M111.626,-288.382C123.112,-258.026 138.96,-216.142 153.119,-178.721"/>
<polygon fill="none" stroke="midnightblue" points="108.323,-287.22 108.058,-297.812 114.87,-289.698 108.323,-287.22"/>
</g>
<!-- Node3 -->
<g id="node3" class="node"><title>Node3</title>
<g id="a_node3"><a xlink:href="classComPWA_1_1FourMomentum.html" target="_top" xlink:title="ComPWA four momentum class. ">
<polygon fill="white" stroke="black" points="209.5,-226.5 209.5,-437.5 347.5,-437.5 347.5,-226.5 209.5,-226.5"/>
<text text-anchor="middle" x="278.5" y="-425.5" font-family="Helvetica,sans-Serif" font-size="10.00">ComPWA::FourMomentum</text>
<polyline fill="none" stroke="black" points="209.5,-418.5 347.5,-418.5 "/>
<text text-anchor="start" x="217.5" y="-406.5" font-family="Helvetica,sans-Serif" font-size="10.00">&#45; P4</text>
<polyline fill="none" stroke="black" points="209.5,-399.5 347.5,-399.5 "/>
<text text-anchor="start" x="217.5" y="-387.5" font-family="Helvetica,sans-Serif" font-size="10.00">+ FourMomentum()</text>
<text text-anchor="start" x="217.5" y="-376.5" font-family="Helvetica,sans-Serif" font-size="10.00">+ FourMomentum()</text>
<text text-anchor="start" x="217.5" y="-365.5" font-family="Helvetica,sans-Serif" font-size="10.00">+ FourMomentum()</text>
<text text-anchor="start" x="217.5" y="-354.5" font-family="Helvetica,sans-Serif" font-size="10.00">+ FourMomentum()</text>
<text text-anchor="start" x="217.5" y="-343.5" font-family="Helvetica,sans-Serif" font-size="10.00">+ FourMomentum()</text>
<text text-anchor="start" x="217.5" y="-332.5" font-family="Helvetica,sans-Serif" font-size="10.00">+ px()</text>
<text text-anchor="start" x="217.5" y="-321.5" font-family="Helvetica,sans-Serif" font-size="10.00">+ py()</text>
<text text-anchor="start" x="217.5" y="-310.5" font-family="Helvetica,sans-Serif" font-size="10.00">+ pz()</text>
<text text-anchor="start" x="217.5" y="-299.5" font-family="Helvetica,sans-Serif" font-size="10.00">+ e()</text>
<text text-anchor="start" x="217.5" y="-288.5" font-family="Helvetica,sans-Serif" font-size="10.00">+ operator+()</text>
<text text-anchor="start" x="217.5" y="-277.5" font-family="Helvetica,sans-Serif" font-size="10.00">+ operator+=()</text>
<text text-anchor="start" x="217.5" y="-266.5" font-family="Helvetica,sans-Serif" font-size="10.00">+ operator==()</text>
<text text-anchor="start" x="217.5" y="-255.5" font-family="Helvetica,sans-Serif" font-size="10.00">+ invariantMassSquared()</text>
<text text-anchor="start" x="217.5" y="-244.5" font-family="Helvetica,sans-Serif" font-size="10.00">+ invariantMass()</text>
<text text-anchor="start" x="217.5" y="-233.5" font-family="Helvetica,sans-Serif" font-size="10.00">+ threeMomentumSquared()</text>
</a>
</g>
</g>
<!-- Node3&#45;&gt;Node1 -->
<g id="edge2" class="edge"><title>Node3&#45;&gt;Node1</title>
<path fill="none" stroke="#404040" d="M238.415,-226.213C233.828,-214.222 229.162,-202.023 224.602,-190.103"/>
<polygon fill="none" stroke="#404040" points="224.556,-189.984 218.676,-185.809 220.269,-178.776 226.148,-182.95 224.556,-189.984"/>
<text text-anchor="middle" x="251" y="-200" font-family="Helvetica,sans-Serif" font-size="10.00"> &#45;CMSP4</text>
</g>
</g>
</svg>
