<?xml version="1.0" encoding="UTF-8" standalone="no"?>
<!DOCTYPE svg PUBLIC "-//W3C//DTD SVG 1.1//EN"
 "http://www.w3.org/Graphics/SVG/1.1/DTD/svg11.dtd">
<!-- Generated by graphviz version 2.38.0 (20140413.2041)
 -->
<!-- Title: ComPWA::Estimator::ChiOneD::ChiOneD Pages: 1 -->
<svg width="290pt" height="332pt"
 viewBox="0.00 0.00 289.50 332.00" xmlns="http://www.w3.org/2000/svg" xmlns:xlink="http://www.w3.org/1999/xlink">
<g id="graph0" class="graph" transform="scale(1 1) rotate(0) translate(4 328)">
<title>ComPWA::Estimator::ChiOneD::ChiOneD</title>
<polygon fill="white" stroke="none" points="-4,4 -4,-328 285.5,-328 285.5,4 -4,4"/>
<!-- Node1 -->
<g id="node1" class="node"><title>Node1</title>
<polygon fill="#bfbfbf" stroke="black" points="123,-0.5 123,-79.5 238,-79.5 238,-0.5 123,-0.5"/>
<text text-anchor="start" x="131" y="-67.5" font-family="Helvetica,sans-Serif" font-size="10.00">ComPWA::Estimator::</text>
<text text-anchor="middle" x="180.5" y="-56.5" font-family="Helvetica,sans-Serif" font-size="10.00">ChiOneD::ChiOneD</text>
<polyline fill="none" stroke="black" points="123,-49.5 238,-49.5 "/>
<text text-anchor="start" x="131" y="-37.5" font-family="Helvetica,sans-Serif" font-size="10.00">&#45; Intensity</text>
<polyline fill="none" stroke="black" points="123,-30.5 238,-30.5 "/>
<text text-anchor="start" x="131" y="-18.5" font-family="Helvetica,sans-Serif" font-size="10.00">+ ChiOneD()</text>
<text text-anchor="start" x="131" y="-7.5" font-family="Helvetica,sans-Serif" font-size="10.00">+ evaluate()</text>
</g>
<!-- Node2 -->
<g id="node2" class="node"><title>Node2</title>
<g id="a_node2"><a xlink:href="classComPWA_1_1Estimator_1_1Estimator.html" target="_top" xlink:title="{ComPWA::Estimator::\lEstimator\&lt; double \&gt;\n||}">
<polygon fill="white" stroke="black" points="18,-127.5 18,-195.5 133,-195.5 133,-127.5 18,-127.5"/>
<text text-anchor="start" x="26" y="-183.5" font-family="Helvetica,sans-Serif" font-size="10.00">ComPWA::Estimator::</text>
<text text-anchor="middle" x="75.5" y="-172.5" font-family="Helvetica,sans-Serif" font-size="10.00">Estimator&lt; double &gt;</text>
<polyline fill="none" stroke="black" points="18,-165.5 133,-165.5 "/>
<text text-anchor="middle" x="75.5" y="-153.5" font-family="Helvetica,sans-Serif" font-size="10.00"> </text>
<polyline fill="none" stroke="black" points="18,-146.5 133,-146.5 "/>
<text text-anchor="middle" x="75.5" y="-134.5" font-family="Helvetica,sans-Serif" font-size="10.00"> </text>
</a>
</g>
</g>
<!-- Node2&#45;&gt;Node1 -->
<g id="edge1" class="edge"><title>Node2&#45;&gt;Node1</title>
<path fill="none" stroke="midnightblue" d="M111.633,-119.377C122.96,-106.486 135.416,-92.3098 146.584,-79.5997"/>
<polygon fill="none" stroke="midnightblue" points="108.72,-117.39 104.748,-127.213 113.978,-122.011 108.72,-117.39"/>
</g>
<!-- Node3 -->
<g id="node3" class="node"><title>Node3</title>
<g id="a_node3"><a xlink:href="classComPWA_1_1Function.html" target="_top" xlink:title="{ComPWA::Function\&lt; double \&gt;\n||+ ~Function()\l+ evaluate()\l+ updateParametersFrom()\l+ getParameters()\l}">
<polygon fill="white" stroke="black" points="0,-233.5 0,-323.5 151,-323.5 151,-233.5 0,-233.5"/>
<text text-anchor="middle" x="75.5" y="-311.5" font-family="Helvetica,sans-Serif" font-size="10.00">ComPWA::Function&lt; double &gt;</text>
<polyline fill="none" stroke="black" points="0,-304.5 151,-304.5 "/>
<text text-anchor="middle" x="75.5" y="-292.5" font-family="Helvetica,sans-Serif" font-size="10.00"> </text>
<polyline fill="none" stroke="black" points="0,-285.5 151,-285.5 "/>
<text text-anchor="start" x="8" y="-273.5" font-family="Helvetica,sans-Serif" font-size="10.00">+ ~Function()</text>
<text text-anchor="start" x="8" y="-262.5" font-family="Helvetica,sans-Serif" font-size="10.00">+ evaluate()</text>
<text text-anchor="start" x="8" y="-251.5" font-family="Helvetica,sans-Serif" font-size="10.00">+ updateParametersFrom()</text>
<text text-anchor="start" x="8" y="-240.5" font-family="Helvetica,sans-Serif" font-size="10.00">+ getParameters()</text>
</a>
</g>
</g>
<!-- Node3&#45;&gt;Node2 -->
<g id="edge2" class="edge"><title>Node3&#45;&gt;Node2</title>
<path fill="none" stroke="midnightblue" d="M75.5,-223.231C75.5,-213.804 75.5,-204.26 75.5,-195.618"/>
<polygon fill="none" stroke="midnightblue" points="72.0001,-223.367 75.5,-233.367 79.0001,-223.367 72.0001,-223.367"/>
</g>
<!-- Node4 -->
<g id="node4" class="node"><title>Node4</title>
<g id="a_node4"><a xlink:href="structComPWA_1_1Data_1_1DataSet.html" target="_top" xlink:title="{ComPWA::Data::DataSet\n|+ Data\l+ Weights\l|}">
<polygon fill="white" stroke="black" points="151.5,-127.5 151.5,-195.5 281.5,-195.5 281.5,-127.5 151.5,-127.5"/>
<text text-anchor="middle" x="216.5" y="-183.5" font-family="Helvetica,sans-Serif" font-size="10.00">ComPWA::Data::DataSet</text>
<polyline fill="none" stroke="black" points="151.5,-176.5 281.5,-176.5 "/>
<text text-anchor="start" x="159.5" y="-164.5" font-family="Helvetica,sans-Serif" font-size="10.00">+ Data</text>
<text text-anchor="start" x="159.5" y="-153.5" font-family="Helvetica,sans-Serif" font-size="10.00">+ Weights</text>
<polyline fill="none" stroke="black" points="151.5,-146.5 281.5,-146.5 "/>
<text text-anchor="middle" x="216.5" y="-134.5" font-family="Helvetica,sans-Serif" font-size="10.00"> </text>
</a>
</g>
</g>
<!-- Node4&#45;&gt;Node1 -->
<g id="edge3" class="edge"><title>Node4&#45;&gt;Node1</title>
<path fill="none" stroke="#404040" d="M206.472,-127.213C203.133,-116.128 199.335,-103.522 195.694,-91.4359"/>
<polygon fill="none" stroke="#404040" points="195.59,-91.0896 190.029,-86.4985 192.128,-79.5997 197.689,-84.1908 195.59,-91.0896"/>
<text text-anchor="middle" x="232" y="-101" font-family="Helvetica,sans-Serif" font-size="10.00"> &#45;DataSample</text>
</g>
</g>
</svg>
