<?xml version="1.0" encoding="UTF-8" standalone="no"?>
<!DOCTYPE svg PUBLIC "-//W3C//DTD SVG 1.1//EN"
 "http://www.w3.org/Graphics/SVG/1.1/DTD/svg11.dtd">
<!-- Generated by graphviz version 2.38.0 (20140413.2041)
 -->
<!-- Title: ComPWA::Optimizer::Geneva::GenevaIF Pages: 1 -->
<svg width="147pt" height="237pt"
 viewBox="0.00 0.00 147.00 237.00" xmlns="http://www.w3.org/2000/svg" xmlns:xlink="http://www.w3.org/1999/xlink">
<g id="graph0" class="graph" transform="scale(1 1) rotate(0) translate(4 233)">
<title>ComPWA::Optimizer::Geneva::GenevaIF</title>
<polygon fill="white" stroke="none" points="-4,4 -4,-233 143,-233 143,4 -4,4"/>
<!-- Node1 -->
<g id="node1" class="node"><title>Node1</title>
<polygon fill="#bfbfbf" stroke="black" points="12,-0.5 12,-112.5 127,-112.5 127,-0.5 12,-0.5"/>
<text text-anchor="start" x="20" y="-100.5" font-family="Helvetica,sans-Serif" font-size="10.00">ComPWA::Optimizer::</text>
<text text-anchor="middle" x="69.5" y="-89.5" font-family="Helvetica,sans-Serif" font-size="10.00">Geneva::GenevaIF</text>
<polyline fill="none" stroke="black" points="12,-82.5 127,-82.5 "/>
<text text-anchor="start" x="20" y="-70.5" font-family="Helvetica,sans-Serif" font-size="10.00">&#45; AlgorithmOrder</text>
<text text-anchor="start" x="20" y="-59.5" font-family="Helvetica,sans-Serif" font-size="10.00">&#45; ConfigFileDir</text>
<polyline fill="none" stroke="black" points="12,-52.5 127,-52.5 "/>
<text text-anchor="start" x="20" y="-40.5" font-family="Helvetica,sans-Serif" font-size="10.00">+ GenevaIF()</text>
<text text-anchor="start" x="20" y="-29.5" font-family="Helvetica,sans-Serif" font-size="10.00">+ optimize()</text>
<text text-anchor="start" x="20" y="-18.5" font-family="Helvetica,sans-Serif" font-size="10.00">+ ~GenevaIF()</text>
<text text-anchor="start" x="20" y="-7.5" font-family="Helvetica,sans-Serif" font-size="10.00">&#45; getFinalParameters()</text>
</g>
<!-- Node2 -->
<g id="node2" class="node"><title>Node2</title>
<g id="a_node2"><a xlink:href="classComPWA_1_1Optimizer_1_1Optimizer.html" target="_top" xlink:title="{ComPWA::Optimizer::\lOptimizer\&lt; GenevaResult \&gt;\n||+ ~Optimizer()\l+ optimize()\l}">
<polygon fill="white" stroke="black" points="0,-149.5 0,-228.5 139,-228.5 139,-149.5 0,-149.5"/>
<text text-anchor="start" x="8" y="-216.5" font-family="Helvetica,sans-Serif" font-size="10.00">ComPWA::Optimizer::</text>
<text text-anchor="middle" x="69.5" y="-205.5" font-family="Helvetica,sans-Serif" font-size="10.00">Optimizer&lt; GenevaResult &gt;</text>
<polyline fill="none" stroke="black" points="0,-198.5 139,-198.5 "/>
<text text-anchor="middle" x="69.5" y="-186.5" font-family="Helvetica,sans-Serif" font-size="10.00"> </text>
<polyline fill="none" stroke="black" points="0,-179.5 139,-179.5 "/>
<text text-anchor="start" x="8" y="-167.5" font-family="Helvetica,sans-Serif" font-size="10.00">+ ~Optimizer()</text>
<text text-anchor="start" x="8" y="-156.5" font-family="Helvetica,sans-Serif" font-size="10.00">+ optimize()</text>
</a>
</g>
</g>
<!-- Node2&#45;&gt;Node1 -->
<g id="edge1" class="edge"><title>Node2&#45;&gt;Node1</title>
<path fill="none" stroke="midnightblue" d="M69.5,-139.012C69.5,-130.464 69.5,-121.518 69.5,-112.814"/>
<polygon fill="none" stroke="midnightblue" points="66.0001,-139.199 69.5,-149.199 73.0001,-139.199 66.0001,-139.199"/>
</g>
</g>
</svg>
