<?xml version="1.0" encoding="UTF-8" standalone="no"?>
<!DOCTYPE svg PUBLIC "-//W3C//DTD SVG 1.1//EN"
 "http://www.w3.org/Graphics/SVG/1.1/DTD/svg11.dtd">
<!-- Generated by graphviz version 2.38.0 (20140413.2041)
 -->
<!-- Title: ComPWA::FunctionTree::Pow Pages: 1 -->
<svg width="157pt" height="248pt"
 viewBox="0.00 0.00 157.00 248.00" xmlns="http://www.w3.org/2000/svg" xmlns:xlink="http://www.w3.org/1999/xlink">
<g id="graph0" class="graph" transform="scale(1 1) rotate(0) translate(4 244)">
<title>ComPWA::FunctionTree::Pow</title>
<polygon fill="white" stroke="none" points="-4,4 -4,-244 153,-244 153,4 -4,4"/>
<!-- Node1 -->
<g id="node1" class="node"><title>Node1</title>
<polygon fill="#bfbfbf" stroke="black" points="-1.42109e-14,-0.5 -1.42109e-14,-79.5 149,-79.5 149,-0.5 -1.42109e-14,-0.5"/>
<text text-anchor="middle" x="74.5" y="-67.5" font-family="Helvetica,sans-Serif" font-size="10.00">ComPWA::FunctionTree::Pow</text>
<polyline fill="none" stroke="black" points="-1.42109e-14,-60.5 149,-60.5 "/>
<text text-anchor="start" x="8" y="-48.5" font-family="Helvetica,sans-Serif" font-size="10.00">&#45; power</text>
<polyline fill="none" stroke="black" points="-1.42109e-14,-41.5 149,-41.5 "/>
<text text-anchor="start" x="8" y="-29.5" font-family="Helvetica,sans-Serif" font-size="10.00">+ Pow()</text>
<text text-anchor="start" x="8" y="-18.5" font-family="Helvetica,sans-Serif" font-size="10.00">+ ~Pow()</text>
<text text-anchor="start" x="8" y="-7.5" font-family="Helvetica,sans-Serif" font-size="10.00">+ execute()</text>
</g>
<!-- Node2 -->
<g id="node2" class="node"><title>Node2</title>
<g id="a_node2"><a xlink:href="classComPWA_1_1FunctionTree_1_1Strategy.html" target="_top" xlink:title="Virtual base class for operations of FunctionTree nodes. ">
<polygon fill="white" stroke="black" points="12.5,-116.5 12.5,-239.5 136.5,-239.5 136.5,-116.5 12.5,-116.5"/>
<text text-anchor="start" x="20.5" y="-227.5" font-family="Helvetica,sans-Serif" font-size="10.00">ComPWA::FunctionTree</text>
<text text-anchor="middle" x="74.5" y="-216.5" font-family="Helvetica,sans-Serif" font-size="10.00">::Strategy</text>
<polyline fill="none" stroke="black" points="12.5,-209.5 136.5,-209.5 "/>
<text text-anchor="start" x="20.5" y="-197.5" font-family="Helvetica,sans-Serif" font-size="10.00"># checkType</text>
<text text-anchor="start" x="20.5" y="-186.5" font-family="Helvetica,sans-Serif" font-size="10.00"># Name</text>
<polyline fill="none" stroke="black" points="12.5,-179.5 136.5,-179.5 "/>
<text text-anchor="start" x="20.5" y="-167.5" font-family="Helvetica,sans-Serif" font-size="10.00">+ Strategy()</text>
<text text-anchor="start" x="20.5" y="-156.5" font-family="Helvetica,sans-Serif" font-size="10.00">+ ~Strategy()</text>
<text text-anchor="start" x="20.5" y="-145.5" font-family="Helvetica,sans-Serif" font-size="10.00">+ OutType()</text>
<text text-anchor="start" x="20.5" y="-134.5" font-family="Helvetica,sans-Serif" font-size="10.00">+ execute()</text>
<text text-anchor="start" x="20.5" y="-123.5" font-family="Helvetica,sans-Serif" font-size="10.00">+ str()</text>
</a>
</g>
</g>
<!-- Node2&#45;&gt;Node1 -->
<g id="edge1" class="edge"><title>Node2&#45;&gt;Node1</title>
<path fill="none" stroke="midnightblue" d="M74.5,-105.911C74.5,-96.8309 74.5,-87.824 74.5,-79.5403"/>
<polygon fill="none" stroke="midnightblue" points="71.0001,-106.16 74.5,-116.16 78.0001,-106.16 71.0001,-106.16"/>
</g>
</g>
</svg>
