<?xml version="1.0" encoding="UTF-8" standalone="no"?>
<!DOCTYPE svg PUBLIC "-//W3C//DTD SVG 1.1//EN"
 "http://www.w3.org/Graphics/SVG/1.1/DTD/svg11.dtd">
<!-- Generated by graphviz version 2.38.0 (20140413.2041)
 -->
<!-- Title: ComPWA::Data::Root::RootGenerator Pages: 1 -->
<svg width="199pt" height="303pt"
 viewBox="0.00 0.00 199.00 303.00" xmlns="http://www.w3.org/2000/svg" xmlns:xlink="http://www.w3.org/1999/xlink">
<g id="graph0" class="graph" transform="scale(1 1) rotate(0) translate(4 299)">
<title>ComPWA::Data::Root::RootGenerator</title>
<polygon fill="white" stroke="none" points="-4,4 -4,-299 195,-299 195,4 -4,4"/>
<!-- Node1 -->
<g id="node1" class="node"><title>Node1</title>
<polygon fill="#bfbfbf" stroke="black" points="27,-0.5 27,-189.5 164,-189.5 164,-0.5 27,-0.5"/>
<text text-anchor="start" x="35" y="-177.5" font-family="Helvetica,sans-Serif" font-size="10.00">ComPWA::Data::Root</text>
<text text-anchor="middle" x="95.5" y="-166.5" font-family="Helvetica,sans-Serif" font-size="10.00">::RootGenerator</text>
<polyline fill="none" stroke="black" points="27,-159.5 164,-159.5 "/>
<text text-anchor="start" x="35" y="-147.5" font-family="Helvetica,sans-Serif" font-size="10.00">&#45; CMSP4</text>
<text text-anchor="start" x="35" y="-136.5" font-family="Helvetica,sans-Serif" font-size="10.00">&#45; FinalStateMasses</text>
<text text-anchor="start" x="35" y="-125.5" font-family="Helvetica,sans-Serif" font-size="10.00">&#45; MaximumWeight</text>
<text text-anchor="start" x="35" y="-114.5" font-family="Helvetica,sans-Serif" font-size="10.00">&#45; CMSBoostVector</text>
<text text-anchor="start" x="35" y="-103.5" font-family="Helvetica,sans-Serif" font-size="10.00">&#45; CMSEnergyMinusMasses</text>
<polyline fill="none" stroke="black" points="27,-96.5 164,-96.5 "/>
<text text-anchor="start" x="35" y="-84.5" font-family="Helvetica,sans-Serif" font-size="10.00">+ RootGenerator()</text>
<text text-anchor="start" x="35" y="-73.5" font-family="Helvetica,sans-Serif" font-size="10.00">+ RootGenerator()</text>
<text text-anchor="start" x="35" y="-62.5" font-family="Helvetica,sans-Serif" font-size="10.00">+ RootGenerator()</text>
<text text-anchor="start" x="35" y="-51.5" font-family="Helvetica,sans-Serif" font-size="10.00">+ ~RootGenerator()</text>
<text text-anchor="start" x="35" y="-40.5" font-family="Helvetica,sans-Serif" font-size="10.00">+ generate()</text>
<text text-anchor="start" x="35" y="-29.5" font-family="Helvetica,sans-Serif" font-size="10.00">&#45; init()</text>
<text text-anchor="start" x="35" y="-18.5" font-family="Helvetica,sans-Serif" font-size="10.00">&#45; PDK()</text>
<text text-anchor="start" x="35" y="-7.5" font-family="Helvetica,sans-Serif" font-size="10.00">&#45; BoostAlongY()</text>
</g>
<!-- Node2 -->
<g id="node2" class="node"><title>Node2</title>
<g id="a_node2"><a xlink:href="classComPWA_1_1PhaseSpaceEventGenerator.html" target="_top" xlink:title="Interface class for PHSP event generators. ">
<polygon fill="white" stroke="black" points="0,-226.5 0,-294.5 191,-294.5 191,-226.5 0,-226.5"/>
<text text-anchor="middle" x="95.5" y="-282.5" font-family="Helvetica,sans-Serif" font-size="10.00">ComPWA::PhaseSpaceEventGenerator</text>
<polyline fill="none" stroke="black" points="0,-275.5 191,-275.5 "/>
<text text-anchor="middle" x="95.5" y="-263.5" font-family="Helvetica,sans-Serif" font-size="10.00"> </text>
<polyline fill="none" stroke="black" points="0,-256.5 191,-256.5 "/>
<text text-anchor="start" x="8" y="-244.5" font-family="Helvetica,sans-Serif" font-size="10.00">+ ~PhaseSpaceEventGenerator()</text>
<text text-anchor="start" x="8" y="-233.5" font-family="Helvetica,sans-Serif" font-size="10.00">+ generate()</text>
</a>
</g>
</g>
<!-- Node2&#45;&gt;Node1 -->
<g id="edge1" class="edge"><title>Node2&#45;&gt;Node1</title>
<path fill="none" stroke="midnightblue" d="M95.5,-216.245C95.5,-207.896 95.5,-198.852 95.5,-189.602"/>
<polygon fill="none" stroke="midnightblue" points="92.0001,-216.413 95.5,-226.413 99.0001,-216.413 92.0001,-216.413"/>
</g>
</g>
</svg>
