<?xml version="1.0" encoding="UTF-8" standalone="no"?>
<!DOCTYPE svg PUBLIC "-//W3C//DTD SVG 1.1//EN"
 "http://www.w3.org/Graphics/SVG/1.1/DTD/svg11.dtd">
<!-- Generated by graphviz version 2.38.0 (20140413.2041)
 -->
<!-- Title: ComPWA::FunctionTree::TreeNode Pages: 1 -->
<svg width="274pt" height="347pt"
 viewBox="0.00 0.00 273.50 347.00" xmlns="http://www.w3.org/2000/svg" xmlns:xlink="http://www.w3.org/1999/xlink">
<g id="graph0" class="graph" transform="scale(1 1) rotate(0) translate(4 343)">
<title>ComPWA::FunctionTree::TreeNode</title>
<polygon fill="white" stroke="none" points="-4,4 -4,-343 269.5,-343 269.5,4 -4,4"/>
<!-- Node1 -->
<g id="node1" class="node"><title>Node1</title>
<polygon fill="#bfbfbf" stroke="black" points="67,-0.5 67,-233.5 198,-233.5 198,-0.5 67,-0.5"/>
<text text-anchor="start" x="75" y="-221.5" font-family="Helvetica,sans-Serif" font-size="10.00">ComPWA::FunctionTree</text>
<text text-anchor="middle" x="132.5" y="-210.5" font-family="Helvetica,sans-Serif" font-size="10.00">::TreeNode</text>
<polyline fill="none" stroke="black" points="67,-203.5 198,-203.5 "/>
<text text-anchor="start" x="75" y="-191.5" font-family="Helvetica,sans-Serif" font-size="10.00">&#45; Parents</text>
<text text-anchor="start" x="75" y="-180.5" font-family="Helvetica,sans-Serif" font-size="10.00">&#45; ChildNodes</text>
<text text-anchor="start" x="75" y="-169.5" font-family="Helvetica,sans-Serif" font-size="10.00">&#45; OutputParameter</text>
<text text-anchor="start" x="75" y="-158.5" font-family="Helvetica,sans-Serif" font-size="10.00">&#45; HasChanged</text>
<text text-anchor="start" x="75" y="-147.5" font-family="Helvetica,sans-Serif" font-size="10.00">&#45; Strat</text>
<polyline fill="none" stroke="black" points="67,-140.5 198,-140.5 "/>
<text text-anchor="start" x="75" y="-128.5" font-family="Helvetica,sans-Serif" font-size="10.00">+ TreeNode()</text>
<text text-anchor="start" x="75" y="-117.5" font-family="Helvetica,sans-Serif" font-size="10.00">+ TreeNode()</text>
<text text-anchor="start" x="75" y="-106.5" font-family="Helvetica,sans-Serif" font-size="10.00">+ ~TreeNode()</text>
<text text-anchor="start" x="75" y="-95.5" font-family="Helvetica,sans-Serif" font-size="10.00">+ removeExpiredParents()</text>
<text text-anchor="start" x="75" y="-84.5" font-family="Helvetica,sans-Serif" font-size="10.00">+ addNode()</text>
<text text-anchor="start" x="75" y="-73.5" font-family="Helvetica,sans-Serif" font-size="10.00">+ addNodes()</text>
<text text-anchor="start" x="75" y="-62.5" font-family="Helvetica,sans-Serif" font-size="10.00">+ addParent()</text>
<text text-anchor="start" x="75" y="-51.5" font-family="Helvetica,sans-Serif" font-size="10.00">+ parameter()</text>
<text text-anchor="start" x="75" y="-40.5" font-family="Helvetica,sans-Serif" font-size="10.00">+ fillParameters()</text>
<text text-anchor="start" x="75" y="-29.5" font-family="Helvetica,sans-Serif" font-size="10.00">+ update()</text>
<text text-anchor="start" x="75" y="-18.5" font-family="Helvetica,sans-Serif" font-size="10.00">+ print()</text>
<text text-anchor="start" x="75" y="-7.5" font-family="Helvetica,sans-Serif" font-size="10.00">&#45; recalculate()</text>
</g>
<!-- Node2 -->
<g id="node2" class="node"><title>Node2</title>
<polygon fill="white" stroke="#bfbfbf" points="0,-270.5 0,-338.5 123,-338.5 123,-270.5 0,-270.5"/>
<text text-anchor="start" x="8" y="-326.5" font-family="Helvetica,sans-Serif" font-size="10.00">std::enable_shared</text>
<text text-anchor="middle" x="61.5" y="-315.5" font-family="Helvetica,sans-Serif" font-size="10.00">_from_this&lt; TreeNode &gt;</text>
<polyline fill="none" stroke="#bfbfbf" points="0,-308.5 123,-308.5 "/>
<text text-anchor="middle" x="61.5" y="-296.5" font-family="Helvetica,sans-Serif" font-size="10.00"> </text>
<polyline fill="none" stroke="#bfbfbf" points="0,-289.5 123,-289.5 "/>
<text text-anchor="middle" x="61.5" y="-277.5" font-family="Helvetica,sans-Serif" font-size="10.00"> </text>
</g>
<!-- Node2&#45;&gt;Node1 -->
<g id="edge1" class="edge"><title>Node2&#45;&gt;Node1</title>
<path fill="none" stroke="midnightblue" d="M77.8175,-260.868C81.0305,-252.473 84.5431,-243.296 88.188,-233.773"/>
<polygon fill="none" stroke="midnightblue" points="74.4993,-259.746 74.1934,-270.336 81.0368,-262.248 74.4993,-259.746"/>
</g>
<!-- Node3 -->
<g id="node3" class="node"><title>Node3</title>
<g id="a_node3"><a xlink:href="classComPWA_1_1FunctionTree_1_1ParObserver.html" target="_top" xlink:title="ParObserver Base class parameter observer. ">
<polygon fill="white" stroke="black" points="141.5,-270.5 141.5,-338.5 265.5,-338.5 265.5,-270.5 141.5,-270.5"/>
<text text-anchor="start" x="149.5" y="-326.5" font-family="Helvetica,sans-Serif" font-size="10.00">ComPWA::FunctionTree</text>
<text text-anchor="middle" x="203.5" y="-315.5" font-family="Helvetica,sans-Serif" font-size="10.00">::ParObserver</text>
<polyline fill="none" stroke="black" points="141.5,-308.5 265.5,-308.5 "/>
<text text-anchor="middle" x="203.5" y="-296.5" font-family="Helvetica,sans-Serif" font-size="10.00"> </text>
<polyline fill="none" stroke="black" points="141.5,-289.5 265.5,-289.5 "/>
<text text-anchor="start" x="149.5" y="-277.5" font-family="Helvetica,sans-Serif" font-size="10.00">+ update()</text>
</a>
</g>
</g>
<!-- Node3&#45;&gt;Node1 -->
<g id="edge2" class="edge"><title>Node3&#45;&gt;Node1</title>
<path fill="none" stroke="midnightblue" d="M187.183,-260.868C183.97,-252.473 180.457,-243.296 176.812,-233.773"/>
<polygon fill="none" stroke="midnightblue" points="183.963,-262.248 190.807,-270.336 190.501,-259.746 183.963,-262.248"/>
</g>
</g>
</svg>
