<?xml version="1.0" encoding="UTF-8" standalone="no"?>
<!DOCTYPE svg PUBLIC "-//W3C//DTD SVG 1.1//EN"
 "http://www.w3.org/Graphics/SVG/1.1/DTD/svg11.dtd">
<!-- Generated by graphviz version 2.38.0 (20140413.2041)
 -->
<!-- Title: ComPWA::PhaseSpaceEventGenerator Pages: 1 -->
<svg width="290pt" height="303pt"
 viewBox="0.00 0.00 290.00 303.00" xmlns="http://www.w3.org/2000/svg" xmlns:xlink="http://www.w3.org/1999/xlink">
<g id="graph0" class="graph" transform="scale(1 1) rotate(0) translate(4 299)">
<title>ComPWA::PhaseSpaceEventGenerator</title>
<polygon fill="white" stroke="none" points="-4,4 -4,-299 286,-299 286,4 -4,4"/>
<!-- Node1 -->
<g id="node1" class="node"><title>Node1</title>
<polygon fill="#bfbfbf" stroke="black" points="43,-226.5 43,-294.5 234,-294.5 234,-226.5 43,-226.5"/>
<text text-anchor="middle" x="138.5" y="-282.5" font-family="Helvetica,sans-Serif" font-size="10.00">ComPWA::PhaseSpaceEventGenerator</text>
<polyline fill="none" stroke="black" points="43,-275.5 234,-275.5 "/>
<text text-anchor="middle" x="138.5" y="-263.5" font-family="Helvetica,sans-Serif" font-size="10.00"> </text>
<polyline fill="none" stroke="black" points="43,-256.5 234,-256.5 "/>
<text text-anchor="start" x="51" y="-244.5" font-family="Helvetica,sans-Serif" font-size="10.00">+ ~PhaseSpaceEventGenerator()</text>
<text text-anchor="start" x="51" y="-233.5" font-family="Helvetica,sans-Serif" font-size="10.00">+ generate()</text>
</g>
<!-- Node2 -->
<g id="node2" class="node"><title>Node2</title>
<g id="a_node2"><a xlink:href="classComPWA_1_1Data_1_1EvtGen_1_1EvtGenGenerator.html" target="_top" xlink:title="{ComPWA::Data::EvtGen\l::EvtGenGenerator\n|&#45; CMSP4\l&#45; FinalStateMasses\l&#45; RandomEngine\l|+ EvtGenGenerator()\l+ EvtGenGenerator()\l+ generate()\l}">
<polygon fill="white" stroke="black" points="0,-39 0,-151 127,-151 127,-39 0,-39"/>
<text text-anchor="start" x="8" y="-139" font-family="Helvetica,sans-Serif" font-size="10.00">ComPWA::Data::EvtGen</text>
<text text-anchor="middle" x="63.5" y="-128" font-family="Helvetica,sans-Serif" font-size="10.00">::EvtGenGenerator</text>
<polyline fill="none" stroke="black" points="0,-121 127,-121 "/>
<text text-anchor="start" x="8" y="-109" font-family="Helvetica,sans-Serif" font-size="10.00">&#45; CMSP4</text>
<text text-anchor="start" x="8" y="-98" font-family="Helvetica,sans-Serif" font-size="10.00">&#45; FinalStateMasses</text>
<text text-anchor="start" x="8" y="-87" font-family="Helvetica,sans-Serif" font-size="10.00">&#45; RandomEngine</text>
<polyline fill="none" stroke="black" points="0,-80 127,-80 "/>
<text text-anchor="start" x="8" y="-68" font-family="Helvetica,sans-Serif" font-size="10.00">+ EvtGenGenerator()</text>
<text text-anchor="start" x="8" y="-57" font-family="Helvetica,sans-Serif" font-size="10.00">+ EvtGenGenerator()</text>
<text text-anchor="start" x="8" y="-46" font-family="Helvetica,sans-Serif" font-size="10.00">+ generate()</text>
</a>
</g>
</g>
<!-- Node1&#45;&gt;Node2 -->
<g id="edge1" class="edge"><title>Node1&#45;&gt;Node2</title>
<path fill="none" stroke="midnightblue" d="M119.097,-217.202C109.873,-197.093 98.7271,-172.795 88.8442,-151.25"/>
<polygon fill="none" stroke="midnightblue" points="115.972,-218.783 123.323,-226.413 122.334,-215.865 115.972,-218.783"/>
</g>
<!-- Node3 -->
<g id="node3" class="node"><title>Node3</title>
<g id="a_node3"><a xlink:href="classComPWA_1_1Data_1_1Root_1_1RootGenerator.html" target="_top" xlink:title="{ComPWA::Data::Root\l::RootGenerator\n|&#45; CMSP4\l&#45; FinalStateMasses\l&#45; MaximumWeight\l&#45; CMSBoostVector\l&#45; CMSEnergyMinusMasses\l|+ RootGenerator()\l+ RootGenerator()\l+ RootGenerator()\l+ ~RootGenerator()\l+ generate()\l&#45; init()\l&#45; PDK()\l&#45; BoostAlongY()\l}">
<polygon fill="white" stroke="black" points="145,-0.5 145,-189.5 282,-189.5 282,-0.5 145,-0.5"/>
<text text-anchor="start" x="153" y="-177.5" font-family="Helvetica,sans-Serif" font-size="10.00">ComPWA::Data::Root</text>
<text text-anchor="middle" x="213.5" y="-166.5" font-family="Helvetica,sans-Serif" font-size="10.00">::RootGenerator</text>
<polyline fill="none" stroke="black" points="145,-159.5 282,-159.5 "/>
<text text-anchor="start" x="153" y="-147.5" font-family="Helvetica,sans-Serif" font-size="10.00">&#45; CMSP4</text>
<text text-anchor="start" x="153" y="-136.5" font-family="Helvetica,sans-Serif" font-size="10.00">&#45; FinalStateMasses</text>
<text text-anchor="start" x="153" y="-125.5" font-family="Helvetica,sans-Serif" font-size="10.00">&#45; MaximumWeight</text>
<text text-anchor="start" x="153" y="-114.5" font-family="Helvetica,sans-Serif" font-size="10.00">&#45; CMSBoostVector</text>
<text text-anchor="start" x="153" y="-103.5" font-family="Helvetica,sans-Serif" font-size="10.00">&#45; CMSEnergyMinusMasses</text>
<polyline fill="none" stroke="black" points="145,-96.5 282,-96.5 "/>
<text text-anchor="start" x="153" y="-84.5" font-family="Helvetica,sans-Serif" font-size="10.00">+ RootGenerator()</text>
<text text-anchor="start" x="153" y="-73.5" font-family="Helvetica,sans-Serif" font-size="10.00">+ RootGenerator()</text>
<text text-anchor="start" x="153" y="-62.5" font-family="Helvetica,sans-Serif" font-size="10.00">+ RootGenerator()</text>
<text text-anchor="start" x="153" y="-51.5" font-family="Helvetica,sans-Serif" font-size="10.00">+ ~RootGenerator()</text>
<text text-anchor="start" x="153" y="-40.5" font-family="Helvetica,sans-Serif" font-size="10.00">+ generate()</text>
<text text-anchor="start" x="153" y="-29.5" font-family="Helvetica,sans-Serif" font-size="10.00">&#45; init()</text>
<text text-anchor="start" x="153" y="-18.5" font-family="Helvetica,sans-Serif" font-size="10.00">&#45; PDK()</text>
<text text-anchor="start" x="153" y="-7.5" font-family="Helvetica,sans-Serif" font-size="10.00">&#45; BoostAlongY()</text>
</a>
</g>
</g>
<!-- Node1&#45;&gt;Node3 -->
<g id="edge2" class="edge"><title>Node1&#45;&gt;Node3</title>
<path fill="none" stroke="midnightblue" d="M157.96,-217.078C161.895,-208.499 166.179,-199.161 170.563,-189.602"/>
<polygon fill="none" stroke="midnightblue" points="154.666,-215.865 153.677,-226.413 161.028,-218.783 154.666,-215.865"/>
</g>
</g>
</svg>
