<?xml version="1.0" encoding="UTF-8" standalone="no"?>
<!DOCTYPE svg PUBLIC "-//W3C//DTD SVG 1.1//EN"
 "http://www.w3.org/Graphics/SVG/1.1/DTD/svg11.dtd">
<!-- Generated by graphviz version 2.38.0 (20140413.2041)
 -->
<!-- Title: ComPWA::Data::EvtGen::EvtGenGenerator Pages: 1 -->
<svg width="199pt" height="226pt"
 viewBox="0.00 0.00 199.00 226.00" xmlns="http://www.w3.org/2000/svg" xmlns:xlink="http://www.w3.org/1999/xlink">
<g id="graph0" class="graph" transform="scale(1 1) rotate(0) translate(4 222)">
<title>ComPWA::Data::EvtGen::EvtGenGenerator</title>
<polygon fill="white" stroke="none" points="-4,4 -4,-222 195,-222 195,4 -4,4"/>
<!-- Node1 -->
<g id="node1" class="node"><title>Node1</title>
<polygon fill="#bfbfbf" stroke="black" points="32,-0.5 32,-112.5 159,-112.5 159,-0.5 32,-0.5"/>
<text text-anchor="start" x="40" y="-100.5" font-family="Helvetica,sans-Serif" font-size="10.00">ComPWA::Data::EvtGen</text>
<text text-anchor="middle" x="95.5" y="-89.5" font-family="Helvetica,sans-Serif" font-size="10.00">::EvtGenGenerator</text>
<polyline fill="none" stroke="black" points="32,-82.5 159,-82.5 "/>
<text text-anchor="start" x="40" y="-70.5" font-family="Helvetica,sans-Serif" font-size="10.00">&#45; CMSP4</text>
<text text-anchor="start" x="40" y="-59.5" font-family="Helvetica,sans-Serif" font-size="10.00">&#45; FinalStateMasses</text>
<text text-anchor="start" x="40" y="-48.5" font-family="Helvetica,sans-Serif" font-size="10.00">&#45; RandomEngine</text>
<polyline fill="none" stroke="black" points="32,-41.5 159,-41.5 "/>
<text text-anchor="start" x="40" y="-29.5" font-family="Helvetica,sans-Serif" font-size="10.00">+ EvtGenGenerator()</text>
<text text-anchor="start" x="40" y="-18.5" font-family="Helvetica,sans-Serif" font-size="10.00">+ EvtGenGenerator()</text>
<text text-anchor="start" x="40" y="-7.5" font-family="Helvetica,sans-Serif" font-size="10.00">+ generate()</text>
</g>
<!-- Node2 -->
<g id="node2" class="node"><title>Node2</title>
<g id="a_node2"><a xlink:href="classComPWA_1_1PhaseSpaceEventGenerator.html" target="_top" xlink:title="Interface class for PHSP event generators. ">
<polygon fill="white" stroke="black" points="0,-149.5 0,-217.5 191,-217.5 191,-149.5 0,-149.5"/>
<text text-anchor="middle" x="95.5" y="-205.5" font-family="Helvetica,sans-Serif" font-size="10.00">ComPWA::PhaseSpaceEventGenerator</text>
<polyline fill="none" stroke="black" points="0,-198.5 191,-198.5 "/>
<text text-anchor="middle" x="95.5" y="-186.5" font-family="Helvetica,sans-Serif" font-size="10.00"> </text>
<polyline fill="none" stroke="black" points="0,-179.5 191,-179.5 "/>
<text text-anchor="start" x="8" y="-167.5" font-family="Helvetica,sans-Serif" font-size="10.00">+ ~PhaseSpaceEventGenerator()</text>
<text text-anchor="start" x="8" y="-156.5" font-family="Helvetica,sans-Serif" font-size="10.00">+ generate()</text>
</a>
</g>
</g>
<!-- Node2&#45;&gt;Node1 -->
<g id="edge1" class="edge"><title>Node2&#45;&gt;Node1</title>
<path fill="none" stroke="midnightblue" d="M95.5,-139.182C95.5,-130.604 95.5,-121.493 95.5,-112.585"/>
<polygon fill="none" stroke="midnightblue" points="92.0001,-139.33 95.5,-149.33 99.0001,-139.331 92.0001,-139.33"/>
</g>
</g>
</svg>
