<?xml version="1.0" encoding="UTF-8" standalone="no"?>
<!DOCTYPE svg PUBLIC "-//W3C//DTD SVG 1.1//EN"
 "http://www.w3.org/Graphics/SVG/1.1/DTD/svg11.dtd">
<!-- Generated by graphviz version 2.38.0 (20140413.2041)
 -->
<!-- Title: ComPWA::Efficiency Pages: 1 -->
<svg width="276pt" height="364pt"
 viewBox="0.00 0.00 275.50 364.00" xmlns="http://www.w3.org/2000/svg" xmlns:xlink="http://www.w3.org/1999/xlink">
<g id="graph0" class="graph" transform="scale(1 1) rotate(0) translate(4 360)">
<title>ComPWA::Efficiency</title>
<polygon fill="white" stroke="none" points="-4,4 -4,-360 271.5,-360 271.5,4 -4,4"/>
<!-- Node1 -->
<g id="node1" class="node"><title>Node1</title>
<polygon fill="#bfbfbf" stroke="black" points="78.5,-276.5 78.5,-355.5 188.5,-355.5 188.5,-276.5 78.5,-276.5"/>
<text text-anchor="middle" x="133.5" y="-343.5" font-family="Helvetica,sans-Serif" font-size="10.00">ComPWA::Efficiency</text>
<polyline fill="none" stroke="black" points="78.5,-336.5 188.5,-336.5 "/>
<text text-anchor="middle" x="133.5" y="-324.5" font-family="Helvetica,sans-Serif" font-size="10.00"> </text>
<polyline fill="none" stroke="black" points="78.5,-317.5 188.5,-317.5 "/>
<text text-anchor="start" x="86.5" y="-305.5" font-family="Helvetica,sans-Serif" font-size="10.00">+ Efficiency()</text>
<text text-anchor="start" x="86.5" y="-294.5" font-family="Helvetica,sans-Serif" font-size="10.00">+ ~Efficiency()</text>
<text text-anchor="start" x="86.5" y="-283.5" font-family="Helvetica,sans-Serif" font-size="10.00">+ evaluate()</text>
</g>
<!-- Node2 -->
<g id="node2" class="node"><title>Node2</title>
<g id="a_node2"><a xlink:href="classComPWA_1_1Data_1_1Root_1_1RootEfficiency.html" target="_top" xlink:title="Efficiency provided by a histogram. ">
<polygon fill="white" stroke="black" points="6,-138.5 6,-239.5 121,-239.5 121,-138.5 6,-138.5"/>
<text text-anchor="start" x="14" y="-227.5" font-family="Helvetica,sans-Serif" font-size="10.00">ComPWA::Data::Root</text>
<text text-anchor="middle" x="63.5" y="-216.5" font-family="Helvetica,sans-Serif" font-size="10.00">::RootEfficiency</text>
<polyline fill="none" stroke="black" points="6,-209.5 121,-209.5 "/>
<text text-anchor="start" x="14" y="-197.5" font-family="Helvetica,sans-Serif" font-size="10.00"># effHist</text>
<polyline fill="none" stroke="black" points="6,-190.5 121,-190.5 "/>
<text text-anchor="start" x="14" y="-178.5" font-family="Helvetica,sans-Serif" font-size="10.00">+ RootEfficiency()</text>
<text text-anchor="start" x="14" y="-167.5" font-family="Helvetica,sans-Serif" font-size="10.00">+ RootEfficiency()</text>
<text text-anchor="start" x="14" y="-156.5" font-family="Helvetica,sans-Serif" font-size="10.00">+ ~RootEfficiency()</text>
<text text-anchor="start" x="14" y="-145.5" font-family="Helvetica,sans-Serif" font-size="10.00">+ evaluate()</text>
</a>
</g>
</g>
<!-- Node1&#45;&gt;Node2 -->
<g id="edge1" class="edge"><title>Node1&#45;&gt;Node2</title>
<path fill="none" stroke="midnightblue" d="M106.926,-267.547C101.824,-258.436 96.4675,-248.871 91.3269,-239.691"/>
<polygon fill="none" stroke="midnightblue" points="103.987,-269.461 111.927,-276.476 110.094,-266.041 103.987,-269.461"/>
</g>
<!-- Node4 -->
<g id="node4" class="node"><title>Node4</title>
<g id="a_node4"><a xlink:href="classComPWA_1_1UnitEfficiency.html" target="_top" xlink:title="Efficiency object with unit efficiency all over the phase space. ">
<polygon fill="white" stroke="black" points="139.5,-149.5 139.5,-228.5 267.5,-228.5 267.5,-149.5 139.5,-149.5"/>
<text text-anchor="middle" x="203.5" y="-216.5" font-family="Helvetica,sans-Serif" font-size="10.00">ComPWA::UnitEfficiency</text>
<polyline fill="none" stroke="black" points="139.5,-209.5 267.5,-209.5 "/>
<text text-anchor="middle" x="203.5" y="-197.5" font-family="Helvetica,sans-Serif" font-size="10.00"> </text>
<polyline fill="none" stroke="black" points="139.5,-190.5 267.5,-190.5 "/>
<text text-anchor="start" x="147.5" y="-178.5" font-family="Helvetica,sans-Serif" font-size="10.00">+ UnitEfficiency()</text>
<text text-anchor="start" x="147.5" y="-167.5" font-family="Helvetica,sans-Serif" font-size="10.00">+ ~UnitEfficiency()</text>
<text text-anchor="start" x="147.5" y="-156.5" font-family="Helvetica,sans-Serif" font-size="10.00">+ evaluate()</text>
</a>
</g>
</g>
<!-- Node1&#45;&gt;Node4 -->
<g id="edge3" class="edge"><title>Node1&#45;&gt;Node4</title>
<path fill="none" stroke="midnightblue" d="M159.979,-267.716C167.208,-254.806 174.954,-240.975 181.877,-228.612"/>
<polygon fill="none" stroke="midnightblue" points="156.906,-266.041 155.073,-276.476 163.013,-269.461 156.906,-266.041"/>
</g>
<!-- Node3 -->
<g id="node3" class="node"><title>Node3</title>
<g id="a_node3"><a xlink:href="classComPWA_1_1Data_1_1Root_1_1RootAngleEfficiency.html" target="_top" xlink:title="Uses also TEfficiency object, but the variables are one invariant mass and the corresponding helicity...">
<polygon fill="white" stroke="black" points="0,-0.5 0,-101.5 127,-101.5 127,-0.5 0,-0.5"/>
<text text-anchor="start" x="8" y="-89.5" font-family="Helvetica,sans-Serif" font-size="10.00">ComPWA::Data::Root</text>
<text text-anchor="middle" x="63.5" y="-78.5" font-family="Helvetica,sans-Serif" font-size="10.00">::RootAngleEfficiency</text>
<polyline fill="none" stroke="black" points="0,-71.5 127,-71.5 "/>
<text text-anchor="middle" x="63.5" y="-59.5" font-family="Helvetica,sans-Serif" font-size="10.00"> </text>
<polyline fill="none" stroke="black" points="0,-52.5 127,-52.5 "/>
<text text-anchor="start" x="8" y="-40.5" font-family="Helvetica,sans-Serif" font-size="10.00">+ RootAngleEfficiency()</text>
<text text-anchor="start" x="8" y="-29.5" font-family="Helvetica,sans-Serif" font-size="10.00">+ RootAngleEfficiency()</text>
<text text-anchor="start" x="8" y="-18.5" font-family="Helvetica,sans-Serif" font-size="10.00">+ ~RootAngleEfficiency()</text>
<text text-anchor="start" x="8" y="-7.5" font-family="Helvetica,sans-Serif" font-size="10.00">+ evaluate()</text>
</a>
</g>
</g>
<!-- Node2&#45;&gt;Node3 -->
<g id="edge2" class="edge"><title>Node2&#45;&gt;Node3</title>
<path fill="none" stroke="midnightblue" d="M63.5,-128C63.5,-119.271 63.5,-110.363 63.5,-101.863"/>
<polygon fill="none" stroke="midnightblue" points="60.0001,-128.131 63.5,-138.131 67.0001,-128.131 60.0001,-128.131"/>
</g>
</g>
</svg>
