<?xml version="1.0" encoding="UTF-8" standalone="no"?>
<!DOCTYPE svg PUBLIC "-//W3C//DTD SVG 1.1//EN"
 "http://www.w3.org/Graphics/SVG/1.1/DTD/svg11.dtd">
<!-- Generated by graphviz version 2.38.0 (20140413.2041)
 -->
<!-- Title: ComPWA::Estimator::MinLogLH Pages: 1 -->
<svg width="451pt" height="398pt"
 viewBox="0.00 0.00 451.00 398.00" xmlns="http://www.w3.org/2000/svg" xmlns:xlink="http://www.w3.org/1999/xlink">
<g id="graph0" class="graph" transform="scale(1 1) rotate(0) translate(4 394)">
<title>ComPWA::Estimator::MinLogLH</title>
<polygon fill="white" stroke="none" points="-4,4 -4,-394 447,-394 447,4 -4,4"/>
<!-- Node1 -->
<g id="node1" class="node"><title>Node1</title>
<polygon fill="#bfbfbf" stroke="black" points="149.5,-0.5 149.5,-101.5 283.5,-101.5 283.5,-0.5 149.5,-0.5"/>
<text text-anchor="start" x="157.5" y="-89.5" font-family="Helvetica,sans-Serif" font-size="10.00">ComPWA::Estimator::</text>
<text text-anchor="middle" x="216.5" y="-78.5" font-family="Helvetica,sans-Serif" font-size="10.00">MinLogLH</text>
<polyline fill="none" stroke="black" points="149.5,-71.5 283.5,-71.5 "/>
<text text-anchor="middle" x="216.5" y="-59.5" font-family="Helvetica,sans-Serif" font-size="10.00"> </text>
<polyline fill="none" stroke="black" points="149.5,-52.5 283.5,-52.5 "/>
<text text-anchor="start" x="157.5" y="-40.5" font-family="Helvetica,sans-Serif" font-size="10.00">+ MinLogLH()</text>
<text text-anchor="start" x="157.5" y="-29.5" font-family="Helvetica,sans-Serif" font-size="10.00">+ evaluate()</text>
<text text-anchor="start" x="157.5" y="-18.5" font-family="Helvetica,sans-Serif" font-size="10.00">+ updateParametersFrom()</text>
<text text-anchor="start" x="157.5" y="-7.5" font-family="Helvetica,sans-Serif" font-size="10.00">+ getParameters()</text>
</g>
<!-- Node2 -->
<g id="node2" class="node"><title>Node2</title>
<g id="a_node2"><a xlink:href="classComPWA_1_1Estimator_1_1Estimator.html" target="_top" xlink:title="{ComPWA::Estimator::\lEstimator\&lt; double \&gt;\n||}">
<polygon fill="white" stroke="black" points="18,-177 18,-245 133,-245 133,-177 18,-177"/>
<text text-anchor="start" x="26" y="-233" font-family="Helvetica,sans-Serif" font-size="10.00">ComPWA::Estimator::</text>
<text text-anchor="middle" x="75.5" y="-222" font-family="Helvetica,sans-Serif" font-size="10.00">Estimator&lt; double &gt;</text>
<polyline fill="none" stroke="black" points="18,-215 133,-215 "/>
<text text-anchor="middle" x="75.5" y="-203" font-family="Helvetica,sans-Serif" font-size="10.00"> </text>
<polyline fill="none" stroke="black" points="18,-196 133,-196 "/>
<text text-anchor="middle" x="75.5" y="-184" font-family="Helvetica,sans-Serif" font-size="10.00"> </text>
</a>
</g>
</g>
<!-- Node2&#45;&gt;Node1 -->
<g id="edge1" class="edge"><title>Node2&#45;&gt;Node1</title>
<path fill="none" stroke="midnightblue" d="M111.902,-169.209C130.322,-148.569 152.831,-123.345 172.244,-101.592"/>
<polygon fill="none" stroke="midnightblue" points="109.105,-167.087 105.058,-176.878 114.328,-171.747 109.105,-167.087"/>
</g>
<!-- Node3 -->
<g id="node3" class="node"><title>Node3</title>
<g id="a_node3"><a xlink:href="classComPWA_1_1Function.html" target="_top" xlink:title="{ComPWA::Function\&lt; double \&gt;\n||+ ~Function()\l+ evaluate()\l+ updateParametersFrom()\l+ getParameters()\l}">
<polygon fill="white" stroke="black" points="0,-299.5 0,-389.5 151,-389.5 151,-299.5 0,-299.5"/>
<text text-anchor="middle" x="75.5" y="-377.5" font-family="Helvetica,sans-Serif" font-size="10.00">ComPWA::Function&lt; double &gt;</text>
<polyline fill="none" stroke="black" points="0,-370.5 151,-370.5 "/>
<text text-anchor="middle" x="75.5" y="-358.5" font-family="Helvetica,sans-Serif" font-size="10.00"> </text>
<polyline fill="none" stroke="black" points="0,-351.5 151,-351.5 "/>
<text text-anchor="start" x="8" y="-339.5" font-family="Helvetica,sans-Serif" font-size="10.00">+ ~Function()</text>
<text text-anchor="start" x="8" y="-328.5" font-family="Helvetica,sans-Serif" font-size="10.00">+ evaluate()</text>
<text text-anchor="start" x="8" y="-317.5" font-family="Helvetica,sans-Serif" font-size="10.00">+ updateParametersFrom()</text>
<text text-anchor="start" x="8" y="-306.5" font-family="Helvetica,sans-Serif" font-size="10.00">+ getParameters()</text>
</a>
</g>
</g>
<!-- Node3&#45;&gt;Node2 -->
<g id="edge2" class="edge"><title>Node3&#45;&gt;Node2</title>
<path fill="none" stroke="midnightblue" d="M75.5,-289.148C75.5,-274.172 75.5,-258.381 75.5,-245.015"/>
<polygon fill="none" stroke="midnightblue" points="72.0001,-289.347 75.5,-299.347 79.0001,-289.347 72.0001,-289.347"/>
</g>
<!-- Node4 -->
<g id="node4" class="node"><title>Node4</title>
<g id="a_node4"><a xlink:href="structComPWA_1_1Data_1_1DataSet.html" target="_top" xlink:title="{ComPWA::Data::DataSet\n|+ Data\l+ Weights\l|}">
<polygon fill="white" stroke="black" points="151.5,-177 151.5,-245 281.5,-245 281.5,-177 151.5,-177"/>
<text text-anchor="middle" x="216.5" y="-233" font-family="Helvetica,sans-Serif" font-size="10.00">ComPWA::Data::DataSet</text>
<polyline fill="none" stroke="black" points="151.5,-226 281.5,-226 "/>
<text text-anchor="start" x="159.5" y="-214" font-family="Helvetica,sans-Serif" font-size="10.00">+ Data</text>
<text text-anchor="start" x="159.5" y="-203" font-family="Helvetica,sans-Serif" font-size="10.00">+ Weights</text>
<polyline fill="none" stroke="black" points="151.5,-196 281.5,-196 "/>
<text text-anchor="middle" x="216.5" y="-184" font-family="Helvetica,sans-Serif" font-size="10.00"> </text>
</a>
</g>
</g>
<!-- Node4&#45;&gt;Node1 -->
<g id="edge3" class="edge"><title>Node4&#45;&gt;Node1</title>
<path fill="none" stroke="#404040" d="M216.5,-176.878C216.5,-158.563 216.5,-135.213 216.5,-113.671"/>
<polygon fill="none" stroke="#404040" points="216.5,-113.592 212.5,-107.592 216.5,-101.592 220.5,-107.592 216.5,-113.592"/>
<text text-anchor="middle" x="258" y="-134" font-family="Helvetica,sans-Serif" font-size="10.00"> &#45;PhspDataSample</text>
<text text-anchor="middle" x="258" y="-123" font-family="Helvetica,sans-Serif" font-size="10.00">&#45;DataSample</text>
</g>
<!-- Node5 -->
<g id="node5" class="node"><title>Node5</title>
<g id="a_node5"><a xlink:href="classComPWA_1_1Function.html" target="_top" xlink:title="Interface template for a general Function of the form OutputType Function(InputTypes) The concept clo...">
<polygon fill="white" stroke="black" points="300,-160.5 300,-261.5 443,-261.5 443,-160.5 300,-160.5"/>
<text text-anchor="start" x="308" y="-249.5" font-family="Helvetica,sans-Serif" font-size="10.00">ComPWA::Function&lt; Output</text>
<text text-anchor="middle" x="371.5" y="-238.5" font-family="Helvetica,sans-Serif" font-size="10.00">Type, InputTypes &gt;</text>
<polyline fill="none" stroke="black" points="300,-231.5 443,-231.5 "/>
<text text-anchor="middle" x="371.5" y="-219.5" font-family="Helvetica,sans-Serif" font-size="10.00"> </text>
<polyline fill="none" stroke="black" points="300,-212.5 443,-212.5 "/>
<text text-anchor="start" x="308" y="-200.5" font-family="Helvetica,sans-Serif" font-size="10.00">+ ~Function()</text>
<text text-anchor="start" x="308" y="-189.5" font-family="Helvetica,sans-Serif" font-size="10.00">+ evaluate()</text>
<text text-anchor="start" x="308" y="-178.5" font-family="Helvetica,sans-Serif" font-size="10.00">+ updateParametersFrom()</text>
<text text-anchor="start" x="308" y="-167.5" font-family="Helvetica,sans-Serif" font-size="10.00">+ getParameters()</text>
</a>
</g>
</g>
<!-- Node5&#45;&gt;Node1 -->
<g id="edge4" class="edge"><title>Node5&#45;&gt;Node1</title>
<path fill="none" stroke="#404040" d="M337.696,-160.465C327.398,-146.759 315.586,-132.285 303.5,-120 300.021,-116.464 296.357,-112.948 292.58,-109.484"/>
<polygon fill="none" stroke="#404040" points="292.573,-109.477 285.43,-108.486 283.598,-101.512 290.741,-102.503 292.573,-109.477"/>
<text text-anchor="middle" x="344.5" y="-128.5" font-family="Helvetica,sans-Serif" font-size="10.00"> &#45;Intensity</text>
</g>
</g>
</svg>
