<?xml version="1.0" encoding="UTF-8" standalone="no"?>
<!DOCTYPE svg PUBLIC "-//W3C//DTD SVG 1.1//EN"
 "http://www.w3.org/Graphics/SVG/1.1/DTD/svg11.dtd">
<!-- Generated by graphviz version 2.38.0 (20140413.2041)
 -->
<!-- Title: ComPWA::Data::Root::RootUniformRealGenerator Pages: 1 -->
<svg width="178pt" height="259pt"
 viewBox="0.00 0.00 178.00 259.00" xmlns="http://www.w3.org/2000/svg" xmlns:xlink="http://www.w3.org/1999/xlink">
<g id="graph0" class="graph" transform="scale(1 1) rotate(0) translate(4 255)">
<title>ComPWA::Data::Root::RootUniformRealGenerator</title>
<polygon fill="white" stroke="none" points="-4,4 -4,-255 174,-255 174,4 -4,4"/>
<!-- Node1 -->
<g id="node1" class="node"><title>Node1</title>
<polygon fill="#bfbfbf" stroke="black" points="10,-0.5 10,-112.5 160,-112.5 160,-0.5 10,-0.5"/>
<text text-anchor="start" x="18" y="-100.5" font-family="Helvetica,sans-Serif" font-size="10.00">ComPWA::Data::Root</text>
<text text-anchor="middle" x="85" y="-89.5" font-family="Helvetica,sans-Serif" font-size="10.00">::RootUniformRealGenerator</text>
<polyline fill="none" stroke="black" points="10,-82.5 160,-82.5 "/>
<text text-anchor="start" x="18" y="-70.5" font-family="Helvetica,sans-Serif" font-size="10.00">&#45; RandomGenerator</text>
<text text-anchor="start" x="18" y="-59.5" font-family="Helvetica,sans-Serif" font-size="10.00">&#45; Seed</text>
<polyline fill="none" stroke="black" points="10,-52.5 160,-52.5 "/>
<text text-anchor="start" x="18" y="-40.5" font-family="Helvetica,sans-Serif" font-size="10.00">+ RootUniformRealGenerator()</text>
<text text-anchor="start" x="18" y="-29.5" font-family="Helvetica,sans-Serif" font-size="10.00">+ operator()()</text>
<text text-anchor="start" x="18" y="-18.5" font-family="Helvetica,sans-Serif" font-size="10.00">+ getSeed()</text>
<text text-anchor="start" x="18" y="-7.5" font-family="Helvetica,sans-Serif" font-size="10.00">+ setSeed()</text>
</g>
<!-- Node2 -->
<g id="node2" class="node"><title>Node2</title>
<g id="a_node2"><a xlink:href="classComPWA_1_1UniformRealNumberGenerator.html" target="_top" xlink:title="{ComPWA::UniformRealNumber\lGenerator\n||+ ~UniformRealNumberGenerator()\l+ operator()()\l+ getSeed()\l+ setSeed()\l}">
<polygon fill="white" stroke="black" points="0,-149.5 0,-250.5 170,-250.5 170,-149.5 0,-149.5"/>
<text text-anchor="start" x="8" y="-238.5" font-family="Helvetica,sans-Serif" font-size="10.00">ComPWA::UniformRealNumber</text>
<text text-anchor="middle" x="85" y="-227.5" font-family="Helvetica,sans-Serif" font-size="10.00">Generator</text>
<polyline fill="none" stroke="black" points="0,-220.5 170,-220.5 "/>
<text text-anchor="middle" x="85" y="-208.5" font-family="Helvetica,sans-Serif" font-size="10.00"> </text>
<polyline fill="none" stroke="black" points="0,-201.5 170,-201.5 "/>
<text text-anchor="start" x="8" y="-189.5" font-family="Helvetica,sans-Serif" font-size="10.00">+ ~UniformRealNumberGenerator()</text>
<text text-anchor="start" x="8" y="-178.5" font-family="Helvetica,sans-Serif" font-size="10.00">+ operator()()</text>
<text text-anchor="start" x="8" y="-167.5" font-family="Helvetica,sans-Serif" font-size="10.00">+ getSeed()</text>
<text text-anchor="start" x="8" y="-156.5" font-family="Helvetica,sans-Serif" font-size="10.00">+ setSeed()</text>
</a>
</g>
</g>
<!-- Node2&#45;&gt;Node1 -->
<g id="edge1" class="edge"><title>Node2&#45;&gt;Node1</title>
<path fill="none" stroke="midnightblue" d="M85,-139.008C85,-130.286 85,-121.34 85,-112.717"/>
<polygon fill="none" stroke="midnightblue" points="81.5001,-139.112 85,-149.112 88.5001,-139.112 81.5001,-139.112"/>
</g>
</g>
</svg>
