<?xml version="1.0" encoding="UTF-8" standalone="no"?>
<!DOCTYPE svg PUBLIC "-//W3C//DTD SVG 1.1//EN"
 "http://www.w3.org/Graphics/SVG/1.1/DTD/svg11.dtd">
<!-- Generated by graphviz version 2.38.0 (20140413.2041)
 -->
<!-- Title: ComPWA::Estimator::ChiOneD::ChiOneD Pages: 1 -->
<svg width="159pt" height="331pt"
 viewBox="0.00 0.00 159.00 331.00" xmlns="http://www.w3.org/2000/svg" xmlns:xlink="http://www.w3.org/1999/xlink">
<g id="graph0" class="graph" transform="scale(1 1) rotate(0) translate(4 327)">
<title>ComPWA::Estimator::ChiOneD::ChiOneD</title>
<polygon fill="white" stroke="none" points="-4,4 -4,-327 155,-327 155,4 -4,4"/>
<!-- Node1 -->
<g id="node1" class="node"><title>Node1</title>
<polygon fill="#bfbfbf" stroke="black" points="18,-0.5 18,-90.5 133,-90.5 133,-0.5 18,-0.5"/>
<text text-anchor="start" x="26" y="-78.5" font-family="Helvetica,sans-Serif" font-size="10.00">ComPWA::Estimator::</text>
<text text-anchor="middle" x="75.5" y="-67.5" font-family="Helvetica,sans-Serif" font-size="10.00">ChiOneD::ChiOneD</text>
<polyline fill="none" stroke="black" points="18,-60.5 133,-60.5 "/>
<text text-anchor="start" x="26" y="-48.5" font-family="Helvetica,sans-Serif" font-size="10.00">&#45; Intensity</text>
<text text-anchor="start" x="26" y="-37.5" font-family="Helvetica,sans-Serif" font-size="10.00">&#45; DataSample</text>
<polyline fill="none" stroke="black" points="18,-30.5 133,-30.5 "/>
<text text-anchor="start" x="26" y="-18.5" font-family="Helvetica,sans-Serif" font-size="10.00">+ ChiOneD()</text>
<text text-anchor="start" x="26" y="-7.5" font-family="Helvetica,sans-Serif" font-size="10.00">+ evaluate()</text>
</g>
<!-- Node2 -->
<g id="node2" class="node"><title>Node2</title>
<g id="a_node2"><a xlink:href="classComPWA_1_1Estimator_1_1Estimator.html" target="_top" xlink:title="{ComPWA::Estimator::\lEstimator\&lt; double \&gt;\n||}">
<polygon fill="white" stroke="black" points="18,-127.5 18,-195.5 133,-195.5 133,-127.5 18,-127.5"/>
<text text-anchor="start" x="26" y="-183.5" font-family="Helvetica,sans-Serif" font-size="10.00">ComPWA::Estimator::</text>
<text text-anchor="middle" x="75.5" y="-172.5" font-family="Helvetica,sans-Serif" font-size="10.00">Estimator&lt; double &gt;</text>
<polyline fill="none" stroke="black" points="18,-165.5 133,-165.5 "/>
<text text-anchor="middle" x="75.5" y="-153.5" font-family="Helvetica,sans-Serif" font-size="10.00"> </text>
<polyline fill="none" stroke="black" points="18,-146.5 133,-146.5 "/>
<text text-anchor="middle" x="75.5" y="-134.5" font-family="Helvetica,sans-Serif" font-size="10.00"> </text>
</a>
</g>
</g>
<!-- Node2&#45;&gt;Node1 -->
<g id="edge1" class="edge"><title>Node2&#45;&gt;Node1</title>
<path fill="none" stroke="midnightblue" d="M75.5,-116.972C75.5,-108.346 75.5,-99.2838 75.5,-90.6378"/>
<polygon fill="none" stroke="midnightblue" points="72.0001,-117.22 75.5,-127.22 79.0001,-117.22 72.0001,-117.22"/>
</g>
<!-- Node3 -->
<g id="node3" class="node"><title>Node3</title>
<g id="a_node3"><a xlink:href="classComPWA_1_1Function.html" target="_top" xlink:title="{ComPWA::Function\&lt; double \&gt;\n||+ ~Function()\l+ evaluate()\l+ updateParametersFrom()\l+ getParameters()\l}">
<polygon fill="white" stroke="black" points="0,-232.5 0,-322.5 151,-322.5 151,-232.5 0,-232.5"/>
<text text-anchor="middle" x="75.5" y="-310.5" font-family="Helvetica,sans-Serif" font-size="10.00">ComPWA::Function&lt; double &gt;</text>
<polyline fill="none" stroke="black" points="0,-303.5 151,-303.5 "/>
<text text-anchor="middle" x="75.5" y="-291.5" font-family="Helvetica,sans-Serif" font-size="10.00"> </text>
<polyline fill="none" stroke="black" points="0,-284.5 151,-284.5 "/>
<text text-anchor="start" x="8" y="-272.5" font-family="Helvetica,sans-Serif" font-size="10.00">+ ~Function()</text>
<text text-anchor="start" x="8" y="-261.5" font-family="Helvetica,sans-Serif" font-size="10.00">+ evaluate()</text>
<text text-anchor="start" x="8" y="-250.5" font-family="Helvetica,sans-Serif" font-size="10.00">+ updateParametersFrom()</text>
<text text-anchor="start" x="8" y="-239.5" font-family="Helvetica,sans-Serif" font-size="10.00">+ getParameters()</text>
</a>
</g>
</g>
<!-- Node3&#45;&gt;Node2 -->
<g id="edge2" class="edge"><title>Node3&#45;&gt;Node2</title>
<path fill="none" stroke="midnightblue" d="M75.5,-222.316C75.5,-213.285 75.5,-204.159 75.5,-195.848"/>
<polygon fill="none" stroke="midnightblue" points="72.0001,-222.425 75.5,-232.425 79.0001,-222.425 72.0001,-222.425"/>
</g>
</g>
</svg>
