<?xml version="1.0" encoding="UTF-8" standalone="no"?>
<!DOCTYPE svg PUBLIC "-//W3C//DTD SVG 1.1//EN"
 "http://www.w3.org/Graphics/SVG/1.1/DTD/svg11.dtd">
<!-- Generated by graphviz version 2.38.0 (20140413.2041)
 -->
<!-- Title: ComPWA::UniformRealNumberGenerator Pages: 1 -->
<svg width="356pt" height="259pt"
 viewBox="0.00 0.00 355.50 259.00" xmlns="http://www.w3.org/2000/svg" xmlns:xlink="http://www.w3.org/1999/xlink">
<g id="graph0" class="graph" transform="scale(1 1) rotate(0) translate(4 255)">
<title>ComPWA::UniformRealNumberGenerator</title>
<polygon fill="white" stroke="none" points="-4,4 -4,-255 351.5,-255 351.5,4 -4,4"/>
<!-- Node1 -->
<g id="node1" class="node"><title>Node1</title>
<polygon fill="#bfbfbf" stroke="black" points="81,-149.5 81,-250.5 251,-250.5 251,-149.5 81,-149.5"/>
<text text-anchor="start" x="89" y="-238.5" font-family="Helvetica,sans-Serif" font-size="10.00">ComPWA::UniformRealNumber</text>
<text text-anchor="middle" x="166" y="-227.5" font-family="Helvetica,sans-Serif" font-size="10.00">Generator</text>
<polyline fill="none" stroke="black" points="81,-220.5 251,-220.5 "/>
<text text-anchor="middle" x="166" y="-208.5" font-family="Helvetica,sans-Serif" font-size="10.00"> </text>
<polyline fill="none" stroke="black" points="81,-201.5 251,-201.5 "/>
<text text-anchor="start" x="89" y="-189.5" font-family="Helvetica,sans-Serif" font-size="10.00">+ ~UniformRealNumberGenerator()</text>
<text text-anchor="start" x="89" y="-178.5" font-family="Helvetica,sans-Serif" font-size="10.00">+ operator()()</text>
<text text-anchor="start" x="89" y="-167.5" font-family="Helvetica,sans-Serif" font-size="10.00">+ getSeed()</text>
<text text-anchor="start" x="89" y="-156.5" font-family="Helvetica,sans-Serif" font-size="10.00">+ setSeed()</text>
</g>
<!-- Node2 -->
<g id="node2" class="node"><title>Node2</title>
<g id="a_node2"><a xlink:href="classComPWA_1_1Data_1_1Root_1_1RootUniformRealGenerator.html" target="_top" xlink:title="{ComPWA::Data::Root\l::RootUniformRealGenerator\n|&#45; RandomGenerator\l&#45; Seed\l|+ RootUniformRealGenerator()\l+ operator()()\l+ getSeed()\l+ setSeed()\l}">
<polygon fill="white" stroke="black" points="0,-0.5 0,-112.5 150,-112.5 150,-0.5 0,-0.5"/>
<text text-anchor="start" x="8" y="-100.5" font-family="Helvetica,sans-Serif" font-size="10.00">ComPWA::Data::Root</text>
<text text-anchor="middle" x="75" y="-89.5" font-family="Helvetica,sans-Serif" font-size="10.00">::RootUniformRealGenerator</text>
<polyline fill="none" stroke="black" points="0,-82.5 150,-82.5 "/>
<text text-anchor="start" x="8" y="-70.5" font-family="Helvetica,sans-Serif" font-size="10.00">&#45; RandomGenerator</text>
<text text-anchor="start" x="8" y="-59.5" font-family="Helvetica,sans-Serif" font-size="10.00">&#45; Seed</text>
<polyline fill="none" stroke="black" points="0,-52.5 150,-52.5 "/>
<text text-anchor="start" x="8" y="-40.5" font-family="Helvetica,sans-Serif" font-size="10.00">+ RootUniformRealGenerator()</text>
<text text-anchor="start" x="8" y="-29.5" font-family="Helvetica,sans-Serif" font-size="10.00">+ operator()()</text>
<text text-anchor="start" x="8" y="-18.5" font-family="Helvetica,sans-Serif" font-size="10.00">+ getSeed()</text>
<text text-anchor="start" x="8" y="-7.5" font-family="Helvetica,sans-Serif" font-size="10.00">+ setSeed()</text>
</a>
</g>
</g>
<!-- Node1&#45;&gt;Node2 -->
<g id="edge1" class="edge"><title>Node1&#45;&gt;Node2</title>
<path fill="none" stroke="midnightblue" d="M128.332,-140.428C122.435,-131.259 116.357,-121.808 110.511,-112.717"/>
<polygon fill="none" stroke="midnightblue" points="125.564,-142.595 133.917,-149.112 131.451,-138.808 125.564,-142.595"/>
</g>
<!-- Node3 -->
<g id="node3" class="node"><title>Node3</title>
<g id="a_node3"><a xlink:href="classComPWA_1_1StdUniformRealGenerator.html" target="_top" xlink:title="{ComPWA::StdUniformRealGenerator\n|&#45; MersenneTwisterRandomGenerator\l&#45; UniformDistribution\l&#45; Seed\l|+ StdUniformRealGenerator()\l+ operator()()\l+ getSeed()\l+ setSeed()\l}">
<polygon fill="white" stroke="black" points="168.5,-0.5 168.5,-112.5 347.5,-112.5 347.5,-0.5 168.5,-0.5"/>
<text text-anchor="middle" x="258" y="-100.5" font-family="Helvetica,sans-Serif" font-size="10.00">ComPWA::StdUniformRealGenerator</text>
<polyline fill="none" stroke="black" points="168.5,-93.5 347.5,-93.5 "/>
<text text-anchor="start" x="176.5" y="-81.5" font-family="Helvetica,sans-Serif" font-size="10.00">&#45; MersenneTwisterRandomGenerator</text>
<text text-anchor="start" x="176.5" y="-70.5" font-family="Helvetica,sans-Serif" font-size="10.00">&#45; UniformDistribution</text>
<text text-anchor="start" x="176.5" y="-59.5" font-family="Helvetica,sans-Serif" font-size="10.00">&#45; Seed</text>
<polyline fill="none" stroke="black" points="168.5,-52.5 347.5,-52.5 "/>
<text text-anchor="start" x="176.5" y="-40.5" font-family="Helvetica,sans-Serif" font-size="10.00">+ StdUniformRealGenerator()</text>
<text text-anchor="start" x="176.5" y="-29.5" font-family="Helvetica,sans-Serif" font-size="10.00">+ operator()()</text>
<text text-anchor="start" x="176.5" y="-18.5" font-family="Helvetica,sans-Serif" font-size="10.00">+ getSeed()</text>
<text text-anchor="start" x="176.5" y="-7.5" font-family="Helvetica,sans-Serif" font-size="10.00">+ setSeed()</text>
</a>
</g>
</g>
<!-- Node1&#45;&gt;Node3 -->
<g id="edge2" class="edge"><title>Node1&#45;&gt;Node3</title>
<path fill="none" stroke="midnightblue" d="M203.898,-140.712C209.917,-131.454 216.127,-121.902 222.099,-112.717"/>
<polygon fill="none" stroke="midnightblue" points="200.952,-138.821 198.436,-149.112 206.821,-142.636 200.952,-138.821"/>
</g>
</g>
</svg>
