<?xml version="1.0" encoding="UTF-8" standalone="no"?>
<!DOCTYPE svg PUBLIC "-//W3C//DTD SVG 1.1//EN"
 "http://www.w3.org/Graphics/SVG/1.1/DTD/svg11.dtd">
<!-- Generated by graphviz version 2.38.0 (20140413.2041)
 -->
<!-- Title: ComPWA::Estimator::MinLogLH Pages: 1 -->
<svg width="159pt" height="364pt"
 viewBox="0.00 0.00 159.00 364.00" xmlns="http://www.w3.org/2000/svg" xmlns:xlink="http://www.w3.org/1999/xlink">
<g id="graph0" class="graph" transform="scale(1 1) rotate(0) translate(4 360)">
<title>ComPWA::Estimator::MinLogLH</title>
<polygon fill="white" stroke="none" points="-4,4 -4,-360 155,-360 155,4 -4,4"/>
<!-- Node1 -->
<g id="node1" class="node"><title>Node1</title>
<polygon fill="#bfbfbf" stroke="black" points="8.5,-0.5 8.5,-123.5 142.5,-123.5 142.5,-0.5 8.5,-0.5"/>
<text text-anchor="start" x="16.5" y="-111.5" font-family="Helvetica,sans-Serif" font-size="10.00">ComPWA::Estimator::</text>
<text text-anchor="middle" x="75.5" y="-100.5" font-family="Helvetica,sans-Serif" font-size="10.00">MinLogLH</text>
<polyline fill="none" stroke="black" points="8.5,-93.5 142.5,-93.5 "/>
<text text-anchor="start" x="16.5" y="-81.5" font-family="Helvetica,sans-Serif" font-size="10.00">&#45; Intensity</text>
<text text-anchor="start" x="16.5" y="-70.5" font-family="Helvetica,sans-Serif" font-size="10.00">&#45; DataSample</text>
<text text-anchor="start" x="16.5" y="-59.5" font-family="Helvetica,sans-Serif" font-size="10.00">&#45; PhspDataSample</text>
<polyline fill="none" stroke="black" points="8.5,-52.5 142.5,-52.5 "/>
<text text-anchor="start" x="16.5" y="-40.5" font-family="Helvetica,sans-Serif" font-size="10.00">+ MinLogLH()</text>
<text text-anchor="start" x="16.5" y="-29.5" font-family="Helvetica,sans-Serif" font-size="10.00">+ evaluate()</text>
<text text-anchor="start" x="16.5" y="-18.5" font-family="Helvetica,sans-Serif" font-size="10.00">+ updateParametersFrom()</text>
<text text-anchor="start" x="16.5" y="-7.5" font-family="Helvetica,sans-Serif" font-size="10.00">+ getParameters()</text>
</g>
<!-- Node2 -->
<g id="node2" class="node"><title>Node2</title>
<g id="a_node2"><a xlink:href="classComPWA_1_1Estimator_1_1Estimator.html" target="_top" xlink:title="{ComPWA::Estimator::\lEstimator\&lt; double \&gt;\n||}">
<polygon fill="white" stroke="black" points="18,-160.5 18,-228.5 133,-228.5 133,-160.5 18,-160.5"/>
<text text-anchor="start" x="26" y="-216.5" font-family="Helvetica,sans-Serif" font-size="10.00">ComPWA::Estimator::</text>
<text text-anchor="middle" x="75.5" y="-205.5" font-family="Helvetica,sans-Serif" font-size="10.00">Estimator&lt; double &gt;</text>
<polyline fill="none" stroke="black" points="18,-198.5 133,-198.5 "/>
<text text-anchor="middle" x="75.5" y="-186.5" font-family="Helvetica,sans-Serif" font-size="10.00"> </text>
<polyline fill="none" stroke="black" points="18,-179.5 133,-179.5 "/>
<text text-anchor="middle" x="75.5" y="-167.5" font-family="Helvetica,sans-Serif" font-size="10.00"> </text>
</a>
</g>
</g>
<!-- Node2&#45;&gt;Node1 -->
<g id="edge1" class="edge"><title>Node2&#45;&gt;Node1</title>
<path fill="none" stroke="midnightblue" d="M75.5,-150.169C75.5,-141.652 75.5,-132.572 75.5,-123.609"/>
<polygon fill="none" stroke="midnightblue" points="72.0001,-150.232 75.5,-160.232 79.0001,-150.232 72.0001,-150.232"/>
</g>
<!-- Node3 -->
<g id="node3" class="node"><title>Node3</title>
<g id="a_node3"><a xlink:href="classComPWA_1_1Function.html" target="_top" xlink:title="{ComPWA::Function\&lt; double \&gt;\n||+ ~Function()\l+ evaluate()\l+ updateParametersFrom()\l+ getParameters()\l}">
<polygon fill="white" stroke="black" points="0,-265.5 0,-355.5 151,-355.5 151,-265.5 0,-265.5"/>
<text text-anchor="middle" x="75.5" y="-343.5" font-family="Helvetica,sans-Serif" font-size="10.00">ComPWA::Function&lt; double &gt;</text>
<polyline fill="none" stroke="black" points="0,-336.5 151,-336.5 "/>
<text text-anchor="middle" x="75.5" y="-324.5" font-family="Helvetica,sans-Serif" font-size="10.00"> </text>
<polyline fill="none" stroke="black" points="0,-317.5 151,-317.5 "/>
<text text-anchor="start" x="8" y="-305.5" font-family="Helvetica,sans-Serif" font-size="10.00">+ ~Function()</text>
<text text-anchor="start" x="8" y="-294.5" font-family="Helvetica,sans-Serif" font-size="10.00">+ evaluate()</text>
<text text-anchor="start" x="8" y="-283.5" font-family="Helvetica,sans-Serif" font-size="10.00">+ updateParametersFrom()</text>
<text text-anchor="start" x="8" y="-272.5" font-family="Helvetica,sans-Serif" font-size="10.00">+ getParameters()</text>
</a>
</g>
</g>
<!-- Node3&#45;&gt;Node2 -->
<g id="edge2" class="edge"><title>Node3&#45;&gt;Node2</title>
<path fill="none" stroke="midnightblue" d="M75.5,-255.316C75.5,-246.285 75.5,-237.159 75.5,-228.848"/>
<polygon fill="none" stroke="midnightblue" points="72.0001,-255.425 75.5,-265.425 79.0001,-255.425 72.0001,-255.425"/>
</g>
</g>
</svg>
