<?xml version="1.0" encoding="UTF-8" standalone="no"?>
<!DOCTYPE svg PUBLIC "-//W3C//DTD SVG 1.1//EN"
 "http://www.w3.org/Graphics/SVG/1.1/DTD/svg11.dtd">
<!-- Generated by graphviz version 2.38.0 (20140413.2041)
 -->
<!-- Title: ComPWA::Data::Root::RootEfficiency Pages: 1 -->
<svg width="123pt" height="226pt"
 viewBox="0.00 0.00 123.00 226.00" xmlns="http://www.w3.org/2000/svg" xmlns:xlink="http://www.w3.org/1999/xlink">
<g id="graph0" class="graph" transform="scale(1 1) rotate(0) translate(4 222)">
<title>ComPWA::Data::Root::RootEfficiency</title>
<polygon fill="white" stroke="none" points="-4,4 -4,-222 119,-222 119,4 -4,4"/>
<!-- Node1 -->
<g id="node1" class="node"><title>Node1</title>
<polygon fill="#bfbfbf" stroke="black" points="-7.10543e-15,-0.5 -7.10543e-15,-101.5 115,-101.5 115,-0.5 -7.10543e-15,-0.5"/>
<text text-anchor="start" x="8" y="-89.5" font-family="Helvetica,sans-Serif" font-size="10.00">ComPWA::Data::Root</text>
<text text-anchor="middle" x="57.5" y="-78.5" font-family="Helvetica,sans-Serif" font-size="10.00">::RootEfficiency</text>
<polyline fill="none" stroke="black" points="-7.10543e-15,-71.5 115,-71.5 "/>
<text text-anchor="start" x="8" y="-59.5" font-family="Helvetica,sans-Serif" font-size="10.00"># effHist</text>
<polyline fill="none" stroke="black" points="-7.10543e-15,-52.5 115,-52.5 "/>
<text text-anchor="start" x="8" y="-40.5" font-family="Helvetica,sans-Serif" font-size="10.00">+ RootEfficiency()</text>
<text text-anchor="start" x="8" y="-29.5" font-family="Helvetica,sans-Serif" font-size="10.00">+ RootEfficiency()</text>
<text text-anchor="start" x="8" y="-18.5" font-family="Helvetica,sans-Serif" font-size="10.00">+ ~RootEfficiency()</text>
<text text-anchor="start" x="8" y="-7.5" font-family="Helvetica,sans-Serif" font-size="10.00">+ evaluate()</text>
</g>
<!-- Node2 -->
<g id="node2" class="node"><title>Node2</title>
<g id="a_node2"><a xlink:href="classComPWA_1_1Efficiency.html" target="_top" xlink:title="Base class for efficiency description over the phase space. ">
<polygon fill="white" stroke="black" points="2.5,-138.5 2.5,-217.5 112.5,-217.5 112.5,-138.5 2.5,-138.5"/>
<text text-anchor="middle" x="57.5" y="-205.5" font-family="Helvetica,sans-Serif" font-size="10.00">ComPWA::Efficiency</text>
<polyline fill="none" stroke="black" points="2.5,-198.5 112.5,-198.5 "/>
<text text-anchor="middle" x="57.5" y="-186.5" font-family="Helvetica,sans-Serif" font-size="10.00"> </text>
<polyline fill="none" stroke="black" points="2.5,-179.5 112.5,-179.5 "/>
<text text-anchor="start" x="10.5" y="-167.5" font-family="Helvetica,sans-Serif" font-size="10.00">+ Efficiency()</text>
<text text-anchor="start" x="10.5" y="-156.5" font-family="Helvetica,sans-Serif" font-size="10.00">+ ~Efficiency()</text>
<text text-anchor="start" x="10.5" y="-145.5" font-family="Helvetica,sans-Serif" font-size="10.00">+ evaluate()</text>
</a>
</g>
</g>
<!-- Node2&#45;&gt;Node1 -->
<g id="edge1" class="edge"><title>Node2&#45;&gt;Node1</title>
<path fill="none" stroke="midnightblue" d="M57.5,-128.406C57.5,-119.639 57.5,-110.488 57.5,-101.691"/>
<polygon fill="none" stroke="midnightblue" points="54.0001,-128.476 57.5,-138.476 61.0001,-128.476 54.0001,-128.476"/>
</g>
</g>
</svg>
