<?xml version="1.0" encoding="UTF-8" standalone="no"?>
<!DOCTYPE svg PUBLIC "-//W3C//DTD SVG 1.1//EN"
 "http://www.w3.org/Graphics/SVG/1.1/DTD/svg11.dtd">
<!-- Generated by graphviz version 2.38.0 (20140413.2041)
 -->
<!-- Title: ComPWA::CorruptFile Pages: 1 -->
<svg width="123pt" height="331pt"
 viewBox="0.00 0.00 123.00 331.00" xmlns="http://www.w3.org/2000/svg" xmlns:xlink="http://www.w3.org/1999/xlink">
<g id="graph0" class="graph" transform="scale(1 1) rotate(0) translate(4 327)">
<title>ComPWA::CorruptFile</title>
<polygon fill="white" stroke="none" points="-4,4 -4,-327 119,-327 119,4 -4,4"/>
<!-- Node1 -->
<g id="node1" class="node"><title>Node1</title>
<polygon fill="#bfbfbf" stroke="black" points="-7.10543e-15,-0.5 -7.10543e-15,-79.5 115,-79.5 115,-0.5 -7.10543e-15,-0.5"/>
<text text-anchor="middle" x="57.5" y="-67.5" font-family="Helvetica,sans-Serif" font-size="10.00">ComPWA::CorruptFile</text>
<polyline fill="none" stroke="black" points="-7.10543e-15,-60.5 115,-60.5 "/>
<text text-anchor="middle" x="57.5" y="-48.5" font-family="Helvetica,sans-Serif" font-size="10.00"> </text>
<polyline fill="none" stroke="black" points="-7.10543e-15,-41.5 115,-41.5 "/>
<text text-anchor="start" x="8" y="-29.5" font-family="Helvetica,sans-Serif" font-size="10.00">+ CorruptFile()</text>
<text text-anchor="start" x="8" y="-18.5" font-family="Helvetica,sans-Serif" font-size="10.00">+ CorruptFile()</text>
<text text-anchor="start" x="8" y="-7.5" font-family="Helvetica,sans-Serif" font-size="10.00">+ ~CorruptFile()</text>
</g>
<!-- Node2 -->
<g id="node2" class="node"><title>Node2</title>
<g id="a_node2"><a xlink:href="classComPWA_1_1Exception.html" target="_top" xlink:title="ComPWA Exceptions base class. ">
<polygon fill="white" stroke="black" points="2.5,-116.5 2.5,-228.5 112.5,-228.5 112.5,-116.5 2.5,-116.5"/>
<text text-anchor="middle" x="57.5" y="-216.5" font-family="Helvetica,sans-Serif" font-size="10.00">ComPWA::Exception</text>
<polyline fill="none" stroke="black" points="2.5,-209.5 112.5,-209.5 "/>
<text text-anchor="start" x="10.5" y="-197.5" font-family="Helvetica,sans-Serif" font-size="10.00"># what_</text>
<polyline fill="none" stroke="black" points="2.5,-190.5 112.5,-190.5 "/>
<text text-anchor="start" x="10.5" y="-178.5" font-family="Helvetica,sans-Serif" font-size="10.00">+ Exception()</text>
<text text-anchor="start" x="10.5" y="-167.5" font-family="Helvetica,sans-Serif" font-size="10.00">+ operator=()</text>
<text text-anchor="start" x="10.5" y="-156.5" font-family="Helvetica,sans-Serif" font-size="10.00">+ ~Exception()</text>
<text text-anchor="start" x="10.5" y="-145.5" font-family="Helvetica,sans-Serif" font-size="10.00">+ what()</text>
<text text-anchor="start" x="10.5" y="-134.5" font-family="Helvetica,sans-Serif" font-size="10.00"># Exception()</text>
<text text-anchor="start" x="10.5" y="-123.5" font-family="Helvetica,sans-Serif" font-size="10.00"># Exception()</text>
</a>
</g>
</g>
<!-- Node2&#45;&gt;Node1 -->
<g id="edge1" class="edge"><title>Node2&#45;&gt;Node1</title>
<path fill="none" stroke="midnightblue" d="M57.5,-106.056C57.5,-97.0806 57.5,-88.1097 57.5,-79.823"/>
<polygon fill="none" stroke="midnightblue" points="54.0001,-106.156 57.5,-116.156 61.0001,-106.156 54.0001,-106.156"/>
</g>
<!-- Node3 -->
<g id="node3" class="node"><title>Node3</title>
<polygon fill="white" stroke="#bfbfbf" points="18.5,-265.5 18.5,-322.5 96.5,-322.5 96.5,-265.5 18.5,-265.5"/>
<text text-anchor="middle" x="57.5" y="-310.5" font-family="Helvetica,sans-Serif" font-size="10.00">std::exception</text>
<polyline fill="none" stroke="#bfbfbf" points="18.5,-303.5 96.5,-303.5 "/>
<text text-anchor="middle" x="57.5" y="-291.5" font-family="Helvetica,sans-Serif" font-size="10.00"> </text>
<polyline fill="none" stroke="#bfbfbf" points="18.5,-284.5 96.5,-284.5 "/>
<text text-anchor="middle" x="57.5" y="-272.5" font-family="Helvetica,sans-Serif" font-size="10.00"> </text>
</g>
<!-- Node3&#45;&gt;Node2 -->
<g id="edge2" class="edge"><title>Node3&#45;&gt;Node2</title>
<path fill="none" stroke="midnightblue" d="M57.5,-255.108C57.5,-246.748 57.5,-237.725 57.5,-228.834"/>
<polygon fill="none" stroke="midnightblue" points="54.0001,-255.284 57.5,-265.284 61.0001,-255.284 54.0001,-255.284"/>
</g>
</g>
</svg>
