<?xml version="1.0" encoding="UTF-8" standalone="no"?>
<!DOCTYPE svg PUBLIC "-//W3C//DTD SVG 1.1//EN"
 "http://www.w3.org/Graphics/SVG/1.1/DTD/svg11.dtd">
<!-- Generated by graphviz version 2.38.0 (20140413.2041)
 -->
<!-- Title: ComPWA::BeyondPhsp Pages: 1 -->
<svg width="130pt" height="331pt"
 viewBox="0.00 0.00 130.00 331.00" xmlns="http://www.w3.org/2000/svg" xmlns:xlink="http://www.w3.org/1999/xlink">
<g id="graph0" class="graph" transform="scale(1 1) rotate(0) translate(4 327)">
<title>ComPWA::BeyondPhsp</title>
<polygon fill="white" stroke="none" points="-4,4 -4,-327 126,-327 126,4 -4,4"/>
<!-- Node1 -->
<g id="node1" class="node"><title>Node1</title>
<polygon fill="#bfbfbf" stroke="black" points="0,-0.5 0,-79.5 122,-79.5 122,-0.5 0,-0.5"/>
<text text-anchor="middle" x="61" y="-67.5" font-family="Helvetica,sans-Serif" font-size="10.00">ComPWA::BeyondPhsp</text>
<polyline fill="none" stroke="black" points="0,-60.5 122,-60.5 "/>
<text text-anchor="middle" x="61" y="-48.5" font-family="Helvetica,sans-Serif" font-size="10.00"> </text>
<polyline fill="none" stroke="black" points="0,-41.5 122,-41.5 "/>
<text text-anchor="start" x="8" y="-29.5" font-family="Helvetica,sans-Serif" font-size="10.00">+ BeyondPhsp()</text>
<text text-anchor="start" x="8" y="-18.5" font-family="Helvetica,sans-Serif" font-size="10.00">+ BeyondPhsp()</text>
<text text-anchor="start" x="8" y="-7.5" font-family="Helvetica,sans-Serif" font-size="10.00">+ ~BeyondPhsp()</text>
</g>
<!-- Node2 -->
<g id="node2" class="node"><title>Node2</title>
<g id="a_node2"><a xlink:href="classComPWA_1_1Exception.html" target="_top" xlink:title="ComPWA Exceptions base class. ">
<polygon fill="white" stroke="black" points="6,-116.5 6,-228.5 116,-228.5 116,-116.5 6,-116.5"/>
<text text-anchor="middle" x="61" y="-216.5" font-family="Helvetica,sans-Serif" font-size="10.00">ComPWA::Exception</text>
<polyline fill="none" stroke="black" points="6,-209.5 116,-209.5 "/>
<text text-anchor="start" x="14" y="-197.5" font-family="Helvetica,sans-Serif" font-size="10.00"># what_</text>
<polyline fill="none" stroke="black" points="6,-190.5 116,-190.5 "/>
<text text-anchor="start" x="14" y="-178.5" font-family="Helvetica,sans-Serif" font-size="10.00">+ Exception()</text>
<text text-anchor="start" x="14" y="-167.5" font-family="Helvetica,sans-Serif" font-size="10.00">+ operator=()</text>
<text text-anchor="start" x="14" y="-156.5" font-family="Helvetica,sans-Serif" font-size="10.00">+ ~Exception()</text>
<text text-anchor="start" x="14" y="-145.5" font-family="Helvetica,sans-Serif" font-size="10.00">+ what()</text>
<text text-anchor="start" x="14" y="-134.5" font-family="Helvetica,sans-Serif" font-size="10.00"># Exception()</text>
<text text-anchor="start" x="14" y="-123.5" font-family="Helvetica,sans-Serif" font-size="10.00"># Exception()</text>
</a>
</g>
</g>
<!-- Node2&#45;&gt;Node1 -->
<g id="edge1" class="edge"><title>Node2&#45;&gt;Node1</title>
<path fill="none" stroke="midnightblue" d="M61,-106.056C61,-97.0806 61,-88.1097 61,-79.823"/>
<polygon fill="none" stroke="midnightblue" points="57.5001,-106.156 61,-116.156 64.5001,-106.156 57.5001,-106.156"/>
</g>
<!-- Node3 -->
<g id="node3" class="node"><title>Node3</title>
<polygon fill="white" stroke="#bfbfbf" points="22,-265.5 22,-322.5 100,-322.5 100,-265.5 22,-265.5"/>
<text text-anchor="middle" x="61" y="-310.5" font-family="Helvetica,sans-Serif" font-size="10.00">std::exception</text>
<polyline fill="none" stroke="#bfbfbf" points="22,-303.5 100,-303.5 "/>
<text text-anchor="middle" x="61" y="-291.5" font-family="Helvetica,sans-Serif" font-size="10.00"> </text>
<polyline fill="none" stroke="#bfbfbf" points="22,-284.5 100,-284.5 "/>
<text text-anchor="middle" x="61" y="-272.5" font-family="Helvetica,sans-Serif" font-size="10.00"> </text>
</g>
<!-- Node3&#45;&gt;Node2 -->
<g id="edge2" class="edge"><title>Node3&#45;&gt;Node2</title>
<path fill="none" stroke="midnightblue" d="M61,-255.108C61,-246.748 61,-237.725 61,-228.834"/>
<polygon fill="none" stroke="midnightblue" points="57.5001,-255.284 61,-265.284 64.5001,-255.284 57.5001,-255.284"/>
</g>
</g>
</svg>
