<?xml version="1.0" encoding="UTF-8" standalone="no"?>
<!DOCTYPE svg PUBLIC "-//W3C//DTD SVG 1.1//EN"
 "http://www.w3.org/Graphics/SVG/1.1/DTD/svg11.dtd">
<!-- Generated by graphviz version 2.38.0 (20140413.2041)
 -->
<!-- Title: ComPWA::Optimizer::Minuit2::MinuitIF Pages: 1 -->
<svg width="145pt" height="314pt"
 viewBox="0.00 0.00 145.00 314.00" xmlns="http://www.w3.org/2000/svg" xmlns:xlink="http://www.w3.org/1999/xlink">
<g id="graph0" class="graph" transform="scale(1 1) rotate(0) translate(4 310)">
<title>ComPWA::Optimizer::Minuit2::MinuitIF</title>
<polygon fill="white" stroke="none" points="-4,4 -4,-310 141,-310 141,4 -4,4"/>
<!-- Node1 -->
<g id="node1" class="node"><title>Node1</title>
<polygon fill="#bfbfbf" stroke="black" points="0,-0.5 0,-189.5 137,-189.5 137,-0.5 0,-0.5"/>
<text text-anchor="start" x="8" y="-177.5" font-family="Helvetica,sans-Serif" font-size="10.00">ComPWA::Optimizer::</text>
<text text-anchor="middle" x="68.5" y="-166.5" font-family="Helvetica,sans-Serif" font-size="10.00">Minuit2::MinuitIF</text>
<polyline fill="none" stroke="black" points="0,-159.5 137,-159.5 "/>
<text text-anchor="start" x="8" y="-147.5" font-family="Helvetica,sans-Serif" font-size="10.00">+ UseHesse</text>
<text text-anchor="start" x="8" y="-136.5" font-family="Helvetica,sans-Serif" font-size="10.00">+ UseMinos</text>
<text text-anchor="start" x="8" y="-125.5" font-family="Helvetica,sans-Serif" font-size="10.00">+ GradientNCycles</text>
<text text-anchor="start" x="8" y="-114.5" font-family="Helvetica,sans-Serif" font-size="10.00">+ GradientStepTolerance</text>
<text text-anchor="start" x="8" y="-103.5" font-family="Helvetica,sans-Serif" font-size="10.00">+ GradientTolerance</text>
<text text-anchor="start" x="8" y="-92.5" font-family="Helvetica,sans-Serif" font-size="10.00">+ HessianNCycles</text>
<text text-anchor="start" x="8" y="-81.5" font-family="Helvetica,sans-Serif" font-size="10.00">+ HessianGradientNCycles</text>
<text text-anchor="start" x="8" y="-70.5" font-family="Helvetica,sans-Serif" font-size="10.00">+ HessianStepTolerance</text>
<text text-anchor="start" x="8" y="-59.5" font-family="Helvetica,sans-Serif" font-size="10.00">+ HessianG2Tolerance</text>
<polyline fill="none" stroke="black" points="0,-52.5 137,-52.5 "/>
<text text-anchor="start" x="8" y="-40.5" font-family="Helvetica,sans-Serif" font-size="10.00">+ MinuitIF()</text>
<text text-anchor="start" x="8" y="-29.5" font-family="Helvetica,sans-Serif" font-size="10.00">+ optimize()</text>
<text text-anchor="start" x="8" y="-18.5" font-family="Helvetica,sans-Serif" font-size="10.00">+ setStrategy()</text>
<text text-anchor="start" x="8" y="-7.5" font-family="Helvetica,sans-Serif" font-size="10.00">&#45; checkStrategy()</text>
</g>
<!-- Node2 -->
<g id="node2" class="node"><title>Node2</title>
<g id="a_node2"><a xlink:href="classComPWA_1_1Optimizer_1_1Optimizer.html" target="_top" xlink:title="{ComPWA::Optimizer::\lOptimizer\&lt; MinuitResult \&gt;\n||+ ~Optimizer()\l+ optimize()\l}">
<polygon fill="white" stroke="black" points="3,-226.5 3,-305.5 134,-305.5 134,-226.5 3,-226.5"/>
<text text-anchor="start" x="11" y="-293.5" font-family="Helvetica,sans-Serif" font-size="10.00">ComPWA::Optimizer::</text>
<text text-anchor="middle" x="68.5" y="-282.5" font-family="Helvetica,sans-Serif" font-size="10.00">Optimizer&lt; MinuitResult &gt;</text>
<polyline fill="none" stroke="black" points="3,-275.5 134,-275.5 "/>
<text text-anchor="middle" x="68.5" y="-263.5" font-family="Helvetica,sans-Serif" font-size="10.00"> </text>
<polyline fill="none" stroke="black" points="3,-256.5 134,-256.5 "/>
<text text-anchor="start" x="11" y="-244.5" font-family="Helvetica,sans-Serif" font-size="10.00">+ ~Optimizer()</text>
<text text-anchor="start" x="11" y="-233.5" font-family="Helvetica,sans-Serif" font-size="10.00">+ optimize()</text>
</a>
</g>
</g>
<!-- Node2&#45;&gt;Node1 -->
<g id="edge1" class="edge"><title>Node2&#45;&gt;Node1</title>
<path fill="none" stroke="midnightblue" d="M68.5,-215.967C68.5,-207.601 68.5,-198.669 68.5,-189.596"/>
<polygon fill="none" stroke="midnightblue" points="65.0001,-216.228 68.5,-226.228 72.0001,-216.228 65.0001,-216.228"/>
</g>
</g>
</svg>
