<?xml version="1.0" encoding="UTF-8" standalone="no"?>
<!DOCTYPE svg PUBLIC "-//W3C//DTD SVG 1.1//EN"
 "http://www.w3.org/Graphics/SVG/1.1/DTD/svg11.dtd">
<!-- Generated by graphviz version 2.38.0 (20140413.2041)
 -->
<!-- Title: ComPWA::Data::Root::RootEfficiency Pages: 1 -->
<svg width="135pt" height="364pt"
 viewBox="0.00 0.00 135.00 364.00" xmlns="http://www.w3.org/2000/svg" xmlns:xlink="http://www.w3.org/1999/xlink">
<g id="graph0" class="graph" transform="scale(1 1) rotate(0) translate(4 360)">
<title>ComPWA::Data::Root::RootEfficiency</title>
<polygon fill="white" stroke="none" points="-4,4 -4,-360 131,-360 131,4 -4,4"/>
<!-- Node1 -->
<g id="node1" class="node"><title>Node1</title>
<polygon fill="#bfbfbf" stroke="black" points="6,-138.5 6,-239.5 121,-239.5 121,-138.5 6,-138.5"/>
<text text-anchor="start" x="14" y="-227.5" font-family="Helvetica,sans-Serif" font-size="10.00">ComPWA::Data::Root</text>
<text text-anchor="middle" x="63.5" y="-216.5" font-family="Helvetica,sans-Serif" font-size="10.00">::RootEfficiency</text>
<polyline fill="none" stroke="black" points="6,-209.5 121,-209.5 "/>
<text text-anchor="start" x="14" y="-197.5" font-family="Helvetica,sans-Serif" font-size="10.00"># effHist</text>
<polyline fill="none" stroke="black" points="6,-190.5 121,-190.5 "/>
<text text-anchor="start" x="14" y="-178.5" font-family="Helvetica,sans-Serif" font-size="10.00">+ RootEfficiency()</text>
<text text-anchor="start" x="14" y="-167.5" font-family="Helvetica,sans-Serif" font-size="10.00">+ RootEfficiency()</text>
<text text-anchor="start" x="14" y="-156.5" font-family="Helvetica,sans-Serif" font-size="10.00">+ ~RootEfficiency()</text>
<text text-anchor="start" x="14" y="-145.5" font-family="Helvetica,sans-Serif" font-size="10.00">+ evaluate()</text>
</g>
<!-- Node3 -->
<g id="node3" class="node"><title>Node3</title>
<g id="a_node3"><a xlink:href="classComPWA_1_1Data_1_1Root_1_1RootAngleEfficiency.html" target="_top" xlink:title="Uses also TEfficiency object, but the variables are one invariant mass and the corresponding helicity...">
<polygon fill="white" stroke="black" points="0,-0.5 0,-101.5 127,-101.5 127,-0.5 0,-0.5"/>
<text text-anchor="start" x="8" y="-89.5" font-family="Helvetica,sans-Serif" font-size="10.00">ComPWA::Data::Root</text>
<text text-anchor="middle" x="63.5" y="-78.5" font-family="Helvetica,sans-Serif" font-size="10.00">::RootAngleEfficiency</text>
<polyline fill="none" stroke="black" points="0,-71.5 127,-71.5 "/>
<text text-anchor="middle" x="63.5" y="-59.5" font-family="Helvetica,sans-Serif" font-size="10.00"> </text>
<polyline fill="none" stroke="black" points="0,-52.5 127,-52.5 "/>
<text text-anchor="start" x="8" y="-40.5" font-family="Helvetica,sans-Serif" font-size="10.00">+ RootAngleEfficiency()</text>
<text text-anchor="start" x="8" y="-29.5" font-family="Helvetica,sans-Serif" font-size="10.00">+ RootAngleEfficiency()</text>
<text text-anchor="start" x="8" y="-18.5" font-family="Helvetica,sans-Serif" font-size="10.00">+ ~RootAngleEfficiency()</text>
<text text-anchor="start" x="8" y="-7.5" font-family="Helvetica,sans-Serif" font-size="10.00">+ evaluate()</text>
</a>
</g>
</g>
<!-- Node1&#45;&gt;Node3 -->
<g id="edge2" class="edge"><title>Node1&#45;&gt;Node3</title>
<path fill="none" stroke="midnightblue" d="M63.5,-128C63.5,-119.271 63.5,-110.363 63.5,-101.863"/>
<polygon fill="none" stroke="midnightblue" points="60.0001,-128.131 63.5,-138.131 67.0001,-128.131 60.0001,-128.131"/>
</g>
<!-- Node2 -->
<g id="node2" class="node"><title>Node2</title>
<g id="a_node2"><a xlink:href="classComPWA_1_1Efficiency.html" target="_top" xlink:title="Base class for efficiency description over the phase space. ">
<polygon fill="white" stroke="black" points="8.5,-276.5 8.5,-355.5 118.5,-355.5 118.5,-276.5 8.5,-276.5"/>
<text text-anchor="middle" x="63.5" y="-343.5" font-family="Helvetica,sans-Serif" font-size="10.00">ComPWA::Efficiency</text>
<polyline fill="none" stroke="black" points="8.5,-336.5 118.5,-336.5 "/>
<text text-anchor="middle" x="63.5" y="-324.5" font-family="Helvetica,sans-Serif" font-size="10.00"> </text>
<polyline fill="none" stroke="black" points="8.5,-317.5 118.5,-317.5 "/>
<text text-anchor="start" x="16.5" y="-305.5" font-family="Helvetica,sans-Serif" font-size="10.00">+ Efficiency()</text>
<text text-anchor="start" x="16.5" y="-294.5" font-family="Helvetica,sans-Serif" font-size="10.00">+ ~Efficiency()</text>
<text text-anchor="start" x="16.5" y="-283.5" font-family="Helvetica,sans-Serif" font-size="10.00">+ evaluate()</text>
</a>
</g>
</g>
<!-- Node2&#45;&gt;Node1 -->
<g id="edge1" class="edge"><title>Node2&#45;&gt;Node1</title>
<path fill="none" stroke="midnightblue" d="M63.5,-266.406C63.5,-257.639 63.5,-248.488 63.5,-239.691"/>
<polygon fill="none" stroke="midnightblue" points="60.0001,-266.476 63.5,-276.476 67.0001,-266.476 60.0001,-266.476"/>
</g>
</g>
</svg>
