<?xml version="1.0" encoding="UTF-8" standalone="no"?>
<!DOCTYPE svg PUBLIC "-//W3C//DTD SVG 1.1//EN"
 "http://www.w3.org/Graphics/SVG/1.1/DTD/svg11.dtd">
<!-- Generated by graphviz version 2.38.0 (20140413.2041)
 -->
<!-- Title: ComPWA::Data::EvtGen::EvtGenGenerator Pages: 1 -->
<svg width="356pt" height="369pt"
 viewBox="0.00 0.00 355.50 369.00" xmlns="http://www.w3.org/2000/svg" xmlns:xlink="http://www.w3.org/1999/xlink">
<g id="graph0" class="graph" transform="scale(1 1) rotate(0) translate(4 365)">
<title>ComPWA::Data::EvtGen::EvtGenGenerator</title>
<polygon fill="white" stroke="none" points="-4,4 -4,-365 351.5,-365 351.5,4 -4,4"/>
<!-- Node1 -->
<g id="node1" class="node"><title>Node1</title>
<polygon fill="#bfbfbf" stroke="black" points="123,-0.5 123,-101.5 250,-101.5 250,-0.5 123,-0.5"/>
<text text-anchor="start" x="131" y="-89.5" font-family="Helvetica,sans-Serif" font-size="10.00">ComPWA::Data::EvtGen</text>
<text text-anchor="middle" x="186.5" y="-78.5" font-family="Helvetica,sans-Serif" font-size="10.00">::EvtGenGenerator</text>
<polyline fill="none" stroke="black" points="123,-71.5 250,-71.5 "/>
<text text-anchor="start" x="131" y="-59.5" font-family="Helvetica,sans-Serif" font-size="10.00">&#45; FinalStateMasses</text>
<text text-anchor="start" x="131" y="-48.5" font-family="Helvetica,sans-Serif" font-size="10.00">&#45; RandomEngine</text>
<polyline fill="none" stroke="black" points="123,-41.5 250,-41.5 "/>
<text text-anchor="start" x="131" y="-29.5" font-family="Helvetica,sans-Serif" font-size="10.00">+ EvtGenGenerator()</text>
<text text-anchor="start" x="131" y="-18.5" font-family="Helvetica,sans-Serif" font-size="10.00">+ EvtGenGenerator()</text>
<text text-anchor="start" x="131" y="-7.5" font-family="Helvetica,sans-Serif" font-size="10.00">+ generate()</text>
</g>
<!-- Node2 -->
<g id="node2" class="node"><title>Node2</title>
<g id="a_node2"><a xlink:href="classComPWA_1_1PhaseSpaceEventGenerator.html" target="_top" xlink:title="Interface class for PHSP event generators. ">
<polygon fill="white" stroke="black" points="0,-221 0,-289 191,-289 191,-221 0,-221"/>
<text text-anchor="middle" x="95.5" y="-277" font-family="Helvetica,sans-Serif" font-size="10.00">ComPWA::PhaseSpaceEventGenerator</text>
<polyline fill="none" stroke="black" points="0,-270 191,-270 "/>
<text text-anchor="middle" x="95.5" y="-258" font-family="Helvetica,sans-Serif" font-size="10.00"> </text>
<polyline fill="none" stroke="black" points="0,-251 191,-251 "/>
<text text-anchor="start" x="8" y="-239" font-family="Helvetica,sans-Serif" font-size="10.00">+ ~PhaseSpaceEventGenerator()</text>
<text text-anchor="start" x="8" y="-228" font-family="Helvetica,sans-Serif" font-size="10.00">+ generate()</text>
</a>
</g>
</g>
<!-- Node2&#45;&gt;Node1 -->
<g id="edge1" class="edge"><title>Node2&#45;&gt;Node1</title>
<path fill="none" stroke="midnightblue" d="M114.637,-211.521C129.082,-179.456 148.94,-135.376 164.121,-101.678"/>
<polygon fill="none" stroke="midnightblue" points="111.443,-210.089 110.527,-220.644 117.825,-212.964 111.443,-210.089"/>
</g>
<!-- Node3 -->
<g id="node3" class="node"><title>Node3</title>
<g id="a_node3"><a xlink:href="classComPWA_1_1FourMomentum.html" target="_top" xlink:title="ComPWA four momentum class. ">
<polygon fill="white" stroke="black" points="209.5,-149.5 209.5,-360.5 347.5,-360.5 347.5,-149.5 209.5,-149.5"/>
<text text-anchor="middle" x="278.5" y="-348.5" font-family="Helvetica,sans-Serif" font-size="10.00">ComPWA::FourMomentum</text>
<polyline fill="none" stroke="black" points="209.5,-341.5 347.5,-341.5 "/>
<text text-anchor="start" x="217.5" y="-329.5" font-family="Helvetica,sans-Serif" font-size="10.00">&#45; P4</text>
<polyline fill="none" stroke="black" points="209.5,-322.5 347.5,-322.5 "/>
<text text-anchor="start" x="217.5" y="-310.5" font-family="Helvetica,sans-Serif" font-size="10.00">+ FourMomentum()</text>
<text text-anchor="start" x="217.5" y="-299.5" font-family="Helvetica,sans-Serif" font-size="10.00">+ FourMomentum()</text>
<text text-anchor="start" x="217.5" y="-288.5" font-family="Helvetica,sans-Serif" font-size="10.00">+ FourMomentum()</text>
<text text-anchor="start" x="217.5" y="-277.5" font-family="Helvetica,sans-Serif" font-size="10.00">+ FourMomentum()</text>
<text text-anchor="start" x="217.5" y="-266.5" font-family="Helvetica,sans-Serif" font-size="10.00">+ FourMomentum()</text>
<text text-anchor="start" x="217.5" y="-255.5" font-family="Helvetica,sans-Serif" font-size="10.00">+ px()</text>
<text text-anchor="start" x="217.5" y="-244.5" font-family="Helvetica,sans-Serif" font-size="10.00">+ py()</text>
<text text-anchor="start" x="217.5" y="-233.5" font-family="Helvetica,sans-Serif" font-size="10.00">+ pz()</text>
<text text-anchor="start" x="217.5" y="-222.5" font-family="Helvetica,sans-Serif" font-size="10.00">+ e()</text>
<text text-anchor="start" x="217.5" y="-211.5" font-family="Helvetica,sans-Serif" font-size="10.00">+ operator+()</text>
<text text-anchor="start" x="217.5" y="-200.5" font-family="Helvetica,sans-Serif" font-size="10.00">+ operator+=()</text>
<text text-anchor="start" x="217.5" y="-189.5" font-family="Helvetica,sans-Serif" font-size="10.00">+ operator==()</text>
<text text-anchor="start" x="217.5" y="-178.5" font-family="Helvetica,sans-Serif" font-size="10.00">+ invariantMassSquared()</text>
<text text-anchor="start" x="217.5" y="-167.5" font-family="Helvetica,sans-Serif" font-size="10.00">+ invariantMass()</text>
<text text-anchor="start" x="217.5" y="-156.5" font-family="Helvetica,sans-Serif" font-size="10.00">+ threeMomentumSquared()</text>
</a>
</g>
</g>
<!-- Node3&#45;&gt;Node1 -->
<g id="edge2" class="edge"><title>Node3&#45;&gt;Node1</title>
<path fill="none" stroke="#404040" d="M230.883,-149.45C225.194,-136.959 219.538,-124.541 214.264,-112.96"/>
<polygon fill="none" stroke="#404040" points="214.104,-112.608 207.977,-108.806 209.13,-101.688 215.257,-105.49 214.104,-112.608"/>
<text text-anchor="middle" x="243" y="-123" font-family="Helvetica,sans-Serif" font-size="10.00"> &#45;CMSP4</text>
</g>
</g>
</svg>
