<?xml version="1.0" encoding="UTF-8" standalone="no"?>
<!DOCTYPE svg PUBLIC "-//W3C//DTD SVG 1.1//EN"
 "http://www.w3.org/Graphics/SVG/1.1/DTD/svg11.dtd">
<!-- Generated by graphviz version 2.38.0 (20140413.2041)
 -->
<!-- Title: ComPWA::Physics::Dynamics::BreitWignerStrategy Pages: 1 -->
<svg width="160pt" height="259pt"
 viewBox="0.00 0.00 160.00 259.00" xmlns="http://www.w3.org/2000/svg" xmlns:xlink="http://www.w3.org/1999/xlink">
<g id="graph0" class="graph" transform="scale(1 1) rotate(0) translate(4 255)">
<title>ComPWA::Physics::Dynamics::BreitWignerStrategy</title>
<polygon fill="white" stroke="none" points="-4,4 -4,-255 156,-255 156,4 -4,4"/>
<!-- Node1 -->
<g id="node1" class="node"><title>Node1</title>
<polygon fill="#bfbfbf" stroke="black" points="0,-0.5 0,-90.5 152,-90.5 152,-0.5 0,-0.5"/>
<text text-anchor="start" x="8" y="-78.5" font-family="Helvetica,sans-Serif" font-size="10.00">ComPWA::Physics::Dynamics</text>
<text text-anchor="middle" x="76" y="-67.5" font-family="Helvetica,sans-Serif" font-size="10.00">::BreitWignerStrategy</text>
<polyline fill="none" stroke="black" points="0,-60.5 152,-60.5 "/>
<text text-anchor="start" x="8" y="-48.5" font-family="Helvetica,sans-Serif" font-size="10.00">&#45; FormFactorFunctor</text>
<text text-anchor="start" x="8" y="-37.5" font-family="Helvetica,sans-Serif" font-size="10.00">&#45; BWFunction</text>
<polyline fill="none" stroke="black" points="0,-30.5 152,-30.5 "/>
<text text-anchor="start" x="8" y="-18.5" font-family="Helvetica,sans-Serif" font-size="10.00">+ BreitWignerStrategy()</text>
<text text-anchor="start" x="8" y="-7.5" font-family="Helvetica,sans-Serif" font-size="10.00">+ execute()</text>
</g>
<!-- Node2 -->
<g id="node2" class="node"><title>Node2</title>
<g id="a_node2"><a xlink:href="classComPWA_1_1FunctionTree_1_1Strategy.html" target="_top" xlink:title="Virtual base class for operations of FunctionTree nodes. ">
<polygon fill="white" stroke="black" points="14,-127.5 14,-250.5 138,-250.5 138,-127.5 14,-127.5"/>
<text text-anchor="start" x="22" y="-238.5" font-family="Helvetica,sans-Serif" font-size="10.00">ComPWA::FunctionTree</text>
<text text-anchor="middle" x="76" y="-227.5" font-family="Helvetica,sans-Serif" font-size="10.00">::Strategy</text>
<polyline fill="none" stroke="black" points="14,-220.5 138,-220.5 "/>
<text text-anchor="start" x="22" y="-208.5" font-family="Helvetica,sans-Serif" font-size="10.00"># checkType</text>
<text text-anchor="start" x="22" y="-197.5" font-family="Helvetica,sans-Serif" font-size="10.00"># Name</text>
<polyline fill="none" stroke="black" points="14,-190.5 138,-190.5 "/>
<text text-anchor="start" x="22" y="-178.5" font-family="Helvetica,sans-Serif" font-size="10.00">+ Strategy()</text>
<text text-anchor="start" x="22" y="-167.5" font-family="Helvetica,sans-Serif" font-size="10.00">+ ~Strategy()</text>
<text text-anchor="start" x="22" y="-156.5" font-family="Helvetica,sans-Serif" font-size="10.00">+ OutType()</text>
<text text-anchor="start" x="22" y="-145.5" font-family="Helvetica,sans-Serif" font-size="10.00">+ execute()</text>
<text text-anchor="start" x="22" y="-134.5" font-family="Helvetica,sans-Serif" font-size="10.00">+ str()</text>
</a>
</g>
</g>
<!-- Node2&#45;&gt;Node1 -->
<g id="edge1" class="edge"><title>Node2&#45;&gt;Node1</title>
<path fill="none" stroke="midnightblue" d="M76,-117.033C76,-108.028 76,-99.0285 76,-90.6168"/>
<polygon fill="none" stroke="midnightblue" points="72.5001,-117.17 76,-127.17 79.5001,-117.17 72.5001,-117.17"/>
</g>
</g>
</svg>
