<?xml version="1.0" encoding="UTF-8" standalone="no"?>
<!DOCTYPE svg PUBLIC "-//W3C//DTD SVG 1.1//EN"
 "http://www.w3.org/Graphics/SVG/1.1/DTD/svg11.dtd">
<!-- Generated by graphviz version 2.38.0 (20140413.2041)
 -->
<!-- Title: ComPWA::FunctionTree::FunctionTreeEstimator Pages: 1 -->
<svg width="284pt" height="596pt"
 viewBox="0.00 0.00 283.50 596.00" xmlns="http://www.w3.org/2000/svg" xmlns:xlink="http://www.w3.org/1999/xlink">
<g id="graph0" class="graph" transform="scale(1 1) rotate(0) translate(4 592)">
<title>ComPWA::FunctionTree::FunctionTreeEstimator</title>
<polygon fill="white" stroke="none" points="-4,4 -4,-592 279.5,-592 279.5,4 -4,4"/>
<!-- Node1 -->
<g id="node1" class="node"><title>Node1</title>
<polygon fill="#bfbfbf" stroke="black" points="111.5,-0.5 111.5,-156.5 245.5,-156.5 245.5,-0.5 111.5,-0.5"/>
<text text-anchor="start" x="119.5" y="-144.5" font-family="Helvetica,sans-Serif" font-size="10.00">ComPWA::FunctionTree</text>
<text text-anchor="middle" x="178.5" y="-133.5" font-family="Helvetica,sans-Serif" font-size="10.00">::FunctionTreeEstimator</text>
<polyline fill="none" stroke="black" points="111.5,-126.5 245.5,-126.5 "/>
<text text-anchor="start" x="119.5" y="-114.5" font-family="Helvetica,sans-Serif" font-size="10.00">&#45; Tree</text>
<polyline fill="none" stroke="black" points="111.5,-107.5 245.5,-107.5 "/>
<text text-anchor="start" x="119.5" y="-95.5" font-family="Helvetica,sans-Serif" font-size="10.00">+ FunctionTreeEstimator()</text>
<text text-anchor="start" x="119.5" y="-84.5" font-family="Helvetica,sans-Serif" font-size="10.00">+ FunctionTreeEstimator()</text>
<text text-anchor="start" x="119.5" y="-73.5" font-family="Helvetica,sans-Serif" font-size="10.00">+ FunctionTreeEstimator()</text>
<text text-anchor="start" x="119.5" y="-62.5" font-family="Helvetica,sans-Serif" font-size="10.00">+ evaluate()</text>
<text text-anchor="start" x="119.5" y="-51.5" font-family="Helvetica,sans-Serif" font-size="10.00">+ updateParametersFrom()</text>
<text text-anchor="start" x="119.5" y="-40.5" font-family="Helvetica,sans-Serif" font-size="10.00">+ getParameters()</text>
<text text-anchor="start" x="119.5" y="-29.5" font-family="Helvetica,sans-Serif" font-size="10.00">+ print()</text>
<text text-anchor="start" x="119.5" y="-18.5" font-family="Helvetica,sans-Serif" font-size="10.00">+ getFunctionTree()</text>
<text text-anchor="start" x="119.5" y="-7.5" font-family="Helvetica,sans-Serif" font-size="10.00">+ getParameterList()</text>
</g>
<!-- Node2 -->
<g id="node2" class="node"><title>Node2</title>
<g id="a_node2"><a xlink:href="classComPWA_1_1Estimator_1_1Estimator.html" target="_top" xlink:title="{ComPWA::Estimator::\lEstimator\&lt; double \&gt;\n||}">
<polygon fill="white" stroke="black" points="18,-298 18,-366 133,-366 133,-298 18,-298"/>
<text text-anchor="start" x="26" y="-354" font-family="Helvetica,sans-Serif" font-size="10.00">ComPWA::Estimator::</text>
<text text-anchor="middle" x="75.5" y="-343" font-family="Helvetica,sans-Serif" font-size="10.00">Estimator&lt; double &gt;</text>
<polyline fill="none" stroke="black" points="18,-336 133,-336 "/>
<text text-anchor="middle" x="75.5" y="-324" font-family="Helvetica,sans-Serif" font-size="10.00"> </text>
<polyline fill="none" stroke="black" points="18,-317 133,-317 "/>
<text text-anchor="middle" x="75.5" y="-305" font-family="Helvetica,sans-Serif" font-size="10.00"> </text>
</a>
</g>
</g>
<!-- Node2&#45;&gt;Node1 -->
<g id="edge1" class="edge"><title>Node2&#45;&gt;Node1</title>
<path fill="none" stroke="midnightblue" d="M93.0404,-288.171C107.772,-252.2 129.192,-199.897 146.902,-156.654"/>
<polygon fill="none" stroke="midnightblue" points="89.6224,-287.282 89.0714,-297.862 96.1002,-289.935 89.6224,-287.282"/>
</g>
<!-- Node3 -->
<g id="node3" class="node"><title>Node3</title>
<g id="a_node3"><a xlink:href="classComPWA_1_1Function.html" target="_top" xlink:title="{ComPWA::Function\&lt; double \&gt;\n||+ ~Function()\l+ evaluate()\l+ updateParametersFrom()\l+ getParameters()\l}">
<polygon fill="white" stroke="black" points="0,-497.5 0,-587.5 151,-587.5 151,-497.5 0,-497.5"/>
<text text-anchor="middle" x="75.5" y="-575.5" font-family="Helvetica,sans-Serif" font-size="10.00">ComPWA::Function&lt; double &gt;</text>
<polyline fill="none" stroke="black" points="0,-568.5 151,-568.5 "/>
<text text-anchor="middle" x="75.5" y="-556.5" font-family="Helvetica,sans-Serif" font-size="10.00"> </text>
<polyline fill="none" stroke="black" points="0,-549.5 151,-549.5 "/>
<text text-anchor="start" x="8" y="-537.5" font-family="Helvetica,sans-Serif" font-size="10.00">+ ~Function()</text>
<text text-anchor="start" x="8" y="-526.5" font-family="Helvetica,sans-Serif" font-size="10.00">+ evaluate()</text>
<text text-anchor="start" x="8" y="-515.5" font-family="Helvetica,sans-Serif" font-size="10.00">+ updateParametersFrom()</text>
<text text-anchor="start" x="8" y="-504.5" font-family="Helvetica,sans-Serif" font-size="10.00">+ getParameters()</text>
</a>
</g>
</g>
<!-- Node3&#45;&gt;Node2 -->
<g id="edge2" class="edge"><title>Node3&#45;&gt;Node2</title>
<path fill="none" stroke="midnightblue" d="M75.5,-486.818C75.5,-448.536 75.5,-398.632 75.5,-366.21"/>
<polygon fill="none" stroke="midnightblue" points="72.0001,-487.282 75.5,-497.283 79.0001,-487.283 72.0001,-487.282"/>
</g>
<!-- Node4 -->
<g id="node4" class="node"><title>Node4</title>
<g id="a_node4"><a xlink:href="classComPWA_1_1FunctionTree_1_1ParameterList.html" target="_top" xlink:title="This class provides a list of parameters and values of different types. ">
<polygon fill="white" stroke="black" points="151.5,-204.5 151.5,-459.5 275.5,-459.5 275.5,-204.5 151.5,-204.5"/>
<text text-anchor="start" x="159.5" y="-447.5" font-family="Helvetica,sans-Serif" font-size="10.00">ComPWA::FunctionTree</text>
<text text-anchor="middle" x="213.5" y="-436.5" font-family="Helvetica,sans-Serif" font-size="10.00">::ParameterList</text>
<polyline fill="none" stroke="black" points="151.5,-429.5 275.5,-429.5 "/>
<text text-anchor="start" x="159.5" y="-417.5" font-family="Helvetica,sans-Serif" font-size="10.00"># IntValues</text>
<text text-anchor="start" x="159.5" y="-406.5" font-family="Helvetica,sans-Serif" font-size="10.00"># DoubleValues</text>
<text text-anchor="start" x="159.5" y="-395.5" font-family="Helvetica,sans-Serif" font-size="10.00"># ComplexValues</text>
<text text-anchor="start" x="159.5" y="-384.5" font-family="Helvetica,sans-Serif" font-size="10.00"># MultiIntValues</text>
<text text-anchor="start" x="159.5" y="-373.5" font-family="Helvetica,sans-Serif" font-size="10.00"># MultiDoubleValues</text>
<text text-anchor="start" x="159.5" y="-362.5" font-family="Helvetica,sans-Serif" font-size="10.00"># MultiComplexValues</text>
<text text-anchor="start" x="159.5" y="-351.5" font-family="Helvetica,sans-Serif" font-size="10.00"># FitParameters</text>
<polyline fill="none" stroke="black" points="151.5,-344.5 275.5,-344.5 "/>
<text text-anchor="start" x="159.5" y="-332.5" font-family="Helvetica,sans-Serif" font-size="10.00">+ ParameterList()</text>
<text text-anchor="start" x="159.5" y="-321.5" font-family="Helvetica,sans-Serif" font-size="10.00">+ ParameterList()</text>
<text text-anchor="start" x="159.5" y="-310.5" font-family="Helvetica,sans-Serif" font-size="10.00">+ ParameterList()</text>
<text text-anchor="start" x="159.5" y="-299.5" font-family="Helvetica,sans-Serif" font-size="10.00">+ DeepCopy()</text>
<text text-anchor="start" x="159.5" y="-288.5" font-family="Helvetica,sans-Serif" font-size="10.00">+ ~ParameterList()</text>
<text text-anchor="start" x="159.5" y="-277.5" font-family="Helvetica,sans-Serif" font-size="10.00">+ numParameters()</text>
<text text-anchor="start" x="159.5" y="-266.5" font-family="Helvetica,sans-Serif" font-size="10.00">+ addUniqueParameter()</text>
<text text-anchor="start" x="159.5" y="-255.5" font-family="Helvetica,sans-Serif" font-size="10.00">+ addParameter()</text>
<text text-anchor="start" x="159.5" y="-244.5" font-family="Helvetica,sans-Serif" font-size="10.00">+ addParameter()</text>
<text text-anchor="start" x="159.5" y="-233.5" font-family="Helvetica,sans-Serif" font-size="10.00">+ addParameters()</text>
<text text-anchor="start" x="159.5" y="-222.5" font-family="Helvetica,sans-Serif" font-size="10.00">and 25 more...</text>
<text text-anchor="start" x="159.5" y="-211.5" font-family="Helvetica,sans-Serif" font-size="10.00">&#45; serialize()</text>
</a>
</g>
</g>
<!-- Node4&#45;&gt;Node1 -->
<g id="edge3" class="edge"><title>Node4&#45;&gt;Node1</title>
<path fill="none" stroke="#404040" d="M195.846,-204.145C194.187,-192.221 192.529,-180.311 190.933,-168.842"/>
<polygon fill="none" stroke="#404040" points="190.883,-168.477 186.094,-163.086 189.228,-156.592 194.017,-161.983 190.883,-168.477"/>
<text text-anchor="middle" x="222" y="-178" font-family="Helvetica,sans-Serif" font-size="10.00"> &#45;Parameters</text>
</g>
</g>
</svg>
