<?xml version="1.0" encoding="UTF-8" standalone="no"?>
<!DOCTYPE svg PUBLIC "-//W3C//DTD SVG 1.1//EN"
 "http://www.w3.org/Graphics/SVG/1.1/DTD/svg11.dtd">
<!-- Generated by graphviz version 2.38.0 (20140413.2041)
 -->
<!-- Title: ComPWA::Physics::IntensityBuilderXML Pages: 1 -->
<svg width="393pt" height="749pt"
 viewBox="0.00 0.00 393.00 749.00" xmlns="http://www.w3.org/2000/svg" xmlns:xlink="http://www.w3.org/1999/xlink">
<g id="graph0" class="graph" transform="scale(1 1) rotate(0) translate(4 745)">
<title>ComPWA::Physics::IntensityBuilderXML</title>
<polygon fill="white" stroke="none" points="-4,4 -4,-745 389,-745 389,4 -4,4"/>
<!-- Node1 -->
<g id="node1" class="node"><title>Node1</title>
<polygon fill="#bfbfbf" stroke="black" points="85,-0.5 85,-277.5 243,-277.5 243,-0.5 85,-0.5"/>
<text text-anchor="start" x="93" y="-265.5" font-family="Helvetica,sans-Serif" font-size="10.00">ComPWA::Physics::Intensity</text>
<text text-anchor="middle" x="164" y="-254.5" font-family="Helvetica,sans-Serif" font-size="10.00">BuilderXML</text>
<polyline fill="none" stroke="black" points="85,-247.5 243,-247.5 "/>
<text text-anchor="start" x="93" y="-235.5" font-family="Helvetica,sans-Serif" font-size="10.00">&#45; ComponentRegisteringEnabled</text>
<text text-anchor="start" x="93" y="-224.5" font-family="Helvetica,sans-Serif" font-size="10.00">&#45; UniqueComponentFTMapping</text>
<text text-anchor="start" x="93" y="-213.5" font-family="Helvetica,sans-Serif" font-size="10.00">&#45; PartList</text>
<text text-anchor="start" x="93" y="-202.5" font-family="Helvetica,sans-Serif" font-size="10.00">&#45; ModelTree</text>
<text text-anchor="start" x="93" y="-191.5" font-family="Helvetica,sans-Serif" font-size="10.00">&#45; TruePhspSample</text>
<text text-anchor="start" x="93" y="-180.5" font-family="Helvetica,sans-Serif" font-size="10.00">&#45; RecoPhspSample</text>
<polyline fill="none" stroke="black" points="85,-173.5 243,-173.5 "/>
<text text-anchor="start" x="93" y="-161.5" font-family="Helvetica,sans-Serif" font-size="10.00">+ IntensityBuilderXML()</text>
<text text-anchor="start" x="93" y="-150.5" font-family="Helvetica,sans-Serif" font-size="10.00">+ createIntensity()</text>
<text text-anchor="start" x="93" y="-139.5" font-family="Helvetica,sans-Serif" font-size="10.00">+ createIntensityComponents()</text>
<text text-anchor="start" x="93" y="-128.5" font-family="Helvetica,sans-Serif" font-size="10.00">+ getAllComponentNames()</text>
<text text-anchor="start" x="93" y="-117.5" font-family="Helvetica,sans-Serif" font-size="10.00">&#45; createIntensityFT()</text>
<text text-anchor="start" x="93" y="-106.5" font-family="Helvetica,sans-Serif" font-size="10.00">&#45; createIncoherentIntensityFT()</text>
<text text-anchor="start" x="93" y="-95.5" font-family="Helvetica,sans-Serif" font-size="10.00">&#45; createIncoherentIntensityFT()</text>
<text text-anchor="start" x="93" y="-84.5" font-family="Helvetica,sans-Serif" font-size="10.00">&#45; createCoherentIntensityFT()</text>
<text text-anchor="start" x="93" y="-73.5" font-family="Helvetica,sans-Serif" font-size="10.00">&#45; createCoherentIntensityFT()</text>
<text text-anchor="start" x="93" y="-62.5" font-family="Helvetica,sans-Serif" font-size="10.00">&#45; createStrengthIntensityFT()</text>
<text text-anchor="start" x="93" y="-51.5" font-family="Helvetica,sans-Serif" font-size="10.00">&#45; createNormalizedIntensityFT()</text>
<text text-anchor="start" x="93" y="-40.5" font-family="Helvetica,sans-Serif" font-size="10.00">&#45; normalizeIntensityFT()</text>
<text text-anchor="start" x="93" y="-29.5" font-family="Helvetica,sans-Serif" font-size="10.00">&#45; createIntegrationStrategyFT()</text>
<text text-anchor="start" x="93" y="-18.5" font-family="Helvetica,sans-Serif" font-size="10.00">&#45; createAmplitudeFT()</text>
<text text-anchor="start" x="93" y="-7.5" font-family="Helvetica,sans-Serif" font-size="10.00">and 8 more...</text>
</g>
<!-- Node2 -->
<g id="node2" class="node"><title>Node2</title>
<g id="a_node2"><a xlink:href="classComPWA_1_1Kinematics.html" target="_top" xlink:title="The Kinematics interface is responsible for converting an Event into a DataPoint. ...">
<polygon fill="white" stroke="black" points="0,-347.5 0,-437.5 128,-437.5 128,-347.5 0,-347.5"/>
<text text-anchor="middle" x="64" y="-425.5" font-family="Helvetica,sans-Serif" font-size="10.00">ComPWA::Kinematics</text>
<polyline fill="none" stroke="black" points="0,-418.5 128,-418.5 "/>
<text text-anchor="middle" x="64" y="-406.5" font-family="Helvetica,sans-Serif" font-size="10.00"> </text>
<polyline fill="none" stroke="black" points="0,-399.5 128,-399.5 "/>
<text text-anchor="start" x="8" y="-387.5" font-family="Helvetica,sans-Serif" font-size="10.00">+ ~Kinematics()</text>
<text text-anchor="start" x="8" y="-376.5" font-family="Helvetica,sans-Serif" font-size="10.00">+ convert()</text>
<text text-anchor="start" x="8" y="-365.5" font-family="Helvetica,sans-Serif" font-size="10.00">+ reduceToPhaseSpace()</text>
<text text-anchor="start" x="8" y="-354.5" font-family="Helvetica,sans-Serif" font-size="10.00">+ phspVolume()</text>
</a>
</g>
</g>
<!-- Node2&#45;&gt;Node1 -->
<g id="edge1" class="edge"><title>Node2&#45;&gt;Node1</title>
<path fill="none" stroke="#404040" d="M80.4038,-347.18C86.4609,-331.031 93.4468,-312.653 100,-296 100.921,-293.659 101.853,-291.299 102.793,-288.925"/>
<polygon fill="none" stroke="#404040" points="102.814,-288.871 101.314,-281.818 107.248,-277.72 108.748,-284.774 102.814,-288.871"/>
<text text-anchor="middle" x="125" y="-310" font-family="Helvetica,sans-Serif" font-size="10.00"> &#45;Kinematic</text>
</g>
<!-- Node3 -->
<g id="node3" class="node"><title>Node3</title>
<g id="a_node3"><a xlink:href="classComPWA_1_1FunctionTree_1_1ParameterList.html" target="_top" xlink:title="This class provides a list of parameters and values of different types. ">
<polygon fill="white" stroke="black" points="147,-485.5 147,-740.5 271,-740.5 271,-485.5 147,-485.5"/>
<text text-anchor="start" x="155" y="-728.5" font-family="Helvetica,sans-Serif" font-size="10.00">ComPWA::FunctionTree</text>
<text text-anchor="middle" x="209" y="-717.5" font-family="Helvetica,sans-Serif" font-size="10.00">::ParameterList</text>
<polyline fill="none" stroke="black" points="147,-710.5 271,-710.5 "/>
<text text-anchor="start" x="155" y="-698.5" font-family="Helvetica,sans-Serif" font-size="10.00"># IntValues</text>
<text text-anchor="start" x="155" y="-687.5" font-family="Helvetica,sans-Serif" font-size="10.00"># DoubleValues</text>
<text text-anchor="start" x="155" y="-676.5" font-family="Helvetica,sans-Serif" font-size="10.00"># ComplexValues</text>
<text text-anchor="start" x="155" y="-665.5" font-family="Helvetica,sans-Serif" font-size="10.00"># MultiIntValues</text>
<text text-anchor="start" x="155" y="-654.5" font-family="Helvetica,sans-Serif" font-size="10.00"># MultiDoubleValues</text>
<text text-anchor="start" x="155" y="-643.5" font-family="Helvetica,sans-Serif" font-size="10.00"># MultiComplexValues</text>
<text text-anchor="start" x="155" y="-632.5" font-family="Helvetica,sans-Serif" font-size="10.00"># FitParameters</text>
<polyline fill="none" stroke="black" points="147,-625.5 271,-625.5 "/>
<text text-anchor="start" x="155" y="-613.5" font-family="Helvetica,sans-Serif" font-size="10.00">+ ParameterList()</text>
<text text-anchor="start" x="155" y="-602.5" font-family="Helvetica,sans-Serif" font-size="10.00">+ ParameterList()</text>
<text text-anchor="start" x="155" y="-591.5" font-family="Helvetica,sans-Serif" font-size="10.00">+ ParameterList()</text>
<text text-anchor="start" x="155" y="-580.5" font-family="Helvetica,sans-Serif" font-size="10.00">+ DeepCopy()</text>
<text text-anchor="start" x="155" y="-569.5" font-family="Helvetica,sans-Serif" font-size="10.00">+ ~ParameterList()</text>
<text text-anchor="start" x="155" y="-558.5" font-family="Helvetica,sans-Serif" font-size="10.00">+ numParameters()</text>
<text text-anchor="start" x="155" y="-547.5" font-family="Helvetica,sans-Serif" font-size="10.00">+ addUniqueParameter()</text>
<text text-anchor="start" x="155" y="-536.5" font-family="Helvetica,sans-Serif" font-size="10.00">+ addParameter()</text>
<text text-anchor="start" x="155" y="-525.5" font-family="Helvetica,sans-Serif" font-size="10.00">+ addParameter()</text>
<text text-anchor="start" x="155" y="-514.5" font-family="Helvetica,sans-Serif" font-size="10.00">+ addParameters()</text>
<text text-anchor="start" x="155" y="-503.5" font-family="Helvetica,sans-Serif" font-size="10.00">and 25 more...</text>
<text text-anchor="start" x="155" y="-492.5" font-family="Helvetica,sans-Serif" font-size="10.00">&#45; serialize()</text>
</a>
</g>
</g>
<!-- Node3&#45;&gt;Node1 -->
<g id="edge2" class="edge"><title>Node3&#45;&gt;Node1</title>
<path fill="none" stroke="#404040" d="M180.084,-485.077C177.274,-469.291 174.802,-453.318 173,-438 167.353,-390.002 164.628,-337.374 163.445,-289.878"/>
<polygon fill="none" stroke="#404040" points="163.439,-289.595 159.306,-283.686 163.17,-277.598 167.304,-283.507 163.439,-289.595"/>
<text text-anchor="middle" x="201.5" y="-390" font-family="Helvetica,sans-Serif" font-size="10.00"> &#45;Parameters</text>
</g>
<!-- Node4 -->
<g id="node4" class="node"><title>Node4</title>
<g id="a_node4"><a xlink:href="structComPWA_1_1Physics_1_1IntensityBuilderXML_1_1DataContainer.html" target="_top" xlink:title="{ComPWA::Physics::Intensity\lBuilderXML::DataContainer\n|+ Weights\l+ WeightSum\l|}">
<polygon fill="white" stroke="black" points="239,-353 239,-432 385,-432 385,-353 239,-353"/>
<text text-anchor="start" x="247" y="-420" font-family="Helvetica,sans-Serif" font-size="10.00">ComPWA::Physics::Intensity</text>
<text text-anchor="middle" x="312" y="-409" font-family="Helvetica,sans-Serif" font-size="10.00">BuilderXML::DataContainer</text>
<polyline fill="none" stroke="black" points="239,-402 385,-402 "/>
<text text-anchor="start" x="247" y="-390" font-family="Helvetica,sans-Serif" font-size="10.00">+ Weights</text>
<text text-anchor="start" x="247" y="-379" font-family="Helvetica,sans-Serif" font-size="10.00">+ WeightSum</text>
<polyline fill="none" stroke="black" points="239,-372 385,-372 "/>
<text text-anchor="middle" x="312" y="-360" font-family="Helvetica,sans-Serif" font-size="10.00"> </text>
</a>
</g>
</g>
<!-- Node3&#45;&gt;Node4 -->
<g id="edge4" class="edge"><title>Node3&#45;&gt;Node4</title>
<path fill="none" stroke="#404040" d="M268.766,-485.214C275.697,-470.512 282.422,-456.245 288.423,-443.516"/>
<polygon fill="none" stroke="#404040" points="288.598,-443.144 287.538,-436.012 293.715,-432.29 294.774,-439.423 288.598,-443.144"/>
<text text-anchor="middle" x="296.5" y="-459" font-family="Helvetica,sans-Serif" font-size="10.00"> +Data</text>
</g>
<!-- Node4&#45;&gt;Node1 -->
<g id="edge3" class="edge"><title>Node4&#45;&gt;Node1</title>
<path fill="none" stroke="#404040" d="M289.199,-352.754C278.082,-333.862 263.94,-309.831 249.192,-284.769"/>
<polygon fill="none" stroke="#404040" points="249.154,-284.703 242.663,-281.561 243.067,-274.361 249.558,-277.504 249.154,-284.703"/>
<text text-anchor="middle" x="308.5" y="-321" font-family="Helvetica,sans-Serif" font-size="10.00"> &#45;PhspRecoData</text>
<text text-anchor="middle" x="308.5" y="-310" font-family="Helvetica,sans-Serif" font-size="10.00">&#45;Data</text>
<text text-anchor="middle" x="308.5" y="-299" font-family="Helvetica,sans-Serif" font-size="10.00">&#45;PhspData</text>
</g>
</g>
</svg>
