<?xml version="1.0" encoding="UTF-8" standalone="no"?>
<!DOCTYPE svg PUBLIC "-//W3C//DTD SVG 1.1//EN"
 "http://www.w3.org/Graphics/SVG/1.1/DTD/svg11.dtd">
<!-- Generated by graphviz version 2.38.0 (20140413.2041)
 -->
<!-- Title: ComPWA::Data::MomentumCorrection Pages: 1 -->
<svg width="196pt" height="248pt"
 viewBox="0.00 0.00 196.00 248.00" xmlns="http://www.w3.org/2000/svg" xmlns:xlink="http://www.w3.org/1999/xlink">
<g id="graph0" class="graph" transform="scale(1 1) rotate(0) translate(4 244)">
<title>ComPWA::Data::MomentumCorrection</title>
<polygon fill="white" stroke="none" points="-4,4 -4,-244 192,-244 192,4 -4,4"/>
<!-- Node1 -->
<g id="node1" class="node"><title>Node1</title>
<polygon fill="#bfbfbf" stroke="black" points="0,-0.5 0,-134.5 188,-134.5 188,-0.5 0,-0.5"/>
<text text-anchor="middle" x="94" y="-122.5" font-family="Helvetica,sans-Serif" font-size="10.00">ComPWA::Data::MomentumCorrection</text>
<polyline fill="none" stroke="black" points="0,-115.5 188,-115.5 "/>
<text text-anchor="start" x="8" y="-103.5" font-family="Helvetica,sans-Serif" font-size="10.00">&#45; PartList</text>
<text text-anchor="start" x="8" y="-92.5" font-family="Helvetica,sans-Serif" font-size="10.00">&#45; Corrections</text>
<text text-anchor="start" x="8" y="-81.5" font-family="Helvetica,sans-Serif" font-size="10.00">&#45; Title</text>
<polyline fill="none" stroke="black" points="0,-74.5 188,-74.5 "/>
<text text-anchor="start" x="8" y="-62.5" font-family="Helvetica,sans-Serif" font-size="10.00">+ MomentumCorrection()</text>
<text text-anchor="start" x="8" y="-51.5" font-family="Helvetica,sans-Serif" font-size="10.00">+ ~MomentumCorrection()</text>
<text text-anchor="start" x="8" y="-40.5" font-family="Helvetica,sans-Serif" font-size="10.00">+ correction()</text>
<text text-anchor="start" x="8" y="-29.5" font-family="Helvetica,sans-Serif" font-size="10.00">+ operator()()</text>
<text text-anchor="start" x="8" y="-18.5" font-family="Helvetica,sans-Serif" font-size="10.00">+ title()</text>
<text text-anchor="start" x="8" y="-7.5" font-family="Helvetica,sans-Serif" font-size="10.00">+ setTitle()</text>
</g>
<!-- Node2 -->
<g id="node2" class="node"><title>Node2</title>
<g id="a_node2"><a xlink:href="classComPWA_1_1Data_1_1DataCorrection.html" target="_top" xlink:title="{ComPWA::Data::DataCorrection\n||+ ~DataCorrection()\l+ correction()\l}">
<polygon fill="white" stroke="black" points="14,-171.5 14,-239.5 174,-239.5 174,-171.5 14,-171.5"/>
<text text-anchor="middle" x="94" y="-227.5" font-family="Helvetica,sans-Serif" font-size="10.00">ComPWA::Data::DataCorrection</text>
<polyline fill="none" stroke="black" points="14,-220.5 174,-220.5 "/>
<text text-anchor="middle" x="94" y="-208.5" font-family="Helvetica,sans-Serif" font-size="10.00"> </text>
<polyline fill="none" stroke="black" points="14,-201.5 174,-201.5 "/>
<text text-anchor="start" x="22" y="-189.5" font-family="Helvetica,sans-Serif" font-size="10.00">+ ~DataCorrection()</text>
<text text-anchor="start" x="22" y="-178.5" font-family="Helvetica,sans-Serif" font-size="10.00">+ correction()</text>
</a>
</g>
</g>
<!-- Node2&#45;&gt;Node1 -->
<g id="edge1" class="edge"><title>Node2&#45;&gt;Node1</title>
<path fill="none" stroke="midnightblue" d="M94,-160.956C94,-152.567 94,-143.604 94,-134.683"/>
<polygon fill="none" stroke="midnightblue" points="90.5001,-161.231 94,-171.231 97.5001,-161.231 90.5001,-161.231"/>
</g>
</g>
</svg>
