<?xml version="1.0" encoding="UTF-8" standalone="no"?>
<!DOCTYPE svg PUBLIC "-//W3C//DTD SVG 1.1//EN"
 "http://www.w3.org/Graphics/SVG/1.1/DTD/svg11.dtd">
<!-- Generated by graphviz version 2.38.0 (20140413.2041)
 -->
<!-- Title: ComPWA::Exception Pages: 1 -->
<svg width="1465pt" height="331pt"
 viewBox="0.00 0.00 1465.00 331.00" xmlns="http://www.w3.org/2000/svg" xmlns:xlink="http://www.w3.org/1999/xlink">
<g id="graph0" class="graph" transform="scale(1 1) rotate(0) translate(4 327)">
<title>ComPWA::Exception</title>
<polygon fill="white" stroke="none" points="-4,4 -4,-327 1461,-327 1461,4 -4,4"/>
<!-- Node1 -->
<g id="node1" class="node"><title>Node1</title>
<polygon fill="#bfbfbf" stroke="black" points="620.5,-116.5 620.5,-228.5 730.5,-228.5 730.5,-116.5 620.5,-116.5"/>
<text text-anchor="middle" x="675.5" y="-216.5" font-family="Helvetica,sans-Serif" font-size="10.00">ComPWA::Exception</text>
<polyline fill="none" stroke="black" points="620.5,-209.5 730.5,-209.5 "/>
<text text-anchor="start" x="628.5" y="-197.5" font-family="Helvetica,sans-Serif" font-size="10.00"># what_</text>
<polyline fill="none" stroke="black" points="620.5,-190.5 730.5,-190.5 "/>
<text text-anchor="start" x="628.5" y="-178.5" font-family="Helvetica,sans-Serif" font-size="10.00">+ Exception()</text>
<text text-anchor="start" x="628.5" y="-167.5" font-family="Helvetica,sans-Serif" font-size="10.00">+ operator=()</text>
<text text-anchor="start" x="628.5" y="-156.5" font-family="Helvetica,sans-Serif" font-size="10.00">+ ~Exception()</text>
<text text-anchor="start" x="628.5" y="-145.5" font-family="Helvetica,sans-Serif" font-size="10.00">+ what()</text>
<text text-anchor="start" x="628.5" y="-134.5" font-family="Helvetica,sans-Serif" font-size="10.00"># Exception()</text>
<text text-anchor="start" x="628.5" y="-123.5" font-family="Helvetica,sans-Serif" font-size="10.00"># Exception()</text>
</g>
<!-- Node3 -->
<g id="node3" class="node"><title>Node3</title>
<g id="a_node3"><a xlink:href="classComPWA_1_1BadConfig.html" target="_top" xlink:title="Config is not complete. ">
<polygon fill="white" stroke="black" points="0,-0.5 0,-79.5 113,-79.5 113,-0.5 0,-0.5"/>
<text text-anchor="middle" x="56.5" y="-67.5" font-family="Helvetica,sans-Serif" font-size="10.00">ComPWA::BadConfig</text>
<polyline fill="none" stroke="black" points="0,-60.5 113,-60.5 "/>
<text text-anchor="middle" x="56.5" y="-48.5" font-family="Helvetica,sans-Serif" font-size="10.00"> </text>
<polyline fill="none" stroke="black" points="0,-41.5 113,-41.5 "/>
<text text-anchor="start" x="8" y="-29.5" font-family="Helvetica,sans-Serif" font-size="10.00">+ BadConfig()</text>
<text text-anchor="start" x="8" y="-18.5" font-family="Helvetica,sans-Serif" font-size="10.00">+ BadConfig()</text>
<text text-anchor="start" x="8" y="-7.5" font-family="Helvetica,sans-Serif" font-size="10.00">+ ~BadConfig()</text>
</a>
</g>
</g>
<!-- Node1&#45;&gt;Node3 -->
<g id="edge2" class="edge"><title>Node1&#45;&gt;Node3</title>
<path fill="none" stroke="midnightblue" d="M610.26,-168.473C504.781,-161.883 291.543,-141.484 122.5,-80 119.373,-78.8627 116.227,-77.5756 113.097,-76.1788"/>
<polygon fill="none" stroke="midnightblue" points="610.241,-171.978 620.433,-169.086 610.662,-164.991 610.241,-171.978"/>
</g>
<!-- Node4 -->
<g id="node4" class="node"><title>Node4</title>
<g id="a_node4"><a xlink:href="classComPWA_1_1BadIndex.html" target="_top" xlink:title="Index out of range. ">
<polygon fill="white" stroke="black" points="131.5,-0.5 131.5,-79.5 239.5,-79.5 239.5,-0.5 131.5,-0.5"/>
<text text-anchor="middle" x="185.5" y="-67.5" font-family="Helvetica,sans-Serif" font-size="10.00">ComPWA::BadIndex</text>
<polyline fill="none" stroke="black" points="131.5,-60.5 239.5,-60.5 "/>
<text text-anchor="middle" x="185.5" y="-48.5" font-family="Helvetica,sans-Serif" font-size="10.00"> </text>
<polyline fill="none" stroke="black" points="131.5,-41.5 239.5,-41.5 "/>
<text text-anchor="start" x="139.5" y="-29.5" font-family="Helvetica,sans-Serif" font-size="10.00">+ BadIndex()</text>
<text text-anchor="start" x="139.5" y="-18.5" font-family="Helvetica,sans-Serif" font-size="10.00">+ BadIndex()</text>
<text text-anchor="start" x="139.5" y="-7.5" font-family="Helvetica,sans-Serif" font-size="10.00">+ ~BadIndex()</text>
</a>
</g>
</g>
<!-- Node1&#45;&gt;Node4 -->
<g id="edge3" class="edge"><title>Node1&#45;&gt;Node4</title>
<path fill="none" stroke="midnightblue" d="M610.407,-164.588C524.883,-153.945 371.163,-129.378 248.5,-80 245.517,-78.7991 242.515,-77.4608 239.528,-76.0234"/>
<polygon fill="none" stroke="midnightblue" points="610.142,-168.082 620.492,-165.818 610.989,-161.133 610.142,-168.082"/>
</g>
<!-- Node5 -->
<g id="node5" class="node"><title>Node5</title>
<g id="a_node5"><a xlink:href="classComPWA_1_1BadParameter.html" target="_top" xlink:title="Parameter not existing. ">
<polygon fill="white" stroke="black" points="258,-0.5 258,-79.5 387,-79.5 387,-0.5 258,-0.5"/>
<text text-anchor="middle" x="322.5" y="-67.5" font-family="Helvetica,sans-Serif" font-size="10.00">ComPWA::BadParameter</text>
<polyline fill="none" stroke="black" points="258,-60.5 387,-60.5 "/>
<text text-anchor="middle" x="322.5" y="-48.5" font-family="Helvetica,sans-Serif" font-size="10.00"> </text>
<polyline fill="none" stroke="black" points="258,-41.5 387,-41.5 "/>
<text text-anchor="start" x="266" y="-29.5" font-family="Helvetica,sans-Serif" font-size="10.00">+ BadParameter()</text>
<text text-anchor="start" x="266" y="-18.5" font-family="Helvetica,sans-Serif" font-size="10.00">+ BadParameter()</text>
<text text-anchor="start" x="266" y="-7.5" font-family="Helvetica,sans-Serif" font-size="10.00">+ ~BadParameter()</text>
</a>
</g>
</g>
<!-- Node1&#45;&gt;Node5 -->
<g id="edge4" class="edge"><title>Node1&#45;&gt;Node5</title>
<path fill="none" stroke="midnightblue" d="M610.849,-153.658C553.567,-137.063 468.151,-110.375 396.5,-80 393.425,-78.6963 390.305,-77.3121 387.173,-75.8723"/>
<polygon fill="none" stroke="midnightblue" points="609.921,-157.034 620.499,-156.436 611.857,-150.307 609.921,-157.034"/>
</g>
<!-- Node6 -->
<g id="node6" class="node"><title>Node6</title>
<g id="a_node6"><a xlink:href="classComPWA_1_1BeyondPhsp.html" target="_top" xlink:title="Data beyond phasespace requested. ">
<polygon fill="white" stroke="black" points="405.5,-0.5 405.5,-79.5 527.5,-79.5 527.5,-0.5 405.5,-0.5"/>
<text text-anchor="middle" x="466.5" y="-67.5" font-family="Helvetica,sans-Serif" font-size="10.00">ComPWA::BeyondPhsp</text>
<polyline fill="none" stroke="black" points="405.5,-60.5 527.5,-60.5 "/>
<text text-anchor="middle" x="466.5" y="-48.5" font-family="Helvetica,sans-Serif" font-size="10.00"> </text>
<polyline fill="none" stroke="black" points="405.5,-41.5 527.5,-41.5 "/>
<text text-anchor="start" x="413.5" y="-29.5" font-family="Helvetica,sans-Serif" font-size="10.00">+ BeyondPhsp()</text>
<text text-anchor="start" x="413.5" y="-18.5" font-family="Helvetica,sans-Serif" font-size="10.00">+ BeyondPhsp()</text>
<text text-anchor="start" x="413.5" y="-7.5" font-family="Helvetica,sans-Serif" font-size="10.00">+ ~BeyondPhsp()</text>
</a>
</g>
</g>
<!-- Node1&#45;&gt;Node6 -->
<g id="edge5" class="edge"><title>Node1&#45;&gt;Node6</title>
<path fill="none" stroke="midnightblue" d="M611.781,-131.714C585.008,-114.996 553.998,-95.6336 527.52,-79.1009"/>
<polygon fill="none" stroke="midnightblue" points="609.978,-134.714 620.314,-137.042 613.686,-128.777 609.978,-134.714"/>
</g>
<!-- Node7 -->
<g id="node7" class="node"><title>Node7</title>
<g id="a_node7"><a xlink:href="classComPWA_1_1CorruptFile.html" target="_top" xlink:title="Input data file is corrupt or incomplete. ">
<polygon fill="white" stroke="black" points="546,-0.5 546,-79.5 661,-79.5 661,-0.5 546,-0.5"/>
<text text-anchor="middle" x="603.5" y="-67.5" font-family="Helvetica,sans-Serif" font-size="10.00">ComPWA::CorruptFile</text>
<polyline fill="none" stroke="black" points="546,-60.5 661,-60.5 "/>
<text text-anchor="middle" x="603.5" y="-48.5" font-family="Helvetica,sans-Serif" font-size="10.00"> </text>
<polyline fill="none" stroke="black" points="546,-41.5 661,-41.5 "/>
<text text-anchor="start" x="554" y="-29.5" font-family="Helvetica,sans-Serif" font-size="10.00">+ CorruptFile()</text>
<text text-anchor="start" x="554" y="-18.5" font-family="Helvetica,sans-Serif" font-size="10.00">+ CorruptFile()</text>
<text text-anchor="start" x="554" y="-7.5" font-family="Helvetica,sans-Serif" font-size="10.00">+ ~CorruptFile()</text>
</a>
</g>
</g>
<!-- Node1&#45;&gt;Node7 -->
<g id="edge6" class="edge"><title>Node1&#45;&gt;Node7</title>
<path fill="none" stroke="midnightblue" d="M640.032,-107.215C634.867,-97.8536 629.688,-88.4661 624.92,-79.823"/>
<polygon fill="none" stroke="midnightblue" points="637.07,-109.091 644.966,-116.156 643.199,-105.71 637.07,-109.091"/>
</g>
<!-- Node8 -->
<g id="node8" class="node"><title>Node8</title>
<g id="a_node8"><a xlink:href="classComPWA_1_1ParameterFixed.html" target="_top" xlink:title="Parameter cannot be changed. ">
<polygon fill="white" stroke="black" points="679.5,-0.5 679.5,-79.5 815.5,-79.5 815.5,-0.5 679.5,-0.5"/>
<text text-anchor="middle" x="747.5" y="-67.5" font-family="Helvetica,sans-Serif" font-size="10.00">ComPWA::ParameterFixed</text>
<polyline fill="none" stroke="black" points="679.5,-60.5 815.5,-60.5 "/>
<text text-anchor="middle" x="747.5" y="-48.5" font-family="Helvetica,sans-Serif" font-size="10.00"> </text>
<polyline fill="none" stroke="black" points="679.5,-41.5 815.5,-41.5 "/>
<text text-anchor="start" x="687.5" y="-29.5" font-family="Helvetica,sans-Serif" font-size="10.00">+ ParameterFixed()</text>
<text text-anchor="start" x="687.5" y="-18.5" font-family="Helvetica,sans-Serif" font-size="10.00">+ ParameterFixed()</text>
<text text-anchor="start" x="687.5" y="-7.5" font-family="Helvetica,sans-Serif" font-size="10.00">+ ~ParameterFixed()</text>
</a>
</g>
</g>
<!-- Node1&#45;&gt;Node8 -->
<g id="edge7" class="edge"><title>Node1&#45;&gt;Node8</title>
<path fill="none" stroke="midnightblue" d="M710.968,-107.215C716.133,-97.8536 721.312,-88.4661 726.08,-79.823"/>
<polygon fill="none" stroke="midnightblue" points="707.801,-105.71 706.034,-116.156 713.93,-109.091 707.801,-105.71"/>
</g>
<!-- Node9 -->
<g id="node9" class="node"><title>Node9</title>
<g id="a_node9"><a xlink:href="classComPWA_1_1ParameterOutOfBound.html" target="_top" xlink:title="Parameter out of bound. ">
<polygon fill="white" stroke="black" points="833.5,-0.5 833.5,-79.5 999.5,-79.5 999.5,-0.5 833.5,-0.5"/>
<text text-anchor="middle" x="916.5" y="-67.5" font-family="Helvetica,sans-Serif" font-size="10.00">ComPWA::ParameterOutOfBound</text>
<polyline fill="none" stroke="black" points="833.5,-60.5 999.5,-60.5 "/>
<text text-anchor="middle" x="916.5" y="-48.5" font-family="Helvetica,sans-Serif" font-size="10.00"> </text>
<polyline fill="none" stroke="black" points="833.5,-41.5 999.5,-41.5 "/>
<text text-anchor="start" x="841.5" y="-29.5" font-family="Helvetica,sans-Serif" font-size="10.00">+ ParameterOutOfBound()</text>
<text text-anchor="start" x="841.5" y="-18.5" font-family="Helvetica,sans-Serif" font-size="10.00">+ ParameterOutOfBound()</text>
<text text-anchor="start" x="841.5" y="-7.5" font-family="Helvetica,sans-Serif" font-size="10.00">+ ~ParameterOutOfBound()</text>
</a>
</g>
</g>
<!-- Node1&#45;&gt;Node9 -->
<g id="edge8" class="edge"><title>Node1&#45;&gt;Node9</title>
<path fill="none" stroke="midnightblue" d="M739.74,-136.715C772.167,-119.155 811.604,-97.8007 844.992,-79.721"/>
<polygon fill="none" stroke="midnightblue" points="737.917,-133.721 730.79,-141.561 741.25,-139.877 737.917,-133.721"/>
</g>
<!-- Node10 -->
<g id="node10" class="node"><title>Node10</title>
<g id="a_node10"><a xlink:href="classComPWA_1_1TreeBuildError.html" target="_top" xlink:title="Error in tree at construction. ">
<polygon fill="white" stroke="black" points="1018,-0.5 1018,-79.5 1147,-79.5 1147,-0.5 1018,-0.5"/>
<text text-anchor="middle" x="1082.5" y="-67.5" font-family="Helvetica,sans-Serif" font-size="10.00">ComPWA::TreeBuildError</text>
<polyline fill="none" stroke="black" points="1018,-60.5 1147,-60.5 "/>
<text text-anchor="middle" x="1082.5" y="-48.5" font-family="Helvetica,sans-Serif" font-size="10.00"> </text>
<polyline fill="none" stroke="black" points="1018,-41.5 1147,-41.5 "/>
<text text-anchor="start" x="1026" y="-29.5" font-family="Helvetica,sans-Serif" font-size="10.00">+ TreeBuildError()</text>
<text text-anchor="start" x="1026" y="-18.5" font-family="Helvetica,sans-Serif" font-size="10.00">+ TreeBuildError()</text>
<text text-anchor="start" x="1026" y="-7.5" font-family="Helvetica,sans-Serif" font-size="10.00">+ ~TreeBuildError()</text>
</a>
</g>
</g>
<!-- Node1&#45;&gt;Node10 -->
<g id="edge9" class="edge"><title>Node1&#45;&gt;Node10</title>
<path fill="none" stroke="midnightblue" d="M740.767,-157.98C808.905,-142.852 918.214,-115.705 1008.5,-80 1011.61,-78.7716 1014.75,-77.4492 1017.9,-76.0595"/>
<polygon fill="none" stroke="midnightblue" points="739.622,-154.648 730.607,-160.214 741.125,-161.485 739.622,-154.648"/>
</g>
<!-- Node11 -->
<g id="node11" class="node"><title>Node11</title>
<g id="a_node11"><a xlink:href="classComPWA_1_1WrongParType.html" target="_top" xlink:title="Parameter of wrong type. ">
<polygon fill="white" stroke="black" points="1165.5,-0.5 1165.5,-79.5 1297.5,-79.5 1297.5,-0.5 1165.5,-0.5"/>
<text text-anchor="middle" x="1231.5" y="-67.5" font-family="Helvetica,sans-Serif" font-size="10.00">ComPWA::WrongParType</text>
<polyline fill="none" stroke="black" points="1165.5,-60.5 1297.5,-60.5 "/>
<text text-anchor="middle" x="1231.5" y="-48.5" font-family="Helvetica,sans-Serif" font-size="10.00"> </text>
<polyline fill="none" stroke="black" points="1165.5,-41.5 1297.5,-41.5 "/>
<text text-anchor="start" x="1173.5" y="-29.5" font-family="Helvetica,sans-Serif" font-size="10.00">+ WrongParType()</text>
<text text-anchor="start" x="1173.5" y="-18.5" font-family="Helvetica,sans-Serif" font-size="10.00">+ WrongParType()</text>
<text text-anchor="start" x="1173.5" y="-7.5" font-family="Helvetica,sans-Serif" font-size="10.00">+ ~WrongParType()</text>
</a>
</g>
</g>
<!-- Node1&#45;&gt;Node11 -->
<g id="edge10" class="edge"><title>Node1&#45;&gt;Node11</title>
<path fill="none" stroke="midnightblue" d="M740.791,-165.181C834.778,-154.731 1012.71,-129.856 1156.5,-80 1159.41,-78.9904 1162.35,-77.884 1165.29,-76.7034"/>
<polygon fill="none" stroke="midnightblue" points="740.142,-161.731 730.582,-166.296 740.902,-168.69 740.142,-161.731"/>
</g>
<!-- Node12 -->
<g id="node12" class="node"><title>Node12</title>
<g id="a_node12"><a xlink:href="classComPWA_1_1WrongVariableID.html" target="_top" xlink:title="Variable not found. ">
<polygon fill="white" stroke="black" points="1316,-0.5 1316,-79.5 1457,-79.5 1457,-0.5 1316,-0.5"/>
<text text-anchor="middle" x="1386.5" y="-67.5" font-family="Helvetica,sans-Serif" font-size="10.00">ComPWA::WrongVariableID</text>
<polyline fill="none" stroke="black" points="1316,-60.5 1457,-60.5 "/>
<text text-anchor="middle" x="1386.5" y="-48.5" font-family="Helvetica,sans-Serif" font-size="10.00"> </text>
<polyline fill="none" stroke="black" points="1316,-41.5 1457,-41.5 "/>
<text text-anchor="start" x="1324" y="-29.5" font-family="Helvetica,sans-Serif" font-size="10.00">+ WrongVariableID()</text>
<text text-anchor="start" x="1324" y="-18.5" font-family="Helvetica,sans-Serif" font-size="10.00">+ WrongVariableID()</text>
<text text-anchor="start" x="1324" y="-7.5" font-family="Helvetica,sans-Serif" font-size="10.00">+ ~WrongVariableID()</text>
</a>
</g>
</g>
<!-- Node1&#45;&gt;Node12 -->
<g id="edge11" class="edge"><title>Node1&#45;&gt;Node12</title>
<path fill="none" stroke="midnightblue" d="M740.925,-168.663C857.155,-162.172 1106.25,-141.68 1306.5,-80 1309.6,-79.0448 1312.73,-77.9839 1315.87,-76.841"/>
<polygon fill="none" stroke="midnightblue" points="740.565,-165.178 730.769,-169.214 740.944,-172.167 740.565,-165.178"/>
</g>
<!-- Node2 -->
<g id="node2" class="node"><title>Node2</title>
<polygon fill="white" stroke="#bfbfbf" points="636.5,-265.5 636.5,-322.5 714.5,-322.5 714.5,-265.5 636.5,-265.5"/>
<text text-anchor="middle" x="675.5" y="-310.5" font-family="Helvetica,sans-Serif" font-size="10.00">std::exception</text>
<polyline fill="none" stroke="#bfbfbf" points="636.5,-303.5 714.5,-303.5 "/>
<text text-anchor="middle" x="675.5" y="-291.5" font-family="Helvetica,sans-Serif" font-size="10.00"> </text>
<polyline fill="none" stroke="#bfbfbf" points="636.5,-284.5 714.5,-284.5 "/>
<text text-anchor="middle" x="675.5" y="-272.5" font-family="Helvetica,sans-Serif" font-size="10.00"> </text>
</g>
<!-- Node2&#45;&gt;Node1 -->
<g id="edge1" class="edge"><title>Node2&#45;&gt;Node1</title>
<path fill="none" stroke="midnightblue" d="M675.5,-255.108C675.5,-246.748 675.5,-237.725 675.5,-228.834"/>
<polygon fill="none" stroke="midnightblue" points="672,-255.284 675.5,-265.284 679,-255.284 672,-255.284"/>
</g>
</g>
</svg>
