<?xml version="1.0" encoding="UTF-8" standalone="no"?>
<!DOCTYPE svg PUBLIC "-//W3C//DTD SVG 1.1//EN"
 "http://www.w3.org/Graphics/SVG/1.1/DTD/svg11.dtd">
<!-- Generated by graphviz version 2.38.0 (20140413.2041)
 -->
<!-- Title: ComPWA::Physics::EvtGen::DalitzKinematics Pages: 1 -->
<svg width="149pt" height="303pt"
 viewBox="0.00 0.00 149.00 303.00" xmlns="http://www.w3.org/2000/svg" xmlns:xlink="http://www.w3.org/1999/xlink">
<g id="graph0" class="graph" transform="scale(1 1) rotate(0) translate(4 299)">
<title>ComPWA::Physics::EvtGen::DalitzKinematics</title>
<polygon fill="white" stroke="none" points="-4,4 -4,-299 145,-299 145,4 -4,4"/>
<!-- Node1 -->
<g id="node1" class="node"><title>Node1</title>
<polygon fill="#bfbfbf" stroke="black" points="0,-0.5 0,-167.5 141,-167.5 141,-0.5 0,-0.5"/>
<text text-anchor="start" x="8" y="-155.5" font-family="Helvetica,sans-Serif" font-size="10.00">ComPWA::Physics::EvtGen</text>
<text text-anchor="middle" x="70.5" y="-144.5" font-family="Helvetica,sans-Serif" font-size="10.00">::DalitzKinematics</text>
<polyline fill="none" stroke="black" points="0,-137.5 141,-137.5 "/>
<text text-anchor="start" x="8" y="-125.5" font-family="Helvetica,sans-Serif" font-size="10.00">&#45; KinematicsInfo</text>
<text text-anchor="start" x="8" y="-114.5" font-family="Helvetica,sans-Serif" font-size="10.00">&#45; PhspVolume</text>
<text text-anchor="start" x="8" y="-103.5" font-family="Helvetica,sans-Serif" font-size="10.00">&#45; M2</text>
<polyline fill="none" stroke="black" points="0,-96.5 141,-96.5 "/>
<text text-anchor="start" x="8" y="-84.5" font-family="Helvetica,sans-Serif" font-size="10.00">+ DalitzKinematics()</text>
<text text-anchor="start" x="8" y="-73.5" font-family="Helvetica,sans-Serif" font-size="10.00">+ DalitzKinematics()</text>
<text text-anchor="start" x="8" y="-62.5" font-family="Helvetica,sans-Serif" font-size="10.00">+ DalitzKinematics()</text>
<text text-anchor="start" x="8" y="-51.5" font-family="Helvetica,sans-Serif" font-size="10.00">+ DalitzKinematics()</text>
<text text-anchor="start" x="8" y="-40.5" font-family="Helvetica,sans-Serif" font-size="10.00">+ DalitzKinematics()</text>
<text text-anchor="start" x="8" y="-29.5" font-family="Helvetica,sans-Serif" font-size="10.00">+ convert()</text>
<text text-anchor="start" x="8" y="-18.5" font-family="Helvetica,sans-Serif" font-size="10.00">+ reduceToPhaseSpace()</text>
<text text-anchor="start" x="8" y="-7.5" font-family="Helvetica,sans-Serif" font-size="10.00">+ phspVolume()</text>
</g>
<!-- Node2 -->
<g id="node2" class="node"><title>Node2</title>
<g id="a_node2"><a xlink:href="classComPWA_1_1Kinematics.html" target="_top" xlink:title="The Kinematics interface is responsible for converting an Event into a DataPoint. ...">
<polygon fill="white" stroke="black" points="6.5,-204.5 6.5,-294.5 134.5,-294.5 134.5,-204.5 6.5,-204.5"/>
<text text-anchor="middle" x="70.5" y="-282.5" font-family="Helvetica,sans-Serif" font-size="10.00">ComPWA::Kinematics</text>
<polyline fill="none" stroke="black" points="6.5,-275.5 134.5,-275.5 "/>
<text text-anchor="middle" x="70.5" y="-263.5" font-family="Helvetica,sans-Serif" font-size="10.00"> </text>
<polyline fill="none" stroke="black" points="6.5,-256.5 134.5,-256.5 "/>
<text text-anchor="start" x="14.5" y="-244.5" font-family="Helvetica,sans-Serif" font-size="10.00">+ ~Kinematics()</text>
<text text-anchor="start" x="14.5" y="-233.5" font-family="Helvetica,sans-Serif" font-size="10.00">+ convert()</text>
<text text-anchor="start" x="14.5" y="-222.5" font-family="Helvetica,sans-Serif" font-size="10.00">+ reduceToPhaseSpace()</text>
<text text-anchor="start" x="14.5" y="-211.5" font-family="Helvetica,sans-Serif" font-size="10.00">+ phspVolume()</text>
</a>
</g>
</g>
<!-- Node2&#45;&gt;Node1 -->
<g id="edge1" class="edge"><title>Node2&#45;&gt;Node1</title>
<path fill="none" stroke="midnightblue" d="M70.5,-194.133C70.5,-185.631 70.5,-176.681 70.5,-167.715"/>
<polygon fill="none" stroke="midnightblue" points="67.0001,-194.255 70.5,-204.255 74.0001,-194.255 67.0001,-194.255"/>
</g>
</g>
</svg>
