<?xml version="1.0" encoding="UTF-8" standalone="no"?>
<!DOCTYPE svg PUBLIC "-//W3C//DTD SVG 1.1//EN"
 "http://www.w3.org/Graphics/SVG/1.1/DTD/svg11.dtd">
<!-- Generated by graphviz version 2.38.0 (20140413.2041)
 -->
<!-- Title: ComPWA::FunctionTree::Strategy Pages: 1 -->
<svg width="2300pt" height="259pt"
 viewBox="0.00 0.00 2299.50 259.00" xmlns="http://www.w3.org/2000/svg" xmlns:xlink="http://www.w3.org/1999/xlink">
<g id="graph0" class="graph" transform="scale(1 1) rotate(0) translate(4 255)">
<title>ComPWA::FunctionTree::Strategy</title>
<polygon fill="white" stroke="none" points="-4,4 -4,-255 2295.5,-255 2295.5,4 -4,4"/>
<!-- Node1 -->
<g id="node1" class="node"><title>Node1</title>
<polygon fill="#bfbfbf" stroke="black" points="1018,-127.5 1018,-250.5 1142,-250.5 1142,-127.5 1018,-127.5"/>
<text text-anchor="start" x="1026" y="-238.5" font-family="Helvetica,sans-Serif" font-size="10.00">ComPWA::FunctionTree</text>
<text text-anchor="middle" x="1080" y="-227.5" font-family="Helvetica,sans-Serif" font-size="10.00">::Strategy</text>
<polyline fill="none" stroke="black" points="1018,-220.5 1142,-220.5 "/>
<text text-anchor="start" x="1026" y="-208.5" font-family="Helvetica,sans-Serif" font-size="10.00"># checkType</text>
<text text-anchor="start" x="1026" y="-197.5" font-family="Helvetica,sans-Serif" font-size="10.00"># Name</text>
<polyline fill="none" stroke="black" points="1018,-190.5 1142,-190.5 "/>
<text text-anchor="start" x="1026" y="-178.5" font-family="Helvetica,sans-Serif" font-size="10.00">+ Strategy()</text>
<text text-anchor="start" x="1026" y="-167.5" font-family="Helvetica,sans-Serif" font-size="10.00">+ ~Strategy()</text>
<text text-anchor="start" x="1026" y="-156.5" font-family="Helvetica,sans-Serif" font-size="10.00">+ OutType()</text>
<text text-anchor="start" x="1026" y="-145.5" font-family="Helvetica,sans-Serif" font-size="10.00">+ execute()</text>
<text text-anchor="start" x="1026" y="-134.5" font-family="Helvetica,sans-Serif" font-size="10.00">+ str()</text>
</g>
<!-- Node2 -->
<g id="node2" class="node"><title>Node2</title>
<g id="a_node2"><a xlink:href="classComPWA_1_1FunctionTree_1_1AbsSquare.html" target="_top" xlink:title="{ComPWA::FunctionTree\l::AbsSquare\n||+ AbsSquare()\l+ ~AbsSquare()\l+ execute()\l}">
<polygon fill="white" stroke="black" points="0,-0.5 0,-90.5 124,-90.5 124,-0.5 0,-0.5"/>
<text text-anchor="start" x="8" y="-78.5" font-family="Helvetica,sans-Serif" font-size="10.00">ComPWA::FunctionTree</text>
<text text-anchor="middle" x="62" y="-67.5" font-family="Helvetica,sans-Serif" font-size="10.00">::AbsSquare</text>
<polyline fill="none" stroke="black" points="0,-60.5 124,-60.5 "/>
<text text-anchor="middle" x="62" y="-48.5" font-family="Helvetica,sans-Serif" font-size="10.00"> </text>
<polyline fill="none" stroke="black" points="0,-41.5 124,-41.5 "/>
<text text-anchor="start" x="8" y="-29.5" font-family="Helvetica,sans-Serif" font-size="10.00">+ AbsSquare()</text>
<text text-anchor="start" x="8" y="-18.5" font-family="Helvetica,sans-Serif" font-size="10.00">+ ~AbsSquare()</text>
<text text-anchor="start" x="8" y="-7.5" font-family="Helvetica,sans-Serif" font-size="10.00">+ execute()</text>
</a>
</g>
</g>
<!-- Node1&#45;&gt;Node2 -->
<g id="edge1" class="edge"><title>Node1&#45;&gt;Node2</title>
<path fill="none" stroke="midnightblue" d="M1007.79,-184.847C815.56,-175.782 294.998,-146.664 133,-91 130.111,-90.0073 127.218,-88.878 124.341,-87.6412"/>
<polygon fill="none" stroke="midnightblue" points="1007.64,-188.343 1017.79,-185.314 1007.96,-181.351 1007.64,-188.343"/>
</g>
<!-- Node3 -->
<g id="node3" class="node"><title>Node3</title>
<g id="a_node3"><a xlink:href="classComPWA_1_1FunctionTree_1_1AddAll.html" target="_top" xlink:title="Calculates the square root of input double values and double parameters. ">
<polygon fill="white" stroke="black" points="142,-0.5 142,-90.5 266,-90.5 266,-0.5 142,-0.5"/>
<text text-anchor="start" x="150" y="-78.5" font-family="Helvetica,sans-Serif" font-size="10.00">ComPWA::FunctionTree</text>
<text text-anchor="middle" x="204" y="-67.5" font-family="Helvetica,sans-Serif" font-size="10.00">::AddAll</text>
<polyline fill="none" stroke="black" points="142,-60.5 266,-60.5 "/>
<text text-anchor="middle" x="204" y="-48.5" font-family="Helvetica,sans-Serif" font-size="10.00"> </text>
<polyline fill="none" stroke="black" points="142,-41.5 266,-41.5 "/>
<text text-anchor="start" x="150" y="-29.5" font-family="Helvetica,sans-Serif" font-size="10.00">+ AddAll()</text>
<text text-anchor="start" x="150" y="-18.5" font-family="Helvetica,sans-Serif" font-size="10.00">+ ~AddAll()</text>
<text text-anchor="start" x="150" y="-7.5" font-family="Helvetica,sans-Serif" font-size="10.00">+ execute()</text>
</a>
</g>
</g>
<!-- Node1&#45;&gt;Node3 -->
<g id="edge2" class="edge"><title>Node1&#45;&gt;Node3</title>
<path fill="none" stroke="midnightblue" d="M1007.73,-183.349C836.354,-171.67 409.61,-138.6 275,-91 272.12,-89.9815 269.234,-88.8307 266.364,-87.5761"/>
<polygon fill="none" stroke="midnightblue" points="1007.7,-186.854 1017.91,-184.038 1008.17,-179.87 1007.7,-186.854"/>
</g>
<!-- Node4 -->
<g id="node4" class="node"><title>Node4</title>
<g id="a_node4"><a xlink:href="classComPWA_1_1FunctionTree_1_1ComplexConjugate.html" target="_top" xlink:title="{ComPWA::FunctionTree\l::ComplexConjugate\n||+ ComplexConjugate()\l+ ~ComplexConjugate()\l+ execute()\l}">
<polygon fill="white" stroke="black" points="284,-0.5 284,-90.5 408,-90.5 408,-0.5 284,-0.5"/>
<text text-anchor="start" x="292" y="-78.5" font-family="Helvetica,sans-Serif" font-size="10.00">ComPWA::FunctionTree</text>
<text text-anchor="middle" x="346" y="-67.5" font-family="Helvetica,sans-Serif" font-size="10.00">::ComplexConjugate</text>
<polyline fill="none" stroke="black" points="284,-60.5 408,-60.5 "/>
<text text-anchor="middle" x="346" y="-48.5" font-family="Helvetica,sans-Serif" font-size="10.00"> </text>
<polyline fill="none" stroke="black" points="284,-41.5 408,-41.5 "/>
<text text-anchor="start" x="292" y="-29.5" font-family="Helvetica,sans-Serif" font-size="10.00">+ ComplexConjugate()</text>
<text text-anchor="start" x="292" y="-18.5" font-family="Helvetica,sans-Serif" font-size="10.00">+ ~ComplexConjugate()</text>
<text text-anchor="start" x="292" y="-7.5" font-family="Helvetica,sans-Serif" font-size="10.00">+ execute()</text>
</a>
</g>
</g>
<!-- Node1&#45;&gt;Node4 -->
<g id="edge3" class="edge"><title>Node1&#45;&gt;Node4</title>
<path fill="none" stroke="midnightblue" d="M1007.41,-187.073C882.827,-183.382 621.944,-166.408 417,-91 414.133,-89.9451 411.259,-88.7638 408.397,-87.484"/>
<polygon fill="none" stroke="midnightblue" points="1007.49,-190.576 1017.59,-187.354 1007.69,-183.579 1007.49,-190.576"/>
</g>
<!-- Node5 -->
<g id="node5" class="node"><title>Node5</title>
<g id="a_node5"><a xlink:href="classComPWA_1_1FunctionTree_1_1Complexify.html" target="_top" xlink:title="{ComPWA::FunctionTree\l::Complexify\n||+ Complexify()\l+ ~Complexify()\l+ execute()\l}">
<polygon fill="white" stroke="black" points="426,-0.5 426,-90.5 550,-90.5 550,-0.5 426,-0.5"/>
<text text-anchor="start" x="434" y="-78.5" font-family="Helvetica,sans-Serif" font-size="10.00">ComPWA::FunctionTree</text>
<text text-anchor="middle" x="488" y="-67.5" font-family="Helvetica,sans-Serif" font-size="10.00">::Complexify</text>
<polyline fill="none" stroke="black" points="426,-60.5 550,-60.5 "/>
<text text-anchor="middle" x="488" y="-48.5" font-family="Helvetica,sans-Serif" font-size="10.00"> </text>
<polyline fill="none" stroke="black" points="426,-41.5 550,-41.5 "/>
<text text-anchor="start" x="434" y="-29.5" font-family="Helvetica,sans-Serif" font-size="10.00">+ Complexify()</text>
<text text-anchor="start" x="434" y="-18.5" font-family="Helvetica,sans-Serif" font-size="10.00">+ ~Complexify()</text>
<text text-anchor="start" x="434" y="-7.5" font-family="Helvetica,sans-Serif" font-size="10.00">+ execute()</text>
</a>
</g>
</g>
<!-- Node1&#45;&gt;Node5 -->
<g id="edge4" class="edge"><title>Node1&#45;&gt;Node5</title>
<path fill="none" stroke="midnightblue" d="M1007.51,-183.106C904.663,-174.266 711.891,-150.647 559,-91 556.018,-89.8368 553.025,-88.5449 550.044,-87.155"/>
<polygon fill="none" stroke="midnightblue" points="1007.53,-186.619 1017.79,-183.965 1008.11,-179.643 1007.53,-186.619"/>
</g>
<!-- Node6 -->
<g id="node6" class="node"><title>Node6</title>
<g id="a_node6"><a xlink:href="classComPWA_1_1FunctionTree_1_1Exp.html" target="_top" xlink:title="{ComPWA::FunctionTree::Exp\n||+ Exp()\l+ ~Exp()\l+ execute()\l}">
<polygon fill="white" stroke="black" points="568.5,-6 568.5,-85 715.5,-85 715.5,-6 568.5,-6"/>
<text text-anchor="middle" x="642" y="-73" font-family="Helvetica,sans-Serif" font-size="10.00">ComPWA::FunctionTree::Exp</text>
<polyline fill="none" stroke="black" points="568.5,-66 715.5,-66 "/>
<text text-anchor="middle" x="642" y="-54" font-family="Helvetica,sans-Serif" font-size="10.00"> </text>
<polyline fill="none" stroke="black" points="568.5,-47 715.5,-47 "/>
<text text-anchor="start" x="576.5" y="-35" font-family="Helvetica,sans-Serif" font-size="10.00">+ Exp()</text>
<text text-anchor="start" x="576.5" y="-24" font-family="Helvetica,sans-Serif" font-size="10.00">+ ~Exp()</text>
<text text-anchor="start" x="576.5" y="-13" font-family="Helvetica,sans-Serif" font-size="10.00">+ execute()</text>
</a>
</g>
</g>
<!-- Node1&#45;&gt;Node6 -->
<g id="edge5" class="edge"><title>Node1&#45;&gt;Node6</title>
<path fill="none" stroke="midnightblue" d="M1007.7,-173.275C934.853,-157.28 819.941,-128.858 725,-91 720.444,-89.1832 715.816,-87.1811 711.195,-85.0621"/>
<polygon fill="none" stroke="midnightblue" points="1007.18,-176.743 1017.7,-175.449 1008.67,-169.903 1007.18,-176.743"/>
</g>
<!-- Node7 -->
<g id="node7" class="node"><title>Node7</title>
<g id="a_node7"><a xlink:href="classComPWA_1_1FunctionTree_1_1Inverse.html" target="_top" xlink:title="Calculates the inverse of input double values and double parameters. ">
<polygon fill="white" stroke="black" points="734,-0.5 734,-90.5 858,-90.5 858,-0.5 734,-0.5"/>
<text text-anchor="start" x="742" y="-78.5" font-family="Helvetica,sans-Serif" font-size="10.00">ComPWA::FunctionTree</text>
<text text-anchor="middle" x="796" y="-67.5" font-family="Helvetica,sans-Serif" font-size="10.00">::Inverse</text>
<polyline fill="none" stroke="black" points="734,-60.5 858,-60.5 "/>
<text text-anchor="middle" x="796" y="-48.5" font-family="Helvetica,sans-Serif" font-size="10.00"> </text>
<polyline fill="none" stroke="black" points="734,-41.5 858,-41.5 "/>
<text text-anchor="start" x="742" y="-29.5" font-family="Helvetica,sans-Serif" font-size="10.00">+ Inverse()</text>
<text text-anchor="start" x="742" y="-18.5" font-family="Helvetica,sans-Serif" font-size="10.00">+ ~Inverse()</text>
<text text-anchor="start" x="742" y="-7.5" font-family="Helvetica,sans-Serif" font-size="10.00">+ execute()</text>
</a>
</g>
</g>
<!-- Node1&#45;&gt;Node7 -->
<g id="edge6" class="edge"><title>Node1&#45;&gt;Node7</title>
<path fill="none" stroke="midnightblue" d="M1008.6,-158.304C966.686,-140.181 913.075,-115.789 867,-91 864.053,-89.4147 861.063,-87.7551 858.061,-86.0473"/>
<polygon fill="none" stroke="midnightblue" points="1007.33,-161.568 1017.9,-162.306 1010.09,-155.138 1007.33,-161.568"/>
</g>
<!-- Node8 -->
<g id="node8" class="node"><title>Node8</title>
<g id="a_node8"><a xlink:href="classComPWA_1_1FunctionTree_1_1LogOf.html" target="_top" xlink:title="{ComPWA::FunctionTree\l::LogOf\n||+ LogOf()\l+ ~LogOf()\l+ execute()\l}">
<polygon fill="white" stroke="black" points="876,-0.5 876,-90.5 1000,-90.5 1000,-0.5 876,-0.5"/>
<text text-anchor="start" x="884" y="-78.5" font-family="Helvetica,sans-Serif" font-size="10.00">ComPWA::FunctionTree</text>
<text text-anchor="middle" x="938" y="-67.5" font-family="Helvetica,sans-Serif" font-size="10.00">::LogOf</text>
<polyline fill="none" stroke="black" points="876,-60.5 1000,-60.5 "/>
<text text-anchor="middle" x="938" y="-48.5" font-family="Helvetica,sans-Serif" font-size="10.00"> </text>
<polyline fill="none" stroke="black" points="876,-41.5 1000,-41.5 "/>
<text text-anchor="start" x="884" y="-29.5" font-family="Helvetica,sans-Serif" font-size="10.00">+ LogOf()</text>
<text text-anchor="start" x="884" y="-18.5" font-family="Helvetica,sans-Serif" font-size="10.00">+ ~LogOf()</text>
<text text-anchor="start" x="884" y="-7.5" font-family="Helvetica,sans-Serif" font-size="10.00">+ execute()</text>
</a>
</g>
</g>
<!-- Node1&#45;&gt;Node8 -->
<g id="edge7" class="edge"><title>Node1&#45;&gt;Node8</title>
<path fill="none" stroke="midnightblue" d="M1011.7,-119.937C1001.69,-109.971 991.622,-99.933 982.273,-90.6168"/>
<polygon fill="none" stroke="midnightblue" points="1009.4,-122.591 1018.96,-127.17 1014.34,-117.632 1009.4,-122.591"/>
</g>
<!-- Node9 -->
<g id="node9" class="node"><title>Node9</title>
<g id="a_node9"><a xlink:href="classComPWA_1_1FunctionTree_1_1MultAll.html" target="_top" xlink:title="{ComPWA::FunctionTree\l::MultAll\n||+ MultAll()\l+ ~MultAll()\l+ execute()\l}">
<polygon fill="white" stroke="black" points="1018,-0.5 1018,-90.5 1142,-90.5 1142,-0.5 1018,-0.5"/>
<text text-anchor="start" x="1026" y="-78.5" font-family="Helvetica,sans-Serif" font-size="10.00">ComPWA::FunctionTree</text>
<text text-anchor="middle" x="1080" y="-67.5" font-family="Helvetica,sans-Serif" font-size="10.00">::MultAll</text>
<polyline fill="none" stroke="black" points="1018,-60.5 1142,-60.5 "/>
<text text-anchor="middle" x="1080" y="-48.5" font-family="Helvetica,sans-Serif" font-size="10.00"> </text>
<polyline fill="none" stroke="black" points="1018,-41.5 1142,-41.5 "/>
<text text-anchor="start" x="1026" y="-29.5" font-family="Helvetica,sans-Serif" font-size="10.00">+ MultAll()</text>
<text text-anchor="start" x="1026" y="-18.5" font-family="Helvetica,sans-Serif" font-size="10.00">+ ~MultAll()</text>
<text text-anchor="start" x="1026" y="-7.5" font-family="Helvetica,sans-Serif" font-size="10.00">+ execute()</text>
</a>
</g>
</g>
<!-- Node1&#45;&gt;Node9 -->
<g id="edge8" class="edge"><title>Node1&#45;&gt;Node9</title>
<path fill="none" stroke="midnightblue" d="M1080,-117.033C1080,-108.028 1080,-99.0285 1080,-90.6168"/>
<polygon fill="none" stroke="midnightblue" points="1076.5,-117.17 1080,-127.17 1083.5,-117.17 1076.5,-117.17"/>
</g>
<!-- Node10 -->
<g id="node10" class="node"><title>Node10</title>
<g id="a_node10"><a xlink:href="classComPWA_1_1FunctionTree_1_1Pow.html" target="_top" xlink:title="{ComPWA::FunctionTree::Pow\n|&#45; power\l|+ Pow()\l+ ~Pow()\l+ execute()\l}">
<polygon fill="white" stroke="black" points="1159.5,-6 1159.5,-85 1308.5,-85 1308.5,-6 1159.5,-6"/>
<text text-anchor="middle" x="1234" y="-73" font-family="Helvetica,sans-Serif" font-size="10.00">ComPWA::FunctionTree::Pow</text>
<polyline fill="none" stroke="black" points="1159.5,-66 1308.5,-66 "/>
<text text-anchor="start" x="1167.5" y="-54" font-family="Helvetica,sans-Serif" font-size="10.00">&#45; power</text>
<polyline fill="none" stroke="black" points="1159.5,-47 1308.5,-47 "/>
<text text-anchor="start" x="1167.5" y="-35" font-family="Helvetica,sans-Serif" font-size="10.00">+ Pow()</text>
<text text-anchor="start" x="1167.5" y="-24" font-family="Helvetica,sans-Serif" font-size="10.00">+ ~Pow()</text>
<text text-anchor="start" x="1167.5" y="-13" font-family="Helvetica,sans-Serif" font-size="10.00">+ execute()</text>
</a>
</g>
</g>
<!-- Node1&#45;&gt;Node10 -->
<g id="edge9" class="edge"><title>Node1&#45;&gt;Node10</title>
<path fill="none" stroke="midnightblue" d="M1149.68,-123.974C1164.08,-110.744 1178.82,-97.1968 1191.87,-85.2064"/>
<polygon fill="none" stroke="midnightblue" points="1147.19,-121.511 1142.19,-130.854 1151.93,-126.666 1147.19,-121.511"/>
</g>
<!-- Node11 -->
<g id="node11" class="node"><title>Node11</title>
<g id="a_node11"><a xlink:href="classComPWA_1_1FunctionTree_1_1SquareRoot.html" target="_top" xlink:title="Calculates the square root of input double values and double parameters. ">
<polygon fill="white" stroke="black" points="1326,-0.5 1326,-90.5 1450,-90.5 1450,-0.5 1326,-0.5"/>
<text text-anchor="start" x="1334" y="-78.5" font-family="Helvetica,sans-Serif" font-size="10.00">ComPWA::FunctionTree</text>
<text text-anchor="middle" x="1388" y="-67.5" font-family="Helvetica,sans-Serif" font-size="10.00">::SquareRoot</text>
<polyline fill="none" stroke="black" points="1326,-60.5 1450,-60.5 "/>
<text text-anchor="middle" x="1388" y="-48.5" font-family="Helvetica,sans-Serif" font-size="10.00"> </text>
<polyline fill="none" stroke="black" points="1326,-41.5 1450,-41.5 "/>
<text text-anchor="start" x="1334" y="-29.5" font-family="Helvetica,sans-Serif" font-size="10.00">+ SquareRoot()</text>
<text text-anchor="start" x="1334" y="-18.5" font-family="Helvetica,sans-Serif" font-size="10.00">+ ~SquareRoot()</text>
<text text-anchor="start" x="1334" y="-7.5" font-family="Helvetica,sans-Serif" font-size="10.00">+ execute()</text>
</a>
</g>
</g>
<!-- Node1&#45;&gt;Node11 -->
<g id="edge10" class="edge"><title>Node1&#45;&gt;Node11</title>
<path fill="none" stroke="midnightblue" d="M1151.39,-162.738C1199.46,-144.806 1263.73,-119.02 1318,-91 1320.56,-89.6786 1323.15,-88.2921 1325.74,-86.8587"/>
<polygon fill="none" stroke="midnightblue" points="1150.16,-159.461 1142,-166.218 1152.6,-166.024 1150.16,-159.461"/>
</g>
<!-- Node12 -->
<g id="node12" class="node"><title>Node12</title>
<g id="a_node12"><a xlink:href="classComPWA_1_1Physics_1_1Dynamics_1_1BreitWignerStrategy.html" target="_top" xlink:title="{ComPWA::Physics::Dynamics\l::BreitWignerStrategy\n|&#45; FormFactorFunctor\l&#45; BWFunction\l|+ BreitWignerStrategy()\l+ execute()\l}">
<polygon fill="white" stroke="black" points="1468,-0.5 1468,-90.5 1620,-90.5 1620,-0.5 1468,-0.5"/>
<text text-anchor="start" x="1476" y="-78.5" font-family="Helvetica,sans-Serif" font-size="10.00">ComPWA::Physics::Dynamics</text>
<text text-anchor="middle" x="1544" y="-67.5" font-family="Helvetica,sans-Serif" font-size="10.00">::BreitWignerStrategy</text>
<polyline fill="none" stroke="black" points="1468,-60.5 1620,-60.5 "/>
<text text-anchor="start" x="1476" y="-48.5" font-family="Helvetica,sans-Serif" font-size="10.00">&#45; FormFactorFunctor</text>
<text text-anchor="start" x="1476" y="-37.5" font-family="Helvetica,sans-Serif" font-size="10.00">&#45; BWFunction</text>
<polyline fill="none" stroke="black" points="1468,-30.5 1620,-30.5 "/>
<text text-anchor="start" x="1476" y="-18.5" font-family="Helvetica,sans-Serif" font-size="10.00">+ BreitWignerStrategy()</text>
<text text-anchor="start" x="1476" y="-7.5" font-family="Helvetica,sans-Serif" font-size="10.00">+ execute()</text>
</a>
</g>
</g>
<!-- Node1&#45;&gt;Node12 -->
<g id="edge11" class="edge"><title>Node1&#45;&gt;Node12</title>
<path fill="none" stroke="midnightblue" d="M1152.2,-174.718C1229.62,-159.288 1355.38,-130.765 1459,-91 1461.95,-89.8661 1464.94,-88.6554 1467.93,-87.3855"/>
<polygon fill="none" stroke="midnightblue" points="1151.21,-171.347 1142.07,-176.717 1152.56,-178.215 1151.21,-171.347"/>
</g>
<!-- Node13 -->
<g id="node13" class="node"><title>Node13</title>
<g id="a_node13"><a xlink:href="classComPWA_1_1Physics_1_1Dynamics_1_1FlatteStrategy.html" target="_top" xlink:title="{ComPWA::Physics::Dynamics\l::FlatteStrategy\n|&#45; FormFactorFunctor\l|+ FlatteStrategy()\l+ execute()\l}">
<polygon fill="white" stroke="black" points="1638,-6 1638,-85 1790,-85 1790,-6 1638,-6"/>
<text text-anchor="start" x="1646" y="-73" font-family="Helvetica,sans-Serif" font-size="10.00">ComPWA::Physics::Dynamics</text>
<text text-anchor="middle" x="1714" y="-62" font-family="Helvetica,sans-Serif" font-size="10.00">::FlatteStrategy</text>
<polyline fill="none" stroke="black" points="1638,-55 1790,-55 "/>
<text text-anchor="start" x="1646" y="-43" font-family="Helvetica,sans-Serif" font-size="10.00">&#45; FormFactorFunctor</text>
<polyline fill="none" stroke="black" points="1638,-36 1790,-36 "/>
<text text-anchor="start" x="1646" y="-24" font-family="Helvetica,sans-Serif" font-size="10.00">+ FlatteStrategy()</text>
<text text-anchor="start" x="1646" y="-13" font-family="Helvetica,sans-Serif" font-size="10.00">+ execute()</text>
</a>
</g>
</g>
<!-- Node1&#45;&gt;Node13 -->
<g id="edge12" class="edge"><title>Node1&#45;&gt;Node13</title>
<path fill="none" stroke="midnightblue" d="M1152.07,-182.365C1258.7,-172.457 1463.71,-147.356 1629,-91 1634.05,-89.2799 1639.16,-87.2945 1644.24,-85.1371"/>
<polygon fill="none" stroke="midnightblue" points="1151.7,-178.884 1142.06,-183.277 1152.33,-185.855 1151.7,-178.884"/>
</g>
<!-- Node14 -->
<g id="node14" class="node"><title>Node14</title>
<g id="a_node14"><a xlink:href="classComPWA_1_1Physics_1_1Dynamics_1_1FormFactorStrategy.html" target="_top" xlink:title="{ComPWA::Physics::Dynamics\l::FormFactorStrategy\n|&#45; FormFactorFunctor\l|+ FormFactorStrategy()\l+ execute()\l}">
<polygon fill="white" stroke="black" points="1808,-6 1808,-85 1960,-85 1960,-6 1808,-6"/>
<text text-anchor="start" x="1816" y="-73" font-family="Helvetica,sans-Serif" font-size="10.00">ComPWA::Physics::Dynamics</text>
<text text-anchor="middle" x="1884" y="-62" font-family="Helvetica,sans-Serif" font-size="10.00">::FormFactorStrategy</text>
<polyline fill="none" stroke="black" points="1808,-55 1960,-55 "/>
<text text-anchor="start" x="1816" y="-43" font-family="Helvetica,sans-Serif" font-size="10.00">&#45; FormFactorFunctor</text>
<polyline fill="none" stroke="black" points="1808,-36 1960,-36 "/>
<text text-anchor="start" x="1816" y="-24" font-family="Helvetica,sans-Serif" font-size="10.00">+ FormFactorStrategy()</text>
<text text-anchor="start" x="1816" y="-13" font-family="Helvetica,sans-Serif" font-size="10.00">+ execute()</text>
</a>
</g>
</g>
<!-- Node1&#45;&gt;Node14 -->
<g id="edge13" class="edge"><title>Node1&#45;&gt;Node14</title>
<path fill="none" stroke="midnightblue" d="M1152.54,-186.483C1284.32,-181.93 1570.54,-163.727 1799,-91 1804.24,-89.3326 1809.54,-87.3556 1814.8,-85.1766"/>
<polygon fill="none" stroke="midnightblue" points="1152.05,-182.997 1142.17,-186.824 1152.28,-189.993 1152.05,-182.997"/>
</g>
<!-- Node15 -->
<g id="node15" class="node"><title>Node15</title>
<g id="a_node15"><a xlink:href="classComPWA_1_1Physics_1_1Dynamics_1_1VoigtianStrategy.html" target="_top" xlink:title="{ComPWA::Physics::Dynamics\l::VoigtianStrategy\n||+ VoigtianStrategy()\l+ execute()\l}">
<polygon fill="white" stroke="black" points="1978,-6 1978,-85 2130,-85 2130,-6 1978,-6"/>
<text text-anchor="start" x="1986" y="-73" font-family="Helvetica,sans-Serif" font-size="10.00">ComPWA::Physics::Dynamics</text>
<text text-anchor="middle" x="2054" y="-62" font-family="Helvetica,sans-Serif" font-size="10.00">::VoigtianStrategy</text>
<polyline fill="none" stroke="black" points="1978,-55 2130,-55 "/>
<text text-anchor="middle" x="2054" y="-43" font-family="Helvetica,sans-Serif" font-size="10.00"> </text>
<polyline fill="none" stroke="black" points="1978,-36 2130,-36 "/>
<text text-anchor="start" x="1986" y="-24" font-family="Helvetica,sans-Serif" font-size="10.00">+ VoigtianStrategy()</text>
<text text-anchor="start" x="1986" y="-13" font-family="Helvetica,sans-Serif" font-size="10.00">+ execute()</text>
</a>
</g>
</g>
<!-- Node1&#45;&gt;Node15 -->
<g id="edge14" class="edge"><title>Node1&#45;&gt;Node15</title>
<path fill="none" stroke="midnightblue" d="M1152.34,-183.587C1335.98,-171.83 1816.4,-137.453 1969,-91 1974.42,-89.3508 1979.9,-87.3547 1985.32,-85.133"/>
<polygon fill="none" stroke="midnightblue" points="1152.01,-180.101 1142.25,-184.229 1152.45,-187.087 1152.01,-180.101"/>
</g>
<!-- Node16 -->
<g id="node16" class="node"><title>Node16</title>
<g id="a_node16"><a xlink:href="classComPWA_1_1Physics_1_1HelicityFormalism_1_1WignerDStrategy.html" target="_top" xlink:title="{ComPWA::Physics::Helicity\lFormalism::WignerDStrategy\n||+ WignerDStrategy()\l+ execute()\l}">
<polygon fill="white" stroke="black" points="2148.5,-6 2148.5,-85 2291.5,-85 2291.5,-6 2148.5,-6"/>
<text text-anchor="start" x="2156.5" y="-73" font-family="Helvetica,sans-Serif" font-size="10.00">ComPWA::Physics::Helicity</text>
<text text-anchor="middle" x="2220" y="-62" font-family="Helvetica,sans-Serif" font-size="10.00">Formalism::WignerDStrategy</text>
<polyline fill="none" stroke="black" points="2148.5,-55 2291.5,-55 "/>
<text text-anchor="middle" x="2220" y="-43" font-family="Helvetica,sans-Serif" font-size="10.00"> </text>
<polyline fill="none" stroke="black" points="2148.5,-36 2291.5,-36 "/>
<text text-anchor="start" x="2156.5" y="-24" font-family="Helvetica,sans-Serif" font-size="10.00">+ WignerDStrategy()</text>
<text text-anchor="start" x="2156.5" y="-13" font-family="Helvetica,sans-Serif" font-size="10.00">+ execute()</text>
</a>
</g>
</g>
<!-- Node1&#45;&gt;Node16 -->
<g id="edge15" class="edge"><title>Node1&#45;&gt;Node16</title>
<path fill="none" stroke="midnightblue" d="M1152.47,-185.217C1360.02,-176.639 1953.66,-147.693 2139,-91 2144.37,-89.3573 2149.79,-87.332 2155.13,-85.0594"/>
<polygon fill="none" stroke="midnightblue" points="1152.14,-181.727 1142.29,-185.634 1152.42,-188.722 1152.14,-181.727"/>
</g>
</g>
</svg>
