<?xml version="1.0" encoding="UTF-8" standalone="no"?>
<!DOCTYPE svg PUBLIC "-//W3C//DTD SVG 1.1//EN"
 "http://www.w3.org/Graphics/SVG/1.1/DTD/svg11.dtd">
<!-- Generated by graphviz version 2.38.0 (20140413.2041)
 -->
<!-- Title: ComPWA::FunctionTree::FunctionTreeIntensity Pages: 1 -->
<svg width="142pt" height="314pt"
 viewBox="0.00 0.00 142.00 314.00" xmlns="http://www.w3.org/2000/svg" xmlns:xlink="http://www.w3.org/1999/xlink">
<g id="graph0" class="graph" transform="scale(1 1) rotate(0) translate(4 310)">
<title>ComPWA::FunctionTree::FunctionTreeIntensity</title>
<polygon fill="white" stroke="none" points="-4,4 -4,-310 138,-310 138,4 -4,4"/>
<!-- Node1 -->
<g id="node1" class="node"><title>Node1</title>
<polygon fill="#bfbfbf" stroke="black" points="0,-0.5 0,-178.5 134,-178.5 134,-0.5 0,-0.5"/>
<text text-anchor="start" x="8" y="-166.5" font-family="Helvetica,sans-Serif" font-size="10.00">ComPWA::FunctionTree</text>
<text text-anchor="middle" x="67" y="-155.5" font-family="Helvetica,sans-Serif" font-size="10.00">::FunctionTreeIntensity</text>
<polyline fill="none" stroke="black" points="0,-148.5 134,-148.5 "/>
<text text-anchor="start" x="8" y="-136.5" font-family="Helvetica,sans-Serif" font-size="10.00">&#45; Tree</text>
<text text-anchor="start" x="8" y="-125.5" font-family="Helvetica,sans-Serif" font-size="10.00">&#45; Parameters</text>
<text text-anchor="start" x="8" y="-114.5" font-family="Helvetica,sans-Serif" font-size="10.00">&#45; Data</text>
<polyline fill="none" stroke="black" points="0,-107.5 134,-107.5 "/>
<text text-anchor="start" x="8" y="-95.5" font-family="Helvetica,sans-Serif" font-size="10.00">+ FunctionTreeIntensity()</text>
<text text-anchor="start" x="8" y="-84.5" font-family="Helvetica,sans-Serif" font-size="10.00">+ FunctionTreeIntensity()</text>
<text text-anchor="start" x="8" y="-73.5" font-family="Helvetica,sans-Serif" font-size="10.00">+ FunctionTreeIntensity()</text>
<text text-anchor="start" x="8" y="-62.5" font-family="Helvetica,sans-Serif" font-size="10.00">+ evaluate()</text>
<text text-anchor="start" x="8" y="-51.5" font-family="Helvetica,sans-Serif" font-size="10.00">+ updateParametersFrom()</text>
<text text-anchor="start" x="8" y="-40.5" font-family="Helvetica,sans-Serif" font-size="10.00">+ getParameters()</text>
<text text-anchor="start" x="8" y="-29.5" font-family="Helvetica,sans-Serif" font-size="10.00">+ bind()</text>
<text text-anchor="start" x="8" y="-18.5" font-family="Helvetica,sans-Serif" font-size="10.00">+ print()</text>
<text text-anchor="start" x="8" y="-7.5" font-family="Helvetica,sans-Serif" font-size="10.00">&#45; updateDataContainers()</text>
</g>
<!-- Node2 -->
<g id="node2" class="node"><title>Node2</title>
<g id="a_node2"><a xlink:href="classComPWA_1_1Function.html" target="_top" xlink:title="Interface template for a general Function of the form OutputType Function(InputTypes) The concept clo...">
<polygon fill="white" stroke="black" points="0,-215.5 0,-305.5 134,-305.5 134,-215.5 0,-215.5"/>
<text text-anchor="middle" x="67" y="-293.5" font-family="Helvetica,sans-Serif" font-size="10.00">Intensity</text>
<polyline fill="none" stroke="black" points="0,-286.5 134,-286.5 "/>
<text text-anchor="middle" x="67" y="-274.5" font-family="Helvetica,sans-Serif" font-size="10.00"> </text>
<polyline fill="none" stroke="black" points="0,-267.5 134,-267.5 "/>
<text text-anchor="start" x="8" y="-255.5" font-family="Helvetica,sans-Serif" font-size="10.00">+ ~Function()</text>
<text text-anchor="start" x="8" y="-244.5" font-family="Helvetica,sans-Serif" font-size="10.00">+ evaluate()</text>
<text text-anchor="start" x="8" y="-233.5" font-family="Helvetica,sans-Serif" font-size="10.00">+ updateParametersFrom()</text>
<text text-anchor="start" x="8" y="-222.5" font-family="Helvetica,sans-Serif" font-size="10.00">+ getParameters()</text>
</a>
</g>
</g>
<!-- Node2&#45;&gt;Node1 -->
<g id="edge1" class="edge"><title>Node2&#45;&gt;Node1</title>
<path fill="none" stroke="midnightblue" d="M67,-205.062C67,-196.626 67,-187.73 67,-178.778"/>
<polygon fill="none" stroke="midnightblue" points="63.5001,-205.097 67,-215.097 70.5001,-205.097 63.5001,-205.097"/>
</g>
</g>
</svg>
