<?xml version="1.0" encoding="UTF-8" standalone="no"?>
<!DOCTYPE svg PUBLIC "-//W3C//DTD SVG 1.1//EN"
 "http://www.w3.org/Graphics/SVG/1.1/DTD/svg11.dtd">
<!-- Generated by graphviz version 2.38.0 (20140413.2041)
 -->
<!-- Title: ComPWA::Data::DataCorrection Pages: 1 -->
<svg width="372pt" height="248pt"
 viewBox="0.00 0.00 371.50 248.00" xmlns="http://www.w3.org/2000/svg" xmlns:xlink="http://www.w3.org/1999/xlink">
<g id="graph0" class="graph" transform="scale(1 1) rotate(0) translate(4 244)">
<title>ComPWA::Data::DataCorrection</title>
<polygon fill="white" stroke="none" points="-4,4 -4,-244 367.5,-244 367.5,4 -4,4"/>
<!-- Node1 -->
<g id="node1" class="node"><title>Node1</title>
<polygon fill="#bfbfbf" stroke="black" points="109,-171.5 109,-239.5 269,-239.5 269,-171.5 109,-171.5"/>
<text text-anchor="middle" x="189" y="-227.5" font-family="Helvetica,sans-Serif" font-size="10.00">ComPWA::Data::DataCorrection</text>
<polyline fill="none" stroke="black" points="109,-220.5 269,-220.5 "/>
<text text-anchor="middle" x="189" y="-208.5" font-family="Helvetica,sans-Serif" font-size="10.00"> </text>
<polyline fill="none" stroke="black" points="109,-201.5 269,-201.5 "/>
<text text-anchor="start" x="117" y="-189.5" font-family="Helvetica,sans-Serif" font-size="10.00">+ ~DataCorrection()</text>
<text text-anchor="start" x="117" y="-178.5" font-family="Helvetica,sans-Serif" font-size="10.00">+ correction()</text>
</g>
<!-- Node2 -->
<g id="node2" class="node"><title>Node2</title>
<g id="a_node2"><a xlink:href="classComPWA_1_1Data_1_1MomentumCorrection.html" target="_top" xlink:title="{ComPWA::Data::MomentumCorrection\n|&#45; PartList\l&#45; Corrections\l&#45; Title\l|+ MomentumCorrection()\l+ ~MomentumCorrection()\l+ correction()\l+ operator()()\l+ title()\l+ setTitle()\l}">
<polygon fill="white" stroke="black" points="0,-0.5 0,-134.5 188,-134.5 188,-0.5 0,-0.5"/>
<text text-anchor="middle" x="94" y="-122.5" font-family="Helvetica,sans-Serif" font-size="10.00">ComPWA::Data::MomentumCorrection</text>
<polyline fill="none" stroke="black" points="0,-115.5 188,-115.5 "/>
<text text-anchor="start" x="8" y="-103.5" font-family="Helvetica,sans-Serif" font-size="10.00">&#45; PartList</text>
<text text-anchor="start" x="8" y="-92.5" font-family="Helvetica,sans-Serif" font-size="10.00">&#45; Corrections</text>
<text text-anchor="start" x="8" y="-81.5" font-family="Helvetica,sans-Serif" font-size="10.00">&#45; Title</text>
<polyline fill="none" stroke="black" points="0,-74.5 188,-74.5 "/>
<text text-anchor="start" x="8" y="-62.5" font-family="Helvetica,sans-Serif" font-size="10.00">+ MomentumCorrection()</text>
<text text-anchor="start" x="8" y="-51.5" font-family="Helvetica,sans-Serif" font-size="10.00">+ ~MomentumCorrection()</text>
<text text-anchor="start" x="8" y="-40.5" font-family="Helvetica,sans-Serif" font-size="10.00">+ correction()</text>
<text text-anchor="start" x="8" y="-29.5" font-family="Helvetica,sans-Serif" font-size="10.00">+ operator()()</text>
<text text-anchor="start" x="8" y="-18.5" font-family="Helvetica,sans-Serif" font-size="10.00">+ title()</text>
<text text-anchor="start" x="8" y="-7.5" font-family="Helvetica,sans-Serif" font-size="10.00">+ setTitle()</text>
</a>
</g>
</g>
<!-- Node1&#45;&gt;Node2 -->
<g id="edge1" class="edge"><title>Node1&#45;&gt;Node2</title>
<path fill="none" stroke="midnightblue" d="M159.944,-162.903C153.697,-153.961 146.947,-144.298 140.231,-134.683"/>
<polygon fill="none" stroke="midnightblue" points="157.165,-165.037 165.76,-171.231 162.903,-161.028 157.165,-165.037"/>
</g>
<!-- Node3 -->
<g id="node3" class="node"><title>Node3</title>
<g id="a_node3"><a xlink:href="classComPWA_1_1Data_1_1UnitCorrection.html" target="_top" xlink:title="{ComPWA::Data::UnitCorrection\n||+ ~UnitCorrection()\l+ correction()\l}">
<polygon fill="white" stroke="black" points="206.5,-33.5 206.5,-101.5 363.5,-101.5 363.5,-33.5 206.5,-33.5"/>
<text text-anchor="middle" x="285" y="-89.5" font-family="Helvetica,sans-Serif" font-size="10.00">ComPWA::Data::UnitCorrection</text>
<polyline fill="none" stroke="black" points="206.5,-82.5 363.5,-82.5 "/>
<text text-anchor="middle" x="285" y="-70.5" font-family="Helvetica,sans-Serif" font-size="10.00"> </text>
<polyline fill="none" stroke="black" points="206.5,-63.5 363.5,-63.5 "/>
<text text-anchor="start" x="214.5" y="-51.5" font-family="Helvetica,sans-Serif" font-size="10.00">+ ~UnitCorrection()</text>
<text text-anchor="start" x="214.5" y="-40.5" font-family="Helvetica,sans-Serif" font-size="10.00">+ correction()</text>
</a>
</g>
</g>
<!-- Node1&#45;&gt;Node3 -->
<g id="edge2" class="edge"><title>Node1&#45;&gt;Node3</title>
<path fill="none" stroke="midnightblue" d="M218.433,-162.803C232.232,-143.254 248.452,-120.277 261.425,-101.897"/>
<polygon fill="none" stroke="midnightblue" points="215.392,-161.043 212.484,-171.231 221.111,-165.079 215.392,-161.043"/>
</g>
</g>
</svg>
