<?xml version="1.0" encoding="UTF-8" standalone="no"?>
<!DOCTYPE svg PUBLIC "-//W3C//DTD SVG 1.1//EN"
 "http://www.w3.org/Graphics/SVG/1.1/DTD/svg11.dtd">
<!-- Generated by graphviz version 2.38.0 (20140413.2041)
 -->
<!-- Title: ComPWA::Resolution Pages: 1 -->
<svg width="141pt" height="226pt"
 viewBox="0.00 0.00 141.00 226.00" xmlns="http://www.w3.org/2000/svg" xmlns:xlink="http://www.w3.org/1999/xlink">
<g id="graph0" class="graph" transform="scale(1 1) rotate(0) translate(4 222)">
<title>ComPWA::Resolution</title>
<polygon fill="white" stroke="none" points="-4,4 -4,-222 137,-222 137,4 -4,4"/>
<!-- Node1 -->
<g id="node1" class="node"><title>Node1</title>
<polygon fill="#bfbfbf" stroke="black" points="10,-127.5 10,-217.5 123,-217.5 123,-127.5 10,-127.5"/>
<text text-anchor="middle" x="66.5" y="-205.5" font-family="Helvetica,sans-Serif" font-size="10.00">ComPWA::Resolution</text>
<polyline fill="none" stroke="black" points="10,-198.5 123,-198.5 "/>
<text text-anchor="middle" x="66.5" y="-186.5" font-family="Helvetica,sans-Serif" font-size="10.00"> </text>
<polyline fill="none" stroke="black" points="10,-179.5 123,-179.5 "/>
<text text-anchor="start" x="18" y="-167.5" font-family="Helvetica,sans-Serif" font-size="10.00">+ Resolution()</text>
<text text-anchor="start" x="18" y="-156.5" font-family="Helvetica,sans-Serif" font-size="10.00">+ ~Resolution()</text>
<text text-anchor="start" x="18" y="-145.5" font-family="Helvetica,sans-Serif" font-size="10.00">+ resolution()</text>
<text text-anchor="start" x="18" y="-134.5" font-family="Helvetica,sans-Serif" font-size="10.00">+ resolution()</text>
</g>
<!-- Node2 -->
<g id="node2" class="node"><title>Node2</title>
<g id="a_node2"><a xlink:href="classComPWA_1_1ZeroResolution.html" target="_top" xlink:title="{ComPWA::ZeroResolution\n||+ ZeroResolution()\l+ ~ZeroResolution()\l+ resolution()\l+ resolution()\l}">
<polygon fill="white" stroke="black" points="0,-0.5 0,-90.5 133,-90.5 133,-0.5 0,-0.5"/>
<text text-anchor="middle" x="66.5" y="-78.5" font-family="Helvetica,sans-Serif" font-size="10.00">ComPWA::ZeroResolution</text>
<polyline fill="none" stroke="black" points="0,-71.5 133,-71.5 "/>
<text text-anchor="middle" x="66.5" y="-59.5" font-family="Helvetica,sans-Serif" font-size="10.00"> </text>
<polyline fill="none" stroke="black" points="0,-52.5 133,-52.5 "/>
<text text-anchor="start" x="8" y="-40.5" font-family="Helvetica,sans-Serif" font-size="10.00">+ ZeroResolution()</text>
<text text-anchor="start" x="8" y="-29.5" font-family="Helvetica,sans-Serif" font-size="10.00">+ ~ZeroResolution()</text>
<text text-anchor="start" x="8" y="-18.5" font-family="Helvetica,sans-Serif" font-size="10.00">+ resolution()</text>
<text text-anchor="start" x="8" y="-7.5" font-family="Helvetica,sans-Serif" font-size="10.00">+ resolution()</text>
</a>
</g>
</g>
<!-- Node1&#45;&gt;Node2 -->
<g id="edge1" class="edge"><title>Node1&#45;&gt;Node2</title>
<path fill="none" stroke="midnightblue" d="M66.5,-117.157C66.5,-108.282 66.5,-99.1831 66.5,-90.5937"/>
<polygon fill="none" stroke="midnightblue" points="63.0001,-117.43 66.5,-127.43 70.0001,-117.43 63.0001,-117.43"/>
</g>
</g>
</svg>
