<?xml version="1.0" encoding="UTF-8" standalone="no"?>
<!DOCTYPE svg PUBLIC "-//W3C//DTD SVG 1.1//EN"
 "http://www.w3.org/Graphics/SVG/1.1/DTD/svg11.dtd">
<!-- Generated by graphviz version 2.38.0 (20140413.2041)
 -->
<!-- Title: Data/CorrectionTable.hpp Pages: 1 -->
<svg width="380pt" height="151pt"
 viewBox="0.00 0.00 379.50 151.00" xmlns="http://www.w3.org/2000/svg" xmlns:xlink="http://www.w3.org/1999/xlink">
<g id="graph0" class="graph" transform="scale(1 1) rotate(0) translate(4 147)">
<title>Data/CorrectionTable.hpp</title>
<polygon fill="white" stroke="none" points="-4,4 -4,-147 375.5,-147 375.5,4 -4,4"/>
<!-- Node1 -->
<g id="node1" class="node"><title>Node1</title>
<polygon fill="#bfbfbf" stroke="black" points="145,-123.5 145,-142.5 273,-142.5 273,-123.5 145,-123.5"/>
<text text-anchor="middle" x="209" y="-130.5" font-family="Helvetica,sans-Serif" font-size="10.00">Data/CorrectionTable.hpp</text>
</g>
<!-- Node2 -->
<g id="node2" class="node"><title>Node2</title>
<g id="a_node2"><a xlink:href="CorrectionTable_8cpp.html" target="_top" xlink:title="Data/CorrectionTable.cpp">
<polygon fill="white" stroke="black" points="0,-67.5 0,-86.5 128,-86.5 128,-67.5 0,-67.5"/>
<text text-anchor="middle" x="64" y="-74.5" font-family="Helvetica,sans-Serif" font-size="10.00">Data/CorrectionTable.cpp</text>
</a>
</g>
</g>
<!-- Node1&#45;&gt;Node2 -->
<g id="edge1" class="edge"><title>Node1&#45;&gt;Node2</title>
<path fill="none" stroke="midnightblue" d="M176.525,-119.906C149.264,-109.754 111.008,-95.5063 86.8682,-86.5164"/>
<polygon fill="midnightblue" stroke="midnightblue" points="175.432,-123.233 186.024,-123.444 177.875,-116.674 175.432,-123.233"/>
</g>
<!-- Node3 -->
<g id="node3" class="node"><title>Node3</title>
<g id="a_node3"><a xlink:href="DataCorrection_8hpp.html" target="_top" xlink:title="Data/DataCorrection.hpp">
<polygon fill="white" stroke="black" points="146.5,-67.5 146.5,-86.5 271.5,-86.5 271.5,-67.5 146.5,-67.5"/>
<text text-anchor="middle" x="209" y="-74.5" font-family="Helvetica,sans-Serif" font-size="10.00">Data/DataCorrection.hpp</text>
</a>
</g>
</g>
<!-- Node1&#45;&gt;Node3 -->
<g id="edge2" class="edge"><title>Node1&#45;&gt;Node3</title>
<path fill="none" stroke="midnightblue" d="M209,-112.805C209,-103.91 209,-93.7798 209,-86.7511"/>
<polygon fill="midnightblue" stroke="midnightblue" points="205.5,-113.083 209,-123.083 212.5,-113.083 205.5,-113.083"/>
</g>
<!-- Node5 -->
<g id="node5" class="node"><title>Node5</title>
<g id="a_node5"><a xlink:href="DalitzFitD03K_8cpp.html" target="_top" xlink:title="Executable for Dalitz plot analysis of the decay D0 &#45;&gt; K_S K+ K&#45;. ">
<polygon fill="white" stroke="black" points="228.5,-0.5 228.5,-30.5 371.5,-30.5 371.5,-0.5 228.5,-0.5"/>
<text text-anchor="start" x="236.5" y="-18.5" font-family="Helvetica,sans-Serif" font-size="10.00">Examples/DalitzAnalysis</text>
<text text-anchor="middle" x="300" y="-7.5" font-family="Helvetica,sans-Serif" font-size="10.00">_D0KsKK/DalitzFitD03K.cpp</text>
</a>
</g>
</g>
<!-- Node1&#45;&gt;Node5 -->
<g id="edge5" class="edge"><title>Node1&#45;&gt;Node5</title>
<path fill="none" stroke="midnightblue" d="M239.628,-118.923C253.777,-111.462 269.689,-100.815 280,-87 292.556,-70.1768 297.235,-45.7526 298.975,-30.5143"/>
<polygon fill="midnightblue" stroke="midnightblue" points="238.066,-115.791 230.661,-123.367 241.175,-122.063 238.066,-115.791"/>
</g>
<!-- Node4 -->
<g id="node4" class="node"><title>Node4</title>
<g id="a_node4"><a xlink:href="DataCorrection_8cpp.html" target="_top" xlink:title="Data/DataCorrection.cpp">
<polygon fill="white" stroke="black" points="85.5,-6 85.5,-25 210.5,-25 210.5,-6 85.5,-6"/>
<text text-anchor="middle" x="148" y="-13" font-family="Helvetica,sans-Serif" font-size="10.00">Data/DataCorrection.cpp</text>
</a>
</g>
</g>
<!-- Node3&#45;&gt;Node4 -->
<g id="edge3" class="edge"><title>Node3&#45;&gt;Node4</title>
<path fill="none" stroke="midnightblue" d="M192.929,-60.3245C181.34,-49.0202 166.139,-34.1928 156.724,-25.0091"/>
<polygon fill="midnightblue" stroke="midnightblue" points="190.658,-62.9981 200.26,-67.4751 195.546,-57.9871 190.658,-62.9981"/>
</g>
<!-- Node3&#45;&gt;Node5 -->
<g id="edge4" class="edge"><title>Node3&#45;&gt;Node5</title>
<path fill="none" stroke="midnightblue" d="M230.811,-61.739C245.274,-52.2824 264.165,-39.9304 278.553,-30.523"/>
<polygon fill="midnightblue" stroke="midnightblue" points="228.492,-59.0732 222.038,-67.4751 232.323,-64.932 228.492,-59.0732"/>
</g>
</g>
</svg>
