<?xml version="1.0" encoding="UTF-8" standalone="no"?>
<!DOCTYPE svg PUBLIC "-//W3C//DTD SVG 1.1//EN"
 "http://www.w3.org/Graphics/SVG/1.1/DTD/svg11.dtd">
<!-- Generated by graphviz version 2.38.0 (20140413.2041)
 -->
<!-- Title: Data/CorrectionTable.cpp Pages: 1 -->
<!--zoomable 263 -->
<svg id="main" version="1.1" xmlns="http://www.w3.org/2000/svg" xmlns:xlink="http://www.w3.org/1999/xlink" xml:space="preserve" onload="init(evt)">
<style type="text/css"><![CDATA[
.edge:hover path { stroke: red; }
.edge:hover polygon { stroke: red; fill: red; }
]]></style>
<script type="text/javascript"><![CDATA[
var edges = document.getElementsByTagName('g');
if (edges && edges.length) {
  for (var i=0;i<edges.length;i++) {
    if (edges[i].id.substr(0,4)=='edge') {
      edges[i].setAttribute('class','edge');
    }
  }
}
]]></script>
        <defs>
                <circle id="rim" cx="0" cy="0" r="7"/>
                <circle id="rim2" cx="0" cy="0" r="3.5"/>
                <g id="zoomPlus">
                        <use xlink:href="#rim" fill="#404040">
                                <set attributeName="fill" to="#808080" begin="zoomplus.mouseover" end="zoomplus.mouseout"/>
                        </use>
                        <path d="M-4,0h8M0,-4v8" fill="none" stroke="white" stroke-width="1.5" pointer-events="none"/>
                </g>
                <g id="zoomMin">
                        <use xlink:href="#rim" fill="#404040">
                                <set attributeName="fill" to="#808080" begin="zoomminus.mouseover" end="zoomminus.mouseout"/>
                        </use>
                        <path d="M-4,0h8" fill="none" stroke="white" stroke-width="1.5" pointer-events="none"/>
                </g>
                <g id="dirArrow">
                        <path fill="none" stroke="white" stroke-width="1.5" d="M0,-3.0v7 M-2.5,-0.5L0,-3.0L2.5,-0.5"/>
                </g>
               <g id="resetDef">
                       <use xlink:href="#rim2" fill="#404040">
                               <set attributeName="fill" to="#808080" begin="reset.mouseover" end="reset.mouseout"/>
                       </use>
               </g>
        </defs>

<script type="text/javascript">
var viewWidth = 728;
var viewHeight = 263;
var sectionId = 'dynsection-0';
</script>
<script xlink:href="svgpan.js"/>
<svg id="graph" class="graph">
<g id="viewport">
<title>Data/CorrectionTable.cpp</title>
<polygon fill="white" stroke="none" points="-4,4 -4,-259 723.5,-259 723.5,4 -4,4"/>
<!-- Node1 -->
<g id="node1" class="node"><title>Node1</title>
<polygon fill="#bfbfbf" stroke="black" points="362,-235.5 362,-254.5 490,-254.5 490,-235.5 362,-235.5"/>
<text text-anchor="middle" x="426" y="-242.5" font-family="Helvetica,sans-Serif" font-size="10.00">Data/CorrectionTable.cpp</text>
</g>
<!-- Node2 -->
<g id="node2" class="node"><title>Node2</title>
<g id="a_node2"><a xlink:href="CorrectionTable_8hpp.html" target="_top" xlink:title="Correction table. ">
<polygon fill="white" stroke="black" points="108,-123.5 108,-142.5 236,-142.5 236,-123.5 108,-123.5"/>
<text text-anchor="middle" x="172" y="-130.5" font-family="Helvetica,sans-Serif" font-size="10.00">Data/CorrectionTable.hpp</text>
</a>
</g>
</g>
<!-- Node1&#45;&gt;Node2 -->
<g id="edge1" class="edge"><title>Node1&#45;&gt;Node2</title>
<path fill="none" stroke="midnightblue" d="M365.778,-235.435C330.634,-228.799 286.226,-217.517 250,-199 225.368,-186.409 201.623,-164.828 186.935,-150.011"/>
<polygon fill="midnightblue" stroke="midnightblue" points="189.221,-147.34 179.758,-142.575 184.184,-152.201 189.221,-147.34"/>
</g>
<!-- Node7 -->
<g id="node7" class="node"><title>Node7</title>
<polygon fill="white" stroke="#bfbfbf" points="281.5,-67.5 281.5,-86.5 322.5,-86.5 322.5,-67.5 281.5,-67.5"/>
<text text-anchor="middle" x="302" y="-74.5" font-family="Helvetica,sans-Serif" font-size="10.00">string</text>
</g>
<!-- Node1&#45;&gt;Node7 -->
<g id="edge9" class="edge"><title>Node1&#45;&gt;Node7</title>
<path fill="none" stroke="midnightblue" d="M405.692,-235.364C389.852,-227.758 368.223,-215.347 354,-199 327.33,-168.347 312.63,-121.946 306.133,-96.4304"/>
<polygon fill="midnightblue" stroke="midnightblue" points="309.51,-95.5023 303.775,-86.5935 302.702,-97.1339 309.51,-95.5023"/>
</g>
<!-- Node9 -->
<g id="node9" class="node"><title>Node9</title>
<polygon fill="white" stroke="#bfbfbf" points="539,-67.5 539,-86.5 591,-86.5 591,-67.5 539,-67.5"/>
<text text-anchor="middle" x="565" y="-74.5" font-family="Helvetica,sans-Serif" font-size="10.00">ostream</text>
</g>
<!-- Node1&#45;&gt;Node9 -->
<g id="edge8" class="edge"><title>Node1&#45;&gt;Node9</title>
<path fill="none" stroke="midnightblue" d="M452.895,-235.426C489.268,-222.194 552.621,-192.958 579,-143 586.731,-128.358 581.404,-109.718 575.224,-96.1567"/>
<polygon fill="midnightblue" stroke="midnightblue" points="578.184,-94.2565 570.534,-86.9266 571.944,-97.4273 578.184,-94.2565"/>
</g>
<!-- Node10 -->
<g id="node10" class="node"><title>Node10</title>
<g id="a_node10"><a xlink:href="Logging_8hpp.html" target="_top" xlink:title="Core/Logging.hpp">
<polygon fill="white" stroke="black" points="609.5,-67.5 609.5,-86.5 702.5,-86.5 702.5,-67.5 609.5,-67.5"/>
<text text-anchor="middle" x="656" y="-74.5" font-family="Helvetica,sans-Serif" font-size="10.00">Core/Logging.hpp</text>
</a>
</g>
</g>
<!-- Node1&#45;&gt;Node10 -->
<g id="edge10" class="edge"><title>Node1&#45;&gt;Node10</title>
<path fill="none" stroke="midnightblue" d="M465.65,-235.474C491.779,-228.555 525.866,-216.953 552,-199 593.503,-170.489 628.503,-121.46 645.309,-95.4261"/>
<polygon fill="midnightblue" stroke="midnightblue" points="648.46,-96.9904 650.835,-86.6651 642.539,-93.256 648.46,-96.9904"/>
</g>
<!-- Node12 -->
<g id="node12" class="node"><title>Node12</title>
<g id="a_node12"><a xlink:href="TableFormatter_8hpp.html" target="_top" xlink:title="Core/TableFormatter.hpp">
<polygon fill="white" stroke="black" points="363.5,-179.5 363.5,-198.5 488.5,-198.5 488.5,-179.5 363.5,-179.5"/>
<text text-anchor="middle" x="426" y="-186.5" font-family="Helvetica,sans-Serif" font-size="10.00">Core/TableFormatter.hpp</text>
</a>
</g>
</g>
<!-- Node1&#45;&gt;Node12 -->
<g id="edge12" class="edge"><title>Node1&#45;&gt;Node12</title>
<path fill="none" stroke="midnightblue" d="M426,-235.083C426,-228.006 426,-217.861 426,-208.986"/>
<polygon fill="midnightblue" stroke="midnightblue" points="429.5,-208.751 426,-198.751 422.5,-208.751 429.5,-208.751"/>
</g>
<!-- Node3 -->
<g id="node3" class="node"><title>Node3</title>
<polygon fill="white" stroke="#bfbfbf" points="0,-67.5 0,-86.5 44,-86.5 44,-67.5 0,-67.5"/>
<text text-anchor="middle" x="22" y="-74.5" font-family="Helvetica,sans-Serif" font-size="10.00">cmath</text>
</g>
<!-- Node2&#45;&gt;Node3 -->
<g id="edge2" class="edge"><title>Node2&#45;&gt;Node3</title>
<path fill="none" stroke="midnightblue" d="M148.232,-123.444C122.664,-114.239 81.8791,-99.5565 53.6182,-89.3826"/>
<polygon fill="midnightblue" stroke="midnightblue" points="54.7842,-86.0825 44.1898,-85.9883 52.4131,-92.6687 54.7842,-86.0825"/>
</g>
<!-- Node4 -->
<g id="node4" class="node"><title>Node4</title>
<polygon fill="white" stroke="#bfbfbf" points="62,-67.5 62,-86.5 116,-86.5 116,-67.5 62,-67.5"/>
<text text-anchor="middle" x="89" y="-74.5" font-family="Helvetica,sans-Serif" font-size="10.00">iostream</text>
</g>
<!-- Node2&#45;&gt;Node4 -->
<g id="edge3" class="edge"><title>Node2&#45;&gt;Node4</title>
<path fill="none" stroke="midnightblue" d="M158.665,-123.324C145.838,-114.979 126.215,-102.212 111.06,-92.3524"/>
<polygon fill="midnightblue" stroke="midnightblue" points="112.593,-89.1742 102.302,-86.6545 108.776,-95.0417 112.593,-89.1742"/>
</g>
<!-- Node5 -->
<g id="node5" class="node"><title>Node5</title>
<polygon fill="white" stroke="#bfbfbf" points="134,-67.5 134,-86.5 186,-86.5 186,-67.5 134,-67.5"/>
<text text-anchor="middle" x="160" y="-74.5" font-family="Helvetica,sans-Serif" font-size="10.00">memory</text>
</g>
<!-- Node2&#45;&gt;Node5 -->
<g id="edge4" class="edge"><title>Node2&#45;&gt;Node5</title>
<path fill="none" stroke="midnightblue" d="M170.018,-123.083C168.428,-115.927 166.141,-105.635 164.154,-96.6911"/>
<polygon fill="midnightblue" stroke="midnightblue" points="167.531,-95.7537 161.945,-86.7511 160.697,-97.2722 167.531,-95.7537"/>
</g>
<!-- Node6 -->
<g id="node6" class="node"><title>Node6</title>
<polygon fill="white" stroke="#bfbfbf" points="204.5,-67.5 204.5,-86.5 263.5,-86.5 263.5,-67.5 204.5,-67.5"/>
<text text-anchor="middle" x="234" y="-74.5" font-family="Helvetica,sans-Serif" font-size="10.00">stdexcept</text>
</g>
<!-- Node2&#45;&gt;Node6 -->
<g id="edge5" class="edge"><title>Node2&#45;&gt;Node6</title>
<path fill="none" stroke="midnightblue" d="M181.961,-123.324C191.127,-115.341 204.937,-103.313 216.028,-93.6529"/>
<polygon fill="midnightblue" stroke="midnightblue" points="218.615,-96.041 223.857,-86.8339 214.018,-90.7624 218.615,-96.041"/>
</g>
<!-- Node2&#45;&gt;Node7 -->
<g id="edge6" class="edge"><title>Node2&#45;&gt;Node7</title>
<path fill="none" stroke="midnightblue" d="M192.599,-123.444C213.993,-114.557 247.681,-100.563 272.024,-90.4514"/>
<polygon fill="midnightblue" stroke="midnightblue" points="273.605,-93.5848 281.497,-86.5164 270.92,-87.1203 273.605,-93.5848"/>
</g>
<!-- Node8 -->
<g id="node8" class="node"><title>Node8</title>
<polygon fill="white" stroke="#bfbfbf" points="341,-67.5 341,-86.5 385,-86.5 385,-67.5 341,-67.5"/>
<text text-anchor="middle" x="363" y="-74.5" font-family="Helvetica,sans-Serif" font-size="10.00">vector</text>
</g>
<!-- Node2&#45;&gt;Node8 -->
<g id="edge7" class="edge"><title>Node2&#45;&gt;Node8</title>
<path fill="none" stroke="midnightblue" d="M202.265,-123.444C237.401,-113.51 295.104,-97.1958 330.974,-87.0544"/>
<polygon fill="midnightblue" stroke="midnightblue" points="332.245,-90.3324 340.916,-84.2437 330.341,-83.5964 332.245,-90.3324"/>
</g>
<!-- Node11 -->
<g id="node11" class="node"><title>Node11</title>
<polygon fill="white" stroke="#bfbfbf" points="592.5,-0.5 592.5,-30.5 719.5,-30.5 719.5,-0.5 592.5,-0.5"/>
<text text-anchor="start" x="600.5" y="-18.5" font-family="Helvetica,sans-Serif" font-size="10.00">ThirdParty/easyloggingpp</text>
<text text-anchor="middle" x="656" y="-7.5" font-family="Helvetica,sans-Serif" font-size="10.00">/easylogging++.h</text>
</g>
<!-- Node10&#45;&gt;Node11 -->
<g id="edge11" class="edge"><title>Node10&#45;&gt;Node11</title>
<path fill="none" stroke="midnightblue" d="M656,-67.4751C656,-60.471 656,-50.1919 656,-40.6956"/>
<polygon fill="midnightblue" stroke="midnightblue" points="659.5,-40.5229 656,-30.523 652.5,-40.523 659.5,-40.5229"/>
</g>
<!-- Node12&#45;&gt;Node7 -->
<g id="edge15" class="edge"><title>Node12&#45;&gt;Node7</title>
<path fill="none" stroke="midnightblue" d="M407.419,-179.397C391.382,-171.407 368.159,-158.437 351,-143 335.464,-129.023 321.527,-109.505 312.525,-95.5112"/>
<polygon fill="midnightblue" stroke="midnightblue" points="315.382,-93.4776 307.123,-86.8416 309.441,-97.1797 315.382,-93.4776"/>
</g>
<!-- Node12&#45;&gt;Node8 -->
<g id="edge16" class="edge"><title>Node12&#45;&gt;Node8</title>
<path fill="none" stroke="midnightblue" d="M403.212,-179.471C387.674,-172.316 368.293,-160.435 359,-143 351.363,-128.671 353.553,-109.964 356.948,-96.2993"/>
<polygon fill="midnightblue" stroke="midnightblue" points="360.337,-97.1812 359.764,-86.6018 353.614,-95.2289 360.337,-97.1812"/>
</g>
<!-- Node12&#45;&gt;Node9 -->
<g id="edge14" class="edge"><title>Node12&#45;&gt;Node9</title>
<path fill="none" stroke="midnightblue" d="M488.689,-182.436C515.19,-176.697 543.838,-165.331 561,-143 571.003,-129.985 570.946,-110.825 569.023,-96.6773"/>
<polygon fill="midnightblue" stroke="midnightblue" points="572.431,-95.8525 567.237,-86.6184 565.539,-97.0763 572.431,-95.8525"/>
</g>
<!-- Node13 -->
<g id="node13" class="node"><title>Node13</title>
<polygon fill="white" stroke="#bfbfbf" points="502,-123.5 502,-142.5 552,-142.5 552,-123.5 502,-123.5"/>
<text text-anchor="middle" x="527" y="-130.5" font-family="Helvetica,sans-Serif" font-size="10.00">iomanip</text>
</g>
<!-- Node12&#45;&gt;Node13 -->
<g id="edge13" class="edge"><title>Node12&#45;&gt;Node13</title>
<path fill="none" stroke="midnightblue" d="M442.227,-179.324C458.351,-170.703 483.3,-157.364 501.964,-147.386"/>
<polygon fill="midnightblue" stroke="midnightblue" points="503.644,-150.456 510.813,-142.655 500.344,-144.283 503.644,-150.456"/>
</g>
<!-- Node14 -->
<g id="node14" class="node"><title>Node14</title>
<g id="a_node14"><a xlink:href="FitParameter_8hpp.html" target="_top" xlink:title="Core/FitParameter.hpp">
<polygon fill="white" stroke="red" points="368,-123.5 368,-142.5 484,-142.5 484,-123.5 368,-123.5"/>
<text text-anchor="middle" x="426" y="-130.5" font-family="Helvetica,sans-Serif" font-size="10.00">Core/FitParameter.hpp</text>
</a>
</g>
</g>
<!-- Node12&#45;&gt;Node14 -->
<g id="edge17" class="edge"><title>Node12&#45;&gt;Node14</title>
<path fill="none" stroke="midnightblue" d="M426,-179.083C426,-172.006 426,-161.861 426,-152.986"/>
<polygon fill="midnightblue" stroke="midnightblue" points="429.5,-152.751 426,-142.751 422.5,-152.751 429.5,-152.751"/>
</g>
<!-- Node14&#45;&gt;Node7 -->
<g id="edge20" class="edge"><title>Node14&#45;&gt;Node7</title>
<path fill="none" stroke="midnightblue" d="M406.352,-123.444C386.035,-114.596 354.097,-100.687 330.902,-90.5865"/>
<polygon fill="midnightblue" stroke="midnightblue" points="332.122,-87.3002 321.556,-86.5164 329.327,-93.7181 332.122,-87.3002"/>
</g>
<!-- Node14&#45;&gt;Node8 -->
<g id="edge21" class="edge"><title>Node14&#45;&gt;Node8</title>
<path fill="none" stroke="midnightblue" d="M415.878,-123.324C406.474,-115.263 392.256,-103.077 380.931,-93.3695"/>
<polygon fill="midnightblue" stroke="midnightblue" points="383.177,-90.6844 373.306,-86.8339 378.621,-95.9993 383.177,-90.6844"/>
</g>
<!-- Node14&#45;&gt;Node9 -->
<g id="edge19" class="edge"><title>Node14&#45;&gt;Node9</title>
<path fill="none" stroke="midnightblue" d="M448.025,-123.444C471.104,-114.478 507.562,-100.314 533.641,-90.1827"/>
<polygon fill="midnightblue" stroke="midnightblue" points="535.024,-93.4002 543.078,-86.5164 532.489,-86.8753 535.024,-93.4002"/>
</g>
<!-- Node14&#45;&gt;Node10 -->
<g id="edge18" class="edge"><title>Node14&#45;&gt;Node10</title>
<path fill="none" stroke="midnightblue" d="M462.444,-123.444C502.399,-114.063 566.587,-98.9926 609.985,-88.8036"/>
<polygon fill="midnightblue" stroke="midnightblue" points="610.791,-92.2095 619.726,-86.5164 609.191,-85.3948 610.791,-92.2095"/>
</g>
</g>
</svg>
        <g id="navigator" transform="translate(0 0)" fill="#404254">
                <rect fill="#f2f5e9" fill-opacity="0.5" stroke="#606060" stroke-width=".5" x="0" y="0" width="60" height="60"/>
                <use id="zoomplus" xlink:href="#zoomPlus" x="17" y="9" onmousedown="handleZoom(evt,'in')"/>
                <use id="zoomminus" xlink:href="#zoomMin" x="42" y="9" onmousedown="handleZoom(evt,'out')"/>
                <use id="reset" xlink:href="#resetDef" x="30" y="36" onmousedown="handleReset()"/>
                <g id="arrowUp" xlink:href="#dirArrow" transform="translate(30 24)" onmousedown="handlePan(0,-1)">
                  <use xlink:href="#rim" fill="#404040">
                        <set attributeName="fill" to="#808080" begin="arrowUp.mouseover" end="arrowUp.mouseout"/>
                  </use>
                  <path fill="none" stroke="white" stroke-width="1.5" d="M0,-3.0v7 M-2.5,-0.5L0,-3.0L2.5,-0.5"/>
                </g>
                <g id="arrowRight" xlink:href="#dirArrow" transform="rotate(90) translate(36 -43)" onmousedown="handlePan(1,0)">
                  <use xlink:href="#rim" fill="#404040">
                        <set attributeName="fill" to="#808080" begin="arrowRight.mouseover" end="arrowRight.mouseout"/>
                  </use>
                  <path fill="none" stroke="white" stroke-width="1.5" d="M0,-3.0v7 M-2.5,-0.5L0,-3.0L2.5,-0.5"/>
                </g>
                <g id="arrowDown" xlink:href="#dirArrow" transform="rotate(180) translate(-30 -48)" onmousedown="handlePan(0,1)">
                  <use xlink:href="#rim" fill="#404040">
                        <set attributeName="fill" to="#808080" begin="arrowDown.mouseover" end="arrowDown.mouseout"/>
                  </use>
                  <path fill="none" stroke="white" stroke-width="1.5" d="M0,-3.0v7 M-2.5,-0.5L0,-3.0L2.5,-0.5"/>
                </g>
                <g id="arrowLeft" xlink:href="#dirArrow" transform="rotate(270) translate(-36 17)" onmousedown="handlePan(-1,0)">
                  <use xlink:href="#rim" fill="#404040">
                        <set attributeName="fill" to="#808080" begin="arrowLeft.mouseover" end="arrowLeft.mouseout"/>
                  </use>
                  <path fill="none" stroke="white" stroke-width="1.5" d="M0,-3.0v7 M-2.5,-0.5L0,-3.0L2.5,-0.5"/>
                </g>
        </g>
        <svg viewBox="0 0 15 15" width="100%" height="30px" preserveAspectRatio="xMaxYMin meet">
         <g id="arrow_out" transform="scale(0.3 0.3)">
          <a xlink:href="CorrectionTable_8cpp__incl_org.svg" target="_base">
           <rect id="button" ry="5" rx="5" y="6" x="6" height="38" width="38"
                fill="#f2f5e9" fill-opacity="0.5" stroke="#606060" stroke-width="1.0"/>
           <path id="arrow"
             d="M 11.500037,31.436501 C 11.940474,20.09759 22.043105,11.32322 32.158766,21.979434 L 37.068811,17.246167 C 37.068811,17.246167 37.088388,32 37.088388,32 L 22.160133,31.978069 C 22.160133,31.978069 26.997745,27.140456 26.997745,27.140456 C 18.528582,18.264221 13.291696,25.230495 11.500037,31.436501 z"
             style="fill:#404040;"/>
          </a>
         </g>
        </svg>
</svg>
