<?xml version="1.0" encoding="UTF-8" standalone="no"?>
<!DOCTYPE svg PUBLIC "-//W3C//DTD SVG 1.1//EN"
 "http://www.w3.org/Graphics/SVG/1.1/DTD/svg11.dtd">
<!-- Generated by graphviz version 2.38.0 (20140413.2041)
 -->
<!-- Title: Physics/Dynamics/Coupling.hpp Pages: 1 -->
<!--zoomable 375 -->
<svg id="main" version="1.1" xmlns="http://www.w3.org/2000/svg" xmlns:xlink="http://www.w3.org/1999/xlink" xml:space="preserve" onload="init(evt)">
<style type="text/css"><![CDATA[
.edge:hover path { stroke: red; }
.edge:hover polygon { stroke: red; fill: red; }
]]></style>
<script type="text/javascript"><![CDATA[
var edges = document.getElementsByTagName('g');
if (edges && edges.length) {
  for (var i=0;i<edges.length;i++) {
    if (edges[i].id.substr(0,4)=='edge') {
      edges[i].setAttribute('class','edge');
    }
  }
}
]]></script>
        <defs>
                <circle id="rim" cx="0" cy="0" r="7"/>
                <circle id="rim2" cx="0" cy="0" r="3.5"/>
                <g id="zoomPlus">
                        <use xlink:href="#rim" fill="#404040">
                                <set attributeName="fill" to="#808080" begin="zoomplus.mouseover" end="zoomplus.mouseout"/>
                        </use>
                        <path d="M-4,0h8M0,-4v8" fill="none" stroke="white" stroke-width="1.5" pointer-events="none"/>
                </g>
                <g id="zoomMin">
                        <use xlink:href="#rim" fill="#404040">
                                <set attributeName="fill" to="#808080" begin="zoomminus.mouseover" end="zoomminus.mouseout"/>
                        </use>
                        <path d="M-4,0h8" fill="none" stroke="white" stroke-width="1.5" pointer-events="none"/>
                </g>
                <g id="dirArrow">
                        <path fill="none" stroke="white" stroke-width="1.5" d="M0,-3.0v7 M-2.5,-0.5L0,-3.0L2.5,-0.5"/>
                </g>
               <g id="resetDef">
                       <use xlink:href="#rim2" fill="#404040">
                               <set attributeName="fill" to="#808080" begin="reset.mouseover" end="reset.mouseout"/>
                       </use>
               </g>
        </defs>

<script type="text/javascript">
var viewWidth = 1479;
var viewHeight = 375;
var sectionId = 'dynsection-0';
</script>
<script xlink:href="svgpan.js"/>
<svg id="graph" class="graph">
<g id="viewport">
<title>Physics/Dynamics/Coupling.hpp</title>
<polygon fill="white" stroke="none" points="-4,4 -4,-371 1474.77,-371 1474.77,4 -4,4"/>
<!-- Node1 -->
<g id="node1" class="node"><title>Node1</title>
<polygon fill="#bfbfbf" stroke="black" points="849,-347.5 849,-366.5 1008,-366.5 1008,-347.5 849,-347.5"/>
<text text-anchor="middle" x="928.5" y="-354.5" font-family="Helvetica,sans-Serif" font-size="10.00">Physics/Dynamics/Coupling.hpp</text>
</g>
<!-- Node2 -->
<g id="node2" class="node"><title>Node2</title>
<g id="a_node2"><a xlink:href="FunctionTree_2FitParameter_8hpp.html" target="_top" xlink:title="Implementations of Parameter for various data types. ">
<polygon fill="white" stroke="black" points="484.5,-123.5 484.5,-142.5 660.5,-142.5 660.5,-123.5 484.5,-123.5"/>
<text text-anchor="middle" x="572.5" y="-130.5" font-family="Helvetica,sans-Serif" font-size="10.00">Core/FunctionTree/FitParameter.hpp</text>
</a>
</g>
</g>
<!-- Node1&#45;&gt;Node2 -->
<g id="edge1" class="edge"><title>Node1&#45;&gt;Node2</title>
<path fill="none" stroke="midnightblue" d="M914.544,-347.297C860.154,-313.379 662.08,-189.862 594.936,-147.991"/>
<polygon fill="midnightblue" stroke="midnightblue" points="596.697,-144.964 586.359,-142.643 592.992,-150.904 596.697,-144.964"/>
</g>
<!-- Node17 -->
<g id="node17" class="node"><title>Node17</title>
<g id="a_node17"><a xlink:href="Properties_8hpp.html" target="_top" xlink:title="Core/Properties.hpp">
<polygon fill="white" stroke="black" points="1158.5,-123.5 1158.5,-142.5 1262.5,-142.5 1262.5,-123.5 1158.5,-123.5"/>
<text text-anchor="middle" x="1210.5" y="-130.5" font-family="Helvetica,sans-Serif" font-size="10.00">Core/Properties.hpp</text>
</a>
</g>
</g>
<!-- Node1&#45;&gt;Node17 -->
<g id="edge22" class="edge"><title>Node1&#45;&gt;Node17</title>
<path fill="none" stroke="midnightblue" d="M939.555,-347.297C982.287,-313.657 1136.98,-191.877 1191.4,-149.035"/>
<polygon fill="midnightblue" stroke="midnightblue" points="1193.83,-151.578 1199.52,-142.643 1189.5,-146.078 1193.83,-151.578"/>
</g>
<!-- Node21 -->
<g id="node21" class="node"><title>Node21</title>
<g id="a_node21"><a xlink:href="FormFactor_8hpp.html" target="_top" xlink:title="FormFactor.hpp">
<polygon fill="white" stroke="black" points="885.5,-291.5 885.5,-310.5 971.5,-310.5 971.5,-291.5 885.5,-291.5"/>
<text text-anchor="middle" x="928.5" y="-298.5" font-family="Helvetica,sans-Serif" font-size="10.00">FormFactor.hpp</text>
</a>
</g>
</g>
<!-- Node1&#45;&gt;Node21 -->
<g id="edge29" class="edge"><title>Node1&#45;&gt;Node21</title>
<path fill="none" stroke="midnightblue" d="M928.5,-347.083C928.5,-340.006 928.5,-329.861 928.5,-320.986"/>
<polygon fill="midnightblue" stroke="midnightblue" points="932,-320.751 928.5,-310.751 925,-320.751 932,-320.751"/>
</g>
<!-- Node3 -->
<g id="node3" class="node"><title>Node3</title>
<polygon fill="white" stroke="#bfbfbf" points="472.5,-62 472.5,-81 516.5,-81 516.5,-62 472.5,-62"/>
<text text-anchor="middle" x="494.5" y="-69" font-family="Helvetica,sans-Serif" font-size="10.00">cmath</text>
</g>
<!-- Node2&#45;&gt;Node3 -->
<g id="edge2" class="edge"><title>Node2&#45;&gt;Node3</title>
<path fill="none" stroke="midnightblue" d="M561.325,-123.475C548.929,-114.02 528.71,-98.5961 513.754,-87.1871"/>
<polygon fill="midnightblue" stroke="midnightblue" points="515.728,-84.2914 505.655,-81.0091 511.483,-89.857 515.728,-84.2914"/>
</g>
<!-- Node4 -->
<g id="node4" class="node"><title>Node4</title>
<polygon fill="white" stroke="#bfbfbf" points="0,-0.5 0,-19.5 53,-19.5 53,-0.5 0,-0.5"/>
<text text-anchor="middle" x="26.5" y="-7.5" font-family="Helvetica,sans-Serif" font-size="10.00">complex</text>
</g>
<!-- Node2&#45;&gt;Node4 -->
<g id="edge3" class="edge"><title>Node2&#45;&gt;Node4</title>
<path fill="none" stroke="midnightblue" d="M545.98,-123.408C523.283,-115.51 490.148,-102.67 463.5,-87 444.413,-75.7765 444.962,-64.4611 424.5,-56 359.497,-29.1207 148.667,-16.6213 63.0957,-12.5608"/>
<polygon fill="midnightblue" stroke="midnightblue" points="63.2129,-9.06259 53.0618,-12.0963 62.8892,-16.0551 63.2129,-9.06259"/>
</g>
<!-- Node5 -->
<g id="node5" class="node"><title>Node5</title>
<polygon fill="white" stroke="#bfbfbf" points="572.5,-62 572.5,-81 626.5,-81 626.5,-62 572.5,-62"/>
<text text-anchor="middle" x="599.5" y="-69" font-family="Helvetica,sans-Serif" font-size="10.00">iostream</text>
</g>
<!-- Node2&#45;&gt;Node5 -->
<g id="edge4" class="edge"><title>Node2&#45;&gt;Node5</title>
<path fill="none" stroke="midnightblue" d="M576.368,-123.475C580.298,-114.815 586.5,-101.149 591.493,-90.1453"/>
<polygon fill="midnightblue" stroke="midnightblue" points="594.694,-91.5617 595.639,-81.0091 588.319,-88.6691 594.694,-91.5617"/>
</g>
<!-- Node6 -->
<g id="node6" class="node"><title>Node6</title>
<polygon fill="white" stroke="#bfbfbf" points="54.5,-62 54.5,-81 106.5,-81 106.5,-62 54.5,-62"/>
<text text-anchor="middle" x="80.5" y="-69" font-family="Helvetica,sans-Serif" font-size="10.00">sstream</text>
</g>
<!-- Node2&#45;&gt;Node6 -->
<g id="edge5" class="edge"><title>Node2&#45;&gt;Node6</title>
<path fill="none" stroke="midnightblue" d="M484.436,-130.975C391.435,-128.128 241.168,-118.481 115.5,-87 112.988,-86.3707 110.42,-85.5919 107.874,-84.7246"/>
<polygon fill="midnightblue" stroke="midnightblue" points="108.911,-81.374 98.3209,-81.0692 106.41,-87.9118 108.911,-81.374"/>
</g>
<!-- Node7 -->
<g id="node7" class="node"><title>Node7</title>
<polygon fill="white" stroke="#bfbfbf" points="125,-62 125,-81 184,-81 184,-62 125,-62"/>
<text text-anchor="middle" x="154.5" y="-69" font-family="Helvetica,sans-Serif" font-size="10.00">stdexcept</text>
</g>
<!-- Node2&#45;&gt;Node7 -->
<g id="edge6" class="edge"><title>Node2&#45;&gt;Node7</title>
<path fill="none" stroke="midnightblue" d="M484.243,-127.722C406.515,-122.499 290.717,-111.16 192.5,-87 189.672,-86.3042 186.768,-85.4562 183.887,-84.5231"/>
<polygon fill="midnightblue" stroke="midnightblue" points="184.915,-81.174 174.32,-81.1201 182.569,-87.7692 184.915,-81.174"/>
</g>
<!-- Node8 -->
<g id="node8" class="node"><title>Node8</title>
<polygon fill="white" stroke="#bfbfbf" points="854,-0.5 854,-19.5 895,-19.5 895,-0.5 854,-0.5"/>
<text text-anchor="middle" x="874.5" y="-7.5" font-family="Helvetica,sans-Serif" font-size="10.00">string</text>
</g>
<!-- Node2&#45;&gt;Node8 -->
<g id="edge7" class="edge"><title>Node2&#45;&gt;Node8</title>
<path fill="none" stroke="midnightblue" d="M585.223,-123.269C598.073,-114.369 618.409,-100.054 635.5,-87 652.821,-73.77 653.896,-65.525 673.5,-56 729.747,-28.672 802.941,-17.6814 843.682,-13.4599"/>
<polygon fill="midnightblue" stroke="midnightblue" points="844.175,-16.9288 853.792,-12.4836 843.502,-9.96118 844.175,-16.9288"/>
</g>
<!-- Node9 -->
<g id="node9" class="node"><title>Node9</title>
<polygon fill="white" stroke="#bfbfbf" points="202,-56.5 202,-86.5 303,-86.5 303,-56.5 202,-56.5"/>
<text text-anchor="start" x="210" y="-74.5" font-family="Helvetica,sans-Serif" font-size="10.00">boost/property_tree</text>
<text text-anchor="middle" x="252.5" y="-63.5" font-family="Helvetica,sans-Serif" font-size="10.00">/ptree_fwd.hpp</text>
</g>
<!-- Node2&#45;&gt;Node9 -->
<g id="edge8" class="edge"><title>Node2&#45;&gt;Node9</title>
<path fill="none" stroke="midnightblue" d="M516.28,-123.477C465.553,-115.522 388.672,-102.813 313.421,-87.3267"/>
<polygon fill="midnightblue" stroke="midnightblue" points="313.8,-83.8309 303.297,-85.2242 312.376,-90.6846 313.8,-83.8309"/>
</g>
<!-- Node10 -->
<g id="node10" class="node"><title>Node10</title>
<polygon fill="white" stroke="#bfbfbf" points="321,-56.5 321,-86.5 416,-86.5 416,-56.5 321,-56.5"/>
<text text-anchor="start" x="329" y="-74.5" font-family="Helvetica,sans-Serif" font-size="10.00">boost/serialization</text>
<text text-anchor="middle" x="368.5" y="-63.5" font-family="Helvetica,sans-Serif" font-size="10.00">/utility.hpp</text>
</g>
<!-- Node2&#45;&gt;Node10 -->
<g id="edge9" class="edge"><title>Node2&#45;&gt;Node10</title>
<path fill="none" stroke="midnightblue" d="M543.272,-123.475C512.83,-114.596 464.345,-100.455 426.157,-89.3166"/>
<polygon fill="midnightblue" stroke="midnightblue" points="426.766,-85.8485 416.186,-86.4084 424.806,-92.5685 426.766,-85.8485"/>
</g>
<!-- Node11 -->
<g id="node11" class="node"><title>Node11</title>
<g id="a_node11"><a xlink:href="Exceptions_8hpp.html" target="_top" xlink:title="ComPWA exceptions. ">
<polygon fill="white" stroke="black" points="1074.5,-62 1074.5,-81 1182.5,-81 1182.5,-62 1074.5,-62"/>
<text text-anchor="middle" x="1128.5" y="-69" font-family="Helvetica,sans-Serif" font-size="10.00">Core/Exceptions.hpp</text>
</a>
</g>
</g>
<!-- Node2&#45;&gt;Node11 -->
<g id="edge10" class="edge"><title>Node2&#45;&gt;Node11</title>
<path fill="none" stroke="midnightblue" d="M660.702,-124.435C752.46,-116.294 900.235,-102.421 1027.5,-87 1039.38,-85.56 1052.03,-83.8698 1064.21,-82.1619"/>
<polygon fill="midnightblue" stroke="midnightblue" points="1064.9,-85.5996 1074.31,-80.7281 1063.91,-78.6692 1064.9,-85.5996"/>
</g>
<!-- Node13 -->
<g id="node13" class="node"><title>Node13</title>
<g id="a_node13"><a xlink:href="FitParameter_8hpp.html" target="_top" xlink:title="Core/FitParameter.hpp">
<polygon fill="white" stroke="red" points="902.5,-62 902.5,-81 1018.5,-81 1018.5,-62 902.5,-62"/>
<text text-anchor="middle" x="960.5" y="-69" font-family="Helvetica,sans-Serif" font-size="10.00">Core/FitParameter.hpp</text>
</a>
</g>
</g>
<!-- Node2&#45;&gt;Node13 -->
<g id="edge13" class="edge"><title>Node2&#45;&gt;Node13</title>
<path fill="none" stroke="midnightblue" d="M628.091,-123.475C698.536,-112.672 819.787,-94.0784 894.752,-82.5825"/>
<polygon fill="midnightblue" stroke="midnightblue" points="895.658,-85.9845 905.012,-81.0091 894.597,-79.0654 895.658,-85.9845"/>
</g>
<!-- Node14 -->
<g id="node14" class="node"><title>Node14</title>
<g id="a_node14"><a xlink:href="Logging_8hpp.html" target="_top" xlink:title="Core/Logging.hpp">
<polygon fill="white" stroke="red" points="620,-0.5 620,-19.5 713,-19.5 713,-0.5 620,-0.5"/>
<text text-anchor="middle" x="666.5" y="-7.5" font-family="Helvetica,sans-Serif" font-size="10.00">Core/Logging.hpp</text>
</a>
</g>
</g>
<!-- Node2&#45;&gt;Node14 -->
<g id="edge21" class="edge"><title>Node2&#45;&gt;Node14</title>
<path fill="none" stroke="midnightblue" d="M568.037,-123.186C561.088,-108.091 549.823,-76.9015 563.5,-56 574.138,-39.7427 592.081,-29.3244 610.038,-22.6623"/>
<polygon fill="midnightblue" stroke="midnightblue" points="611.599,-25.8304 619.969,-19.3343 609.375,-19.1932 611.599,-25.8304"/>
</g>
<!-- Node16 -->
<g id="node16" class="node"><title>Node16</title>
<g id="a_node16"><a xlink:href="Parameter_8hpp.html" target="_top" xlink:title="Parameter base class. ">
<polygon fill="white" stroke="red" points="682.5,-62 682.5,-81 846.5,-81 846.5,-62 682.5,-62"/>
<text text-anchor="middle" x="764.5" y="-69" font-family="Helvetica,sans-Serif" font-size="10.00">Core/FunctionTree/Parameter.hpp</text>
</a>
</g>
</g>
<!-- Node2&#45;&gt;Node16 -->
<g id="edge17" class="edge"><title>Node2&#45;&gt;Node16</title>
<path fill="none" stroke="midnightblue" d="M600.009,-123.475C633.371,-113.136 689.762,-95.6611 727.063,-84.1017"/>
<polygon fill="midnightblue" stroke="midnightblue" points="728.526,-87.3124 737.042,-81.0091 726.454,-80.6261 728.526,-87.3124"/>
</g>
<!-- Node11&#45;&gt;Node8 -->
<g id="edge12" class="edge"><title>Node11&#45;&gt;Node8</title>
<path fill="none" stroke="midnightblue" d="M1092.11,-61.9751C1041.86,-50.2048 952.132,-29.1853 905.131,-18.1753"/>
<polygon fill="midnightblue" stroke="midnightblue" points="905.77,-14.7304 895.235,-15.8573 904.174,-21.5459 905.77,-14.7304"/>
</g>
<!-- Node12 -->
<g id="node12" class="node"><title>Node12</title>
<polygon fill="white" stroke="#bfbfbf" points="1269,-0.5 1269,-19.5 1328,-19.5 1328,-0.5 1269,-0.5"/>
<text text-anchor="middle" x="1298.5" y="-7.5" font-family="Helvetica,sans-Serif" font-size="10.00">exception</text>
</g>
<!-- Node11&#45;&gt;Node12 -->
<g id="edge11" class="edge"><title>Node11&#45;&gt;Node12</title>
<path fill="none" stroke="midnightblue" d="M1152.86,-61.9751C1182.14,-51.7246 1231.47,-34.4593 1264.5,-22.8994"/>
<polygon fill="midnightblue" stroke="midnightblue" points="1265.91,-26.1162 1274.19,-19.5091 1263.59,-19.5091 1265.91,-26.1162"/>
</g>
<!-- Node13&#45;&gt;Node8 -->
<g id="edge15" class="edge"><title>Node13&#45;&gt;Node8</title>
<path fill="none" stroke="midnightblue" d="M948.178,-61.9751C934.384,-52.4315 911.801,-36.8073 895.268,-25.3683"/>
<polygon fill="midnightblue" stroke="midnightblue" points="897.014,-22.3205 886.799,-19.5091 893.031,-28.077 897.014,-22.3205"/>
</g>
<!-- Node13&#45;&gt;Node14 -->
<g id="edge14" class="edge"><title>Node13&#45;&gt;Node14</title>
<path fill="none" stroke="midnightblue" d="M918.377,-61.9751C865.653,-51.3048 775.372,-33.0335 718.426,-21.5089"/>
<polygon fill="midnightblue" stroke="midnightblue" points="719.04,-18.0623 708.545,-19.5091 717.652,-24.9232 719.04,-18.0623"/>
</g>
<!-- Node15 -->
<g id="node15" class="node"><title>Node15</title>
<polygon fill="white" stroke="#bfbfbf" points="981.5,-0.5 981.5,-19.5 1025.5,-19.5 1025.5,-0.5 981.5,-0.5"/>
<text text-anchor="middle" x="1003.5" y="-7.5" font-family="Helvetica,sans-Serif" font-size="10.00">vector</text>
</g>
<!-- Node13&#45;&gt;Node15 -->
<g id="edge16" class="edge"><title>Node13&#45;&gt;Node15</title>
<path fill="none" stroke="midnightblue" d="M966.661,-61.9751C973.111,-53.0501 983.404,-38.8071 991.473,-27.6425"/>
<polygon fill="midnightblue" stroke="midnightblue" points="994.33,-29.6642 997.351,-19.5091 988.656,-25.564 994.33,-29.6642"/>
</g>
<!-- Node16&#45;&gt;Node4 -->
<g id="edge18" class="edge"><title>Node16&#45;&gt;Node4</title>
<path fill="none" stroke="midnightblue" d="M693.242,-61.998C674.475,-59.8939 654.237,-57.7447 635.5,-56 418.999,-35.8409 158.514,-19.0997 63.4813,-13.239"/>
<polygon fill="midnightblue" stroke="midnightblue" points="63.4388,-9.72987 53.243,-12.6103 63.0097,-16.7167 63.4388,-9.72987"/>
</g>
<!-- Node16&#45;&gt;Node8 -->
<g id="edge19" class="edge"><title>Node16&#45;&gt;Node8</title>
<path fill="none" stroke="midnightblue" d="M780.26,-61.9751C798.476,-52.1222 828.673,-35.7883 849.968,-24.2697"/>
<polygon fill="midnightblue" stroke="midnightblue" points="851.638,-27.3453 858.769,-19.5091 848.308,-21.1883 851.638,-27.3453"/>
</g>
<!-- Node16&#45;&gt;Node15 -->
<g id="edge20" class="edge"><title>Node16&#45;&gt;Node15</title>
<path fill="none" stroke="midnightblue" d="M798.743,-61.9751C844.965,-50.468 926.695,-30.1208 971.652,-18.9287"/>
<polygon fill="midnightblue" stroke="midnightblue" points="972.596,-22.3007 981.454,-16.4885 970.904,-15.508 972.596,-22.3007"/>
</g>
<!-- Node17&#45;&gt;Node11 -->
<g id="edge23" class="edge"><title>Node17&#45;&gt;Node11</title>
<path fill="none" stroke="midnightblue" d="M1198.75,-123.475C1185.72,-114.02 1164.46,-98.5961 1148.74,-87.1871"/>
<polygon fill="midnightblue" stroke="midnightblue" points="1150.38,-84.0492 1140.23,-81.0091 1146.27,-89.7149 1150.38,-84.0492"/>
</g>
<!-- Node17&#45;&gt;Node13 -->
<g id="edge24" class="edge"><title>Node17&#45;&gt;Node13</title>
<path fill="none" stroke="midnightblue" d="M1174.68,-123.475C1130.31,-112.915 1054.66,-94.911 1006.17,-83.3689"/>
<polygon fill="midnightblue" stroke="midnightblue" points="1006.79,-79.9196 996.252,-81.0091 1005.17,-86.7294 1006.79,-79.9196"/>
</g>
<!-- Node17&#45;&gt;Node15 -->
<g id="edge28" class="edge"><title>Node17&#45;&gt;Node15</title>
<path fill="none" stroke="midnightblue" d="M1211.02,-123.324C1211.45,-107.587 1209.96,-74.2761 1191.5,-56 1169.77,-34.4875 1083.72,-20.8007 1035.93,-14.6983"/>
<polygon fill="midnightblue" stroke="midnightblue" points="1036.14,-11.1978 1025.79,-13.4438 1035.28,-18.1449 1036.14,-11.1978"/>
</g>
<!-- Node18 -->
<g id="node18" class="node"><title>Node18</title>
<polygon fill="white" stroke="#bfbfbf" points="1287,-56.5 1287,-86.5 1388,-86.5 1388,-56.5 1287,-56.5"/>
<text text-anchor="start" x="1295" y="-74.5" font-family="Helvetica,sans-Serif" font-size="10.00">boost/property_tree</text>
<text text-anchor="middle" x="1337.5" y="-63.5" font-family="Helvetica,sans-Serif" font-size="10.00">/ptree.hpp</text>
</g>
<!-- Node17&#45;&gt;Node18 -->
<g id="edge25" class="edge"><title>Node17&#45;&gt;Node18</title>
<path fill="none" stroke="midnightblue" d="M1228.7,-123.475C1246.78,-115.002 1275.09,-101.737 1298.31,-90.8628"/>
<polygon fill="midnightblue" stroke="midnightblue" points="1300,-93.9349 1307.57,-86.523 1297.03,-87.5961 1300,-93.9349"/>
</g>
<!-- Node19 -->
<g id="node19" class="node"><title>Node19</title>
<polygon fill="white" stroke="#bfbfbf" points="1406,-62 1406,-81 1441,-81 1441,-62 1406,-62"/>
<text text-anchor="middle" x="1423.5" y="-69" font-family="Helvetica,sans-Serif" font-size="10.00">map</text>
</g>
<!-- Node17&#45;&gt;Node19 -->
<g id="edge26" class="edge"><title>Node17&#45;&gt;Node19</title>
<path fill="none" stroke="midnightblue" d="M1262.45,-123.442C1300.63,-116.213 1353.33,-104.254 1397.5,-87 1398.54,-86.5956 1399.58,-86.1569 1400.62,-85.6925"/>
<polygon fill="midnightblue" stroke="midnightblue" points="1402.46,-88.6854 1409.81,-81.0505 1399.3,-82.4381 1402.46,-88.6854"/>
</g>
<!-- Node20 -->
<g id="node20" class="node"><title>Node20</title>
<polygon fill="white" stroke="#bfbfbf" points="1238.5,-62 1238.5,-81 1268.5,-81 1268.5,-62 1238.5,-62"/>
<text text-anchor="middle" x="1253.5" y="-69" font-family="Helvetica,sans-Serif" font-size="10.00">set</text>
</g>
<!-- Node17&#45;&gt;Node20 -->
<g id="edge27" class="edge"><title>Node17&#45;&gt;Node20</title>
<path fill="none" stroke="midnightblue" d="M1216.66,-123.475C1223.11,-114.55 1233.4,-100.307 1241.47,-89.1425"/>
<polygon fill="midnightblue" stroke="midnightblue" points="1244.33,-91.1642 1247.35,-81.0091 1238.66,-87.064 1244.33,-91.1642"/>
</g>
<!-- Node21&#45;&gt;Node4 -->
<g id="edge30" class="edge"><title>Node21&#45;&gt;Node4</title>
<path fill="none" stroke="midnightblue" d="M885.299,-299.333C705.581,-295.999 26.5,-277.605 26.5,-190 26.5,-190 26.5,-190 26.5,-132 26.5,-95.7138 26.5,-53.3066 26.5,-29.559"/>
<polygon fill="midnightblue" stroke="midnightblue" points="30.0001,-29.5085 26.5,-19.5085 23.0001,-29.5086 30.0001,-29.5085"/>
</g>
<!-- Node21&#45;&gt;Node12 -->
<g id="edge31" class="edge"><title>Node21&#45;&gt;Node12</title>
<path fill="none" stroke="midnightblue" d="M971.858,-300.372C1100.24,-300.319 1469.5,-291.357 1469.5,-190 1469.5,-190 1469.5,-190 1469.5,-132 1469.5,-97.1827 1474.59,-81.1414 1450.5,-56 1421.34,-25.5636 1372.67,-15.4388 1338.27,-12.216"/>
<polygon fill="midnightblue" stroke="midnightblue" points="1338.33,-8.71026 1328.08,-11.4226 1337.78,-15.6891 1338.33,-8.71026"/>
</g>
<!-- Node22 -->
<g id="node22" class="node"><title>Node22</title>
<g id="a_node22"><a xlink:href="Functions_8hpp.html" target="_top" xlink:title="This file contains Functions implementing the Strategy interface so they can be used inside a node of...">
<polygon fill="white" stroke="red" points="902.5,-179.5 902.5,-198.5 1064.5,-198.5 1064.5,-179.5 902.5,-179.5"/>
<text text-anchor="middle" x="983.5" y="-186.5" font-family="Helvetica,sans-Serif" font-size="10.00">Core/FunctionTree/Functions.hpp</text>
</a>
</g>
</g>
<!-- Node21&#45;&gt;Node22 -->
<g id="edge32" class="edge"><title>Node21&#45;&gt;Node22</title>
<path fill="none" stroke="midnightblue" d="M937.081,-291.431C945.203,-282.879 957.206,-269.025 964.5,-255 972.128,-240.332 977.109,-222.165 980.049,-208.769"/>
<polygon fill="midnightblue" stroke="midnightblue" points="983.51,-209.315 982.052,-198.821 976.647,-207.933 983.51,-209.315"/>
</g>
<!-- Node23 -->
<g id="node23" class="node"><title>Node23</title>
<g id="a_node23"><a xlink:href="TreeNode_8hpp.html" target="_top" xlink:title="TreeNode class. ">
<polygon fill="white" stroke="red" points="793.5,-235.5 793.5,-254.5 955.5,-254.5 955.5,-235.5 793.5,-235.5"/>
<text text-anchor="middle" x="874.5" y="-242.5" font-family="Helvetica,sans-Serif" font-size="10.00">Core/FunctionTree/TreeNode.hpp</text>
</a>
</g>
</g>
<!-- Node21&#45;&gt;Node23 -->
<g id="edge37" class="edge"><title>Node21&#45;&gt;Node23</title>
<path fill="none" stroke="midnightblue" d="M919.583,-291.083C911.72,-283.22 900.069,-271.569 890.581,-262.081"/>
<polygon fill="midnightblue" stroke="midnightblue" points="892.797,-259.347 883.251,-254.751 887.847,-264.297 892.797,-259.347"/>
</g>
<!-- Node22&#45;&gt;Node2 -->
<g id="edge36" class="edge"><title>Node22&#45;&gt;Node2</title>
<path fill="none" stroke="midnightblue" d="M918.376,-179.444C844.724,-169.767 724.99,-154.035 647.494,-143.853"/>
<polygon fill="midnightblue" stroke="midnightblue" points="647.69,-140.349 637.319,-142.516 646.778,-147.289 647.69,-140.349"/>
</g>
<!-- Node22&#45;&gt;Node4 -->
<g id="edge33" class="edge"><title>Node22&#45;&gt;Node4</title>
<path fill="none" stroke="midnightblue" d="M902.477,-184.601C686.488,-174.806 108.985,-143.547 45.5,-87 29.5044,-72.7525 25.9991,-47.2691 25.6698,-29.7681"/>
<polygon fill="midnightblue" stroke="midnightblue" points="29.1714,-29.6667 25.8126,-19.6184 22.1721,-29.5682 29.1714,-29.6667"/>
</g>
<!-- Node22&#45;&gt;Node11 -->
<g id="edge35" class="edge"><title>Node22&#45;&gt;Node11</title>
<path fill="none" stroke="midnightblue" d="M1001.19,-179.439C1017.38,-171.199 1041.63,-157.831 1060.5,-143 1081.29,-126.66 1101.91,-104.162 1114.9,-89.0141"/>
<polygon fill="midnightblue" stroke="midnightblue" points="1117.84,-90.9502 1121.61,-81.0464 1112.49,-86.4415 1117.84,-90.9502"/>
</g>
<!-- Node22&#45;&gt;Node15 -->
<g id="edge34" class="edge"><title>Node22&#45;&gt;Node15</title>
<path fill="none" stroke="midnightblue" d="M988.661,-179.489C998.566,-162.597 1019.93,-123.325 1027.5,-87 1030.31,-73.5119 1030.84,-69.3664 1027.5,-56 1025.06,-46.2452 1020.06,-36.2896 1015.26,-28.231"/>
<polygon fill="midnightblue" stroke="midnightblue" points="1018.19,-26.3225 1009.87,-19.768 1012.29,-30.0828 1018.19,-26.3225"/>
</g>
<!-- Node23&#45;&gt;Node4 -->
<g id="edge38" class="edge"><title>Node23&#45;&gt;Node4</title>
<path fill="none" stroke="midnightblue" d="M793.48,-241.907C598.465,-234.989 111.716,-205.918 12.5,-87 -1.15124,-70.6378 7.52553,-45.3243 16.0794,-28.4649"/>
<polygon fill="midnightblue" stroke="midnightblue" points="19.1771,-30.0954 20.9319,-19.6469 13.0443,-26.7206 19.1771,-30.0954"/>
</g>
<!-- Node23&#45;&gt;Node8 -->
<g id="edge39" class="edge"><title>Node23&#45;&gt;Node8</title>
<path fill="none" stroke="midnightblue" d="M874.5,-235.431C874.5,-201.754 874.5,-77.9939 874.5,-30.1018"/>
<polygon fill="midnightblue" stroke="midnightblue" points="878,-29.8957 874.5,-19.8958 871,-29.8958 878,-29.8957"/>
</g>
<!-- Node23&#45;&gt;Node22 -->
<g id="edge40" class="edge"><title>Node23&#45;&gt;Node22</title>
<path fill="none" stroke="midnightblue" d="M892.013,-235.324C909.572,-226.625 936.831,-213.12 957.031,-203.113"/>
<polygon fill="midnightblue" stroke="midnightblue" points="958.624,-206.23 966.031,-198.655 955.516,-199.958 958.624,-206.23"/>
</g>
</g>
</svg>
        <g id="navigator" transform="translate(0 0)" fill="#404254">
                <rect fill="#f2f5e9" fill-opacity="0.5" stroke="#606060" stroke-width=".5" x="0" y="0" width="60" height="60"/>
                <use id="zoomplus" xlink:href="#zoomPlus" x="17" y="9" onmousedown="handleZoom(evt,'in')"/>
                <use id="zoomminus" xlink:href="#zoomMin" x="42" y="9" onmousedown="handleZoom(evt,'out')"/>
                <use id="reset" xlink:href="#resetDef" x="30" y="36" onmousedown="handleReset()"/>
                <g id="arrowUp" xlink:href="#dirArrow" transform="translate(30 24)" onmousedown="handlePan(0,-1)">
                  <use xlink:href="#rim" fill="#404040">
                        <set attributeName="fill" to="#808080" begin="arrowUp.mouseover" end="arrowUp.mouseout"/>
                  </use>
                  <path fill="none" stroke="white" stroke-width="1.5" d="M0,-3.0v7 M-2.5,-0.5L0,-3.0L2.5,-0.5"/>
                </g>
                <g id="arrowRight" xlink:href="#dirArrow" transform="rotate(90) translate(36 -43)" onmousedown="handlePan(1,0)">
                  <use xlink:href="#rim" fill="#404040">
                        <set attributeName="fill" to="#808080" begin="arrowRight.mouseover" end="arrowRight.mouseout"/>
                  </use>
                  <path fill="none" stroke="white" stroke-width="1.5" d="M0,-3.0v7 M-2.5,-0.5L0,-3.0L2.5,-0.5"/>
                </g>
                <g id="arrowDown" xlink:href="#dirArrow" transform="rotate(180) translate(-30 -48)" onmousedown="handlePan(0,1)">
                  <use xlink:href="#rim" fill="#404040">
                        <set attributeName="fill" to="#808080" begin="arrowDown.mouseover" end="arrowDown.mouseout"/>
                  </use>
                  <path fill="none" stroke="white" stroke-width="1.5" d="M0,-3.0v7 M-2.5,-0.5L0,-3.0L2.5,-0.5"/>
                </g>
                <g id="arrowLeft" xlink:href="#dirArrow" transform="rotate(270) translate(-36 17)" onmousedown="handlePan(-1,0)">
                  <use xlink:href="#rim" fill="#404040">
                        <set attributeName="fill" to="#808080" begin="arrowLeft.mouseover" end="arrowLeft.mouseout"/>
                  </use>
                  <path fill="none" stroke="white" stroke-width="1.5" d="M0,-3.0v7 M-2.5,-0.5L0,-3.0L2.5,-0.5"/>
                </g>
        </g>
        <svg viewBox="0 0 15 15" width="100%" height="30px" preserveAspectRatio="xMaxYMin meet">
         <g id="arrow_out" transform="scale(0.3 0.3)">
          <a xlink:href="Coupling_8hpp__incl_org.svg" target="_base">
           <rect id="button" ry="5" rx="5" y="6" x="6" height="38" width="38"
                fill="#f2f5e9" fill-opacity="0.5" stroke="#606060" stroke-width="1.0"/>
           <path id="arrow"
             d="M 11.500037,31.436501 C 11.940474,20.09759 22.043105,11.32322 32.158766,21.979434 L 37.068811,17.246167 C 37.068811,17.246167 37.088388,32 37.088388,32 L 22.160133,31.978069 C 22.160133,31.978069 26.997745,27.140456 26.997745,27.140456 C 18.528582,18.264221 13.291696,25.230495 11.500037,31.436501 z"
             style="fill:#404040;"/>
          </a>
         </g>
        </svg>
</svg>
