<?xml version="1.0" encoding="UTF-8" standalone="no"?>
<!DOCTYPE svg PUBLIC "-//W3C//DTD SVG 1.1//EN"
 "http://www.w3.org/Graphics/SVG/1.1/DTD/svg11.dtd">
<!-- Generated by graphviz version 2.38.0 (20140413.2041)
 -->
<!-- Title: Tools/Plotting/DalitzPlot.hpp Pages: 1 -->
<svg width="1211pt" height="229pt"
 viewBox="0.00 0.00 1210.82 229.00" xmlns="http://www.w3.org/2000/svg" xmlns:xlink="http://www.w3.org/1999/xlink">
<g id="graph0" class="graph" transform="scale(1 1) rotate(0) translate(4 225)">
<title>Tools/Plotting/DalitzPlot.hpp</title>
<polygon fill="white" stroke="none" points="-4,4 -4,-225 1206.82,-225 1206.82,4 -4,4"/>
<!-- Node1 -->
<g id="node1" class="node"><title>Node1</title>
<polygon fill="#bfbfbf" stroke="black" points="236.818,-201.5 236.818,-220.5 377.818,-220.5 377.818,-201.5 236.818,-201.5"/>
<text text-anchor="middle" x="307.318" y="-208.5" font-family="Helvetica,sans-Serif" font-size="10.00">Tools/Plotting/DalitzPlot.hpp</text>
</g>
<!-- Node2 -->
<g id="node2" class="node"><title>Node2</title>
<polygon fill="white" stroke="#bfbfbf" points="151.818,-6 151.818,-25 186.818,-25 186.818,-6 151.818,-6"/>
<text text-anchor="middle" x="169.318" y="-13" font-family="Helvetica,sans-Serif" font-size="10.00">map</text>
</g>
<!-- Node1&#45;&gt;Node2 -->
<g id="edge1" class="edge"><title>Node1&#45;&gt;Node2</title>
<path fill="none" stroke="midnightblue" d="M236.616,-209.045C160.805,-206.345 47.6109,-196.906 20.3176,-165 -7.99514,-131.902 -5.0609,-102.398 20.3176,-67 48.0092,-28.3757 106.892,-18.9266 141.772,-16.8361"/>
<polygon fill="midnightblue" stroke="midnightblue" points="141.928,-20.3327 151.766,-16.3994 141.622,-13.3394 141.928,-20.3327"/>
</g>
<!-- Node3 -->
<g id="node3" class="node"><title>Node3</title>
<polygon fill="white" stroke="#bfbfbf" points="488.318,-6 488.318,-25 532.318,-25 532.318,-6 488.318,-6"/>
<text text-anchor="middle" x="510.318" y="-13" font-family="Helvetica,sans-Serif" font-size="10.00">vector</text>
</g>
<!-- Node1&#45;&gt;Node3 -->
<g id="edge2" class="edge"><title>Node1&#45;&gt;Node3</title>
<path fill="none" stroke="midnightblue" d="M236.661,-207.344C169.8,-203.169 76.3357,-192.455 53.3176,-165 44.4657,-154.442 45.8064,-145.55 53.3176,-134 157.393,26.0389 284.938,-76.5903 470.318,-31 473.375,-30.2481 476.523,-29.3446 479.647,-28.3608"/>
<polygon fill="midnightblue" stroke="midnightblue" points="481.069,-31.5739 489.403,-25.0322 478.809,-24.9489 481.069,-31.5739"/>
</g>
<!-- Node4 -->
<g id="node4" class="node"><title>Node4</title>
<polygon fill="white" stroke="#bfbfbf" points="62.8176,-140 62.8176,-159 119.818,-159 119.818,-140 62.8176,-140"/>
<text text-anchor="middle" x="91.3176" y="-147" font-family="Helvetica,sans-Serif" font-size="10.00">TGraph.h</text>
</g>
<!-- Node1&#45;&gt;Node4 -->
<g id="edge3" class="edge"><title>Node1&#45;&gt;Node4</title>
<path fill="none" stroke="midnightblue" d="M267.094,-201.428C230.544,-193.276 175.314,-180.049 128.318,-165 126.045,-164.272 123.71,-163.476 121.373,-162.644"/>
<polygon fill="midnightblue" stroke="midnightblue" points="122.486,-159.324 111.894,-159.099 120.034,-165.88 122.486,-159.324"/>
</g>
<!-- Node5 -->
<g id="node5" class="node"><title>Node5</title>
<polygon fill="white" stroke="#bfbfbf" points="137.818,-140 137.818,-159 188.818,-159 188.818,-140 137.818,-140"/>
<text text-anchor="middle" x="163.318" y="-147" font-family="Helvetica,sans-Serif" font-size="10.00">TH1D.h</text>
</g>
<!-- Node1&#45;&gt;Node5 -->
<g id="edge4" class="edge"><title>Node1&#45;&gt;Node5</title>
<path fill="none" stroke="midnightblue" d="M286.192,-201.466C264.018,-192.483 228.161,-177.885 197.318,-165 195.911,-164.413 194.473,-163.809 193.022,-163.198"/>
<polygon fill="midnightblue" stroke="midnightblue" points="194.006,-159.814 183.433,-159.137 191.276,-166.26 194.006,-159.814"/>
</g>
<!-- Node6 -->
<g id="node6" class="node"><title>Node6</title>
<polygon fill="white" stroke="#bfbfbf" points="206.818,-140 206.818,-159 257.818,-159 257.818,-140 206.818,-140"/>
<text text-anchor="middle" x="232.318" y="-147" font-family="Helvetica,sans-Serif" font-size="10.00">TH2D.h</text>
</g>
<!-- Node1&#45;&gt;Node6 -->
<g id="edge5" class="edge"><title>Node1&#45;&gt;Node6</title>
<path fill="none" stroke="midnightblue" d="M296.572,-201.475C284.765,-192.108 265.575,-176.884 251.235,-165.508"/>
<polygon fill="midnightblue" stroke="midnightblue" points="253.053,-162.482 243.043,-159.009 248.702,-167.966 253.053,-162.482"/>
</g>
<!-- Node7 -->
<g id="node7" class="node"><title>Node7</title>
<polygon fill="white" stroke="#bfbfbf" points="275.818,-140 275.818,-159 338.818,-159 338.818,-140 275.818,-140"/>
<text text-anchor="middle" x="307.318" y="-147" font-family="Helvetica,sans-Serif" font-size="10.00">TH2Poly.h</text>
</g>
<!-- Node1&#45;&gt;Node7 -->
<g id="edge6" class="edge"><title>Node1&#45;&gt;Node7</title>
<path fill="none" stroke="midnightblue" d="M307.318,-201.475C307.318,-193.08 307.318,-179.981 307.318,-169.163"/>
<polygon fill="midnightblue" stroke="midnightblue" points="310.818,-169.009 307.318,-159.009 303.818,-169.009 310.818,-169.009"/>
</g>
<!-- Node8 -->
<g id="node8" class="node"><title>Node8</title>
<polygon fill="white" stroke="#bfbfbf" points="357.318,-140 357.318,-159 407.318,-159 407.318,-140 357.318,-140"/>
<text text-anchor="middle" x="382.318" y="-147" font-family="Helvetica,sans-Serif" font-size="10.00">TTree.h</text>
</g>
<!-- Node1&#45;&gt;Node8 -->
<g id="edge7" class="edge"><title>Node1&#45;&gt;Node8</title>
<path fill="none" stroke="midnightblue" d="M318.063,-201.475C329.87,-192.108 349.061,-176.884 363.4,-165.508"/>
<polygon fill="midnightblue" stroke="midnightblue" points="365.933,-167.966 371.592,-159.009 361.582,-162.482 365.933,-167.966"/>
</g>
<!-- Node9 -->
<g id="node9" class="node"><title>Node9</title>
<g id="a_node9"><a xlink:href="FitParameter_8hpp.html" target="_top" xlink:title="Core/FitParameter.hpp">
<polygon fill="white" stroke="black" points="425.318,-140 425.318,-159 541.318,-159 541.318,-140 425.318,-140"/>
<text text-anchor="middle" x="483.318" y="-147" font-family="Helvetica,sans-Serif" font-size="10.00">Core/FitParameter.hpp</text>
</a>
</g>
</g>
<!-- Node1&#45;&gt;Node9 -->
<g id="edge8" class="edge"><title>Node1&#45;&gt;Node9</title>
<path fill="none" stroke="midnightblue" d="M332.534,-201.475C362.986,-191.18 414.366,-173.81 448.561,-162.25"/>
<polygon fill="midnightblue" stroke="midnightblue" points="449.796,-165.527 458.148,-159.009 447.554,-158.896 449.796,-165.527"/>
</g>
<!-- Node10 -->
<g id="node10" class="node"><title>Node10</title>
<g id="a_node10"><a xlink:href="Function_8hpp.html" target="_top" xlink:title="Core/Function.hpp">
<polygon fill="white" stroke="red" points="511.818,-73 511.818,-92 608.818,-92 608.818,-73 511.818,-73"/>
<text text-anchor="middle" x="560.318" y="-80" font-family="Helvetica,sans-Serif" font-size="10.00">Core/Function.hpp</text>
</a>
</g>
</g>
<!-- Node1&#45;&gt;Node10 -->
<g id="edge17" class="edge"><title>Node1&#45;&gt;Node10</title>
<path fill="none" stroke="midnightblue" d="M377.879,-206.022C441.073,-200.898 527.24,-189.531 550.318,-165 565.929,-148.405 565.945,-120.764 563.754,-102.338"/>
<polygon fill="midnightblue" stroke="midnightblue" points="567.182,-101.6 562.224,-92.2373 560.261,-102.649 567.182,-101.6"/>
</g>
<!-- Node15 -->
<g id="node15" class="node"><title>Node15</title>
<g id="a_node15"><a xlink:href="FunctionTreeIntensity_8hpp.html" target="_top" xlink:title="Core/FunctionTree/Function\lTreeIntensity.hpp">
<polygon fill="white" stroke="black" points="614.318,-134.5 614.318,-164.5 752.318,-164.5 752.318,-134.5 614.318,-134.5"/>
<text text-anchor="start" x="622.318" y="-152.5" font-family="Helvetica,sans-Serif" font-size="10.00">Core/FunctionTree/Function</text>
<text text-anchor="middle" x="683.318" y="-141.5" font-family="Helvetica,sans-Serif" font-size="10.00">TreeIntensity.hpp</text>
</a>
</g>
</g>
<!-- Node1&#45;&gt;Node15 -->
<g id="edge18" class="edge"><title>Node1&#45;&gt;Node15</title>
<path fill="none" stroke="midnightblue" d="M361.189,-201.475C424.801,-191.409 531.163,-174.578 604.148,-163.028"/>
<polygon fill="midnightblue" stroke="midnightblue" points="604.887,-166.455 614.217,-161.435 603.792,-159.541 604.887,-166.455"/>
</g>
<!-- Node19 -->
<g id="node19" class="node"><title>Node19</title>
<g id="a_node19"><a xlink:href="Particle_8hpp.html" target="_top" xlink:title="Particle and FourMomentum class. ">
<polygon fill="white" stroke="black" points="829.318,-73 829.318,-92 921.318,-92 921.318,-73 829.318,-73"/>
<text text-anchor="middle" x="875.318" y="-80" font-family="Helvetica,sans-Serif" font-size="10.00">Core/Particle.hpp</text>
</a>
</g>
</g>
<!-- Node1&#45;&gt;Node19 -->
<g id="edge28" class="edge"><title>Node1&#45;&gt;Node19</title>
<path fill="none" stroke="midnightblue" d="M378.221,-207.43C487.859,-202.709 693.02,-190.686 761.318,-165 800.72,-150.181 838.939,-118.161 859.573,-98.9632"/>
<polygon fill="midnightblue" stroke="midnightblue" points="861.99,-101.495 866.822,-92.0659 857.164,-96.4234 861.99,-101.495"/>
</g>
<!-- Node9&#45;&gt;Node3 -->
<g id="edge15" class="edge"><title>Node9&#45;&gt;Node3</title>
<path fill="none" stroke="midnightblue" d="M478.969,-139.688C472.073,-124.467 460.292,-92.4365 469.318,-67 473.991,-53.8294 483.727,-41.5915 492.539,-32.4623"/>
<polygon fill="midnightblue" stroke="midnightblue" points="495.175,-34.7803 499.894,-25.2945 490.289,-29.767 495.175,-34.7803"/>
</g>
<!-- Node9&#45;&gt;Node10 -->
<g id="edge9" class="edge"><title>Node9&#45;&gt;Node10</title>
<path fill="none" stroke="midnightblue" d="M493.702,-139.734C506.171,-129.208 527.291,-111.379 542.409,-98.6174"/>
<polygon fill="midnightblue" stroke="midnightblue" points="544.714,-101.252 550.098,-92.1273 540.198,-95.9034 544.714,-101.252"/>
</g>
<!-- Node11 -->
<g id="node11" class="node"><title>Node11</title>
<polygon fill="white" stroke="#bfbfbf" points="550.818,-6 550.818,-25 591.818,-25 591.818,-6 550.818,-6"/>
<text text-anchor="middle" x="571.318" y="-13" font-family="Helvetica,sans-Serif" font-size="10.00">string</text>
</g>
<!-- Node9&#45;&gt;Node11 -->
<g id="edge14" class="edge"><title>Node9&#45;&gt;Node11</title>
<path fill="none" stroke="midnightblue" d="M483.411,-139.883C483.971,-124.124 487.017,-90.1505 502.318,-67 512.658,-51.3551 529.595,-38.8534 544.101,-30.2025"/>
<polygon fill="midnightblue" stroke="midnightblue" points="546.196,-33.0392 553.188,-25.0793 542.758,-26.9415 546.196,-33.0392"/>
</g>
<!-- Node12 -->
<g id="node12" class="node"><title>Node12</title>
<g id="a_node12"><a xlink:href="Logging_8hpp.html" target="_top" xlink:title="Core/Logging.hpp">
<polygon fill="white" stroke="red" points="368.818,-6 368.818,-25 461.818,-25 461.818,-6 368.818,-6"/>
<text text-anchor="middle" x="415.318" y="-13" font-family="Helvetica,sans-Serif" font-size="10.00">Core/Logging.hpp</text>
</a>
</g>
</g>
<!-- Node9&#45;&gt;Node12 -->
<g id="edge12" class="edge"><title>Node9&#45;&gt;Node12</title>
<path fill="none" stroke="midnightblue" d="M478.856,-139.839C467.856,-118.486 439.26,-62.977 424.473,-34.2713"/>
<polygon fill="midnightblue" stroke="midnightblue" points="427.398,-32.3081 419.707,-25.0212 421.176,-35.5138 427.398,-32.3081"/>
</g>
<!-- Node13 -->
<g id="node13" class="node"><title>Node13</title>
<polygon fill="white" stroke="#bfbfbf" points="327.318,-73 327.318,-92 379.318,-92 379.318,-73 327.318,-73"/>
<text text-anchor="middle" x="353.318" y="-80" font-family="Helvetica,sans-Serif" font-size="10.00">ostream</text>
</g>
<!-- Node9&#45;&gt;Node13 -->
<g id="edge13" class="edge"><title>Node9&#45;&gt;Node13</title>
<path fill="none" stroke="midnightblue" d="M466.055,-139.869C444.007,-128.845 405.628,-109.655 379.853,-96.7678"/>
<polygon fill="midnightblue" stroke="midnightblue" points="381.162,-93.5089 370.652,-92.1672 378.031,-99.7699 381.162,-93.5089"/>
</g>
<!-- Node14 -->
<g id="node14" class="node"><title>Node14</title>
<polygon fill="white" stroke="#bfbfbf" points="213.818,-67.5 213.818,-97.5 308.818,-97.5 308.818,-67.5 213.818,-67.5"/>
<text text-anchor="start" x="221.818" y="-85.5" font-family="Helvetica,sans-Serif" font-size="10.00">boost/serialization</text>
<text text-anchor="middle" x="261.318" y="-74.5" font-family="Helvetica,sans-Serif" font-size="10.00">/nvp.hpp</text>
</g>
<!-- Node9&#45;&gt;Node14 -->
<g id="edge16" class="edge"><title>Node9&#45;&gt;Node14</title>
<path fill="none" stroke="midnightblue" d="M453.838,-139.869C419.588,-129.841 362.262,-113.056 319.052,-100.404"/>
<polygon fill="midnightblue" stroke="midnightblue" points="319.809,-96.9791 309.229,-97.5281 317.842,-103.697 319.809,-96.9791"/>
</g>
<!-- Node10&#45;&gt;Node3 -->
<g id="edge11" class="edge"><title>Node10&#45;&gt;Node3</title>
<path fill="none" stroke="midnightblue" d="M553.574,-72.7338C545.778,-62.5979 532.771,-45.6899 523.053,-33.0556"/>
<polygon fill="midnightblue" stroke="midnightblue" points="525.825,-30.9196 516.954,-25.1273 520.277,-35.1876 525.825,-30.9196"/>
</g>
<!-- Node10&#45;&gt;Node11 -->
<g id="edge10" class="edge"><title>Node10&#45;&gt;Node11</title>
<path fill="none" stroke="midnightblue" d="M561.801,-72.7338C563.417,-63.1826 566.051,-47.6183 568.139,-35.2829"/>
<polygon fill="midnightblue" stroke="midnightblue" points="571.64,-35.5711 569.858,-25.1273 564.738,-34.4031 571.64,-35.5711"/>
</g>
<!-- Node15&#45;&gt;Node10 -->
<g id="edge20" class="edge"><title>Node15&#45;&gt;Node10</title>
<path fill="none" stroke="midnightblue" d="M656.628,-134.396C635.429,-123.193 606,-107.641 585.268,-96.6853"/>
<polygon fill="midnightblue" stroke="midnightblue" points="586.892,-93.5848 576.415,-92.007 583.622,-99.7738 586.892,-93.5848"/>
</g>
<!-- Node16 -->
<g id="node16" class="node"><title>Node16</title>
<polygon fill="white" stroke="#bfbfbf" points="621.318,-6 621.318,-25 673.318,-25 673.318,-6 621.318,-6"/>
<text text-anchor="middle" x="647.318" y="-13" font-family="Helvetica,sans-Serif" font-size="10.00">memory</text>
</g>
<!-- Node15&#45;&gt;Node16 -->
<g id="edge19" class="edge"><title>Node15&#45;&gt;Node16</title>
<path fill="none" stroke="midnightblue" d="M735.232,-134.44C753.357,-126.765 771.787,-115.194 782.318,-98 789.514,-86.2509 790.24,-78.2722 782.318,-67 755.156,-28.3535 726.372,-48.0444 682.318,-31 680.673,-30.3637 678.989,-29.7016 677.292,-29.0261"/>
<polygon fill="midnightblue" stroke="midnightblue" points="678.193,-25.6146 667.61,-25.0971 675.56,-32.1008 678.193,-25.6146"/>
</g>
<!-- Node17 -->
<g id="node17" class="node"><title>Node17</title>
<g id="a_node17"><a xlink:href="ParameterList_8hpp.html" target="_top" xlink:title="ParameterList class. ">
<polygon fill="white" stroke="red" points="627.318,-67.5 627.318,-97.5 773.318,-97.5 773.318,-67.5 627.318,-67.5"/>
<text text-anchor="start" x="635.318" y="-85.5" font-family="Helvetica,sans-Serif" font-size="10.00">Core/FunctionTree/Parameter</text>
<text text-anchor="middle" x="700.318" y="-74.5" font-family="Helvetica,sans-Serif" font-size="10.00">List.hpp</text>
</a>
</g>
</g>
<!-- Node15&#45;&gt;Node17 -->
<g id="edge21" class="edge"><title>Node15&#45;&gt;Node17</title>
<path fill="none" stroke="midnightblue" d="M687.006,-134.396C689.078,-126.474 691.719,-116.379 694.101,-107.271"/>
<polygon fill="midnightblue" stroke="midnightblue" points="697.492,-108.137 696.636,-97.5765 690.72,-106.365 697.492,-108.137"/>
</g>
<!-- Node17&#45;&gt;Node2 -->
<g id="edge23" class="edge"><title>Node17&#45;&gt;Node2</title>
<path fill="none" stroke="midnightblue" d="M627.036,-68.4492C623.754,-67.9432 620.503,-67.4574 617.318,-67 458.836,-44.2458 267.584,-25.6118 197.12,-19.0416"/>
<polygon fill="midnightblue" stroke="midnightblue" points="197.152,-15.5297 186.872,-18.092 196.506,-22.4998 197.152,-15.5297"/>
</g>
<!-- Node17&#45;&gt;Node3 -->
<g id="edge26" class="edge"><title>Node17&#45;&gt;Node3</title>
<path fill="none" stroke="midnightblue" d="M650.321,-67.4385C618.711,-58.1032 577.196,-45.0202 541.318,-31 539.9,-30.4459 538.455,-29.8574 537.003,-29.2469"/>
<polygon fill="midnightblue" stroke="midnightblue" points="538.084,-25.8972 527.524,-25.0323 535.24,-32.2934 538.084,-25.8972"/>
</g>
<!-- Node17&#45;&gt;Node11 -->
<g id="edge25" class="edge"><title>Node17&#45;&gt;Node11</title>
<path fill="none" stroke="midnightblue" d="M672.327,-67.396C649.992,-56.1424 618.95,-40.501 597.192,-29.5375"/>
<polygon fill="midnightblue" stroke="midnightblue" points="598.706,-26.3812 588.201,-25.007 595.556,-32.6325 598.706,-26.3812"/>
</g>
<!-- Node17&#45;&gt;Node12 -->
<g id="edge27" class="edge"><title>Node17&#45;&gt;Node12</title>
<path fill="none" stroke="midnightblue" d="M638.828,-67.476C585.969,-55.4205 510.842,-38.2862 462.585,-27.2802"/>
<polygon fill="midnightblue" stroke="midnightblue" points="463.24,-23.84 452.713,-25.0287 461.684,-30.6647 463.24,-23.84"/>
</g>
<!-- Node17&#45;&gt;Node16 -->
<g id="edge24" class="edge"><title>Node17&#45;&gt;Node16</title>
<path fill="none" stroke="midnightblue" d="M688.817,-67.396C680.635,-57.3614 669.609,-43.8382 660.978,-33.2535"/>
<polygon fill="midnightblue" stroke="midnightblue" points="663.439,-30.7329 654.407,-25.1945 658.014,-35.1565 663.439,-30.7329"/>
</g>
<!-- Node18 -->
<g id="node18" class="node"><title>Node18</title>
<polygon fill="white" stroke="#bfbfbf" points="691.318,-6 691.318,-25 745.318,-25 745.318,-6 691.318,-6"/>
<text text-anchor="middle" x="718.318" y="-13" font-family="Helvetica,sans-Serif" font-size="10.00">iostream</text>
</g>
<!-- Node17&#45;&gt;Node18 -->
<g id="edge22" class="edge"><title>Node17&#45;&gt;Node18</title>
<path fill="none" stroke="midnightblue" d="M704.223,-67.396C706.863,-57.8631 710.375,-45.1818 713.233,-34.8624"/>
<polygon fill="midnightblue" stroke="midnightblue" points="716.614,-35.7659 715.91,-25.1945 709.868,-33.8977 716.614,-35.7659"/>
</g>
<!-- Node19&#45;&gt;Node3 -->
<g id="edge35" class="edge"><title>Node19&#45;&gt;Node3</title>
<path fill="none" stroke="midnightblue" d="M828.968,-74.2138C814.074,-71.8885 797.502,-69.3178 782.318,-67 675.258,-50.658 645.005,-62.2688 541.318,-31 539.44,-30.4339 537.532,-29.7728 535.632,-29.0506"/>
<polygon fill="midnightblue" stroke="midnightblue" points="536.949,-25.8075 526.379,-25.0874 534.193,-32.2421 536.949,-25.8075"/>
</g>
<!-- Node19&#45;&gt;Node18 -->
<g id="edge32" class="edge"><title>Node19&#45;&gt;Node18</title>
<path fill="none" stroke="midnightblue" d="M854.469,-72.8685C827.373,-61.6504 779.853,-41.9766 748.733,-29.0925"/>
<polygon fill="midnightblue" stroke="midnightblue" points="749.831,-25.7587 739.252,-25.1672 747.153,-32.2263 749.831,-25.7587"/>
</g>
<!-- Node20 -->
<g id="node20" class="node"><title>Node20</title>
<polygon fill="white" stroke="#bfbfbf" points="763.318,-6 763.318,-25 819.318,-25 819.318,-6 763.318,-6"/>
<text text-anchor="middle" x="791.318" y="-13" font-family="Helvetica,sans-Serif" font-size="10.00">algorithm</text>
</g>
<!-- Node19&#45;&gt;Node20 -->
<g id="edge29" class="edge"><title>Node19&#45;&gt;Node20</title>
<path fill="none" stroke="midnightblue" d="M863.989,-72.7338C850.261,-62.1106 826.919,-44.0485 810.398,-31.2642"/>
<polygon fill="midnightblue" stroke="midnightblue" points="812.517,-28.4791 802.467,-25.1273 808.234,-34.0152 812.517,-28.4791"/>
</g>
<!-- Node21 -->
<g id="node21" class="node"><title>Node21</title>
<polygon fill="white" stroke="#bfbfbf" points="837.318,-6 837.318,-25 875.318,-25 875.318,-6 837.318,-6"/>
<text text-anchor="middle" x="856.318" y="-13" font-family="Helvetica,sans-Serif" font-size="10.00">array</text>
</g>
<!-- Node19&#45;&gt;Node21 -->
<g id="edge30" class="edge"><title>Node19&#45;&gt;Node21</title>
<path fill="none" stroke="midnightblue" d="M872.755,-72.7338C869.935,-63.0852 865.321,-47.3001 861.698,-34.9063"/>
<polygon fill="midnightblue" stroke="midnightblue" points="865.005,-33.7436 858.839,-25.1273 858.286,-35.7077 865.005,-33.7436"/>
</g>
<!-- Node22 -->
<g id="node22" class="node"><title>Node22</title>
<polygon fill="white" stroke="#bfbfbf" points="893.318,-6 893.318,-25 937.318,-25 937.318,-6 893.318,-6"/>
<text text-anchor="middle" x="915.318" y="-13" font-family="Helvetica,sans-Serif" font-size="10.00">cmath</text>
</g>
<!-- Node19&#45;&gt;Node22 -->
<g id="edge31" class="edge"><title>Node19&#45;&gt;Node22</title>
<path fill="none" stroke="midnightblue" d="M880.712,-72.7338C886.83,-62.7928 896.956,-46.3377 904.678,-33.7892"/>
<polygon fill="midnightblue" stroke="midnightblue" points="907.748,-35.4783 910.009,-25.1273 901.787,-31.8095 907.748,-35.4783"/>
</g>
<!-- Node23 -->
<g id="node23" class="node"><title>Node23</title>
<polygon fill="white" stroke="#bfbfbf" points="955.818,-6 955.818,-25 1006.82,-25 1006.82,-6 955.818,-6"/>
<text text-anchor="middle" x="981.318" y="-13" font-family="Helvetica,sans-Serif" font-size="10.00">numeric</text>
</g>
<!-- Node19&#45;&gt;Node23 -->
<g id="edge33" class="edge"><title>Node19&#45;&gt;Node23</title>
<path fill="none" stroke="midnightblue" d="M889.613,-72.7338C907.335,-61.8669 937.75,-43.2161 958.661,-30.3931"/>
<polygon fill="midnightblue" stroke="midnightblue" points="960.553,-33.3386 967.248,-25.1273 956.894,-27.3712 960.553,-33.3386"/>
</g>
<!-- Node24 -->
<g id="node24" class="node"><title>Node24</title>
<polygon fill="white" stroke="#bfbfbf" points="1024.82,-6 1024.82,-25 1083.82,-25 1083.82,-6 1024.82,-6"/>
<text text-anchor="middle" x="1054.32" y="-13" font-family="Helvetica,sans-Serif" font-size="10.00">stdexcept</text>
</g>
<!-- Node19&#45;&gt;Node24 -->
<g id="edge34" class="edge"><title>Node19&#45;&gt;Node24</title>
<path fill="none" stroke="midnightblue" d="M899.574,-72.9833C927.712,-63.0643 975.468,-46.1069 1016.32,-31 1018.42,-30.2239 1020.58,-29.4178 1022.75,-28.6009"/>
<polygon fill="midnightblue" stroke="midnightblue" points="1024.13,-31.823 1032.24,-25.0111 1021.65,-25.2758 1024.13,-31.823"/>
</g>
<!-- Node25 -->
<g id="node25" class="node"><title>Node25</title>
<polygon fill="white" stroke="#bfbfbf" points="1101.82,-0.5 1101.82,-30.5 1202.82,-30.5 1202.82,-0.5 1101.82,-0.5"/>
<text text-anchor="start" x="1109.82" y="-18.5" font-family="Helvetica,sans-Serif" font-size="10.00">boost/property_tree</text>
<text text-anchor="middle" x="1152.32" y="-7.5" font-family="Helvetica,sans-Serif" font-size="10.00">/ptree.hpp</text>
</g>
<!-- Node19&#45;&gt;Node25 -->
<g id="edge36" class="edge"><title>Node19&#45;&gt;Node25</title>
<path fill="none" stroke="midnightblue" d="M912.771,-72.9837C954.191,-63.5301 1023.17,-47.6824 1091.69,-31.372"/>
<polygon fill="midnightblue" stroke="midnightblue" points="1092.88,-34.6869 1101.8,-28.9629 1091.26,-27.8778 1092.88,-34.6869"/>
</g>
</g>
</svg>
