<?xml version="1.0" encoding="UTF-8" standalone="no"?>
<!DOCTYPE svg PUBLIC "-//W3C//DTD SVG 1.1//EN"
 "http://www.w3.org/Graphics/SVG/1.1/DTD/svg11.dtd">
<!-- Generated by graphviz version 2.38.0 (20140413.2041)
 -->
<!-- Title: Physics/EvtGen/DalitzKinematics.cpp Pages: 1 -->
<svg width="2461pt" height="285pt"
 viewBox="0.00 0.00 2460.50 285.00" xmlns="http://www.w3.org/2000/svg" xmlns:xlink="http://www.w3.org/1999/xlink">
<g id="graph0" class="graph" transform="scale(1 1) rotate(0) translate(4 281)">
<title>Physics/EvtGen/DalitzKinematics.cpp</title>
<polygon fill="white" stroke="none" points="-4,4 -4,-281 2456.5,-281 2456.5,4 -4,4"/>
<!-- Node1 -->
<g id="node1" class="node"><title>Node1</title>
<polygon fill="#bfbfbf" stroke="black" points="1073,-257.5 1073,-276.5 1257,-276.5 1257,-257.5 1073,-257.5"/>
<text text-anchor="middle" x="1165" y="-264.5" font-family="Helvetica,sans-Serif" font-size="10.00">Physics/EvtGen/DalitzKinematics.cpp</text>
</g>
<!-- Node2 -->
<g id="node2" class="node"><title>Node2</title>
<g id="a_node2"><a xlink:href="DalitzKinematics_8hpp.html" target="_top" xlink:title="Contains DalitzKinematics class. ">
<polygon fill="white" stroke="black" points="135,-190.5 135,-209.5 319,-209.5 319,-190.5 135,-190.5"/>
<text text-anchor="middle" x="227" y="-197.5" font-family="Helvetica,sans-Serif" font-size="10.00">Physics/EvtGen/DalitzKinematics.hpp</text>
</a>
</g>
</g>
<!-- Node1&#45;&gt;Node2 -->
<g id="edge1" class="edge"><title>Node1&#45;&gt;Node2</title>
<path fill="none" stroke="midnightblue" d="M1072.95,-261.637C932.616,-254.709 656.788,-240.009 423,-221 387.006,-218.073 347.364,-214.159 313.206,-210.569"/>
<polygon fill="midnightblue" stroke="midnightblue" points="313.572,-207.089 303.259,-209.517 312.835,-214.05 313.572,-207.089"/>
</g>
<!-- Node3 -->
<g id="node3" class="node"><title>Node3</title>
<polygon fill="white" stroke="#bfbfbf" points="369,-0.5 369,-19.5 413,-19.5 413,-0.5 369,-0.5"/>
<text text-anchor="middle" x="391" y="-7.5" font-family="Helvetica,sans-Serif" font-size="10.00">vector</text>
</g>
<!-- Node1&#45;&gt;Node3 -->
<g id="edge30" class="edge"><title>Node1&#45;&gt;Node3</title>
<path fill="none" stroke="midnightblue" d="M1072.95,-265.128C898.324,-262.72 532.099,-253.778 485,-221 451.309,-197.553 411.128,-76.4024 396.593,-29.5386"/>
<polygon fill="midnightblue" stroke="midnightblue" points="399.882,-28.3259 393.608,-19.7885 393.189,-30.375 399.882,-28.3259"/>
</g>
<!-- Node6 -->
<g id="node6" class="node"><title>Node6</title>
<g id="a_node6"><a xlink:href="Particle_8hpp.html" target="_top" xlink:title="Particle and FourMomentum class. ">
<polygon fill="white" stroke="red" points="643,-56.5 643,-75.5 735,-75.5 735,-56.5 643,-56.5"/>
<text text-anchor="middle" x="689" y="-63.5" font-family="Helvetica,sans-Serif" font-size="10.00">Core/Particle.hpp</text>
</a>
</g>
</g>
<!-- Node1&#45;&gt;Node6 -->
<g id="edge19" class="edge"><title>Node1&#45;&gt;Node6</title>
<path fill="none" stroke="midnightblue" d="M1072.77,-266.89C965.878,-266.089 798.096,-258.596 749,-221 737.651,-212.309 707.617,-123.843 694.862,-85.058"/>
<polygon fill="midnightblue" stroke="midnightblue" points="698.186,-83.9617 691.753,-75.5437 691.533,-86.1363 698.186,-83.9617"/>
</g>
<!-- Node7 -->
<g id="node7" class="node"><title>Node7</title>
<polygon fill="white" stroke="#bfbfbf" points="595,-0.5 595,-19.5 651,-19.5 651,-0.5 595,-0.5"/>
<text text-anchor="middle" x="623" y="-7.5" font-family="Helvetica,sans-Serif" font-size="10.00">algorithm</text>
</g>
<!-- Node1&#45;&gt;Node7 -->
<g id="edge41" class="edge"><title>Node1&#45;&gt;Node7</title>
<path fill="none" stroke="midnightblue" d="M1072.65,-266.554C960.635,-265.536 779.964,-257.949 725,-221 679.458,-190.385 698.682,-156.806 667,-112 654.469,-94.2778 643.535,-95.4988 634,-76 626.93,-61.5412 624.308,-43.3537 623.381,-29.8968"/>
<polygon fill="midnightblue" stroke="midnightblue" points="626.877,-29.7277 622.94,-19.8914 619.884,-30.0358 626.877,-29.7277"/>
</g>
<!-- Node8 -->
<g id="node8" class="node"><title>Node8</title>
<polygon fill="white" stroke="#bfbfbf" points="678,-0.5 678,-19.5 722,-19.5 722,-0.5 678,-0.5"/>
<text text-anchor="middle" x="700" y="-7.5" font-family="Helvetica,sans-Serif" font-size="10.00">cmath</text>
</g>
<!-- Node1&#45;&gt;Node8 -->
<g id="edge40" class="edge"><title>Node1&#45;&gt;Node8</title>
<path fill="none" stroke="midnightblue" d="M1072.82,-266.269C975.978,-264.622 832.101,-256.08 791,-221 733.002,-171.499 782.272,-121.95 744,-56 737.534,-44.8574 727.69,-34.4331 718.952,-26.429"/>
<polygon fill="midnightblue" stroke="midnightblue" points="721.202,-23.747 711.367,-19.8076 716.599,-29.0205 721.202,-23.747"/>
</g>
<!-- Node9 -->
<g id="node9" class="node"><title>Node9</title>
<polygon fill="white" stroke="#bfbfbf" points="762,-0.5 762,-19.5 816,-19.5 816,-0.5 762,-0.5"/>
<text text-anchor="middle" x="789" y="-7.5" font-family="Helvetica,sans-Serif" font-size="10.00">iostream</text>
</g>
<!-- Node1&#45;&gt;Node9 -->
<g id="edge28" class="edge"><title>Node1&#45;&gt;Node9</title>
<path fill="none" stroke="midnightblue" d="M1072.77,-266.031C983.168,-264.002 855.699,-254.973 821,-221 768.49,-169.589 778.338,-70.9783 785.281,-29.7956"/>
<polygon fill="midnightblue" stroke="midnightblue" points="788.755,-30.2558 787.109,-19.7897 781.869,-28.9982 788.755,-30.2558"/>
</g>
<!-- Node10 -->
<g id="node10" class="node"><title>Node10</title>
<polygon fill="white" stroke="#bfbfbf" points="885.5,-0.5 885.5,-19.5 936.5,-19.5 936.5,-0.5 885.5,-0.5"/>
<text text-anchor="middle" x="911" y="-7.5" font-family="Helvetica,sans-Serif" font-size="10.00">numeric</text>
</g>
<!-- Node1&#45;&gt;Node10 -->
<g id="edge42" class="edge"><title>Node1&#45;&gt;Node10</title>
<path fill="none" stroke="midnightblue" d="M1095.32,-257.498C1046.92,-250.221 988.006,-238.177 970,-221 915.516,-169.023 910.075,-71.0978 910.362,-29.9593"/>
<polygon fill="midnightblue" stroke="midnightblue" points="913.865,-29.8085 910.566,-19.7408 906.867,-29.669 913.865,-29.8085"/>
</g>
<!-- Node12 -->
<g id="node12" class="node"><title>Node12</title>
<g id="a_node12"><a xlink:href="Event_8hpp.html" target="_top" xlink:title="Core/Event.hpp">
<polygon fill="white" stroke="black" points="573.5,-118 573.5,-137 658.5,-137 658.5,-118 573.5,-118"/>
<text text-anchor="middle" x="616" y="-125" font-family="Helvetica,sans-Serif" font-size="10.00">Core/Event.hpp</text>
</a>
</g>
</g>
<!-- Node1&#45;&gt;Node12 -->
<g id="edge15" class="edge"><title>Node1&#45;&gt;Node12</title>
<path fill="none" stroke="midnightblue" d="M1072.93,-262.008C939.884,-255.573 706.103,-241.518 673,-221 645.706,-204.082 629.506,-168.76 621.715,-146.992"/>
<polygon fill="midnightblue" stroke="midnightblue" points="624.958,-145.653 618.474,-137.274 618.318,-147.868 624.958,-145.653"/>
</g>
<!-- Node13 -->
<g id="node13" class="node"><title>Node13</title>
<g id="a_node13"><a xlink:href="Logging_8hpp.html" target="_top" xlink:title="Core/Logging.hpp">
<polygon fill="white" stroke="red" points="829.5,-190.5 829.5,-209.5 922.5,-209.5 922.5,-190.5 829.5,-190.5"/>
<text text-anchor="middle" x="876" y="-197.5" font-family="Helvetica,sans-Serif" font-size="10.00">Core/Logging.hpp</text>
</a>
</g>
</g>
<!-- Node1&#45;&gt;Node13 -->
<g id="edge18" class="edge"><title>Node1&#45;&gt;Node13</title>
<path fill="none" stroke="midnightblue" d="M1112.06,-257.438C1065.59,-249.474 996.331,-236.52 937,-221 927.991,-218.643 918.365,-215.695 909.484,-212.791"/>
<polygon fill="midnightblue" stroke="midnightblue" points="910.44,-209.42 899.846,-209.566 908.219,-216.059 910.44,-209.42"/>
</g>
<!-- Node14 -->
<g id="node14" class="node"><title>Node14</title>
<g id="a_node14"><a xlink:href="DataSet_8hpp.html" target="_top" xlink:title="Data/DataSet.hpp">
<polygon fill="white" stroke="black" points="494.5,-190.5 494.5,-209.5 589.5,-209.5 589.5,-190.5 494.5,-190.5"/>
<text text-anchor="middle" x="542" y="-197.5" font-family="Helvetica,sans-Serif" font-size="10.00">Data/DataSet.hpp</text>
</a>
</g>
</g>
<!-- Node1&#45;&gt;Node14 -->
<g id="edge20" class="edge"><title>Node1&#45;&gt;Node14</title>
<path fill="none" stroke="midnightblue" d="M1072.92,-263.345C963.711,-259.064 776.485,-248.157 618,-221 605.393,-218.84 591.827,-215.579 579.695,-212.315"/>
<polygon fill="midnightblue" stroke="midnightblue" points="580.467,-208.896 569.895,-209.595 578.595,-215.642 580.467,-208.896"/>
</g>
<!-- Node17 -->
<g id="node17" class="node"><title>Node17</title>
<polygon fill="white" stroke="#bfbfbf" points="979,-185 979,-215 1101,-215 1101,-185 979,-185"/>
<text text-anchor="start" x="987" y="-203" font-family="Helvetica,sans-Serif" font-size="10.00">ThirdParty/qft++/include</text>
<text text-anchor="middle" x="1040" y="-192" font-family="Helvetica,sans-Serif" font-size="10.00">/qft++/Vector4.h</text>
</g>
<!-- Node1&#45;&gt;Node17 -->
<g id="edge25" class="edge"><title>Node1&#45;&gt;Node17</title>
<path fill="none" stroke="midnightblue" d="M1148.4,-257.369C1130.11,-247.857 1100.13,-232.265 1076.32,-219.889"/>
<polygon fill="midnightblue" stroke="midnightblue" points="1077.7,-216.66 1067.21,-215.152 1074.47,-222.87 1077.7,-216.66"/>
</g>
<!-- Node18 -->
<g id="node18" class="node"><title>Node18</title>
<polygon fill="white" stroke="#bfbfbf" points="1119,-190.5 1119,-209.5 1211,-209.5 1211,-190.5 1119,-190.5"/>
<text text-anchor="middle" x="1165" y="-197.5" font-family="Helvetica,sans-Serif" font-size="10.00">Core/Particle.hpp</text>
</g>
<!-- Node1&#45;&gt;Node18 -->
<g id="edge26" class="edge"><title>Node1&#45;&gt;Node18</title>
<path fill="none" stroke="midnightblue" d="M1165,-257.234C1165,-247.683 1165,-232.118 1165,-219.783"/>
<polygon fill="midnightblue" stroke="midnightblue" points="1168.5,-219.627 1165,-209.627 1161.5,-219.627 1168.5,-219.627"/>
</g>
<!-- Node19 -->
<g id="node19" class="node"><title>Node19</title>
<polygon fill="white" stroke="#bfbfbf" points="1229.5,-179.5 1229.5,-220.5 1384.5,-220.5 1384.5,-179.5 1229.5,-179.5"/>
<text text-anchor="start" x="1237.5" y="-208.5" font-family="Helvetica,sans-Serif" font-size="10.00">/home/travis/build</text>
<text text-anchor="start" x="1237.5" y="-197.5" font-family="Helvetica,sans-Serif" font-size="10.00">/spflueger/ComPWA/ThirdParty</text>
<text text-anchor="middle" x="1307" y="-186.5" font-family="Helvetica,sans-Serif" font-size="10.00">/qft++/include/qft++/Tensor.h</text>
</g>
<!-- Node1&#45;&gt;Node19 -->
<g id="edge27" class="edge"><title>Node1&#45;&gt;Node19</title>
<path fill="none" stroke="midnightblue" d="M1183.86,-257.369C1201.92,-249.101 1230.01,-236.24 1254.81,-224.889"/>
<polygon fill="midnightblue" stroke="midnightblue" points="1256.49,-227.97 1264.13,-220.625 1253.58,-221.605 1256.49,-227.97"/>
</g>
<!-- Node20 -->
<g id="node20" class="node"><title>Node20</title>
<polygon fill="white" stroke="#bfbfbf" points="1402.5,-190.5 1402.5,-209.5 1451.5,-209.5 1451.5,-190.5 1402.5,-190.5"/>
<text text-anchor="middle" x="1427" y="-197.5" font-family="Helvetica,sans-Serif" font-size="10.00">cassert</text>
</g>
<!-- Node1&#45;&gt;Node20 -->
<g id="edge29" class="edge"><title>Node1&#45;&gt;Node20</title>
<path fill="none" stroke="midnightblue" d="M1243.76,-257.468C1288.83,-250.889 1345.83,-239.654 1394,-221 1398.15,-219.394 1402.36,-217.277 1406.33,-215.021"/>
<polygon fill="midnightblue" stroke="midnightblue" points="1408.32,-217.906 1415,-209.681 1404.65,-211.947 1408.32,-217.906"/>
</g>
<!-- Node21 -->
<g id="node21" class="node"><title>Node21</title>
<polygon fill="white" stroke="#bfbfbf" points="1469.5,-190.5 1469.5,-209.5 1522.5,-209.5 1522.5,-190.5 1469.5,-190.5"/>
<text text-anchor="middle" x="1496" y="-197.5" font-family="Helvetica,sans-Serif" font-size="10.00">complex</text>
</g>
<!-- Node1&#45;&gt;Node21 -->
<g id="edge31" class="edge"><title>Node1&#45;&gt;Node21</title>
<path fill="none" stroke="midnightblue" d="M1257.12,-260.745C1316.62,-255.24 1394.97,-243.986 1461,-221 1465.59,-219.404 1470.26,-217.204 1474.63,-214.845"/>
<polygon fill="midnightblue" stroke="midnightblue" points="1476.72,-217.676 1483.58,-209.598 1473.18,-211.637 1476.72,-217.676"/>
</g>
<!-- Node22 -->
<g id="node22" class="node"><title>Node22</title>
<polygon fill="white" stroke="#bfbfbf" points="1540.5,-190.5 1540.5,-209.5 1585.5,-209.5 1585.5,-190.5 1540.5,-190.5"/>
<text text-anchor="middle" x="1563" y="-197.5" font-family="Helvetica,sans-Serif" font-size="10.00">cstdlib</text>
</g>
<!-- Node1&#45;&gt;Node22 -->
<g id="edge32" class="edge"><title>Node1&#45;&gt;Node22</title>
<path fill="none" stroke="midnightblue" d="M1257.38,-266.031C1333.23,-263.405 1442.37,-253.462 1532,-221 1536.02,-219.545 1540.05,-217.49 1543.81,-215.246"/>
<polygon fill="midnightblue" stroke="midnightblue" points="1546.05,-217.959 1552.45,-209.515 1542.18,-212.126 1546.05,-217.959"/>
</g>
<!-- Node23 -->
<g id="node23" class="node"><title>Node23</title>
<polygon fill="white" stroke="#bfbfbf" points="1603.5,-190.5 1603.5,-209.5 1676.5,-209.5 1676.5,-190.5 1603.5,-190.5"/>
<text text-anchor="middle" x="1640" y="-197.5" font-family="Helvetica,sans-Serif" font-size="10.00">qft++/Type.h</text>
</g>
<!-- Node1&#45;&gt;Node23 -->
<g id="edge33" class="edge"><title>Node1&#45;&gt;Node23</title>
<path fill="none" stroke="midnightblue" d="M1257.11,-264.672C1345.22,-261.467 1481.15,-251.438 1595,-221 1601.5,-219.261 1608.27,-216.699 1614.51,-213.986"/>
<polygon fill="midnightblue" stroke="midnightblue" points="1616.18,-217.069 1623.78,-209.693 1613.24,-210.717 1616.18,-217.069"/>
</g>
<!-- Node24 -->
<g id="node24" class="node"><title>Node24</title>
<polygon fill="white" stroke="#bfbfbf" points="1694.5,-190.5 1694.5,-209.5 1809.5,-209.5 1809.5,-190.5 1694.5,-190.5"/>
<text text-anchor="middle" x="1752" y="-197.5" font-family="Helvetica,sans-Serif" font-size="10.00">qft++/OperationType.h</text>
</g>
<!-- Node1&#45;&gt;Node24 -->
<g id="edge34" class="edge"><title>Node1&#45;&gt;Node24</title>
<path fill="none" stroke="midnightblue" d="M1257.09,-263.824C1361.82,-260.017 1537.56,-249.578 1686,-221 1696.67,-218.946 1708.07,-215.835 1718.34,-212.674"/>
<polygon fill="midnightblue" stroke="midnightblue" points="1719.7,-215.912 1728.16,-209.535 1717.57,-209.245 1719.7,-215.912"/>
</g>
<!-- Node25 -->
<g id="node25" class="node"><title>Node25</title>
<polygon fill="white" stroke="#bfbfbf" points="1827.5,-190.5 1827.5,-209.5 1928.5,-209.5 1928.5,-190.5 1827.5,-190.5"/>
<text text-anchor="middle" x="1878" y="-197.5" font-family="Helvetica,sans-Serif" font-size="10.00">qft++/Conversion.h</text>
</g>
<!-- Node1&#45;&gt;Node25 -->
<g id="edge35" class="edge"><title>Node1&#45;&gt;Node25</title>
<path fill="none" stroke="midnightblue" d="M1257.02,-262.598C1410.97,-256.416 1714.17,-242.005 1819,-221 1828.4,-219.116 1838.36,-216.139 1847.37,-213.052"/>
<polygon fill="midnightblue" stroke="midnightblue" points="1848.83,-216.247 1857.06,-209.572 1846.47,-209.659 1848.83,-216.247"/>
</g>
<!-- Node26 -->
<g id="node26" class="node"><title>Node26</title>
<polygon fill="white" stroke="#bfbfbf" points="1946.5,-190.5 1946.5,-209.5 2077.5,-209.5 2077.5,-190.5 1946.5,-190.5"/>
<text text-anchor="middle" x="2012" y="-197.5" font-family="Helvetica,sans-Serif" font-size="10.00">qft++/SelectiveInclusion.h</text>
</g>
<!-- Node1&#45;&gt;Node26 -->
<g id="edge36" class="edge"><title>Node1&#45;&gt;Node26</title>
<path fill="none" stroke="midnightblue" d="M1257.29,-266.735C1402.92,-266.526 1694.52,-260.557 1938,-221 1950.52,-218.966 1963.98,-215.674 1975.93,-212.343"/>
<polygon fill="midnightblue" stroke="midnightblue" points="1976.93,-215.697 1985.57,-209.563 1974.99,-208.971 1976.93,-215.697"/>
</g>
<!-- Node27 -->
<g id="node27" class="node"><title>Node27</title>
<polygon fill="white" stroke="#bfbfbf" points="2096,-190.5 2096,-209.5 2202,-209.5 2202,-190.5 2096,-190.5"/>
<text text-anchor="middle" x="2149" y="-197.5" font-family="Helvetica,sans-Serif" font-size="10.00">qft++/Matrix_Base.h</text>
</g>
<!-- Node1&#45;&gt;Node27 -->
<g id="edge37" class="edge"><title>Node1&#45;&gt;Node27</title>
<path fill="none" stroke="midnightblue" d="M1257.3,-264.576C1458.24,-260.975 1929.83,-249.665 2087,-221 2097.16,-219.147 2107.95,-216.073 2117.64,-212.883"/>
<polygon fill="midnightblue" stroke="midnightblue" points="2118.95,-216.134 2127.27,-209.564 2116.67,-209.516 2118.95,-216.134"/>
</g>
<!-- Node28 -->
<g id="node28" class="node"><title>Node28</title>
<polygon fill="white" stroke="#bfbfbf" points="2220.5,-190.5 2220.5,-209.5 2329.5,-209.5 2329.5,-190.5 2220.5,-190.5"/>
<text text-anchor="middle" x="2275" y="-197.5" font-family="Helvetica,sans-Serif" font-size="10.00">qft++/Tensor_Base.h</text>
</g>
<!-- Node1&#45;&gt;Node28 -->
<g id="edge38" class="edge"><title>Node1&#45;&gt;Node28</title>
<path fill="none" stroke="midnightblue" d="M1257.16,-265.099C1477.35,-262.453 2029.15,-252.767 2211,-221 2221.58,-219.152 2232.84,-216.039 2242.93,-212.812"/>
<polygon fill="midnightblue" stroke="midnightblue" points="2244.18,-216.085 2252.55,-209.591 2241.95,-209.447 2244.18,-216.085"/>
</g>
<!-- Node29 -->
<g id="node29" class="node"><title>Node29</title>
<polygon fill="white" stroke="#bfbfbf" points="2347.5,-190.5 2347.5,-209.5 2452.5,-209.5 2452.5,-190.5 2347.5,-190.5"/>
<text text-anchor="middle" x="2400" y="-197.5" font-family="Helvetica,sans-Serif" font-size="10.00">qft++/TensorIndex.h</text>
</g>
<!-- Node1&#45;&gt;Node29 -->
<g id="edge39" class="edge"><title>Node1&#45;&gt;Node29</title>
<path fill="none" stroke="midnightblue" d="M1257.32,-265.772C1496.49,-264.65 2131.96,-258.154 2339,-221 2349.1,-219.188 2359.82,-216.094 2369.41,-212.874"/>
<polygon fill="midnightblue" stroke="midnightblue" points="2370.65,-216.147 2378.92,-209.522 2368.33,-209.545 2370.65,-216.147"/>
</g>
<!-- Node2&#45;&gt;Node3 -->
<g id="edge2" class="edge"><title>Node2&#45;&gt;Node3</title>
<path fill="none" stroke="midnightblue" d="M226.875,-190.295C227.046,-173.662 229.431,-136.815 246,-112 274.374,-69.5038 327.206,-39.5515 360.659,-23.8093"/>
<polygon fill="midnightblue" stroke="midnightblue" points="362.314,-26.9013 369.957,-19.5644 359.407,-20.5335 362.314,-26.9013"/>
</g>
<!-- Node4 -->
<g id="node4" class="node"><title>Node4</title>
<g id="a_node4"><a xlink:href="Kinematics_8hpp.html" target="_top" xlink:title="Core/Kinematics.hpp">
<polygon fill="white" stroke="red" points="0,-56.5 0,-75.5 108,-75.5 108,-56.5 0,-56.5"/>
<text text-anchor="middle" x="54" y="-63.5" font-family="Helvetica,sans-Serif" font-size="10.00">Core/Kinematics.hpp</text>
</a>
</g>
</g>
<!-- Node2&#45;&gt;Node4 -->
<g id="edge3" class="edge"><title>Node2&#45;&gt;Node4</title>
<path fill="none" stroke="midnightblue" d="M215.649,-190.339C186.682,-168.237 109.753,-109.54 73.4642,-81.8513"/>
<polygon fill="midnightblue" stroke="midnightblue" points="75.2411,-78.8046 65.1679,-75.5212 70.9949,-84.3697 75.2411,-78.8046"/>
</g>
<!-- Node5 -->
<g id="node5" class="node"><title>Node5</title>
<g id="a_node5"><a xlink:href="ParticleStateTransitionKinematicsInfo_8hpp.html" target="_top" xlink:title="Physics/ParticleStateTransition\lKinematicsInfo.hpp">
<polygon fill="white" stroke="red" points="255,-112.5 255,-142.5 409,-142.5 409,-112.5 255,-112.5"/>
<text text-anchor="start" x="263" y="-130.5" font-family="Helvetica,sans-Serif" font-size="10.00">Physics/ParticleStateTransition</text>
<text text-anchor="middle" x="332" y="-119.5" font-family="Helvetica,sans-Serif" font-size="10.00">KinematicsInfo.hpp</text>
</a>
</g>
</g>
<!-- Node2&#45;&gt;Node5 -->
<g id="edge5" class="edge"><title>Node2&#45;&gt;Node5</title>
<path fill="none" stroke="midnightblue" d="M239.875,-190.355C255.4,-179.931 281.977,-162.087 302.608,-148.235"/>
<polygon fill="midnightblue" stroke="midnightblue" points="304.684,-151.056 311.036,-142.576 300.782,-145.245 304.684,-151.056"/>
</g>
<!-- Node11 -->
<g id="node11" class="node"><title>Node11</title>
<g id="a_node11"><a xlink:href="SubSystem_8hpp.html" target="_top" xlink:title="Contains SubSystem class. ">
<polygon fill="white" stroke="red" points="126.5,-56.5 126.5,-75.5 251.5,-75.5 251.5,-56.5 126.5,-56.5"/>
<text text-anchor="middle" x="189" y="-63.5" font-family="Helvetica,sans-Serif" font-size="10.00">Physics/SubSystem.hpp</text>
</a>
</g>
</g>
<!-- Node2&#45;&gt;Node11 -->
<g id="edge13" class="edge"><title>Node2&#45;&gt;Node11</title>
<path fill="none" stroke="midnightblue" d="M224.507,-190.339C218.387,-169.08 202.52,-113.963 194.225,-85.1506"/>
<polygon fill="midnightblue" stroke="midnightblue" points="197.583,-84.1626 191.453,-75.5212 190.856,-86.0992 197.583,-84.1626"/>
</g>
<!-- Node4&#45;&gt;Node3 -->
<g id="edge4" class="edge"><title>Node4&#45;&gt;Node3</title>
<path fill="none" stroke="midnightblue" d="M107.399,-56.4435C178.161,-45.1048 300.8,-25.4535 358.814,-16.1574"/>
<polygon fill="midnightblue" stroke="midnightblue" points="359.547,-19.5847 368.867,-14.5465 358.439,-12.6729 359.547,-19.5847"/>
</g>
<!-- Node5&#45;&gt;Node3 -->
<g id="edge6" class="edge"><title>Node5&#45;&gt;Node3</title>
<path fill="none" stroke="midnightblue" d="M339.235,-112.337C350.01,-91.2433 370.261,-51.6 381.985,-28.6481"/>
<polygon fill="midnightblue" stroke="midnightblue" points="385.139,-30.167 386.571,-19.6695 378.905,-26.9827 385.139,-30.167"/>
</g>
<!-- Node5&#45;&gt;Node6 -->
<g id="edge7" class="edge"><title>Node5&#45;&gt;Node6</title>
<path fill="none" stroke="midnightblue" d="M409.024,-113.663C476.358,-102.44 572.54,-86.41 632.835,-76.3608"/>
<polygon fill="midnightblue" stroke="midnightblue" points="633.638,-79.7754 642.927,-74.6789 632.487,-72.8706 633.638,-79.7754"/>
</g>
<!-- Node6&#45;&gt;Node3 -->
<g id="edge12" class="edge"><title>Node6&#45;&gt;Node3</title>
<path fill="none" stroke="midnightblue" d="M642.764,-56.6217C581.765,-45.5682 475.964,-26.3961 423.056,-16.8089"/>
<polygon fill="midnightblue" stroke="midnightblue" points="423.673,-13.3637 413.209,-15.0245 422.425,-20.2515 423.673,-13.3637"/>
</g>
<!-- Node6&#45;&gt;Node7 -->
<g id="edge8" class="edge"><title>Node6&#45;&gt;Node7</title>
<path fill="none" stroke="midnightblue" d="M678.396,-56.324C668.544,-48.2631 653.649,-36.0765 641.785,-26.3695"/>
<polygon fill="midnightblue" stroke="midnightblue" points="643.753,-23.4575 633.797,-19.8339 639.32,-28.8752 643.753,-23.4575"/>
</g>
<!-- Node6&#45;&gt;Node8 -->
<g id="edge9" class="edge"><title>Node6&#45;&gt;Node8</title>
<path fill="none" stroke="midnightblue" d="M690.816,-56.083C692.274,-48.9272 694.371,-38.6353 696.193,-29.6911"/>
<polygon fill="midnightblue" stroke="midnightblue" points="699.651,-30.2485 698.217,-19.7511 692.792,-28.8512 699.651,-30.2485"/>
</g>
<!-- Node6&#45;&gt;Node9 -->
<g id="edge10" class="edge"><title>Node6&#45;&gt;Node9</title>
<path fill="none" stroke="midnightblue" d="M705.067,-56.324C720.958,-47.7428 745.507,-34.486 763.958,-24.5224"/>
<polygon fill="midnightblue" stroke="midnightblue" points="765.837,-27.4857 772.973,-19.6545 762.511,-21.3264 765.837,-27.4857"/>
</g>
<!-- Node6&#45;&gt;Node10 -->
<g id="edge11" class="edge"><title>Node6&#45;&gt;Node10</title>
<path fill="none" stroke="midnightblue" d="M724.177,-56.4435C765.541,-46.3819 833.816,-29.7746 875.374,-19.6658"/>
<polygon fill="midnightblue" stroke="midnightblue" points="876.442,-23.0082 885.331,-17.2437 874.787,-16.2065 876.442,-23.0082"/>
</g>
<!-- Node11&#45;&gt;Node3 -->
<g id="edge14" class="edge"><title>Node11&#45;&gt;Node3</title>
<path fill="none" stroke="midnightblue" d="M221.008,-56.4435C258.733,-46.3584 321.059,-29.6971 358.848,-19.5952"/>
<polygon fill="midnightblue" stroke="midnightblue" points="360.058,-22.8947 368.814,-16.9308 358.25,-16.1322 360.058,-22.8947"/>
</g>
<!-- Node12&#45;&gt;Node3 -->
<g id="edge17" class="edge"><title>Node12&#45;&gt;Node3</title>
<path fill="none" stroke="midnightblue" d="M611.072,-117.644C602.245,-102.614 582.272,-72.1752 557,-56 515.519,-29.4504 458.582,-18.4322 423.324,-13.9529"/>
<polygon fill="midnightblue" stroke="midnightblue" points="423.457,-10.4448 413.119,-12.7627 422.646,-17.3977 423.457,-10.4448"/>
</g>
<!-- Node12&#45;&gt;Node6 -->
<g id="edge16" class="edge"><title>Node12&#45;&gt;Node6</title>
<path fill="none" stroke="midnightblue" d="M626.459,-117.975C637.951,-108.608 656.63,-93.3839 670.587,-82.0081"/>
<polygon fill="midnightblue" stroke="midnightblue" points="673.02,-84.54 678.56,-75.5091 668.598,-79.114 673.02,-84.54"/>
</g>
<!-- Node14&#45;&gt;Node12 -->
<g id="edge22" class="edge"><title>Node14&#45;&gt;Node12</title>
<path fill="none" stroke="midnightblue" d="M551.074,-190.355C563.057,-178.939 584.384,-158.62 599.315,-144.396"/>
<polygon fill="midnightblue" stroke="midnightblue" points="602.026,-146.647 606.852,-137.215 597.197,-141.579 602.026,-146.647"/>
</g>
<!-- Node15 -->
<g id="node15" class="node"><title>Node15</title>
<polygon fill="white" stroke="#bfbfbf" points="503,-118 503,-137 555,-137 555,-118 503,-118"/>
<text text-anchor="middle" x="529" y="-125" font-family="Helvetica,sans-Serif" font-size="10.00">memory</text>
</g>
<!-- Node14&#45;&gt;Node15 -->
<g id="edge21" class="edge"><title>Node14&#45;&gt;Node15</title>
<path fill="none" stroke="midnightblue" d="M540.406,-190.355C538.437,-179.679 535.033,-161.217 532.455,-147.234"/>
<polygon fill="midnightblue" stroke="midnightblue" points="535.863,-146.415 530.607,-137.215 528.979,-147.684 535.863,-146.415"/>
</g>
<!-- Node16 -->
<g id="node16" class="node"><title>Node16</title>
<g id="a_node16"><a xlink:href="Function_8hpp.html" target="_top" xlink:title="Core/Function.hpp">
<polygon fill="white" stroke="red" points="451.5,-56.5 451.5,-75.5 548.5,-75.5 548.5,-56.5 451.5,-56.5"/>
<text text-anchor="middle" x="500" y="-63.5" font-family="Helvetica,sans-Serif" font-size="10.00">Core/Function.hpp</text>
</a>
</g>
</g>
<!-- Node14&#45;&gt;Node16 -->
<g id="edge23" class="edge"><title>Node14&#45;&gt;Node16</title>
<path fill="none" stroke="midnightblue" d="M531.108,-190.494C519.368,-180.564 501.375,-162.936 494,-143 487.127,-124.421 490.342,-101.588 494.198,-85.8261"/>
<polygon fill="midnightblue" stroke="midnightblue" points="497.689,-86.332 496.984,-75.7606 490.943,-84.4646 497.689,-86.332"/>
</g>
<!-- Node16&#45;&gt;Node3 -->
<g id="edge24" class="edge"><title>Node16&#45;&gt;Node3</title>
<path fill="none" stroke="midnightblue" d="M482.487,-56.324C464.928,-47.6247 437.669,-34.1202 417.469,-24.113"/>
<polygon fill="midnightblue" stroke="midnightblue" points="418.984,-20.9575 408.469,-19.6545 415.876,-27.23 418.984,-20.9575"/>
</g>
</g>
</svg>
