<?xml version="1.0" encoding="UTF-8" standalone="no"?>
<!DOCTYPE svg PUBLIC "-//W3C//DTD SVG 1.1//EN"
 "http://www.w3.org/Graphics/SVG/1.1/DTD/svg11.dtd">
<!-- Generated by graphviz version 2.38.0 (20140413.2041)
 -->
<!-- Title: Physics/EvtGen/DalitzKinematics.hpp Pages: 1 -->
<!--zoomable 218 -->
<svg id="main" version="1.1" xmlns="http://www.w3.org/2000/svg" xmlns:xlink="http://www.w3.org/1999/xlink" xml:space="preserve" onload="init(evt)">
<style type="text/css"><![CDATA[
.edge:hover path { stroke: red; }
.edge:hover polygon { stroke: red; fill: red; }
]]></style>
<script type="text/javascript"><![CDATA[
var edges = document.getElementsByTagName('g');
if (edges && edges.length) {
  for (var i=0;i<edges.length;i++) {
    if (edges[i].id.substr(0,4)=='edge') {
      edges[i].setAttribute('class','edge');
    }
  }
}
]]></script>
        <defs>
                <circle id="rim" cx="0" cy="0" r="7"/>
                <circle id="rim2" cx="0" cy="0" r="3.5"/>
                <g id="zoomPlus">
                        <use xlink:href="#rim" fill="#404040">
                                <set attributeName="fill" to="#808080" begin="zoomplus.mouseover" end="zoomplus.mouseout"/>
                        </use>
                        <path d="M-4,0h8M0,-4v8" fill="none" stroke="white" stroke-width="1.5" pointer-events="none"/>
                </g>
                <g id="zoomMin">
                        <use xlink:href="#rim" fill="#404040">
                                <set attributeName="fill" to="#808080" begin="zoomminus.mouseover" end="zoomminus.mouseout"/>
                        </use>
                        <path d="M-4,0h8" fill="none" stroke="white" stroke-width="1.5" pointer-events="none"/>
                </g>
                <g id="dirArrow">
                        <path fill="none" stroke="white" stroke-width="1.5" d="M0,-3.0v7 M-2.5,-0.5L0,-3.0L2.5,-0.5"/>
                </g>
               <g id="resetDef">
                       <use xlink:href="#rim2" fill="#404040">
                               <set attributeName="fill" to="#808080" begin="reset.mouseover" end="reset.mouseout"/>
                       </use>
               </g>
        </defs>

<script type="text/javascript">
var viewWidth = 531;
var viewHeight = 218;
var sectionId = 'dynsection-0';
</script>
<script xlink:href="svgpan.js"/>
<svg id="graph" class="graph">
<g id="viewport">
<title>Physics/EvtGen/DalitzKinematics.hpp</title>
<polygon fill="white" stroke="none" points="-4,4 -4,-214 526.855,-214 526.855,4 -4,4"/>
<!-- Node1 -->
<g id="node1" class="node"><title>Node1</title>
<polygon fill="#bfbfbf" stroke="black" points="49.5833,-190.5 49.5833,-209.5 233.583,-209.5 233.583,-190.5 49.5833,-190.5"/>
<text text-anchor="middle" x="141.583" y="-197.5" font-family="Helvetica,sans-Serif" font-size="10.00">Physics/EvtGen/DalitzKinematics.hpp</text>
</g>
<!-- Node2 -->
<g id="node2" class="node"><title>Node2</title>
<polygon fill="white" stroke="#bfbfbf" points="136.583,-6 136.583,-25 180.583,-25 180.583,-6 136.583,-6"/>
<text text-anchor="middle" x="158.583" y="-13" font-family="Helvetica,sans-Serif" font-size="10.00">vector</text>
</g>
<!-- Node1&#45;&gt;Node2 -->
<g id="edge1" class="edge"><title>Node1&#45;&gt;Node2</title>
<path fill="none" stroke="midnightblue" d="M62.2954,-190.437C40.0523,-183.953 18.2382,-172.858 4.58334,-154 -3.49716,-142.841 1.22936,-136.363 4.58334,-123 11.4568,-95.614 13.5972,-85.8895 34.5833,-67 60.7799,-43.4206 99.4457,-30.057 126.619,-23.0796"/>
<polygon fill="midnightblue" stroke="midnightblue" points="127.524,-26.4619 136.421,-20.7102 125.879,-19.6579 127.524,-26.4619"/>
</g>
<!-- Node3 -->
<g id="node3" class="node"><title>Node3</title>
<g id="a_node3"><a xlink:href="Kinematics_8hpp.html" target="_top" xlink:title="Core/Kinematics.hpp">
<polygon fill="white" stroke="black" points="13.5833,-129 13.5833,-148 121.583,-148 121.583,-129 13.5833,-129"/>
<text text-anchor="middle" x="67.5833" y="-136" font-family="Helvetica,sans-Serif" font-size="10.00">Core/Kinematics.hpp</text>
</a>
</g>
</g>
<!-- Node1&#45;&gt;Node3 -->
<g id="edge2" class="edge"><title>Node1&#45;&gt;Node3</title>
<path fill="none" stroke="midnightblue" d="M130.981,-190.475C119.331,-181.108 100.397,-165.884 86.2488,-154.508"/>
<polygon fill="midnightblue" stroke="midnightblue" points="88.1525,-151.548 78.1661,-148.009 83.7662,-157.003 88.1525,-151.548"/>
</g>
<!-- Node5 -->
<g id="node5" class="node"><title>Node5</title>
<g id="a_node5"><a xlink:href="ParticleStateTransitionKinematicsInfo_8hpp.html" target="_top" xlink:title="Physics/ParticleStateTransition\lKinematicsInfo.hpp">
<polygon fill="white" stroke="black" points="139.583,-123.5 139.583,-153.5 293.583,-153.5 293.583,-123.5 139.583,-123.5"/>
<text text-anchor="start" x="147.583" y="-141.5" font-family="Helvetica,sans-Serif" font-size="10.00">Physics/ParticleStateTransition</text>
<text text-anchor="middle" x="216.583" y="-130.5" font-family="Helvetica,sans-Serif" font-size="10.00">KinematicsInfo.hpp</text>
</a>
</g>
</g>
<!-- Node1&#45;&gt;Node5 -->
<g id="edge5" class="edge"><title>Node1&#45;&gt;Node5</title>
<path fill="none" stroke="midnightblue" d="M152.329,-190.475C162.392,-182.492 177.818,-170.254 191.033,-159.77"/>
<polygon fill="midnightblue" stroke="midnightblue" points="193.248,-162.48 198.907,-153.523 188.898,-156.996 193.248,-162.48"/>
</g>
<!-- Node10 -->
<g id="node10" class="node"><title>Node10</title>
<g id="a_node10"><a xlink:href="SubSystem_8hpp.html" target="_top" xlink:title="Contains SubSystem class. ">
<polygon fill="white" stroke="black" points="260.083,-67.5 260.083,-86.5 385.083,-86.5 385.083,-67.5 260.083,-67.5"/>
<text text-anchor="middle" x="322.583" y="-74.5" font-family="Helvetica,sans-Serif" font-size="10.00">Physics/SubSystem.hpp</text>
</a>
</g>
</g>
<!-- Node1&#45;&gt;Node10 -->
<g id="edge16" class="edge"><title>Node1&#45;&gt;Node10</title>
<path fill="none" stroke="midnightblue" d="M232.919,-190.466C258.35,-183.942 284.051,-172.817 302.583,-154 317.441,-138.915 321.635,-114.19 322.634,-97.057"/>
<polygon fill="midnightblue" stroke="midnightblue" points="326.144,-96.708 322.907,-86.6199 319.146,-96.5249 326.144,-96.708"/>
</g>
<!-- Node3&#45;&gt;Node2 -->
<g id="edge4" class="edge"><title>Node3&#45;&gt;Node2</title>
<path fill="none" stroke="midnightblue" d="M59.6551,-128.65C48.1313,-114.662 29.4864,-86.9859 42.5833,-67 61.0513,-38.8179 99.0388,-26.2776 126.521,-20.7525"/>
<polygon fill="midnightblue" stroke="midnightblue" points="127.255,-24.1767 136.477,-18.9605 126.015,-17.2874 127.255,-24.1767"/>
</g>
<!-- Node4 -->
<g id="node4" class="node"><title>Node4</title>
<polygon fill="white" stroke="#bfbfbf" points="52.0833,-67.5 52.0833,-86.5 93.0833,-86.5 93.0833,-67.5 52.0833,-67.5"/>
<text text-anchor="middle" x="72.5833" y="-74.5" font-family="Helvetica,sans-Serif" font-size="10.00">string</text>
</g>
<!-- Node3&#45;&gt;Node4 -->
<g id="edge3" class="edge"><title>Node3&#45;&gt;Node4</title>
<path fill="none" stroke="midnightblue" d="M68.2997,-128.975C69.0052,-120.58 70.106,-107.481 71.015,-96.6631"/>
<polygon fill="midnightblue" stroke="midnightblue" points="74.5185,-96.7671 71.8683,-86.5091 67.5431,-96.1808 74.5185,-96.7671"/>
</g>
<!-- Node5&#45;&gt;Node2 -->
<g id="edge8" class="edge"><title>Node5&#45;&gt;Node2</title>
<path fill="none" stroke="midnightblue" d="M181.443,-123.451C165.969,-115.287 149.342,-103.335 140.583,-87 131.574,-70.1962 139.446,-48.6996 147.424,-33.8855"/>
<polygon fill="midnightblue" stroke="midnightblue" points="150.46,-35.6274 152.506,-25.232 144.424,-32.0824 150.46,-35.6274"/>
</g>
<!-- Node5&#45;&gt;Node4 -->
<g id="edge7" class="edge"><title>Node5&#45;&gt;Node4</title>
<path fill="none" stroke="midnightblue" d="M182.457,-123.399C158.151,-113.356 125.794,-99.9865 102.497,-90.3602"/>
<polygon fill="midnightblue" stroke="midnightblue" points="103.696,-87.0685 93.117,-86.4844 101.023,-93.538 103.696,-87.0685"/>
</g>
<!-- Node6 -->
<g id="node6" class="node"><title>Node6</title>
<polygon fill="white" stroke="#bfbfbf" points="478.083,-6 478.083,-25 513.083,-25 513.083,-6 478.083,-6"/>
<text text-anchor="middle" x="495.583" y="-13" font-family="Helvetica,sans-Serif" font-size="10.00">map</text>
</g>
<!-- Node5&#45;&gt;Node6 -->
<g id="edge6" class="edge"><title>Node5&#45;&gt;Node6</title>
<path fill="none" stroke="midnightblue" d="M293.773,-135.452C373.01,-131.528 488.574,-120.119 516.583,-87 529.406,-71.8383 518.906,-49.0873 508.684,-33.5589"/>
<polygon fill="midnightblue" stroke="midnightblue" points="511.513,-31.498 502.876,-25.3625 505.802,-35.5453 511.513,-31.498"/>
</g>
<!-- Node7 -->
<g id="node7" class="node"><title>Node7</title>
<g id="a_node7"><a xlink:href="Particle_8hpp.html" target="_top" xlink:title="Particle and FourMomentum class. ">
<polygon fill="white" stroke="red" points="149.583,-67.5 149.583,-86.5 241.583,-86.5 241.583,-67.5 149.583,-67.5"/>
<text text-anchor="middle" x="195.583" y="-74.5" font-family="Helvetica,sans-Serif" font-size="10.00">Core/Particle.hpp</text>
</a>
</g>
</g>
<!-- Node5&#45;&gt;Node7 -->
<g id="edge9" class="edge"><title>Node5&#45;&gt;Node7</title>
<path fill="none" stroke="midnightblue" d="M211.607,-123.399C208.744,-115.288 205.115,-105.007 202.035,-96.2807"/>
<polygon fill="midnightblue" stroke="midnightblue" points="205.268,-94.9228 198.639,-86.6578 198.667,-97.2526 205.268,-94.9228"/>
</g>
<!-- Node9 -->
<g id="node9" class="node"><title>Node9</title>
<g id="a_node9"><a xlink:href="Properties_8hpp.html" target="_top" xlink:title="Core/Properties.hpp">
<polygon fill="white" stroke="red" points="403.583,-67.5 403.583,-86.5 507.583,-86.5 507.583,-67.5 403.583,-67.5"/>
<text text-anchor="middle" x="455.583" y="-74.5" font-family="Helvetica,sans-Serif" font-size="10.00">Core/Properties.hpp</text>
</a>
</g>
</g>
<!-- Node5&#45;&gt;Node9 -->
<g id="edge12" class="edge"><title>Node5&#45;&gt;Node9</title>
<path fill="none" stroke="midnightblue" d="M272.92,-123.475C315.233,-112.941 372.372,-98.7158 411.407,-88.9978"/>
<polygon fill="midnightblue" stroke="midnightblue" points="412.557,-92.3186 421.415,-86.5064 410.866,-85.5259 412.557,-92.3186"/>
</g>
<!-- Node7&#45;&gt;Node2 -->
<g id="edge10" class="edge"><title>Node7&#45;&gt;Node2</title>
<path fill="none" stroke="midnightblue" d="M190.282,-67.4751C184.842,-58.7268 176.225,-44.8691 169.347,-33.8093"/>
<polygon fill="midnightblue" stroke="midnightblue" points="172.128,-31.6528 163.875,-25.0091 166.183,-35.3494 172.128,-31.6528"/>
</g>
<!-- Node8 -->
<g id="node8" class="node"><title>Node8</title>
<polygon fill="white" stroke="#bfbfbf" points="315.083,-0.5 315.083,-30.5 416.083,-30.5 416.083,-0.5 315.083,-0.5"/>
<text text-anchor="start" x="323.083" y="-18.5" font-family="Helvetica,sans-Serif" font-size="10.00">boost/property_tree</text>
<text text-anchor="middle" x="365.583" y="-7.5" font-family="Helvetica,sans-Serif" font-size="10.00">/ptree.hpp</text>
</g>
<!-- Node7&#45;&gt;Node8 -->
<g id="edge11" class="edge"><title>Node7&#45;&gt;Node8</title>
<path fill="none" stroke="midnightblue" d="M219.94,-67.4751C244.901,-58.7388 284.42,-44.9073 315.998,-33.855"/>
<polygon fill="midnightblue" stroke="midnightblue" points="317.235,-37.13 325.518,-30.523 314.923,-30.523 317.235,-37.13"/>
</g>
<!-- Node9&#45;&gt;Node2 -->
<g id="edge15" class="edge"><title>Node9&#45;&gt;Node2</title>
<path fill="none" stroke="midnightblue" d="M412.044,-67.4836C366.331,-58.5152 292.372,-43.9292 228.583,-31 216.165,-28.483 202.519,-25.6675 190.599,-23.1918"/>
<polygon fill="midnightblue" stroke="midnightblue" points="191.146,-19.7307 180.642,-21.1197 189.719,-26.5838 191.146,-19.7307"/>
</g>
<!-- Node9&#45;&gt;Node6 -->
<g id="edge14" class="edge"><title>Node9&#45;&gt;Node6</title>
<path fill="none" stroke="midnightblue" d="M461.314,-67.4751C467.255,-58.6384 476.7,-44.5886 484.172,-33.475"/>
<polygon fill="midnightblue" stroke="midnightblue" points="487.188,-35.2608 489.863,-25.0091 481.379,-31.3554 487.188,-35.2608"/>
</g>
<!-- Node9&#45;&gt;Node8 -->
<g id="edge13" class="edge"><title>Node9&#45;&gt;Node8</title>
<path fill="none" stroke="midnightblue" d="M442.689,-67.4751C430.385,-59.3413 411.401,-46.7909 395.35,-36.1788"/>
<polygon fill="midnightblue" stroke="midnightblue" points="397.067,-33.1182 386.795,-30.523 393.206,-38.9575 397.067,-33.1182"/>
</g>
<!-- Node10&#45;&gt;Node2 -->
<g id="edge18" class="edge"><title>Node10&#45;&gt;Node2</title>
<path fill="none" stroke="midnightblue" d="M299.086,-67.4751C270.555,-57.1238 222.306,-39.619 190.446,-28.06"/>
<polygon fill="midnightblue" stroke="midnightblue" points="191.318,-24.6531 180.724,-24.5326 188.93,-31.2334 191.318,-24.6531"/>
</g>
<!-- Node10&#45;&gt;Node8 -->
<g id="edge19" class="edge"><title>Node10&#45;&gt;Node8</title>
<path fill="none" stroke="midnightblue" d="M328.744,-67.4751C334.133,-60.0192 342.203,-48.8519 349.418,-38.8685"/>
<polygon fill="midnightblue" stroke="midnightblue" points="352.428,-40.6781 355.449,-30.523 346.755,-36.5779 352.428,-40.6781"/>
</g>
<!-- Node11 -->
<g id="node11" class="node"><title>Node11</title>
<polygon fill="white" stroke="#bfbfbf" points="238.083,-6 238.083,-25 297.083,-25 297.083,-6 238.083,-6"/>
<text text-anchor="middle" x="267.583" y="-13" font-family="Helvetica,sans-Serif" font-size="10.00">functional</text>
</g>
<!-- Node10&#45;&gt;Node11 -->
<g id="edge17" class="edge"><title>Node10&#45;&gt;Node11</title>
<path fill="none" stroke="midnightblue" d="M314.703,-67.4751C306.29,-58.3733 292.764,-43.741 282.358,-32.483"/>
<polygon fill="midnightblue" stroke="midnightblue" points="284.807,-29.9766 275.449,-25.0091 279.667,-34.7282 284.807,-29.9766"/>
</g>
</g>
</svg>
        <g id="navigator" transform="translate(0 0)" fill="#404254">
                <rect fill="#f2f5e9" fill-opacity="0.5" stroke="#606060" stroke-width=".5" x="0" y="0" width="60" height="60"/>
                <use id="zoomplus" xlink:href="#zoomPlus" x="17" y="9" onmousedown="handleZoom(evt,'in')"/>
                <use id="zoomminus" xlink:href="#zoomMin" x="42" y="9" onmousedown="handleZoom(evt,'out')"/>
                <use id="reset" xlink:href="#resetDef" x="30" y="36" onmousedown="handleReset()"/>
                <g id="arrowUp" xlink:href="#dirArrow" transform="translate(30 24)" onmousedown="handlePan(0,-1)">
                  <use xlink:href="#rim" fill="#404040">
                        <set attributeName="fill" to="#808080" begin="arrowUp.mouseover" end="arrowUp.mouseout"/>
                  </use>
                  <path fill="none" stroke="white" stroke-width="1.5" d="M0,-3.0v7 M-2.5,-0.5L0,-3.0L2.5,-0.5"/>
                </g>
                <g id="arrowRight" xlink:href="#dirArrow" transform="rotate(90) translate(36 -43)" onmousedown="handlePan(1,0)">
                  <use xlink:href="#rim" fill="#404040">
                        <set attributeName="fill" to="#808080" begin="arrowRight.mouseover" end="arrowRight.mouseout"/>
                  </use>
                  <path fill="none" stroke="white" stroke-width="1.5" d="M0,-3.0v7 M-2.5,-0.5L0,-3.0L2.5,-0.5"/>
                </g>
                <g id="arrowDown" xlink:href="#dirArrow" transform="rotate(180) translate(-30 -48)" onmousedown="handlePan(0,1)">
                  <use xlink:href="#rim" fill="#404040">
                        <set attributeName="fill" to="#808080" begin="arrowDown.mouseover" end="arrowDown.mouseout"/>
                  </use>
                  <path fill="none" stroke="white" stroke-width="1.5" d="M0,-3.0v7 M-2.5,-0.5L0,-3.0L2.5,-0.5"/>
                </g>
                <g id="arrowLeft" xlink:href="#dirArrow" transform="rotate(270) translate(-36 17)" onmousedown="handlePan(-1,0)">
                  <use xlink:href="#rim" fill="#404040">
                        <set attributeName="fill" to="#808080" begin="arrowLeft.mouseover" end="arrowLeft.mouseout"/>
                  </use>
                  <path fill="none" stroke="white" stroke-width="1.5" d="M0,-3.0v7 M-2.5,-0.5L0,-3.0L2.5,-0.5"/>
                </g>
        </g>
        <svg viewBox="0 0 15 15" width="100%" height="30px" preserveAspectRatio="xMaxYMin meet">
         <g id="arrow_out" transform="scale(0.3 0.3)">
          <a xlink:href="DalitzKinematics_8hpp__incl_org.svg" target="_base">
           <rect id="button" ry="5" rx="5" y="6" x="6" height="38" width="38"
                fill="#f2f5e9" fill-opacity="0.5" stroke="#606060" stroke-width="1.0"/>
           <path id="arrow"
             d="M 11.500037,31.436501 C 11.940474,20.09759 22.043105,11.32322 32.158766,21.979434 L 37.068811,17.246167 C 37.068811,17.246167 37.088388,32 37.088388,32 L 22.160133,31.978069 C 22.160133,31.978069 26.997745,27.140456 26.997745,27.140456 C 18.528582,18.264221 13.291696,25.230495 11.500037,31.436501 z"
             style="fill:#404040;"/>
          </a>
         </g>
        </svg>
</svg>
