<?xml version="1.0" encoding="UTF-8" standalone="no"?>
<!DOCTYPE svg PUBLIC "-//W3C//DTD SVG 1.1//EN"
 "http://www.w3.org/Graphics/SVG/1.1/DTD/svg11.dtd">
<!-- Generated by graphviz version 2.38.0 (20140413.2041)
 -->
<!-- Title: Physics/EvtGen/DalitzKinematics.hpp Pages: 1 -->
<svg width="471pt" height="140pt"
 viewBox="0.00 0.00 471.00 140.00" xmlns="http://www.w3.org/2000/svg" xmlns:xlink="http://www.w3.org/1999/xlink">
<g id="graph0" class="graph" transform="scale(1 1) rotate(0) translate(4 136)">
<title>Physics/EvtGen/DalitzKinematics.hpp</title>
<polygon fill="white" stroke="none" points="-4,4 -4,-136 467,-136 467,4 -4,4"/>
<!-- Node1 -->
<g id="node1" class="node"><title>Node1</title>
<polygon fill="#bfbfbf" stroke="black" points="93,-112.5 93,-131.5 277,-131.5 277,-112.5 93,-112.5"/>
<text text-anchor="middle" x="185" y="-119.5" font-family="Helvetica,sans-Serif" font-size="10.00">Physics/EvtGen/DalitzKinematics.hpp</text>
</g>
<!-- Node2 -->
<g id="node2" class="node"><title>Node2</title>
<g id="a_node2"><a xlink:href="EvtGenFit_8cpp.html" target="_top" xlink:title="Examples/EvtGen/EvtGenFit.cpp">
<polygon fill="white" stroke="black" points="0,-0.5 0,-19.5 162,-19.5 162,-0.5 0,-0.5"/>
<text text-anchor="middle" x="81" y="-7.5" font-family="Helvetica,sans-Serif" font-size="10.00">Examples/EvtGen/EvtGenFit.cpp</text>
</a>
</g>
</g>
<!-- Node1&#45;&gt;Node2 -->
<g id="edge1" class="edge"><title>Node1&#45;&gt;Node2</title>
<path fill="none" stroke="midnightblue" d="M146.886,-108.538C130.369,-101.385 112.086,-90.8192 100,-76 86.3279,-59.2354 82.494,-32.9908 81.4189,-19.5543"/>
<polygon fill="midnightblue" stroke="midnightblue" points="145.764,-111.859 156.347,-112.361 148.387,-105.369 145.764,-111.859"/>
</g>
<!-- Node3 -->
<g id="node3" class="node"><title>Node3</title>
<g id="a_node3"><a xlink:href="EvtGenIF_8hpp.html" target="_top" xlink:title="Physics/EvtGen/EvtGenIF.hpp">
<polygon fill="white" stroke="black" points="109,-56.5 109,-75.5 261,-75.5 261,-56.5 109,-56.5"/>
<text text-anchor="middle" x="185" y="-63.5" font-family="Helvetica,sans-Serif" font-size="10.00">Physics/EvtGen/EvtGenIF.hpp</text>
</a>
</g>
</g>
<!-- Node1&#45;&gt;Node3 -->
<g id="edge2" class="edge"><title>Node1&#45;&gt;Node3</title>
<path fill="none" stroke="midnightblue" d="M185,-101.805C185,-92.9102 185,-82.7798 185,-75.7511"/>
<polygon fill="midnightblue" stroke="midnightblue" points="181.5,-102.083 185,-112.083 188.5,-102.083 181.5,-102.083"/>
</g>
<!-- Node5 -->
<g id="node5" class="node"><title>Node5</title>
<g id="a_node5"><a xlink:href="DalitzKinematics_8cpp.html" target="_top" xlink:title="Physics/EvtGen/DalitzKinematics.cpp">
<polygon fill="white" stroke="black" points="279,-56.5 279,-75.5 463,-75.5 463,-56.5 279,-56.5"/>
<text text-anchor="middle" x="371" y="-63.5" font-family="Helvetica,sans-Serif" font-size="10.00">Physics/EvtGen/DalitzKinematics.cpp</text>
</a>
</g>
</g>
<!-- Node1&#45;&gt;Node5 -->
<g id="edge5" class="edge"><title>Node1&#45;&gt;Node5</title>
<path fill="none" stroke="midnightblue" d="M224.378,-109.568C259.466,-99.381 310.021,-84.7034 341.666,-75.5164"/>
<polygon fill="midnightblue" stroke="midnightblue" points="223.1,-106.294 214.472,-112.444 225.052,-113.017 223.1,-106.294"/>
</g>
<!-- Node3&#45;&gt;Node2 -->
<g id="edge3" class="edge"><title>Node3&#45;&gt;Node2</title>
<path fill="none" stroke="midnightblue" d="M159.172,-51.5895C139.943,-41.6052 114.255,-28.2672 97.6679,-19.6545"/>
<polygon fill="midnightblue" stroke="midnightblue" points="157.803,-54.822 168.291,-56.324 161.029,-48.6095 157.803,-54.822"/>
</g>
<!-- Node4 -->
<g id="node4" class="node"><title>Node4</title>
<g id="a_node4"><a xlink:href="EvtGenIF_8cpp.html" target="_top" xlink:title="Physics/EvtGen/EvtGenIF.cpp">
<polygon fill="white" stroke="black" points="180,-0.5 180,-19.5 332,-19.5 332,-0.5 180,-0.5"/>
<text text-anchor="middle" x="256" y="-7.5" font-family="Helvetica,sans-Serif" font-size="10.00">Physics/EvtGen/EvtGenIF.cpp</text>
</a>
</g>
</g>
<!-- Node3&#45;&gt;Node4 -->
<g id="edge4" class="edge"><title>Node3&#45;&gt;Node4</title>
<path fill="none" stroke="midnightblue" d="M204.59,-50.1008C217.368,-40.3824 233.613,-28.0269 244.385,-19.8339"/>
<polygon fill="midnightblue" stroke="midnightblue" points="202.248,-47.4844 196.407,-56.324 206.486,-53.0561 202.248,-47.4844"/>
</g>
</g>
</svg>
