<?xml version="1.0" encoding="UTF-8" standalone="no"?>
<!DOCTYPE svg PUBLIC "-//W3C//DTD SVG 1.1//EN"
 "http://www.w3.org/Graphics/SVG/1.1/DTD/svg11.dtd">
<!-- Generated by graphviz version 2.38.0 (20140413.2041)
 -->
<!-- Title: Tools/Plotting/DalitzPlot.cpp Pages: 1 -->
<!--zoomable 274 -->
<svg id="main" version="1.1" xmlns="http://www.w3.org/2000/svg" xmlns:xlink="http://www.w3.org/1999/xlink" xml:space="preserve" onload="init(evt)">
<style type="text/css"><![CDATA[
.edge:hover path { stroke: red; }
.edge:hover polygon { stroke: red; fill: red; }
]]></style>
<script type="text/javascript"><![CDATA[
var edges = document.getElementsByTagName('g');
if (edges && edges.length) {
  for (var i=0;i<edges.length;i++) {
    if (edges[i].id.substr(0,4)=='edge') {
      edges[i].setAttribute('class','edge');
    }
  }
}
]]></script>
        <defs>
                <circle id="rim" cx="0" cy="0" r="7"/>
                <circle id="rim2" cx="0" cy="0" r="3.5"/>
                <g id="zoomPlus">
                        <use xlink:href="#rim" fill="#404040">
                                <set attributeName="fill" to="#808080" begin="zoomplus.mouseover" end="zoomplus.mouseout"/>
                        </use>
                        <path d="M-4,0h8M0,-4v8" fill="none" stroke="white" stroke-width="1.5" pointer-events="none"/>
                </g>
                <g id="zoomMin">
                        <use xlink:href="#rim" fill="#404040">
                                <set attributeName="fill" to="#808080" begin="zoomminus.mouseover" end="zoomminus.mouseout"/>
                        </use>
                        <path d="M-4,0h8" fill="none" stroke="white" stroke-width="1.5" pointer-events="none"/>
                </g>
                <g id="dirArrow">
                        <path fill="none" stroke="white" stroke-width="1.5" d="M0,-3.0v7 M-2.5,-0.5L0,-3.0L2.5,-0.5"/>
                </g>
               <g id="resetDef">
                       <use xlink:href="#rim2" fill="#404040">
                               <set attributeName="fill" to="#808080" begin="reset.mouseover" end="reset.mouseout"/>
                       </use>
               </g>
        </defs>

<script type="text/javascript">
var viewWidth = 2369;
var viewHeight = 274;
var sectionId = 'dynsection-0';
</script>
<script xlink:href="svgpan.js"/>
<svg id="graph" class="graph">
<g id="viewport">
<title>Tools/Plotting/DalitzPlot.cpp</title>
<polygon fill="white" stroke="none" points="-4,4 -4,-270 2365.25,-270 2365.25,4 -4,4"/>
<!-- Node1 -->
<g id="node1" class="node"><title>Node1</title>
<polygon fill="#bfbfbf" stroke="black" points="1374.25,-246.5 1374.25,-265.5 1515.25,-265.5 1515.25,-246.5 1374.25,-246.5"/>
<text text-anchor="middle" x="1444.75" y="-253.5" font-family="Helvetica,sans-Serif" font-size="10.00">Tools/Plotting/DalitzPlot.cpp</text>
</g>
<!-- Node2 -->
<g id="node2" class="node"><title>Node2</title>
<polygon fill="white" stroke="#bfbfbf" points="137.251,-0.5 137.251,-19.5 188.251,-19.5 188.251,-0.5 137.251,-0.5"/>
<text text-anchor="middle" x="162.751" y="-7.5" font-family="Helvetica,sans-Serif" font-size="10.00">numeric</text>
</g>
<!-- Node1&#45;&gt;Node2 -->
<g id="edge1" class="edge"><title>Node1&#45;&gt;Node2</title>
<path fill="none" stroke="midnightblue" d="M1374.06,-254.535C1129.61,-252.632 328.949,-243.855 218.751,-210 111.48,-177.045 59.1095,-174.174 4.75076,-76 -21.7849,-28.0757 72.2011,-15.4695 126.623,-12.165"/>
<polygon fill="midnightblue" stroke="midnightblue" points="127.13,-15.6432 136.932,-11.6205 126.761,-8.65292 127.13,-15.6432"/>
</g>
<!-- Node3 -->
<g id="node3" class="node"><title>Node3</title>
<polygon fill="white" stroke="#bfbfbf" points="227.751,-185 227.751,-204 273.751,-204 273.751,-185 227.751,-185"/>
<text text-anchor="middle" x="250.751" y="-192" font-family="Helvetica,sans-Serif" font-size="10.00">stdio.h</text>
</g>
<!-- Node1&#45;&gt;Node3 -->
<g id="edge2" class="edge"><title>Node1&#45;&gt;Node3</title>
<path fill="none" stroke="midnightblue" d="M1374.24,-253.849C1138.79,-249.786 388.54,-235.002 282.751,-210 280.532,-209.476 278.279,-208.795 276.05,-208.016"/>
<polygon fill="midnightblue" stroke="midnightblue" points="277.179,-204.696 266.599,-204.139 274.523,-211.173 277.179,-204.696"/>
</g>
<!-- Node4 -->
<g id="node4" class="node"><title>Node4</title>
<g id="a_node4"><a xlink:href="DalitzPlot_8hpp.html" target="_top" xlink:title="DalitzPlot.hpp">
<polygon fill="white" stroke="black" points="981.751,-185 981.751,-204 1059.75,-204 1059.75,-185 981.751,-185"/>
<text text-anchor="middle" x="1020.75" y="-192" font-family="Helvetica,sans-Serif" font-size="10.00">DalitzPlot.hpp</text>
</a>
</g>
</g>
<!-- Node1&#45;&gt;Node4 -->
<g id="edge3" class="edge"><title>Node1&#45;&gt;Node4</title>
<path fill="none" stroke="midnightblue" d="M1384,-246.475C1299.41,-234.605 1147.79,-213.327 1069.89,-202.396"/>
<polygon fill="midnightblue" stroke="midnightblue" points="1070.25,-198.912 1059.86,-200.988 1069.28,-205.844 1070.25,-198.912"/>
</g>
<!-- Node14 -->
<g id="node14" class="node"><title>Node14</title>
<g id="a_node14"><a xlink:href="Logging_8hpp.html" target="_top" xlink:title="Core/Logging.hpp">
<polygon fill="white" stroke="red" points="1398.25,-56.5 1398.25,-75.5 1491.25,-75.5 1491.25,-56.5 1398.25,-56.5"/>
<text text-anchor="middle" x="1444.75" y="-63.5" font-family="Helvetica,sans-Serif" font-size="10.00">Core/Logging.hpp</text>
</a>
</g>
</g>
<!-- Node1&#45;&gt;Node14 -->
<g id="edge42" class="edge"><title>Node1&#45;&gt;Node14</title>
<path fill="none" stroke="midnightblue" d="M1444.75,-246.434C1444.75,-217.928 1444.75,-125.822 1444.75,-85.8263"/>
<polygon fill="midnightblue" stroke="midnightblue" points="1448.25,-85.6168 1444.75,-75.6168 1441.25,-85.6168 1448.25,-85.6168"/>
</g>
<!-- Node18 -->
<g id="node18" class="node"><title>Node18</title>
<g id="a_node18"><a xlink:href="HistTools_8hpp.html" target="_top" xlink:title="Collection of hopefully usefule routines to plot histograms, e.g. ">
<polygon fill="white" stroke="black" points="1583.25,-185 1583.25,-204 1660.25,-204 1660.25,-185 1583.25,-185"/>
<text text-anchor="middle" x="1621.75" y="-192" font-family="Helvetica,sans-Serif" font-size="10.00">HistTools.hpp</text>
</a>
</g>
</g>
<!-- Node1&#45;&gt;Node18 -->
<g id="edge23" class="edge"><title>Node1&#45;&gt;Node18</title>
<path fill="none" stroke="midnightblue" d="M1470.11,-246.475C1500.74,-236.18 1552.41,-218.81 1586.8,-207.25"/>
<polygon fill="midnightblue" stroke="midnightblue" points="1588.07,-210.513 1596.44,-204.009 1585.84,-203.878 1588.07,-210.513"/>
</g>
<!-- Node19 -->
<g id="node19" class="node"><title>Node19</title>
<polygon fill="white" stroke="#bfbfbf" points="1473.25,-118 1473.25,-137 1538.25,-137 1538.25,-118 1473.25,-118"/>
<text text-anchor="middle" x="1505.75" y="-125" font-family="Helvetica,sans-Serif" font-size="10.00">TCanvas.h</text>
</g>
<!-- Node1&#45;&gt;Node19 -->
<g id="edge60" class="edge"><title>Node1&#45;&gt;Node19</title>
<path fill="none" stroke="midnightblue" d="M1448.94,-246.305C1458.82,-225.813 1483.74,-174.145 1497.05,-146.542"/>
<polygon fill="midnightblue" stroke="midnightblue" points="1500.34,-147.783 1501.53,-137.256 1494.03,-144.743 1500.34,-147.783"/>
</g>
<!-- Node28 -->
<g id="node28" class="node"><title>Node28</title>
<polygon fill="white" stroke="#bfbfbf" points="2249.25,-118 2249.25,-137 2302.25,-137 2302.25,-118 2249.25,-118"/>
<text text-anchor="middle" x="2275.75" y="-125" font-family="Helvetica,sans-Serif" font-size="10.00">TStyle.h</text>
</g>
<!-- Node1&#45;&gt;Node28 -->
<g id="edge62" class="edge"><title>Node1&#45;&gt;Node28</title>
<path fill="none" stroke="midnightblue" d="M1515.28,-249.434C1560.77,-243.801 1620.28,-232.521 1668.75,-210 1688.83,-200.671 1687.11,-187.026 1707.75,-179 1814.05,-137.659 2107.18,-161.372 2219.75,-143 2226.13,-141.96 2232.83,-140.527 2239.3,-138.965"/>
<polygon fill="midnightblue" stroke="midnightblue" points="2240.36,-142.305 2249.19,-136.441 2238.63,-135.523 2240.36,-142.305"/>
</g>
<!-- Node29 -->
<g id="node29" class="node"><title>Node29</title>
<g id="a_node29"><a xlink:href="Event_8hpp.html" target="_top" xlink:title="Core/Event.hpp">
<polygon fill="white" stroke="black" points="278.251,-118 278.251,-137 363.251,-137 363.251,-118 278.251,-118"/>
<text text-anchor="middle" x="320.751" y="-125" font-family="Helvetica,sans-Serif" font-size="10.00">Core/Event.hpp</text>
</a>
</g>
</g>
<!-- Node1&#45;&gt;Node29 -->
<g id="edge39" class="edge"><title>Node1&#45;&gt;Node29</title>
<path fill="none" stroke="midnightblue" d="M1374.07,-253.308C1199.14,-248.786 749.506,-235.03 601.751,-210 509.726,-194.411 405.036,-159.212 353.274,-140.585"/>
<polygon fill="midnightblue" stroke="midnightblue" points="354.24,-137.213 343.646,-137.092 351.853,-143.793 354.24,-137.213"/>
</g>
<!-- Node30 -->
<g id="node30" class="node"><title>Node30</title>
<g id="a_node30"><a xlink:href="ProgressBar_8hpp.html" target="_top" xlink:title="Core/ProgressBar.hpp">
<polygon fill="white" stroke="black" points="1717.25,-185 1717.25,-204 1830.25,-204 1830.25,-185 1717.25,-185"/>
<text text-anchor="middle" x="1773.75" y="-192" font-family="Helvetica,sans-Serif" font-size="10.00">Core/ProgressBar.hpp</text>
</a>
</g>
</g>
<!-- Node1&#45;&gt;Node30 -->
<g id="edge43" class="edge"><title>Node1&#45;&gt;Node30</title>
<path fill="none" stroke="midnightblue" d="M1496.23,-246.47C1548.36,-237.725 1631.27,-223.53 1702.75,-210 1709.31,-208.758 1716.2,-207.408 1723.01,-206.048"/>
<polygon fill="midnightblue" stroke="midnightblue" points="1723.76,-209.467 1732.87,-204.059 1722.37,-202.606 1723.76,-209.467"/>
</g>
<!-- Node32 -->
<g id="node32" class="node"><title>Node32</title>
<g id="a_node32"><a xlink:href="DataSet_8hpp.html" target="_top" xlink:title="Data/DataSet.hpp">
<polygon fill="white" stroke="black" points="611.251,-185 611.251,-204 706.251,-204 706.251,-185 611.251,-185"/>
<text text-anchor="middle" x="658.751" y="-192" font-family="Helvetica,sans-Serif" font-size="10.00">Data/DataSet.hpp</text>
</a>
</g>
</g>
<!-- Node1&#45;&gt;Node32 -->
<g id="edge45" class="edge"><title>Node1&#45;&gt;Node32</title>
<path fill="none" stroke="midnightblue" d="M1373.96,-249.641C1220.08,-237.992 857.614,-210.554 716.447,-199.868"/>
<polygon fill="midnightblue" stroke="midnightblue" points="716.507,-196.362 706.271,-199.097 715.978,-203.342 716.507,-196.362"/>
</g>
<!-- Node33 -->
<g id="node33" class="node"><title>Node33</title>
<g id="a_node33"><a xlink:href="HelicityKinematics_8hpp.html" target="_top" xlink:title="Physics/HelicityFormalism\l/HelicityKinematics.hpp">
<polygon fill="white" stroke="black" points="291.751,-179.5 291.751,-209.5 425.751,-209.5 425.751,-179.5 291.751,-179.5"/>
<text text-anchor="start" x="299.751" y="-197.5" font-family="Helvetica,sans-Serif" font-size="10.00">Physics/HelicityFormalism</text>
<text text-anchor="middle" x="358.751" y="-186.5" font-family="Helvetica,sans-Serif" font-size="10.00">/HelicityKinematics.hpp</text>
</a>
</g>
</g>
<!-- Node1&#45;&gt;Node33 -->
<g id="edge49" class="edge"><title>Node1&#45;&gt;Node33</title>
<path fill="none" stroke="midnightblue" d="M1374.05,-253.075C1216.17,-248.464 822.98,-235.249 494.751,-210 475.686,-208.533 455.158,-206.555 435.974,-204.531"/>
<polygon fill="midnightblue" stroke="midnightblue" points="436.094,-201.024 425.778,-203.439 435.348,-207.984 436.094,-201.024"/>
</g>
<!-- Node37 -->
<g id="node37" class="node"><title>Node37</title>
<polygon fill="white" stroke="#bfbfbf" points="1848.75,-185 1848.75,-204 1982.75,-204 1982.75,-185 1848.75,-185"/>
<text text-anchor="middle" x="1915.75" y="-192" font-family="Helvetica,sans-Serif" font-size="10.00">Math/ProbFuncMathCore.h</text>
</g>
<!-- Node1&#45;&gt;Node37 -->
<g id="edge59" class="edge"><title>Node1&#45;&gt;Node37</title>
<path fill="none" stroke="midnightblue" d="M1515.42,-248.486C1594.42,-240.84 1726.09,-227.019 1838.75,-210 1846.78,-208.787 1855.26,-207.35 1863.53,-205.861"/>
<polygon fill="midnightblue" stroke="midnightblue" points="1864.28,-209.282 1873.48,-204.03 1863.01,-202.398 1864.28,-209.282"/>
</g>
<!-- Node38 -->
<g id="node38" class="node"><title>Node38</title>
<polygon fill="white" stroke="#bfbfbf" points="2000.75,-185 2000.75,-204 2062.75,-204 2062.75,-185 2000.75,-185"/>
<text text-anchor="middle" x="2031.75" y="-192" font-family="Helvetica,sans-Serif" font-size="10.00">TLegend.h</text>
</g>
<!-- Node1&#45;&gt;Node38 -->
<g id="edge61" class="edge"><title>Node1&#45;&gt;Node38</title>
<path fill="none" stroke="midnightblue" d="M1515.57,-255.138C1620.7,-254.007 1823.72,-246.681 1991.75,-210 1995,-209.291 1998.34,-208.383 2001.64,-207.369"/>
<polygon fill="midnightblue" stroke="midnightblue" points="2002.95,-210.62 2011.3,-204.095 2000.7,-203.991 2002.95,-210.62"/>
</g>
<!-- Node5 -->
<g id="node5" class="node"><title>Node5</title>
<polygon fill="white" stroke="#bfbfbf" points="550.251,-56.5 550.251,-75.5 585.251,-75.5 585.251,-56.5 550.251,-56.5"/>
<text text-anchor="middle" x="567.751" y="-63.5" font-family="Helvetica,sans-Serif" font-size="10.00">map</text>
</g>
<!-- Node4&#45;&gt;Node5 -->
<g id="edge4" class="edge"><title>Node4&#45;&gt;Node5</title>
<path fill="none" stroke="midnightblue" d="M981.686,-192.135C919.609,-188.933 795.381,-178.279 696.751,-143 655.082,-128.095 611.782,-99.4021 587.45,-81.852"/>
<polygon fill="midnightblue" stroke="midnightblue" points="589.229,-78.8165 579.096,-75.7234 585.089,-84.4606 589.229,-78.8165"/>
</g>
<!-- Node6 -->
<g id="node6" class="node"><title>Node6</title>
<polygon fill="white" stroke="#bfbfbf" points="383.751,-0.5 383.751,-19.5 427.751,-19.5 427.751,-0.5 383.751,-0.5"/>
<text text-anchor="middle" x="405.751" y="-7.5" font-family="Helvetica,sans-Serif" font-size="10.00">vector</text>
</g>
<!-- Node4&#45;&gt;Node6 -->
<g id="edge5" class="edge"><title>Node4&#45;&gt;Node6</title>
<path fill="none" stroke="midnightblue" d="M1016.47,-184.912C1003.27,-159.512 960.38,-84.7375 899.751,-56 817.513,-17.02 534.346,-11.7311 438.08,-11.0719"/>
<polygon fill="midnightblue" stroke="midnightblue" points="437.825,-7.57053 427.805,-11.0147 437.786,-14.5704 437.825,-7.57053"/>
</g>
<!-- Node7 -->
<g id="node7" class="node"><title>Node7</title>
<polygon fill="white" stroke="#bfbfbf" points="1140.25,-118 1140.25,-137 1197.25,-137 1197.25,-118 1140.25,-118"/>
<text text-anchor="middle" x="1168.75" y="-125" font-family="Helvetica,sans-Serif" font-size="10.00">TGraph.h</text>
</g>
<!-- Node4&#45;&gt;Node7 -->
<g id="edge6" class="edge"><title>Node4&#45;&gt;Node7</title>
<path fill="none" stroke="midnightblue" d="M1040.4,-184.869C1065.84,-173.699 1110.35,-154.147 1139.7,-141.26"/>
<polygon fill="midnightblue" stroke="midnightblue" points="1141.27,-144.393 1149.02,-137.167 1138.45,-137.984 1141.27,-144.393"/>
</g>
<!-- Node8 -->
<g id="node8" class="node"><title>Node8</title>
<polygon fill="white" stroke="#bfbfbf" points="1215.25,-118 1215.25,-137 1266.25,-137 1266.25,-118 1215.25,-118"/>
<text text-anchor="middle" x="1240.75" y="-125" font-family="Helvetica,sans-Serif" font-size="10.00">TH1D.h</text>
</g>
<!-- Node4&#45;&gt;Node8 -->
<g id="edge7" class="edge"><title>Node4&#45;&gt;Node8</title>
<path fill="none" stroke="midnightblue" d="M1057.32,-184.966C1094.94,-175.851 1155.03,-160.35 1205.75,-143 1207.66,-142.345 1209.62,-141.639 1211.59,-140.902"/>
<polygon fill="midnightblue" stroke="midnightblue" points="1213.28,-143.998 1221.3,-137.071 1210.71,-137.487 1213.28,-143.998"/>
</g>
<!-- Node9 -->
<g id="node9" class="node"><title>Node9</title>
<polygon fill="white" stroke="#bfbfbf" points="1284.25,-118 1284.25,-137 1335.25,-137 1335.25,-118 1284.25,-118"/>
<text text-anchor="middle" x="1309.75" y="-125" font-family="Helvetica,sans-Serif" font-size="10.00">TH2D.h</text>
</g>
<!-- Node4&#45;&gt;Node9 -->
<g id="edge8" class="edge"><title>Node4&#45;&gt;Node9</title>
<path fill="none" stroke="midnightblue" d="M1060.06,-188.137C1110.49,-180.703 1200.32,-165.578 1274.75,-143 1277.03,-142.307 1279.37,-141.52 1281.71,-140.678"/>
<polygon fill="midnightblue" stroke="midnightblue" points="1283.06,-143.908 1291.11,-137.018 1280.52,-137.385 1283.06,-143.908"/>
</g>
<!-- Node10 -->
<g id="node10" class="node"><title>Node10</title>
<polygon fill="white" stroke="#bfbfbf" points="1353.25,-118 1353.25,-137 1416.25,-137 1416.25,-118 1353.25,-118"/>
<text text-anchor="middle" x="1384.75" y="-125" font-family="Helvetica,sans-Serif" font-size="10.00">TH2Poly.h</text>
</g>
<!-- Node4&#45;&gt;Node10 -->
<g id="edge9" class="edge"><title>Node4&#45;&gt;Node10</title>
<path fill="none" stroke="midnightblue" d="M1060,-189.73C1121.27,-183.318 1243.05,-168.446 1343.75,-143 1346.8,-142.229 1349.94,-141.326 1353.07,-140.353"/>
<polygon fill="midnightblue" stroke="midnightblue" points="1354.47,-143.573 1362.85,-137.086 1352.26,-136.933 1354.47,-143.573"/>
</g>
<!-- Node11 -->
<g id="node11" class="node"><title>Node11</title>
<polygon fill="white" stroke="#bfbfbf" points="705.751,-118 705.751,-137 755.751,-137 755.751,-118 705.751,-118"/>
<text text-anchor="middle" x="730.751" y="-125" font-family="Helvetica,sans-Serif" font-size="10.00">TTree.h</text>
</g>
<!-- Node4&#45;&gt;Node11 -->
<g id="edge10" class="edge"><title>Node4&#45;&gt;Node11</title>
<path fill="none" stroke="midnightblue" d="M981.528,-188.358C930.749,-181.115 839.862,-166.147 764.751,-143 762.608,-142.34 760.417,-141.59 758.231,-140.786"/>
<polygon fill="midnightblue" stroke="midnightblue" points="759.426,-137.495 748.841,-137.04 756.832,-143.997 759.426,-137.495"/>
</g>
<!-- Node12 -->
<g id="node12" class="node"><title>Node12</title>
<g id="a_node12"><a xlink:href="FitParameter_8hpp.html" target="_top" xlink:title="Core/FitParameter.hpp">
<polygon fill="white" stroke="red" points="1005.75,-118 1005.75,-137 1121.75,-137 1121.75,-118 1005.75,-118"/>
<text text-anchor="middle" x="1063.75" y="-125" font-family="Helvetica,sans-Serif" font-size="10.00">Core/FitParameter.hpp</text>
</a>
</g>
</g>
<!-- Node4&#45;&gt;Node12 -->
<g id="edge11" class="edge"><title>Node4&#45;&gt;Node12</title>
<path fill="none" stroke="midnightblue" d="M1026.55,-184.734C1033.13,-174.793 1044.01,-158.338 1052.31,-145.789"/>
<polygon fill="midnightblue" stroke="midnightblue" points="1055.45,-147.399 1058.04,-137.127 1049.61,-143.536 1055.45,-147.399"/>
</g>
<!-- Node13 -->
<g id="node13" class="node"><title>Node13</title>
<g id="a_node13"><a xlink:href="Function_8hpp.html" target="_top" xlink:title="Core/Function.hpp">
<polygon fill="white" stroke="red" points="794.251,-56.5 794.251,-75.5 891.251,-75.5 891.251,-56.5 794.251,-56.5"/>
<text text-anchor="middle" x="842.751" y="-63.5" font-family="Helvetica,sans-Serif" font-size="10.00">Core/Function.hpp</text>
</a>
</g>
</g>
<!-- Node4&#45;&gt;Node13 -->
<g id="edge16" class="edge"><title>Node4&#45;&gt;Node13</title>
<path fill="none" stroke="midnightblue" d="M1011.22,-184.858C993.9,-169.347 955.786,-136.152 920.751,-112 903.909,-100.39 883.907,-88.8925 868.375,-80.4254"/>
<polygon fill="midnightblue" stroke="midnightblue" points="869.815,-77.2257 859.35,-75.5711 866.499,-83.3905 869.815,-77.2257"/>
</g>
<!-- Node15 -->
<g id="node15" class="node"><title>Node15</title>
<g id="a_node15"><a xlink:href="FunctionTreeIntensity_8hpp.html" target="_top" xlink:title="Core/FunctionTree/Function\lTreeIntensity.hpp">
<polygon fill="white" stroke="red" points="773.751,-112.5 773.751,-142.5 911.751,-142.5 911.751,-112.5 773.751,-112.5"/>
<text text-anchor="start" x="781.751" y="-130.5" font-family="Helvetica,sans-Serif" font-size="10.00">Core/FunctionTree/Function</text>
<text text-anchor="middle" x="842.751" y="-119.5" font-family="Helvetica,sans-Serif" font-size="10.00">TreeIntensity.hpp</text>
</a>
</g>
</g>
<!-- Node4&#45;&gt;Node15 -->
<g id="edge17" class="edge"><title>Node4&#45;&gt;Node15</title>
<path fill="none" stroke="midnightblue" d="M997.114,-184.869C970.057,-174.988 925.039,-158.549 890.581,-145.966"/>
<polygon fill="midnightblue" stroke="midnightblue" points="891.76,-142.671 881.166,-142.528 889.359,-149.246 891.76,-142.671"/>
</g>
<!-- Node17 -->
<g id="node17" class="node"><title>Node17</title>
<g id="a_node17"><a xlink:href="Particle_8hpp.html" target="_top" xlink:title="Particle and FourMomentum class. ">
<polygon fill="white" stroke="red" points="359.751,-56.5 359.751,-75.5 451.751,-75.5 451.751,-56.5 359.751,-56.5"/>
<text text-anchor="middle" x="405.751" y="-63.5" font-family="Helvetica,sans-Serif" font-size="10.00">Core/Particle.hpp</text>
</a>
</g>
</g>
<!-- Node4&#45;&gt;Node17 -->
<g id="edge20" class="edge"><title>Node4&#45;&gt;Node17</title>
<path fill="none" stroke="midnightblue" d="M981.745,-191.663C850.332,-185.294 430.843,-163.435 410.751,-143 396.225,-128.227 397.607,-103.069 400.866,-85.7714"/>
<polygon fill="midnightblue" stroke="midnightblue" points="404.345,-86.2526 403.129,-75.7277 397.516,-84.7133 404.345,-86.2526"/>
</g>
<!-- Node12&#45;&gt;Node6 -->
<g id="edge15" class="edge"><title>Node12&#45;&gt;Node6</title>
<path fill="none" stroke="midnightblue" d="M1058.07,-117.842C1047.28,-102.252 1022.18,-69.8005 991.751,-56 891.803,-10.674 546.064,-9.74791 438.173,-10.6084"/>
<polygon fill="midnightblue" stroke="midnightblue" points="437.886,-7.11073 427.918,-10.7016 437.949,-14.1104 437.886,-7.11073"/>
</g>
<!-- Node12&#45;&gt;Node13 -->
<g id="edge12" class="edge"><title>Node12&#45;&gt;Node13</title>
<path fill="none" stroke="midnightblue" d="M1032.09,-117.975C993.193,-107.504 927.109,-89.7118 884.202,-78.1601"/>
<polygon fill="midnightblue" stroke="midnightblue" points="884.922,-74.7292 874.356,-75.5091 883.102,-81.4885 884.922,-74.7292"/>
</g>
<!-- Node12&#45;&gt;Node14 -->
<g id="edge14" class="edge"><title>Node12&#45;&gt;Node14</title>
<path fill="none" stroke="midnightblue" d="M1100.87,-117.977C1110.57,-115.885 1121.03,-113.746 1130.75,-112 1220.22,-95.9285 1324.85,-81.8741 1387.9,-73.917"/>
<polygon fill="midnightblue" stroke="midnightblue" points="1388.55,-77.3634 1398.03,-72.6455 1387.68,-70.4178 1388.55,-77.3634"/>
</g>
<!-- Node13&#45;&gt;Node6 -->
<g id="edge13" class="edge"><title>Node13&#45;&gt;Node6</title>
<path fill="none" stroke="midnightblue" d="M793.893,-58.9627C703.886,-47.8405 514.151,-24.3949 438.194,-15.009"/>
<polygon fill="midnightblue" stroke="midnightblue" points="438.192,-11.4823 427.839,-13.7294 437.334,-18.4294 438.192,-11.4823"/>
</g>
<!-- Node15&#45;&gt;Node13 -->
<g id="edge19" class="edge"><title>Node15&#45;&gt;Node13</title>
<path fill="none" stroke="midnightblue" d="M842.751,-112.399C842.751,-104.466 842.751,-94.458 842.751,-85.8583"/>
<polygon fill="midnightblue" stroke="midnightblue" points="846.251,-85.6577 842.751,-75.6578 839.251,-85.6578 846.251,-85.6577"/>
</g>
<!-- Node16 -->
<g id="node16" class="node"><title>Node16</title>
<polygon fill="white" stroke="#bfbfbf" points="668.751,-56.5 668.751,-75.5 720.751,-75.5 720.751,-56.5 668.751,-56.5"/>
<text text-anchor="middle" x="694.751" y="-63.5" font-family="Helvetica,sans-Serif" font-size="10.00">memory</text>
</g>
<!-- Node15&#45;&gt;Node16 -->
<g id="edge18" class="edge"><title>Node15&#45;&gt;Node16</title>
<path fill="none" stroke="midnightblue" d="M807.677,-112.399C782.734,-102.372 749.543,-89.028 725.607,-79.405"/>
<polygon fill="midnightblue" stroke="midnightblue" points="726.87,-76.1406 716.286,-75.6578 724.259,-82.6354 726.87,-76.1406"/>
</g>
<!-- Node17&#45;&gt;Node2 -->
<g id="edge21" class="edge"><title>Node17&#45;&gt;Node2</title>
<path fill="none" stroke="midnightblue" d="M367.247,-56.4435C320.812,-46.1248 243.398,-28.9217 198.318,-18.9039"/>
<polygon fill="midnightblue" stroke="midnightblue" points="198.923,-15.4531 188.402,-16.7003 197.405,-22.2864 198.923,-15.4531"/>
</g>
<!-- Node17&#45;&gt;Node6 -->
<g id="edge22" class="edge"><title>Node17&#45;&gt;Node6</title>
<path fill="none" stroke="midnightblue" d="M405.751,-56.083C405.751,-49.0059 405.751,-38.8611 405.751,-29.9865"/>
<polygon fill="midnightblue" stroke="midnightblue" points="409.251,-29.751 405.751,-19.7511 402.251,-29.7511 409.251,-29.751"/>
</g>
<!-- Node18&#45;&gt;Node7 -->
<g id="edge26" class="edge"><title>Node18&#45;&gt;Node7</title>
<path fill="none" stroke="midnightblue" d="M1583.02,-192.058C1508.77,-188.581 1341.72,-177.306 1205.75,-143 1203.08,-142.327 1200.35,-141.512 1197.63,-140.615"/>
<polygon fill="midnightblue" stroke="midnightblue" points="1198.63,-137.253 1188.03,-137.119 1196.23,-143.83 1198.63,-137.253"/>
</g>
<!-- Node18&#45;&gt;Node8 -->
<g id="edge27" class="edge"><title>Node18&#45;&gt;Node8</title>
<path fill="none" stroke="midnightblue" d="M1583.08,-191.143C1518.27,-186.472 1384.06,-173.701 1274.75,-143 1272.46,-142.356 1270.11,-141.593 1267.78,-140.761"/>
<polygon fill="midnightblue" stroke="midnightblue" points="1269.02,-137.487 1258.44,-137.065 1266.45,-143.997 1269.02,-137.487"/>
</g>
<!-- Node18&#45;&gt;Node9 -->
<g id="edge28" class="edge"><title>Node18&#45;&gt;Node9</title>
<path fill="none" stroke="midnightblue" d="M1582.89,-189.223C1528.55,-182.619 1427.15,-168.015 1343.75,-143 1341.6,-142.356 1339.41,-141.618 1337.22,-140.823"/>
<polygon fill="midnightblue" stroke="midnightblue" points="1338.41,-137.53 1327.82,-137.093 1335.83,-144.036 1338.41,-137.53"/>
</g>
<!-- Node18&#45;&gt;Node10 -->
<g id="edge29" class="edge"><title>Node18&#45;&gt;Node10</title>
<path fill="none" stroke="midnightblue" d="M1590.28,-184.869C1547.93,-173.254 1472.53,-152.576 1425.78,-139.753"/>
<polygon fill="midnightblue" stroke="midnightblue" points="1426.54,-136.333 1415.98,-137.064 1424.69,-143.084 1426.54,-136.333"/>
</g>
<!-- Node18&#45;&gt;Node14 -->
<g id="edge38" class="edge"><title>Node18&#45;&gt;Node14</title>
<path fill="none" stroke="midnightblue" d="M1648.75,-184.999C1657.02,-182.699 1666.19,-180.448 1674.75,-179 1791.15,-159.303 2282.71,-197.918 2201.75,-112 2177.81,-86.5887 1673.59,-72.3889 1501.63,-68.2711"/>
<polygon fill="midnightblue" stroke="midnightblue" points="1501.59,-64.7694 1491.51,-68.0314 1501.43,-71.7674 1501.59,-64.7694"/>
</g>
<!-- Node18&#45;&gt;Node19 -->
<g id="edge24" class="edge"><title>Node18&#45;&gt;Node19</title>
<path fill="none" stroke="midnightblue" d="M1606.11,-184.734C1586.54,-173.769 1552.83,-154.881 1529.93,-142.049"/>
<polygon fill="midnightblue" stroke="midnightblue" points="1531.58,-138.962 1521.15,-137.127 1528.16,-145.069 1531.58,-138.962"/>
</g>
<!-- Node20 -->
<g id="node20" class="node"><title>Node20</title>
<polygon fill="white" stroke="#bfbfbf" points="1886.25,-118 1886.25,-137 1933.25,-137 1933.25,-118 1886.25,-118"/>
<text text-anchor="middle" x="1909.75" y="-125" font-family="Helvetica,sans-Serif" font-size="10.00">TFile.h</text>
</g>
<!-- Node18&#45;&gt;Node20 -->
<g id="edge25" class="edge"><title>Node18&#45;&gt;Node20</title>
<path fill="none" stroke="midnightblue" d="M1651.07,-184.97C1658.74,-182.877 1667.03,-180.741 1674.75,-179 1763.71,-158.947 1789.5,-169.529 1876.75,-143 1878.68,-142.413 1880.65,-141.744 1882.62,-141.022"/>
<polygon fill="midnightblue" stroke="midnightblue" points="1884.28,-144.123 1892.23,-137.119 1881.65,-137.636 1884.28,-144.123"/>
</g>
<!-- Node21 -->
<g id="node21" class="node"><title>Node21</title>
<polygon fill="white" stroke="#bfbfbf" points="1951.25,-118 1951.25,-137 2048.25,-137 2048.25,-118 1951.25,-118"/>
<text text-anchor="middle" x="1999.75" y="-125" font-family="Helvetica,sans-Serif" font-size="10.00">TKDTreeBinning.h</text>
</g>
<!-- Node18&#45;&gt;Node21 -->
<g id="edge30" class="edge"><title>Node18&#45;&gt;Node21</title>
<path fill="none" stroke="midnightblue" d="M1650.19,-184.969C1658.09,-182.804 1666.71,-180.632 1674.75,-179 1792.53,-155.09 1824.76,-165.852 1942.75,-143 1947.94,-141.994 1953.37,-140.802 1958.72,-139.54"/>
<polygon fill="midnightblue" stroke="midnightblue" points="1959.96,-142.839 1968.84,-137.057 1958.29,-136.041 1959.96,-142.839"/>
</g>
<!-- Node22 -->
<g id="node22" class="node"><title>Node22</title>
<polygon fill="white" stroke="#bfbfbf" points="2066.25,-118 2066.25,-137 2121.25,-137 2121.25,-118 2066.25,-118"/>
<text text-anchor="middle" x="2093.75" y="-125" font-family="Helvetica,sans-Serif" font-size="10.00">TLatex.h</text>
</g>
<!-- Node18&#45;&gt;Node22 -->
<g id="edge31" class="edge"><title>Node18&#45;&gt;Node22</title>
<path fill="none" stroke="midnightblue" d="M1649.32,-184.984C1657.45,-182.74 1666.4,-180.523 1674.75,-179 1842.95,-148.326 1891.61,-183.36 2057.75,-143 2060.42,-142.351 2063.15,-141.541 2065.86,-140.638"/>
<polygon fill="midnightblue" stroke="midnightblue" points="2067.26,-143.853 2075.4,-137.078 2064.81,-137.294 2067.26,-143.853"/>
</g>
<!-- Node23 -->
<g id="node23" class="node"><title>Node23</title>
<polygon fill="white" stroke="#bfbfbf" points="2139.25,-118 2139.25,-137 2192.25,-137 2192.25,-118 2139.25,-118"/>
<text text-anchor="middle" x="2165.75" y="-125" font-family="Helvetica,sans-Serif" font-size="10.00">TMath.h</text>
</g>
<!-- Node18&#45;&gt;Node23 -->
<g id="edge32" class="edge"><title>Node18&#45;&gt;Node23</title>
<path fill="none" stroke="midnightblue" d="M1649.04,-184.98C1657.23,-182.708 1666.29,-180.477 1674.75,-179 1875.02,-144.021 1933.08,-190.489 2130.75,-143 2133.27,-142.395 2135.84,-141.633 2138.39,-140.777"/>
<polygon fill="midnightblue" stroke="midnightblue" points="2139.85,-143.968 2147.95,-137.139 2137.36,-137.425 2139.85,-143.968"/>
</g>
<!-- Node24 -->
<g id="node24" class="node"><title>Node24</title>
<polygon fill="white" stroke="#bfbfbf" points="1556.25,-118 1556.25,-137 1615.25,-137 1615.25,-118 1556.25,-118"/>
<text text-anchor="middle" x="1585.75" y="-125" font-family="Helvetica,sans-Serif" font-size="10.00">TObject.h</text>
</g>
<!-- Node18&#45;&gt;Node24 -->
<g id="edge33" class="edge"><title>Node18&#45;&gt;Node24</title>
<path fill="none" stroke="midnightblue" d="M1616.9,-184.734C1611.44,-174.89 1602.45,-158.66 1595.53,-146.159"/>
<polygon fill="midnightblue" stroke="midnightblue" points="1598.44,-144.179 1590.53,-137.127 1592.31,-147.571 1598.44,-144.179"/>
</g>
<!-- Node25 -->
<g id="node25" class="node"><title>Node25</title>
<polygon fill="white" stroke="#bfbfbf" points="1633.75,-118 1633.75,-137 1681.75,-137 1681.75,-118 1633.75,-118"/>
<text text-anchor="middle" x="1657.75" y="-125" font-family="Helvetica,sans-Serif" font-size="10.00">TPad.h</text>
</g>
<!-- Node18&#45;&gt;Node25 -->
<g id="edge34" class="edge"><title>Node18&#45;&gt;Node25</title>
<path fill="none" stroke="midnightblue" d="M1626.61,-184.734C1632.06,-174.89 1641.05,-158.66 1647.97,-146.159"/>
<polygon fill="midnightblue" stroke="midnightblue" points="1651.19,-147.571 1652.97,-137.127 1645.07,-144.179 1651.19,-147.571"/>
</g>
<!-- Node26 -->
<g id="node26" class="node"><title>Node26</title>
<polygon fill="white" stroke="#bfbfbf" points="1700.25,-118 1700.25,-137 1777.25,-137 1777.25,-118 1700.25,-118"/>
<text text-anchor="middle" x="1738.75" y="-125" font-family="Helvetica,sans-Serif" font-size="10.00">TPaveStats.h</text>
</g>
<!-- Node18&#45;&gt;Node26 -->
<g id="edge35" class="edge"><title>Node18&#45;&gt;Node26</title>
<path fill="none" stroke="midnightblue" d="M1637.53,-184.734C1657.27,-173.769 1691.27,-154.881 1714.36,-142.049"/>
<polygon fill="midnightblue" stroke="midnightblue" points="1716.18,-145.043 1723.22,-137.127 1712.78,-138.924 1716.18,-145.043"/>
</g>
<!-- Node27 -->
<g id="node27" class="node"><title>Node27</title>
<polygon fill="white" stroke="#bfbfbf" points="1795.25,-118 1795.25,-137 1868.25,-137 1868.25,-118 1795.25,-118"/>
<text text-anchor="middle" x="1831.75" y="-125" font-family="Helvetica,sans-Serif" font-size="10.00">TRandom3.h</text>
</g>
<!-- Node18&#45;&gt;Node27 -->
<g id="edge36" class="edge"><title>Node18&#45;&gt;Node27</title>
<path fill="none" stroke="midnightblue" d="M1649.63,-184.978C1682.27,-174.984 1737.97,-157.888 1785.75,-143 1788.69,-142.083 1791.74,-141.13 1794.8,-140.17"/>
<polygon fill="midnightblue" stroke="midnightblue" points="1796.03,-143.454 1804.52,-137.117 1793.93,-136.776 1796.03,-143.454"/>
</g>
<!-- Node18&#45;&gt;Node28 -->
<g id="edge37" class="edge"><title>Node18&#45;&gt;Node28</title>
<path fill="none" stroke="midnightblue" d="M1648.75,-184.978C1657.02,-182.677 1666.19,-180.431 1674.75,-179 1920.74,-137.882 1990.42,-193.053 2234.75,-143 2238.26,-142.281 2241.88,-141.331 2245.44,-140.26"/>
<polygon fill="midnightblue" stroke="midnightblue" points="2246.82,-143.488 2255.21,-137.012 2244.61,-136.845 2246.82,-143.488"/>
</g>
<!-- Node29&#45;&gt;Node6 -->
<g id="edge41" class="edge"><title>Node29&#45;&gt;Node6</title>
<path fill="none" stroke="midnightblue" d="M323.049,-117.553C326.99,-103.433 336.062,-75.5772 350.751,-56 359.748,-44.0083 372.596,-33.2617 383.612,-25.2802"/>
<polygon fill="midnightblue" stroke="midnightblue" points="385.722,-28.0759 391.945,-19.5009 381.733,-22.3238 385.722,-28.0759"/>
</g>
<!-- Node29&#45;&gt;Node17 -->
<g id="edge40" class="edge"><title>Node29&#45;&gt;Node17</title>
<path fill="none" stroke="midnightblue" d="M332.929,-117.975C346.563,-108.431 368.883,-92.8073 385.225,-81.3683"/>
<polygon fill="midnightblue" stroke="midnightblue" points="387.41,-84.1111 393.595,-75.5091 383.395,-78.3764 387.41,-84.1111"/>
</g>
<!-- Node31 -->
<g id="node31" class="node"><title>Node31</title>
<polygon fill="white" stroke="#bfbfbf" points="2320.25,-118 2320.25,-137 2361.25,-137 2361.25,-118 2320.25,-118"/>
<text text-anchor="middle" x="2340.75" y="-125" font-family="Helvetica,sans-Serif" font-size="10.00">ctime</text>
</g>
<!-- Node30&#45;&gt;Node31 -->
<g id="edge44" class="edge"><title>Node30&#45;&gt;Node31</title>
<path fill="none" stroke="midnightblue" d="M1808.18,-184.981C1818.3,-182.737 1829.42,-180.521 1839.75,-179 2047.89,-148.352 2108.98,-199.094 2311.75,-143 2313.47,-142.525 2315.2,-141.947 2316.92,-141.297"/>
<polygon fill="midnightblue" stroke="midnightblue" points="2318.75,-144.314 2326.44,-137.028 2315.88,-137.927 2318.75,-144.314"/>
</g>
<!-- Node32&#45;&gt;Node13 -->
<g id="edge48" class="edge"><title>Node32&#45;&gt;Node13</title>
<path fill="none" stroke="midnightblue" d="M660.34,-184.975C663.868,-168.441 673.916,-131.896 696.751,-112 720.99,-90.8801 755.005,-79.6716 784.106,-73.7236"/>
<polygon fill="midnightblue" stroke="midnightblue" points="784.989,-77.119 794.17,-71.8315 783.696,-70.2395 784.989,-77.119"/>
</g>
<!-- Node32&#45;&gt;Node16 -->
<g id="edge46" class="edge"><title>Node32&#45;&gt;Node16</title>
<path fill="none" stroke="midnightblue" d="M657.782,-184.636C656.436,-169.337 655.058,-137.193 663.751,-112 667.341,-101.594 674.045,-91.3768 680.303,-83.3146"/>
<polygon fill="midnightblue" stroke="midnightblue" points="683.083,-85.4453 686.75,-75.5053 677.684,-80.989 683.083,-85.4453"/>
</g>
<!-- Node32&#45;&gt;Node29 -->
<g id="edge47" class="edge"><title>Node32&#45;&gt;Node29</title>
<path fill="none" stroke="midnightblue" d="M610.815,-185.954C554.717,-176.876 459.132,-160.64 377.751,-143 372.764,-141.919 367.553,-140.708 362.394,-139.458"/>
<polygon fill="midnightblue" stroke="midnightblue" points="363.16,-136.042 352.612,-137.032 361.475,-142.836 363.16,-136.042"/>
</g>
<!-- Node33&#45;&gt;Node6 -->
<g id="edge50" class="edge"><title>Node33&#45;&gt;Node6</title>
<path fill="none" stroke="midnightblue" d="M313.566,-179.339C296.4,-171.509 278.619,-159.853 268.751,-143 261.789,-131.111 262.916,-124.481 268.751,-112 289.48,-67.6576 340.744,-38.412 374.347,-23.2919"/>
<polygon fill="midnightblue" stroke="midnightblue" points="375.95,-26.4119 383.736,-19.2263 373.169,-19.9883 375.95,-26.4119"/>
</g>
<!-- Node34 -->
<g id="node34" class="node"><title>Node34</title>
<g id="a_node34"><a xlink:href="Kinematics_8hpp.html" target="_top" xlink:title="Core/Kinematics.hpp">
<polygon fill="white" stroke="red" points="157.751,-56.5 157.751,-75.5 265.751,-75.5 265.751,-56.5 157.751,-56.5"/>
<text text-anchor="middle" x="211.751" y="-63.5" font-family="Helvetica,sans-Serif" font-size="10.00">Core/Kinematics.hpp</text>
</a>
</g>
</g>
<!-- Node33&#45;&gt;Node34 -->
<g id="edge51" class="edge"><title>Node33&#45;&gt;Node34</title>
<path fill="none" stroke="midnightblue" d="M296.073,-179.478C274.453,-171.869 251.689,-160.331 235.751,-143 221.292,-127.277 215.544,-102.88 213.259,-85.988"/>
<polygon fill="midnightblue" stroke="midnightblue" points="216.702,-85.2657 212.165,-75.6912 209.741,-86.0049 216.702,-85.2657"/>
</g>
<!-- Node35 -->
<g id="node35" class="node"><title>Node35</title>
<g id="a_node35"><a xlink:href="ParticleStateTransitionKinematicsInfo_8hpp.html" target="_top" xlink:title="Physics/ParticleStateTransition\lKinematicsInfo.hpp">
<polygon fill="white" stroke="red" points="419.751,-112.5 419.751,-142.5 573.751,-142.5 573.751,-112.5 419.751,-112.5"/>
<text text-anchor="start" x="427.751" y="-130.5" font-family="Helvetica,sans-Serif" font-size="10.00">Physics/ParticleStateTransition</text>
<text text-anchor="middle" x="496.751" y="-119.5" font-family="Helvetica,sans-Serif" font-size="10.00">KinematicsInfo.hpp</text>
</a>
</g>
</g>
<!-- Node33&#45;&gt;Node35 -->
<g id="edge53" class="edge"><title>Node33&#45;&gt;Node35</title>
<path fill="none" stroke="midnightblue" d="M388.695,-179.396C408.949,-169.856 435.897,-157.163 457.814,-146.84"/>
<polygon fill="midnightblue" stroke="midnightblue" points="459.31,-150.004 466.865,-142.577 456.327,-143.671 459.31,-150.004"/>
</g>
<!-- Node36 -->
<g id="node36" class="node"><title>Node36</title>
<g id="a_node36"><a xlink:href="SubSystem_8hpp.html" target="_top" xlink:title="Contains SubSystem class. ">
<polygon fill="white" stroke="red" points="14.2508,-56.5 14.2508,-75.5 139.251,-75.5 139.251,-56.5 14.2508,-56.5"/>
<text text-anchor="middle" x="76.7508" y="-63.5" font-family="Helvetica,sans-Serif" font-size="10.00">Physics/SubSystem.hpp</text>
</a>
</g>
</g>
<!-- Node33&#45;&gt;Node36 -->
<g id="edge57" class="edge"><title>Node33&#45;&gt;Node36</title>
<path fill="none" stroke="midnightblue" d="M312.938,-179.406C284.513,-170.152 247.486,-157.169 215.751,-143 173.291,-124.043 126.289,-96.9777 99.2627,-80.7819"/>
<polygon fill="midnightblue" stroke="midnightblue" points="100.946,-77.7099 90.5765,-75.5376 97.3283,-83.7024 100.946,-77.7099"/>
</g>
<!-- Node34&#45;&gt;Node6 -->
<g id="edge52" class="edge"><title>Node34&#45;&gt;Node6</title>
<path fill="none" stroke="midnightblue" d="M242.491,-56.4435C278.276,-46.4827 337.108,-30.1068 373.519,-19.9717"/>
<polygon fill="midnightblue" stroke="midnightblue" points="374.908,-23.2183 383.603,-17.1649 373.03,-16.4747 374.908,-23.2183"/>
</g>
<!-- Node35&#45;&gt;Node5 -->
<g id="edge54" class="edge"><title>Node35&#45;&gt;Node5</title>
<path fill="none" stroke="midnightblue" d="M513.577,-112.399C524.426,-103.308 538.527,-91.4899 549.624,-82.1909"/>
<polygon fill="midnightblue" stroke="midnightblue" points="552.003,-84.7634 557.42,-75.6578 547.507,-79.3983 552.003,-84.7634"/>
</g>
<!-- Node35&#45;&gt;Node6 -->
<g id="edge55" class="edge"><title>Node35&#45;&gt;Node6</title>
<path fill="none" stroke="midnightblue" d="M491.517,-112.252C485.562,-97.2514 474.812,-73.4383 460.751,-56 451.34,-44.3295 438.472,-33.5992 427.548,-25.5461"/>
<polygon fill="midnightblue" stroke="midnightblue" points="429.487,-22.6307 419.307,-19.6948 425.434,-28.3382 429.487,-22.6307"/>
</g>
<!-- Node35&#45;&gt;Node17 -->
<g id="edge56" class="edge"><title>Node35&#45;&gt;Node17</title>
<path fill="none" stroke="midnightblue" d="M475.185,-112.399C460.871,-103.04 442.139,-90.7924 427.739,-81.3771"/>
<polygon fill="midnightblue" stroke="midnightblue" points="429.277,-78.2009 418.992,-75.6578 425.446,-84.0597 429.277,-78.2009"/>
</g>
<!-- Node36&#45;&gt;Node6 -->
<g id="edge58" class="edge"><title>Node36&#45;&gt;Node6</title>
<path fill="none" stroke="midnightblue" d="M128.882,-56.4435C197.623,-45.1608 316.51,-25.6474 373.485,-16.2959"/>
<polygon fill="midnightblue" stroke="midnightblue" points="374.076,-19.7459 383.377,-14.6723 372.942,-12.8383 374.076,-19.7459"/>
</g>
</g>
</svg>
        <g id="navigator" transform="translate(0 0)" fill="#404254">
                <rect fill="#f2f5e9" fill-opacity="0.5" stroke="#606060" stroke-width=".5" x="0" y="0" width="60" height="60"/>
                <use id="zoomplus" xlink:href="#zoomPlus" x="17" y="9" onmousedown="handleZoom(evt,'in')"/>
                <use id="zoomminus" xlink:href="#zoomMin" x="42" y="9" onmousedown="handleZoom(evt,'out')"/>
                <use id="reset" xlink:href="#resetDef" x="30" y="36" onmousedown="handleReset()"/>
                <g id="arrowUp" xlink:href="#dirArrow" transform="translate(30 24)" onmousedown="handlePan(0,-1)">
                  <use xlink:href="#rim" fill="#404040">
                        <set attributeName="fill" to="#808080" begin="arrowUp.mouseover" end="arrowUp.mouseout"/>
                  </use>
                  <path fill="none" stroke="white" stroke-width="1.5" d="M0,-3.0v7 M-2.5,-0.5L0,-3.0L2.5,-0.5"/>
                </g>
                <g id="arrowRight" xlink:href="#dirArrow" transform="rotate(90) translate(36 -43)" onmousedown="handlePan(1,0)">
                  <use xlink:href="#rim" fill="#404040">
                        <set attributeName="fill" to="#808080" begin="arrowRight.mouseover" end="arrowRight.mouseout"/>
                  </use>
                  <path fill="none" stroke="white" stroke-width="1.5" d="M0,-3.0v7 M-2.5,-0.5L0,-3.0L2.5,-0.5"/>
                </g>
                <g id="arrowDown" xlink:href="#dirArrow" transform="rotate(180) translate(-30 -48)" onmousedown="handlePan(0,1)">
                  <use xlink:href="#rim" fill="#404040">
                        <set attributeName="fill" to="#808080" begin="arrowDown.mouseover" end="arrowDown.mouseout"/>
                  </use>
                  <path fill="none" stroke="white" stroke-width="1.5" d="M0,-3.0v7 M-2.5,-0.5L0,-3.0L2.5,-0.5"/>
                </g>
                <g id="arrowLeft" xlink:href="#dirArrow" transform="rotate(270) translate(-36 17)" onmousedown="handlePan(-1,0)">
                  <use xlink:href="#rim" fill="#404040">
                        <set attributeName="fill" to="#808080" begin="arrowLeft.mouseover" end="arrowLeft.mouseout"/>
                  </use>
                  <path fill="none" stroke="white" stroke-width="1.5" d="M0,-3.0v7 M-2.5,-0.5L0,-3.0L2.5,-0.5"/>
                </g>
        </g>
        <svg viewBox="0 0 15 15" width="100%" height="30px" preserveAspectRatio="xMaxYMin meet">
         <g id="arrow_out" transform="scale(0.3 0.3)">
          <a xlink:href="DalitzPlot_8cpp__incl_org.svg" target="_base">
           <rect id="button" ry="5" rx="5" y="6" x="6" height="38" width="38"
                fill="#f2f5e9" fill-opacity="0.5" stroke="#606060" stroke-width="1.0"/>
           <path id="arrow"
             d="M 11.500037,31.436501 C 11.940474,20.09759 22.043105,11.32322 32.158766,21.979434 L 37.068811,17.246167 C 37.068811,17.246167 37.088388,32 37.088388,32 L 22.160133,31.978069 C 22.160133,31.978069 26.997745,27.140456 26.997745,27.140456 C 18.528582,18.264221 13.291696,25.230495 11.500037,31.436501 z"
             style="fill:#404040;"/>
          </a>
         </g>
        </svg>
</svg>
