<?xml version="1.0" encoding="UTF-8" standalone="no"?>
<!DOCTYPE svg PUBLIC "-//W3C//DTD SVG 1.1//EN"
 "http://www.w3.org/Graphics/SVG/1.1/DTD/svg11.dtd">
<!-- Generated by graphviz version 2.38.0 (20140413.2041)
 -->
<!-- Title: Data/DataCorrection.cpp Pages: 1 -->
<!--zoomable 196 -->
<svg id="main" version="1.1" xmlns="http://www.w3.org/2000/svg" xmlns:xlink="http://www.w3.org/1999/xlink" xml:space="preserve" onload="init(evt)">
<style type="text/css"><![CDATA[
.edge:hover path { stroke: red; }
.edge:hover polygon { stroke: red; fill: red; }
]]></style>
<script type="text/javascript"><![CDATA[
var edges = document.getElementsByTagName('g');
if (edges && edges.length) {
  for (var i=0;i<edges.length;i++) {
    if (edges[i].id.substr(0,4)=='edge') {
      edges[i].setAttribute('class','edge');
    }
  }
}
]]></script>
        <defs>
                <circle id="rim" cx="0" cy="0" r="7"/>
                <circle id="rim2" cx="0" cy="0" r="3.5"/>
                <g id="zoomPlus">
                        <use xlink:href="#rim" fill="#404040">
                                <set attributeName="fill" to="#808080" begin="zoomplus.mouseover" end="zoomplus.mouseout"/>
                        </use>
                        <path d="M-4,0h8M0,-4v8" fill="none" stroke="white" stroke-width="1.5" pointer-events="none"/>
                </g>
                <g id="zoomMin">
                        <use xlink:href="#rim" fill="#404040">
                                <set attributeName="fill" to="#808080" begin="zoomminus.mouseover" end="zoomminus.mouseout"/>
                        </use>
                        <path d="M-4,0h8" fill="none" stroke="white" stroke-width="1.5" pointer-events="none"/>
                </g>
                <g id="dirArrow">
                        <path fill="none" stroke="white" stroke-width="1.5" d="M0,-3.0v7 M-2.5,-0.5L0,-3.0L2.5,-0.5"/>
                </g>
               <g id="resetDef">
                       <use xlink:href="#rim2" fill="#404040">
                               <set attributeName="fill" to="#808080" begin="reset.mouseover" end="reset.mouseout"/>
                       </use>
               </g>
        </defs>

<script type="text/javascript">
var viewWidth = 672;
var viewHeight = 196;
var sectionId = 'dynsection-0';
</script>
<script xlink:href="svgpan.js"/>
<svg id="graph" class="graph">
<g id="viewport">
<title>Data/DataCorrection.cpp</title>
<polygon fill="white" stroke="none" points="-4,4 -4,-192 668.413,-192 668.413,4 -4,4"/>
<!-- Node1 -->
<g id="node1" class="node"><title>Node1</title>
<polygon fill="#bfbfbf" stroke="black" points="423.913,-168.5 423.913,-187.5 548.913,-187.5 548.913,-168.5 423.913,-168.5"/>
<text text-anchor="middle" x="486.413" y="-175.5" font-family="Helvetica,sans-Serif" font-size="10.00">Data/DataCorrection.cpp</text>
</g>
<!-- Node2 -->
<g id="node2" class="node"><title>Node2</title>
<g id="a_node2"><a xlink:href="DataCorrection_8hpp.html" target="_top" xlink:title="Data/DataCorrection.hpp">
<polygon fill="white" stroke="black" points="247.913,-112.5 247.913,-131.5 372.913,-131.5 372.913,-112.5 247.913,-112.5"/>
<text text-anchor="middle" x="310.413" y="-119.5" font-family="Helvetica,sans-Serif" font-size="10.00">Data/DataCorrection.hpp</text>
</a>
</g>
</g>
<!-- Node1&#45;&gt;Node2 -->
<g id="edge1" class="edge"><title>Node1&#45;&gt;Node2</title>
<path fill="none" stroke="midnightblue" d="M458.525,-168.444C428.659,-159.28 381.098,-144.688 347.957,-134.519"/>
<polygon fill="midnightblue" stroke="midnightblue" points="348.757,-131.104 338.17,-131.516 346.703,-137.796 348.757,-131.104"/>
</g>
<!-- Node8 -->
<g id="node8" class="node"><title>Node8</title>
<g id="a_node8"><a xlink:href="Properties_8hpp.html" target="_top" xlink:title="Core/Properties.hpp">
<polygon fill="white" stroke="red" points="434.413,-56.5 434.413,-75.5 538.413,-75.5 538.413,-56.5 434.413,-56.5"/>
<text text-anchor="middle" x="486.413" y="-63.5" font-family="Helvetica,sans-Serif" font-size="10.00">Core/Properties.hpp</text>
</a>
</g>
</g>
<!-- Node1&#45;&gt;Node8 -->
<g id="edge16" class="edge"><title>Node1&#45;&gt;Node8</title>
<path fill="none" stroke="midnightblue" d="M486.413,-168.368C486.413,-150.617 486.413,-109.666 486.413,-85.5974"/>
<polygon fill="midnightblue" stroke="midnightblue" points="489.913,-85.5914 486.413,-75.5914 482.913,-85.5915 489.913,-85.5914"/>
</g>
<!-- Node11 -->
<g id="node11" class="node"><title>Node11</title>
<g id="a_node11"><a xlink:href="Kinematics_8hpp.html" target="_top" xlink:title="Core/Kinematics.hpp">
<polygon fill="white" stroke="black" points="556.413,-56.5 556.413,-75.5 664.413,-75.5 664.413,-56.5 556.413,-56.5"/>
<text text-anchor="middle" x="610.413" y="-63.5" font-family="Helvetica,sans-Serif" font-size="10.00">Core/Kinematics.hpp</text>
</a>
</g>
</g>
<!-- Node1&#45;&gt;Node11 -->
<g id="edge13" class="edge"><title>Node1&#45;&gt;Node11</title>
<path fill="none" stroke="midnightblue" d="M496.143,-168.368C517.059,-149.814 566.547,-105.913 593.01,-82.4376"/>
<polygon fill="midnightblue" stroke="midnightblue" points="595.57,-84.8459 600.728,-75.5914 590.924,-79.6093 595.57,-84.8459"/>
</g>
<!-- Node3 -->
<g id="node3" class="node"><title>Node3</title>
<polygon fill="white" stroke="#bfbfbf" points="374.913,-56.5 374.913,-75.5 415.913,-75.5 415.913,-56.5 374.913,-56.5"/>
<text text-anchor="middle" x="395.413" y="-63.5" font-family="Helvetica,sans-Serif" font-size="10.00">cfloat</text>
</g>
<!-- Node2&#45;&gt;Node3 -->
<g id="edge2" class="edge"><title>Node2&#45;&gt;Node3</title>
<path fill="none" stroke="midnightblue" d="M324.069,-112.324C337.329,-103.9 357.681,-90.9709 373.259,-81.0741"/>
<polygon fill="midnightblue" stroke="midnightblue" points="375.226,-83.9711 381.79,-75.6545 371.472,-78.0626 375.226,-83.9711"/>
</g>
<!-- Node4 -->
<g id="node4" class="node"><title>Node4</title>
<polygon fill="white" stroke="#bfbfbf" points="2.91254,-0.5 2.91254,-19.5 61.9125,-19.5 61.9125,-0.5 2.91254,-0.5"/>
<text text-anchor="middle" x="32.4125" y="-7.5" font-family="Helvetica,sans-Serif" font-size="10.00">stdexcept</text>
</g>
<!-- Node2&#45;&gt;Node4 -->
<g id="edge3" class="edge"><title>Node2&#45;&gt;Node4</title>
<path fill="none" stroke="midnightblue" d="M247.666,-120.989C167.681,-119.485 36.0608,-111.502 5.41254,-76 -6.73601,-61.9275 5.09137,-41.6241 16.6877,-27.4661"/>
<polygon fill="midnightblue" stroke="midnightblue" points="19.3346,-29.7563 23.3057,-19.9338 14.0759,-25.136 19.3346,-29.7563"/>
</g>
<!-- Node5 -->
<g id="node5" class="node"><title>Node5</title>
<g id="a_node5"><a xlink:href="Event_8hpp.html" target="_top" xlink:title="Core/Event.hpp">
<polygon fill="white" stroke="red" points="160.913,-56.5 160.913,-75.5 245.913,-75.5 245.913,-56.5 160.913,-56.5"/>
<text text-anchor="middle" x="203.413" y="-63.5" font-family="Helvetica,sans-Serif" font-size="10.00">Core/Event.hpp</text>
</a>
</g>
</g>
<!-- Node2&#45;&gt;Node5 -->
<g id="edge4" class="edge"><title>Node2&#45;&gt;Node5</title>
<path fill="none" stroke="midnightblue" d="M293.221,-112.324C276.062,-103.664 249.467,-90.2424 229.665,-80.249"/>
<polygon fill="midnightblue" stroke="midnightblue" points="231.066,-77.0354 220.561,-75.6545 227.912,-83.2847 231.066,-77.0354"/>
</g>
<!-- Node7 -->
<g id="node7" class="node"><title>Node7</title>
<g id="a_node7"><a xlink:href="Logging_8hpp.html" target="_top" xlink:title="Core/Logging.hpp">
<polygon fill="white" stroke="red" points="263.913,-56.5 263.913,-75.5 356.913,-75.5 356.913,-56.5 263.913,-56.5"/>
<text text-anchor="middle" x="310.413" y="-63.5" font-family="Helvetica,sans-Serif" font-size="10.00">Core/Logging.hpp</text>
</a>
</g>
</g>
<!-- Node2&#45;&gt;Node7 -->
<g id="edge6" class="edge"><title>Node2&#45;&gt;Node7</title>
<path fill="none" stroke="midnightblue" d="M310.413,-112.083C310.413,-105.006 310.413,-94.8611 310.413,-85.9865"/>
<polygon fill="midnightblue" stroke="midnightblue" points="313.913,-85.751 310.413,-75.7511 306.913,-85.7511 313.913,-85.751"/>
</g>
<!-- Node2&#45;&gt;Node8 -->
<g id="edge7" class="edge"><title>Node2&#45;&gt;Node8</title>
<path fill="none" stroke="midnightblue" d="M338.3,-112.444C368.166,-103.28 415.727,-88.6876 448.869,-78.5192"/>
<polygon fill="midnightblue" stroke="midnightblue" points="450.122,-81.7958 458.655,-75.5164 448.069,-75.1037 450.122,-81.7958"/>
</g>
<!-- Node9 -->
<g id="node9" class="node"><title>Node9</title>
<g id="a_node9"><a xlink:href="CorrectionTable_8hpp.html" target="_top" xlink:title="Correction table. ">
<polygon fill="white" stroke="red" points="14.4125,-56.5 14.4125,-75.5 142.413,-75.5 142.413,-56.5 14.4125,-56.5"/>
<text text-anchor="middle" x="78.4125" y="-63.5" font-family="Helvetica,sans-Serif" font-size="10.00">Data/CorrectionTable.hpp</text>
</a>
</g>
</g>
<!-- Node2&#45;&gt;Node9 -->
<g id="edge9" class="edge"><title>Node2&#45;&gt;Node9</title>
<path fill="none" stroke="midnightblue" d="M273.651,-112.444C233.349,-103.063 168.603,-87.9926 124.828,-77.8036"/>
<polygon fill="midnightblue" stroke="midnightblue" points="125.535,-74.3746 115.002,-75.5164 123.948,-81.1924 125.535,-74.3746"/>
</g>
<!-- Node6 -->
<g id="node6" class="node"><title>Node6</title>
<polygon fill="white" stroke="#bfbfbf" points="267.413,-0.5 267.413,-19.5 311.413,-19.5 311.413,-0.5 267.413,-0.5"/>
<text text-anchor="middle" x="289.413" y="-7.5" font-family="Helvetica,sans-Serif" font-size="10.00">vector</text>
</g>
<!-- Node5&#45;&gt;Node6 -->
<g id="edge5" class="edge"><title>Node5&#45;&gt;Node6</title>
<path fill="none" stroke="midnightblue" d="M217.23,-56.324C230.646,-47.9002 251.237,-34.9709 266.998,-25.0741"/>
<polygon fill="midnightblue" stroke="midnightblue" points="269.022,-27.9364 275.629,-19.6545 265.299,-22.0081 269.022,-27.9364"/>
</g>
<!-- Node8&#45;&gt;Node6 -->
<g id="edge8" class="edge"><title>Node8&#45;&gt;Node6</title>
<path fill="none" stroke="midnightblue" d="M455.197,-56.4435C418.604,-46.4128 358.277,-29.8766 321.367,-19.7591"/>
<polygon fill="midnightblue" stroke="midnightblue" points="322.186,-16.3546 311.617,-17.0865 320.336,-23.1056 322.186,-16.3546"/>
</g>
<!-- Node9&#45;&gt;Node4 -->
<g id="edge10" class="edge"><title>Node9&#45;&gt;Node4</title>
<path fill="none" stroke="midnightblue" d="M70.8166,-56.083C64.1851,-48.2982 54.3916,-36.8015 46.3544,-27.3665"/>
<polygon fill="midnightblue" stroke="midnightblue" points="49.0162,-25.0939 39.8672,-19.7511 43.6875,-29.6332 49.0162,-25.0939"/>
</g>
<!-- Node9&#45;&gt;Node6 -->
<g id="edge12" class="edge"><title>Node9&#45;&gt;Node6</title>
<path fill="none" stroke="midnightblue" d="M111.846,-56.4435C151.741,-46.2334 217.973,-29.2831 257.283,-19.2226"/>
<polygon fill="midnightblue" stroke="midnightblue" points="258.319,-22.5705 267.139,-16.7003 256.583,-15.789 258.319,-22.5705"/>
</g>
<!-- Node10 -->
<g id="node10" class="node"><title>Node10</title>
<polygon fill="white" stroke="#bfbfbf" points="502.913,-0.5 502.913,-19.5 543.913,-19.5 543.913,-0.5 502.913,-0.5"/>
<text text-anchor="middle" x="523.413" y="-7.5" font-family="Helvetica,sans-Serif" font-size="10.00">string</text>
</g>
<!-- Node9&#45;&gt;Node10 -->
<g id="edge11" class="edge"><title>Node9&#45;&gt;Node10</title>
<path fill="none" stroke="midnightblue" d="M142.506,-57.0897C145.516,-56.7208 148.497,-56.356 151.413,-56 278.077,-40.5308 429.034,-22.348 492.693,-14.6919"/>
<polygon fill="midnightblue" stroke="midnightblue" points="493.333,-18.1403 502.844,-13.4714 492.497,-11.1904 493.333,-18.1403"/>
</g>
<!-- Node11&#45;&gt;Node6 -->
<g id="edge15" class="edge"><title>Node11&#45;&gt;Node6</title>
<path fill="none" stroke="midnightblue" d="M559.549,-56.4435C492.785,-45.2122 377.538,-25.8248 321.657,-16.4242"/>
<polygon fill="midnightblue" stroke="midnightblue" points="322.063,-12.9435 311.621,-14.7359 320.901,-19.8465 322.063,-12.9435"/>
</g>
<!-- Node11&#45;&gt;Node10 -->
<g id="edge14" class="edge"><title>Node11&#45;&gt;Node10</title>
<path fill="none" stroke="midnightblue" d="M596.434,-56.324C582.863,-47.9002 562.032,-34.9709 546.088,-25.0741"/>
<polygon fill="midnightblue" stroke="midnightblue" points="547.698,-21.9544 537.356,-19.6545 544.007,-27.9019 547.698,-21.9544"/>
</g>
</g>
</svg>
        <g id="navigator" transform="translate(0 0)" fill="#404254">
                <rect fill="#f2f5e9" fill-opacity="0.5" stroke="#606060" stroke-width=".5" x="0" y="0" width="60" height="60"/>
                <use id="zoomplus" xlink:href="#zoomPlus" x="17" y="9" onmousedown="handleZoom(evt,'in')"/>
                <use id="zoomminus" xlink:href="#zoomMin" x="42" y="9" onmousedown="handleZoom(evt,'out')"/>
                <use id="reset" xlink:href="#resetDef" x="30" y="36" onmousedown="handleReset()"/>
                <g id="arrowUp" xlink:href="#dirArrow" transform="translate(30 24)" onmousedown="handlePan(0,-1)">
                  <use xlink:href="#rim" fill="#404040">
                        <set attributeName="fill" to="#808080" begin="arrowUp.mouseover" end="arrowUp.mouseout"/>
                  </use>
                  <path fill="none" stroke="white" stroke-width="1.5" d="M0,-3.0v7 M-2.5,-0.5L0,-3.0L2.5,-0.5"/>
                </g>
                <g id="arrowRight" xlink:href="#dirArrow" transform="rotate(90) translate(36 -43)" onmousedown="handlePan(1,0)">
                  <use xlink:href="#rim" fill="#404040">
                        <set attributeName="fill" to="#808080" begin="arrowRight.mouseover" end="arrowRight.mouseout"/>
                  </use>
                  <path fill="none" stroke="white" stroke-width="1.5" d="M0,-3.0v7 M-2.5,-0.5L0,-3.0L2.5,-0.5"/>
                </g>
                <g id="arrowDown" xlink:href="#dirArrow" transform="rotate(180) translate(-30 -48)" onmousedown="handlePan(0,1)">
                  <use xlink:href="#rim" fill="#404040">
                        <set attributeName="fill" to="#808080" begin="arrowDown.mouseover" end="arrowDown.mouseout"/>
                  </use>
                  <path fill="none" stroke="white" stroke-width="1.5" d="M0,-3.0v7 M-2.5,-0.5L0,-3.0L2.5,-0.5"/>
                </g>
                <g id="arrowLeft" xlink:href="#dirArrow" transform="rotate(270) translate(-36 17)" onmousedown="handlePan(-1,0)">
                  <use xlink:href="#rim" fill="#404040">
                        <set attributeName="fill" to="#808080" begin="arrowLeft.mouseover" end="arrowLeft.mouseout"/>
                  </use>
                  <path fill="none" stroke="white" stroke-width="1.5" d="M0,-3.0v7 M-2.5,-0.5L0,-3.0L2.5,-0.5"/>
                </g>
        </g>
        <svg viewBox="0 0 15 15" width="100%" height="30px" preserveAspectRatio="xMaxYMin meet">
         <g id="arrow_out" transform="scale(0.3 0.3)">
          <a xlink:href="DataCorrection_8cpp__incl_org.svg" target="_base">
           <rect id="button" ry="5" rx="5" y="6" x="6" height="38" width="38"
                fill="#f2f5e9" fill-opacity="0.5" stroke="#606060" stroke-width="1.0"/>
           <path id="arrow"
             d="M 11.500037,31.436501 C 11.940474,20.09759 22.043105,11.32322 32.158766,21.979434 L 37.068811,17.246167 C 37.068811,17.246167 37.088388,32 37.088388,32 L 22.160133,31.978069 C 22.160133,31.978069 26.997745,27.140456 26.997745,27.140456 C 18.528582,18.264221 13.291696,25.230495 11.500037,31.436501 z"
             style="fill:#404040;"/>
          </a>
         </g>
        </svg>
</svg>
