<?xml version="1.0" encoding="UTF-8" standalone="no"?>
<!DOCTYPE svg PUBLIC "-//W3C//DTD SVG 1.1//EN"
 "http://www.w3.org/Graphics/SVG/1.1/DTD/svg11.dtd">
<!-- Generated by graphviz version 2.38.0 (20140413.2041)
 -->
<!-- Title: Data/DataSet.cpp Pages: 1 -->
<svg width="550pt" height="207pt"
 viewBox="0.00 0.00 550.00 207.00" xmlns="http://www.w3.org/2000/svg" xmlns:xlink="http://www.w3.org/1999/xlink">
<g id="graph0" class="graph" transform="scale(1 1) rotate(0) translate(4 203)">
<title>Data/DataSet.cpp</title>
<polygon fill="white" stroke="none" points="-4,4 -4,-203 546,-203 546,4 -4,4"/>
<!-- Node1 -->
<g id="node1" class="node"><title>Node1</title>
<polygon fill="#bfbfbf" stroke="black" points="295,-179.5 295,-198.5 390,-198.5 390,-179.5 295,-179.5"/>
<text text-anchor="middle" x="342.5" y="-186.5" font-family="Helvetica,sans-Serif" font-size="10.00">Data/DataSet.cpp</text>
</g>
<!-- Node2 -->
<g id="node2" class="node"><title>Node2</title>
<g id="a_node2"><a xlink:href="DataSet_8hpp.html" target="_top" xlink:title="DataSet.hpp">
<polygon fill="white" stroke="black" points="162,-123.5 162,-142.5 233,-142.5 233,-123.5 162,-123.5"/>
<text text-anchor="middle" x="197.5" y="-130.5" font-family="Helvetica,sans-Serif" font-size="10.00">DataSet.hpp</text>
</a>
</g>
</g>
<!-- Node1&#45;&gt;Node2 -->
<g id="edge1" class="edge"><title>Node1&#45;&gt;Node2</title>
<path fill="none" stroke="midnightblue" d="M319.524,-179.444C295.343,-170.438 257.082,-156.189 229.854,-146.049"/>
<polygon fill="midnightblue" stroke="midnightblue" points="230.961,-142.727 220.368,-142.516 228.518,-149.286 230.961,-142.727"/>
</g>
<!-- Node8 -->
<g id="node8" class="node"><title>Node8</title>
<g id="a_node8"><a xlink:href="Kinematics_8hpp.html" target="_top" xlink:title="Core/Kinematics.hpp">
<polygon fill="white" stroke="black" points="288.5,-62 288.5,-81 396.5,-81 396.5,-62 288.5,-62"/>
<text text-anchor="middle" x="342.5" y="-69" font-family="Helvetica,sans-Serif" font-size="10.00">Core/Kinematics.hpp</text>
</a>
</g>
</g>
<!-- Node1&#45;&gt;Node8 -->
<g id="edge8" class="edge"><title>Node1&#45;&gt;Node8</title>
<path fill="none" stroke="midnightblue" d="M342.5,-179.319C342.5,-160.757 342.5,-116.839 342.5,-91.4734"/>
<polygon fill="midnightblue" stroke="midnightblue" points="346,-91.282 342.5,-81.282 339,-91.282 346,-91.282"/>
</g>
<!-- Node9 -->
<g id="node9" class="node"><title>Node9</title>
<g id="a_node9"><a xlink:href="Logging_8hpp.html" target="_top" xlink:title="Core/Logging.hpp">
<polygon fill="white" stroke="black" points="401,-123.5 401,-142.5 494,-142.5 494,-123.5 401,-123.5"/>
<text text-anchor="middle" x="447.5" y="-130.5" font-family="Helvetica,sans-Serif" font-size="10.00">Core/Logging.hpp</text>
</a>
</g>
</g>
<!-- Node1&#45;&gt;Node9 -->
<g id="edge11" class="edge"><title>Node1&#45;&gt;Node9</title>
<path fill="none" stroke="midnightblue" d="M359.37,-179.324C376.209,-170.664 402.307,-157.242 421.738,-147.249"/>
<polygon fill="midnightblue" stroke="midnightblue" points="423.38,-150.341 430.672,-142.655 420.178,-144.116 423.38,-150.341"/>
</g>
<!-- Node3 -->
<g id="node3" class="node"><title>Node3</title>
<polygon fill="white" stroke="#bfbfbf" points="218.5,-62 218.5,-81 270.5,-81 270.5,-62 218.5,-62"/>
<text text-anchor="middle" x="244.5" y="-69" font-family="Helvetica,sans-Serif" font-size="10.00">memory</text>
</g>
<!-- Node2&#45;&gt;Node3 -->
<g id="edge2" class="edge"><title>Node2&#45;&gt;Node3</title>
<path fill="none" stroke="midnightblue" d="M204.234,-123.475C211.284,-114.55 222.535,-100.307 231.354,-89.1425"/>
<polygon fill="midnightblue" stroke="midnightblue" points="234.326,-91.0258 237.779,-81.0091 228.833,-86.6867 234.326,-91.0258"/>
</g>
<!-- Node4 -->
<g id="node4" class="node"><title>Node4</title>
<g id="a_node4"><a xlink:href="Event_8hpp.html" target="_top" xlink:title="Core/Event.hpp">
<polygon fill="white" stroke="red" points="0,-62 0,-81 85,-81 85,-62 0,-62"/>
<text text-anchor="middle" x="42.5" y="-69" font-family="Helvetica,sans-Serif" font-size="10.00">Core/Event.hpp</text>
</a>
</g>
</g>
<!-- Node2&#45;&gt;Node4 -->
<g id="edge3" class="edge"><title>Node2&#45;&gt;Node4</title>
<path fill="none" stroke="midnightblue" d="M175.292,-123.475C148.819,-113.313 104.386,-96.2564 74.2805,-84.6996"/>
<polygon fill="midnightblue" stroke="midnightblue" points="75.2566,-81.3254 64.6665,-81.0091 72.748,-87.8604 75.2566,-81.3254"/>
</g>
<!-- Node6 -->
<g id="node6" class="node"><title>Node6</title>
<g id="a_node6"><a xlink:href="Function_8hpp.html" target="_top" xlink:title="Core/Function.hpp">
<polygon fill="white" stroke="red" points="103,-62 103,-81 200,-81 200,-62 103,-62"/>
<text text-anchor="middle" x="151.5" y="-69" font-family="Helvetica,sans-Serif" font-size="10.00">Core/Function.hpp</text>
</a>
</g>
</g>
<!-- Node2&#45;&gt;Node6 -->
<g id="edge5" class="edge"><title>Node2&#45;&gt;Node6</title>
<path fill="none" stroke="midnightblue" d="M190.909,-123.475C184.009,-114.55 172.998,-100.307 164.366,-89.1425"/>
<polygon fill="midnightblue" stroke="midnightblue" points="166.964,-86.7798 158.078,-81.0091 161.426,-91.0612 166.964,-86.7798"/>
</g>
<!-- Node5 -->
<g id="node5" class="node"><title>Node5</title>
<polygon fill="white" stroke="#bfbfbf" points="129.5,-0.5 129.5,-19.5 173.5,-19.5 173.5,-0.5 129.5,-0.5"/>
<text text-anchor="middle" x="151.5" y="-7.5" font-family="Helvetica,sans-Serif" font-size="10.00">vector</text>
</g>
<!-- Node4&#45;&gt;Node5 -->
<g id="edge4" class="edge"><title>Node4&#45;&gt;Node5</title>
<path fill="none" stroke="midnightblue" d="M58.117,-61.9751C76.0859,-52.1664 105.821,-35.9346 126.906,-24.425"/>
<polygon fill="midnightblue" stroke="midnightblue" points="128.811,-27.3726 135.912,-19.5091 125.458,-21.2284 128.811,-27.3726"/>
</g>
<!-- Node6&#45;&gt;Node5 -->
<g id="edge7" class="edge"><title>Node6&#45;&gt;Node5</title>
<path fill="none" stroke="midnightblue" d="M151.5,-61.9751C151.5,-53.5803 151.5,-40.4806 151.5,-29.6631"/>
<polygon fill="midnightblue" stroke="midnightblue" points="155,-29.5091 151.5,-19.5091 148,-29.5091 155,-29.5091"/>
</g>
<!-- Node7 -->
<g id="node7" class="node"><title>Node7</title>
<polygon fill="white" stroke="#bfbfbf" points="257,-0.5 257,-19.5 298,-19.5 298,-0.5 257,-0.5"/>
<text text-anchor="middle" x="277.5" y="-7.5" font-family="Helvetica,sans-Serif" font-size="10.00">string</text>
</g>
<!-- Node6&#45;&gt;Node7 -->
<g id="edge6" class="edge"><title>Node6&#45;&gt;Node7</title>
<path fill="none" stroke="midnightblue" d="M169.553,-61.9751C190.698,-51.9897 225.94,-35.3476 250.378,-23.8075"/>
<polygon fill="midnightblue" stroke="midnightblue" points="251.933,-26.9441 259.481,-19.5091 248.944,-20.6143 251.933,-26.9441"/>
</g>
<!-- Node8&#45;&gt;Node5 -->
<g id="edge10" class="edge"><title>Node8&#45;&gt;Node5</title>
<path fill="none" stroke="midnightblue" d="M315.134,-61.9751C280.343,-51.1369 220.377,-32.4565 183.504,-20.9698"/>
<polygon fill="midnightblue" stroke="midnightblue" points="184.345,-17.5658 173.756,-17.9332 182.263,-24.2491 184.345,-17.5658"/>
</g>
<!-- Node8&#45;&gt;Node7 -->
<g id="edge9" class="edge"><title>Node8&#45;&gt;Node7</title>
<path fill="none" stroke="midnightblue" d="M333.187,-61.9751C323.051,-52.6966 306.636,-37.6706 294.248,-26.331"/>
<polygon fill="midnightblue" stroke="midnightblue" points="296.535,-23.6795 286.796,-19.5091 291.809,-28.8429 296.535,-23.6795"/>
</g>
<!-- Node10 -->
<g id="node10" class="node"><title>Node10</title>
<polygon fill="white" stroke="#bfbfbf" points="415,-56.5 415,-86.5 542,-86.5 542,-56.5 415,-56.5"/>
<text text-anchor="start" x="423" y="-74.5" font-family="Helvetica,sans-Serif" font-size="10.00">ThirdParty/easyloggingpp</text>
<text text-anchor="middle" x="478.5" y="-63.5" font-family="Helvetica,sans-Serif" font-size="10.00">/easylogging++.h</text>
</g>
<!-- Node9&#45;&gt;Node10 -->
<g id="edge12" class="edge"><title>Node9&#45;&gt;Node10</title>
<path fill="none" stroke="midnightblue" d="M451.942,-123.475C455.748,-116.17 461.41,-105.302 466.53,-95.475"/>
<polygon fill="midnightblue" stroke="midnightblue" points="469.677,-97.0087 471.194,-86.523 463.469,-93.7743 469.677,-97.0087"/>
</g>
</g>
</svg>
