<?xml version="1.0" encoding="UTF-8" standalone="no"?>
<!DOCTYPE svg PUBLIC "-//W3C//DTD SVG 1.1//EN"
 "http://www.w3.org/Graphics/SVG/1.1/DTD/svg11.dtd">
<!-- Generated by graphviz version 2.38.0 (20140413.2041)
 -->
<!-- Title: Data/DataSet.hpp Pages: 1 -->
<svg width="2205pt" height="162pt"
 viewBox="0.00 0.00 2205.00 162.00" xmlns="http://www.w3.org/2000/svg" xmlns:xlink="http://www.w3.org/1999/xlink">
<g id="graph0" class="graph" transform="scale(1 1) rotate(0) translate(4 158)">
<title>Data/DataSet.hpp</title>
<polygon fill="white" stroke="none" points="-4,4 -4,-158 2201,-158 2201,4 -4,4"/>
<!-- Node1 -->
<g id="node1" class="node"><title>Node1</title>
<polygon fill="#bfbfbf" stroke="black" points="983.5,-134.5 983.5,-153.5 1078.5,-153.5 1078.5,-134.5 983.5,-134.5"/>
<text text-anchor="middle" x="1031" y="-141.5" font-family="Helvetica,sans-Serif" font-size="10.00">Data/DataSet.hpp</text>
</g>
<!-- Node2 -->
<g id="node2" class="node"><title>Node2</title>
<g id="a_node2"><a xlink:href="FunctionTreeIntensity_8cpp.html" target="_top" xlink:title="Core/FunctionTree/Function\lTreeIntensity.cpp">
<polygon fill="white" stroke="black" points="0,-67.5 0,-97.5 138,-97.5 138,-67.5 0,-67.5"/>
<text text-anchor="start" x="8" y="-85.5" font-family="Helvetica,sans-Serif" font-size="10.00">Core/FunctionTree/Function</text>
<text text-anchor="middle" x="69" y="-74.5" font-family="Helvetica,sans-Serif" font-size="10.00">TreeIntensity.cpp</text>
</a>
</g>
</g>
<!-- Node1&#45;&gt;Node2 -->
<g id="edge1" class="edge"><title>Node1&#45;&gt;Node2</title>
<path fill="none" stroke="midnightblue" d="M973.202,-142.711C831.75,-141.428 457.06,-134.547 147,-98 144.127,-97.6614 141.201,-97.2808 138.25,-96.8673"/>
<polygon fill="midnightblue" stroke="midnightblue" points="973.35,-146.212 983.379,-142.797 973.409,-139.213 973.35,-146.212"/>
</g>
<!-- Node3 -->
<g id="node3" class="node"><title>Node3</title>
<g id="a_node3"><a xlink:href="ParameterList_8cpp.html" target="_top" xlink:title="Core/FunctionTree/Parameter\lList.cpp">
<polygon fill="white" stroke="black" points="156,-67.5 156,-97.5 302,-97.5 302,-67.5 156,-67.5"/>
<text text-anchor="start" x="164" y="-85.5" font-family="Helvetica,sans-Serif" font-size="10.00">Core/FunctionTree/Parameter</text>
<text text-anchor="middle" x="229" y="-74.5" font-family="Helvetica,sans-Serif" font-size="10.00">List.cpp</text>
</a>
</g>
</g>
<!-- Node1&#45;&gt;Node3 -->
<g id="edge2" class="edge"><title>Node1&#45;&gt;Node3</title>
<path fill="none" stroke="midnightblue" d="M973.037,-141.543C850.584,-137.989 556.694,-126.941 312,-98 308.804,-97.622 305.545,-97.2019 302.256,-96.7497"/>
<polygon fill="midnightblue" stroke="midnightblue" points="973.206,-145.049 983.302,-141.835 973.405,-138.052 973.206,-145.049"/>
</g>
<!-- Node4 -->
<g id="node4" class="node"><title>Node4</title>
<g id="a_node4"><a xlink:href="DataSet_8cpp.html" target="_top" xlink:title="Data/DataSet.cpp">
<polygon fill="white" stroke="black" points="320.5,-73 320.5,-92 415.5,-92 415.5,-73 320.5,-73"/>
<text text-anchor="middle" x="368" y="-80" font-family="Helvetica,sans-Serif" font-size="10.00">Data/DataSet.cpp</text>
</a>
</g>
</g>
<!-- Node1&#45;&gt;Node4 -->
<g id="edge3" class="edge"><title>Node1&#45;&gt;Node4</title>
<path fill="none" stroke="midnightblue" d="M973.07,-142.063C864.755,-139.569 624.469,-130.52 425,-98 415.93,-96.5213 406.192,-94.2901 397.377,-92.0184"/>
<polygon fill="midnightblue" stroke="midnightblue" points="973.06,-145.564 983.134,-142.285 973.214,-138.565 973.06,-145.564"/>
</g>
<!-- Node5 -->
<g id="node5" class="node"><title>Node5</title>
<g id="a_node5"><a xlink:href="Generate_8cpp.html" target="_top" xlink:title="Data/Generate.cpp">
<polygon fill="white" stroke="black" points="433.5,-73 433.5,-92 532.5,-92 532.5,-73 433.5,-73"/>
<text text-anchor="middle" x="483" y="-80" font-family="Helvetica,sans-Serif" font-size="10.00">Data/Generate.cpp</text>
</a>
</g>
</g>
<!-- Node1&#45;&gt;Node5 -->
<g id="edge4" class="edge"><title>Node1&#45;&gt;Node5</title>
<path fill="none" stroke="midnightblue" d="M973.296,-140.482C881.461,-135.849 696.628,-123.967 542,-98 532.846,-96.4628 523.014,-94.269 514.051,-92.0517"/>
<polygon fill="midnightblue" stroke="midnightblue" points="973.332,-143.988 983.492,-140.986 973.677,-136.996 973.332,-143.988"/>
</g>
<!-- Node6 -->
<g id="node6" class="node"><title>Node6</title>
<g id="a_node6"><a xlink:href="RootEfficiency_8cpp.html" target="_top" xlink:title="Data/Root/RootEfficiency.cpp">
<polygon fill="white" stroke="black" points="551,-73 551,-92 699,-92 699,-73 551,-73"/>
<text text-anchor="middle" x="625" y="-80" font-family="Helvetica,sans-Serif" font-size="10.00">Data/Root/RootEfficiency.cpp</text>
</a>
</g>
</g>
<!-- Node1&#45;&gt;Node6 -->
<g id="edge5" class="edge"><title>Node1&#45;&gt;Node6</title>
<path fill="none" stroke="midnightblue" d="M973.31,-135.574C908.626,-127.105 800.647,-112.542 708,-98 696.439,-96.1854 683.998,-94.0889 672.357,-92.0639"/>
<polygon fill="midnightblue" stroke="midnightblue" points="972.942,-139.055 983.311,-136.88 973.848,-132.114 972.942,-139.055"/>
</g>
<!-- Node7 -->
<g id="node7" class="node"><title>Node7</title>
<g id="a_node7"><a xlink:href="MinLogLH_8cpp.html" target="_top" xlink:title="Estimator/MinLogLH\l/MinLogLH.cpp">
<polygon fill="white" stroke="black" points="717,-67.5 717,-97.5 823,-97.5 823,-67.5 717,-67.5"/>
<text text-anchor="start" x="725" y="-85.5" font-family="Helvetica,sans-Serif" font-size="10.00">Estimator/MinLogLH</text>
<text text-anchor="middle" x="770" y="-74.5" font-family="Helvetica,sans-Serif" font-size="10.00">/MinLogLH.cpp</text>
</a>
</g>
</g>
<!-- Node1&#45;&gt;Node7 -->
<g id="edge6" class="edge"><title>Node1&#45;&gt;Node7</title>
<path fill="none" stroke="midnightblue" d="M983.748,-132.228C938.486,-121.91 870.289,-106.363 823.154,-95.6175"/>
<polygon fill="midnightblue" stroke="midnightblue" points="983.077,-135.665 993.605,-134.475 984.633,-128.84 983.077,-135.665"/>
</g>
<!-- Node8 -->
<g id="node8" class="node"><title>Node8</title>
<g id="a_node8"><a xlink:href="BuilderXML_8hpp.html" target="_top" xlink:title="Physics/BuilderXML.hpp">
<polygon fill="white" stroke="black" points="879,-73 879,-92 1003,-92 1003,-73 879,-73"/>
<text text-anchor="middle" x="941" y="-80" font-family="Helvetica,sans-Serif" font-size="10.00">Physics/BuilderXML.hpp</text>
</a>
</g>
</g>
<!-- Node1&#45;&gt;Node8 -->
<g id="edge7" class="edge"><title>Node1&#45;&gt;Node8</title>
<path fill="none" stroke="midnightblue" d="M1009.72,-128.93C992.366,-117.459 968.43,-101.634 953.871,-92.0091"/>
<polygon fill="midnightblue" stroke="midnightblue" points="1007.83,-131.88 1018.11,-134.475 1011.69,-126.041 1007.83,-131.88"/>
</g>
<!-- Node10 -->
<g id="node10" class="node"><title>Node10</title>
<g id="a_node10"><a xlink:href="DalitzFitApp_8cpp.html" target="_top" xlink:title="Simple Dalitz plot analysis with ComPWA. ">
<polygon fill="white" stroke="black" points="451,-0.5 451,-30.5 551,-30.5 551,-0.5 451,-0.5"/>
<text text-anchor="start" x="459" y="-18.5" font-family="Helvetica,sans-Serif" font-size="10.00">Examples/DalitzFit</text>
<text text-anchor="middle" x="501" y="-7.5" font-family="Helvetica,sans-Serif" font-size="10.00">/DalitzFitApp.cpp</text>
</a>
</g>
</g>
<!-- Node1&#45;&gt;Node10 -->
<g id="edge13" class="edge"><title>Node1&#45;&gt;Node10</title>
<path fill="none" stroke="midnightblue" d="M973.293,-132.901C941.612,-125.898 902.315,-114.759 870,-98 850.651,-87.9656 852.007,-75.6469 832,-67 720.064,-18.6227 679.833,-53.5853 560,-31 557.098,-30.453 554.124,-29.8522 551.131,-29.2159"/>
<polygon fill="midnightblue" stroke="midnightblue" points="972.783,-136.371 983.292,-135.031 974.241,-129.524 972.783,-136.371"/>
</g>
<!-- Node11 -->
<g id="node11" class="node"><title>Node11</title>
<g id="a_node11"><a xlink:href="SimFit_8cpp.html" target="_top" xlink:title="Examples/SimFit/SimFit.cpp">
<polygon fill="white" stroke="black" points="915,-6 915,-25 1057,-25 1057,-6 915,-6"/>
<text text-anchor="middle" x="986" y="-13" font-family="Helvetica,sans-Serif" font-size="10.00">Examples/SimFit/SimFit.cpp</text>
</a>
</g>
</g>
<!-- Node1&#45;&gt;Node11 -->
<g id="edge17" class="edge"><title>Node1&#45;&gt;Node11</title>
<path fill="none" stroke="midnightblue" d="M1027.6,-124.417C1024.45,-108.803 1019.18,-86.0497 1012,-67 1006.23,-51.6811 997.011,-34.9951 991.242,-25.1561"/>
<polygon fill="midnightblue" stroke="midnightblue" points="1024.19,-125.21 1029.52,-134.37 1031.07,-123.89 1024.19,-125.21"/>
</g>
<!-- Node12 -->
<g id="node12" class="node"><title>Node12</title>
<g id="a_node12"><a xlink:href="BuilderXML_8cpp.html" target="_top" xlink:title="Physics/BuilderXML.cpp">
<polygon fill="white" stroke="black" points="1075,-6 1075,-25 1199,-25 1199,-6 1075,-6"/>
<text text-anchor="middle" x="1137" y="-13" font-family="Helvetica,sans-Serif" font-size="10.00">Physics/BuilderXML.cpp</text>
</a>
</g>
</g>
<!-- Node1&#45;&gt;Node12 -->
<g id="edge18" class="edge"><title>Node1&#45;&gt;Node12</title>
<path fill="none" stroke="midnightblue" d="M1042.76,-126.069C1053.89,-110.348 1071.34,-86.499 1088,-67 1101.17,-51.5806 1117.86,-34.9244 1127.97,-25.1188"/>
<polygon fill="midnightblue" stroke="midnightblue" points="1039.87,-124.097 1036.99,-134.293 1045.6,-128.119 1039.87,-124.097"/>
</g>
<!-- Node14 -->
<g id="node14" class="node"><title>Node14</title>
<g id="a_node14"><a xlink:href="EvtGenIF_8hpp.html" target="_top" xlink:title="Physics/EvtGen/EvtGenIF.hpp">
<polygon fill="white" stroke="black" points="1097,-73 1097,-92 1249,-92 1249,-73 1097,-73"/>
<text text-anchor="middle" x="1173" y="-80" font-family="Helvetica,sans-Serif" font-size="10.00">Physics/EvtGen/EvtGenIF.hpp</text>
</a>
</g>
</g>
<!-- Node1&#45;&gt;Node14 -->
<g id="edge14" class="edge"><title>Node1&#45;&gt;Node14</title>
<path fill="none" stroke="midnightblue" d="M1060.88,-130.48C1088.46,-118.924 1128.67,-102.076 1152.69,-92.0091"/>
<polygon fill="midnightblue" stroke="midnightblue" points="1059.22,-127.382 1051.35,-134.475 1061.92,-133.839 1059.22,-127.382"/>
</g>
<!-- Node17 -->
<g id="node17" class="node"><title>Node17</title>
<g id="a_node17"><a xlink:href="DalitzKinematics_8cpp.html" target="_top" xlink:title="Physics/EvtGen/DalitzKinematics.cpp">
<polygon fill="white" stroke="black" points="1267,-73 1267,-92 1451,-92 1451,-73 1267,-73"/>
<text text-anchor="middle" x="1359" y="-80" font-family="Helvetica,sans-Serif" font-size="10.00">Physics/EvtGen/DalitzKinematics.cpp</text>
</a>
</g>
</g>
<!-- Node1&#45;&gt;Node17 -->
<g id="edge19" class="edge"><title>Node1&#45;&gt;Node17</title>
<path fill="none" stroke="midnightblue" d="M1087.85,-132.688C1151.34,-121.17 1252.95,-102.738 1312.09,-92.0091"/>
<polygon fill="midnightblue" stroke="midnightblue" points="1087.21,-129.246 1077.99,-134.475 1088.46,-136.134 1087.21,-129.246"/>
</g>
<!-- Node18 -->
<g id="node18" class="node"><title>Node18</title>
<g id="a_node18"><a xlink:href="HelicityKinematics_8cpp.html" target="_top" xlink:title="Physics/HelicityFormalism\l/HelicityKinematics.cpp">
<polygon fill="white" stroke="black" points="1469,-67.5 1469,-97.5 1603,-97.5 1603,-67.5 1469,-67.5"/>
<text text-anchor="start" x="1477" y="-85.5" font-family="Helvetica,sans-Serif" font-size="10.00">Physics/HelicityFormalism</text>
<text text-anchor="middle" x="1536" y="-74.5" font-family="Helvetica,sans-Serif" font-size="10.00">/HelicityKinematics.cpp</text>
</a>
</g>
</g>
<!-- Node1&#45;&gt;Node18 -->
<g id="edge20" class="edge"><title>Node1&#45;&gt;Node18</title>
<path fill="none" stroke="midnightblue" d="M1088.97,-138.476C1171.59,-131.674 1327.85,-117.502 1460,-98 1462.92,-97.5686 1465.91,-97.1042 1468.92,-96.6157"/>
<polygon fill="midnightblue" stroke="midnightblue" points="1088.46,-135.005 1078.78,-139.308 1089.03,-141.982 1088.46,-135.005"/>
</g>
<!-- Node19 -->
<g id="node19" class="node"><title>Node19</title>
<g id="a_node19"><a xlink:href="FitFractions_8cpp.html" target="_top" xlink:title="Tools/FitFractions.cpp">
<polygon fill="white" stroke="black" points="1621,-73 1621,-92 1735,-92 1735,-73 1621,-73"/>
<text text-anchor="middle" x="1678" y="-80" font-family="Helvetica,sans-Serif" font-size="10.00">Tools/FitFractions.cpp</text>
</a>
</g>
</g>
<!-- Node1&#45;&gt;Node19 -->
<g id="edge21" class="edge"><title>Node1&#45;&gt;Node19</title>
<path fill="none" stroke="midnightblue" d="M1088.75,-141.185C1193.51,-137.304 1421.68,-126.138 1612,-98 1622.33,-96.473 1633.45,-94.2551 1643.57,-92.0114"/>
<polygon fill="midnightblue" stroke="midnightblue" points="1088.56,-137.69 1078.7,-141.549 1088.82,-144.685 1088.56,-137.69"/>
</g>
<!-- Node20 -->
<g id="node20" class="node"><title>Node20</title>
<g id="a_node20"><a xlink:href="Integration_8cpp.html" target="_top" xlink:title="Tools/Integration.cpp">
<polygon fill="white" stroke="black" points="1753,-73 1753,-92 1861,-92 1861,-73 1753,-73"/>
<text text-anchor="middle" x="1807" y="-80" font-family="Helvetica,sans-Serif" font-size="10.00">Tools/Integration.cpp</text>
</a>
</g>
</g>
<!-- Node1&#45;&gt;Node20 -->
<g id="edge22" class="edge"><title>Node1&#45;&gt;Node20</title>
<path fill="none" stroke="midnightblue" d="M1089.07,-142.536C1211.02,-140.861 1502.5,-133.173 1744,-98 1754,-96.5442 1764.75,-94.3199 1774.49,-92.0473"/>
<polygon fill="midnightblue" stroke="midnightblue" points="1088.79,-139.04 1078.84,-142.668 1088.88,-146.039 1088.79,-139.04"/>
</g>
<!-- Node21 -->
<g id="node21" class="node"><title>Node21</title>
<g id="a_node21"><a xlink:href="DalitzPlot_8cpp.html" target="_top" xlink:title="Tools/Plotting/DalitzPlot.cpp">
<polygon fill="white" stroke="black" points="1879.5,-73 1879.5,-92 2020.5,-92 2020.5,-73 1879.5,-73"/>
<text text-anchor="middle" x="1950" y="-80" font-family="Helvetica,sans-Serif" font-size="10.00">Tools/Plotting/DalitzPlot.cpp</text>
</a>
</g>
</g>
<!-- Node1&#45;&gt;Node21 -->
<g id="edge23" class="edge"><title>Node1&#45;&gt;Node21</title>
<path fill="none" stroke="midnightblue" d="M1089.19,-142.393C1225.9,-140.419 1578.06,-132.149 1870,-98 1882.62,-96.5241 1896.25,-94.2938 1908.63,-92.0219"/>
<polygon fill="midnightblue" stroke="midnightblue" points="1088.9,-138.897 1078.95,-142.535 1089,-145.896 1088.9,-138.897"/>
</g>
<!-- Node22 -->
<g id="node22" class="node"><title>Node22</title>
<g id="a_node22"><a xlink:href="RootPlotData_8cpp.html" target="_top" xlink:title="Tools/Plotting/RootPlotData.cpp">
<polygon fill="white" stroke="black" points="2039,-73 2039,-92 2197,-92 2197,-73 2039,-73"/>
<text text-anchor="middle" x="2118" y="-80" font-family="Helvetica,sans-Serif" font-size="10.00">Tools/Plotting/RootPlotData.cpp</text>
</a>
</g>
</g>
<!-- Node1&#45;&gt;Node22 -->
<g id="edge24" class="edge"><title>Node1&#45;&gt;Node22</title>
<path fill="none" stroke="midnightblue" d="M1088.87,-142.782C1242.58,-141.688 1673.63,-135.254 2030,-98 2043.86,-96.5511 2058.85,-94.3288 2072.46,-92.056"/>
<polygon fill="midnightblue" stroke="midnightblue" points="1088.7,-139.283 1078.72,-142.85 1088.75,-146.283 1088.7,-139.283"/>
</g>
<!-- Node9 -->
<g id="node9" class="node"><title>Node9</title>
<g id="a_node9"><a xlink:href="DalitzFitD03K_8cpp.html" target="_top" xlink:title="Executable for Dalitz plot analysis of the decay D0 &#45;&gt; K_S K+ K&#45;. ">
<polygon fill="white" stroke="black" points="753.5,-0.5 753.5,-30.5 896.5,-30.5 896.5,-0.5 753.5,-0.5"/>
<text text-anchor="start" x="761.5" y="-18.5" font-family="Helvetica,sans-Serif" font-size="10.00">Examples/DalitzAnalysis</text>
<text text-anchor="middle" x="825" y="-7.5" font-family="Helvetica,sans-Serif" font-size="10.00">_D0KsKK/DalitzFitD03K.cpp</text>
</a>
</g>
</g>
<!-- Node8&#45;&gt;Node9 -->
<g id="edge8" class="edge"><title>Node8&#45;&gt;Node9</title>
<path fill="none" stroke="midnightblue" d="M916.467,-67.7528C896.968,-56.8271 869.799,-41.6031 850.143,-30.589"/>
<polygon fill="midnightblue" stroke="midnightblue" points="914.921,-70.8988 925.356,-72.7338 918.343,-64.7921 914.921,-70.8988"/>
</g>
<!-- Node8&#45;&gt;Node10 -->
<g id="edge9" class="edge"><title>Node8&#45;&gt;Node10</title>
<path fill="none" stroke="midnightblue" d="M889.19,-71.106C881.109,-69.6322 872.841,-68.2092 865,-67 730.098,-46.1965 694.31,-55.3346 560,-31 557.094,-30.4735 554.118,-29.8887 551.122,-29.2646"/>
<polygon fill="midnightblue" stroke="midnightblue" points="888.808,-74.595 899.28,-72.9878 890.091,-67.7136 888.808,-74.595"/>
</g>
<!-- Node8&#45;&gt;Node11 -->
<g id="edge10" class="edge"><title>Node8&#45;&gt;Node11</title>
<path fill="none" stroke="midnightblue" d="M952.836,-64.4037C961.58,-51.7729 973.12,-35.1041 980.027,-25.1273"/>
<polygon fill="midnightblue" stroke="midnightblue" points="949.883,-62.5196 947.069,-72.7338 955.639,-66.5041 949.883,-62.5196"/>
</g>
<!-- Node8&#45;&gt;Node12 -->
<g id="edge11" class="edge"><title>Node8&#45;&gt;Node12</title>
<path fill="none" stroke="midnightblue" d="M976.879,-69.6013C1015.74,-56.7138 1076.77,-36.4728 1111.18,-25.0637"/>
<polygon fill="midnightblue" stroke="midnightblue" points="975.417,-66.3986 967.027,-72.8685 977.621,-73.0428 975.417,-66.3986"/>
</g>
<!-- Node13 -->
<g id="node13" class="node"><title>Node13</title>
<g id="a_node13"><a xlink:href="BOSSAdapter_8cpp.html" target="_top" xlink:title="Tools/Adapters/BOSSAdapter.cpp">
<polygon fill="white" stroke="black" points="569,-6 569,-25 735,-25 735,-6 569,-6"/>
<text text-anchor="middle" x="652" y="-13" font-family="Helvetica,sans-Serif" font-size="10.00">Tools/Adapters/BOSSAdapter.cpp</text>
</a>
</g>
</g>
<!-- Node8&#45;&gt;Node13 -->
<g id="edge12" class="edge"><title>Node8&#45;&gt;Node13</title>
<path fill="none" stroke="midnightblue" d="M893.086,-70.7236C836.179,-57.9244 742.406,-36.8334 690.163,-25.0834"/>
<polygon fill="midnightblue" stroke="midnightblue" points="892.397,-74.1558 902.921,-72.9355 893.933,-67.3265 892.397,-74.1558"/>
</g>
<!-- Node15 -->
<g id="node15" class="node"><title>Node15</title>
<g id="a_node15"><a xlink:href="EvtGenFit_8cpp.html" target="_top" xlink:title="Examples/EvtGen/EvtGenFit.cpp">
<polygon fill="white" stroke="black" points="1387,-6 1387,-25 1549,-25 1549,-6 1387,-6"/>
<text text-anchor="middle" x="1468" y="-13" font-family="Helvetica,sans-Serif" font-size="10.00">Examples/EvtGen/EvtGenFit.cpp</text>
</a>
</g>
</g>
<!-- Node14&#45;&gt;Node15 -->
<g id="edge15" class="edge"><title>Node14&#45;&gt;Node15</title>
<path fill="none" stroke="midnightblue" d="M1221.91,-70.7236C1280,-57.9244 1375.72,-36.8334 1429.04,-25.0834"/>
<polygon fill="midnightblue" stroke="midnightblue" points="1220.88,-67.3657 1211.87,-72.9355 1222.39,-74.2017 1220.88,-67.3657"/>
</g>
<!-- Node16 -->
<g id="node16" class="node"><title>Node16</title>
<g id="a_node16"><a xlink:href="EvtGenIF_8cpp.html" target="_top" xlink:title="Physics/EvtGen/EvtGenIF.cpp">
<polygon fill="white" stroke="black" points="1217,-6 1217,-25 1369,-25 1369,-6 1217,-6"/>
<text text-anchor="middle" x="1293" y="-13" font-family="Helvetica,sans-Serif" font-size="10.00">Physics/EvtGen/EvtGenIF.cpp</text>
</a>
</g>
</g>
<!-- Node14&#45;&gt;Node16 -->
<g id="edge16" class="edge"><title>Node14&#45;&gt;Node16</title>
<path fill="none" stroke="midnightblue" d="M1198,-67.9586C1221.79,-55.0727 1256.87,-36.0727 1277.07,-25.1273"/>
<polygon fill="midnightblue" stroke="midnightblue" points="1196.31,-64.8934 1189.18,-72.7338 1199.64,-71.0485 1196.31,-64.8934"/>
</g>
</g>
</svg>
