<?xml version="1.0" encoding="UTF-8" standalone="no"?>
<!DOCTYPE svg PUBLIC "-//W3C//DTD SVG 1.1//EN"
 "http://www.w3.org/Graphics/SVG/1.1/DTD/svg11.dtd">
<!-- Generated by graphviz version 2.38.0 (20140413.2041)
 -->
<!-- Title: Data/DataCorrection.hpp Pages: 1 -->
<!--zoomable 274 -->
<svg id="main" version="1.1" xmlns="http://www.w3.org/2000/svg" xmlns:xlink="http://www.w3.org/1999/xlink" xml:space="preserve" onload="init(evt)">
<style type="text/css"><![CDATA[
.edge:hover path { stroke: red; }
.edge:hover polygon { stroke: red; fill: red; }
]]></style>
<script type="text/javascript"><![CDATA[
var edges = document.getElementsByTagName('g');
if (edges && edges.length) {
  for (var i=0;i<edges.length;i++) {
    if (edges[i].id.substr(0,4)=='edge') {
      edges[i].setAttribute('class','edge');
    }
  }
}
]]></script>
        <defs>
                <circle id="rim" cx="0" cy="0" r="7"/>
                <circle id="rim2" cx="0" cy="0" r="3.5"/>
                <g id="zoomPlus">
                        <use xlink:href="#rim" fill="#404040">
                                <set attributeName="fill" to="#808080" begin="zoomplus.mouseover" end="zoomplus.mouseout"/>
                        </use>
                        <path d="M-4,0h8M0,-4v8" fill="none" stroke="white" stroke-width="1.5" pointer-events="none"/>
                </g>
                <g id="zoomMin">
                        <use xlink:href="#rim" fill="#404040">
                                <set attributeName="fill" to="#808080" begin="zoomminus.mouseover" end="zoomminus.mouseout"/>
                        </use>
                        <path d="M-4,0h8" fill="none" stroke="white" stroke-width="1.5" pointer-events="none"/>
                </g>
                <g id="dirArrow">
                        <path fill="none" stroke="white" stroke-width="1.5" d="M0,-3.0v7 M-2.5,-0.5L0,-3.0L2.5,-0.5"/>
                </g>
               <g id="resetDef">
                       <use xlink:href="#rim2" fill="#404040">
                               <set attributeName="fill" to="#808080" begin="reset.mouseover" end="reset.mouseout"/>
                       </use>
               </g>
        </defs>

<script type="text/javascript">
var viewWidth = 841;
var viewHeight = 274;
var sectionId = 'dynsection-0';
</script>
<script xlink:href="svgpan.js"/>
<svg id="graph" class="graph">
<g id="viewport">
<title>Data/DataCorrection.hpp</title>
<polygon fill="white" stroke="none" points="-4,4 -4,-270 837,-270 837,4 -4,4"/>
<!-- Node1 -->
<g id="node1" class="node"><title>Node1</title>
<polygon fill="#bfbfbf" stroke="black" points="244,-246.5 244,-265.5 369,-265.5 369,-246.5 244,-246.5"/>
<text text-anchor="middle" x="306.5" y="-253.5" font-family="Helvetica,sans-Serif" font-size="10.00">Data/DataCorrection.hpp</text>
</g>
<!-- Node2 -->
<g id="node2" class="node"><title>Node2</title>
<polygon fill="white" stroke="#bfbfbf" points="0,-190.5 0,-209.5 41,-209.5 41,-190.5 0,-190.5"/>
<text text-anchor="middle" x="20.5" y="-197.5" font-family="Helvetica,sans-Serif" font-size="10.00">cfloat</text>
</g>
<!-- Node1&#45;&gt;Node2 -->
<g id="edge1" class="edge"><title>Node1&#45;&gt;Node2</title>
<path fill="none" stroke="midnightblue" d="M252.413,-246.496C201.424,-238.197 122.98,-224.704 55.5,-210 54.0441,-209.683 52.557,-209.347 51.0572,-208.999"/>
<polygon fill="midnightblue" stroke="midnightblue" points="51.7121,-205.556 41.1674,-206.586 50.0528,-212.356 51.7121,-205.556"/>
</g>
<!-- Node3 -->
<g id="node3" class="node"><title>Node3</title>
<polygon fill="white" stroke="#bfbfbf" points="44,-73 44,-92 103,-92 103,-73 44,-73"/>
<text text-anchor="middle" x="73.5" y="-80" font-family="Helvetica,sans-Serif" font-size="10.00">stdexcept</text>
</g>
<!-- Node1&#45;&gt;Node3 -->
<g id="edge2" class="edge"><title>Node1&#45;&gt;Node3</title>
<path fill="none" stroke="midnightblue" d="M260.622,-246.399C210.521,-234.529 131.676,-208.131 88.5,-154 76.9346,-139.5 73.7332,-118.158 73.0875,-102.757"/>
<polygon fill="midnightblue" stroke="midnightblue" points="76.5839,-102.318 72.9958,-92.3493 69.5842,-102.38 76.5839,-102.318"/>
</g>
<!-- Node4 -->
<g id="node4" class="node"><title>Node4</title>
<g id="a_node4"><a xlink:href="Event_8hpp.html" target="_top" xlink:title="Core/Event.hpp">
<polygon fill="white" stroke="black" points="300,-190.5 300,-209.5 385,-209.5 385,-190.5 300,-190.5"/>
<text text-anchor="middle" x="342.5" y="-197.5" font-family="Helvetica,sans-Serif" font-size="10.00">Core/Event.hpp</text>
</a>
</g>
</g>
<!-- Node1&#45;&gt;Node4 -->
<g id="edge3" class="edge"><title>Node1&#45;&gt;Node4</title>
<path fill="none" stroke="midnightblue" d="M312.445,-246.083C317.477,-238.534 324.837,-227.495 331.013,-218.23"/>
<polygon fill="midnightblue" stroke="midnightblue" points="334.031,-220.013 336.666,-209.751 328.207,-216.13 334.031,-220.013"/>
</g>
<!-- Node10 -->
<g id="node10" class="node"><title>Node10</title>
<g id="a_node10"><a xlink:href="Logging_8hpp.html" target="_top" xlink:title="Core/Logging.hpp">
<polygon fill="white" stroke="black" points="723,-73 723,-92 816,-92 816,-73 723,-73"/>
<text text-anchor="middle" x="769.5" y="-80" font-family="Helvetica,sans-Serif" font-size="10.00">Core/Logging.hpp</text>
</a>
</g>
</g>
<!-- Node1&#45;&gt;Node10 -->
<g id="edge11" class="edge"><title>Node1&#45;&gt;Node10</title>
<path fill="none" stroke="midnightblue" d="M369.166,-252.315C493.5,-245.529 764.263,-222.994 820.5,-154 835.715,-135.334 812.206,-112.578 792.3,-98.0636"/>
<polygon fill="midnightblue" stroke="midnightblue" points="794.05,-95.0183 783.837,-92.2013 790.064,-100.773 794.05,-95.0183"/>
</g>
<!-- Node12 -->
<g id="node12" class="node"><title>Node12</title>
<g id="a_node12"><a xlink:href="Properties_8hpp.html" target="_top" xlink:title="Core/Properties.hpp">
<polygon fill="white" stroke="black" points="435.5,-190.5 435.5,-209.5 539.5,-209.5 539.5,-190.5 435.5,-190.5"/>
<text text-anchor="middle" x="487.5" y="-197.5" font-family="Helvetica,sans-Serif" font-size="10.00">Core/Properties.hpp</text>
</a>
</g>
</g>
<!-- Node1&#45;&gt;Node12 -->
<g id="edge13" class="edge"><title>Node1&#45;&gt;Node12</title>
<path fill="none" stroke="midnightblue" d="M335.18,-246.444C366.027,-237.241 415.228,-222.562 449.329,-212.388"/>
<polygon fill="midnightblue" stroke="midnightblue" points="450.372,-215.729 458.954,-209.516 448.371,-209.021 450.372,-215.729"/>
</g>
<!-- Node18 -->
<g id="node18" class="node"><title>Node18</title>
<g id="a_node18"><a xlink:href="CorrectionTable_8hpp.html" target="_top" xlink:title="Correction table. ">
<polygon fill="white" stroke="black" points="207.5,-134.5 207.5,-153.5 335.5,-153.5 335.5,-134.5 207.5,-134.5"/>
<text text-anchor="middle" x="271.5" y="-141.5" font-family="Helvetica,sans-Serif" font-size="10.00">Data/CorrectionTable.hpp</text>
</a>
</g>
</g>
<!-- Node1&#45;&gt;Node18 -->
<g id="edge24" class="edge"><title>Node1&#45;&gt;Node18</title>
<path fill="none" stroke="midnightblue" d="M303.285,-246.423C299.945,-237.406 294.636,-222.78 290.5,-210 285.466,-194.445 280.294,-176.609 276.62,-163.56"/>
<polygon fill="midnightblue" stroke="midnightblue" points="279.979,-162.573 273.922,-153.88 273.236,-164.453 279.979,-162.573"/>
</g>
<!-- Node5 -->
<g id="node5" class="node"><title>Node5</title>
<g id="a_node5"><a xlink:href="Particle_8hpp.html" target="_top" xlink:title="Particle and FourMomentum class. ">
<polygon fill="white" stroke="red" points="97.5,-134.5 97.5,-153.5 189.5,-153.5 189.5,-134.5 97.5,-134.5"/>
<text text-anchor="middle" x="143.5" y="-141.5" font-family="Helvetica,sans-Serif" font-size="10.00">Core/Particle.hpp</text>
</a>
</g>
</g>
<!-- Node4&#45;&gt;Node5 -->
<g id="edge4" class="edge"><title>Node4&#45;&gt;Node5</title>
<path fill="none" stroke="midnightblue" d="M310.968,-190.444C276.908,-181.201 222.494,-166.436 184.985,-156.257"/>
<polygon fill="midnightblue" stroke="midnightblue" points="185.452,-152.758 174.885,-153.516 183.619,-159.513 185.452,-152.758"/>
</g>
<!-- Node8 -->
<g id="node8" class="node"><title>Node8</title>
<polygon fill="white" stroke="#bfbfbf" points="445.5,-73 445.5,-92 489.5,-92 489.5,-73 445.5,-73"/>
<text text-anchor="middle" x="467.5" y="-80" font-family="Helvetica,sans-Serif" font-size="10.00">vector</text>
</g>
<!-- Node4&#45;&gt;Node8 -->
<g id="edge10" class="edge"><title>Node4&#45;&gt;Node8</title>
<path fill="none" stroke="midnightblue" d="M351.895,-190.319C372.889,-170.921 423.852,-123.831 450.549,-99.1625"/>
<polygon fill="midnightblue" stroke="midnightblue" points="453.026,-101.639 457.996,-92.282 448.276,-96.4979 453.026,-101.639"/>
</g>
<!-- Node5&#45;&gt;Node3 -->
<g id="edge7" class="edge"><title>Node5&#45;&gt;Node3</title>
<path fill="none" stroke="midnightblue" d="M133.471,-134.475C122.451,-125.108 104.54,-109.884 91.1565,-98.5081"/>
<polygon fill="midnightblue" stroke="midnightblue" points="93.3969,-95.8188 83.5107,-92.0091 88.8633,-101.152 93.3969,-95.8188"/>
</g>
<!-- Node6 -->
<g id="node6" class="node"><title>Node6</title>
<polygon fill="white" stroke="#bfbfbf" points="121.5,-73 121.5,-92 165.5,-92 165.5,-73 121.5,-73"/>
<text text-anchor="middle" x="143.5" y="-80" font-family="Helvetica,sans-Serif" font-size="10.00">cmath</text>
</g>
<!-- Node5&#45;&gt;Node6 -->
<g id="edge5" class="edge"><title>Node5&#45;&gt;Node6</title>
<path fill="none" stroke="midnightblue" d="M143.5,-134.475C143.5,-126.08 143.5,-112.981 143.5,-102.163"/>
<polygon fill="midnightblue" stroke="midnightblue" points="147,-102.009 143.5,-92.0091 140,-102.009 147,-102.009"/>
</g>
<!-- Node7 -->
<g id="node7" class="node"><title>Node7</title>
<polygon fill="white" stroke="#bfbfbf" points="183.5,-73 183.5,-92 237.5,-92 237.5,-73 183.5,-73"/>
<text text-anchor="middle" x="210.5" y="-80" font-family="Helvetica,sans-Serif" font-size="10.00">iostream</text>
</g>
<!-- Node5&#45;&gt;Node7 -->
<g id="edge6" class="edge"><title>Node5&#45;&gt;Node7</title>
<path fill="none" stroke="midnightblue" d="M153.099,-134.475C163.548,-125.197 180.468,-110.171 193.236,-98.831"/>
<polygon fill="midnightblue" stroke="midnightblue" points="195.765,-101.266 200.918,-92.0091 191.117,-96.0323 195.765,-101.266"/>
</g>
<!-- Node5&#45;&gt;Node8 -->
<g id="edge8" class="edge"><title>Node5&#45;&gt;Node8</title>
<path fill="none" stroke="midnightblue" d="M189.707,-135.397C192.682,-134.921 195.633,-134.451 198.5,-134 304.179,-117.362 334.104,-128.982 436.5,-98 438.377,-97.4322 440.285,-96.7698 442.185,-96.0467"/>
<polygon fill="midnightblue" stroke="midnightblue" points="443.624,-99.2377 451.437,-92.0814 440.867,-92.8037 443.624,-99.2377"/>
</g>
<!-- Node9 -->
<g id="node9" class="node"><title>Node9</title>
<polygon fill="white" stroke="#bfbfbf" points="256,-67.5 256,-97.5 357,-97.5 357,-67.5 256,-67.5"/>
<text text-anchor="start" x="264" y="-85.5" font-family="Helvetica,sans-Serif" font-size="10.00">boost/property_tree</text>
<text text-anchor="middle" x="306.5" y="-74.5" font-family="Helvetica,sans-Serif" font-size="10.00">/ptree.hpp</text>
</g>
<!-- Node5&#45;&gt;Node9 -->
<g id="edge9" class="edge"><title>Node5&#45;&gt;Node9</title>
<path fill="none" stroke="midnightblue" d="M166.854,-134.475C190.684,-125.776 228.352,-112.026 258.564,-100.998"/>
<polygon fill="midnightblue" stroke="midnightblue" points="259.891,-104.24 268.084,-97.523 257.49,-97.6642 259.891,-104.24"/>
</g>
<!-- Node11 -->
<g id="node11" class="node"><title>Node11</title>
<polygon fill="white" stroke="#bfbfbf" points="706,-0.5 706,-30.5 833,-30.5 833,-0.5 706,-0.5"/>
<text text-anchor="start" x="714" y="-18.5" font-family="Helvetica,sans-Serif" font-size="10.00">ThirdParty/easyloggingpp</text>
<text text-anchor="middle" x="769.5" y="-7.5" font-family="Helvetica,sans-Serif" font-size="10.00">/easylogging++.h</text>
</g>
<!-- Node10&#45;&gt;Node11 -->
<g id="edge12" class="edge"><title>Node10&#45;&gt;Node11</title>
<path fill="none" stroke="midnightblue" d="M769.5,-72.7338C769.5,-64.5406 769.5,-51.9225 769.5,-40.7136"/>
<polygon fill="midnightblue" stroke="midnightblue" points="773,-40.589 769.5,-30.589 766,-40.5891 773,-40.589"/>
</g>
<!-- Node12&#45;&gt;Node8 -->
<g id="edge23" class="edge"><title>Node12&#45;&gt;Node8</title>
<path fill="none" stroke="midnightblue" d="M485.997,-190.319C482.783,-171.757 475.178,-127.839 470.785,-102.473"/>
<polygon fill="midnightblue" stroke="midnightblue" points="474.176,-101.538 469.021,-92.282 467.278,-102.733 474.176,-101.538"/>
</g>
<!-- Node12&#45;&gt;Node9 -->
<g id="edge20" class="edge"><title>Node12&#45;&gt;Node9</title>
<path fill="none" stroke="midnightblue" d="M473.896,-190.319C445.004,-171.882 376.912,-128.431 337.043,-102.99"/>
<polygon fill="midnightblue" stroke="midnightblue" points="338.823,-99.9742 328.51,-97.5453 335.058,-105.875 338.823,-99.9742"/>
</g>
<!-- Node13 -->
<g id="node13" class="node"><title>Node13</title>
<g id="a_node13"><a xlink:href="Exceptions_8hpp.html" target="_top" xlink:title="ComPWA exceptions. ">
<polygon fill="white" stroke="red" points="515.5,-134.5 515.5,-153.5 623.5,-153.5 623.5,-134.5 515.5,-134.5"/>
<text text-anchor="middle" x="569.5" y="-141.5" font-family="Helvetica,sans-Serif" font-size="10.00">Core/Exceptions.hpp</text>
</a>
</g>
</g>
<!-- Node12&#45;&gt;Node13 -->
<g id="edge14" class="edge"><title>Node12&#45;&gt;Node13</title>
<path fill="none" stroke="midnightblue" d="M500.675,-190.324C513.347,-181.979 532.733,-169.212 547.706,-159.352"/>
<polygon fill="midnightblue" stroke="midnightblue" points="549.931,-162.078 556.358,-153.655 546.081,-156.231 549.931,-162.078"/>
</g>
<!-- Node15 -->
<g id="node15" class="node"><title>Node15</title>
<g id="a_node15"><a xlink:href="FitParameter_8hpp.html" target="_top" xlink:title="Core/FitParameter.hpp">
<polygon fill="white" stroke="red" points="641.5,-134.5 641.5,-153.5 757.5,-153.5 757.5,-134.5 641.5,-134.5"/>
<text text-anchor="middle" x="699.5" y="-141.5" font-family="Helvetica,sans-Serif" font-size="10.00">Core/FitParameter.hpp</text>
</a>
</g>
</g>
<!-- Node12&#45;&gt;Node15 -->
<g id="edge16" class="edge"><title>Node12&#45;&gt;Node15</title>
<path fill="none" stroke="midnightblue" d="M521.092,-190.444C557.687,-181.122 616.338,-166.183 656.326,-155.997"/>
<polygon fill="midnightblue" stroke="midnightblue" points="657.239,-159.377 666.065,-153.516 655.511,-152.593 657.239,-159.377"/>
</g>
<!-- Node16 -->
<g id="node16" class="node"><title>Node16</title>
<polygon fill="white" stroke="#bfbfbf" points="776,-134.5 776,-153.5 811,-153.5 811,-134.5 776,-134.5"/>
<text text-anchor="middle" x="793.5" y="-141.5" font-family="Helvetica,sans-Serif" font-size="10.00">map</text>
</g>
<!-- Node12&#45;&gt;Node16 -->
<g id="edge21" class="edge"><title>Node12&#45;&gt;Node16</title>
<path fill="none" stroke="midnightblue" d="M539.682,-193.146C594.022,-186.479 681.672,-174.123 766.15,-153.716"/>
<polygon fill="midnightblue" stroke="midnightblue" points="767.025,-157.106 775.901,-151.321 765.355,-150.308 767.025,-157.106"/>
</g>
<!-- Node17 -->
<g id="node17" class="node"><title>Node17</title>
<polygon fill="white" stroke="#bfbfbf" points="429.5,-134.5 429.5,-153.5 459.5,-153.5 459.5,-134.5 429.5,-134.5"/>
<text text-anchor="middle" x="444.5" y="-141.5" font-family="Helvetica,sans-Serif" font-size="10.00">set</text>
</g>
<!-- Node12&#45;&gt;Node17 -->
<g id="edge22" class="edge"><title>Node12&#45;&gt;Node17</title>
<path fill="none" stroke="midnightblue" d="M480.399,-190.083C474.263,-182.377 465.23,-171.033 457.761,-161.653"/>
<polygon fill="midnightblue" stroke="midnightblue" points="460.436,-159.394 451.468,-153.751 454.96,-163.754 460.436,-159.394"/>
</g>
<!-- Node14 -->
<g id="node14" class="node"><title>Node14</title>
<polygon fill="white" stroke="#bfbfbf" points="549,-73 549,-92 590,-92 590,-73 549,-73"/>
<text text-anchor="middle" x="569.5" y="-80" font-family="Helvetica,sans-Serif" font-size="10.00">string</text>
</g>
<!-- Node13&#45;&gt;Node14 -->
<g id="edge15" class="edge"><title>Node13&#45;&gt;Node14</title>
<path fill="none" stroke="midnightblue" d="M569.5,-134.475C569.5,-126.08 569.5,-112.981 569.5,-102.163"/>
<polygon fill="midnightblue" stroke="midnightblue" points="573,-102.009 569.5,-92.0091 566,-102.009 573,-102.009"/>
</g>
<!-- Node15&#45;&gt;Node8 -->
<g id="edge19" class="edge"><title>Node15&#45;&gt;Node8</title>
<path fill="none" stroke="midnightblue" d="M666.26,-134.475C621.718,-123.052 543.208,-102.916 499.374,-91.6745"/>
<polygon fill="midnightblue" stroke="midnightblue" points="500.091,-88.2453 489.535,-89.1513 498.352,-95.0259 500.091,-88.2453"/>
</g>
<!-- Node15&#45;&gt;Node10 -->
<g id="edge17" class="edge"><title>Node15&#45;&gt;Node10</title>
<path fill="none" stroke="midnightblue" d="M709.529,-134.475C720.549,-125.108 738.46,-109.884 751.843,-98.5081"/>
<polygon fill="midnightblue" stroke="midnightblue" points="754.137,-101.152 759.489,-92.0091 749.603,-95.8188 754.137,-101.152"/>
</g>
<!-- Node15&#45;&gt;Node14 -->
<g id="edge18" class="edge"><title>Node15&#45;&gt;Node14</title>
<path fill="none" stroke="midnightblue" d="M680.874,-134.475C659.057,-124.49 622.696,-107.848 597.483,-96.3075"/>
<polygon fill="midnightblue" stroke="midnightblue" points="598.641,-92.9884 588.091,-92.0091 595.728,-99.3534 598.641,-92.9884"/>
</g>
<!-- Node18&#45;&gt;Node3 -->
<g id="edge28" class="edge"><title>Node18&#45;&gt;Node3</title>
<path fill="none" stroke="midnightblue" d="M238.379,-134.456C206.053,-125.922 155.585,-112.081 112.5,-98 110.097,-97.2146 107.622,-96.3729 105.139,-95.505"/>
<polygon fill="midnightblue" stroke="midnightblue" points="106.26,-92.1886 95.6657,-92.0914 103.887,-98.7741 106.26,-92.1886"/>
</g>
<!-- Node18&#45;&gt;Node6 -->
<g id="edge25" class="edge"><title>Node18&#45;&gt;Node6</title>
<path fill="none" stroke="midnightblue" d="M252.896,-134.391C233.364,-125.346 201.761,-110.699 174.5,-98 173.349,-97.4637 172.174,-96.9159 170.987,-96.3622"/>
<polygon fill="midnightblue" stroke="midnightblue" points="172.396,-93.1577 161.855,-92.0969 169.434,-99.5 172.396,-93.1577"/>
</g>
<!-- Node18&#45;&gt;Node7 -->
<g id="edge26" class="edge"><title>Node18&#45;&gt;Node7</title>
<path fill="none" stroke="midnightblue" d="M262.76,-134.475C253.338,-125.285 238.136,-110.456 226.551,-99.156"/>
<polygon fill="midnightblue" stroke="midnightblue" points="228.826,-96.4861 219.224,-92.0091 223.938,-101.497 228.826,-96.4861"/>
</g>
<!-- Node18&#45;&gt;Node8 -->
<g id="edge30" class="edge"><title>Node18&#45;&gt;Node8</title>
<path fill="none" stroke="midnightblue" d="M310.092,-134.456C343.908,-126.503 394.133,-113.555 436.5,-98 438.111,-97.4087 439.752,-96.7663 441.397,-96.0919"/>
<polygon fill="midnightblue" stroke="midnightblue" points="442.925,-99.2436 450.667,-92.0115 440.105,-92.8368 442.925,-99.2436"/>
</g>
<!-- Node18&#45;&gt;Node14 -->
<g id="edge29" class="edge"><title>Node18&#45;&gt;Node14</title>
<path fill="none" stroke="midnightblue" d="M315.032,-134.447C360.739,-125.45 434.693,-110.84 498.5,-98 511.701,-95.3436 526.274,-92.3738 538.765,-89.8171"/>
<polygon fill="midnightblue" stroke="midnightblue" points="539.598,-93.2192 548.691,-87.7825 538.192,-86.3618 539.598,-93.2192"/>
</g>
<!-- Node19 -->
<g id="node19" class="node"><title>Node19</title>
<polygon fill="white" stroke="#bfbfbf" points="375.5,-73 375.5,-92 427.5,-92 427.5,-73 375.5,-73"/>
<text text-anchor="middle" x="401.5" y="-80" font-family="Helvetica,sans-Serif" font-size="10.00">memory</text>
</g>
<!-- Node18&#45;&gt;Node19 -->
<g id="edge27" class="edge"><title>Node18&#45;&gt;Node19</title>
<path fill="none" stroke="midnightblue" d="M290.126,-134.475C311.943,-124.49 348.304,-107.848 373.517,-96.3075"/>
<polygon fill="midnightblue" stroke="midnightblue" points="375.272,-99.3534 382.909,-92.0091 372.359,-92.9884 375.272,-99.3534"/>
</g>
</g>
</svg>
        <g id="navigator" transform="translate(0 0)" fill="#404254">
                <rect fill="#f2f5e9" fill-opacity="0.5" stroke="#606060" stroke-width=".5" x="0" y="0" width="60" height="60"/>
                <use id="zoomplus" xlink:href="#zoomPlus" x="17" y="9" onmousedown="handleZoom(evt,'in')"/>
                <use id="zoomminus" xlink:href="#zoomMin" x="42" y="9" onmousedown="handleZoom(evt,'out')"/>
                <use id="reset" xlink:href="#resetDef" x="30" y="36" onmousedown="handleReset()"/>
                <g id="arrowUp" xlink:href="#dirArrow" transform="translate(30 24)" onmousedown="handlePan(0,-1)">
                  <use xlink:href="#rim" fill="#404040">
                        <set attributeName="fill" to="#808080" begin="arrowUp.mouseover" end="arrowUp.mouseout"/>
                  </use>
                  <path fill="none" stroke="white" stroke-width="1.5" d="M0,-3.0v7 M-2.5,-0.5L0,-3.0L2.5,-0.5"/>
                </g>
                <g id="arrowRight" xlink:href="#dirArrow" transform="rotate(90) translate(36 -43)" onmousedown="handlePan(1,0)">
                  <use xlink:href="#rim" fill="#404040">
                        <set attributeName="fill" to="#808080" begin="arrowRight.mouseover" end="arrowRight.mouseout"/>
                  </use>
                  <path fill="none" stroke="white" stroke-width="1.5" d="M0,-3.0v7 M-2.5,-0.5L0,-3.0L2.5,-0.5"/>
                </g>
                <g id="arrowDown" xlink:href="#dirArrow" transform="rotate(180) translate(-30 -48)" onmousedown="handlePan(0,1)">
                  <use xlink:href="#rim" fill="#404040">
                        <set attributeName="fill" to="#808080" begin="arrowDown.mouseover" end="arrowDown.mouseout"/>
                  </use>
                  <path fill="none" stroke="white" stroke-width="1.5" d="M0,-3.0v7 M-2.5,-0.5L0,-3.0L2.5,-0.5"/>
                </g>
                <g id="arrowLeft" xlink:href="#dirArrow" transform="rotate(270) translate(-36 17)" onmousedown="handlePan(-1,0)">
                  <use xlink:href="#rim" fill="#404040">
                        <set attributeName="fill" to="#808080" begin="arrowLeft.mouseover" end="arrowLeft.mouseout"/>
                  </use>
                  <path fill="none" stroke="white" stroke-width="1.5" d="M0,-3.0v7 M-2.5,-0.5L0,-3.0L2.5,-0.5"/>
                </g>
        </g>
        <svg viewBox="0 0 15 15" width="100%" height="30px" preserveAspectRatio="xMaxYMin meet">
         <g id="arrow_out" transform="scale(0.3 0.3)">
          <a xlink:href="DataCorrection_8hpp__incl_org.svg" target="_base">
           <rect id="button" ry="5" rx="5" y="6" x="6" height="38" width="38"
                fill="#f2f5e9" fill-opacity="0.5" stroke="#606060" stroke-width="1.0"/>
           <path id="arrow"
             d="M 11.500037,31.436501 C 11.940474,20.09759 22.043105,11.32322 32.158766,21.979434 L 37.068811,17.246167 C 37.068811,17.246167 37.088388,32 37.088388,32 L 22.160133,31.978069 C 22.160133,31.978069 26.997745,27.140456 26.997745,27.140456 C 18.528582,18.264221 13.291696,25.230495 11.500037,31.436501 z"
             style="fill:#404040;"/>
          </a>
         </g>
        </svg>
</svg>
