<?xml version="1.0" encoding="UTF-8" standalone="no"?>
<!DOCTYPE svg PUBLIC "-//W3C//DTD SVG 1.1//EN"
 "http://www.w3.org/Graphics/SVG/1.1/DTD/svg11.dtd">
<!-- Generated by graphviz version 2.38.0 (20140413.2041)
 -->
<!-- Title: Core Pages: 1 -->
<svg width="248pt" height="149pt"
 viewBox="0.00 0.00 247.50 148.80" xmlns="http://www.w3.org/2000/svg" xmlns:xlink="http://www.w3.org/1999/xlink">
<g id="graph0" class="graph" transform="scale(1 1) rotate(0) translate(4 144.804)">
<title>Core</title>
<polygon fill="white" stroke="none" points="-4,4 -4,-144.804 243.5,-144.804 243.5,4 -4,4"/>
<g id="clust1" class="cluster"><title>clusterdir_c6310732a22f63c0c2fc5595561e68f1</title>
<g id="a_clust1"><a xlink:href="dir_c6310732a22f63c0c2fc5595561e68f1.html" target="_top">
<polygon fill="#eeeeff" stroke="black" points="8,-64 8,-116 170,-116 170,-64 8,-64"/>
</a>
</g>
</g>
<!-- dir_c6310732a22f63c0c2fc5595561e68f1 -->
<g id="node1" class="node"><title>dir_c6310732a22f63c0c2fc5595561e68f1</title>
<text text-anchor="middle" x="135" y="-87.5" font-family="Helvetica,sans-Serif" font-size="10.00">Core</text>
</g>
<!-- dir_e3918efd4a2ef94b00e1be625278c89d -->
<g id="node2" class="node"><title>dir_e3918efd4a2ef94b00e1be625278c89d</title>
<g id="a_node2"><a xlink:href="dir_e3918efd4a2ef94b00e1be625278c89d.html" target="_top" xlink:title="FunctionTree">
<polygon fill="white" stroke="black" points="90,-108 16,-108 16,-72 90,-72 90,-108"/>
<text text-anchor="middle" x="53" y="-87.5" font-family="Helvetica,sans-Serif" font-size="10.00">FunctionTree</text>
</a>
</g>
</g>
<!-- dir_e3d743d0ec9b4013b28b5d69101bc7fb -->
<g id="node3" class="node"><title>dir_e3d743d0ec9b4013b28b5d69101bc7fb</title>
<g id="a_node3"><a xlink:href="dir_e3d743d0ec9b4013b28b5d69101bc7fb.html" target="_top" xlink:title="Data">
<polygon fill="white" stroke="red" points="158,-36 104,-36 104,-0 158,-0 158,-36"/>
<text text-anchor="middle" x="131" y="-15.5" font-family="Helvetica,sans-Serif" font-size="10.00">Data</text>
</a>
</g>
</g>
<!-- dir_e3918efd4a2ef94b00e1be625278c89d&#45;&gt;dir_e3d743d0ec9b4013b28b5d69101bc7fb -->
<g id="edge1" class="edge"><title>dir_e3918efd4a2ef94b00e1be625278c89d&#45;&gt;dir_e3d743d0ec9b4013b28b5d69101bc7fb</title>
<path fill="none" stroke="black" d="M72.2809,-71.6966C81.9154,-63.0503 93.7288,-52.4486 104.227,-43.027"/>
<polygon fill="black" stroke="black" points="106.836,-45.3883 111.941,-36.1043 102.161,-40.1786 106.836,-45.3883"/>
<g id="a_edge1&#45;headlabel"><a xlink:href="dir_000001_000002.html" target="_top" xlink:title="2">
<text text-anchor="middle" x="106.057" y="-47.4023" font-family="Helvetica,sans-Serif" font-size="10.00">2</text>
</a>
</g>
</g>
<!-- dir_82ba6d9578c5e1685169ac2984cb18ca -->
<g id="node4" class="node"><title>dir_82ba6d9578c5e1685169ac2984cb18ca</title>
<g id="a_node4"><a xlink:href="dir_82ba6d9578c5e1685169ac2984cb18ca.html" target="_top" xlink:title="Estimator">
<polygon fill="white" stroke="red" points="239.5,-108 180.5,-108 180.5,-72 239.5,-72 239.5,-108"/>
<text text-anchor="middle" x="210" y="-87.5" font-family="Helvetica,sans-Serif" font-size="10.00">Estimator</text>
</a>
</g>
</g>
<!-- dir_e3918efd4a2ef94b00e1be625278c89d&#45;&gt;dir_82ba6d9578c5e1685169ac2984cb18ca -->
<g id="edge2" class="edge"><title>dir_e3918efd4a2ef94b00e1be625278c89d&#45;&gt;dir_82ba6d9578c5e1685169ac2984cb18ca</title>
<path fill="none" stroke="black" d="M69.4227,-108.114C79.4803,-117.819 93.2303,-128.819 108,-134 131.905,-142.386 141.541,-143.563 165,-134 174.511,-130.123 183.105,-123.161 190.172,-115.902"/>
<polygon fill="black" stroke="black" points="193.149,-117.824 197.213,-108.04 187.934,-113.154 193.149,-117.824"/>
<g id="a_edge2&#45;headlabel"><a xlink:href="dir_000001_000006.html" target="_top" xlink:title="1">
<text text-anchor="middle" x="192.865" y="-119.896" font-family="Helvetica,sans-Serif" font-size="10.00">1</text>
</a>
</g>
</g>
<!-- dir_82ba6d9578c5e1685169ac2984cb18ca&#45;&gt;dir_e3918efd4a2ef94b00e1be625278c89d -->
<g id="edge4" class="edge"><title>dir_82ba6d9578c5e1685169ac2984cb18ca&#45;&gt;dir_e3918efd4a2ef94b00e1be625278c89d</title>
<path fill="none" stroke="black" d="M197.213,-108.04C189.201,-117.721 177.951,-128.721 165,-134 141.541,-143.563 131.905,-142.386 108,-134 96.6919,-130.033 85.9816,-122.656 77.0685,-115.06"/>
<polygon fill="black" stroke="black" points="79.178,-112.248 69.4227,-108.114 74.4712,-117.429 79.178,-112.248"/>
<g id="a_edge4&#45;headlabel"><a xlink:href="dir_000006_000001.html" target="_top" xlink:title="7">
<text text-anchor="middle" x="83.7478" y="-110.063" font-family="Helvetica,sans-Serif" font-size="10.00">7</text>
</a>
</g>
</g>
<!-- dir_82ba6d9578c5e1685169ac2984cb18ca&#45;&gt;dir_e3d743d0ec9b4013b28b5d69101bc7fb -->
<g id="edge3" class="edge"><title>dir_82ba6d9578c5e1685169ac2984cb18ca&#45;&gt;dir_e3d743d0ec9b4013b28b5d69101bc7fb</title>
<path fill="none" stroke="black" d="M190.472,-71.6966C180.618,-62.9655 168.514,-52.2405 157.804,-42.7503"/>
<polygon fill="black" stroke="black" points="160.109,-40.1166 150.303,-36.1043 155.467,-45.3558 160.109,-40.1166"/>
<g id="a_edge3&#45;headlabel"><a xlink:href="dir_000006_000002.html" target="_top" xlink:title="1">
<text text-anchor="middle" x="164.683" y="-37.8755" font-family="Helvetica,sans-Serif" font-size="10.00">1</text>
</a>
</g>
</g>
</g>
</svg>
