<?xml version="1.0" encoding="UTF-8" standalone="no"?>
<!DOCTYPE svg PUBLIC "-//W3C//DTD SVG 1.1//EN"
 "http://www.w3.org/Graphics/SVG/1.1/DTD/svg11.dtd">
<!-- Generated by graphviz version 2.38.0 (20140413.2041)
 -->
<!-- Title: Tools/Plotting Pages: 1 -->
<svg width="133pt" height="295pt"
 viewBox="0.00 0.00 133.00 295.00" xmlns="http://www.w3.org/2000/svg" xmlns:xlink="http://www.w3.org/1999/xlink">
<g id="graph0" class="graph" transform="scale(1 1) rotate(0) translate(4 291)">
<title>Tools/Plotting</title>
<polygon fill="white" stroke="none" points="-4,4 -4,-291 129,-291 129,4 -4,4"/>
<g id="clust1" class="cluster"><title>clusterdir_7e461070e7b716e896e0d97cd6a82321</title>
<g id="a_clust1"><a xlink:href="dir_7e461070e7b716e896e0d97cd6a82321.html" target="_top" xlink:title="Tools">
<polygon fill="#ddddee" stroke="black" points="47,-208 47,-279 117,-279 117,-208 47,-208"/>
<text text-anchor="middle" x="82" y="-267" font-family="Helvetica,sans-Serif" font-size="10.00">Tools</text>
</a>
</g>
</g>
<!-- dir_db7498b03d5368fa3321dfdf97dd487a -->
<g id="node1" class="node"><title>dir_db7498b03d5368fa3321dfdf97dd487a</title>
<g id="a_node1"><a xlink:href="dir_db7498b03d5368fa3321dfdf97dd487a.html" target="_top" xlink:title="Plotting">
<polygon fill="#eeeeff" stroke="black" points="109,-252 55,-252 55,-216 109,-216 109,-252"/>
<text text-anchor="middle" x="82" y="-231.5" font-family="Helvetica,sans-Serif" font-size="10.00">Plotting</text>
</a>
</g>
</g>
<!-- dir_e3d743d0ec9b4013b28b5d69101bc7fb -->
<g id="node2" class="node"><title>dir_e3d743d0ec9b4013b28b5d69101bc7fb</title>
<g id="a_node2"><a xlink:href="dir_e3d743d0ec9b4013b28b5d69101bc7fb.html" target="_top" xlink:title="Data">
<polygon fill="white" stroke="red" points="109,-180 55,-180 55,-144 109,-144 109,-180"/>
<text text-anchor="middle" x="82" y="-159.5" font-family="Helvetica,sans-Serif" font-size="10.00">Data</text>
</a>
</g>
</g>
<!-- dir_db7498b03d5368fa3321dfdf97dd487a&#45;&gt;dir_e3d743d0ec9b4013b28b5d69101bc7fb -->
<g id="edge6" class="edge"><title>dir_db7498b03d5368fa3321dfdf97dd487a&#45;&gt;dir_e3d743d0ec9b4013b28b5d69101bc7fb</title>
<path fill="none" stroke="black" d="M82,-215.697C82,-207.983 82,-198.712 82,-190.112"/>
<polygon fill="black" stroke="black" points="85.5001,-190.104 82,-180.104 78.5001,-190.104 85.5001,-190.104"/>
<g id="a_edge6&#45;headlabel"><a xlink:href="dir_000024_000002.html" target="_top" xlink:title="2">
<text text-anchor="middle" x="88.3393" y="-191.199" font-family="Helvetica,sans-Serif" font-size="10.00">2</text>
</a>
</g>
</g>
<!-- dir_fd3a82303f5206df56505f8b5712131f -->
<g id="node3" class="node"><title>dir_fd3a82303f5206df56505f8b5712131f</title>
<g id="a_node3"><a xlink:href="dir_fd3a82303f5206df56505f8b5712131f.html" target="_top" xlink:title="Physics">
<polygon fill="white" stroke="red" points="54,-108 0,-108 0,-72 54,-72 54,-108"/>
<text text-anchor="middle" x="27" y="-87.5" font-family="Helvetica,sans-Serif" font-size="10.00">Physics</text>
</a>
</g>
</g>
<!-- dir_db7498b03d5368fa3321dfdf97dd487a&#45;&gt;dir_fd3a82303f5206df56505f8b5712131f -->
<g id="edge7" class="edge"><title>dir_db7498b03d5368fa3321dfdf97dd487a&#45;&gt;dir_fd3a82303f5206df56505f8b5712131f</title>
<path fill="none" stroke="black" d="M67.8353,-215.851C60.3098,-205.93 51.5029,-192.89 46,-180 37.5868,-160.293 32.7553,-136.488 30.0717,-118.458"/>
<polygon fill="black" stroke="black" points="33.5097,-117.764 28.6972,-108.326 26.5733,-118.705 33.5097,-117.764"/>
<g id="a_edge7&#45;headlabel"><a xlink:href="dir_000024_000017.html" target="_top" xlink:title="2">
<text text-anchor="middle" x="36.8063" y="-118.445" font-family="Helvetica,sans-Serif" font-size="10.00">2</text>
</a>
</g>
</g>
<!-- dir_c6310732a22f63c0c2fc5595561e68f1 -->
<g id="node4" class="node"><title>dir_c6310732a22f63c0c2fc5595561e68f1</title>
<g id="a_node4"><a xlink:href="dir_c6310732a22f63c0c2fc5595561e68f1.html" target="_top" xlink:title="Core">
<polygon fill="white" stroke="red" points="118,-36 64,-36 64,-0 118,-0 118,-36"/>
<text text-anchor="middle" x="91" y="-15.5" font-family="Helvetica,sans-Serif" font-size="10.00">Core</text>
</a>
</g>
</g>
<!-- dir_db7498b03d5368fa3321dfdf97dd487a&#45;&gt;dir_c6310732a22f63c0c2fc5595561e68f1 -->
<g id="edge8" class="edge"><title>dir_db7498b03d5368fa3321dfdf97dd487a&#45;&gt;dir_c6310732a22f63c0c2fc5595561e68f1</title>
<path fill="none" stroke="black" d="M97.6099,-215.774C105.373,-206.03 113.946,-193.184 118,-180 132.132,-134.045 115.678,-78.297 102.969,-45.9146"/>
<polygon fill="black" stroke="black" points="106.046,-44.1922 99.018,-36.264 99.568,-46.8445 106.046,-44.1922"/>
<g id="a_edge8&#45;headlabel"><a xlink:href="dir_000024_000000.html" target="_top" xlink:title="13">
<text text-anchor="middle" x="110.036" y="-43.943" font-family="Helvetica,sans-Serif" font-size="10.00">13</text>
</a>
</g>
</g>
<!-- dir_e3d743d0ec9b4013b28b5d69101bc7fb&#45;&gt;dir_fd3a82303f5206df56505f8b5712131f -->
<g id="edge1" class="edge"><title>dir_e3d743d0ec9b4013b28b5d69101bc7fb&#45;&gt;dir_fd3a82303f5206df56505f8b5712131f</title>
<path fill="none" stroke="black" d="M62.4888,-143.697C55.1801,-135.474 47.1286,-125.483 40.4533,-116.421"/>
<polygon fill="black" stroke="black" points="43.1895,-114.229 34.5441,-108.104 37.4833,-118.283 43.1895,-114.229"/>
<g id="a_edge1&#45;headlabel"><a xlink:href="dir_000002_000017.html" target="_top" xlink:title="2">
<text text-anchor="middle" x="47.586" y="-113.014" font-family="Helvetica,sans-Serif" font-size="10.00">2</text>
</a>
</g>
</g>
<!-- dir_e3d743d0ec9b4013b28b5d69101bc7fb&#45;&gt;dir_c6310732a22f63c0c2fc5595561e68f1 -->
<g id="edge2" class="edge"><title>dir_e3d743d0ec9b4013b28b5d69101bc7fb&#45;&gt;dir_c6310732a22f63c0c2fc5595561e68f1</title>
<path fill="none" stroke="black" d="M78.5011,-143.871C77.4766,-119.67 80.003,-75.2108 83.8048,-46.3932"/>
<polygon fill="black" stroke="black" points="87.3132,-46.5948 85.3196,-36.1893 80.3891,-45.5669 87.3132,-46.5948"/>
<g id="a_edge2&#45;headlabel"><a xlink:href="dir_000002_000000.html" target="_top" xlink:title="41">
<text text-anchor="middle" x="89.5939" y="-48.0674" font-family="Helvetica,sans-Serif" font-size="10.00">41</text>
</a>
</g>
</g>
<!-- dir_fd3a82303f5206df56505f8b5712131f&#45;&gt;dir_e3d743d0ec9b4013b28b5d69101bc7fb -->
<g id="edge3" class="edge"><title>dir_fd3a82303f5206df56505f8b5712131f&#45;&gt;dir_e3d743d0ec9b4013b28b5d69101bc7fb</title>
<path fill="none" stroke="black" d="M46.3342,-108.104C53.6307,-116.298 61.6871,-126.282 68.3845,-135.359"/>
<polygon fill="black" stroke="black" points="65.6692,-137.58 74.3202,-143.697 71.3716,-133.52 65.6692,-137.58"/>
<g id="a_edge3&#45;headlabel"><a xlink:href="dir_000017_000002.html" target="_top" xlink:title="5">
<text text-anchor="middle" x="61.2715" y="-133.799" font-family="Helvetica,sans-Serif" font-size="10.00">5</text>
</a>
</g>
</g>
<!-- dir_fd3a82303f5206df56505f8b5712131f&#45;&gt;dir_c6310732a22f63c0c2fc5595561e68f1 -->
<g id="edge4" class="edge"><title>dir_fd3a82303f5206df56505f8b5712131f&#45;&gt;dir_c6310732a22f63c0c2fc5595561e68f1</title>
<path fill="none" stroke="black" d="M42.8202,-71.6966C50.5705,-63.2198 60.039,-52.8636 68.5245,-43.5826"/>
<polygon fill="black" stroke="black" points="71.1971,-45.8464 75.3618,-36.1043 66.0309,-41.1229 71.1971,-45.8464"/>
<g id="a_edge4&#45;headlabel"><a xlink:href="dir_000017_000000.html" target="_top" xlink:title="29">
<text text-anchor="middle" x="70.8671" y="-47.9151" font-family="Helvetica,sans-Serif" font-size="10.00">29</text>
</a>
</g>
</g>
<!-- dir_c6310732a22f63c0c2fc5595561e68f1&#45;&gt;dir_e3d743d0ec9b4013b28b5d69101bc7fb -->
<g id="edge5" class="edge"><title>dir_c6310732a22f63c0c2fc5595561e68f1&#45;&gt;dir_e3d743d0ec9b4013b28b5d69101bc7fb</title>
<path fill="none" stroke="black" d="M94.5014,-36.1893C95.52,-60.4244 92.9896,-104.888 89.1856,-133.679"/>
<polygon fill="black" stroke="black" points="85.679,-133.465 87.6701,-143.871 92.6029,-134.495 85.679,-133.465"/>
<g id="a_edge5&#45;headlabel"><a xlink:href="dir_000000_000002.html" target="_top" xlink:title="2">
<text text-anchor="middle" x="83.3992" y="-126.992" font-family="Helvetica,sans-Serif" font-size="10.00">2</text>
</a>
</g>
</g>
</g>
</svg>
