<?xml version="1.0" encoding="UTF-8" standalone="no"?>
<!DOCTYPE svg PUBLIC "-//W3C//DTD SVG 1.1//EN"
 "http://www.w3.org/Graphics/SVG/1.1/DTD/svg11.dtd">
<!-- Generated by graphviz version 2.38.0 (20140413.2041)
 -->
<!-- Title: Core/FunctionTree Pages: 1 -->
<svg width="120pt" height="223pt"
 viewBox="0.00 0.00 119.50 223.00" xmlns="http://www.w3.org/2000/svg" xmlns:xlink="http://www.w3.org/1999/xlink">
<g id="graph0" class="graph" transform="scale(1 1) rotate(0) translate(4 219)">
<title>Core/FunctionTree</title>
<polygon fill="white" stroke="none" points="-4,4 -4,-219 115.5,-219 115.5,4 -4,4"/>
<g id="clust1" class="cluster"><title>clusterdir_c6310732a22f63c0c2fc5595561e68f1</title>
<g id="a_clust1"><a xlink:href="dir_c6310732a22f63c0c2fc5595561e68f1.html" target="_top" xlink:title="Core">
<polygon fill="#ddddee" stroke="black" points="8,-136 8,-207 98,-207 98,-136 8,-136"/>
<text text-anchor="middle" x="53" y="-195" font-family="Helvetica,sans-Serif" font-size="10.00">Core</text>
</a>
</g>
</g>
<!-- dir_e3918efd4a2ef94b00e1be625278c89d -->
<g id="node1" class="node"><title>dir_e3918efd4a2ef94b00e1be625278c89d</title>
<g id="a_node1"><a xlink:href="dir_e3918efd4a2ef94b00e1be625278c89d.html" target="_top" xlink:title="FunctionTree">
<polygon fill="#eeeeff" stroke="black" points="90,-180 16,-180 16,-144 90,-144 90,-180"/>
<text text-anchor="middle" x="53" y="-159.5" font-family="Helvetica,sans-Serif" font-size="10.00">FunctionTree</text>
</a>
</g>
</g>
<!-- dir_e3d743d0ec9b4013b28b5d69101bc7fb -->
<g id="node2" class="node"><title>dir_e3d743d0ec9b4013b28b5d69101bc7fb</title>
<g id="a_node2"><a xlink:href="dir_e3d743d0ec9b4013b28b5d69101bc7fb.html" target="_top" xlink:title="Data">
<polygon fill="white" stroke="red" points="80,-36 26,-36 26,-0 80,-0 80,-36"/>
<text text-anchor="middle" x="53" y="-15.5" font-family="Helvetica,sans-Serif" font-size="10.00">Data</text>
</a>
</g>
</g>
<!-- dir_e3918efd4a2ef94b00e1be625278c89d&#45;&gt;dir_e3d743d0ec9b4013b28b5d69101bc7fb -->
<g id="edge1" class="edge"><title>dir_e3918efd4a2ef94b00e1be625278c89d&#45;&gt;dir_e3d743d0ec9b4013b28b5d69101bc7fb</title>
<path fill="none" stroke="black" d="M48.9409,-143.929C46.6944,-133.598 44.1334,-120.12 43,-108 41.5103,-92.0695 41.5103,-87.9305 43,-72 43.7969,-63.4781 45.2996,-54.2849 46.9025,-45.9862"/>
<polygon fill="black" stroke="black" points="50.3555,-46.5708 48.9409,-36.0708 43.4989,-45.1612 50.3555,-46.5708"/>
<g id="a_edge1&#45;headlabel"><a xlink:href="dir_000001_000002.html" target="_top" xlink:title="2">
<text text-anchor="middle" x="52.4129" y="-48.1635" font-family="Helvetica,sans-Serif" font-size="10.00">2</text>
</a>
</g>
</g>
<!-- dir_82ba6d9578c5e1685169ac2984cb18ca -->
<g id="node3" class="node"><title>dir_82ba6d9578c5e1685169ac2984cb18ca</title>
<g id="a_node3"><a xlink:href="dir_82ba6d9578c5e1685169ac2984cb18ca.html" target="_top" xlink:title="Estimator">
<polygon fill="white" stroke="red" points="111.5,-108 52.5,-108 52.5,-72 111.5,-72 111.5,-108"/>
<text text-anchor="middle" x="82" y="-87.5" font-family="Helvetica,sans-Serif" font-size="10.00">Estimator</text>
</a>
</g>
</g>
<!-- dir_e3918efd4a2ef94b00e1be625278c89d&#45;&gt;dir_82ba6d9578c5e1685169ac2984cb18ca -->
<g id="edge2" class="edge"><title>dir_e3918efd4a2ef94b00e1be625278c89d&#45;&gt;dir_82ba6d9578c5e1685169ac2984cb18ca</title>
<path fill="none" stroke="black" d="M60.1685,-143.697C63.4345,-135.813 67.374,-126.304 71.0022,-117.546"/>
<polygon fill="black" stroke="black" points="74.32,-118.683 74.9139,-108.104 67.853,-116.003 74.32,-118.683"/>
<g id="a_edge2&#45;headlabel"><a xlink:href="dir_000001_000006.html" target="_top" xlink:title="1">
<text text-anchor="middle" x="75.5673" y="-120.59" font-family="Helvetica,sans-Serif" font-size="10.00">1</text>
</a>
</g>
</g>
<!-- dir_82ba6d9578c5e1685169ac2984cb18ca&#45;&gt;dir_e3d743d0ec9b4013b28b5d69101bc7fb -->
<g id="edge3" class="edge"><title>dir_82ba6d9578c5e1685169ac2984cb18ca&#45;&gt;dir_e3d743d0ec9b4013b28b5d69101bc7fb</title>
<path fill="none" stroke="black" d="M74.8315,-71.6966C71.5655,-63.8132 67.626,-54.3042 63.9978,-45.5464"/>
<polygon fill="black" stroke="black" points="67.147,-44.0033 60.0861,-36.1043 60.68,-46.6825 67.147,-44.0033"/>
<g id="a_edge3&#45;headlabel"><a xlink:href="dir_000006_000002.html" target="_top" xlink:title="1">
<text text-anchor="middle" x="71.1459" y="-43.7375" font-family="Helvetica,sans-Serif" font-size="10.00">1</text>
</a>
</g>
</g>
</g>
</svg>
