<?xml version="1.0" encoding="UTF-8" standalone="no"?>
<!DOCTYPE svg PUBLIC "-//W3C//DTD SVG 1.1//EN"
 "http://www.w3.org/Graphics/SVG/1.1/DTD/svg11.dtd">
<!-- Generated by graphviz version 2.38.0 (20140413.2041)
 -->
<!-- Title: Estimator Pages: 1 -->
<svg width="254pt" height="204pt"
 viewBox="0.00 0.00 254.00 204.00" xmlns="http://www.w3.org/2000/svg" xmlns:xlink="http://www.w3.org/1999/xlink">
<g id="graph0" class="graph" transform="scale(1 1) rotate(0) translate(4 200)">
<title>Estimator</title>
<polygon fill="white" stroke="none" points="-4,4 -4,-200 250,-200 250,4 -4,4"/>
<g id="clust1" class="cluster"><title>clusterdir_82ba6d9578c5e1685169ac2984cb18ca</title>
<g id="a_clust1"><a xlink:href="dir_82ba6d9578c5e1685169ac2984cb18ca.html" target="_top">
<polygon fill="#eeeeff" stroke="black" points="8,-136 8,-188 238,-188 238,-136 8,-136"/>
</a>
</g>
</g>
<!-- dir_82ba6d9578c5e1685169ac2984cb18ca -->
<g id="node1" class="node"><title>dir_82ba6d9578c5e1685169ac2984cb18ca</title>
<text text-anchor="middle" x="200" y="-159.5" font-family="Helvetica,sans-Serif" font-size="10.00">Estimator</text>
</g>
<!-- dir_d688d8a3f3d11545d0776c9850201305 -->
<g id="node2" class="node"><title>dir_d688d8a3f3d11545d0776c9850201305</title>
<g id="a_node2"><a xlink:href="dir_d688d8a3f3d11545d0776c9850201305.html" target="_top" xlink:title="ChiOneD">
<polygon fill="white" stroke="black" points="73.5,-180 16.5,-180 16.5,-144 73.5,-144 73.5,-180"/>
<text text-anchor="middle" x="45" y="-159.5" font-family="Helvetica,sans-Serif" font-size="10.00">ChiOneD</text>
</a>
</g>
</g>
<!-- dir_c6310732a22f63c0c2fc5595561e68f1 -->
<g id="node5" class="node"><title>dir_c6310732a22f63c0c2fc5595561e68f1</title>
<g id="a_node5"><a xlink:href="dir_c6310732a22f63c0c2fc5595561e68f1.html" target="_top" xlink:title="Core">
<polygon fill="white" stroke="red" points="94,-108 40,-108 40,-72 94,-72 94,-108"/>
<text text-anchor="middle" x="67" y="-87.5" font-family="Helvetica,sans-Serif" font-size="10.00">Core</text>
</a>
</g>
</g>
<!-- dir_d688d8a3f3d11545d0776c9850201305&#45;&gt;dir_c6310732a22f63c0c2fc5595561e68f1 -->
<g id="edge5" class="edge"><title>dir_d688d8a3f3d11545d0776c9850201305&#45;&gt;dir_c6310732a22f63c0c2fc5595561e68f1</title>
<path fill="none" stroke="black" d="M50.4382,-143.697C52.8892,-135.898 55.8402,-126.509 58.568,-117.829"/>
<polygon fill="black" stroke="black" points="61.965,-118.694 61.6244,-108.104 55.287,-116.595 61.965,-118.694"/>
<g id="a_edge5&#45;headlabel"><a xlink:href="dir_000007_000000.html" target="_top" xlink:title="1">
<text text-anchor="middle" x="63.596" y="-120.474" font-family="Helvetica,sans-Serif" font-size="10.00">1</text>
</a>
</g>
</g>
<!-- dir_d113b3e88dddd119371bf9b552472f0d -->
<g id="node3" class="node"><title>dir_d113b3e88dddd119371bf9b552472f0d</title>
<g id="a_node3"><a xlink:href="dir_d113b3e88dddd119371bf9b552472f0d.html" target="_top" xlink:title="MinLogLH">
<polygon fill="white" stroke="black" points="152.5,-180 91.5,-180 91.5,-144 152.5,-144 152.5,-180"/>
<text text-anchor="middle" x="122" y="-159.5" font-family="Helvetica,sans-Serif" font-size="10.00">MinLogLH</text>
</a>
</g>
</g>
<!-- dir_e3d743d0ec9b4013b28b5d69101bc7fb -->
<g id="node4" class="node"><title>dir_e3d743d0ec9b4013b28b5d69101bc7fb</title>
<g id="a_node4"><a xlink:href="dir_e3d743d0ec9b4013b28b5d69101bc7fb.html" target="_top" xlink:title="Data">
<polygon fill="white" stroke="red" points="94,-36 40,-36 40,-0 94,-0 94,-36"/>
<text text-anchor="middle" x="67" y="-15.5" font-family="Helvetica,sans-Serif" font-size="10.00">Data</text>
</a>
</g>
</g>
<!-- dir_d113b3e88dddd119371bf9b552472f0d&#45;&gt;dir_e3d743d0ec9b4013b28b5d69101bc7fb -->
<g id="edge1" class="edge"><title>dir_d113b3e88dddd119371bf9b552472f0d&#45;&gt;dir_e3d743d0ec9b4013b28b5d69101bc7fb</title>
<path fill="none" stroke="black" d="M120.303,-143.674C118.05,-125.29 113.112,-95.6852 103,-72 98.9158,-62.4333 93.0116,-52.7836 87.1621,-44.3881"/>
<polygon fill="black" stroke="black" points="89.8797,-42.1741 81.1647,-36.1492 84.2203,-46.2938 89.8797,-42.1741"/>
<g id="a_edge1&#45;headlabel"><a xlink:href="dir_000008_000002.html" target="_top" xlink:title="1">
<text text-anchor="middle" x="94.2906" y="-40.9093" font-family="Helvetica,sans-Serif" font-size="10.00">1</text>
</a>
</g>
</g>
<!-- dir_d113b3e88dddd119371bf9b552472f0d&#45;&gt;dir_c6310732a22f63c0c2fc5595561e68f1 -->
<g id="edge2" class="edge"><title>dir_d113b3e88dddd119371bf9b552472f0d&#45;&gt;dir_c6310732a22f63c0c2fc5595561e68f1</title>
<path fill="none" stroke="black" d="M108.404,-143.697C101.877,-135.389 93.932,-125.277 86.7534,-116.141"/>
<polygon fill="black" stroke="black" points="89.3695,-113.805 80.4391,-108.104 83.8653,-118.13 89.3695,-113.805"/>
<g id="a_edge2&#45;headlabel"><a xlink:href="dir_000008_000000.html" target="_top" xlink:title="15">
<text text-anchor="middle" x="93.8229" y="-112.377" font-family="Helvetica,sans-Serif" font-size="10.00">15</text>
</a>
</g>
</g>
<!-- dir_e3d743d0ec9b4013b28b5d69101bc7fb&#45;&gt;dir_c6310732a22f63c0c2fc5595561e68f1 -->
<g id="edge3" class="edge"><title>dir_e3d743d0ec9b4013b28b5d69101bc7fb&#45;&gt;dir_c6310732a22f63c0c2fc5595561e68f1</title>
<path fill="none" stroke="black" d="M72.895,-36.1043C73.7005,-43.7913 73.9369,-53.0537 73.604,-61.6651"/>
<polygon fill="black" stroke="black" points="70.1085,-61.4805 72.9157,-71.6966 77.0921,-61.9597 70.1085,-61.4805"/>
<g id="a_edge3&#45;headlabel"><a xlink:href="dir_000002_000000.html" target="_top" xlink:title="41">
<text text-anchor="middle" x="67.5219" y="-55.2" font-family="Helvetica,sans-Serif" font-size="10.00">41</text>
</a>
</g>
</g>
<!-- dir_c6310732a22f63c0c2fc5595561e68f1&#45;&gt;dir_e3d743d0ec9b4013b28b5d69101bc7fb -->
<g id="edge4" class="edge"><title>dir_c6310732a22f63c0c2fc5595561e68f1&#45;&gt;dir_e3d743d0ec9b4013b28b5d69101bc7fb</title>
<path fill="none" stroke="black" d="M61.0843,-71.6966C60.2886,-63.9827 60.0621,-54.7125 60.4047,-46.1124"/>
<polygon fill="black" stroke="black" points="63.8984,-46.3243 61.105,-36.1043 56.9154,-45.8356 63.8984,-46.3243"/>
<g id="a_edge4&#45;headlabel"><a xlink:href="dir_000000_000002.html" target="_top" xlink:title="2">
<text text-anchor="middle" x="66.4799" y="-47.6083" font-family="Helvetica,sans-Serif" font-size="10.00">2</text>
</a>
</g>
</g>
</g>
</svg>
