<?xml version="1.0" encoding="UTF-8" standalone="no"?>
<!DOCTYPE svg PUBLIC "-//W3C//DTD SVG 1.1//EN"
 "http://www.w3.org/Graphics/SVG/1.1/DTD/svg11.dtd">
<!-- Generated by graphviz version 2.38.0 (20140413.2041)
 -->
<!-- Title: Optimizer/Minuit2 Pages: 1 -->
<svg width="108pt" height="223pt"
 viewBox="0.00 0.00 107.50 223.00" xmlns="http://www.w3.org/2000/svg" xmlns:xlink="http://www.w3.org/1999/xlink">
<g id="graph0" class="graph" transform="scale(1 1) rotate(0) translate(4 219)">
<title>Optimizer/Minuit2</title>
<polygon fill="white" stroke="none" points="-4,4 -4,-219 103.5,-219 103.5,4 -4,4"/>
<g id="clust1" class="cluster"><title>clusterdir_0851d46a9235ae1eb6aa2c6ee3d9e41b</title>
<g id="a_clust1"><a xlink:href="dir_0851d46a9235ae1eb6aa2c6ee3d9e41b.html" target="_top" xlink:title="Optimizer">
<polygon fill="#ddddee" stroke="black" points="21.5,-136 21.5,-207 91.5,-207 91.5,-136 21.5,-136"/>
<text text-anchor="middle" x="56.5" y="-195" font-family="Helvetica,sans-Serif" font-size="10.00">Optimizer</text>
</a>
</g>
</g>
<!-- dir_caa2dac0b56f144f46b244d3175735bb -->
<g id="node1" class="node"><title>dir_caa2dac0b56f144f46b244d3175735bb</title>
<g id="a_node1"><a xlink:href="dir_caa2dac0b56f144f46b244d3175735bb.html" target="_top" xlink:title="Minuit2">
<polygon fill="#eeeeff" stroke="black" points="83.5,-180 29.5,-180 29.5,-144 83.5,-144 83.5,-180"/>
<text text-anchor="middle" x="56.5" y="-159.5" font-family="Helvetica,sans-Serif" font-size="10.00">Minuit2</text>
</a>
</g>
</g>
<!-- dir_c6310732a22f63c0c2fc5595561e68f1 -->
<g id="node2" class="node"><title>dir_c6310732a22f63c0c2fc5595561e68f1</title>
<g id="a_node2"><a xlink:href="dir_c6310732a22f63c0c2fc5595561e68f1.html" target="_top" xlink:title="Core">
<polygon fill="white" stroke="red" points="56.5,-108 2.5,-108 2.5,-72 56.5,-72 56.5,-108"/>
<text text-anchor="middle" x="29.5" y="-87.5" font-family="Helvetica,sans-Serif" font-size="10.00">Core</text>
</a>
</g>
</g>
<!-- dir_caa2dac0b56f144f46b244d3175735bb&#45;&gt;dir_c6310732a22f63c0c2fc5595561e68f1 -->
<g id="edge3" class="edge"><title>dir_caa2dac0b56f144f46b244d3175735bb&#45;&gt;dir_c6310732a22f63c0c2fc5595561e68f1</title>
<path fill="none" stroke="black" d="M49.8258,-143.697C46.7851,-135.813 43.1173,-126.304 39.7393,-117.546"/>
<polygon fill="black" stroke="black" points="42.9617,-116.175 36.0974,-108.104 36.4307,-118.694 42.9617,-116.175"/>
<g id="a_edge3&#45;headlabel"><a xlink:href="dir_000016_000000.html" target="_top" xlink:title="7">
<text text-anchor="middle" x="46.9043" y="-116.007" font-family="Helvetica,sans-Serif" font-size="10.00">7</text>
</a>
</g>
</g>
<!-- dir_82ba6d9578c5e1685169ac2984cb18ca -->
<g id="node3" class="node"><title>dir_82ba6d9578c5e1685169ac2984cb18ca</title>
<g id="a_node3"><a xlink:href="dir_82ba6d9578c5e1685169ac2984cb18ca.html" target="_top" xlink:title="Estimator">
<polygon fill="white" stroke="red" points="59,-36 0,-36 0,-0 59,-0 59,-36"/>
<text text-anchor="middle" x="29.5" y="-15.5" font-family="Helvetica,sans-Serif" font-size="10.00">Estimator</text>
</a>
</g>
</g>
<!-- dir_caa2dac0b56f144f46b244d3175735bb&#45;&gt;dir_82ba6d9578c5e1685169ac2984cb18ca -->
<g id="edge4" class="edge"><title>dir_caa2dac0b56f144f46b244d3175735bb&#45;&gt;dir_82ba6d9578c5e1685169ac2984cb18ca</title>
<path fill="none" stroke="black" d="M62.1461,-143.877C67.2573,-125.661 72.9405,-96.196 65.5,-72 62.4911,-62.2153 56.993,-52.6161 51.1843,-44.3336"/>
<polygon fill="black" stroke="black" points="53.9072,-42.1306 45.1099,-36.2264 48.3052,-46.3279 53.9072,-42.1306"/>
<g id="a_edge4&#45;headlabel"><a xlink:href="dir_000016_000006.html" target="_top" xlink:title="1">
<text text-anchor="middle" x="58.3348" y="-40.8048" font-family="Helvetica,sans-Serif" font-size="10.00">1</text>
</a>
</g>
</g>
<!-- dir_c6310732a22f63c0c2fc5595561e68f1&#45;&gt;dir_82ba6d9578c5e1685169ac2984cb18ca -->
<g id="edge1" class="edge"><title>dir_c6310732a22f63c0c2fc5595561e68f1&#45;&gt;dir_82ba6d9578c5e1685169ac2984cb18ca</title>
<path fill="none" stroke="black" d="M23.5843,-71.6966C22.7886,-63.9827 22.5621,-54.7125 22.9047,-46.1124"/>
<polygon fill="black" stroke="black" points="26.3984,-46.3243 23.605,-36.1043 19.4154,-45.8356 26.3984,-46.3243"/>
<g id="a_edge1&#45;headlabel"><a xlink:href="dir_000000_000006.html" target="_top" xlink:title="1">
<text text-anchor="middle" x="28.9799" y="-47.6083" font-family="Helvetica,sans-Serif" font-size="10.00">1</text>
</a>
</g>
</g>
<!-- dir_82ba6d9578c5e1685169ac2984cb18ca&#45;&gt;dir_c6310732a22f63c0c2fc5595561e68f1 -->
<g id="edge2" class="edge"><title>dir_82ba6d9578c5e1685169ac2984cb18ca&#45;&gt;dir_c6310732a22f63c0c2fc5595561e68f1</title>
<path fill="none" stroke="black" d="M35.395,-36.1043C36.2005,-43.7913 36.4369,-53.0537 36.104,-61.6651"/>
<polygon fill="black" stroke="black" points="32.6085,-61.4805 35.4157,-71.6966 39.5921,-61.9597 32.6085,-61.4805"/>
<g id="a_edge2&#45;headlabel"><a xlink:href="dir_000006_000000.html" target="_top" xlink:title="17">
<text text-anchor="middle" x="30.0219" y="-55.2" font-family="Helvetica,sans-Serif" font-size="10.00">17</text>
</a>
</g>
</g>
</g>
</svg>
