<?xml version="1.0" encoding="UTF-8" standalone="no"?>
<!DOCTYPE svg PUBLIC "-//W3C//DTD SVG 1.1//EN"
 "http://www.w3.org/Graphics/SVG/1.1/DTD/svg11.dtd">
<!-- Generated by graphviz version 2.38.0 (20140413.2041)
 -->
<!-- Title: Physics Pages: 1 -->
<svg width="318pt" height="276pt"
 viewBox="0.00 0.00 317.88 276.00" xmlns="http://www.w3.org/2000/svg" xmlns:xlink="http://www.w3.org/1999/xlink">
<g id="graph0" class="graph" transform="scale(1 1) rotate(0) translate(4 272)">
<title>Physics</title>
<polygon fill="white" stroke="none" points="-4,4 -4,-272 313.876,-272 313.876,4 -4,4"/>
<g id="clust1" class="cluster"><title>clusterdir_fd3a82303f5206df56505f8b5712131f</title>
<g id="a_clust1"><a xlink:href="dir_fd3a82303f5206df56505f8b5712131f.html" target="_top">
<polygon fill="#eeeeff" stroke="black" points="8,-136 8,-260 230,-260 230,-136 8,-136"/>
</a>
</g>
</g>
<!-- dir_fd3a82303f5206df56505f8b5712131f -->
<g id="node1" class="node"><title>dir_fd3a82303f5206df56505f8b5712131f</title>
<text text-anchor="middle" x="43" y="-231.5" font-family="Helvetica,sans-Serif" font-size="10.00">Physics</text>
</g>
<!-- dir_8744bb52d1a64411e732e20595b435a6 -->
<g id="node4" class="node"><title>dir_8744bb52d1a64411e732e20595b435a6</title>
<g id="a_node4"><a xlink:href="dir_8744bb52d1a64411e732e20595b435a6.html" target="_top" xlink:title="HelicityFormalism">
<polygon fill="white" stroke="black" points="143.5,-180 48.5,-180 48.5,-144 143.5,-144 143.5,-180"/>
<text text-anchor="middle" x="96" y="-159.5" font-family="Helvetica,sans-Serif" font-size="10.00">HelicityFormalism</text>
</a>
</g>
</g>
<!-- dir_fd3a82303f5206df56505f8b5712131f&#45;&gt;dir_8744bb52d1a64411e732e20595b435a6 -->
<g id="edge2" class="edge"><title>dir_fd3a82303f5206df56505f8b5712131f&#45;&gt;dir_8744bb52d1a64411e732e20595b435a6</title>
<path fill="none" stroke="black" d="M56.1011,-215.697C62.3909,-207.389 70.0474,-197.277 76.9649,-188.141"/>
<polygon fill="black" stroke="black" points="79.8036,-190.19 83.0496,-180.104 74.2227,-185.964 79.8036,-190.19"/>
<g id="a_edge2&#45;headlabel"><a xlink:href="dir_000017_000021.html" target="_top" xlink:title="2">
<text text-anchor="middle" x="79.8974" y="-192.269" font-family="Helvetica,sans-Serif" font-size="10.00">2</text>
</a>
</g>
</g>
<!-- dir_b81b515296d7f9ec90a4731241afa56b -->
<g id="node2" class="node"><title>dir_b81b515296d7f9ec90a4731241afa56b</title>
<g id="a_node2"><a xlink:href="dir_b81b515296d7f9ec90a4731241afa56b.html" target="_top" xlink:title="Dynamics">
<polygon fill="white" stroke="red" points="149.5,-252 88.5,-252 88.5,-216 149.5,-216 149.5,-252"/>
<text text-anchor="middle" x="119" y="-231.5" font-family="Helvetica,sans-Serif" font-size="10.00">Dynamics</text>
</a>
</g>
</g>
<!-- dir_c6310732a22f63c0c2fc5595561e68f1 -->
<g id="node6" class="node"><title>dir_c6310732a22f63c0c2fc5595561e68f1</title>
<g id="a_node6"><a xlink:href="dir_c6310732a22f63c0c2fc5595561e68f1.html" target="_top" xlink:title="Core">
<polygon fill="white" stroke="red" points="237,-108 183,-108 183,-72 237,-72 237,-108"/>
<text text-anchor="middle" x="210" y="-87.5" font-family="Helvetica,sans-Serif" font-size="10.00">Core</text>
</a>
</g>
</g>
<!-- dir_b81b515296d7f9ec90a4731241afa56b&#45;&gt;dir_c6310732a22f63c0c2fc5595561e68f1 -->
<g id="edge9" class="edge"><title>dir_b81b515296d7f9ec90a4731241afa56b&#45;&gt;dir_c6310732a22f63c0c2fc5595561e68f1</title>
<path fill="none" stroke="black" d="M129.977,-215.871C145.759,-191.244 174.986,-145.638 193.412,-116.885"/>
<polygon fill="black" stroke="black" points="196.536,-118.497 198.984,-108.189 190.642,-114.72 196.536,-118.497"/>
<g id="a_edge9&#45;headlabel"><a xlink:href="dir_000018_000000.html" target="_top" xlink:title="6">
<text text-anchor="middle" x="196.987" y="-120.556" font-family="Helvetica,sans-Serif" font-size="10.00">6</text>
</a>
</g>
</g>
<!-- dir_46718f8f30a2814c81d003e3b02393b4 -->
<g id="node3" class="node"><title>dir_46718f8f30a2814c81d003e3b02393b4</title>
<g id="a_node3"><a xlink:href="dir_46718f8f30a2814c81d003e3b02393b4.html" target="_top" xlink:title="EvtGen">
<polygon fill="white" stroke="black" points="222,-252 168,-252 168,-216 222,-216 222,-252"/>
<text text-anchor="middle" x="195" y="-231.5" font-family="Helvetica,sans-Serif" font-size="10.00">EvtGen</text>
</a>
</g>
</g>
<!-- dir_e3d743d0ec9b4013b28b5d69101bc7fb -->
<g id="node5" class="node"><title>dir_e3d743d0ec9b4013b28b5d69101bc7fb</title>
<g id="a_node5"><a xlink:href="dir_e3d743d0ec9b4013b28b5d69101bc7fb.html" target="_top" xlink:title="Data">
<polygon fill="white" stroke="red" points="237,-36 183,-36 183,-0 237,-0 237,-36"/>
<text text-anchor="middle" x="210" y="-15.5" font-family="Helvetica,sans-Serif" font-size="10.00">Data</text>
</a>
</g>
</g>
<!-- dir_46718f8f30a2814c81d003e3b02393b4&#45;&gt;dir_e3d743d0ec9b4013b28b5d69101bc7fb -->
<g id="edge3" class="edge"><title>dir_46718f8f30a2814c81d003e3b02393b4&#45;&gt;dir_e3d743d0ec9b4013b28b5d69101bc7fb</title>
<path fill="none" stroke="black" d="M222.195,-227.803C247.537,-221.361 283.909,-207.653 301,-180 330.503,-132.264 277.302,-74.6628 240.575,-42.9188"/>
<polygon fill="black" stroke="black" points="242.472,-39.9399 232.568,-36.1755 237.963,-45.2942 242.472,-39.9399"/>
<g id="a_edge3&#45;headlabel"><a xlink:href="dir_000020_000002.html" target="_top" xlink:title="2">
<text text-anchor="middle" x="247.05" y="-37.5836" font-family="Helvetica,sans-Serif" font-size="10.00">2</text>
</a>
</g>
</g>
<!-- dir_46718f8f30a2814c81d003e3b02393b4&#45;&gt;dir_c6310732a22f63c0c2fc5595561e68f1 -->
<g id="edge4" class="edge"><title>dir_46718f8f30a2814c81d003e3b02393b4&#45;&gt;dir_c6310732a22f63c0c2fc5595561e68f1</title>
<path fill="none" stroke="black" d="M196.809,-215.871C199.366,-191.67 204.062,-147.211 207.106,-118.393"/>
<polygon fill="black" stroke="black" points="210.614,-118.502 208.184,-108.189 203.653,-117.766 210.614,-118.502"/>
<g id="a_edge4&#45;headlabel"><a xlink:href="dir_000020_000000.html" target="_top" xlink:title="7">
<text text-anchor="middle" x="213.06" y="-119.875" font-family="Helvetica,sans-Serif" font-size="10.00">7</text>
</a>
</g>
</g>
<!-- dir_7e461070e7b716e896e0d97cd6a82321 -->
<g id="node7" class="node"><title>dir_7e461070e7b716e896e0d97cd6a82321</title>
<g id="a_node7"><a xlink:href="dir_7e461070e7b716e896e0d97cd6a82321.html" target="_top" xlink:title="Tools">
<polygon fill="white" stroke="red" points="292,-180 238,-180 238,-144 292,-144 292,-180"/>
<text text-anchor="middle" x="265" y="-159.5" font-family="Helvetica,sans-Serif" font-size="10.00">Tools</text>
</a>
</g>
</g>
<!-- dir_46718f8f30a2814c81d003e3b02393b4&#45;&gt;dir_7e461070e7b716e896e0d97cd6a82321 -->
<g id="edge5" class="edge"><title>dir_46718f8f30a2814c81d003e3b02393b4&#45;&gt;dir_7e461070e7b716e896e0d97cd6a82321</title>
<path fill="none" stroke="black" d="M212.303,-215.697C220.865,-207.135 231.344,-196.656 240.696,-187.304"/>
<polygon fill="black" stroke="black" points="243.299,-189.65 247.896,-180.104 238.35,-184.701 243.299,-189.65"/>
<g id="a_edge5&#45;headlabel"><a xlink:href="dir_000020_000022.html" target="_top" xlink:title="1">
<text text-anchor="middle" x="242.765" y="-191.7" font-family="Helvetica,sans-Serif" font-size="10.00">1</text>
</a>
</g>
</g>
<!-- dir_8744bb52d1a64411e732e20595b435a6&#45;&gt;dir_e3d743d0ec9b4013b28b5d69101bc7fb -->
<g id="edge6" class="edge"><title>dir_8744bb52d1a64411e732e20595b435a6&#45;&gt;dir_e3d743d0ec9b4013b28b5d69101bc7fb</title>
<path fill="none" stroke="black" d="M109.751,-143.871C129.694,-119.031 166.771,-72.8464 189.816,-44.1415"/>
<polygon fill="black" stroke="black" points="192.669,-46.1784 196.2,-36.1893 187.211,-41.7961 192.669,-46.1784"/>
<g id="a_edge6&#45;headlabel"><a xlink:href="dir_000021_000002.html" target="_top" xlink:title="1">
<text text-anchor="middle" x="192.633" y="-48.2589" font-family="Helvetica,sans-Serif" font-size="10.00">1</text>
</a>
</g>
</g>
<!-- dir_8744bb52d1a64411e732e20595b435a6&#45;&gt;dir_c6310732a22f63c0c2fc5595561e68f1 -->
<g id="edge7" class="edge"><title>dir_8744bb52d1a64411e732e20595b435a6&#45;&gt;dir_c6310732a22f63c0c2fc5595561e68f1</title>
<path fill="none" stroke="black" d="M123.888,-143.876C139.016,-134.587 157.883,-123.001 174.099,-113.045"/>
<polygon fill="black" stroke="black" points="176.103,-115.921 182.794,-107.706 172.441,-109.956 176.103,-115.921"/>
<g id="a_edge7&#45;headlabel"><a xlink:href="dir_000021_000000.html" target="_top" xlink:title="7">
<text text-anchor="middle" x="174.526" y="-117.721" font-family="Helvetica,sans-Serif" font-size="10.00">7</text>
</a>
</g>
</g>
<!-- dir_e3d743d0ec9b4013b28b5d69101bc7fb&#45;&gt;dir_c6310732a22f63c0c2fc5595561e68f1 -->
<g id="edge1" class="edge"><title>dir_e3d743d0ec9b4013b28b5d69101bc7fb&#45;&gt;dir_c6310732a22f63c0c2fc5595561e68f1</title>
<path fill="none" stroke="black" d="M215.895,-36.1043C216.701,-43.7913 216.937,-53.0537 216.604,-61.6651"/>
<polygon fill="black" stroke="black" points="213.109,-61.4805 215.916,-71.6966 220.092,-61.9597 213.109,-61.4805"/>
<g id="a_edge1&#45;headlabel"><a xlink:href="dir_000002_000000.html" target="_top" xlink:title="41">
<text text-anchor="middle" x="210.522" y="-55.2" font-family="Helvetica,sans-Serif" font-size="10.00">41</text>
</a>
</g>
</g>
<!-- dir_c6310732a22f63c0c2fc5595561e68f1&#45;&gt;dir_e3d743d0ec9b4013b28b5d69101bc7fb -->
<g id="edge8" class="edge"><title>dir_c6310732a22f63c0c2fc5595561e68f1&#45;&gt;dir_e3d743d0ec9b4013b28b5d69101bc7fb</title>
<path fill="none" stroke="black" d="M204.084,-71.6966C203.289,-63.9827 203.062,-54.7125 203.405,-46.1124"/>
<polygon fill="black" stroke="black" points="206.898,-46.3243 204.105,-36.1043 199.915,-45.8356 206.898,-46.3243"/>
<g id="a_edge8&#45;headlabel"><a xlink:href="dir_000000_000002.html" target="_top" xlink:title="2">
<text text-anchor="middle" x="209.48" y="-47.6083" font-family="Helvetica,sans-Serif" font-size="10.00">2</text>
</a>
</g>
</g>
<!-- dir_7e461070e7b716e896e0d97cd6a82321&#45;&gt;dir_8744bb52d1a64411e732e20595b435a6 -->
<g id="edge11" class="edge"><title>dir_7e461070e7b716e896e0d97cd6a82321&#45;&gt;dir_8744bb52d1a64411e732e20595b435a6</title>
<path fill="none" stroke="black" d="M237.954,-162C209.922,-162 181.891,-162 153.859,-162"/>
<polygon fill="black" stroke="black" points="153.531,-158.5 143.531,-162 153.531,-165.5 153.531,-158.5"/>
<g id="a_edge11&#45;headlabel"><a xlink:href="dir_000022_000021.html" target="_top" xlink:title="2">
<text text-anchor="middle" x="157.126" y="-153.161" font-family="Helvetica,sans-Serif" font-size="10.00">2</text>
</a>
</g>
</g>
<!-- dir_7e461070e7b716e896e0d97cd6a82321&#45;&gt;dir_e3d743d0ec9b4013b28b5d69101bc7fb -->
<g id="edge10" class="edge"><title>dir_7e461070e7b716e896e0d97cd6a82321&#45;&gt;dir_e3d743d0ec9b4013b28b5d69101bc7fb</title>
<path fill="none" stroke="black" d="M263.303,-143.674C261.05,-125.29 256.112,-95.6852 246,-72 241.916,-62.4333 236.012,-52.7836 230.162,-44.3881"/>
<polygon fill="black" stroke="black" points="232.88,-42.1741 224.165,-36.1492 227.22,-46.2938 232.88,-42.1741"/>
<g id="a_edge10&#45;headlabel"><a xlink:href="dir_000022_000002.html" target="_top" xlink:title="4">
<text text-anchor="middle" x="237.291" y="-40.9093" font-family="Helvetica,sans-Serif" font-size="10.00">4</text>
</a>
</g>
</g>
<!-- dir_7e461070e7b716e896e0d97cd6a82321&#45;&gt;dir_c6310732a22f63c0c2fc5595561e68f1 -->
<g id="edge12" class="edge"><title>dir_7e461070e7b716e896e0d97cd6a82321&#45;&gt;dir_c6310732a22f63c0c2fc5595561e68f1</title>
<path fill="none" stroke="black" d="M251.404,-143.697C244.877,-135.389 236.932,-125.277 229.753,-116.141"/>
<polygon fill="black" stroke="black" points="232.369,-113.805 223.439,-108.104 226.865,-118.13 232.369,-113.805"/>
<g id="a_edge12&#45;headlabel"><a xlink:href="dir_000022_000000.html" target="_top" xlink:title="23">
<text text-anchor="middle" x="236.823" y="-112.377" font-family="Helvetica,sans-Serif" font-size="10.00">23</text>
</a>
</g>
</g>
</g>
</svg>
