<?xml version="1.0" encoding="UTF-8" standalone="no"?>
<!DOCTYPE svg PUBLIC "-//W3C//DTD SVG 1.1//EN"
 "http://www.w3.org/Graphics/SVG/1.1/DTD/svg11.dtd">
<!-- Generated by graphviz version 2.38.0 (20140413.2041)
 -->
<!-- Title: Optimizer Pages: 1 -->
<svg width="244pt" height="204pt"
 viewBox="0.00 0.00 244.00 204.00" xmlns="http://www.w3.org/2000/svg" xmlns:xlink="http://www.w3.org/1999/xlink">
<g id="graph0" class="graph" transform="scale(1 1) rotate(0) translate(4 200)">
<title>Optimizer</title>
<polygon fill="white" stroke="none" points="-4,4 -4,-200 240,-200 240,4 -4,4"/>
<g id="clust1" class="cluster"><title>clusterdir_0851d46a9235ae1eb6aa2c6ee3d9e41b</title>
<g id="a_clust1"><a xlink:href="dir_0851d46a9235ae1eb6aa2c6ee3d9e41b.html" target="_top">
<polygon fill="#eeeeff" stroke="black" points="8,-136 8,-188 228,-188 228,-136 8,-136"/>
</a>
</g>
</g>
<!-- dir_0851d46a9235ae1eb6aa2c6ee3d9e41b -->
<g id="node1" class="node"><title>dir_0851d46a9235ae1eb6aa2c6ee3d9e41b</title>
<text text-anchor="middle" x="190" y="-159.5" font-family="Helvetica,sans-Serif" font-size="10.00">Optimizer</text>
</g>
<!-- dir_0deecc5c13a2525e593fe15d5f9ae116 -->
<g id="node2" class="node"><title>dir_0deecc5c13a2525e593fe15d5f9ae116</title>
<g id="a_node2"><a xlink:href="dir_0deecc5c13a2525e593fe15d5f9ae116.html" target="_top" xlink:title="Geneva">
<polygon fill="white" stroke="black" points="70,-180 16,-180 16,-144 70,-144 70,-180"/>
<text text-anchor="middle" x="43" y="-159.5" font-family="Helvetica,sans-Serif" font-size="10.00">Geneva</text>
</a>
</g>
</g>
<!-- dir_c6310732a22f63c0c2fc5595561e68f1 -->
<g id="node4" class="node"><title>dir_c6310732a22f63c0c2fc5595561e68f1</title>
<g id="a_node4"><a xlink:href="dir_c6310732a22f63c0c2fc5595561e68f1.html" target="_top" xlink:title="Core">
<polygon fill="white" stroke="red" points="106,-108 52,-108 52,-72 106,-72 106,-108"/>
<text text-anchor="middle" x="79" y="-87.5" font-family="Helvetica,sans-Serif" font-size="10.00">Core</text>
</a>
</g>
</g>
<!-- dir_0deecc5c13a2525e593fe15d5f9ae116&#45;&gt;dir_c6310732a22f63c0c2fc5595561e68f1 -->
<g id="edge5" class="edge"><title>dir_0deecc5c13a2525e593fe15d5f9ae116&#45;&gt;dir_c6310732a22f63c0c2fc5595561e68f1</title>
<path fill="none" stroke="black" d="M51.8989,-143.697C55.9968,-135.728 60.9488,-126.1 65.4927,-117.264"/>
<polygon fill="black" stroke="black" points="68.7425,-118.598 70.2035,-108.104 62.5174,-115.396 68.7425,-118.598"/>
<g id="a_edge5&#45;headlabel"><a xlink:href="dir_000015_000000.html" target="_top" xlink:title="4">
<text text-anchor="middle" x="69.6235" y="-120.593" font-family="Helvetica,sans-Serif" font-size="10.00">4</text>
</a>
</g>
</g>
<!-- dir_82ba6d9578c5e1685169ac2984cb18ca -->
<g id="node5" class="node"><title>dir_82ba6d9578c5e1685169ac2984cb18ca</title>
<g id="a_node5"><a xlink:href="dir_82ba6d9578c5e1685169ac2984cb18ca.html" target="_top" xlink:title="Estimator">
<polygon fill="white" stroke="red" points="108.5,-36 49.5,-36 49.5,-0 108.5,-0 108.5,-36"/>
<text text-anchor="middle" x="79" y="-15.5" font-family="Helvetica,sans-Serif" font-size="10.00">Estimator</text>
</a>
</g>
</g>
<!-- dir_0deecc5c13a2525e593fe15d5f9ae116&#45;&gt;dir_82ba6d9578c5e1685169ac2984cb18ca -->
<g id="edge6" class="edge"><title>dir_0deecc5c13a2525e593fe15d5f9ae116&#45;&gt;dir_82ba6d9578c5e1685169ac2984cb18ca</title>
<path fill="none" stroke="black" d="M40.0691,-143.828C37.6215,-125.572 35.5973,-96.0733 43,-72 46.0089,-62.2153 51.507,-52.6161 57.3157,-44.3336"/>
<polygon fill="black" stroke="black" points="60.1948,-46.3279 63.3901,-36.2264 54.5928,-42.1306 60.1948,-46.3279"/>
<g id="a_edge6&#45;headlabel"><a xlink:href="dir_000015_000006.html" target="_top" xlink:title="2">
<text text-anchor="middle" x="60.3117" y="-48.4071" font-family="Helvetica,sans-Serif" font-size="10.00">2</text>
</a>
</g>
</g>
<!-- dir_caa2dac0b56f144f46b244d3175735bb -->
<g id="node3" class="node"><title>dir_caa2dac0b56f144f46b244d3175735bb</title>
<g id="a_node3"><a xlink:href="dir_caa2dac0b56f144f46b244d3175735bb.html" target="_top" xlink:title="Minuit2">
<polygon fill="white" stroke="black" points="142,-180 88,-180 88,-144 142,-144 142,-180"/>
<text text-anchor="middle" x="115" y="-159.5" font-family="Helvetica,sans-Serif" font-size="10.00">Minuit2</text>
</a>
</g>
</g>
<!-- dir_caa2dac0b56f144f46b244d3175735bb&#45;&gt;dir_c6310732a22f63c0c2fc5595561e68f1 -->
<g id="edge3" class="edge"><title>dir_caa2dac0b56f144f46b244d3175735bb&#45;&gt;dir_c6310732a22f63c0c2fc5595561e68f1</title>
<path fill="none" stroke="black" d="M106.101,-143.697C102.003,-135.728 97.0512,-126.1 92.5073,-117.264"/>
<polygon fill="black" stroke="black" points="95.4826,-115.396 87.7965,-108.104 89.2575,-118.598 95.4826,-115.396"/>
<g id="a_edge3&#45;headlabel"><a xlink:href="dir_000016_000000.html" target="_top" xlink:title="7">
<text text-anchor="middle" x="99.6514" y="-114.795" font-family="Helvetica,sans-Serif" font-size="10.00">7</text>
</a>
</g>
</g>
<!-- dir_caa2dac0b56f144f46b244d3175735bb&#45;&gt;dir_82ba6d9578c5e1685169ac2984cb18ca -->
<g id="edge4" class="edge"><title>dir_caa2dac0b56f144f46b244d3175735bb&#45;&gt;dir_82ba6d9578c5e1685169ac2984cb18ca</title>
<path fill="none" stroke="black" d="M117.931,-143.828C120.379,-125.572 122.403,-96.0733 115,-72 111.991,-62.2153 106.493,-52.6161 100.684,-44.3336"/>
<polygon fill="black" stroke="black" points="103.407,-42.1306 94.6099,-36.2264 97.8052,-46.3279 103.407,-42.1306"/>
<g id="a_edge4&#45;headlabel"><a xlink:href="dir_000016_000006.html" target="_top" xlink:title="1">
<text text-anchor="middle" x="107.835" y="-40.8048" font-family="Helvetica,sans-Serif" font-size="10.00">1</text>
</a>
</g>
</g>
<!-- dir_c6310732a22f63c0c2fc5595561e68f1&#45;&gt;dir_82ba6d9578c5e1685169ac2984cb18ca -->
<g id="edge1" class="edge"><title>dir_c6310732a22f63c0c2fc5595561e68f1&#45;&gt;dir_82ba6d9578c5e1685169ac2984cb18ca</title>
<path fill="none" stroke="black" d="M73.0843,-71.6966C72.2886,-63.9827 72.0621,-54.7125 72.4047,-46.1124"/>
<polygon fill="black" stroke="black" points="75.8984,-46.3243 73.105,-36.1043 68.9154,-45.8356 75.8984,-46.3243"/>
<g id="a_edge1&#45;headlabel"><a xlink:href="dir_000000_000006.html" target="_top" xlink:title="1">
<text text-anchor="middle" x="78.4799" y="-47.6083" font-family="Helvetica,sans-Serif" font-size="10.00">1</text>
</a>
</g>
</g>
<!-- dir_82ba6d9578c5e1685169ac2984cb18ca&#45;&gt;dir_c6310732a22f63c0c2fc5595561e68f1 -->
<g id="edge2" class="edge"><title>dir_82ba6d9578c5e1685169ac2984cb18ca&#45;&gt;dir_c6310732a22f63c0c2fc5595561e68f1</title>
<path fill="none" stroke="black" d="M84.895,-36.1043C85.7005,-43.7913 85.9369,-53.0537 85.604,-61.6651"/>
<polygon fill="black" stroke="black" points="82.1085,-61.4805 84.9157,-71.6966 89.0921,-61.9597 82.1085,-61.4805"/>
<g id="a_edge2&#45;headlabel"><a xlink:href="dir_000006_000000.html" target="_top" xlink:title="17">
<text text-anchor="middle" x="79.5219" y="-55.2" font-family="Helvetica,sans-Serif" font-size="10.00">17</text>
</a>
</g>
</g>
</g>
</svg>
