<?xml version="1.0" encoding="UTF-8" standalone="no"?>
<!DOCTYPE svg PUBLIC "-//W3C//DTD SVG 1.1//EN"
 "http://www.w3.org/Graphics/SVG/1.1/DTD/svg11.dtd">
<!-- Generated by graphviz version 2.38.0 (20140413.2041)
 -->
<!-- Title: Examples/DalitzAnalysis_D0KsKK Pages: 1 -->
<svg width="338pt" height="439pt"
 viewBox="0.00 0.00 337.50 439.00" xmlns="http://www.w3.org/2000/svg" xmlns:xlink="http://www.w3.org/1999/xlink">
<g id="graph0" class="graph" transform="scale(1 1) rotate(0) translate(4 435)">
<title>Examples/DalitzAnalysis_D0KsKK</title>
<polygon fill="white" stroke="none" points="-4,4 -4,-435 333.5,-435 333.5,4 -4,4"/>
<g id="clust1" class="cluster"><title>clusterdir_03680f297d755c096b0a1ead13ee12b7</title>
<g id="a_clust1"><a xlink:href="dir_03680f297d755c096b0a1ead13ee12b7.html" target="_top" xlink:title="Examples">
<polygon fill="#ddddee" stroke="black" points="127,-352 127,-423 267,-423 267,-352 127,-352"/>
<text text-anchor="middle" x="197" y="-411" font-family="Helvetica,sans-Serif" font-size="10.00">Examples</text>
</a>
</g>
</g>
<!-- dir_1c3444c9e3a4eb1be4172cbec3187718 -->
<g id="node1" class="node"><title>dir_1c3444c9e3a4eb1be4172cbec3187718</title>
<g id="a_node1"><a xlink:href="dir_1c3444c9e3a4eb1be4172cbec3187718.html" target="_top" xlink:title="DalitzAnalysis_D0KsKK">
<polygon fill="#eeeeff" stroke="black" points="258.5,-396 135.5,-396 135.5,-360 258.5,-360 258.5,-396"/>
<text text-anchor="middle" x="197" y="-375.5" font-family="Helvetica,sans-Serif" font-size="10.00">DalitzAnalysis_D0KsKK</text>
</a>
</g>
</g>
<!-- dir_e3d743d0ec9b4013b28b5d69101bc7fb -->
<g id="node2" class="node"><title>dir_e3d743d0ec9b4013b28b5d69101bc7fb</title>
<g id="a_node2"><a xlink:href="dir_e3d743d0ec9b4013b28b5d69101bc7fb.html" target="_top" xlink:title="Data">
<polygon fill="white" stroke="red" points="197,-324 143,-324 143,-288 197,-288 197,-324"/>
<text text-anchor="middle" x="170" y="-303.5" font-family="Helvetica,sans-Serif" font-size="10.00">Data</text>
</a>
</g>
</g>
<!-- dir_1c3444c9e3a4eb1be4172cbec3187718&#45;&gt;dir_e3d743d0ec9b4013b28b5d69101bc7fb -->
<g id="edge10" class="edge"><title>dir_1c3444c9e3a4eb1be4172cbec3187718&#45;&gt;dir_e3d743d0ec9b4013b28b5d69101bc7fb</title>
<path fill="none" stroke="black" d="M190.326,-359.697C187.285,-351.813 183.617,-342.304 180.239,-333.546"/>
<polygon fill="black" stroke="black" points="183.462,-332.175 176.597,-324.104 176.931,-334.694 183.462,-332.175"/>
<g id="a_edge10&#45;headlabel"><a xlink:href="dir_000010_000002.html" target="_top" xlink:title="6">
<text text-anchor="middle" x="187.404" y="-332.007" font-family="Helvetica,sans-Serif" font-size="10.00">6</text>
</a>
</g>
</g>
<!-- dir_fd3a82303f5206df56505f8b5712131f -->
<g id="node3" class="node"><title>dir_fd3a82303f5206df56505f8b5712131f</title>
<g id="a_node3"><a xlink:href="dir_fd3a82303f5206df56505f8b5712131f.html" target="_top" xlink:title="Physics">
<polygon fill="white" stroke="red" points="252,-252 198,-252 198,-216 252,-216 252,-252"/>
<text text-anchor="middle" x="225" y="-231.5" font-family="Helvetica,sans-Serif" font-size="10.00">Physics</text>
</a>
</g>
</g>
<!-- dir_1c3444c9e3a4eb1be4172cbec3187718&#45;&gt;dir_fd3a82303f5206df56505f8b5712131f -->
<g id="edge11" class="edge"><title>dir_1c3444c9e3a4eb1be4172cbec3187718&#45;&gt;dir_fd3a82303f5206df56505f8b5712131f</title>
<path fill="none" stroke="black" d="M200.377,-359.871C205.171,-335.564 213.993,-290.819 219.673,-262.013"/>
<polygon fill="black" stroke="black" points="223.11,-262.677 221.611,-252.189 216.242,-261.323 223.11,-262.677"/>
<g id="a_edge11&#45;headlabel"><a xlink:href="dir_000010_000017.html" target="_top" xlink:title="2">
<text text-anchor="middle" x="225.2" y="-264.253" font-family="Helvetica,sans-Serif" font-size="10.00">2</text>
</a>
</g>
</g>
<!-- dir_c6310732a22f63c0c2fc5595561e68f1 -->
<g id="node4" class="node"><title>dir_c6310732a22f63c0c2fc5595561e68f1</title>
<g id="a_node4"><a xlink:href="dir_c6310732a22f63c0c2fc5595561e68f1.html" target="_top" xlink:title="Core">
<polygon fill="white" stroke="red" points="158,-108 104,-108 104,-72 158,-72 158,-108"/>
<text text-anchor="middle" x="131" y="-87.5" font-family="Helvetica,sans-Serif" font-size="10.00">Core</text>
</a>
</g>
</g>
<!-- dir_1c3444c9e3a4eb1be4172cbec3187718&#45;&gt;dir_c6310732a22f63c0c2fc5595561e68f1 -->
<g id="edge12" class="edge"><title>dir_1c3444c9e3a4eb1be4172cbec3187718&#45;&gt;dir_c6310732a22f63c0c2fc5595561e68f1</title>
<path fill="none" stroke="black" d="M167.118,-359.997C154.46,-351.061 141.033,-338.857 134,-324 101.71,-255.791 114.886,-163.267 124.412,-118.084"/>
<polygon fill="black" stroke="black" points="127.863,-118.686 126.608,-108.166 121.029,-117.173 127.863,-118.686"/>
<g id="a_edge12&#45;headlabel"><a xlink:href="dir_000010_000000.html" target="_top" xlink:title="2">
<text text-anchor="middle" x="129.859" y="-120.31" font-family="Helvetica,sans-Serif" font-size="10.00">2</text>
</a>
</g>
</g>
<!-- dir_82ba6d9578c5e1685169ac2984cb18ca -->
<g id="node5" class="node"><title>dir_82ba6d9578c5e1685169ac2984cb18ca</title>
<g id="a_node5"><a xlink:href="dir_82ba6d9578c5e1685169ac2984cb18ca.html" target="_top" xlink:title="Estimator">
<polygon fill="white" stroke="red" points="160.5,-36 101.5,-36 101.5,-0 160.5,-0 160.5,-36"/>
<text text-anchor="middle" x="131" y="-15.5" font-family="Helvetica,sans-Serif" font-size="10.00">Estimator</text>
</a>
</g>
</g>
<!-- dir_1c3444c9e3a4eb1be4172cbec3187718&#45;&gt;dir_82ba6d9578c5e1685169ac2984cb18ca -->
<g id="edge13" class="edge"><title>dir_1c3444c9e3a4eb1be4172cbec3187718&#45;&gt;dir_82ba6d9578c5e1685169ac2984cb18ca</title>
<path fill="none" stroke="black" d="M135.478,-360.801C77.6763,-341.422 0,-302.773 0,-235 0,-235 0,-235 0,-161 0,-106.038 53.6729,-63.2579 92.3075,-39.5832"/>
<polygon fill="black" stroke="black" points="94.4611,-42.3751 101.274,-34.2612 90.8883,-36.3555 94.4611,-42.3751"/>
<g id="a_edge13&#45;headlabel"><a xlink:href="dir_000010_000006.html" target="_top" xlink:title="1">
<text text-anchor="middle" x="92.8192" y="-44.1513" font-family="Helvetica,sans-Serif" font-size="10.00">1</text>
</a>
</g>
</g>
<!-- dir_7e461070e7b716e896e0d97cd6a82321 -->
<g id="node6" class="node"><title>dir_7e461070e7b716e896e0d97cd6a82321</title>
<g id="a_node6"><a xlink:href="dir_7e461070e7b716e896e0d97cd6a82321.html" target="_top" xlink:title="Tools">
<polygon fill="white" stroke="red" points="214,-180 160,-180 160,-144 214,-144 214,-180"/>
<text text-anchor="middle" x="187" y="-159.5" font-family="Helvetica,sans-Serif" font-size="10.00">Tools</text>
</a>
</g>
</g>
<!-- dir_1c3444c9e3a4eb1be4172cbec3187718&#45;&gt;dir_7e461070e7b716e896e0d97cd6a82321 -->
<g id="edge14" class="edge"><title>dir_1c3444c9e3a4eb1be4172cbec3187718&#45;&gt;dir_7e461070e7b716e896e0d97cd6a82321</title>
<path fill="none" stroke="black" d="M213.618,-359.602C240.214,-329.549 286.843,-266.297 261,-216 252.866,-200.17 237.567,-188.01 222.981,-179.356"/>
<polygon fill="black" stroke="black" points="224.506,-176.199 214.061,-174.418 221.115,-182.324 224.506,-176.199"/>
<g id="a_edge14&#45;headlabel"><a xlink:href="dir_000010_000022.html" target="_top" xlink:title="3">
<text text-anchor="middle" x="229.025" y="-172.956" font-family="Helvetica,sans-Serif" font-size="10.00">3</text>
</a>
</g>
</g>
<!-- dir_0851d46a9235ae1eb6aa2c6ee3d9e41b -->
<g id="node7" class="node"><title>dir_0851d46a9235ae1eb6aa2c6ee3d9e41b</title>
<g id="a_node7"><a xlink:href="dir_0851d46a9235ae1eb6aa2c6ee3d9e41b.html" target="_top" xlink:title="Optimizer">
<polygon fill="white" stroke="red" points="329.5,-180 270.5,-180 270.5,-144 329.5,-144 329.5,-180"/>
<text text-anchor="middle" x="300" y="-159.5" font-family="Helvetica,sans-Serif" font-size="10.00">Optimizer</text>
</a>
</g>
</g>
<!-- dir_1c3444c9e3a4eb1be4172cbec3187718&#45;&gt;dir_0851d46a9235ae1eb6aa2c6ee3d9e41b -->
<g id="edge15" class="edge"><title>dir_1c3444c9e3a4eb1be4172cbec3187718&#45;&gt;dir_0851d46a9235ae1eb6aa2c6ee3d9e41b</title>
<path fill="none" stroke="black" d="M227.474,-359.971C240.928,-350.958 255.757,-338.698 265,-324 291.108,-282.487 297.944,-224.367 299.612,-190.503"/>
<polygon fill="black" stroke="black" points="303.113,-190.536 299.99,-180.412 296.118,-190.274 303.113,-190.536"/>
<g id="a_edge15&#45;headlabel"><a xlink:href="dir_000010_000014.html" target="_top" xlink:title="1">
<text text-anchor="middle" x="305.816" y="-191.734" font-family="Helvetica,sans-Serif" font-size="10.00">1</text>
</a>
</g>
</g>
<!-- dir_e3d743d0ec9b4013b28b5d69101bc7fb&#45;&gt;dir_fd3a82303f5206df56505f8b5712131f -->
<g id="edge1" class="edge"><title>dir_e3d743d0ec9b4013b28b5d69101bc7fb&#45;&gt;dir_fd3a82303f5206df56505f8b5712131f</title>
<path fill="none" stroke="black" d="M177.68,-287.697C183.408,-279.305 191.257,-269.07 198.974,-259.861"/>
<polygon fill="black" stroke="black" points="201.784,-261.962 205.666,-252.104 196.484,-257.39 201.784,-261.962"/>
<g id="a_edge1&#45;headlabel"><a xlink:href="dir_000002_000017.html" target="_top" xlink:title="2">
<text text-anchor="middle" x="201.586" y="-264.039" font-family="Helvetica,sans-Serif" font-size="10.00">2</text>
</a>
</g>
</g>
<!-- dir_e3d743d0ec9b4013b28b5d69101bc7fb&#45;&gt;dir_c6310732a22f63c0c2fc5595561e68f1 -->
<g id="edge2" class="edge"><title>dir_e3d743d0ec9b4013b28b5d69101bc7fb&#45;&gt;dir_c6310732a22f63c0c2fc5595561e68f1</title>
<path fill="none" stroke="black" d="M162.997,-287.849C152.715,-250.832 136.47,-163.181 131.299,-118.386"/>
<polygon fill="black" stroke="black" points="134.759,-117.822 130.255,-108.232 127.796,-118.538 134.759,-117.822"/>
<g id="a_edge2&#45;headlabel"><a xlink:href="dir_000002_000000.html" target="_top" xlink:title="41">
<text text-anchor="middle" x="137.951" y="-118.608" font-family="Helvetica,sans-Serif" font-size="10.00">41</text>
</a>
</g>
</g>
<!-- dir_fd3a82303f5206df56505f8b5712131f&#45;&gt;dir_e3d743d0ec9b4013b28b5d69101bc7fb -->
<g id="edge3" class="edge"><title>dir_fd3a82303f5206df56505f8b5712131f&#45;&gt;dir_e3d743d0ec9b4013b28b5d69101bc7fb</title>
<path fill="none" stroke="black" d="M217.456,-252.104C211.762,-260.467 203.928,-270.694 196.209,-279.92"/>
<polygon fill="black" stroke="black" points="193.385,-277.835 189.511,-287.697 198.689,-282.403 193.385,-277.835"/>
<g id="a_edge3&#45;headlabel"><a xlink:href="dir_000017_000002.html" target="_top" xlink:title="5">
<text text-anchor="middle" x="193.579" y="-270.759" font-family="Helvetica,sans-Serif" font-size="10.00">5</text>
</a>
</g>
</g>
<!-- dir_fd3a82303f5206df56505f8b5712131f&#45;&gt;dir_c6310732a22f63c0c2fc5595561e68f1 -->
<g id="edge4" class="edge"><title>dir_fd3a82303f5206df56505f8b5712131f&#45;&gt;dir_c6310732a22f63c0c2fc5595561e68f1</title>
<path fill="none" stroke="black" d="M229.285,-215.916C233.043,-196.938 236.087,-166.067 223,-144 210.879,-123.563 187.638,-110.269 167.549,-102.107"/>
<polygon fill="black" stroke="black" points="168.595,-98.7604 158.003,-98.5033 166.123,-105.309 168.595,-98.7604"/>
<g id="a_edge4&#45;headlabel"><a xlink:href="dir_000017_000000.html" target="_top" xlink:title="29">
<text text-anchor="middle" x="172.96" y="-94.8735" font-family="Helvetica,sans-Serif" font-size="10.00">29</text>
</a>
</g>
</g>
<!-- dir_fd3a82303f5206df56505f8b5712131f&#45;&gt;dir_7e461070e7b716e896e0d97cd6a82321 -->
<g id="edge5" class="edge"><title>dir_fd3a82303f5206df56505f8b5712131f&#45;&gt;dir_7e461070e7b716e896e0d97cd6a82321</title>
<path fill="none" stroke="black" d="M209.691,-215.697C204.543,-207.728 199.102,-198.1 194.698,-189.264"/>
<polygon fill="black" stroke="black" points="197.813,-187.664 190.39,-180.104 191.479,-190.643 197.813,-187.664"/>
<g id="a_edge5&#45;headlabel"><a xlink:href="dir_000017_000022.html" target="_top" xlink:title="3">
<text text-anchor="middle" x="201.912" y="-187.208" font-family="Helvetica,sans-Serif" font-size="10.00">3</text>
</a>
</g>
</g>
<!-- dir_c6310732a22f63c0c2fc5595561e68f1&#45;&gt;dir_e3d743d0ec9b4013b28b5d69101bc7fb -->
<g id="edge6" class="edge"><title>dir_c6310732a22f63c0c2fc5595561e68f1&#45;&gt;dir_e3d743d0ec9b4013b28b5d69101bc7fb</title>
<path fill="none" stroke="black" d="M138.026,-108.232C148.317,-145.324 164.558,-232.981 169.713,-277.712"/>
<polygon fill="black" stroke="black" points="166.25,-278.258 170.752,-287.849 173.214,-277.544 166.25,-278.258"/>
<g id="a_edge6&#45;headlabel"><a xlink:href="dir_000000_000002.html" target="_top" xlink:title="2">
<text text-anchor="middle" x="163.059" y="-272.472" font-family="Helvetica,sans-Serif" font-size="10.00">2</text>
</a>
</g>
</g>
<!-- dir_c6310732a22f63c0c2fc5595561e68f1&#45;&gt;dir_82ba6d9578c5e1685169ac2984cb18ca -->
<g id="edge7" class="edge"><title>dir_c6310732a22f63c0c2fc5595561e68f1&#45;&gt;dir_82ba6d9578c5e1685169ac2984cb18ca</title>
<path fill="none" stroke="black" d="M125.084,-71.6966C124.289,-63.9827 124.062,-54.7125 124.405,-46.1124"/>
<polygon fill="black" stroke="black" points="127.898,-46.3243 125.105,-36.1043 120.915,-45.8356 127.898,-46.3243"/>
<g id="a_edge7&#45;headlabel"><a xlink:href="dir_000000_000006.html" target="_top" xlink:title="1">
<text text-anchor="middle" x="130.48" y="-47.6083" font-family="Helvetica,sans-Serif" font-size="10.00">1</text>
</a>
</g>
</g>
<!-- dir_82ba6d9578c5e1685169ac2984cb18ca&#45;&gt;dir_e3d743d0ec9b4013b28b5d69101bc7fb -->
<g id="edge8" class="edge"><title>dir_82ba6d9578c5e1685169ac2984cb18ca&#45;&gt;dir_e3d743d0ec9b4013b28b5d69101bc7fb</title>
<path fill="none" stroke="black" d="M115.39,-36.2264C107.627,-45.9695 99.0541,-58.8163 95,-72 90.2972,-87.2933 92.1059,-92.2639 95,-108 106.758,-171.932 138.307,-241.988 156.522,-278.89"/>
<polygon fill="black" stroke="black" points="153.456,-280.585 161.062,-287.961 159.716,-277.452 153.456,-280.585"/>
<g id="a_edge8&#45;headlabel"><a xlink:href="dir_000006_000002.html" target="_top" xlink:title="1">
<text text-anchor="middle" x="149.309" y="-276.141" font-family="Helvetica,sans-Serif" font-size="10.00">1</text>
</a>
</g>
</g>
<!-- dir_82ba6d9578c5e1685169ac2984cb18ca&#45;&gt;dir_c6310732a22f63c0c2fc5595561e68f1 -->
<g id="edge9" class="edge"><title>dir_82ba6d9578c5e1685169ac2984cb18ca&#45;&gt;dir_c6310732a22f63c0c2fc5595561e68f1</title>
<path fill="none" stroke="black" d="M136.895,-36.1043C137.701,-43.7913 137.937,-53.0537 137.604,-61.6651"/>
<polygon fill="black" stroke="black" points="134.109,-61.4805 136.916,-71.6966 141.092,-61.9597 134.109,-61.4805"/>
<g id="a_edge9&#45;headlabel"><a xlink:href="dir_000006_000000.html" target="_top" xlink:title="17">
<text text-anchor="middle" x="131.522" y="-55.2" font-family="Helvetica,sans-Serif" font-size="10.00">17</text>
</a>
</g>
</g>
<!-- dir_7e461070e7b716e896e0d97cd6a82321&#45;&gt;dir_e3d743d0ec9b4013b28b5d69101bc7fb -->
<g id="edge16" class="edge"><title>dir_7e461070e7b716e896e0d97cd6a82321&#45;&gt;dir_e3d743d0ec9b4013b28b5d69101bc7fb</title>
<path fill="none" stroke="black" d="M184.942,-180.189C182.041,-204.424 176.718,-248.888 173.271,-277.679"/>
<polygon fill="black" stroke="black" points="169.764,-277.526 172.051,-287.871 176.715,-278.358 169.764,-277.526"/>
<g id="a_edge16&#45;headlabel"><a xlink:href="dir_000022_000002.html" target="_top" xlink:title="4">
<text text-anchor="middle" x="167.372" y="-271.12" font-family="Helvetica,sans-Serif" font-size="10.00">4</text>
</a>
</g>
</g>
<!-- dir_7e461070e7b716e896e0d97cd6a82321&#45;&gt;dir_fd3a82303f5206df56505f8b5712131f -->
<g id="edge17" class="edge"><title>dir_7e461070e7b716e896e0d97cd6a82321&#45;&gt;dir_fd3a82303f5206df56505f8b5712131f</title>
<path fill="none" stroke="black" d="M202.18,-180.104C207.323,-188.045 212.771,-197.666 217.191,-206.515"/>
<polygon fill="black" stroke="black" points="214.091,-208.145 221.522,-215.697 220.422,-205.159 214.091,-208.145"/>
<g id="a_edge17&#45;headlabel"><a xlink:href="dir_000022_000017.html" target="_top" xlink:title="4">
<text text-anchor="middle" x="209.989" y="-203.606" font-family="Helvetica,sans-Serif" font-size="10.00">4</text>
</a>
</g>
</g>
<!-- dir_7e461070e7b716e896e0d97cd6a82321&#45;&gt;dir_c6310732a22f63c0c2fc5595561e68f1 -->
<g id="edge18" class="edge"><title>dir_7e461070e7b716e896e0d97cd6a82321&#45;&gt;dir_c6310732a22f63c0c2fc5595561e68f1</title>
<path fill="none" stroke="black" d="M173.157,-143.697C166.511,-135.389 158.422,-125.277 151.113,-116.141"/>
<polygon fill="black" stroke="black" points="153.664,-113.727 144.683,-108.104 148.197,-118.099 153.664,-113.727"/>
<g id="a_edge18&#45;headlabel"><a xlink:href="dir_000022_000000.html" target="_top" xlink:title="23">
<text text-anchor="middle" x="158.126" y="-112.26" font-family="Helvetica,sans-Serif" font-size="10.00">23</text>
</a>
</g>
</g>
<!-- dir_0851d46a9235ae1eb6aa2c6ee3d9e41b&#45;&gt;dir_c6310732a22f63c0c2fc5595561e68f1 -->
<g id="edge19" class="edge"><title>dir_0851d46a9235ae1eb6aa2c6ee3d9e41b&#45;&gt;dir_c6310732a22f63c0c2fc5595561e68f1</title>
<path fill="none" stroke="black" d="M270.175,-148.647C241.531,-136.782 198.197,-118.833 167.504,-106.12"/>
<polygon fill="black" stroke="black" points="168.596,-102.784 158.017,-102.191 165.917,-109.251 168.596,-102.784"/>
<g id="a_edge19&#45;headlabel"><a xlink:href="dir_000014_000000.html" target="_top" xlink:title="12">
<text text-anchor="middle" x="173.003" y="-99.0362" font-family="Helvetica,sans-Serif" font-size="10.00">12</text>
</a>
</g>
</g>
<!-- dir_0851d46a9235ae1eb6aa2c6ee3d9e41b&#45;&gt;dir_82ba6d9578c5e1685169ac2984cb18ca -->
<g id="edge20" class="edge"><title>dir_0851d46a9235ae1eb6aa2c6ee3d9e41b&#45;&gt;dir_82ba6d9578c5e1685169ac2984cb18ca</title>
<path fill="none" stroke="black" d="M279.615,-143.871C249.543,-118.604 193.19,-71.2543 159.181,-42.6788"/>
<polygon fill="black" stroke="black" points="161.365,-39.9426 151.458,-36.1893 156.862,-45.3019 161.365,-39.9426"/>
<g id="a_edge20&#45;headlabel"><a xlink:href="dir_000014_000006.html" target="_top" xlink:title="4">
<text text-anchor="middle" x="165.944" y="-37.5812" font-family="Helvetica,sans-Serif" font-size="10.00">4</text>
</a>
</g>
</g>
</g>
</svg>
