<?xml version="1.0" encoding="UTF-8" standalone="no"?>
<!DOCTYPE svg PUBLIC "-//W3C//DTD SVG 1.1//EN"
 "http://www.w3.org/Graphics/SVG/1.1/DTD/svg11.dtd">
<!-- Generated by graphviz version 2.38.0 (20140413.2041)
 -->
<!-- Title: Physics/HelicityFormalism Pages: 1 -->
<svg width="136pt" height="223pt"
 viewBox="0.00 0.00 136.00 223.00" xmlns="http://www.w3.org/2000/svg" xmlns:xlink="http://www.w3.org/1999/xlink">
<g id="graph0" class="graph" transform="scale(1 1) rotate(0) translate(4 219)">
<title>Physics/HelicityFormalism</title>
<polygon fill="white" stroke="none" points="-4,4 -4,-219 132,-219 132,4 -4,4"/>
<g id="clust1" class="cluster"><title>clusterdir_fd3a82303f5206df56505f8b5712131f</title>
<g id="a_clust1"><a xlink:href="dir_fd3a82303f5206df56505f8b5712131f.html" target="_top" xlink:title="Physics">
<polygon fill="#ddddee" stroke="black" points="8,-136 8,-207 120,-207 120,-136 8,-136"/>
<text text-anchor="middle" x="64" y="-195" font-family="Helvetica,sans-Serif" font-size="10.00">Physics</text>
</a>
</g>
</g>
<!-- dir_8744bb52d1a64411e732e20595b435a6 -->
<g id="node1" class="node"><title>dir_8744bb52d1a64411e732e20595b435a6</title>
<g id="a_node1"><a xlink:href="dir_8744bb52d1a64411e732e20595b435a6.html" target="_top" xlink:title="HelicityFormalism">
<polygon fill="#eeeeff" stroke="black" points="111.5,-180 16.5,-180 16.5,-144 111.5,-144 111.5,-180"/>
<text text-anchor="middle" x="64" y="-159.5" font-family="Helvetica,sans-Serif" font-size="10.00">HelicityFormalism</text>
</a>
</g>
</g>
<!-- dir_e3d743d0ec9b4013b28b5d69101bc7fb -->
<g id="node2" class="node"><title>dir_e3d743d0ec9b4013b28b5d69101bc7fb</title>
<g id="a_node2"><a xlink:href="dir_e3d743d0ec9b4013b28b5d69101bc7fb.html" target="_top" xlink:title="Data">
<polygon fill="white" stroke="red" points="64,-108 10,-108 10,-72 64,-72 64,-108"/>
<text text-anchor="middle" x="37" y="-87.5" font-family="Helvetica,sans-Serif" font-size="10.00">Data</text>
</a>
</g>
</g>
<!-- dir_8744bb52d1a64411e732e20595b435a6&#45;&gt;dir_e3d743d0ec9b4013b28b5d69101bc7fb -->
<g id="edge2" class="edge"><title>dir_8744bb52d1a64411e732e20595b435a6&#45;&gt;dir_e3d743d0ec9b4013b28b5d69101bc7fb</title>
<path fill="none" stroke="black" d="M57.3258,-143.697C54.2851,-135.813 50.6173,-126.304 47.2393,-117.546"/>
<polygon fill="black" stroke="black" points="50.4617,-116.175 43.5974,-108.104 43.9307,-118.694 50.4617,-116.175"/>
<g id="a_edge2&#45;headlabel"><a xlink:href="dir_000021_000002.html" target="_top" xlink:title="1">
<text text-anchor="middle" x="54.4043" y="-116.007" font-family="Helvetica,sans-Serif" font-size="10.00">1</text>
</a>
</g>
</g>
<!-- dir_c6310732a22f63c0c2fc5595561e68f1 -->
<g id="node3" class="node"><title>dir_c6310732a22f63c0c2fc5595561e68f1</title>
<g id="a_node3"><a xlink:href="dir_c6310732a22f63c0c2fc5595561e68f1.html" target="_top" xlink:title="Core">
<polygon fill="white" stroke="red" points="64,-36 10,-36 10,-0 64,-0 64,-36"/>
<text text-anchor="middle" x="37" y="-15.5" font-family="Helvetica,sans-Serif" font-size="10.00">Core</text>
</a>
</g>
</g>
<!-- dir_8744bb52d1a64411e732e20595b435a6&#45;&gt;dir_c6310732a22f63c0c2fc5595561e68f1 -->
<g id="edge3" class="edge"><title>dir_8744bb52d1a64411e732e20595b435a6&#45;&gt;dir_c6310732a22f63c0c2fc5595561e68f1</title>
<path fill="none" stroke="black" d="M69.6461,-143.877C74.7573,-125.661 80.4405,-96.196 73,-72 69.9911,-62.2153 64.493,-52.6161 58.6843,-44.3336"/>
<polygon fill="black" stroke="black" points="61.4072,-42.1306 52.6099,-36.2264 55.8052,-46.3279 61.4072,-42.1306"/>
<g id="a_edge3&#45;headlabel"><a xlink:href="dir_000021_000000.html" target="_top" xlink:title="7">
<text text-anchor="middle" x="65.8348" y="-40.8048" font-family="Helvetica,sans-Serif" font-size="10.00">7</text>
</a>
</g>
</g>
<!-- dir_e3d743d0ec9b4013b28b5d69101bc7fb&#45;&gt;dir_c6310732a22f63c0c2fc5595561e68f1 -->
<g id="edge1" class="edge"><title>dir_e3d743d0ec9b4013b28b5d69101bc7fb&#45;&gt;dir_c6310732a22f63c0c2fc5595561e68f1</title>
<path fill="none" stroke="black" d="M31.0843,-71.6966C30.2886,-63.9827 30.0621,-54.7125 30.4047,-46.1124"/>
<polygon fill="black" stroke="black" points="33.8984,-46.3243 31.105,-36.1043 26.9154,-45.8356 33.8984,-46.3243"/>
<g id="a_edge1&#45;headlabel"><a xlink:href="dir_000002_000000.html" target="_top" xlink:title="41">
<text text-anchor="middle" x="36.4799" y="-47.6083" font-family="Helvetica,sans-Serif" font-size="10.00">41</text>
</a>
</g>
</g>
<!-- dir_c6310732a22f63c0c2fc5595561e68f1&#45;&gt;dir_e3d743d0ec9b4013b28b5d69101bc7fb -->
<g id="edge4" class="edge"><title>dir_c6310732a22f63c0c2fc5595561e68f1&#45;&gt;dir_e3d743d0ec9b4013b28b5d69101bc7fb</title>
<path fill="none" stroke="black" d="M42.895,-36.1043C43.7005,-43.7913 43.9369,-53.0537 43.604,-61.6651"/>
<polygon fill="black" stroke="black" points="40.1085,-61.4805 42.9157,-71.6966 47.0921,-61.9597 40.1085,-61.4805"/>
<g id="a_edge4&#45;headlabel"><a xlink:href="dir_000000_000002.html" target="_top" xlink:title="2">
<text text-anchor="middle" x="37.5219" y="-55.2" font-family="Helvetica,sans-Serif" font-size="10.00">2</text>
</a>
</g>
</g>
</g>
</svg>
