<?xml version="1.0" encoding="UTF-8" standalone="no"?>
<!DOCTYPE svg PUBLIC "-//W3C//DTD SVG 1.1//EN"
 "http://www.w3.org/Graphics/SVG/1.1/DTD/svg11.dtd">
<!-- Generated by graphviz version 2.38.0 (20140413.2041)
 -->
<!-- Title: Tools Pages: 1 -->
<svg width="240pt" height="276pt"
 viewBox="0.00 0.00 240.00 276.00" xmlns="http://www.w3.org/2000/svg" xmlns:xlink="http://www.w3.org/1999/xlink">
<g id="graph0" class="graph" transform="scale(1 1) rotate(0) translate(4 272)">
<title>Tools</title>
<polygon fill="white" stroke="none" points="-4,4 -4,-272 236,-272 236,4 -4,4"/>
<g id="clust1" class="cluster"><title>clusterdir_7e461070e7b716e896e0d97cd6a82321</title>
<g id="a_clust1"><a xlink:href="dir_7e461070e7b716e896e0d97cd6a82321.html" target="_top">
<polygon fill="#eeeeff" stroke="black" points="8,-208 8,-260 224,-260 224,-208 8,-208"/>
</a>
</g>
</g>
<!-- dir_7e461070e7b716e896e0d97cd6a82321 -->
<g id="node1" class="node"><title>dir_7e461070e7b716e896e0d97cd6a82321</title>
<text text-anchor="middle" x="189" y="-231.5" font-family="Helvetica,sans-Serif" font-size="10.00">Tools</text>
</g>
<!-- dir_44b7627bde8ff1a7faec3d8c47cdc701 -->
<g id="node2" class="node"><title>dir_44b7627bde8ff1a7faec3d8c47cdc701</title>
<g id="a_node2"><a xlink:href="dir_44b7627bde8ff1a7faec3d8c47cdc701.html" target="_top" xlink:title="Adapters">
<polygon fill="white" stroke="black" points="72,-252 16,-252 16,-216 72,-216 72,-252"/>
<text text-anchor="middle" x="44" y="-231.5" font-family="Helvetica,sans-Serif" font-size="10.00">Adapters</text>
</a>
</g>
</g>
<!-- dir_fd3a82303f5206df56505f8b5712131f -->
<g id="node5" class="node"><title>dir_fd3a82303f5206df56505f8b5712131f</title>
<g id="a_node5"><a xlink:href="dir_fd3a82303f5206df56505f8b5712131f.html" target="_top" xlink:title="Physics">
<polygon fill="white" stroke="red" points="89,-180 35,-180 35,-144 89,-144 89,-180"/>
<text text-anchor="middle" x="62" y="-159.5" font-family="Helvetica,sans-Serif" font-size="10.00">Physics</text>
</a>
</g>
</g>
<!-- dir_44b7627bde8ff1a7faec3d8c47cdc701&#45;&gt;dir_fd3a82303f5206df56505f8b5712131f -->
<g id="edge1" class="edge"><title>dir_44b7627bde8ff1a7faec3d8c47cdc701&#45;&gt;dir_fd3a82303f5206df56505f8b5712131f</title>
<path fill="none" stroke="black" d="M48.4494,-215.697C50.4548,-207.898 52.8692,-198.509 55.1011,-189.829"/>
<polygon fill="black" stroke="black" points="58.501,-190.661 57.6017,-180.104 51.7215,-188.918 58.501,-190.661"/>
<g id="a_edge1&#45;headlabel"><a xlink:href="dir_000023_000017.html" target="_top" xlink:title="2">
<text text-anchor="middle" x="60.3557" y="-192.349" font-family="Helvetica,sans-Serif" font-size="10.00">2</text>
</a>
</g>
</g>
<!-- dir_c6310732a22f63c0c2fc5595561e68f1 -->
<g id="node6" class="node"><title>dir_c6310732a22f63c0c2fc5595561e68f1</title>
<g id="a_node6"><a xlink:href="dir_c6310732a22f63c0c2fc5595561e68f1.html" target="_top" xlink:title="Core">
<polygon fill="white" stroke="red" points="127,-36 73,-36 73,-0 127,-0 127,-36"/>
<text text-anchor="middle" x="100" y="-15.5" font-family="Helvetica,sans-Serif" font-size="10.00">Core</text>
</a>
</g>
</g>
<!-- dir_44b7627bde8ff1a7faec3d8c47cdc701&#45;&gt;dir_c6310732a22f63c0c2fc5595561e68f1 -->
<g id="edge2" class="edge"><title>dir_44b7627bde8ff1a7faec3d8c47cdc701&#45;&gt;dir_c6310732a22f63c0c2fc5595561e68f1</title>
<path fill="none" stroke="black" d="M36.5203,-215.704C32.5271,-205.522 28.0271,-192.272 26,-180 23.3925,-164.214 22.9555,-159.708 26,-144 32.5644,-110.132 37.1621,-101.529 55,-72 60.9595,-62.1347 68.7337,-52.2554 76.1399,-43.7449"/>
<polygon fill="black" stroke="black" points="78.9746,-45.8269 83.0565,-36.05 73.7685,-41.1474 78.9746,-45.8269"/>
<g id="a_edge2&#45;headlabel"><a xlink:href="dir_000023_000000.html" target="_top" xlink:title="2">
<text text-anchor="middle" x="78.6832" y="-47.8983" font-family="Helvetica,sans-Serif" font-size="10.00">2</text>
</a>
</g>
</g>
<!-- dir_db7498b03d5368fa3321dfdf97dd487a -->
<g id="node3" class="node"><title>dir_db7498b03d5368fa3321dfdf97dd487a</title>
<g id="a_node3"><a xlink:href="dir_db7498b03d5368fa3321dfdf97dd487a.html" target="_top" xlink:title="Plotting">
<polygon fill="white" stroke="black" points="144,-252 90,-252 90,-216 144,-216 144,-252"/>
<text text-anchor="middle" x="117" y="-231.5" font-family="Helvetica,sans-Serif" font-size="10.00">Plotting</text>
</a>
</g>
</g>
<!-- dir_e3d743d0ec9b4013b28b5d69101bc7fb -->
<g id="node4" class="node"><title>dir_e3d743d0ec9b4013b28b5d69101bc7fb</title>
<g id="a_node4"><a xlink:href="dir_e3d743d0ec9b4013b28b5d69101bc7fb.html" target="_top" xlink:title="Data">
<polygon fill="white" stroke="red" points="127,-108 73,-108 73,-72 127,-72 127,-108"/>
<text text-anchor="middle" x="100" y="-87.5" font-family="Helvetica,sans-Serif" font-size="10.00">Data</text>
</a>
</g>
</g>
<!-- dir_db7498b03d5368fa3321dfdf97dd487a&#45;&gt;dir_e3d743d0ec9b4013b28b5d69101bc7fb -->
<g id="edge8" class="edge"><title>dir_db7498b03d5368fa3321dfdf97dd487a&#45;&gt;dir_e3d743d0ec9b4013b28b5d69101bc7fb</title>
<path fill="none" stroke="black" d="M114.949,-215.871C112.052,-191.67 106.729,-147.211 103.279,-118.393"/>
<polygon fill="black" stroke="black" points="106.722,-117.702 102.058,-108.189 99.7715,-118.534 106.722,-117.702"/>
<g id="a_edge8&#45;headlabel"><a xlink:href="dir_000024_000002.html" target="_top" xlink:title="2">
<text text-anchor="middle" x="109.968" y="-118.434" font-family="Helvetica,sans-Serif" font-size="10.00">2</text>
</a>
</g>
</g>
<!-- dir_db7498b03d5368fa3321dfdf97dd487a&#45;&gt;dir_fd3a82303f5206df56505f8b5712131f -->
<g id="edge9" class="edge"><title>dir_db7498b03d5368fa3321dfdf97dd487a&#45;&gt;dir_fd3a82303f5206df56505f8b5712131f</title>
<path fill="none" stroke="black" d="M103.404,-215.697C96.8773,-207.389 88.932,-197.277 81.7534,-188.141"/>
<polygon fill="black" stroke="black" points="84.3695,-185.805 75.4391,-180.104 78.8653,-190.13 84.3695,-185.805"/>
<g id="a_edge9&#45;headlabel"><a xlink:href="dir_000024_000017.html" target="_top" xlink:title="2">
<text text-anchor="middle" x="88.8229" y="-184.377" font-family="Helvetica,sans-Serif" font-size="10.00">2</text>
</a>
</g>
</g>
<!-- dir_db7498b03d5368fa3321dfdf97dd487a&#45;&gt;dir_c6310732a22f63c0c2fc5595561e68f1 -->
<g id="edge10" class="edge"><title>dir_db7498b03d5368fa3321dfdf97dd487a&#45;&gt;dir_c6310732a22f63c0c2fc5595561e68f1</title>
<path fill="none" stroke="black" d="M123.602,-215.661C134.015,-185.697 151.553,-122.576 136,-72 132.991,-62.2153 127.493,-52.6161 121.684,-44.3336"/>
<polygon fill="black" stroke="black" points="124.407,-42.1306 115.61,-36.2264 118.805,-46.3279 124.407,-42.1306"/>
<g id="a_edge10&#45;headlabel"><a xlink:href="dir_000024_000000.html" target="_top" xlink:title="13">
<text text-anchor="middle" x="128.835" y="-40.8048" font-family="Helvetica,sans-Serif" font-size="10.00">13</text>
</a>
</g>
</g>
<!-- dir_e3d743d0ec9b4013b28b5d69101bc7fb&#45;&gt;dir_fd3a82303f5206df56505f8b5712131f -->
<g id="edge3" class="edge"><title>dir_e3d743d0ec9b4013b28b5d69101bc7fb&#45;&gt;dir_fd3a82303f5206df56505f8b5712131f</title>
<path fill="none" stroke="black" d="M96.6098,-108.104C93.0574,-116.214 87.9197,-126.076 82.6158,-135.078"/>
<polygon fill="black" stroke="black" points="79.572,-133.346 77.309,-143.697 85.5326,-137.017 79.572,-133.346"/>
<g id="a_edge3&#45;headlabel"><a xlink:href="dir_000002_000017.html" target="_top" xlink:title="2">
<text text-anchor="middle" x="79.039" y="-126.297" font-family="Helvetica,sans-Serif" font-size="10.00">2</text>
</a>
</g>
</g>
<!-- dir_e3d743d0ec9b4013b28b5d69101bc7fb&#45;&gt;dir_c6310732a22f63c0c2fc5595561e68f1 -->
<g id="edge4" class="edge"><title>dir_e3d743d0ec9b4013b28b5d69101bc7fb&#45;&gt;dir_c6310732a22f63c0c2fc5595561e68f1</title>
<path fill="none" stroke="black" d="M94.0843,-71.6966C93.2886,-63.9827 93.0621,-54.7125 93.4047,-46.1124"/>
<polygon fill="black" stroke="black" points="96.8984,-46.3243 94.105,-36.1043 89.9154,-45.8356 96.8984,-46.3243"/>
<g id="a_edge4&#45;headlabel"><a xlink:href="dir_000002_000000.html" target="_top" xlink:title="41">
<text text-anchor="middle" x="99.4799" y="-47.6083" font-family="Helvetica,sans-Serif" font-size="10.00">41</text>
</a>
</g>
</g>
<!-- dir_fd3a82303f5206df56505f8b5712131f&#45;&gt;dir_e3d743d0ec9b4013b28b5d69101bc7fb -->
<g id="edge5" class="edge"><title>dir_fd3a82303f5206df56505f8b5712131f&#45;&gt;dir_e3d743d0ec9b4013b28b5d69101bc7fb</title>
<path fill="none" stroke="black" d="M65.4775,-143.697C69.0558,-135.559 74.2077,-125.689 79.5142,-116.701"/>
<polygon fill="black" stroke="black" points="82.5464,-118.452 84.8198,-108.104 76.5894,-114.776 82.5464,-118.452"/>
<g id="a_edge5&#45;headlabel"><a xlink:href="dir_000017_000002.html" target="_top" xlink:title="5">
<text text-anchor="middle" x="83.0748" y="-120.502" font-family="Helvetica,sans-Serif" font-size="10.00">5</text>
</a>
</g>
</g>
<!-- dir_fd3a82303f5206df56505f8b5712131f&#45;&gt;dir_c6310732a22f63c0c2fc5595561e68f1 -->
<g id="edge6" class="edge"><title>dir_fd3a82303f5206df56505f8b5712131f&#45;&gt;dir_c6310732a22f63c0c2fc5595561e68f1</title>
<path fill="none" stroke="black" d="M59.5615,-143.797C57.6131,-125.515 56.3254,-95.9947 64,-72 67.1186,-62.2497 72.6475,-52.6602 78.4507,-44.3759"/>
<polygon fill="black" stroke="black" points="81.3296,-46.3703 84.508,-36.2634 75.7206,-42.1822 81.3296,-46.3703"/>
<g id="a_edge6&#45;headlabel"><a xlink:href="dir_000017_000000.html" target="_top" xlink:title="29">
<text text-anchor="middle" x="81.4541" y="-48.4492" font-family="Helvetica,sans-Serif" font-size="10.00">29</text>
</a>
</g>
</g>
<!-- dir_c6310732a22f63c0c2fc5595561e68f1&#45;&gt;dir_e3d743d0ec9b4013b28b5d69101bc7fb -->
<g id="edge7" class="edge"><title>dir_c6310732a22f63c0c2fc5595561e68f1&#45;&gt;dir_e3d743d0ec9b4013b28b5d69101bc7fb</title>
<path fill="none" stroke="black" d="M105.895,-36.1043C106.701,-43.7913 106.937,-53.0537 106.604,-61.6651"/>
<polygon fill="black" stroke="black" points="103.109,-61.4805 105.916,-71.6966 110.092,-61.9597 103.109,-61.4805"/>
<g id="a_edge7&#45;headlabel"><a xlink:href="dir_000000_000002.html" target="_top" xlink:title="2">
<text text-anchor="middle" x="100.522" y="-55.2" font-family="Helvetica,sans-Serif" font-size="10.00">2</text>
</a>
</g>
</g>
</g>
</svg>
