<?xml version="1.0" encoding="UTF-8" standalone="no"?>
<!DOCTYPE svg PUBLIC "-//W3C//DTD SVG 1.1//EN"
 "http://www.w3.org/Graphics/SVG/1.1/DTD/svg11.dtd">
<!-- Generated by graphviz version 2.38.0 (20140413.2041)
 -->
<!-- Title: Examples Pages: 1 -->
<!--zoomable 420 -->
<svg id="main" version="1.1" xmlns="http://www.w3.org/2000/svg" xmlns:xlink="http://www.w3.org/1999/xlink" xml:space="preserve" onload="init(evt)">
<style type="text/css"><![CDATA[
.edge:hover path { stroke: red; }
.edge:hover polygon { stroke: red; fill: red; }
]]></style>
<script type="text/javascript"><![CDATA[
var edges = document.getElementsByTagName('g');
if (edges && edges.length) {
  for (var i=0;i<edges.length;i++) {
    if (edges[i].id.substr(0,4)=='edge') {
      edges[i].setAttribute('class','edge');
    }
  }
}
]]></script>
        <defs>
                <circle id="rim" cx="0" cy="0" r="7"/>
                <circle id="rim2" cx="0" cy="0" r="3.5"/>
                <g id="zoomPlus">
                        <use xlink:href="#rim" fill="#404040">
                                <set attributeName="fill" to="#808080" begin="zoomplus.mouseover" end="zoomplus.mouseout"/>
                        </use>
                        <path d="M-4,0h8M0,-4v8" fill="none" stroke="white" stroke-width="1.5" pointer-events="none"/>
                </g>
                <g id="zoomMin">
                        <use xlink:href="#rim" fill="#404040">
                                <set attributeName="fill" to="#808080" begin="zoomminus.mouseover" end="zoomminus.mouseout"/>
                        </use>
                        <path d="M-4,0h8" fill="none" stroke="white" stroke-width="1.5" pointer-events="none"/>
                </g>
                <g id="dirArrow">
                        <path fill="none" stroke="white" stroke-width="1.5" d="M0,-3.0v7 M-2.5,-0.5L0,-3.0L2.5,-0.5"/>
                </g>
               <g id="resetDef">
                       <use xlink:href="#rim2" fill="#404040">
                               <set attributeName="fill" to="#808080" begin="reset.mouseover" end="reset.mouseout"/>
                       </use>
               </g>
        </defs>

<script type="text/javascript">
var viewWidth = 746;
var viewHeight = 420;
var sectionId = 'dynsection-0';
</script>
<script xlink:href="svgpan.js"/>
<svg id="graph" class="graph">
<g id="viewport">
<title>Examples</title>
<polygon fill="white" stroke="none" points="-4,4 -4,-416 742,-416 742,4 -4,4"/>
<g id="clust1" class="cluster"><title>clusterdir_03680f297d755c096b0a1ead13ee12b7</title>
<g id="a_clust1"><a xlink:href="dir_03680f297d755c096b0a1ead13ee12b7.html" target="_top">
<polygon fill="#eeeeff" stroke="black" points="183,-352 183,-404 617,-404 617,-352 183,-352"/>
</a>
</g>
</g>
<!-- dir_03680f297d755c096b0a1ead13ee12b7 -->
<g id="node1" class="node"><title>dir_03680f297d755c096b0a1ead13ee12b7</title>
<text text-anchor="middle" x="579" y="-375.5" font-family="Helvetica,sans-Serif" font-size="10.00">Examples</text>
</g>
<!-- dir_1c3444c9e3a4eb1be4172cbec3187718 -->
<g id="node2" class="node"><title>dir_1c3444c9e3a4eb1be4172cbec3187718</title>
<g id="a_node2"><a xlink:href="dir_1c3444c9e3a4eb1be4172cbec3187718.html" target="_top" xlink:title="DalitzAnalysis_D0KsKK">
<polygon fill="white" stroke="black" points="386.5,-396 263.5,-396 263.5,-360 386.5,-360 386.5,-396"/>
<text text-anchor="middle" x="325" y="-375.5" font-family="Helvetica,sans-Serif" font-size="10.00">DalitzAnalysis_D0KsKK</text>
</a>
</g>
</g>
<!-- dir_e3d743d0ec9b4013b28b5d69101bc7fb -->
<g id="node6" class="node"><title>dir_e3d743d0ec9b4013b28b5d69101bc7fb</title>
<g id="a_node6"><a xlink:href="dir_e3d743d0ec9b4013b28b5d69101bc7fb.html" target="_top" xlink:title="Data">
<polygon fill="white" stroke="red" points="214,-324 160,-324 160,-288 214,-288 214,-324"/>
<text text-anchor="middle" x="187" y="-303.5" font-family="Helvetica,sans-Serif" font-size="10.00">Data</text>
</a>
</g>
</g>
<!-- dir_1c3444c9e3a4eb1be4172cbec3187718&#45;&gt;dir_e3d743d0ec9b4013b28b5d69101bc7fb -->
<g id="edge21" class="edge"><title>dir_1c3444c9e3a4eb1be4172cbec3187718&#45;&gt;dir_e3d743d0ec9b4013b28b5d69101bc7fb</title>
<path fill="none" stroke="black" d="M291.241,-359.876C270.667,-349.44 244.378,-336.105 223.348,-325.438"/>
<polygon fill="black" stroke="black" points="224.895,-322.298 214.393,-320.895 221.728,-328.54 224.895,-322.298"/>
<g id="a_edge21&#45;headlabel"><a xlink:href="dir_000010_000002.html" target="_top" xlink:title="6">
<text text-anchor="middle" x="229.385" y="-318.891" font-family="Helvetica,sans-Serif" font-size="10.00">6</text>
</a>
</g>
</g>
<!-- dir_fd3a82303f5206df56505f8b5712131f -->
<g id="node7" class="node"><title>dir_fd3a82303f5206df56505f8b5712131f</title>
<g id="a_node7"><a xlink:href="dir_fd3a82303f5206df56505f8b5712131f.html" target="_top" xlink:title="Physics">
<polygon fill="white" stroke="red" points="366,-252 312,-252 312,-216 366,-216 366,-252"/>
<text text-anchor="middle" x="339" y="-231.5" font-family="Helvetica,sans-Serif" font-size="10.00">Physics</text>
</a>
</g>
</g>
<!-- dir_1c3444c9e3a4eb1be4172cbec3187718&#45;&gt;dir_fd3a82303f5206df56505f8b5712131f -->
<g id="edge22" class="edge"><title>dir_1c3444c9e3a4eb1be4172cbec3187718&#45;&gt;dir_fd3a82303f5206df56505f8b5712131f</title>
<path fill="none" stroke="black" d="M326.689,-359.871C329.075,-335.67 333.458,-291.211 336.299,-262.393"/>
<polygon fill="black" stroke="black" points="339.807,-262.484 337.305,-252.189 332.841,-261.798 339.807,-262.484"/>
<g id="a_edge22&#45;headlabel"><a xlink:href="dir_000010_000017.html" target="_top" xlink:title="2">
<text text-anchor="middle" x="342.28" y="-263.84" font-family="Helvetica,sans-Serif" font-size="10.00">2</text>
</a>
</g>
</g>
<!-- dir_c6310732a22f63c0c2fc5595561e68f1 -->
<g id="node8" class="node"><title>dir_c6310732a22f63c0c2fc5595561e68f1</title>
<g id="a_node8"><a xlink:href="dir_c6310732a22f63c0c2fc5595561e68f1.html" target="_top" xlink:title="Core">
<polygon fill="white" stroke="red" points="383,-108 329,-108 329,-72 383,-72 383,-108"/>
<text text-anchor="middle" x="356" y="-87.5" font-family="Helvetica,sans-Serif" font-size="10.00">Core</text>
</a>
</g>
</g>
<!-- dir_1c3444c9e3a4eb1be4172cbec3187718&#45;&gt;dir_c6310732a22f63c0c2fc5595561e68f1 -->
<g id="edge23" class="edge"><title>dir_1c3444c9e3a4eb1be4172cbec3187718&#45;&gt;dir_c6310732a22f63c0c2fc5595561e68f1</title>
<path fill="none" stroke="black" d="M334.318,-359.843C346.505,-336.329 367.221,-292.394 375,-252 383.99,-205.319 372.846,-150.15 364.223,-118.015"/>
<polygon fill="black" stroke="black" points="367.497,-116.73 361.428,-108.046 360.757,-118.62 367.497,-116.73"/>
<g id="a_edge23&#45;headlabel"><a xlink:href="dir_000010_000000.html" target="_top" xlink:title="2">
<text text-anchor="middle" x="371.201" y="-116.925" font-family="Helvetica,sans-Serif" font-size="10.00">2</text>
</a>
</g>
</g>
<!-- dir_82ba6d9578c5e1685169ac2984cb18ca -->
<g id="node9" class="node"><title>dir_82ba6d9578c5e1685169ac2984cb18ca</title>
<g id="a_node9"><a xlink:href="dir_82ba6d9578c5e1685169ac2984cb18ca.html" target="_top" xlink:title="Estimator">
<polygon fill="white" stroke="red" points="385.5,-36 326.5,-36 326.5,-0 385.5,-0 385.5,-36"/>
<text text-anchor="middle" x="356" y="-15.5" font-family="Helvetica,sans-Serif" font-size="10.00">Estimator</text>
</a>
</g>
</g>
<!-- dir_1c3444c9e3a4eb1be4172cbec3187718&#45;&gt;dir_82ba6d9578c5e1685169ac2984cb18ca -->
<g id="edge24" class="edge"><title>dir_1c3444c9e3a4eb1be4172cbec3187718&#45;&gt;dir_82ba6d9578c5e1685169ac2984cb18ca</title>
<path fill="none" stroke="black" d="M278.186,-359.972C270.152,-357.206 261.86,-354.449 254,-352 208.708,-337.89 179.811,-361.688 151,-324 141.283,-311.289 147.955,-303.708 151,-288 171.461,-182.434 179.833,-143.667 260,-72 276.756,-57.0209 298.473,-44.586 317.013,-35.5343"/>
<polygon fill="black" stroke="black" points="318.553,-38.6778 326.098,-31.2402 315.561,-32.3491 318.553,-38.6778"/>
<g id="a_edge24&#45;headlabel"><a xlink:href="dir_000010_000006.html" target="_top" xlink:title="1">
<text text-anchor="middle" x="316.516" y="-40.2808" font-family="Helvetica,sans-Serif" font-size="10.00">1</text>
</a>
</g>
</g>
<!-- dir_7e461070e7b716e896e0d97cd6a82321 -->
<g id="node10" class="node"><title>dir_7e461070e7b716e896e0d97cd6a82321</title>
<g id="a_node10"><a xlink:href="dir_7e461070e7b716e896e0d97cd6a82321.html" target="_top" xlink:title="Tools">
<polygon fill="white" stroke="red" points="328,-180 274,-180 274,-144 328,-144 328,-180"/>
<text text-anchor="middle" x="301" y="-159.5" font-family="Helvetica,sans-Serif" font-size="10.00">Tools</text>
</a>
</g>
</g>
<!-- dir_1c3444c9e3a4eb1be4172cbec3187718&#45;&gt;dir_7e461070e7b716e896e0d97cd6a82321 -->
<g id="edge25" class="edge"><title>dir_1c3444c9e3a4eb1be4172cbec3187718&#45;&gt;dir_7e461070e7b716e896e0d97cd6a82321</title>
<path fill="none" stroke="black" d="M321.102,-359.724C315.88,-335.71 306.829,-290.813 303,-252 300.964,-231.366 300.513,-207.917 300.544,-190.269"/>
<polygon fill="black" stroke="black" points="304.045,-190.133 300.617,-180.108 297.046,-190.083 304.045,-190.133"/>
<g id="a_edge25&#45;headlabel"><a xlink:href="dir_000010_000022.html" target="_top" xlink:title="3">
<text text-anchor="middle" x="306.859" y="-191.248" font-family="Helvetica,sans-Serif" font-size="10.00">3</text>
</a>
</g>
</g>
<!-- dir_0851d46a9235ae1eb6aa2c6ee3d9e41b -->
<g id="node11" class="node"><title>dir_0851d46a9235ae1eb6aa2c6ee3d9e41b</title>
<g id="a_node11"><a xlink:href="dir_0851d46a9235ae1eb6aa2c6ee3d9e41b.html" target="_top" xlink:title="Optimizer">
<polygon fill="white" stroke="red" points="519.5,-324 460.5,-324 460.5,-288 519.5,-288 519.5,-324"/>
<text text-anchor="middle" x="490" y="-303.5" font-family="Helvetica,sans-Serif" font-size="10.00">Optimizer</text>
</a>
</g>
</g>
<!-- dir_1c3444c9e3a4eb1be4172cbec3187718&#45;&gt;dir_0851d46a9235ae1eb6aa2c6ee3d9e41b -->
<g id="edge26" class="edge"><title>dir_1c3444c9e3a4eb1be4172cbec3187718&#45;&gt;dir_0851d46a9235ae1eb6aa2c6ee3d9e41b</title>
<path fill="none" stroke="black" d="M365.364,-359.876C391.42,-348.822 425.142,-334.516 450.937,-323.572"/>
<polygon fill="black" stroke="black" points="452.564,-326.684 460.403,-319.556 449.83,-320.24 452.564,-326.684"/>
<g id="a_edge26&#45;headlabel"><a xlink:href="dir_000010_000014.html" target="_top" xlink:title="1">
<text text-anchor="middle" x="450.364" y="-328.201" font-family="Helvetica,sans-Serif" font-size="10.00">1</text>
</a>
</g>
</g>
<!-- dir_f5d0c046a3677bc908b9b94b66d5db7d -->
<g id="node3" class="node"><title>dir_f5d0c046a3677bc908b9b94b66d5db7d</title>
<g id="a_node3"><a xlink:href="dir_f5d0c046a3677bc908b9b94b66d5db7d.html" target="_top" xlink:title="DalitzFit">
<polygon fill="white" stroke="black" points="245,-396 191,-396 191,-360 245,-360 245,-396"/>
<text text-anchor="middle" x="218" y="-375.5" font-family="Helvetica,sans-Serif" font-size="10.00">DalitzFit</text>
</a>
</g>
</g>
<!-- dir_f5d0c046a3677bc908b9b94b66d5db7d&#45;&gt;dir_e3d743d0ec9b4013b28b5d69101bc7fb -->
<g id="edge30" class="edge"><title>dir_f5d0c046a3677bc908b9b94b66d5db7d&#45;&gt;dir_e3d743d0ec9b4013b28b5d69101bc7fb</title>
<path fill="none" stroke="black" d="M210.337,-359.697C206.808,-351.728 202.544,-342.1 198.631,-333.264"/>
<polygon fill="black" stroke="black" points="201.824,-331.831 194.575,-324.104 195.424,-334.665 201.824,-331.831"/>
<g id="a_edge30&#45;headlabel"><a xlink:href="dir_000011_000002.html" target="_top" xlink:title="3">
<text text-anchor="middle" x="205.876" y="-331.468" font-family="Helvetica,sans-Serif" font-size="10.00">3</text>
</a>
</g>
</g>
<!-- dir_f5d0c046a3677bc908b9b94b66d5db7d&#45;&gt;dir_fd3a82303f5206df56505f8b5712131f -->
<g id="edge31" class="edge"><title>dir_f5d0c046a3677bc908b9b94b66d5db7d&#45;&gt;dir_fd3a82303f5206df56505f8b5712131f</title>
<path fill="none" stroke="black" d="M232.595,-359.871C253.763,-335.031 293.117,-288.846 317.577,-260.142"/>
<polygon fill="black" stroke="black" points="320.531,-262.071 324.353,-252.189 315.203,-257.531 320.531,-262.071"/>
<g id="a_edge31&#45;headlabel"><a xlink:href="dir_000011_000017.html" target="_top" xlink:title="2">
<text text-anchor="middle" x="320.361" y="-264.148" font-family="Helvetica,sans-Serif" font-size="10.00">2</text>
</a>
</g>
</g>
<!-- dir_f5d0c046a3677bc908b9b94b66d5db7d&#45;&gt;dir_c6310732a22f63c0c2fc5595561e68f1 -->
<g id="edge32" class="edge"><title>dir_f5d0c046a3677bc908b9b94b66d5db7d&#45;&gt;dir_c6310732a22f63c0c2fc5595561e68f1</title>
<path fill="none" stroke="black" d="M190.96,-365.864C173.817,-357.212 153.044,-343.397 143,-324 135.643,-309.792 138.551,-303.369 143,-288 164.053,-215.278 176.513,-193.264 234,-144 258.691,-122.841 293.13,-108.924 319.123,-100.683"/>
<polygon fill="black" stroke="black" points="320.428,-103.945 328.985,-97.6982 318.4,-97.2454 320.428,-103.945"/>
<g id="a_edge32&#45;headlabel"><a xlink:href="dir_000011_000000.html" target="_top" xlink:title="3">
<text text-anchor="middle" x="317.81" y="-105.204" font-family="Helvetica,sans-Serif" font-size="10.00">3</text>
</a>
</g>
</g>
<!-- dir_f5d0c046a3677bc908b9b94b66d5db7d&#45;&gt;dir_82ba6d9578c5e1685169ac2984cb18ca -->
<g id="edge33" class="edge"><title>dir_f5d0c046a3677bc908b9b94b66d5db7d&#45;&gt;dir_82ba6d9578c5e1685169ac2984cb18ca</title>
<path fill="none" stroke="black" d="M190.831,-372.471C132.392,-361.013 0,-325.111 0,-235 0,-235 0,-235 0,-161 0,-93.4963 223.619,-43.797 316.396,-26.0822"/>
<polygon fill="black" stroke="black" points="317.08,-29.5151 326.26,-24.2256 315.785,-22.6359 317.08,-29.5151"/>
<g id="a_edge33&#45;headlabel"><a xlink:href="dir_000011_000006.html" target="_top" xlink:title="1">
<text text-anchor="middle" x="314.073" y="-30.4702" font-family="Helvetica,sans-Serif" font-size="10.00">1</text>
</a>
</g>
</g>
<!-- dir_f5d0c046a3677bc908b9b94b66d5db7d&#45;&gt;dir_7e461070e7b716e896e0d97cd6a82321 -->
<g id="edge34" class="edge"><title>dir_f5d0c046a3677bc908b9b94b66d5db7d&#45;&gt;dir_7e461070e7b716e896e0d97cd6a82321</title>
<path fill="none" stroke="black" d="M190.703,-363.316C176.021,-354.338 159.271,-341.088 151,-324 144.029,-309.598 144.678,-302.698 151,-288 172.856,-237.188 227.79,-200.367 264.756,-180.345"/>
<polygon fill="black" stroke="black" points="266.517,-183.373 273.736,-175.618 263.257,-177.179 266.517,-183.373"/>
<g id="a_edge34&#45;headlabel"><a xlink:href="dir_000011_000022.html" target="_top" xlink:title="2">
<text text-anchor="middle" x="264.659" y="-185.06" font-family="Helvetica,sans-Serif" font-size="10.00">2</text>
</a>
</g>
</g>
<!-- dir_f5d0c046a3677bc908b9b94b66d5db7d&#45;&gt;dir_0851d46a9235ae1eb6aa2c6ee3d9e41b -->
<g id="edge35" class="edge"><title>dir_f5d0c046a3677bc908b9b94b66d5db7d&#45;&gt;dir_0851d46a9235ae1eb6aa2c6ee3d9e41b</title>
<path fill="none" stroke="black" d="M239.62,-359.852C244.172,-356.867 249.089,-354.063 254,-352 319.383,-324.533 402.018,-313.701 450.148,-309.524"/>
<polygon fill="black" stroke="black" points="450.482,-313.008 460.164,-308.708 449.913,-306.031 450.482,-313.008"/>
<g id="a_edge35&#45;headlabel"><a xlink:href="dir_000011_000014.html" target="_top" xlink:title="1">
<text text-anchor="middle" x="447.129" y="-313.63" font-family="Helvetica,sans-Serif" font-size="10.00">1</text>
</a>
</g>
</g>
<!-- dir_8e5cb5bd99d1810667578ff25a8627d9 -->
<g id="node4" class="node"><title>dir_8e5cb5bd99d1810667578ff25a8627d9</title>
<g id="a_node4"><a xlink:href="dir_8e5cb5bd99d1810667578ff25a8627d9.html" target="_top" xlink:title="EvtGen">
<polygon fill="white" stroke="black" points="531,-396 477,-396 477,-360 531,-360 531,-396"/>
<text text-anchor="middle" x="504" y="-375.5" font-family="Helvetica,sans-Serif" font-size="10.00">EvtGen</text>
</a>
</g>
</g>
<!-- dir_8e5cb5bd99d1810667578ff25a8627d9&#45;&gt;dir_fd3a82303f5206df56505f8b5712131f -->
<g id="edge14" class="edge"><title>dir_8e5cb5bd99d1810667578ff25a8627d9&#45;&gt;dir_fd3a82303f5206df56505f8b5712131f</title>
<path fill="none" stroke="black" d="M516.54,-359.931C529.013,-340.682 544.146,-309.297 528,-288 509.74,-263.915 426.043,-247.761 376.359,-240.111"/>
<polygon fill="black" stroke="black" points="376.717,-236.626 366.309,-238.608 375.682,-243.549 376.717,-236.626"/>
<g id="a_edge14&#45;headlabel"><a xlink:href="dir_000012_000017.html" target="_top" xlink:title="3">
<text text-anchor="middle" x="380.692" y="-231.849" font-family="Helvetica,sans-Serif" font-size="10.00">3</text>
</a>
</g>
</g>
<!-- dir_8e5cb5bd99d1810667578ff25a8627d9&#45;&gt;dir_c6310732a22f63c0c2fc5595561e68f1 -->
<g id="edge15" class="edge"><title>dir_8e5cb5bd99d1810667578ff25a8627d9&#45;&gt;dir_c6310732a22f63c0c2fc5595561e68f1</title>
<path fill="none" stroke="black" d="M526.628,-359.89C541.55,-348.043 559.047,-332.866 563,-324 569.516,-309.387 567.095,-303.467 563,-288 543.25,-213.404 526.032,-192.484 466,-144 444.164,-126.365 415.49,-112.794 392.892,-103.801"/>
<polygon fill="black" stroke="black" points="393.891,-100.435 383.301,-100.111 391.378,-106.968 393.891,-100.435"/>
<g id="a_edge15&#45;headlabel"><a xlink:href="dir_000012_000000.html" target="_top" xlink:title="2">
<text text-anchor="middle" x="398.266" y="-96.5757" font-family="Helvetica,sans-Serif" font-size="10.00">2</text>
</a>
</g>
</g>
<!-- dir_8e5cb5bd99d1810667578ff25a8627d9&#45;&gt;dir_82ba6d9578c5e1685169ac2984cb18ca -->
<g id="edge16" class="edge"><title>dir_8e5cb5bd99d1810667578ff25a8627d9&#45;&gt;dir_82ba6d9578c5e1685169ac2984cb18ca</title>
<path fill="none" stroke="black" d="M528.236,-359.811C532.138,-357.148 536.157,-354.465 540,-352 626.036,-296.811 738,-337.215 738,-235 738,-235 738,-235 738,-161 738,-88.5528 493.548,-41.145 395.745,-25.0766"/>
<polygon fill="black" stroke="black" points="396.088,-21.5866 385.657,-23.4453 394.97,-28.4969 396.088,-21.5866"/>
<g id="a_edge16&#45;headlabel"><a xlink:href="dir_000012_000006.html" target="_top" xlink:title="1">
<text text-anchor="middle" x="400.089" y="-16.8575" font-family="Helvetica,sans-Serif" font-size="10.00">1</text>
</a>
</g>
</g>
<!-- dir_8e5cb5bd99d1810667578ff25a8627d9&#45;&gt;dir_7e461070e7b716e896e0d97cd6a82321 -->
<g id="edge17" class="edge"><title>dir_8e5cb5bd99d1810667578ff25a8627d9&#45;&gt;dir_7e461070e7b716e896e0d97cd6a82321</title>
<path fill="none" stroke="black" d="M522.36,-359.7C539.54,-341.337 560.545,-311.749 546,-288 500.336,-213.438 394.657,-181.589 338.175,-169.497"/>
<polygon fill="black" stroke="black" points="338.725,-166.037 328.227,-167.463 337.323,-172.895 338.725,-166.037"/>
<g id="a_edge17&#45;headlabel"><a xlink:href="dir_000012_000022.html" target="_top" xlink:title="2">
<text text-anchor="middle" x="342.816" y="-161.475" font-family="Helvetica,sans-Serif" font-size="10.00">2</text>
</a>
</g>
</g>
<!-- dir_8e5cb5bd99d1810667578ff25a8627d9&#45;&gt;dir_0851d46a9235ae1eb6aa2c6ee3d9e41b -->
<g id="edge18" class="edge"><title>dir_8e5cb5bd99d1810667578ff25a8627d9&#45;&gt;dir_0851d46a9235ae1eb6aa2c6ee3d9e41b</title>
<path fill="none" stroke="black" d="M500.539,-359.697C498.997,-351.983 497.142,-342.712 495.422,-334.112"/>
<polygon fill="black" stroke="black" points="498.814,-333.224 493.421,-324.104 491.95,-334.597 498.814,-333.224"/>
<g id="a_edge18&#45;headlabel"><a xlink:href="dir_000012_000014.html" target="_top" xlink:title="1">
<text text-anchor="middle" x="502.303" y="-333.692" font-family="Helvetica,sans-Serif" font-size="10.00">1</text>
</a>
</g>
</g>
<!-- dir_f027470ebaaffe758102519531280f91 -->
<g id="node5" class="node"><title>dir_f027470ebaaffe758102519531280f91</title>
<g id="a_node5"><a xlink:href="dir_f027470ebaaffe758102519531280f91.html" target="_top" xlink:title="SimFit">
<polygon fill="white" stroke="black" points="459,-396 405,-396 405,-360 459,-360 459,-396"/>
<text text-anchor="middle" x="432" y="-375.5" font-family="Helvetica,sans-Serif" font-size="10.00">SimFit</text>
</a>
</g>
</g>
<!-- dir_f027470ebaaffe758102519531280f91&#45;&gt;dir_e3d743d0ec9b4013b28b5d69101bc7fb -->
<g id="edge1" class="edge"><title>dir_f027470ebaaffe758102519531280f91&#45;&gt;dir_e3d743d0ec9b4013b28b5d69101bc7fb</title>
<path fill="none" stroke="black" d="M409.69,-359.961C405.018,-356.966 399.991,-354.131 395,-352 338.185,-327.735 266.85,-315.97 224.202,-310.728"/>
<polygon fill="black" stroke="black" points="224.602,-307.251 214.262,-309.561 223.786,-314.203 224.602,-307.251"/>
<g id="a_edge1&#45;headlabel"><a xlink:href="dir_000013_000002.html" target="_top" xlink:title="3">
<text text-anchor="middle" x="228.503" y="-302.35" font-family="Helvetica,sans-Serif" font-size="10.00">3</text>
</a>
</g>
</g>
<!-- dir_f027470ebaaffe758102519531280f91&#45;&gt;dir_fd3a82303f5206df56505f8b5712131f -->
<g id="edge2" class="edge"><title>dir_f027470ebaaffe758102519531280f91&#45;&gt;dir_fd3a82303f5206df56505f8b5712131f</title>
<path fill="none" stroke="black" d="M420.782,-359.871C404.653,-335.244 374.784,-289.638 355.953,-260.885"/>
<polygon fill="black" stroke="black" points="358.665,-258.637 350.258,-252.189 352.809,-262.472 358.665,-258.637"/>
<g id="a_edge2&#45;headlabel"><a xlink:href="dir_000013_000017.html" target="_top" xlink:title="2">
<text text-anchor="middle" x="363.009" y="-257.589" font-family="Helvetica,sans-Serif" font-size="10.00">2</text>
</a>
</g>
</g>
<!-- dir_f027470ebaaffe758102519531280f91&#45;&gt;dir_c6310732a22f63c0c2fc5595561e68f1 -->
<g id="edge3" class="edge"><title>dir_f027470ebaaffe758102519531280f91&#45;&gt;dir_c6310732a22f63c0c2fc5595561e68f1</title>
<path fill="none" stroke="black" d="M455.642,-359.74C459.69,-357.03 463.91,-354.352 468,-352 493.511,-337.332 512.192,-348.821 528,-324 536.595,-310.504 532.562,-303.336 528,-288 506.206,-214.744 487.541,-198.541 434,-144 421.653,-131.422 405.896,-120.05 391.781,-111.094"/>
<polygon fill="black" stroke="black" points="393.601,-108.104 383.25,-105.841 389.93,-114.065 393.601,-108.104"/>
<g id="a_edge3&#45;headlabel"><a xlink:href="dir_000013_000000.html" target="_top" xlink:title="5">
<text text-anchor="middle" x="398.15" y="-105.071" font-family="Helvetica,sans-Serif" font-size="10.00">5</text>
</a>
</g>
</g>
<!-- dir_f027470ebaaffe758102519531280f91&#45;&gt;dir_82ba6d9578c5e1685169ac2984cb18ca -->
<g id="edge4" class="edge"><title>dir_f027470ebaaffe758102519531280f91&#45;&gt;dir_82ba6d9578c5e1685169ac2984cb18ca</title>
<path fill="none" stroke="black" d="M454.686,-359.945C458.988,-357.09 463.541,-354.31 468,-352 500.335,-335.253 524.109,-353.826 545,-324 554.179,-310.895 547.464,-303.809 545,-288 528.023,-179.06 498.308,-152.528 423,-72 412.892,-61.1912 400.485,-50.7564 389.106,-42.0463"/>
<polygon fill="black" stroke="black" points="391.157,-39.2091 381.051,-36.028 386.967,-44.817 391.157,-39.2091"/>
<g id="a_edge4&#45;headlabel"><a xlink:href="dir_000013_000006.html" target="_top" xlink:title="2">
<text text-anchor="middle" x="395.736" y="-36.5858" font-family="Helvetica,sans-Serif" font-size="10.00">2</text>
</a>
</g>
</g>
<!-- dir_f027470ebaaffe758102519531280f91&#45;&gt;dir_7e461070e7b716e896e0d97cd6a82321 -->
<g id="edge5" class="edge"><title>dir_f027470ebaaffe758102519531280f91&#45;&gt;dir_7e461070e7b716e896e0d97cd6a82321</title>
<path fill="none" stroke="black" d="M429.425,-359.887C424.014,-328.607 409.038,-261.264 375,-216 364.872,-202.531 350.341,-191.087 336.833,-182.318"/>
<polygon fill="black" stroke="black" points="338.504,-179.236 328.16,-176.947 334.819,-185.187 338.504,-179.236"/>
<g id="a_edge5&#45;headlabel"><a xlink:href="dir_000013_000022.html" target="_top" xlink:title="1">
<text text-anchor="middle" x="343.055" y="-176.215" font-family="Helvetica,sans-Serif" font-size="10.00">1</text>
</a>
</g>
</g>
<!-- dir_f027470ebaaffe758102519531280f91&#45;&gt;dir_0851d46a9235ae1eb6aa2c6ee3d9e41b -->
<g id="edge6" class="edge"><title>dir_f027470ebaaffe758102519531280f91&#45;&gt;dir_0851d46a9235ae1eb6aa2c6ee3d9e41b</title>
<path fill="none" stroke="black" d="M446.337,-359.697C453.291,-351.305 461.77,-341.07 469.401,-331.861"/>
<polygon fill="black" stroke="black" points="472.143,-334.038 475.828,-324.104 466.753,-329.571 472.143,-334.038"/>
<g id="a_edge6&#45;headlabel"><a xlink:href="dir_000013_000014.html" target="_top" xlink:title="1">
<text text-anchor="middle" x="472.036" y="-336.117" font-family="Helvetica,sans-Serif" font-size="10.00">1</text>
</a>
</g>
</g>
<!-- dir_e3d743d0ec9b4013b28b5d69101bc7fb&#45;&gt;dir_fd3a82303f5206df56505f8b5712131f -->
<g id="edge7" class="edge"><title>dir_e3d743d0ec9b4013b28b5d69101bc7fb&#45;&gt;dir_fd3a82303f5206df56505f8b5712131f</title>
<path fill="none" stroke="black" d="M214.303,-289.811C239.075,-277.725 275.566,-260.941 302.754,-249.139"/>
<polygon fill="black" stroke="black" points="304.142,-252.352 311.948,-245.188 301.378,-245.92 304.142,-252.352"/>
<g id="a_edge7&#45;headlabel"><a xlink:href="dir_000002_000017.html" target="_top" xlink:title="2">
<text text-anchor="middle" x="301.96" y="-253.879" font-family="Helvetica,sans-Serif" font-size="10.00">2</text>
</a>
</g>
</g>
<!-- dir_e3d743d0ec9b4013b28b5d69101bc7fb&#45;&gt;dir_c6310732a22f63c0c2fc5595561e68f1 -->
<g id="edge8" class="edge"><title>dir_e3d743d0ec9b4013b28b5d69101bc7fb&#45;&gt;dir_c6310732a22f63c0c2fc5595561e68f1</title>
<path fill="none" stroke="black" d="M186.245,-287.913C191.486,-256.082 214.723,-187.038 256,-144 273.48,-125.774 298.589,-111.787 319.419,-102.77"/>
<polygon fill="black" stroke="black" points="321.022,-105.895 328.947,-98.8629 318.366,-99.4189 321.022,-105.895"/>
<g id="a_edge8&#45;headlabel"><a xlink:href="dir_000002_000000.html" target="_top" xlink:title="41">
<text text-anchor="middle" x="318.774" y="-107.386" font-family="Helvetica,sans-Serif" font-size="10.00">41</text>
</a>
</g>
</g>
<!-- dir_fd3a82303f5206df56505f8b5712131f&#45;&gt;dir_e3d743d0ec9b4013b28b5d69101bc7fb -->
<g id="edge9" class="edge"><title>dir_fd3a82303f5206df56505f8b5712131f&#45;&gt;dir_e3d743d0ec9b4013b28b5d69101bc7fb</title>
<path fill="none" stroke="black" d="M311.883,-250.098C287.109,-262.19 250.502,-279.03 223.246,-290.861"/>
<polygon fill="black" stroke="black" points="221.836,-287.658 214.03,-294.821 224.6,-294.089 221.836,-287.658"/>
<g id="a_edge9&#45;headlabel"><a xlink:href="dir_000017_000002.html" target="_top" xlink:title="5">
<text text-anchor="middle" x="224.018" y="-281.13" font-family="Helvetica,sans-Serif" font-size="10.00">5</text>
</a>
</g>
</g>
<!-- dir_fd3a82303f5206df56505f8b5712131f&#45;&gt;dir_c6310732a22f63c0c2fc5595561e68f1 -->
<g id="edge10" class="edge"><title>dir_fd3a82303f5206df56505f8b5712131f&#45;&gt;dir_c6310732a22f63c0c2fc5595561e68f1</title>
<path fill="none" stroke="black" d="M341.051,-215.871C343.948,-191.67 349.271,-147.211 352.721,-118.393"/>
<polygon fill="black" stroke="black" points="356.229,-118.534 353.942,-108.189 349.278,-117.702 356.229,-118.534"/>
<g id="a_edge10&#45;headlabel"><a xlink:href="dir_000017_000000.html" target="_top" xlink:title="29">
<text text-anchor="middle" x="358.62" y="-119.941" font-family="Helvetica,sans-Serif" font-size="10.00">29</text>
</a>
</g>
</g>
<!-- dir_fd3a82303f5206df56505f8b5712131f&#45;&gt;dir_7e461070e7b716e896e0d97cd6a82321 -->
<g id="edge11" class="edge"><title>dir_fd3a82303f5206df56505f8b5712131f&#45;&gt;dir_7e461070e7b716e896e0d97cd6a82321</title>
<path fill="none" stroke="black" d="M323.691,-215.697C318.543,-207.728 313.102,-198.1 308.698,-189.264"/>
<polygon fill="black" stroke="black" points="311.813,-187.664 304.39,-180.104 305.479,-190.643 311.813,-187.664"/>
<g id="a_edge11&#45;headlabel"><a xlink:href="dir_000017_000022.html" target="_top" xlink:title="3">
<text text-anchor="middle" x="315.912" y="-187.208" font-family="Helvetica,sans-Serif" font-size="10.00">3</text>
</a>
</g>
</g>
<!-- dir_c6310732a22f63c0c2fc5595561e68f1&#45;&gt;dir_e3d743d0ec9b4013b28b5d69101bc7fb -->
<g id="edge12" class="edge"><title>dir_c6310732a22f63c0c2fc5595561e68f1&#45;&gt;dir_e3d743d0ec9b4013b28b5d69101bc7fb</title>
<path fill="none" stroke="black" d="M328.861,-105.691C311.533,-114.692 289.692,-127.638 274,-144 236.431,-183.172 213.807,-243.885 200.368,-278.479"/>
<polygon fill="black" stroke="black" points="197.06,-277.327 196.651,-287.913 203.573,-279.892 197.06,-277.327"/>
<g id="a_edge12&#45;headlabel"><a xlink:href="dir_000000_000002.html" target="_top" xlink:title="2">
<text text-anchor="middle" x="195.736" y="-270.441" font-family="Helvetica,sans-Serif" font-size="10.00">2</text>
</a>
</g>
</g>
<!-- dir_c6310732a22f63c0c2fc5595561e68f1&#45;&gt;dir_82ba6d9578c5e1685169ac2984cb18ca -->
<g id="edge13" class="edge"><title>dir_c6310732a22f63c0c2fc5595561e68f1&#45;&gt;dir_82ba6d9578c5e1685169ac2984cb18ca</title>
<path fill="none" stroke="black" d="M350.084,-71.6966C349.289,-63.9827 349.062,-54.7125 349.405,-46.1124"/>
<polygon fill="black" stroke="black" points="352.898,-46.3243 350.105,-36.1043 345.915,-45.8356 352.898,-46.3243"/>
<g id="a_edge13&#45;headlabel"><a xlink:href="dir_000000_000006.html" target="_top" xlink:title="1">
<text text-anchor="middle" x="355.48" y="-47.6083" font-family="Helvetica,sans-Serif" font-size="10.00">1</text>
</a>
</g>
</g>
<!-- dir_82ba6d9578c5e1685169ac2984cb18ca&#45;&gt;dir_e3d743d0ec9b4013b28b5d69101bc7fb -->
<g id="edge19" class="edge"><title>dir_82ba6d9578c5e1685169ac2984cb18ca&#45;&gt;dir_e3d743d0ec9b4013b28b5d69101bc7fb</title>
<path fill="none" stroke="black" d="M335.282,-36.3125C309.125,-58.9782 263.933,-100.917 234,-144 213.808,-173.062 210.225,-182.121 200,-216 193.881,-236.274 190.597,-260.046 188.861,-277.919"/>
<polygon fill="black" stroke="black" points="185.369,-277.679 187.989,-287.945 192.343,-278.286 185.369,-277.679"/>
<g id="a_edge19&#45;headlabel"><a xlink:href="dir_000006_000002.html" target="_top" xlink:title="1">
<text text-anchor="middle" x="182.852" y="-271.352" font-family="Helvetica,sans-Serif" font-size="10.00">1</text>
</a>
</g>
</g>
<!-- dir_82ba6d9578c5e1685169ac2984cb18ca&#45;&gt;dir_c6310732a22f63c0c2fc5595561e68f1 -->
<g id="edge20" class="edge"><title>dir_82ba6d9578c5e1685169ac2984cb18ca&#45;&gt;dir_c6310732a22f63c0c2fc5595561e68f1</title>
<path fill="none" stroke="black" d="M361.895,-36.1043C362.701,-43.7913 362.937,-53.0537 362.604,-61.6651"/>
<polygon fill="black" stroke="black" points="359.109,-61.4805 361.916,-71.6966 366.092,-61.9597 359.109,-61.4805"/>
<g id="a_edge20&#45;headlabel"><a xlink:href="dir_000006_000000.html" target="_top" xlink:title="17">
<text text-anchor="middle" x="356.522" y="-55.2" font-family="Helvetica,sans-Serif" font-size="10.00">17</text>
</a>
</g>
</g>
<!-- dir_7e461070e7b716e896e0d97cd6a82321&#45;&gt;dir_e3d743d0ec9b4013b28b5d69101bc7fb -->
<g id="edge27" class="edge"><title>dir_7e461070e7b716e896e0d97cd6a82321&#45;&gt;dir_e3d743d0ec9b4013b28b5d69101bc7fb</title>
<path fill="none" stroke="black" d="M287.2,-180.189C267.23,-205.065 230.15,-251.252 207.128,-279.929"/>
<polygon fill="black" stroke="black" points="204.282,-277.882 200.751,-287.871 209.741,-282.265 204.282,-277.882"/>
<g id="a_edge27&#45;headlabel"><a xlink:href="dir_000022_000002.html" target="_top" xlink:title="4">
<text text-anchor="middle" x="204.318" y="-270.802" font-family="Helvetica,sans-Serif" font-size="10.00">4</text>
</a>
</g>
</g>
<!-- dir_7e461070e7b716e896e0d97cd6a82321&#45;&gt;dir_fd3a82303f5206df56505f8b5712131f -->
<g id="edge28" class="edge"><title>dir_7e461070e7b716e896e0d97cd6a82321&#45;&gt;dir_fd3a82303f5206df56505f8b5712131f</title>
<path fill="none" stroke="black" d="M316.18,-180.104C321.323,-188.045 326.771,-197.666 331.191,-206.515"/>
<polygon fill="black" stroke="black" points="328.091,-208.145 335.522,-215.697 334.422,-205.159 328.091,-208.145"/>
<g id="a_edge28&#45;headlabel"><a xlink:href="dir_000022_000017.html" target="_top" xlink:title="4">
<text text-anchor="middle" x="323.989" y="-203.606" font-family="Helvetica,sans-Serif" font-size="10.00">4</text>
</a>
</g>
</g>
<!-- dir_7e461070e7b716e896e0d97cd6a82321&#45;&gt;dir_c6310732a22f63c0c2fc5595561e68f1 -->
<g id="edge29" class="edge"><title>dir_7e461070e7b716e896e0d97cd6a82321&#45;&gt;dir_c6310732a22f63c0c2fc5595561e68f1</title>
<path fill="none" stroke="black" d="M314.596,-143.697C321.123,-135.389 329.068,-125.277 336.247,-116.141"/>
<polygon fill="black" stroke="black" points="339.135,-118.13 342.561,-108.104 333.631,-113.805 339.135,-118.13"/>
<g id="a_edge29&#45;headlabel"><a xlink:href="dir_000022_000000.html" target="_top" xlink:title="23">
<text text-anchor="middle" x="339.147" y="-120.211" font-family="Helvetica,sans-Serif" font-size="10.00">23</text>
</a>
</g>
</g>
<!-- dir_0851d46a9235ae1eb6aa2c6ee3d9e41b&#45;&gt;dir_c6310732a22f63c0c2fc5595561e68f1 -->
<g id="edge36" class="edge"><title>dir_0851d46a9235ae1eb6aa2c6ee3d9e41b&#45;&gt;dir_c6310732a22f63c0c2fc5595561e68f1</title>
<path fill="none" stroke="black" d="M483.203,-287.579C470.813,-256.948 442.614,-192.131 408,-144 400.724,-133.882 391.527,-123.847 382.898,-115.276"/>
<polygon fill="black" stroke="black" points="385.148,-112.584 375.523,-108.155 380.286,-117.619 385.148,-112.584"/>
<g id="a_edge36&#45;headlabel"><a xlink:href="dir_000014_000000.html" target="_top" xlink:title="12">
<text text-anchor="middle" x="389.706" y="-110.538" font-family="Helvetica,sans-Serif" font-size="10.00">12</text>
</a>
</g>
</g>
<!-- dir_0851d46a9235ae1eb6aa2c6ee3d9e41b&#45;&gt;dir_82ba6d9578c5e1685169ac2984cb18ca -->
<g id="edge37" class="edge"><title>dir_0851d46a9235ae1eb6aa2c6ee3d9e41b&#45;&gt;dir_82ba6d9578c5e1685169ac2984cb18ca</title>
<path fill="none" stroke="black" d="M488.602,-287.84C486.73,-269.594 482.594,-240.103 474,-216 450.24,-149.36 402.718,-80.4449 375.796,-44.432"/>
<polygon fill="black" stroke="black" points="378.246,-41.87 369.422,-36.0065 372.664,-46.0932 378.246,-41.87"/>
<g id="a_edge37&#45;headlabel"><a xlink:href="dir_000014_000006.html" target="_top" xlink:title="4">
<text text-anchor="middle" x="382.679" y="-40.5237" font-family="Helvetica,sans-Serif" font-size="10.00">4</text>
</a>
</g>
</g>
</g>
</svg>
        <g id="navigator" transform="translate(0 0)" fill="#404254">
                <rect fill="#f2f5e9" fill-opacity="0.5" stroke="#606060" stroke-width=".5" x="0" y="0" width="60" height="60"/>
                <use id="zoomplus" xlink:href="#zoomPlus" x="17" y="9" onmousedown="handleZoom(evt,'in')"/>
                <use id="zoomminus" xlink:href="#zoomMin" x="42" y="9" onmousedown="handleZoom(evt,'out')"/>
                <use id="reset" xlink:href="#resetDef" x="30" y="36" onmousedown="handleReset()"/>
                <g id="arrowUp" xlink:href="#dirArrow" transform="translate(30 24)" onmousedown="handlePan(0,-1)">
                  <use xlink:href="#rim" fill="#404040">
                        <set attributeName="fill" to="#808080" begin="arrowUp.mouseover" end="arrowUp.mouseout"/>
                  </use>
                  <path fill="none" stroke="white" stroke-width="1.5" d="M0,-3.0v7 M-2.5,-0.5L0,-3.0L2.5,-0.5"/>
                </g>
                <g id="arrowRight" xlink:href="#dirArrow" transform="rotate(90) translate(36 -43)" onmousedown="handlePan(1,0)">
                  <use xlink:href="#rim" fill="#404040">
                        <set attributeName="fill" to="#808080" begin="arrowRight.mouseover" end="arrowRight.mouseout"/>
                  </use>
                  <path fill="none" stroke="white" stroke-width="1.5" d="M0,-3.0v7 M-2.5,-0.5L0,-3.0L2.5,-0.5"/>
                </g>
                <g id="arrowDown" xlink:href="#dirArrow" transform="rotate(180) translate(-30 -48)" onmousedown="handlePan(0,1)">
                  <use xlink:href="#rim" fill="#404040">
                        <set attributeName="fill" to="#808080" begin="arrowDown.mouseover" end="arrowDown.mouseout"/>
                  </use>
                  <path fill="none" stroke="white" stroke-width="1.5" d="M0,-3.0v7 M-2.5,-0.5L0,-3.0L2.5,-0.5"/>
                </g>
                <g id="arrowLeft" xlink:href="#dirArrow" transform="rotate(270) translate(-36 17)" onmousedown="handlePan(-1,0)">
                  <use xlink:href="#rim" fill="#404040">
                        <set attributeName="fill" to="#808080" begin="arrowLeft.mouseover" end="arrowLeft.mouseout"/>
                  </use>
                  <path fill="none" stroke="white" stroke-width="1.5" d="M0,-3.0v7 M-2.5,-0.5L0,-3.0L2.5,-0.5"/>
                </g>
        </g>
        <svg viewBox="0 0 15 15" width="100%" height="30px" preserveAspectRatio="xMaxYMin meet">
         <g id="arrow_out" transform="scale(0.3 0.3)">
          <a xlink:href="dir_03680f297d755c096b0a1ead13ee12b7_dep_org.svg" target="_base">
           <rect id="button" ry="5" rx="5" y="6" x="6" height="38" width="38"
                fill="#f2f5e9" fill-opacity="0.5" stroke="#606060" stroke-width="1.0"/>
           <path id="arrow"
             d="M 11.500037,31.436501 C 11.940474,20.09759 22.043105,11.32322 32.158766,21.979434 L 37.068811,17.246167 C 37.068811,17.246167 37.088388,32 37.088388,32 L 22.160133,31.978069 C 22.160133,31.978069 26.997745,27.140456 26.997745,27.140456 C 18.528582,18.264221 13.291696,25.230495 11.500037,31.436501 z"
             style="fill:#404040;"/>
          </a>
         </g>
        </svg>
</svg>
