<?xml version="1.0" encoding="UTF-8" standalone="no"?>
<!DOCTYPE svg PUBLIC "-//W3C//DTD SVG 1.1//EN"
 "http://www.w3.org/Graphics/SVG/1.1/DTD/svg11.dtd">
<!-- Generated by graphviz version 2.38.0 (20140413.2041)
 -->
<!-- Title: Examples/EvtGen Pages: 1 -->
<svg width="182pt" height="367pt"
 viewBox="0.00 0.00 181.93 367.00" xmlns="http://www.w3.org/2000/svg" xmlns:xlink="http://www.w3.org/1999/xlink">
<g id="graph0" class="graph" transform="scale(1 1) rotate(0) translate(4 363)">
<title>Examples/EvtGen</title>
<polygon fill="white" stroke="none" points="-4,4 -4,-363 177.935,-363 177.935,4 -4,4"/>
<g id="clust1" class="cluster"><title>clusterdir_03680f297d755c096b0a1ead13ee12b7</title>
<g id="a_clust1"><a xlink:href="dir_03680f297d755c096b0a1ead13ee12b7.html" target="_top" xlink:title="Examples">
<polygon fill="#ddddee" stroke="black" points="59.8378,-280 59.8378,-351 129.838,-351 129.838,-280 59.8378,-280"/>
<text text-anchor="middle" x="94.8378" y="-339" font-family="Helvetica,sans-Serif" font-size="10.00">Examples</text>
</a>
</g>
</g>
<!-- dir_8e5cb5bd99d1810667578ff25a8627d9 -->
<g id="node1" class="node"><title>dir_8e5cb5bd99d1810667578ff25a8627d9</title>
<g id="a_node1"><a xlink:href="dir_8e5cb5bd99d1810667578ff25a8627d9.html" target="_top" xlink:title="EvtGen">
<polygon fill="#eeeeff" stroke="black" points="121.838,-324 67.8378,-324 67.8378,-288 121.838,-288 121.838,-324"/>
<text text-anchor="middle" x="94.8378" y="-303.5" font-family="Helvetica,sans-Serif" font-size="10.00">EvtGen</text>
</a>
</g>
</g>
<!-- dir_fd3a82303f5206df56505f8b5712131f -->
<g id="node2" class="node"><title>dir_fd3a82303f5206df56505f8b5712131f</title>
<g id="a_node2"><a xlink:href="dir_fd3a82303f5206df56505f8b5712131f.html" target="_top" xlink:title="Physics">
<polygon fill="white" stroke="red" points="66.8378,-252 12.8378,-252 12.8378,-216 66.8378,-216 66.8378,-252"/>
<text text-anchor="middle" x="39.8378" y="-231.5" font-family="Helvetica,sans-Serif" font-size="10.00">Physics</text>
</a>
</g>
</g>
<!-- dir_8e5cb5bd99d1810667578ff25a8627d9&#45;&gt;dir_fd3a82303f5206df56505f8b5712131f -->
<g id="edge4" class="edge"><title>dir_8e5cb5bd99d1810667578ff25a8627d9&#45;&gt;dir_fd3a82303f5206df56505f8b5712131f</title>
<path fill="none" stroke="black" d="M81.2423,-287.697C74.7152,-279.389 66.7698,-269.277 59.5912,-260.141"/>
<polygon fill="black" stroke="black" points="62.2073,-257.805 53.2769,-252.104 56.7031,-262.13 62.2073,-257.805"/>
<g id="a_edge4&#45;headlabel"><a xlink:href="dir_000012_000017.html" target="_top" xlink:title="3">
<text text-anchor="middle" x="66.6607" y="-256.377" font-family="Helvetica,sans-Serif" font-size="10.00">3</text>
</a>
</g>
</g>
<!-- dir_c6310732a22f63c0c2fc5595561e68f1 -->
<g id="node3" class="node"><title>dir_c6310732a22f63c0c2fc5595561e68f1</title>
<g id="a_node3"><a xlink:href="dir_c6310732a22f63c0c2fc5595561e68f1.html" target="_top" xlink:title="Core">
<polygon fill="white" stroke="red" points="89.8378,-108 35.8378,-108 35.8378,-72 89.8378,-72 89.8378,-108"/>
<text text-anchor="middle" x="62.8378" y="-87.5" font-family="Helvetica,sans-Serif" font-size="10.00">Core</text>
</a>
</g>
</g>
<!-- dir_8e5cb5bd99d1810667578ff25a8627d9&#45;&gt;dir_c6310732a22f63c0c2fc5595561e68f1 -->
<g id="edge5" class="edge"><title>dir_8e5cb5bd99d1810667578ff25a8627d9&#45;&gt;dir_c6310732a22f63c0c2fc5595561e68f1</title>
<path fill="none" stroke="black" d="M67.5497,-297.341C46.0137,-289.697 17.4138,-275.618 3.83782,-252 -7.31585,-232.596 9.35472,-155.534 14.8378,-144 19.8163,-133.528 27.552,-123.641 35.3701,-115.308"/>
<polygon fill="black" stroke="black" points="37.942,-117.685 42.4964,-108.119 32.9706,-112.757 37.942,-117.685"/>
<g id="a_edge5&#45;headlabel"><a xlink:href="dir_000012_000000.html" target="_top" xlink:title="2">
<text text-anchor="middle" x="37.4279" y="-119.737" font-family="Helvetica,sans-Serif" font-size="10.00">2</text>
</a>
</g>
</g>
<!-- dir_82ba6d9578c5e1685169ac2984cb18ca -->
<g id="node4" class="node"><title>dir_82ba6d9578c5e1685169ac2984cb18ca</title>
<g id="a_node4"><a xlink:href="dir_82ba6d9578c5e1685169ac2984cb18ca.html" target="_top" xlink:title="Estimator">
<polygon fill="white" stroke="red" points="124.338,-36 65.3378,-36 65.3378,-0 124.338,-0 124.338,-36"/>
<text text-anchor="middle" x="94.8378" y="-15.5" font-family="Helvetica,sans-Serif" font-size="10.00">Estimator</text>
</a>
</g>
</g>
<!-- dir_8e5cb5bd99d1810667578ff25a8627d9&#45;&gt;dir_82ba6d9578c5e1685169ac2984cb18ca -->
<g id="edge6" class="edge"><title>dir_8e5cb5bd99d1810667578ff25a8627d9&#45;&gt;dir_82ba6d9578c5e1685169ac2984cb18ca</title>
<path fill="none" stroke="black" d="M112.207,-287.901C139.079,-259.299 186.127,-199.421 170.838,-144 160.325,-105.892 134.501,-67.9156 115.871,-43.9975"/>
<polygon fill="black" stroke="black" points="118.586,-41.7883 109.618,-36.1466 113.11,-46.1493 118.586,-41.7883"/>
<g id="a_edge6&#45;headlabel"><a xlink:href="dir_000012_000006.html" target="_top" xlink:title="1">
<text text-anchor="middle" x="123.046" y="-40.3312" font-family="Helvetica,sans-Serif" font-size="10.00">1</text>
</a>
</g>
</g>
<!-- dir_7e461070e7b716e896e0d97cd6a82321 -->
<g id="node5" class="node"><title>dir_7e461070e7b716e896e0d97cd6a82321</title>
<g id="a_node5"><a xlink:href="dir_7e461070e7b716e896e0d97cd6a82321.html" target="_top" xlink:title="Tools">
<polygon fill="white" stroke="red" points="84.8378,-180 30.8378,-180 30.8378,-144 84.8378,-144 84.8378,-180"/>
<text text-anchor="middle" x="57.8378" y="-159.5" font-family="Helvetica,sans-Serif" font-size="10.00">Tools</text>
</a>
</g>
</g>
<!-- dir_8e5cb5bd99d1810667578ff25a8627d9&#45;&gt;dir_7e461070e7b716e896e0d97cd6a82321 -->
<g id="edge7" class="edge"><title>dir_8e5cb5bd99d1810667578ff25a8627d9&#45;&gt;dir_7e461070e7b716e896e0d97cd6a82321</title>
<path fill="none" stroke="black" d="M91.784,-287.794C88.4394,-269.761 82.6368,-240.676 75.8378,-216 73.4521,-207.342 70.4429,-198.027 67.5714,-189.659"/>
<polygon fill="black" stroke="black" points="70.8048,-188.303 64.1881,-180.028 64.2004,-190.623 70.8048,-188.303"/>
<g id="a_edge7&#45;headlabel"><a xlink:href="dir_000012_000022.html" target="_top" xlink:title="2">
<text text-anchor="middle" x="74.6749" y="-188.253" font-family="Helvetica,sans-Serif" font-size="10.00">2</text>
</a>
</g>
</g>
<!-- dir_0851d46a9235ae1eb6aa2c6ee3d9e41b -->
<g id="node6" class="node"><title>dir_0851d46a9235ae1eb6aa2c6ee3d9e41b</title>
<g id="a_node6"><a xlink:href="dir_0851d46a9235ae1eb6aa2c6ee3d9e41b.html" target="_top" xlink:title="Optimizer">
<polygon fill="white" stroke="red" points="162.338,-180 103.338,-180 103.338,-144 162.338,-144 162.338,-180"/>
<text text-anchor="middle" x="132.838" y="-159.5" font-family="Helvetica,sans-Serif" font-size="10.00">Optimizer</text>
</a>
</g>
</g>
<!-- dir_8e5cb5bd99d1810667578ff25a8627d9&#45;&gt;dir_0851d46a9235ae1eb6aa2c6ee3d9e41b -->
<g id="edge8" class="edge"><title>dir_8e5cb5bd99d1810667578ff25a8627d9&#45;&gt;dir_0851d46a9235ae1eb6aa2c6ee3d9e41b</title>
<path fill="none" stroke="black" d="M99.4215,-287.871C105.926,-263.564 117.9,-218.819 125.609,-190.013"/>
<polygon fill="black" stroke="black" points="129.034,-190.754 128.238,-180.189 122.272,-188.945 129.034,-190.754"/>
<g id="a_edge8&#45;headlabel"><a xlink:href="dir_000012_000014.html" target="_top" xlink:title="1">
<text text-anchor="middle" x="130.847" y="-192.461" font-family="Helvetica,sans-Serif" font-size="10.00">1</text>
</a>
</g>
</g>
<!-- dir_fd3a82303f5206df56505f8b5712131f&#45;&gt;dir_c6310732a22f63c0c2fc5595561e68f1 -->
<g id="edge1" class="edge"><title>dir_fd3a82303f5206df56505f8b5712131f&#45;&gt;dir_c6310732a22f63c0c2fc5595561e68f1</title>
<path fill="none" stroke="black" d="M31.1482,-215.924C23.0994,-197.748 13.5304,-168.316 21.8378,-144 25.2791,-133.927 31.4982,-124.284 38.0698,-116.05"/>
<polygon fill="black" stroke="black" points="40.8365,-118.2 44.669,-108.323 35.5134,-113.654 40.8365,-118.2"/>
<g id="a_edge1&#45;headlabel"><a xlink:href="dir_000017_000000.html" target="_top" xlink:title="29">
<text text-anchor="middle" x="40.6613" y="-120.277" font-family="Helvetica,sans-Serif" font-size="10.00">29</text>
</a>
</g>
</g>
<!-- dir_fd3a82303f5206df56505f8b5712131f&#45;&gt;dir_7e461070e7b716e896e0d97cd6a82321 -->
<g id="edge2" class="edge"><title>dir_fd3a82303f5206df56505f8b5712131f&#45;&gt;dir_7e461070e7b716e896e0d97cd6a82321</title>
<path fill="none" stroke="black" d="M38.3715,-215.697C39.5725,-207.898 41.7642,-198.509 44.3551,-189.829"/>
<polygon fill="black" stroke="black" points="47.7538,-190.697 47.5445,-180.104 41.1024,-188.516 47.7538,-190.697"/>
<g id="a_edge2&#45;headlabel"><a xlink:href="dir_000017_000022.html" target="_top" xlink:title="3">
<text text-anchor="middle" x="49.3316" y="-192.498" font-family="Helvetica,sans-Serif" font-size="10.00">3</text>
</a>
</g>
</g>
<!-- dir_c6310732a22f63c0c2fc5595561e68f1&#45;&gt;dir_82ba6d9578c5e1685169ac2984cb18ca -->
<g id="edge3" class="edge"><title>dir_c6310732a22f63c0c2fc5595561e68f1&#45;&gt;dir_82ba6d9578c5e1685169ac2984cb18ca</title>
<path fill="none" stroke="black" d="M64.8322,-71.6966C67.6829,-63.6436 71.9293,-53.8945 76.4133,-44.9824"/>
<polygon fill="black" stroke="black" points="79.5286,-46.5784 81.1237,-36.1043 73.345,-43.2977 79.5286,-46.5784"/>
<g id="a_edge3&#45;headlabel"><a xlink:href="dir_000000_000006.html" target="_top" xlink:title="1">
<text text-anchor="middle" x="80.3521" y="-48.5845" font-family="Helvetica,sans-Serif" font-size="10.00">1</text>
</a>
</g>
</g>
<!-- dir_82ba6d9578c5e1685169ac2984cb18ca&#45;&gt;dir_c6310732a22f63c0c2fc5595561e68f1 -->
<g id="edge9" class="edge"><title>dir_82ba6d9578c5e1685169ac2984cb18ca&#45;&gt;dir_c6310732a22f63c0c2fc5595561e68f1</title>
<path fill="none" stroke="black" d="M92.9137,-36.1043C90.0862,-44.1291 85.8533,-53.871 81.3733,-62.7967"/>
<polygon fill="black" stroke="black" points="78.2474,-61.2208 76.6637,-71.6966 84.4345,-64.4949 78.2474,-61.2208"/>
<g id="a_edge9&#45;headlabel"><a xlink:href="dir_000006_000000.html" target="_top" xlink:title="17">
<text text-anchor="middle" x="77.4191" y="-54.2157" font-family="Helvetica,sans-Serif" font-size="10.00">17</text>
</a>
</g>
</g>
<!-- dir_7e461070e7b716e896e0d97cd6a82321&#45;&gt;dir_fd3a82303f5206df56505f8b5712131f -->
<g id="edge10" class="edge"><title>dir_7e461070e7b716e896e0d97cd6a82321&#45;&gt;dir_fd3a82303f5206df56505f8b5712131f</title>
<path fill="none" stroke="black" d="M59.3346,-180.104C58.1506,-187.876 55.9707,-197.257 53.3867,-205.949"/>
<polygon fill="black" stroke="black" points="49.9807,-205.104 50.203,-215.697 56.6348,-207.277 49.9807,-205.104"/>
<g id="a_edge10&#45;headlabel"><a xlink:href="dir_000022_000017.html" target="_top" xlink:title="4">
<text text-anchor="middle" x="48.3976" y="-198.306" font-family="Helvetica,sans-Serif" font-size="10.00">4</text>
</a>
</g>
</g>
<!-- dir_7e461070e7b716e896e0d97cd6a82321&#45;&gt;dir_c6310732a22f63c0c2fc5595561e68f1 -->
<g id="edge11" class="edge"><title>dir_7e461070e7b716e896e0d97cd6a82321&#45;&gt;dir_c6310732a22f63c0c2fc5595561e68f1</title>
<path fill="none" stroke="black" d="M59.0738,-143.697C59.6248,-135.983 60.2869,-126.712 60.9012,-118.112"/>
<polygon fill="black" stroke="black" points="64.3946,-118.328 61.6161,-108.104 57.4124,-117.83 64.3946,-118.328"/>
<g id="a_edge11&#45;headlabel"><a xlink:href="dir_000022_000000.html" target="_top" xlink:title="23">
<text text-anchor="middle" x="66.9707" y="-119.616" font-family="Helvetica,sans-Serif" font-size="10.00">23</text>
</a>
</g>
</g>
<!-- dir_0851d46a9235ae1eb6aa2c6ee3d9e41b&#45;&gt;dir_c6310732a22f63c0c2fc5595561e68f1 -->
<g id="edge12" class="edge"><title>dir_0851d46a9235ae1eb6aa2c6ee3d9e41b&#45;&gt;dir_c6310732a22f63c0c2fc5595561e68f1</title>
<path fill="none" stroke="black" d="M115.534,-143.697C106.973,-135.135 96.4941,-124.656 87.1423,-115.304"/>
<polygon fill="black" stroke="black" points="89.4881,-112.701 79.9422,-108.104 84.5384,-117.65 89.4881,-112.701"/>
<g id="a_edge12&#45;headlabel"><a xlink:href="dir_000014_000000.html" target="_top" xlink:title="12">
<text text-anchor="middle" x="94.0375" y="-110.735" font-family="Helvetica,sans-Serif" font-size="10.00">12</text>
</a>
</g>
</g>
<!-- dir_0851d46a9235ae1eb6aa2c6ee3d9e41b&#45;&gt;dir_82ba6d9578c5e1685169ac2984cb18ca -->
<g id="edge13" class="edge"><title>dir_0851d46a9235ae1eb6aa2c6ee3d9e41b&#45;&gt;dir_82ba6d9578c5e1685169ac2984cb18ca</title>
<path fill="none" stroke="black" d="M128.254,-143.871C121.749,-119.564 109.775,-74.8187 102.067,-46.0132"/>
<polygon fill="black" stroke="black" points="105.404,-44.9445 99.4378,-36.1893 98.6419,-46.7542 105.404,-44.9445"/>
<g id="a_edge13&#45;headlabel"><a xlink:href="dir_000014_000006.html" target="_top" xlink:title="4">
<text text-anchor="middle" x="109.076" y="-45.183" font-family="Helvetica,sans-Serif" font-size="10.00">4</text>
</a>
</g>
</g>
</g>
</svg>
