<?xml version="1.0" encoding="UTF-8" standalone="no"?>
<!DOCTYPE svg PUBLIC "-//W3C//DTD SVG 1.1//EN"
 "http://www.w3.org/Graphics/SVG/1.1/DTD/svg11.dtd">
<!-- Generated by graphviz version 2.38.0 (20140413.2041)
 -->
<!-- Title: Physics/Dynamics Pages: 1 -->
<svg width="172pt" height="183pt"
 viewBox="0.00 0.00 172.00 183.00" xmlns="http://www.w3.org/2000/svg" xmlns:xlink="http://www.w3.org/1999/xlink">
<g id="graph0" class="graph" transform="scale(1 1) rotate(0) translate(4 179)">
<title>Physics/Dynamics</title>
<polygon fill="white" stroke="none" points="-4,4 -4,-179 168,-179 168,4 -4,4"/>
<g id="clust1" class="cluster"><title>clusterdir_fd3a82303f5206df56505f8b5712131f</title>
<g id="a_clust1"><a xlink:href="dir_fd3a82303f5206df56505f8b5712131f.html" target="_top" xlink:title="Physics">
<polygon fill="#ddddee" stroke="black" points="8,-8 8,-167 102,-167 102,-8 8,-8"/>
<text text-anchor="middle" x="55" y="-155" font-family="Helvetica,sans-Serif" font-size="10.00">Physics</text>
</a>
</g>
</g>
<g id="clust2" class="cluster"><title>clusterdir_b81b515296d7f9ec90a4731241afa56b</title>
<g id="a_clust2"><a xlink:href="dir_b81b515296d7f9ec90a4731241afa56b.html" target="_top">
<polygon fill="#eeeeff" stroke="black" points="16,-16 16,-140 94,-140 94,-16 16,-16"/>
</a>
</g>
</g>
<!-- dir_b81b515296d7f9ec90a4731241afa56b -->
<g id="node1" class="node"><title>dir_b81b515296d7f9ec90a4731241afa56b</title>
<text text-anchor="middle" x="55" y="-111.5" font-family="Helvetica,sans-Serif" font-size="10.00">Dynamics</text>
</g>
<!-- dir_dba38d83a669f82d0ee1a3cc97eecb47 -->
<g id="node2" class="node"><title>dir_dba38d83a669f82d0ee1a3cc97eecb47</title>
<g id="a_node2"><a xlink:href="dir_dba38d83a669f82d0ee1a3cc97eecb47.html" target="_top" xlink:title="Utils">
<polygon fill="white" stroke="black" points="82,-60 28,-60 28,-24 82,-24 82,-60"/>
<text text-anchor="middle" x="55" y="-39.5" font-family="Helvetica,sans-Serif" font-size="10.00">Utils</text>
</a>
</g>
</g>
<!-- dir_b81b515296d7f9ec90a4731241afa56b&#45;&gt;dir_dba38d83a669f82d0ee1a3cc97eecb47 -->
<g id="edge2" class="edge"><title>dir_b81b515296d7f9ec90a4731241afa56b&#45;&gt;dir_dba38d83a669f82d0ee1a3cc97eecb47</title>
<path fill="none" stroke="black" d="M55,-95.6966C55,-87.9827 55,-78.7125 55,-70.1124"/>
<polygon fill="black" stroke="black" points="58.5001,-70.1043 55,-60.1043 51.5001,-70.1044 58.5001,-70.1043"/>
<g id="a_edge2&#45;headlabel"><a xlink:href="dir_000018_000019.html" target="_top" xlink:title="1">
<text text-anchor="middle" x="61.3393" y="-71.199" font-family="Helvetica,sans-Serif" font-size="10.00">1</text>
</a>
</g>
</g>
<!-- dir_c6310732a22f63c0c2fc5595561e68f1 -->
<g id="node3" class="node"><title>dir_c6310732a22f63c0c2fc5595561e68f1</title>
<g id="a_node3"><a xlink:href="dir_c6310732a22f63c0c2fc5595561e68f1.html" target="_top" xlink:title="Core">
<polygon fill="white" stroke="red" points="164,-60 110,-60 110,-24 164,-24 164,-60"/>
<text text-anchor="middle" x="137" y="-39.5" font-family="Helvetica,sans-Serif" font-size="10.00">Core</text>
</a>
</g>
</g>
<!-- dir_b81b515296d7f9ec90a4731241afa56b&#45;&gt;dir_c6310732a22f63c0c2fc5595561e68f1 -->
<g id="edge1" class="edge"><title>dir_b81b515296d7f9ec90a4731241afa56b&#45;&gt;dir_c6310732a22f63c0c2fc5595561e68f1</title>
<path fill="none" stroke="black" d="M75.2697,-95.6966C85.4976,-86.9655 98.0611,-76.2405 109.178,-66.7503"/>
<polygon fill="black" stroke="black" points="111.63,-69.259 116.963,-60.1043 107.085,-63.935 111.63,-69.259"/>
<g id="a_edge1&#45;headlabel"><a xlink:href="dir_000018_000000.html" target="_top" xlink:title="6">
<text text-anchor="middle" x="110.74" y="-71.2522" font-family="Helvetica,sans-Serif" font-size="10.00">6</text>
</a>
</g>
</g>
</g>
</svg>
