<?xml version="1.0" encoding="UTF-8" standalone="no"?>
<!DOCTYPE svg PUBLIC "-//W3C//DTD SVG 1.1//EN"
 "http://www.w3.org/Graphics/SVG/1.1/DTD/svg11.dtd">
<!-- Generated by graphviz version 2.38.0 (20140413.2041)
 -->
<!-- Title: Data Pages: 1 -->
<svg width="310pt" height="204pt"
 viewBox="0.00 0.00 310.00 204.00" xmlns="http://www.w3.org/2000/svg" xmlns:xlink="http://www.w3.org/1999/xlink">
<g id="graph0" class="graph" transform="scale(1 1) rotate(0) translate(4 200)">
<title>Data</title>
<polygon fill="white" stroke="none" points="-4,4 -4,-200 306,-200 306,4 -4,4"/>
<g id="clust1" class="cluster"><title>clusterdir_e3d743d0ec9b4013b28b5d69101bc7fb</title>
<g id="a_clust1"><a xlink:href="dir_e3d743d0ec9b4013b28b5d69101bc7fb.html" target="_top">
<polygon fill="#eeeeff" stroke="black" points="8,-136 8,-188 294,-188 294,-136 8,-136"/>
</a>
</g>
</g>
<!-- dir_e3d743d0ec9b4013b28b5d69101bc7fb -->
<g id="node1" class="node"><title>dir_e3d743d0ec9b4013b28b5d69101bc7fb</title>
<text text-anchor="middle" x="259" y="-159.5" font-family="Helvetica,sans-Serif" font-size="10.00">Data</text>
</g>
<!-- dir_aa484c1228064a85f9f0c4e09a7e4220 -->
<g id="node2" class="node"><title>dir_aa484c1228064a85f9f0c4e09a7e4220</title>
<g id="a_node2"><a xlink:href="dir_aa484c1228064a85f9f0c4e09a7e4220.html" target="_top" xlink:title="Ascii">
<polygon fill="white" stroke="black" points="70,-180 16,-180 16,-144 70,-144 70,-180"/>
<text text-anchor="middle" x="43" y="-159.5" font-family="Helvetica,sans-Serif" font-size="10.00">Ascii</text>
</a>
</g>
</g>
<!-- dir_c6310732a22f63c0c2fc5595561e68f1 -->
<g id="node6" class="node"><title>dir_c6310732a22f63c0c2fc5595561e68f1</title>
<g id="a_node6"><a xlink:href="dir_c6310732a22f63c0c2fc5595561e68f1.html" target="_top" xlink:title="Core">
<polygon fill="white" stroke="red" points="135,-36 81,-36 81,-0 135,-0 135,-36"/>
<text text-anchor="middle" x="108" y="-15.5" font-family="Helvetica,sans-Serif" font-size="10.00">Core</text>
</a>
</g>
</g>
<!-- dir_aa484c1228064a85f9f0c4e09a7e4220&#45;&gt;dir_c6310732a22f63c0c2fc5595561e68f1 -->
<g id="edge6" class="edge"><title>dir_aa484c1228064a85f9f0c4e09a7e4220&#45;&gt;dir_c6310732a22f63c0c2fc5595561e68f1</title>
<path fill="none" stroke="black" d="M50.8405,-143.871C62.0162,-119.457 82.629,-74.4258 95.8079,-45.6351"/>
<polygon fill="black" stroke="black" points="99.1519,-46.7387 100.132,-36.1893 92.787,-43.8252 99.1519,-46.7387"/>
<g id="a_edge6&#45;headlabel"><a xlink:href="dir_000003_000000.html" target="_top" xlink:title="3">
<text text-anchor="middle" x="100.238" y="-48.6889" font-family="Helvetica,sans-Serif" font-size="10.00">3</text>
</a>
</g>
</g>
<!-- dir_52d895fbf30778b876025c15dcde8728 -->
<g id="node3" class="node"><title>dir_52d895fbf30778b876025c15dcde8728</title>
<g id="a_node3"><a xlink:href="dir_52d895fbf30778b876025c15dcde8728.html" target="_top" xlink:title="EvtGen">
<polygon fill="white" stroke="black" points="142,-180 88,-180 88,-144 142,-144 142,-180"/>
<text text-anchor="middle" x="115" y="-159.5" font-family="Helvetica,sans-Serif" font-size="10.00">EvtGen</text>
</a>
</g>
</g>
<!-- dir_fd3a82303f5206df56505f8b5712131f -->
<g id="node5" class="node"><title>dir_fd3a82303f5206df56505f8b5712131f</title>
<g id="a_node5"><a xlink:href="dir_fd3a82303f5206df56505f8b5712131f.html" target="_top" xlink:title="Physics">
<polygon fill="white" stroke="red" points="163,-108 109,-108 109,-72 163,-72 163,-108"/>
<text text-anchor="middle" x="136" y="-87.5" font-family="Helvetica,sans-Serif" font-size="10.00">Physics</text>
</a>
</g>
</g>
<!-- dir_52d895fbf30778b876025c15dcde8728&#45;&gt;dir_fd3a82303f5206df56505f8b5712131f -->
<g id="edge1" class="edge"><title>dir_52d895fbf30778b876025c15dcde8728&#45;&gt;dir_fd3a82303f5206df56505f8b5712131f</title>
<path fill="none" stroke="black" d="M120.191,-143.697C122.531,-135.898 125.347,-126.509 127.951,-117.829"/>
<polygon fill="black" stroke="black" points="131.348,-118.688 130.869,-108.104 124.643,-116.677 131.348,-118.688"/>
<g id="a_edge1&#45;headlabel"><a xlink:href="dir_000004_000017.html" target="_top" xlink:title="1">
<text text-anchor="middle" x="133.034" y="-120.447" font-family="Helvetica,sans-Serif" font-size="10.00">1</text>
</a>
</g>
</g>
<!-- dir_52d895fbf30778b876025c15dcde8728&#45;&gt;dir_c6310732a22f63c0c2fc5595561e68f1 -->
<g id="edge2" class="edge"><title>dir_52d895fbf30778b876025c15dcde8728&#45;&gt;dir_c6310732a22f63c0c2fc5595561e68f1</title>
<path fill="none" stroke="black" d="M108.762,-143.593C105.433,-133.374 101.683,-120.124 100,-108 97.139,-87.385 99.4736,-63.9348 102.344,-46.2823"/>
<polygon fill="black" stroke="black" points="105.847,-46.5771 104.159,-36.1176 98.9556,-45.3467 105.847,-46.5771"/>
<g id="a_edge2&#45;headlabel"><a xlink:href="dir_000004_000000.html" target="_top" xlink:title="4">
<text text-anchor="middle" x="108.01" y="-48.1148" font-family="Helvetica,sans-Serif" font-size="10.00">4</text>
</a>
</g>
</g>
<!-- dir_38ede806b5a81417cb73c367dd92d89d -->
<g id="node4" class="node"><title>dir_38ede806b5a81417cb73c367dd92d89d</title>
<g id="a_node4"><a xlink:href="dir_38ede806b5a81417cb73c367dd92d89d.html" target="_top" xlink:title="Root">
<polygon fill="white" stroke="black" points="214,-180 160,-180 160,-144 214,-144 214,-180"/>
<text text-anchor="middle" x="187" y="-159.5" font-family="Helvetica,sans-Serif" font-size="10.00">Root</text>
</a>
</g>
</g>
<!-- dir_38ede806b5a81417cb73c367dd92d89d&#45;&gt;dir_fd3a82303f5206df56505f8b5712131f -->
<g id="edge4" class="edge"><title>dir_38ede806b5a81417cb73c367dd92d89d&#45;&gt;dir_fd3a82303f5206df56505f8b5712131f</title>
<path fill="none" stroke="black" d="M174.393,-143.697C168.403,-135.474 161.124,-125.483 154.521,-116.421"/>
<polygon fill="black" stroke="black" points="157.179,-114.126 148.462,-108.104 151.522,-118.248 157.179,-114.126"/>
<g id="a_edge4&#45;headlabel"><a xlink:href="dir_000005_000017.html" target="_top" xlink:title="1">
<text text-anchor="middle" x="161.591" y="-112.859" font-family="Helvetica,sans-Serif" font-size="10.00">1</text>
</a>
</g>
</g>
<!-- dir_38ede806b5a81417cb73c367dd92d89d&#45;&gt;dir_c6310732a22f63c0c2fc5595561e68f1 -->
<g id="edge5" class="edge"><title>dir_38ede806b5a81417cb73c367dd92d89d&#45;&gt;dir_c6310732a22f63c0c2fc5595561e68f1</title>
<path fill="none" stroke="black" d="M187.557,-143.748C187.413,-124.896 184.915,-94.3976 172,-72 164.994,-59.85 154.079,-49.2846 143.235,-40.8526"/>
<polygon fill="black" stroke="black" points="145.156,-37.9208 135.022,-34.8294 141.016,-43.5656 145.156,-37.9208"/>
<g id="a_edge5&#45;headlabel"><a xlink:href="dir_000005_000000.html" target="_top" xlink:title="15">
<text text-anchor="middle" x="149.733" y="-35.257" font-family="Helvetica,sans-Serif" font-size="10.00">15</text>
</a>
</g>
</g>
<!-- dir_fd3a82303f5206df56505f8b5712131f&#45;&gt;dir_c6310732a22f63c0c2fc5595561e68f1 -->
<g id="edge3" class="edge"><title>dir_fd3a82303f5206df56505f8b5712131f&#45;&gt;dir_c6310732a22f63c0c2fc5595561e68f1</title>
<path fill="none" stroke="black" d="M129.079,-71.6966C125.925,-63.8132 122.122,-54.3042 118.619,-45.5464"/>
<polygon fill="black" stroke="black" points="121.805,-44.0892 114.842,-36.1043 115.306,-46.689 121.805,-44.0892"/>
<g id="a_edge3&#45;headlabel"><a xlink:href="dir_000017_000000.html" target="_top" xlink:title="29">
<text text-anchor="middle" x="125.777" y="-43.8723" font-family="Helvetica,sans-Serif" font-size="10.00">29</text>
</a>
</g>
</g>
</g>
</svg>
