<?xml version="1.0" encoding="UTF-8" standalone="no"?>
<!DOCTYPE svg PUBLIC "-//W3C//DTD SVG 1.1//EN"
 "http://www.w3.org/Graphics/SVG/1.1/DTD/svg11.dtd">
<!-- Generated by graphviz version 2.38.0 (20140413.2041)
 -->
<!-- Title: Core/Efficiency.hpp Pages: 1 -->
<svg width="357pt" height="151pt"
 viewBox="0.00 0.00 357.00 151.00" xmlns="http://www.w3.org/2000/svg" xmlns:xlink="http://www.w3.org/1999/xlink">
<g id="graph0" class="graph" transform="scale(1 1) rotate(0) translate(4 147)">
<title>Core/Efficiency.hpp</title>
<polygon fill="white" stroke="none" points="-4,4 -4,-147 353,-147 353,4 -4,4"/>
<!-- Node1 -->
<g id="node1" class="node"><title>Node1</title>
<polygon fill="#bfbfbf" stroke="black" points="72,-123.5 72,-142.5 175,-142.5 175,-123.5 72,-123.5"/>
<text text-anchor="middle" x="123.5" y="-130.5" font-family="Helvetica,sans-Serif" font-size="10.00">Core/Efficiency.hpp</text>
</g>
<!-- Node2 -->
<g id="node2" class="node"><title>Node2</title>
<g id="a_node2"><a xlink:href="Efficiency_8cpp.html" target="_top" xlink:title="Core/Efficiency.cpp">
<polygon fill="white" stroke="black" points="0,-67.5 0,-86.5 103,-86.5 103,-67.5 0,-67.5"/>
<text text-anchor="middle" x="51.5" y="-74.5" font-family="Helvetica,sans-Serif" font-size="10.00">Core/Efficiency.cpp</text>
</a>
</g>
</g>
<!-- Node1&#45;&gt;Node2 -->
<g id="edge1" class="edge"><title>Node1&#45;&gt;Node2</title>
<path fill="none" stroke="midnightblue" d="M103.634,-117.101C90.6765,-107.382 74.2026,-95.0269 63.2785,-86.8339"/>
<polygon fill="midnightblue" stroke="midnightblue" points="101.832,-120.124 111.932,-123.324 106.032,-114.524 101.832,-120.124"/>
</g>
<!-- Node3 -->
<g id="node3" class="node"><title>Node3</title>
<g id="a_node3"><a xlink:href="RootEfficiency_8hpp.html" target="_top" xlink:title="Data/Root/RootEfficiency.hpp">
<polygon fill="white" stroke="black" points="121.5,-67.5 121.5,-86.5 269.5,-86.5 269.5,-67.5 121.5,-67.5"/>
<text text-anchor="middle" x="195.5" y="-74.5" font-family="Helvetica,sans-Serif" font-size="10.00">Data/Root/RootEfficiency.hpp</text>
</a>
</g>
</g>
<!-- Node1&#45;&gt;Node3 -->
<g id="edge2" class="edge"><title>Node1&#45;&gt;Node3</title>
<path fill="none" stroke="midnightblue" d="M143.366,-117.101C156.323,-107.382 172.797,-95.0269 183.721,-86.8339"/>
<polygon fill="midnightblue" stroke="midnightblue" points="140.968,-114.524 135.068,-123.324 145.168,-120.124 140.968,-114.524"/>
</g>
<!-- Node4 -->
<g id="node4" class="node"><title>Node4</title>
<g id="a_node4"><a xlink:href="RootEfficiency_8cpp.html" target="_top" xlink:title="Data/Root/RootEfficiency.cpp">
<polygon fill="white" stroke="black" points="39.5,-6 39.5,-25 187.5,-25 187.5,-6 39.5,-6"/>
<text text-anchor="middle" x="113.5" y="-13" font-family="Helvetica,sans-Serif" font-size="10.00">Data/Root/RootEfficiency.cpp</text>
</a>
</g>
</g>
<!-- Node3&#45;&gt;Node4 -->
<g id="edge3" class="edge"><title>Node3&#45;&gt;Node4</title>
<path fill="none" stroke="midnightblue" d="M175.233,-61.2938C159.503,-49.8803 138.248,-34.4577 125.227,-25.0091"/>
<polygon fill="midnightblue" stroke="midnightblue" points="173.602,-64.435 183.751,-67.4751 177.713,-58.7693 173.602,-64.435"/>
</g>
<!-- Node5 -->
<g id="node5" class="node"><title>Node5</title>
<g id="a_node5"><a xlink:href="DalitzFitD03K_8cpp.html" target="_top" xlink:title="Executable for Dalitz plot analysis of the decay D0 &#45;&gt; K_S K+ K&#45;. ">
<polygon fill="white" stroke="black" points="206,-0.5 206,-30.5 349,-30.5 349,-0.5 206,-0.5"/>
<text text-anchor="start" x="214" y="-18.5" font-family="Helvetica,sans-Serif" font-size="10.00">Examples/DalitzAnalysis</text>
<text text-anchor="middle" x="277.5" y="-7.5" font-family="Helvetica,sans-Serif" font-size="10.00">_D0KsKK/DalitzFitD03K.cpp</text>
</a>
</g>
</g>
<!-- Node3&#45;&gt;Node5 -->
<g id="edge4" class="edge"><title>Node3&#45;&gt;Node5</title>
<path fill="none" stroke="midnightblue" d="M215.527,-61.468C228.51,-52.0474 245.333,-39.8408 258.174,-30.523"/>
<polygon fill="midnightblue" stroke="midnightblue" points="213.287,-58.7693 207.249,-67.4751 217.398,-64.435 213.287,-58.7693"/>
</g>
</g>
</svg>
