<?xml version="1.0" encoding="UTF-8" standalone="no"?>
<!DOCTYPE svg PUBLIC "-//W3C//DTD SVG 1.1//EN"
 "http://www.w3.org/Graphics/SVG/1.1/DTD/svg11.dtd">
<!-- Generated by graphviz version 2.38.0 (20140413.2041)
 -->
<!-- Title: Estimator/Estimator.hpp Pages: 1 -->
<svg width="1188pt" height="229pt"
 viewBox="0.00 0.00 1188.00 229.00" xmlns="http://www.w3.org/2000/svg" xmlns:xlink="http://www.w3.org/1999/xlink">
<g id="graph0" class="graph" transform="scale(1 1) rotate(0) translate(4 225)">
<title>Estimator/Estimator.hpp</title>
<polygon fill="white" stroke="none" points="-4,4 -4,-225 1184,-225 1184,4 -4,4"/>
<!-- Node1 -->
<g id="node1" class="node"><title>Node1</title>
<polygon fill="#bfbfbf" stroke="black" points="480,-201.5 480,-220.5 602,-220.5 602,-201.5 480,-201.5"/>
<text text-anchor="middle" x="541" y="-208.5" font-family="Helvetica,sans-Serif" font-size="10.00">Estimator/Estimator.hpp</text>
</g>
<!-- Node2 -->
<g id="node2" class="node"><title>Node2</title>
<g id="a_node2"><a xlink:href="FunctionTreeEstimator_8hpp.html" target="_top" xlink:title="Core/FunctionTree/Function\lTreeEstimator.hpp">
<polygon fill="white" stroke="black" points="216,-134.5 216,-164.5 354,-164.5 354,-134.5 216,-134.5"/>
<text text-anchor="start" x="224" y="-152.5" font-family="Helvetica,sans-Serif" font-size="10.00">Core/FunctionTree/Function</text>
<text text-anchor="middle" x="285" y="-141.5" font-family="Helvetica,sans-Serif" font-size="10.00">TreeEstimator.hpp</text>
</a>
</g>
</g>
<!-- Node1&#45;&gt;Node2 -->
<g id="edge1" class="edge"><title>Node1&#45;&gt;Node2</title>
<path fill="none" stroke="midnightblue" d="M494.399,-199.169C452.569,-189.447 390.917,-175.118 345.334,-164.523"/>
<polygon fill="midnightblue" stroke="midnightblue" points="493.789,-202.62 504.321,-201.475 495.373,-195.802 493.789,-202.62"/>
</g>
<!-- Node4 -->
<g id="node4" class="node"><title>Node4</title>
<g id="a_node4"><a xlink:href="MinLogLH_8hpp.html" target="_top" xlink:title="Estimator/MinLogLH\l/MinLogLH.hpp">
<polygon fill="white" stroke="red" points="318,-67.5 318,-97.5 424,-97.5 424,-67.5 318,-67.5"/>
<text text-anchor="start" x="326" y="-85.5" font-family="Helvetica,sans-Serif" font-size="10.00">Estimator/MinLogLH</text>
<text text-anchor="middle" x="371" y="-74.5" font-family="Helvetica,sans-Serif" font-size="10.00">/MinLogLH.hpp</text>
</a>
</g>
</g>
<!-- Node1&#45;&gt;Node4 -->
<g id="edge10" class="edge"><title>Node1&#45;&gt;Node4</title>
<path fill="none" stroke="midnightblue" d="M469.7,-200.131C445.364,-193.634 419.623,-182.862 401,-165 382.066,-146.84 375.011,-115.715 372.434,-97.6392"/>
<polygon fill="midnightblue" stroke="midnightblue" points="469.11,-203.59 479.656,-202.58 470.782,-196.792 469.11,-203.59"/>
</g>
<!-- Node6 -->
<g id="node6" class="node"><title>Node6</title>
<g id="a_node6"><a xlink:href="SumMinLogLH_8hpp.html" target="_top" xlink:title="Estimator/MinLogLH\l/SumMinLogLH.hpp">
<polygon fill="white" stroke="red" points="0,-67.5 0,-97.5 106,-97.5 106,-67.5 0,-67.5"/>
<text text-anchor="start" x="8" y="-85.5" font-family="Helvetica,sans-Serif" font-size="10.00">Estimator/MinLogLH</text>
<text text-anchor="middle" x="53" y="-74.5" font-family="Helvetica,sans-Serif" font-size="10.00">/SumMinLogLH.hpp</text>
</a>
</g>
</g>
<!-- Node1&#45;&gt;Node6 -->
<g id="edge11" class="edge"><title>Node1&#45;&gt;Node6</title>
<path fill="none" stroke="midnightblue" d="M469.577,-207.633C400.841,-203.678 294.706,-193.127 207,-165 156.304,-148.742 102.526,-116.317 73.8655,-97.6395"/>
<polygon fill="midnightblue" stroke="midnightblue" points="469.685,-211.144 479.86,-208.192 470.064,-204.154 469.685,-211.144"/>
</g>
<!-- Node7 -->
<g id="node7" class="node"><title>Node7</title>
<g id="a_node7"><a xlink:href="ChiOneD_8hpp.html" target="_top" xlink:title="This class calculates a simple &#160;of a intensity and a dataset. ">
<polygon fill="white" stroke="black" points="988,-134.5 988,-164.5 1126,-164.5 1126,-134.5 988,-134.5"/>
<text text-anchor="start" x="996" y="-152.5" font-family="Helvetica,sans-Serif" font-size="10.00">Estimator/ChiOneD/ChiOne</text>
<text text-anchor="middle" x="1057" y="-141.5" font-family="Helvetica,sans-Serif" font-size="10.00">D.hpp</text>
</a>
</g>
</g>
<!-- Node1&#45;&gt;Node7 -->
<g id="edge8" class="edge"><title>Node1&#45;&gt;Node7</title>
<path fill="none" stroke="midnightblue" d="M612.438,-201.762C711.563,-190.332 889.653,-169.797 987.653,-158.496"/>
<polygon fill="midnightblue" stroke="midnightblue" points="611.751,-198.318 602.218,-202.941 612.553,-205.272 611.751,-198.318"/>
</g>
<!-- Node9 -->
<g id="node9" class="node"><title>Node9</title>
<g id="a_node9"><a xlink:href="Optimizer_8hpp.html" target="_top" xlink:title="Optimizer/Optimizer.hpp">
<polygon fill="white" stroke="black" points="410,-140 410,-159 532,-159 532,-140 410,-140"/>
<text text-anchor="middle" x="471" y="-147" font-family="Helvetica,sans-Serif" font-size="10.00">Optimizer/Optimizer.hpp</text>
</a>
</g>
</g>
<!-- Node1&#45;&gt;Node9 -->
<g id="edge12" class="edge"><title>Node1&#45;&gt;Node9</title>
<path fill="none" stroke="midnightblue" d="M523.321,-194.973C509.932,-183.593 492.023,-168.369 481.011,-159.009"/>
<polygon fill="midnightblue" stroke="midnightblue" points="521.085,-197.665 530.971,-201.475 525.618,-192.332 521.085,-197.665"/>
</g>
<!-- Node12 -->
<g id="node12" class="node"><title>Node12</title>
<g id="a_node12"><a xlink:href="GenevaIF_8hpp.html" target="_top" xlink:title="This class provides a wrapper around the Geneva library. ">
<polygon fill="white" stroke="black" points="620,-73 620,-92 780,-92 780,-73 620,-73"/>
<text text-anchor="middle" x="700" y="-80" font-family="Helvetica,sans-Serif" font-size="10.00">Optimizer/Geneva/GenevaIF.hpp</text>
</a>
</g>
</g>
<!-- Node1&#45;&gt;Node12 -->
<g id="edge18" class="edge"><title>Node1&#45;&gt;Node12</title>
<path fill="none" stroke="midnightblue" d="M611.945,-201.77C636.893,-195.464 663.133,-184.395 681,-165 699.9,-144.484 701.138,-108.898 700.575,-92.3876"/>
<polygon fill="midnightblue" stroke="midnightblue" points="611.061,-198.382 602.101,-204.037 612.632,-205.203 611.061,-198.382"/>
</g>
<!-- Node14 -->
<g id="node14" class="node"><title>Node14</title>
<g id="a_node14"><a xlink:href="GFMinIndividual_8hpp.html" target="_top" xlink:title="Optimizer/Geneva/GFMinIndividual.hpp">
<polygon fill="white" stroke="black" points="728,-140 728,-159 916,-159 916,-140 728,-140"/>
<text text-anchor="middle" x="822" y="-147" font-family="Helvetica,sans-Serif" font-size="10.00">Optimizer/Geneva/GFMinIndividual.hpp</text>
</a>
</g>
</g>
<!-- Node1&#45;&gt;Node14 -->
<g id="edge19" class="edge"><title>Node1&#45;&gt;Node14</title>
<path fill="none" stroke="midnightblue" d="M591.05,-199.402C645.527,-187.867 731.562,-169.65 781.814,-159.009"/>
<polygon fill="midnightblue" stroke="midnightblue" points="590.318,-195.979 581.26,-201.475 591.769,-202.828 590.318,-195.979"/>
</g>
<!-- Node16 -->
<g id="node16" class="node"><title>Node16</title>
<g id="a_node16"><a xlink:href="MinuitFcn_8hpp.html" target="_top" xlink:title="Optimizer/Minuit2/Minuit\lFcn.hpp">
<polygon fill="white" stroke="black" points="550,-134.5 550,-164.5 672,-164.5 672,-134.5 550,-134.5"/>
<text text-anchor="start" x="558" y="-152.5" font-family="Helvetica,sans-Serif" font-size="10.00">Optimizer/Minuit2/Minuit</text>
<text text-anchor="middle" x="611" y="-141.5" font-family="Helvetica,sans-Serif" font-size="10.00">Fcn.hpp</text>
</a>
</g>
</g>
<!-- Node1&#45;&gt;Node16 -->
<g id="edge22" class="edge"><title>Node1&#45;&gt;Node16</title>
<path fill="none" stroke="midnightblue" d="M558.739,-194.921C569.731,-185.579 583.751,-173.662 594.502,-164.523"/>
<polygon fill="midnightblue" stroke="midnightblue" points="556.382,-192.332 551.029,-201.475 560.915,-197.665 556.382,-192.332"/>
</g>
<!-- Node3 -->
<g id="node3" class="node"><title>Node3</title>
<g id="a_node3"><a xlink:href="FunctionTreeEstimator_8cpp.html" target="_top" xlink:title="Core/FunctionTree/Function\lTreeEstimator.cpp">
<polygon fill="white" stroke="black" points="124,-67.5 124,-97.5 262,-97.5 262,-67.5 124,-67.5"/>
<text text-anchor="start" x="132" y="-85.5" font-family="Helvetica,sans-Serif" font-size="10.00">Core/FunctionTree/Function</text>
<text text-anchor="middle" x="193" y="-74.5" font-family="Helvetica,sans-Serif" font-size="10.00">TreeEstimator.cpp</text>
</a>
</g>
</g>
<!-- Node2&#45;&gt;Node3 -->
<g id="edge2" class="edge"><title>Node2&#45;&gt;Node3</title>
<path fill="none" stroke="midnightblue" d="M256.623,-128.451C242.47,-118.452 225.695,-106.6 212.924,-97.5765"/>
<polygon fill="midnightblue" stroke="midnightblue" points="254.851,-131.484 265.037,-134.396 258.89,-125.767 254.851,-131.484"/>
</g>
<!-- Node2&#45;&gt;Node4 -->
<g id="edge3" class="edge"><title>Node2&#45;&gt;Node4</title>
<path fill="none" stroke="midnightblue" d="M311.901,-128.168C325.052,-118.228 340.55,-106.514 352.376,-97.5765"/>
<polygon fill="midnightblue" stroke="midnightblue" points="309.528,-125.574 303.661,-134.396 313.749,-131.158 309.528,-125.574"/>
</g>
<!-- Node5 -->
<g id="node5" class="node"><title>Node5</title>
<g id="a_node5"><a xlink:href="SimFit_8cpp.html" target="_top" xlink:title="Examples/SimFit/SimFit.cpp">
<polygon fill="white" stroke="black" points="259,-6 259,-25 401,-25 401,-6 259,-6"/>
<text text-anchor="middle" x="330" y="-13" font-family="Helvetica,sans-Serif" font-size="10.00">Examples/SimFit/SimFit.cpp</text>
</a>
</g>
</g>
<!-- Node2&#45;&gt;Node5 -->
<g id="edge7" class="edge"><title>Node2&#45;&gt;Node5</title>
<path fill="none" stroke="midnightblue" d="M291.366,-124.386C295.858,-108.048 302.257,-86.0481 309,-67 314.26,-52.1415 321.528,-35.3188 325.989,-25.3268"/>
<polygon fill="midnightblue" stroke="midnightblue" points="287.939,-123.65 288.705,-134.217 294.696,-125.479 287.939,-123.65"/>
</g>
<!-- Node2&#45;&gt;Node6 -->
<g id="edge5" class="edge"><title>Node2&#45;&gt;Node6</title>
<path fill="none" stroke="midnightblue" d="M225.09,-131.715C187.336,-121.137 139.143,-107.635 103.365,-97.6109"/>
<polygon fill="midnightblue" stroke="midnightblue" points="224.372,-135.148 234.945,-134.476 226.26,-128.408 224.372,-135.148"/>
</g>
<!-- Node4&#45;&gt;Node5 -->
<g id="edge4" class="edge"><title>Node4&#45;&gt;Node5</title>
<path fill="none" stroke="midnightblue" d="M356.575,-58.6315C349.281,-47.0671 340.858,-33.7142 335.484,-25.1945"/>
<polygon fill="midnightblue" stroke="midnightblue" points="353.808,-60.8053 362.104,-67.396 359.729,-57.0707 353.808,-60.8053"/>
</g>
<!-- Node6&#45;&gt;Node5 -->
<g id="edge6" class="edge"><title>Node6&#45;&gt;Node5</title>
<path fill="none" stroke="midnightblue" d="M116.036,-66.7082C170.834,-53.8494 248.321,-35.6666 293.448,-25.0773"/>
<polygon fill="midnightblue" stroke="midnightblue" points="115.017,-63.3522 106.081,-69.0443 116.616,-70.1671 115.017,-63.3522"/>
</g>
<!-- Node8 -->
<g id="node8" class="node"><title>Node8</title>
<g id="a_node8"><a xlink:href="ChiOneD_8cpp.html" target="_top" xlink:title="Estimator/ChiOneD/ChiOne\lD.cpp">
<polygon fill="white" stroke="black" points="1042,-67.5 1042,-97.5 1180,-97.5 1180,-67.5 1042,-67.5"/>
<text text-anchor="start" x="1050" y="-85.5" font-family="Helvetica,sans-Serif" font-size="10.00">Estimator/ChiOneD/ChiOne</text>
<text text-anchor="middle" x="1111" y="-74.5" font-family="Helvetica,sans-Serif" font-size="10.00">D.cpp</text>
</a>
</g>
</g>
<!-- Node7&#45;&gt;Node8 -->
<g id="edge9" class="edge"><title>Node7&#45;&gt;Node8</title>
<path fill="none" stroke="midnightblue" d="M1075.32,-126.447C1083.25,-116.899 1092.3,-106.004 1099.31,-97.5765"/>
<polygon fill="midnightblue" stroke="midnightblue" points="1072.42,-124.467 1068.72,-134.396 1077.8,-128.941 1072.42,-124.467"/>
</g>
<!-- Node10 -->
<g id="node10" class="node"><title>Node10</title>
<g id="a_node10"><a xlink:href="MinuitIF_8hpp.html" target="_top" xlink:title="Optimizer/Minuit2/Minuit\lIF.hpp">
<polygon fill="white" stroke="red" points="442,-67.5 442,-97.5 564,-97.5 564,-67.5 442,-67.5"/>
<text text-anchor="start" x="450" y="-85.5" font-family="Helvetica,sans-Serif" font-size="10.00">Optimizer/Minuit2/Minuit</text>
<text text-anchor="middle" x="503" y="-74.5" font-family="Helvetica,sans-Serif" font-size="10.00">IF.hpp</text>
</a>
</g>
</g>
<!-- Node9&#45;&gt;Node10 -->
<g id="edge13" class="edge"><title>Node9&#45;&gt;Node10</title>
<path fill="none" stroke="midnightblue" d="M479.757,-130.713C484.889,-120.287 491.282,-107.301 496.064,-97.589"/>
<polygon fill="midnightblue" stroke="midnightblue" points="476.592,-129.216 475.316,-139.734 482.873,-132.308 476.592,-129.216"/>
</g>
<!-- Node9&#45;&gt;Node12 -->
<g id="edge16" class="edge"><title>Node9&#45;&gt;Node12</title>
<path fill="none" stroke="midnightblue" d="M511.194,-137.091C556.498,-124.232 629.121,-103.618 669.83,-92.0637"/>
<polygon fill="midnightblue" stroke="midnightblue" points="510.074,-133.771 501.409,-139.869 511.985,-140.505 510.074,-133.771"/>
</g>
<!-- Node10&#45;&gt;Node5 -->
<g id="edge14" class="edge"><title>Node10&#45;&gt;Node5</title>
<path fill="none" stroke="midnightblue" d="M455.848,-63.7838C422.304,-51.1807 378.728,-34.8082 352.642,-25.007"/>
<polygon fill="midnightblue" stroke="midnightblue" points="454.869,-67.1551 465.462,-67.396 457.332,-60.6024 454.869,-67.1551"/>
</g>
<!-- Node11 -->
<g id="node11" class="node"><title>Node11</title>
<g id="a_node11"><a xlink:href="MinuitIF_8cpp.html" target="_top" xlink:title="Optimizer/Minuit2/Minuit\lIF.cpp">
<polygon fill="white" stroke="black" points="486,-0.5 486,-30.5 608,-30.5 608,-0.5 486,-0.5"/>
<text text-anchor="start" x="494" y="-18.5" font-family="Helvetica,sans-Serif" font-size="10.00">Optimizer/Minuit2/Minuit</text>
<text text-anchor="middle" x="547" y="-7.5" font-family="Helvetica,sans-Serif" font-size="10.00">IF.cpp</text>
</a>
</g>
</g>
<!-- Node10&#45;&gt;Node11 -->
<g id="edge15" class="edge"><title>Node10&#45;&gt;Node11</title>
<path fill="none" stroke="midnightblue" d="M518.321,-58.8669C524.689,-49.4594 531.882,-38.8334 537.471,-30.5765"/>
<polygon fill="midnightblue" stroke="midnightblue" points="515.255,-57.1529 512.547,-67.396 521.051,-61.0769 515.255,-57.1529"/>
</g>
<!-- Node13 -->
<g id="node13" class="node"><title>Node13</title>
<g id="a_node13"><a xlink:href="GenevaIF_8cpp.html" target="_top" xlink:title="Optimizer/Geneva/GenevaIF.cpp">
<polygon fill="white" stroke="black" points="674,-6 674,-25 834,-25 834,-6 674,-6"/>
<text text-anchor="middle" x="754" y="-13" font-family="Helvetica,sans-Serif" font-size="10.00">Optimizer/Geneva/GenevaIF.cpp</text>
</a>
</g>
</g>
<!-- Node12&#45;&gt;Node13 -->
<g id="edge17" class="edge"><title>Node12&#45;&gt;Node13</title>
<path fill="none" stroke="midnightblue" d="M713.898,-64.7705C724.427,-52.0972 738.464,-35.201 746.833,-25.1273"/>
<polygon fill="midnightblue" stroke="midnightblue" points="710.981,-62.8053 707.283,-72.7338 716.365,-67.2785 710.981,-62.8053"/>
</g>
<!-- Node14&#45;&gt;Node13 -->
<g id="edge20" class="edge"><title>Node14&#45;&gt;Node13</title>
<path fill="none" stroke="midnightblue" d="M815.806,-129.917C809.875,-113.046 800.191,-87.7116 789,-67 780.582,-51.4212 768.365,-34.8124 760.815,-25.0598"/>
<polygon fill="midnightblue" stroke="midnightblue" points="812.587,-131.322 819.14,-139.648 819.21,-129.054 812.587,-131.322"/>
</g>
<!-- Node15 -->
<g id="node15" class="node"><title>Node15</title>
<g id="a_node15"><a xlink:href="GFMinIndividual_8cpp.html" target="_top" xlink:title="Optimizer/Geneva/GFMinIndividual.cpp">
<polygon fill="white" stroke="black" points="836,-73 836,-92 1024,-92 1024,-73 836,-73"/>
<text text-anchor="middle" x="930" y="-80" font-family="Helvetica,sans-Serif" font-size="10.00">Optimizer/Geneva/GFMinIndividual.cpp</text>
</a>
</g>
</g>
<!-- Node14&#45;&gt;Node15 -->
<g id="edge21" class="edge"><title>Node14&#45;&gt;Node15</title>
<path fill="none" stroke="midnightblue" d="M845.358,-134.442C866.746,-121.57 897.721,-102.927 915.665,-92.1273"/>
<polygon fill="midnightblue" stroke="midnightblue" points="843.328,-131.578 836.565,-139.734 846.938,-137.576 843.328,-131.578"/>
</g>
<!-- Node16&#45;&gt;Node11 -->
<g id="edge23" class="edge"><title>Node16&#45;&gt;Node11</title>
<path fill="none" stroke="midnightblue" d="M600.316,-124.951C592.83,-108.611 582.505,-86.3856 573,-67 566.922,-54.6043 559.716,-40.6632 554.433,-30.5743"/>
<polygon fill="midnightblue" stroke="midnightblue" points="597.24,-126.642 604.577,-134.286 603.608,-123.735 597.24,-126.642"/>
</g>
</g>
</svg>
