<?xml version="1.0" encoding="UTF-8" standalone="no"?>
<!DOCTYPE svg PUBLIC "-//W3C//DTD SVG 1.1//EN"
 "http://www.w3.org/Graphics/SVG/1.1/DTD/svg11.dtd">
<!-- Generated by graphviz version 2.38.0 (20140413.2041)
 -->
<!-- Title: Core/Event.cpp Pages: 1 -->
<svg width="146pt" height="196pt"
 viewBox="0.00 0.00 145.68 196.00" xmlns="http://www.w3.org/2000/svg" xmlns:xlink="http://www.w3.org/1999/xlink">
<g id="graph0" class="graph" transform="scale(1 1) rotate(0) translate(4 192)">
<title>Core/Event.cpp</title>
<polygon fill="white" stroke="none" points="-4,4 -4,-192 141.679,-192 141.679,4 -4,4"/>
<!-- Node1 -->
<g id="node1" class="node"><title>Node1</title>
<polygon fill="#bfbfbf" stroke="black" points="0,-168.5 0,-187.5 85,-187.5 85,-168.5 0,-168.5"/>
<text text-anchor="middle" x="42.5" y="-175.5" font-family="Helvetica,sans-Serif" font-size="10.00">Core/Event.cpp</text>
</g>
<!-- Node2 -->
<g id="node2" class="node"><title>Node2</title>
<polygon fill="white" stroke="#bfbfbf" points="15.5,-0.5 15.5,-19.5 71.5,-19.5 71.5,-0.5 15.5,-0.5"/>
<text text-anchor="middle" x="43.5" y="-7.5" font-family="Helvetica,sans-Serif" font-size="10.00">algorithm</text>
</g>
<!-- Node1&#45;&gt;Node2 -->
<g id="edge1" class="edge"><title>Node1&#45;&gt;Node2</title>
<path fill="none" stroke="midnightblue" d="M38.7908,-168.223C35.2027,-159.287 29.9578,-144.945 27.5,-132 21.1943,-98.7892 17.7922,-89.1319 24.5,-56 26.3931,-46.6493 30.2916,-36.8267 34.0674,-28.7526"/>
<polygon fill="midnightblue" stroke="midnightblue" points="37.2876,-30.1381 38.6241,-19.6279 31.0251,-27.0106 37.2876,-30.1381"/>
</g>
<!-- Node3 -->
<g id="node3" class="node"><title>Node3</title>
<g id="a_node3"><a xlink:href="Event_8hpp.html" target="_top" xlink:title="Core/Event.hpp">
<polygon fill="white" stroke="black" points="37,-112.5 37,-131.5 122,-131.5 122,-112.5 37,-112.5"/>
<text text-anchor="middle" x="79.5" y="-119.5" font-family="Helvetica,sans-Serif" font-size="10.00">Core/Event.hpp</text>
</a>
</g>
</g>
<!-- Node1&#45;&gt;Node3 -->
<g id="edge2" class="edge"><title>Node1&#45;&gt;Node3</title>
<path fill="none" stroke="midnightblue" d="M48.6098,-168.083C53.7822,-160.534 61.3461,-149.495 67.6944,-140.23"/>
<polygon fill="midnightblue" stroke="midnightblue" points="70.7388,-141.979 73.5039,-131.751 64.9643,-138.022 70.7388,-141.979"/>
</g>
<!-- Node4 -->
<g id="node4" class="node"><title>Node4</title>
<g id="a_node4"><a xlink:href="Particle_8hpp.html" target="_top" xlink:title="Particle and FourMomentum class. ">
<polygon fill="white" stroke="red" points="33.5,-56.5 33.5,-75.5 125.5,-75.5 125.5,-56.5 33.5,-56.5"/>
<text text-anchor="middle" x="79.5" y="-63.5" font-family="Helvetica,sans-Serif" font-size="10.00">Core/Particle.hpp</text>
</a>
</g>
</g>
<!-- Node3&#45;&gt;Node4 -->
<g id="edge3" class="edge"><title>Node3&#45;&gt;Node4</title>
<path fill="none" stroke="midnightblue" d="M79.5,-112.083C79.5,-105.006 79.5,-94.8611 79.5,-85.9865"/>
<polygon fill="midnightblue" stroke="midnightblue" points="83.0001,-85.751 79.5,-75.7511 76.0001,-85.7511 83.0001,-85.751"/>
</g>
<!-- Node5 -->
<g id="node5" class="node"><title>Node5</title>
<polygon fill="white" stroke="#bfbfbf" points="92.5,-0.5 92.5,-19.5 136.5,-19.5 136.5,-0.5 92.5,-0.5"/>
<text text-anchor="middle" x="114.5" y="-7.5" font-family="Helvetica,sans-Serif" font-size="10.00">vector</text>
</g>
<!-- Node3&#45;&gt;Node5 -->
<g id="edge6" class="edge"><title>Node3&#45;&gt;Node5</title>
<path fill="none" stroke="midnightblue" d="M96.698,-112.386C109.751,-104.794 126.734,-92.3889 134.5,-76 141.823,-60.5459 134.457,-41.7714 126.68,-28.3811"/>
<polygon fill="midnightblue" stroke="midnightblue" points="129.476,-26.2564 121.148,-19.7069 123.574,-30.0203 129.476,-26.2564"/>
</g>
<!-- Node4&#45;&gt;Node2 -->
<g id="edge4" class="edge"><title>Node4&#45;&gt;Node2</title>
<path fill="none" stroke="midnightblue" d="M73.5553,-56.083C68.5227,-48.5341 61.1632,-37.4948 54.9865,-28.2298"/>
<polygon fill="midnightblue" stroke="midnightblue" points="57.7933,-26.1301 49.3341,-19.7511 51.9689,-30.0131 57.7933,-26.1301"/>
</g>
<!-- Node4&#45;&gt;Node5 -->
<g id="edge5" class="edge"><title>Node4&#45;&gt;Node5</title>
<path fill="none" stroke="midnightblue" d="M85.2795,-56.083C90.1724,-48.5341 97.3274,-37.4948 103.333,-28.2298"/>
<polygon fill="midnightblue" stroke="midnightblue" points="106.326,-30.0463 108.828,-19.7511 100.452,-26.239 106.326,-30.0463"/>
</g>
</g>
</svg>
