<?xml version="1.0" encoding="UTF-8" standalone="no"?>
<!DOCTYPE svg PUBLIC "-//W3C//DTD SVG 1.1//EN"
 "http://www.w3.org/Graphics/SVG/1.1/DTD/svg11.dtd">
<!-- Generated by graphviz version 2.38.0 (20140413.2041)
 -->
<!-- Title: Core/Event.hpp Pages: 1 -->
<svg width="3383pt" height="229pt"
 viewBox="0.00 0.00 3383.00 229.00" xmlns="http://www.w3.org/2000/svg" xmlns:xlink="http://www.w3.org/1999/xlink">
<g id="graph0" class="graph" transform="scale(1 1) rotate(0) translate(4 225)">
<title>Core/Event.hpp</title>
<polygon fill="white" stroke="none" points="-4,4 -4,-225 3379,-225 3379,4 -4,4"/>
<!-- Node1 -->
<g id="node1" class="node"><title>Node1</title>
<polygon fill="#bfbfbf" stroke="black" points="1435,-201.5 1435,-220.5 1520,-220.5 1520,-201.5 1435,-201.5"/>
<text text-anchor="middle" x="1477.5" y="-208.5" font-family="Helvetica,sans-Serif" font-size="10.00">Core/Event.hpp</text>
</g>
<!-- Node2 -->
<g id="node2" class="node"><title>Node2</title>
<g id="a_node2"><a xlink:href="Event_8cpp.html" target="_top" xlink:title="Core/Event.cpp">
<polygon fill="white" stroke="black" points="0,-140 0,-159 85,-159 85,-140 0,-140"/>
<text text-anchor="middle" x="42.5" y="-147" font-family="Helvetica,sans-Serif" font-size="10.00">Core/Event.cpp</text>
</a>
</g>
</g>
<!-- Node1&#45;&gt;Node2 -->
<g id="edge1" class="edge"><title>Node1&#45;&gt;Node2</title>
<path fill="none" stroke="midnightblue" d="M1424.56,-209.802C1204.64,-208.742 362.403,-202.283 99.5,-165 90.0978,-163.667 80.0045,-161.388 70.9629,-159.028"/>
<polygon fill="midnightblue" stroke="midnightblue" points="1424.84,-213.303 1434.86,-209.85 1424.88,-206.303 1424.84,-213.303"/>
</g>
<!-- Node3 -->
<g id="node3" class="node"><title>Node3</title>
<g id="a_node3"><a xlink:href="DataSet_8hpp.html" target="_top" xlink:title="Data/DataSet.hpp">
<polygon fill="white" stroke="black" points="1873,-140 1873,-159 1968,-159 1968,-140 1873,-140"/>
<text text-anchor="middle" x="1920.5" y="-147" font-family="Helvetica,sans-Serif" font-size="10.00">Data/DataSet.hpp</text>
</a>
</g>
</g>
<!-- Node1&#45;&gt;Node3 -->
<g id="edge2" class="edge"><title>Node1&#45;&gt;Node3</title>
<path fill="none" stroke="midnightblue" d="M1530.3,-202.908C1617.32,-191.221 1789.49,-168.096 1872.94,-156.888"/>
<polygon fill="midnightblue" stroke="midnightblue" points="1529.82,-199.441 1520.38,-204.241 1530.76,-206.378 1529.82,-199.441"/>
</g>
<!-- Node8 -->
<g id="node8" class="node"><title>Node8</title>
<g id="a_node8"><a xlink:href="RootEfficiency_8cpp.html" target="_top" xlink:title="Data/Root/RootEfficiency.cpp">
<polygon fill="white" stroke="black" points="2388.5,-73 2388.5,-92 2536.5,-92 2536.5,-73 2388.5,-73"/>
<text text-anchor="middle" x="2462.5" y="-80" font-family="Helvetica,sans-Serif" font-size="10.00">Data/Root/RootEfficiency.cpp</text>
</a>
</g>
</g>
<!-- Node1&#45;&gt;Node8 -->
<g id="edge47" class="edge"><title>Node1&#45;&gt;Node8</title>
<path fill="none" stroke="midnightblue" d="M1530.64,-208.756C1642.11,-205.576 1896.72,-195.149 1977.5,-165 1999.57,-156.762 1998.47,-142.35 2020.5,-134 2170.45,-77.1673 2220.63,-119.813 2379.5,-98 2391.82,-96.3087 2405.11,-94.142 2417.36,-92.002"/>
<polygon fill="midnightblue" stroke="midnightblue" points="1530.21,-205.267 1520.31,-209.042 1530.41,-212.264 1530.21,-205.267"/>
</g>
<!-- Node11 -->
<g id="node11" class="node"><title>Node11</title>
<g id="a_node11"><a xlink:href="DalitzFitD03K_8cpp.html" target="_top" xlink:title="Executable for Dalitz plot analysis of the decay D0 &#45;&gt; K_S K+ K&#45;. ">
<polygon fill="white" stroke="black" points="522,-0.5 522,-30.5 665,-30.5 665,-0.5 522,-0.5"/>
<text text-anchor="start" x="530" y="-18.5" font-family="Helvetica,sans-Serif" font-size="10.00">Examples/DalitzAnalysis</text>
<text text-anchor="middle" x="593.5" y="-7.5" font-family="Helvetica,sans-Serif" font-size="10.00">_D0KsKK/DalitzFitD03K.cpp</text>
</a>
</g>
</g>
<!-- Node1&#45;&gt;Node11 -->
<g id="edge50" class="edge"><title>Node1&#45;&gt;Node11</title>
<path fill="none" stroke="midnightblue" d="M1424.66,-209.999C1204.34,-209.732 365.116,-206.01 254.5,-165 209.724,-148.4 191.218,-141.026 170.5,-98 164.523,-85.5864 161.353,-77.3036 170.5,-67 171.948,-65.3688 401.211,-38.6903 521.564,-24.7862"/>
<polygon fill="midnightblue" stroke="midnightblue" points="1424.67,-213.499 1434.68,-210.009 1424.68,-206.499 1424.67,-213.499"/>
</g>
<!-- Node15 -->
<g id="node15" class="node"><title>Node15</title>
<g id="a_node15"><a xlink:href="EvtGenIF_8hpp.html" target="_top" xlink:title="Physics/EvtGen/EvtGenIF.hpp">
<polygon fill="white" stroke="red" points="2554.5,-73 2554.5,-92 2706.5,-92 2706.5,-73 2554.5,-73"/>
<text text-anchor="middle" x="2630.5" y="-80" font-family="Helvetica,sans-Serif" font-size="10.00">Physics/EvtGen/EvtGenIF.hpp</text>
</a>
</g>
</g>
<!-- Node1&#45;&gt;Node15 -->
<g id="edge51" class="edge"><title>Node1&#45;&gt;Node15</title>
<path fill="none" stroke="midnightblue" d="M1530.54,-208.923C1647.59,-206.002 1924.59,-195.943 2012.5,-165 2035.75,-156.814 2035.2,-142.068 2058.5,-134 2263.58,-62.9746 2330.06,-124.278 2545.5,-98 2558.43,-96.4231 2572.39,-94.2433 2585.18,-92.0526"/>
<polygon fill="midnightblue" stroke="midnightblue" points="1530.3,-205.428 1520.39,-209.169 1530.47,-212.426 1530.3,-205.428"/>
</g>
<!-- Node16 -->
<g id="node16" class="node"><title>Node16</title>
<g id="a_node16"><a xlink:href="DalitzKinematics_8cpp.html" target="_top" xlink:title="Physics/EvtGen/DalitzKinematics.cpp">
<polygon fill="white" stroke="black" points="2724.5,-73 2724.5,-92 2908.5,-92 2908.5,-73 2724.5,-73"/>
<text text-anchor="middle" x="2816.5" y="-80" font-family="Helvetica,sans-Serif" font-size="10.00">Physics/EvtGen/DalitzKinematics.cpp</text>
</a>
</g>
</g>
<!-- Node1&#45;&gt;Node16 -->
<g id="edge52" class="edge"><title>Node1&#45;&gt;Node16</title>
<path fill="none" stroke="midnightblue" d="M1530.66,-209.195C1653.62,-206.791 1954.41,-197.655 2049.5,-165 2073.17,-156.873 2072.75,-141.885 2096.5,-134 2227.27,-90.58 2578.41,-111.803 2715.5,-98 2731.01,-96.4384 2747.79,-94.2371 2763.14,-92.0203"/>
<polygon fill="midnightblue" stroke="midnightblue" points="1530.3,-205.701 1520.37,-209.388 1530.43,-212.7 1530.3,-205.701"/>
</g>
<!-- Node17 -->
<g id="node17" class="node"><title>Node17</title>
<g id="a_node17"><a xlink:href="HelicityKinematics_8cpp.html" target="_top" xlink:title="Physics/HelicityFormalism\l/HelicityKinematics.cpp">
<polygon fill="white" stroke="black" points="2926.5,-67.5 2926.5,-97.5 3060.5,-97.5 3060.5,-67.5 2926.5,-67.5"/>
<text text-anchor="start" x="2934.5" y="-85.5" font-family="Helvetica,sans-Serif" font-size="10.00">Physics/HelicityFormalism</text>
<text text-anchor="middle" x="2993.5" y="-74.5" font-family="Helvetica,sans-Serif" font-size="10.00">/HelicityKinematics.cpp</text>
</a>
</g>
</g>
<!-- Node1&#45;&gt;Node17 -->
<g id="edge53" class="edge"><title>Node1&#45;&gt;Node17</title>
<path fill="none" stroke="midnightblue" d="M1530.41,-209.434C1658.86,-207.526 1984.09,-199.347 2086.5,-165 2110.58,-156.925 2110.31,-141.74 2134.5,-134 2300.4,-80.9147 2744.51,-118.374 2917.5,-98 2920.43,-97.6543 2923.43,-97.261 2926.44,-96.8308"/>
<polygon fill="midnightblue" stroke="midnightblue" points="1530.01,-205.939 1520.06,-209.581 1530.11,-212.939 1530.01,-205.939"/>
</g>
<!-- Node20 -->
<g id="node20" class="node"><title>Node20</title>
<g id="a_node20"><a xlink:href="DalitzPlot_8cpp.html" target="_top" xlink:title="Tools/Plotting/DalitzPlot.cpp">
<polygon fill="white" stroke="black" points="3079,-73 3079,-92 3220,-92 3220,-73 3079,-73"/>
<text text-anchor="middle" x="3149.5" y="-80" font-family="Helvetica,sans-Serif" font-size="10.00">Tools/Plotting/DalitzPlot.cpp</text>
</a>
</g>
</g>
<!-- Node1&#45;&gt;Node20 -->
<g id="edge54" class="edge"><title>Node1&#45;&gt;Node20</title>
<path fill="none" stroke="midnightblue" d="M1530.09,-209.964C1664.09,-209.296 2015.42,-203.784 2124.5,-165 2147.04,-156.986 2145.84,-141.68 2168.5,-134 2358.27,-69.6647 2870.32,-119.922 3069.5,-98 3082.27,-96.5948 3096.07,-94.3564 3108.55,-92.0547"/>
<polygon fill="midnightblue" stroke="midnightblue" points="1530.06,-206.464 1520.07,-210.006 1530.09,-213.463 1530.06,-206.464"/>
</g>
<!-- Node22 -->
<g id="node22" class="node"><title>Node22</title>
<g id="a_node22"><a xlink:href="Generator_8hpp.html" target="_top" xlink:title="Core/Generator.hpp">
<polygon fill="white" stroke="black" points="765.5,-140 765.5,-159 867.5,-159 867.5,-140 765.5,-140"/>
<text text-anchor="middle" x="816.5" y="-147" font-family="Helvetica,sans-Serif" font-size="10.00">Core/Generator.hpp</text>
</a>
</g>
</g>
<!-- Node1&#45;&gt;Node22 -->
<g id="edge24" class="edge"><title>Node1&#45;&gt;Node22</title>
<path fill="none" stroke="midnightblue" d="M1424.74,-205.298C1333.28,-197.139 1139.34,-179.814 975.5,-165 939.474,-161.743 898.86,-158.038 867.697,-155.189"/>
<polygon fill="midnightblue" stroke="midnightblue" points="1424.58,-208.797 1434.85,-206.2 1425.21,-201.825 1424.58,-208.797"/>
</g>
<!-- Node23 -->
<g id="node23" class="node"><title>Node23</title>
<g id="a_node23"><a xlink:href="EvtGenGenerator_8hpp.html" target="_top" xlink:title="Data/EvtGen/EvtGenGenerator.hpp">
<polygon fill="white" stroke="red" points="554,-73 554,-92 725,-92 725,-73 554,-73"/>
<text text-anchor="middle" x="639.5" y="-80" font-family="Helvetica,sans-Serif" font-size="10.00">Data/EvtGen/EvtGenGenerator.hpp</text>
</a>
</g>
</g>
<!-- Node1&#45;&gt;Node23 -->
<g id="edge38" class="edge"><title>Node1&#45;&gt;Node23</title>
<path fill="none" stroke="midnightblue" d="M1424.55,-210.373C1279.76,-210.813 879.837,-207.989 756.5,-165 710.684,-149.031 666.44,-109.741 648.218,-92.2006"/>
<polygon fill="midnightblue" stroke="midnightblue" points="1424.95,-213.872 1434.94,-210.334 1424.92,-206.872 1424.95,-213.872"/>
</g>
<!-- Node26 -->
<g id="node26" class="node"><title>Node26</title>
<g id="a_node26"><a xlink:href="RootGenerator_8cpp.html" target="_top" xlink:title="Data/Root/RootGenerator.cpp">
<polygon fill="white" stroke="black" points="310,-6 310,-25 457,-25 457,-6 310,-6"/>
<text text-anchor="middle" x="383.5" y="-13" font-family="Helvetica,sans-Serif" font-size="10.00">Data/Root/RootGenerator.cpp</text>
</a>
</g>
</g>
<!-- Node1&#45;&gt;Node26 -->
<g id="edge48" class="edge"><title>Node1&#45;&gt;Node26</title>
<path fill="none" stroke="midnightblue" d="M1424.81,-209.704C1189.44,-208.188 243.404,-199.933 191.5,-165 153.711,-139.567 133.087,-102.603 161.5,-67 179.93,-43.9068 252.545,-30.5633 309.773,-23.4579"/>
<polygon fill="midnightblue" stroke="midnightblue" points="1424.81,-213.204 1434.84,-209.768 1424.86,-206.205 1424.81,-213.204"/>
</g>
<!-- Node27 -->
<g id="node27" class="node"><title>Node27</title>
<g id="a_node27"><a xlink:href="AsciiDataIO_8hpp.html" target="_top" xlink:title="Data/Ascii/AsciiDataIO.hpp">
<polygon fill="white" stroke="black" points="2177,-140 2177,-159 2314,-159 2314,-140 2177,-140"/>
<text text-anchor="middle" x="2245.5" y="-147" font-family="Helvetica,sans-Serif" font-size="10.00">Data/Ascii/AsciiDataIO.hpp</text>
</a>
</g>
</g>
<!-- Node1&#45;&gt;Node27 -->
<g id="edge33" class="edge"><title>Node1&#45;&gt;Node27</title>
<path fill="none" stroke="midnightblue" d="M1530.43,-208.459C1645.68,-204.679 1927.83,-193.124 2162.5,-165 2175.28,-163.468 2189.08,-161.276 2201.69,-159.059"/>
<polygon fill="midnightblue" stroke="midnightblue" points="1530.01,-204.97 1520.13,-208.79 1530.24,-211.967 1530.01,-204.97"/>
</g>
<!-- Node29 -->
<g id="node29" class="node"><title>Node29</title>
<g id="a_node29"><a xlink:href="DataCorrection_8hpp.html" target="_top" xlink:title="Data/DataCorrection.hpp">
<polygon fill="white" stroke="black" points="264,-140 264,-159 389,-159 389,-140 264,-140"/>
<text text-anchor="middle" x="326.5" y="-147" font-family="Helvetica,sans-Serif" font-size="10.00">Data/DataCorrection.hpp</text>
</a>
</g>
</g>
<!-- Node1&#45;&gt;Node29 -->
<g id="edge35" class="edge"><title>Node1&#45;&gt;Node29</title>
<path fill="none" stroke="midnightblue" d="M1424.76,-208.899C1236.88,-204.804 600.707,-189.424 398.5,-165 386.98,-163.609 374.553,-161.374 363.318,-159.072"/>
<polygon fill="midnightblue" stroke="midnightblue" points="1424.86,-212.401 1434.93,-209.119 1425.01,-205.403 1424.86,-212.401"/>
</g>
<!-- Node31 -->
<g id="node31" class="node"><title>Node31</title>
<g id="a_node31"><a xlink:href="Generate_8hpp.html" target="_top" xlink:title="Some useful functions for Monte&#45;Carlo event generation. ">
<polygon fill="white" stroke="black" points="985,-140 985,-159 1084,-159 1084,-140 985,-140"/>
<text text-anchor="middle" x="1034.5" y="-147" font-family="Helvetica,sans-Serif" font-size="10.00">Data/Generate.hpp</text>
</a>
</g>
</g>
<!-- Node1&#45;&gt;Node31 -->
<g id="edge39" class="edge"><title>Node1&#45;&gt;Node31</title>
<path fill="none" stroke="midnightblue" d="M1424.51,-202.883C1338.15,-191.284 1168.25,-168.464 1084.12,-157.164"/>
<polygon fill="midnightblue" stroke="midnightblue" points="1424.24,-206.378 1434.62,-204.241 1425.18,-199.441 1424.24,-206.378"/>
</g>
<!-- Node32 -->
<g id="node32" class="node"><title>Node32</title>
<g id="a_node32"><a xlink:href="RootDataIO_8hpp.html" target="_top" xlink:title="Data/Root/RootDataIO.hpp">
<polygon fill="white" stroke="black" points="407.5,-140 407.5,-159 543.5,-159 543.5,-140 407.5,-140"/>
<text text-anchor="middle" x="475.5" y="-147" font-family="Helvetica,sans-Serif" font-size="10.00">Data/Root/RootDataIO.hpp</text>
</a>
</g>
</g>
<!-- Node1&#45;&gt;Node32 -->
<g id="edge44" class="edge"><title>Node1&#45;&gt;Node32</title>
<path fill="none" stroke="midnightblue" d="M1424.49,-207.337C1295.88,-200.809 957.079,-183.211 674.5,-165 630.944,-162.193 582.056,-158.636 543.636,-155.748"/>
<polygon fill="midnightblue" stroke="midnightblue" points="1424.66,-210.85 1434.83,-207.861 1425.02,-203.859 1424.66,-210.85"/>
</g>
<!-- Node33 -->
<g id="node33" class="node"><title>Node33</title>
<g id="a_node33"><a xlink:href="SumMinLogLH_8cpp.html" target="_top" xlink:title="Estimator/MinLogLH\l/SumMinLogLH.cpp">
<polygon fill="white" stroke="black" points="2332.5,-134.5 2332.5,-164.5 2438.5,-164.5 2438.5,-134.5 2332.5,-134.5"/>
<text text-anchor="start" x="2340.5" y="-152.5" font-family="Helvetica,sans-Serif" font-size="10.00">Estimator/MinLogLH</text>
<text text-anchor="middle" x="2385.5" y="-141.5" font-family="Helvetica,sans-Serif" font-size="10.00">/SumMinLogLH.cpp</text>
</a>
</g>
</g>
<!-- Node1&#45;&gt;Node33 -->
<g id="edge49" class="edge"><title>Node1&#45;&gt;Node33</title>
<path fill="none" stroke="midnightblue" d="M1530.36,-210.417C1663.97,-210.775 2025.77,-207.394 2323.5,-165 2326.35,-164.595 2329.25,-164.122 2332.18,-163.601"/>
<polygon fill="midnightblue" stroke="midnightblue" points="1530.02,-206.916 1520.01,-210.381 1530,-213.916 1530.02,-206.916"/>
</g>
<!-- Node4 -->
<g id="node4" class="node"><title>Node4</title>
<g id="a_node4"><a xlink:href="FunctionTreeIntensity_8cpp.html" target="_top" xlink:title="Core/FunctionTree/Function\lTreeIntensity.cpp">
<polygon fill="white" stroke="black" points="1754.5,-67.5 1754.5,-97.5 1892.5,-97.5 1892.5,-67.5 1754.5,-67.5"/>
<text text-anchor="start" x="1762.5" y="-85.5" font-family="Helvetica,sans-Serif" font-size="10.00">Core/FunctionTree/Function</text>
<text text-anchor="middle" x="1823.5" y="-74.5" font-family="Helvetica,sans-Serif" font-size="10.00">TreeIntensity.cpp</text>
</a>
</g>
</g>
<!-- Node3&#45;&gt;Node4 -->
<g id="edge3" class="edge"><title>Node3&#45;&gt;Node4</title>
<path fill="none" stroke="midnightblue" d="M1899.09,-134.153C1882.86,-123.275 1860.66,-108.403 1844.53,-97.589"/>
<polygon fill="midnightblue" stroke="midnightblue" points="1897.16,-137.075 1907.42,-139.734 1901.06,-131.259 1897.16,-137.075"/>
</g>
<!-- Node5 -->
<g id="node5" class="node"><title>Node5</title>
<g id="a_node5"><a xlink:href="ParameterList_8cpp.html" target="_top" xlink:title="Core/FunctionTree/Parameter\lList.cpp">
<polygon fill="white" stroke="black" points="1948.5,-67.5 1948.5,-97.5 2094.5,-97.5 2094.5,-67.5 1948.5,-67.5"/>
<text text-anchor="start" x="1956.5" y="-85.5" font-family="Helvetica,sans-Serif" font-size="10.00">Core/FunctionTree/Parameter</text>
<text text-anchor="middle" x="2021.5" y="-74.5" font-family="Helvetica,sans-Serif" font-size="10.00">List.cpp</text>
</a>
</g>
</g>
<!-- Node3&#45;&gt;Node5 -->
<g id="edge4" class="edge"><title>Node3&#45;&gt;Node5</title>
<path fill="none" stroke="midnightblue" d="M1942.79,-134.153C1959.7,-123.275 1982.8,-108.403 1999.61,-97.589"/>
<polygon fill="midnightblue" stroke="midnightblue" points="1940.64,-131.379 1934.12,-139.734 1944.42,-137.265 1940.64,-131.379"/>
</g>
<!-- Node6 -->
<g id="node6" class="node"><title>Node6</title>
<g id="a_node6"><a xlink:href="DataSet_8cpp.html" target="_top" xlink:title="Data/DataSet.cpp">
<polygon fill="white" stroke="black" points="2113,-73 2113,-92 2208,-92 2208,-73 2113,-73"/>
<text text-anchor="middle" x="2160.5" y="-80" font-family="Helvetica,sans-Serif" font-size="10.00">Data/DataSet.cpp</text>
</a>
</g>
</g>
<!-- Node3&#45;&gt;Node6 -->
<g id="edge5" class="edge"><title>Node3&#45;&gt;Node6</title>
<path fill="none" stroke="midnightblue" d="M1962.03,-137.253C2009.46,-124.405 2086.04,-103.667 2128.88,-92.0637"/>
<polygon fill="midnightblue" stroke="midnightblue" points="1961.11,-133.876 1952.37,-139.869 1962.94,-140.633 1961.11,-133.876"/>
</g>
<!-- Node7 -->
<g id="node7" class="node"><title>Node7</title>
<g id="a_node7"><a xlink:href="Generate_8cpp.html" target="_top" xlink:title="Data/Generate.cpp">
<polygon fill="white" stroke="black" points="985,-73 985,-92 1084,-92 1084,-73 985,-73"/>
<text text-anchor="middle" x="1034.5" y="-80" font-family="Helvetica,sans-Serif" font-size="10.00">Data/Generate.cpp</text>
</a>
</g>
</g>
<!-- Node3&#45;&gt;Node7 -->
<g id="edge6" class="edge"><title>Node3&#45;&gt;Node7</title>
<path fill="none" stroke="midnightblue" d="M1862.89,-148.15C1728.36,-146.638 1383.35,-138.746 1098.5,-98 1088.35,-96.5481 1077.43,-94.3249 1067.53,-92.0522"/>
<polygon fill="midnightblue" stroke="midnightblue" points="1862.93,-151.65 1872.97,-148.255 1863.01,-144.651 1862.93,-151.65"/>
</g>
<!-- Node3&#45;&gt;Node8 -->
<g id="edge7" class="edge"><title>Node3&#45;&gt;Node8</title>
<path fill="none" stroke="midnightblue" d="M1963.12,-137.712C1969.58,-136.314 1976.2,-135.018 1982.5,-134 2157.4,-105.759 2203.87,-121.264 2379.5,-98 2391.97,-96.3481 2405.43,-94.1697 2417.81,-92.0049"/>
<polygon fill="midnightblue" stroke="midnightblue" points="1962.13,-134.346 1953.15,-139.966 1963.68,-141.174 1962.13,-134.346"/>
</g>
<!-- Node9 -->
<g id="node9" class="node"><title>Node9</title>
<g id="a_node9"><a xlink:href="MinLogLH_8cpp.html" target="_top" xlink:title="Estimator/MinLogLH\l/MinLogLH.cpp">
<polygon fill="white" stroke="black" points="2264.5,-67.5 2264.5,-97.5 2370.5,-97.5 2370.5,-67.5 2264.5,-67.5"/>
<text text-anchor="start" x="2272.5" y="-85.5" font-family="Helvetica,sans-Serif" font-size="10.00">Estimator/MinLogLH</text>
<text text-anchor="middle" x="2317.5" y="-74.5" font-family="Helvetica,sans-Serif" font-size="10.00">/MinLogLH.cpp</text>
</a>
</g>
</g>
<!-- Node3&#45;&gt;Node9 -->
<g id="edge8" class="edge"><title>Node3&#45;&gt;Node9</title>
<path fill="none" stroke="midnightblue" d="M1964.48,-137.664C1970.52,-136.338 1976.65,-135.075 1982.5,-134 2100.7,-112.291 2132.12,-118.727 2250.5,-98 2254.95,-97.22 2259.56,-96.3521 2264.18,-95.4396"/>
<polygon fill="midnightblue" stroke="midnightblue" points="1963.47,-134.306 1954.49,-139.931 1965.01,-141.132 1963.47,-134.306"/>
</g>
<!-- Node10 -->
<g id="node10" class="node"><title>Node10</title>
<g id="a_node10"><a xlink:href="BuilderXML_8hpp.html" target="_top" xlink:title="Physics/BuilderXML.hpp">
<polygon fill="white" stroke="red" points="1178.5,-73 1178.5,-92 1302.5,-92 1302.5,-73 1178.5,-73"/>
<text text-anchor="middle" x="1240.5" y="-80" font-family="Helvetica,sans-Serif" font-size="10.00">Physics/BuilderXML.hpp</text>
</a>
</g>
</g>
<!-- Node3&#45;&gt;Node10 -->
<g id="edge9" class="edge"><title>Node3&#45;&gt;Node10</title>
<path fill="none" stroke="midnightblue" d="M1862.83,-146.003C1754.41,-140.802 1512.95,-126.819 1311.5,-98 1300.54,-96.4321 1288.73,-94.2288 1277.94,-92.0122"/>
<polygon fill="midnightblue" stroke="midnightblue" points="1862.75,-149.503 1872.91,-146.479 1863.08,-142.511 1862.75,-149.503"/>
</g>
<!-- Node12 -->
<g id="node12" class="node"><title>Node12</title>
<g id="a_node12"><a xlink:href="DalitzFitApp_8cpp.html" target="_top" xlink:title="Simple Dalitz plot analysis with ComPWA. ">
<polygon fill="white" stroke="black" points="956.5,-0.5 956.5,-30.5 1056.5,-30.5 1056.5,-0.5 956.5,-0.5"/>
<text text-anchor="start" x="964.5" y="-18.5" font-family="Helvetica,sans-Serif" font-size="10.00">Examples/DalitzFit</text>
<text text-anchor="middle" x="1006.5" y="-7.5" font-family="Helvetica,sans-Serif" font-size="10.00">/DalitzFitApp.cpp</text>
</a>
</g>
</g>
<!-- Node3&#45;&gt;Node12 -->
<g id="edge14" class="edge"><title>Node3&#45;&gt;Node12</title>
<path fill="none" stroke="midnightblue" d="M1862.82,-147.557C1710.46,-144.598 1300.01,-133.474 1169.5,-98 1141.49,-90.3861 1069.88,-51.8129 1031.57,-30.5755"/>
<polygon fill="midnightblue" stroke="midnightblue" points="1862.84,-151.058 1872.91,-147.748 1862.98,-144.059 1862.84,-151.058"/>
</g>
<!-- Node13 -->
<g id="node13" class="node"><title>Node13</title>
<g id="a_node13"><a xlink:href="SimFit_8cpp.html" target="_top" xlink:title="Examples/SimFit/SimFit.cpp">
<polygon fill="white" stroke="black" points="1124.5,-6 1124.5,-25 1266.5,-25 1266.5,-6 1124.5,-6"/>
<text text-anchor="middle" x="1195.5" y="-13" font-family="Helvetica,sans-Serif" font-size="10.00">Examples/SimFit/SimFit.cpp</text>
</a>
</g>
</g>
<!-- Node3&#45;&gt;Node13 -->
<g id="edge16" class="edge"><title>Node3&#45;&gt;Node13</title>
<path fill="none" stroke="midnightblue" d="M1921.94,-129.871C1922.26,-110.946 1919.43,-82.304 1901.5,-67 1853.98,-26.4368 1436.39,-18.4513 1266.71,-16.8824"/>
<polygon fill="midnightblue" stroke="midnightblue" points="1918.43,-129.799 1921.45,-139.956 1925.43,-130.137 1918.43,-129.799"/>
</g>
<!-- Node14 -->
<g id="node14" class="node"><title>Node14</title>
<g id="a_node14"><a xlink:href="BuilderXML_8cpp.html" target="_top" xlink:title="Physics/BuilderXML.cpp">
<polygon fill="white" stroke="black" points="1751.5,-6 1751.5,-25 1875.5,-25 1875.5,-6 1751.5,-6"/>
<text text-anchor="middle" x="1813.5" y="-13" font-family="Helvetica,sans-Serif" font-size="10.00">Physics/BuilderXML.cpp</text>
</a>
</g>
</g>
<!-- Node3&#45;&gt;Node14 -->
<g id="edge17" class="edge"><title>Node3&#45;&gt;Node14</title>
<path fill="none" stroke="midnightblue" d="M1964.72,-137.717C1970.68,-136.393 1976.73,-135.115 1982.5,-134 2089.13,-113.395 2289.38,-148.42 2217.5,-67 2195.28,-41.8294 1983.5,-26.2039 1875.78,-19.82"/>
<polygon fill="midnightblue" stroke="midnightblue" points="1963.8,-134.335 1954.83,-139.969 1965.36,-141.16 1963.8,-134.335"/>
</g>
<!-- Node3&#45;&gt;Node15 -->
<g id="edge15" class="edge"><title>Node3&#45;&gt;Node15</title>
<path fill="none" stroke="midnightblue" d="M1978.12,-139.387C1991.97,-137.406 2006.74,-135.467 2020.5,-134 2253.06,-109.201 2313.26,-125.7 2545.5,-98 2558.58,-96.4398 2572.71,-94.2388 2585.63,-92.022"/>
<polygon fill="midnightblue" stroke="midnightblue" points="1977.61,-135.924 1968.22,-140.831 1978.62,-142.851 1977.61,-135.924"/>
</g>
<!-- Node3&#45;&gt;Node16 -->
<g id="edge18" class="edge"><title>Node3&#45;&gt;Node16</title>
<path fill="none" stroke="midnightblue" d="M1977.98,-141.812C2002.73,-139.1 2032.01,-136.116 2058.5,-134 2350.01,-110.713 2424.48,-126.807 2715.5,-98 2731.1,-96.4557 2747.99,-94.2462 2763.4,-92.0161"/>
<polygon fill="midnightblue" stroke="midnightblue" points="1977.58,-138.335 1968.03,-142.914 1978.35,-145.292 1977.58,-138.335"/>
</g>
<!-- Node3&#45;&gt;Node17 -->
<g id="edge19" class="edge"><title>Node3&#45;&gt;Node17</title>
<path fill="none" stroke="midnightblue" d="M1978.58,-143.152C2012.86,-140.135 2057.12,-136.484 2096.5,-134 2461.01,-111.001 2554.72,-140.335 2917.5,-98 2920.44,-97.6575 2923.43,-97.2667 2926.44,-96.8386"/>
<polygon fill="midnightblue" stroke="midnightblue" points="1977.92,-139.696 1968.27,-144.066 1978.54,-146.668 1977.92,-139.696"/>
</g>
<!-- Node18 -->
<g id="node18" class="node"><title>Node18</title>
<g id="a_node18"><a xlink:href="FitFractions_8cpp.html" target="_top" xlink:title="Tools/FitFractions.cpp">
<polygon fill="white" stroke="black" points="1320.5,-73 1320.5,-92 1434.5,-92 1434.5,-73 1320.5,-73"/>
<text text-anchor="middle" x="1377.5" y="-80" font-family="Helvetica,sans-Serif" font-size="10.00">Tools/FitFractions.cpp</text>
</a>
</g>
</g>
<!-- Node3&#45;&gt;Node18 -->
<g id="edge20" class="edge"><title>Node3&#45;&gt;Node18</title>
<path fill="none" stroke="midnightblue" d="M1862.88,-144.472C1772.94,-137.718 1593.88,-122.403 1443.5,-98 1433.54,-96.384 1422.82,-94.2173 1412.98,-92.0524"/>
<polygon fill="midnightblue" stroke="midnightblue" points="1862.64,-147.964 1872.88,-145.215 1863.16,-140.983 1862.64,-147.964"/>
</g>
<!-- Node19 -->
<g id="node19" class="node"><title>Node19</title>
<g id="a_node19"><a xlink:href="Integration_8cpp.html" target="_top" xlink:title="Tools/Integration.cpp">
<polygon fill="white" stroke="black" points="1452.5,-73 1452.5,-92 1560.5,-92 1560.5,-73 1452.5,-73"/>
<text text-anchor="middle" x="1506.5" y="-80" font-family="Helvetica,sans-Serif" font-size="10.00">Tools/Integration.cpp</text>
</a>
</g>
</g>
<!-- Node3&#45;&gt;Node19 -->
<g id="edge21" class="edge"><title>Node3&#45;&gt;Node19</title>
<path fill="none" stroke="midnightblue" d="M1862.55,-141.666C1792.76,-133.088 1672.11,-117.155 1569.5,-98 1560.34,-96.2905 1550.5,-94.1653 1541.38,-92.0737"/>
<polygon fill="midnightblue" stroke="midnightblue" points="1862.54,-145.19 1872.89,-142.928 1863.39,-138.241 1862.54,-145.19"/>
</g>
<!-- Node3&#45;&gt;Node20 -->
<g id="edge22" class="edge"><title>Node3&#45;&gt;Node20</title>
<path fill="none" stroke="midnightblue" d="M1978.08,-144.141C2021.15,-140.993 2081.48,-136.816 2134.5,-134 2549.78,-111.941 2656.1,-143.195 3069.5,-98 3082.27,-96.604 3096.07,-94.3683 3108.55,-92.0663"/>
<polygon fill="midnightblue" stroke="midnightblue" points="1977.79,-140.653 1968.07,-144.877 1978.3,-147.634 1977.79,-140.653"/>
</g>
<!-- Node21 -->
<g id="node21" class="node"><title>Node21</title>
<g id="a_node21"><a xlink:href="RootPlotData_8cpp.html" target="_top" xlink:title="Tools/Plotting/RootPlotData.cpp">
<polygon fill="white" stroke="black" points="1578.5,-73 1578.5,-92 1736.5,-92 1736.5,-73 1578.5,-73"/>
<text text-anchor="middle" x="1657.5" y="-80" font-family="Helvetica,sans-Serif" font-size="10.00">Tools/Plotting/RootPlotData.cpp</text>
</a>
</g>
</g>
<!-- Node3&#45;&gt;Node21 -->
<g id="edge23" class="edge"><title>Node3&#45;&gt;Node21</title>
<path fill="none" stroke="midnightblue" d="M1875.93,-137.484C1824.05,-124.663 1739.48,-103.76 1692.23,-92.0834"/>
<polygon fill="midnightblue" stroke="midnightblue" points="1875.3,-140.934 1885.85,-139.936 1876.98,-134.138 1875.3,-140.934"/>
</g>
<!-- Node10&#45;&gt;Node11 -->
<g id="edge10" class="edge"><title>Node10&#45;&gt;Node11</title>
<path fill="none" stroke="midnightblue" d="M1168.26,-74.2424C1043.56,-61.7151 789.384,-36.1793 665.12,-23.6952"/>
<polygon fill="midnightblue" stroke="midnightblue" points="1168.16,-77.7503 1178.46,-75.2675 1168.86,-70.7854 1168.16,-77.7503"/>
</g>
<!-- Node10&#45;&gt;Node12 -->
<g id="edge11" class="edge"><title>Node10&#45;&gt;Node12</title>
<path fill="none" stroke="midnightblue" d="M1199.78,-70.1889C1159.97,-59.1319 1099.29,-42.2748 1056.56,-30.4049"/>
<polygon fill="midnightblue" stroke="midnightblue" points="1198.85,-73.5643 1209.43,-72.8685 1200.73,-66.8197 1198.85,-73.5643"/>
</g>
<!-- Node10&#45;&gt;Node13 -->
<g id="edge12" class="edge"><title>Node10&#45;&gt;Node13</title>
<path fill="none" stroke="midnightblue" d="M1228.66,-64.4037C1219.92,-51.7729 1208.38,-35.1041 1201.47,-25.1273"/>
<polygon fill="midnightblue" stroke="midnightblue" points="1225.86,-66.5041 1234.43,-72.7338 1231.62,-62.5196 1225.86,-66.5041"/>
</g>
<!-- Node10&#45;&gt;Node14 -->
<g id="edge13" class="edge"><title>Node10&#45;&gt;Node14</title>
<path fill="none" stroke="midnightblue" d="M1288.58,-70.9961C1296.23,-69.5241 1304.06,-68.1306 1311.5,-67 1469.11,-43.0416 1656.34,-27.6247 1751.42,-20.7137"/>
<polygon fill="midnightblue" stroke="midnightblue" points="1287.82,-67.5789 1278.69,-72.9608 1289.19,-74.4446 1287.82,-67.5789"/>
</g>
<!-- Node22&#45;&gt;Node7 -->
<g id="edge26" class="edge"><title>Node22&#45;&gt;Node7</title>
<path fill="none" stroke="midnightblue" d="M855.036,-137.01C898.182,-124.145 967.107,-103.594 1005.78,-92.0637"/>
<polygon fill="midnightblue" stroke="midnightblue" points="854.032,-133.657 845.449,-139.869 856.032,-140.365 854.032,-133.657"/>
</g>
<!-- Node22&#45;&gt;Node23 -->
<g id="edge25" class="edge"><title>Node22&#45;&gt;Node23</title>
<path fill="none" stroke="midnightblue" d="M783.199,-136.271C748.069,-123.37 693.623,-103.376 662.82,-92.0637"/>
<polygon fill="midnightblue" stroke="midnightblue" points="782.402,-139.707 792.996,-139.869 784.815,-133.136 782.402,-139.707"/>
</g>
<!-- Node24 -->
<g id="node24" class="node"><title>Node24</title>
<g id="a_node24"><a xlink:href="RootDataIO_8cpp.html" target="_top" xlink:title="Data/Root/RootDataIO.cpp">
<polygon fill="white" stroke="black" points="399.5,-73 399.5,-92 535.5,-92 535.5,-73 399.5,-73"/>
<text text-anchor="middle" x="467.5" y="-80" font-family="Helvetica,sans-Serif" font-size="10.00">Data/Root/RootDataIO.cpp</text>
</a>
</g>
</g>
<!-- Node22&#45;&gt;Node24 -->
<g id="edge27" class="edge"><title>Node22&#45;&gt;Node24</title>
<path fill="none" stroke="midnightblue" d="M760.394,-138.127C705.391,-127.947 619.167,-111.962 544.5,-98 534.204,-96.0748 523.136,-93.9959 512.691,-92.03"/>
<polygon fill="midnightblue" stroke="midnightblue" points="759.821,-141.58 770.291,-139.958 761.095,-134.697 759.821,-141.58"/>
</g>
<!-- Node25 -->
<g id="node25" class="node"><title>Node25</title>
<g id="a_node25"><a xlink:href="RootGenerator_8hpp.html" target="_top" xlink:title="Data/Root/RootGenerator.hpp">
<polygon fill="white" stroke="black" points="743,-73 743,-92 890,-92 890,-73 743,-73"/>
<text text-anchor="middle" x="816.5" y="-80" font-family="Helvetica,sans-Serif" font-size="10.00">Data/Root/RootGenerator.hpp</text>
</a>
</g>
</g>
<!-- Node22&#45;&gt;Node25 -->
<g id="edge28" class="edge"><title>Node22&#45;&gt;Node25</title>
<path fill="none" stroke="midnightblue" d="M816.5,-129.537C816.5,-117.17 816.5,-101.62 816.5,-92.1273"/>
<polygon fill="midnightblue" stroke="midnightblue" points="813,-129.734 816.5,-139.734 820,-129.734 813,-129.734"/>
</g>
<!-- Node25&#45;&gt;Node11 -->
<g id="edge30" class="edge"><title>Node25&#45;&gt;Node11</title>
<path fill="none" stroke="midnightblue" d="M777.243,-70.0575C739.435,-59.0371 682.165,-42.3441 641.627,-30.5281"/>
<polygon fill="midnightblue" stroke="midnightblue" points="776.307,-73.4303 786.887,-72.8685 778.266,-66.7099 776.307,-73.4303"/>
</g>
<!-- Node25&#45;&gt;Node12 -->
<g id="edge31" class="edge"><title>Node25&#45;&gt;Node12</title>
<path fill="none" stroke="midnightblue" d="M851.606,-69.4899C883.818,-58.4702 931.544,-42.143 965.495,-30.5281"/>
<polygon fill="midnightblue" stroke="midnightblue" points="850.059,-66.32 841.731,-72.8685 852.325,-72.9431 850.059,-66.32"/>
</g>
<!-- Node25&#45;&gt;Node13 -->
<g id="edge32" class="edge"><title>Node25&#45;&gt;Node13</title>
<path fill="none" stroke="midnightblue" d="M876.591,-71.1942C951.024,-58.4285 1076.46,-36.9163 1145.75,-25.0317"/>
<polygon fill="midnightblue" stroke="midnightblue" points="875.702,-67.7955 866.437,-72.9355 876.885,-74.6947 875.702,-67.7955"/>
</g>
<!-- Node25&#45;&gt;Node26 -->
<g id="edge29" class="edge"><title>Node25&#45;&gt;Node26</title>
<path fill="none" stroke="midnightblue" d="M759.163,-71.2549C750.568,-69.7855 741.806,-68.3245 733.5,-67 633.314,-51.0246 516.631,-34.6314 446.495,-25.0163"/>
<polygon fill="midnightblue" stroke="midnightblue" points="758.688,-74.7245 769.137,-72.976 759.878,-67.8265 758.688,-74.7245"/>
</g>
<!-- Node28 -->
<g id="node28" class="node"><title>Node28</title>
<g id="a_node28"><a xlink:href="AsciiDataIO_8cpp.html" target="_top" xlink:title="Data/Ascii/AsciiDataIO.cpp">
<polygon fill="white" stroke="black" points="3238,-73 3238,-92 3375,-92 3375,-73 3238,-73"/>
<text text-anchor="middle" x="3306.5" y="-80" font-family="Helvetica,sans-Serif" font-size="10.00">Data/Ascii/AsciiDataIO.cpp</text>
</a>
</g>
</g>
<!-- Node27&#45;&gt;Node28 -->
<g id="edge34" class="edge"><title>Node27&#45;&gt;Node28</title>
<path fill="none" stroke="midnightblue" d="M2295.34,-138.13C2304.67,-136.505 2314.35,-135.027 2323.5,-134 2723.97,-89.0574 2829.08,-143.41 3229.5,-98 3241.8,-96.6051 3255.08,-94.3697 3267.1,-92.0676"/>
<polygon fill="midnightblue" stroke="midnightblue" points="2294.63,-134.703 2285.42,-139.936 2295.88,-141.59 2294.63,-134.703"/>
</g>
<!-- Node29&#45;&gt;Node11 -->
<g id="edge37" class="edge"><title>Node29&#45;&gt;Node11</title>
<path fill="none" stroke="midnightblue" d="M333.835,-130.554C342.445,-111.79 358.526,-82.9034 381.5,-67 404.132,-51.3334 469.52,-37.1621 521.753,-27.8473"/>
<polygon fill="midnightblue" stroke="midnightblue" points="330.597,-129.224 329.824,-139.791 337.018,-132.013 330.597,-129.224"/>
</g>
<!-- Node30 -->
<g id="node30" class="node"><title>Node30</title>
<g id="a_node30"><a xlink:href="DataCorrection_8cpp.html" target="_top" xlink:title="Data/DataCorrection.cpp">
<polygon fill="white" stroke="black" points="180,-73 180,-92 305,-92 305,-73 180,-73"/>
<text text-anchor="middle" x="242.5" y="-80" font-family="Helvetica,sans-Serif" font-size="10.00">Data/DataCorrection.cpp</text>
</a>
</g>
</g>
<!-- Node29&#45;&gt;Node30 -->
<g id="edge36" class="edge"><title>Node29&#45;&gt;Node30</title>
<path fill="none" stroke="midnightblue" d="M307.203,-133.568C290.622,-120.738 267.293,-102.685 253.649,-92.1273"/>
<polygon fill="midnightblue" stroke="midnightblue" points="305.121,-136.382 315.171,-139.734 309.405,-130.846 305.121,-136.382"/>
</g>
<!-- Node31&#45;&gt;Node7 -->
<g id="edge40" class="edge"><title>Node31&#45;&gt;Node7</title>
<path fill="none" stroke="midnightblue" d="M1034.5,-129.537C1034.5,-117.17 1034.5,-101.62 1034.5,-92.1273"/>
<polygon fill="midnightblue" stroke="midnightblue" points="1031,-129.734 1034.5,-139.734 1038,-129.734 1031,-129.734"/>
</g>
<!-- Node31&#45;&gt;Node11 -->
<g id="edge41" class="edge"><title>Node31&#45;&gt;Node11</title>
<path fill="none" stroke="midnightblue" d="M1015.27,-133.748C989.954,-115.11 943.374,-83.4812 898.5,-67 821.668,-38.7814 728.141,-26.2621 665.075,-20.7515"/>
<polygon fill="midnightblue" stroke="midnightblue" points="1013.49,-136.787 1023.6,-139.975 1017.69,-131.182 1013.49,-136.787"/>
</g>
<!-- Node31&#45;&gt;Node12 -->
<g id="edge42" class="edge"><title>Node31&#45;&gt;Node12</title>
<path fill="none" stroke="midnightblue" d="M1009.79,-134.584C996.993,-125.894 982.601,-113.424 975.5,-98 964.865,-74.8981 981.539,-47.0183 994.259,-30.5808"/>
<polygon fill="midnightblue" stroke="midnightblue" points="1007.96,-137.571 1018.28,-139.985 1011.72,-131.665 1007.96,-137.571"/>
</g>
<!-- Node31&#45;&gt;Node13 -->
<g id="edge43" class="edge"><title>Node31&#45;&gt;Node13</title>
<path fill="none" stroke="midnightblue" d="M1052.83,-133.473C1086.76,-105.654 1158.34,-46.968 1185.11,-25.0212"/>
<polygon fill="midnightblue" stroke="midnightblue" points="1050.58,-130.792 1045.06,-139.839 1055.02,-136.205 1050.58,-130.792"/>
</g>
<!-- Node32&#45;&gt;Node11 -->
<g id="edge46" class="edge"><title>Node32&#45;&gt;Node11</title>
<path fill="none" stroke="midnightblue" d="M437.564,-136.006C419.941,-128.079 400.671,-115.874 390.5,-98 383.686,-86.0253 382.015,-77.8548 390.5,-67 406.772,-46.1844 470.123,-32.7172 521.781,-24.9694"/>
<polygon fill="midnightblue" stroke="midnightblue" points="436.539,-139.371 447.117,-139.979 439.227,-132.907 436.539,-139.371"/>
</g>
<!-- Node32&#45;&gt;Node24 -->
<g id="edge45" class="edge"><title>Node32&#45;&gt;Node24</title>
<path fill="none" stroke="midnightblue" d="M473.166,-129.537C471.644,-117.17 469.73,-101.62 468.562,-92.1273"/>
<polygon fill="midnightblue" stroke="midnightblue" points="469.726,-130.236 474.421,-139.734 476.673,-129.381 469.726,-130.236"/>
</g>
</g>
</svg>
