<?xml version="1.0" encoding="UTF-8" standalone="no"?>
<!DOCTYPE svg PUBLIC "-//W3C//DTD SVG 1.1//EN"
 "http://www.w3.org/Graphics/SVG/1.1/DTD/svg11.dtd">
<!-- Generated by graphviz version 2.38.0 (20140413.2041)
 -->
<!-- Title: Data/EvtGen/EvtGenGenerator.hpp Pages: 1 -->
<svg width="347pt" height="263pt"
 viewBox="0.00 0.00 346.84 263.00" xmlns="http://www.w3.org/2000/svg" xmlns:xlink="http://www.w3.org/1999/xlink">
<g id="graph0" class="graph" transform="scale(1 1) rotate(0) translate(4 259)">
<title>Data/EvtGen/EvtGenGenerator.hpp</title>
<polygon fill="white" stroke="none" points="-4,4 -4,-259 342.84,-259 342.84,4 -4,4"/>
<!-- Node1 -->
<g id="node1" class="node"><title>Node1</title>
<polygon fill="#bfbfbf" stroke="black" points="33.3403,-235.5 33.3403,-254.5 204.34,-254.5 204.34,-235.5 33.3403,-235.5"/>
<text text-anchor="middle" x="118.84" y="-242.5" font-family="Helvetica,sans-Serif" font-size="10.00">Data/EvtGen/EvtGenGenerator.hpp</text>
</g>
<!-- Node2 -->
<g id="node2" class="node"><title>Node2</title>
<polygon fill="white" stroke="#bfbfbf" points="6.34029,-56.5 6.34029,-75.5 55.3403,-75.5 55.3403,-56.5 6.34029,-56.5"/>
<text text-anchor="middle" x="30.8403" y="-63.5" font-family="Helvetica,sans-Serif" font-size="10.00">random</text>
</g>
<!-- Node1&#45;&gt;Node2 -->
<g id="edge1" class="edge"><title>Node1&#45;&gt;Node2</title>
<path fill="none" stroke="midnightblue" d="M79.5782,-235.421C58.7864,-228.87 34.5736,-217.677 19.8403,-199 -4.37361,-168.305 -2.64187,-149.929 6.84029,-112 9.27899,-102.245 14.2769,-92.2896 19.0835,-84.231"/>
<polygon fill="midnightblue" stroke="midnightblue" points="22.0537,-86.0828 24.4735,-75.768 16.1494,-82.3225 22.0537,-86.0828"/>
</g>
<!-- Node3 -->
<g id="node3" class="node"><title>Node3</title>
<g id="a_node3"><a xlink:href="Event_8hpp.html" target="_top" xlink:title="Core/Event.hpp">
<polygon fill="white" stroke="black" points="130.34,-112.5 130.34,-131.5 215.34,-131.5 215.34,-112.5 130.34,-112.5"/>
<text text-anchor="middle" x="172.84" y="-119.5" font-family="Helvetica,sans-Serif" font-size="10.00">Core/Event.hpp</text>
</a>
</g>
</g>
<!-- Node1&#45;&gt;Node3 -->
<g id="edge2" class="edge"><title>Node1&#45;&gt;Node3</title>
<path fill="none" stroke="midnightblue" d="M122.935,-235.405C127.219,-226.372 134.105,-211.735 139.84,-199 148.671,-179.392 158.442,-156.766 165.043,-141.335"/>
<polygon fill="midnightblue" stroke="midnightblue" points="168.352,-142.498 169.057,-131.927 161.914,-139.751 168.352,-142.498"/>
</g>
<!-- Node6 -->
<g id="node6" class="node"><title>Node6</title>
<g id="a_node6"><a xlink:href="Generator_8hpp.html" target="_top" xlink:title="Core/Generator.hpp">
<polygon fill="white" stroke="black" points="28.8403,-174 28.8403,-193 130.84,-193 130.84,-174 28.8403,-174"/>
<text text-anchor="middle" x="79.8403" y="-181" font-family="Helvetica,sans-Serif" font-size="10.00">Core/Generator.hpp</text>
</a>
</g>
</g>
<!-- Node1&#45;&gt;Node6 -->
<g id="edge6" class="edge"><title>Node1&#45;&gt;Node6</title>
<path fill="none" stroke="midnightblue" d="M113.253,-235.475C107.46,-226.638 98.2513,-212.589 90.9668,-201.475"/>
<polygon fill="midnightblue" stroke="midnightblue" points="93.8269,-199.454 85.4177,-193.009 87.9724,-203.291 93.8269,-199.454"/>
</g>
<!-- Node8 -->
<g id="node8" class="node"><title>Node8</title>
<polygon fill="white" stroke="#bfbfbf" points="186.84,-168.5 186.84,-198.5 338.84,-198.5 338.84,-168.5 186.84,-168.5"/>
<text text-anchor="start" x="194.84" y="-186.5" font-family="Helvetica,sans-Serif" font-size="10.00">ThirdParty/EvtGen/EvtRandom</text>
<text text-anchor="middle" x="262.84" y="-175.5" font-family="Helvetica,sans-Serif" font-size="10.00">Engine.hh</text>
</g>
<!-- Node1&#45;&gt;Node8 -->
<g id="edge10" class="edge"><title>Node1&#45;&gt;Node8</title>
<path fill="none" stroke="midnightblue" d="M139.472,-235.475C160.251,-226.889 192.939,-213.383 219.449,-202.429"/>
<polygon fill="midnightblue" stroke="midnightblue" points="220.997,-205.577 228.902,-198.523 218.324,-199.107 220.997,-205.577"/>
</g>
<!-- Node4 -->
<g id="node4" class="node"><title>Node4</title>
<g id="a_node4"><a xlink:href="Particle_8hpp.html" target="_top" xlink:title="Particle and FourMomentum class. ">
<polygon fill="white" stroke="red" points="84.8403,-56.5 84.8403,-75.5 176.84,-75.5 176.84,-56.5 84.8403,-56.5"/>
<text text-anchor="middle" x="130.84" y="-63.5" font-family="Helvetica,sans-Serif" font-size="10.00">Core/Particle.hpp</text>
</a>
</g>
</g>
<!-- Node3&#45;&gt;Node4 -->
<g id="edge3" class="edge"><title>Node3&#45;&gt;Node4</title>
<path fill="none" stroke="midnightblue" d="M165.905,-112.083C159.911,-104.377 151.088,-93.0333 143.793,-83.6531"/>
<polygon fill="midnightblue" stroke="midnightblue" points="146.549,-81.4958 137.647,-75.7511 141.023,-85.7934 146.549,-81.4958"/>
</g>
<!-- Node5 -->
<g id="node5" class="node"><title>Node5</title>
<polygon fill="white" stroke="#bfbfbf" points="145.84,-0.5 145.84,-19.5 189.84,-19.5 189.84,-0.5 145.84,-0.5"/>
<text text-anchor="middle" x="167.84" y="-7.5" font-family="Helvetica,sans-Serif" font-size="10.00">vector</text>
</g>
<!-- Node3&#45;&gt;Node5 -->
<g id="edge5" class="edge"><title>Node3&#45;&gt;Node5</title>
<path fill="none" stroke="midnightblue" d="M176.804,-112.176C181.916,-99.6824 189.714,-76.115 185.84,-56 184.05,-46.7047 180.357,-36.8887 176.78,-28.8048"/>
<polygon fill="midnightblue" stroke="midnightblue" points="179.897,-27.2089 172.462,-19.6611 173.567,-30.1981 179.897,-27.2089"/>
</g>
<!-- Node4&#45;&gt;Node5 -->
<g id="edge4" class="edge"><title>Node4&#45;&gt;Node5</title>
<path fill="none" stroke="midnightblue" d="M136.95,-56.083C142.123,-48.5341 149.686,-37.4948 156.035,-28.2298"/>
<polygon fill="midnightblue" stroke="midnightblue" points="159.079,-29.9787 161.844,-19.7511 153.305,-26.0221 159.079,-29.9787"/>
</g>
<!-- Node6&#45;&gt;Node3 -->
<g id="edge7" class="edge"><title>Node6&#45;&gt;Node3</title>
<path fill="none" stroke="midnightblue" d="M93.1649,-173.975C108.22,-164.343 132.956,-148.517 150.877,-137.052"/>
<polygon fill="midnightblue" stroke="midnightblue" points="153.003,-139.847 159.54,-131.509 149.231,-133.95 153.003,-139.847"/>
</g>
<!-- Node7 -->
<g id="node7" class="node"><title>Node7</title>
<g id="a_node7"><a xlink:href="Random_8hpp.html" target="_top" xlink:title="Core/Random.hpp">
<polygon fill="white" stroke="black" points="15.8403,-112.5 15.8403,-131.5 111.84,-131.5 111.84,-112.5 15.8403,-112.5"/>
<text text-anchor="middle" x="63.8403" y="-119.5" font-family="Helvetica,sans-Serif" font-size="10.00">Core/Random.hpp</text>
</a>
</g>
</g>
<!-- Node6&#45;&gt;Node7 -->
<g id="edge8" class="edge"><title>Node6&#45;&gt;Node7</title>
<path fill="none" stroke="midnightblue" d="M77.5479,-173.975C75.2667,-165.492 71.6935,-152.204 68.7673,-141.322"/>
<polygon fill="midnightblue" stroke="midnightblue" points="72.1053,-140.257 66.1284,-131.509 65.3454,-142.075 72.1053,-140.257"/>
</g>
<!-- Node7&#45;&gt;Node2 -->
<g id="edge9" class="edge"><title>Node7&#45;&gt;Node2</title>
<path fill="none" stroke="midnightblue" d="M58.391,-112.083C53.8258,-104.613 47.1719,-93.7244 41.5469,-84.5199"/>
<polygon fill="midnightblue" stroke="midnightblue" points="44.3892,-82.4588 36.1882,-75.7511 38.4162,-86.109 44.3892,-82.4588"/>
</g>
</g>
</svg>
