<?xml version="1.0" encoding="UTF-8" standalone="no"?>
<!DOCTYPE svg PUBLIC "-//W3C//DTD SVG 1.1//EN"
 "http://www.w3.org/Graphics/SVG/1.1/DTD/svg11.dtd">
<!-- Generated by graphviz version 2.38.0 (20140413.2041)
 -->
<!-- Title: Examples/EvtGen/EvtGenFit.cpp Pages: 1 -->
<svg width="5405pt" height="296pt"
 viewBox="0.00 0.00 5405.00 296.00" xmlns="http://www.w3.org/2000/svg" xmlns:xlink="http://www.w3.org/1999/xlink">
<g id="graph0" class="graph" transform="scale(1 1) rotate(0) translate(4 292)">
<title>Examples/EvtGen/EvtGenFit.cpp</title>
<polygon fill="white" stroke="none" points="-4,4 -4,-292 5401,-292 5401,4 -4,4"/>
<!-- Node1 -->
<g id="node1" class="node"><title>Node1</title>
<polygon fill="#bfbfbf" stroke="black" points="1849,-268.5 1849,-287.5 2011,-287.5 2011,-268.5 1849,-268.5"/>
<text text-anchor="middle" x="1930" y="-275.5" font-family="Helvetica,sans-Serif" font-size="10.00">Examples/EvtGen/EvtGenFit.cpp</text>
</g>
<!-- Node2 -->
<g id="node2" class="node"><title>Node2</title>
<polygon fill="white" stroke="#bfbfbf" points="0,-201.5 0,-220.5 44,-220.5 44,-201.5 0,-201.5"/>
<text text-anchor="middle" x="22" y="-208.5" font-family="Helvetica,sans-Serif" font-size="10.00">cmath</text>
</g>
<!-- Node1&#45;&gt;Node2 -->
<g id="edge1" class="edge"><title>Node1&#45;&gt;Node2</title>
<path fill="none" stroke="midnightblue" d="M1848.8,-276.281C1499.67,-273.035 139.845,-258.718 53,-232 48.7302,-230.686 44.4858,-228.604 40.5699,-226.269"/>
<polygon fill="midnightblue" stroke="midnightblue" points="42.4197,-223.295 32.1718,-220.606 38.5061,-229.099 42.4197,-223.295"/>
</g>
<!-- Node3 -->
<g id="node3" class="node"><title>Node3</title>
<polygon fill="white" stroke="#bfbfbf" points="62,-201.5 62,-220.5 116,-220.5 116,-201.5 62,-201.5"/>
<text text-anchor="middle" x="89" y="-208.5" font-family="Helvetica,sans-Serif" font-size="10.00">iostream</text>
</g>
<!-- Node1&#45;&gt;Node3 -->
<g id="edge2" class="edge"><title>Node1&#45;&gt;Node3</title>
<path fill="none" stroke="midnightblue" d="M1848.79,-277.004C1520.1,-276.744 297.974,-273.003 130,-232 123.888,-230.508 117.622,-228.016 111.885,-225.289"/>
<polygon fill="midnightblue" stroke="midnightblue" points="113.341,-222.101 102.851,-220.611 110.122,-228.317 113.341,-222.101"/>
</g>
<!-- Node4 -->
<g id="node4" class="node"><title>Node4</title>
<polygon fill="white" stroke="#bfbfbf" points="248,-129 248,-148 300,-148 300,-129 248,-129"/>
<text text-anchor="middle" x="274" y="-136" font-family="Helvetica,sans-Serif" font-size="10.00">memory</text>
</g>
<!-- Node1&#45;&gt;Node4 -->
<g id="edge3" class="edge"><title>Node1&#45;&gt;Node4</title>
<path fill="none" stroke="midnightblue" d="M1848.88,-276.464C1536.33,-274.171 424.073,-263.802 356,-232 353.73,-230.94 311.119,-182.183 288.244,-155.896"/>
<polygon fill="midnightblue" stroke="midnightblue" points="290.789,-153.49 281.586,-148.24 285.507,-158.083 290.789,-153.49"/>
</g>
<!-- Node5 -->
<g id="node5" class="node"><title>Node5</title>
<polygon fill="white" stroke="#bfbfbf" points="1390,-201.5 1390,-220.5 1442,-220.5 1442,-201.5 1390,-201.5"/>
<text text-anchor="middle" x="1416" y="-208.5" font-family="Helvetica,sans-Serif" font-size="10.00">sstream</text>
</g>
<!-- Node1&#45;&gt;Node5 -->
<g id="edge4" class="edge"><title>Node1&#45;&gt;Node5</title>
<path fill="none" stroke="midnightblue" d="M1848.82,-273.523C1732.1,-267.819 1522.97,-254.769 1451,-232 1446.17,-230.471 1441.27,-228.206 1436.72,-225.744"/>
<polygon fill="midnightblue" stroke="midnightblue" points="1438.42,-222.683 1428.04,-220.586 1434.85,-228.701 1438.42,-222.683"/>
</g>
<!-- Node6 -->
<g id="node6" class="node"><title>Node6</title>
<polygon fill="white" stroke="#bfbfbf" points="256.5,-67.5 256.5,-86.5 297.5,-86.5 297.5,-67.5 256.5,-67.5"/>
<text text-anchor="middle" x="277" y="-74.5" font-family="Helvetica,sans-Serif" font-size="10.00">string</text>
</g>
<!-- Node1&#45;&gt;Node6 -->
<g id="edge5" class="edge"><title>Node1&#45;&gt;Node6</title>
<path fill="none" stroke="midnightblue" d="M1848.87,-276.433C1508.94,-273.868 215.371,-262.139 186,-232 170.993,-216.601 192.971,-130.118 198,-123 209.802,-106.297 229.895,-94.9741 246.862,-87.8642"/>
<polygon fill="midnightblue" stroke="midnightblue" points="248.352,-91.0403 256.405,-84.1559 245.817,-84.5156 248.352,-91.0403"/>
</g>
<!-- Node7 -->
<g id="node7" class="node"><title>Node7</title>
<polygon fill="white" stroke="#bfbfbf" points="709,-67.5 709,-86.5 753,-86.5 753,-67.5 709,-67.5"/>
<text text-anchor="middle" x="731" y="-74.5" font-family="Helvetica,sans-Serif" font-size="10.00">vector</text>
</g>
<!-- Node1&#45;&gt;Node7 -->
<g id="edge6" class="edge"><title>Node1&#45;&gt;Node7</title>
<path fill="none" stroke="midnightblue" d="M1848.91,-275.546C1610.9,-271.008 928.395,-255.965 887,-232 837.38,-203.274 860.267,-161.741 818,-123 802.028,-108.361 780.406,-97.1472 762.713,-89.5752"/>
<polygon fill="midnightblue" stroke="midnightblue" points="763.929,-86.2913 753.348,-85.7445 761.279,-92.7702 763.929,-86.2913"/>
</g>
<!-- Node8 -->
<g id="node8" class="node"><title>Node8</title>
<g id="a_node8"><a xlink:href="Logging_8hpp.html" target="_top" xlink:title="Core/Logging.hpp">
<polygon fill="white" stroke="black" points="1365.5,-67.5 1365.5,-86.5 1458.5,-86.5 1458.5,-67.5 1365.5,-67.5"/>
<text text-anchor="middle" x="1412" y="-74.5" font-family="Helvetica,sans-Serif" font-size="10.00">Core/Logging.hpp</text>
</a>
</g>
</g>
<!-- Node1&#45;&gt;Node8 -->
<g id="edge7" class="edge"><title>Node1&#45;&gt;Node8</title>
<path fill="none" stroke="midnightblue" d="M1848.92,-276.282C1703.84,-274.148 1412.02,-265.671 1381,-232 1368.35,-218.272 1374.23,-207.397 1381,-190 1388.87,-169.771 1406.13,-174.229 1414,-154 1421.16,-135.589 1419.27,-112.727 1416.45,-96.913"/>
<polygon fill="midnightblue" stroke="midnightblue" points="1419.82,-95.8904 1414.36,-86.8075 1412.96,-97.3093 1419.82,-95.8904"/>
</g>
<!-- Node10 -->
<g id="node10" class="node"><title>Node10</title>
<g id="a_node10"><a xlink:href="Properties_8hpp.html" target="_top" xlink:title="Core/Properties.hpp">
<polygon fill="white" stroke="red" points="629,-201.5 629,-220.5 733,-220.5 733,-201.5 629,-201.5"/>
<text text-anchor="middle" x="681" y="-208.5" font-family="Helvetica,sans-Serif" font-size="10.00">Core/Properties.hpp</text>
</a>
</g>
</g>
<!-- Node1&#45;&gt;Node10 -->
<g id="edge9" class="edge"><title>Node1&#45;&gt;Node10</title>
<path fill="none" stroke="midnightblue" d="M1848.93,-276.615C1617.97,-275.088 959.583,-267.644 747,-232 735.904,-230.14 724.061,-226.95 713.515,-223.658"/>
<polygon fill="midnightblue" stroke="midnightblue" points="714.46,-220.285 703.868,-220.51 712.289,-226.94 714.46,-220.285"/>
</g>
<!-- Node13 -->
<g id="node13" class="node"><title>Node13</title>
<polygon fill="white" stroke="#bfbfbf" points="707.5,-123.5 707.5,-153.5 808.5,-153.5 808.5,-123.5 707.5,-123.5"/>
<text text-anchor="start" x="715.5" y="-141.5" font-family="Helvetica,sans-Serif" font-size="10.00">boost/property_tree</text>
<text text-anchor="middle" x="758" y="-130.5" font-family="Helvetica,sans-Serif" font-size="10.00">/ptree.hpp</text>
</g>
<!-- Node1&#45;&gt;Node13 -->
<g id="edge68" class="edge"><title>Node1&#45;&gt;Node13</title>
<path fill="none" stroke="midnightblue" d="M1848.86,-275.663C1601,-271.322 867.851,-256.47 823,-232 795.657,-217.082 777.236,-185.114 767.182,-162.967"/>
<polygon fill="midnightblue" stroke="midnightblue" points="770.313,-161.386 763.15,-153.579 763.881,-164.148 770.313,-161.386"/>
</g>
<!-- Node14 -->
<g id="node14" class="node"><title>Node14</title>
<polygon fill="white" stroke="#bfbfbf" points="654.5,-129 654.5,-148 689.5,-148 689.5,-129 654.5,-129"/>
<text text-anchor="middle" x="672" y="-136" font-family="Helvetica,sans-Serif" font-size="10.00">map</text>
</g>
<!-- Node1&#45;&gt;Node14 -->
<g id="edge30" class="edge"><title>Node1&#45;&gt;Node14</title>
<path fill="none" stroke="midnightblue" d="M1848.94,-277.559C1602.57,-278.743 873.605,-278.254 778,-232 755.869,-221.293 760.096,-206.642 742,-190 727.252,-176.437 708.813,-163.265 694.563,-153.776"/>
<polygon fill="midnightblue" stroke="midnightblue" points="696.17,-150.645 685.884,-148.105 692.341,-156.505 696.17,-150.645"/>
</g>
<!-- Node15 -->
<g id="node15" class="node"><title>Node15</title>
<g id="a_node15"><a xlink:href="DalitzKinematics_8hpp.html" target="_top" xlink:title="Contains DalitzKinematics class. ">
<polygon fill="white" stroke="red" points="1200,-129 1200,-148 1384,-148 1384,-129 1200,-129"/>
<text text-anchor="middle" x="1292" y="-136" font-family="Helvetica,sans-Serif" font-size="10.00">Physics/EvtGen/DalitzKinematics.hpp</text>
</a>
</g>
</g>
<!-- Node1&#45;&gt;Node15 -->
<g id="edge19" class="edge"><title>Node1&#45;&gt;Node15</title>
<path fill="none" stroke="midnightblue" d="M1848.69,-275.13C1657.92,-270.346 1195.9,-256.299 1173,-232 1160.2,-218.415 1162.7,-205.565 1173,-190 1186,-170.356 1208.35,-158.331 1230.19,-150.98"/>
<polygon fill="midnightblue" stroke="midnightblue" points="1231.3,-154.302 1239.82,-148.013 1229.24,-147.612 1231.3,-154.302"/>
</g>
<!-- Node16 -->
<g id="node16" class="node"><title>Node16</title>
<g id="a_node16"><a xlink:href="EvtGenIF_8hpp.html" target="_top" xlink:title="Physics/EvtGen/EvtGenIF.hpp">
<polygon fill="white" stroke="red" points="1182,-201.5 1182,-220.5 1334,-220.5 1334,-201.5 1182,-201.5"/>
<text text-anchor="middle" x="1258" y="-208.5" font-family="Helvetica,sans-Serif" font-size="10.00">Physics/EvtGen/EvtGenIF.hpp</text>
</a>
</g>
</g>
<!-- Node1&#45;&gt;Node16 -->
<g id="edge21" class="edge"><title>Node1&#45;&gt;Node16</title>
<path fill="none" stroke="midnightblue" d="M1848.62,-274.341C1735.72,-269.828 1525.42,-258.436 1348,-232 1332.56,-229.7 1315.83,-226.251 1301.03,-222.862"/>
<polygon fill="midnightblue" stroke="midnightblue" points="1301.66,-219.416 1291.13,-220.54 1300.06,-226.231 1301.66,-219.416"/>
</g>
<!-- Node17 -->
<g id="node17" class="node"><title>Node17</title>
<polygon fill="white" stroke="#bfbfbf" points="1460,-201.5 1460,-220.5 1512,-220.5 1512,-201.5 1460,-201.5"/>
<text text-anchor="middle" x="1486" y="-208.5" font-family="Helvetica,sans-Serif" font-size="10.00">assert.h</text>
</g>
<!-- Node1&#45;&gt;Node17 -->
<g id="edge24" class="edge"><title>Node1&#45;&gt;Node17</title>
<path fill="none" stroke="midnightblue" d="M1848.7,-277.407C1764.92,-275.679 1631.49,-266.888 1522,-232 1517.07,-230.428 1512.04,-228.144 1507.37,-225.677"/>
<polygon fill="midnightblue" stroke="midnightblue" points="1508.85,-222.486 1498.43,-220.526 1505.35,-228.551 1508.85,-222.486"/>
</g>
<!-- Node18 -->
<g id="node18" class="node"><title>Node18</title>
<polygon fill="white" stroke="#bfbfbf" points="1530.5,-190.5 1530.5,-231.5 1685.5,-231.5 1685.5,-190.5 1530.5,-190.5"/>
<text text-anchor="start" x="1538.5" y="-219.5" font-family="Helvetica,sans-Serif" font-size="10.00">/home/travis/build</text>
<text text-anchor="start" x="1538.5" y="-208.5" font-family="Helvetica,sans-Serif" font-size="10.00">/spflueger/ComPWA/ThirdParty</text>
<text text-anchor="middle" x="1608" y="-197.5" font-family="Helvetica,sans-Serif" font-size="10.00">/EvtGen/EvtCyclic3.hh</text>
</g>
<!-- Node1&#45;&gt;Node18 -->
<g id="edge25" class="edge"><title>Node1&#45;&gt;Node18</title>
<path fill="none" stroke="midnightblue" d="M1882.64,-268.459C1837.24,-260.154 1766.54,-246.911 1695.74,-232.121"/>
<polygon fill="midnightblue" stroke="midnightblue" points="1696.26,-228.654 1685.76,-230.024 1694.82,-235.504 1696.26,-228.654"/>
</g>
<!-- Node19 -->
<g id="node19" class="node"><title>Node19</title>
<polygon fill="white" stroke="#bfbfbf" points="1703.5,-201.5 1703.5,-220.5 1748.5,-220.5 1748.5,-201.5 1703.5,-201.5"/>
<text text-anchor="middle" x="1726" y="-208.5" font-family="Helvetica,sans-Serif" font-size="10.00">iosfwd</text>
</g>
<!-- Node1&#45;&gt;Node19 -->
<g id="edge26" class="edge"><title>Node1&#45;&gt;Node19</title>
<path fill="none" stroke="midnightblue" d="M1881.62,-268.428C1846.42,-261.223 1798.1,-249.299 1758,-232 1754.12,-230.325 1750.16,-228.224 1746.41,-226.018"/>
<polygon fill="midnightblue" stroke="midnightblue" points="1748.01,-222.886 1737.68,-220.5 1744.27,-228.802 1748.01,-222.886"/>
</g>
<!-- Node20 -->
<g id="node20" class="node"><title>Node20</title>
<polygon fill="white" stroke="#bfbfbf" points="1766.5,-190.5 1766.5,-231.5 1921.5,-231.5 1921.5,-190.5 1766.5,-190.5"/>
<text text-anchor="start" x="1774.5" y="-219.5" font-family="Helvetica,sans-Serif" font-size="10.00">/home/travis/build</text>
<text text-anchor="start" x="1774.5" y="-208.5" font-family="Helvetica,sans-Serif" font-size="10.00">/spflueger/ComPWA/ThirdParty</text>
<text text-anchor="middle" x="1844" y="-197.5" font-family="Helvetica,sans-Serif" font-size="10.00">/EvtGen/EvtTwoBodyVertex.hh</text>
</g>
<!-- Node1&#45;&gt;Node20 -->
<g id="edge27" class="edge"><title>Node1&#45;&gt;Node20</title>
<path fill="none" stroke="midnightblue" d="M1918.4,-268.234C1908.05,-260.413 1892.37,-248.559 1878.07,-237.748"/>
<polygon fill="midnightblue" stroke="midnightblue" points="1879.94,-234.78 1869.86,-231.542 1875.72,-240.364 1879.94,-234.78"/>
</g>
<!-- Node21 -->
<g id="node21" class="node"><title>Node21</title>
<polygon fill="white" stroke="#bfbfbf" points="1939.5,-190.5 1939.5,-231.5 2094.5,-231.5 2094.5,-190.5 1939.5,-190.5"/>
<text text-anchor="start" x="1947.5" y="-219.5" font-family="Helvetica,sans-Serif" font-size="10.00">/home/travis/build</text>
<text text-anchor="start" x="1947.5" y="-208.5" font-family="Helvetica,sans-Serif" font-size="10.00">/spflueger/ComPWA/ThirdParty</text>
<text text-anchor="middle" x="2017" y="-197.5" font-family="Helvetica,sans-Serif" font-size="10.00">/EvtGen/EvtTwoBodyKine.hh</text>
</g>
<!-- Node1&#45;&gt;Node21 -->
<g id="edge28" class="edge"><title>Node1&#45;&gt;Node21</title>
<path fill="none" stroke="midnightblue" d="M1941.73,-268.234C1952.2,-260.413 1968.07,-248.559 1982.54,-237.748"/>
<polygon fill="midnightblue" stroke="midnightblue" points="1984.93,-240.331 1990.84,-231.542 1980.74,-234.723 1984.93,-240.331"/>
</g>
<!-- Node22 -->
<g id="node22" class="node"><title>Node22</title>
<polygon fill="white" stroke="#bfbfbf" points="2112.5,-190.5 2112.5,-231.5 2267.5,-231.5 2267.5,-190.5 2112.5,-190.5"/>
<text text-anchor="start" x="2120.5" y="-219.5" font-family="Helvetica,sans-Serif" font-size="10.00">/home/travis/build</text>
<text text-anchor="start" x="2120.5" y="-208.5" font-family="Helvetica,sans-Serif" font-size="10.00">/spflueger/ComPWA/ThirdParty</text>
<text text-anchor="middle" x="2190" y="-197.5" font-family="Helvetica,sans-Serif" font-size="10.00">/EvtGen/EvtBlattWeisskopf.hh</text>
</g>
<!-- Node1&#45;&gt;Node22 -->
<g id="edge29" class="edge"><title>Node1&#45;&gt;Node22</title>
<path fill="none" stroke="midnightblue" d="M1964.26,-268.436C1999.27,-259.681 2055.09,-245.729 2102.45,-233.887"/>
<polygon fill="midnightblue" stroke="midnightblue" points="2103.57,-237.216 2112.42,-231.395 2101.87,-230.425 2103.57,-237.216"/>
</g>
<!-- Node23 -->
<g id="node23" class="node"><title>Node23</title>
<polygon fill="white" stroke="#bfbfbf" points="2285.5,-190.5 2285.5,-231.5 2440.5,-231.5 2440.5,-190.5 2285.5,-190.5"/>
<text text-anchor="start" x="2293.5" y="-219.5" font-family="Helvetica,sans-Serif" font-size="10.00">/home/travis/build</text>
<text text-anchor="start" x="2293.5" y="-208.5" font-family="Helvetica,sans-Serif" font-size="10.00">/spflueger/ComPWA/ThirdParty</text>
<text text-anchor="middle" x="2363" y="-197.5" font-family="Helvetica,sans-Serif" font-size="10.00">/EvtGen/EvtComplex.hh</text>
</g>
<!-- Node1&#45;&gt;Node23 -->
<g id="edge31" class="edge"><title>Node1&#45;&gt;Node23</title>
<path fill="none" stroke="midnightblue" d="M2011.33,-268.768C2079.54,-261.331 2179.67,-249.175 2275.41,-232.21"/>
<polygon fill="midnightblue" stroke="midnightblue" points="2276.03,-235.655 2285.26,-230.445 2274.8,-228.764 2276.03,-235.655"/>
</g>
<!-- Node24 -->
<g id="node24" class="node"><title>Node24</title>
<polygon fill="white" stroke="#bfbfbf" points="2458.5,-201.5 2458.5,-220.5 2505.5,-220.5 2505.5,-201.5 2458.5,-201.5"/>
<text text-anchor="middle" x="2482" y="-208.5" font-family="Helvetica,sans-Serif" font-size="10.00">math.h</text>
</g>
<!-- Node1&#45;&gt;Node24 -->
<g id="edge32" class="edge"><title>Node1&#45;&gt;Node24</title>
<path fill="none" stroke="midnightblue" d="M2011.24,-274.602C2136.57,-270.124 2370.88,-258.437 2450,-232 2454.26,-230.575 2458.54,-228.477 2462.52,-226.169"/>
<polygon fill="midnightblue" stroke="midnightblue" points="2464.61,-228.987 2471.11,-220.621 2460.81,-223.108 2464.61,-228.987"/>
</g>
<!-- Node25 -->
<g id="node25" class="node"><title>Node25</title>
<polygon fill="white" stroke="#bfbfbf" points="2523.5,-190.5 2523.5,-231.5 2678.5,-231.5 2678.5,-190.5 2523.5,-190.5"/>
<text text-anchor="start" x="2531.5" y="-219.5" font-family="Helvetica,sans-Serif" font-size="10.00">/home/travis/build</text>
<text text-anchor="start" x="2531.5" y="-208.5" font-family="Helvetica,sans-Serif" font-size="10.00">/spflueger/ComPWA/ThirdParty</text>
<text text-anchor="middle" x="2601" y="-197.5" font-family="Helvetica,sans-Serif" font-size="10.00">/EvtGen/EvtConst.hh</text>
</g>
<!-- Node1&#45;&gt;Node25 -->
<g id="edge33" class="edge"><title>Node1&#45;&gt;Node25</title>
<path fill="none" stroke="midnightblue" d="M2011.35,-274.638C2122.72,-270.537 2328.93,-259.847 2513.14,-232.174"/>
<polygon fill="midnightblue" stroke="midnightblue" points="2513.93,-235.595 2523.29,-230.629 2512.87,-228.675 2513.93,-235.595"/>
</g>
<!-- Node26 -->
<g id="node26" class="node"><title>Node26</title>
<polygon fill="white" stroke="#bfbfbf" points="2696.5,-190.5 2696.5,-231.5 2851.5,-231.5 2851.5,-190.5 2696.5,-190.5"/>
<text text-anchor="start" x="2704.5" y="-219.5" font-family="Helvetica,sans-Serif" font-size="10.00">/home/travis/build</text>
<text text-anchor="start" x="2704.5" y="-208.5" font-family="Helvetica,sans-Serif" font-size="10.00">/spflueger/ComPWA/ThirdParty</text>
<text text-anchor="middle" x="2774" y="-197.5" font-family="Helvetica,sans-Serif" font-size="10.00">/EvtGen/EvtSpinType.hh</text>
</g>
<!-- Node1&#45;&gt;Node26 -->
<g id="edge34" class="edge"><title>Node1&#45;&gt;Node26</title>
<path fill="none" stroke="midnightblue" d="M2011.23,-276.672C2148.63,-275.129 2435.68,-267.647 2686.27,-232.13"/>
<polygon fill="midnightblue" stroke="midnightblue" points="2686.89,-235.576 2696.3,-230.691 2685.9,-228.647 2686.89,-235.576"/>
</g>
<!-- Node27 -->
<g id="node27" class="node"><title>Node27</title>
<polygon fill="white" stroke="#bfbfbf" points="2869.5,-190.5 2869.5,-231.5 3024.5,-231.5 3024.5,-190.5 2869.5,-190.5"/>
<text text-anchor="start" x="2877.5" y="-219.5" font-family="Helvetica,sans-Serif" font-size="10.00">/home/travis/build</text>
<text text-anchor="start" x="2877.5" y="-208.5" font-family="Helvetica,sans-Serif" font-size="10.00">/spflueger/ComPWA/ThirdParty</text>
<text text-anchor="middle" x="2947" y="-197.5" font-family="Helvetica,sans-Serif" font-size="10.00">/EvtGen/EvtReport.hh</text>
</g>
<!-- Node1&#45;&gt;Node27 -->
<g id="edge35" class="edge"><title>Node1&#45;&gt;Node27</title>
<path fill="none" stroke="midnightblue" d="M2011.19,-274.955C2202.7,-269.833 2679.41,-255.27 2859.17,-232.09"/>
<polygon fill="midnightblue" stroke="midnightblue" points="2859.86,-235.53 2869.3,-230.73 2858.93,-228.592 2859.86,-235.53"/>
</g>
<!-- Node28 -->
<g id="node28" class="node"><title>Node28</title>
<polygon fill="white" stroke="#bfbfbf" points="3042.5,-190.5 3042.5,-231.5 3197.5,-231.5 3197.5,-190.5 3042.5,-190.5"/>
<text text-anchor="start" x="3050.5" y="-219.5" font-family="Helvetica,sans-Serif" font-size="10.00">/home/travis/build</text>
<text text-anchor="start" x="3050.5" y="-208.5" font-family="Helvetica,sans-Serif" font-size="10.00">/spflueger/ComPWA/ThirdParty</text>
<text text-anchor="middle" x="3120" y="-197.5" font-family="Helvetica,sans-Serif" font-size="10.00">/EvtGen/EvtDalitzPoint.hh</text>
</g>
<!-- Node1&#45;&gt;Node28 -->
<g id="edge36" class="edge"><title>Node1&#45;&gt;Node28</title>
<path fill="none" stroke="midnightblue" d="M2011.03,-275.671C2227.61,-271.809 2817.49,-259.178 3032.36,-232.059"/>
<polygon fill="midnightblue" stroke="midnightblue" points="3032.84,-235.526 3042.31,-230.757 3031.94,-228.585 3032.84,-235.526"/>
</g>
<!-- Node29 -->
<g id="node29" class="node"><title>Node29</title>
<polygon fill="white" stroke="#bfbfbf" points="3215.5,-190.5 3215.5,-231.5 3370.5,-231.5 3370.5,-190.5 3215.5,-190.5"/>
<text text-anchor="start" x="3223.5" y="-219.5" font-family="Helvetica,sans-Serif" font-size="10.00">/home/travis/build</text>
<text text-anchor="start" x="3223.5" y="-208.5" font-family="Helvetica,sans-Serif" font-size="10.00">/spflueger/ComPWA/ThirdParty</text>
<text text-anchor="middle" x="3293" y="-197.5" font-family="Helvetica,sans-Serif" font-size="10.00">/EvtGen/EvtDalitzCoord.hh</text>
</g>
<!-- Node1&#45;&gt;Node29 -->
<g id="edge37" class="edge"><title>Node1&#45;&gt;Node29</title>
<path fill="none" stroke="midnightblue" d="M2011.26,-276.19C2251.19,-273.476 2954.85,-263.132 3205.16,-232.08"/>
<polygon fill="midnightblue" stroke="midnightblue" points="3205.84,-235.522 3215.31,-230.777 3204.94,-228.579 3205.84,-235.522"/>
</g>
<!-- Node30 -->
<g id="node30" class="node"><title>Node30</title>
<polygon fill="white" stroke="#bfbfbf" points="3388.5,-190.5 3388.5,-231.5 3543.5,-231.5 3543.5,-190.5 3388.5,-190.5"/>
<text text-anchor="start" x="3396.5" y="-219.5" font-family="Helvetica,sans-Serif" font-size="10.00">/home/travis/build</text>
<text text-anchor="start" x="3396.5" y="-208.5" font-family="Helvetica,sans-Serif" font-size="10.00">/spflueger/ComPWA/ThirdParty</text>
<text text-anchor="middle" x="3466" y="-197.5" font-family="Helvetica,sans-Serif" font-size="10.00">/EvtGen/EvtDalitzPlot.hh</text>
</g>
<!-- Node1&#45;&gt;Node30 -->
<g id="edge38" class="edge"><title>Node1&#45;&gt;Node30</title>
<path fill="none" stroke="midnightblue" d="M2011.31,-276.588C2273.04,-274.935 3092.79,-267.118 3378.38,-232.05"/>
<polygon fill="midnightblue" stroke="midnightblue" points="3378.83,-235.521 3388.31,-230.792 3377.95,-228.577 3378.83,-235.521"/>
</g>
<!-- Node31 -->
<g id="node31" class="node"><title>Node31</title>
<polygon fill="white" stroke="#bfbfbf" points="3561.5,-190.5 3561.5,-231.5 3716.5,-231.5 3716.5,-190.5 3561.5,-190.5"/>
<text text-anchor="start" x="3569.5" y="-219.5" font-family="Helvetica,sans-Serif" font-size="10.00">/home/travis/build</text>
<text text-anchor="start" x="3569.5" y="-208.5" font-family="Helvetica,sans-Serif" font-size="10.00">/spflueger/ComPWA/ThirdParty</text>
<text text-anchor="middle" x="3639" y="-197.5" font-family="Helvetica,sans-Serif" font-size="10.00">/EvtGen/EvtFlatte.hh</text>
</g>
<!-- Node1&#45;&gt;Node31 -->
<g id="edge39" class="edge"><title>Node1&#45;&gt;Node31</title>
<path fill="none" stroke="midnightblue" d="M2011.39,-276.903C2293.55,-276.234 3229.61,-271.139 3551.06,-232.087"/>
<polygon fill="midnightblue" stroke="midnightblue" points="3551.82,-235.519 3561.31,-230.803 3550.95,-228.573 3551.82,-235.519"/>
</g>
<!-- Node32 -->
<g id="node32" class="node"><title>Node32</title>
<polygon fill="white" stroke="#bfbfbf" points="3734.5,-190.5 3734.5,-231.5 3889.5,-231.5 3889.5,-190.5 3734.5,-190.5"/>
<text text-anchor="start" x="3742.5" y="-219.5" font-family="Helvetica,sans-Serif" font-size="10.00">/home/travis/build</text>
<text text-anchor="start" x="3742.5" y="-208.5" font-family="Helvetica,sans-Serif" font-size="10.00">/spflueger/ComPWA/ThirdParty</text>
<text text-anchor="middle" x="3812" y="-197.5" font-family="Helvetica,sans-Serif" font-size="10.00">/EvtGen/EvtVector4R.hh</text>
</g>
<!-- Node1&#45;&gt;Node32 -->
<g id="edge40" class="edge"><title>Node1&#45;&gt;Node32</title>
<path fill="none" stroke="midnightblue" d="M2011.26,-277.158C2312.65,-277.408 3367.15,-275.188 3724.21,-232.068"/>
<polygon fill="midnightblue" stroke="midnightblue" points="3724.82,-235.519 3734.31,-230.813 3723.96,-228.572 3724.82,-235.519"/>
</g>
<!-- Node33 -->
<g id="node33" class="node"><title>Node33</title>
<g id="a_node33"><a xlink:href="HelicityKinematics_8hpp.html" target="_top" xlink:title="Physics/HelicityFormalism\l/HelicityKinematics.hpp">
<polygon fill="white" stroke="red" points="865,-123.5 865,-153.5 999,-153.5 999,-123.5 865,-123.5"/>
<text text-anchor="start" x="873" y="-141.5" font-family="Helvetica,sans-Serif" font-size="10.00">Physics/HelicityFormalism</text>
<text text-anchor="middle" x="932" y="-130.5" font-family="Helvetica,sans-Serif" font-size="10.00">/HelicityKinematics.hpp</text>
</a>
</g>
</g>
<!-- Node1&#45;&gt;Node33 -->
<g id="edge41" class="edge"><title>Node1&#45;&gt;Node33</title>
<path fill="none" stroke="midnightblue" d="M1848.74,-276.479C1611.19,-274.559 932.645,-266.102 900,-232 881.513,-212.688 897.834,-182.178 913.162,-161.527"/>
<polygon fill="midnightblue" stroke="midnightblue" points="915.951,-163.643 919.348,-153.608 910.434,-159.334 915.951,-163.643"/>
</g>
<!-- Node34 -->
<g id="node34" class="node"><title>Node34</title>
<polygon fill="white" stroke="#bfbfbf" points="3907.5,-201.5 3907.5,-220.5 4064.5,-220.5 4064.5,-201.5 3907.5,-201.5"/>
<text text-anchor="middle" x="3986" y="-208.5" font-family="Helvetica,sans-Serif" font-size="10.00">Physics/IncoherentIntensity.hpp</text>
</g>
<!-- Node1&#45;&gt;Node34 -->
<g id="edge43" class="edge"><title>Node1&#45;&gt;Node34</title>
<path fill="none" stroke="midnightblue" d="M2011.24,-277.342C2333.81,-278.358 3524.83,-278.79 3899,-232 3914.49,-230.063 3931.27,-226.552 3945.91,-223.007"/>
<polygon fill="midnightblue" stroke="midnightblue" points="3946.82,-226.389 3955.67,-220.567 3945.12,-219.598 3946.82,-226.389"/>
</g>
<!-- Node35 -->
<g id="node35" class="node"><title>Node35</title>
<polygon fill="white" stroke="#bfbfbf" points="4083,-196 4083,-226 4205,-226 4205,-196 4083,-196"/>
<text text-anchor="start" x="4091" y="-214" font-family="Helvetica,sans-Serif" font-size="10.00">Physics/IntensityBuilder</text>
<text text-anchor="middle" x="4144" y="-203" font-family="Helvetica,sans-Serif" font-size="10.00">XML.hpp</text>
</g>
<!-- Node1&#45;&gt;Node35 -->
<g id="edge44" class="edge"><title>Node1&#45;&gt;Node35</title>
<path fill="none" stroke="midnightblue" d="M2011.23,-276.531C2377.64,-274.249 3867.61,-263.117 4074,-232 4079.76,-231.131 4085.72,-229.926 4091.62,-228.534"/>
<polygon fill="midnightblue" stroke="midnightblue" points="4092.61,-231.894 4101.44,-226.041 4090.89,-225.109 4092.61,-231.894"/>
</g>
<!-- Node36 -->
<g id="node36" class="node"><title>Node36</title>
<polygon fill="white" stroke="#bfbfbf" points="4223,-201.5 4223,-220.5 4345,-220.5 4345,-201.5 4223,-201.5"/>
<text text-anchor="middle" x="4284" y="-208.5" font-family="Helvetica,sans-Serif" font-size="10.00">Physics/ParticleList.hpp</text>
</g>
<!-- Node1&#45;&gt;Node36 -->
<g id="edge45" class="edge"><title>Node1&#45;&gt;Node36</title>
<path fill="none" stroke="midnightblue" d="M2011.07,-276.645C2391.79,-274.809 3993.08,-265.164 4214,-232 4226.08,-230.186 4239.02,-226.89 4250.45,-223.489"/>
<polygon fill="midnightblue" stroke="midnightblue" points="4251.53,-226.819 4260.04,-220.509 4249.46,-220.134 4251.53,-226.819"/>
</g>
<!-- Node37 -->
<g id="node37" class="node"><title>Node37</title>
<g id="a_node37"><a xlink:href="FitFractions_8hpp.html" target="_top" xlink:title="Tools/FitFractions.hpp">
<polygon fill="white" stroke="red" points="195,-201.5 195,-220.5 309,-220.5 309,-201.5 195,-201.5"/>
<text text-anchor="middle" x="252" y="-208.5" font-family="Helvetica,sans-Serif" font-size="10.00">Tools/FitFractions.hpp</text>
</a>
</g>
</g>
<!-- Node1&#45;&gt;Node37 -->
<g id="edge46" class="edge"><title>Node1&#45;&gt;Node37</title>
<path fill="none" stroke="midnightblue" d="M1848.85,-277.367C1565.61,-278.237 621.85,-277.56 323,-232 310.858,-230.149 297.849,-226.878 286.327,-223.511"/>
<polygon fill="midnightblue" stroke="midnightblue" points="287.229,-220.127 276.643,-220.56 285.188,-226.823 287.229,-220.127"/>
</g>
<!-- Node38 -->
<g id="node38" class="node"><title>Node38</title>
<polygon fill="white" stroke="#bfbfbf" points="4363,-201.5 4363,-220.5 4465,-220.5 4465,-201.5 4363,-201.5"/>
<text text-anchor="middle" x="4414" y="-208.5" font-family="Helvetica,sans-Serif" font-size="10.00">Tools/Generate.hpp</text>
</g>
<!-- Node1&#45;&gt;Node38 -->
<g id="edge51" class="edge"><title>Node1&#45;&gt;Node38</title>
<path fill="none" stroke="midnightblue" d="M2011.09,-276.951C2406.12,-276.519 4119.36,-272.315 4354,-232 4363.93,-230.293 4374.46,-227.239 4383.87,-224.023"/>
<polygon fill="midnightblue" stroke="midnightblue" points="4385.35,-227.21 4393.57,-220.526 4382.98,-220.625 4385.35,-227.21"/>
</g>
<!-- Node39 -->
<g id="node39" class="node"><title>Node39</title>
<polygon fill="white" stroke="#bfbfbf" points="4483.5,-201.5 4483.5,-220.5 4614.5,-220.5 4614.5,-201.5 4483.5,-201.5"/>
<text text-anchor="middle" x="4549" y="-208.5" font-family="Helvetica,sans-Serif" font-size="10.00">Tools/ParameterTools.hpp</text>
</g>
<!-- Node1&#45;&gt;Node39 -->
<g id="edge52" class="edge"><title>Node1&#45;&gt;Node39</title>
<path fill="none" stroke="midnightblue" d="M2011.32,-276.736C2418.48,-275.255 4225.81,-266.759 4474,-232 4487.03,-230.175 4501.04,-226.832 4513.37,-223.394"/>
<polygon fill="midnightblue" stroke="midnightblue" points="4514.66,-226.666 4523.29,-220.516 4512.71,-219.943 4514.66,-226.666"/>
</g>
<!-- Node40 -->
<g id="node40" class="node"><title>Node40</title>
<g id="a_node40"><a xlink:href="DalitzPlot_8hpp.html" target="_top" xlink:title="Tools/Plotting/DalitzPlot.hpp">
<polygon fill="white" stroke="red" points="908.5,-201.5 908.5,-220.5 1049.5,-220.5 1049.5,-201.5 908.5,-201.5"/>
<text text-anchor="middle" x="979" y="-208.5" font-family="Helvetica,sans-Serif" font-size="10.00">Tools/Plotting/DalitzPlot.hpp</text>
</a>
</g>
</g>
<!-- Node1&#45;&gt;Node40 -->
<g id="edge53" class="edge"><title>Node1&#45;&gt;Node40</title>
<path fill="none" stroke="midnightblue" d="M1848.94,-277.612C1695.1,-277.708 1350.54,-272.819 1064,-232 1049.27,-229.901 1033.33,-226.471 1019.29,-223.039"/>
<polygon fill="midnightblue" stroke="midnightblue" points="1019.99,-219.606 1009.44,-220.559 1018.28,-226.394 1019.99,-219.606"/>
</g>
<!-- Node41 -->
<g id="node41" class="node"><title>Node41</title>
<polygon fill="white" stroke="#bfbfbf" points="1055.5,-129 1055.5,-148 1112.5,-148 1112.5,-129 1055.5,-129"/>
<text text-anchor="middle" x="1084" y="-136" font-family="Helvetica,sans-Serif" font-size="10.00">TGraph.h</text>
</g>
<!-- Node1&#45;&gt;Node41 -->
<g id="edge71" class="edge"><title>Node1&#45;&gt;Node41</title>
<path fill="none" stroke="midnightblue" d="M1848.96,-276.551C1660.02,-274.912 1201.72,-267.302 1142,-232 1114.08,-215.496 1097.57,-179.736 1089.7,-157.83"/>
<polygon fill="midnightblue" stroke="midnightblue" points="1092.92,-156.443 1086.43,-148.073 1086.28,-158.667 1092.92,-156.443"/>
</g>
<!-- Node42 -->
<g id="node42" class="node"><title>Node42</title>
<polygon fill="white" stroke="#bfbfbf" points="1130.5,-129 1130.5,-148 1181.5,-148 1181.5,-129 1130.5,-129"/>
<text text-anchor="middle" x="1156" y="-136" font-family="Helvetica,sans-Serif" font-size="10.00">TH2D.h</text>
</g>
<!-- Node1&#45;&gt;Node42 -->
<g id="edge72" class="edge"><title>Node1&#45;&gt;Node42</title>
<path fill="none" stroke="midnightblue" d="M1848.79,-275.152C1655.79,-270.372 1183.89,-256.253 1160,-232 1141.07,-212.78 1145.24,-179.003 1150.36,-158.017"/>
<polygon fill="midnightblue" stroke="midnightblue" points="1153.81,-158.671 1153.08,-148.101 1147.06,-156.817 1153.81,-158.671"/>
</g>
<!-- Node43 -->
<g id="node43" class="node"><title>Node43</title>
<polygon fill="white" stroke="#bfbfbf" points="4633,-201.5 4633,-220.5 4759,-220.5 4759,-201.5 4633,-201.5"/>
<text text-anchor="middle" x="4696" y="-208.5" font-family="Helvetica,sans-Serif" font-size="10.00">Tools/RootGenerator.hpp</text>
</g>
<!-- Node1&#45;&gt;Node43 -->
<g id="edge59" class="edge"><title>Node1&#45;&gt;Node43</title>
<path fill="none" stroke="midnightblue" d="M2011.2,-276.872C2432.54,-276.045 4360.34,-270.185 4624,-232 4636.41,-230.202 4649.72,-226.91 4661.47,-223.508"/>
<polygon fill="midnightblue" stroke="midnightblue" points="4662.78,-226.769 4671.34,-220.526 4660.76,-220.068 4662.78,-226.769"/>
</g>
<!-- Node44 -->
<g id="node44" class="node"><title>Node44</title>
<g id="a_node44"><a xlink:href="MinLogLH_8hpp.html" target="_top" xlink:title="Estimator/MinLogLH\l/MinLogLH.hpp">
<polygon fill="white" stroke="red" points="365,-196 365,-226 471,-226 471,-196 365,-196"/>
<text text-anchor="start" x="373" y="-214" font-family="Helvetica,sans-Serif" font-size="10.00">Estimator/MinLogLH</text>
<text text-anchor="middle" x="418" y="-203" font-family="Helvetica,sans-Serif" font-size="10.00">/MinLogLH.hpp</text>
</a>
</g>
</g>
<!-- Node1&#45;&gt;Node44 -->
<g id="edge60" class="edge"><title>Node1&#45;&gt;Node44</title>
<path fill="none" stroke="midnightblue" d="M1848.56,-277.473C1583.3,-278.541 745.998,-278.08 480,-232 475.302,-231.186 470.47,-230.098 465.676,-228.848"/>
<polygon fill="midnightblue" stroke="midnightblue" points="466.517,-225.449 455.942,-226.091 464.61,-232.184 466.517,-225.449"/>
</g>
<!-- Node45 -->
<g id="node45" class="node"><title>Node45</title>
<g id="a_node45"><a xlink:href="MinuitIF_8hpp.html" target="_top" xlink:title="Optimizer/Minuit2/Minuit\lIF.hpp">
<polygon fill="white" stroke="red" points="489,-196 489,-226 611,-226 611,-196 489,-196"/>
<text text-anchor="start" x="497" y="-214" font-family="Helvetica,sans-Serif" font-size="10.00">Optimizer/Minuit2/Minuit</text>
<text text-anchor="middle" x="550" y="-203" font-family="Helvetica,sans-Serif" font-size="10.00">IF.hpp</text>
</a>
</g>
</g>
<!-- Node1&#45;&gt;Node45 -->
<g id="edge64" class="edge"><title>Node1&#45;&gt;Node45</title>
<path fill="none" stroke="midnightblue" d="M1848.76,-276.799C1601.17,-275.777 858.418,-269.576 620,-232 614.46,-231.127 608.737,-229.955 603.061,-228.615"/>
<polygon fill="midnightblue" stroke="midnightblue" points="603.499,-225.116 592.946,-226.049 601.778,-231.901 603.499,-225.116"/>
</g>
<!-- Node46 -->
<g id="node46" class="node"><title>Node46</title>
<polygon fill="white" stroke="#bfbfbf" points="4777,-201.5 4777,-220.5 4929,-220.5 4929,-201.5 4777,-201.5"/>
<text text-anchor="middle" x="4853" y="-208.5" font-family="Helvetica,sans-Serif" font-size="10.00">boost/archive/xml_iarchive.hpp</text>
</g>
<!-- Node1&#45;&gt;Node46 -->
<g id="edge66" class="edge"><title>Node1&#45;&gt;Node46</title>
<path fill="none" stroke="midnightblue" d="M2011.18,-276.755C2445.84,-275.304 4488.57,-266.678 4768,-232 4783.13,-230.122 4799.5,-226.632 4813.79,-223.087"/>
<polygon fill="midnightblue" stroke="midnightblue" points="4814.97,-226.398 4823.78,-220.518 4813.22,-219.618 4814.97,-226.398"/>
</g>
<!-- Node47 -->
<g id="node47" class="node"><title>Node47</title>
<polygon fill="white" stroke="#bfbfbf" points="4947.5,-201.5 4947.5,-220.5 5102.5,-220.5 5102.5,-201.5 4947.5,-201.5"/>
<text text-anchor="middle" x="5025" y="-208.5" font-family="Helvetica,sans-Serif" font-size="10.00">boost/archive/xml_oarchive.hpp</text>
</g>
<!-- Node1&#45;&gt;Node47 -->
<g id="edge67" class="edge"><title>Node1&#45;&gt;Node47</title>
<path fill="none" stroke="midnightblue" d="M2011.19,-276.809C2461.3,-275.613 4640.67,-267.99 4938,-232 4953.63,-230.109 4970.55,-226.57 4985.28,-222.989"/>
<polygon fill="midnightblue" stroke="midnightblue" points="4986.24,-226.357 4995.08,-220.523 4984.53,-219.568 4986.24,-226.357"/>
</g>
<!-- Node48 -->
<g id="node48" class="node"><title>Node48</title>
<polygon fill="white" stroke="#bfbfbf" points="5120.5,-196 5120.5,-226 5221.5,-226 5221.5,-196 5120.5,-196"/>
<text text-anchor="start" x="5128.5" y="-214" font-family="Helvetica,sans-Serif" font-size="10.00">boost/property_tree</text>
<text text-anchor="middle" x="5171" y="-203" font-family="Helvetica,sans-Serif" font-size="10.00">/xml_parser.hpp</text>
</g>
<!-- Node1&#45;&gt;Node48 -->
<g id="edge69" class="edge"><title>Node1&#45;&gt;Node48</title>
<path fill="none" stroke="midnightblue" d="M2011,-276.569C2491.77,-273.918 4954.83,-259.058 5112,-232 5116.44,-231.236 5120.99,-230.192 5125.51,-228.979"/>
<polygon fill="midnightblue" stroke="midnightblue" points="5126.67,-232.285 5135.27,-226.096 5124.69,-225.571 5126.67,-232.285"/>
</g>
<!-- Node49 -->
<g id="node49" class="node"><title>Node49</title>
<polygon fill="white" stroke="#bfbfbf" points="5239.5,-201.5 5239.5,-220.5 5286.5,-220.5 5286.5,-201.5 5239.5,-201.5"/>
<text text-anchor="middle" x="5263" y="-208.5" font-family="Helvetica,sans-Serif" font-size="10.00">TFile.h</text>
</g>
<!-- Node1&#45;&gt;Node49 -->
<g id="edge70" class="edge"><title>Node1&#45;&gt;Node49</title>
<path fill="none" stroke="midnightblue" d="M2011.34,-277.13C2503.92,-277.759 5071.97,-278.783 5231,-232 5235.38,-230.71 5239.75,-228.639 5243.79,-226.307"/>
<polygon fill="midnightblue" stroke="midnightblue" points="5246.01,-229.04 5252.47,-220.64 5242.18,-223.18 5246.01,-229.04"/>
</g>
<!-- Node50 -->
<g id="node50" class="node"><title>Node50</title>
<polygon fill="white" stroke="#bfbfbf" points="5305,-201.5 5305,-220.5 5397,-220.5 5397,-201.5 5305,-201.5"/>
<text text-anchor="middle" x="5351" y="-208.5" font-family="Helvetica,sans-Serif" font-size="10.00">TLorentzVector.h</text>
</g>
<!-- Node1&#45;&gt;Node50 -->
<g id="edge73" class="edge"><title>Node1&#45;&gt;Node50</title>
<path fill="none" stroke="midnightblue" d="M2011.21,-276.683C2508.77,-274.641 5129.56,-262.472 5296,-232 5304.98,-230.356 5314.43,-227.403 5322.92,-224.261"/>
<polygon fill="midnightblue" stroke="midnightblue" points="5324.32,-227.47 5332.35,-220.555 5321.76,-220.955 5324.32,-227.47"/>
</g>
<!-- Node9 -->
<g id="node9" class="node"><title>Node9</title>
<polygon fill="white" stroke="#bfbfbf" points="1348.5,-0.5 1348.5,-30.5 1475.5,-30.5 1475.5,-0.5 1348.5,-0.5"/>
<text text-anchor="start" x="1356.5" y="-18.5" font-family="Helvetica,sans-Serif" font-size="10.00">ThirdParty/easyloggingpp</text>
<text text-anchor="middle" x="1412" y="-7.5" font-family="Helvetica,sans-Serif" font-size="10.00">/easylogging++.h</text>
</g>
<!-- Node8&#45;&gt;Node9 -->
<g id="edge8" class="edge"><title>Node8&#45;&gt;Node9</title>
<path fill="none" stroke="midnightblue" d="M1412,-67.4751C1412,-60.471 1412,-50.1919 1412,-40.6956"/>
<polygon fill="midnightblue" stroke="midnightblue" points="1415.5,-40.5229 1412,-30.523 1408.5,-40.523 1415.5,-40.5229"/>
</g>
<!-- Node10&#45;&gt;Node7 -->
<g id="edge18" class="edge"><title>Node10&#45;&gt;Node7</title>
<path fill="none" stroke="midnightblue" d="M672.508,-201.427C657.626,-185.327 629.877,-149.78 646,-123 657.515,-103.875 680.185,-92.4528 699.219,-85.9038"/>
<polygon fill="midnightblue" stroke="midnightblue" points="700.27,-89.2424 708.763,-82.9083 698.174,-82.5637 700.27,-89.2424"/>
</g>
<!-- Node11 -->
<g id="node11" class="node"><title>Node11</title>
<g id="a_node11"><a xlink:href="Exceptions_8hpp.html" target="_top" xlink:title="ComPWA exceptions. ">
<polygon fill="white" stroke="red" points="318,-129 318,-148 426,-148 426,-129 318,-129"/>
<text text-anchor="middle" x="372" y="-136" font-family="Helvetica,sans-Serif" font-size="10.00">Core/Exceptions.hpp</text>
</a>
</g>
</g>
<!-- Node10&#45;&gt;Node11 -->
<g id="edge10" class="edge"><title>Node10&#45;&gt;Node11</title>
<path fill="none" stroke="midnightblue" d="M657.145,-201.468C645.958,-197.65 632.39,-193.281 620,-190 556.817,-173.27 483.328,-158.931 432.842,-149.854"/>
<polygon fill="midnightblue" stroke="midnightblue" points="433.205,-146.364 422.746,-148.054 431.976,-153.255 433.205,-146.364"/>
</g>
<!-- Node12 -->
<g id="node12" class="node"><title>Node12</title>
<g id="a_node12"><a xlink:href="FitParameter_8hpp.html" target="_top" xlink:title="Core/FitParameter.hpp">
<polygon fill="white" stroke="red" points="482,-129 482,-148 598,-148 598,-129 482,-129"/>
<text text-anchor="middle" x="540" y="-136" font-family="Helvetica,sans-Serif" font-size="10.00">Core/FitParameter.hpp</text>
</a>
</g>
</g>
<!-- Node10&#45;&gt;Node12 -->
<g id="edge12" class="edge"><title>Node10&#45;&gt;Node12</title>
<path fill="none" stroke="midnightblue" d="M663.992,-201.496C639.644,-189.322 594.645,-166.822 566.074,-152.537"/>
<polygon fill="midnightblue" stroke="midnightblue" points="567.578,-149.376 557.068,-148.034 564.447,-155.637 567.578,-149.376"/>
</g>
<!-- Node10&#45;&gt;Node13 -->
<g id="edge16" class="edge"><title>Node10&#45;&gt;Node13</title>
<path fill="none" stroke="midnightblue" d="M690.442,-201.355C701.522,-191.211 720.278,-174.037 735.221,-160.356"/>
<polygon fill="midnightblue" stroke="midnightblue" points="737.614,-162.911 742.626,-153.576 732.887,-157.748 737.614,-162.911"/>
</g>
<!-- Node10&#45;&gt;Node14 -->
<g id="edge17" class="edge"><title>Node10&#45;&gt;Node14</title>
<path fill="none" stroke="midnightblue" d="M679.896,-201.355C678.533,-190.679 676.177,-172.217 674.392,-158.234"/>
<polygon fill="midnightblue" stroke="midnightblue" points="677.851,-157.692 673.113,-148.215 670.907,-158.578 677.851,-157.692"/>
</g>
<!-- Node11&#45;&gt;Node6 -->
<g id="edge11" class="edge"><title>Node11&#45;&gt;Node6</title>
<path fill="none" stroke="midnightblue" d="M358.389,-128.975C342.939,-119.299 317.51,-103.372 299.184,-91.8941"/>
<polygon fill="midnightblue" stroke="midnightblue" points="300.919,-88.8509 290.586,-86.5091 297.203,-94.7834 300.919,-88.8509"/>
</g>
<!-- Node12&#45;&gt;Node6 -->
<g id="edge14" class="edge"><title>Node12&#45;&gt;Node6</title>
<path fill="none" stroke="midnightblue" d="M502.319,-128.975C449.918,-117.12 356.045,-95.8827 307.673,-84.9394"/>
<polygon fill="midnightblue" stroke="midnightblue" points="308.321,-81.4975 297.795,-82.7046 306.776,-88.325 308.321,-81.4975"/>
</g>
<!-- Node12&#45;&gt;Node7 -->
<g id="edge15" class="edge"><title>Node12&#45;&gt;Node7</title>
<path fill="none" stroke="midnightblue" d="M567.366,-128.975C602.157,-118.137 662.123,-99.4565 698.996,-87.9698"/>
<polygon fill="midnightblue" stroke="midnightblue" points="700.237,-91.2491 708.744,-84.9332 698.155,-84.5658 700.237,-91.2491"/>
</g>
<!-- Node12&#45;&gt;Node8 -->
<g id="edge13" class="edge"><title>Node12&#45;&gt;Node8</title>
<path fill="none" stroke="midnightblue" d="M596.292,-128.976C612.323,-126.773 629.825,-124.579 646,-123 910.367,-97.1918 1227.61,-84.2871 1354.98,-79.842"/>
<polygon fill="midnightblue" stroke="midnightblue" points="1355.4,-83.3299 1365.27,-79.4871 1355.16,-76.3341 1355.4,-83.3299"/>
</g>
<!-- Node15&#45;&gt;Node7 -->
<g id="edge20" class="edge"><title>Node15&#45;&gt;Node7</title>
<path fill="none" stroke="midnightblue" d="M1235.97,-128.997C1221.35,-126.904 1205.6,-124.761 1191,-123 1030.79,-103.673 838.41,-86.9406 763.279,-80.6537"/>
<polygon fill="midnightblue" stroke="midnightblue" points="763.318,-77.145 753.062,-79.8029 762.737,-84.1208 763.318,-77.145"/>
</g>
<!-- Node16&#45;&gt;Node8 -->
<g id="edge22" class="edge"><title>Node16&#45;&gt;Node8</title>
<path fill="none" stroke="midnightblue" d="M1305.96,-201.431C1335.12,-193.787 1370.89,-179.661 1393,-154 1406.71,-138.095 1410.79,-113.736 1411.87,-96.9019"/>
<polygon fill="midnightblue" stroke="midnightblue" points="1415.38,-96.7607 1412.23,-86.6465 1408.39,-96.5206 1415.38,-96.7607"/>
</g>
<!-- Node16&#45;&gt;Node15 -->
<g id="edge23" class="edge"><title>Node16&#45;&gt;Node15</title>
<path fill="none" stroke="midnightblue" d="M1262.17,-201.355C1267.42,-190.467 1276.58,-171.483 1283.36,-157.409"/>
<polygon fill="midnightblue" stroke="midnightblue" points="1286.61,-158.743 1287.8,-148.215 1280.3,-155.702 1286.61,-158.743"/>
</g>
<!-- Node33&#45;&gt;Node7 -->
<g id="edge42" class="edge"><title>Node33&#45;&gt;Node7</title>
<path fill="none" stroke="midnightblue" d="M884.62,-123.475C847.127,-112.376 795.793,-97.1799 763.008,-87.4749"/>
<polygon fill="midnightblue" stroke="midnightblue" points="763.638,-84.0115 753.056,-84.5291 761.651,-90.7236 763.638,-84.0115"/>
</g>
<!-- Node37&#45;&gt;Node4 -->
<g id="edge48" class="edge"><title>Node37&#45;&gt;Node4</title>
<path fill="none" stroke="midnightblue" d="M254.698,-201.355C258.062,-190.573 263.905,-171.85 268.283,-157.82"/>
<polygon fill="midnightblue" stroke="midnightblue" points="271.642,-158.804 271.28,-148.215 264.96,-156.719 271.642,-158.804"/>
</g>
<!-- Node37&#45;&gt;Node6 -->
<g id="edge49" class="edge"><title>Node37&#45;&gt;Node6</title>
<path fill="none" stroke="midnightblue" d="M241.284,-201.305C223.271,-185.589 190.353,-151.442 206,-123 214.713,-107.162 231.617,-96.1151 246.745,-88.9312"/>
<polygon fill="midnightblue" stroke="midnightblue" points="248.557,-91.9597 256.326,-84.7566 245.76,-85.5424 248.557,-91.9597"/>
</g>
<!-- Node37&#45;&gt;Node7 -->
<g id="edge50" class="edge"><title>Node37&#45;&gt;Node7</title>
<path fill="none" stroke="midnightblue" d="M246.718,-201.282C236.975,-183.961 218.924,-144.996 239,-123 269.995,-89.041 594.201,-80.3997 698.72,-78.4883"/>
<polygon fill="midnightblue" stroke="midnightblue" points="699.031,-81.9835 708.968,-78.3098 698.909,-74.9846 699.031,-81.9835"/>
</g>
<!-- Node37&#45;&gt;Node14 -->
<g id="edge47" class="edge"><title>Node37&#45;&gt;Node14</title>
<path fill="none" stroke="midnightblue" d="M293.918,-201.468C312.845,-197.737 335.51,-193.438 356,-190 467.144,-171.353 496.143,-174.284 607,-154 619.365,-151.738 632.951,-148.782 644.49,-146.129"/>
<polygon fill="midnightblue" stroke="midnightblue" points="645.478,-149.493 654.419,-143.807 643.884,-142.677 645.478,-149.493"/>
</g>
<!-- Node40&#45;&gt;Node7 -->
<g id="edge55" class="edge"><title>Node40&#45;&gt;Node7</title>
<path fill="none" stroke="midnightblue" d="M986.801,-201.303C1001.04,-184.358 1028.01,-146.526 1008,-123 976.901,-86.4406 829.587,-79.5009 763.371,-78.2436"/>
<polygon fill="midnightblue" stroke="midnightblue" points="763.154,-74.7398 753.1,-78.0823 763.044,-81.739 763.154,-74.7398"/>
</g>
<!-- Node40&#45;&gt;Node12 -->
<g id="edge58" class="edge"><title>Node40&#45;&gt;Node12</title>
<path fill="none" stroke="midnightblue" d="M926.046,-201.496C844.882,-188.462 690.016,-163.591 603.133,-149.639"/>
<polygon fill="midnightblue" stroke="midnightblue" points="603.57,-146.164 593.141,-148.034 602.46,-153.076 603.57,-146.164"/>
</g>
<!-- Node40&#45;&gt;Node14 -->
<g id="edge54" class="edge"><title>Node40&#45;&gt;Node14</title>
<path fill="none" stroke="midnightblue" d="M908.41,-201.762C850.839,-193.66 768.043,-178.821 699,-154 697.789,-153.565 696.566,-153.082 695.343,-152.565"/>
<polygon fill="midnightblue" stroke="midnightblue" points="696.735,-149.35 686.21,-148.142 693.685,-155.651 696.735,-149.35"/>
</g>
<!-- Node40&#45;&gt;Node41 -->
<g id="edge56" class="edge"><title>Node40&#45;&gt;Node41</title>
<path fill="none" stroke="midnightblue" d="M991.875,-201.355C1009.51,-189.516 1041.4,-168.103 1062.64,-153.841"/>
<polygon fill="midnightblue" stroke="midnightblue" points="1064.67,-156.696 1071.02,-148.215 1060.77,-150.884 1064.67,-156.696"/>
</g>
<!-- Node40&#45;&gt;Node42 -->
<g id="edge57" class="edge"><title>Node40&#45;&gt;Node42</title>
<path fill="none" stroke="midnightblue" d="M1001.37,-201.475C1029.59,-190.67 1079.55,-171.358 1122,-154 1123.59,-153.349 1125.22,-152.675 1126.87,-151.99"/>
<polygon fill="midnightblue" stroke="midnightblue" points="1128.41,-155.141 1136.27,-148.034 1125.69,-148.689 1128.41,-155.141"/>
</g>
<!-- Node44&#45;&gt;Node4 -->
<g id="edge61" class="edge"><title>Node44&#45;&gt;Node4</title>
<path fill="none" stroke="midnightblue" d="M389.206,-195.903C363.411,-183.274 325.875,-164.897 300.732,-152.587"/>
<polygon fill="midnightblue" stroke="midnightblue" points="301.951,-149.287 291.43,-148.034 298.873,-155.574 301.951,-149.287"/>
</g>
<!-- Node44&#45;&gt;Node7 -->
<g id="edge62" class="edge"><title>Node44&#45;&gt;Node7</title>
<path fill="none" stroke="midnightblue" d="M422.72,-195.951C430.12,-176.238 446.419,-140.792 473,-123 509.536,-98.5446 638.103,-85.3576 698.807,-80.3701"/>
<polygon fill="midnightblue" stroke="midnightblue" points="699.282,-83.8434 708.972,-79.5597 698.726,-76.8655 699.282,-83.8434"/>
</g>
<!-- Node44&#45;&gt;Node12 -->
<g id="edge63" class="edge"><title>Node44&#45;&gt;Node12</title>
<path fill="none" stroke="midnightblue" d="M442.395,-195.903C463.959,-183.442 495.208,-165.384 516.499,-153.081"/>
<polygon fill="midnightblue" stroke="midnightblue" points="518.326,-156.067 525.233,-148.034 514.823,-150.007 518.326,-156.067"/>
</g>
<!-- Node45&#45;&gt;Node12 -->
<g id="edge65" class="edge"><title>Node45&#45;&gt;Node12</title>
<path fill="none" stroke="midnightblue" d="M547.976,-195.733C546.454,-185.001 544.353,-170.187 542.689,-158.459"/>
<polygon fill="midnightblue" stroke="midnightblue" points="546.131,-157.802 541.261,-148.393 539.201,-158.786 546.131,-157.802"/>
</g>
</g>
</svg>
