<?xml version="1.0" encoding="UTF-8" standalone="no"?>
<!DOCTYPE svg PUBLIC "-//W3C//DTD SVG 1.1//EN"
 "http://www.w3.org/Graphics/SVG/1.1/DTD/svg11.dtd">
<!-- Generated by graphviz version 2.38.0 (20140413.2041)
 -->
<!-- Title: Data/EvtGen/EvtGenGenerator.cpp Pages: 1 -->
<!--zoomable 341 -->
<svg id="main" version="1.1" xmlns="http://www.w3.org/2000/svg" xmlns:xlink="http://www.w3.org/1999/xlink" xml:space="preserve" onload="init(evt)">
<style type="text/css"><![CDATA[
.edge:hover path { stroke: red; }
.edge:hover polygon { stroke: red; fill: red; }
]]></style>
<script type="text/javascript"><![CDATA[
var edges = document.getElementsByTagName('g');
if (edges && edges.length) {
  for (var i=0;i<edges.length;i++) {
    if (edges[i].id.substr(0,4)=='edge') {
      edges[i].setAttribute('class','edge');
    }
  }
}
]]></script>
        <defs>
                <circle id="rim" cx="0" cy="0" r="7"/>
                <circle id="rim2" cx="0" cy="0" r="3.5"/>
                <g id="zoomPlus">
                        <use xlink:href="#rim" fill="#404040">
                                <set attributeName="fill" to="#808080" begin="zoomplus.mouseover" end="zoomplus.mouseout"/>
                        </use>
                        <path d="M-4,0h8M0,-4v8" fill="none" stroke="white" stroke-width="1.5" pointer-events="none"/>
                </g>
                <g id="zoomMin">
                        <use xlink:href="#rim" fill="#404040">
                                <set attributeName="fill" to="#808080" begin="zoomminus.mouseover" end="zoomminus.mouseout"/>
                        </use>
                        <path d="M-4,0h8" fill="none" stroke="white" stroke-width="1.5" pointer-events="none"/>
                </g>
                <g id="dirArrow">
                        <path fill="none" stroke="white" stroke-width="1.5" d="M0,-3.0v7 M-2.5,-0.5L0,-3.0L2.5,-0.5"/>
                </g>
               <g id="resetDef">
                       <use xlink:href="#rim2" fill="#404040">
                               <set attributeName="fill" to="#808080" begin="reset.mouseover" end="reset.mouseout"/>
                       </use>
               </g>
        </defs>

<script type="text/javascript">
var viewWidth = 1088;
var viewHeight = 341;
var sectionId = 'dynsection-0';
</script>
<script xlink:href="svgpan.js"/>
<svg id="graph" class="graph">
<g id="viewport">
<title>Data/EvtGen/EvtGenGenerator.cpp</title>
<polygon fill="white" stroke="none" points="-4,4 -4,-337 1083.5,-337 1083.5,4 -4,4"/>
<!-- Node1 -->
<g id="node1" class="node"><title>Node1</title>
<polygon fill="#bfbfbf" stroke="black" points="394.5,-313.5 394.5,-332.5 565.5,-332.5 565.5,-313.5 394.5,-313.5"/>
<text text-anchor="middle" x="480" y="-320.5" font-family="Helvetica,sans-Serif" font-size="10.00">Data/EvtGen/EvtGenGenerator.cpp</text>
</g>
<!-- Node2 -->
<g id="node2" class="node"><title>Node2</title>
<g id="a_node2"><a xlink:href="EvtGenGenerator_8hpp.html" target="_top" xlink:title="EvtGenGenerator.hpp">
<polygon fill="white" stroke="black" points="269.5,-252 269.5,-271 380.5,-271 380.5,-252 269.5,-252"/>
<text text-anchor="middle" x="325" y="-259" font-family="Helvetica,sans-Serif" font-size="10.00">EvtGenGenerator.hpp</text>
</a>
</g>
</g>
<!-- Node1&#45;&gt;Node2 -->
<g id="edge1" class="edge"><title>Node1&#45;&gt;Node2</title>
<path fill="none" stroke="midnightblue" d="M457.792,-313.475C431.319,-303.313 386.886,-286.256 356.78,-274.7"/>
<polygon fill="midnightblue" stroke="midnightblue" points="357.757,-271.325 347.167,-271.009 355.248,-277.86 357.757,-271.325"/>
</g>
<!-- Node6 -->
<g id="node6" class="node"><title>Node6</title>
<polygon fill="white" stroke="#bfbfbf" points="41,-6 41,-25 95,-25 95,-6 41,-6"/>
<text text-anchor="middle" x="68" y="-13" font-family="Helvetica,sans-Serif" font-size="10.00">iostream</text>
</g>
<!-- Node1&#45;&gt;Node6 -->
<g id="edge34" class="edge"><title>Node1&#45;&gt;Node6</title>
<path fill="none" stroke="midnightblue" d="M394.462,-316.966C256.463,-306.475 0,-276.131 0,-195.5 0,-195.5 0,-195.5 0,-132 0,-91.737 31.0655,-53.1361 51.2019,-32.3445"/>
<polygon fill="midnightblue" stroke="midnightblue" points="53.9211,-34.5765 58.5449,-25.0439 48.9857,-29.6125 53.9211,-34.5765"/>
</g>
<!-- Node10 -->
<g id="node10" class="node"><title>Node10</title>
<g id="a_node10"><a xlink:href="Random_8hpp.html" target="_top" xlink:title="Core/Random.hpp">
<polygon fill="white" stroke="black" points="66,-123.5 66,-142.5 162,-142.5 162,-123.5 66,-123.5"/>
<text text-anchor="middle" x="114" y="-130.5" font-family="Helvetica,sans-Serif" font-size="10.00">Core/Random.hpp</text>
</a>
</g>
</g>
<!-- Node1&#45;&gt;Node10 -->
<g id="edge24" class="edge"><title>Node1&#45;&gt;Node10</title>
<path fill="none" stroke="midnightblue" d="M417.093,-313.442C317.509,-298.399 131.106,-263.63 95,-210 83.0633,-192.27 92.9426,-167.667 102.351,-151.311"/>
<polygon fill="midnightblue" stroke="midnightblue" points="105.366,-153.09 107.668,-142.749 99.4194,-149.398 105.366,-153.09"/>
</g>
<!-- Node12 -->
<g id="node12" class="node"><title>Node12</title>
<g id="a_node12"><a xlink:href="Properties_8hpp.html" target="_top" xlink:title="Core/Properties.hpp">
<polygon fill="white" stroke="black" points="390,-123.5 390,-142.5 494,-142.5 494,-123.5 390,-123.5"/>
<text text-anchor="middle" x="442" y="-130.5" font-family="Helvetica,sans-Serif" font-size="10.00">Core/Properties.hpp</text>
</a>
</g>
</g>
<!-- Node1&#45;&gt;Node12 -->
<g id="edge14" class="edge"><title>Node1&#45;&gt;Node12</title>
<path fill="none" stroke="midnightblue" d="M478.268,-313.434C472.494,-284.867 453.81,-192.426 445.753,-152.57"/>
<polygon fill="midnightblue" stroke="midnightblue" points="449.154,-151.725 443.742,-142.617 442.292,-153.112 449.154,-151.725"/>
</g>
<!-- Node18 -->
<g id="node18" class="node"><title>Node18</title>
<g id="a_node18"><a xlink:href="ParticleStateTransitionKinematicsInfo_8hpp.html" target="_top" xlink:title="Physics/ParticleStateTransition\lKinematicsInfo.hpp">
<polygon fill="white" stroke="black" points="499,-179.5 499,-209.5 653,-209.5 653,-179.5 499,-179.5"/>
<text text-anchor="start" x="507" y="-197.5" font-family="Helvetica,sans-Serif" font-size="10.00">Physics/ParticleStateTransition</text>
<text text-anchor="middle" x="576" y="-186.5" font-family="Helvetica,sans-Serif" font-size="10.00">KinematicsInfo.hpp</text>
</a>
</g>
</g>
<!-- Node1&#45;&gt;Node18 -->
<g id="edge25" class="edge"><title>Node1&#45;&gt;Node18</title>
<path fill="none" stroke="midnightblue" d="M480.175,-313.174C480.887,-298.061 484.192,-266.845 499,-246 508.102,-233.187 521.569,-222.767 534.706,-214.793"/>
<polygon fill="midnightblue" stroke="midnightblue" points="536.742,-217.661 543.691,-209.663 533.271,-211.582 536.742,-217.661"/>
</g>
<!-- Node19 -->
<g id="node19" class="node"><title>Node19</title>
<polygon fill="white" stroke="#bfbfbf" points="508,-246.5 508,-276.5 642,-276.5 642,-246.5 508,-246.5"/>
<text text-anchor="start" x="516" y="-264.5" font-family="Helvetica,sans-Serif" font-size="10.00">ThirdParty/EvtGen/EvtGen</text>
<text text-anchor="middle" x="575" y="-253.5" font-family="Helvetica,sans-Serif" font-size="10.00">Kine.hh</text>
</g>
<!-- Node1&#45;&gt;Node19 -->
<g id="edge31" class="edge"><title>Node1&#45;&gt;Node19</title>
<path fill="none" stroke="midnightblue" d="M493.611,-313.475C506.718,-305.266 527.008,-292.558 544.05,-281.885"/>
<polygon fill="midnightblue" stroke="midnightblue" points="545.993,-284.797 552.61,-276.523 542.278,-278.865 545.993,-284.797"/>
</g>
<!-- Node20 -->
<g id="node20" class="node"><title>Node20</title>
<polygon fill="white" stroke="#bfbfbf" points="660,-252 660,-271 826,-271 826,-252 660,-252"/>
<text text-anchor="middle" x="743" y="-259" font-family="Helvetica,sans-Serif" font-size="10.00">ThirdParty/EvtGen/EvtRandom.hh</text>
</g>
<!-- Node1&#45;&gt;Node20 -->
<g id="edge32" class="edge"><title>Node1&#45;&gt;Node20</title>
<path fill="none" stroke="midnightblue" d="M517.681,-313.475C564.553,-302.871 644.606,-284.76 695.596,-273.224"/>
<polygon fill="midnightblue" stroke="midnightblue" points="696.407,-276.629 705.388,-271.009 694.863,-269.802 696.407,-276.629"/>
</g>
<!-- Node21 -->
<g id="node21" class="node"><title>Node21</title>
<polygon fill="white" stroke="#bfbfbf" points="844,-252 844,-271 1014,-271 1014,-252 844,-252"/>
<text text-anchor="middle" x="929" y="-259" font-family="Helvetica,sans-Serif" font-size="10.00">ThirdParty/EvtGen/EvtVector4R.hh</text>
</g>
<!-- Node1&#45;&gt;Node21 -->
<g id="edge33" class="edge"><title>Node1&#45;&gt;Node21</title>
<path fill="none" stroke="midnightblue" d="M551.809,-313.474C623.572,-304.817 737.028,-290.763 835,-277 844.811,-275.622 855.187,-274.093 865.324,-272.56"/>
<polygon fill="midnightblue" stroke="midnightblue" points="865.993,-275.999 875.351,-271.031 864.938,-269.079 865.993,-275.999"/>
</g>
<!-- Node22 -->
<g id="node22" class="node"><title>Node22</title>
<polygon fill="white" stroke="#bfbfbf" points="1032.5,-252 1032.5,-271 1079.5,-271 1079.5,-252 1032.5,-252"/>
<text text-anchor="middle" x="1056" y="-259" font-family="Helvetica,sans-Serif" font-size="10.00">math.h</text>
</g>
<!-- Node1&#45;&gt;Node22 -->
<g id="edge35" class="edge"><title>Node1&#45;&gt;Node22</title>
<path fill="none" stroke="midnightblue" d="M565.743,-318.35C696.358,-312.204 938.873,-298.333 1023,-277 1025.3,-276.416 1027.65,-275.686 1029.97,-274.867"/>
<polygon fill="midnightblue" stroke="midnightblue" points="1031.28,-278.114 1039.25,-271.137 1028.67,-271.619 1031.28,-278.114"/>
</g>
<!-- Node3 -->
<g id="node3" class="node"><title>Node3</title>
<polygon fill="white" stroke="#bfbfbf" points="36.5,-67.5 36.5,-86.5 85.5,-86.5 85.5,-67.5 36.5,-67.5"/>
<text text-anchor="middle" x="61" y="-74.5" font-family="Helvetica,sans-Serif" font-size="10.00">random</text>
</g>
<!-- Node2&#45;&gt;Node3 -->
<g id="edge2" class="edge"><title>Node2&#45;&gt;Node3</title>
<path fill="none" stroke="midnightblue" d="M269.175,-260.66C219.081,-258.124 145.831,-247.492 95,-210 61.0433,-184.954 55.1302,-165.153 57,-123 57.3827,-114.372 58.1762,-104.841 58.9563,-96.7805"/>
<polygon fill="midnightblue" stroke="midnightblue" points="62.4606,-96.9182 60.0059,-86.6117 55.4976,-96.1994 62.4606,-96.9182"/>
</g>
<!-- Node4 -->
<g id="node4" class="node"><title>Node4</title>
<g id="a_node4"><a xlink:href="Event_8hpp.html" target="_top" xlink:title="Core/Event.hpp">
<polygon fill="white" stroke="black" points="232.5,-123.5 232.5,-142.5 317.5,-142.5 317.5,-123.5 232.5,-123.5"/>
<text text-anchor="middle" x="275" y="-130.5" font-family="Helvetica,sans-Serif" font-size="10.00">Core/Event.hpp</text>
</a>
</g>
</g>
<!-- Node2&#45;&gt;Node4 -->
<g id="edge3" class="edge"><title>Node2&#45;&gt;Node4</title>
<path fill="none" stroke="midnightblue" d="M341.772,-251.891C356.237,-243.423 376.153,-229.01 385,-210 390.813,-197.509 392.68,-190.439 385,-179 371.985,-159.613 348.98,-148.573 327.362,-142.288"/>
<polygon fill="midnightblue" stroke="midnightblue" points="328.128,-138.871 317.568,-139.723 326.354,-145.643 328.128,-138.871"/>
</g>
<!-- Node9 -->
<g id="node9" class="node"><title>Node9</title>
<g id="a_node9"><a xlink:href="Generator_8hpp.html" target="_top" xlink:title="Core/Generator.hpp">
<polygon fill="white" stroke="black" points="274,-185 274,-204 376,-204 376,-185 274,-185"/>
<text text-anchor="middle" x="325" y="-192" font-family="Helvetica,sans-Serif" font-size="10.00">Core/Generator.hpp</text>
</a>
</g>
</g>
<!-- Node2&#45;&gt;Node9 -->
<g id="edge9" class="edge"><title>Node2&#45;&gt;Node9</title>
<path fill="none" stroke="midnightblue" d="M325,-251.734C325,-242.183 325,-226.618 325,-214.283"/>
<polygon fill="midnightblue" stroke="midnightblue" points="328.5,-214.127 325,-204.127 321.5,-214.127 328.5,-214.127"/>
</g>
<!-- Node11 -->
<g id="node11" class="node"><title>Node11</title>
<polygon fill="white" stroke="#bfbfbf" points="104,-179.5 104,-209.5 256,-209.5 256,-179.5 104,-179.5"/>
<text text-anchor="start" x="112" y="-197.5" font-family="Helvetica,sans-Serif" font-size="10.00">ThirdParty/EvtGen/EvtRandom</text>
<text text-anchor="middle" x="180" y="-186.5" font-family="Helvetica,sans-Serif" font-size="10.00">Engine.hh</text>
</g>
<!-- Node2&#45;&gt;Node11 -->
<g id="edge13" class="edge"><title>Node2&#45;&gt;Node11</title>
<path fill="none" stroke="midnightblue" d="M305.745,-251.869C284.176,-242.199 248.593,-226.249 220.774,-213.778"/>
<polygon fill="midnightblue" stroke="midnightblue" points="221.85,-210.425 211.293,-209.528 218.987,-216.812 221.85,-210.425"/>
</g>
<!-- Node5 -->
<g id="node5" class="node"><title>Node5</title>
<g id="a_node5"><a xlink:href="Particle_8hpp.html" target="_top" xlink:title="Particle and FourMomentum class. ">
<polygon fill="white" stroke="red" points="112,-67.5 112,-86.5 204,-86.5 204,-67.5 112,-67.5"/>
<text text-anchor="middle" x="158" y="-74.5" font-family="Helvetica,sans-Serif" font-size="10.00">Core/Particle.hpp</text>
</a>
</g>
</g>
<!-- Node4&#45;&gt;Node5 -->
<g id="edge4" class="edge"><title>Node4&#45;&gt;Node5</title>
<path fill="none" stroke="midnightblue" d="M256.461,-123.444C237.377,-114.636 207.425,-100.812 185.564,-90.722"/>
<polygon fill="midnightblue" stroke="midnightblue" points="186.999,-87.5292 176.452,-86.5164 184.065,-93.8849 186.999,-87.5292"/>
</g>
<!-- Node7 -->
<g id="node7" class="node"><title>Node7</title>
<polygon fill="white" stroke="#bfbfbf" points="334,-6 334,-25 378,-25 378,-6 334,-6"/>
<text text-anchor="middle" x="356" y="-13" font-family="Helvetica,sans-Serif" font-size="10.00">vector</text>
</g>
<!-- Node4&#45;&gt;Node7 -->
<g id="edge8" class="edge"><title>Node4&#45;&gt;Node7</title>
<path fill="none" stroke="midnightblue" d="M274.998,-123.284C275.385,-110.088 277.689,-84.7043 289,-67 298.907,-51.4936 315.352,-38.9937 329.469,-30.3091"/>
<polygon fill="midnightblue" stroke="midnightblue" points="331.436,-33.2144 338.318,-25.1597 327.915,-27.1642 331.436,-33.2144"/>
</g>
<!-- Node5&#45;&gt;Node6 -->
<g id="edge5" class="edge"><title>Node5&#45;&gt;Node6</title>
<path fill="none" stroke="midnightblue" d="M145.105,-67.4751C130.536,-57.8431 106.598,-42.0175 89.2546,-30.5517"/>
<polygon fill="midnightblue" stroke="midnightblue" points="91.143,-27.6044 80.8709,-25.0091 87.2825,-33.4437 91.143,-27.6044"/>
</g>
<!-- Node5&#45;&gt;Node7 -->
<g id="edge6" class="edge"><title>Node5&#45;&gt;Node7</title>
<path fill="none" stroke="midnightblue" d="M186.369,-67.4751C222.729,-56.5488 285.611,-37.6522 323.751,-26.191"/>
<polygon fill="midnightblue" stroke="midnightblue" points="325.24,-29.3983 333.809,-23.1684 323.225,-22.6944 325.24,-29.3983"/>
</g>
<!-- Node8 -->
<g id="node8" class="node"><title>Node8</title>
<polygon fill="white" stroke="#bfbfbf" points="144.5,-0.5 144.5,-30.5 245.5,-30.5 245.5,-0.5 144.5,-0.5"/>
<text text-anchor="start" x="152.5" y="-18.5" font-family="Helvetica,sans-Serif" font-size="10.00">boost/property_tree</text>
<text text-anchor="middle" x="195" y="-7.5" font-family="Helvetica,sans-Serif" font-size="10.00">/ptree.hpp</text>
</g>
<!-- Node5&#45;&gt;Node8 -->
<g id="edge7" class="edge"><title>Node5&#45;&gt;Node8</title>
<path fill="none" stroke="midnightblue" d="M163.301,-67.4751C167.891,-60.0945 174.742,-49.0772 180.902,-39.1714"/>
<polygon fill="midnightblue" stroke="midnightblue" points="183.971,-40.8632 186.28,-30.523 178.027,-37.1667 183.971,-40.8632"/>
</g>
<!-- Node9&#45;&gt;Node4 -->
<g id="edge10" class="edge"><title>Node9&#45;&gt;Node4</title>
<path fill="none" stroke="midnightblue" d="M317.836,-184.975C310.262,-175.962 298.13,-161.525 288.707,-150.312"/>
<polygon fill="midnightblue" stroke="midnightblue" points="291.263,-147.913 282.15,-142.509 285.904,-152.417 291.263,-147.913"/>
</g>
<!-- Node9&#45;&gt;Node10 -->
<g id="edge11" class="edge"><title>Node9&#45;&gt;Node10</title>
<path fill="none" stroke="midnightblue" d="M294.769,-184.975C257.713,-174.526 194.807,-156.787 153.836,-145.233"/>
<polygon fill="midnightblue" stroke="midnightblue" points="154.75,-141.855 144.175,-142.509 152.85,-148.592 154.75,-141.855"/>
</g>
<!-- Node10&#45;&gt;Node3 -->
<g id="edge12" class="edge"><title>Node10&#45;&gt;Node3</title>
<path fill="none" stroke="midnightblue" d="M105.248,-123.083C97.5303,-115.22 86.0953,-103.569 76.7835,-94.0813"/>
<polygon fill="midnightblue" stroke="midnightblue" points="79.0916,-91.4363 69.589,-86.7511 74.0958,-96.3396 79.0916,-91.4363"/>
</g>
<!-- Node12&#45;&gt;Node7 -->
<g id="edge23" class="edge"><title>Node12&#45;&gt;Node7</title>
<path fill="none" stroke="midnightblue" d="M422.116,-123.429C407.026,-115.932 386.908,-103.634 375,-87 364.063,-71.7226 359.422,-50.503 357.452,-35.3432"/>
<polygon fill="midnightblue" stroke="midnightblue" points="360.907,-34.722 356.406,-25.1305 353.943,-35.435 360.907,-34.722"/>
</g>
<!-- Node12&#45;&gt;Node8 -->
<g id="edge20" class="edge"><title>Node12&#45;&gt;Node8</title>
<path fill="none" stroke="midnightblue" d="M397.906,-123.433C366.464,-116.288 323.774,-104.436 289,-87 262.591,-73.7584 235.98,-52.937 217.846,-37.3492"/>
<polygon fill="midnightblue" stroke="midnightblue" points="219.971,-34.5574 210.142,-30.6015 215.359,-39.8232 219.971,-34.5574"/>
</g>
<!-- Node13 -->
<g id="node13" class="node"><title>Node13</title>
<g id="a_node13"><a xlink:href="Exceptions_8hpp.html" target="_top" xlink:title="ComPWA exceptions. ">
<polygon fill="white" stroke="red" points="518,-67.5 518,-86.5 626,-86.5 626,-67.5 518,-67.5"/>
<text text-anchor="middle" x="572" y="-74.5" font-family="Helvetica,sans-Serif" font-size="10.00">Core/Exceptions.hpp</text>
</a>
</g>
</g>
<!-- Node12&#45;&gt;Node13 -->
<g id="edge15" class="edge"><title>Node12&#45;&gt;Node13</title>
<path fill="none" stroke="midnightblue" d="M462.599,-123.444C483.993,-114.557 517.681,-100.563 542.024,-90.4514"/>
<polygon fill="midnightblue" stroke="midnightblue" points="543.605,-93.5848 551.497,-86.5164 540.92,-87.1203 543.605,-93.5848"/>
</g>
<!-- Node15 -->
<g id="node15" class="node"><title>Node15</title>
<g id="a_node15"><a xlink:href="FitParameter_8hpp.html" target="_top" xlink:title="Core/FitParameter.hpp">
<polygon fill="white" stroke="red" points="384,-67.5 384,-86.5 500,-86.5 500,-67.5 384,-67.5"/>
<text text-anchor="middle" x="442" y="-74.5" font-family="Helvetica,sans-Serif" font-size="10.00">Core/FitParameter.hpp</text>
</a>
</g>
</g>
<!-- Node12&#45;&gt;Node15 -->
<g id="edge17" class="edge"><title>Node12&#45;&gt;Node15</title>
<path fill="none" stroke="midnightblue" d="M442,-123.083C442,-116.006 442,-105.861 442,-96.9865"/>
<polygon fill="midnightblue" stroke="midnightblue" points="445.5,-96.751 442,-86.7511 438.5,-96.7511 445.5,-96.751"/>
</g>
<!-- Node16 -->
<g id="node16" class="node"><title>Node16</title>
<polygon fill="white" stroke="#bfbfbf" points="644.5,-67.5 644.5,-86.5 679.5,-86.5 679.5,-67.5 644.5,-67.5"/>
<text text-anchor="middle" x="662" y="-74.5" font-family="Helvetica,sans-Serif" font-size="10.00">map</text>
</g>
<!-- Node12&#45;&gt;Node16 -->
<g id="edge21" class="edge"><title>Node12&#45;&gt;Node16</title>
<path fill="none" stroke="midnightblue" d="M483.697,-123.446C520.909,-115.553 577.041,-103.007 634.711,-86.8707"/>
<polygon fill="midnightblue" stroke="midnightblue" points="635.685,-90.2328 644.354,-84.1426 633.779,-83.4972 635.685,-90.2328"/>
</g>
<!-- Node17 -->
<g id="node17" class="node"><title>Node17</title>
<polygon fill="white" stroke="#bfbfbf" points="298,-67.5 298,-86.5 328,-86.5 328,-67.5 298,-67.5"/>
<text text-anchor="middle" x="313" y="-74.5" font-family="Helvetica,sans-Serif" font-size="10.00">set</text>
</g>
<!-- Node12&#45;&gt;Node17 -->
<g id="edge22" class="edge"><title>Node12&#45;&gt;Node17</title>
<path fill="none" stroke="midnightblue" d="M421.56,-123.444C398.706,-113.877 361.717,-98.3932 337.376,-88.2038"/>
<polygon fill="midnightblue" stroke="midnightblue" points="338.681,-84.9559 328.105,-84.323 335.978,-91.413 338.681,-84.9559"/>
</g>
<!-- Node14 -->
<g id="node14" class="node"><title>Node14</title>
<polygon fill="white" stroke="#bfbfbf" points="551.5,-6 551.5,-25 592.5,-25 592.5,-6 551.5,-6"/>
<text text-anchor="middle" x="572" y="-13" font-family="Helvetica,sans-Serif" font-size="10.00">string</text>
</g>
<!-- Node13&#45;&gt;Node14 -->
<g id="edge16" class="edge"><title>Node13&#45;&gt;Node14</title>
<path fill="none" stroke="midnightblue" d="M572,-67.4751C572,-59.0803 572,-45.9806 572,-35.1631"/>
<polygon fill="midnightblue" stroke="midnightblue" points="575.5,-35.0091 572,-25.0091 568.5,-35.0091 575.5,-35.0091"/>
</g>
<!-- Node15&#45;&gt;Node7 -->
<g id="edge19" class="edge"><title>Node15&#45;&gt;Node7</title>
<path fill="none" stroke="midnightblue" d="M429.678,-67.4751C415.884,-57.9315 393.301,-42.3073 376.768,-30.8683"/>
<polygon fill="midnightblue" stroke="midnightblue" points="378.514,-27.8205 368.299,-25.0091 374.531,-33.577 378.514,-27.8205"/>
</g>
<!-- Node15&#45;&gt;Node14 -->
<g id="edge18" class="edge"><title>Node15&#45;&gt;Node14</title>
<path fill="none" stroke="midnightblue" d="M460.626,-67.4751C482.443,-57.4897 518.804,-40.8476 544.017,-29.3075"/>
<polygon fill="midnightblue" stroke="midnightblue" points="545.772,-32.3534 553.409,-25.0091 542.859,-25.9884 545.772,-32.3534"/>
</g>
<!-- Node18&#45;&gt;Node5 -->
<g id="edge29" class="edge"><title>Node18&#45;&gt;Node5</title>
<path fill="none" stroke="midnightblue" d="M515.842,-179.493C477.083,-170.082 425.753,-156.897 381,-143 356.16,-135.286 350.808,-130.817 326,-123 284.894,-110.048 237.4,-97.5497 203.419,-89.0257"/>
<polygon fill="midnightblue" stroke="midnightblue" points="203.879,-85.5334 193.33,-86.5118 202.187,-92.3257 203.879,-85.5334"/>
</g>
<!-- Node18&#45;&gt;Node7 -->
<g id="edge28" class="edge"><title>Node18&#45;&gt;Node7</title>
<path fill="none" stroke="midnightblue" d="M605.092,-179.427C649.283,-156.234 724.613,-108.421 689,-67 669.481,-44.2982 468.064,-25.5986 388.284,-19.0274"/>
<polygon fill="midnightblue" stroke="midnightblue" points="388.552,-15.5377 378.302,-18.2164 387.985,-22.5147 388.552,-15.5377"/>
</g>
<!-- Node18&#45;&gt;Node12 -->
<g id="edge30" class="edge"><title>Node18&#45;&gt;Node12</title>
<path fill="none" stroke="midnightblue" d="M544.244,-179.399C521.962,-169.505 492.409,-156.383 470.809,-146.792"/>
<polygon fill="midnightblue" stroke="midnightblue" points="472.058,-143.517 461.498,-142.658 469.217,-149.915 472.058,-143.517"/>
</g>
<!-- Node18&#45;&gt;Node14 -->
<g id="edge27" class="edge"><title>Node18&#45;&gt;Node14</title>
<path fill="none" stroke="midnightblue" d="M653.324,-184.956C679.469,-177.949 706.051,-165.392 722,-143 741.596,-115.487 741.709,-94.4315 722,-67 694.901,-29.2837 638.202,-19.357 602.799,-16.9656"/>
<polygon fill="midnightblue" stroke="midnightblue" points="602.718,-13.457 592.552,-16.443 602.361,-20.4479 602.718,-13.457"/>
</g>
<!-- Node18&#45;&gt;Node16 -->
<g id="edge26" class="edge"><title>Node18&#45;&gt;Node16</title>
<path fill="none" stroke="midnightblue" d="M586.545,-179.337C602.463,-157.96 632.566,-117.53 649.542,-94.7309"/>
<polygon fill="midnightblue" stroke="midnightblue" points="652.38,-96.7805 655.545,-86.6695 646.765,-92.6 652.38,-96.7805"/>
</g>
</g>
</svg>
        <g id="navigator" transform="translate(0 0)" fill="#404254">
                <rect fill="#f2f5e9" fill-opacity="0.5" stroke="#606060" stroke-width=".5" x="0" y="0" width="60" height="60"/>
                <use id="zoomplus" xlink:href="#zoomPlus" x="17" y="9" onmousedown="handleZoom(evt,'in')"/>
                <use id="zoomminus" xlink:href="#zoomMin" x="42" y="9" onmousedown="handleZoom(evt,'out')"/>
                <use id="reset" xlink:href="#resetDef" x="30" y="36" onmousedown="handleReset()"/>
                <g id="arrowUp" xlink:href="#dirArrow" transform="translate(30 24)" onmousedown="handlePan(0,-1)">
                  <use xlink:href="#rim" fill="#404040">
                        <set attributeName="fill" to="#808080" begin="arrowUp.mouseover" end="arrowUp.mouseout"/>
                  </use>
                  <path fill="none" stroke="white" stroke-width="1.5" d="M0,-3.0v7 M-2.5,-0.5L0,-3.0L2.5,-0.5"/>
                </g>
                <g id="arrowRight" xlink:href="#dirArrow" transform="rotate(90) translate(36 -43)" onmousedown="handlePan(1,0)">
                  <use xlink:href="#rim" fill="#404040">
                        <set attributeName="fill" to="#808080" begin="arrowRight.mouseover" end="arrowRight.mouseout"/>
                  </use>
                  <path fill="none" stroke="white" stroke-width="1.5" d="M0,-3.0v7 M-2.5,-0.5L0,-3.0L2.5,-0.5"/>
                </g>
                <g id="arrowDown" xlink:href="#dirArrow" transform="rotate(180) translate(-30 -48)" onmousedown="handlePan(0,1)">
                  <use xlink:href="#rim" fill="#404040">
                        <set attributeName="fill" to="#808080" begin="arrowDown.mouseover" end="arrowDown.mouseout"/>
                  </use>
                  <path fill="none" stroke="white" stroke-width="1.5" d="M0,-3.0v7 M-2.5,-0.5L0,-3.0L2.5,-0.5"/>
                </g>
                <g id="arrowLeft" xlink:href="#dirArrow" transform="rotate(270) translate(-36 17)" onmousedown="handlePan(-1,0)">
                  <use xlink:href="#rim" fill="#404040">
                        <set attributeName="fill" to="#808080" begin="arrowLeft.mouseover" end="arrowLeft.mouseout"/>
                  </use>
                  <path fill="none" stroke="white" stroke-width="1.5" d="M0,-3.0v7 M-2.5,-0.5L0,-3.0L2.5,-0.5"/>
                </g>
        </g>
        <svg viewBox="0 0 15 15" width="100%" height="30px" preserveAspectRatio="xMaxYMin meet">
         <g id="arrow_out" transform="scale(0.3 0.3)">
          <a xlink:href="EvtGenGenerator_8cpp__incl_org.svg" target="_base">
           <rect id="button" ry="5" rx="5" y="6" x="6" height="38" width="38"
                fill="#f2f5e9" fill-opacity="0.5" stroke="#606060" stroke-width="1.0"/>
           <path id="arrow"
             d="M 11.500037,31.436501 C 11.940474,20.09759 22.043105,11.32322 32.158766,21.979434 L 37.068811,17.246167 C 37.068811,17.246167 37.088388,32 37.088388,32 L 22.160133,31.978069 C 22.160133,31.978069 26.997745,27.140456 26.997745,27.140456 C 18.528582,18.264221 13.291696,25.230495 11.500037,31.436501 z"
             style="fill:#404040;"/>
          </a>
         </g>
        </svg>
</svg>
