<?xml version="1.0" encoding="UTF-8" standalone="no"?>
<!DOCTYPE svg PUBLIC "-//W3C//DTD SVG 1.1//EN"
 "http://www.w3.org/Graphics/SVG/1.1/DTD/svg11.dtd">
<!-- Generated by graphviz version 2.38.0 (20140413.2041)
 -->
<!-- Title: Physics/EvtGen/EvtGenIF.hpp Pages: 1 -->
<!--zoomable 274 -->
<svg id="main" version="1.1" xmlns="http://www.w3.org/2000/svg" xmlns:xlink="http://www.w3.org/1999/xlink" xml:space="preserve" onload="init(evt)">
<style type="text/css"><![CDATA[
.edge:hover path { stroke: red; }
.edge:hover polygon { stroke: red; fill: red; }
]]></style>
<script type="text/javascript"><![CDATA[
var edges = document.getElementsByTagName('g');
if (edges && edges.length) {
  for (var i=0;i<edges.length;i++) {
    if (edges[i].id.substr(0,4)=='edge') {
      edges[i].setAttribute('class','edge');
    }
  }
}
]]></script>
        <defs>
                <circle id="rim" cx="0" cy="0" r="7"/>
                <circle id="rim2" cx="0" cy="0" r="3.5"/>
                <g id="zoomPlus">
                        <use xlink:href="#rim" fill="#404040">
                                <set attributeName="fill" to="#808080" begin="zoomplus.mouseover" end="zoomplus.mouseout"/>
                        </use>
                        <path d="M-4,0h8M0,-4v8" fill="none" stroke="white" stroke-width="1.5" pointer-events="none"/>
                </g>
                <g id="zoomMin">
                        <use xlink:href="#rim" fill="#404040">
                                <set attributeName="fill" to="#808080" begin="zoomminus.mouseover" end="zoomminus.mouseout"/>
                        </use>
                        <path d="M-4,0h8" fill="none" stroke="white" stroke-width="1.5" pointer-events="none"/>
                </g>
                <g id="dirArrow">
                        <path fill="none" stroke="white" stroke-width="1.5" d="M0,-3.0v7 M-2.5,-0.5L0,-3.0L2.5,-0.5"/>
                </g>
               <g id="resetDef">
                       <use xlink:href="#rim2" fill="#404040">
                               <set attributeName="fill" to="#808080" begin="reset.mouseover" end="reset.mouseout"/>
                       </use>
               </g>
        </defs>

<script type="text/javascript">
var viewWidth = 1515;
var viewHeight = 274;
var sectionId = 'dynsection-0';
</script>
<script xlink:href="svgpan.js"/>
<svg id="graph" class="graph">
<g id="viewport">
<title>Physics/EvtGen/EvtGenIF.hpp</title>
<polygon fill="white" stroke="none" points="-4,4 -4,-270 1511.07,-270 1511.07,4 -4,4"/>
<!-- Node1 -->
<g id="node1" class="node"><title>Node1</title>
<polygon fill="#bfbfbf" stroke="black" points="505.5,-246.5 505.5,-265.5 657.5,-265.5 657.5,-246.5 505.5,-246.5"/>
<text text-anchor="middle" x="581.5" y="-253.5" font-family="Helvetica,sans-Serif" font-size="10.00">Physics/EvtGen/EvtGenIF.hpp</text>
</g>
<!-- Node2 -->
<g id="node2" class="node"><title>Node2</title>
<g id="a_node2"><a xlink:href="Event_8hpp.html" target="_top" xlink:title="Core/Event.hpp">
<polygon fill="white" stroke="black" points="452,-118 452,-137 537,-137 537,-118 452,-118"/>
<text text-anchor="middle" x="494.5" y="-125" font-family="Helvetica,sans-Serif" font-size="10.00">Core/Event.hpp</text>
</a>
</g>
</g>
<!-- Node1&#45;&gt;Node2 -->
<g id="edge1" class="edge"><title>Node1&#45;&gt;Node2</title>
<path fill="none" stroke="midnightblue" d="M566.493,-246.434C553.738,-238.468 535.753,-225.512 524.5,-210 510.628,-190.878 502.499,-164.635 498.279,-147.149"/>
<polygon fill="midnightblue" stroke="midnightblue" points="501.63,-146.092 496.049,-137.086 494.796,-147.606 501.63,-146.092"/>
</g>
<!-- Node8 -->
<g id="node8" class="node"><title>Node8</title>
<g id="a_node8"><a xlink:href="FunctionTree_2FitParameter_8hpp.html" target="_top" xlink:title="Implementations of Parameter for various data types. ">
<polygon fill="white" stroke="black" points="990.5,-185 990.5,-204 1166.5,-204 1166.5,-185 990.5,-185"/>
<text text-anchor="middle" x="1078.5" y="-192" font-family="Helvetica,sans-Serif" font-size="10.00">Core/FunctionTree/FitParameter.hpp</text>
</a>
</g>
</g>
<!-- Node1&#45;&gt;Node8 -->
<g id="edge8" class="edge"><title>Node1&#45;&gt;Node8</title>
<path fill="none" stroke="midnightblue" d="M657.779,-246.651C736.436,-237.935 862.62,-223.658 971.5,-210 983.053,-208.551 995.298,-206.951 1007.22,-205.36"/>
<polygon fill="midnightblue" stroke="midnightblue" points="1007.69,-208.828 1017.14,-204.028 1006.76,-201.89 1007.69,-208.828"/>
</g>
<!-- Node17 -->
<g id="node17" class="node"><title>Node17</title>
<g id="a_node17"><a xlink:href="Logging_8hpp.html" target="_top" xlink:title="Core/Logging.hpp">
<polygon fill="white" stroke="red" points="853,-56.5 853,-75.5 946,-75.5 946,-56.5 853,-56.5"/>
<text text-anchor="middle" x="899.5" y="-63.5" font-family="Helvetica,sans-Serif" font-size="10.00">Core/Logging.hpp</text>
</a>
</g>
</g>
<!-- Node1&#45;&gt;Node17 -->
<g id="edge32" class="edge"><title>Node1&#45;&gt;Node17</title>
<path fill="none" stroke="midnightblue" d="M632.814,-246.487C722.545,-230.44 901.927,-192.805 938.5,-143 952.606,-123.79 933.634,-98.7493 917.554,-82.768"/>
<polygon fill="midnightblue" stroke="midnightblue" points="919.734,-80.0137 910.05,-75.7156 914.94,-85.1145 919.734,-80.0137"/>
</g>
<!-- Node20 -->
<g id="node20" class="node"><title>Node20</title>
<g id="a_node20"><a xlink:href="DataSet_8hpp.html" target="_top" xlink:title="Data/DataSet.hpp">
<polygon fill="white" stroke="black" points="534,-185 534,-204 629,-204 629,-185 534,-185"/>
<text text-anchor="middle" x="581.5" y="-192" font-family="Helvetica,sans-Serif" font-size="10.00">Data/DataSet.hpp</text>
</a>
</g>
</g>
<!-- Node1&#45;&gt;Node20 -->
<g id="edge33" class="edge"><title>Node1&#45;&gt;Node20</title>
<path fill="none" stroke="midnightblue" d="M581.5,-246.475C581.5,-238.08 581.5,-224.981 581.5,-214.163"/>
<polygon fill="midnightblue" stroke="midnightblue" points="585,-214.009 581.5,-204.009 578,-214.009 585,-214.009"/>
</g>
<!-- Node21 -->
<g id="node21" class="node"><title>Node21</title>
<g id="a_node21"><a xlink:href="DalitzKinematics_8hpp.html" target="_top" xlink:title="Contains DalitzKinematics class. ">
<polygon fill="white" stroke="black" points="121.5,-185 121.5,-204 305.5,-204 305.5,-185 121.5,-185"/>
<text text-anchor="middle" x="213.5" y="-192" font-family="Helvetica,sans-Serif" font-size="10.00">Physics/EvtGen/DalitzKinematics.hpp</text>
</a>
</g>
</g>
<!-- Node1&#45;&gt;Node21 -->
<g id="edge37" class="edge"><title>Node1&#45;&gt;Node21</title>
<path fill="none" stroke="midnightblue" d="M528.775,-246.475C462.097,-235.694 347.43,-217.154 276.296,-205.653"/>
<polygon fill="midnightblue" stroke="midnightblue" points="276.558,-202.15 266.128,-204.009 275.441,-209.06 276.558,-202.15"/>
</g>
<!-- Node24 -->
<g id="node24" class="node"><title>Node24</title>
<g id="a_node24"><a xlink:href="SubSystem_8hpp.html" target="_top" xlink:title="Contains SubSystem class. ">
<polygon fill="white" stroke="red" points="0,-118 0,-137 125,-137 125,-118 0,-118"/>
<text text-anchor="middle" x="62.5" y="-125" font-family="Helvetica,sans-Serif" font-size="10.00">Physics/SubSystem.hpp</text>
</a>
</g>
</g>
<!-- Node1&#45;&gt;Node24 -->
<g id="edge48" class="edge"><title>Node1&#45;&gt;Node24</title>
<path fill="none" stroke="midnightblue" d="M505.277,-255.779C389.53,-255.632 176.162,-249.743 112.5,-210 89.3321,-195.537 75.291,-166 68.215,-146.739"/>
<polygon fill="midnightblue" stroke="midnightblue" points="71.523,-145.595 64.9867,-137.257 64.8965,-147.852 71.523,-145.595"/>
</g>
<!-- Node25 -->
<g id="node25" class="node"><title>Node25</title>
<polygon fill="white" stroke="#bfbfbf" points="1185,-179.5 1185,-209.5 1326,-209.5 1326,-179.5 1185,-179.5"/>
<text text-anchor="start" x="1193" y="-197.5" font-family="Helvetica,sans-Serif" font-size="10.00">ThirdParty/EvtGen/EvtDalitz</text>
<text text-anchor="middle" x="1255.5" y="-186.5" font-family="Helvetica,sans-Serif" font-size="10.00">Plot.hh</text>
</g>
<!-- Node1&#45;&gt;Node25 -->
<g id="edge49" class="edge"><title>Node1&#45;&gt;Node25</title>
<path fill="none" stroke="midnightblue" d="M657.707,-251.758C769.05,-246.459 982.874,-234.159 1174.9,-209.98"/>
<polygon fill="midnightblue" stroke="midnightblue" points="1175.41,-213.442 1184.89,-208.708 1174.53,-206.498 1175.41,-213.442"/>
</g>
<!-- Node26 -->
<g id="node26" class="node"><title>Node26</title>
<polygon fill="white" stroke="#bfbfbf" points="1344,-179.5 1344,-209.5 1485,-209.5 1485,-179.5 1344,-179.5"/>
<text text-anchor="start" x="1352" y="-197.5" font-family="Helvetica,sans-Serif" font-size="10.00">ThirdParty/EvtGen/EvtDalitz</text>
<text text-anchor="middle" x="1414.5" y="-186.5" font-family="Helvetica,sans-Serif" font-size="10.00">Reso.hh</text>
</g>
<!-- Node1&#45;&gt;Node26 -->
<g id="edge50" class="edge"><title>Node1&#45;&gt;Node26</title>
<path fill="none" stroke="midnightblue" d="M657.762,-253.519C792.382,-250.23 1081.06,-240.159 1333.82,-210.108"/>
<polygon fill="midnightblue" stroke="midnightblue" points="1334.42,-213.561 1343.93,-208.893 1333.58,-206.611 1334.42,-213.561"/>
</g>
<!-- Node27 -->
<g id="node27" class="node"><title>Node27</title>
<g id="a_node27"><a xlink:href="Integration_8hpp.html" target="_top" xlink:title="Tools/Integration.hpp">
<polygon fill="white" stroke="black" points="369.5,-185 369.5,-204 477.5,-204 477.5,-185 369.5,-185"/>
<text text-anchor="middle" x="423.5" y="-192" font-family="Helvetica,sans-Serif" font-size="10.00">Tools/Integration.hpp</text>
</a>
</g>
</g>
<!-- Node1&#45;&gt;Node27 -->
<g id="edge51" class="edge"><title>Node1&#45;&gt;Node27</title>
<path fill="none" stroke="midnightblue" d="M558.862,-246.475C531.76,-236.269 486.19,-219.108 455.496,-207.549"/>
<polygon fill="midnightblue" stroke="midnightblue" points="456.687,-204.258 446.096,-204.009 454.22,-210.809 456.687,-204.258"/>
</g>
<!-- Node3 -->
<g id="node3" class="node"><title>Node3</title>
<g id="a_node3"><a xlink:href="Particle_8hpp.html" target="_top" xlink:title="Particle and FourMomentum class. ">
<polygon fill="white" stroke="red" points="558.5,-56.5 558.5,-75.5 650.5,-75.5 650.5,-56.5 558.5,-56.5"/>
<text text-anchor="middle" x="604.5" y="-63.5" font-family="Helvetica,sans-Serif" font-size="10.00">Core/Particle.hpp</text>
</a>
</g>
</g>
<!-- Node2&#45;&gt;Node3 -->
<g id="edge2" class="edge"><title>Node2&#45;&gt;Node3</title>
<path fill="none" stroke="midnightblue" d="M510.26,-117.975C528.476,-108.122 558.673,-91.7883 579.968,-80.2697"/>
<polygon fill="midnightblue" stroke="midnightblue" points="581.638,-83.3453 588.769,-75.5091 578.308,-77.1883 581.638,-83.3453"/>
</g>
<!-- Node7 -->
<g id="node7" class="node"><title>Node7</title>
<polygon fill="white" stroke="#bfbfbf" points="354.5,-0.5 354.5,-19.5 398.5,-19.5 398.5,-0.5 354.5,-0.5"/>
<text text-anchor="middle" x="376.5" y="-7.5" font-family="Helvetica,sans-Serif" font-size="10.00">vector</text>
</g>
<!-- Node2&#45;&gt;Node7 -->
<g id="edge7" class="edge"><title>Node2&#45;&gt;Node7</title>
<path fill="none" stroke="midnightblue" d="M463.486,-117.929C441.525,-110.33 412.977,-97.1003 395.5,-76 384.612,-62.8541 379.962,-43.7123 377.978,-29.6039"/>
<polygon fill="midnightblue" stroke="midnightblue" points="381.448,-29.1427 376.889,-19.5791 374.489,-29.8986 381.448,-29.1427"/>
</g>
<!-- Node4 -->
<g id="node4" class="node"><title>Node4</title>
<polygon fill="white" stroke="#bfbfbf" points="1237.5,-0.5 1237.5,-19.5 1281.5,-19.5 1281.5,-0.5 1237.5,-0.5"/>
<text text-anchor="middle" x="1259.5" y="-7.5" font-family="Helvetica,sans-Serif" font-size="10.00">cmath</text>
</g>
<!-- Node3&#45;&gt;Node4 -->
<g id="edge3" class="edge"><title>Node3&#45;&gt;Node4</title>
<path fill="none" stroke="midnightblue" d="M650.845,-60.3625C665.738,-58.9131 682.311,-57.3429 697.5,-56 898.764,-38.205 1140.85,-19.8496 1227.07,-13.4074"/>
<polygon fill="midnightblue" stroke="midnightblue" points="1227.55,-16.8814 1237.27,-12.6471 1227.03,-9.90075 1227.55,-16.8814"/>
</g>
<!-- Node5 -->
<g id="node5" class="node"><title>Node5</title>
<polygon fill="white" stroke="#bfbfbf" points="1405.5,-0.5 1405.5,-19.5 1459.5,-19.5 1459.5,-0.5 1405.5,-0.5"/>
<text text-anchor="middle" x="1432.5" y="-7.5" font-family="Helvetica,sans-Serif" font-size="10.00">iostream</text>
</g>
<!-- Node3&#45;&gt;Node5 -->
<g id="edge4" class="edge"><title>Node3&#45;&gt;Node5</title>
<path fill="none" stroke="midnightblue" d="M650.83,-60.1867C665.722,-58.7278 682.299,-57.1966 697.5,-56 960.727,-35.2799 1026.97,-36.3507 1290.5,-20 1326.07,-17.7929 1366.65,-15.2149 1395.3,-13.3851"/>
<polygon fill="midnightblue" stroke="midnightblue" points="1395.52,-16.8779 1405.28,-12.7469 1395.08,-9.89217 1395.52,-16.8779"/>
</g>
<!-- Node6 -->
<g id="node6" class="node"><title>Node6</title>
<polygon fill="white" stroke="#bfbfbf" points="948,-0.5 948,-19.5 1007,-19.5 1007,-0.5 948,-0.5"/>
<text text-anchor="middle" x="977.5" y="-7.5" font-family="Helvetica,sans-Serif" font-size="10.00">stdexcept</text>
</g>
<!-- Node3&#45;&gt;Node6 -->
<g id="edge5" class="edge"><title>Node3&#45;&gt;Node6</title>
<path fill="none" stroke="midnightblue" d="M650.611,-58.3244C724.399,-47.6419 867.78,-26.8845 937.501,-16.7907"/>
<polygon fill="midnightblue" stroke="midnightblue" points="938.242,-20.2201 947.637,-15.3233 937.239,-13.2923 938.242,-20.2201"/>
</g>
<!-- Node3&#45;&gt;Node7 -->
<g id="edge6" class="edge"><title>Node3&#45;&gt;Node7</title>
<path fill="none" stroke="midnightblue" d="M568.373,-56.4435C524.385,-46.0255 450.768,-28.5899 408.659,-18.6166"/>
<polygon fill="midnightblue" stroke="midnightblue" points="409.207,-15.1496 398.669,-16.2506 407.594,-21.9612 409.207,-15.1496"/>
</g>
<!-- Node8&#45;&gt;Node4 -->
<g id="edge9" class="edge"><title>Node8&#45;&gt;Node4</title>
<path fill="none" stroke="midnightblue" d="M1133.6,-184.976C1147.28,-182.939 1161.92,-180.827 1175.5,-179 1242.26,-170.019 1431.78,-193.384 1476.5,-143 1535.78,-76.2022 1365.43,-32.476 1291.69,-17.1262"/>
<polygon fill="midnightblue" stroke="midnightblue" points="1292.05,-13.6274 1281.56,-15.068 1290.66,-20.4875 1292.05,-13.6274"/>
</g>
<!-- Node8&#45;&gt;Node5 -->
<g id="edge11" class="edge"><title>Node8&#45;&gt;Node5</title>
<path fill="none" stroke="midnightblue" d="M1133.09,-184.981C1146.91,-182.923 1161.74,-180.799 1175.5,-179 1246.67,-169.692 1448.66,-196.51 1496.5,-143 1528.33,-107.403 1479.21,-53.1435 1450.63,-26.6521"/>
<polygon fill="midnightblue" stroke="midnightblue" points="1452.65,-23.7533 1442.87,-19.6634 1447.96,-28.9555 1452.65,-23.7533"/>
</g>
<!-- Node8&#45;&gt;Node6 -->
<g id="edge13" class="edge"><title>Node8&#45;&gt;Node6</title>
<path fill="none" stroke="midnightblue" d="M1088.68,-184.922C1119.04,-158.874 1205.63,-80.9539 1185.5,-56 1164.74,-30.2692 1071.35,-18.5221 1017.03,-13.7822"/>
<polygon fill="midnightblue" stroke="midnightblue" points="1017.3,-10.2926 1007.04,-12.9512 1016.72,-17.2685 1017.3,-10.2926"/>
</g>
<!-- Node9 -->
<g id="node9" class="node"><title>Node9</title>
<polygon fill="white" stroke="#bfbfbf" points="964,-56.5 964,-75.5 1017,-75.5 1017,-56.5 964,-56.5"/>
<text text-anchor="middle" x="990.5" y="-63.5" font-family="Helvetica,sans-Serif" font-size="10.00">complex</text>
</g>
<!-- Node8&#45;&gt;Node9 -->
<g id="edge10" class="edge"><title>Node8&#45;&gt;Node9</title>
<path fill="none" stroke="midnightblue" d="M1072.45,-184.805C1058.07,-164.133 1021.62,-111.732 1002.55,-84.3176"/>
<polygon fill="midnightblue" stroke="midnightblue" points="1005.17,-81.966 996.591,-75.7557 999.428,-85.9635 1005.17,-81.966"/>
</g>
<!-- Node10 -->
<g id="node10" class="node"><title>Node10</title>
<polygon fill="white" stroke="#bfbfbf" points="1182.5,-118 1182.5,-137 1234.5,-137 1234.5,-118 1182.5,-118"/>
<text text-anchor="middle" x="1208.5" y="-125" font-family="Helvetica,sans-Serif" font-size="10.00">sstream</text>
</g>
<!-- Node8&#45;&gt;Node10 -->
<g id="edge12" class="edge"><title>Node8&#45;&gt;Node10</title>
<path fill="none" stroke="midnightblue" d="M1095.76,-184.869C1117.81,-173.845 1156.19,-154.655 1181.96,-141.768"/>
<polygon fill="midnightblue" stroke="midnightblue" points="1183.79,-144.77 1191.17,-137.167 1180.66,-138.509 1183.79,-144.77"/>
</g>
<!-- Node11 -->
<g id="node11" class="node"><title>Node11</title>
<polygon fill="white" stroke="#bfbfbf" points="658,-0.5 658,-19.5 699,-19.5 699,-0.5 658,-0.5"/>
<text text-anchor="middle" x="678.5" y="-7.5" font-family="Helvetica,sans-Serif" font-size="10.00">string</text>
</g>
<!-- Node8&#45;&gt;Node11 -->
<g id="edge14" class="edge"><title>Node8&#45;&gt;Node11</title>
<path fill="none" stroke="midnightblue" d="M1084.47,-184.66C1101.44,-159.437 1148.99,-88.1601 1152.5,-76 1154.97,-67.4598 1158.48,-62.5757 1152.5,-56 1122.65,-23.1809 809.535,-13.7599 709.23,-11.5736"/>
<polygon fill="midnightblue" stroke="midnightblue" points="709.208,-8.07248 699.137,-11.3627 709.061,-15.071 709.208,-8.07248"/>
</g>
<!-- Node12 -->
<g id="node12" class="node"><title>Node12</title>
<polygon fill="white" stroke="#bfbfbf" points="1253,-112.5 1253,-142.5 1354,-142.5 1354,-112.5 1253,-112.5"/>
<text text-anchor="start" x="1261" y="-130.5" font-family="Helvetica,sans-Serif" font-size="10.00">boost/property_tree</text>
<text text-anchor="middle" x="1303.5" y="-119.5" font-family="Helvetica,sans-Serif" font-size="10.00">/ptree_fwd.hpp</text>
</g>
<!-- Node8&#45;&gt;Node12 -->
<g id="edge15" class="edge"><title>Node8&#45;&gt;Node12</title>
<path fill="none" stroke="midnightblue" d="M1108.38,-184.869C1143.16,-174.819 1201.44,-157.985 1245.26,-145.324"/>
<polygon fill="midnightblue" stroke="midnightblue" points="1246.31,-148.666 1254.94,-142.528 1244.36,-141.941 1246.31,-148.666"/>
</g>
<!-- Node13 -->
<g id="node13" class="node"><title>Node13</title>
<polygon fill="white" stroke="#bfbfbf" points="1372,-112.5 1372,-142.5 1467,-142.5 1467,-112.5 1372,-112.5"/>
<text text-anchor="start" x="1380" y="-130.5" font-family="Helvetica,sans-Serif" font-size="10.00">boost/serialization</text>
<text text-anchor="middle" x="1419.5" y="-119.5" font-family="Helvetica,sans-Serif" font-size="10.00">/utility.hpp</text>
</g>
<!-- Node8&#45;&gt;Node13 -->
<g id="edge16" class="edge"><title>Node8&#45;&gt;Node13</title>
<path fill="none" stroke="midnightblue" d="M1133.92,-184.994C1189.39,-176.183 1277.37,-161.411 1362.12,-143.213"/>
<polygon fill="midnightblue" stroke="midnightblue" points="1362.87,-146.632 1371.9,-141.094 1361.39,-139.791 1362.87,-146.632"/>
</g>
<!-- Node14 -->
<g id="node14" class="node"><title>Node14</title>
<g id="a_node14"><a xlink:href="Exceptions_8hpp.html" target="_top" xlink:title="ComPWA exceptions. ">
<polygon fill="white" stroke="red" points="1035.5,-56.5 1035.5,-75.5 1143.5,-75.5 1143.5,-56.5 1035.5,-56.5"/>
<text text-anchor="middle" x="1089.5" y="-63.5" font-family="Helvetica,sans-Serif" font-size="10.00">Core/Exceptions.hpp</text>
</a>
</g>
</g>
<!-- Node8&#45;&gt;Node14 -->
<g id="edge17" class="edge"><title>Node8&#45;&gt;Node14</title>
<path fill="none" stroke="midnightblue" d="M1079.26,-184.805C1081.02,-164.494 1085.45,-113.553 1087.87,-85.7768"/>
<polygon fill="midnightblue" stroke="midnightblue" points="1091.36,-86.0213 1088.74,-75.7557 1084.39,-85.4149 1091.36,-86.0213"/>
</g>
<!-- Node15 -->
<g id="node15" class="node"><title>Node15</title>
<g id="a_node15"><a xlink:href="FitParameter_8hpp.html" target="_top" xlink:title="Core/FitParameter.hpp">
<polygon fill="white" stroke="red" points="593.5,-118 593.5,-137 709.5,-137 709.5,-118 593.5,-118"/>
<text text-anchor="middle" x="651.5" y="-125" font-family="Helvetica,sans-Serif" font-size="10.00">Core/FitParameter.hpp</text>
</a>
</g>
</g>
<!-- Node8&#45;&gt;Node15 -->
<g id="edge19" class="edge"><title>Node8&#45;&gt;Node15</title>
<path fill="none" stroke="midnightblue" d="M1022.24,-184.936C943.57,-172.96 800.989,-151.256 717.436,-138.537"/>
<polygon fill="midnightblue" stroke="midnightblue" points="717.96,-135.077 707.547,-137.032 716.906,-141.997 717.96,-135.077"/>
</g>
<!-- Node8&#45;&gt;Node17 -->
<g id="edge31" class="edge"><title>Node8&#45;&gt;Node17</title>
<path fill="none" stroke="midnightblue" d="M1067.81,-184.831C1048.83,-169.557 1007.81,-137.093 971.5,-112 955.584,-101 937.063,-89.4506 922.791,-80.8068"/>
<polygon fill="midnightblue" stroke="midnightblue" points="924.47,-77.7325 914.096,-75.5811 920.864,-83.7323 924.47,-77.7325"/>
</g>
<!-- Node18 -->
<g id="node18" class="node"><title>Node18</title>
<g id="a_node18"><a xlink:href="Parameter_8hpp.html" target="_top" xlink:title="Parameter base class. ">
<polygon fill="white" stroke="red" points="765.5,-118 765.5,-137 929.5,-137 929.5,-118 765.5,-118"/>
<text text-anchor="middle" x="847.5" y="-125" font-family="Helvetica,sans-Serif" font-size="10.00">Core/FunctionTree/Parameter.hpp</text>
</a>
</g>
</g>
<!-- Node8&#45;&gt;Node18 -->
<g id="edge26" class="edge"><title>Node8&#45;&gt;Node18</title>
<path fill="none" stroke="midnightblue" d="M1047.82,-184.869C1006.64,-173.278 933.369,-152.662 887.778,-139.834"/>
<polygon fill="midnightblue" stroke="midnightblue" points="888.508,-136.403 877.934,-137.064 886.612,-143.142 888.508,-136.403"/>
</g>
<!-- Node14&#45;&gt;Node11 -->
<g id="edge18" class="edge"><title>Node14&#45;&gt;Node11</title>
<path fill="none" stroke="midnightblue" d="M1035.38,-57.3483C1032.04,-56.8884 1028.72,-56.4358 1025.5,-56 908.796,-40.2274 769.856,-22.5375 709.281,-14.879"/>
<polygon fill="midnightblue" stroke="midnightblue" points="709.599,-11.3915 699.24,-13.6106 708.722,-18.3363 709.599,-11.3915"/>
</g>
<!-- Node15&#45;&gt;Node7 -->
<g id="edge25" class="edge"><title>Node15&#45;&gt;Node7</title>
<path fill="none" stroke="midnightblue" d="M634.137,-117.996C613.809,-108.019 579.145,-90.939 549.5,-76 532.104,-67.2338 528.45,-63.5663 510.5,-56 476.412,-41.631 436.007,-28.5812 408.543,-20.2792"/>
<polygon fill="midnightblue" stroke="midnightblue" points="409.275,-16.845 398.691,-17.3369 407.272,-23.5523 409.275,-16.845"/>
</g>
<!-- Node15&#45;&gt;Node11 -->
<g id="edge24" class="edge"><title>Node15&#45;&gt;Node11</title>
<path fill="none" stroke="midnightblue" d="M653.529,-117.819C657.888,-99.1732 668.228,-54.943 674.145,-29.6317"/>
<polygon fill="midnightblue" stroke="midnightblue" points="677.579,-30.3162 676.447,-19.782 670.763,-28.7228 677.579,-30.3162"/>
</g>
<!-- Node16 -->
<g id="node16" class="node"><title>Node16</title>
<g id="a_node16"><a xlink:href="Function_8hpp.html" target="_top" xlink:title="Core/Function.hpp">
<polygon fill="white" stroke="red" points="405,-56.5 405,-75.5 502,-75.5 502,-56.5 405,-56.5"/>
<text text-anchor="middle" x="453.5" y="-63.5" font-family="Helvetica,sans-Serif" font-size="10.00">Core/Function.hpp</text>
</a>
</g>
</g>
<!-- Node15&#45;&gt;Node16 -->
<g id="edge20" class="edge"><title>Node15&#45;&gt;Node16</title>
<path fill="none" stroke="midnightblue" d="M623.131,-117.975C588.579,-107.592 530.076,-90.0116 491.615,-78.4538"/>
<polygon fill="midnightblue" stroke="midnightblue" points="492.4,-75.0351 481.816,-75.5091 490.386,-81.739 492.4,-75.0351"/>
</g>
<!-- Node15&#45;&gt;Node17 -->
<g id="edge23" class="edge"><title>Node15&#45;&gt;Node17</title>
<path fill="none" stroke="midnightblue" d="M687.032,-117.975C731.046,-107.415 806.089,-89.411 854.198,-77.8689"/>
<polygon fill="midnightblue" stroke="midnightblue" points="855.126,-81.2456 864.034,-75.5091 853.493,-74.4387 855.126,-81.2456"/>
</g>
<!-- Node16&#45;&gt;Node7 -->
<g id="edge22" class="edge"><title>Node16&#45;&gt;Node7</title>
<path fill="none" stroke="midnightblue" d="M441.129,-56.324C429.342,-48.0577 411.368,-35.4527 397.364,-25.6322"/>
<polygon fill="midnightblue" stroke="midnightblue" points="399.038,-22.5307 388.841,-19.6545 395.018,-28.2619 399.038,-22.5307"/>
</g>
<!-- Node16&#45;&gt;Node11 -->
<g id="edge21" class="edge"><title>Node16&#45;&gt;Node11</title>
<path fill="none" stroke="midnightblue" d="M489.152,-56.4435C533.017,-45.9158 606.742,-28.222 648.066,-18.3042"/>
<polygon fill="midnightblue" stroke="midnightblue" points="648.929,-21.6965 657.836,-15.9593 647.295,-14.8898 648.929,-21.6965"/>
</g>
<!-- Node18&#45;&gt;Node7 -->
<g id="edge30" class="edge"><title>Node18&#45;&gt;Node7</title>
<path fill="none" stroke="midnightblue" d="M840.698,-117.708C828.139,-102.204 799.638,-70.2933 767.5,-56 703.417,-27.4996 490.686,-15.7714 408.913,-12.2429"/>
<polygon fill="midnightblue" stroke="midnightblue" points="408.853,-8.73749 398.715,-11.8165 408.56,-15.7314 408.853,-8.73749"/>
</g>
<!-- Node18&#45;&gt;Node9 -->
<g id="edge27" class="edge"><title>Node18&#45;&gt;Node9</title>
<path fill="none" stroke="midnightblue" d="M867.988,-117.975C892.306,-107.857 933.049,-90.9046 960.817,-79.3507"/>
<polygon fill="midnightblue" stroke="midnightblue" points="962.161,-82.5822 970.05,-75.5091 959.472,-76.1193 962.161,-82.5822"/>
</g>
<!-- Node18&#45;&gt;Node11 -->
<g id="edge29" class="edge"><title>Node18&#45;&gt;Node11</title>
<path fill="none" stroke="midnightblue" d="M843.908,-117.846C837.381,-103.122 822.21,-73.1318 800.5,-56 773.59,-34.7645 735.682,-22.8886 709.289,-16.7401"/>
<polygon fill="midnightblue" stroke="midnightblue" points="709.957,-13.3036 699.44,-14.5859 708.461,-20.1419 709.957,-13.3036"/>
</g>
<!-- Node19 -->
<g id="node19" class="node"><title>Node19</title>
<polygon fill="white" stroke="#bfbfbf" points="706.5,-56.5 706.5,-75.5 758.5,-75.5 758.5,-56.5 706.5,-56.5"/>
<text text-anchor="middle" x="732.5" y="-63.5" font-family="Helvetica,sans-Serif" font-size="10.00">memory</text>
</g>
<!-- Node18&#45;&gt;Node19 -->
<g id="edge28" class="edge"><title>Node18&#45;&gt;Node19</title>
<path fill="none" stroke="midnightblue" d="M831.023,-117.975C811.895,-108.078 780.127,-91.6416 757.848,-80.1151"/>
<polygon fill="midnightblue" stroke="midnightblue" points="759.436,-76.9958 748.946,-75.5091 756.219,-83.213 759.436,-76.9958"/>
</g>
<!-- Node20&#45;&gt;Node2 -->
<g id="edge35" class="edge"><title>Node20&#45;&gt;Node2</title>
<path fill="none" stroke="midnightblue" d="M569.767,-184.734C555.548,-174.111 531.373,-156.049 514.261,-143.264"/>
<polygon fill="midnightblue" stroke="midnightblue" points="516.153,-140.309 506.047,-137.127 511.964,-145.916 516.153,-140.309"/>
</g>
<!-- Node20&#45;&gt;Node16 -->
<g id="edge36" class="edge"><title>Node20&#45;&gt;Node16</title>
<path fill="none" stroke="midnightblue" d="M579.735,-184.779C576.044,-168.547 566.087,-133.406 545.5,-112 531.149,-97.0782 510.82,-86.4209 492.92,-79.2359"/>
<polygon fill="midnightblue" stroke="midnightblue" points="493.871,-75.8537 483.279,-75.5963 491.398,-82.4026 493.871,-75.8537"/>
</g>
<!-- Node20&#45;&gt;Node19 -->
<g id="edge34" class="edge"><title>Node20&#45;&gt;Node19</title>
<path fill="none" stroke="midnightblue" d="M629.28,-187.93C659.29,-181.881 696.375,-169.273 718.5,-143 731.841,-127.158 734.183,-102.785 733.94,-85.9314"/>
<polygon fill="midnightblue" stroke="midnightblue" points="737.423,-85.4883 733.462,-75.6618 730.431,-85.8137 737.423,-85.4883"/>
</g>
<!-- Node21&#45;&gt;Node7 -->
<g id="edge38" class="edge"><title>Node21&#45;&gt;Node7</title>
<path fill="none" stroke="midnightblue" d="M204.21,-184.881C180.433,-161.8 121.571,-97.5337 155.5,-56 179.004,-27.2275 289.103,-16.3846 344.497,-12.7"/>
<polygon fill="midnightblue" stroke="midnightblue" points="344.727,-16.1926 354.488,-12.0739 344.289,-9.20626 344.727,-16.1926"/>
</g>
<!-- Node22 -->
<g id="node22" class="node"><title>Node22</title>
<g id="a_node22"><a xlink:href="Kinematics_8hpp.html" target="_top" xlink:title="Core/Kinematics.hpp">
<polygon fill="white" stroke="black" points="164.5,-56.5 164.5,-75.5 272.5,-75.5 272.5,-56.5 164.5,-56.5"/>
<text text-anchor="middle" x="218.5" y="-63.5" font-family="Helvetica,sans-Serif" font-size="10.00">Core/Kinematics.hpp</text>
</a>
</g>
</g>
<!-- Node21&#45;&gt;Node22 -->
<g id="edge39" class="edge"><title>Node21&#45;&gt;Node22</title>
<path fill="none" stroke="midnightblue" d="M213.844,-184.805C214.646,-164.494 216.66,-113.553 217.758,-85.7768"/>
<polygon fill="midnightblue" stroke="midnightblue" points="221.256,-85.8862 218.154,-75.7557 214.262,-85.6096 221.256,-85.8862"/>
</g>
<!-- Node23 -->
<g id="node23" class="node"><title>Node23</title>
<g id="a_node23"><a xlink:href="ParticleStateTransitionKinematicsInfo_8hpp.html" target="_top" xlink:title="Physics/ParticleStateTransition\lKinematicsInfo.hpp">
<polygon fill="white" stroke="red" points="241.5,-112.5 241.5,-142.5 395.5,-142.5 395.5,-112.5 241.5,-112.5"/>
<text text-anchor="start" x="249.5" y="-130.5" font-family="Helvetica,sans-Serif" font-size="10.00">Physics/ParticleStateTransition</text>
<text text-anchor="middle" x="318.5" y="-119.5" font-family="Helvetica,sans-Serif" font-size="10.00">KinematicsInfo.hpp</text>
</a>
</g>
</g>
<!-- Node21&#45;&gt;Node23 -->
<g id="edge42" class="edge"><title>Node21&#45;&gt;Node23</title>
<path fill="none" stroke="midnightblue" d="M227.661,-184.734C242.806,-175.358 267.312,-160.188 287.055,-147.966"/>
<polygon fill="midnightblue" stroke="midnightblue" points="289.08,-150.829 295.741,-142.589 285.396,-144.877 289.08,-150.829"/>
</g>
<!-- Node21&#45;&gt;Node24 -->
<g id="edge46" class="edge"><title>Node21&#45;&gt;Node24</title>
<path fill="none" stroke="midnightblue" d="M193.448,-184.869C167.501,-173.699 122.079,-154.147 92.1429,-141.26"/>
<polygon fill="midnightblue" stroke="midnightblue" points="93.2036,-137.906 82.6346,-137.167 90.4358,-144.336 93.2036,-137.906"/>
</g>
<!-- Node22&#45;&gt;Node7 -->
<g id="edge41" class="edge"><title>Node22&#45;&gt;Node7</title>
<path fill="none" stroke="midnightblue" d="M243.536,-56.4435C270.976,-47.0652 315.055,-32.0001 344.867,-21.8112"/>
<polygon fill="midnightblue" stroke="midnightblue" points="346.055,-25.104 354.386,-18.558 343.791,-18.4802 346.055,-25.104"/>
</g>
<!-- Node22&#45;&gt;Node11 -->
<g id="edge40" class="edge"><title>Node22&#45;&gt;Node11</title>
<path fill="none" stroke="midnightblue" d="M272.621,-58.6467C369.929,-47.2236 571.421,-23.5702 648.034,-14.5764"/>
<polygon fill="midnightblue" stroke="midnightblue" points="648.468,-18.0496 657.992,-13.4075 647.652,-11.0973 648.468,-18.0496"/>
</g>
<!-- Node23&#45;&gt;Node3 -->
<g id="edge45" class="edge"><title>Node23&#45;&gt;Node3</title>
<path fill="none" stroke="midnightblue" d="M385.916,-112.475C437.304,-101.784 506.966,-87.2912 553.709,-77.5666"/>
<polygon fill="midnightblue" stroke="midnightblue" points="554.535,-80.9699 563.612,-75.5064 553.109,-74.1166 554.535,-80.9699"/>
</g>
<!-- Node23&#45;&gt;Node7 -->
<g id="edge44" class="edge"><title>Node23&#45;&gt;Node7</title>
<path fill="none" stroke="midnightblue" d="M316.702,-112.411C315.464,-97.544 315.411,-73.8409 324.5,-56 330.851,-43.5336 342.284,-33.0509 352.815,-25.3481"/>
<polygon fill="midnightblue" stroke="midnightblue" points="355.029,-28.075 361.318,-19.549 351.085,-22.2919 355.029,-28.075"/>
</g>
<!-- Node23&#45;&gt;Node11 -->
<g id="edge43" class="edge"><title>Node23&#45;&gt;Node11</title>
<path fill="none" stroke="midnightblue" d="M329.576,-112.219C343.192,-95.7712 367.912,-69.3104 395.5,-56 479.967,-15.2475 593.492,-10.1121 647.477,-10.2367"/>
<polygon fill="midnightblue" stroke="midnightblue" points="647.728,-13.7389 657.758,-10.3274 647.79,-6.73921 647.728,-13.7389"/>
</g>
<!-- Node24&#45;&gt;Node7 -->
<g id="edge47" class="edge"><title>Node24&#45;&gt;Node7</title>
<path fill="none" stroke="midnightblue" d="M67.1251,-117.887C75.7891,-102.665 96.0071,-71.1869 122.5,-56 159.885,-34.569 284.601,-19.929 344.221,-13.9808"/>
<polygon fill="midnightblue" stroke="midnightblue" points="344.611,-17.4595 354.223,-13.0038 343.93,-10.4927 344.611,-17.4595"/>
</g>
<!-- Node27&#45;&gt;Node16 -->
<g id="edge52" class="edge"><title>Node27&#45;&gt;Node16</title>
<path fill="none" stroke="midnightblue" d="M425.467,-184.927C428.883,-170.067 436.156,-138.567 442.5,-112 444.58,-103.288 446.933,-93.6386 448.926,-85.5169"/>
<polygon fill="midnightblue" stroke="midnightblue" points="452.371,-86.167 451.364,-75.6202 445.574,-84.493 452.371,-86.167"/>
</g>
</g>
</svg>
        <g id="navigator" transform="translate(0 0)" fill="#404254">
                <rect fill="#f2f5e9" fill-opacity="0.5" stroke="#606060" stroke-width=".5" x="0" y="0" width="60" height="60"/>
                <use id="zoomplus" xlink:href="#zoomPlus" x="17" y="9" onmousedown="handleZoom(evt,'in')"/>
                <use id="zoomminus" xlink:href="#zoomMin" x="42" y="9" onmousedown="handleZoom(evt,'out')"/>
                <use id="reset" xlink:href="#resetDef" x="30" y="36" onmousedown="handleReset()"/>
                <g id="arrowUp" xlink:href="#dirArrow" transform="translate(30 24)" onmousedown="handlePan(0,-1)">
                  <use xlink:href="#rim" fill="#404040">
                        <set attributeName="fill" to="#808080" begin="arrowUp.mouseover" end="arrowUp.mouseout"/>
                  </use>
                  <path fill="none" stroke="white" stroke-width="1.5" d="M0,-3.0v7 M-2.5,-0.5L0,-3.0L2.5,-0.5"/>
                </g>
                <g id="arrowRight" xlink:href="#dirArrow" transform="rotate(90) translate(36 -43)" onmousedown="handlePan(1,0)">
                  <use xlink:href="#rim" fill="#404040">
                        <set attributeName="fill" to="#808080" begin="arrowRight.mouseover" end="arrowRight.mouseout"/>
                  </use>
                  <path fill="none" stroke="white" stroke-width="1.5" d="M0,-3.0v7 M-2.5,-0.5L0,-3.0L2.5,-0.5"/>
                </g>
                <g id="arrowDown" xlink:href="#dirArrow" transform="rotate(180) translate(-30 -48)" onmousedown="handlePan(0,1)">
                  <use xlink:href="#rim" fill="#404040">
                        <set attributeName="fill" to="#808080" begin="arrowDown.mouseover" end="arrowDown.mouseout"/>
                  </use>
                  <path fill="none" stroke="white" stroke-width="1.5" d="M0,-3.0v7 M-2.5,-0.5L0,-3.0L2.5,-0.5"/>
                </g>
                <g id="arrowLeft" xlink:href="#dirArrow" transform="rotate(270) translate(-36 17)" onmousedown="handlePan(-1,0)">
                  <use xlink:href="#rim" fill="#404040">
                        <set attributeName="fill" to="#808080" begin="arrowLeft.mouseover" end="arrowLeft.mouseout"/>
                  </use>
                  <path fill="none" stroke="white" stroke-width="1.5" d="M0,-3.0v7 M-2.5,-0.5L0,-3.0L2.5,-0.5"/>
                </g>
        </g>
        <svg viewBox="0 0 15 15" width="100%" height="30px" preserveAspectRatio="xMaxYMin meet">
         <g id="arrow_out" transform="scale(0.3 0.3)">
          <a xlink:href="EvtGenIF_8hpp__incl_org.svg" target="_base">
           <rect id="button" ry="5" rx="5" y="6" x="6" height="38" width="38"
                fill="#f2f5e9" fill-opacity="0.5" stroke="#606060" stroke-width="1.0"/>
           <path id="arrow"
             d="M 11.500037,31.436501 C 11.940474,20.09759 22.043105,11.32322 32.158766,21.979434 L 37.068811,17.246167 C 37.068811,17.246167 37.088388,32 37.088388,32 L 22.160133,31.978069 C 22.160133,31.978069 26.997745,27.140456 26.997745,27.140456 C 18.528582,18.264221 13.291696,25.230495 11.500037,31.436501 z"
             style="fill:#404040;"/>
          </a>
         </g>
        </svg>
</svg>
