<?xml version="1.0" encoding="UTF-8" standalone="no"?>
<!DOCTYPE svg PUBLIC "-//W3C//DTD SVG 1.1//EN"
 "http://www.w3.org/Graphics/SVG/1.1/DTD/svg11.dtd">
<!-- Generated by graphviz version 2.38.0 (20140413.2041)
 -->
<!-- Title: Physics/Dynamics/Utils/Faddeeva.cc Pages: 1 -->
<svg width="204pt" height="95pt"
 viewBox="0.00 0.00 203.50 95.00" xmlns="http://www.w3.org/2000/svg" xmlns:xlink="http://www.w3.org/1999/xlink">
<g id="graph0" class="graph" transform="scale(1 1) rotate(0) translate(4 91)">
<title>Physics/Dynamics/Utils/Faddeeva.cc</title>
<polygon fill="white" stroke="none" points="-4,4 -4,-91 199.5,-91 199.5,4 -4,4"/>
<!-- Node1 -->
<g id="node1" class="node"><title>Node1</title>
<polygon fill="#bfbfbf" stroke="black" points="47,-56.5 47,-86.5 169,-86.5 169,-56.5 47,-56.5"/>
<text text-anchor="start" x="55" y="-74.5" font-family="Helvetica,sans-Serif" font-size="10.00">Physics/Dynamics/Utils</text>
<text text-anchor="middle" x="108" y="-63.5" font-family="Helvetica,sans-Serif" font-size="10.00">/Faddeeva.cc</text>
</g>
<!-- Node2 -->
<g id="node2" class="node"><title>Node2</title>
<polygon fill="white" stroke="#bfbfbf" points="0,-0.5 0,-19.5 68,-19.5 68,-0.5 0,-0.5"/>
<text text-anchor="middle" x="34" y="-7.5" font-family="Helvetica,sans-Serif" font-size="10.00">Faddeeva.h</text>
</g>
<!-- Node1&#45;&gt;Node2 -->
<g id="edge1" class="edge"><title>Node1&#45;&gt;Node2</title>
<path fill="none" stroke="midnightblue" d="M90.463,-56.3993C79.1557,-47.3076 64.4581,-35.4899 52.8929,-26.1909"/>
<polygon fill="midnightblue" stroke="midnightblue" points="54.7541,-23.1964 44.7677,-19.6578 50.3677,-28.6517 54.7541,-23.1964"/>
</g>
<!-- Node3 -->
<g id="node3" class="node"><title>Node3</title>
<polygon fill="white" stroke="#bfbfbf" points="86,-0.5 86,-19.5 130,-19.5 130,-0.5 86,-0.5"/>
<text text-anchor="middle" x="108" y="-7.5" font-family="Helvetica,sans-Serif" font-size="10.00">float.h</text>
</g>
<!-- Node1&#45;&gt;Node3 -->
<g id="edge2" class="edge"><title>Node1&#45;&gt;Node3</title>
<path fill="none" stroke="midnightblue" d="M108,-56.3993C108,-48.4664 108,-38.458 108,-29.8583"/>
<polygon fill="midnightblue" stroke="midnightblue" points="111.5,-29.6577 108,-19.6578 104.5,-29.6578 111.5,-29.6577"/>
</g>
<!-- Node4 -->
<g id="node4" class="node"><title>Node4</title>
<polygon fill="white" stroke="#bfbfbf" points="148.5,-0.5 148.5,-19.5 195.5,-19.5 195.5,-0.5 148.5,-0.5"/>
<text text-anchor="middle" x="172" y="-7.5" font-family="Helvetica,sans-Serif" font-size="10.00">math.h</text>
</g>
<!-- Node1&#45;&gt;Node4 -->
<g id="edge3" class="edge"><title>Node1&#45;&gt;Node4</title>
<path fill="none" stroke="midnightblue" d="M123.167,-56.3993C132.755,-47.4859 145.161,-35.9523 155.069,-26.7408"/>
<polygon fill="midnightblue" stroke="midnightblue" points="157.747,-29.0301 162.687,-19.6578 152.98,-23.9033 157.747,-29.0301"/>
</g>
</g>
</svg>
