<?xml version="1.0" encoding="UTF-8" standalone="no"?>
<!DOCTYPE svg PUBLIC "-//W3C//DTD SVG 1.1//EN"
 "http://www.w3.org/Graphics/SVG/1.1/DTD/svg11.dtd">
<!-- Generated by graphviz version 2.38.0 (20140413.2041)
 -->
<!-- Title: Tools/FitFractions.hpp Pages: 1 -->
<svg width="320pt" height="140pt"
 viewBox="0.00 0.00 319.50 140.00" xmlns="http://www.w3.org/2000/svg" xmlns:xlink="http://www.w3.org/1999/xlink">
<g id="graph0" class="graph" transform="scale(1 1) rotate(0) translate(4 136)">
<title>Tools/FitFractions.hpp</title>
<polygon fill="white" stroke="none" points="-4,4 -4,-136 315.5,-136 315.5,4 -4,4"/>
<!-- Node1 -->
<g id="node1" class="node"><title>Node1</title>
<polygon fill="#bfbfbf" stroke="black" points="120.5,-112.5 120.5,-131.5 234.5,-131.5 234.5,-112.5 120.5,-112.5"/>
<text text-anchor="middle" x="177.5" y="-119.5" font-family="Helvetica,sans-Serif" font-size="10.00">Tools/FitFractions.hpp</text>
</g>
<!-- Node2 -->
<g id="node2" class="node"><title>Node2</title>
<g id="a_node2"><a xlink:href="Function_8hpp.html" target="_top" xlink:title="Core/Function.hpp">
<polygon fill="white" stroke="black" points="52,-56.5 52,-75.5 149,-75.5 149,-56.5 52,-56.5"/>
<text text-anchor="middle" x="100.5" y="-63.5" font-family="Helvetica,sans-Serif" font-size="10.00">Core/Function.hpp</text>
</a>
</g>
</g>
<!-- Node1&#45;&gt;Node2 -->
<g id="edge1" class="edge"><title>Node1&#45;&gt;Node2</title>
<path fill="none" stroke="midnightblue" d="M165.129,-112.324C153.342,-104.058 135.368,-91.4527 121.364,-81.6322"/>
<polygon fill="midnightblue" stroke="midnightblue" points="123.038,-78.5307 112.841,-75.6545 119.018,-84.2619 123.038,-78.5307"/>
</g>
<!-- Node3 -->
<g id="node3" class="node"><title>Node3</title>
<polygon fill="white" stroke="#bfbfbf" points="0,-0.5 0,-19.5 41,-19.5 41,-0.5 0,-0.5"/>
<text text-anchor="middle" x="20.5" y="-7.5" font-family="Helvetica,sans-Serif" font-size="10.00">string</text>
</g>
<!-- Node1&#45;&gt;Node3 -->
<g id="edge7" class="edge"><title>Node1&#45;&gt;Node3</title>
<path fill="none" stroke="midnightblue" d="M120.456,-113.874C93.7148,-107.828 63.2487,-96.6533 42.5,-76 30.241,-63.7974 24.8109,-44.5289 22.4069,-30.1341"/>
<polygon fill="midnightblue" stroke="midnightblue" points="25.8301,-29.3206 21.055,-19.8628 18.8899,-30.234 25.8301,-29.3206"/>
</g>
<!-- Node5 -->
<g id="node5" class="node"><title>Node5</title>
<polygon fill="white" stroke="#bfbfbf" points="160.5,-0.5 160.5,-19.5 204.5,-19.5 204.5,-0.5 160.5,-0.5"/>
<text text-anchor="middle" x="182.5" y="-7.5" font-family="Helvetica,sans-Serif" font-size="10.00">vector</text>
</g>
<!-- Node1&#45;&gt;Node5 -->
<g id="edge8" class="edge"><title>Node1&#45;&gt;Node5</title>
<path fill="none" stroke="midnightblue" d="M177.892,-112.368C178.699,-94.617 180.561,-53.6664 181.655,-29.5974"/>
<polygon fill="midnightblue" stroke="midnightblue" points="185.152,-29.7401 182.109,-19.5914 178.159,-29.4221 185.152,-29.7401"/>
</g>
<!-- Node6 -->
<g id="node6" class="node"><title>Node6</title>
<polygon fill="white" stroke="#bfbfbf" points="206,-56.5 206,-75.5 241,-75.5 241,-56.5 206,-56.5"/>
<text text-anchor="middle" x="223.5" y="-63.5" font-family="Helvetica,sans-Serif" font-size="10.00">map</text>
</g>
<!-- Node1&#45;&gt;Node6 -->
<g id="edge5" class="edge"><title>Node1&#45;&gt;Node6</title>
<path fill="none" stroke="midnightblue" d="M185.096,-112.083C191.727,-104.298 201.521,-92.8015 209.558,-83.3665"/>
<polygon fill="midnightblue" stroke="midnightblue" points="212.225,-85.6332 216.045,-75.7511 206.896,-81.0939 212.225,-85.6332"/>
</g>
<!-- Node7 -->
<g id="node7" class="node"><title>Node7</title>
<polygon fill="white" stroke="#bfbfbf" points="259.5,-56.5 259.5,-75.5 311.5,-75.5 311.5,-56.5 259.5,-56.5"/>
<text text-anchor="middle" x="285.5" y="-63.5" font-family="Helvetica,sans-Serif" font-size="10.00">memory</text>
</g>
<!-- Node1&#45;&gt;Node7 -->
<g id="edge6" class="edge"><title>Node1&#45;&gt;Node7</title>
<path fill="none" stroke="midnightblue" d="M194.852,-112.324C212.172,-103.664 239.015,-90.2424 259.002,-80.249"/>
<polygon fill="midnightblue" stroke="midnightblue" points="260.812,-83.2572 268.191,-75.6545 257.681,-76.9962 260.812,-83.2572"/>
</g>
<!-- Node2&#45;&gt;Node3 -->
<g id="edge2" class="edge"><title>Node2&#45;&gt;Node3</title>
<path fill="none" stroke="midnightblue" d="M87.6466,-56.324C75.2836,-47.979 56.3699,-35.2122 41.7628,-25.3524"/>
<polygon fill="midnightblue" stroke="midnightblue" points="43.5682,-22.3483 33.3215,-19.6545 39.6518,-28.1503 43.5682,-22.3483"/>
</g>
<!-- Node4 -->
<g id="node4" class="node"><title>Node4</title>
<polygon fill="white" stroke="#bfbfbf" points="59,-0.5 59,-19.5 142,-19.5 142,-0.5 59,-0.5"/>
<text text-anchor="middle" x="100.5" y="-7.5" font-family="Helvetica,sans-Serif" font-size="10.00">unordered_map</text>
</g>
<!-- Node2&#45;&gt;Node4 -->
<g id="edge3" class="edge"><title>Node2&#45;&gt;Node4</title>
<path fill="none" stroke="midnightblue" d="M100.5,-56.083C100.5,-49.0059 100.5,-38.8611 100.5,-29.9865"/>
<polygon fill="midnightblue" stroke="midnightblue" points="104,-29.751 100.5,-19.7511 97.0001,-29.7511 104,-29.751"/>
</g>
<!-- Node2&#45;&gt;Node5 -->
<g id="edge4" class="edge"><title>Node2&#45;&gt;Node5</title>
<path fill="none" stroke="midnightblue" d="M113.675,-56.324C126.347,-47.979 145.733,-35.2122 160.706,-25.3524"/>
<polygon fill="midnightblue" stroke="midnightblue" points="162.931,-28.0776 169.358,-19.6545 159.081,-22.2313 162.931,-28.0776"/>
</g>
</g>
</svg>
