<?xml version="1.0" encoding="UTF-8" standalone="no"?>
<!DOCTYPE svg PUBLIC "-//W3C//DTD SVG 1.1//EN"
 "http://www.w3.org/Graphics/SVG/1.1/DTD/svg11.dtd">
<!-- Generated by graphviz version 2.38.0 (20140413.2041)
 -->
<!-- Title: Tools/FitFractions.hpp Pages: 1 -->
<svg width="756pt" height="151pt"
 viewBox="0.00 0.00 755.50 151.00" xmlns="http://www.w3.org/2000/svg" xmlns:xlink="http://www.w3.org/1999/xlink">
<g id="graph0" class="graph" transform="scale(1 1) rotate(0) translate(4 147)">
<title>Tools/FitFractions.hpp</title>
<polygon fill="white" stroke="none" points="-4,4 -4,-147 751.5,-147 751.5,4 -4,4"/>
<!-- Node1 -->
<g id="node1" class="node"><title>Node1</title>
<polygon fill="#bfbfbf" stroke="black" points="244.5,-123.5 244.5,-142.5 358.5,-142.5 358.5,-123.5 244.5,-123.5"/>
<text text-anchor="middle" x="301.5" y="-130.5" font-family="Helvetica,sans-Serif" font-size="10.00">Tools/FitFractions.hpp</text>
</g>
<!-- Node2 -->
<g id="node2" class="node"><title>Node2</title>
<g id="a_node2"><a xlink:href="BuilderXML_8hpp.html" target="_top" xlink:title="Physics/BuilderXML.hpp">
<polygon fill="white" stroke="black" points="239.5,-67.5 239.5,-86.5 363.5,-86.5 363.5,-67.5 239.5,-67.5"/>
<text text-anchor="middle" x="301.5" y="-74.5" font-family="Helvetica,sans-Serif" font-size="10.00">Physics/BuilderXML.hpp</text>
</a>
</g>
</g>
<!-- Node1&#45;&gt;Node2 -->
<g id="edge1" class="edge"><title>Node1&#45;&gt;Node2</title>
<path fill="none" stroke="midnightblue" d="M301.5,-112.805C301.5,-103.91 301.5,-93.7798 301.5,-86.7511"/>
<polygon fill="midnightblue" stroke="midnightblue" points="298,-113.083 301.5,-123.083 305,-113.083 298,-113.083"/>
</g>
<!-- Node3 -->
<g id="node3" class="node"><title>Node3</title>
<g id="a_node3"><a xlink:href="DalitzFitD03K_8cpp.html" target="_top" xlink:title="Executable for Dalitz plot analysis of the decay D0 &#45;&gt; K_S K+ K&#45;. ">
<polygon fill="white" stroke="black" points="0,-0.5 0,-30.5 143,-30.5 143,-0.5 0,-0.5"/>
<text text-anchor="start" x="8" y="-18.5" font-family="Helvetica,sans-Serif" font-size="10.00">Examples/DalitzAnalysis</text>
<text text-anchor="middle" x="71.5" y="-7.5" font-family="Helvetica,sans-Serif" font-size="10.00">_D0KsKK/DalitzFitD03K.cpp</text>
</a>
</g>
</g>
<!-- Node1&#45;&gt;Node3 -->
<g id="edge7" class="edge"><title>Node1&#45;&gt;Node3</title>
<path fill="none" stroke="midnightblue" d="M275.065,-118.725C231.307,-96.7509 144.217,-53.0165 99.469,-30.5453"/>
<polygon fill="midnightblue" stroke="midnightblue" points="273.705,-121.959 284.213,-123.319 276.847,-115.703 273.705,-121.959"/>
</g>
<!-- Node4 -->
<g id="node4" class="node"><title>Node4</title>
<g id="a_node4"><a xlink:href="DalitzFitApp_8cpp.html" target="_top" xlink:title="Simple Dalitz plot analysis with ComPWA. ">
<polygon fill="white" stroke="black" points="161.5,-0.5 161.5,-30.5 261.5,-30.5 261.5,-0.5 161.5,-0.5"/>
<text text-anchor="start" x="169.5" y="-18.5" font-family="Helvetica,sans-Serif" font-size="10.00">Examples/DalitzFit</text>
<text text-anchor="middle" x="211.5" y="-7.5" font-family="Helvetica,sans-Serif" font-size="10.00">/DalitzFitApp.cpp</text>
</a>
</g>
</g>
<!-- Node1&#45;&gt;Node4 -->
<g id="edge8" class="edge"><title>Node1&#45;&gt;Node4</title>
<path fill="none" stroke="midnightblue" d="M270.793,-118.982C256.625,-111.535 240.72,-100.883 230.5,-87 218.1,-70.1559 213.792,-45.7377 212.295,-30.5064"/>
<polygon fill="midnightblue" stroke="midnightblue" points="269.259,-122.128 279.775,-123.415 272.357,-115.851 269.259,-122.128"/>
</g>
<!-- Node8 -->
<g id="node8" class="node"><title>Node8</title>
<g id="a_node8"><a xlink:href="EvtGenFit_8cpp.html" target="_top" xlink:title="Examples/EvtGen/EvtGenFit.cpp">
<polygon fill="white" stroke="black" points="381.5,-67.5 381.5,-86.5 543.5,-86.5 543.5,-67.5 381.5,-67.5"/>
<text text-anchor="middle" x="462.5" y="-74.5" font-family="Helvetica,sans-Serif" font-size="10.00">Examples/EvtGen/EvtGenFit.cpp</text>
</a>
</g>
</g>
<!-- Node1&#45;&gt;Node8 -->
<g id="edge9" class="edge"><title>Node1&#45;&gt;Node8</title>
<path fill="none" stroke="midnightblue" d="M336.765,-120.172C367.081,-110.004 410.07,-95.5852 437.108,-86.5164"/>
<polygon fill="midnightblue" stroke="midnightblue" points="335.379,-116.945 327.011,-123.444 337.605,-123.582 335.379,-116.945"/>
</g>
<!-- Node9 -->
<g id="node9" class="node"><title>Node9</title>
<g id="a_node9"><a xlink:href="FitFractions_8cpp.html" target="_top" xlink:title="Tools/FitFractions.cpp">
<polygon fill="white" stroke="black" points="561.5,-67.5 561.5,-86.5 675.5,-86.5 675.5,-67.5 561.5,-67.5"/>
<text text-anchor="middle" x="618.5" y="-74.5" font-family="Helvetica,sans-Serif" font-size="10.00">Tools/FitFractions.cpp</text>
</a>
</g>
</g>
<!-- Node1&#45;&gt;Node9 -->
<g id="edge10" class="edge"><title>Node1&#45;&gt;Node9</title>
<path fill="none" stroke="midnightblue" d="M361.803,-121.727C421.707,-111.523 512.491,-96.0583 568.505,-86.5164"/>
<polygon fill="midnightblue" stroke="midnightblue" points="361,-118.314 351.73,-123.444 362.175,-125.214 361,-118.314"/>
</g>
<!-- Node2&#45;&gt;Node3 -->
<g id="edge2" class="edge"><title>Node2&#45;&gt;Node3</title>
<path fill="none" stroke="midnightblue" d="M258.434,-64.859C220.881,-55.1442 166.227,-41.0055 125.706,-30.523"/>
<polygon fill="midnightblue" stroke="midnightblue" points="257.989,-68.359 268.547,-67.4751 259.742,-61.5821 257.989,-68.359"/>
</g>
<!-- Node2&#45;&gt;Node4 -->
<g id="edge3" class="edge"><title>Node2&#45;&gt;Node4</title>
<path fill="none" stroke="midnightblue" d="M279.929,-61.739C265.625,-52.2824 246.941,-39.9304 232.711,-30.523"/>
<polygon fill="midnightblue" stroke="midnightblue" points="278.333,-64.8798 288.605,-67.4751 282.194,-59.0405 278.333,-64.8798"/>
</g>
<!-- Node5 -->
<g id="node5" class="node"><title>Node5</title>
<g id="a_node5"><a xlink:href="SimFit_8cpp.html" target="_top" xlink:title="Examples/SimFit/SimFit.cpp">
<polygon fill="white" stroke="black" points="279.5,-6 279.5,-25 421.5,-25 421.5,-6 279.5,-6"/>
<text text-anchor="middle" x="350.5" y="-13" font-family="Helvetica,sans-Serif" font-size="10.00">Examples/SimFit/SimFit.cpp</text>
</a>
</g>
</g>
<!-- Node2&#45;&gt;Node5 -->
<g id="edge4" class="edge"><title>Node2&#45;&gt;Node5</title>
<path fill="none" stroke="midnightblue" d="M314.949,-59.6685C324.187,-48.452 336.075,-34.0161 343.493,-25.0091"/>
<polygon fill="midnightblue" stroke="midnightblue" points="312.176,-57.5308 308.521,-67.4751 317.579,-61.9808 312.176,-57.5308"/>
</g>
<!-- Node6 -->
<g id="node6" class="node"><title>Node6</title>
<g id="a_node6"><a xlink:href="BuilderXML_8cpp.html" target="_top" xlink:title="Physics/BuilderXML.cpp">
<polygon fill="white" stroke="black" points="439.5,-6 439.5,-25 563.5,-25 563.5,-6 439.5,-6"/>
<text text-anchor="middle" x="501.5" y="-13" font-family="Helvetica,sans-Serif" font-size="10.00">Physics/BuilderXML.cpp</text>
</a>
</g>
</g>
<!-- Node2&#45;&gt;Node6 -->
<g id="edge5" class="edge"><title>Node2&#45;&gt;Node6</title>
<path fill="none" stroke="midnightblue" d="M340.059,-64.5286C378.93,-52.9647 438.021,-35.3849 472.898,-25.0091"/>
<polygon fill="midnightblue" stroke="midnightblue" points="338.742,-61.2689 330.155,-67.4751 340.738,-67.9782 338.742,-61.2689"/>
</g>
<!-- Node7 -->
<g id="node7" class="node"><title>Node7</title>
<g id="a_node7"><a xlink:href="BOSSAdapter_8cpp.html" target="_top" xlink:title="Tools/Adapters/BOSSAdapter.cpp">
<polygon fill="white" stroke="black" points="581.5,-6 581.5,-25 747.5,-25 747.5,-6 581.5,-6"/>
<text text-anchor="middle" x="664.5" y="-13" font-family="Helvetica,sans-Serif" font-size="10.00">Tools/Adapters/BOSSAdapter.cpp</text>
</a>
</g>
</g>
<!-- Node2&#45;&gt;Node7 -->
<g id="edge6" class="edge"><title>Node2&#45;&gt;Node7</title>
<path fill="none" stroke="midnightblue" d="M363.546,-65.83C433.755,-54.3218 546.862,-35.7822 612.587,-25.0091"/>
<polygon fill="midnightblue" stroke="midnightblue" points="362.811,-62.4036 353.509,-67.4751 363.944,-69.3114 362.811,-62.4036"/>
</g>
</g>
</svg>
