<?xml version="1.0" encoding="UTF-8" standalone="no"?>
<!DOCTYPE svg PUBLIC "-//W3C//DTD SVG 1.1//EN"
 "http://www.w3.org/Graphics/SVG/1.1/DTD/svg11.dtd">
<!-- Generated by graphviz version 2.38.0 (20140413.2041)
 -->
<!-- Title: Tools/FitFractions.cpp Pages: 1 -->
<svg width="744pt" height="263pt"
 viewBox="0.00 0.00 743.72 263.00" xmlns="http://www.w3.org/2000/svg" xmlns:xlink="http://www.w3.org/1999/xlink">
<g id="graph0" class="graph" transform="scale(1 1) rotate(0) translate(4 259)">
<title>Tools/FitFractions.cpp</title>
<polygon fill="white" stroke="none" points="-4,4 -4,-259 739.723,-259 739.723,4 -4,4"/>
<!-- Node1 -->
<g id="node1" class="node"><title>Node1</title>
<polygon fill="#bfbfbf" stroke="black" points="214.5,-235.5 214.5,-254.5 328.5,-254.5 328.5,-235.5 214.5,-235.5"/>
<text text-anchor="middle" x="271.5" y="-242.5" font-family="Helvetica,sans-Serif" font-size="10.00">Tools/FitFractions.cpp</text>
</g>
<!-- Node2 -->
<g id="node2" class="node"><title>Node2</title>
<g id="a_node2"><a xlink:href="FitFractions_8hpp.html" target="_top" xlink:title="FitFractions.hpp">
<polygon fill="white" stroke="black" points="33,-118 33,-137 120,-137 120,-118 33,-118"/>
<text text-anchor="middle" x="76.5" y="-125" font-family="Helvetica,sans-Serif" font-size="10.00">FitFractions.hpp</text>
</a>
</g>
</g>
<!-- Node1&#45;&gt;Node2 -->
<g id="edge1" class="edge"><title>Node1&#45;&gt;Node2</title>
<path fill="none" stroke="midnightblue" d="M224.449,-235.457C196.541,-228.777 161.467,-217.444 134.5,-199 114.133,-185.07 97.0869,-162.009 86.8555,-146.074"/>
<polygon fill="midnightblue" stroke="midnightblue" points="89.6239,-143.895 81.3969,-137.22 83.6652,-147.569 89.6239,-143.895"/>
</g>
<!-- Node3 -->
<g id="node3" class="node"><title>Node3</title>
<g id="a_node3"><a xlink:href="Function_8hpp.html" target="_top" xlink:title="Core/Function.hpp">
<polygon fill="white" stroke="red" points="213,-56.5 213,-75.5 310,-75.5 310,-56.5 213,-56.5"/>
<text text-anchor="middle" x="261.5" y="-63.5" font-family="Helvetica,sans-Serif" font-size="10.00">Core/Function.hpp</text>
</a>
</g>
</g>
<!-- Node1&#45;&gt;Node3 -->
<g id="edge18" class="edge"><title>Node1&#45;&gt;Node3</title>
<path fill="none" stroke="midnightblue" d="M223.451,-235.458C202.558,-229.101 180.03,-218.074 167.5,-199 138.736,-155.213 201.557,-105.283 237.943,-81.3161"/>
<polygon fill="midnightblue" stroke="midnightblue" points="240.019,-84.1428 246.552,-75.8018 236.244,-78.2482 240.019,-84.1428"/>
</g>
<!-- Node6 -->
<g id="node6" class="node"><title>Node6</title>
<polygon fill="white" stroke="#bfbfbf" points="0,-56.5 0,-75.5 35,-75.5 35,-56.5 0,-56.5"/>
<text text-anchor="middle" x="17.5" y="-63.5" font-family="Helvetica,sans-Serif" font-size="10.00">map</text>
</g>
<!-- Node1&#45;&gt;Node6 -->
<g id="edge29" class="edge"><title>Node1&#45;&gt;Node6</title>
<path fill="none" stroke="midnightblue" d="M214.282,-239.787C153.98,-231.843 62.4512,-208.947 23.5,-143 13.3172,-125.76 13.074,-102.355 14.5789,-86.0926"/>
<polygon fill="midnightblue" stroke="midnightblue" points="18.1099,-86.0578 15.8666,-75.7032 11.1631,-85.1968 18.1099,-86.0578"/>
</g>
<!-- Node8 -->
<g id="node8" class="node"><title>Node8</title>
<g id="a_node8"><a xlink:href="FitResult_8hpp.html" target="_top" xlink:title="Core/FitResult.hpp">
<polygon fill="white" stroke="black" points="365,-179.5 365,-198.5 464,-198.5 464,-179.5 365,-179.5"/>
<text text-anchor="middle" x="414.5" y="-186.5" font-family="Helvetica,sans-Serif" font-size="10.00">Core/FitResult.hpp</text>
</a>
</g>
</g>
<!-- Node1&#45;&gt;Node8 -->
<g id="edge9" class="edge"><title>Node1&#45;&gt;Node8</title>
<path fill="none" stroke="midnightblue" d="M294.159,-235.444C317.902,-226.478 355.409,-212.314 382.238,-202.183"/>
<polygon fill="midnightblue" stroke="midnightblue" points="383.829,-205.324 391.947,-198.516 381.356,-198.775 383.829,-205.324"/>
</g>
<!-- Node10 -->
<g id="node10" class="node"><title>Node10</title>
<g id="a_node10"><a xlink:href="Logging_8hpp.html" target="_top" xlink:title="Core/Logging.hpp">
<polygon fill="white" stroke="red" points="620,-56.5 620,-75.5 713,-75.5 713,-56.5 620,-56.5"/>
<text text-anchor="middle" x="666.5" y="-63.5" font-family="Helvetica,sans-Serif" font-size="10.00">Core/Logging.hpp</text>
</a>
</g>
</g>
<!-- Node1&#45;&gt;Node10 -->
<g id="edge19" class="edge"><title>Node1&#45;&gt;Node10</title>
<path fill="none" stroke="midnightblue" d="M328.73,-241.646C423.041,-237.075 606.546,-225.064 665.5,-199 709.403,-179.59 751.465,-154.682 729.5,-112 722.423,-98.2475 708.979,-87.7663 696.322,-80.3942"/>
<polygon fill="midnightblue" stroke="midnightblue" points="697.813,-77.2221 687.347,-75.5733 694.501,-83.3888 697.813,-77.2221"/>
</g>
<!-- Node13 -->
<g id="node13" class="node"><title>Node13</title>
<g id="a_node13"><a xlink:href="ProgressBar_8hpp.html" target="_top" xlink:title="Core/ProgressBar.hpp">
<polygon fill="white" stroke="black" points="544,-179.5 544,-198.5 657,-198.5 657,-179.5 544,-179.5"/>
<text text-anchor="middle" x="600.5" y="-186.5" font-family="Helvetica,sans-Serif" font-size="10.00">Core/ProgressBar.hpp</text>
</a>
</g>
</g>
<!-- Node1&#45;&gt;Node13 -->
<g id="edge20" class="edge"><title>Node1&#45;&gt;Node13</title>
<path fill="none" stroke="midnightblue" d="M323.631,-235.444C381.987,-225.865 476.482,-210.356 538.559,-200.167"/>
<polygon fill="midnightblue" stroke="midnightblue" points="539.312,-203.59 548.613,-198.516 538.178,-196.682 539.312,-203.59"/>
</g>
<!-- Node15 -->
<g id="node15" class="node"><title>Node15</title>
<g id="a_node15"><a xlink:href="DataSet_8hpp.html" target="_top" xlink:title="Data/DataSet.hpp">
<polygon fill="white" stroke="black" points="215,-118 215,-137 310,-137 310,-118 215,-118"/>
<text text-anchor="middle" x="262.5" y="-125" font-family="Helvetica,sans-Serif" font-size="10.00">Data/DataSet.hpp</text>
</a>
</g>
</g>
<!-- Node1&#45;&gt;Node15 -->
<g id="edge22" class="edge"><title>Node1&#45;&gt;Node15</title>
<path fill="none" stroke="midnightblue" d="M277.988,-235.258C286.376,-222.861 299.264,-199.408 293.5,-179 290.025,-166.696 282.618,-154.436 275.915,-145.078"/>
<polygon fill="midnightblue" stroke="midnightblue" points="278.688,-142.941 269.857,-137.088 273.11,-147.171 278.688,-142.941"/>
</g>
<!-- Node17 -->
<g id="node17" class="node"><title>Node17</title>
<g id="a_node17"><a xlink:href="Integration_8hpp.html" target="_top" xlink:title="Tools/Integration.hpp">
<polygon fill="white" stroke="black" points="176.5,-179.5 176.5,-198.5 284.5,-198.5 284.5,-179.5 176.5,-179.5"/>
<text text-anchor="middle" x="230.5" y="-186.5" font-family="Helvetica,sans-Serif" font-size="10.00">Tools/Integration.hpp</text>
</a>
</g>
</g>
<!-- Node1&#45;&gt;Node17 -->
<g id="edge27" class="edge"><title>Node1&#45;&gt;Node17</title>
<path fill="none" stroke="midnightblue" d="M264.73,-235.083C258.938,-227.455 250.442,-216.264 243.362,-206.941"/>
<polygon fill="midnightblue" stroke="midnightblue" points="245.979,-204.599 237.144,-198.751 240.404,-208.832 245.979,-204.599"/>
</g>
<!-- Node2&#45;&gt;Node3 -->
<g id="edge2" class="edge"><title>Node2&#45;&gt;Node3</title>
<path fill="none" stroke="midnightblue" d="M103.006,-117.975C135.152,-107.636 189.487,-90.1611 225.427,-78.6017"/>
<polygon fill="midnightblue" stroke="midnightblue" points="226.595,-81.9028 235.043,-75.5091 224.452,-75.239 226.595,-81.9028"/>
</g>
<!-- Node4 -->
<g id="node4" class="node"><title>Node4</title>
<polygon fill="white" stroke="#bfbfbf" points="241,-0.5 241,-19.5 282,-19.5 282,-0.5 241,-0.5"/>
<text text-anchor="middle" x="261.5" y="-7.5" font-family="Helvetica,sans-Serif" font-size="10.00">string</text>
</g>
<!-- Node2&#45;&gt;Node4 -->
<g id="edge7" class="edge"><title>Node2&#45;&gt;Node4</title>
<path fill="none" stroke="midnightblue" d="M76.9427,-117.755C78.1755,-102.895 82.8413,-72.7036 100.5,-56 136.04,-22.3818 194.58,-13.5254 230.422,-11.3973"/>
<polygon fill="midnightblue" stroke="midnightblue" points="230.934,-14.878 240.767,-10.9329 230.62,-7.88501 230.934,-14.878"/>
</g>
<!-- Node5 -->
<g id="node5" class="node"><title>Node5</title>
<polygon fill="white" stroke="#bfbfbf" points="343.5,-0.5 343.5,-19.5 387.5,-19.5 387.5,-0.5 343.5,-0.5"/>
<text text-anchor="middle" x="365.5" y="-7.5" font-family="Helvetica,sans-Serif" font-size="10.00">vector</text>
</g>
<!-- Node2&#45;&gt;Node5 -->
<g id="edge8" class="edge"><title>Node2&#45;&gt;Node5</title>
<path fill="none" stroke="midnightblue" d="M80.8015,-117.931C88.886,-102.779 107.869,-71.4071 133.5,-56 150.459,-45.8054 273.608,-25.4209 333.27,-15.9937"/>
<polygon fill="midnightblue" stroke="midnightblue" points="333.958,-19.4286 343.293,-14.4187 332.871,-12.5135 333.958,-19.4286"/>
</g>
<!-- Node2&#45;&gt;Node6 -->
<g id="edge5" class="edge"><title>Node2&#45;&gt;Node6</title>
<path fill="none" stroke="midnightblue" d="M68.0467,-117.975C58.9338,-108.785 44.2298,-93.9563 33.0245,-82.656"/>
<polygon fill="midnightblue" stroke="midnightblue" points="35.4641,-80.1455 25.9376,-75.5091 30.4935,-85.0744 35.4641,-80.1455"/>
</g>
<!-- Node7 -->
<g id="node7" class="node"><title>Node7</title>
<polygon fill="white" stroke="#bfbfbf" points="142.5,-56.5 142.5,-75.5 194.5,-75.5 194.5,-56.5 142.5,-56.5"/>
<text text-anchor="middle" x="168.5" y="-63.5" font-family="Helvetica,sans-Serif" font-size="10.00">memory</text>
</g>
<!-- Node2&#45;&gt;Node7 -->
<g id="edge6" class="edge"><title>Node2&#45;&gt;Node7</title>
<path fill="none" stroke="midnightblue" d="M89.6814,-117.975C104.574,-108.343 129.044,-92.5175 146.773,-81.0517"/>
<polygon fill="midnightblue" stroke="midnightblue" points="148.847,-83.8787 155.343,-75.5091 145.045,-78.0008 148.847,-83.8787"/>
</g>
<!-- Node3&#45;&gt;Node4 -->
<g id="edge3" class="edge"><title>Node3&#45;&gt;Node4</title>
<path fill="none" stroke="midnightblue" d="M261.5,-56.083C261.5,-49.0059 261.5,-38.8611 261.5,-29.9865"/>
<polygon fill="midnightblue" stroke="midnightblue" points="265,-29.751 261.5,-19.7511 258,-29.7511 265,-29.751"/>
</g>
<!-- Node3&#45;&gt;Node5 -->
<g id="edge4" class="edge"><title>Node3&#45;&gt;Node5</title>
<path fill="none" stroke="midnightblue" d="M278.209,-56.324C294.812,-47.7034 320.502,-34.3643 339.72,-24.3855"/>
<polygon fill="midnightblue" stroke="midnightblue" points="341.57,-27.3689 348.832,-19.6545 338.344,-21.1565 341.57,-27.3689"/>
</g>
<!-- Node8&#45;&gt;Node3 -->
<g id="edge15" class="edge"><title>Node8&#45;&gt;Node3</title>
<path fill="none" stroke="midnightblue" d="M403.564,-179.384C392.083,-170.334 373.51,-155.683 357.5,-143 340.144,-129.251 335.856,-125.749 318.5,-112 305.867,-101.992 291.638,-90.7592 280.557,-82.0195"/>
<polygon fill="midnightblue" stroke="midnightblue" points="282.456,-79.0592 272.436,-75.6161 278.121,-84.5561 282.456,-79.0592"/>
</g>
<!-- Node9 -->
<g id="node9" class="node"><title>Node9</title>
<g id="a_node9"><a xlink:href="FitParameter_8hpp.html" target="_top" xlink:title="Core/FitParameter.hpp">
<polygon fill="white" stroke="red" points="480.5,-118 480.5,-137 596.5,-137 596.5,-118 480.5,-118"/>
<text text-anchor="middle" x="538.5" y="-125" font-family="Helvetica,sans-Serif" font-size="10.00">Core/FitParameter.hpp</text>
</a>
</g>
</g>
<!-- Node8&#45;&gt;Node9 -->
<g id="edge10" class="edge"><title>Node8&#45;&gt;Node9</title>
<path fill="none" stroke="midnightblue" d="M432.266,-179.475C452.984,-169.534 487.452,-152.995 511.489,-141.461"/>
<polygon fill="midnightblue" stroke="midnightblue" points="513.265,-144.491 520.767,-137.009 510.237,-138.18 513.265,-144.491"/>
</g>
<!-- Node11 -->
<g id="node11" class="node"><title>Node11</title>
<polygon fill="white" stroke="#bfbfbf" points="367,-112.5 367,-142.5 462,-142.5 462,-112.5 367,-112.5"/>
<text text-anchor="start" x="375" y="-130.5" font-family="Helvetica,sans-Serif" font-size="10.00">boost/serialization</text>
<text text-anchor="middle" x="414.5" y="-119.5" font-family="Helvetica,sans-Serif" font-size="10.00">/vector.hpp</text>
</g>
<!-- Node8&#45;&gt;Node11 -->
<g id="edge16" class="edge"><title>Node8&#45;&gt;Node11</title>
<path fill="none" stroke="midnightblue" d="M414.5,-179.475C414.5,-172.471 414.5,-162.192 414.5,-152.696"/>
<polygon fill="midnightblue" stroke="midnightblue" points="418,-152.523 414.5,-142.523 411,-152.523 418,-152.523"/>
</g>
<!-- Node12 -->
<g id="node12" class="node"><title>Node12</title>
<polygon fill="white" stroke="#bfbfbf" points="614.5,-118 614.5,-137 660.5,-137 660.5,-118 614.5,-118"/>
<text text-anchor="middle" x="637.5" y="-125" font-family="Helvetica,sans-Serif" font-size="10.00">chrono</text>
</g>
<!-- Node8&#45;&gt;Node12 -->
<g id="edge17" class="edge"><title>Node8&#45;&gt;Node12</title>
<path fill="none" stroke="midnightblue" d="M461.922,-179.491C501.013,-171.846 557.613,-159.318 605.5,-143 607.167,-142.432 608.865,-141.808 610.566,-141.147"/>
<polygon fill="midnightblue" stroke="midnightblue" points="612.292,-144.217 620.142,-137.103 609.569,-137.769 612.292,-144.217"/>
</g>
<!-- Node9&#45;&gt;Node3 -->
<g id="edge11" class="edge"><title>Node9&#45;&gt;Node3</title>
<path fill="none" stroke="midnightblue" d="M498.813,-117.975C449.343,-107.349 364.78,-89.1847 311.092,-77.6524"/>
<polygon fill="midnightblue" stroke="midnightblue" points="311.626,-74.1873 301.114,-75.5091 310.156,-81.0312 311.626,-74.1873"/>
</g>
<!-- Node9&#45;&gt;Node4 -->
<g id="edge13" class="edge"><title>Node9&#45;&gt;Node4</title>
<path fill="none" stroke="midnightblue" d="M502.613,-117.946C457.617,-106.97 383.256,-87.9256 357.5,-76 328.33,-62.4935 298.193,-40.5415 279.648,-25.9382"/>
<polygon fill="midnightblue" stroke="midnightblue" points="281.752,-23.1386 271.76,-19.6157 277.374,-28.6007 281.752,-23.1386"/>
</g>
<!-- Node9&#45;&gt;Node5 -->
<g id="edge14" class="edge"><title>Node9&#45;&gt;Node5</title>
<path fill="none" stroke="midnightblue" d="M530.527,-117.798C517.118,-103.526 488.737,-74.8512 460.5,-56 440.595,-42.7114 416.154,-31.2286 397.047,-23.1887"/>
<polygon fill="midnightblue" stroke="midnightblue" points="398.174,-19.8679 387.594,-19.3068 395.515,-26.3432 398.174,-19.8679"/>
</g>
<!-- Node9&#45;&gt;Node10 -->
<g id="edge12" class="edge"><title>Node9&#45;&gt;Node10</title>
<path fill="none" stroke="midnightblue" d="M556.839,-117.975C578.321,-107.99 614.122,-91.3476 638.948,-79.8075"/>
<polygon fill="midnightblue" stroke="midnightblue" points="640.602,-82.8983 648.195,-75.5091 637.651,-76.5506 640.602,-82.8983"/>
</g>
<!-- Node14 -->
<g id="node14" class="node"><title>Node14</title>
<polygon fill="white" stroke="#bfbfbf" points="679,-118 679,-137 720,-137 720,-118 679,-118"/>
<text text-anchor="middle" x="699.5" y="-125" font-family="Helvetica,sans-Serif" font-size="10.00">ctime</text>
</g>
<!-- Node13&#45;&gt;Node14 -->
<g id="edge21" class="edge"><title>Node13&#45;&gt;Node14</title>
<path fill="none" stroke="midnightblue" d="M614.684,-179.475C630.858,-169.755 657.526,-153.727 676.643,-142.237"/>
<polygon fill="midnightblue" stroke="midnightblue" points="678.574,-145.16 685.342,-137.009 674.968,-139.161 678.574,-145.16"/>
</g>
<!-- Node15&#45;&gt;Node3 -->
<g id="edge26" class="edge"><title>Node15&#45;&gt;Node3</title>
<path fill="none" stroke="midnightblue" d="M262.357,-117.975C262.216,-109.58 261.995,-96.4806 261.814,-85.6631"/>
<polygon fill="midnightblue" stroke="midnightblue" points="265.311,-85.4488 261.643,-75.5091 258.312,-85.5665 265.311,-85.4488"/>
</g>
<!-- Node15&#45;&gt;Node7 -->
<g id="edge23" class="edge"><title>Node15&#45;&gt;Node7</title>
<path fill="none" stroke="midnightblue" d="M249.032,-117.975C233.815,-108.343 208.813,-92.5175 190.699,-81.0517"/>
<polygon fill="midnightblue" stroke="midnightblue" points="192.264,-77.9002 181.943,-75.5091 188.521,-83.8149 192.264,-77.9002"/>
</g>
<!-- Node16 -->
<g id="node16" class="node"><title>Node16</title>
<g id="a_node16"><a xlink:href="Event_8hpp.html" target="_top" xlink:title="Core/Event.hpp">
<polygon fill="white" stroke="red" points="367,-56.5 367,-75.5 452,-75.5 452,-56.5 367,-56.5"/>
<text text-anchor="middle" x="409.5" y="-63.5" font-family="Helvetica,sans-Serif" font-size="10.00">Core/Event.hpp</text>
</a>
</g>
</g>
<!-- Node15&#45;&gt;Node16 -->
<g id="edge24" class="edge"><title>Node15&#45;&gt;Node16</title>
<path fill="none" stroke="midnightblue" d="M283.562,-117.975C308.559,-107.857 350.442,-90.9046 378.987,-79.3507"/>
<polygon fill="midnightblue" stroke="midnightblue" points="380.521,-82.5054 388.478,-75.5091 377.895,-76.0168 380.521,-82.5054"/>
</g>
<!-- Node16&#45;&gt;Node5 -->
<g id="edge25" class="edge"><title>Node16&#45;&gt;Node5</title>
<path fill="none" stroke="midnightblue" d="M402.234,-56.083C395.955,-48.3768 386.712,-37.0333 379.069,-27.6531"/>
<polygon fill="midnightblue" stroke="midnightblue" points="381.661,-25.2926 372.631,-19.7511 376.234,-29.7143 381.661,-25.2926"/>
</g>
<!-- Node17&#45;&gt;Node3 -->
<g id="edge28" class="edge"><title>Node17&#45;&gt;Node3</title>
<path fill="none" stroke="midnightblue" d="M223.41,-179.286C212.591,-164.861 194.334,-135.298 205.5,-112 211.753,-98.9542 223.836,-88.4921 235.182,-80.9506"/>
<polygon fill="midnightblue" stroke="midnightblue" points="237.309,-83.7515 243.998,-75.5351 233.646,-77.7869 237.309,-83.7515"/>
</g>
</g>
</svg>
