<?xml version="1.0" encoding="UTF-8" standalone="no"?>
<!DOCTYPE svg PUBLIC "-//W3C//DTD SVG 1.1//EN"
 "http://www.w3.org/Graphics/SVG/1.1/DTD/svg11.dtd">
<!-- Generated by graphviz version 2.38.0 (20140413.2041)
 -->
<!-- Title: Core/FitParameter.hpp Pages: 1 -->
<svg width="494pt" height="162pt"
 viewBox="0.00 0.00 494.00 162.00" xmlns="http://www.w3.org/2000/svg" xmlns:xlink="http://www.w3.org/1999/xlink">
<g id="graph0" class="graph" transform="scale(1 1) rotate(0) translate(4 158)">
<title>Core/FitParameter.hpp</title>
<polygon fill="white" stroke="none" points="-4,4 -4,-158 490,-158 490,4 -4,4"/>
<!-- Node1 -->
<g id="node1" class="node"><title>Node1</title>
<polygon fill="#bfbfbf" stroke="black" points="159.5,-134.5 159.5,-153.5 275.5,-153.5 275.5,-134.5 159.5,-134.5"/>
<text text-anchor="middle" x="217.5" y="-141.5" font-family="Helvetica,sans-Serif" font-size="10.00">Core/FitParameter.hpp</text>
</g>
<!-- Node2 -->
<g id="node2" class="node"><title>Node2</title>
<g id="a_node2"><a xlink:href="Function_8hpp.html" target="_top" xlink:title="Core/Function.hpp">
<polygon fill="white" stroke="black" points="53,-73 53,-92 150,-92 150,-73 53,-73"/>
<text text-anchor="middle" x="101.5" y="-80" font-family="Helvetica,sans-Serif" font-size="10.00">Core/Function.hpp</text>
</a>
</g>
</g>
<!-- Node1&#45;&gt;Node2 -->
<g id="edge1" class="edge"><title>Node1&#45;&gt;Node2</title>
<path fill="none" stroke="midnightblue" d="M200.88,-134.475C181.585,-124.578 149.541,-108.142 127.069,-96.6151"/>
<polygon fill="midnightblue" stroke="midnightblue" points="128.584,-93.4589 118.089,-92.0091 125.39,-99.6873 128.584,-93.4589"/>
</g>
<!-- Node3 -->
<g id="node3" class="node"><title>Node3</title>
<polygon fill="white" stroke="#bfbfbf" points="0,-6 0,-25 41,-25 41,-6 0,-6"/>
<text text-anchor="middle" x="20.5" y="-13" font-family="Helvetica,sans-Serif" font-size="10.00">string</text>
</g>
<!-- Node1&#45;&gt;Node3 -->
<g id="edge8" class="edge"><title>Node1&#45;&gt;Node3</title>
<path fill="none" stroke="midnightblue" d="M159.469,-142.247C121.741,-138.679 74.0571,-127.893 43.5,-98 26.6159,-81.483 21.8652,-53.5993 20.6686,-35.1205"/>
<polygon fill="midnightblue" stroke="midnightblue" points="24.1625,-34.884 20.3061,-25.016 17.167,-35.1351 24.1625,-34.884"/>
</g>
<!-- Node5 -->
<g id="node5" class="node"><title>Node5</title>
<polygon fill="white" stroke="#bfbfbf" points="160.5,-6 160.5,-25 204.5,-25 204.5,-6 160.5,-6"/>
<text text-anchor="middle" x="182.5" y="-13" font-family="Helvetica,sans-Serif" font-size="10.00">vector</text>
</g>
<!-- Node1&#45;&gt;Node5 -->
<g id="edge9" class="edge"><title>Node1&#45;&gt;Node5</title>
<path fill="none" stroke="midnightblue" d="M213.868,-134.499C210.142,-125.543 204.359,-110.967 200.5,-98 194.186,-76.7858 188.998,-51.8716 185.841,-35.2256"/>
<polygon fill="midnightblue" stroke="midnightblue" points="189.242,-34.371 183.99,-25.1696 182.358,-35.6379 189.242,-34.371"/>
</g>
<!-- Node6 -->
<g id="node6" class="node"><title>Node6</title>
<g id="a_node6"><a xlink:href="Logging_8hpp.html" target="_top" xlink:title="Core/Logging.hpp">
<polygon fill="white" stroke="black" points="209,-73 209,-92 302,-92 302,-73 209,-73"/>
<text text-anchor="middle" x="255.5" y="-80" font-family="Helvetica,sans-Serif" font-size="10.00">Core/Logging.hpp</text>
</a>
</g>
</g>
<!-- Node1&#45;&gt;Node6 -->
<g id="edge5" class="edge"><title>Node1&#45;&gt;Node6</title>
<path fill="none" stroke="midnightblue" d="M222.944,-134.475C228.588,-125.638 237.561,-111.589 244.659,-100.475"/>
<polygon fill="midnightblue" stroke="midnightblue" points="247.633,-102.321 250.066,-92.0091 241.733,-98.5531 247.633,-102.321"/>
</g>
<!-- Node8 -->
<g id="node8" class="node"><title>Node8</title>
<polygon fill="white" stroke="#bfbfbf" points="320.5,-73 320.5,-92 372.5,-92 372.5,-73 320.5,-73"/>
<text text-anchor="middle" x="346.5" y="-80" font-family="Helvetica,sans-Serif" font-size="10.00">ostream</text>
</g>
<!-- Node1&#45;&gt;Node8 -->
<g id="edge7" class="edge"><title>Node1&#45;&gt;Node8</title>
<path fill="none" stroke="midnightblue" d="M235.983,-134.475C257.632,-124.49 293.713,-107.848 318.732,-96.3075"/>
<polygon fill="midnightblue" stroke="midnightblue" points="320.437,-99.3757 328.052,-92.0091 317.505,-93.0193 320.437,-99.3757"/>
</g>
<!-- Node9 -->
<g id="node9" class="node"><title>Node9</title>
<polygon fill="white" stroke="#bfbfbf" points="391,-67.5 391,-97.5 486,-97.5 486,-67.5 391,-67.5"/>
<text text-anchor="start" x="399" y="-85.5" font-family="Helvetica,sans-Serif" font-size="10.00">boost/serialization</text>
<text text-anchor="middle" x="438.5" y="-74.5" font-family="Helvetica,sans-Serif" font-size="10.00">/nvp.hpp</text>
</g>
<!-- Node1&#45;&gt;Node9 -->
<g id="edge10" class="edge"><title>Node1&#45;&gt;Node9</title>
<path fill="none" stroke="midnightblue" d="M249.164,-134.475C283.417,-125.253 338.759,-110.353 380.785,-99.0385"/>
<polygon fill="midnightblue" stroke="midnightblue" points="381.872,-102.371 390.619,-96.3911 380.053,-95.6113 381.872,-102.371"/>
</g>
<!-- Node2&#45;&gt;Node3 -->
<g id="edge2" class="edge"><title>Node2&#45;&gt;Node3</title>
<path fill="none" stroke="midnightblue" d="M90.576,-72.7338C77.4592,-62.208 55.2419,-44.3793 39.3386,-31.6174"/>
<polygon fill="midnightblue" stroke="midnightblue" points="41.2408,-28.6563 31.2509,-25.1273 36.8597,-34.1158 41.2408,-28.6563"/>
</g>
<!-- Node4 -->
<g id="node4" class="node"><title>Node4</title>
<polygon fill="white" stroke="#bfbfbf" points="59,-6 59,-25 142,-25 142,-6 59,-6"/>
<text text-anchor="middle" x="100.5" y="-13" font-family="Helvetica,sans-Serif" font-size="10.00">unordered_map</text>
</g>
<!-- Node2&#45;&gt;Node4 -->
<g id="edge3" class="edge"><title>Node2&#45;&gt;Node4</title>
<path fill="none" stroke="midnightblue" d="M101.365,-72.7338C101.218,-63.1826 100.979,-47.6183 100.789,-35.2829"/>
<polygon fill="midnightblue" stroke="midnightblue" points="104.286,-35.0722 100.633,-25.1273 97.2871,-35.18 104.286,-35.0722"/>
</g>
<!-- Node2&#45;&gt;Node5 -->
<g id="edge4" class="edge"><title>Node2&#45;&gt;Node5</title>
<path fill="none" stroke="midnightblue" d="M112.424,-72.7338C125.541,-62.208 147.758,-44.3793 163.661,-31.6174"/>
<polygon fill="midnightblue" stroke="midnightblue" points="166.14,-34.1158 171.749,-25.1273 161.759,-28.6563 166.14,-34.1158"/>
</g>
<!-- Node7 -->
<g id="node7" class="node"><title>Node7</title>
<polygon fill="white" stroke="#bfbfbf" points="223,-0.5 223,-30.5 350,-30.5 350,-0.5 223,-0.5"/>
<text text-anchor="start" x="231" y="-18.5" font-family="Helvetica,sans-Serif" font-size="10.00">ThirdParty/easyloggingpp</text>
<text text-anchor="middle" x="286.5" y="-7.5" font-family="Helvetica,sans-Serif" font-size="10.00">/easylogging++.h</text>
</g>
<!-- Node6&#45;&gt;Node7 -->
<g id="edge6" class="edge"><title>Node6&#45;&gt;Node7</title>
<path fill="none" stroke="midnightblue" d="M259.681,-72.7338C263.709,-64.2872 269.98,-51.1378 275.446,-39.6778"/>
<polygon fill="midnightblue" stroke="midnightblue" points="278.635,-41.1217 279.781,-30.589 272.317,-38.1084 278.635,-41.1217"/>
</g>
</g>
</svg>
