<?xml version="1.0" encoding="UTF-8" standalone="no"?>
<!DOCTYPE svg PUBLIC "-//W3C//DTD SVG 1.1//EN"
 "http://www.w3.org/Graphics/SVG/1.1/DTD/svg11.dtd">
<!-- Generated by graphviz version 2.38.0 (20140413.2041)
 -->
<!-- Title: Core/FunctionTree/FitParameter.cpp Pages: 1 -->
<svg width="1633pt" height="207pt"
 viewBox="0.00 0.00 1632.99 207.00" xmlns="http://www.w3.org/2000/svg" xmlns:xlink="http://www.w3.org/1999/xlink">
<g id="graph0" class="graph" transform="scale(1 1) rotate(0) translate(4 203)">
<title>Core/FunctionTree/FitParameter.cpp</title>
<polygon fill="white" stroke="none" points="-4,4 -4,-203 1628.99,-203 1628.99,4 -4,4"/>
<!-- Node1 -->
<g id="node1" class="node"><title>Node1</title>
<polygon fill="#bfbfbf" stroke="black" points="379.492,-179.5 379.492,-198.5 555.492,-198.5 555.492,-179.5 379.492,-179.5"/>
<text text-anchor="middle" x="467.492" y="-186.5" font-family="Helvetica,sans-Serif" font-size="10.00">Core/FunctionTree/FitParameter.cpp</text>
</g>
<!-- Node2 -->
<g id="node2" class="node"><title>Node2</title>
<polygon fill="white" stroke="#bfbfbf" points="353.492,-123.5 353.492,-142.5 403.492,-142.5 403.492,-123.5 353.492,-123.5"/>
<text text-anchor="middle" x="378.492" y="-130.5" font-family="Helvetica,sans-Serif" font-size="10.00">iomanip</text>
</g>
<!-- Node1&#45;&gt;Node2 -->
<g id="edge1" class="edge"><title>Node1&#45;&gt;Node2</title>
<path fill="none" stroke="midnightblue" d="M453.192,-179.324C439.309,-170.9 417.999,-157.971 401.688,-148.074"/>
<polygon fill="midnightblue" stroke="midnightblue" points="403.12,-144.85 392.756,-142.655 399.489,-150.834 403.12,-144.85"/>
</g>
<!-- Node3 -->
<g id="node3" class="node"><title>Node3</title>
<g id="a_node3"><a xlink:href="Utils_8hpp.html" target="_top" xlink:title="Core/Utils.hpp">
<polygon fill="white" stroke="black" points="1083.49,-123.5 1083.49,-142.5 1163.49,-142.5 1163.49,-123.5 1083.49,-123.5"/>
<text text-anchor="middle" x="1123.49" y="-130.5" font-family="Helvetica,sans-Serif" font-size="10.00">Core/Utils.hpp</text>
</a>
</g>
</g>
<!-- Node1&#45;&gt;Node3 -->
<g id="edge2" class="edge"><title>Node1&#45;&gt;Node3</title>
<path fill="none" stroke="midnightblue" d="M555.622,-180.745C695.088,-169.265 962.2,-147.277 1073.2,-138.14"/>
<polygon fill="midnightblue" stroke="midnightblue" points="1073.76,-141.605 1083.44,-137.297 1073.19,-134.629 1073.76,-141.605"/>
</g>
<!-- Node13 -->
<g id="node13" class="node"><title>Node13</title>
<g id="a_node13"><a xlink:href="FunctionTree_2FitParameter_8hpp.html" target="_top" xlink:title="Implementations of Parameter for various data types. ">
<polygon fill="white" stroke="black" points="421.492,-123.5 421.492,-142.5 513.492,-142.5 513.492,-123.5 421.492,-123.5"/>
<text text-anchor="middle" x="467.492" y="-130.5" font-family="Helvetica,sans-Serif" font-size="10.00">FitParameter.hpp</text>
</a>
</g>
</g>
<!-- Node1&#45;&gt;Node13 -->
<g id="edge12" class="edge"><title>Node1&#45;&gt;Node13</title>
<path fill="none" stroke="midnightblue" d="M467.492,-179.083C467.492,-172.006 467.492,-161.861 467.492,-152.986"/>
<polygon fill="midnightblue" stroke="midnightblue" points="470.992,-152.751 467.492,-142.751 463.992,-152.751 470.992,-152.751"/>
</g>
<!-- Node4 -->
<g id="node4" class="node"><title>Node4</title>
<g id="a_node4"><a xlink:href="Logging_8hpp.html" target="_top" xlink:title="Core/Logging.hpp">
<polygon fill="white" stroke="red" points="812.992,-0.5 812.992,-19.5 905.992,-19.5 905.992,-0.5 812.992,-0.5"/>
<text text-anchor="middle" x="859.492" y="-7.5" font-family="Helvetica,sans-Serif" font-size="10.00">Core/Logging.hpp</text>
</a>
</g>
</g>
<!-- Node3&#45;&gt;Node4 -->
<g id="edge3" class="edge"><title>Node3&#45;&gt;Node4</title>
<path fill="none" stroke="midnightblue" d="M1163.66,-127.008C1188.57,-121.606 1218.75,-110.368 1234.49,-87 1242.19,-75.5731 1243.64,-66.3064 1234.49,-56 1213.77,-32.6388 1016.22,-19.1265 916.494,-13.7417"/>
<polygon fill="midnightblue" stroke="midnightblue" points="916.457,-10.235 906.286,-13.2005 916.087,-17.2252 916.457,-10.235"/>
</g>
<!-- Node5 -->
<g id="node5" class="node"><title>Node5</title>
<polygon fill="white" stroke="#bfbfbf" points="1115.49,-56.5 1115.49,-86.5 1225.49,-86.5 1225.49,-56.5 1115.49,-56.5"/>
<text text-anchor="start" x="1123.49" y="-74.5" font-family="Helvetica,sans-Serif" font-size="10.00">boost/algorithm/string</text>
<text text-anchor="middle" x="1170.49" y="-63.5" font-family="Helvetica,sans-Serif" font-size="10.00">/predicate.hpp</text>
</g>
<!-- Node3&#45;&gt;Node5 -->
<g id="edge4" class="edge"><title>Node3&#45;&gt;Node5</title>
<path fill="none" stroke="midnightblue" d="M1130.23,-123.475C1136.17,-115.944 1145.11,-104.626 1153.06,-94.5663"/>
<polygon fill="midnightblue" stroke="midnightblue" points="1155.96,-96.5396 1159.41,-86.523 1150.47,-92.2006 1155.96,-96.5396"/>
</g>
<!-- Node6 -->
<g id="node6" class="node"><title>Node6</title>
<polygon fill="white" stroke="#bfbfbf" points="1281.49,-56.5 1281.49,-86.5 1391.49,-86.5 1391.49,-56.5 1281.49,-56.5"/>
<text text-anchor="start" x="1289.49" y="-74.5" font-family="Helvetica,sans-Serif" font-size="10.00">boost/algorithm/string</text>
<text text-anchor="middle" x="1336.49" y="-63.5" font-family="Helvetica,sans-Serif" font-size="10.00">/trim.hpp</text>
</g>
<!-- Node3&#45;&gt;Node6 -->
<g id="edge5" class="edge"><title>Node3&#45;&gt;Node6</title>
<path fill="none" stroke="midnightblue" d="M1154.01,-123.475C1185.89,-114.569 1236.73,-100.369 1276.65,-89.2151"/>
<polygon fill="midnightblue" stroke="midnightblue" points="1277.6,-92.5844 1286.29,-86.523 1275.72,-85.8425 1277.6,-92.5844"/>
</g>
<!-- Node7 -->
<g id="node7" class="node"><title>Node7</title>
<polygon fill="white" stroke="#bfbfbf" points="1409.49,-62 1409.49,-81 1505.49,-81 1505.49,-62 1409.49,-62"/>
<text text-anchor="middle" x="1457.49" y="-69" font-family="Helvetica,sans-Serif" font-size="10.00">boost/optional.hpp</text>
</g>
<!-- Node3&#45;&gt;Node7 -->
<g id="edge6" class="edge"><title>Node3&#45;&gt;Node7</title>
<path fill="none" stroke="midnightblue" d="M1163.6,-126.615C1217.66,-119.1 1316.78,-104.412 1400.49,-87 1405.55,-85.9483 1410.83,-84.7462 1416.05,-83.4941"/>
<polygon fill="midnightblue" stroke="midnightblue" points="1417.08,-86.8461 1425.95,-81.0512 1415.4,-80.0501 1417.08,-86.8461"/>
</g>
<!-- Node8 -->
<g id="node8" class="node"><title>Node8</title>
<polygon fill="white" stroke="#bfbfbf" points="1523.99,-56.5 1523.99,-86.5 1624.99,-86.5 1624.99,-56.5 1523.99,-56.5"/>
<text text-anchor="start" x="1531.99" y="-74.5" font-family="Helvetica,sans-Serif" font-size="10.00">boost/property_tree</text>
<text text-anchor="middle" x="1574.49" y="-63.5" font-family="Helvetica,sans-Serif" font-size="10.00">/ptree.hpp</text>
</g>
<!-- Node3&#45;&gt;Node8 -->
<g id="edge7" class="edge"><title>Node3&#45;&gt;Node8</title>
<path fill="none" stroke="midnightblue" d="M1163.69,-129.009C1233.08,-123.492 1379.94,-110.26 1513.82,-86.969"/>
<polygon fill="midnightblue" stroke="midnightblue" points="1514.6,-90.3847 1523.84,-85.2014 1513.39,-83.491 1514.6,-90.3847"/>
</g>
<!-- Node9 -->
<g id="node9" class="node"><title>Node9</title>
<polygon fill="white" stroke="#bfbfbf" points="887.492,-62 887.492,-81 931.492,-81 931.492,-62 887.492,-62"/>
<text text-anchor="middle" x="909.492" y="-69" font-family="Helvetica,sans-Serif" font-size="10.00">cmath</text>
</g>
<!-- Node3&#45;&gt;Node9 -->
<g id="edge8" class="edge"><title>Node3&#45;&gt;Node9</title>
<path fill="none" stroke="midnightblue" d="M1083.21,-124.469C1045.68,-116.899 988.466,-103.933 940.492,-87 938.874,-86.429 937.227,-85.8023 935.577,-85.1398"/>
<polygon fill="midnightblue" stroke="midnightblue" points="936.861,-81.8813 926.295,-81.0914 934.062,-88.2975 936.861,-81.8813"/>
</g>
<!-- Node10 -->
<g id="node10" class="node"><title>Node10</title>
<polygon fill="white" stroke="#bfbfbf" points="1057.49,-62 1057.49,-81 1097.49,-81 1097.49,-62 1057.49,-62"/>
<text text-anchor="middle" x="1077.49" y="-69" font-family="Helvetica,sans-Serif" font-size="10.00">limits</text>
</g>
<!-- Node3&#45;&gt;Node10 -->
<g id="edge9" class="edge"><title>Node3&#45;&gt;Node10</title>
<path fill="none" stroke="midnightblue" d="M1116.9,-123.475C1110,-114.55 1098.99,-100.307 1090.36,-89.1425"/>
<polygon fill="midnightblue" stroke="midnightblue" points="1092.96,-86.7798 1084.07,-81.0091 1087.42,-91.0612 1092.96,-86.7798"/>
</g>
<!-- Node11 -->
<g id="node11" class="node"><title>Node11</title>
<polygon fill="white" stroke="#bfbfbf" points="949.492,-62 949.492,-81 1001.49,-81 1001.49,-62 949.492,-62"/>
<text text-anchor="middle" x="975.492" y="-69" font-family="Helvetica,sans-Serif" font-size="10.00">sstream</text>
</g>
<!-- Node3&#45;&gt;Node11 -->
<g id="edge10" class="edge"><title>Node3&#45;&gt;Node11</title>
<path fill="none" stroke="midnightblue" d="M1102.29,-123.475C1077.12,-113.357 1034.95,-96.4046 1006.21,-84.8507"/>
<polygon fill="midnightblue" stroke="midnightblue" points="1007.24,-81.4919 996.657,-81.0091 1004.63,-87.9867 1007.24,-81.4919"/>
</g>
<!-- Node12 -->
<g id="node12" class="node"><title>Node12</title>
<polygon fill="white" stroke="#bfbfbf" points="751.492,-0.5 751.492,-19.5 795.492,-19.5 795.492,-0.5 751.492,-0.5"/>
<text text-anchor="middle" x="773.492" y="-7.5" font-family="Helvetica,sans-Serif" font-size="10.00">vector</text>
</g>
<!-- Node3&#45;&gt;Node12 -->
<g id="edge11" class="edge"><title>Node3&#45;&gt;Node12</title>
<path fill="none" stroke="midnightblue" d="M1107.86,-123.491C1092.4,-114.876 1068.25,-100.878 1048.49,-87 1030.66,-74.4718 1030.32,-65.0594 1010.49,-56 928.847,-18.689 897.21,-39.4463 805.71,-20.0029"/>
<polygon fill="midnightblue" stroke="midnightblue" points="806.288,-16.5458 795.766,-17.7832 804.763,-23.3777 806.288,-16.5458"/>
</g>
<!-- Node13&#45;&gt;Node4 -->
<g id="edge31" class="edge"><title>Node13&#45;&gt;Node4</title>
<path fill="none" stroke="midnightblue" d="M513.494,-132.723C602.326,-133.14 792.926,-128.967 840.492,-87 856.554,-72.8281 860.044,-47.3273 860.352,-29.8017"/>
<polygon fill="midnightblue" stroke="midnightblue" points="863.849,-29.5803 860.194,-19.6357 856.85,-29.6887 863.849,-29.5803"/>
</g>
<!-- Node13&#45;&gt;Node9 -->
<g id="edge13" class="edge"><title>Node13&#45;&gt;Node9</title>
<path fill="none" stroke="midnightblue" d="M513.573,-130.96C589.634,-128.343 745.748,-119.162 873.492,-87 876.156,-86.3291 878.886,-85.504 881.591,-84.5909"/>
<polygon fill="midnightblue" stroke="midnightblue" points="882.994,-87.803 891.129,-81.0161 880.537,-81.2482 882.994,-87.803"/>
</g>
<!-- Node13&#45;&gt;Node11 -->
<g id="edge16" class="edge"><title>Node13&#45;&gt;Node11</title>
<path fill="none" stroke="midnightblue" d="M513.581,-132.129C599.059,-131.38 787.397,-125.083 940.492,-87 943.005,-86.3748 945.573,-85.599 948.12,-84.7335"/>
<polygon fill="midnightblue" stroke="midnightblue" points="949.583,-87.9213 957.674,-81.0812 947.083,-81.3827 949.583,-87.9213"/>
</g>
<!-- Node14 -->
<g id="node14" class="node"><title>Node14</title>
<polygon fill="white" stroke="#bfbfbf" points="93.9916,-0.5 93.9916,-19.5 146.992,-19.5 146.992,-0.5 93.9916,-0.5"/>
<text text-anchor="middle" x="120.492" y="-7.5" font-family="Helvetica,sans-Serif" font-size="10.00">complex</text>
</g>
<!-- Node13&#45;&gt;Node14 -->
<g id="edge14" class="edge"><title>Node13&#45;&gt;Node14</title>
<path fill="none" stroke="midnightblue" d="M421.314,-124.19C418.332,-123.764 415.372,-123.363 412.492,-123 367.559,-117.339 37.0682,-120.408 6.49162,-87 -2.81056,-76.8365 -1.25851,-67.3913 6.49162,-56 23.6619,-30.7626 57.3873,-19.6791 83.7216,-14.8116"/>
<polygon fill="midnightblue" stroke="midnightblue" points="84.4513,-18.2391 93.762,-13.1832 83.3306,-11.3293 84.4513,-18.2391"/>
</g>
<!-- Node15 -->
<g id="node15" class="node"><title>Node15</title>
<polygon fill="white" stroke="#bfbfbf" points="151.492,-62 151.492,-81 205.492,-81 205.492,-62 151.492,-62"/>
<text text-anchor="middle" x="178.492" y="-69" font-family="Helvetica,sans-Serif" font-size="10.00">iostream</text>
</g>
<!-- Node13&#45;&gt;Node15 -->
<g id="edge15" class="edge"><title>Node13&#45;&gt;Node15</title>
<path fill="none" stroke="midnightblue" d="M421.462,-124.344C353.975,-113.038 234.03,-92.6069 214.492,-87 212.055,-86.3007 209.557,-85.4938 207.068,-84.6259"/>
<polygon fill="midnightblue" stroke="midnightblue" points="208.256,-81.3335 197.665,-81.0757 205.784,-87.8823 208.256,-81.3335"/>
</g>
<!-- Node16 -->
<g id="node16" class="node"><title>Node16</title>
<polygon fill="white" stroke="#bfbfbf" points="223.992,-62 223.992,-81 282.992,-81 282.992,-62 223.992,-62"/>
<text text-anchor="middle" x="253.492" y="-69" font-family="Helvetica,sans-Serif" font-size="10.00">stdexcept</text>
</g>
<!-- Node13&#45;&gt;Node16 -->
<g id="edge17" class="edge"><title>Node13&#45;&gt;Node16</title>
<path fill="none" stroke="midnightblue" d="M428.68,-123.421C392.777,-115.169 338.084,-101.793 291.492,-87 289.077,-86.2334 286.593,-85.397 284.107,-84.5253"/>
<polygon fill="midnightblue" stroke="midnightblue" points="285.238,-81.2124 274.644,-81.0616 282.832,-87.7858 285.238,-81.2124"/>
</g>
<!-- Node17 -->
<g id="node17" class="node"><title>Node17</title>
<polygon fill="white" stroke="#bfbfbf" points="326.992,-0.5 326.992,-19.5 367.992,-19.5 367.992,-0.5 326.992,-0.5"/>
<text text-anchor="middle" x="347.492" y="-7.5" font-family="Helvetica,sans-Serif" font-size="10.00">string</text>
</g>
<!-- Node13&#45;&gt;Node17 -->
<g id="edge18" class="edge"><title>Node13&#45;&gt;Node17</title>
<path fill="none" stroke="midnightblue" d="M421.313,-124.198C418.331,-123.77 415.371,-123.366 412.492,-123 368.663,-117.429 46.2849,-119.625 16.4916,-87 7.20073,-76.8262 7.42919,-66.3778 16.4916,-56 36.1195,-33.5231 238.14,-18.1008 316.586,-12.9184"/>
<polygon fill="midnightblue" stroke="midnightblue" points="317.051,-16.3957 326.803,-12.2554 316.597,-9.41037 317.051,-16.3957"/>
</g>
<!-- Node18 -->
<g id="node18" class="node"><title>Node18</title>
<polygon fill="white" stroke="#bfbfbf" points="300.992,-56.5 300.992,-86.5 401.992,-86.5 401.992,-56.5 300.992,-56.5"/>
<text text-anchor="start" x="308.992" y="-74.5" font-family="Helvetica,sans-Serif" font-size="10.00">boost/property_tree</text>
<text text-anchor="middle" x="351.492" y="-63.5" font-family="Helvetica,sans-Serif" font-size="10.00">/ptree_fwd.hpp</text>
</g>
<!-- Node13&#45;&gt;Node18 -->
<g id="edge19" class="edge"><title>Node13&#45;&gt;Node18</title>
<path fill="none" stroke="midnightblue" d="M450.872,-123.475C434.5,-115.078 408.951,-101.973 387.858,-91.1534"/>
<polygon fill="midnightblue" stroke="midnightblue" points="389.326,-87.9727 378.831,-86.523 386.131,-94.2012 389.326,-87.9727"/>
</g>
<!-- Node19 -->
<g id="node19" class="node"><title>Node19</title>
<polygon fill="white" stroke="#bfbfbf" points="419.992,-56.5 419.992,-86.5 514.992,-86.5 514.992,-56.5 419.992,-56.5"/>
<text text-anchor="start" x="427.992" y="-74.5" font-family="Helvetica,sans-Serif" font-size="10.00">boost/serialization</text>
<text text-anchor="middle" x="467.492" y="-63.5" font-family="Helvetica,sans-Serif" font-size="10.00">/utility.hpp</text>
</g>
<!-- Node13&#45;&gt;Node19 -->
<g id="edge20" class="edge"><title>Node13&#45;&gt;Node19</title>
<path fill="none" stroke="midnightblue" d="M467.492,-123.475C467.492,-116.471 467.492,-106.192 467.492,-96.6956"/>
<polygon fill="midnightblue" stroke="midnightblue" points="470.992,-96.5229 467.492,-86.523 463.992,-96.523 470.992,-96.5229"/>
</g>
<!-- Node20 -->
<g id="node20" class="node"><title>Node20</title>
<g id="a_node20"><a xlink:href="Exceptions_8hpp.html" target="_top" xlink:title="ComPWA exceptions. ">
<polygon fill="white" stroke="red" points="25.4916,-62 25.4916,-81 133.492,-81 133.492,-62 25.4916,-62"/>
<text text-anchor="middle" x="79.4916" y="-69" font-family="Helvetica,sans-Serif" font-size="10.00">Core/Exceptions.hpp</text>
</a>
</g>
</g>
<!-- Node13&#45;&gt;Node20 -->
<g id="edge21" class="edge"><title>Node13&#45;&gt;Node20</title>
<path fill="none" stroke="midnightblue" d="M421.294,-124.338C418.316,-123.876 415.363,-123.426 412.492,-123 292.742,-105.223 261.611,-108.6 142.492,-87 136.549,-85.9224 130.321,-84.6571 124.19,-83.3307"/>
<polygon fill="midnightblue" stroke="midnightblue" points="124.554,-79.8258 114.031,-81.063 123.029,-86.6577 124.554,-79.8258"/>
</g>
<!-- Node21 -->
<g id="node21" class="node"><title>Node21</title>
<g id="a_node21"><a xlink:href="FitParameter_8hpp.html" target="_top" xlink:title="Core/FitParameter.hpp">
<polygon fill="white" stroke="red" points="715.492,-62 715.492,-81 831.492,-81 831.492,-62 715.492,-62"/>
<text text-anchor="middle" x="773.492" y="-69" font-family="Helvetica,sans-Serif" font-size="10.00">Core/FitParameter.hpp</text>
</a>
</g>
</g>
<!-- Node13&#45;&gt;Node21 -->
<g id="edge23" class="edge"><title>Node13&#45;&gt;Node21</title>
<path fill="none" stroke="midnightblue" d="M513.828,-123.659C562.031,-114.892 639.657,-100.522 706.492,-87 712.395,-85.8056 718.583,-84.5168 724.712,-83.2176"/>
<polygon fill="midnightblue" stroke="midnightblue" points="725.864,-86.5504 734.911,-81.036 724.4,-79.7052 725.864,-86.5504"/>
</g>
<!-- Node22 -->
<g id="node22" class="node"><title>Node22</title>
<g id="a_node22"><a xlink:href="Parameter_8hpp.html" target="_top" xlink:title="Parameter base class. ">
<polygon fill="white" stroke="red" points="533.492,-62 533.492,-81 697.492,-81 697.492,-62 533.492,-62"/>
<text text-anchor="middle" x="615.492" y="-69" font-family="Helvetica,sans-Serif" font-size="10.00">Core/FunctionTree/Parameter.hpp</text>
</a>
</g>
</g>
<!-- Node13&#45;&gt;Node22 -->
<g id="edge27" class="edge"><title>Node13&#45;&gt;Node22</title>
<path fill="none" stroke="midnightblue" d="M488.696,-123.475C513.864,-113.357 556.031,-96.4046 584.771,-84.8507"/>
<polygon fill="midnightblue" stroke="midnightblue" points="586.353,-87.9867 594.326,-81.0091 583.742,-81.4919 586.353,-87.9867"/>
</g>
<!-- Node20&#45;&gt;Node17 -->
<g id="edge22" class="edge"><title>Node20&#45;&gt;Node17</title>
<path fill="none" stroke="midnightblue" d="M116.455,-61.9267C125.001,-59.9628 134.06,-57.8957 142.492,-56 204.333,-42.0962 276.786,-26.3099 316.876,-17.6193"/>
<polygon fill="midnightblue" stroke="midnightblue" points="317.784,-21.0037 326.817,-15.4659 316.302,-14.1623 317.784,-21.0037"/>
</g>
<!-- Node21&#45;&gt;Node4 -->
<g id="edge24" class="edge"><title>Node21&#45;&gt;Node4</title>
<path fill="none" stroke="midnightblue" d="M785.813,-61.9751C799.607,-52.4315 822.19,-36.8073 838.724,-25.3683"/>
<polygon fill="midnightblue" stroke="midnightblue" points="840.96,-28.077 847.193,-19.5091 836.978,-22.3205 840.96,-28.077"/>
</g>
<!-- Node21&#45;&gt;Node12 -->
<g id="edge26" class="edge"><title>Node21&#45;&gt;Node12</title>
<path fill="none" stroke="midnightblue" d="M773.492,-61.9751C773.492,-53.5803 773.492,-40.4806 773.492,-29.6631"/>
<polygon fill="midnightblue" stroke="midnightblue" points="776.992,-29.5091 773.492,-19.5091 769.992,-29.5091 776.992,-29.5091"/>
</g>
<!-- Node21&#45;&gt;Node17 -->
<g id="edge25" class="edge"><title>Node21&#45;&gt;Node17</title>
<path fill="none" stroke="midnightblue" d="M736.744,-61.9349C726.948,-59.8195 716.346,-57.6806 706.492,-56 585.869,-35.4291 440.944,-20.108 378.549,-13.9585"/>
<polygon fill="midnightblue" stroke="midnightblue" points="378.519,-10.439 368.226,-12.9509 377.839,-17.4059 378.519,-10.439"/>
</g>
<!-- Node22&#45;&gt;Node12 -->
<g id="edge30" class="edge"><title>Node22&#45;&gt;Node12</title>
<path fill="none" stroke="midnightblue" d="M638.129,-61.9751C665.386,-51.7108 711.32,-34.4127 742.017,-22.8527"/>
<polygon fill="midnightblue" stroke="midnightblue" points="743.281,-26.117 751.405,-19.3173 740.814,-19.5661 743.281,-26.117"/>
</g>
<!-- Node22&#45;&gt;Node14 -->
<g id="edge28" class="edge"><title>Node22&#45;&gt;Node14</title>
<path fill="none" stroke="midnightblue" d="M564.537,-61.9475C551.5,-59.8785 537.491,-57.7587 524.492,-56 389.455,-37.7312 228.288,-21.4207 157.23,-14.5074"/>
<polygon fill="midnightblue" stroke="midnightblue" points="157.306,-10.9985 147.015,-13.518 156.631,-17.9658 157.306,-10.9985"/>
</g>
<!-- Node22&#45;&gt;Node17 -->
<g id="edge29" class="edge"><title>Node22&#45;&gt;Node17</title>
<path fill="none" stroke="midnightblue" d="M577.094,-61.9751C523.427,-50.0603 427.072,-28.6679 378.005,-17.7744"/>
<polygon fill="midnightblue" stroke="midnightblue" points="378.524,-14.3046 368.004,-15.5539 377.007,-21.1382 378.524,-14.3046"/>
</g>
</g>
</svg>
