<?xml version="1.0" encoding="UTF-8" standalone="no"?>
<!DOCTYPE svg PUBLIC "-//W3C//DTD SVG 1.1//EN"
 "http://www.w3.org/Graphics/SVG/1.1/DTD/svg11.dtd">
<!-- Generated by graphviz version 2.38.0 (20140413.2041)
 -->
<!-- Title: Core/FitResult.hpp Pages: 1 -->
<svg width="602pt" height="218pt"
 viewBox="0.00 0.00 601.50 218.00" xmlns="http://www.w3.org/2000/svg" xmlns:xlink="http://www.w3.org/1999/xlink">
<g id="graph0" class="graph" transform="scale(1 1) rotate(0) translate(4 214)">
<title>Core/FitResult.hpp</title>
<polygon fill="white" stroke="none" points="-4,4 -4,-214 597.5,-214 597.5,4 -4,4"/>
<!-- Node1 -->
<g id="node1" class="node"><title>Node1</title>
<polygon fill="#bfbfbf" stroke="black" points="394,-190.5 394,-209.5 493,-209.5 493,-190.5 394,-190.5"/>
<text text-anchor="middle" x="443.5" y="-197.5" font-family="Helvetica,sans-Serif" font-size="10.00">Core/FitResult.hpp</text>
</g>
<!-- Node2 -->
<g id="node2" class="node"><title>Node2</title>
<g id="a_node2"><a xlink:href="FitParameter_8hpp.html" target="_top" xlink:title="Core/FitParameter.hpp">
<polygon fill="white" stroke="black" points="247.5,-129 247.5,-148 363.5,-148 363.5,-129 247.5,-129"/>
<text text-anchor="middle" x="305.5" y="-136" font-family="Helvetica,sans-Serif" font-size="10.00">Core/FitParameter.hpp</text>
</a>
</g>
</g>
<!-- Node1&#45;&gt;Node2 -->
<g id="edge1" class="edge"><title>Node1&#45;&gt;Node2</title>
<path fill="none" stroke="midnightblue" d="M423.728,-190.475C400.364,-180.401 361.286,-163.553 334.497,-152.002"/>
<polygon fill="midnightblue" stroke="midnightblue" points="335.804,-148.754 325.235,-148.009 333.032,-155.182 335.804,-148.754"/>
</g>
<!-- Node3 -->
<g id="node3" class="node"><title>Node3</title>
<g id="a_node3"><a xlink:href="Function_8hpp.html" target="_top" xlink:title="Core/Function.hpp">
<polygon fill="white" stroke="red" points="372,-62 372,-81 469,-81 469,-62 372,-62"/>
<text text-anchor="middle" x="420.5" y="-69" font-family="Helvetica,sans-Serif" font-size="10.00">Core/Function.hpp</text>
</a>
</g>
</g>
<!-- Node1&#45;&gt;Node3 -->
<g id="edge10" class="edge"><title>Node1&#45;&gt;Node3</title>
<path fill="none" stroke="midnightblue" d="M439.049,-190.303C434.744,-181.43 428.45,-167.136 425.5,-154 420.756,-132.872 419.893,-107.941 419.969,-91.2679"/>
<polygon fill="midnightblue" stroke="midnightblue" points="423.469,-91.2485 420.135,-81.1921 416.47,-91.133 423.469,-91.2485"/>
</g>
<!-- Node9 -->
<g id="node9" class="node"><title>Node9</title>
<polygon fill="white" stroke="#bfbfbf" points="434,-123.5 434,-153.5 529,-153.5 529,-123.5 434,-123.5"/>
<text text-anchor="start" x="442" y="-141.5" font-family="Helvetica,sans-Serif" font-size="10.00">boost/serialization</text>
<text text-anchor="middle" x="481.5" y="-130.5" font-family="Helvetica,sans-Serif" font-size="10.00">/vector.hpp</text>
</g>
<!-- Node1&#45;&gt;Node9 -->
<g id="edge11" class="edge"><title>Node1&#45;&gt;Node9</title>
<path fill="none" stroke="midnightblue" d="M448.944,-190.475C453.658,-183.094 460.694,-172.077 467.021,-162.171"/>
<polygon fill="midnightblue" stroke="midnightblue" points="470.111,-163.835 472.544,-153.523 464.212,-160.067 470.111,-163.835"/>
</g>
<!-- Node10 -->
<g id="node10" class="node"><title>Node10</title>
<polygon fill="white" stroke="#bfbfbf" points="547.5,-129 547.5,-148 593.5,-148 593.5,-129 547.5,-129"/>
<text text-anchor="middle" x="570.5" y="-136" font-family="Helvetica,sans-Serif" font-size="10.00">chrono</text>
</g>
<!-- Node1&#45;&gt;Node10 -->
<g id="edge12" class="edge"><title>Node1&#45;&gt;Node10</title>
<path fill="none" stroke="midnightblue" d="M461.696,-190.475C483.009,-180.49 518.531,-163.848 543.163,-152.307"/>
<polygon fill="midnightblue" stroke="midnightblue" points="544.767,-155.421 552.338,-148.009 541.797,-149.082 544.767,-155.421"/>
</g>
<!-- Node2&#45;&gt;Node3 -->
<g id="edge2" class="edge"><title>Node2&#45;&gt;Node3</title>
<path fill="none" stroke="midnightblue" d="M321.009,-128.734C340.408,-117.769 373.826,-98.8809 396.528,-86.0495"/>
<polygon fill="midnightblue" stroke="midnightblue" points="398.253,-89.0949 405.236,-81.1273 394.808,-83.001 398.253,-89.0949"/>
</g>
<!-- Node4 -->
<g id="node4" class="node"><title>Node4</title>
<polygon fill="white" stroke="#bfbfbf" points="386,-0.5 386,-19.5 427,-19.5 427,-0.5 386,-0.5"/>
<text text-anchor="middle" x="406.5" y="-7.5" font-family="Helvetica,sans-Serif" font-size="10.00">string</text>
</g>
<!-- Node2&#45;&gt;Node4 -->
<g id="edge7" class="edge"><title>Node2&#45;&gt;Node4</title>
<path fill="none" stroke="midnightblue" d="M311.201,-128.631C321.172,-113.324 342.703,-81.1682 363.5,-56 371.846,-45.9 381.932,-35.2726 390.238,-26.8832"/>
<polygon fill="midnightblue" stroke="midnightblue" points="392.921,-29.1504 397.541,-19.6156 387.984,-24.1887 392.921,-29.1504"/>
</g>
<!-- Node5 -->
<g id="node5" class="node"><title>Node5</title>
<polygon fill="white" stroke="#bfbfbf" points="296.5,-0.5 296.5,-19.5 340.5,-19.5 340.5,-0.5 296.5,-0.5"/>
<text text-anchor="middle" x="318.5" y="-7.5" font-family="Helvetica,sans-Serif" font-size="10.00">vector</text>
</g>
<!-- Node2&#45;&gt;Node5 -->
<g id="edge8" class="edge"><title>Node2&#45;&gt;Node5</title>
<path fill="none" stroke="midnightblue" d="M306.394,-128.805C308.481,-108.494 313.716,-57.5532 316.57,-29.7768"/>
<polygon fill="midnightblue" stroke="midnightblue" points="320.059,-30.0611 317.6,-19.7557 313.096,-29.3455 320.059,-30.0611"/>
</g>
<!-- Node6 -->
<g id="node6" class="node"><title>Node6</title>
<g id="a_node6"><a xlink:href="Logging_8hpp.html" target="_top" xlink:title="Core/Logging.hpp">
<polygon fill="white" stroke="red" points="0,-62 0,-81 93,-81 93,-62 0,-62"/>
<text text-anchor="middle" x="46.5" y="-69" font-family="Helvetica,sans-Serif" font-size="10.00">Core/Logging.hpp</text>
</a>
</g>
</g>
<!-- Node2&#45;&gt;Node6 -->
<g id="edge5" class="edge"><title>Node2&#45;&gt;Node6</title>
<path fill="none" stroke="midnightblue" d="M270.632,-128.933C230.171,-118.967 161.461,-101.967 102.5,-87 98.1668,-85.9 93.6473,-84.7442 89.1373,-83.5851"/>
<polygon fill="midnightblue" stroke="midnightblue" points="89.9125,-80.1706 79.3554,-81.0631 88.1649,-86.949 89.9125,-80.1706"/>
</g>
<!-- Node7 -->
<g id="node7" class="node"><title>Node7</title>
<polygon fill="white" stroke="#bfbfbf" points="111.5,-62 111.5,-81 163.5,-81 163.5,-62 111.5,-62"/>
<text text-anchor="middle" x="137.5" y="-69" font-family="Helvetica,sans-Serif" font-size="10.00">ostream</text>
</g>
<!-- Node2&#45;&gt;Node7 -->
<g id="edge6" class="edge"><title>Node2&#45;&gt;Node7</title>
<path fill="none" stroke="midnightblue" d="M282.353,-128.95C255.755,-119.07 210.838,-102.216 172.5,-87 170.861,-86.3494 169.181,-85.6761 167.487,-84.9919"/>
<polygon fill="midnightblue" stroke="midnightblue" points="168.397,-81.5827 157.816,-81.0371 165.748,-88.0618 168.397,-81.5827"/>
</g>
<!-- Node8 -->
<g id="node8" class="node"><title>Node8</title>
<polygon fill="white" stroke="#bfbfbf" points="182,-56.5 182,-86.5 277,-86.5 277,-56.5 182,-56.5"/>
<text text-anchor="start" x="190" y="-74.5" font-family="Helvetica,sans-Serif" font-size="10.00">boost/serialization</text>
<text text-anchor="middle" x="229.5" y="-63.5" font-family="Helvetica,sans-Serif" font-size="10.00">/nvp.hpp</text>
</g>
<!-- Node2&#45;&gt;Node8 -->
<g id="edge9" class="edge"><title>Node2&#45;&gt;Node8</title>
<path fill="none" stroke="midnightblue" d="M295.25,-128.734C284.683,-119.696 267.82,-105.274 253.818,-93.2982"/>
<polygon fill="midnightblue" stroke="midnightblue" points="255.848,-90.4288 245.973,-86.589 251.298,-95.7486 255.848,-90.4288"/>
</g>
<!-- Node3&#45;&gt;Node4 -->
<g id="edge3" class="edge"><title>Node3&#45;&gt;Node4</title>
<path fill="none" stroke="midnightblue" d="M418.494,-61.9751C416.498,-53.4919 413.372,-40.2043 410.811,-29.3222"/>
<polygon fill="midnightblue" stroke="midnightblue" points="414.2,-28.4416 408.502,-19.5091 407.386,-30.0449 414.2,-28.4416"/>
</g>
<!-- Node3&#45;&gt;Node5 -->
<g id="edge4" class="edge"><title>Node3&#45;&gt;Node5</title>
<path fill="none" stroke="midnightblue" d="M405.886,-61.9751C389.147,-52.2106 361.496,-36.0807 341.781,-24.5808"/>
<polygon fill="midnightblue" stroke="midnightblue" points="343.488,-21.5246 333.087,-19.5091 339.961,-27.5711 343.488,-21.5246"/>
</g>
</g>
</svg>
