<?xml version="1.0" encoding="UTF-8" standalone="no"?>
<!DOCTYPE svg PUBLIC "-//W3C//DTD SVG 1.1//EN"
 "http://www.w3.org/Graphics/SVG/1.1/DTD/svg11.dtd">
<!-- Generated by graphviz version 2.38.0 (20140413.2041)
 -->
<!-- Title: Core/FitResult.hpp Pages: 1 -->
<svg width="702pt" height="218pt"
 viewBox="0.00 0.00 701.50 218.00" xmlns="http://www.w3.org/2000/svg" xmlns:xlink="http://www.w3.org/1999/xlink">
<g id="graph0" class="graph" transform="scale(1 1) rotate(0) translate(4 214)">
<title>Core/FitResult.hpp</title>
<polygon fill="white" stroke="none" points="-4,4 -4,-214 697.5,-214 697.5,4 -4,4"/>
<!-- Node1 -->
<g id="node1" class="node"><title>Node1</title>
<polygon fill="#bfbfbf" stroke="black" points="253,-190.5 253,-209.5 352,-209.5 352,-190.5 253,-190.5"/>
<text text-anchor="middle" x="302.5" y="-197.5" font-family="Helvetica,sans-Serif" font-size="10.00">Core/FitResult.hpp</text>
</g>
<!-- Node2 -->
<g id="node2" class="node"><title>Node2</title>
<g id="a_node2"><a xlink:href="FitResult_8cpp.html" target="_top" xlink:title="Core/FitResult.cpp">
<polygon fill="white" stroke="black" points="0,-129 0,-148 99,-148 99,-129 0,-129"/>
<text text-anchor="middle" x="49.5" y="-136" font-family="Helvetica,sans-Serif" font-size="10.00">Core/FitResult.cpp</text>
</a>
</g>
</g>
<!-- Node1&#45;&gt;Node2 -->
<g id="edge1" class="edge"><title>Node1&#45;&gt;Node2</title>
<path fill="none" stroke="midnightblue" d="M255.075,-188.181C215.772,-179.172 158.461,-165.933 108.5,-154 100.498,-152.089 91.8947,-149.996 83.7997,-148.01"/>
<polygon fill="midnightblue" stroke="midnightblue" points="254.383,-191.613 264.912,-190.434 255.946,-184.79 254.383,-191.613"/>
</g>
<!-- Node3 -->
<g id="node3" class="node"><title>Node3</title>
<g id="a_node3"><a xlink:href="SumMinLogLH_8cpp.html" target="_top" xlink:title="Estimator/MinLogLH\l/SumMinLogLH.cpp">
<polygon fill="white" stroke="black" points="117.5,-123.5 117.5,-153.5 223.5,-153.5 223.5,-123.5 117.5,-123.5"/>
<text text-anchor="start" x="125.5" y="-141.5" font-family="Helvetica,sans-Serif" font-size="10.00">Estimator/MinLogLH</text>
<text text-anchor="middle" x="170.5" y="-130.5" font-family="Helvetica,sans-Serif" font-size="10.00">/SumMinLogLH.cpp</text>
</a>
</g>
</g>
<!-- Node1&#45;&gt;Node3 -->
<g id="edge2" class="edge"><title>Node1&#45;&gt;Node3</title>
<path fill="none" stroke="midnightblue" d="M274.393,-186.331C253.036,-176.704 223.673,-163.468 201.61,-153.523"/>
<polygon fill="midnightblue" stroke="midnightblue" points="273.033,-189.556 283.588,-190.475 275.909,-183.175 273.033,-189.556"/>
</g>
<!-- Node4 -->
<g id="node4" class="node"><title>Node4</title>
<g id="a_node4"><a xlink:href="MinuitResult_8hpp.html" target="_top" xlink:title="Optimizer/Minuit2/Minuit\lResult.hpp">
<polygon fill="white" stroke="black" points="241.5,-123.5 241.5,-153.5 363.5,-153.5 363.5,-123.5 241.5,-123.5"/>
<text text-anchor="start" x="249.5" y="-141.5" font-family="Helvetica,sans-Serif" font-size="10.00">Optimizer/Minuit2/Minuit</text>
<text text-anchor="middle" x="302.5" y="-130.5" font-family="Helvetica,sans-Serif" font-size="10.00">Result.hpp</text>
</a>
</g>
</g>
<!-- Node1&#45;&gt;Node4 -->
<g id="edge3" class="edge"><title>Node1&#45;&gt;Node4</title>
<path fill="none" stroke="midnightblue" d="M302.5,-180.235C302.5,-171.586 302.5,-161.497 302.5,-153.523"/>
<polygon fill="midnightblue" stroke="midnightblue" points="299,-180.475 302.5,-190.475 306,-180.475 299,-180.475"/>
</g>
<!-- Node7 -->
<g id="node7" class="node"><title>Node7</title>
<g id="a_node7"><a xlink:href="GenevaResult_8hpp.html" target="_top" xlink:title="Optimizer/Geneva/GenevaResult.hpp">
<polygon fill="white" stroke="black" points="382,-129 382,-148 561,-148 561,-129 382,-129"/>
<text text-anchor="middle" x="471.5" y="-136" font-family="Helvetica,sans-Serif" font-size="10.00">Optimizer/Geneva/GenevaResult.hpp</text>
</a>
</g>
</g>
<!-- Node1&#45;&gt;Node7 -->
<g id="edge6" class="edge"><title>Node1&#45;&gt;Node7</title>
<path fill="none" stroke="midnightblue" d="M336.349,-187.083C369.2,-175.517 418.237,-158.252 447.331,-148.009"/>
<polygon fill="midnightblue" stroke="midnightblue" points="334.984,-183.853 326.714,-190.475 337.308,-190.456 334.984,-183.853"/>
</g>
<!-- Node10 -->
<g id="node10" class="node"><title>Node10</title>
<g id="a_node10"><a xlink:href="FitFractions_8cpp.html" target="_top" xlink:title="Tools/FitFractions.cpp">
<polygon fill="white" stroke="black" points="579.5,-129 579.5,-148 693.5,-148 693.5,-129 579.5,-129"/>
<text text-anchor="middle" x="636.5" y="-136" font-family="Helvetica,sans-Serif" font-size="10.00">Tools/FitFractions.cpp</text>
</a>
</g>
</g>
<!-- Node1&#45;&gt;Node10 -->
<g id="edge10" class="edge"><title>Node1&#45;&gt;Node10</title>
<path fill="none" stroke="midnightblue" d="M362.187,-189.852C416.6,-181.306 499.137,-167.821 570.5,-154 579.829,-152.193 589.862,-150.078 599.22,-148.031"/>
<polygon fill="midnightblue" stroke="midnightblue" points="361.366,-186.438 352.028,-191.442 362.449,-193.354 361.366,-186.438"/>
</g>
<!-- Node5 -->
<g id="node5" class="node"><title>Node5</title>
<g id="a_node5"><a xlink:href="MinuitIF_8hpp.html" target="_top" xlink:title="Optimizer/Minuit2/Minuit\lIF.hpp">
<polygon fill="white" stroke="red" points="103.5,-56.5 103.5,-86.5 225.5,-86.5 225.5,-56.5 103.5,-56.5"/>
<text text-anchor="start" x="111.5" y="-74.5" font-family="Helvetica,sans-Serif" font-size="10.00">Optimizer/Minuit2/Minuit</text>
<text text-anchor="middle" x="164.5" y="-63.5" font-family="Helvetica,sans-Serif" font-size="10.00">IF.hpp</text>
</a>
</g>
</g>
<!-- Node4&#45;&gt;Node5 -->
<g id="edge4" class="edge"><title>Node4&#45;&gt;Node5</title>
<path fill="none" stroke="midnightblue" d="M263.5,-119.131C241.573,-108.802 214.626,-96.1103 194.386,-86.5765"/>
<polygon fill="midnightblue" stroke="midnightblue" points="262.018,-122.301 272.556,-123.396 265.001,-115.968 262.018,-122.301"/>
</g>
<!-- Node6 -->
<g id="node6" class="node"><title>Node6</title>
<g id="a_node6"><a xlink:href="MinuitResult_8cpp.html" target="_top" xlink:title="Optimizer/Minuit2/Minuit\lResult.cpp">
<polygon fill="white" stroke="black" points="243.5,-56.5 243.5,-86.5 365.5,-86.5 365.5,-56.5 243.5,-56.5"/>
<text text-anchor="start" x="251.5" y="-74.5" font-family="Helvetica,sans-Serif" font-size="10.00">Optimizer/Minuit2/Minuit</text>
<text text-anchor="middle" x="304.5" y="-63.5" font-family="Helvetica,sans-Serif" font-size="10.00">Result.cpp</text>
</a>
</g>
</g>
<!-- Node4&#45;&gt;Node6 -->
<g id="edge5" class="edge"><title>Node4&#45;&gt;Node6</title>
<path fill="none" stroke="midnightblue" d="M303.251,-113.108C303.526,-104.154 303.829,-94.3227 304.067,-86.5765"/>
<polygon fill="midnightblue" stroke="midnightblue" points="299.743,-113.293 302.934,-123.396 306.74,-113.508 299.743,-113.293"/>
</g>
<!-- Node8 -->
<g id="node8" class="node"><title>Node8</title>
<g id="a_node8"><a xlink:href="GenevaIF_8hpp.html" target="_top" xlink:title="This class provides a wrapper around the Geneva library. ">
<polygon fill="white" stroke="black" points="388.5,-62 388.5,-81 548.5,-81 548.5,-62 388.5,-62"/>
<text text-anchor="middle" x="468.5" y="-69" font-family="Helvetica,sans-Serif" font-size="10.00">Optimizer/Geneva/GenevaIF.hpp</text>
</a>
</g>
</g>
<!-- Node7&#45;&gt;Node8 -->
<g id="edge7" class="edge"><title>Node7&#45;&gt;Node8</title>
<path fill="none" stroke="midnightblue" d="M470.625,-118.537C470.054,-106.17 469.336,-90.6198 468.898,-81.1273"/>
<polygon fill="midnightblue" stroke="midnightblue" points="467.138,-118.906 471.095,-128.734 474.131,-118.583 467.138,-118.906"/>
</g>
<!-- Node9 -->
<g id="node9" class="node"><title>Node9</title>
<g id="a_node9"><a xlink:href="GenevaIF_8cpp.html" target="_top" xlink:title="Optimizer/Geneva/GenevaIF.cpp">
<polygon fill="white" stroke="black" points="442.5,-0.5 442.5,-19.5 602.5,-19.5 602.5,-0.5 442.5,-0.5"/>
<text text-anchor="middle" x="522.5" y="-7.5" font-family="Helvetica,sans-Serif" font-size="10.00">Optimizer/Geneva/GenevaIF.cpp</text>
</a>
</g>
</g>
<!-- Node7&#45;&gt;Node9 -->
<g id="edge9" class="edge"><title>Node7&#45;&gt;Node9</title>
<path fill="none" stroke="midnightblue" d="M510.247,-124.948C527.971,-117.044 547.266,-104.877 557.5,-87 570.923,-63.5512 546.365,-34.0566 531.93,-19.6799"/>
<polygon fill="midnightblue" stroke="midnightblue" points="508.542,-121.865 500.629,-128.91 511.208,-128.338 508.542,-121.865"/>
</g>
<!-- Node8&#45;&gt;Node9 -->
<g id="edge8" class="edge"><title>Node8&#45;&gt;Node9</title>
<path fill="none" stroke="midnightblue" d="M483.023,-54.4975C493.244,-43.2356 506.523,-28.6044 514.777,-19.5091"/>
<polygon fill="midnightblue" stroke="midnightblue" points="480.366,-52.2178 476.237,-61.9751 485.549,-56.9222 480.366,-52.2178"/>
</g>
</g>
</svg>
