<?xml version="1.0" encoding="UTF-8" standalone="no"?>
<!DOCTYPE svg PUBLIC "-//W3C//DTD SVG 1.1//EN"
 "http://www.w3.org/Graphics/SVG/1.1/DTD/svg11.dtd">
<!-- Generated by graphviz version 2.38.0 (20140413.2041)
 -->
<!-- Title: Core/FitResult.cpp Pages: 1 -->
<svg width="1339pt" height="274pt"
 viewBox="0.00 0.00 1339.00 274.00" xmlns="http://www.w3.org/2000/svg" xmlns:xlink="http://www.w3.org/1999/xlink">
<g id="graph0" class="graph" transform="scale(1 1) rotate(0) translate(4 270)">
<title>Core/FitResult.cpp</title>
<polygon fill="white" stroke="none" points="-4,4 -4,-270 1335,-270 1335,4 -4,4"/>
<!-- Node1 -->
<g id="node1" class="node"><title>Node1</title>
<polygon fill="#bfbfbf" stroke="black" points="440.5,-246.5 440.5,-265.5 539.5,-265.5 539.5,-246.5 440.5,-246.5"/>
<text text-anchor="middle" x="490" y="-253.5" font-family="Helvetica,sans-Serif" font-size="10.00">Core/FitResult.cpp</text>
</g>
<!-- Node2 -->
<g id="node2" class="node"><title>Node2</title>
<g id="a_node2"><a xlink:href="FitResult_8hpp.html" target="_top" xlink:title="Core/FitResult.hpp">
<polygon fill="white" stroke="black" points="351.5,-190.5 351.5,-209.5 450.5,-209.5 450.5,-190.5 351.5,-190.5"/>
<text text-anchor="middle" x="401" y="-197.5" font-family="Helvetica,sans-Serif" font-size="10.00">Core/FitResult.hpp</text>
</a>
</g>
</g>
<!-- Node1&#45;&gt;Node2 -->
<g id="edge1" class="edge"><title>Node1&#45;&gt;Node2</title>
<path fill="none" stroke="midnightblue" d="M475.701,-246.324C461.817,-237.9 440.508,-224.971 424.196,-215.074"/>
<polygon fill="midnightblue" stroke="midnightblue" points="425.629,-211.85 415.264,-209.655 421.998,-217.834 425.629,-211.85"/>
</g>
<!-- Node7 -->
<g id="node7" class="node"><title>Node7</title>
<g id="a_node7"><a xlink:href="Logging_8hpp.html" target="_top" xlink:title="Core/Logging.hpp">
<polygon fill="white" stroke="red" points="519.5,-62 519.5,-81 612.5,-81 612.5,-62 519.5,-62"/>
<text text-anchor="middle" x="566" y="-69" font-family="Helvetica,sans-Serif" font-size="10.00">Core/Logging.hpp</text>
</a>
</g>
</g>
<!-- Node1&#45;&gt;Node7 -->
<g id="edge14" class="edge"><title>Node1&#45;&gt;Node7</title>
<path fill="none" stroke="midnightblue" d="M507.059,-246.458C520.703,-238.755 539.268,-226.163 550,-210 574.185,-173.575 572.076,-119.477 568.831,-91.222"/>
<polygon fill="midnightblue" stroke="midnightblue" points="572.276,-90.5813 567.49,-81.129 565.337,-91.5028 572.276,-90.5813"/>
</g>
<!-- Node9 -->
<g id="node9" class="node"><title>Node9</title>
<polygon fill="white" stroke="#bfbfbf" points="406.5,-56.5 406.5,-86.5 501.5,-86.5 501.5,-56.5 406.5,-56.5"/>
<text text-anchor="start" x="414.5" y="-74.5" font-family="Helvetica,sans-Serif" font-size="10.00">boost/serialization</text>
<text text-anchor="middle" x="454" y="-63.5" font-family="Helvetica,sans-Serif" font-size="10.00">/nvp.hpp</text>
</g>
<!-- Node1&#45;&gt;Node9 -->
<g id="edge31" class="edge"><title>Node1&#45;&gt;Node9</title>
<path fill="none" stroke="midnightblue" d="M499.195,-246.283C520.947,-224.576 571.865,-166.703 546,-123 537.779,-109.109 524.229,-98.7838 510.024,-91.2208"/>
<polygon fill="midnightblue" stroke="midnightblue" points="511.166,-87.8834 500.644,-86.64 508.094,-94.1733 511.166,-87.8834"/>
</g>
<!-- Node10 -->
<g id="node10" class="node"><title>Node10</title>
<polygon fill="white" stroke="#bfbfbf" points="442.5,-123.5 442.5,-153.5 537.5,-153.5 537.5,-123.5 442.5,-123.5"/>
<text text-anchor="start" x="450.5" y="-141.5" font-family="Helvetica,sans-Serif" font-size="10.00">boost/serialization</text>
<text text-anchor="middle" x="490" y="-130.5" font-family="Helvetica,sans-Serif" font-size="10.00">/vector.hpp</text>
</g>
<!-- Node1&#45;&gt;Node10 -->
<g id="edge32" class="edge"><title>Node1&#45;&gt;Node10</title>
<path fill="none" stroke="midnightblue" d="M490,-246.319C490,-228.967 490,-189.457 490,-163.658"/>
<polygon fill="midnightblue" stroke="midnightblue" points="493.5,-163.545 490,-153.545 486.5,-163.545 493.5,-163.545"/>
</g>
<!-- Node12 -->
<g id="node12" class="node"><title>Node12</title>
<g id="a_node12"><a xlink:href="TableFormatter_8hpp.html" target="_top" xlink:title="Core/TableFormatter.hpp">
<polygon fill="white" stroke="black" points="98.5,-190.5 98.5,-209.5 223.5,-209.5 223.5,-190.5 98.5,-190.5"/>
<text text-anchor="middle" x="161" y="-197.5" font-family="Helvetica,sans-Serif" font-size="10.00">Core/TableFormatter.hpp</text>
</a>
</g>
</g>
<!-- Node1&#45;&gt;Node12 -->
<g id="edge15" class="edge"><title>Node1&#45;&gt;Node12</title>
<path fill="none" stroke="midnightblue" d="M440.389,-246.857C382.319,-237.326 286.098,-221.533 223.116,-211.195"/>
<polygon fill="midnightblue" stroke="midnightblue" points="223.354,-207.688 212.919,-209.522 222.22,-214.595 223.354,-207.688"/>
</g>
<!-- Node13 -->
<g id="node13" class="node"><title>Node13</title>
<polygon fill="white" stroke="#bfbfbf" points="0,-129 0,-148 50,-148 50,-129 0,-129"/>
<text text-anchor="middle" x="25" y="-136" font-family="Helvetica,sans-Serif" font-size="10.00">iomanip</text>
</g>
<!-- Node1&#45;&gt;Node13 -->
<g id="edge33" class="edge"><title>Node1&#45;&gt;Node13</title>
<path fill="none" stroke="midnightblue" d="M440.395,-253.77C347.054,-250.752 149.267,-240.82 89,-210 65.6239,-198.046 46.6188,-173.788 35.559,-157.094"/>
<polygon fill="midnightblue" stroke="midnightblue" points="38.2947,-154.872 29.9922,-148.29 32.3781,-158.613 38.2947,-154.872"/>
</g>
<!-- Node14 -->
<g id="node14" class="node"><title>Node14</title>
<g id="a_node14"><a xlink:href="Utils_8hpp.html" target="_top" xlink:title="Core/Utils.hpp">
<polygon fill="white" stroke="black" points="872,-129 872,-148 952,-148 952,-129 872,-129"/>
<text text-anchor="middle" x="912" y="-136" font-family="Helvetica,sans-Serif" font-size="10.00">Core/Utils.hpp</text>
</a>
</g>
</g>
<!-- Node1&#45;&gt;Node14 -->
<g id="edge21" class="edge"><title>Node1&#45;&gt;Node14</title>
<path fill="none" stroke="midnightblue" d="M521.374,-246.413C596.539,-225.841 786.904,-173.738 870.993,-150.723"/>
<polygon fill="midnightblue" stroke="midnightblue" points="871.985,-154.081 880.706,-148.065 870.137,-147.329 871.985,-154.081"/>
</g>
<!-- Node3 -->
<g id="node3" class="node"><title>Node3</title>
<g id="a_node3"><a xlink:href="FitParameter_8hpp.html" target="_top" xlink:title="Core/FitParameter.hpp">
<polygon fill="white" stroke="black" points="206,-129 206,-148 322,-148 322,-129 206,-129"/>
<text text-anchor="middle" x="264" y="-136" font-family="Helvetica,sans-Serif" font-size="10.00">Core/FitParameter.hpp</text>
</a>
</g>
</g>
<!-- Node2&#45;&gt;Node3 -->
<g id="edge2" class="edge"><title>Node2&#45;&gt;Node3</title>
<path fill="none" stroke="midnightblue" d="M381.371,-190.475C358.176,-180.401 319.381,-163.553 292.787,-152.002"/>
<polygon fill="midnightblue" stroke="midnightblue" points="294.159,-148.782 283.592,-148.009 291.37,-155.203 294.159,-148.782"/>
</g>
<!-- Node4 -->
<g id="node4" class="node"><title>Node4</title>
<g id="a_node4"><a xlink:href="Function_8hpp.html" target="_top" xlink:title="Core/Function.hpp">
<polygon fill="white" stroke="red" points="252.5,-62 252.5,-81 349.5,-81 349.5,-62 252.5,-62"/>
<text text-anchor="middle" x="301" y="-69" font-family="Helvetica,sans-Serif" font-size="10.00">Core/Function.hpp</text>
</a>
</g>
</g>
<!-- Node2&#45;&gt;Node4 -->
<g id="edge11" class="edge"><title>Node2&#45;&gt;Node4</title>
<path fill="none" stroke="midnightblue" d="M394.127,-190.305C377.642,-169.452 335.636,-116.315 314.127,-89.1051"/>
<polygon fill="midnightblue" stroke="midnightblue" points="316.869,-86.9301 307.922,-81.2557 311.377,-91.2711 316.869,-86.9301"/>
</g>
<!-- Node2&#45;&gt;Node10 -->
<g id="edge12" class="edge"><title>Node2&#45;&gt;Node10</title>
<path fill="none" stroke="midnightblue" d="M413.752,-190.475C425.918,-182.341 444.691,-169.791 460.565,-159.179"/>
<polygon fill="midnightblue" stroke="midnightblue" points="462.656,-161.99 469.024,-153.523 458.766,-156.171 462.656,-161.99"/>
</g>
<!-- Node11 -->
<g id="node11" class="node"><title>Node11</title>
<polygon fill="white" stroke="#bfbfbf" points="378,-129 378,-148 424,-148 424,-129 378,-129"/>
<text text-anchor="middle" x="401" y="-136" font-family="Helvetica,sans-Serif" font-size="10.00">chrono</text>
</g>
<!-- Node2&#45;&gt;Node11 -->
<g id="edge13" class="edge"><title>Node2&#45;&gt;Node11</title>
<path fill="none" stroke="midnightblue" d="M401,-190.475C401,-182.08 401,-168.981 401,-158.163"/>
<polygon fill="midnightblue" stroke="midnightblue" points="404.5,-158.009 401,-148.009 397.5,-158.009 404.5,-158.009"/>
</g>
<!-- Node3&#45;&gt;Node4 -->
<g id="edge3" class="edge"><title>Node3&#45;&gt;Node4</title>
<path fill="none" stroke="midnightblue" d="M268.99,-128.734C274.593,-118.89 283.832,-102.66 290.948,-90.1594"/>
<polygon fill="midnightblue" stroke="midnightblue" points="294.184,-91.5494 296.089,-81.1273 288.1,-88.0865 294.184,-91.5494"/>
</g>
<!-- Node5 -->
<g id="node5" class="node"><title>Node5</title>
<polygon fill="white" stroke="#bfbfbf" points="203.5,-0.5 203.5,-19.5 244.5,-19.5 244.5,-0.5 203.5,-0.5"/>
<text text-anchor="middle" x="224" y="-7.5" font-family="Helvetica,sans-Serif" font-size="10.00">string</text>
</g>
<!-- Node3&#45;&gt;Node5 -->
<g id="edge8" class="edge"><title>Node3&#45;&gt;Node5</title>
<path fill="none" stroke="midnightblue" d="M259.874,-128.712C255.311,-118.755 247.951,-101.964 243,-87 236.606,-67.6742 231.194,-44.9678 227.801,-29.4397"/>
<polygon fill="midnightblue" stroke="midnightblue" points="231.203,-28.6079 225.702,-19.5526 224.355,-30.0614 231.203,-28.6079"/>
</g>
<!-- Node6 -->
<g id="node6" class="node"><title>Node6</title>
<polygon fill="white" stroke="#bfbfbf" points="317,-0.5 317,-19.5 361,-19.5 361,-0.5 317,-0.5"/>
<text text-anchor="middle" x="339" y="-7.5" font-family="Helvetica,sans-Serif" font-size="10.00">vector</text>
</g>
<!-- Node3&#45;&gt;Node6 -->
<g id="edge9" class="edge"><title>Node3&#45;&gt;Node6</title>
<path fill="none" stroke="midnightblue" d="M298.076,-128.868C319.349,-121.525 345.07,-108.624 358,-87 368.867,-68.8267 359.489,-44.649 350.471,-28.4915"/>
<polygon fill="midnightblue" stroke="midnightblue" points="353.258,-26.337 345.087,-19.5931 347.269,-29.9607 353.258,-26.337"/>
</g>
<!-- Node3&#45;&gt;Node7 -->
<g id="edge6" class="edge"><title>Node3&#45;&gt;Node7</title>
<path fill="none" stroke="midnightblue" d="M309.039,-128.968C358.482,-119.436 440.134,-103.205 510,-87 514.647,-85.9221 519.497,-84.7451 524.316,-83.5427"/>
<polygon fill="midnightblue" stroke="midnightblue" points="525.254,-86.9155 534.086,-81.0629 523.532,-80.1307 525.254,-86.9155"/>
</g>
<!-- Node8 -->
<g id="node8" class="node"><title>Node8</title>
<polygon fill="white" stroke="#bfbfbf" points="106,-62 106,-81 158,-81 158,-62 106,-62"/>
<text text-anchor="middle" x="132" y="-69" font-family="Helvetica,sans-Serif" font-size="10.00">ostream</text>
</g>
<!-- Node3&#45;&gt;Node8 -->
<g id="edge7" class="edge"><title>Node3&#45;&gt;Node8</title>
<path fill="none" stroke="midnightblue" d="M246.471,-128.869C223.986,-117.796 184.772,-98.4862 158.599,-85.5978"/>
<polygon fill="midnightblue" stroke="midnightblue" points="160.119,-82.445 149.601,-81.1672 157.026,-88.7249 160.119,-82.445"/>
</g>
<!-- Node3&#45;&gt;Node9 -->
<g id="edge10" class="edge"><title>Node3&#45;&gt;Node9</title>
<path fill="none" stroke="midnightblue" d="M289.231,-128.869C318.234,-118.946 366.575,-102.408 403.416,-89.8051"/>
<polygon fill="midnightblue" stroke="midnightblue" points="404.666,-93.0766 412.995,-86.5281 402.4,-86.4534 404.666,-93.0766"/>
</g>
<!-- Node4&#45;&gt;Node5 -->
<g id="edge4" class="edge"><title>Node4&#45;&gt;Node5</title>
<path fill="none" stroke="midnightblue" d="M289.968,-61.9751C277.732,-52.5199 257.771,-37.0961 243.007,-25.6871"/>
<polygon fill="midnightblue" stroke="midnightblue" points="245.065,-22.8541 235.012,-19.5091 240.785,-28.3931 245.065,-22.8541"/>
</g>
<!-- Node4&#45;&gt;Node6 -->
<g id="edge5" class="edge"><title>Node4&#45;&gt;Node6</title>
<path fill="none" stroke="midnightblue" d="M306.444,-61.9751C312.088,-53.1384 321.061,-39.0886 328.159,-27.975"/>
<polygon fill="midnightblue" stroke="midnightblue" points="331.133,-29.8208 333.566,-19.5091 325.233,-26.0531 331.133,-29.8208"/>
</g>
<!-- Node12&#45;&gt;Node3 -->
<g id="edge20" class="edge"><title>Node12&#45;&gt;Node3</title>
<path fill="none" stroke="midnightblue" d="M175.757,-190.475C192.661,-180.711 220.583,-164.581 240.49,-153.081"/>
<polygon fill="midnightblue" stroke="midnightblue" points="242.362,-156.042 249.27,-148.009 238.86,-149.981 242.362,-156.042"/>
</g>
<!-- Node12&#45;&gt;Node5 -->
<g id="edge18" class="edge"><title>Node12&#45;&gt;Node5</title>
<path fill="none" stroke="midnightblue" d="M151.292,-190.342C126.407,-167.099 64.5095,-101.982 97,-56 118.735,-25.2396 163.37,-15.3718 193.5,-12.2838"/>
<polygon fill="midnightblue" stroke="midnightblue" points="193.816,-15.7697 203.491,-11.4512 193.235,-8.79389 193.816,-15.7697"/>
</g>
<!-- Node12&#45;&gt;Node6 -->
<g id="edge19" class="edge"><title>Node12&#45;&gt;Node6</title>
<path fill="none" stroke="midnightblue" d="M163.666,-190.223C171.601,-165.524 197.397,-94.7031 243,-56 261.849,-40.003 287.344,-28.4052 307.323,-20.9937"/>
<polygon fill="midnightblue" stroke="midnightblue" points="308.661,-24.2329 316.919,-17.5947 306.324,-17.6346 308.661,-24.2329"/>
</g>
<!-- Node12&#45;&gt;Node8 -->
<g id="edge17" class="edge"><title>Node12&#45;&gt;Node8</title>
<path fill="none" stroke="midnightblue" d="M159.007,-190.305C154.35,-169.994 142.672,-119.053 136.305,-91.2768"/>
<polygon fill="midnightblue" stroke="midnightblue" points="139.653,-90.2207 134.007,-81.2557 132.83,-91.785 139.653,-90.2207"/>
</g>
<!-- Node12&#45;&gt;Node13 -->
<g id="edge16" class="edge"><title>Node12&#45;&gt;Node13</title>
<path fill="none" stroke="midnightblue" d="M141.515,-190.475C118.59,-180.445 80.3147,-163.7 53.9248,-152.155"/>
<polygon fill="midnightblue" stroke="midnightblue" points="55.0138,-148.811 44.4493,-148.009 52.208,-155.224 55.0138,-148.811"/>
</g>
<!-- Node14&#45;&gt;Node6 -->
<g id="edge30" class="edge"><title>Node14&#45;&gt;Node6</title>
<path fill="none" stroke="midnightblue" d="M871.787,-135.268C820.483,-131.142 730.013,-119.508 660,-87 639.917,-77.6753 641.263,-64.9259 621,-56 536.355,-18.7141 425.314,-11.874 371.304,-10.9066"/>
<polygon fill="midnightblue" stroke="midnightblue" points="371.329,-7.40675 361.287,-10.7841 371.244,-14.4062 371.329,-7.40675"/>
</g>
<!-- Node14&#45;&gt;Node7 -->
<g id="edge22" class="edge"><title>Node14&#45;&gt;Node7</title>
<path fill="none" stroke="midnightblue" d="M871.741,-131.122C816.413,-122.185 713.845,-105 627,-87 621.604,-85.8816 615.957,-84.6385 610.368,-83.3637"/>
<polygon fill="midnightblue" stroke="midnightblue" points="610.973,-79.911 600.44,-81.055 609.388,-86.7291 610.973,-79.911"/>
</g>
<!-- Node15 -->
<g id="node15" class="node"><title>Node15</title>
<polygon fill="white" stroke="#bfbfbf" points="669,-56.5 669,-86.5 779,-86.5 779,-56.5 669,-56.5"/>
<text text-anchor="start" x="677" y="-74.5" font-family="Helvetica,sans-Serif" font-size="10.00">boost/algorithm/string</text>
<text text-anchor="middle" x="724" y="-63.5" font-family="Helvetica,sans-Serif" font-size="10.00">/predicate.hpp</text>
</g>
<!-- Node14&#45;&gt;Node15 -->
<g id="edge23" class="edge"><title>Node14&#45;&gt;Node15</title>
<path fill="none" stroke="midnightblue" d="M887.035,-128.869C858.336,-118.946 810.505,-102.408 774.052,-89.8051"/>
<polygon fill="midnightblue" stroke="midnightblue" points="775.168,-86.4879 764.573,-86.5281 772.881,-93.1037 775.168,-86.4879"/>
</g>
<!-- Node16 -->
<g id="node16" class="node"><title>Node16</title>
<polygon fill="white" stroke="#bfbfbf" points="797,-56.5 797,-86.5 907,-86.5 907,-56.5 797,-56.5"/>
<text text-anchor="start" x="805" y="-74.5" font-family="Helvetica,sans-Serif" font-size="10.00">boost/algorithm/string</text>
<text text-anchor="middle" x="852" y="-63.5" font-family="Helvetica,sans-Serif" font-size="10.00">/trim.hpp</text>
</g>
<!-- Node14&#45;&gt;Node16 -->
<g id="edge24" class="edge"><title>Node14&#45;&gt;Node16</title>
<path fill="none" stroke="midnightblue" d="M903.908,-128.734C895.721,-119.865 882.749,-105.811 871.821,-93.9722"/>
<polygon fill="midnightblue" stroke="midnightblue" points="874.36,-91.5631 865.005,-86.589 869.216,-96.3111 874.36,-91.5631"/>
</g>
<!-- Node17 -->
<g id="node17" class="node"><title>Node17</title>
<polygon fill="white" stroke="#bfbfbf" points="925,-62 925,-81 1021,-81 1021,-62 925,-62"/>
<text text-anchor="middle" x="973" y="-69" font-family="Helvetica,sans-Serif" font-size="10.00">boost/optional.hpp</text>
</g>
<!-- Node14&#45;&gt;Node17 -->
<g id="edge25" class="edge"><title>Node14&#45;&gt;Node17</title>
<path fill="none" stroke="midnightblue" d="M920.227,-128.734C929.83,-118.5 945.912,-101.364 957.804,-88.6924"/>
<polygon fill="midnightblue" stroke="midnightblue" points="960.613,-90.8143 964.904,-81.1273 955.508,-86.0241 960.613,-90.8143"/>
</g>
<!-- Node18 -->
<g id="node18" class="node"><title>Node18</title>
<polygon fill="white" stroke="#bfbfbf" points="1039.5,-56.5 1039.5,-86.5 1140.5,-86.5 1140.5,-56.5 1039.5,-56.5"/>
<text text-anchor="start" x="1047.5" y="-74.5" font-family="Helvetica,sans-Serif" font-size="10.00">boost/property_tree</text>
<text text-anchor="middle" x="1090" y="-63.5" font-family="Helvetica,sans-Serif" font-size="10.00">/ptree.hpp</text>
</g>
<!-- Node14&#45;&gt;Node18 -->
<g id="edge26" class="edge"><title>Node14&#45;&gt;Node18</title>
<path fill="none" stroke="midnightblue" d="M935.637,-128.869C962.693,-118.988 1007.71,-102.549 1042.17,-89.9662"/>
<polygon fill="midnightblue" stroke="midnightblue" points="1043.39,-93.2459 1051.58,-86.5281 1040.99,-86.6706 1043.39,-93.2459"/>
</g>
<!-- Node19 -->
<g id="node19" class="node"><title>Node19</title>
<polygon fill="white" stroke="#bfbfbf" points="1159,-62 1159,-81 1203,-81 1203,-62 1159,-62"/>
<text text-anchor="middle" x="1181" y="-69" font-family="Helvetica,sans-Serif" font-size="10.00">cmath</text>
</g>
<!-- Node14&#45;&gt;Node19 -->
<g id="edge27" class="edge"><title>Node14&#45;&gt;Node19</title>
<path fill="none" stroke="midnightblue" d="M952.328,-131.825C1000.27,-124.422 1082.31,-109.678 1150,-87 1151.67,-86.442 1153.36,-85.8195 1155.05,-85.1548"/>
<polygon fill="midnightblue" stroke="midnightblue" points="1156.77,-88.2269 1164.55,-81.0427 1153.99,-81.8028 1156.77,-88.2269"/>
</g>
<!-- Node20 -->
<g id="node20" class="node"><title>Node20</title>
<polygon fill="white" stroke="#bfbfbf" points="1221,-62 1221,-81 1261,-81 1261,-62 1221,-62"/>
<text text-anchor="middle" x="1241" y="-69" font-family="Helvetica,sans-Serif" font-size="10.00">limits</text>
</g>
<!-- Node14&#45;&gt;Node20 -->
<g id="edge28" class="edge"><title>Node14&#45;&gt;Node20</title>
<path fill="none" stroke="midnightblue" d="M952.211,-134.54C1010.64,-129.394 1121.87,-116.391 1212,-87 1213.62,-86.4721 1215.26,-85.8665 1216.9,-85.209"/>
<polygon fill="midnightblue" stroke="midnightblue" points="1218.36,-88.3871 1226.01,-81.0537 1215.46,-82.0179 1218.36,-88.3871"/>
</g>
<!-- Node21 -->
<g id="node21" class="node"><title>Node21</title>
<polygon fill="white" stroke="#bfbfbf" points="1279,-62 1279,-81 1331,-81 1331,-62 1279,-62"/>
<text text-anchor="middle" x="1305" y="-69" font-family="Helvetica,sans-Serif" font-size="10.00">sstream</text>
</g>
<!-- Node14&#45;&gt;Node21 -->
<g id="edge29" class="edge"><title>Node14&#45;&gt;Node21</title>
<path fill="none" stroke="midnightblue" d="M952.13,-135.152C1019.05,-130.504 1157.22,-117.782 1270,-87 1272.44,-86.3332 1274.94,-85.5391 1277.43,-84.6709"/>
<polygon fill="midnightblue" stroke="midnightblue" points="1278.7,-87.9295 1286.78,-81.0688 1276.19,-81.3974 1278.7,-87.9295"/>
</g>
</g>
</svg>
