<?xml version="1.0" encoding="UTF-8" standalone="no"?>
<!DOCTYPE svg PUBLIC "-//W3C//DTD SVG 1.1//EN"
 "http://www.w3.org/Graphics/SVG/1.1/DTD/svg11.dtd">
<!-- Generated by graphviz version 2.38.0 (20140413.2041)
 -->
<!-- Title: Physics/Dynamics/Flatte.hpp Pages: 1 -->
<svg width="518pt" height="252pt"
 viewBox="0.00 0.00 518.00 252.00" xmlns="http://www.w3.org/2000/svg" xmlns:xlink="http://www.w3.org/1999/xlink">
<g id="graph0" class="graph" transform="scale(1 1) rotate(0) translate(4 248)">
<title>Physics/Dynamics/Flatte.hpp</title>
<polygon fill="white" stroke="none" points="-4,4 -4,-248 514,-248 514,4 -4,4"/>
<!-- Node1 -->
<g id="node1" class="node"><title>Node1</title>
<polygon fill="#bfbfbf" stroke="black" points="296,-224.5 296,-243.5 442,-243.5 442,-224.5 296,-224.5"/>
<text text-anchor="middle" x="369" y="-231.5" font-family="Helvetica,sans-Serif" font-size="10.00">Physics/Dynamics/Flatte.hpp</text>
</g>
<!-- Node2 -->
<g id="node2" class="node"><title>Node2</title>
<g id="a_node2"><a xlink:href="Coupling_8hpp.html" target="_top" xlink:title="Coupling.hpp">
<polygon fill="white" stroke="black" points="224,-112.5 224,-131.5 298,-131.5 298,-112.5 224,-112.5"/>
<text text-anchor="middle" x="261" y="-119.5" font-family="Helvetica,sans-Serif" font-size="10.00">Coupling.hpp</text>
</a>
</g>
</g>
<!-- Node1&#45;&gt;Node2 -->
<g id="edge1" class="edge"><title>Node1&#45;&gt;Node2</title>
<path fill="none" stroke="midnightblue" d="M347.043,-224.432C330.194,-216.937 307.301,-204.641 292,-188 279.592,-174.506 271.228,-155.146 266.346,-141.067"/>
<polygon fill="midnightblue" stroke="midnightblue" points="269.669,-139.967 263.282,-131.514 263.004,-142.105 269.669,-139.967"/>
</g>
<!-- Node6 -->
<g id="node6" class="node"><title>Node6</title>
<g id="a_node6"><a xlink:href="FormFactor_8hpp.html" target="_top" xlink:title="FormFactor.hpp">
<polygon fill="white" stroke="red" points="354,-56.5 354,-75.5 440,-75.5 440,-56.5 354,-56.5"/>
<text text-anchor="middle" x="397" y="-63.5" font-family="Helvetica,sans-Serif" font-size="10.00">FormFactor.hpp</text>
</a>
</g>
</g>
<!-- Node1&#45;&gt;Node6 -->
<g id="edge7" class="edge"><title>Node1&#45;&gt;Node6</title>
<path fill="none" stroke="midnightblue" d="M397.015,-224.397C414.174,-217.515 434.748,-205.984 445,-188 465.223,-152.523 432.984,-106.845 412.266,-83.0411"/>
<polygon fill="midnightblue" stroke="midnightblue" points="414.828,-80.6551 405.524,-75.5863 409.636,-85.3506 414.828,-80.6551"/>
</g>
<!-- Node8 -->
<g id="node8" class="node"><title>Node8</title>
<g id="a_node8"><a xlink:href="RelativisticBreitWigner_8hpp.html" target="_top" xlink:title="RelativisticBreitWigner.hpp">
<polygon fill="white" stroke="black" points="301.5,-168.5 301.5,-187.5 436.5,-187.5 436.5,-168.5 301.5,-168.5"/>
<text text-anchor="middle" x="369" y="-175.5" font-family="Helvetica,sans-Serif" font-size="10.00">RelativisticBreitWigner.hpp</text>
</a>
</g>
</g>
<!-- Node1&#45;&gt;Node8 -->
<g id="edge8" class="edge"><title>Node1&#45;&gt;Node8</title>
<path fill="none" stroke="midnightblue" d="M369,-224.083C369,-217.006 369,-206.861 369,-197.986"/>
<polygon fill="midnightblue" stroke="midnightblue" points="372.5,-197.751 369,-187.751 365.5,-197.751 372.5,-197.751"/>
</g>
<!-- Node3 -->
<g id="node3" class="node"><title>Node3</title>
<g id="a_node3"><a xlink:href="FunctionTree_2FitParameter_8hpp.html" target="_top" xlink:title="Implementations of Parameter for various data types. ">
<polygon fill="white" stroke="red" points="0,-56.5 0,-75.5 176,-75.5 176,-56.5 0,-56.5"/>
<text text-anchor="middle" x="88" y="-63.5" font-family="Helvetica,sans-Serif" font-size="10.00">Core/FunctionTree/FitParameter.hpp</text>
</a>
</g>
</g>
<!-- Node2&#45;&gt;Node3 -->
<g id="edge2" class="edge"><title>Node2&#45;&gt;Node3</title>
<path fill="none" stroke="midnightblue" d="M233.588,-112.444C204.231,-103.28 157.481,-88.6876 124.904,-78.5192"/>
<polygon fill="midnightblue" stroke="midnightblue" points="125.873,-75.1551 115.284,-75.5164 123.787,-81.8371 125.873,-75.1551"/>
</g>
<!-- Node4 -->
<g id="node4" class="node"><title>Node4</title>
<g id="a_node4"><a xlink:href="Properties_8hpp.html" target="_top" xlink:title="Core/Properties.hpp">
<polygon fill="white" stroke="red" points="194,-56.5 194,-75.5 298,-75.5 298,-56.5 194,-56.5"/>
<text text-anchor="middle" x="246" y="-63.5" font-family="Helvetica,sans-Serif" font-size="10.00">Core/Properties.hpp</text>
</a>
</g>
</g>
<!-- Node2&#45;&gt;Node4 -->
<g id="edge3" class="edge"><title>Node2&#45;&gt;Node4</title>
<path fill="none" stroke="midnightblue" d="M258.523,-112.083C256.514,-104.849 253.614,-94.4087 251.11,-85.3968"/>
<polygon fill="midnightblue" stroke="midnightblue" points="254.48,-84.4495 248.431,-75.7511 247.735,-86.323 254.48,-84.4495"/>
</g>
<!-- Node2&#45;&gt;Node6 -->
<g id="edge5" class="edge"><title>Node2&#45;&gt;Node6</title>
<path fill="none" stroke="midnightblue" d="M282.55,-112.444C305.031,-103.517 340.488,-89.4387 365.98,-79.3168"/>
<polygon fill="midnightblue" stroke="midnightblue" points="367.549,-82.4598 375.551,-75.5164 364.965,-75.9539 367.549,-82.4598"/>
</g>
<!-- Node5 -->
<g id="node5" class="node"><title>Node5</title>
<polygon fill="white" stroke="#bfbfbf" points="271,-0.5 271,-19.5 315,-19.5 315,-0.5 271,-0.5"/>
<text text-anchor="middle" x="293" y="-7.5" font-family="Helvetica,sans-Serif" font-size="10.00">vector</text>
</g>
<!-- Node4&#45;&gt;Node5 -->
<g id="edge4" class="edge"><title>Node4&#45;&gt;Node5</title>
<path fill="none" stroke="midnightblue" d="M253.761,-56.083C260.537,-48.2982 270.543,-36.8015 278.755,-27.3665"/>
<polygon fill="midnightblue" stroke="midnightblue" points="281.458,-29.592 285.383,-19.7511 276.178,-24.9963 281.458,-29.592"/>
</g>
<!-- Node7 -->
<g id="node7" class="node"><title>Node7</title>
<g id="a_node7"><a xlink:href="TreeNode_8hpp.html" target="_top" xlink:title="TreeNode class. ">
<polygon fill="white" stroke="red" points="348,-0.5 348,-19.5 510,-19.5 510,-0.5 348,-0.5"/>
<text text-anchor="middle" x="429" y="-7.5" font-family="Helvetica,sans-Serif" font-size="10.00">Core/FunctionTree/TreeNode.hpp</text>
</a>
</g>
</g>
<!-- Node6&#45;&gt;Node7 -->
<g id="edge6" class="edge"><title>Node6&#45;&gt;Node7</title>
<path fill="none" stroke="midnightblue" d="M402.284,-56.083C406.711,-48.6127 413.163,-37.7244 418.618,-28.5199"/>
<polygon fill="midnightblue" stroke="midnightblue" points="421.727,-30.1383 423.814,-19.7511 415.705,-26.5697 421.727,-30.1383"/>
</g>
<!-- Node8&#45;&gt;Node2 -->
<g id="edge10" class="edge"><title>Node8&#45;&gt;Node2</title>
<path fill="none" stroke="midnightblue" d="M351.648,-168.324C334.328,-159.664 307.485,-146.242 287.498,-136.249"/>
<polygon fill="midnightblue" stroke="midnightblue" points="288.819,-132.996 278.309,-131.655 285.688,-139.257 288.819,-132.996"/>
</g>
<!-- Node8&#45;&gt;Node5 -->
<g id="edge12" class="edge"><title>Node8&#45;&gt;Node5</title>
<path fill="none" stroke="midnightblue" d="M364.914,-168.075C352.847,-141.719 317.209,-63.878 301.086,-28.6608"/>
<polygon fill="midnightblue" stroke="midnightblue" points="304.268,-27.2035 296.923,-19.5681 297.903,-30.1175 304.268,-27.2035"/>
</g>
<!-- Node8&#45;&gt;Node6 -->
<g id="edge11" class="edge"><title>Node8&#45;&gt;Node6</title>
<path fill="none" stroke="midnightblue" d="M371.197,-168.368C375.716,-150.617 386.139,-109.666 392.266,-85.5974"/>
<polygon fill="midnightblue" stroke="midnightblue" points="395.738,-86.1458 394.813,-75.5914 388.954,-84.419 395.738,-86.1458"/>
</g>
<!-- Node8&#45;&gt;Node7 -->
<g id="edge9" class="edge"><title>Node8&#45;&gt;Node7</title>
<path fill="none" stroke="midnightblue" d="M379.425,-168.326C397.729,-152.332 435.029,-116.139 449,-76 454.505,-60.1834 447.77,-41.939 440.668,-28.8128"/>
<polygon fill="midnightblue" stroke="midnightblue" points="443.484,-26.7013 435.363,-19.8978 437.469,-30.2812 443.484,-26.7013"/>
</g>
</g>
</svg>
