<?xml version="1.0" encoding="UTF-8" standalone="no"?>
<!DOCTYPE svg PUBLIC "-//W3C//DTD SVG 1.1//EN"
 "http://www.w3.org/Graphics/SVG/1.1/DTD/svg11.dtd">
<!-- Generated by graphviz version 2.38.0 (20140413.2041)
 -->
<!-- Title: Physics/Dynamics/Flatte.cpp Pages: 1 -->
<svg width="245pt" height="252pt"
 viewBox="0.00 0.00 244.50 252.00" xmlns="http://www.w3.org/2000/svg" xmlns:xlink="http://www.w3.org/1999/xlink">
<g id="graph0" class="graph" transform="scale(1 1) rotate(0) translate(4 248)">
<title>Physics/Dynamics/Flatte.cpp</title>
<polygon fill="white" stroke="none" points="-4,4 -4,-248 240.5,-248 240.5,4 -4,4"/>
<!-- Node1 -->
<g id="node1" class="node"><title>Node1</title>
<polygon fill="#bfbfbf" stroke="black" points="0,-224.5 0,-243.5 146,-243.5 146,-224.5 0,-224.5"/>
<text text-anchor="middle" x="73" y="-231.5" font-family="Helvetica,sans-Serif" font-size="10.00">Physics/Dynamics/Flatte.cpp</text>
</g>
<!-- Node2 -->
<g id="node2" class="node"><title>Node2</title>
<g id="a_node2"><a xlink:href="Flatte_8hpp.html" target="_top" xlink:title="Flatte.hpp">
<polygon fill="white" stroke="black" points="43,-168.5 43,-187.5 103,-187.5 103,-168.5 43,-168.5"/>
<text text-anchor="middle" x="73" y="-175.5" font-family="Helvetica,sans-Serif" font-size="10.00">Flatte.hpp</text>
</a>
</g>
</g>
<!-- Node1&#45;&gt;Node2 -->
<g id="edge1" class="edge"><title>Node1&#45;&gt;Node2</title>
<path fill="none" stroke="midnightblue" d="M73,-224.083C73,-217.006 73,-206.861 73,-197.986"/>
<polygon fill="midnightblue" stroke="midnightblue" points="76.5001,-197.751 73,-187.751 69.5001,-197.751 76.5001,-197.751"/>
</g>
<!-- Node3 -->
<g id="node3" class="node"><title>Node3</title>
<g id="a_node3"><a xlink:href="Coupling_8hpp.html" target="_top" xlink:title="Coupling.hpp">
<polygon fill="white" stroke="red" points="64,-56.5 64,-75.5 138,-75.5 138,-56.5 64,-56.5"/>
<text text-anchor="middle" x="101" y="-63.5" font-family="Helvetica,sans-Serif" font-size="10.00">Coupling.hpp</text>
</a>
</g>
</g>
<!-- Node2&#45;&gt;Node3 -->
<g id="edge2" class="edge"><title>Node2&#45;&gt;Node3</title>
<path fill="none" stroke="midnightblue" d="M75.1971,-168.368C79.7157,-150.617 90.1395,-109.666 96.2661,-85.5974"/>
<polygon fill="midnightblue" stroke="midnightblue" points="99.7381,-86.1458 98.8131,-75.5914 92.9544,-84.419 99.7381,-86.1458"/>
</g>
<!-- Node4 -->
<g id="node4" class="node"><title>Node4</title>
<g id="a_node4"><a xlink:href="FormFactor_8hpp.html" target="_top" xlink:title="FormFactor.hpp">
<polygon fill="white" stroke="red" points="58,-0.5 58,-19.5 144,-19.5 144,-0.5 58,-0.5"/>
<text text-anchor="middle" x="101" y="-7.5" font-family="Helvetica,sans-Serif" font-size="10.00">FormFactor.hpp</text>
</a>
</g>
</g>
<!-- Node2&#45;&gt;Node4 -->
<g id="edge4" class="edge"><title>Node2&#45;&gt;Node4</title>
<path fill="none" stroke="midnightblue" d="M68.7147,-168.398C59.1893,-148.02 38.365,-95.5445 55,-56 60.0258,-44.0528 69.9437,-33.6922 79.2875,-25.9339"/>
<polygon fill="midnightblue" stroke="midnightblue" points="81.4392,-28.6944 87.2135,-19.8113 77.16,-23.1547 81.4392,-28.6944"/>
</g>
<!-- Node5 -->
<g id="node5" class="node"><title>Node5</title>
<g id="a_node5"><a xlink:href="RelativisticBreitWigner_8hpp.html" target="_top" xlink:title="RelativisticBreitWigner.hpp">
<polygon fill="white" stroke="red" points="101.5,-112.5 101.5,-131.5 236.5,-131.5 236.5,-112.5 101.5,-112.5"/>
<text text-anchor="middle" x="169" y="-119.5" font-family="Helvetica,sans-Serif" font-size="10.00">RelativisticBreitWigner.hpp</text>
</a>
</g>
</g>
<!-- Node2&#45;&gt;Node5 -->
<g id="edge5" class="edge"><title>Node2&#45;&gt;Node5</title>
<path fill="none" stroke="midnightblue" d="M88.4241,-168.324C103.54,-159.822 126.815,-146.729 144.471,-136.797"/>
<polygon fill="midnightblue" stroke="midnightblue" points="146.614,-139.608 153.614,-131.655 143.183,-133.507 146.614,-139.608"/>
</g>
<!-- Node3&#45;&gt;Node4 -->
<g id="edge3" class="edge"><title>Node3&#45;&gt;Node4</title>
<path fill="none" stroke="midnightblue" d="M101,-56.083C101,-49.0059 101,-38.8611 101,-29.9865"/>
<polygon fill="midnightblue" stroke="midnightblue" points="104.5,-29.751 101,-19.7511 97.5001,-29.7511 104.5,-29.751"/>
</g>
<!-- Node5&#45;&gt;Node3 -->
<g id="edge6" class="edge"><title>Node5&#45;&gt;Node3</title>
<path fill="none" stroke="midnightblue" d="M158.075,-112.324C147.825,-104.185 132.279,-91.8395 119.999,-82.0874"/>
<polygon fill="midnightblue" stroke="midnightblue" points="122.132,-79.3119 112.124,-75.8339 117.779,-84.7937 122.132,-79.3119"/>
</g>
<!-- Node5&#45;&gt;Node4 -->
<g id="edge7" class="edge"><title>Node5&#45;&gt;Node4</title>
<path fill="none" stroke="midnightblue" d="M167.441,-112.447C164.793,-99.4645 158.543,-74.3549 147,-56 139.988,-44.8492 129.677,-34.4242 120.594,-26.4218"/>
<polygon fill="midnightblue" stroke="midnightblue" points="122.632,-23.5626 112.727,-19.8024 118.125,-28.9188 122.632,-23.5626"/>
</g>
</g>
</svg>
