<?xml version="1.0" encoding="UTF-8" standalone="no"?>
<!DOCTYPE svg PUBLIC "-//W3C//DTD SVG 1.1//EN"
 "http://www.w3.org/Graphics/SVG/1.1/DTD/svg11.dtd">
<!-- Generated by graphviz version 2.38.0 (20140413.2041)
 -->
<!-- Title: Physics/Dynamics/FormFactor.cpp Pages: 1 -->
<svg width="313pt" height="252pt"
 viewBox="0.00 0.00 312.50 252.00" xmlns="http://www.w3.org/2000/svg" xmlns:xlink="http://www.w3.org/1999/xlink">
<g id="graph0" class="graph" transform="scale(1 1) rotate(0) translate(4 248)">
<title>Physics/Dynamics/FormFactor.cpp</title>
<polygon fill="white" stroke="none" points="-4,4 -4,-248 308.5,-248 308.5,4 -4,4"/>
<!-- Node1 -->
<g id="node1" class="node"><title>Node1</title>
<polygon fill="#bfbfbf" stroke="black" points="0,-224.5 0,-243.5 171,-243.5 171,-224.5 0,-224.5"/>
<text text-anchor="middle" x="85.5" y="-231.5" font-family="Helvetica,sans-Serif" font-size="10.00">Physics/Dynamics/FormFactor.cpp</text>
</g>
<!-- Node2 -->
<g id="node2" class="node"><title>Node2</title>
<g id="a_node2"><a xlink:href="FormFactor_8hpp.html" target="_top" xlink:title="FormFactor.hpp">
<polygon fill="white" stroke="black" points="42.5,-168.5 42.5,-187.5 128.5,-187.5 128.5,-168.5 42.5,-168.5"/>
<text text-anchor="middle" x="85.5" y="-175.5" font-family="Helvetica,sans-Serif" font-size="10.00">FormFactor.hpp</text>
</a>
</g>
</g>
<!-- Node1&#45;&gt;Node2 -->
<g id="edge1" class="edge"><title>Node1&#45;&gt;Node2</title>
<path fill="none" stroke="midnightblue" d="M85.5,-224.083C85.5,-217.006 85.5,-206.861 85.5,-197.986"/>
<polygon fill="midnightblue" stroke="midnightblue" points="89.0001,-197.751 85.5,-187.751 82.0001,-197.751 89.0001,-197.751"/>
</g>
<!-- Node3 -->
<g id="node3" class="node"><title>Node3</title>
<polygon fill="white" stroke="#bfbfbf" points="88,-0.5 88,-19.5 141,-19.5 141,-0.5 88,-0.5"/>
<text text-anchor="middle" x="114.5" y="-7.5" font-family="Helvetica,sans-Serif" font-size="10.00">complex</text>
</g>
<!-- Node2&#45;&gt;Node3 -->
<g id="edge2" class="edge"><title>Node2&#45;&gt;Node3</title>
<path fill="none" stroke="midnightblue" d="M62.0459,-168.408C46.3389,-161.28 26.8815,-149.458 17.5,-132 9.13488,-116.433 11.3312,-74.6127 24.5,-56 37.2163,-38.0269 59.225,-26.8438 78.2947,-20.1214"/>
<polygon fill="midnightblue" stroke="midnightblue" points="79.4987,-23.4105 87.9342,-17.0002 77.3423,-16.7509 79.4987,-23.4105"/>
</g>
<!-- Node4 -->
<g id="node4" class="node"><title>Node4</title>
<polygon fill="white" stroke="#bfbfbf" points="27,-112.5 27,-131.5 86,-131.5 86,-112.5 27,-112.5"/>
<text text-anchor="middle" x="56.5" y="-119.5" font-family="Helvetica,sans-Serif" font-size="10.00">exception</text>
</g>
<!-- Node2&#45;&gt;Node4 -->
<g id="edge3" class="edge"><title>Node2&#45;&gt;Node4</title>
<path fill="none" stroke="midnightblue" d="M80.7112,-168.083C76.7416,-160.691 70.9749,-149.953 66.0652,-140.811"/>
<polygon fill="midnightblue" stroke="midnightblue" points="69.0145,-138.905 61.1997,-131.751 62.8475,-142.217 69.0145,-138.905"/>
</g>
<!-- Node5 -->
<g id="node5" class="node"><title>Node5</title>
<g id="a_node5"><a xlink:href="Functions_8hpp.html" target="_top" xlink:title="This file contains Functions implementing the Strategy interface so they can be used inside a node of...">
<polygon fill="white" stroke="red" points="33.5,-56.5 33.5,-75.5 195.5,-75.5 195.5,-56.5 33.5,-56.5"/>
<text text-anchor="middle" x="114.5" y="-63.5" font-family="Helvetica,sans-Serif" font-size="10.00">Core/FunctionTree/Functions.hpp</text>
</a>
</g>
</g>
<!-- Node2&#45;&gt;Node5 -->
<g id="edge4" class="edge"><title>Node2&#45;&gt;Node5</title>
<path fill="none" stroke="midnightblue" d="M87.7756,-168.368C92.4767,-150.537 103.349,-109.295 109.683,-85.2717"/>
<polygon fill="midnightblue" stroke="midnightblue" points="113.07,-86.1533 112.235,-75.5914 106.301,-84.3688 113.07,-86.1533"/>
</g>
<!-- Node6 -->
<g id="node6" class="node"><title>Node6</title>
<g id="a_node6"><a xlink:href="TreeNode_8hpp.html" target="_top" xlink:title="TreeNode class. ">
<polygon fill="white" stroke="red" points="142.5,-112.5 142.5,-131.5 304.5,-131.5 304.5,-112.5 142.5,-112.5"/>
<text text-anchor="middle" x="223.5" y="-119.5" font-family="Helvetica,sans-Serif" font-size="10.00">Core/FunctionTree/TreeNode.hpp</text>
</a>
</g>
</g>
<!-- Node2&#45;&gt;Node6 -->
<g id="edge6" class="edge"><title>Node2&#45;&gt;Node6</title>
<path fill="none" stroke="midnightblue" d="M107.367,-168.444C130.279,-159.478 166.475,-145.314 192.366,-135.183"/>
<polygon fill="midnightblue" stroke="midnightblue" points="193.699,-138.42 201.736,-131.516 191.148,-131.901 193.699,-138.42"/>
</g>
<!-- Node5&#45;&gt;Node3 -->
<g id="edge5" class="edge"><title>Node5&#45;&gt;Node3</title>
<path fill="none" stroke="midnightblue" d="M114.5,-56.083C114.5,-49.0059 114.5,-38.8611 114.5,-29.9865"/>
<polygon fill="midnightblue" stroke="midnightblue" points="118,-29.751 114.5,-19.7511 111,-29.7511 118,-29.751"/>
</g>
<!-- Node6&#45;&gt;Node3 -->
<g id="edge7" class="edge"><title>Node6&#45;&gt;Node3</title>
<path fill="none" stroke="midnightblue" d="M223.127,-112.408C222.115,-98.9191 218.366,-72.6045 204.5,-56 190.642,-39.4056 169.15,-28.339 150.643,-21.3337"/>
<polygon fill="midnightblue" stroke="midnightblue" points="151.61,-17.9637 141.015,-17.9417 149.284,-24.5659 151.61,-17.9637"/>
</g>
<!-- Node6&#45;&gt;Node5 -->
<g id="edge8" class="edge"><title>Node6&#45;&gt;Node5</title>
<path fill="none" stroke="midnightblue" d="M205.987,-112.324C188.428,-103.625 161.169,-90.1202 140.969,-80.113"/>
<polygon fill="midnightblue" stroke="midnightblue" points="142.484,-76.9575 131.969,-75.6545 139.376,-83.23 142.484,-76.9575"/>
</g>
</g>
</svg>
