<?xml version="1.0" encoding="UTF-8" standalone="no"?>
<!DOCTYPE svg PUBLIC "-//W3C//DTD SVG 1.1//EN"
 "http://www.w3.org/Graphics/SVG/1.1/DTD/svg11.dtd">
<!-- Generated by graphviz version 2.38.0 (20140413.2041)
 -->
<!-- Title: Physics/Dynamics/FormFactor.hpp Pages: 1 -->
<!--zoomable 263 -->
<svg id="main" version="1.1" xmlns="http://www.w3.org/2000/svg" xmlns:xlink="http://www.w3.org/1999/xlink" xml:space="preserve" onload="init(evt)">
<style type="text/css"><![CDATA[
.edge:hover path { stroke: red; }
.edge:hover polygon { stroke: red; fill: red; }
]]></style>
<script type="text/javascript"><![CDATA[
var edges = document.getElementsByTagName('g');
if (edges && edges.length) {
  for (var i=0;i<edges.length;i++) {
    if (edges[i].id.substr(0,4)=='edge') {
      edges[i].setAttribute('class','edge');
    }
  }
}
]]></script>
        <defs>
                <circle id="rim" cx="0" cy="0" r="7"/>
                <circle id="rim2" cx="0" cy="0" r="3.5"/>
                <g id="zoomPlus">
                        <use xlink:href="#rim" fill="#404040">
                                <set attributeName="fill" to="#808080" begin="zoomplus.mouseover" end="zoomplus.mouseout"/>
                        </use>
                        <path d="M-4,0h8M0,-4v8" fill="none" stroke="white" stroke-width="1.5" pointer-events="none"/>
                </g>
                <g id="zoomMin">
                        <use xlink:href="#rim" fill="#404040">
                                <set attributeName="fill" to="#808080" begin="zoomminus.mouseover" end="zoomminus.mouseout"/>
                        </use>
                        <path d="M-4,0h8" fill="none" stroke="white" stroke-width="1.5" pointer-events="none"/>
                </g>
                <g id="dirArrow">
                        <path fill="none" stroke="white" stroke-width="1.5" d="M0,-3.0v7 M-2.5,-0.5L0,-3.0L2.5,-0.5"/>
                </g>
               <g id="resetDef">
                       <use xlink:href="#rim2" fill="#404040">
                               <set attributeName="fill" to="#808080" begin="reset.mouseover" end="reset.mouseout"/>
                       </use>
               </g>
        </defs>

<script type="text/javascript">
var viewWidth = 594;
var viewHeight = 263;
var sectionId = 'dynsection-1';
</script>
<script xlink:href="svgpan.js"/>
<svg id="graph" class="graph">
<g id="viewport">
<title>Physics/Dynamics/FormFactor.hpp</title>
<polygon fill="white" stroke="none" points="-4,4 -4,-259 589.5,-259 589.5,4 -4,4"/>
<!-- Node1 -->
<g id="node1" class="node"><title>Node1</title>
<polygon fill="#bfbfbf" stroke="black" points="201.5,-235.5 201.5,-254.5 372.5,-254.5 372.5,-235.5 201.5,-235.5"/>
<text text-anchor="middle" x="287" y="-242.5" font-family="Helvetica,sans-Serif" font-size="10.00">Physics/Dynamics/FormFactor.hpp</text>
</g>
<!-- Node2 -->
<g id="node2" class="node"><title>Node2</title>
<g id="a_node2"><a xlink:href="Coupling_8hpp.html" target="_top" xlink:title="Physics/Dynamics/Coupling.hpp">
<polygon fill="white" stroke="black" points="81.5,-179.5 81.5,-198.5 240.5,-198.5 240.5,-179.5 81.5,-179.5"/>
<text text-anchor="middle" x="161" y="-186.5" font-family="Helvetica,sans-Serif" font-size="10.00">Physics/Dynamics/Coupling.hpp</text>
</a>
</g>
</g>
<!-- Node1&#45;&gt;Node2 -->
<g id="edge1" class="edge"><title>Node1&#45;&gt;Node2</title>
<path fill="none" stroke="midnightblue" d="M257.84,-231.503C234.219,-221.38 201.572,-207.388 180.872,-198.516"/>
<polygon fill="midnightblue" stroke="midnightblue" points="256.465,-234.721 267.035,-235.444 259.222,-228.287 256.465,-234.721"/>
</g>
<!-- Node3 -->
<g id="node3" class="node"><title>Node3</title>
<g id="a_node3"><a xlink:href="Flatte_8hpp.html" target="_top" xlink:title="Physics/Dynamics/Flatte.hpp">
<polygon fill="white" stroke="red" points="0,-56.5 0,-75.5 146,-75.5 146,-56.5 0,-56.5"/>
<text text-anchor="middle" x="73" y="-63.5" font-family="Helvetica,sans-Serif" font-size="10.00">Physics/Dynamics/Flatte.hpp</text>
</a>
</g>
</g>
<!-- Node1&#45;&gt;Node3 -->
<g id="edge9" class="edge"><title>Node1&#45;&gt;Node3</title>
<path fill="none" stroke="midnightblue" d="M191.553,-235.774C141.507,-229.27 87.4417,-218.008 72,-199 42.0884,-162.18 61.2033,-98.6 69.6166,-75.6098"/>
<polygon fill="midnightblue" stroke="midnightblue" points="191.141,-239.25 201.496,-237.012 192.006,-232.303 191.141,-239.25"/>
</g>
<!-- Node4 -->
<g id="node4" class="node"><title>Node4</title>
<g id="a_node4"><a xlink:href="BuilderXML_8cpp.html" target="_top" xlink:title="Physics/BuilderXML.cpp">
<polygon fill="white" stroke="black" points="165,-0.5 165,-19.5 289,-19.5 289,-0.5 165,-0.5"/>
<text text-anchor="middle" x="227" y="-7.5" font-family="Helvetica,sans-Serif" font-size="10.00">Physics/BuilderXML.cpp</text>
</a>
</g>
</g>
<!-- Node1&#45;&gt;Node4 -->
<g id="edge11" class="edge"><title>Node1&#45;&gt;Node4</title>
<path fill="none" stroke="midnightblue" d="M303.769,-228.222C337.807,-194.276 408.396,-112.788 367,-56 349.179,-31.5526 317.859,-20.0961 289.355,-14.8421"/>
<polygon fill="midnightblue" stroke="midnightblue" points="301.087,-225.949 296.364,-235.433 305.97,-230.964 301.087,-225.949"/>
</g>
<!-- Node5 -->
<g id="node5" class="node"><title>Node5</title>
<g id="a_node5"><a xlink:href="RelativisticBreitWigner_8hpp.html" target="_top" xlink:title="Physics/Dynamics/Relativistic\lBreitWigner.hpp">
<polygon fill="white" stroke="red" points="120.5,-112.5 120.5,-142.5 271.5,-142.5 271.5,-112.5 120.5,-112.5"/>
<text text-anchor="start" x="128.5" y="-130.5" font-family="Helvetica,sans-Serif" font-size="10.00">Physics/Dynamics/Relativistic</text>
<text text-anchor="middle" x="196" y="-119.5" font-family="Helvetica,sans-Serif" font-size="10.00">BreitWigner.hpp</text>
</a>
</g>
</g>
<!-- Node1&#45;&gt;Node5 -->
<g id="edge10" class="edge"><title>Node1&#45;&gt;Node5</title>
<path fill="none" stroke="midnightblue" d="M278.168,-225.88C271.16,-212.337 260.633,-193.705 249,-179 238.434,-165.643 224.408,-152.433 213.439,-142.876"/>
<polygon fill="midnightblue" stroke="midnightblue" points="275.182,-227.732 282.801,-235.094 281.436,-224.588 275.182,-227.732"/>
</g>
<!-- Node6 -->
<g id="node6" class="node"><title>Node6</title>
<g id="a_node6"><a xlink:href="Voigtian_8hpp.html" target="_top" xlink:title="This file contains the declaration of the Voigtian class, which is used the implementation of voigt f...">
<polygon fill="white" stroke="red" points="202,-56.5 202,-75.5 358,-75.5 358,-56.5 202,-56.5"/>
<text text-anchor="middle" x="280" y="-63.5" font-family="Helvetica,sans-Serif" font-size="10.00">Physics/Dynamics/Voigtian.hpp</text>
</a>
</g>
</g>
<!-- Node1&#45;&gt;Node6 -->
<g id="edge12" class="edge"><title>Node1&#45;&gt;Node6</title>
<path fill="none" stroke="midnightblue" d="M286.263,-225.352C284.769,-187.597 281.438,-103.365 280.351,-75.8684"/>
<polygon fill="midnightblue" stroke="midnightblue" points="282.77,-225.609 286.662,-235.463 289.764,-225.332 282.77,-225.609"/>
</g>
<!-- Node7 -->
<g id="node7" class="node"><title>Node7</title>
<g id="a_node7"><a xlink:href="FormFactor_8cpp.html" target="_top" xlink:title="Physics/Dynamics/FormFactor.cpp">
<polygon fill="white" stroke="black" points="414.5,-179.5 414.5,-198.5 585.5,-198.5 585.5,-179.5 414.5,-179.5"/>
<text text-anchor="middle" x="500" y="-186.5" font-family="Helvetica,sans-Serif" font-size="10.00">Physics/Dynamics/FormFactor.cpp</text>
</a>
</g>
</g>
<!-- Node1&#45;&gt;Node7 -->
<g id="edge13" class="edge"><title>Node1&#45;&gt;Node7</title>
<path fill="none" stroke="midnightblue" d="M330.551,-232.959C370.781,-222.76 429.703,-207.822 466.407,-198.516"/>
<polygon fill="midnightblue" stroke="midnightblue" points="329.584,-229.593 320.75,-235.444 331.304,-236.379 329.584,-229.593"/>
</g>
<!-- Node2&#45;&gt;Node3 -->
<g id="edge2" class="edge"><title>Node2&#45;&gt;Node3</title>
<path fill="none" stroke="midnightblue" d="M141.009,-172.966C131.133,-164.85 119.537,-154.211 111,-143 94.1981,-120.936 81.5803,-90.2909 76.0626,-75.5678"/>
<polygon fill="midnightblue" stroke="midnightblue" points="139.114,-175.93 149.125,-179.4 143.463,-170.445 139.114,-175.93"/>
</g>
<!-- Node2&#45;&gt;Node5 -->
<g id="edge4" class="edge"><title>Node2&#45;&gt;Node5</title>
<path fill="none" stroke="midnightblue" d="M171.189,-170.678C176.455,-161.727 182.797,-150.945 187.751,-142.523"/>
<polygon fill="midnightblue" stroke="midnightblue" points="168.068,-169.081 166.015,-179.475 174.102,-172.63 168.068,-169.081"/>
</g>
<!-- Node3&#45;&gt;Node4 -->
<g id="edge3" class="edge"><title>Node3&#45;&gt;Node4</title>
<path fill="none" stroke="midnightblue" d="M107.111,-53.0392C136.087,-42.8786 176.962,-28.5457 202.712,-19.5164"/>
<polygon fill="midnightblue" stroke="midnightblue" points="105.68,-49.8317 97.4018,-56.4435 107.997,-56.4373 105.68,-49.8317"/>
</g>
<!-- Node5&#45;&gt;Node3 -->
<g id="edge5" class="edge"><title>Node5&#45;&gt;Node3</title>
<path fill="none" stroke="midnightblue" d="M157.632,-107.94C135.346,-97.1595 108.317,-84.0843 90.8976,-75.6578"/>
<polygon fill="midnightblue" stroke="midnightblue" points="156.325,-111.195 166.851,-112.399 159.373,-104.894 156.325,-111.195"/>
</g>
<!-- Node5&#45;&gt;Node4 -->
<g id="edge6" class="edge"><title>Node5&#45;&gt;Node4</title>
<path fill="none" stroke="midnightblue" d="M190.716,-102.087C188.754,-88.2279 188.052,-70.7557 193,-56 197.856,-41.5174 209.419,-27.9752 217.712,-19.6053"/>
<polygon fill="midnightblue" stroke="midnightblue" points="187.33,-103.045 192.477,-112.306 194.228,-101.856 187.33,-103.045"/>
</g>
<!-- Node5&#45;&gt;Node6 -->
<g id="edge7" class="edge"><title>Node5&#45;&gt;Node6</title>
<path fill="none" stroke="midnightblue" d="M224.259,-106.483C239.057,-96.0013 256.412,-83.7081 267.777,-75.6578"/>
<polygon fill="midnightblue" stroke="midnightblue" points="222.044,-103.763 215.907,-112.399 226.09,-109.475 222.044,-103.763"/>
</g>
<!-- Node6&#45;&gt;Node4 -->
<g id="edge8" class="edge"><title>Node6&#45;&gt;Node4</title>
<path fill="none" stroke="midnightblue" d="M264.019,-48.7175C254.678,-39.1997 243.254,-27.5608 235.589,-19.7511"/>
<polygon fill="midnightblue" stroke="midnightblue" points="261.746,-51.3978 271.248,-56.083 266.741,-46.4945 261.746,-51.3978"/>
</g>
</g>
</svg>
        <g id="navigator" transform="translate(0 0)" fill="#404254">
                <rect fill="#f2f5e9" fill-opacity="0.5" stroke="#606060" stroke-width=".5" x="0" y="0" width="60" height="60"/>
                <use id="zoomplus" xlink:href="#zoomPlus" x="17" y="9" onmousedown="handleZoom(evt,'in')"/>
                <use id="zoomminus" xlink:href="#zoomMin" x="42" y="9" onmousedown="handleZoom(evt,'out')"/>
                <use id="reset" xlink:href="#resetDef" x="30" y="36" onmousedown="handleReset()"/>
                <g id="arrowUp" xlink:href="#dirArrow" transform="translate(30 24)" onmousedown="handlePan(0,-1)">
                  <use xlink:href="#rim" fill="#404040">
                        <set attributeName="fill" to="#808080" begin="arrowUp.mouseover" end="arrowUp.mouseout"/>
                  </use>
                  <path fill="none" stroke="white" stroke-width="1.5" d="M0,-3.0v7 M-2.5,-0.5L0,-3.0L2.5,-0.5"/>
                </g>
                <g id="arrowRight" xlink:href="#dirArrow" transform="rotate(90) translate(36 -43)" onmousedown="handlePan(1,0)">
                  <use xlink:href="#rim" fill="#404040">
                        <set attributeName="fill" to="#808080" begin="arrowRight.mouseover" end="arrowRight.mouseout"/>
                  </use>
                  <path fill="none" stroke="white" stroke-width="1.5" d="M0,-3.0v7 M-2.5,-0.5L0,-3.0L2.5,-0.5"/>
                </g>
                <g id="arrowDown" xlink:href="#dirArrow" transform="rotate(180) translate(-30 -48)" onmousedown="handlePan(0,1)">
                  <use xlink:href="#rim" fill="#404040">
                        <set attributeName="fill" to="#808080" begin="arrowDown.mouseover" end="arrowDown.mouseout"/>
                  </use>
                  <path fill="none" stroke="white" stroke-width="1.5" d="M0,-3.0v7 M-2.5,-0.5L0,-3.0L2.5,-0.5"/>
                </g>
                <g id="arrowLeft" xlink:href="#dirArrow" transform="rotate(270) translate(-36 17)" onmousedown="handlePan(-1,0)">
                  <use xlink:href="#rim" fill="#404040">
                        <set attributeName="fill" to="#808080" begin="arrowLeft.mouseover" end="arrowLeft.mouseout"/>
                  </use>
                  <path fill="none" stroke="white" stroke-width="1.5" d="M0,-3.0v7 M-2.5,-0.5L0,-3.0L2.5,-0.5"/>
                </g>
        </g>
        <svg viewBox="0 0 15 15" width="100%" height="30px" preserveAspectRatio="xMaxYMin meet">
         <g id="arrow_out" transform="scale(0.3 0.3)">
          <a xlink:href="FormFactor_8hpp__dep__incl_org.svg" target="_base">
           <rect id="button" ry="5" rx="5" y="6" x="6" height="38" width="38"
                fill="#f2f5e9" fill-opacity="0.5" stroke="#606060" stroke-width="1.0"/>
           <path id="arrow"
             d="M 11.500037,31.436501 C 11.940474,20.09759 22.043105,11.32322 32.158766,21.979434 L 37.068811,17.246167 C 37.068811,17.246167 37.088388,32 37.088388,32 L 22.160133,31.978069 C 22.160133,31.978069 26.997745,27.140456 26.997745,27.140456 C 18.528582,18.264221 13.291696,25.230495 11.500037,31.436501 z"
             style="fill:#404040;"/>
          </a>
         </g>
        </svg>
</svg>
