<?xml version="1.0" encoding="UTF-8" standalone="no"?>
<!DOCTYPE svg PUBLIC "-//W3C//DTD SVG 1.1//EN"
 "http://www.w3.org/Graphics/SVG/1.1/DTD/svg11.dtd">
<!-- Generated by graphviz version 2.38.0 (20140413.2041)
 -->
<!-- Title: Physics/Dynamics/FormFactor.hpp Pages: 1 -->
<!--zoomable 375 -->
<svg id="main" version="1.1" xmlns="http://www.w3.org/2000/svg" xmlns:xlink="http://www.w3.org/1999/xlink" xml:space="preserve" onload="init(evt)">
<style type="text/css"><![CDATA[
.edge:hover path { stroke: red; }
.edge:hover polygon { stroke: red; fill: red; }
]]></style>
<script type="text/javascript"><![CDATA[
var edges = document.getElementsByTagName('g');
if (edges && edges.length) {
  for (var i=0;i<edges.length;i++) {
    if (edges[i].id.substr(0,4)=='edge') {
      edges[i].setAttribute('class','edge');
    }
  }
}
]]></script>
        <defs>
                <circle id="rim" cx="0" cy="0" r="7"/>
                <circle id="rim2" cx="0" cy="0" r="3.5"/>
                <g id="zoomPlus">
                        <use xlink:href="#rim" fill="#404040">
                                <set attributeName="fill" to="#808080" begin="zoomplus.mouseover" end="zoomplus.mouseout"/>
                        </use>
                        <path d="M-4,0h8M0,-4v8" fill="none" stroke="white" stroke-width="1.5" pointer-events="none"/>
                </g>
                <g id="zoomMin">
                        <use xlink:href="#rim" fill="#404040">
                                <set attributeName="fill" to="#808080" begin="zoomminus.mouseover" end="zoomminus.mouseout"/>
                        </use>
                        <path d="M-4,0h8" fill="none" stroke="white" stroke-width="1.5" pointer-events="none"/>
                </g>
                <g id="dirArrow">
                        <path fill="none" stroke="white" stroke-width="1.5" d="M0,-3.0v7 M-2.5,-0.5L0,-3.0L2.5,-0.5"/>
                </g>
               <g id="resetDef">
                       <use xlink:href="#rim2" fill="#404040">
                               <set attributeName="fill" to="#808080" begin="reset.mouseover" end="reset.mouseout"/>
                       </use>
               </g>
        </defs>

<script type="text/javascript">
var viewWidth = 627;
var viewHeight = 375;
var sectionId = 'dynsection-0';
</script>
<script xlink:href="svgpan.js"/>
<svg id="graph" class="graph">
<g id="viewport">
<title>Physics/Dynamics/FormFactor.hpp</title>
<polygon fill="white" stroke="none" points="-4,4 -4,-371 623,-371 623,4 -4,4"/>
<!-- Node1 -->
<g id="node1" class="node"><title>Node1</title>
<polygon fill="#bfbfbf" stroke="black" points="0.5,-347.5 0.5,-366.5 171.5,-366.5 171.5,-347.5 0.5,-347.5"/>
<text text-anchor="middle" x="86" y="-354.5" font-family="Helvetica,sans-Serif" font-size="10.00">Physics/Dynamics/FormFactor.hpp</text>
</g>
<!-- Node2 -->
<g id="node2" class="node"><title>Node2</title>
<polygon fill="white" stroke="#bfbfbf" points="68.5,-56.5 68.5,-75.5 121.5,-75.5 121.5,-56.5 68.5,-56.5"/>
<text text-anchor="middle" x="95" y="-63.5" font-family="Helvetica,sans-Serif" font-size="10.00">complex</text>
</g>
<!-- Node1&#45;&gt;Node2 -->
<g id="edge1" class="edge"><title>Node1&#45;&gt;Node2</title>
<path fill="none" stroke="midnightblue" d="M79.3258,-347.435C66.1367,-329.623 38,-286.839 38,-246 38,-246 38,-246 38,-182.5 38,-143.783 64.0743,-104.604 80.9524,-83.2979"/>
<polygon fill="midnightblue" stroke="midnightblue" points="83.6683,-85.5057 87.3127,-75.5574 78.2599,-81.0616 83.6683,-85.5057"/>
</g>
<!-- Node3 -->
<g id="node3" class="node"><title>Node3</title>
<polygon fill="white" stroke="#bfbfbf" points="149.5,-0.5 149.5,-19.5 208.5,-19.5 208.5,-0.5 149.5,-0.5"/>
<text text-anchor="middle" x="179" y="-7.5" font-family="Helvetica,sans-Serif" font-size="10.00">exception</text>
</g>
<!-- Node1&#45;&gt;Node3 -->
<g id="edge2" class="edge"><title>Node1&#45;&gt;Node3</title>
<path fill="none" stroke="midnightblue" d="M72.1826,-347.281C47.8724,-330.744 0,-292.3 0,-246 0,-246 0,-246 0,-121 0,-56.0284 86.6608,-28.2161 139.385,-17.3075"/>
<polygon fill="midnightblue" stroke="midnightblue" points="140.297,-20.6956 149.442,-15.3451 138.957,-13.8252 140.297,-20.6956"/>
</g>
<!-- Node4 -->
<g id="node4" class="node"><title>Node4</title>
<g id="a_node4"><a xlink:href="Functions_8hpp.html" target="_top" xlink:title="This file contains Functions implementing the Strategy interface so they can be used inside a node of...">
<polygon fill="white" stroke="black" points="111,-235.5 111,-254.5 273,-254.5 273,-235.5 111,-235.5"/>
<text text-anchor="middle" x="192" y="-242.5" font-family="Helvetica,sans-Serif" font-size="10.00">Core/FunctionTree/Functions.hpp</text>
</a>
</g>
</g>
<!-- Node1&#45;&gt;Node4 -->
<g id="edge3" class="edge"><title>Node1&#45;&gt;Node4</title>
<path fill="none" stroke="midnightblue" d="M94.3176,-347.368C112.043,-328.974 153.771,-285.671 176.532,-262.052"/>
<polygon fill="midnightblue" stroke="midnightblue" points="179.302,-264.221 183.721,-254.591 174.262,-259.364 179.302,-264.221"/>
</g>
<!-- Node12 -->
<g id="node12" class="node"><title>Node12</title>
<g id="a_node12"><a xlink:href="TreeNode_8hpp.html" target="_top" xlink:title="TreeNode class. ">
<polygon fill="white" stroke="black" points="297,-291.5 297,-310.5 459,-310.5 459,-291.5 297,-291.5"/>
<text text-anchor="middle" x="378" y="-298.5" font-family="Helvetica,sans-Serif" font-size="10.00">Core/FunctionTree/TreeNode.hpp</text>
</a>
</g>
</g>
<!-- Node1&#45;&gt;Node12 -->
<g id="edge20" class="edge"><title>Node1&#45;&gt;Node12</title>
<path fill="none" stroke="midnightblue" d="M132.268,-347.444C183.741,-337.925 266.893,-322.547 321.999,-312.356"/>
<polygon fill="midnightblue" stroke="midnightblue" points="322.751,-315.777 331.948,-310.516 321.478,-308.893 322.751,-315.777"/>
</g>
<!-- Node4&#45;&gt;Node2 -->
<g id="edge4" class="edge"><title>Node4&#45;&gt;Node2</title>
<path fill="none" stroke="midnightblue" d="M175.641,-235.448C162.288,-227.659 143.907,-214.951 133,-199 108.855,-163.689 99.8899,-113.055 96.6859,-85.9079"/>
<polygon fill="midnightblue" stroke="midnightblue" points="100.153,-85.409 95.6381,-75.8243 93.1905,-86.1325 100.153,-85.409"/>
</g>
<!-- Node5 -->
<g id="node5" class="node"><title>Node5</title>
<polygon fill="white" stroke="#bfbfbf" points="142.5,-174 142.5,-193 189.5,-193 189.5,-174 142.5,-174"/>
<text text-anchor="middle" x="166" y="-181" font-family="Helvetica,sans-Serif" font-size="10.00">math.h</text>
</g>
<!-- Node4&#45;&gt;Node5 -->
<g id="edge5" class="edge"><title>Node4&#45;&gt;Node5</title>
<path fill="none" stroke="midnightblue" d="M188.275,-235.475C184.529,-226.904 178.64,-213.427 173.858,-202.483"/>
<polygon fill="midnightblue" stroke="midnightblue" points="176.93,-200.771 169.718,-193.009 170.515,-203.574 176.93,-200.771"/>
</g>
<!-- Node6 -->
<g id="node6" class="node"><title>Node6</title>
<polygon fill="white" stroke="#bfbfbf" points="207,-112.5 207,-131.5 251,-131.5 251,-112.5 207,-112.5"/>
<text text-anchor="middle" x="229" y="-119.5" font-family="Helvetica,sans-Serif" font-size="10.00">vector</text>
</g>
<!-- Node4&#45;&gt;Node6 -->
<g id="edge6" class="edge"><title>Node4&#45;&gt;Node6</title>
<path fill="none" stroke="midnightblue" d="M203.266,-235.427C212.966,-227.275 226.279,-214.046 232,-199 239.024,-180.526 236.809,-157.676 233.758,-141.881"/>
<polygon fill="midnightblue" stroke="midnightblue" points="237.1,-140.789 231.508,-131.79 230.268,-142.312 237.1,-140.789"/>
</g>
<!-- Node7 -->
<g id="node7" class="node"><title>Node7</title>
<g id="a_node7"><a xlink:href="Exceptions_8hpp.html" target="_top" xlink:title="ComPWA exceptions. ">
<polygon fill="white" stroke="black" points="303,-56.5 303,-75.5 411,-75.5 411,-56.5 303,-56.5"/>
<text text-anchor="middle" x="357" y="-63.5" font-family="Helvetica,sans-Serif" font-size="10.00">Core/Exceptions.hpp</text>
</a>
</g>
</g>
<!-- Node4&#45;&gt;Node7 -->
<g id="edge7" class="edge"><title>Node4&#45;&gt;Node7</title>
<path fill="none" stroke="midnightblue" d="M193.491,-235.407C194.976,-226.376 197.154,-211.74 198,-199 198,-199 198,-112 198,-112 209.755,-96.4565 253.814,-84.7369 292.58,-77.1603"/>
<polygon fill="midnightblue" stroke="midnightblue" points="293.641,-80.522 302.818,-75.2286 292.343,-73.6433 293.641,-80.522"/>
</g>
<!-- Node9 -->
<g id="node9" class="node"><title>Node9</title>
<g id="a_node9"><a xlink:href="FunctionTree_2FitParameter_8hpp.html" target="_top" xlink:title="Implementations of Parameter for various data types. ">
<polygon fill="white" stroke="red" points="269,-112.5 269,-131.5 445,-131.5 445,-112.5 269,-112.5"/>
<text text-anchor="middle" x="357" y="-119.5" font-family="Helvetica,sans-Serif" font-size="10.00">Core/FunctionTree/FitParameter.hpp</text>
</a>
</g>
</g>
<!-- Node4&#45;&gt;Node9 -->
<g id="edge10" class="edge"><title>Node4&#45;&gt;Node9</title>
<path fill="none" stroke="midnightblue" d="M203.602,-235.492C231.345,-215.147 301.803,-163.478 336.732,-137.863"/>
<polygon fill="midnightblue" stroke="midnightblue" points="339.195,-140.397 345.189,-131.661 335.056,-134.752 339.195,-140.397"/>
</g>
<!-- Node10 -->
<g id="node10" class="node"><title>Node10</title>
<g id="a_node10"><a xlink:href="ParameterList_8hpp.html" target="_top" xlink:title="ParameterList class. ">
<polygon fill="white" stroke="red" points="391,-168.5 391,-198.5 537,-198.5 537,-168.5 391,-168.5"/>
<text text-anchor="start" x="399" y="-186.5" font-family="Helvetica,sans-Serif" font-size="10.00">Core/FunctionTree/Parameter</text>
<text text-anchor="middle" x="464" y="-175.5" font-family="Helvetica,sans-Serif" font-size="10.00">List.hpp</text>
</a>
</g>
</g>
<!-- Node4&#45;&gt;Node10 -->
<g id="edge14" class="edge"><title>Node4&#45;&gt;Node10</title>
<path fill="none" stroke="midnightblue" d="M230.971,-235.475C272.285,-226.438 338.527,-211.947 389.843,-200.722"/>
<polygon fill="midnightblue" stroke="midnightblue" points="390.874,-204.079 399.895,-198.523 389.378,-197.241 390.874,-204.079"/>
</g>
<!-- Node7&#45;&gt;Node3 -->
<g id="edge8" class="edge"><title>Node7&#45;&gt;Node3</title>
<path fill="none" stroke="midnightblue" d="M328.795,-56.4435C298.59,-47.2801 250.489,-32.6876 216.971,-22.5192"/>
<polygon fill="midnightblue" stroke="midnightblue" points="217.658,-19.0703 207.073,-19.5164 215.626,-25.7688 217.658,-19.0703"/>
</g>
<!-- Node8 -->
<g id="node8" class="node"><title>Node8</title>
<polygon fill="white" stroke="#bfbfbf" points="462.5,-0.5 462.5,-19.5 503.5,-19.5 503.5,-0.5 462.5,-0.5"/>
<text text-anchor="middle" x="483" y="-7.5" font-family="Helvetica,sans-Serif" font-size="10.00">string</text>
</g>
<!-- Node7&#45;&gt;Node8 -->
<g id="edge9" class="edge"><title>Node7&#45;&gt;Node8</title>
<path fill="none" stroke="midnightblue" d="M376.965,-56.4435C397.609,-47.5961 430.063,-33.6875 453.632,-23.5865"/>
<polygon fill="midnightblue" stroke="midnightblue" points="455.316,-26.6727 463.128,-19.5164 452.558,-20.2387 455.316,-26.6727"/>
</g>
<!-- Node9&#45;&gt;Node2 -->
<g id="edge11" class="edge"><title>Node9&#45;&gt;Node2</title>
<path fill="none" stroke="midnightblue" d="M315.485,-112.444C264.806,-101.998 179.901,-84.4986 131.576,-74.5385"/>
<polygon fill="midnightblue" stroke="midnightblue" points="132.058,-71.0644 121.557,-72.4736 130.645,-77.9203 132.058,-71.0644"/>
</g>
<!-- Node9&#45;&gt;Node7 -->
<g id="edge13" class="edge"><title>Node9&#45;&gt;Node7</title>
<path fill="none" stroke="midnightblue" d="M357,-112.083C357,-105.006 357,-94.8611 357,-85.9865"/>
<polygon fill="midnightblue" stroke="midnightblue" points="360.5,-85.751 357,-75.7511 353.5,-85.7511 360.5,-85.751"/>
</g>
<!-- Node9&#45;&gt;Node8 -->
<g id="edge12" class="edge"><title>Node9&#45;&gt;Node8</title>
<path fill="none" stroke="midnightblue" d="M370.552,-112.356C383.678,-103.748 403.903,-89.8532 420,-76 437.756,-60.719 456.194,-41.1956 468.5,-27.5512"/>
<polygon fill="midnightblue" stroke="midnightblue" points="471.271,-29.7015 475.308,-19.9059 466.044,-25.046 471.271,-29.7015"/>
</g>
<!-- Node10&#45;&gt;Node6 -->
<g id="edge17" class="edge"><title>Node10&#45;&gt;Node6</title>
<path fill="none" stroke="midnightblue" d="M404.477,-168.428C366.013,-159.181 314.661,-146.552 261.008,-132.199"/>
<polygon fill="midnightblue" stroke="midnightblue" points="261.887,-128.811 251.321,-129.596 260.07,-135.571 261.887,-128.811"/>
</g>
<!-- Node10&#45;&gt;Node7 -->
<g id="edge18" class="edge"><title>Node10&#45;&gt;Node7</title>
<path fill="none" stroke="midnightblue" d="M465.717,-168.317C466.799,-152.93 466.159,-128.377 454,-112 442.328,-96.2798 423.81,-85.8747 406.067,-79.0733"/>
<polygon fill="midnightblue" stroke="midnightblue" points="406.933,-75.6679 396.338,-75.6547 404.612,-82.272 406.933,-75.6679"/>
</g>
<!-- Node10&#45;&gt;Node8 -->
<g id="edge16" class="edge"><title>Node10&#45;&gt;Node8</title>
<path fill="none" stroke="midnightblue" d="M466.878,-168.406C468.85,-158.308 471.391,-144.363 473,-132 477.699,-95.8945 480.609,-53.4242 482.006,-29.6163"/>
<polygon fill="midnightblue" stroke="midnightblue" points="485.505,-29.7179 482.571,-19.5377 478.516,-29.3261 485.505,-29.7179"/>
</g>
<!-- Node10&#45;&gt;Node9 -->
<g id="edge19" class="edge"><title>Node10&#45;&gt;Node9</title>
<path fill="none" stroke="midnightblue" d="M438.642,-168.399C421.331,-158.773 398.524,-146.09 381.416,-136.577"/>
<polygon fill="midnightblue" stroke="midnightblue" points="383.01,-133.459 372.569,-131.658 379.608,-139.577 383.01,-133.459"/>
</g>
<!-- Node11 -->
<g id="node11" class="node"><title>Node11</title>
<polygon fill="white" stroke="#bfbfbf" points="539,-112.5 539,-131.5 591,-131.5 591,-112.5 539,-112.5"/>
<text text-anchor="middle" x="565" y="-119.5" font-family="Helvetica,sans-Serif" font-size="10.00">memory</text>
</g>
<!-- Node10&#45;&gt;Node11 -->
<g id="edge15" class="edge"><title>Node10&#45;&gt;Node11</title>
<path fill="none" stroke="midnightblue" d="M487.936,-168.399C504.125,-158.862 525.407,-146.325 541.503,-136.842"/>
<polygon fill="midnightblue" stroke="midnightblue" points="543.464,-139.749 550.304,-131.658 539.911,-133.718 543.464,-139.749"/>
</g>
<!-- Node12&#45;&gt;Node2 -->
<g id="edge21" class="edge"><title>Node12&#45;&gt;Node2</title>
<path fill="none" stroke="midnightblue" d="M296.722,-297.798C224.691,-293.957 127.141,-283.481 102,-255 59.8848,-207.29 77.8231,-123.299 88.7971,-85.8926"/>
<polygon fill="midnightblue" stroke="midnightblue" points="92.2859,-86.4589 91.9051,-75.8709 85.6,-84.3854 92.2859,-86.4589"/>
</g>
<!-- Node12&#45;&gt;Node4 -->
<g id="edge24" class="edge"><title>Node12&#45;&gt;Node4</title>
<path fill="none" stroke="midnightblue" d="M348.528,-291.444C316.829,-282.241 266.268,-267.562 231.225,-257.388"/>
<polygon fill="midnightblue" stroke="midnightblue" points="231.914,-253.943 221.334,-254.516 229.962,-260.666 231.914,-253.943"/>
</g>
<!-- Node12&#45;&gt;Node8 -->
<g id="edge23" class="edge"><title>Node12&#45;&gt;Node8</title>
<path fill="none" stroke="midnightblue" d="M459.256,-294.078C529.221,-284.023 619,-256.996 619,-184.5 619,-184.5 619,-184.5 619,-121 619,-66.9695 553.307,-34.9083 513.236,-20.3774"/>
<polygon fill="midnightblue" stroke="midnightblue" points="514.25,-17.0249 503.655,-17.0581 511.959,-23.6391 514.25,-17.0249"/>
</g>
<!-- Node12&#45;&gt;Node10 -->
<g id="edge26" class="edge"><title>Node12&#45;&gt;Node10</title>
<path fill="none" stroke="midnightblue" d="M419.471,-291.497C439.586,-285.06 461.953,-273.952 474,-255 482.837,-241.098 479.765,-222.568 474.788,-207.994"/>
<polygon fill="midnightblue" stroke="midnightblue" points="478.04,-206.699 471.16,-198.642 471.513,-209.231 478.04,-206.699"/>
</g>
<!-- Node12&#45;&gt;Node11 -->
<g id="edge22" class="edge"><title>Node12&#45;&gt;Node11</title>
<path fill="none" stroke="midnightblue" d="M409.421,-291.363C433.089,-283.968 465.677,-271.834 491,-255 520.052,-235.687 528.949,-229.434 546,-199 556.057,-181.05 560.862,-157.775 563.112,-141.736"/>
<polygon fill="midnightblue" stroke="midnightblue" points="566.621,-141.862 564.336,-131.517 559.671,-141.029 566.621,-141.862"/>
</g>
<!-- Node13 -->
<g id="node13" class="node"><title>Node13</title>
<g id="a_node13"><a xlink:href="ParObserver_8hpp.html" target="_top" xlink:title="ParObserver class. ">
<polygon fill="white" stroke="black" points="291,-235.5 291,-254.5 465,-254.5 465,-235.5 291,-235.5"/>
<text text-anchor="middle" x="378" y="-242.5" font-family="Helvetica,sans-Serif" font-size="10.00">Core/FunctionTree/ParObserver.hpp</text>
</a>
</g>
</g>
<!-- Node12&#45;&gt;Node13 -->
<g id="edge25" class="edge"><title>Node12&#45;&gt;Node13</title>
<path fill="none" stroke="midnightblue" d="M378,-291.083C378,-284.006 378,-273.861 378,-264.986"/>
<polygon fill="midnightblue" stroke="midnightblue" points="381.5,-264.751 378,-254.751 374.5,-264.751 381.5,-264.751"/>
</g>
</g>
</svg>
        <g id="navigator" transform="translate(0 0)" fill="#404254">
                <rect fill="#f2f5e9" fill-opacity="0.5" stroke="#606060" stroke-width=".5" x="0" y="0" width="60" height="60"/>
                <use id="zoomplus" xlink:href="#zoomPlus" x="17" y="9" onmousedown="handleZoom(evt,'in')"/>
                <use id="zoomminus" xlink:href="#zoomMin" x="42" y="9" onmousedown="handleZoom(evt,'out')"/>
                <use id="reset" xlink:href="#resetDef" x="30" y="36" onmousedown="handleReset()"/>
                <g id="arrowUp" xlink:href="#dirArrow" transform="translate(30 24)" onmousedown="handlePan(0,-1)">
                  <use xlink:href="#rim" fill="#404040">
                        <set attributeName="fill" to="#808080" begin="arrowUp.mouseover" end="arrowUp.mouseout"/>
                  </use>
                  <path fill="none" stroke="white" stroke-width="1.5" d="M0,-3.0v7 M-2.5,-0.5L0,-3.0L2.5,-0.5"/>
                </g>
                <g id="arrowRight" xlink:href="#dirArrow" transform="rotate(90) translate(36 -43)" onmousedown="handlePan(1,0)">
                  <use xlink:href="#rim" fill="#404040">
                        <set attributeName="fill" to="#808080" begin="arrowRight.mouseover" end="arrowRight.mouseout"/>
                  </use>
                  <path fill="none" stroke="white" stroke-width="1.5" d="M0,-3.0v7 M-2.5,-0.5L0,-3.0L2.5,-0.5"/>
                </g>
                <g id="arrowDown" xlink:href="#dirArrow" transform="rotate(180) translate(-30 -48)" onmousedown="handlePan(0,1)">
                  <use xlink:href="#rim" fill="#404040">
                        <set attributeName="fill" to="#808080" begin="arrowDown.mouseover" end="arrowDown.mouseout"/>
                  </use>
                  <path fill="none" stroke="white" stroke-width="1.5" d="M0,-3.0v7 M-2.5,-0.5L0,-3.0L2.5,-0.5"/>
                </g>
                <g id="arrowLeft" xlink:href="#dirArrow" transform="rotate(270) translate(-36 17)" onmousedown="handlePan(-1,0)">
                  <use xlink:href="#rim" fill="#404040">
                        <set attributeName="fill" to="#808080" begin="arrowLeft.mouseover" end="arrowLeft.mouseout"/>
                  </use>
                  <path fill="none" stroke="white" stroke-width="1.5" d="M0,-3.0v7 M-2.5,-0.5L0,-3.0L2.5,-0.5"/>
                </g>
        </g>
        <svg viewBox="0 0 15 15" width="100%" height="30px" preserveAspectRatio="xMaxYMin meet">
         <g id="arrow_out" transform="scale(0.3 0.3)">
          <a xlink:href="FormFactor_8hpp__incl_org.svg" target="_base">
           <rect id="button" ry="5" rx="5" y="6" x="6" height="38" width="38"
                fill="#f2f5e9" fill-opacity="0.5" stroke="#606060" stroke-width="1.0"/>
           <path id="arrow"
             d="M 11.500037,31.436501 C 11.940474,20.09759 22.043105,11.32322 32.158766,21.979434 L 37.068811,17.246167 C 37.068811,17.246167 37.088388,32 37.088388,32 L 22.160133,31.978069 C 22.160133,31.978069 26.997745,27.140456 26.997745,27.140456 C 18.528582,18.264221 13.291696,25.230495 11.500037,31.436501 z"
             style="fill:#404040;"/>
          </a>
         </g>
        </svg>
</svg>
