<?xml version="1.0" encoding="UTF-8" standalone="no"?>
<!DOCTYPE svg PUBLIC "-//W3C//DTD SVG 1.1//EN"
 "http://www.w3.org/Graphics/SVG/1.1/DTD/svg11.dtd">
<!-- Generated by graphviz version 2.38.0 (20140413.2041)
 -->
<!-- Title: Core/FunctionTree/Functions.hpp Pages: 1 -->
<svg width="1609pt" height="352pt"
 viewBox="0.00 0.00 1608.62 352.00" xmlns="http://www.w3.org/2000/svg" xmlns:xlink="http://www.w3.org/1999/xlink">
<g id="graph0" class="graph" transform="scale(1 1) rotate(0) translate(4 348)">
<title>Core/FunctionTree/Functions.hpp</title>
<polygon fill="white" stroke="none" points="-4,4 -4,-348 1604.62,-348 1604.62,4 -4,4"/>
<!-- Node1 -->
<g id="node1" class="node"><title>Node1</title>
<polygon fill="#bfbfbf" stroke="black" points="510.121,-324.5 510.121,-343.5 672.121,-343.5 672.121,-324.5 510.121,-324.5"/>
<text text-anchor="middle" x="591.121" y="-331.5" font-family="Helvetica,sans-Serif" font-size="10.00">Core/FunctionTree/Functions.hpp</text>
</g>
<!-- Node2 -->
<g id="node2" class="node"><title>Node2</title>
<polygon fill="white" stroke="#bfbfbf" points="138.621,-6 138.621,-25 191.621,-25 191.621,-6 138.621,-6"/>
<text text-anchor="middle" x="165.121" y="-13" font-family="Helvetica,sans-Serif" font-size="10.00">complex</text>
</g>
<!-- Node1&#45;&gt;Node2 -->
<g id="edge1" class="edge"><title>Node1&#45;&gt;Node2</title>
<path fill="none" stroke="midnightblue" d="M510.013,-332.349C348.293,-328.85 1.12127,-309.36 1.12127,-206.5 1.12127,-206.5 1.12127,-206.5 1.12127,-143 1.12127,-108.183 -3.36382,-92.704 20.1213,-67 22.0668,-64.8707 87.6923,-42.5266 129.98,-28.2822"/>
<polygon fill="midnightblue" stroke="midnightblue" points="131.294,-31.5331 139.656,-25.0271 129.062,-24.8985 131.294,-31.5331"/>
</g>
<!-- Node3 -->
<g id="node3" class="node"><title>Node3</title>
<polygon fill="white" stroke="#bfbfbf" points="1553.62,-263 1553.62,-282 1600.62,-282 1600.62,-263 1553.62,-263"/>
<text text-anchor="middle" x="1577.12" y="-270" font-family="Helvetica,sans-Serif" font-size="10.00">math.h</text>
</g>
<!-- Node1&#45;&gt;Node3 -->
<g id="edge2" class="edge"><title>Node1&#45;&gt;Node3</title>
<path fill="none" stroke="midnightblue" d="M672.211,-332.439C870.299,-330.54 1374.61,-322.373 1539.12,-288 1542.2,-287.356 1545.36,-286.498 1548.48,-285.518"/>
<polygon fill="midnightblue" stroke="midnightblue" points="1549.89,-288.731 1558.15,-282.092 1547.55,-282.133 1549.89,-288.731"/>
</g>
<!-- Node4 -->
<g id="node4" class="node"><title>Node4</title>
<polygon fill="white" stroke="#bfbfbf" points="1377.12,-6 1377.12,-25 1421.12,-25 1421.12,-6 1377.12,-6"/>
<text text-anchor="middle" x="1399.12" y="-13" font-family="Helvetica,sans-Serif" font-size="10.00">vector</text>
</g>
<!-- Node1&#45;&gt;Node4 -->
<g id="edge3" class="edge"><title>Node1&#45;&gt;Node4</title>
<path fill="none" stroke="midnightblue" d="M672.374,-330.478C899.61,-322.353 1525.12,-292.203 1525.12,-206.5 1525.12,-206.5 1525.12,-206.5 1525.12,-143 1525.12,-88.3671 1465.4,-49.0002 1428.19,-29.7747"/>
<polygon fill="midnightblue" stroke="midnightblue" points="1429.32,-26.4296 1418.81,-25.1066 1426.2,-32.6962 1429.32,-26.4296"/>
</g>
<!-- Node5 -->
<g id="node5" class="node"><title>Node5</title>
<g id="a_node5"><a xlink:href="Exceptions_8hpp.html" target="_top" xlink:title="ComPWA exceptions. ">
<polygon fill="white" stroke="black" points="29.1213,-73 29.1213,-92 137.121,-92 137.121,-73 29.1213,-73"/>
<text text-anchor="middle" x="83.1213" y="-80" font-family="Helvetica,sans-Serif" font-size="10.00">Core/Exceptions.hpp</text>
</a>
</g>
</g>
<!-- Node1&#45;&gt;Node5 -->
<g id="edge4" class="edge"><title>Node1&#45;&gt;Node5</title>
<path fill="none" stroke="midnightblue" d="M509.874,-330.653C414.247,-324.095 254.745,-300.884 146.121,-221 106.731,-192.032 91.312,-132.456 85.8324,-102.126"/>
<polygon fill="midnightblue" stroke="midnightblue" points="89.2546,-101.365 84.1898,-92.0588 82.3459,-102.492 89.2546,-101.365"/>
</g>
<!-- Node8 -->
<g id="node8" class="node"><title>Node8</title>
<g id="a_node8"><a xlink:href="FunctionTree_2FitParameter_8hpp.html" target="_top" xlink:title="Implementations of Parameter for various data types. ">
<polygon fill="white" stroke="black" points="445.121,-134.5 445.121,-153.5 621.121,-153.5 621.121,-134.5 445.121,-134.5"/>
<text text-anchor="middle" x="533.121" y="-141.5" font-family="Helvetica,sans-Serif" font-size="10.00">Core/FunctionTree/FitParameter.hpp</text>
</a>
</g>
</g>
<!-- Node1&#45;&gt;Node8 -->
<g id="edge7" class="edge"><title>Node1&#45;&gt;Node8</title>
<path fill="none" stroke="midnightblue" d="M574.79,-324.26C546.712,-308.18 490.183,-270.927 468.121,-221 462.553,-208.398 461.727,-202.204 468.121,-190 475.4,-176.108 489.131,-165.652 502.104,-158.333"/>
<polygon fill="midnightblue" stroke="midnightblue" points="504.05,-161.266 511.313,-153.553 500.825,-155.053 504.05,-161.266"/>
</g>
<!-- Node20 -->
<g id="node20" class="node"><title>Node20</title>
<g id="a_node20"><a xlink:href="ParameterList_8hpp.html" target="_top" xlink:title="ParameterList class. ">
<polygon fill="white" stroke="black" points="944.121,-257.5 944.121,-287.5 1090.12,-287.5 1090.12,-257.5 944.121,-257.5"/>
<text text-anchor="start" x="952.121" y="-275.5" font-family="Helvetica,sans-Serif" font-size="10.00">Core/FunctionTree/Parameter</text>
<text text-anchor="middle" x="1017.12" y="-264.5" font-family="Helvetica,sans-Serif" font-size="10.00">List.hpp</text>
</a>
</g>
</g>
<!-- Node1&#45;&gt;Node20 -->
<g id="edge28" class="edge"><title>Node1&#45;&gt;Node20</title>
<path fill="none" stroke="midnightblue" d="M652.157,-324.475C726.142,-314.141 851.169,-296.679 933.931,-285.119"/>
<polygon fill="midnightblue" stroke="midnightblue" points="934.64,-288.554 944.06,-283.705 933.672,-281.622 934.64,-288.554"/>
</g>
<!-- Node6 -->
<g id="node6" class="node"><title>Node6</title>
<polygon fill="white" stroke="#bfbfbf" points="53.6213,-6 53.6213,-25 112.621,-25 112.621,-6 53.6213,-6"/>
<text text-anchor="middle" x="83.1213" y="-13" font-family="Helvetica,sans-Serif" font-size="10.00">exception</text>
</g>
<!-- Node5&#45;&gt;Node6 -->
<g id="edge5" class="edge"><title>Node5&#45;&gt;Node6</title>
<path fill="none" stroke="midnightblue" d="M83.1213,-72.7338C83.1213,-63.1826 83.1213,-47.6183 83.1213,-35.2829"/>
<polygon fill="midnightblue" stroke="midnightblue" points="86.6214,-35.1273 83.1213,-25.1273 79.6214,-35.1273 86.6214,-35.1273"/>
</g>
<!-- Node7 -->
<g id="node7" class="node"><title>Node7</title>
<polygon fill="white" stroke="#bfbfbf" points="220.621,-6 220.621,-25 261.621,-25 261.621,-6 220.621,-6"/>
<text text-anchor="middle" x="241.121" y="-13" font-family="Helvetica,sans-Serif" font-size="10.00">string</text>
</g>
<!-- Node5&#45;&gt;Node7 -->
<g id="edge6" class="edge"><title>Node5&#45;&gt;Node7</title>
<path fill="none" stroke="midnightblue" d="M104.102,-72.8685C131.522,-61.5881 179.725,-41.7578 211.032,-28.8784"/>
<polygon fill="midnightblue" stroke="midnightblue" points="212.639,-32.002 220.555,-24.9606 209.976,-25.5284 212.639,-32.002"/>
</g>
<!-- Node8&#45;&gt;Node2 -->
<g id="edge9" class="edge"><title>Node8&#45;&gt;Node2</title>
<path fill="none" stroke="midnightblue" d="M444.791,-135.897C371.779,-128.851 274.695,-116.426 240.121,-98 211.814,-82.9138 188.552,-52.8824 175.78,-33.7891"/>
<polygon fill="midnightblue" stroke="midnightblue" points="178.588,-31.6853 170.231,-25.1731 172.703,-35.4755 178.588,-31.6853"/>
</g>
<!-- Node8&#45;&gt;Node5 -->
<g id="edge16" class="edge"><title>Node8&#45;&gt;Node5</title>
<path fill="none" stroke="midnightblue" d="M444.795,-134.943C367.16,-127.302 251.267,-114.539 151.121,-98 144.32,-96.8767 137.169,-95.533 130.163,-94.1231"/>
<polygon fill="midnightblue" stroke="midnightblue" points="130.562,-90.6314 120.059,-92.028 129.14,-97.4856 130.562,-90.6314"/>
</g>
<!-- Node8&#45;&gt;Node7 -->
<g id="edge13" class="edge"><title>Node8&#45;&gt;Node7</title>
<path fill="none" stroke="midnightblue" d="M444.992,-138.909C375.626,-133.842 286.418,-122.625 260.121,-98 243.084,-82.046 239.947,-54.0186 239.975,-35.3548"/>
<polygon fill="midnightblue" stroke="midnightblue" points="243.48,-35.2433 240.305,-25.1356 236.484,-35.0175 243.48,-35.2433"/>
</g>
<!-- Node9 -->
<g id="node9" class="node"><title>Node9</title>
<polygon fill="white" stroke="#bfbfbf" points="403.121,-73 403.121,-92 447.121,-92 447.121,-73 403.121,-73"/>
<text text-anchor="middle" x="425.121" y="-80" font-family="Helvetica,sans-Serif" font-size="10.00">cmath</text>
</g>
<!-- Node8&#45;&gt;Node9 -->
<g id="edge8" class="edge"><title>Node8&#45;&gt;Node9</title>
<path fill="none" stroke="midnightblue" d="M517.648,-134.475C499.843,-124.666 470.381,-108.435 449.489,-96.925"/>
<polygon fill="midnightblue" stroke="midnightblue" points="451.014,-93.769 440.566,-92.0091 447.636,-99.9001 451.014,-93.769"/>
</g>
<!-- Node10 -->
<g id="node10" class="node"><title>Node10</title>
<polygon fill="white" stroke="#bfbfbf" points="995.121,-73 995.121,-92 1049.12,-92 1049.12,-73 995.121,-73"/>
<text text-anchor="middle" x="1022.12" y="-80" font-family="Helvetica,sans-Serif" font-size="10.00">iostream</text>
</g>
<!-- Node8&#45;&gt;Node10 -->
<g id="edge10" class="edge"><title>Node8&#45;&gt;Node10</title>
<path fill="none" stroke="midnightblue" d="M621.207,-141.612C713.409,-138.457 861.787,-128.553 986.121,-98 988.79,-97.3443 991.522,-96.5295 994.229,-95.623"/>
<polygon fill="midnightblue" stroke="midnightblue" points="995.627,-98.837 1003.77,-92.0583 993.177,-92.2797 995.627,-98.837"/>
</g>
<!-- Node11 -->
<g id="node11" class="node"><title>Node11</title>
<polygon fill="white" stroke="#bfbfbf" points="1067.12,-73 1067.12,-92 1119.12,-92 1119.12,-73 1067.12,-73"/>
<text text-anchor="middle" x="1093.12" y="-80" font-family="Helvetica,sans-Serif" font-size="10.00">sstream</text>
</g>
<!-- Node8&#45;&gt;Node11 -->
<g id="edge11" class="edge"><title>Node8&#45;&gt;Node11</title>
<path fill="none" stroke="midnightblue" d="M621.302,-143.634C726.698,-142.524 907.697,-134.673 1058.12,-98 1060.64,-97.3866 1063.21,-96.6188 1065.76,-95.7587"/>
<polygon fill="midnightblue" stroke="midnightblue" points="1067.21,-98.9482 1075.31,-92.1151 1064.72,-92.4075 1067.21,-98.9482"/>
</g>
<!-- Node12 -->
<g id="node12" class="node"><title>Node12</title>
<polygon fill="white" stroke="#bfbfbf" points="503.621,-73 503.621,-92 562.621,-92 562.621,-73 503.621,-73"/>
<text text-anchor="middle" x="533.121" y="-80" font-family="Helvetica,sans-Serif" font-size="10.00">stdexcept</text>
</g>
<!-- Node8&#45;&gt;Node12 -->
<g id="edge12" class="edge"><title>Node8&#45;&gt;Node12</title>
<path fill="none" stroke="midnightblue" d="M533.121,-134.475C533.121,-126.08 533.121,-112.981 533.121,-102.163"/>
<polygon fill="midnightblue" stroke="midnightblue" points="536.621,-102.009 533.121,-92.0091 529.621,-102.009 536.621,-102.009"/>
</g>
<!-- Node13 -->
<g id="node13" class="node"><title>Node13</title>
<polygon fill="white" stroke="#bfbfbf" points="580.621,-67.5 580.621,-97.5 681.621,-97.5 681.621,-67.5 580.621,-67.5"/>
<text text-anchor="start" x="588.621" y="-85.5" font-family="Helvetica,sans-Serif" font-size="10.00">boost/property_tree</text>
<text text-anchor="middle" x="631.121" y="-74.5" font-family="Helvetica,sans-Serif" font-size="10.00">/ptree_fwd.hpp</text>
</g>
<!-- Node8&#45;&gt;Node13 -->
<g id="edge14" class="edge"><title>Node8&#45;&gt;Node13</title>
<path fill="none" stroke="midnightblue" d="M547.162,-134.475C560.683,-126.266 581.614,-113.558 599.194,-102.885"/>
<polygon fill="midnightblue" stroke="midnightblue" points="601.293,-105.705 608.025,-97.523 597.66,-99.721 601.293,-105.705"/>
</g>
<!-- Node14 -->
<g id="node14" class="node"><title>Node14</title>
<polygon fill="white" stroke="#bfbfbf" points="699.621,-67.5 699.621,-97.5 794.621,-97.5 794.621,-67.5 699.621,-67.5"/>
<text text-anchor="start" x="707.621" y="-85.5" font-family="Helvetica,sans-Serif" font-size="10.00">boost/serialization</text>
<text text-anchor="middle" x="747.121" y="-74.5" font-family="Helvetica,sans-Serif" font-size="10.00">/utility.hpp</text>
</g>
<!-- Node8&#45;&gt;Node14 -->
<g id="edge15" class="edge"><title>Node8&#45;&gt;Node14</title>
<path fill="none" stroke="midnightblue" d="M563.782,-134.475C596.56,-125.362 649.281,-110.703 689.793,-99.4394"/>
<polygon fill="midnightblue" stroke="midnightblue" points="690.85,-102.778 699.547,-96.7275 688.975,-96.0342 690.85,-102.778"/>
</g>
<!-- Node15 -->
<g id="node15" class="node"><title>Node15</title>
<g id="a_node15"><a xlink:href="FitParameter_8hpp.html" target="_top" xlink:title="Core/FitParameter.hpp">
<polygon fill="white" stroke="red" points="269.121,-73 269.121,-92 385.121,-92 385.121,-73 269.121,-73"/>
<text text-anchor="middle" x="327.121" y="-80" font-family="Helvetica,sans-Serif" font-size="10.00">Core/FitParameter.hpp</text>
</a>
</g>
</g>
<!-- Node8&#45;&gt;Node15 -->
<g id="edge17" class="edge"><title>Node8&#45;&gt;Node15</title>
<path fill="none" stroke="midnightblue" d="M503.606,-134.475C467.505,-124.048 406.273,-106.362 366.267,-94.8066"/>
<polygon fill="midnightblue" stroke="midnightblue" points="367.16,-91.4215 356.581,-92.0091 365.217,-98.1466 367.16,-91.4215"/>
</g>
<!-- Node16 -->
<g id="node16" class="node"><title>Node16</title>
<g id="a_node16"><a xlink:href="Logging_8hpp.html" target="_top" xlink:title="Core/Logging.hpp">
<polygon fill="white" stroke="red" points="428.621,-6 428.621,-25 521.621,-25 521.621,-6 428.621,-6"/>
<text text-anchor="middle" x="475.121" y="-13" font-family="Helvetica,sans-Serif" font-size="10.00">Core/Logging.hpp</text>
</a>
</g>
</g>
<!-- Node8&#45;&gt;Node16 -->
<g id="edge27" class="edge"><title>Node8&#45;&gt;Node16</title>
<path fill="none" stroke="midnightblue" d="M523.271,-134.342C514.327,-125.935 501.448,-112.367 494.121,-98 483.932,-78.0192 479.123,-52.4995 476.91,-35.387"/>
<polygon fill="midnightblue" stroke="midnightblue" points="480.344,-34.6052 475.758,-25.0544 473.387,-35.3806 480.344,-34.6052"/>
</g>
<!-- Node17 -->
<g id="node17" class="node"><title>Node17</title>
<g id="a_node17"><a xlink:href="Parameter_8hpp.html" target="_top" xlink:title="Parameter base class. ">
<polygon fill="white" stroke="red" points="813.121,-73 813.121,-92 977.121,-92 977.121,-73 813.121,-73"/>
<text text-anchor="middle" x="895.121" y="-80" font-family="Helvetica,sans-Serif" font-size="10.00">Core/FunctionTree/Parameter.hpp</text>
</a>
</g>
</g>
<!-- Node8&#45;&gt;Node17 -->
<g id="edge21" class="edge"><title>Node8&#45;&gt;Node17</title>
<path fill="none" stroke="midnightblue" d="M584.987,-134.475C650.577,-123.694 763.375,-105.154 833.349,-93.6532"/>
<polygon fill="midnightblue" stroke="midnightblue" points="834.052,-97.0847 843.352,-92.0091 832.916,-90.1774 834.052,-97.0847"/>
</g>
<!-- Node15&#45;&gt;Node4 -->
<g id="edge20" class="edge"><title>Node15&#45;&gt;Node4</title>
<path fill="none" stroke="midnightblue" d="M361.012,-72.9971C371.555,-70.6679 383.262,-68.4011 394.121,-67 759,-19.9211 853.933,-53.9395 1221.12,-31 1272.02,-27.8201 1331,-22.7405 1366.66,-19.5151"/>
<polygon fill="midnightblue" stroke="midnightblue" points="1367.3,-22.9711 1376.94,-18.5778 1366.66,-16 1367.3,-22.9711"/>
</g>
<!-- Node15&#45;&gt;Node7 -->
<g id="edge19" class="edge"><title>Node15&#45;&gt;Node7</title>
<path fill="none" stroke="midnightblue" d="M315.523,-72.7338C301.468,-62.1106 277.57,-44.0485 260.655,-31.2642"/>
<polygon fill="midnightblue" stroke="midnightblue" points="262.624,-28.3648 252.536,-25.1273 258.403,-33.9492 262.624,-28.3648"/>
</g>
<!-- Node15&#45;&gt;Node16 -->
<g id="edge18" class="edge"><title>Node15&#45;&gt;Node16</title>
<path fill="none" stroke="midnightblue" d="M346.775,-72.8685C372.207,-61.699 416.725,-42.1468 446.067,-29.2602"/>
<polygon fill="midnightblue" stroke="midnightblue" points="447.638,-32.393 455.387,-25.1672 444.823,-25.9839 447.638,-32.393"/>
</g>
<!-- Node17&#45;&gt;Node2 -->
<g id="edge22" class="edge"><title>Node17&#45;&gt;Node2</title>
<path fill="none" stroke="midnightblue" d="M847.068,-72.9467C833.241,-70.7294 818.115,-68.536 804.121,-67 541.657,-38.1917 470.753,-79.0492 211.121,-31 206.86,-30.2114 202.442,-29.1492 198.105,-27.9561"/>
<polygon fill="midnightblue" stroke="midnightblue" points="198.826,-24.5185 188.242,-25.002 196.817,-31.2242 198.826,-24.5185"/>
</g>
<!-- Node17&#45;&gt;Node4 -->
<g id="edge25" class="edge"><title>Node17&#45;&gt;Node4</title>
<path fill="none" stroke="midnightblue" d="M946.567,-72.9684C959.468,-70.9211 973.289,-68.8062 986.121,-67 1127.35,-47.1207 1296.39,-27.8668 1366.34,-20.0981"/>
<polygon fill="midnightblue" stroke="midnightblue" points="1367.15,-23.5308 1376.7,-18.9516 1366.38,-16.5733 1367.15,-23.5308"/>
</g>
<!-- Node17&#45;&gt;Node7 -->
<g id="edge24" class="edge"><title>Node17&#45;&gt;Node7</title>
<path fill="none" stroke="midnightblue" d="M845.619,-72.9806C832.181,-70.8406 817.616,-68.6783 804.121,-67 699.472,-53.9846 373.729,-27.2301 271.878,-18.9785"/>
<polygon fill="midnightblue" stroke="midnightblue" points="271.907,-15.4695 261.658,-18.1517 271.343,-22.4467 271.907,-15.4695"/>
</g>
<!-- Node18 -->
<g id="node18" class="node"><title>Node18</title>
<polygon fill="white" stroke="#bfbfbf" points="928.121,-6 928.121,-25 980.121,-25 980.121,-6 928.121,-6"/>
<text text-anchor="middle" x="954.121" y="-13" font-family="Helvetica,sans-Serif" font-size="10.00">memory</text>
</g>
<!-- Node17&#45;&gt;Node18 -->
<g id="edge23" class="edge"><title>Node17&#45;&gt;Node18</title>
<path fill="none" stroke="midnightblue" d="M903.078,-72.7338C912.367,-62.5004 927.921,-45.3642 939.424,-32.6924"/>
<polygon fill="midnightblue" stroke="midnightblue" points="942.161,-34.8843 946.29,-25.1273 936.978,-30.1795 942.161,-34.8843"/>
</g>
<!-- Node19 -->
<g id="node19" class="node"><title>Node19</title>
<polygon fill="white" stroke="#bfbfbf" points="1116.62,-0.5 1116.62,-30.5 1211.62,-30.5 1211.62,-0.5 1116.62,-0.5"/>
<text text-anchor="start" x="1124.62" y="-18.5" font-family="Helvetica,sans-Serif" font-size="10.00">boost/serialization</text>
<text text-anchor="middle" x="1164.12" y="-7.5" font-family="Helvetica,sans-Serif" font-size="10.00">/shared_ptr.hpp</text>
</g>
<!-- Node17&#45;&gt;Node19 -->
<g id="edge26" class="edge"><title>Node17&#45;&gt;Node19</title>
<path fill="none" stroke="midnightblue" d="M930.565,-72.9355C975.33,-62.1186 1052.95,-43.3638 1106.34,-30.4632"/>
<polygon fill="midnightblue" stroke="midnightblue" points="1107.44,-33.7964 1116.34,-28.0455 1105.8,-26.9923 1107.44,-33.7964"/>
</g>
<!-- Node20&#45;&gt;Node4 -->
<g id="edge34" class="edge"><title>Node20&#45;&gt;Node4</title>
<path fill="none" stroke="midnightblue" d="M1090.45,-268.546C1211.78,-262.899 1443.44,-248.603 1468.12,-221 1518.51,-164.652 1446.63,-70.1139 1413.9,-32.5713"/>
<polygon fill="midnightblue" stroke="midnightblue" points="1416.48,-30.2077 1407.21,-25.0724 1411.25,-34.8659 1416.48,-30.2077"/>
</g>
<!-- Node20&#45;&gt;Node5 -->
<g id="edge37" class="edge"><title>Node20&#45;&gt;Node5</title>
<path fill="none" stroke="midnightblue" d="M943.935,-270.478C753.882,-267.34 254.849,-255.846 189.121,-221 138.877,-194.363 105.117,-132.303 90.8344,-101.502"/>
<polygon fill="midnightblue" stroke="midnightblue" points="94.0196,-100.051 86.7418,-92.3513 87.6295,-102.909 94.0196,-100.051"/>
</g>
<!-- Node20&#45;&gt;Node7 -->
<g id="edge33" class="edge"><title>Node20&#45;&gt;Node7</title>
<path fill="none" stroke="midnightblue" d="M944.076,-268.414C815.76,-262.389 555.226,-247.3 468.121,-221 357.897,-187.72 299.124,-196.871 240.121,-98 228.76,-78.9616 231.68,-52.699 235.656,-35.1865"/>
<polygon fill="midnightblue" stroke="midnightblue" points="239.148,-35.6651 238.282,-25.1057 232.374,-33.9006 239.148,-35.6651"/>
</g>
<!-- Node20&#45;&gt;Node8 -->
<g id="edge38" class="edge"><title>Node20&#45;&gt;Node8</title>
<path fill="none" stroke="midnightblue" d="M944.077,-258.334C910.033,-250.416 869.72,-238.415 836.121,-221 816.77,-210.97 817.967,-199.012 798.121,-190 745.938,-166.304 682.834,-154.987 631.298,-149.625"/>
<polygon fill="midnightblue" stroke="midnightblue" points="631.445,-146.123 621.151,-148.631 630.762,-153.09 631.445,-146.123"/>
</g>
<!-- Node20&#45;&gt;Node10 -->
<g id="edge29" class="edge"><title>Node20&#45;&gt;Node10</title>
<path fill="none" stroke="midnightblue" d="M1017.5,-257.369C1018.39,-223.938 1020.62,-139.974 1021.62,-102.304"/>
<polygon fill="midnightblue" stroke="midnightblue" points="1025.12,-102.296 1021.89,-92.2062 1018.13,-102.11 1025.12,-102.296"/>
</g>
<!-- Node20&#45;&gt;Node11 -->
<g id="edge32" class="edge"><title>Node20&#45;&gt;Node11</title>
<path fill="none" stroke="midnightblue" d="M1022.83,-257.369C1036.41,-223.794 1070.58,-139.249 1085.72,-101.819"/>
<polygon fill="midnightblue" stroke="midnightblue" points="1089.1,-102.789 1089.6,-92.2062 1082.61,-100.165 1089.1,-102.789"/>
</g>
<!-- Node20&#45;&gt;Node16 -->
<g id="edge41" class="edge"><title>Node20&#45;&gt;Node16</title>
<path fill="none" stroke="midnightblue" d="M1035.6,-257.362C1079.87,-221.889 1184.24,-127.625 1128.12,-67 1107.98,-45.2436 687.161,-25.4155 531.959,-18.8166"/>
<polygon fill="midnightblue" stroke="midnightblue" points="531.828,-15.3081 521.69,-18.3828 531.533,-22.3018 531.828,-15.3081"/>
</g>
<!-- Node20&#45;&gt;Node18 -->
<g id="edge31" class="edge"><title>Node20&#45;&gt;Node18</title>
<path fill="none" stroke="midnightblue" d="M1090.15,-264.785C1118.64,-258.175 1148.62,-245.418 1166.12,-221 1186.57,-192.476 1235.1,-157.361 1161.12,-67 1139.76,-40.9049 1043.81,-26.363 990.363,-20.1553"/>
<polygon fill="midnightblue" stroke="midnightblue" points="990.603,-16.6604 980.275,-19.0239 989.823,-23.6167 990.603,-16.6604"/>
</g>
<!-- Node20&#45;&gt;Node19 -->
<g id="edge35" class="edge"><title>Node20&#45;&gt;Node19</title>
<path fill="none" stroke="midnightblue" d="M1090.33,-266.634C1125.15,-260.63 1164.81,-247.844 1191.12,-221 1239.15,-172.005 1200.17,-81.8154 1177.51,-39.5256"/>
<polygon fill="midnightblue" stroke="midnightblue" points="1180.46,-37.6217 1172.57,-30.5571 1174.33,-41.0036 1180.46,-37.6217"/>
</g>
<!-- Node21 -->
<g id="node21" class="node"><title>Node21</title>
<polygon fill="white" stroke="#bfbfbf" points="1121.62,-196 1121.62,-215 1156.62,-215 1156.62,-196 1121.62,-196"/>
<text text-anchor="middle" x="1139.12" y="-203" font-family="Helvetica,sans-Serif" font-size="10.00">map</text>
</g>
<!-- Node20&#45;&gt;Node21 -->
<g id="edge30" class="edge"><title>Node20&#45;&gt;Node21</title>
<path fill="none" stroke="midnightblue" d="M1043.59,-257.396C1064.53,-246.243 1093.55,-230.781 1114.1,-219.834"/>
<polygon fill="midnightblue" stroke="midnightblue" points="1115.97,-222.798 1123.15,-215.007 1112.68,-216.62 1115.97,-222.798"/>
</g>
<!-- Node22 -->
<g id="node22" class="node"><title>Node22</title>
<polygon fill="white" stroke="#bfbfbf" points="1251.62,-190.5 1251.62,-220.5 1346.62,-220.5 1346.62,-190.5 1251.62,-190.5"/>
<text text-anchor="start" x="1259.62" y="-208.5" font-family="Helvetica,sans-Serif" font-size="10.00">boost/serialization</text>
<text text-anchor="middle" x="1299.12" y="-197.5" font-family="Helvetica,sans-Serif" font-size="10.00">/vector.hpp</text>
</g>
<!-- Node20&#45;&gt;Node22 -->
<g id="edge36" class="edge"><title>Node20&#45;&gt;Node22</title>
<path fill="none" stroke="midnightblue" d="M1078.78,-257.419C1122.89,-247.326 1183.67,-233.384 1237.12,-221 1238.57,-220.665 1240.03,-220.325 1241.51,-219.981"/>
<polygon fill="midnightblue" stroke="midnightblue" points="1242.45,-223.357 1251.4,-217.682 1240.87,-216.539 1242.45,-223.357"/>
</g>
<!-- Node23 -->
<g id="node23" class="node"><title>Node23</title>
<g id="a_node23"><a xlink:href="Value_8hpp.html" target="_top" xlink:title="Template implementation of Parameter for simple values. ">
<polygon fill="white" stroke="red" points="845.121,-196 845.121,-215 989.121,-215 989.121,-196 845.121,-196"/>
<text text-anchor="middle" x="917.121" y="-203" font-family="Helvetica,sans-Serif" font-size="10.00">Core/FunctionTree/Value.hpp</text>
</a>
</g>
</g>
<!-- Node20&#45;&gt;Node23 -->
<g id="edge39" class="edge"><title>Node20&#45;&gt;Node23</title>
<path fill="none" stroke="midnightblue" d="M995.423,-257.396C978.653,-246.496 955.55,-231.479 938.788,-220.584"/>
<polygon fill="midnightblue" stroke="midnightblue" points="940.501,-217.522 930.209,-215.007 936.686,-223.391 940.501,-217.522"/>
</g>
<!-- Node24 -->
<g id="node24" class="node"><title>Node24</title>
<polygon fill="white" stroke="#bfbfbf" points="1365.12,-196 1365.12,-215 1459.12,-215 1459.12,-196 1365.12,-196"/>
<text text-anchor="middle" x="1412.12" y="-203" font-family="Helvetica,sans-Serif" font-size="10.00">boost/version.hpp</text>
</g>
<!-- Node20&#45;&gt;Node24 -->
<g id="edge42" class="edge"><title>Node20&#45;&gt;Node24</title>
<path fill="none" stroke="midnightblue" d="M1090.25,-262.871C1159.17,-254.204 1265.16,-239.498 1356.12,-221 1361.16,-219.976 1366.42,-218.781 1371.62,-217.526"/>
<polygon fill="midnightblue" stroke="midnightblue" points="1372.6,-220.888 1381.45,-215.064 1370.9,-214.098 1372.6,-220.888"/>
</g>
<!-- Node25 -->
<g id="node25" class="node"><title>Node25</title>
<polygon fill="white" stroke="#bfbfbf" points="477.621,-190.5 477.621,-220.5 572.621,-220.5 572.621,-190.5 477.621,-190.5"/>
<text text-anchor="start" x="485.621" y="-208.5" font-family="Helvetica,sans-Serif" font-size="10.00">boost/serialization</text>
<text text-anchor="middle" x="525.121" y="-197.5" font-family="Helvetica,sans-Serif" font-size="10.00">/split_free.hpp</text>
</g>
<!-- Node20&#45;&gt;Node25 -->
<g id="edge43" class="edge"><title>Node20&#45;&gt;Node25</title>
<path fill="none" stroke="midnightblue" d="M943.758,-266.114C858.862,-259.183 714.779,-245.27 582.581,-221.123"/>
<polygon fill="midnightblue" stroke="midnightblue" points="583.15,-217.669 572.68,-219.291 581.876,-224.552 583.15,-217.669"/>
</g>
<!-- Node26 -->
<g id="node26" class="node"><title>Node26</title>
<polygon fill="white" stroke="#bfbfbf" points="590.621,-196 590.621,-215 719.621,-215 719.621,-196 590.621,-196"/>
<text text-anchor="middle" x="655.121" y="-203" font-family="Helvetica,sans-Serif" font-size="10.00">boost/unordered_map.hpp</text>
</g>
<!-- Node20&#45;&gt;Node26 -->
<g id="edge44" class="edge"><title>Node20&#45;&gt;Node26</title>
<path fill="none" stroke="midnightblue" d="M943.957,-259.085C885.703,-249.1 802.115,-234.55 729.121,-221 722.289,-219.732 715.109,-218.366 708.019,-216.998"/>
<polygon fill="midnightblue" stroke="midnightblue" points="708.23,-213.474 697.746,-215.003 706.896,-220.345 708.23,-213.474"/>
</g>
<!-- Node27 -->
<g id="node27" class="node"><title>Node27</title>
<polygon fill="white" stroke="#bfbfbf" points="737.621,-196 737.621,-215 788.621,-215 788.621,-196 737.621,-196"/>
<text text-anchor="middle" x="763.121" y="-203" font-family="Helvetica,sans-Serif" font-size="10.00">typeinfo</text>
</g>
<!-- Node20&#45;&gt;Node27 -->
<g id="edge45" class="edge"><title>Node20&#45;&gt;Node27</title>
<path fill="none" stroke="midnightblue" d="M948.642,-257.462C906.377,-248.275 851.227,-235.342 803.121,-221 800.491,-220.216 797.782,-219.354 795.072,-218.453"/>
<polygon fill="midnightblue" stroke="midnightblue" points="795.989,-215.067 785.394,-215.091 793.692,-221.679 795.989,-215.067"/>
</g>
<!-- Node23&#45;&gt;Node8 -->
<g id="edge40" class="edge"><title>Node23&#45;&gt;Node8</title>
<path fill="none" stroke="midnightblue" d="M867.576,-195.997C855.645,-193.991 842.933,-191.887 831.121,-190 752.486,-177.435 662.024,-163.905 601.59,-154.998"/>
<polygon fill="midnightblue" stroke="midnightblue" points="601.814,-151.494 591.411,-153.5 600.795,-158.419 601.814,-151.494"/>
</g>
</g>
</svg>
