<?xml version="1.0" encoding="UTF-8" standalone="no"?>
<!DOCTYPE svg PUBLIC "-//W3C//DTD SVG 1.1//EN"
 "http://www.w3.org/Graphics/SVG/1.1/DTD/svg11.dtd">
<!-- Generated by graphviz version 2.38.0 (20140413.2041)
 -->
<!-- Title: Core/FunctionTree/FunctionTreeEstimator.cpp Pages: 1 -->
<svg width="684pt" height="274pt"
 viewBox="0.00 0.00 684.00 274.00" xmlns="http://www.w3.org/2000/svg" xmlns:xlink="http://www.w3.org/1999/xlink">
<g id="graph0" class="graph" transform="scale(1 1) rotate(0) translate(4 270)">
<title>Core/FunctionTree/FunctionTreeEstimator.cpp</title>
<polygon fill="white" stroke="none" points="-4,4 -4,-270 680,-270 680,4 -4,4"/>
<!-- Node1 -->
<g id="node1" class="node"><title>Node1</title>
<polygon fill="#bfbfbf" stroke="black" points="343,-235.5 343,-265.5 481,-265.5 481,-235.5 343,-235.5"/>
<text text-anchor="start" x="351" y="-253.5" font-family="Helvetica,sans-Serif" font-size="10.00">Core/FunctionTree/Function</text>
<text text-anchor="middle" x="412" y="-242.5" font-family="Helvetica,sans-Serif" font-size="10.00">TreeEstimator.cpp</text>
</g>
<!-- Node2 -->
<g id="node2" class="node"><title>Node2</title>
<g id="a_node2"><a xlink:href="FunctionTreeEstimator_8hpp.html" target="_top" xlink:title="FunctionTreeEstimator.hpp">
<polygon fill="white" stroke="black" points="48,-123.5 48,-142.5 182,-142.5 182,-123.5 48,-123.5"/>
<text text-anchor="middle" x="115" y="-130.5" font-family="Helvetica,sans-Serif" font-size="10.00">FunctionTreeEstimator.hpp</text>
</a>
</g>
</g>
<!-- Node1&#45;&gt;Node2 -->
<g id="edge1" class="edge"><title>Node1&#45;&gt;Node2</title>
<path fill="none" stroke="midnightblue" d="M375.879,-235.453C317.107,-212.597 201.78,-167.748 146.289,-146.168"/>
<polygon fill="midnightblue" stroke="midnightblue" points="147.555,-142.905 136.966,-142.542 145.017,-149.429 147.555,-142.905"/>
</g>
<!-- Node7 -->
<g id="node7" class="node"><title>Node7</title>
<g id="a_node7"><a xlink:href="Value_8hpp.html" target="_top" xlink:title="Template implementation of Parameter for simple values. ">
<polygon fill="white" stroke="red" points="532,-0.5 532,-19.5 676,-19.5 676,-0.5 532,-0.5"/>
<text text-anchor="middle" x="604" y="-7.5" font-family="Helvetica,sans-Serif" font-size="10.00">Core/FunctionTree/Value.hpp</text>
</a>
</g>
</g>
<!-- Node1&#45;&gt;Node7 -->
<g id="edge19" class="edge"><title>Node1&#45;&gt;Node7</title>
<path fill="none" stroke="midnightblue" d="M481.154,-237.213C533.875,-223.826 603.02,-196.678 637,-143 660.068,-106.559 633.447,-54.9557 616.279,-28.353"/>
<polygon fill="midnightblue" stroke="midnightblue" points="618.98,-26.0975 610.491,-19.7575 613.173,-30.0072 618.98,-26.0975"/>
</g>
<!-- Node9 -->
<g id="node9" class="node"><title>Node9</title>
<g id="a_node9"><a xlink:href="TreeNode_8hpp.html" target="_top" xlink:title="TreeNode class. ">
<polygon fill="white" stroke="black" points="373,-179.5 373,-198.5 451,-198.5 451,-179.5 373,-179.5"/>
<text text-anchor="middle" x="412" y="-186.5" font-family="Helvetica,sans-Serif" font-size="10.00">TreeNode.hpp</text>
</a>
</g>
</g>
<!-- Node1&#45;&gt;Node9 -->
<g id="edge10" class="edge"><title>Node1&#45;&gt;Node9</title>
<path fill="none" stroke="midnightblue" d="M412,-235.399C412,-227.466 412,-217.458 412,-208.858"/>
<polygon fill="midnightblue" stroke="midnightblue" points="415.5,-208.658 412,-198.658 408.5,-208.658 415.5,-208.658"/>
</g>
<!-- Node3 -->
<g id="node3" class="node"><title>Node3</title>
<polygon fill="white" stroke="#bfbfbf" points="0,-0.5 0,-19.5 52,-19.5 52,-0.5 0,-0.5"/>
<text text-anchor="middle" x="26" y="-7.5" font-family="Helvetica,sans-Serif" font-size="10.00">memory</text>
</g>
<!-- Node2&#45;&gt;Node3 -->
<g id="edge2" class="edge"><title>Node2&#45;&gt;Node3</title>
<path fill="none" stroke="midnightblue" d="M93.491,-123.404C77.7582,-116.03 57.1255,-103.905 45,-87 32.8916,-70.1187 28.4684,-46.3248 26.8701,-29.8777"/>
<polygon fill="midnightblue" stroke="midnightblue" points="30.3568,-29.5663 26.1551,-19.8403 23.3745,-30.0637 30.3568,-29.5663"/>
</g>
<!-- Node4 -->
<g id="node4" class="node"><title>Node4</title>
<g id="a_node4"><a xlink:href="FitParameter_8hpp.html" target="_top" xlink:title="Core/FitParameter.hpp">
<polygon fill="white" stroke="red" points="194,-62 194,-81 310,-81 310,-62 194,-62"/>
<text text-anchor="middle" x="252" y="-69" font-family="Helvetica,sans-Serif" font-size="10.00">Core/FitParameter.hpp</text>
</a>
</g>
</g>
<!-- Node2&#45;&gt;Node4 -->
<g id="edge3" class="edge"><title>Node2&#45;&gt;Node4</title>
<path fill="none" stroke="midnightblue" d="M134.629,-123.475C157.824,-113.401 196.619,-96.5525 223.213,-85.0023"/>
<polygon fill="midnightblue" stroke="midnightblue" points="224.63,-88.203 232.408,-81.0091 221.841,-81.7824 224.63,-88.203"/>
</g>
<!-- Node6 -->
<g id="node6" class="node"><title>Node6</title>
<g id="a_node6"><a xlink:href="ParameterList_8hpp.html" target="_top" xlink:title="ParameterList class. ">
<polygon fill="white" stroke="red" points="328,-56.5 328,-86.5 474,-86.5 474,-56.5 328,-56.5"/>
<text text-anchor="start" x="336" y="-74.5" font-family="Helvetica,sans-Serif" font-size="10.00">Core/FunctionTree/Parameter</text>
<text text-anchor="middle" x="401" y="-63.5" font-family="Helvetica,sans-Serif" font-size="10.00">List.hpp</text>
</a>
</g>
</g>
<!-- Node2&#45;&gt;Node6 -->
<g id="edge5" class="edge"><title>Node2&#45;&gt;Node6</title>
<path fill="none" stroke="midnightblue" d="M155.977,-123.475C199.599,-114.4 269.649,-99.8265 323.699,-88.5818"/>
<polygon fill="midnightblue" stroke="midnightblue" points="324.518,-91.9865 333.595,-86.523 323.092,-85.1332 324.518,-91.9865"/>
</g>
<!-- Node8 -->
<g id="node8" class="node"><title>Node8</title>
<g id="a_node8"><a xlink:href="Estimator_8hpp.html" target="_top" xlink:title="Estimator/Estimator.hpp">
<polygon fill="white" stroke="red" points="54,-62 54,-81 176,-81 176,-62 54,-62"/>
<text text-anchor="middle" x="115" y="-69" font-family="Helvetica,sans-Serif" font-size="10.00">Estimator/Estimator.hpp</text>
</a>
</g>
</g>
<!-- Node2&#45;&gt;Node8 -->
<g id="edge9" class="edge"><title>Node2&#45;&gt;Node8</title>
<path fill="none" stroke="midnightblue" d="M115,-123.475C115,-115.08 115,-101.981 115,-91.1631"/>
<polygon fill="midnightblue" stroke="midnightblue" points="118.5,-91.0091 115,-81.0091 111.5,-91.0091 118.5,-91.0091"/>
</g>
<!-- Node5 -->
<g id="node5" class="node"><title>Node5</title>
<polygon fill="white" stroke="#bfbfbf" points="380.5,-0.5 380.5,-19.5 421.5,-19.5 421.5,-0.5 380.5,-0.5"/>
<text text-anchor="middle" x="401" y="-7.5" font-family="Helvetica,sans-Serif" font-size="10.00">string</text>
</g>
<!-- Node4&#45;&gt;Node5 -->
<g id="edge4" class="edge"><title>Node4&#45;&gt;Node5</title>
<path fill="none" stroke="midnightblue" d="M273.348,-61.9751C298.83,-51.7996 341.621,-34.7117 370.563,-23.1542"/>
<polygon fill="midnightblue" stroke="midnightblue" points="372.183,-26.2763 380.172,-19.3173 369.587,-19.7754 372.183,-26.2763"/>
</g>
<!-- Node6&#45;&gt;Node3 -->
<g id="edge6" class="edge"><title>Node6&#45;&gt;Node3</title>
<path fill="none" stroke="midnightblue" d="M327.696,-57.4531C324.76,-56.9573 321.853,-56.4712 319,-56 226.697,-40.7529 117.741,-24.469 62.3248,-16.3089"/>
<polygon fill="midnightblue" stroke="midnightblue" points="62.6989,-12.8264 52.2962,-14.8348 61.6809,-19.7519 62.6989,-12.8264"/>
</g>
<!-- Node6&#45;&gt;Node5 -->
<g id="edge7" class="edge"><title>Node6&#45;&gt;Node5</title>
<path fill="none" stroke="midnightblue" d="M401,-56.3993C401,-48.4664 401,-38.458 401,-29.8583"/>
<polygon fill="midnightblue" stroke="midnightblue" points="404.5,-29.6577 401,-19.6578 397.5,-29.6578 404.5,-29.6577"/>
</g>
<!-- Node6&#45;&gt;Node7 -->
<g id="edge8" class="edge"><title>Node6&#45;&gt;Node7</title>
<path fill="none" stroke="midnightblue" d="M448.851,-56.4747C484.332,-46.0752 532.086,-32.0783 565.201,-22.3722"/>
<polygon fill="midnightblue" stroke="midnightblue" points="566.366,-25.6778 574.978,-19.5064 564.398,-18.9604 566.366,-25.6778"/>
</g>
<!-- Node9&#45;&gt;Node3 -->
<g id="edge12" class="edge"><title>Node9&#45;&gt;Node3</title>
<path fill="none" stroke="midnightblue" d="M372.771,-185.85C281.96,-180.512 63.166,-165.443 39,-143 8.01641,-114.225 14.7925,-58.8162 21.1003,-29.7862"/>
<polygon fill="midnightblue" stroke="midnightblue" points="24.5799,-30.2834 23.4981,-19.744 17.7713,-28.6577 24.5799,-30.2834"/>
</g>
<!-- Node9&#45;&gt;Node5 -->
<g id="edge13" class="edge"><title>Node9&#45;&gt;Node5</title>
<path fill="none" stroke="midnightblue" d="M451.122,-185.162C504.925,-180.353 597.453,-168.52 618,-143 635.906,-120.76 627.029,-84.342 596,-56 572.16,-34.2247 480.15,-20.3482 431.523,-14.379"/>
<polygon fill="midnightblue" stroke="midnightblue" points="431.907,-10.9002 421.563,-13.1928 431.079,-17.851 431.907,-10.9002"/>
</g>
<!-- Node9&#45;&gt;Node6 -->
<g id="edge18" class="edge"><title>Node9&#45;&gt;Node6</title>
<path fill="none" stroke="midnightblue" d="M372.689,-183.951C324.342,-178.067 246.51,-165.337 229,-143 223.516,-136.004 223.673,-130.116 229,-123 235.481,-114.343 285.624,-100.201 330.109,-89.0808"/>
<polygon fill="midnightblue" stroke="midnightblue" points="331.217,-92.4123 340.083,-86.6134 329.536,-85.6172 331.217,-92.4123"/>
</g>
<!-- Node10 -->
<g id="node10" class="node"><title>Node10</title>
<polygon fill="white" stroke="#bfbfbf" points="534.5,-62 534.5,-81 587.5,-81 587.5,-62 534.5,-62"/>
<text text-anchor="middle" x="561" y="-69" font-family="Helvetica,sans-Serif" font-size="10.00">complex</text>
</g>
<!-- Node9&#45;&gt;Node10 -->
<g id="edge11" class="edge"><title>Node9&#45;&gt;Node10</title>
<path fill="none" stroke="midnightblue" d="M451.296,-184.292C501.104,-178.685 582.707,-166.16 601,-143 614.867,-125.443 596.083,-102.503 579.855,-87.6364"/>
<polygon fill="midnightblue" stroke="midnightblue" points="582.097,-84.9486 572.247,-81.0462 577.514,-90.2394 582.097,-84.9486"/>
</g>
<!-- Node11 -->
<g id="node11" class="node"><title>Node11</title>
<g id="a_node11"><a xlink:href="Functions_8hpp.html" target="_top" xlink:title="This file contains Functions implementing the Strategy interface so they can be used inside a node of...">
<polygon fill="white" stroke="red" points="238,-123.5 238,-142.5 400,-142.5 400,-123.5 238,-123.5"/>
<text text-anchor="middle" x="319" y="-130.5" font-family="Helvetica,sans-Serif" font-size="10.00">Core/FunctionTree/Functions.hpp</text>
</a>
</g>
</g>
<!-- Node9&#45;&gt;Node11 -->
<g id="edge14" class="edge"><title>Node9&#45;&gt;Node11</title>
<path fill="none" stroke="midnightblue" d="M397.058,-179.324C382.415,-170.822 359.866,-157.729 342.762,-147.797"/>
<polygon fill="midnightblue" stroke="midnightblue" points="344.31,-144.649 333.905,-142.655 340.795,-150.703 344.31,-144.649"/>
</g>
<!-- Node12 -->
<g id="node12" class="node"><title>Node12</title>
<g id="a_node12"><a xlink:href="ParObserver_8hpp.html" target="_top" xlink:title="ParObserver class. ">
<polygon fill="white" stroke="black" points="418,-123.5 418,-142.5 592,-142.5 592,-123.5 418,-123.5"/>
<text text-anchor="middle" x="505" y="-130.5" font-family="Helvetica,sans-Serif" font-size="10.00">Core/FunctionTree/ParObserver.hpp</text>
</a>
</g>
</g>
<!-- Node9&#45;&gt;Node12 -->
<g id="edge17" class="edge"><title>Node9&#45;&gt;Node12</title>
<path fill="none" stroke="midnightblue" d="M426.942,-179.324C441.585,-170.822 464.134,-157.729 481.238,-147.797"/>
<polygon fill="midnightblue" stroke="midnightblue" points="483.205,-150.703 490.095,-142.655 479.69,-144.649 483.205,-150.703"/>
</g>
<!-- Node11&#45;&gt;Node6 -->
<g id="edge16" class="edge"><title>Node11&#45;&gt;Node6</title>
<path fill="none" stroke="midnightblue" d="M330.749,-123.475C341.854,-115.417 358.935,-103.023 373.473,-92.4741"/>
<polygon fill="midnightblue" stroke="midnightblue" points="375.636,-95.2287 381.674,-86.523 371.525,-89.5631 375.636,-95.2287"/>
</g>
<!-- Node11&#45;&gt;Node10 -->
<g id="edge15" class="edge"><title>Node11&#45;&gt;Node10</title>
<path fill="none" stroke="midnightblue" d="M353.673,-123.475C398.994,-112.332 478.03,-92.8997 524.321,-81.5182"/>
<polygon fill="midnightblue" stroke="midnightblue" points="525.358,-84.8674 534.233,-79.081 523.687,-78.0699 525.358,-84.8674"/>
</g>
</g>
</svg>
