<?xml version="1.0" encoding="UTF-8" standalone="no"?>
<!DOCTYPE svg PUBLIC "-//W3C//DTD SVG 1.1//EN"
 "http://www.w3.org/Graphics/SVG/1.1/DTD/svg11.dtd">
<!-- Generated by graphviz version 2.38.0 (20140413.2041)
 -->
<!-- Title: Core/FunctionTree/FitParameter.hpp Pages: 1 -->
<!--zoomable 218 -->
<svg id="main" version="1.1" xmlns="http://www.w3.org/2000/svg" xmlns:xlink="http://www.w3.org/1999/xlink" xml:space="preserve" onload="init(evt)">
<style type="text/css"><![CDATA[
.edge:hover path { stroke: red; }
.edge:hover polygon { stroke: red; fill: red; }
]]></style>
<script type="text/javascript"><![CDATA[
var edges = document.getElementsByTagName('g');
if (edges && edges.length) {
  for (var i=0;i<edges.length;i++) {
    if (edges[i].id.substr(0,4)=='edge') {
      edges[i].setAttribute('class','edge');
    }
  }
}
]]></script>
        <defs>
                <circle id="rim" cx="0" cy="0" r="7"/>
                <circle id="rim2" cx="0" cy="0" r="3.5"/>
                <g id="zoomPlus">
                        <use xlink:href="#rim" fill="#404040">
                                <set attributeName="fill" to="#808080" begin="zoomplus.mouseover" end="zoomplus.mouseout"/>
                        </use>
                        <path d="M-4,0h8M0,-4v8" fill="none" stroke="white" stroke-width="1.5" pointer-events="none"/>
                </g>
                <g id="zoomMin">
                        <use xlink:href="#rim" fill="#404040">
                                <set attributeName="fill" to="#808080" begin="zoomminus.mouseover" end="zoomminus.mouseout"/>
                        </use>
                        <path d="M-4,0h8" fill="none" stroke="white" stroke-width="1.5" pointer-events="none"/>
                </g>
                <g id="dirArrow">
                        <path fill="none" stroke="white" stroke-width="1.5" d="M0,-3.0v7 M-2.5,-0.5L0,-3.0L2.5,-0.5"/>
                </g>
               <g id="resetDef">
                       <use xlink:href="#rim2" fill="#404040">
                               <set attributeName="fill" to="#808080" begin="reset.mouseover" end="reset.mouseout"/>
                       </use>
               </g>
        </defs>

<script type="text/javascript">
var viewWidth = 1707;
var viewHeight = 218;
var sectionId = 'dynsection-0';
</script>
<script xlink:href="svgpan.js"/>
<svg id="graph" class="graph">
<g id="viewport">
<title>Core/FunctionTree/FitParameter.hpp</title>
<polygon fill="white" stroke="none" points="-4,4 -4,-214 1702.5,-214 1702.5,4 -4,4"/>
<!-- Node1 -->
<g id="node1" class="node"><title>Node1</title>
<polygon fill="#bfbfbf" stroke="black" points="697,-190.5 697,-209.5 873,-209.5 873,-190.5 697,-190.5"/>
<text text-anchor="middle" x="785" y="-197.5" font-family="Helvetica,sans-Serif" font-size="10.00">Core/FunctionTree/FitParameter.hpp</text>
</g>
<!-- Node2 -->
<g id="node2" class="node"><title>Node2</title>
<polygon fill="white" stroke="#bfbfbf" points="0,-129 0,-148 44,-148 44,-129 0,-129"/>
<text text-anchor="middle" x="22" y="-136" font-family="Helvetica,sans-Serif" font-size="10.00">cmath</text>
</g>
<!-- Node1&#45;&gt;Node2 -->
<g id="edge1" class="edge"><title>Node1&#45;&gt;Node2</title>
<path fill="none" stroke="midnightblue" d="M696.758,-197.701C529.496,-194.559 172.372,-184.411 53,-154 51.0136,-153.494 48.9996,-152.861 47.0015,-152.144"/>
<polygon fill="midnightblue" stroke="midnightblue" points="47.9188,-148.733 37.3449,-148.066 45.1955,-155.181 47.9188,-148.733"/>
</g>
<!-- Node3 -->
<g id="node3" class="node"><title>Node3</title>
<polygon fill="white" stroke="#bfbfbf" points="712.5,-62 712.5,-81 765.5,-81 765.5,-62 712.5,-62"/>
<text text-anchor="middle" x="739" y="-69" font-family="Helvetica,sans-Serif" font-size="10.00">complex</text>
</g>
<!-- Node1&#45;&gt;Node3 -->
<g id="edge2" class="edge"><title>Node1&#45;&gt;Node3</title>
<path fill="none" stroke="midnightblue" d="M775.584,-190.35C767.099,-181.949 755.055,-168.385 749,-154 740.552,-133.93 738.625,-108.795 738.445,-91.7842"/>
<polygon fill="midnightblue" stroke="midnightblue" points="741.948,-91.4998 738.541,-81.4677 734.948,-91.4348 741.948,-91.4998"/>
</g>
<!-- Node4 -->
<g id="node4" class="node"><title>Node4</title>
<polygon fill="white" stroke="#bfbfbf" points="940,-129 940,-148 994,-148 994,-129 940,-129"/>
<text text-anchor="middle" x="967" y="-136" font-family="Helvetica,sans-Serif" font-size="10.00">iostream</text>
</g>
<!-- Node1&#45;&gt;Node4 -->
<g id="edge3" class="edge"><title>Node1&#45;&gt;Node4</title>
<path fill="none" stroke="midnightblue" d="M815.442,-190.426C845.147,-181.87 891.504,-168.013 931,-154 932.905,-153.324 934.858,-152.607 936.821,-151.869"/>
<polygon fill="midnightblue" stroke="midnightblue" points="938.504,-154.97 946.553,-148.081 935.964,-148.447 938.504,-154.97"/>
</g>
<!-- Node5 -->
<g id="node5" class="node"><title>Node5</title>
<polygon fill="white" stroke="#bfbfbf" points="1012,-129 1012,-148 1064,-148 1064,-129 1012,-129"/>
<text text-anchor="middle" x="1038" y="-136" font-family="Helvetica,sans-Serif" font-size="10.00">sstream</text>
</g>
<!-- Node1&#45;&gt;Node5 -->
<g id="edge4" class="edge"><title>Node1&#45;&gt;Node5</title>
<path fill="none" stroke="midnightblue" d="M840.83,-190.472C885.312,-182.965 948.883,-170.631 1003,-154 1005.15,-153.341 1007.34,-152.599 1009.53,-151.81"/>
<polygon fill="midnightblue" stroke="midnightblue" points="1010.93,-155.024 1018.98,-148.143 1008.39,-148.498 1010.93,-155.024"/>
</g>
<!-- Node6 -->
<g id="node6" class="node"><title>Node6</title>
<polygon fill="white" stroke="#bfbfbf" points="1082.5,-129 1082.5,-148 1141.5,-148 1141.5,-129 1082.5,-129"/>
<text text-anchor="middle" x="1112" y="-136" font-family="Helvetica,sans-Serif" font-size="10.00">stdexcept</text>
</g>
<!-- Node1&#45;&gt;Node6 -->
<g id="edge5" class="edge"><title>Node1&#45;&gt;Node6</title>
<path fill="none" stroke="midnightblue" d="M868.148,-190.495C926.166,-183.473 1005.06,-171.744 1073,-154 1075.82,-153.264 1078.71,-152.4 1081.6,-151.467"/>
<polygon fill="midnightblue" stroke="midnightblue" points="1082.91,-154.715 1091.2,-148.113 1080.6,-148.107 1082.91,-154.715"/>
</g>
<!-- Node7 -->
<g id="node7" class="node"><title>Node7</title>
<polygon fill="white" stroke="#bfbfbf" points="285.5,-0.5 285.5,-19.5 326.5,-19.5 326.5,-0.5 285.5,-0.5"/>
<text text-anchor="middle" x="306" y="-7.5" font-family="Helvetica,sans-Serif" font-size="10.00">string</text>
</g>
<!-- Node1&#45;&gt;Node7 -->
<g id="edge6" class="edge"><title>Node1&#45;&gt;Node7</title>
<path fill="none" stroke="midnightblue" d="M696.83,-195.928C551.065,-188.664 270.55,-164.685 217,-87 209.18,-75.6562 209.783,-67.7363 217,-56 229.647,-35.4342 254.922,-23.9214 275.316,-17.7011"/>
<polygon fill="midnightblue" stroke="midnightblue" points="276.444,-21.0207 285.15,-14.9834 274.579,-14.2736 276.444,-21.0207"/>
</g>
<!-- Node8 -->
<g id="node8" class="node"><title>Node8</title>
<polygon fill="white" stroke="#bfbfbf" points="1159.5,-123.5 1159.5,-153.5 1260.5,-153.5 1260.5,-123.5 1159.5,-123.5"/>
<text text-anchor="start" x="1167.5" y="-141.5" font-family="Helvetica,sans-Serif" font-size="10.00">boost/property_tree</text>
<text text-anchor="middle" x="1210" y="-130.5" font-family="Helvetica,sans-Serif" font-size="10.00">/ptree_fwd.hpp</text>
</g>
<!-- Node1&#45;&gt;Node8 -->
<g id="edge7" class="edge"><title>Node1&#45;&gt;Node8</title>
<path fill="none" stroke="midnightblue" d="M873.191,-190.983C944.992,-183.796 1049.12,-171.878 1149.35,-153.98"/>
<polygon fill="midnightblue" stroke="midnightblue" points="1150.13,-157.396 1159.35,-152.172 1148.88,-150.507 1150.13,-157.396"/>
</g>
<!-- Node9 -->
<g id="node9" class="node"><title>Node9</title>
<polygon fill="white" stroke="#bfbfbf" points="1278.5,-123.5 1278.5,-153.5 1373.5,-153.5 1373.5,-123.5 1278.5,-123.5"/>
<text text-anchor="start" x="1286.5" y="-141.5" font-family="Helvetica,sans-Serif" font-size="10.00">boost/serialization</text>
<text text-anchor="middle" x="1326" y="-130.5" font-family="Helvetica,sans-Serif" font-size="10.00">/utility.hpp</text>
</g>
<!-- Node1&#45;&gt;Node9 -->
<g id="edge8" class="edge"><title>Node1&#45;&gt;Node9</title>
<path fill="none" stroke="midnightblue" d="M873.179,-195.086C968.612,-189.883 1125.32,-178.535 1268.6,-154.073"/>
<polygon fill="midnightblue" stroke="midnightblue" points="1269.2,-157.522 1278.45,-152.366 1268,-150.624 1269.2,-157.522"/>
</g>
<!-- Node10 -->
<g id="node10" class="node"><title>Node10</title>
<g id="a_node10"><a xlink:href="Exceptions_8hpp.html" target="_top" xlink:title="ComPWA exceptions. ">
<polygon fill="white" stroke="black" points="62,-129 62,-148 170,-148 170,-129 62,-129"/>
<text text-anchor="middle" x="116" y="-136" font-family="Helvetica,sans-Serif" font-size="10.00">Core/Exceptions.hpp</text>
</a>
</g>
</g>
<!-- Node1&#45;&gt;Node10 -->
<g id="edge9" class="edge"><title>Node1&#45;&gt;Node10</title>
<path fill="none" stroke="midnightblue" d="M696.757,-196.131C579.241,-191.458 365.123,-179.97 184,-154 176.689,-152.952 168.988,-151.576 161.501,-150.09"/>
<polygon fill="midnightblue" stroke="midnightblue" points="161.984,-146.615 151.482,-148.014 160.564,-153.47 161.984,-146.615"/>
</g>
<!-- Node12 -->
<g id="node12" class="node"><title>Node12</title>
<g id="a_node12"><a xlink:href="FitParameter_8hpp.html" target="_top" xlink:title="Core/FitParameter.hpp">
<polygon fill="white" stroke="black" points="402,-129 402,-148 518,-148 518,-129 402,-129"/>
<text text-anchor="middle" x="460" y="-136" font-family="Helvetica,sans-Serif" font-size="10.00">Core/FitParameter.hpp</text>
</a>
</g>
</g>
<!-- Node1&#45;&gt;Node12 -->
<g id="edge12" class="edge"><title>Node1&#45;&gt;Node12</title>
<path fill="none" stroke="midnightblue" d="M738.435,-190.475C679.911,-179.761 579.524,-161.382 516.621,-149.866"/>
<polygon fill="midnightblue" stroke="midnightblue" points="516.945,-146.367 506.478,-148.009 515.684,-153.253 516.945,-146.367"/>
</g>
<!-- Node15 -->
<g id="node15" class="node"><title>Node15</title>
<g id="a_node15"><a xlink:href="Logging_8hpp.html" target="_top" xlink:title="Core/Logging.hpp">
<polygon fill="white" stroke="red" points="488.5,-62 488.5,-81 581.5,-81 581.5,-62 488.5,-62"/>
<text text-anchor="middle" x="535" y="-69" font-family="Helvetica,sans-Serif" font-size="10.00">Core/Logging.hpp</text>
</a>
</g>
</g>
<!-- Node1&#45;&gt;Node15 -->
<g id="edge34" class="edge"><title>Node1&#45;&gt;Node15</title>
<path fill="none" stroke="midnightblue" d="M767.816,-190.305C724.807,-168.542 612.303,-111.615 561.079,-85.6958"/>
<polygon fill="midnightblue" stroke="midnightblue" points="562.476,-82.4804 551.973,-81.0884 559.316,-88.7264 562.476,-82.4804"/>
</g>
<!-- Node18 -->
<g id="node18" class="node"><title>Node18</title>
<g id="a_node18"><a xlink:href="Parameter_8hpp.html" target="_top" xlink:title="Parameter base class. ">
<polygon fill="white" stroke="black" points="758,-129 758,-148 922,-148 922,-129 758,-129"/>
<text text-anchor="middle" x="840" y="-136" font-family="Helvetica,sans-Serif" font-size="10.00">Core/FunctionTree/Parameter.hpp</text>
</a>
</g>
</g>
<!-- Node1&#45;&gt;Node18 -->
<g id="edge21" class="edge"><title>Node1&#45;&gt;Node18</title>
<path fill="none" stroke="midnightblue" d="M792.88,-190.475C801.294,-181.373 814.819,-166.741 825.226,-155.483"/>
<polygon fill="midnightblue" stroke="midnightblue" points="827.917,-157.728 832.134,-148.009 822.776,-152.977 827.917,-157.728"/>
</g>
<!-- Node10&#45;&gt;Node7 -->
<g id="edge11" class="edge"><title>Node10&#45;&gt;Node7</title>
<path fill="none" stroke="midnightblue" d="M110.41,-128.802C100.781,-112.606 83.6877,-77.5247 101,-56 122.48,-29.2933 223.089,-17.5373 274.934,-13.1807"/>
<polygon fill="midnightblue" stroke="midnightblue" points="275.521,-16.6451 285.211,-12.3606 274.964,-9.66724 275.521,-16.6451"/>
</g>
<!-- Node11 -->
<g id="node11" class="node"><title>Node11</title>
<polygon fill="white" stroke="#bfbfbf" points="110.5,-62 110.5,-81 169.5,-81 169.5,-62 110.5,-62"/>
<text text-anchor="middle" x="140" y="-69" font-family="Helvetica,sans-Serif" font-size="10.00">exception</text>
</g>
<!-- Node10&#45;&gt;Node11 -->
<g id="edge10" class="edge"><title>Node10&#45;&gt;Node11</title>
<path fill="none" stroke="midnightblue" d="M119.237,-128.734C122.835,-118.988 128.746,-102.981 133.342,-90.5318"/>
<polygon fill="midnightblue" stroke="midnightblue" points="136.634,-91.7206 136.815,-81.1273 130.067,-89.2959 136.634,-91.7206"/>
</g>
<!-- Node12&#45;&gt;Node7 -->
<g id="edge18" class="edge"><title>Node12&#45;&gt;Node7</title>
<path fill="none" stroke="midnightblue" d="M403.454,-128.937C376.171,-121.998 345.084,-109.492 325,-87 311.016,-71.3392 306.988,-46.9294 305.994,-30.0173"/>
<polygon fill="midnightblue" stroke="midnightblue" points="309.484,-29.6046 305.705,-19.7064 302.487,-29.8004 309.484,-29.6046"/>
</g>
<!-- Node13 -->
<g id="node13" class="node"><title>Node13</title>
<g id="a_node13"><a xlink:href="Function_8hpp.html" target="_top" xlink:title="Core/Function.hpp">
<polygon fill="white" stroke="red" points="334.5,-62 334.5,-81 431.5,-81 431.5,-62 334.5,-62"/>
<text text-anchor="middle" x="383" y="-69" font-family="Helvetica,sans-Serif" font-size="10.00">Core/Function.hpp</text>
</a>
</g>
</g>
<!-- Node12&#45;&gt;Node13 -->
<g id="edge13" class="edge"><title>Node12&#45;&gt;Node13</title>
<path fill="none" stroke="midnightblue" d="M449.615,-128.734C437.146,-118.208 416.026,-100.379 400.908,-87.6174"/>
<polygon fill="midnightblue" stroke="midnightblue" points="403.119,-84.9034 393.22,-81.1273 398.604,-90.2524 403.119,-84.9034"/>
</g>
<!-- Node14 -->
<g id="node14" class="node"><title>Node14</title>
<polygon fill="white" stroke="#bfbfbf" points="438,-0.5 438,-19.5 482,-19.5 482,-0.5 438,-0.5"/>
<text text-anchor="middle" x="460" y="-7.5" font-family="Helvetica,sans-Serif" font-size="10.00">vector</text>
</g>
<!-- Node12&#45;&gt;Node14 -->
<g id="edge19" class="edge"><title>Node12&#45;&gt;Node14</title>
<path fill="none" stroke="midnightblue" d="M460,-128.805C460,-108.494 460,-57.5532 460,-29.7768"/>
<polygon fill="midnightblue" stroke="midnightblue" points="463.5,-29.7557 460,-19.7557 456.5,-29.7557 463.5,-29.7557"/>
</g>
<!-- Node12&#45;&gt;Node15 -->
<g id="edge16" class="edge"><title>Node12&#45;&gt;Node15</title>
<path fill="none" stroke="midnightblue" d="M470.115,-128.734C482.148,-118.305 502.451,-100.709 517.146,-87.9732"/>
<polygon fill="midnightblue" stroke="midnightblue" points="519.781,-90.3216 525.045,-81.1273 515.196,-85.0317 519.781,-90.3216"/>
</g>
<!-- Node16 -->
<g id="node16" class="node"><title>Node16</title>
<polygon fill="white" stroke="#bfbfbf" points="226,-62 226,-81 278,-81 278,-62 226,-62"/>
<text text-anchor="middle" x="252" y="-69" font-family="Helvetica,sans-Serif" font-size="10.00">ostream</text>
</g>
<!-- Node12&#45;&gt;Node16 -->
<g id="edge17" class="edge"><title>Node12&#45;&gt;Node16</title>
<path fill="none" stroke="midnightblue" d="M429.797,-128.971C396.044,-119.313 339.848,-102.85 292,-87 289.458,-86.158 286.834,-85.2637 284.202,-84.3488"/>
<polygon fill="midnightblue" stroke="midnightblue" points="285.363,-81.047 274.769,-81.0021 283.023,-87.6442 285.363,-81.047"/>
</g>
<!-- Node17 -->
<g id="node17" class="node"><title>Node17</title>
<polygon fill="white" stroke="#bfbfbf" points="599.5,-56.5 599.5,-86.5 694.5,-86.5 694.5,-56.5 599.5,-56.5"/>
<text text-anchor="start" x="607.5" y="-74.5" font-family="Helvetica,sans-Serif" font-size="10.00">boost/serialization</text>
<text text-anchor="middle" x="647" y="-63.5" font-family="Helvetica,sans-Serif" font-size="10.00">/nvp.hpp</text>
</g>
<!-- Node12&#45;&gt;Node17 -->
<g id="edge20" class="edge"><title>Node12&#45;&gt;Node17</title>
<path fill="none" stroke="midnightblue" d="M484.832,-128.869C513.257,-118.988 560.551,-102.549 596.751,-89.9662"/>
<polygon fill="midnightblue" stroke="midnightblue" points="598.346,-93.1174 606.642,-86.5281 596.048,-86.5054 598.346,-93.1174"/>
</g>
<!-- Node13&#45;&gt;Node7 -->
<g id="edge14" class="edge"><title>Node13&#45;&gt;Node7</title>
<path fill="none" stroke="midnightblue" d="M371.968,-61.9751C359.732,-52.5199 339.771,-37.0961 325.007,-25.6871"/>
<polygon fill="midnightblue" stroke="midnightblue" points="327.065,-22.8541 317.012,-19.5091 322.785,-28.3931 327.065,-22.8541"/>
</g>
<!-- Node13&#45;&gt;Node14 -->
<g id="edge15" class="edge"><title>Node13&#45;&gt;Node14</title>
<path fill="none" stroke="midnightblue" d="M394.032,-61.9751C406.268,-52.5199 426.229,-37.0961 440.993,-25.6871"/>
<polygon fill="midnightblue" stroke="midnightblue" points="443.215,-28.3931 448.988,-19.5091 438.935,-22.8541 443.215,-28.3931"/>
</g>
<!-- Node18&#45;&gt;Node3 -->
<g id="edge23" class="edge"><title>Node18&#45;&gt;Node3</title>
<path fill="none" stroke="midnightblue" d="M826.379,-128.734C809.569,-117.916 780.772,-99.3832 760.856,-86.5659"/>
<polygon fill="midnightblue" stroke="midnightblue" points="762.709,-83.5959 752.406,-81.1273 758.92,-89.4823 762.709,-83.5959"/>
</g>
<!-- Node18&#45;&gt;Node7 -->
<g id="edge26" class="edge"><title>Node18&#45;&gt;Node7</title>
<path fill="none" stroke="midnightblue" d="M834.21,-128.743C821.3,-109.513 790.039,-64.6165 774,-56 754.683,-45.6223 437.951,-20.9531 336.795,-13.3028"/>
<polygon fill="midnightblue" stroke="midnightblue" points="336.856,-9.79755 326.621,-12.5359 336.329,-16.7777 336.856,-9.79755"/>
</g>
<!-- Node18&#45;&gt;Node14 -->
<g id="edge27" class="edge"><title>Node18&#45;&gt;Node14</title>
<path fill="none" stroke="midnightblue" d="M839.396,-128.929C837.704,-111.978 831.369,-74.2352 808,-56 759.263,-17.9694 569.079,-11.9561 492.355,-11.097"/>
<polygon fill="midnightblue" stroke="midnightblue" points="492.34,-7.59682 482.309,-11.0072 492.277,-14.5965 492.34,-7.59682"/>
</g>
<!-- Node18&#45;&gt;Node17 -->
<g id="edge30" class="edge"><title>Node18&#45;&gt;Node17</title>
<path fill="none" stroke="midnightblue" d="M814.371,-128.869C784.909,-118.946 735.805,-102.408 698.383,-89.8051"/>
<polygon fill="midnightblue" stroke="midnightblue" points="699.247,-86.4029 688.653,-86.5281 697.012,-93.0368 699.247,-86.4029"/>
</g>
<!-- Node19 -->
<g id="node19" class="node"><title>Node19</title>
<polygon fill="white" stroke="#bfbfbf" points="860,-62 860,-81 916,-81 916,-62 860,-62"/>
<text text-anchor="middle" x="888" y="-69" font-family="Helvetica,sans-Serif" font-size="10.00">algorithm</text>
</g>
<!-- Node18&#45;&gt;Node19 -->
<g id="edge22" class="edge"><title>Node18&#45;&gt;Node19</title>
<path fill="none" stroke="midnightblue" d="M846.473,-128.734C853.887,-118.695 866.205,-102.014 875.504,-89.4213"/>
<polygon fill="midnightblue" stroke="midnightblue" points="878.504,-91.2508 881.629,-81.1273 872.873,-87.0925 878.504,-91.2508"/>
</g>
<!-- Node20 -->
<g id="node20" class="node"><title>Node20</title>
<polygon fill="white" stroke="#bfbfbf" points="934,-62 934,-81 984,-81 984,-62 934,-62"/>
<text text-anchor="middle" x="959" y="-69" font-family="Helvetica,sans-Serif" font-size="10.00">fstream</text>
</g>
<!-- Node18&#45;&gt;Node20 -->
<g id="edge24" class="edge"><title>Node18&#45;&gt;Node20</title>
<path fill="none" stroke="midnightblue" d="M856.049,-128.734C876.122,-117.769 910.703,-98.8809 934.194,-86.0495"/>
<polygon fill="midnightblue" stroke="midnightblue" points="936.107,-88.9927 943.205,-81.1273 932.751,-82.8494 936.107,-88.9927"/>
</g>
<!-- Node21 -->
<g id="node21" class="node"><title>Node21</title>
<polygon fill="white" stroke="#bfbfbf" points="1002,-62 1002,-81 1054,-81 1054,-62 1002,-62"/>
<text text-anchor="middle" x="1028" y="-69" font-family="Helvetica,sans-Serif" font-size="10.00">memory</text>
</g>
<!-- Node18&#45;&gt;Node21 -->
<g id="edge25" class="edge"><title>Node18&#45;&gt;Node21</title>
<path fill="none" stroke="midnightblue" d="M867.854,-128.988C898.683,-119.408 949.737,-103.077 993,-87 994.85,-86.3127 996.746,-85.5874 998.654,-84.8423"/>
<polygon fill="midnightblue" stroke="midnightblue" points="1000.14,-88.0171 1008.11,-81.0381 997.528,-81.5228 1000.14,-88.0171"/>
</g>
<!-- Node22 -->
<g id="node22" class="node"><title>Node22</title>
<g id="a_node22"><a xlink:href="ParObserver_8hpp.html" target="_top" xlink:title="ParObserver class. ">
<polygon fill="white" stroke="black" points="1072,-62 1072,-81 1246,-81 1246,-62 1072,-62"/>
<text text-anchor="middle" x="1159" y="-69" font-family="Helvetica,sans-Serif" font-size="10.00">Core/FunctionTree/ParObserver.hpp</text>
</a>
</g>
</g>
<!-- Node18&#45;&gt;Node22 -->
<g id="edge28" class="edge"><title>Node18&#45;&gt;Node22</title>
<path fill="none" stroke="midnightblue" d="M882.032,-128.936C939.967,-117.131 1044.3,-95.8716 1107.05,-83.0853"/>
<polygon fill="midnightblue" stroke="midnightblue" points="1108.03,-86.4579 1117.13,-81.0317 1106.63,-79.5989 1108.03,-86.4579"/>
</g>
<!-- Node23 -->
<g id="node23" class="node"><title>Node23</title>
<polygon fill="white" stroke="#bfbfbf" points="1264.5,-56.5 1264.5,-86.5 1359.5,-86.5 1359.5,-56.5 1264.5,-56.5"/>
<text text-anchor="start" x="1272.5" y="-74.5" font-family="Helvetica,sans-Serif" font-size="10.00">boost/serialization</text>
<text text-anchor="middle" x="1312" y="-63.5" font-family="Helvetica,sans-Serif" font-size="10.00">/level.hpp</text>
</g>
<!-- Node18&#45;&gt;Node23 -->
<g id="edge29" class="edge"><title>Node18&#45;&gt;Node23</title>
<path fill="none" stroke="midnightblue" d="M890.954,-128.945C903.991,-126.876 918,-124.757 931,-123 1071.36,-104.031 1110.7,-112.517 1254.16,-86.9826"/>
<polygon fill="midnightblue" stroke="midnightblue" points="1254.99,-90.3883 1264.21,-85.1679 1253.75,-83.4995 1254.99,-90.3883"/>
</g>
<!-- Node24 -->
<g id="node24" class="node"><title>Node24</title>
<polygon fill="white" stroke="#bfbfbf" points="1377.5,-56.5 1377.5,-86.5 1472.5,-86.5 1472.5,-56.5 1377.5,-56.5"/>
<text text-anchor="start" x="1385.5" y="-74.5" font-family="Helvetica,sans-Serif" font-size="10.00">boost/serialization</text>
<text text-anchor="middle" x="1425" y="-63.5" font-family="Helvetica,sans-Serif" font-size="10.00">/serialization.hpp</text>
</g>
<!-- Node18&#45;&gt;Node24 -->
<g id="edge31" class="edge"><title>Node18&#45;&gt;Node24</title>
<path fill="none" stroke="midnightblue" d="M889.02,-128.989C902.589,-126.824 917.341,-124.647 931,-123 1121.7,-100.004 1174.67,-118.948 1367.57,-87.0596"/>
<polygon fill="midnightblue" stroke="midnightblue" points="1368.18,-90.5068 1377.46,-85.4007 1367.02,-83.6032 1368.18,-90.5068"/>
</g>
<!-- Node25 -->
<g id="node25" class="node"><title>Node25</title>
<polygon fill="white" stroke="#bfbfbf" points="1490.5,-56.5 1490.5,-86.5 1585.5,-86.5 1585.5,-56.5 1490.5,-56.5"/>
<text text-anchor="start" x="1498.5" y="-74.5" font-family="Helvetica,sans-Serif" font-size="10.00">boost/serialization</text>
<text text-anchor="middle" x="1538" y="-63.5" font-family="Helvetica,sans-Serif" font-size="10.00">/shared_ptr.hpp</text>
</g>
<!-- Node18&#45;&gt;Node25 -->
<g id="edge32" class="edge"><title>Node18&#45;&gt;Node25</title>
<path fill="none" stroke="midnightblue" d="M888.058,-128.988C901.884,-126.772 917.009,-124.568 931,-123 1171.55,-96.036 1237.89,-125.113 1480.29,-87.0768"/>
<polygon fill="midnightblue" stroke="midnightblue" points="1481.14,-90.4846 1490.47,-85.4561 1480.04,-83.5716 1481.14,-90.4846"/>
</g>
<!-- Node26 -->
<g id="node26" class="node"><title>Node26</title>
<polygon fill="white" stroke="#bfbfbf" points="1603.5,-56.5 1603.5,-86.5 1698.5,-86.5 1698.5,-56.5 1603.5,-56.5"/>
<text text-anchor="start" x="1611.5" y="-74.5" font-family="Helvetica,sans-Serif" font-size="10.00">boost/serialization</text>
<text text-anchor="middle" x="1651" y="-63.5" font-family="Helvetica,sans-Serif" font-size="10.00">/tracking.hpp</text>
</g>
<!-- Node18&#45;&gt;Node26 -->
<g id="edge33" class="edge"><title>Node18&#45;&gt;Node26</title>
<path fill="none" stroke="midnightblue" d="M887.576,-128.964C901.529,-126.72 916.842,-124.508 931,-123 1221.58,-92.0565 1301.16,-131.363 1593.43,-87.0357"/>
<polygon fill="midnightblue" stroke="midnightblue" points="1594.12,-90.4709 1603.48,-85.4927 1593.06,-83.5521 1594.12,-90.4709"/>
</g>
</g>
</svg>
        <g id="navigator" transform="translate(0 0)" fill="#404254">
                <rect fill="#f2f5e9" fill-opacity="0.5" stroke="#606060" stroke-width=".5" x="0" y="0" width="60" height="60"/>
                <use id="zoomplus" xlink:href="#zoomPlus" x="17" y="9" onmousedown="handleZoom(evt,'in')"/>
                <use id="zoomminus" xlink:href="#zoomMin" x="42" y="9" onmousedown="handleZoom(evt,'out')"/>
                <use id="reset" xlink:href="#resetDef" x="30" y="36" onmousedown="handleReset()"/>
                <g id="arrowUp" xlink:href="#dirArrow" transform="translate(30 24)" onmousedown="handlePan(0,-1)">
                  <use xlink:href="#rim" fill="#404040">
                        <set attributeName="fill" to="#808080" begin="arrowUp.mouseover" end="arrowUp.mouseout"/>
                  </use>
                  <path fill="none" stroke="white" stroke-width="1.5" d="M0,-3.0v7 M-2.5,-0.5L0,-3.0L2.5,-0.5"/>
                </g>
                <g id="arrowRight" xlink:href="#dirArrow" transform="rotate(90) translate(36 -43)" onmousedown="handlePan(1,0)">
                  <use xlink:href="#rim" fill="#404040">
                        <set attributeName="fill" to="#808080" begin="arrowRight.mouseover" end="arrowRight.mouseout"/>
                  </use>
                  <path fill="none" stroke="white" stroke-width="1.5" d="M0,-3.0v7 M-2.5,-0.5L0,-3.0L2.5,-0.5"/>
                </g>
                <g id="arrowDown" xlink:href="#dirArrow" transform="rotate(180) translate(-30 -48)" onmousedown="handlePan(0,1)">
                  <use xlink:href="#rim" fill="#404040">
                        <set attributeName="fill" to="#808080" begin="arrowDown.mouseover" end="arrowDown.mouseout"/>
                  </use>
                  <path fill="none" stroke="white" stroke-width="1.5" d="M0,-3.0v7 M-2.5,-0.5L0,-3.0L2.5,-0.5"/>
                </g>
                <g id="arrowLeft" xlink:href="#dirArrow" transform="rotate(270) translate(-36 17)" onmousedown="handlePan(-1,0)">
                  <use xlink:href="#rim" fill="#404040">
                        <set attributeName="fill" to="#808080" begin="arrowLeft.mouseover" end="arrowLeft.mouseout"/>
                  </use>
                  <path fill="none" stroke="white" stroke-width="1.5" d="M0,-3.0v7 M-2.5,-0.5L0,-3.0L2.5,-0.5"/>
                </g>
        </g>
        <svg viewBox="0 0 15 15" width="100%" height="30px" preserveAspectRatio="xMaxYMin meet">
         <g id="arrow_out" transform="scale(0.3 0.3)">
          <a xlink:href="FunctionTree_2FitParameter_8hpp__incl_org.svg" target="_base">
           <rect id="button" ry="5" rx="5" y="6" x="6" height="38" width="38"
                fill="#f2f5e9" fill-opacity="0.5" stroke="#606060" stroke-width="1.0"/>
           <path id="arrow"
             d="M 11.500037,31.436501 C 11.940474,20.09759 22.043105,11.32322 32.158766,21.979434 L 37.068811,17.246167 C 37.068811,17.246167 37.088388,32 37.088388,32 L 22.160133,31.978069 C 22.160133,31.978069 26.997745,27.140456 26.997745,27.140456 C 18.528582,18.264221 13.291696,25.230495 11.500037,31.436501 z"
             style="fill:#404040;"/>
          </a>
         </g>
        </svg>
</svg>
