<?xml version="1.0" encoding="UTF-8" standalone="no"?>
<!DOCTYPE svg PUBLIC "-//W3C//DTD SVG 1.1//EN"
 "http://www.w3.org/Graphics/SVG/1.1/DTD/svg11.dtd">
<!-- Generated by graphviz version 2.38.0 (20140413.2041)
 -->
<!-- Title: Core/FunctionTree/Functions.cpp Pages: 1 -->
<svg width="378pt" height="263pt"
 viewBox="0.00 0.00 377.60 263.00" xmlns="http://www.w3.org/2000/svg" xmlns:xlink="http://www.w3.org/1999/xlink">
<g id="graph0" class="graph" transform="scale(1 1) rotate(0) translate(4 259)">
<title>Core/FunctionTree/Functions.cpp</title>
<polygon fill="white" stroke="none" points="-4,4 -4,-259 373.597,-259 373.597,4 -4,4"/>
<!-- Node1 -->
<g id="node1" class="node"><title>Node1</title>
<polygon fill="#bfbfbf" stroke="black" points="90,-235.5 90,-254.5 252,-254.5 252,-235.5 90,-235.5"/>
<text text-anchor="middle" x="171" y="-242.5" font-family="Helvetica,sans-Serif" font-size="10.00">Core/FunctionTree/Functions.cpp</text>
</g>
<!-- Node2 -->
<g id="node2" class="node"><title>Node2</title>
<polygon fill="white" stroke="#bfbfbf" points="0,-0.5 0,-19.5 44,-19.5 44,-0.5 0,-0.5"/>
<text text-anchor="middle" x="22" y="-7.5" font-family="Helvetica,sans-Serif" font-size="10.00">cmath</text>
</g>
<!-- Node1&#45;&gt;Node2 -->
<g id="edge1" class="edge"><title>Node1&#45;&gt;Node2</title>
<path fill="none" stroke="midnightblue" d="M139.568,-235.485C119.889,-228.639 95.4262,-217.115 80,-199 37.0374,-148.549 25.8818,-66.5952 22.9982,-29.8603"/>
<polygon fill="midnightblue" stroke="midnightblue" points="26.4734,-29.3676 22.3228,-19.6196 19.4886,-29.8283 26.4734,-29.3676"/>
</g>
<!-- Node3 -->
<g id="node3" class="node"><title>Node3</title>
<polygon fill="white" stroke="#bfbfbf" points="185.5,-179.5 185.5,-198.5 244.5,-198.5 244.5,-179.5 185.5,-179.5"/>
<text text-anchor="middle" x="215" y="-186.5" font-family="Helvetica,sans-Serif" font-size="10.00">functional</text>
</g>
<!-- Node1&#45;&gt;Node3 -->
<g id="edge2" class="edge"><title>Node1&#45;&gt;Node3</title>
<path fill="none" stroke="midnightblue" d="M178.266,-235.083C184.545,-227.377 193.788,-216.033 201.431,-206.653"/>
<polygon fill="midnightblue" stroke="midnightblue" points="204.266,-208.714 207.869,-198.751 198.839,-204.293 204.266,-208.714"/>
</g>
<!-- Node4 -->
<g id="node4" class="node"><title>Node4</title>
<polygon fill="white" stroke="#bfbfbf" points="262.5,-179.5 262.5,-198.5 313.5,-198.5 313.5,-179.5 262.5,-179.5"/>
<text text-anchor="middle" x="288" y="-186.5" font-family="Helvetica,sans-Serif" font-size="10.00">numeric</text>
</g>
<!-- Node1&#45;&gt;Node4 -->
<g id="edge3" class="edge"><title>Node1&#45;&gt;Node4</title>
<path fill="none" stroke="midnightblue" d="M189.539,-235.444C208.623,-226.636 238.575,-212.812 260.436,-202.722"/>
<polygon fill="midnightblue" stroke="midnightblue" points="261.935,-205.885 269.548,-198.516 259.001,-199.529 261.935,-205.885"/>
</g>
<!-- Node5 -->
<g id="node5" class="node"><title>Node5</title>
<g id="a_node5"><a xlink:href="Functions_8hpp.html" target="_top" xlink:title="This file contains Functions implementing the Strategy interface so they can be used inside a node of...">
<polygon fill="white" stroke="black" points="89,-179.5 89,-198.5 167,-198.5 167,-179.5 89,-179.5"/>
<text text-anchor="middle" x="128" y="-186.5" font-family="Helvetica,sans-Serif" font-size="10.00">Functions.hpp</text>
</a>
</g>
</g>
<!-- Node1&#45;&gt;Node5 -->
<g id="edge4" class="edge"><title>Node1&#45;&gt;Node5</title>
<path fill="none" stroke="midnightblue" d="M163.899,-235.083C157.763,-227.377 148.73,-216.033 141.261,-206.653"/>
<polygon fill="midnightblue" stroke="midnightblue" points="143.936,-204.394 134.968,-198.751 138.46,-208.754 143.936,-204.394"/>
</g>
<!-- Node6 -->
<g id="node6" class="node"><title>Node6</title>
<polygon fill="white" stroke="#bfbfbf" points="84.5,-0.5 84.5,-19.5 137.5,-19.5 137.5,-0.5 84.5,-0.5"/>
<text text-anchor="middle" x="111" y="-7.5" font-family="Helvetica,sans-Serif" font-size="10.00">complex</text>
</g>
<!-- Node5&#45;&gt;Node6 -->
<g id="edge5" class="edge"><title>Node5&#45;&gt;Node6</title>
<path fill="none" stroke="midnightblue" d="M118.882,-179.339C110.166,-170.718 97.0508,-156.815 88,-143 70.019,-115.555 64.0538,-108.044 57,-76 55.089,-67.319 53.2297,-64.0497 57,-56 63.0448,-43.0941 74.8119,-32.5985 85.8226,-24.9999"/>
<polygon fill="midnightblue" stroke="midnightblue" points="87.8276,-27.8723 94.367,-19.5364 84.0566,-21.9748 87.8276,-27.8723"/>
</g>
<!-- Node7 -->
<g id="node7" class="node"><title>Node7</title>
<polygon fill="white" stroke="#bfbfbf" points="104.5,-118 104.5,-137 151.5,-137 151.5,-118 104.5,-118"/>
<text text-anchor="middle" x="128" y="-125" font-family="Helvetica,sans-Serif" font-size="10.00">math.h</text>
</g>
<!-- Node5&#45;&gt;Node7 -->
<g id="edge6" class="edge"><title>Node5&#45;&gt;Node7</title>
<path fill="none" stroke="midnightblue" d="M128,-179.475C128,-171.08 128,-157.981 128,-147.163"/>
<polygon fill="midnightblue" stroke="midnightblue" points="131.5,-147.009 128,-137.009 124.5,-147.009 131.5,-147.009"/>
</g>
<!-- Node8 -->
<g id="node8" class="node"><title>Node8</title>
<polygon fill="white" stroke="#bfbfbf" points="304,-56.5 304,-75.5 348,-75.5 348,-56.5 304,-56.5"/>
<text text-anchor="middle" x="326" y="-63.5" font-family="Helvetica,sans-Serif" font-size="10.00">vector</text>
</g>
<!-- Node5&#45;&gt;Node8 -->
<g id="edge7" class="edge"><title>Node5&#45;&gt;Node8</title>
<path fill="none" stroke="midnightblue" d="M167.07,-180.358C223.064,-169.223 319.997,-149.19 325,-143 337.927,-127.004 335.484,-102.315 331.595,-85.4468"/>
<polygon fill="midnightblue" stroke="midnightblue" points="334.943,-84.4173 328.977,-75.6615 328.18,-86.2264 334.943,-84.4173"/>
</g>
<!-- Node9 -->
<g id="node9" class="node"><title>Node9</title>
<g id="a_node9"><a xlink:href="Exceptions_8hpp.html" target="_top" xlink:title="ComPWA exceptions. ">
<polygon fill="white" stroke="red" points="216,-0.5 216,-19.5 324,-19.5 324,-0.5 216,-0.5"/>
<text text-anchor="middle" x="270" y="-7.5" font-family="Helvetica,sans-Serif" font-size="10.00">Core/Exceptions.hpp</text>
</a>
</g>
</g>
<!-- Node5&#45;&gt;Node9 -->
<g id="edge8" class="edge"><title>Node5&#45;&gt;Node9</title>
<path fill="none" stroke="midnightblue" d="M167.412,-180.361C228.87,-168.369 340.881,-146.162 344,-143 371.454,-115.166 377.326,-89.397 357,-56 347.54,-40.4569 330.79,-30.0455 314.495,-23.1913"/>
<polygon fill="midnightblue" stroke="midnightblue" points="315.603,-19.8676 305.013,-19.5548 313.097,-26.4035 315.603,-19.8676"/>
</g>
<!-- Node10 -->
<g id="node10" class="node"><title>Node10</title>
<g id="a_node10"><a xlink:href="FunctionTree_2FitParameter_8hpp.html" target="_top" xlink:title="Implementations of Parameter for various data types. ">
<polygon fill="white" stroke="red" points="66,-56.5 66,-75.5 242,-75.5 242,-56.5 66,-56.5"/>
<text text-anchor="middle" x="154" y="-63.5" font-family="Helvetica,sans-Serif" font-size="10.00">Core/FunctionTree/FitParameter.hpp</text>
</a>
</g>
</g>
<!-- Node5&#45;&gt;Node10 -->
<g id="edge9" class="edge"><title>Node5&#45;&gt;Node10</title>
<path fill="none" stroke="midnightblue" d="M119.285,-179.439C105.93,-165.233 83.1315,-135.979 95,-112 101.603,-98.6595 114.265,-88.1941 126.171,-80.7262"/>
<polygon fill="midnightblue" stroke="midnightblue" points="128.118,-83.6435 135.016,-75.6018 124.609,-77.5866 128.118,-83.6435"/>
</g>
<!-- Node11 -->
<g id="node11" class="node"><title>Node11</title>
<g id="a_node11"><a xlink:href="ParameterList_8hpp.html" target="_top" xlink:title="ParameterList class. ">
<polygon fill="white" stroke="red" points="170,-112.5 170,-142.5 316,-142.5 316,-112.5 170,-112.5"/>
<text text-anchor="start" x="178" y="-130.5" font-family="Helvetica,sans-Serif" font-size="10.00">Core/FunctionTree/Parameter</text>
<text text-anchor="middle" x="243" y="-119.5" font-family="Helvetica,sans-Serif" font-size="10.00">List.hpp</text>
</a>
</g>
</g>
<!-- Node5&#45;&gt;Node11 -->
<g id="edge13" class="edge"><title>Node5&#45;&gt;Node11</title>
<path fill="none" stroke="midnightblue" d="M144.477,-179.475C160.707,-171.078 186.036,-157.973 206.947,-147.153"/>
<polygon fill="midnightblue" stroke="midnightblue" points="208.623,-150.227 215.897,-142.523 205.407,-144.01 208.623,-150.227"/>
</g>
<!-- Node10&#45;&gt;Node2 -->
<g id="edge10" class="edge"><title>Node10&#45;&gt;Node2</title>
<path fill="none" stroke="midnightblue" d="M133.084,-56.4435C111.264,-47.5171 76.8502,-33.4387 52.1078,-23.3168"/>
<polygon fill="midnightblue" stroke="midnightblue" points="53.3987,-20.0634 42.8179,-19.5164 50.7482,-26.5422 53.3987,-20.0634"/>
</g>
<!-- Node10&#45;&gt;Node6 -->
<g id="edge11" class="edge"><title>Node10&#45;&gt;Node6</title>
<path fill="none" stroke="midnightblue" d="M146.899,-56.083C140.763,-48.3768 131.73,-37.0333 124.261,-27.6531"/>
<polygon fill="midnightblue" stroke="midnightblue" points="126.936,-25.3936 117.968,-19.7511 121.46,-29.7542 126.936,-25.3936"/>
</g>
<!-- Node10&#45;&gt;Node9 -->
<g id="edge12" class="edge"><title>Node10&#45;&gt;Node9</title>
<path fill="none" stroke="midnightblue" d="M172.381,-56.4435C191.216,-47.6751 220.731,-33.9355 242.379,-23.8579"/>
<polygon fill="midnightblue" stroke="midnightblue" points="244.117,-26.9098 251.705,-19.5164 241.162,-20.5637 244.117,-26.9098"/>
</g>
<!-- Node11&#45;&gt;Node8 -->
<g id="edge14" class="edge"><title>Node11&#45;&gt;Node8</title>
<path fill="none" stroke="midnightblue" d="M262.67,-112.399C275.601,-103.129 292.486,-91.0254 305.568,-81.6469"/>
<polygon fill="midnightblue" stroke="midnightblue" points="307.835,-84.3287 313.923,-75.6578 303.756,-78.6395 307.835,-84.3287"/>
</g>
<!-- Node11&#45;&gt;Node9 -->
<g id="edge15" class="edge"><title>Node11&#45;&gt;Node9</title>
<path fill="none" stroke="midnightblue" d="M246.311,-112.337C251.175,-91.5271 260.261,-52.6632 265.656,-29.5834"/>
<polygon fill="midnightblue" stroke="midnightblue" points="269.105,-30.2037 267.973,-19.6695 262.289,-28.6102 269.105,-30.2037"/>
</g>
<!-- Node11&#45;&gt;Node10 -->
<g id="edge16" class="edge"><title>Node11&#45;&gt;Node10</title>
<path fill="none" stroke="midnightblue" d="M221.908,-112.399C207.909,-103.04 189.589,-90.7924 175.505,-81.3771"/>
<polygon fill="midnightblue" stroke="midnightblue" points="177.209,-78.3059 166.95,-75.6578 173.318,-84.1253 177.209,-78.3059"/>
</g>
</g>
</svg>
