<?xml version="1.0" encoding="UTF-8" standalone="no"?>
<!DOCTYPE svg PUBLIC "-//W3C//DTD SVG 1.1//EN"
 "http://www.w3.org/Graphics/SVG/1.1/DTD/svg11.dtd">
<!-- Generated by graphviz version 2.38.0 (20140413.2041)
 -->
<!-- Title: Core/FunctionTree/FunctionTreeIntensity.hpp Pages: 1 -->
<svg width="1343pt" height="173pt"
 viewBox="0.00 0.00 1343.00 173.00" xmlns="http://www.w3.org/2000/svg" xmlns:xlink="http://www.w3.org/1999/xlink">
<g id="graph0" class="graph" transform="scale(1 1) rotate(0) translate(4 169)">
<title>Core/FunctionTree/FunctionTreeIntensity.hpp</title>
<polygon fill="white" stroke="none" points="-4,4 -4,-169 1339,-169 1339,4 -4,4"/>
<!-- Node1 -->
<g id="node1" class="node"><title>Node1</title>
<polygon fill="#bfbfbf" stroke="black" points="662,-134.5 662,-164.5 800,-164.5 800,-134.5 662,-134.5"/>
<text text-anchor="start" x="670" y="-152.5" font-family="Helvetica,sans-Serif" font-size="10.00">Core/FunctionTree/Function</text>
<text text-anchor="middle" x="731" y="-141.5" font-family="Helvetica,sans-Serif" font-size="10.00">TreeIntensity.hpp</text>
</g>
<!-- Node2 -->
<g id="node2" class="node"><title>Node2</title>
<g id="a_node2"><a xlink:href="FunctionTreeIntensity_8cpp.html" target="_top" xlink:title="Core/FunctionTree/Function\lTreeIntensity.cpp">
<polygon fill="white" stroke="black" points="291,-67.5 291,-97.5 429,-97.5 429,-67.5 291,-67.5"/>
<text text-anchor="start" x="299" y="-85.5" font-family="Helvetica,sans-Serif" font-size="10.00">Core/FunctionTree/Function</text>
<text text-anchor="middle" x="360" y="-74.5" font-family="Helvetica,sans-Serif" font-size="10.00">TreeIntensity.cpp</text>
</a>
</g>
</g>
<!-- Node1&#45;&gt;Node2 -->
<g id="edge1" class="edge"><title>Node1&#45;&gt;Node2</title>
<path fill="none" stroke="midnightblue" d="M651.991,-135.171C592.994,-125.148 510.406,-110.969 438,-98 435.153,-97.49 432.248,-96.9661 429.314,-96.4341"/>
<polygon fill="midnightblue" stroke="midnightblue" points="651.542,-138.645 661.987,-136.868 652.713,-131.744 651.542,-138.645"/>
</g>
<!-- Node3 -->
<g id="node3" class="node"><title>Node3</title>
<g id="a_node3"><a xlink:href="MinLogLH_8hpp.html" target="_top" xlink:title="Estimator/MinLogLH\l/MinLogLH.hpp">
<polygon fill="white" stroke="black" points="447,-67.5 447,-97.5 553,-97.5 553,-67.5 447,-67.5"/>
<text text-anchor="start" x="455" y="-85.5" font-family="Helvetica,sans-Serif" font-size="10.00">Estimator/MinLogLH</text>
<text text-anchor="middle" x="500" y="-74.5" font-family="Helvetica,sans-Serif" font-size="10.00">/MinLogLH.hpp</text>
</a>
</g>
</g>
<!-- Node1&#45;&gt;Node3 -->
<g id="edge2" class="edge"><title>Node1&#45;&gt;Node3</title>
<path fill="none" stroke="midnightblue" d="M671.348,-131.715C633.757,-121.137 585.771,-107.635 550.148,-97.6109"/>
<polygon fill="midnightblue" stroke="midnightblue" points="670.587,-135.136 681.161,-134.476 672.483,-128.398 670.587,-135.136"/>
</g>
<!-- Node6 -->
<g id="node6" class="node"><title>Node6</title>
<g id="a_node6"><a xlink:href="DalitzFitD03K_8cpp.html" target="_top" xlink:title="Executable for Dalitz plot analysis of the decay D0 &#45;&gt; K_S K+ K&#45;. ">
<polygon fill="white" stroke="black" points="428.5,-0.5 428.5,-30.5 571.5,-30.5 571.5,-0.5 428.5,-0.5"/>
<text text-anchor="start" x="436.5" y="-18.5" font-family="Helvetica,sans-Serif" font-size="10.00">Examples/DalitzAnalysis</text>
<text text-anchor="middle" x="500" y="-7.5" font-family="Helvetica,sans-Serif" font-size="10.00">_D0KsKK/DalitzFitD03K.cpp</text>
</a>
</g>
</g>
<!-- Node1&#45;&gt;Node6 -->
<g id="edge9" class="edge"><title>Node1&#45;&gt;Node6</title>
<path fill="none" stroke="midnightblue" d="M674.595,-131.166C650.784,-122.743 623.25,-111.501 600,-98 581.152,-87.0545 578.894,-80.7713 562,-67 546.935,-54.7199 529.805,-40.768 517.374,-30.6455"/>
<polygon fill="midnightblue" stroke="midnightblue" points="673.609,-134.529 684.204,-134.486 675.895,-127.912 673.609,-134.529"/>
</g>
<!-- Node7 -->
<g id="node7" class="node"><title>Node7</title>
<g id="a_node7"><a xlink:href="DalitzFitApp_8cpp.html" target="_top" xlink:title="Simple Dalitz plot analysis with ComPWA. ">
<polygon fill="white" stroke="black" points="749,-0.5 749,-30.5 849,-30.5 849,-0.5 749,-0.5"/>
<text text-anchor="start" x="757" y="-18.5" font-family="Helvetica,sans-Serif" font-size="10.00">Examples/DalitzFit</text>
<text text-anchor="middle" x="799" y="-7.5" font-family="Helvetica,sans-Serif" font-size="10.00">/DalitzFitApp.cpp</text>
</a>
</g>
</g>
<!-- Node1&#45;&gt;Node7 -->
<g id="edge21" class="edge"><title>Node1&#45;&gt;Node7</title>
<path fill="none" stroke="midnightblue" d="M743.954,-125.707C748.774,-117.079 754.229,-107.136 759,-98 771.184,-74.6679 784.494,-47.0944 792.276,-30.7422"/>
<polygon fill="midnightblue" stroke="midnightblue" points="740.887,-124.022 739.035,-134.453 746.988,-127.453 740.887,-124.022"/>
</g>
<!-- Node9 -->
<g id="node9" class="node"><title>Node9</title>
<g id="a_node9"><a xlink:href="SimFit_8cpp.html" target="_top" xlink:title="Examples/SimFit/SimFit.cpp">
<polygon fill="white" stroke="black" points="867,-6 867,-25 1009,-25 1009,-6 867,-6"/>
<text text-anchor="middle" x="938" y="-13" font-family="Helvetica,sans-Serif" font-size="10.00">Examples/SimFit/SimFit.cpp</text>
</a>
</g>
</g>
<!-- Node1&#45;&gt;Node9 -->
<g id="edge22" class="edge"><title>Node1&#45;&gt;Node9</title>
<path fill="none" stroke="midnightblue" d="M761.775,-128.875C807.583,-99.6647 891.811,-45.9537 924.518,-25.0973"/>
<polygon fill="midnightblue" stroke="midnightblue" points="759.702,-126.046 753.153,-134.374 763.466,-131.948 759.702,-126.046"/>
</g>
<!-- Node10 -->
<g id="node10" class="node"><title>Node10</title>
<g id="a_node10"><a xlink:href="BuilderXML_8hpp.html" target="_top" xlink:title="Physics/BuilderXML.hpp">
<polygon fill="white" stroke="black" points="872,-73 872,-92 996,-92 996,-73 872,-73"/>
<text text-anchor="middle" x="934" y="-80" font-family="Helvetica,sans-Serif" font-size="10.00">Physics/BuilderXML.hpp</text>
</a>
</g>
</g>
<!-- Node1&#45;&gt;Node10 -->
<g id="edge10" class="edge"><title>Node1&#45;&gt;Node10</title>
<path fill="none" stroke="midnightblue" d="M784.815,-131.269C824.369,-118.603 876.428,-101.934 907.432,-92.007"/>
<polygon fill="midnightblue" stroke="midnightblue" points="783.504,-128.013 775.048,-134.396 785.639,-134.68 783.504,-128.013"/>
</g>
<!-- Node13 -->
<g id="node13" class="node"><title>Node13</title>
<g id="a_node13"><a xlink:href="DalitzPlot_8hpp.html" target="_top" xlink:title="Tools/Plotting/DalitzPlot.hpp">
<polygon fill="white" stroke="black" points="609.5,-73 609.5,-92 750.5,-92 750.5,-73 609.5,-73"/>
<text text-anchor="middle" x="680" y="-80" font-family="Helvetica,sans-Serif" font-size="10.00">Tools/Plotting/DalitzPlot.hpp</text>
</a>
</g>
</g>
<!-- Node1&#45;&gt;Node13 -->
<g id="edge16" class="edge"><title>Node1&#45;&gt;Node13</title>
<path fill="none" stroke="midnightblue" d="M713.594,-126.316C704.4,-114.598 693.639,-100.883 686.822,-92.1945"/>
<polygon fill="midnightblue" stroke="midnightblue" points="711.007,-128.689 719.934,-134.396 716.514,-124.368 711.007,-128.689"/>
</g>
<!-- Node15 -->
<g id="node15" class="node"><title>Node15</title>
<g id="a_node15"><a xlink:href="BOSSAdapter_8hpp.html" target="_top" xlink:title="Tools/Adapters/BOSSAdapter.hpp">
<polygon fill="white" stroke="black" points="1105,-73 1105,-92 1271,-92 1271,-73 1105,-73"/>
<text text-anchor="middle" x="1188" y="-80" font-family="Helvetica,sans-Serif" font-size="10.00">Tools/Adapters/BOSSAdapter.hpp</text>
</a>
</g>
</g>
<!-- Node1&#45;&gt;Node15 -->
<g id="edge23" class="edge"><title>Node1&#45;&gt;Node15</title>
<path fill="none" stroke="midnightblue" d="M810.345,-137.215C900.829,-124.345 1046.73,-103.593 1128.16,-92.0112"/>
<polygon fill="midnightblue" stroke="midnightblue" points="809.816,-133.755 800.408,-138.628 810.802,-140.685 809.816,-133.755"/>
</g>
<!-- Node4 -->
<g id="node4" class="node"><title>Node4</title>
<g id="a_node4"><a xlink:href="MinLogLH_8cpp.html" target="_top" xlink:title="Estimator/MinLogLH\l/MinLogLH.cpp">
<polygon fill="white" stroke="black" points="124,-0.5 124,-30.5 230,-30.5 230,-0.5 124,-0.5"/>
<text text-anchor="start" x="132" y="-18.5" font-family="Helvetica,sans-Serif" font-size="10.00">Estimator/MinLogLH</text>
<text text-anchor="middle" x="177" y="-7.5" font-family="Helvetica,sans-Serif" font-size="10.00">/MinLogLH.cpp</text>
</a>
</g>
</g>
<!-- Node3&#45;&gt;Node4 -->
<g id="edge3" class="edge"><title>Node3&#45;&gt;Node4</title>
<path fill="none" stroke="midnightblue" d="M436.982,-66.8541C348.294,-48.7707 323.916,-48.5986 239,-31 236.077,-30.3943 233.082,-29.7551 230.061,-29.0961"/>
<polygon fill="midnightblue" stroke="midnightblue" points="436.439,-70.3155 446.939,-68.9039 437.85,-63.4593 436.439,-70.3155"/>
</g>
<!-- Node5 -->
<g id="node5" class="node"><title>Node5</title>
<g id="a_node5"><a xlink:href="SumMinLogLH_8cpp.html" target="_top" xlink:title="Estimator/MinLogLH\l/SumMinLogLH.cpp">
<polygon fill="white" stroke="black" points="0,-0.5 0,-30.5 106,-30.5 106,-0.5 0,-0.5"/>
<text text-anchor="start" x="8" y="-18.5" font-family="Helvetica,sans-Serif" font-size="10.00">Estimator/MinLogLH</text>
<text text-anchor="middle" x="53" y="-7.5" font-family="Helvetica,sans-Serif" font-size="10.00">/SumMinLogLH.cpp</text>
</a>
</g>
</g>
<!-- Node3&#45;&gt;Node5 -->
<g id="edge4" class="edge"><title>Node3&#45;&gt;Node5</title>
<path fill="none" stroke="midnightblue" d="M436.956,-66.9606C293.874,-43.0742 254.156,-54.94 115,-31 112.059,-30.494 109.048,-29.9334 106.015,-29.3354"/>
<polygon fill="midnightblue" stroke="midnightblue" points="436.54,-70.44 446.985,-68.6646 437.712,-63.5389 436.54,-70.44"/>
</g>
<!-- Node3&#45;&gt;Node6 -->
<g id="edge5" class="edge"><title>Node3&#45;&gt;Node6</title>
<path fill="none" stroke="midnightblue" d="M500,-57.1081C500,-48.1539 500,-38.3227 500,-30.5765"/>
<polygon fill="midnightblue" stroke="midnightblue" points="496.5,-57.3959 500,-67.396 503.5,-57.396 496.5,-57.3959"/>
</g>
<!-- Node3&#45;&gt;Node7 -->
<g id="edge6" class="edge"><title>Node3&#45;&gt;Node7</title>
<path fill="none" stroke="midnightblue" d="M563.237,-68.6571C611.477,-58.7343 679.532,-44.4654 739,-31 742.24,-30.2663 745.575,-29.4977 748.935,-28.7134"/>
<polygon fill="midnightblue" stroke="midnightblue" points="562.346,-65.267 553.254,-70.7067 563.754,-72.124 562.346,-65.267"/>
</g>
<!-- Node8 -->
<g id="node8" class="node"><title>Node8</title>
<g id="a_node8"><a xlink:href="EvtGenFit_8cpp.html" target="_top" xlink:title="Examples/EvtGen/EvtGenFit.cpp">
<polygon fill="white" stroke="black" points="248,-6 248,-25 410,-25 410,-6 248,-6"/>
<text text-anchor="middle" x="329" y="-13" font-family="Helvetica,sans-Serif" font-size="10.00">Examples/EvtGen/EvtGenFit.cpp</text>
</a>
</g>
</g>
<!-- Node3&#45;&gt;Node8 -->
<g id="edge7" class="edge"><title>Node3&#45;&gt;Node8</title>
<path fill="none" stroke="midnightblue" d="M453.393,-63.7838C420.237,-51.1807 377.165,-34.8082 351.38,-25.007"/>
<polygon fill="midnightblue" stroke="midnightblue" points="452.304,-67.1144 462.896,-67.396 454.792,-60.5712 452.304,-67.1144"/>
</g>
<!-- Node3&#45;&gt;Node9 -->
<g id="edge8" class="edge"><title>Node3&#45;&gt;Node9</title>
<path fill="none" stroke="midnightblue" d="M563.281,-72.2719C575.465,-70.51 588.127,-68.6891 600,-67 714.623,-50.6929 743.682,-49.3279 858,-31 869.289,-29.1901 881.443,-27.0739 892.785,-25.0264"/>
<polygon fill="midnightblue" stroke="midnightblue" points="562.582,-68.8365 553.187,-73.7338 563.586,-75.7642 562.582,-68.8365"/>
</g>
<!-- Node10&#45;&gt;Node6 -->
<g id="edge11" class="edge"><title>Node10&#45;&gt;Node6</title>
<path fill="none" stroke="midnightblue" d="M861.6,-71.9826C789.966,-62.3751 677.253,-46.7446 580,-31 577.213,-30.5488 574.374,-30.0797 571.506,-29.5981"/>
<polygon fill="midnightblue" stroke="midnightblue" points="861.488,-75.4988 871.864,-73.3557 862.416,-68.5606 861.488,-75.4988"/>
</g>
<!-- Node10&#45;&gt;Node7 -->
<g id="edge12" class="edge"><title>Node10&#45;&gt;Node7</title>
<path fill="none" stroke="midnightblue" d="M906.945,-68.4738C884.123,-57.485 851.527,-41.791 828.135,-30.5281"/>
<polygon fill="midnightblue" stroke="midnightblue" points="905.545,-71.6838 916.073,-72.8685 908.581,-65.3768 905.545,-71.6838"/>
</g>
<!-- Node10&#45;&gt;Node9 -->
<g id="edge13" class="edge"><title>Node10&#45;&gt;Node9</title>
<path fill="none" stroke="midnightblue" d="M935.167,-62.537C935.928,-50.1703 936.885,-34.6198 937.469,-25.1273"/>
<polygon fill="midnightblue" stroke="midnightblue" points="931.66,-62.5377 934.539,-72.7338 938.647,-62.9677 931.66,-62.5377"/>
</g>
<!-- Node11 -->
<g id="node11" class="node"><title>Node11</title>
<g id="a_node11"><a xlink:href="BuilderXML_8cpp.html" target="_top" xlink:title="Physics/BuilderXML.cpp">
<polygon fill="white" stroke="black" points="1027,-6 1027,-25 1151,-25 1151,-6 1027,-6"/>
<text text-anchor="middle" x="1089" y="-13" font-family="Helvetica,sans-Serif" font-size="10.00">Physics/BuilderXML.cpp</text>
</a>
</g>
</g>
<!-- Node10&#45;&gt;Node11 -->
<g id="edge14" class="edge"><title>Node10&#45;&gt;Node11</title>
<path fill="none" stroke="midnightblue" d="M963.931,-68.9485C994.62,-56.0787 1041.54,-36.4032 1068.33,-25.1672"/>
<polygon fill="midnightblue" stroke="midnightblue" points="962.451,-65.7735 954.583,-72.8685 965.158,-72.2289 962.451,-65.7735"/>
</g>
<!-- Node12 -->
<g id="node12" class="node"><title>Node12</title>
<g id="a_node12"><a xlink:href="BOSSAdapter_8cpp.html" target="_top" xlink:title="Tools/Adapters/BOSSAdapter.cpp">
<polygon fill="white" stroke="black" points="1169,-6 1169,-25 1335,-25 1335,-6 1169,-6"/>
<text text-anchor="middle" x="1252" y="-13" font-family="Helvetica,sans-Serif" font-size="10.00">Tools/Adapters/BOSSAdapter.cpp</text>
</a>
</g>
</g>
<!-- Node10&#45;&gt;Node12 -->
<g id="edge15" class="edge"><title>Node10&#45;&gt;Node12</title>
<path fill="none" stroke="midnightblue" d="M985.96,-70.8792C1048.59,-58.0772 1152.59,-36.8191 1210.26,-25.0317"/>
<polygon fill="midnightblue" stroke="midnightblue" points="984.996,-67.5037 975.9,-72.9355 986.398,-74.3619 984.996,-67.5037"/>
</g>
<!-- Node13&#45;&gt;Node6 -->
<g id="edge17" class="edge"><title>Node13&#45;&gt;Node6</title>
<path fill="none" stroke="midnightblue" d="M646.344,-69.3465C615.834,-58.3289 570.872,-42.0927 538.847,-30.5281"/>
<polygon fill="midnightblue" stroke="midnightblue" points="645.503,-72.7639 656.097,-72.8685 647.881,-66.1801 645.503,-72.7639"/>
</g>
<!-- Node13&#45;&gt;Node7 -->
<g id="edge18" class="edge"><title>Node13&#45;&gt;Node7</title>
<path fill="none" stroke="midnightblue" d="M704.896,-67.9015C724.917,-56.9655 752.95,-41.6532 773.206,-30.589"/>
<polygon fill="midnightblue" stroke="midnightblue" points="703.147,-64.8684 696.049,-72.7338 706.503,-71.0117 703.147,-64.8684"/>
</g>
<!-- Node13&#45;&gt;Node8 -->
<g id="edge19" class="edge"><title>Node13&#45;&gt;Node8</title>
<path fill="none" stroke="midnightblue" d="M623.501,-71.0371C554.465,-58.2527 438.986,-36.8677 375.071,-25.0317"/>
<polygon fill="midnightblue" stroke="midnightblue" points="623.282,-74.5561 633.752,-72.9355 624.556,-67.6731 623.282,-74.5561"/>
</g>
<!-- Node14 -->
<g id="node14" class="node"><title>Node14</title>
<g id="a_node14"><a xlink:href="DalitzPlot_8cpp.html" target="_top" xlink:title="Tools/Plotting/DalitzPlot.cpp">
<polygon fill="white" stroke="black" points="589.5,-6 589.5,-25 730.5,-25 730.5,-6 589.5,-6"/>
<text text-anchor="middle" x="660" y="-13" font-family="Helvetica,sans-Serif" font-size="10.00">Tools/Plotting/DalitzPlot.cpp</text>
</a>
</g>
</g>
<!-- Node13&#45;&gt;Node14 -->
<g id="edge20" class="edge"><title>Node13&#45;&gt;Node14</title>
<path fill="none" stroke="midnightblue" d="M674.281,-62.9145C670.458,-50.4883 665.605,-34.7166 662.655,-25.1273"/>
<polygon fill="midnightblue" stroke="midnightblue" points="671.017,-64.2053 677.303,-72.7338 677.707,-62.1467 671.017,-64.2053"/>
</g>
<!-- Node15&#45;&gt;Node12 -->
<g id="edge24" class="edge"><title>Node15&#45;&gt;Node12</title>
<path fill="none" stroke="midnightblue" d="M1203.76,-65.4968C1216.31,-52.7496 1233.4,-35.3947 1243.51,-25.1273"/>
<polygon fill="midnightblue" stroke="midnightblue" points="1201.15,-63.1525 1196.63,-72.7338 1206.14,-68.0637 1201.15,-63.1525"/>
</g>
</g>
</svg>
