<?xml version="1.0" encoding="UTF-8" standalone="no"?>
<!DOCTYPE svg PUBLIC "-//W3C//DTD SVG 1.1//EN"
 "http://www.w3.org/Graphics/SVG/1.1/DTD/svg11.dtd">
<!-- Generated by graphviz version 2.38.0 (20140413.2041)
 -->
<!-- Title: Core/FunctionTree/FunctionTreeEstimator.hpp Pages: 1 -->
<!--zoomable 173 -->
<svg id="main" version="1.1" xmlns="http://www.w3.org/2000/svg" xmlns:xlink="http://www.w3.org/1999/xlink" xml:space="preserve" onload="init(evt)">
<style type="text/css"><![CDATA[
.edge:hover path { stroke: red; }
.edge:hover polygon { stroke: red; fill: red; }
]]></style>
<script type="text/javascript"><![CDATA[
var edges = document.getElementsByTagName('g');
if (edges && edges.length) {
  for (var i=0;i<edges.length;i++) {
    if (edges[i].id.substr(0,4)=='edge') {
      edges[i].setAttribute('class','edge');
    }
  }
}
]]></script>
        <defs>
                <circle id="rim" cx="0" cy="0" r="7"/>
                <circle id="rim2" cx="0" cy="0" r="3.5"/>
                <g id="zoomPlus">
                        <use xlink:href="#rim" fill="#404040">
                                <set attributeName="fill" to="#808080" begin="zoomplus.mouseover" end="zoomplus.mouseout"/>
                        </use>
                        <path d="M-4,0h8M0,-4v8" fill="none" stroke="white" stroke-width="1.5" pointer-events="none"/>
                </g>
                <g id="zoomMin">
                        <use xlink:href="#rim" fill="#404040">
                                <set attributeName="fill" to="#808080" begin="zoomminus.mouseover" end="zoomminus.mouseout"/>
                        </use>
                        <path d="M-4,0h8" fill="none" stroke="white" stroke-width="1.5" pointer-events="none"/>
                </g>
                <g id="dirArrow">
                        <path fill="none" stroke="white" stroke-width="1.5" d="M0,-3.0v7 M-2.5,-0.5L0,-3.0L2.5,-0.5"/>
                </g>
               <g id="resetDef">
                       <use xlink:href="#rim2" fill="#404040">
                               <set attributeName="fill" to="#808080" begin="reset.mouseover" end="reset.mouseout"/>
                       </use>
               </g>
        </defs>

<script type="text/javascript">
var viewWidth = 924;
var viewHeight = 173;
var sectionId = 'dynsection-1';
</script>
<script xlink:href="svgpan.js"/>
<svg id="graph" class="graph">
<g id="viewport">
<title>Core/FunctionTree/FunctionTreeEstimator.hpp</title>
<polygon fill="white" stroke="none" points="-4,4 -4,-169 919.5,-169 919.5,4 -4,4"/>
<!-- Node1 -->
<g id="node1" class="node"><title>Node1</title>
<polygon fill="#bfbfbf" stroke="black" points="137,-134.5 137,-164.5 275,-164.5 275,-134.5 137,-134.5"/>
<text text-anchor="start" x="145" y="-152.5" font-family="Helvetica,sans-Serif" font-size="10.00">Core/FunctionTree/Function</text>
<text text-anchor="middle" x="206" y="-141.5" font-family="Helvetica,sans-Serif" font-size="10.00">TreeEstimator.hpp</text>
</g>
<!-- Node2 -->
<g id="node2" class="node"><title>Node2</title>
<g id="a_node2"><a xlink:href="FunctionTreeEstimator_8cpp.html" target="_top" xlink:title="Core/FunctionTree/Function\lTreeEstimator.cpp">
<polygon fill="white" stroke="black" points="0,-67.5 0,-97.5 138,-97.5 138,-67.5 0,-67.5"/>
<text text-anchor="start" x="8" y="-85.5" font-family="Helvetica,sans-Serif" font-size="10.00">Core/FunctionTree/Function</text>
<text text-anchor="middle" x="69" y="-74.5" font-family="Helvetica,sans-Serif" font-size="10.00">TreeEstimator.cpp</text>
</a>
</g>
</g>
<!-- Node1&#45;&gt;Node2 -->
<g id="edge1" class="edge"><title>Node1&#45;&gt;Node2</title>
<path fill="none" stroke="midnightblue" d="M166.991,-129.992C145.276,-119.689 118.673,-107.068 98.6689,-97.5765"/>
<polygon fill="midnightblue" stroke="midnightblue" points="165.738,-133.272 176.273,-134.396 168.739,-126.947 165.738,-133.272"/>
</g>
<!-- Node3 -->
<g id="node3" class="node"><title>Node3</title>
<g id="a_node3"><a xlink:href="MinLogLH_8hpp.html" target="_top" xlink:title="Estimator/MinLogLH\l/MinLogLH.hpp">
<polygon fill="white" stroke="black" points="347,-67.5 347,-97.5 453,-97.5 453,-67.5 347,-67.5"/>
<text text-anchor="start" x="355" y="-85.5" font-family="Helvetica,sans-Serif" font-size="10.00">Estimator/MinLogLH</text>
<text text-anchor="middle" x="400" y="-74.5" font-family="Helvetica,sans-Serif" font-size="10.00">/MinLogLH.hpp</text>
</a>
</g>
</g>
<!-- Node1&#45;&gt;Node3 -->
<g id="edge2" class="edge"><title>Node1&#45;&gt;Node3</title>
<path fill="none" stroke="midnightblue" d="M257.957,-131.092C289.274,-120.599 328.643,-107.408 357.987,-97.5765"/>
<polygon fill="midnightblue" stroke="midnightblue" points="256.465,-127.9 248.095,-134.396 258.689,-134.538 256.465,-127.9"/>
</g>
<!-- Node9 -->
<g id="node9" class="node"><title>Node9</title>
<g id="a_node9"><a xlink:href="SimFit_8cpp.html" target="_top" xlink:title="Examples/SimFit/SimFit.cpp">
<polygon fill="white" stroke="black" points="66,-6 66,-25 208,-25 208,-6 66,-6"/>
<text text-anchor="middle" x="137" y="-13" font-family="Helvetica,sans-Serif" font-size="10.00">Examples/SimFit/SimFit.cpp</text>
</a>
</g>
</g>
<!-- Node1&#45;&gt;Node9 -->
<g id="edge12" class="edge"><title>Node1&#45;&gt;Node9</title>
<path fill="none" stroke="midnightblue" d="M193.971,-125.489C178.391,-95.6826 151.987,-45.1716 141.494,-25.0973"/>
<polygon fill="midnightblue" stroke="midnightblue" points="190.881,-127.133 198.616,-134.374 197.085,-123.89 190.881,-127.133"/>
</g>
<!-- Node10 -->
<g id="node10" class="node"><title>Node10</title>
<g id="a_node10"><a xlink:href="SumMinLogLH_8hpp.html" target="_top" xlink:title="Estimator/MinLogLH\l/SumMinLogLH.hpp">
<polygon fill="white" stroke="black" points="194,-67.5 194,-97.5 300,-97.5 300,-67.5 194,-67.5"/>
<text text-anchor="start" x="202" y="-85.5" font-family="Helvetica,sans-Serif" font-size="10.00">Estimator/MinLogLH</text>
<text text-anchor="middle" x="247" y="-74.5" font-family="Helvetica,sans-Serif" font-size="10.00">/SumMinLogLH.hpp</text>
</a>
</g>
</g>
<!-- Node1&#45;&gt;Node10 -->
<g id="edge9" class="edge"><title>Node1&#45;&gt;Node10</title>
<path fill="none" stroke="midnightblue" d="M220.276,-125.867C226.21,-116.459 232.913,-105.833 238.121,-97.5765"/>
<polygon fill="midnightblue" stroke="midnightblue" points="217.271,-124.071 214.896,-134.396 223.192,-127.805 217.271,-124.071"/>
</g>
<!-- Node4 -->
<g id="node4" class="node"><title>Node4</title>
<g id="a_node4"><a xlink:href="MinLogLH_8cpp.html" target="_top" xlink:title="Estimator/MinLogLH\l/MinLogLH.cpp">
<polygon fill="white" stroke="black" points="648,-0.5 648,-30.5 754,-30.5 754,-0.5 648,-0.5"/>
<text text-anchor="start" x="656" y="-18.5" font-family="Helvetica,sans-Serif" font-size="10.00">Estimator/MinLogLH</text>
<text text-anchor="middle" x="701" y="-7.5" font-family="Helvetica,sans-Serif" font-size="10.00">/MinLogLH.cpp</text>
</a>
</g>
</g>
<!-- Node3&#45;&gt;Node4 -->
<g id="edge3" class="edge"><title>Node3&#45;&gt;Node4</title>
<path fill="none" stroke="midnightblue" d="M463.209,-68.5306C511.434,-58.5419 579.483,-44.2459 639,-31 641.913,-30.3516 644.902,-29.6787 647.917,-28.9936"/>
<polygon fill="midnightblue" stroke="midnightblue" points="462.313,-65.1417 453.229,-70.5947 463.731,-71.9966 462.313,-65.1417"/>
</g>
<!-- Node5 -->
<g id="node5" class="node"><title>Node5</title>
<g id="a_node5"><a xlink:href="SumMinLogLH_8cpp.html" target="_top" xlink:title="Estimator/MinLogLH\l/SumMinLogLH.cpp">
<polygon fill="white" stroke="black" points="226,-0.5 226,-30.5 332,-30.5 332,-0.5 226,-0.5"/>
<text text-anchor="start" x="234" y="-18.5" font-family="Helvetica,sans-Serif" font-size="10.00">Estimator/MinLogLH</text>
<text text-anchor="middle" x="279" y="-7.5" font-family="Helvetica,sans-Serif" font-size="10.00">/SumMinLogLH.cpp</text>
</a>
</g>
</g>
<!-- Node3&#45;&gt;Node5 -->
<g id="edge4" class="edge"><title>Node3&#45;&gt;Node5</title>
<path fill="none" stroke="midnightblue" d="M364.77,-62.575C345.737,-52.3502 322.635,-39.94 305.204,-30.5765"/>
<polygon fill="midnightblue" stroke="midnightblue" points="363.279,-65.7469 373.745,-67.396 366.592,-59.5803 363.279,-65.7469"/>
</g>
<!-- Node6 -->
<g id="node6" class="node"><title>Node6</title>
<g id="a_node6"><a xlink:href="DalitzFitD03K_8cpp.html" target="_top" xlink:title="Executable for Dalitz plot analysis of the decay D0 &#45;&gt; K_S K+ K&#45;. ">
<polygon fill="white" stroke="black" points="772.5,-0.5 772.5,-30.5 915.5,-30.5 915.5,-0.5 772.5,-0.5"/>
<text text-anchor="start" x="780.5" y="-18.5" font-family="Helvetica,sans-Serif" font-size="10.00">Examples/DalitzAnalysis</text>
<text text-anchor="middle" x="844" y="-7.5" font-family="Helvetica,sans-Serif" font-size="10.00">_D0KsKK/DalitzFitD03K.cpp</text>
</a>
</g>
</g>
<!-- Node3&#45;&gt;Node6 -->
<g id="edge5" class="edge"><title>Node3&#45;&gt;Node6</title>
<path fill="none" stroke="midnightblue" d="M463.641,-73.4085C536.206,-64.0056 658.337,-47.6418 763,-31 766.104,-30.5065 769.273,-29.9907 772.472,-29.4601"/>
<polygon fill="midnightblue" stroke="midnightblue" points="462.771,-69.9917 453.302,-74.7445 463.668,-76.934 462.771,-69.9917"/>
</g>
<!-- Node7 -->
<g id="node7" class="node"><title>Node7</title>
<g id="a_node7"><a xlink:href="DalitzFitApp_8cpp.html" target="_top" xlink:title="Simple Dalitz plot analysis with ComPWA. ">
<polygon fill="white" stroke="black" points="350,-0.5 350,-30.5 450,-30.5 450,-0.5 350,-0.5"/>
<text text-anchor="start" x="358" y="-18.5" font-family="Helvetica,sans-Serif" font-size="10.00">Examples/DalitzFit</text>
<text text-anchor="middle" x="400" y="-7.5" font-family="Helvetica,sans-Serif" font-size="10.00">/DalitzFitApp.cpp</text>
</a>
</g>
</g>
<!-- Node3&#45;&gt;Node7 -->
<g id="edge6" class="edge"><title>Node3&#45;&gt;Node7</title>
<path fill="none" stroke="midnightblue" d="M400,-57.1081C400,-48.1539 400,-38.3227 400,-30.5765"/>
<polygon fill="midnightblue" stroke="midnightblue" points="396.5,-57.3959 400,-67.396 403.5,-57.396 396.5,-57.3959"/>
</g>
<!-- Node8 -->
<g id="node8" class="node"><title>Node8</title>
<g id="a_node8"><a xlink:href="EvtGenFit_8cpp.html" target="_top" xlink:title="Examples/EvtGen/EvtGenFit.cpp">
<polygon fill="white" stroke="black" points="468,-6 468,-25 630,-25 630,-6 468,-6"/>
<text text-anchor="middle" x="549" y="-13" font-family="Helvetica,sans-Serif" font-size="10.00">Examples/EvtGen/EvtGenFit.cpp</text>
</a>
</g>
</g>
<!-- Node3&#45;&gt;Node8 -->
<g id="edge7" class="edge"><title>Node3&#45;&gt;Node8</title>
<path fill="none" stroke="midnightblue" d="M441.731,-63.2952C470.465,-50.7602 507.321,-34.682 529.499,-25.007"/>
<polygon fill="midnightblue" stroke="midnightblue" points="440.097,-60.1894 432.331,-67.396 442.896,-66.6054 440.097,-60.1894"/>
</g>
<!-- Node3&#45;&gt;Node9 -->
<g id="edge8" class="edge"><title>Node3&#45;&gt;Node9</title>
<path fill="none" stroke="midnightblue" d="M337.019,-65.9342C285.205,-53.1285 213.697,-35.4556 171.704,-25.077"/>
<polygon fill="midnightblue" stroke="midnightblue" points="336.23,-69.3447 346.778,-68.3463 337.91,-62.5491 336.23,-69.3447"/>
</g>
<!-- Node10&#45;&gt;Node5 -->
<g id="edge10" class="edge"><title>Node10&#45;&gt;Node5</title>
<path fill="none" stroke="midnightblue" d="M258.43,-58.2835C262.989,-49.0223 268.089,-38.6632 272.07,-30.5765"/>
<polygon fill="midnightblue" stroke="midnightblue" points="255.22,-56.8783 253.944,-67.396 261.501,-59.9702 255.22,-56.8783"/>
</g>
<!-- Node10&#45;&gt;Node9 -->
<g id="edge11" class="edge"><title>Node10&#45;&gt;Node9</title>
<path fill="none" stroke="midnightblue" d="M214.52,-62.3071C193.566,-49.9256 167.342,-34.4296 151.396,-25.007"/>
<polygon fill="midnightblue" stroke="midnightblue" points="212.742,-65.3219 223.132,-67.396 216.303,-59.2954 212.742,-65.3219"/>
</g>
</g>
</svg>
        <g id="navigator" transform="translate(0 0)" fill="#404254">
                <rect fill="#f2f5e9" fill-opacity="0.5" stroke="#606060" stroke-width=".5" x="0" y="0" width="60" height="60"/>
                <use id="zoomplus" xlink:href="#zoomPlus" x="17" y="9" onmousedown="handleZoom(evt,'in')"/>
                <use id="zoomminus" xlink:href="#zoomMin" x="42" y="9" onmousedown="handleZoom(evt,'out')"/>
                <use id="reset" xlink:href="#resetDef" x="30" y="36" onmousedown="handleReset()"/>
                <g id="arrowUp" xlink:href="#dirArrow" transform="translate(30 24)" onmousedown="handlePan(0,-1)">
                  <use xlink:href="#rim" fill="#404040">
                        <set attributeName="fill" to="#808080" begin="arrowUp.mouseover" end="arrowUp.mouseout"/>
                  </use>
                  <path fill="none" stroke="white" stroke-width="1.5" d="M0,-3.0v7 M-2.5,-0.5L0,-3.0L2.5,-0.5"/>
                </g>
                <g id="arrowRight" xlink:href="#dirArrow" transform="rotate(90) translate(36 -43)" onmousedown="handlePan(1,0)">
                  <use xlink:href="#rim" fill="#404040">
                        <set attributeName="fill" to="#808080" begin="arrowRight.mouseover" end="arrowRight.mouseout"/>
                  </use>
                  <path fill="none" stroke="white" stroke-width="1.5" d="M0,-3.0v7 M-2.5,-0.5L0,-3.0L2.5,-0.5"/>
                </g>
                <g id="arrowDown" xlink:href="#dirArrow" transform="rotate(180) translate(-30 -48)" onmousedown="handlePan(0,1)">
                  <use xlink:href="#rim" fill="#404040">
                        <set attributeName="fill" to="#808080" begin="arrowDown.mouseover" end="arrowDown.mouseout"/>
                  </use>
                  <path fill="none" stroke="white" stroke-width="1.5" d="M0,-3.0v7 M-2.5,-0.5L0,-3.0L2.5,-0.5"/>
                </g>
                <g id="arrowLeft" xlink:href="#dirArrow" transform="rotate(270) translate(-36 17)" onmousedown="handlePan(-1,0)">
                  <use xlink:href="#rim" fill="#404040">
                        <set attributeName="fill" to="#808080" begin="arrowLeft.mouseover" end="arrowLeft.mouseout"/>
                  </use>
                  <path fill="none" stroke="white" stroke-width="1.5" d="M0,-3.0v7 M-2.5,-0.5L0,-3.0L2.5,-0.5"/>
                </g>
        </g>
        <svg viewBox="0 0 15 15" width="100%" height="30px" preserveAspectRatio="xMaxYMin meet">
         <g id="arrow_out" transform="scale(0.3 0.3)">
          <a xlink:href="FunctionTreeEstimator_8hpp__dep__incl_org.svg" target="_base">
           <rect id="button" ry="5" rx="5" y="6" x="6" height="38" width="38"
                fill="#f2f5e9" fill-opacity="0.5" stroke="#606060" stroke-width="1.0"/>
           <path id="arrow"
             d="M 11.500037,31.436501 C 11.940474,20.09759 22.043105,11.32322 32.158766,21.979434 L 37.068811,17.246167 C 37.068811,17.246167 37.088388,32 37.088388,32 L 22.160133,31.978069 C 22.160133,31.978069 26.997745,27.140456 26.997745,27.140456 C 18.528582,18.264221 13.291696,25.230495 11.500037,31.436501 z"
             style="fill:#404040;"/>
          </a>
         </g>
        </svg>
</svg>
