<?xml version="1.0" encoding="UTF-8" standalone="no"?>
<!DOCTYPE svg PUBLIC "-//W3C//DTD SVG 1.1//EN"
 "http://www.w3.org/Graphics/SVG/1.1/DTD/svg11.dtd">
<!-- Generated by graphviz version 2.38.0 (20140413.2041)
 -->
<!-- Title: Core/FunctionTree/FitParameter.hpp Pages: 1 -->
<svg width="1707pt" height="408pt"
 viewBox="0.00 0.00 1707.00 408.00" xmlns="http://www.w3.org/2000/svg" xmlns:xlink="http://www.w3.org/1999/xlink">
<g id="graph0" class="graph" transform="scale(1 1) rotate(0) translate(4 404)">
<title>Core/FunctionTree/FitParameter.hpp</title>
<polygon fill="white" stroke="none" points="-4,4 -4,-404 1703,-404 1703,4 -4,4"/>
<!-- Node1 -->
<g id="node1" class="node"><title>Node1</title>
<polygon fill="#bfbfbf" stroke="black" points="782,-380.5 782,-399.5 958,-399.5 958,-380.5 782,-380.5"/>
<text text-anchor="middle" x="870" y="-387.5" font-family="Helvetica,sans-Serif" font-size="10.00">Core/FunctionTree/FitParameter.hpp</text>
</g>
<!-- Node2 -->
<g id="node2" class="node"><title>Node2</title>
<g id="a_node2"><a xlink:href="FitParameter_8cpp.html" target="_top" xlink:title="Core/FunctionTree/FitParameter.cpp">
<polygon fill="white" stroke="black" points="0,-324.5 0,-343.5 176,-343.5 176,-324.5 0,-324.5"/>
<text text-anchor="middle" x="88" y="-331.5" font-family="Helvetica,sans-Serif" font-size="10.00">Core/FunctionTree/FitParameter.cpp</text>
</a>
</g>
</g>
<!-- Node1&#45;&gt;Node2 -->
<g id="edge1" class="edge"><title>Node1&#45;&gt;Node2</title>
<path fill="none" stroke="midnightblue" d="M771.824,-383.181C639.587,-375.188 396.942,-359.975 190,-344 185.48,-343.651 180.849,-343.282 176.173,-342.901"/>
<polygon fill="midnightblue" stroke="midnightblue" points="771.739,-386.682 781.931,-383.791 772.16,-379.695 771.739,-386.682"/>
</g>
<!-- Node3 -->
<g id="node3" class="node"><title>Node3</title>
<g id="a_node3"><a xlink:href="Functions_8hpp.html" target="_top" xlink:title="This file contains Functions implementing the Strategy interface so they can be used inside a node of...">
<polygon fill="white" stroke="black" points="487,-196 487,-215 649,-215 649,-196 487,-196"/>
<text text-anchor="middle" x="568" y="-203" font-family="Helvetica,sans-Serif" font-size="10.00">Core/FunctionTree/Functions.hpp</text>
</a>
</g>
</g>
<!-- Node1&#45;&gt;Node3 -->
<g id="edge2" class="edge"><title>Node1&#45;&gt;Node3</title>
<path fill="none" stroke="midnightblue" d="M847.202,-375.223C787.926,-339.402 630.235,-244.109 582.13,-215.039"/>
<polygon fill="midnightblue" stroke="midnightblue" points="845.47,-378.266 855.839,-380.442 849.091,-372.275 845.47,-378.266"/>
</g>
<!-- Node12 -->
<g id="node12" class="node"><title>Node12</title>
<g id="a_node12"><a xlink:href="Coupling_8hpp.html" target="_top" xlink:title="Physics/Dynamics/Coupling.hpp">
<polygon fill="white" stroke="red" points="150.5,-0.5 150.5,-19.5 309.5,-19.5 309.5,-0.5 150.5,-0.5"/>
<text text-anchor="middle" x="230" y="-7.5" font-family="Helvetica,sans-Serif" font-size="10.00">Physics/Dynamics/Coupling.hpp</text>
</a>
</g>
</g>
<!-- Node1&#45;&gt;Node12 -->
<g id="edge39" class="edge"><title>Node1&#45;&gt;Node12</title>
<path fill="none" stroke="midnightblue" d="M771.886,-381.985C586.686,-367.418 204,-330.431 204,-273.5 204,-273.5 204,-273.5 204,-137.5 204,-92.434 220.028,-40.1522 226.915,-19.7675"/>
<polygon fill="midnightblue" stroke="midnightblue" points="771.662,-385.478 781.904,-382.766 772.206,-378.499 771.662,-385.478"/>
</g>
<!-- Node15 -->
<g id="node15" class="node"><title>Node15</title>
<g id="a_node15"><a xlink:href="ParameterList_8hpp.html" target="_top" xlink:title="ParameterList class. ">
<polygon fill="white" stroke="black" points="797,-257.5 797,-287.5 943,-287.5 943,-257.5 797,-257.5"/>
<text text-anchor="start" x="805" y="-275.5" font-family="Helvetica,sans-Serif" font-size="10.00">Core/FunctionTree/Parameter</text>
<text text-anchor="middle" x="870" y="-264.5" font-family="Helvetica,sans-Serif" font-size="10.00">List.hpp</text>
</a>
</g>
</g>
<!-- Node1&#45;&gt;Node15 -->
<g id="edge18" class="edge"><title>Node1&#45;&gt;Node15</title>
<path fill="none" stroke="midnightblue" d="M870,-370.068C870,-346.904 870,-308.223 870,-287.545"/>
<polygon fill="midnightblue" stroke="midnightblue" points="866.5,-370.319 870,-380.319 873.5,-370.319 866.5,-370.319"/>
</g>
<!-- Node19 -->
<g id="node19" class="node"><title>Node19</title>
<g id="a_node19"><a xlink:href="ParameterList_8cpp.html" target="_top" xlink:title="Core/FunctionTree/Parameter\lList.cpp">
<polygon fill="white" stroke="black" points="927,-190.5 927,-220.5 1073,-220.5 1073,-190.5 927,-190.5"/>
<text text-anchor="start" x="935" y="-208.5" font-family="Helvetica,sans-Serif" font-size="10.00">Core/FunctionTree/Parameter</text>
<text text-anchor="middle" x="1000" y="-197.5" font-family="Helvetica,sans-Serif" font-size="10.00">List.cpp</text>
</a>
</g>
</g>
<!-- Node1&#45;&gt;Node19 -->
<g id="edge35" class="edge"><title>Node1&#45;&gt;Node19</title>
<path fill="none" stroke="midnightblue" d="M884.432,-372.793C901.466,-353.321 930.225,-319.348 952,-288 967.738,-265.343 983.492,-237.324 992.463,-220.738"/>
<polygon fill="midnightblue" stroke="midnightblue" points="881.688,-370.613 877.701,-380.43 886.939,-375.242 881.688,-370.613"/>
</g>
<!-- Node20 -->
<g id="node20" class="node"><title>Node20</title>
<g id="a_node20"><a xlink:href="Value_8hpp.html" target="_top" xlink:title="Template implementation of Parameter for simple values. ">
<polygon fill="white" stroke="black" points="1079,-324.5 1079,-343.5 1223,-343.5 1223,-324.5 1079,-324.5"/>
<text text-anchor="middle" x="1151" y="-331.5" font-family="Helvetica,sans-Serif" font-size="10.00">Core/FunctionTree/Value.hpp</text>
</a>
</g>
</g>
<!-- Node1&#45;&gt;Node20 -->
<g id="edge29" class="edge"><title>Node1&#45;&gt;Node20</title>
<path fill="none" stroke="midnightblue" d="M924.446,-378.537C977.552,-368.332 1057.34,-352.999 1106.68,-343.516"/>
<polygon fill="midnightblue" stroke="midnightblue" points="923.685,-375.119 914.525,-380.444 925.006,-381.993 923.685,-375.119"/>
</g>
<!-- Node22 -->
<g id="node22" class="node"><title>Node22</title>
<g id="a_node22"><a xlink:href="EvtGenIF_8hpp.html" target="_top" xlink:title="Physics/EvtGen/EvtGenIF.hpp">
<polygon fill="white" stroke="black" points="1372,-324.5 1372,-343.5 1524,-343.5 1524,-324.5 1372,-324.5"/>
<text text-anchor="middle" x="1448" y="-331.5" font-family="Helvetica,sans-Serif" font-size="10.00">Physics/EvtGen/EvtGenIF.hpp</text>
</a>
</g>
</g>
<!-- Node1&#45;&gt;Node22 -->
<g id="edge36" class="edge"><title>Node1&#45;&gt;Node22</title>
<path fill="none" stroke="midnightblue" d="M968.234,-379.822C1082.37,-369.159 1268.26,-351.792 1371.96,-342.104"/>
<polygon fill="midnightblue" stroke="midnightblue" points="967.731,-376.354 958.1,-380.769 968.382,-383.324 967.731,-376.354"/>
</g>
<!-- Node4 -->
<g id="node4" class="node"><title>Node4</title>
<g id="a_node4"><a xlink:href="Functions_8cpp.html" target="_top" xlink:title="Core/FunctionTree/Functions.cpp">
<polygon fill="white" stroke="black" points="232,-129 232,-148 394,-148 394,-129 232,-129"/>
<text text-anchor="middle" x="313" y="-136" font-family="Helvetica,sans-Serif" font-size="10.00">Core/FunctionTree/Functions.cpp</text>
</a>
</g>
</g>
<!-- Node3&#45;&gt;Node4 -->
<g id="edge3" class="edge"><title>Node3&#45;&gt;Node4</title>
<path fill="none" stroke="midnightblue" d="M524.469,-193.404C474.143,-180.576 392.388,-159.736 346.673,-148.083"/>
<polygon fill="midnightblue" stroke="midnightblue" points="523.846,-196.857 534.401,-195.936 525.575,-190.074 523.846,-196.857"/>
</g>
<!-- Node5 -->
<g id="node5" class="node"><title>Node5</title>
<g id="a_node5"><a xlink:href="TreeNode_8hpp.html" target="_top" xlink:title="TreeNode class. ">
<polygon fill="white" stroke="red" points="633,-129 633,-148 795,-148 795,-129 633,-129"/>
<text text-anchor="middle" x="714" y="-136" font-family="Helvetica,sans-Serif" font-size="10.00">Core/FunctionTree/TreeNode.hpp</text>
</a>
</g>
</g>
<!-- Node3&#45;&gt;Node5 -->
<g id="edge4" class="edge"><title>Node3&#45;&gt;Node5</title>
<path fill="none" stroke="midnightblue" d="M596.569,-191.781C625.482,-178.909 669.404,-159.355 694.532,-148.167"/>
<polygon fill="midnightblue" stroke="midnightblue" points="595.1,-188.604 587.388,-195.869 597.947,-194.999 595.1,-188.604"/>
</g>
<!-- Node8 -->
<g id="node8" class="node"><title>Node8</title>
<g id="a_node8"><a xlink:href="TreeNode_8cpp.html" target="_top" xlink:title="Core/FunctionTree/TreeNode.cpp">
<polygon fill="white" stroke="black" points="460,-62 460,-81 622,-81 622,-62 460,-62"/>
<text text-anchor="middle" x="541" y="-69" font-family="Helvetica,sans-Serif" font-size="10.00">Core/FunctionTree/TreeNode.cpp</text>
</a>
</g>
</g>
<!-- Node3&#45;&gt;Node8 -->
<g id="edge14" class="edge"><title>Node3&#45;&gt;Node8</title>
<path fill="none" stroke="midnightblue" d="M564.17,-185.775C558.232,-156.746 547.042,-102.038 542.743,-81.0212"/>
<polygon fill="midnightblue" stroke="midnightblue" points="560.795,-186.743 566.228,-195.839 567.653,-185.341 560.795,-186.743"/>
</g>
<!-- Node11 -->
<g id="node11" class="node"><title>Node11</title>
<g id="a_node11"><a xlink:href="FormFactor_8hpp.html" target="_top" xlink:title="Physics/Dynamics/FormFactor.hpp">
<polygon fill="white" stroke="red" points="232.5,-62 232.5,-81 403.5,-81 403.5,-62 232.5,-62"/>
<text text-anchor="middle" x="318" y="-69" font-family="Helvetica,sans-Serif" font-size="10.00">Physics/Dynamics/FormFactor.hpp</text>
</a>
</g>
</g>
<!-- Node3&#45;&gt;Node11 -->
<g id="edge15" class="edge"><title>Node3&#45;&gt;Node11</title>
<path fill="none" stroke="midnightblue" d="M533.015,-192.488C508.068,-183.336 474.105,-169.667 446,-154 425.422,-142.529 422.702,-135.918 403,-123 379.172,-107.376 350.506,-90.7807 333.295,-81.0431"/>
<polygon fill="midnightblue" stroke="midnightblue" points="531.845,-195.786 542.439,-195.887 534.22,-189.201 531.845,-195.786"/>
</g>
<!-- Node13 -->
<g id="node13" class="node"><title>Node13</title>
<g id="a_node13"><a xlink:href="Voigtian_8hpp.html" target="_top" xlink:title="This file contains the declaration of the Voigtian class, which is used the implementation of voigt f...">
<polygon fill="white" stroke="red" points="341,-0.5 341,-19.5 497,-19.5 497,-0.5 341,-0.5"/>
<text text-anchor="middle" x="419" y="-7.5" font-family="Helvetica,sans-Serif" font-size="10.00">Physics/Dynamics/Voigtian.hpp</text>
</a>
</g>
</g>
<!-- Node3&#45;&gt;Node13 -->
<g id="edge16" class="edge"><title>Node3&#45;&gt;Node13</title>
<path fill="none" stroke="midnightblue" d="M548.844,-189.336C523.601,-168.531 479.119,-128.915 451,-87 436.006,-64.6489 425.776,-34.1387 421.4,-19.5071"/>
<polygon fill="midnightblue" stroke="midnightblue" points="546.942,-192.3 556.912,-195.884 551.353,-186.865 546.942,-192.3"/>
</g>
<!-- Node14 -->
<g id="node14" class="node"><title>Node14</title>
<g id="a_node14"><a xlink:href="WignerD_8hpp.html" target="_top" xlink:title="Physics/HelicityFormalism\l/WignerD.hpp">
<polygon fill="white" stroke="red" points="640,-56.5 640,-86.5 774,-86.5 774,-56.5 640,-56.5"/>
<text text-anchor="start" x="648" y="-74.5" font-family="Helvetica,sans-Serif" font-size="10.00">Physics/HelicityFormalism</text>
<text text-anchor="middle" x="707" y="-63.5" font-family="Helvetica,sans-Serif" font-size="10.00">/WignerD.hpp</text>
</a>
</g>
</g>
<!-- Node3&#45;&gt;Node14 -->
<g id="edge17" class="edge"><title>Node3&#45;&gt;Node14</title>
<path fill="none" stroke="midnightblue" d="M577.363,-186.565C587.231,-168.88 604.088,-141.838 624,-123 639.684,-108.162 660.434,-95.5374 677.263,-86.6218"/>
<polygon fill="midnightblue" stroke="midnightblue" points="574.067,-185.303 572.391,-195.764 580.225,-188.631 574.067,-185.303"/>
</g>
<!-- Node6 -->
<g id="node6" class="node"><title>Node6</title>
<g id="a_node6"><a xlink:href="FunctionTreeEstimator_8cpp.html" target="_top" xlink:title="Core/FunctionTree/Function\lTreeEstimator.cpp">
<polygon fill="white" stroke="black" points="1040,-56.5 1040,-86.5 1178,-86.5 1178,-56.5 1040,-56.5"/>
<text text-anchor="start" x="1048" y="-74.5" font-family="Helvetica,sans-Serif" font-size="10.00">Core/FunctionTree/Function</text>
<text text-anchor="middle" x="1109" y="-63.5" font-family="Helvetica,sans-Serif" font-size="10.00">TreeEstimator.cpp</text>
</a>
</g>
</g>
<!-- Node5&#45;&gt;Node6 -->
<g id="edge5" class="edge"><title>Node5&#45;&gt;Node6</title>
<path fill="none" stroke="midnightblue" d="M780.175,-127.467C844.362,-117.615 944.467,-101.933 1031,-87 1033.85,-86.5081 1036.76,-85.9994 1039.69,-85.4798"/>
<polygon fill="midnightblue" stroke="midnightblue" points="779.544,-124.023 770.19,-128.997 780.604,-130.942 779.544,-124.023"/>
</g>
<!-- Node7 -->
<g id="node7" class="node"><title>Node7</title>
<g id="a_node7"><a xlink:href="FunctionTreeIntensity_8cpp.html" target="_top" xlink:title="Core/FunctionTree/Function\lTreeIntensity.cpp">
<polygon fill="white" stroke="black" points="1196,-56.5 1196,-86.5 1334,-86.5 1334,-56.5 1196,-56.5"/>
<text text-anchor="start" x="1204" y="-74.5" font-family="Helvetica,sans-Serif" font-size="10.00">Core/FunctionTree/Function</text>
<text text-anchor="middle" x="1265" y="-63.5" font-family="Helvetica,sans-Serif" font-size="10.00">TreeIntensity.cpp</text>
</a>
</g>
</g>
<!-- Node5&#45;&gt;Node7 -->
<g id="edge6" class="edge"><title>Node5&#45;&gt;Node7</title>
<path fill="none" stroke="midnightblue" d="M805.201,-129.874C900.649,-121.4 1054.74,-106.324 1187,-87 1189.86,-86.5818 1192.78,-86.1347 1195.72,-85.6662"/>
<polygon fill="midnightblue" stroke="midnightblue" points="804.658,-126.408 795.004,-130.774 805.274,-133.381 804.658,-126.408"/>
</g>
<!-- Node5&#45;&gt;Node8 -->
<g id="edge7" class="edge"><title>Node5&#45;&gt;Node8</title>
<path fill="none" stroke="midnightblue" d="M681.451,-125.271C647.115,-112.37 593.9,-92.3757 563.793,-81.0637"/>
<polygon fill="midnightblue" stroke="midnightblue" points="680.435,-128.628 691.027,-128.869 682.897,-122.075 680.435,-128.628"/>
</g>
<!-- Node9 -->
<g id="node9" class="node"><title>Node9</title>
<g id="a_node9"><a xlink:href="MinLogLH_8cpp.html" target="_top" xlink:title="Estimator/MinLogLH\l/MinLogLH.cpp">
<polygon fill="white" stroke="black" points="792,-56.5 792,-86.5 898,-86.5 898,-56.5 792,-56.5"/>
<text text-anchor="start" x="800" y="-74.5" font-family="Helvetica,sans-Serif" font-size="10.00">Estimator/MinLogLH</text>
<text text-anchor="middle" x="845" y="-63.5" font-family="Helvetica,sans-Serif" font-size="10.00">/MinLogLH.cpp</text>
</a>
</g>
</g>
<!-- Node5&#45;&gt;Node9 -->
<g id="edge8" class="edge"><title>Node5&#45;&gt;Node9</title>
<path fill="none" stroke="midnightblue" d="M740.519,-124.342C762.571,-113.4 793.889,-97.8604 816.479,-86.6516"/>
<polygon fill="midnightblue" stroke="midnightblue" points="738.798,-121.288 731.396,-128.869 741.909,-127.559 738.798,-121.288"/>
</g>
<!-- Node10 -->
<g id="node10" class="node"><title>Node10</title>
<g id="a_node10"><a xlink:href="SumMinLogLH_8cpp.html" target="_top" xlink:title="Estimator/MinLogLH\l/SumMinLogLH.cpp">
<polygon fill="white" stroke="black" points="916,-56.5 916,-86.5 1022,-86.5 1022,-56.5 916,-56.5"/>
<text text-anchor="start" x="924" y="-74.5" font-family="Helvetica,sans-Serif" font-size="10.00">Estimator/MinLogLH</text>
<text text-anchor="middle" x="969" y="-63.5" font-family="Helvetica,sans-Serif" font-size="10.00">/SumMinLogLH.cpp</text>
</a>
</g>
</g>
<!-- Node5&#45;&gt;Node10 -->
<g id="edge9" class="edge"><title>Node5&#45;&gt;Node10</title>
<path fill="none" stroke="midnightblue" d="M757.37,-126.445C801.135,-115.289 868.786,-98.0448 915.773,-86.0675"/>
<polygon fill="midnightblue" stroke="midnightblue" points="756.425,-123.074 747.599,-128.936 758.154,-129.857 756.425,-123.074"/>
</g>
<!-- Node5&#45;&gt;Node11 -->
<g id="edge10" class="edge"><title>Node5&#45;&gt;Node11</title>
<path fill="none" stroke="midnightblue" d="M651.69,-127.272C573.978,-114.517 442.531,-92.9407 369.978,-81.0317"/>
<polygon fill="midnightblue" stroke="midnightblue" points="651.388,-130.77 661.823,-128.936 652.522,-123.862 651.388,-130.77"/>
</g>
<!-- Node5&#45;&gt;Node14 -->
<g id="edge13" class="edge"><title>Node5&#45;&gt;Node14</title>
<path fill="none" stroke="midnightblue" d="M711.98,-118.739C710.876,-108.487 709.531,-96.0011 708.517,-86.589"/>
<polygon fill="midnightblue" stroke="midnightblue" points="708.505,-119.166 713.056,-128.734 715.465,-118.417 708.505,-119.166"/>
</g>
<!-- Node11&#45;&gt;Node12 -->
<g id="edge11" class="edge"><title>Node11&#45;&gt;Node12</title>
<path fill="none" stroke="midnightblue" d="M296.721,-56.1127C279.796,-44.6691 256.69,-29.046 242.585,-19.5091"/>
<polygon fill="midnightblue" stroke="midnightblue" points="295.147,-59.2733 305.392,-61.9751 299.068,-53.4744 295.147,-59.2733"/>
</g>
<!-- Node11&#45;&gt;Node13 -->
<g id="edge12" class="edge"><title>Node11&#45;&gt;Node13</title>
<path fill="none" stroke="midnightblue" d="M341.35,-56.7441C360.862,-45.2498 388.068,-29.2226 404.556,-19.5091"/>
<polygon fill="midnightblue" stroke="midnightblue" points="339.31,-53.8836 332.471,-61.9751 342.863,-59.9149 339.31,-53.8836"/>
</g>
<!-- Node15&#45;&gt;Node3 -->
<g id="edge19" class="edge"><title>Node15&#45;&gt;Node3</title>
<path fill="none" stroke="midnightblue" d="M794.767,-255.307C735.434,-242.537 655.035,-225.233 607.625,-215.029"/>
<polygon fill="midnightblue" stroke="midnightblue" points="794.33,-258.793 804.842,-257.476 795.803,-251.95 794.33,-258.793"/>
</g>
<!-- Node15&#45;&gt;Node5 -->
<g id="edge22" class="edge"><title>Node15&#45;&gt;Node5</title>
<path fill="none" stroke="midnightblue" d="M844.858,-250.852C833.819,-241.744 820.728,-230.884 809,-221 777.761,-194.672 741.17,-163.06 723.935,-148.123"/>
<polygon fill="midnightblue" stroke="midnightblue" points="842.899,-253.773 852.842,-257.431 847.35,-248.371 842.899,-253.773"/>
</g>
<!-- Node15&#45;&gt;Node9 -->
<g id="edge27" class="edge"><title>Node15&#45;&gt;Node9</title>
<path fill="none" stroke="midnightblue" d="M857.034,-248.364C853.012,-240.004 849.089,-230.324 847,-221 836.176,-172.693 840.463,-113.315 843.283,-86.6456"/>
<polygon fill="midnightblue" stroke="midnightblue" points="854.025,-250.166 861.698,-257.472 860.255,-246.976 854.025,-250.166"/>
</g>
<!-- Node15&#45;&gt;Node10 -->
<g id="edge28" class="edge"><title>Node15&#45;&gt;Node10</title>
<path fill="none" stroke="midnightblue" d="M870.41,-246.818C872.004,-215.652 878.446,-161.462 903,-123 912.704,-107.799 928.667,-95.4024 942.463,-86.6959"/>
<polygon fill="midnightblue" stroke="midnightblue" points="866.899,-247.062 870.018,-257.188 873.894,-247.327 866.899,-247.062"/>
</g>
<!-- Node16 -->
<g id="node16" class="node"><title>Node16</title>
<g id="a_node16"><a xlink:href="FunctionTreeEstimator_8hpp.html" target="_top" xlink:title="Core/FunctionTree/Function\lTreeEstimator.hpp">
<polygon fill="white" stroke="red" points="912,-123.5 912,-153.5 1050,-153.5 1050,-123.5 912,-123.5"/>
<text text-anchor="start" x="920" y="-141.5" font-family="Helvetica,sans-Serif" font-size="10.00">Core/FunctionTree/Function</text>
<text text-anchor="middle" x="981" y="-130.5" font-family="Helvetica,sans-Serif" font-size="10.00">TreeEstimator.hpp</text>
</a>
</g>
</g>
<!-- Node15&#45;&gt;Node16 -->
<g id="edge20" class="edge"><title>Node15&#45;&gt;Node16</title>
<path fill="none" stroke="midnightblue" d="M880.977,-247.935C889.617,-230.811 902.724,-207.641 918,-190 930.204,-175.906 946.732,-162.826 959.797,-153.511"/>
<polygon fill="midnightblue" stroke="midnightblue" points="877.68,-246.711 876.425,-257.232 883.966,-249.79 877.68,-246.711"/>
</g>
<!-- Node17 -->
<g id="node17" class="node"><title>Node17</title>
<g id="a_node17"><a xlink:href="FunctionTreeIntensity_8hpp.html" target="_top" xlink:title="Core/FunctionTree/Function\lTreeIntensity.hpp">
<polygon fill="white" stroke="red" points="1129,-190.5 1129,-220.5 1267,-220.5 1267,-190.5 1129,-190.5"/>
<text text-anchor="start" x="1137" y="-208.5" font-family="Helvetica,sans-Serif" font-size="10.00">Core/FunctionTree/Function</text>
<text text-anchor="middle" x="1198" y="-197.5" font-family="Helvetica,sans-Serif" font-size="10.00">TreeIntensity.hpp</text>
</a>
</g>
</g>
<!-- Node15&#45;&gt;Node17 -->
<g id="edge23" class="edge"><title>Node15&#45;&gt;Node17</title>
<path fill="none" stroke="midnightblue" d="M950.762,-255.495C1005.38,-244.672 1076.75,-230.528 1128.77,-220.22"/>
<polygon fill="midnightblue" stroke="midnightblue" points="949.896,-252.099 940.767,-257.476 951.257,-258.965 949.896,-252.099"/>
</g>
<!-- Node15&#45;&gt;Node19 -->
<g id="edge26" class="edge"><title>Node15&#45;&gt;Node19</title>
<path fill="none" stroke="midnightblue" d="M907.293,-252.853C927.848,-242.576 952.95,-230.025 971.847,-220.577"/>
<polygon fill="midnightblue" stroke="midnightblue" points="905.587,-249.793 898.208,-257.396 908.718,-256.054 905.587,-249.793"/>
</g>
<!-- Node16&#45;&gt;Node6 -->
<g id="edge21" class="edge"><title>Node16&#45;&gt;Node6</title>
<path fill="none" stroke="midnightblue" d="M1017.72,-118.853C1037.96,-108.576 1062.67,-96.0252 1081.28,-86.5765"/>
<polygon fill="midnightblue" stroke="midnightblue" points="1016.11,-115.747 1008.77,-123.396 1019.28,-121.989 1016.11,-115.747"/>
</g>
<!-- Node17&#45;&gt;Node7 -->
<g id="edge24" class="edge"><title>Node17&#45;&gt;Node7</title>
<path fill="none" stroke="midnightblue" d="M1183.51,-181.114C1174.97,-164.079 1167.67,-140.942 1178,-123 1187.67,-106.2 1205.31,-94.4751 1222.19,-86.582"/>
<polygon fill="midnightblue" stroke="midnightblue" points="1180.69,-183.256 1188.56,-190.354 1186.84,-179.9 1180.69,-183.256"/>
</g>
<!-- Node18 -->
<g id="node18" class="node"><title>Node18</title>
<g id="a_node18"><a xlink:href="BuilderXML_8hpp.html" target="_top" xlink:title="Physics/BuilderXML.hpp">
<polygon fill="white" stroke="red" points="1187,-129 1187,-148 1311,-148 1311,-129 1187,-129"/>
<text text-anchor="middle" x="1249" y="-136" font-family="Helvetica,sans-Serif" font-size="10.00">Physics/BuilderXML.hpp</text>
</a>
</g>
</g>
<!-- Node17&#45;&gt;Node18 -->
<g id="edge25" class="edge"><title>Node17&#45;&gt;Node18</title>
<path fill="none" stroke="midnightblue" d="M1215.41,-182.316C1224.6,-170.598 1235.36,-156.883 1242.18,-148.195"/>
<polygon fill="midnightblue" stroke="midnightblue" points="1212.49,-180.368 1209.07,-190.396 1217.99,-184.689 1212.49,-180.368"/>
</g>
<!-- Node20&#45;&gt;Node6 -->
<g id="edge31" class="edge"><title>Node20&#45;&gt;Node6</title>
<path fill="none" stroke="midnightblue" d="M1136.27,-316.395C1130.07,-308.384 1123.49,-298.292 1120,-288 1095.44,-215.63 1103.04,-121.755 1107.14,-86.6044"/>
<polygon fill="midnightblue" stroke="midnightblue" points="1133.62,-318.689 1142.68,-324.18 1139.02,-314.237 1133.62,-318.689"/>
</g>
<!-- Node20&#45;&gt;Node7 -->
<g id="edge32" class="edge"><title>Node20&#45;&gt;Node7</title>
<path fill="none" stroke="midnightblue" d="M1233.08,-325.564C1258.28,-319.225 1283.87,-307.93 1301,-288 1349.12,-232.024 1349.7,-190.581 1320,-123 1313.38,-107.928 1299.79,-95.3815 1287.78,-86.5644"/>
<polygon fill="midnightblue" stroke="midnightblue" points="1232.06,-322.207 1223.08,-327.836 1233.61,-329.033 1232.06,-322.207"/>
</g>
<!-- Node20&#45;&gt;Node15 -->
<g id="edge30" class="edge"><title>Node20&#45;&gt;Node15</title>
<path fill="none" stroke="midnightblue" d="M1100.72,-322.353C1054.79,-312.629 986.578,-298.185 936.226,-287.523"/>
<polygon fill="midnightblue" stroke="midnightblue" points="1100.23,-325.828 1110.74,-324.475 1101.68,-318.979 1100.23,-325.828"/>
</g>
<!-- Node20&#45;&gt;Node18 -->
<g id="edge34" class="edge"><title>Node20&#45;&gt;Node18</title>
<path fill="none" stroke="midnightblue" d="M1232.87,-321.683C1252.01,-315.003 1270.23,-304.492 1282,-288 1314.07,-243.075 1271.78,-172.526 1255.17,-148.136"/>
<polygon fill="midnightblue" stroke="midnightblue" points="1231.6,-318.412 1223.12,-324.751 1233.7,-325.089 1231.6,-318.412"/>
</g>
<!-- Node21 -->
<g id="node21" class="node"><title>Node21</title>
<g id="a_node21"><a xlink:href="Value_8cpp.html" target="_top" xlink:title="Core/FunctionTree/Value.cpp">
<polygon fill="white" stroke="black" points="1129,-263 1129,-282 1273,-282 1273,-263 1129,-263"/>
<text text-anchor="middle" x="1201" y="-270" font-family="Helvetica,sans-Serif" font-size="10.00">Core/FunctionTree/Value.cpp</text>
</a>
</g>
</g>
<!-- Node20&#45;&gt;Node21 -->
<g id="edge33" class="edge"><title>Node20&#45;&gt;Node21</title>
<path fill="none" stroke="midnightblue" d="M1164.72,-316.669C1174.15,-305.452 1186.28,-291.016 1193.85,-282.009"/>
<polygon fill="midnightblue" stroke="midnightblue" points="1161.92,-314.568 1158.16,-324.475 1167.28,-319.071 1161.92,-314.568"/>
</g>
<!-- Node23 -->
<g id="node23" class="node"><title>Node23</title>
<g id="a_node23"><a xlink:href="EvtGenFit_8cpp.html" target="_top" xlink:title="Examples/EvtGen/EvtGenFit.cpp">
<polygon fill="white" stroke="black" points="1367,-263 1367,-282 1529,-282 1529,-263 1367,-263"/>
<text text-anchor="middle" x="1448" y="-270" font-family="Helvetica,sans-Serif" font-size="10.00">Examples/EvtGen/EvtGenFit.cpp</text>
</a>
</g>
</g>
<!-- Node22&#45;&gt;Node23 -->
<g id="edge37" class="edge"><title>Node22&#45;&gt;Node23</title>
<path fill="none" stroke="midnightblue" d="M1448,-314.317C1448,-303.496 1448,-290.398 1448,-282.009"/>
<polygon fill="midnightblue" stroke="midnightblue" points="1444.5,-314.475 1448,-324.475 1451.5,-314.475 1444.5,-314.475"/>
</g>
<!-- Node24 -->
<g id="node24" class="node"><title>Node24</title>
<g id="a_node24"><a xlink:href="EvtGenIF_8cpp.html" target="_top" xlink:title="Physics/EvtGen/EvtGenIF.cpp">
<polygon fill="white" stroke="black" points="1547,-263 1547,-282 1699,-282 1699,-263 1547,-263"/>
<text text-anchor="middle" x="1623" y="-270" font-family="Helvetica,sans-Serif" font-size="10.00">Physics/EvtGen/EvtGenIF.cpp</text>
</a>
</g>
</g>
<!-- Node22&#45;&gt;Node24 -->
<g id="edge38" class="edge"><title>Node22&#45;&gt;Node24</title>
<path fill="none" stroke="midnightblue" d="M1482.61,-321.232C1516.63,-309.666 1567.72,-292.297 1597.97,-282.009"/>
<polygon fill="midnightblue" stroke="midnightblue" points="1481.41,-317.942 1473.07,-324.475 1483.67,-324.57 1481.41,-317.942"/>
</g>
</g>
</svg>
