<?xml version="1.0" encoding="UTF-8" standalone="no"?>
<!DOCTYPE svg PUBLIC "-//W3C//DTD SVG 1.1//EN"
 "http://www.w3.org/Graphics/SVG/1.1/DTD/svg11.dtd">
<!-- Generated by graphviz version 2.38.0 (20140413.2041)
 -->
<!-- Title: Core/FunctionTree/Functions.hpp Pages: 1 -->
<!--zoomable 274 -->
<svg id="main" version="1.1" xmlns="http://www.w3.org/2000/svg" xmlns:xlink="http://www.w3.org/1999/xlink" xml:space="preserve" onload="init(evt)">
<style type="text/css"><![CDATA[
.edge:hover path { stroke: red; }
.edge:hover polygon { stroke: red; fill: red; }
]]></style>
<script type="text/javascript"><![CDATA[
var edges = document.getElementsByTagName('g');
if (edges && edges.length) {
  for (var i=0;i<edges.length;i++) {
    if (edges[i].id.substr(0,4)=='edge') {
      edges[i].setAttribute('class','edge');
    }
  }
}
]]></script>
        <defs>
                <circle id="rim" cx="0" cy="0" r="7"/>
                <circle id="rim2" cx="0" cy="0" r="3.5"/>
                <g id="zoomPlus">
                        <use xlink:href="#rim" fill="#404040">
                                <set attributeName="fill" to="#808080" begin="zoomplus.mouseover" end="zoomplus.mouseout"/>
                        </use>
                        <path d="M-4,0h8M0,-4v8" fill="none" stroke="white" stroke-width="1.5" pointer-events="none"/>
                </g>
                <g id="zoomMin">
                        <use xlink:href="#rim" fill="#404040">
                                <set attributeName="fill" to="#808080" begin="zoomminus.mouseover" end="zoomminus.mouseout"/>
                        </use>
                        <path d="M-4,0h8" fill="none" stroke="white" stroke-width="1.5" pointer-events="none"/>
                </g>
                <g id="dirArrow">
                        <path fill="none" stroke="white" stroke-width="1.5" d="M0,-3.0v7 M-2.5,-0.5L0,-3.0L2.5,-0.5"/>
                </g>
               <g id="resetDef">
                       <use xlink:href="#rim2" fill="#404040">
                               <set attributeName="fill" to="#808080" begin="reset.mouseover" end="reset.mouseout"/>
                       </use>
               </g>
        </defs>

<script type="text/javascript">
var viewWidth = 1130;
var viewHeight = 274;
var sectionId = 'dynsection-1';
</script>
<script xlink:href="svgpan.js"/>
<svg id="graph" class="graph">
<g id="viewport">
<title>Core/FunctionTree/Functions.hpp</title>
<polygon fill="white" stroke="none" points="-4,4 -4,-270 1125.56,-270 1125.56,4 -4,4"/>
<!-- Node1 -->
<g id="node1" class="node"><title>Node1</title>
<polygon fill="#bfbfbf" stroke="black" points="677,-246.5 677,-265.5 839,-265.5 839,-246.5 677,-246.5"/>
<text text-anchor="middle" x="758" y="-253.5" font-family="Helvetica,sans-Serif" font-size="10.00">Core/FunctionTree/Functions.hpp</text>
</g>
<!-- Node2 -->
<g id="node2" class="node"><title>Node2</title>
<g id="a_node2"><a xlink:href="Functions_8cpp.html" target="_top" xlink:title="Core/FunctionTree/Functions.cpp">
<polygon fill="white" stroke="black" points="379,-190.5 379,-209.5 541,-209.5 541,-190.5 379,-190.5"/>
<text text-anchor="middle" x="460" y="-197.5" font-family="Helvetica,sans-Serif" font-size="10.00">Core/FunctionTree/Functions.cpp</text>
</a>
</g>
</g>
<!-- Node1&#45;&gt;Node2 -->
<g id="edge1" class="edge"><title>Node1&#45;&gt;Node2</title>
<path fill="none" stroke="midnightblue" d="M700.611,-244.601C644.293,-234.395 559.438,-219.019 506.998,-209.516"/>
<polygon fill="midnightblue" stroke="midnightblue" points="700.317,-248.104 710.781,-246.444 701.565,-241.217 700.317,-248.104"/>
</g>
<!-- Node3 -->
<g id="node3" class="node"><title>Node3</title>
<g id="a_node3"><a xlink:href="TreeNode_8hpp.html" target="_top" xlink:title="TreeNode class. ">
<polygon fill="white" stroke="black" points="597,-190.5 597,-209.5 759,-209.5 759,-190.5 597,-190.5"/>
<text text-anchor="middle" x="678" y="-197.5" font-family="Helvetica,sans-Serif" font-size="10.00">Core/FunctionTree/TreeNode.hpp</text>
</a>
</g>
</g>
<!-- Node1&#45;&gt;Node3 -->
<g id="edge2" class="edge"><title>Node1&#45;&gt;Node3</title>
<path fill="none" stroke="midnightblue" d="M736.699,-240.622C722.085,-230.757 703.173,-217.992 690.821,-209.655"/>
<polygon fill="midnightblue" stroke="midnightblue" points="734.9,-243.63 745.147,-246.324 738.816,-237.828 734.9,-243.63"/>
</g>
<!-- Node6 -->
<g id="node6" class="node"><title>Node6</title>
<g id="a_node6"><a xlink:href="TreeNode_8cpp.html" target="_top" xlink:title="Core/FunctionTree/TreeNode.cpp">
<polygon fill="white" stroke="black" points="0,-129 0,-148 162,-148 162,-129 0,-129"/>
<text text-anchor="middle" x="81" y="-136" font-family="Helvetica,sans-Serif" font-size="10.00">Core/FunctionTree/TreeNode.cpp</text>
</a>
</g>
</g>
<!-- Node1&#45;&gt;Node6 -->
<g id="edge14" class="edge"><title>Node1&#45;&gt;Node6</title>
<path fill="none" stroke="midnightblue" d="M705.039,-244.224C670.993,-236.511 626.154,-224.87 588,-210 570.218,-203.07 568.291,-195.45 550,-190 387.843,-141.683 338.835,-175.468 171,-154 157.813,-152.313 143.59,-150.172 130.431,-148.057"/>
<polygon fill="midnightblue" stroke="midnightblue" points="704.718,-247.738 715.239,-246.491 706.236,-240.905 704.718,-247.738"/>
</g>
<!-- Node9 -->
<g id="node9" class="node"><title>Node9</title>
<g id="a_node9"><a xlink:href="FormFactor_8hpp.html" target="_top" xlink:title="Physics/Dynamics/FormFactor.hpp">
<polygon fill="white" stroke="red" points="778.5,-129 778.5,-148 949.5,-148 949.5,-129 778.5,-129"/>
<text text-anchor="middle" x="864" y="-136" font-family="Helvetica,sans-Serif" font-size="10.00">Physics/Dynamics/FormFactor.hpp</text>
</a>
</g>
</g>
<!-- Node1&#45;&gt;Node9 -->
<g id="edge15" class="edge"><title>Node1&#45;&gt;Node9</title>
<path fill="none" stroke="midnightblue" d="M772.845,-238.824C795.569,-214.064 838.204,-167.607 855.94,-148.282"/>
<polygon fill="midnightblue" stroke="midnightblue" points="770.15,-236.585 765.967,-246.319 775.307,-241.318 770.15,-236.585"/>
</g>
<!-- Node11 -->
<g id="node11" class="node"><title>Node11</title>
<g id="a_node11"><a xlink:href="Voigtian_8hpp.html" target="_top" xlink:title="This file contains the declaration of the Voigtian class, which is used the implementation of voigt f...">
<polygon fill="white" stroke="red" points="838,-0.5 838,-19.5 994,-19.5 994,-0.5 838,-0.5"/>
<text text-anchor="middle" x="916" y="-7.5" font-family="Helvetica,sans-Serif" font-size="10.00">Physics/Dynamics/Voigtian.hpp</text>
</a>
</g>
</g>
<!-- Node1&#45;&gt;Node11 -->
<g id="edge16" class="edge"><title>Node1&#45;&gt;Node11</title>
<path fill="none" stroke="midnightblue" d="M828.701,-244.902C921.628,-230.015 1077.07,-198.995 1111,-154 1160.98,-87.7129 1017.39,-38.5067 949.457,-19.5459"/>
<polygon fill="midnightblue" stroke="midnightblue" points="828.133,-241.448 818.801,-246.464 829.225,-248.362 828.133,-241.448"/>
</g>
<!-- Node12 -->
<g id="node12" class="node"><title>Node12</title>
<g id="a_node12"><a xlink:href="WignerD_8hpp.html" target="_top" xlink:title="Physics/HelicityFormalism\l/WignerD.hpp">
<polygon fill="white" stroke="red" points="968,-123.5 968,-153.5 1102,-153.5 1102,-123.5 968,-123.5"/>
<text text-anchor="start" x="976" y="-141.5" font-family="Helvetica,sans-Serif" font-size="10.00">Physics/HelicityFormalism</text>
<text text-anchor="middle" x="1035" y="-130.5" font-family="Helvetica,sans-Serif" font-size="10.00">/WignerD.hpp</text>
</a>
</g>
</g>
<!-- Node1&#45;&gt;Node12 -->
<g id="edge17" class="edge"><title>Node1&#45;&gt;Node12</title>
<path fill="none" stroke="midnightblue" d="M788.194,-242.41C840.328,-220.672 946.858,-176.253 1001.32,-153.545"/>
<polygon fill="midnightblue" stroke="midnightblue" points="786.703,-239.24 778.82,-246.319 789.397,-245.701 786.703,-239.24"/>
</g>
<!-- Node4 -->
<g id="node4" class="node"><title>Node4</title>
<g id="a_node4"><a xlink:href="FunctionTreeEstimator_8cpp.html" target="_top" xlink:title="Core/FunctionTree/Function\lTreeEstimator.cpp">
<polygon fill="white" stroke="black" points="428,-123.5 428,-153.5 566,-153.5 566,-123.5 428,-123.5"/>
<text text-anchor="start" x="436" y="-141.5" font-family="Helvetica,sans-Serif" font-size="10.00">Core/FunctionTree/Function</text>
<text text-anchor="middle" x="497" y="-130.5" font-family="Helvetica,sans-Serif" font-size="10.00">TreeEstimator.cpp</text>
</a>
</g>
</g>
<!-- Node3&#45;&gt;Node4 -->
<g id="edge3" class="edge"><title>Node3&#45;&gt;Node4</title>
<path fill="none" stroke="midnightblue" d="M642.196,-187.23C612.723,-177.542 570.865,-163.782 539.658,-153.523"/>
<polygon fill="midnightblue" stroke="midnightblue" points="641.474,-190.677 652.067,-190.475 643.66,-184.027 641.474,-190.677"/>
</g>
<!-- Node5 -->
<g id="node5" class="node"><title>Node5</title>
<g id="a_node5"><a xlink:href="FunctionTreeIntensity_8cpp.html" target="_top" xlink:title="Core/FunctionTree/Function\lTreeIntensity.cpp">
<polygon fill="white" stroke="black" points="584,-123.5 584,-153.5 722,-153.5 722,-123.5 584,-123.5"/>
<text text-anchor="start" x="592" y="-141.5" font-family="Helvetica,sans-Serif" font-size="10.00">Core/FunctionTree/Function</text>
<text text-anchor="middle" x="653" y="-130.5" font-family="Helvetica,sans-Serif" font-size="10.00">TreeIntensity.cpp</text>
</a>
</g>
</g>
<!-- Node3&#45;&gt;Node5 -->
<g id="edge4" class="edge"><title>Node3&#45;&gt;Node5</title>
<path fill="none" stroke="midnightblue" d="M670.481,-181.104C666.768,-172.269 662.355,-161.766 658.892,-153.523"/>
<polygon fill="midnightblue" stroke="midnightblue" points="667.318,-182.612 674.418,-190.475 673.771,-179.9 667.318,-182.612"/>
</g>
<!-- Node3&#45;&gt;Node6 -->
<g id="edge5" class="edge"><title>Node3&#45;&gt;Node6</title>
<path fill="none" stroke="midnightblue" d="M586.855,-190.352C585.562,-190.234 584.276,-190.116 583,-190 399.948,-173.332 353.41,-176.633 171,-154 157.65,-152.344 143.243,-150.189 129.953,-148.049"/>
<polygon fill="midnightblue" stroke="midnightblue" points="586.619,-193.845 596.897,-191.277 587.26,-186.874 586.619,-193.845"/>
</g>
<!-- Node7 -->
<g id="node7" class="node"><title>Node7</title>
<g id="a_node7"><a xlink:href="MinLogLH_8cpp.html" target="_top" xlink:title="Estimator/MinLogLH\l/MinLogLH.cpp">
<polygon fill="white" stroke="black" points="180,-123.5 180,-153.5 286,-153.5 286,-123.5 180,-123.5"/>
<text text-anchor="start" x="188" y="-141.5" font-family="Helvetica,sans-Serif" font-size="10.00">Estimator/MinLogLH</text>
<text text-anchor="middle" x="233" y="-130.5" font-family="Helvetica,sans-Serif" font-size="10.00">/MinLogLH.cpp</text>
</a>
</g>
</g>
<!-- Node3&#45;&gt;Node7 -->
<g id="edge6" class="edge"><title>Node3&#45;&gt;Node7</title>
<path fill="none" stroke="midnightblue" d="M586.571,-189.46C491.509,-179.325 349.164,-163.484 295,-154 292.06,-153.485 289.051,-152.918 286.019,-152.314"/>
<polygon fill="midnightblue" stroke="midnightblue" points="586.453,-192.967 596.767,-190.544 587.193,-186.006 586.453,-192.967"/>
</g>
<!-- Node8 -->
<g id="node8" class="node"><title>Node8</title>
<g id="a_node8"><a xlink:href="SumMinLogLH_8cpp.html" target="_top" xlink:title="Estimator/MinLogLH\l/SumMinLogLH.cpp">
<polygon fill="white" stroke="black" points="304,-123.5 304,-153.5 410,-153.5 410,-123.5 304,-123.5"/>
<text text-anchor="start" x="312" y="-141.5" font-family="Helvetica,sans-Serif" font-size="10.00">Estimator/MinLogLH</text>
<text text-anchor="middle" x="357" y="-130.5" font-family="Helvetica,sans-Serif" font-size="10.00">/SumMinLogLH.cpp</text>
</a>
</g>
</g>
<!-- Node3&#45;&gt;Node8 -->
<g id="edge7" class="edge"><title>Node3&#45;&gt;Node8</title>
<path fill="none" stroke="midnightblue" d="M613.328,-188.827C560.815,-180.311 484.929,-167.425 419,-154 416.075,-153.404 413.078,-152.773 410.056,-152.12"/>
<polygon fill="midnightblue" stroke="midnightblue" points="613.078,-192.332 623.509,-190.471 614.194,-185.421 613.078,-192.332"/>
</g>
<!-- Node3&#45;&gt;Node9 -->
<g id="edge8" class="edge"><title>Node3&#45;&gt;Node9</title>
<path fill="none" stroke="midnightblue" d="M714.323,-187.381C750.477,-175.815 805.103,-158.341 837.4,-148.009"/>
<polygon fill="midnightblue" stroke="midnightblue" points="713.107,-184.095 704.649,-190.475 715.24,-190.762 713.107,-184.095"/>
</g>
<!-- Node10 -->
<g id="node10" class="node"><title>Node10</title>
<g id="a_node10"><a xlink:href="RelativisticBreitWigner_8hpp.html" target="_top" xlink:title="Physics/Dynamics/Relativistic\lBreitWigner.hpp">
<polygon fill="white" stroke="red" points="736.5,-56.5 736.5,-86.5 887.5,-86.5 887.5,-56.5 736.5,-56.5"/>
<text text-anchor="start" x="744.5" y="-74.5" font-family="Helvetica,sans-Serif" font-size="10.00">Physics/Dynamics/Relativistic</text>
<text text-anchor="middle" x="812" y="-63.5" font-family="Helvetica,sans-Serif" font-size="10.00">BreitWigner.hpp</text>
</a>
</g>
</g>
<!-- Node3&#45;&gt;Node10 -->
<g id="edge12" class="edge"><title>Node3&#45;&gt;Node10</title>
<path fill="none" stroke="midnightblue" d="M696.728,-183.756C707.025,-175.212 719.921,-164.243 731,-154 755.608,-131.249 782.802,-103.259 798.59,-86.705"/>
<polygon fill="midnightblue" stroke="midnightblue" points="694.283,-181.235 688.787,-190.293 698.732,-186.64 694.283,-181.235"/>
</g>
<!-- Node3&#45;&gt;Node12 -->
<g id="edge13" class="edge"><title>Node3&#45;&gt;Node12</title>
<path fill="none" stroke="midnightblue" d="M743.78,-188.937C800.575,-180.128 884.792,-166.773 958,-154 961.216,-153.439 964.506,-152.855 967.828,-152.259"/>
<polygon fill="midnightblue" stroke="midnightblue" points="743.202,-185.485 733.855,-190.474 744.273,-192.403 743.202,-185.485"/>
</g>
<!-- Node9&#45;&gt;Node10 -->
<g id="edge9" class="edge"><title>Node9&#45;&gt;Node10</title>
<path fill="none" stroke="midnightblue" d="M850.538,-120.673C842.075,-110.094 831.281,-96.6019 823.271,-86.589"/>
<polygon fill="midnightblue" stroke="midnightblue" points="848.007,-123.112 856.987,-128.734 853.473,-118.739 848.007,-123.112"/>
</g>
<!-- Node9&#45;&gt;Node11 -->
<g id="edge11" class="edge"><title>Node9&#45;&gt;Node11</title>
<path fill="none" stroke="midnightblue" d="M876.806,-120.248C883.312,-110.818 890.899,-98.7031 896,-87 906.14,-63.7368 912.103,-34.1581 914.606,-19.7215"/>
<polygon fill="midnightblue" stroke="midnightblue" points="873.757,-118.496 870.793,-128.667 879.453,-122.564 873.757,-118.496"/>
</g>
<!-- Node10&#45;&gt;Node11 -->
<g id="edge10" class="edge"><title>Node10&#45;&gt;Node11</title>
<path fill="none" stroke="midnightblue" d="M845.454,-51.3602C864.098,-40.694 886.401,-27.9338 900.867,-19.6578"/>
<polygon fill="midnightblue" stroke="midnightblue" points="843.588,-48.3954 836.647,-56.3993 847.064,-54.4714 843.588,-48.3954"/>
</g>
</g>
</svg>
        <g id="navigator" transform="translate(0 0)" fill="#404254">
                <rect fill="#f2f5e9" fill-opacity="0.5" stroke="#606060" stroke-width=".5" x="0" y="0" width="60" height="60"/>
                <use id="zoomplus" xlink:href="#zoomPlus" x="17" y="9" onmousedown="handleZoom(evt,'in')"/>
                <use id="zoomminus" xlink:href="#zoomMin" x="42" y="9" onmousedown="handleZoom(evt,'out')"/>
                <use id="reset" xlink:href="#resetDef" x="30" y="36" onmousedown="handleReset()"/>
                <g id="arrowUp" xlink:href="#dirArrow" transform="translate(30 24)" onmousedown="handlePan(0,-1)">
                  <use xlink:href="#rim" fill="#404040">
                        <set attributeName="fill" to="#808080" begin="arrowUp.mouseover" end="arrowUp.mouseout"/>
                  </use>
                  <path fill="none" stroke="white" stroke-width="1.5" d="M0,-3.0v7 M-2.5,-0.5L0,-3.0L2.5,-0.5"/>
                </g>
                <g id="arrowRight" xlink:href="#dirArrow" transform="rotate(90) translate(36 -43)" onmousedown="handlePan(1,0)">
                  <use xlink:href="#rim" fill="#404040">
                        <set attributeName="fill" to="#808080" begin="arrowRight.mouseover" end="arrowRight.mouseout"/>
                  </use>
                  <path fill="none" stroke="white" stroke-width="1.5" d="M0,-3.0v7 M-2.5,-0.5L0,-3.0L2.5,-0.5"/>
                </g>
                <g id="arrowDown" xlink:href="#dirArrow" transform="rotate(180) translate(-30 -48)" onmousedown="handlePan(0,1)">
                  <use xlink:href="#rim" fill="#404040">
                        <set attributeName="fill" to="#808080" begin="arrowDown.mouseover" end="arrowDown.mouseout"/>
                  </use>
                  <path fill="none" stroke="white" stroke-width="1.5" d="M0,-3.0v7 M-2.5,-0.5L0,-3.0L2.5,-0.5"/>
                </g>
                <g id="arrowLeft" xlink:href="#dirArrow" transform="rotate(270) translate(-36 17)" onmousedown="handlePan(-1,0)">
                  <use xlink:href="#rim" fill="#404040">
                        <set attributeName="fill" to="#808080" begin="arrowLeft.mouseover" end="arrowLeft.mouseout"/>
                  </use>
                  <path fill="none" stroke="white" stroke-width="1.5" d="M0,-3.0v7 M-2.5,-0.5L0,-3.0L2.5,-0.5"/>
                </g>
        </g>
        <svg viewBox="0 0 15 15" width="100%" height="30px" preserveAspectRatio="xMaxYMin meet">
         <g id="arrow_out" transform="scale(0.3 0.3)">
          <a xlink:href="Functions_8hpp__dep__incl_org.svg" target="_base">
           <rect id="button" ry="5" rx="5" y="6" x="6" height="38" width="38"
                fill="#f2f5e9" fill-opacity="0.5" stroke="#606060" stroke-width="1.0"/>
           <path id="arrow"
             d="M 11.500037,31.436501 C 11.940474,20.09759 22.043105,11.32322 32.158766,21.979434 L 37.068811,17.246167 C 37.068811,17.246167 37.088388,32 37.088388,32 L 22.160133,31.978069 C 22.160133,31.978069 26.997745,27.140456 26.997745,27.140456 C 18.528582,18.264221 13.291696,25.230495 11.500037,31.436501 z"
             style="fill:#404040;"/>
          </a>
         </g>
        </svg>
</svg>
