<?xml version="1.0" encoding="UTF-8" standalone="no"?>
<!DOCTYPE svg PUBLIC "-//W3C//DTD SVG 1.1//EN"
 "http://www.w3.org/Graphics/SVG/1.1/DTD/svg11.dtd">
<!-- Generated by graphviz version 2.38.0 (20140413.2041)
 -->
<!-- Title: Core/FunctionTree/FunctionTreeIntensity.hpp Pages: 1 -->
<!--zoomable 341 -->
<svg id="main" version="1.1" xmlns="http://www.w3.org/2000/svg" xmlns:xlink="http://www.w3.org/1999/xlink" xml:space="preserve" onload="init(evt)">
<style type="text/css"><![CDATA[
.edge:hover path { stroke: red; }
.edge:hover polygon { stroke: red; fill: red; }
]]></style>
<script type="text/javascript"><![CDATA[
var edges = document.getElementsByTagName('g');
if (edges && edges.length) {
  for (var i=0;i<edges.length;i++) {
    if (edges[i].id.substr(0,4)=='edge') {
      edges[i].setAttribute('class','edge');
    }
  }
}
]]></script>
        <defs>
                <circle id="rim" cx="0" cy="0" r="7"/>
                <circle id="rim2" cx="0" cy="0" r="3.5"/>
                <g id="zoomPlus">
                        <use xlink:href="#rim" fill="#404040">
                                <set attributeName="fill" to="#808080" begin="zoomplus.mouseover" end="zoomplus.mouseout"/>
                        </use>
                        <path d="M-4,0h8M0,-4v8" fill="none" stroke="white" stroke-width="1.5" pointer-events="none"/>
                </g>
                <g id="zoomMin">
                        <use xlink:href="#rim" fill="#404040">
                                <set attributeName="fill" to="#808080" begin="zoomminus.mouseover" end="zoomminus.mouseout"/>
                        </use>
                        <path d="M-4,0h8" fill="none" stroke="white" stroke-width="1.5" pointer-events="none"/>
                </g>
                <g id="dirArrow">
                        <path fill="none" stroke="white" stroke-width="1.5" d="M0,-3.0v7 M-2.5,-0.5L0,-3.0L2.5,-0.5"/>
                </g>
               <g id="resetDef">
                       <use xlink:href="#rim2" fill="#404040">
                               <set attributeName="fill" to="#808080" begin="reset.mouseover" end="reset.mouseout"/>
                       </use>
               </g>
        </defs>

<script type="text/javascript">
var viewWidth = 1374;
var viewHeight = 341;
var sectionId = 'dynsection-0';
</script>
<script xlink:href="svgpan.js"/>
<svg id="graph" class="graph">
<g id="viewport">
<title>Core/FunctionTree/FunctionTreeIntensity.hpp</title>
<polygon fill="white" stroke="none" points="-4,4 -4,-337 1369.5,-337 1369.5,4 -4,4"/>
<!-- Node1 -->
<g id="node1" class="node"><title>Node1</title>
<polygon fill="#bfbfbf" stroke="black" points="158.5,-302.5 158.5,-332.5 296.5,-332.5 296.5,-302.5 158.5,-302.5"/>
<text text-anchor="start" x="166.5" y="-320.5" font-family="Helvetica,sans-Serif" font-size="10.00">Core/FunctionTree/Function</text>
<text text-anchor="middle" x="227.5" y="-309.5" font-family="Helvetica,sans-Serif" font-size="10.00">TreeIntensity.hpp</text>
</g>
<!-- Node2 -->
<g id="node2" class="node"><title>Node2</title>
<polygon fill="white" stroke="#bfbfbf" points="201.5,-174 201.5,-193 253.5,-193 253.5,-174 201.5,-174"/>
<text text-anchor="middle" x="227.5" y="-181" font-family="Helvetica,sans-Serif" font-size="10.00">memory</text>
</g>
<!-- Node1&#45;&gt;Node2 -->
<g id="edge1" class="edge"><title>Node1&#45;&gt;Node2</title>
<path fill="none" stroke="midnightblue" d="M227.5,-302.374C227.5,-278.504 227.5,-230.181 227.5,-203.415"/>
<polygon fill="midnightblue" stroke="midnightblue" points="231,-203.097 227.5,-193.097 224,-203.097 231,-203.097"/>
</g>
<!-- Node3 -->
<g id="node3" class="node"><title>Node3</title>
<g id="a_node3"><a xlink:href="Function_8hpp.html" target="_top" xlink:title="Core/Function.hpp">
<polygon fill="white" stroke="black" points="83,-241 83,-260 180,-260 180,-241 83,-241"/>
<text text-anchor="middle" x="131.5" y="-248" font-family="Helvetica,sans-Serif" font-size="10.00">Core/Function.hpp</text>
</a>
</g>
</g>
<!-- Node1&#45;&gt;Node3 -->
<g id="edge2" class="edge"><title>Node1&#45;&gt;Node3</title>
<path fill="none" stroke="midnightblue" d="M206.669,-302.396C190.72,-291.597 168.802,-276.756 152.749,-265.887"/>
<polygon fill="midnightblue" stroke="midnightblue" points="154.307,-262.715 144.064,-260.007 150.382,-268.512 154.307,-262.715"/>
</g>
<!-- Node7 -->
<g id="node7" class="node"><title>Node7</title>
<g id="a_node7"><a xlink:href="ParameterList_8hpp.html" target="_top" xlink:title="ParameterList class. ">
<polygon fill="white" stroke="black" points="614.5,-235.5 614.5,-265.5 760.5,-265.5 760.5,-235.5 614.5,-235.5"/>
<text text-anchor="start" x="622.5" y="-253.5" font-family="Helvetica,sans-Serif" font-size="10.00">Core/FunctionTree/Parameter</text>
<text text-anchor="middle" x="687.5" y="-242.5" font-family="Helvetica,sans-Serif" font-size="10.00">List.hpp</text>
</a>
</g>
</g>
<!-- Node1&#45;&gt;Node7 -->
<g id="edge6" class="edge"><title>Node1&#45;&gt;Node7</title>
<path fill="none" stroke="midnightblue" d="M296.865,-306.698C379.154,-295.071 516.238,-275.7 604.197,-263.271"/>
<polygon fill="midnightblue" stroke="midnightblue" points="604.729,-266.731 614.141,-261.866 603.75,-259.8 604.729,-266.731"/>
</g>
<!-- Node4 -->
<g id="node4" class="node"><title>Node4</title>
<polygon fill="white" stroke="#bfbfbf" points="690,-0.5 690,-19.5 731,-19.5 731,-0.5 690,-0.5"/>
<text text-anchor="middle" x="710.5" y="-7.5" font-family="Helvetica,sans-Serif" font-size="10.00">string</text>
</g>
<!-- Node3&#45;&gt;Node4 -->
<g id="edge3" class="edge"><title>Node3&#45;&gt;Node4</title>
<path fill="none" stroke="midnightblue" d="M128.248,-240.811C122.807,-224.632 113.988,-189.576 130.5,-168 199.449,-77.906 569.927,-27.5708 679.78,-14.4706"/>
<polygon fill="midnightblue" stroke="midnightblue" points="680.344,-17.9286 689.867,-13.2857 679.527,-10.9764 680.344,-17.9286"/>
</g>
<!-- Node5 -->
<g id="node5" class="node"><title>Node5</title>
<polygon fill="white" stroke="#bfbfbf" points="0,-174 0,-193 83,-193 83,-174 0,-174"/>
<text text-anchor="middle" x="41.5" y="-181" font-family="Helvetica,sans-Serif" font-size="10.00">unordered_map</text>
</g>
<!-- Node3&#45;&gt;Node5 -->
<g id="edge4" class="edge"><title>Node3&#45;&gt;Node5</title>
<path fill="none" stroke="midnightblue" d="M119.362,-240.734C104.653,-230.111 79.6441,-212.049 61.9428,-199.264"/>
<polygon fill="midnightblue" stroke="midnightblue" points="63.6015,-196.145 53.4455,-193.127 59.5031,-201.82 63.6015,-196.145"/>
</g>
<!-- Node6 -->
<g id="node6" class="node"><title>Node6</title>
<polygon fill="white" stroke="#bfbfbf" points="139.5,-174 139.5,-193 183.5,-193 183.5,-174 139.5,-174"/>
<text text-anchor="middle" x="161.5" y="-181" font-family="Helvetica,sans-Serif" font-size="10.00">vector</text>
</g>
<!-- Node3&#45;&gt;Node6 -->
<g id="edge5" class="edge"><title>Node3&#45;&gt;Node6</title>
<path fill="none" stroke="midnightblue" d="M135.546,-240.734C140.044,-230.988 147.432,-214.981 153.178,-202.532"/>
<polygon fill="midnightblue" stroke="midnightblue" points="156.505,-203.674 157.518,-193.127 150.15,-200.74 156.505,-203.674"/>
</g>
<!-- Node7&#45;&gt;Node2 -->
<g id="edge9" class="edge"><title>Node7&#45;&gt;Node2</title>
<path fill="none" stroke="midnightblue" d="M614.182,-246.885C528.567,-242.439 383.278,-230.55 262.5,-199 260.05,-198.36 257.545,-197.585 255.058,-196.729"/>
<polygon fill="midnightblue" stroke="midnightblue" points="256.291,-193.453 245.701,-193.148 253.789,-199.991 256.291,-193.453"/>
</g>
<!-- Node7&#45;&gt;Node4 -->
<g id="edge11" class="edge"><title>Node7&#45;&gt;Node4</title>
<path fill="none" stroke="midnightblue" d="M674.493,-235.461C645.369,-202.261 580.357,-117.119 618.5,-56 631.848,-34.6113 658.635,-23.1108 679.878,-17.1065"/>
<polygon fill="midnightblue" stroke="midnightblue" points="680.953,-20.4444 689.778,-14.5812 679.223,-13.6616 680.953,-20.4444"/>
</g>
<!-- Node7&#45;&gt;Node6 -->
<g id="edge12" class="edge"><title>Node7&#45;&gt;Node6</title>
<path fill="none" stroke="midnightblue" d="M614.374,-249.631C516.53,-248.102 338.419,-239.32 192.5,-199 190.567,-198.466 188.605,-197.821 186.655,-197.103"/>
<polygon fill="midnightblue" stroke="midnightblue" points="187.77,-193.774 177.198,-193.087 185.035,-200.217 187.77,-193.774"/>
</g>
<!-- Node8 -->
<g id="node8" class="node"><title>Node8</title>
<polygon fill="white" stroke="#bfbfbf" points="739.5,-56.5 739.5,-75.5 793.5,-75.5 793.5,-56.5 739.5,-56.5"/>
<text text-anchor="middle" x="766.5" y="-63.5" font-family="Helvetica,sans-Serif" font-size="10.00">iostream</text>
</g>
<!-- Node7&#45;&gt;Node8 -->
<g id="edge7" class="edge"><title>Node7&#45;&gt;Node8</title>
<path fill="none" stroke="midnightblue" d="M687.002,-235.151C686.728,-208.869 689.154,-152.032 712.5,-112 719.776,-99.5227 731.867,-88.9638 742.766,-81.2165"/>
<polygon fill="midnightblue" stroke="midnightblue" points="744.766,-84.0895 751.135,-75.6231 740.876,-78.2695 744.766,-84.0895"/>
</g>
<!-- Node9 -->
<g id="node9" class="node"><title>Node9</title>
<polygon fill="white" stroke="#bfbfbf" points="992,-174 992,-193 1027,-193 1027,-174 992,-174"/>
<text text-anchor="middle" x="1009.5" y="-181" font-family="Helvetica,sans-Serif" font-size="10.00">map</text>
</g>
<!-- Node7&#45;&gt;Node9 -->
<g id="edge8" class="edge"><title>Node7&#45;&gt;Node9</title>
<path fill="none" stroke="midnightblue" d="M760.802,-241.938C820.165,-234.582 905.463,-221.199 977.5,-199 979.38,-198.421 981.294,-197.757 983.204,-197.04"/>
<polygon fill="midnightblue" stroke="midnightblue" points="984.657,-200.226 992.539,-193.147 981.962,-193.766 984.657,-200.226"/>
</g>
<!-- Node10 -->
<g id="node10" class="node"><title>Node10</title>
<polygon fill="white" stroke="#bfbfbf" points="975.5,-56.5 975.5,-75.5 1027.5,-75.5 1027.5,-56.5 975.5,-56.5"/>
<text text-anchor="middle" x="1001.5" y="-63.5" font-family="Helvetica,sans-Serif" font-size="10.00">sstream</text>
</g>
<!-- Node7&#45;&gt;Node10 -->
<g id="edge10" class="edge"><title>Node7&#45;&gt;Node10</title>
<path fill="none" stroke="midnightblue" d="M760.604,-240.727C820.84,-232.303 900.436,-218.05 926.5,-199 965.747,-170.314 987.372,-114.446 996.395,-85.453"/>
<polygon fill="midnightblue" stroke="midnightblue" points="999.779,-86.3511 999.247,-75.7697 993.064,-84.3736 999.779,-86.3511"/>
</g>
<!-- Node11 -->
<g id="node11" class="node"><title>Node11</title>
<polygon fill="white" stroke="#bfbfbf" points="1045,-168.5 1045,-198.5 1140,-198.5 1140,-168.5 1045,-168.5"/>
<text text-anchor="start" x="1053" y="-186.5" font-family="Helvetica,sans-Serif" font-size="10.00">boost/serialization</text>
<text text-anchor="middle" x="1092.5" y="-175.5" font-family="Helvetica,sans-Serif" font-size="10.00">/shared_ptr.hpp</text>
</g>
<!-- Node7&#45;&gt;Node11 -->
<g id="edge13" class="edge"><title>Node7&#45;&gt;Node11</title>
<path fill="none" stroke="midnightblue" d="M760.759,-241.271C829.371,-233.024 934.901,-218.961 1034.95,-199.192"/>
<polygon fill="midnightblue" stroke="midnightblue" points="1035.8,-202.59 1044.92,-197.198 1034.43,-195.726 1035.8,-202.59"/>
</g>
<!-- Node12 -->
<g id="node12" class="node"><title>Node12</title>
<polygon fill="white" stroke="#bfbfbf" points="1158,-168.5 1158,-198.5 1253,-198.5 1253,-168.5 1158,-168.5"/>
<text text-anchor="start" x="1166" y="-186.5" font-family="Helvetica,sans-Serif" font-size="10.00">boost/serialization</text>
<text text-anchor="middle" x="1205.5" y="-175.5" font-family="Helvetica,sans-Serif" font-size="10.00">/vector.hpp</text>
</g>
<!-- Node7&#45;&gt;Node12 -->
<g id="edge14" class="edge"><title>Node7&#45;&gt;Node12</title>
<path fill="none" stroke="midnightblue" d="M760.788,-244.773C850.156,-238.275 1005.87,-224.587 1147.75,-199.163"/>
<polygon fill="midnightblue" stroke="midnightblue" points="1148.73,-202.543 1157.95,-197.312 1147.48,-195.656 1148.73,-202.543"/>
</g>
<!-- Node13 -->
<g id="node13" class="node"><title>Node13</title>
<g id="a_node13"><a xlink:href="Exceptions_8hpp.html" target="_top" xlink:title="ComPWA exceptions. ">
<polygon fill="white" stroke="red" points="849.5,-56.5 849.5,-75.5 957.5,-75.5 957.5,-56.5 849.5,-56.5"/>
<text text-anchor="middle" x="903.5" y="-63.5" font-family="Helvetica,sans-Serif" font-size="10.00">Core/Exceptions.hpp</text>
</a>
</g>
</g>
<!-- Node7&#45;&gt;Node13 -->
<g id="edge15" class="edge"><title>Node7&#45;&gt;Node13</title>
<path fill="none" stroke="midnightblue" d="M760.525,-242.366C816.943,-235.167 888.371,-221.785 906.5,-199 932.581,-166.221 919.898,-112.977 910.504,-85.1888"/>
<polygon fill="midnightblue" stroke="midnightblue" points="913.721,-83.794 907.035,-75.5757 907.137,-86.1701 913.721,-83.794"/>
</g>
<!-- Node14 -->
<g id="node14" class="node"><title>Node14</title>
<g id="a_node14"><a xlink:href="FunctionTree_2FitParameter_8hpp.html" target="_top" xlink:title="Implementations of Parameter for various data types. ">
<polygon fill="white" stroke="red" points="721.5,-112.5 721.5,-131.5 897.5,-131.5 897.5,-112.5 721.5,-112.5"/>
<text text-anchor="middle" x="809.5" y="-119.5" font-family="Helvetica,sans-Serif" font-size="10.00">Core/FunctionTree/FitParameter.hpp</text>
</a>
</g>
</g>
<!-- Node7&#45;&gt;Node14 -->
<g id="edge17" class="edge"><title>Node7&#45;&gt;Node14</title>
<path fill="none" stroke="midnightblue" d="M695.257,-235.4C705.17,-218.195 723.572,-188.828 744.5,-168 756.555,-156.002 772.171,-145.075 785.074,-136.994"/>
<polygon fill="midnightblue" stroke="midnightblue" points="787.168,-139.818 793.901,-131.638 783.536,-133.833 787.168,-139.818"/>
</g>
<!-- Node15 -->
<g id="node15" class="node"><title>Node15</title>
<g id="a_node15"><a xlink:href="Logging_8hpp.html" target="_top" xlink:title="Core/Logging.hpp">
<polygon fill="white" stroke="red" points="628,-56.5 628,-75.5 721,-75.5 721,-56.5 628,-56.5"/>
<text text-anchor="middle" x="674.5" y="-63.5" font-family="Helvetica,sans-Serif" font-size="10.00">Core/Logging.hpp</text>
</a>
</g>
</g>
<!-- Node7&#45;&gt;Node15 -->
<g id="edge25" class="edge"><title>Node7&#45;&gt;Node15</title>
<path fill="none" stroke="midnightblue" d="M682.397,-235.133C679.129,-225.143 675.193,-211.441 673.5,-199 668.061,-159.025 670.575,-111.609 672.676,-85.8892"/>
<polygon fill="midnightblue" stroke="midnightblue" points="676.183,-85.974 673.583,-75.7032 669.21,-85.3536 676.183,-85.974"/>
</g>
<!-- Node16 -->
<g id="node16" class="node"><title>Node16</title>
<g id="a_node16"><a xlink:href="Value_8hpp.html" target="_top" xlink:title="Template implementation of Parameter for simple values. ">
<polygon fill="white" stroke="red" points="753.5,-174 753.5,-193 897.5,-193 897.5,-174 753.5,-174"/>
<text text-anchor="middle" x="825.5" y="-181" font-family="Helvetica,sans-Serif" font-size="10.00">Core/FunctionTree/Value.hpp</text>
</a>
</g>
</g>
<!-- Node7&#45;&gt;Node16 -->
<g id="edge23" class="edge"><title>Node7&#45;&gt;Node16</title>
<path fill="none" stroke="midnightblue" d="M717.444,-235.396C741.443,-224.092 774.842,-208.361 798.133,-197.39"/>
<polygon fill="midnightblue" stroke="midnightblue" points="799.884,-200.435 807.439,-193.007 796.901,-194.102 799.884,-200.435"/>
</g>
<!-- Node17 -->
<g id="node17" class="node"><title>Node17</title>
<polygon fill="white" stroke="#bfbfbf" points="1271.5,-174 1271.5,-193 1365.5,-193 1365.5,-174 1271.5,-174"/>
<text text-anchor="middle" x="1318.5" y="-181" font-family="Helvetica,sans-Serif" font-size="10.00">boost/version.hpp</text>
</g>
<!-- Node7&#45;&gt;Node17 -->
<g id="edge26" class="edge"><title>Node7&#45;&gt;Node17</title>
<path fill="none" stroke="midnightblue" d="M760.613,-246.96C870.324,-242.276 1083.75,-229.773 1262.5,-199 1268.01,-198.052 1273.76,-196.832 1279.4,-195.502"/>
<polygon fill="midnightblue" stroke="midnightblue" points="1280.49,-198.838 1289.34,-193.025 1278.8,-192.046 1280.49,-198.838"/>
</g>
<!-- Node18 -->
<g id="node18" class="node"><title>Node18</title>
<polygon fill="white" stroke="#bfbfbf" points="272,-168.5 272,-198.5 367,-198.5 367,-168.5 272,-168.5"/>
<text text-anchor="start" x="280" y="-186.5" font-family="Helvetica,sans-Serif" font-size="10.00">boost/serialization</text>
<text text-anchor="middle" x="319.5" y="-175.5" font-family="Helvetica,sans-Serif" font-size="10.00">/split_free.hpp</text>
</g>
<!-- Node7&#45;&gt;Node18 -->
<g id="edge27" class="edge"><title>Node7&#45;&gt;Node18</title>
<path fill="none" stroke="midnightblue" d="M614.333,-239.618C553.234,-230.917 463.669,-217.121 377.084,-199.23"/>
<polygon fill="midnightblue" stroke="midnightblue" points="377.592,-195.76 367.088,-197.143 376.162,-202.613 377.592,-195.76"/>
</g>
<!-- Node19 -->
<g id="node19" class="node"><title>Node19</title>
<polygon fill="white" stroke="#bfbfbf" points="385,-174 385,-193 514,-193 514,-174 385,-174"/>
<text text-anchor="middle" x="449.5" y="-181" font-family="Helvetica,sans-Serif" font-size="10.00">boost/unordered_map.hpp</text>
</g>
<!-- Node7&#45;&gt;Node19 -->
<g id="edge28" class="edge"><title>Node7&#45;&gt;Node19</title>
<path fill="none" stroke="midnightblue" d="M636.151,-235.476C592.563,-223.572 530.843,-206.716 490.5,-195.698"/>
<polygon fill="midnightblue" stroke="midnightblue" points="491.297,-192.287 480.728,-193.029 489.453,-199.04 491.297,-192.287"/>
</g>
<!-- Node20 -->
<g id="node20" class="node"><title>Node20</title>
<polygon fill="white" stroke="#bfbfbf" points="532,-174 532,-193 583,-193 583,-174 532,-174"/>
<text text-anchor="middle" x="557.5" y="-181" font-family="Helvetica,sans-Serif" font-size="10.00">typeinfo</text>
</g>
<!-- Node7&#45;&gt;Node20 -->
<g id="edge29" class="edge"><title>Node7&#45;&gt;Node20</title>
<path fill="none" stroke="midnightblue" d="M659.292,-235.396C636.785,-224.142 605.502,-208.501 583.575,-197.538"/>
<polygon fill="midnightblue" stroke="midnightblue" points="585.024,-194.349 574.514,-193.007 581.893,-200.61 585.024,-194.349"/>
</g>
<!-- Node13&#45;&gt;Node4 -->
<g id="edge16" class="edge"><title>Node13&#45;&gt;Node4</title>
<path fill="none" stroke="midnightblue" d="M872.919,-56.4435C836.834,-46.3474 777.194,-29.6606 741.101,-19.562"/>
<polygon fill="midnightblue" stroke="midnightblue" points="741.72,-16.1007 731.147,-16.7767 739.834,-22.8418 741.72,-16.1007"/>
</g>
<!-- Node14&#45;&gt;Node4 -->
<g id="edge20" class="edge"><title>Node14&#45;&gt;Node4</title>
<path fill="none" stroke="midnightblue" d="M811.057,-112.086C812.895,-98.6307 814.36,-72.9127 802.5,-56 788.112,-35.4828 761.682,-23.9175 740.83,-17.6659"/>
<polygon fill="midnightblue" stroke="midnightblue" points="741.688,-14.2721 731.118,-15.0079 739.84,-21.0238 741.688,-14.2721"/>
</g>
<!-- Node14&#45;&gt;Node8 -->
<g id="edge18" class="edge"><title>Node14&#45;&gt;Node8</title>
<path fill="none" stroke="midnightblue" d="M802.399,-112.083C796.263,-104.377 787.23,-93.0333 779.761,-83.6531"/>
<polygon fill="midnightblue" stroke="midnightblue" points="782.436,-81.3936 773.468,-75.7511 776.96,-85.7542 782.436,-81.3936"/>
</g>
<!-- Node14&#45;&gt;Node10 -->
<g id="edge19" class="edge"><title>Node14&#45;&gt;Node10</title>
<path fill="none" stroke="midnightblue" d="M839.923,-112.444C874.041,-102.848 929.328,-87.2984 965.552,-77.1104"/>
<polygon fill="midnightblue" stroke="midnightblue" points="966.551,-80.4652 975.23,-74.3884 964.656,-73.7267 966.551,-80.4652"/>
</g>
<!-- Node14&#45;&gt;Node13 -->
<g id="edge21" class="edge"><title>Node14&#45;&gt;Node13</title>
<path fill="none" stroke="midnightblue" d="M824.603,-112.324C839.403,-103.822 862.194,-90.7288 879.482,-80.7975"/>
<polygon fill="midnightblue" stroke="midnightblue" points="881.507,-83.6707 888.435,-75.6545 878.02,-77.6009 881.507,-83.6707"/>
</g>
<!-- Node14&#45;&gt;Node15 -->
<g id="edge22" class="edge"><title>Node14&#45;&gt;Node15</title>
<path fill="none" stroke="midnightblue" d="M788.109,-112.444C765.793,-103.517 730.597,-89.4387 705.292,-79.3168"/>
<polygon fill="midnightblue" stroke="midnightblue" points="706.376,-75.9807 695.791,-75.5164 703.776,-82.4801 706.376,-75.9807"/>
</g>
<!-- Node16&#45;&gt;Node14 -->
<g id="edge24" class="edge"><title>Node16&#45;&gt;Node14</title>
<path fill="none" stroke="midnightblue" d="M823.208,-173.975C820.926,-165.492 817.353,-152.204 814.427,-141.322"/>
<polygon fill="midnightblue" stroke="midnightblue" points="817.765,-140.257 811.788,-131.509 811.005,-142.075 817.765,-140.257"/>
</g>
</g>
</svg>
        <g id="navigator" transform="translate(0 0)" fill="#404254">
                <rect fill="#f2f5e9" fill-opacity="0.5" stroke="#606060" stroke-width=".5" x="0" y="0" width="60" height="60"/>
                <use id="zoomplus" xlink:href="#zoomPlus" x="17" y="9" onmousedown="handleZoom(evt,'in')"/>
                <use id="zoomminus" xlink:href="#zoomMin" x="42" y="9" onmousedown="handleZoom(evt,'out')"/>
                <use id="reset" xlink:href="#resetDef" x="30" y="36" onmousedown="handleReset()"/>
                <g id="arrowUp" xlink:href="#dirArrow" transform="translate(30 24)" onmousedown="handlePan(0,-1)">
                  <use xlink:href="#rim" fill="#404040">
                        <set attributeName="fill" to="#808080" begin="arrowUp.mouseover" end="arrowUp.mouseout"/>
                  </use>
                  <path fill="none" stroke="white" stroke-width="1.5" d="M0,-3.0v7 M-2.5,-0.5L0,-3.0L2.5,-0.5"/>
                </g>
                <g id="arrowRight" xlink:href="#dirArrow" transform="rotate(90) translate(36 -43)" onmousedown="handlePan(1,0)">
                  <use xlink:href="#rim" fill="#404040">
                        <set attributeName="fill" to="#808080" begin="arrowRight.mouseover" end="arrowRight.mouseout"/>
                  </use>
                  <path fill="none" stroke="white" stroke-width="1.5" d="M0,-3.0v7 M-2.5,-0.5L0,-3.0L2.5,-0.5"/>
                </g>
                <g id="arrowDown" xlink:href="#dirArrow" transform="rotate(180) translate(-30 -48)" onmousedown="handlePan(0,1)">
                  <use xlink:href="#rim" fill="#404040">
                        <set attributeName="fill" to="#808080" begin="arrowDown.mouseover" end="arrowDown.mouseout"/>
                  </use>
                  <path fill="none" stroke="white" stroke-width="1.5" d="M0,-3.0v7 M-2.5,-0.5L0,-3.0L2.5,-0.5"/>
                </g>
                <g id="arrowLeft" xlink:href="#dirArrow" transform="rotate(270) translate(-36 17)" onmousedown="handlePan(-1,0)">
                  <use xlink:href="#rim" fill="#404040">
                        <set attributeName="fill" to="#808080" begin="arrowLeft.mouseover" end="arrowLeft.mouseout"/>
                  </use>
                  <path fill="none" stroke="white" stroke-width="1.5" d="M0,-3.0v7 M-2.5,-0.5L0,-3.0L2.5,-0.5"/>
                </g>
        </g>
        <svg viewBox="0 0 15 15" width="100%" height="30px" preserveAspectRatio="xMaxYMin meet">
         <g id="arrow_out" transform="scale(0.3 0.3)">
          <a xlink:href="FunctionTreeIntensity_8hpp__incl_org.svg" target="_base">
           <rect id="button" ry="5" rx="5" y="6" x="6" height="38" width="38"
                fill="#f2f5e9" fill-opacity="0.5" stroke="#606060" stroke-width="1.0"/>
           <path id="arrow"
             d="M 11.500037,31.436501 C 11.940474,20.09759 22.043105,11.32322 32.158766,21.979434 L 37.068811,17.246167 C 37.068811,17.246167 37.088388,32 37.088388,32 L 22.160133,31.978069 C 22.160133,31.978069 26.997745,27.140456 26.997745,27.140456 C 18.528582,18.264221 13.291696,25.230495 11.500037,31.436501 z"
             style="fill:#404040;"/>
          </a>
         </g>
        </svg>
</svg>
