<?xml version="1.0" encoding="UTF-8" standalone="no"?>
<!DOCTYPE svg PUBLIC "-//W3C//DTD SVG 1.1//EN"
 "http://www.w3.org/Graphics/SVG/1.1/DTD/svg11.dtd">
<!-- Generated by graphviz version 2.38.0 (20140413.2041)
 -->
<!-- Title: Core/FunctionTree/FunctionTreeEstimator.hpp Pages: 1 -->
<!--zoomable 408 -->
<svg id="main" version="1.1" xmlns="http://www.w3.org/2000/svg" xmlns:xlink="http://www.w3.org/1999/xlink" xml:space="preserve" onload="init(evt)">
<style type="text/css"><![CDATA[
.edge:hover path { stroke: red; }
.edge:hover polygon { stroke: red; fill: red; }
]]></style>
<script type="text/javascript"><![CDATA[
var edges = document.getElementsByTagName('g');
if (edges && edges.length) {
  for (var i=0;i<edges.length;i++) {
    if (edges[i].id.substr(0,4)=='edge') {
      edges[i].setAttribute('class','edge');
    }
  }
}
]]></script>
        <defs>
                <circle id="rim" cx="0" cy="0" r="7"/>
                <circle id="rim2" cx="0" cy="0" r="3.5"/>
                <g id="zoomPlus">
                        <use xlink:href="#rim" fill="#404040">
                                <set attributeName="fill" to="#808080" begin="zoomplus.mouseover" end="zoomplus.mouseout"/>
                        </use>
                        <path d="M-4,0h8M0,-4v8" fill="none" stroke="white" stroke-width="1.5" pointer-events="none"/>
                </g>
                <g id="zoomMin">
                        <use xlink:href="#rim" fill="#404040">
                                <set attributeName="fill" to="#808080" begin="zoomminus.mouseover" end="zoomminus.mouseout"/>
                        </use>
                        <path d="M-4,0h8" fill="none" stroke="white" stroke-width="1.5" pointer-events="none"/>
                </g>
                <g id="dirArrow">
                        <path fill="none" stroke="white" stroke-width="1.5" d="M0,-3.0v7 M-2.5,-0.5L0,-3.0L2.5,-0.5"/>
                </g>
               <g id="resetDef">
                       <use xlink:href="#rim2" fill="#404040">
                               <set attributeName="fill" to="#808080" begin="reset.mouseover" end="reset.mouseout"/>
                       </use>
               </g>
        </defs>

<script type="text/javascript">
var viewWidth = 1339;
var viewHeight = 408;
var sectionId = 'dynsection-0';
</script>
<script xlink:href="svgpan.js"/>
<svg id="graph" class="graph">
<g id="viewport">
<title>Core/FunctionTree/FunctionTreeEstimator.hpp</title>
<polygon fill="white" stroke="none" points="-4,4 -4,-404 1334.5,-404 1334.5,4 -4,4"/>
<!-- Node1 -->
<g id="node1" class="node"><title>Node1</title>
<polygon fill="#bfbfbf" stroke="black" points="24,-369.5 24,-399.5 162,-399.5 162,-369.5 24,-369.5"/>
<text text-anchor="start" x="32" y="-387.5" font-family="Helvetica,sans-Serif" font-size="10.00">Core/FunctionTree/Function</text>
<text text-anchor="middle" x="93" y="-376.5" font-family="Helvetica,sans-Serif" font-size="10.00">TreeEstimator.hpp</text>
</g>
<!-- Node2 -->
<g id="node2" class="node"><title>Node2</title>
<polygon fill="white" stroke="#bfbfbf" points="98,-241 98,-260 150,-260 150,-241 98,-241"/>
<text text-anchor="middle" x="124" y="-248" font-family="Helvetica,sans-Serif" font-size="10.00">memory</text>
</g>
<!-- Node1&#45;&gt;Node2 -->
<g id="edge1" class="edge"><title>Node1&#45;&gt;Node2</title>
<path fill="none" stroke="midnightblue" d="M96.3175,-369.374C101.948,-345.397 113.374,-296.748 119.642,-270.056"/>
<polygon fill="midnightblue" stroke="midnightblue" points="123.102,-270.633 121.981,-260.097 116.287,-269.032 123.102,-270.633"/>
</g>
<!-- Node3 -->
<g id="node3" class="node"><title>Node3</title>
<g id="a_node3"><a xlink:href="FitParameter_8hpp.html" target="_top" xlink:title="Core/FitParameter.hpp">
<polygon fill="white" stroke="black" points="690,-123.5 690,-142.5 806,-142.5 806,-123.5 690,-123.5"/>
<text text-anchor="middle" x="748" y="-130.5" font-family="Helvetica,sans-Serif" font-size="10.00">Core/FitParameter.hpp</text>
</a>
</g>
</g>
<!-- Node1&#45;&gt;Node3 -->
<g id="edge2" class="edge"><title>Node1&#45;&gt;Node3</title>
<path fill="none" stroke="midnightblue" d="M87.0179,-369.173C75.911,-340.027 56.0747,-273.356 89,-235 164.678,-146.84 526.951,-134.839 679.766,-133.764"/>
<polygon fill="midnightblue" stroke="midnightblue" points="679.981,-137.263 689.961,-133.707 679.942,-130.263 679.981,-137.263"/>
</g>
<!-- Node10 -->
<g id="node10" class="node"><title>Node10</title>
<g id="a_node10"><a xlink:href="ParameterList_8hpp.html" target="_top" xlink:title="ParameterList class. ">
<polygon fill="white" stroke="black" points="758,-302.5 758,-332.5 904,-332.5 904,-302.5 758,-302.5"/>
<text text-anchor="start" x="766" y="-320.5" font-family="Helvetica,sans-Serif" font-size="10.00">Core/FunctionTree/Parameter</text>
<text text-anchor="middle" x="831" y="-309.5" font-family="Helvetica,sans-Serif" font-size="10.00">List.hpp</text>
</a>
</g>
</g>
<!-- Node1&#45;&gt;Node10 -->
<g id="edge11" class="edge"><title>Node1&#45;&gt;Node10</title>
<path fill="none" stroke="midnightblue" d="M162.098,-377.414C298.219,-365.425 600.58,-338.794 747.56,-325.849"/>
<polygon fill="midnightblue" stroke="midnightblue" points="748.215,-329.305 757.869,-324.941 747.601,-322.332 748.215,-329.305"/>
</g>
<!-- Node23 -->
<g id="node23" class="node"><title>Node23</title>
<g id="a_node23"><a xlink:href="Estimator_8hpp.html" target="_top" xlink:title="Estimator/Estimator.hpp">
<polygon fill="white" stroke="black" points="0,-179.5 0,-198.5 122,-198.5 122,-179.5 0,-179.5"/>
<text text-anchor="middle" x="61" y="-186.5" font-family="Helvetica,sans-Serif" font-size="10.00">Estimator/Estimator.hpp</text>
</a>
</g>
</g>
<!-- Node1&#45;&gt;Node23 -->
<g id="edge36" class="edge"><title>Node1&#45;&gt;Node23</title>
<path fill="none" stroke="midnightblue" d="M78.8851,-369.455C70.4535,-360.03 60.5283,-346.842 56,-333 42.0159,-290.252 50.3131,-236.443 56.3698,-208.601"/>
<polygon fill="midnightblue" stroke="midnightblue" points="59.8235,-209.201 58.6814,-198.668 53.0057,-207.614 59.8235,-209.201"/>
</g>
<!-- Node4 -->
<g id="node4" class="node"><title>Node4</title>
<g id="a_node4"><a xlink:href="Function_8hpp.html" target="_top" xlink:title="Core/Function.hpp">
<polygon fill="white" stroke="red" points="499.5,-62 499.5,-81 596.5,-81 596.5,-62 499.5,-62"/>
<text text-anchor="middle" x="548" y="-69" font-family="Helvetica,sans-Serif" font-size="10.00">Core/Function.hpp</text>
</a>
</g>
</g>
<!-- Node3&#45;&gt;Node4 -->
<g id="edge3" class="edge"><title>Node3&#45;&gt;Node4</title>
<path fill="none" stroke="midnightblue" d="M719.345,-123.475C684.444,-113.092 625.35,-95.5116 586.5,-83.9538"/>
<polygon fill="midnightblue" stroke="midnightblue" points="587.185,-80.5059 576.602,-81.0091 585.189,-87.2153 587.185,-80.5059"/>
</g>
<!-- Node5 -->
<g id="node5" class="node"><title>Node5</title>
<polygon fill="white" stroke="#bfbfbf" points="1012.5,-0.5 1012.5,-19.5 1053.5,-19.5 1053.5,-0.5 1012.5,-0.5"/>
<text text-anchor="middle" x="1033" y="-7.5" font-family="Helvetica,sans-Serif" font-size="10.00">string</text>
</g>
<!-- Node3&#45;&gt;Node5 -->
<g id="edge8" class="edge"><title>Node3&#45;&gt;Node5</title>
<path fill="none" stroke="midnightblue" d="M758.838,-123.453C779.015,-107.926 824.182,-74.9437 867,-56 912.091,-36.0505 968.079,-23.1141 1002.15,-16.4438"/>
<polygon fill="midnightblue" stroke="midnightblue" points="1003.22,-19.8018 1012.39,-14.4973 1001.92,-12.9248 1003.22,-19.8018"/>
</g>
<!-- Node6 -->
<g id="node6" class="node"><title>Node6</title>
<polygon fill="white" stroke="#bfbfbf" points="526,-0.5 526,-19.5 570,-19.5 570,-0.5 526,-0.5"/>
<text text-anchor="middle" x="548" y="-7.5" font-family="Helvetica,sans-Serif" font-size="10.00">vector</text>
</g>
<!-- Node3&#45;&gt;Node6 -->
<g id="edge9" class="edge"><title>Node3&#45;&gt;Node6</title>
<path fill="none" stroke="midnightblue" d="M759.15,-123.375C776.973,-108.566 808.116,-77.7954 790,-56 763.651,-24.3 639.586,-14.8223 580.042,-12.0761"/>
<polygon fill="midnightblue" stroke="midnightblue" points="580.19,-8.57934 570.05,-11.651 579.892,-15.573 580.19,-8.57934"/>
</g>
<!-- Node7 -->
<g id="node7" class="node"><title>Node7</title>
<g id="a_node7"><a xlink:href="Logging_8hpp.html" target="_top" xlink:title="Core/Logging.hpp">
<polygon fill="white" stroke="red" points="875.5,-62 875.5,-81 968.5,-81 968.5,-62 875.5,-62"/>
<text text-anchor="middle" x="922" y="-69" font-family="Helvetica,sans-Serif" font-size="10.00">Core/Logging.hpp</text>
</a>
</g>
</g>
<!-- Node3&#45;&gt;Node7 -->
<g id="edge6" class="edge"><title>Node3&#45;&gt;Node7</title>
<path fill="none" stroke="midnightblue" d="M772.93,-123.475C803.036,-113.18 853.832,-95.8103 887.638,-84.2502"/>
<polygon fill="midnightblue" stroke="midnightblue" points="888.787,-87.5565 897.116,-81.0091 886.522,-80.933 888.787,-87.5565"/>
</g>
<!-- Node8 -->
<g id="node8" class="node"><title>Node8</title>
<polygon fill="white" stroke="#bfbfbf" points="615,-62 615,-81 667,-81 667,-62 615,-62"/>
<text text-anchor="middle" x="641" y="-69" font-family="Helvetica,sans-Serif" font-size="10.00">ostream</text>
</g>
<!-- Node3&#45;&gt;Node8 -->
<g id="edge7" class="edge"><title>Node3&#45;&gt;Node8</title>
<path fill="none" stroke="midnightblue" d="M732.67,-123.475C715.03,-113.666 685.84,-97.4346 665.142,-85.925"/>
<polygon fill="midnightblue" stroke="midnightblue" points="666.743,-82.8102 656.302,-81.0091 663.341,-88.9279 666.743,-82.8102"/>
</g>
<!-- Node9 -->
<g id="node9" class="node"><title>Node9</title>
<polygon fill="white" stroke="#bfbfbf" points="685.5,-56.5 685.5,-86.5 780.5,-86.5 780.5,-56.5 685.5,-56.5"/>
<text text-anchor="start" x="693.5" y="-74.5" font-family="Helvetica,sans-Serif" font-size="10.00">boost/serialization</text>
<text text-anchor="middle" x="733" y="-63.5" font-family="Helvetica,sans-Serif" font-size="10.00">/nvp.hpp</text>
</g>
<!-- Node3&#45;&gt;Node9 -->
<g id="edge10" class="edge"><title>Node3&#45;&gt;Node9</title>
<path fill="none" stroke="midnightblue" d="M745.851,-123.475C744.066,-116.396 741.438,-105.97 739.023,-96.3896"/>
<polygon fill="midnightblue" stroke="midnightblue" points="742.374,-95.364 736.535,-86.523 735.586,-97.0752 742.374,-95.364"/>
</g>
<!-- Node4&#45;&gt;Node5 -->
<g id="edge4" class="edge"><title>Node4&#45;&gt;Node5</title>
<path fill="none" stroke="midnightblue" d="M578.831,-61.9411C587.561,-59.7503 597.108,-57.5721 606,-56 753.018,-30.0077 931.356,-17.1421 1002.02,-12.7732"/>
<polygon fill="midnightblue" stroke="midnightblue" points="1002.64,-16.2419 1012.41,-12.1442 1002.22,-9.25464 1002.64,-16.2419"/>
</g>
<!-- Node4&#45;&gt;Node6 -->
<g id="edge5" class="edge"><title>Node4&#45;&gt;Node6</title>
<path fill="none" stroke="midnightblue" d="M548,-61.9751C548,-53.5803 548,-40.4806 548,-29.6631"/>
<polygon fill="midnightblue" stroke="midnightblue" points="551.5,-29.5091 548,-19.5091 544.5,-29.5091 551.5,-29.5091"/>
</g>
<!-- Node10&#45;&gt;Node2 -->
<g id="edge14" class="edge"><title>Node10&#45;&gt;Node2</title>
<path fill="none" stroke="midnightblue" d="M757.53,-317.415C633.663,-317.524 376.033,-311.563 164,-266 160.75,-265.302 157.407,-264.401 154.104,-263.39"/>
<polygon fill="midnightblue" stroke="midnightblue" points="155.04,-260.012 144.446,-260.122 152.796,-266.643 155.04,-260.012"/>
</g>
<!-- Node10&#45;&gt;Node5 -->
<g id="edge16" class="edge"><title>Node10&#45;&gt;Node5</title>
<path fill="none" stroke="midnightblue" d="M904.38,-310.793C991.881,-303.138 1132.3,-287.926 1180,-266 1226.65,-244.557 1267,-241.342 1267,-190 1267,-190 1267,-190 1267,-132 1267,-41.6414 1127.63,-18.6839 1064.01,-12.9113"/>
<polygon fill="midnightblue" stroke="midnightblue" points="1064.02,-9.40074 1053.77,-12.0723 1063.45,-16.3774 1064.02,-9.40074"/>
</g>
<!-- Node10&#45;&gt;Node6 -->
<g id="edge17" class="edge"><title>Node10&#45;&gt;Node6</title>
<path fill="none" stroke="midnightblue" d="M757.83,-315.401C600.128,-312.365 239,-301.567 197,-266 170.43,-243.5 178,-224.817 178,-190 178,-190 178,-190 178,-132 178,-61.2113 425.757,-25.2521 515.792,-14.5215"/>
<polygon fill="midnightblue" stroke="midnightblue" points="516.435,-17.9704 525.963,-13.3373 515.625,-11.0174 516.435,-17.9704"/>
</g>
<!-- Node10&#45;&gt;Node7 -->
<g id="edge31" class="edge"><title>Node10&#45;&gt;Node7</title>
<path fill="none" stroke="midnightblue" d="M842.85,-302.295C850.417,-292.599 859.914,-279.169 866,-266 893.587,-206.305 884.499,-185.803 904,-123 907.369,-112.15 911.617,-100.166 915.141,-90.5956"/>
<polygon fill="midnightblue" stroke="midnightblue" points="918.503,-91.598 918.725,-81.0055 911.946,-89.1473 918.503,-91.598"/>
</g>
<!-- Node11 -->
<g id="node11" class="node"><title>Node11</title>
<polygon fill="white" stroke="#bfbfbf" points="913,-123.5 913,-142.5 967,-142.5 967,-123.5 913,-123.5"/>
<text text-anchor="middle" x="940" y="-130.5" font-family="Helvetica,sans-Serif" font-size="10.00">iostream</text>
</g>
<!-- Node10&#45;&gt;Node11 -->
<g id="edge12" class="edge"><title>Node10&#45;&gt;Node11</title>
<path fill="none" stroke="midnightblue" d="M857.508,-302.353C871.646,-293.586 888.286,-281.116 899,-266 924.012,-230.711 934.128,-179.676 937.925,-152.563"/>
<polygon fill="midnightblue" stroke="midnightblue" points="941.412,-152.883 939.19,-142.524 934.467,-152.008 941.412,-152.883"/>
</g>
<!-- Node12 -->
<g id="node12" class="node"><title>Node12</title>
<polygon fill="white" stroke="#bfbfbf" points="1295.5,-241 1295.5,-260 1330.5,-260 1330.5,-241 1295.5,-241"/>
<text text-anchor="middle" x="1313" y="-248" font-family="Helvetica,sans-Serif" font-size="10.00">map</text>
</g>
<!-- Node10&#45;&gt;Node12 -->
<g id="edge13" class="edge"><title>Node10&#45;&gt;Node12</title>
<path fill="none" stroke="midnightblue" d="M904.019,-315.294C994.148,-312.223 1151.39,-301.676 1281,-266 1283.15,-265.408 1285.34,-264.69 1287.51,-263.893"/>
<polygon fill="midnightblue" stroke="midnightblue" points="1288.87,-267.118 1296.76,-260.046 1286.18,-260.654 1288.87,-267.118"/>
</g>
<!-- Node13 -->
<g id="node13" class="node"><title>Node13</title>
<polygon fill="white" stroke="#bfbfbf" points="1061,-123.5 1061,-142.5 1113,-142.5 1113,-123.5 1061,-123.5"/>
<text text-anchor="middle" x="1087" y="-130.5" font-family="Helvetica,sans-Serif" font-size="10.00">sstream</text>
</g>
<!-- Node10&#45;&gt;Node13 -->
<g id="edge15" class="edge"><title>Node10&#45;&gt;Node13</title>
<path fill="none" stroke="midnightblue" d="M904.33,-315.151C986.48,-311.905 1112.09,-301.154 1142,-266 1150.89,-255.555 1142.68,-192.229 1136,-179 1129.96,-167.037 1119.33,-156.675 1109.52,-148.92"/>
<polygon fill="midnightblue" stroke="midnightblue" points="1111.35,-145.927 1101.23,-142.801 1107.2,-151.557 1111.35,-145.927"/>
</g>
<!-- Node14 -->
<g id="node14" class="node"><title>Node14</title>
<polygon fill="white" stroke="#bfbfbf" points="206.5,-235.5 206.5,-265.5 301.5,-265.5 301.5,-235.5 206.5,-235.5"/>
<text text-anchor="start" x="214.5" y="-253.5" font-family="Helvetica,sans-Serif" font-size="10.00">boost/serialization</text>
<text text-anchor="middle" x="254" y="-242.5" font-family="Helvetica,sans-Serif" font-size="10.00">/shared_ptr.hpp</text>
</g>
<!-- Node10&#45;&gt;Node14 -->
<g id="edge18" class="edge"><title>Node10&#45;&gt;Node14</title>
<path fill="none" stroke="midnightblue" d="M757.599,-313.018C658.364,-307.503 475.848,-294.512 311.825,-266.154"/>
<polygon fill="midnightblue" stroke="midnightblue" points="312.002,-262.632 301.547,-264.353 310.793,-269.527 312.002,-262.632"/>
</g>
<!-- Node15 -->
<g id="node15" class="node"><title>Node15</title>
<polygon fill="white" stroke="#bfbfbf" points="319.5,-235.5 319.5,-265.5 414.5,-265.5 414.5,-235.5 319.5,-235.5"/>
<text text-anchor="start" x="327.5" y="-253.5" font-family="Helvetica,sans-Serif" font-size="10.00">boost/serialization</text>
<text text-anchor="middle" x="367" y="-242.5" font-family="Helvetica,sans-Serif" font-size="10.00">/vector.hpp</text>
</g>
<!-- Node10&#45;&gt;Node15 -->
<g id="edge19" class="edge"><title>Node10&#45;&gt;Node15</title>
<path fill="none" stroke="midnightblue" d="M757.786,-310.211C678.134,-302.738 546.943,-288.595 424.707,-265.979"/>
<polygon fill="midnightblue" stroke="midnightblue" points="425.27,-262.524 414.797,-264.123 423.982,-269.404 425.27,-262.524"/>
</g>
<!-- Node16 -->
<g id="node16" class="node"><title>Node16</title>
<g id="a_node16"><a xlink:href="Exceptions_8hpp.html" target="_top" xlink:title="ComPWA exceptions. ">
<polygon fill="white" stroke="red" points="1131,-123.5 1131,-142.5 1239,-142.5 1239,-123.5 1131,-123.5"/>
<text text-anchor="middle" x="1185" y="-130.5" font-family="Helvetica,sans-Serif" font-size="10.00">Core/Exceptions.hpp</text>
</a>
</g>
</g>
<!-- Node10&#45;&gt;Node16 -->
<g id="edge20" class="edge"><title>Node10&#45;&gt;Node16</title>
<path fill="none" stroke="midnightblue" d="M904.307,-314.576C989.093,-310.782 1121.59,-299.507 1157,-266 1188.11,-236.566 1189.07,-181.856 1187.07,-152.98"/>
<polygon fill="midnightblue" stroke="midnightblue" points="1190.52,-152.299 1186.15,-142.65 1183.55,-152.921 1190.52,-152.299"/>
</g>
<!-- Node17 -->
<g id="node17" class="node"><title>Node17</title>
<g id="a_node17"><a xlink:href="FunctionTree_2FitParameter_8hpp.html" target="_top" xlink:title="Implementations of Parameter for various data types. ">
<polygon fill="white" stroke="red" points="951,-179.5 951,-198.5 1127,-198.5 1127,-179.5 951,-179.5"/>
<text text-anchor="middle" x="1039" y="-186.5" font-family="Helvetica,sans-Serif" font-size="10.00">Core/FunctionTree/FitParameter.hpp</text>
</a>
</g>
</g>
<!-- Node10&#45;&gt;Node17 -->
<g id="edge22" class="edge"><title>Node10&#45;&gt;Node17</title>
<path fill="none" stroke="midnightblue" d="M864.816,-302.422C886.077,-293.08 913.781,-279.997 937,-266 945.533,-260.856 992.725,-225.196 1019.83,-204.6"/>
<polygon fill="midnightblue" stroke="midnightblue" points="1022.01,-207.34 1027.85,-198.501 1017.77,-201.769 1022.01,-207.34"/>
</g>
<!-- Node18 -->
<g id="node18" class="node"><title>Node18</title>
<g id="a_node18"><a xlink:href="Value_8hpp.html" target="_top" xlink:title="Template implementation of Parameter for simple values. ">
<polygon fill="white" stroke="red" points="989,-241 989,-260 1133,-260 1133,-241 989,-241"/>
<text text-anchor="middle" x="1061" y="-248" font-family="Helvetica,sans-Serif" font-size="10.00">Core/FunctionTree/Value.hpp</text>
</a>
</g>
</g>
<!-- Node10&#45;&gt;Node18 -->
<g id="edge29" class="edge"><title>Node10&#45;&gt;Node18</title>
<path fill="none" stroke="midnightblue" d="M880.623,-302.476C922.567,-290.622 981.886,-273.858 1020.88,-262.838"/>
<polygon fill="midnightblue" stroke="midnightblue" points="1022.15,-266.116 1030.82,-260.029 1020.25,-259.38 1022.15,-266.116"/>
</g>
<!-- Node19 -->
<g id="node19" class="node"><title>Node19</title>
<polygon fill="white" stroke="#bfbfbf" points="433,-241 433,-260 527,-260 527,-241 433,-241"/>
<text text-anchor="middle" x="480" y="-248" font-family="Helvetica,sans-Serif" font-size="10.00">boost/version.hpp</text>
</g>
<!-- Node10&#45;&gt;Node19 -->
<g id="edge32" class="edge"><title>Node10&#45;&gt;Node19</title>
<path fill="none" stroke="midnightblue" d="M757.935,-305.738C698.038,-296.497 611.188,-282.14 536,-266 531.034,-264.934 525.844,-263.723 520.713,-262.466"/>
<polygon fill="midnightblue" stroke="midnightblue" points="521.544,-259.066 510.992,-260.019 519.834,-265.855 521.544,-259.066"/>
</g>
<!-- Node20 -->
<g id="node20" class="node"><title>Node20</title>
<polygon fill="white" stroke="#bfbfbf" points="545.5,-235.5 545.5,-265.5 640.5,-265.5 640.5,-235.5 545.5,-235.5"/>
<text text-anchor="start" x="553.5" y="-253.5" font-family="Helvetica,sans-Serif" font-size="10.00">boost/serialization</text>
<text text-anchor="middle" x="593" y="-242.5" font-family="Helvetica,sans-Serif" font-size="10.00">/split_free.hpp</text>
</g>
<!-- Node10&#45;&gt;Node20 -->
<g id="edge33" class="edge"><title>Node10&#45;&gt;Node20</title>
<path fill="none" stroke="midnightblue" d="M779.651,-302.476C741.606,-292.086 689.747,-277.923 650.347,-267.162"/>
<polygon fill="midnightblue" stroke="midnightblue" points="651.183,-263.762 640.614,-264.504 649.339,-270.515 651.183,-263.762"/>
</g>
<!-- Node21 -->
<g id="node21" class="node"><title>Node21</title>
<polygon fill="white" stroke="#bfbfbf" points="658.5,-241 658.5,-260 787.5,-260 787.5,-241 658.5,-241"/>
<text text-anchor="middle" x="723" y="-248" font-family="Helvetica,sans-Serif" font-size="10.00">boost/unordered_map.hpp</text>
</g>
<!-- Node10&#45;&gt;Node21 -->
<g id="edge34" class="edge"><title>Node10&#45;&gt;Node21</title>
<path fill="none" stroke="midnightblue" d="M807.566,-302.396C789.287,-291.395 764.04,-276.2 745.899,-265.282"/>
<polygon fill="midnightblue" stroke="midnightblue" points="747.507,-262.165 737.135,-260.007 743.898,-268.162 747.507,-262.165"/>
</g>
<!-- Node22 -->
<g id="node22" class="node"><title>Node22</title>
<polygon fill="white" stroke="#bfbfbf" points="805.5,-241 805.5,-260 856.5,-260 856.5,-241 805.5,-241"/>
<text text-anchor="middle" x="831" y="-248" font-family="Helvetica,sans-Serif" font-size="10.00">typeinfo</text>
</g>
<!-- Node10&#45;&gt;Node22 -->
<g id="edge35" class="edge"><title>Node10&#45;&gt;Node22</title>
<path fill="none" stroke="midnightblue" d="M831,-302.396C831,-293.064 831,-280.714 831,-270.517"/>
<polygon fill="midnightblue" stroke="midnightblue" points="834.5,-270.195 831,-260.195 827.5,-270.195 834.5,-270.195"/>
</g>
<!-- Node16&#45;&gt;Node5 -->
<g id="edge21" class="edge"><title>Node16&#45;&gt;Node5</title>
<path fill="none" stroke="midnightblue" d="M1174.07,-123.298C1148.43,-102.891 1084.19,-51.7497 1052,-26.1267"/>
<polygon fill="midnightblue" stroke="midnightblue" points="1053.84,-23.113 1043.83,-19.6232 1049.48,-28.5896 1053.84,-23.113"/>
</g>
<!-- Node17&#45;&gt;Node3 -->
<g id="edge27" class="edge"><title>Node17&#45;&gt;Node3</title>
<path fill="none" stroke="midnightblue" d="M992.89,-179.444C941.594,-169.925 858.727,-154.547 803.809,-144.356"/>
<polygon fill="midnightblue" stroke="midnightblue" points="804.365,-140.9 793.894,-142.516 803.088,-147.782 804.365,-140.9"/>
</g>
<!-- Node17&#45;&gt;Node5 -->
<g id="edge25" class="edge"><title>Node17&#45;&gt;Node5</title>
<path fill="none" stroke="midnightblue" d="M1038.71,-179.463C1037.79,-152.428 1034.94,-68.2392 1033.65,-30.109"/>
<polygon fill="midnightblue" stroke="midnightblue" points="1037.14,-29.744 1033.3,-19.8684 1030.14,-29.9812 1037.14,-29.744"/>
</g>
<!-- Node17&#45;&gt;Node7 -->
<g id="edge28" class="edge"><title>Node17&#45;&gt;Node7</title>
<path fill="none" stroke="midnightblue" d="M1030.98,-179.456C1019.13,-166.905 996.18,-142.823 976,-123 963.887,-111.101 949.874,-98.0158 939.159,-88.1467"/>
<polygon fill="midnightblue" stroke="midnightblue" points="941.429,-85.4798 931.694,-81.2998 936.697,-90.6385 941.429,-85.4798"/>
</g>
<!-- Node17&#45;&gt;Node11 -->
<g id="edge23" class="edge"><title>Node17&#45;&gt;Node11</title>
<path fill="none" stroke="midnightblue" d="M1023.09,-179.324C1007.36,-170.743 983.058,-157.486 964.791,-147.522"/>
<polygon fill="midnightblue" stroke="midnightblue" points="966.322,-144.37 955.867,-142.655 962.97,-150.516 966.322,-144.37"/>
</g>
<!-- Node17&#45;&gt;Node13 -->
<g id="edge24" class="edge"><title>Node17&#45;&gt;Node13</title>
<path fill="none" stroke="midnightblue" d="M1046.93,-179.083C1053.85,-171.298 1064.07,-159.801 1072.45,-150.367"/>
<polygon fill="midnightblue" stroke="midnightblue" points="1075.19,-152.55 1079.22,-142.751 1069.96,-147.9 1075.19,-152.55"/>
</g>
<!-- Node17&#45;&gt;Node16 -->
<g id="edge26" class="edge"><title>Node17&#45;&gt;Node16</title>
<path fill="none" stroke="midnightblue" d="M1062.13,-179.444C1086.48,-170.438 1125.01,-156.189 1152.42,-146.049"/>
<polygon fill="midnightblue" stroke="midnightblue" points="1153.81,-149.268 1161.97,-142.516 1151.38,-142.703 1153.81,-149.268"/>
</g>
<!-- Node18&#45;&gt;Node17 -->
<g id="edge30" class="edge"><title>Node18&#45;&gt;Node17</title>
<path fill="none" stroke="midnightblue" d="M1057.85,-240.975C1054.68,-232.404 1049.7,-218.927 1045.65,-207.983"/>
<polygon fill="midnightblue" stroke="midnightblue" points="1048.9,-206.675 1042.15,-198.509 1042.33,-209.102 1048.9,-206.675"/>
</g>
<!-- Node23&#45;&gt;Node4 -->
<g id="edge37" class="edge"><title>Node23&#45;&gt;Node4</title>
<path fill="none" stroke="midnightblue" d="M97.2063,-179.413C184.39,-158.736 405.872,-106.208 502.147,-83.3748"/>
<polygon fill="midnightblue" stroke="midnightblue" points="502.964,-86.7782 511.886,-81.065 501.349,-79.9671 502.964,-86.7782"/>
</g>
</g>
</svg>
        <g id="navigator" transform="translate(0 0)" fill="#404254">
                <rect fill="#f2f5e9" fill-opacity="0.5" stroke="#606060" stroke-width=".5" x="0" y="0" width="60" height="60"/>
                <use id="zoomplus" xlink:href="#zoomPlus" x="17" y="9" onmousedown="handleZoom(evt,'in')"/>
                <use id="zoomminus" xlink:href="#zoomMin" x="42" y="9" onmousedown="handleZoom(evt,'out')"/>
                <use id="reset" xlink:href="#resetDef" x="30" y="36" onmousedown="handleReset()"/>
                <g id="arrowUp" xlink:href="#dirArrow" transform="translate(30 24)" onmousedown="handlePan(0,-1)">
                  <use xlink:href="#rim" fill="#404040">
                        <set attributeName="fill" to="#808080" begin="arrowUp.mouseover" end="arrowUp.mouseout"/>
                  </use>
                  <path fill="none" stroke="white" stroke-width="1.5" d="M0,-3.0v7 M-2.5,-0.5L0,-3.0L2.5,-0.5"/>
                </g>
                <g id="arrowRight" xlink:href="#dirArrow" transform="rotate(90) translate(36 -43)" onmousedown="handlePan(1,0)">
                  <use xlink:href="#rim" fill="#404040">
                        <set attributeName="fill" to="#808080" begin="arrowRight.mouseover" end="arrowRight.mouseout"/>
                  </use>
                  <path fill="none" stroke="white" stroke-width="1.5" d="M0,-3.0v7 M-2.5,-0.5L0,-3.0L2.5,-0.5"/>
                </g>
                <g id="arrowDown" xlink:href="#dirArrow" transform="rotate(180) translate(-30 -48)" onmousedown="handlePan(0,1)">
                  <use xlink:href="#rim" fill="#404040">
                        <set attributeName="fill" to="#808080" begin="arrowDown.mouseover" end="arrowDown.mouseout"/>
                  </use>
                  <path fill="none" stroke="white" stroke-width="1.5" d="M0,-3.0v7 M-2.5,-0.5L0,-3.0L2.5,-0.5"/>
                </g>
                <g id="arrowLeft" xlink:href="#dirArrow" transform="rotate(270) translate(-36 17)" onmousedown="handlePan(-1,0)">
                  <use xlink:href="#rim" fill="#404040">
                        <set attributeName="fill" to="#808080" begin="arrowLeft.mouseover" end="arrowLeft.mouseout"/>
                  </use>
                  <path fill="none" stroke="white" stroke-width="1.5" d="M0,-3.0v7 M-2.5,-0.5L0,-3.0L2.5,-0.5"/>
                </g>
        </g>
        <svg viewBox="0 0 15 15" width="100%" height="30px" preserveAspectRatio="xMaxYMin meet">
         <g id="arrow_out" transform="scale(0.3 0.3)">
          <a xlink:href="FunctionTreeEstimator_8hpp__incl_org.svg" target="_base">
           <rect id="button" ry="5" rx="5" y="6" x="6" height="38" width="38"
                fill="#f2f5e9" fill-opacity="0.5" stroke="#606060" stroke-width="1.0"/>
           <path id="arrow"
             d="M 11.500037,31.436501 C 11.940474,20.09759 22.043105,11.32322 32.158766,21.979434 L 37.068811,17.246167 C 37.068811,17.246167 37.088388,32 37.088388,32 L 22.160133,31.978069 C 22.160133,31.978069 26.997745,27.140456 26.997745,27.140456 C 18.528582,18.264221 13.291696,25.230495 11.500037,31.436501 z"
             style="fill:#404040;"/>
          </a>
         </g>
        </svg>
</svg>
