<?xml version="1.0" encoding="UTF-8" standalone="no"?>
<!DOCTYPE svg PUBLIC "-//W3C//DTD SVG 1.1//EN"
 "http://www.w3.org/Graphics/SVG/1.1/DTD/svg11.dtd">
<!-- Generated by graphviz version 2.38.0 (20140413.2041)
 -->
<!-- Title: Core/FunctionTree/FunctionTreeIntensity.cpp Pages: 1 -->
<!--zoomable 285 -->
<svg id="main" version="1.1" xmlns="http://www.w3.org/2000/svg" xmlns:xlink="http://www.w3.org/1999/xlink" xml:space="preserve" onload="init(evt)">
<style type="text/css"><![CDATA[
.edge:hover path { stroke: red; }
.edge:hover polygon { stroke: red; fill: red; }
]]></style>
<script type="text/javascript"><![CDATA[
var edges = document.getElementsByTagName('g');
if (edges && edges.length) {
  for (var i=0;i<edges.length;i++) {
    if (edges[i].id.substr(0,4)=='edge') {
      edges[i].setAttribute('class','edge');
    }
  }
}
]]></script>
        <defs>
                <circle id="rim" cx="0" cy="0" r="7"/>
                <circle id="rim2" cx="0" cy="0" r="3.5"/>
                <g id="zoomPlus">
                        <use xlink:href="#rim" fill="#404040">
                                <set attributeName="fill" to="#808080" begin="zoomplus.mouseover" end="zoomplus.mouseout"/>
                        </use>
                        <path d="M-4,0h8M0,-4v8" fill="none" stroke="white" stroke-width="1.5" pointer-events="none"/>
                </g>
                <g id="zoomMin">
                        <use xlink:href="#rim" fill="#404040">
                                <set attributeName="fill" to="#808080" begin="zoomminus.mouseover" end="zoomminus.mouseout"/>
                        </use>
                        <path d="M-4,0h8" fill="none" stroke="white" stroke-width="1.5" pointer-events="none"/>
                </g>
                <g id="dirArrow">
                        <path fill="none" stroke="white" stroke-width="1.5" d="M0,-3.0v7 M-2.5,-0.5L0,-3.0L2.5,-0.5"/>
                </g>
               <g id="resetDef">
                       <use xlink:href="#rim2" fill="#404040">
                               <set attributeName="fill" to="#808080" begin="reset.mouseover" end="reset.mouseout"/>
                       </use>
               </g>
        </defs>

<script type="text/javascript">
var viewWidth = 806;
var viewHeight = 285;
var sectionId = 'dynsection-0';
</script>
<script xlink:href="svgpan.js"/>
<svg id="graph" class="graph">
<g id="viewport">
<title>Core/FunctionTree/FunctionTreeIntensity.cpp</title>
<polygon fill="white" stroke="none" points="-4,4 -4,-281 802.22,-281 802.22,4 -4,4"/>
<!-- Node1 -->
<g id="node1" class="node"><title>Node1</title>
<polygon fill="#bfbfbf" stroke="black" points="387.353,-246.5 387.353,-276.5 525.353,-276.5 525.353,-246.5 387.353,-246.5"/>
<text text-anchor="start" x="395.353" y="-264.5" font-family="Helvetica,sans-Serif" font-size="10.00">Core/FunctionTree/Function</text>
<text text-anchor="middle" x="456.353" y="-253.5" font-family="Helvetica,sans-Serif" font-size="10.00">TreeIntensity.cpp</text>
</g>
<!-- Node2 -->
<g id="node2" class="node"><title>Node2</title>
<g id="a_node2"><a xlink:href="FunctionTreeIntensity_8hpp.html" target="_top" xlink:title="Core/FunctionTree/Function\lTreeIntensity.hpp">
<polygon fill="white" stroke="black" points="543.353,-123.5 543.353,-153.5 681.353,-153.5 681.353,-123.5 543.353,-123.5"/>
<text text-anchor="start" x="551.353" y="-141.5" font-family="Helvetica,sans-Serif" font-size="10.00">Core/FunctionTree/Function</text>
<text text-anchor="middle" x="612.353" y="-130.5" font-family="Helvetica,sans-Serif" font-size="10.00">TreeIntensity.hpp</text>
</a>
</g>
</g>
<!-- Node1&#45;&gt;Node2 -->
<g id="edge1" class="edge"><title>Node1&#45;&gt;Node2</title>
<path fill="none" stroke="midnightblue" d="M474.553,-246.383C502.147,-224.98 554.694,-184.222 586.323,-159.69"/>
<polygon fill="midnightblue" stroke="midnightblue" points="588.512,-162.422 594.268,-153.527 584.222,-156.89 588.512,-162.422"/>
</g>
<!-- Node7 -->
<g id="node7" class="node"><title>Node7</title>
<g id="a_node7"><a xlink:href="Value_8hpp.html" target="_top" xlink:title="Template implementation of Parameter for simple values. ">
<polygon fill="white" stroke="red" points="75.3529,-0.5 75.3529,-19.5 219.353,-19.5 219.353,-0.5 75.3529,-0.5"/>
<text text-anchor="middle" x="147.353" y="-7.5" font-family="Helvetica,sans-Serif" font-size="10.00">Core/FunctionTree/Value.hpp</text>
</a>
</g>
</g>
<!-- Node1&#45;&gt;Node7 -->
<g id="edge18" class="edge"><title>Node1&#45;&gt;Node7</title>
<path fill="none" stroke="midnightblue" d="M387.122,-254.241C273.771,-242.402 56.5313,-212.504 10.3529,-154 -30.3712,-102.406 66.1342,-48.1213 117.617,-23.9384"/>
<polygon fill="midnightblue" stroke="midnightblue" points="119.335,-27.001 126.961,-19.6466 116.413,-20.6399 119.335,-27.001"/>
</g>
<!-- Node8 -->
<g id="node8" class="node"><title>Node8</title>
<g id="a_node8"><a xlink:href="TreeNode_8hpp.html" target="_top" xlink:title="TreeNode class. ">
<polygon fill="white" stroke="black" points="287.353,-190.5 287.353,-209.5 449.353,-209.5 449.353,-190.5 287.353,-190.5"/>
<text text-anchor="middle" x="368.353" y="-197.5" font-family="Helvetica,sans-Serif" font-size="10.00">Core/FunctionTree/TreeNode.hpp</text>
</a>
</g>
</g>
<!-- Node1&#45;&gt;Node8 -->
<g id="edge9" class="edge"><title>Node1&#45;&gt;Node8</title>
<path fill="none" stroke="midnightblue" d="M435.498,-246.399C421.656,-237.04 403.542,-224.792 389.617,-215.377"/>
<polygon fill="midnightblue" stroke="midnightblue" points="391.402,-212.36 381.158,-209.658 387.481,-218.158 391.402,-212.36"/>
</g>
<!-- Node12 -->
<g id="node12" class="node"><title>Node12</title>
<g id="a_node12"><a xlink:href="DataSet_8hpp.html" target="_top" xlink:title="Data/DataSet.hpp">
<polygon fill="white" stroke="black" points="699.853,-129 699.853,-148 794.853,-148 794.853,-129 699.853,-129"/>
<text text-anchor="middle" x="747.353" y="-136" font-family="Helvetica,sans-Serif" font-size="10.00">Data/DataSet.hpp</text>
</a>
</g>
</g>
<!-- Node1&#45;&gt;Node12 -->
<g id="edge19" class="edge"><title>Node1&#45;&gt;Node12</title>
<path fill="none" stroke="midnightblue" d="M490.304,-246.383C547.608,-222.556 662.602,-174.74 717.221,-152.029"/>
<polygon fill="midnightblue" stroke="midnightblue" points="718.799,-155.163 726.689,-148.092 716.112,-148.7 718.799,-155.163"/>
</g>
<!-- Node3 -->
<g id="node3" class="node"><title>Node3</title>
<polygon fill="white" stroke="#bfbfbf" points="566.353,-0.5 566.353,-19.5 618.353,-19.5 618.353,-0.5 566.353,-0.5"/>
<text text-anchor="middle" x="592.353" y="-7.5" font-family="Helvetica,sans-Serif" font-size="10.00">memory</text>
</g>
<!-- Node2&#45;&gt;Node3 -->
<g id="edge2" class="edge"><title>Node2&#45;&gt;Node3</title>
<path fill="none" stroke="midnightblue" d="M626.763,-123.265C641.476,-106.92 660.67,-79.3528 649.353,-56 642.956,-42.7996 630.601,-32.3032 619.024,-24.7794"/>
<polygon fill="midnightblue" stroke="midnightblue" points="620.807,-21.7678 610.434,-19.6099 617.198,-27.7653 620.807,-21.7678"/>
</g>
<!-- Node4 -->
<g id="node4" class="node"><title>Node4</title>
<g id="a_node4"><a xlink:href="Function_8hpp.html" target="_top" xlink:title="Core/Function.hpp">
<polygon fill="white" stroke="red" points="543.853,-62 543.853,-81 640.853,-81 640.853,-62 543.853,-62"/>
<text text-anchor="middle" x="592.353" y="-69" font-family="Helvetica,sans-Serif" font-size="10.00">Core/Function.hpp</text>
</a>
</g>
</g>
<!-- Node2&#45;&gt;Node4 -->
<g id="edge3" class="edge"><title>Node2&#45;&gt;Node4</title>
<path fill="none" stroke="midnightblue" d="M608.013,-123.396C605.08,-113.863 601.178,-101.182 598.003,-90.8624"/>
<polygon fill="midnightblue" stroke="midnightblue" points="601.314,-89.723 595.028,-81.1945 594.624,-91.7817 601.314,-89.723"/>
</g>
<!-- Node6 -->
<g id="node6" class="node"><title>Node6</title>
<g id="a_node6"><a xlink:href="ParameterList_8hpp.html" target="_top" xlink:title="ParameterList class. ">
<polygon fill="white" stroke="red" points="341.353,-56.5 341.353,-86.5 487.353,-86.5 487.353,-56.5 341.353,-56.5"/>
<text text-anchor="start" x="349.353" y="-74.5" font-family="Helvetica,sans-Serif" font-size="10.00">Core/FunctionTree/Parameter</text>
<text text-anchor="middle" x="414.353" y="-63.5" font-family="Helvetica,sans-Serif" font-size="10.00">List.hpp</text>
</a>
</g>
</g>
<!-- Node2&#45;&gt;Node6 -->
<g id="edge5" class="edge"><title>Node2&#45;&gt;Node6</title>
<path fill="none" stroke="midnightblue" d="M569.39,-123.396C539.292,-113.515 498.891,-100.252 466.878,-89.7429"/>
<polygon fill="midnightblue" stroke="midnightblue" points="467.825,-86.3702 457.232,-86.5765 465.642,-93.021 467.825,-86.3702"/>
</g>
<!-- Node5 -->
<g id="node5" class="node"><title>Node5</title>
<polygon fill="white" stroke="#bfbfbf" points="393.853,-0.5 393.853,-19.5 434.853,-19.5 434.853,-0.5 393.853,-0.5"/>
<text text-anchor="middle" x="414.353" y="-7.5" font-family="Helvetica,sans-Serif" font-size="10.00">string</text>
</g>
<!-- Node4&#45;&gt;Node5 -->
<g id="edge4" class="edge"><title>Node4&#45;&gt;Node5</title>
<path fill="none" stroke="midnightblue" d="M566.85,-61.9751C534.565,-51.1832 479.019,-32.616 444.62,-21.1174"/>
<polygon fill="midnightblue" stroke="midnightblue" points="445.688,-17.7841 435.094,-17.9332 443.469,-24.423 445.688,-17.7841"/>
</g>
<!-- Node6&#45;&gt;Node3 -->
<g id="edge6" class="edge"><title>Node6&#45;&gt;Node3</title>
<path fill="none" stroke="midnightblue" d="M456.536,-56.3993C487.16,-46.1627 528.122,-32.4703 557.028,-22.8082"/>
<polygon fill="midnightblue" stroke="midnightblue" points="558.338,-26.0607 566.712,-19.5709 556.118,-19.4218 558.338,-26.0607"/>
</g>
<!-- Node6&#45;&gt;Node5 -->
<g id="edge7" class="edge"><title>Node6&#45;&gt;Node5</title>
<path fill="none" stroke="midnightblue" d="M414.353,-56.3993C414.353,-48.4664 414.353,-38.458 414.353,-29.8583"/>
<polygon fill="midnightblue" stroke="midnightblue" points="417.853,-29.6577 414.353,-19.6578 410.853,-29.6578 417.853,-29.6577"/>
</g>
<!-- Node6&#45;&gt;Node7 -->
<g id="edge8" class="edge"><title>Node6&#45;&gt;Node7</title>
<path fill="none" stroke="midnightblue" d="M351.416,-56.4747C303.643,-45.8287 238.953,-31.4127 195.32,-21.6892"/>
<polygon fill="midnightblue" stroke="midnightblue" points="196.046,-18.2654 185.524,-19.5064 194.524,-25.0978 196.046,-18.2654"/>
</g>
<!-- Node8&#45;&gt;Node3 -->
<g id="edge11" class="edge"><title>Node8&#45;&gt;Node3</title>
<path fill="none" stroke="midnightblue" d="M403.14,-190.38C425.665,-183.444 454.564,-171.86 475.353,-154 514.091,-120.72 501.45,-94.1944 535.353,-56 545.656,-44.3932 559.229,-33.5442 570.546,-25.4078"/>
<polygon fill="midnightblue" stroke="midnightblue" points="572.824,-28.0866 579.032,-19.5014 568.825,-22.3411 572.824,-28.0866"/>
</g>
<!-- Node8&#45;&gt;Node5 -->
<g id="edge12" class="edge"><title>Node8&#45;&gt;Node5</title>
<path fill="none" stroke="midnightblue" d="M330.199,-190.417C309.148,-183.806 284.148,-172.556 268.353,-154 239.649,-120.278 223.5,-91.2137 250.353,-56 266.445,-34.898 340.805,-21.2426 383.666,-14.9811"/>
<polygon fill="midnightblue" stroke="midnightblue" points="384.415,-18.41 393.829,-13.5484 383.438,-11.4786 384.415,-18.41"/>
</g>
<!-- Node8&#45;&gt;Node6 -->
<g id="edge17" class="edge"><title>Node8&#45;&gt;Node6</title>
<path fill="none" stroke="midnightblue" d="M405.455,-190.458C424.798,-183.918 446.781,-172.724 458.353,-154 470.669,-134.073 454.717,-110.431 438.682,-93.7568"/>
<polygon fill="midnightblue" stroke="midnightblue" points="441.001,-91.128 431.411,-86.6242 436.099,-96.1254 441.001,-91.128"/>
</g>
<!-- Node9 -->
<g id="node9" class="node"><title>Node9</title>
<polygon fill="white" stroke="#bfbfbf" points="259.853,-62 259.853,-81 312.853,-81 312.853,-62 259.853,-62"/>
<text text-anchor="middle" x="286.353" y="-69" font-family="Helvetica,sans-Serif" font-size="10.00">complex</text>
</g>
<!-- Node8&#45;&gt;Node9 -->
<g id="edge10" class="edge"><title>Node8&#45;&gt;Node9</title>
<path fill="none" stroke="midnightblue" d="M331.251,-190.458C311.908,-183.918 289.925,-172.724 278.353,-154 266.53,-134.871 272.371,-108.267 278.562,-90.7282"/>
<polygon fill="midnightblue" stroke="midnightblue" points="281.933,-91.7151 282.306,-81.1268 275.412,-89.1715 281.933,-91.7151"/>
</g>
<!-- Node10 -->
<g id="node10" class="node"><title>Node10</title>
<g id="a_node10"><a xlink:href="Functions_8hpp.html" target="_top" xlink:title="This file contains Functions implementing the Strategy interface so they can be used inside a node of...">
<polygon fill="white" stroke="red" points="287.353,-129 287.353,-148 449.353,-148 449.353,-129 287.353,-129"/>
<text text-anchor="middle" x="368.353" y="-136" font-family="Helvetica,sans-Serif" font-size="10.00">Core/FunctionTree/Functions.hpp</text>
</a>
</g>
</g>
<!-- Node8&#45;&gt;Node10 -->
<g id="edge13" class="edge"><title>Node8&#45;&gt;Node10</title>
<path fill="none" stroke="midnightblue" d="M368.353,-190.475C368.353,-182.08 368.353,-168.981 368.353,-158.163"/>
<polygon fill="midnightblue" stroke="midnightblue" points="371.853,-158.009 368.353,-148.009 364.853,-158.009 371.853,-158.009"/>
</g>
<!-- Node11 -->
<g id="node11" class="node"><title>Node11</title>
<g id="a_node11"><a xlink:href="ParObserver_8hpp.html" target="_top" xlink:title="ParObserver class. ">
<polygon fill="white" stroke="black" points="19.3529,-129 19.3529,-148 193.353,-148 193.353,-129 19.3529,-129"/>
<text text-anchor="middle" x="106.353" y="-136" font-family="Helvetica,sans-Serif" font-size="10.00">Core/FunctionTree/ParObserver.hpp</text>
</a>
</g>
</g>
<!-- Node8&#45;&gt;Node11 -->
<g id="edge16" class="edge"><title>Node8&#45;&gt;Node11</title>
<path fill="none" stroke="midnightblue" d="M330.815,-190.475C284.121,-179.871 204.373,-161.76 153.576,-150.224"/>
<polygon fill="midnightblue" stroke="midnightblue" points="154.348,-146.811 143.822,-148.009 152.798,-153.637 154.348,-146.811"/>
</g>
<!-- Node10&#45;&gt;Node6 -->
<g id="edge15" class="edge"><title>Node10&#45;&gt;Node6</title>
<path fill="none" stroke="midnightblue" d="M374.557,-128.734C380.654,-120.118 390.214,-106.61 398.435,-94.9923"/>
<polygon fill="midnightblue" stroke="midnightblue" points="401.462,-96.7736 404.382,-86.589 395.749,-92.7299 401.462,-96.7736"/>
</g>
<!-- Node10&#45;&gt;Node9 -->
<g id="edge14" class="edge"><title>Node10&#45;&gt;Node9</title>
<path fill="none" stroke="midnightblue" d="M357.294,-128.734C344.015,-118.208 321.524,-100.379 305.424,-87.6174"/>
<polygon fill="midnightblue" stroke="midnightblue" points="307.247,-84.5965 297.237,-81.1273 302.899,-90.0821 307.247,-84.5965"/>
</g>
<!-- Node12&#45;&gt;Node3 -->
<g id="edge20" class="edge"><title>Node12&#45;&gt;Node3</title>
<path fill="none" stroke="midnightblue" d="M758.609,-128.824C777.457,-113.258 811.537,-79.98 792.353,-56 772.229,-30.8449 680.556,-18.764 628.588,-13.8455"/>
<polygon fill="midnightblue" stroke="midnightblue" points="628.723,-10.3436 618.449,-12.929 628.093,-17.3151 628.723,-10.3436"/>
</g>
<!-- Node12&#45;&gt;Node4 -->
<g id="edge22" class="edge"><title>Node12&#45;&gt;Node4</title>
<path fill="none" stroke="midnightblue" d="M726.77,-128.869C700.019,-117.65 653.105,-97.9766 622.381,-85.0925"/>
<polygon fill="midnightblue" stroke="midnightblue" points="623.596,-81.8068 613.021,-81.1672 620.889,-88.2622 623.596,-81.8068"/>
</g>
<!-- Node13 -->
<g id="node13" class="node"><title>Node13</title>
<g id="a_node13"><a xlink:href="Event_8hpp.html" target="_top" xlink:title="Core/Event.hpp">
<polygon fill="white" stroke="red" points="697.853,-62 697.853,-81 782.853,-81 782.853,-62 697.853,-62"/>
<text text-anchor="middle" x="740.353" y="-69" font-family="Helvetica,sans-Serif" font-size="10.00">Core/Event.hpp</text>
</a>
</g>
</g>
<!-- Node12&#45;&gt;Node13 -->
<g id="edge21" class="edge"><title>Node12&#45;&gt;Node13</title>
<path fill="none" stroke="midnightblue" d="M746.409,-128.734C745.38,-119.183 743.704,-103.618 742.376,-91.2829"/>
<polygon fill="midnightblue" stroke="midnightblue" points="745.833,-90.695 741.282,-81.1273 738.873,-91.4446 745.833,-90.695"/>
</g>
</g>
</svg>
        <g id="navigator" transform="translate(0 0)" fill="#404254">
                <rect fill="#f2f5e9" fill-opacity="0.5" stroke="#606060" stroke-width=".5" x="0" y="0" width="60" height="60"/>
                <use id="zoomplus" xlink:href="#zoomPlus" x="17" y="9" onmousedown="handleZoom(evt,'in')"/>
                <use id="zoomminus" xlink:href="#zoomMin" x="42" y="9" onmousedown="handleZoom(evt,'out')"/>
                <use id="reset" xlink:href="#resetDef" x="30" y="36" onmousedown="handleReset()"/>
                <g id="arrowUp" xlink:href="#dirArrow" transform="translate(30 24)" onmousedown="handlePan(0,-1)">
                  <use xlink:href="#rim" fill="#404040">
                        <set attributeName="fill" to="#808080" begin="arrowUp.mouseover" end="arrowUp.mouseout"/>
                  </use>
                  <path fill="none" stroke="white" stroke-width="1.5" d="M0,-3.0v7 M-2.5,-0.5L0,-3.0L2.5,-0.5"/>
                </g>
                <g id="arrowRight" xlink:href="#dirArrow" transform="rotate(90) translate(36 -43)" onmousedown="handlePan(1,0)">
                  <use xlink:href="#rim" fill="#404040">
                        <set attributeName="fill" to="#808080" begin="arrowRight.mouseover" end="arrowRight.mouseout"/>
                  </use>
                  <path fill="none" stroke="white" stroke-width="1.5" d="M0,-3.0v7 M-2.5,-0.5L0,-3.0L2.5,-0.5"/>
                </g>
                <g id="arrowDown" xlink:href="#dirArrow" transform="rotate(180) translate(-30 -48)" onmousedown="handlePan(0,1)">
                  <use xlink:href="#rim" fill="#404040">
                        <set attributeName="fill" to="#808080" begin="arrowDown.mouseover" end="arrowDown.mouseout"/>
                  </use>
                  <path fill="none" stroke="white" stroke-width="1.5" d="M0,-3.0v7 M-2.5,-0.5L0,-3.0L2.5,-0.5"/>
                </g>
                <g id="arrowLeft" xlink:href="#dirArrow" transform="rotate(270) translate(-36 17)" onmousedown="handlePan(-1,0)">
                  <use xlink:href="#rim" fill="#404040">
                        <set attributeName="fill" to="#808080" begin="arrowLeft.mouseover" end="arrowLeft.mouseout"/>
                  </use>
                  <path fill="none" stroke="white" stroke-width="1.5" d="M0,-3.0v7 M-2.5,-0.5L0,-3.0L2.5,-0.5"/>
                </g>
        </g>
        <svg viewBox="0 0 15 15" width="100%" height="30px" preserveAspectRatio="xMaxYMin meet">
         <g id="arrow_out" transform="scale(0.3 0.3)">
          <a xlink:href="FunctionTreeIntensity_8cpp__incl_org.svg" target="_base">
           <rect id="button" ry="5" rx="5" y="6" x="6" height="38" width="38"
                fill="#f2f5e9" fill-opacity="0.5" stroke="#606060" stroke-width="1.0"/>
           <path id="arrow"
             d="M 11.500037,31.436501 C 11.940474,20.09759 22.043105,11.32322 32.158766,21.979434 L 37.068811,17.246167 C 37.068811,17.246167 37.088388,32 37.088388,32 L 22.160133,31.978069 C 22.160133,31.978069 26.997745,27.140456 26.997745,27.140456 C 18.528582,18.264221 13.291696,25.230495 11.500037,31.436501 z"
             style="fill:#404040;"/>
          </a>
         </g>
        </svg>
</svg>
