<?xml version="1.0" encoding="UTF-8" standalone="no"?>
<!DOCTYPE svg PUBLIC "-//W3C//DTD SVG 1.1//EN"
 "http://www.w3.org/Graphics/SVG/1.1/DTD/svg11.dtd">
<!-- Generated by graphviz version 2.38.0 (20140413.2041)
 -->
<!-- Title: Core/Generator.hpp Pages: 1 -->
<svg width="838pt" height="151pt"
 viewBox="0.00 0.00 837.50 151.00" xmlns="http://www.w3.org/2000/svg" xmlns:xlink="http://www.w3.org/1999/xlink">
<g id="graph0" class="graph" transform="scale(1 1) rotate(0) translate(4 147)">
<title>Core/Generator.hpp</title>
<polygon fill="white" stroke="none" points="-4,4 -4,-147 833.5,-147 833.5,4 -4,4"/>
<!-- Node1 -->
<g id="node1" class="node"><title>Node1</title>
<polygon fill="#bfbfbf" stroke="black" points="255.5,-123.5 255.5,-142.5 357.5,-142.5 357.5,-123.5 255.5,-123.5"/>
<text text-anchor="middle" x="306.5" y="-130.5" font-family="Helvetica,sans-Serif" font-size="10.00">Core/Generator.hpp</text>
</g>
<!-- Node2 -->
<g id="node2" class="node"><title>Node2</title>
<g id="a_node2"><a xlink:href="EvtGenGenerator_8hpp.html" target="_top" xlink:title="Data/EvtGen/EvtGenGenerator.hpp">
<polygon fill="white" stroke="black" points="0,-67.5 0,-86.5 171,-86.5 171,-67.5 0,-67.5"/>
<text text-anchor="middle" x="85.5" y="-74.5" font-family="Helvetica,sans-Serif" font-size="10.00">Data/EvtGen/EvtGenGenerator.hpp</text>
</a>
</g>
</g>
<!-- Node1&#45;&gt;Node2 -->
<g id="edge1" class="edge"><title>Node1&#45;&gt;Node2</title>
<path fill="none" stroke="midnightblue" d="M261.579,-121.024C219.832,-110.823 158.518,-95.8414 120.354,-86.5164"/>
<polygon fill="midnightblue" stroke="midnightblue" points="260.937,-124.47 271.482,-123.444 262.598,-117.67 260.937,-124.47"/>
</g>
<!-- Node4 -->
<g id="node4" class="node"><title>Node4</title>
<g id="a_node4"><a xlink:href="Generate_8cpp.html" target="_top" xlink:title="Data/Generate.cpp">
<polygon fill="white" stroke="black" points="189,-67.5 189,-86.5 288,-86.5 288,-67.5 189,-67.5"/>
<text text-anchor="middle" x="238.5" y="-74.5" font-family="Helvetica,sans-Serif" font-size="10.00">Data/Generate.cpp</text>
</a>
</g>
</g>
<!-- Node1&#45;&gt;Node4 -->
<g id="edge3" class="edge"><title>Node1&#45;&gt;Node4</title>
<path fill="none" stroke="midnightblue" d="M287.738,-117.101C275.5,-107.382 259.941,-95.0269 249.624,-86.8339"/>
<polygon fill="midnightblue" stroke="midnightblue" points="285.567,-119.846 295.575,-123.324 289.92,-114.364 285.567,-119.846"/>
</g>
<!-- Node5 -->
<g id="node5" class="node"><title>Node5</title>
<g id="a_node5"><a xlink:href="RootDataIO_8cpp.html" target="_top" xlink:title="Data/Root/RootDataIO.cpp">
<polygon fill="white" stroke="black" points="306.5,-67.5 306.5,-86.5 442.5,-86.5 442.5,-67.5 306.5,-67.5"/>
<text text-anchor="middle" x="374.5" y="-74.5" font-family="Helvetica,sans-Serif" font-size="10.00">Data/Root/RootDataIO.cpp</text>
</a>
</g>
</g>
<!-- Node1&#45;&gt;Node5 -->
<g id="edge4" class="edge"><title>Node1&#45;&gt;Node5</title>
<path fill="none" stroke="midnightblue" d="M325.262,-117.101C337.5,-107.382 353.059,-95.0269 363.376,-86.8339"/>
<polygon fill="midnightblue" stroke="midnightblue" points="323.08,-114.364 317.425,-123.324 327.433,-119.846 323.08,-114.364"/>
</g>
<!-- Node6 -->
<g id="node6" class="node"><title>Node6</title>
<g id="a_node6"><a xlink:href="RootGenerator_8hpp.html" target="_top" xlink:title="Data/Root/RootGenerator.hpp">
<polygon fill="white" stroke="black" points="461,-67.5 461,-86.5 608,-86.5 608,-67.5 461,-67.5"/>
<text text-anchor="middle" x="534.5" y="-74.5" font-family="Helvetica,sans-Serif" font-size="10.00">Data/Root/RootGenerator.hpp</text>
</a>
</g>
</g>
<!-- Node1&#45;&gt;Node6 -->
<g id="edge5" class="edge"><title>Node1&#45;&gt;Node6</title>
<path fill="none" stroke="midnightblue" d="M352.571,-121.088C395.646,-110.887 459.086,-95.8612 498.542,-86.5164"/>
<polygon fill="midnightblue" stroke="midnightblue" points="351.551,-117.733 342.627,-123.444 353.165,-124.545 351.551,-117.733"/>
</g>
<!-- Node3 -->
<g id="node3" class="node"><title>Node3</title>
<g id="a_node3"><a xlink:href="EvtGenGenerator_8cpp.html" target="_top" xlink:title="Data/EvtGen/EvtGenGenerator.cpp">
<polygon fill="white" stroke="black" points="0,-6 0,-25 171,-25 171,-6 0,-6"/>
<text text-anchor="middle" x="85.5" y="-13" font-family="Helvetica,sans-Serif" font-size="10.00">Data/EvtGen/EvtGenGenerator.cpp</text>
</a>
</g>
</g>
<!-- Node2&#45;&gt;Node3 -->
<g id="edge2" class="edge"><title>Node2&#45;&gt;Node3</title>
<path fill="none" stroke="midnightblue" d="M85.5,-57.3165C85.5,-46.4962 85.5,-33.398 85.5,-25.0091"/>
<polygon fill="midnightblue" stroke="midnightblue" points="82.0001,-57.4751 85.5,-67.4751 89.0001,-57.4751 82.0001,-57.4751"/>
</g>
<!-- Node7 -->
<g id="node7" class="node"><title>Node7</title>
<g id="a_node7"><a xlink:href="RootGenerator_8cpp.html" target="_top" xlink:title="Data/Root/RootGenerator.cpp">
<polygon fill="white" stroke="black" points="243,-6 243,-25 390,-25 390,-6 243,-6"/>
<text text-anchor="middle" x="316.5" y="-13" font-family="Helvetica,sans-Serif" font-size="10.00">Data/Root/RootGenerator.cpp</text>
</a>
</g>
</g>
<!-- Node6&#45;&gt;Node7 -->
<g id="edge6" class="edge"><title>Node6&#45;&gt;Node7</title>
<path fill="none" stroke="midnightblue" d="M493.547,-64.8225C451.2,-53.2645 386.015,-35.4732 347.676,-25.0091"/>
<polygon fill="midnightblue" stroke="midnightblue" points="492.697,-68.2185 503.266,-67.4751 494.54,-61.4655 492.697,-68.2185"/>
</g>
<!-- Node8 -->
<g id="node8" class="node"><title>Node8</title>
<g id="a_node8"><a xlink:href="DalitzFitD03K_8cpp.html" target="_top" xlink:title="Executable for Dalitz plot analysis of the decay D0 &#45;&gt; K_S K+ K&#45;. ">
<polygon fill="white" stroke="black" points="408,-0.5 408,-30.5 551,-30.5 551,-0.5 408,-0.5"/>
<text text-anchor="start" x="416" y="-18.5" font-family="Helvetica,sans-Serif" font-size="10.00">Examples/DalitzAnalysis</text>
<text text-anchor="middle" x="479.5" y="-7.5" font-family="Helvetica,sans-Serif" font-size="10.00">_D0KsKK/DalitzFitD03K.cpp</text>
</a>
</g>
</g>
<!-- Node6&#45;&gt;Node8 -->
<g id="edge7" class="edge"><title>Node6&#45;&gt;Node8</title>
<path fill="none" stroke="midnightblue" d="M519.794,-60.0906C511.28,-50.8804 500.661,-39.3928 492.462,-30.523"/>
<polygon fill="midnightblue" stroke="midnightblue" points="517.262,-62.5076 526.62,-67.4751 522.402,-57.756 517.262,-62.5076"/>
</g>
<!-- Node9 -->
<g id="node9" class="node"><title>Node9</title>
<g id="a_node9"><a xlink:href="DalitzFitApp_8cpp.html" target="_top" xlink:title="Simple Dalitz plot analysis with ComPWA. ">
<polygon fill="white" stroke="black" points="569.5,-0.5 569.5,-30.5 669.5,-30.5 669.5,-0.5 569.5,-0.5"/>
<text text-anchor="start" x="577.5" y="-18.5" font-family="Helvetica,sans-Serif" font-size="10.00">Examples/DalitzFit</text>
<text text-anchor="middle" x="619.5" y="-7.5" font-family="Helvetica,sans-Serif" font-size="10.00">/DalitzFitApp.cpp</text>
</a>
</g>
</g>
<!-- Node6&#45;&gt;Node9 -->
<g id="edge8" class="edge"><title>Node6&#45;&gt;Node9</title>
<path fill="none" stroke="midnightblue" d="M554.873,-61.739C568.382,-52.2824 586.028,-39.9304 599.467,-30.523"/>
<polygon fill="midnightblue" stroke="midnightblue" points="552.864,-58.8731 546.678,-67.4751 556.878,-64.6078 552.864,-58.8731"/>
</g>
<!-- Node10 -->
<g id="node10" class="node"><title>Node10</title>
<g id="a_node10"><a xlink:href="SimFit_8cpp.html" target="_top" xlink:title="Examples/SimFit/SimFit.cpp">
<polygon fill="white" stroke="black" points="687.5,-6 687.5,-25 829.5,-25 829.5,-6 687.5,-6"/>
<text text-anchor="middle" x="758.5" y="-13" font-family="Helvetica,sans-Serif" font-size="10.00">Examples/SimFit/SimFit.cpp</text>
</a>
</g>
</g>
<!-- Node6&#45;&gt;Node10 -->
<g id="edge9" class="edge"><title>Node6&#45;&gt;Node10</title>
<path fill="none" stroke="midnightblue" d="M576.305,-64.8956C619.81,-53.3396 686.988,-35.4952 726.466,-25.0091"/>
<polygon fill="midnightblue" stroke="midnightblue" points="575.36,-61.5251 566.594,-67.4751 577.157,-68.2905 575.36,-61.5251"/>
</g>
</g>
</svg>
