<?xml version="1.0" encoding="UTF-8" standalone="no"?>
<!DOCTYPE svg PUBLIC "-//W3C//DTD SVG 1.1//EN"
 "http://www.w3.org/Graphics/SVG/1.1/DTD/svg11.dtd">
<!-- Generated by graphviz version 2.38.0 (20140413.2041)
 -->
<!-- Title: Optimizer/Geneva/GenevaIF.cpp Pages: 1 -->
<svg width="780pt" height="252pt"
 viewBox="0.00 0.00 780.13 252.00" xmlns="http://www.w3.org/2000/svg" xmlns:xlink="http://www.w3.org/1999/xlink">
<g id="graph0" class="graph" transform="scale(1 1) rotate(0) translate(4 248)">
<title>Optimizer/Geneva/GenevaIF.cpp</title>
<polygon fill="white" stroke="none" points="-4,4 -4,-248 776.13,-248 776.13,4 -4,4"/>
<!-- Node1 -->
<g id="node1" class="node"><title>Node1</title>
<polygon fill="#bfbfbf" stroke="black" points="370.63,-224.5 370.63,-243.5 530.63,-243.5 530.63,-224.5 370.63,-224.5"/>
<text text-anchor="middle" x="450.63" y="-231.5" font-family="Helvetica,sans-Serif" font-size="10.00">Optimizer/Geneva/GenevaIF.cpp</text>
</g>
<!-- Node2 -->
<g id="node2" class="node"><title>Node2</title>
<g id="a_node2"><a xlink:href="GenevaIF_8hpp.html" target="_top" xlink:title="This class provides a wrapper around the Geneva library. ">
<polygon fill="white" stroke="black" points="99.6295,-168.5 99.6295,-187.5 259.63,-187.5 259.63,-168.5 99.6295,-168.5"/>
<text text-anchor="middle" x="179.63" y="-175.5" font-family="Helvetica,sans-Serif" font-size="10.00">Optimizer/Geneva/GenevaIF.hpp</text>
</a>
</g>
</g>
<!-- Node1&#45;&gt;Node2 -->
<g id="edge1" class="edge"><title>Node1&#45;&gt;Node2</title>
<path fill="none" stroke="midnightblue" d="M407.689,-224.444C360.116,-214.964 283.386,-199.675 232.241,-189.483"/>
<polygon fill="midnightblue" stroke="midnightblue" points="232.861,-186.038 222.369,-187.516 231.493,-192.903 232.861,-186.038"/>
</g>
<!-- Node4 -->
<g id="node4" class="node"><title>Node4</title>
<g id="a_node4"><a xlink:href="GenevaResult_8hpp.html" target="_top" xlink:title="Optimizer/Geneva/GenevaResult.hpp">
<polygon fill="white" stroke="red" points="224.13,-112.5 224.13,-131.5 403.13,-131.5 403.13,-112.5 224.13,-112.5"/>
<text text-anchor="middle" x="313.63" y="-119.5" font-family="Helvetica,sans-Serif" font-size="10.00">Optimizer/Geneva/GenevaResult.hpp</text>
</a>
</g>
</g>
<!-- Node1&#45;&gt;Node4 -->
<g id="edge15" class="edge"><title>Node1&#45;&gt;Node4</title>
<path fill="none" stroke="midnightblue" d="M439.879,-224.368C416.67,-205.733 361.62,-161.532 332.478,-138.134"/>
<polygon fill="midnightblue" stroke="midnightblue" points="334.319,-135.123 324.33,-131.591 329.936,-140.581 334.319,-135.123"/>
</g>
<!-- Node7 -->
<g id="node7" class="node"><title>Node7</title>
<g id="a_node7"><a xlink:href="Logging_8hpp.html" target="_top" xlink:title="Core/Logging.hpp">
<polygon fill="white" stroke="red" points="342.13,-0.5 342.13,-19.5 435.13,-19.5 435.13,-0.5 342.13,-0.5"/>
<text text-anchor="middle" x="388.63" y="-7.5" font-family="Helvetica,sans-Serif" font-size="10.00">Core/Logging.hpp</text>
</a>
</g>
</g>
<!-- Node1&#45;&gt;Node7 -->
<g id="edge9" class="edge"><title>Node1&#45;&gt;Node7</title>
<path fill="none" stroke="midnightblue" d="M449.632,-224.288C446.454,-198.138 435.414,-118.279 412.63,-56 409.169,-46.5415 404.046,-36.6039 399.42,-28.4805"/>
<polygon fill="midnightblue" stroke="midnightblue" points="402.28,-26.4424 394.17,-19.6255 396.259,-30.0123 402.28,-26.4424"/>
</g>
<!-- Node9 -->
<g id="node9" class="node"><title>Node9</title>
<g id="a_node9"><a xlink:href="GFMinIndividual_8hpp.html" target="_top" xlink:title="Optimizer/Geneva/GFMinIndividual.hpp">
<polygon fill="white" stroke="black" points="459.63,-112.5 459.63,-131.5 647.63,-131.5 647.63,-112.5 459.63,-112.5"/>
<text text-anchor="middle" x="553.63" y="-119.5" font-family="Helvetica,sans-Serif" font-size="10.00">Optimizer/Geneva/GFMinIndividual.hpp</text>
</a>
</g>
</g>
<!-- Node1&#45;&gt;Node9 -->
<g id="edge10" class="edge"><title>Node1&#45;&gt;Node9</title>
<path fill="none" stroke="midnightblue" d="M454.267,-224.221C460.077,-210.943 472.463,-185.453 488.63,-168 500.112,-155.603 515.584,-144.722 528.553,-136.766"/>
<polygon fill="midnightblue" stroke="midnightblue" points="530.626,-139.607 537.46,-131.51 527.069,-133.578 530.626,-139.607"/>
</g>
<!-- Node12 -->
<g id="node12" class="node"><title>Node12</title>
<polygon fill="white" stroke="#bfbfbf" points="497.63,-168.5 497.63,-187.5 585.63,-187.5 585.63,-168.5 497.63,-168.5"/>
<text text-anchor="middle" x="541.63" y="-175.5" font-family="Helvetica,sans-Serif" font-size="10.00">geneva/Go2.hpp</text>
</g>
<!-- Node1&#45;&gt;Node12 -->
<g id="edge16" class="edge"><title>Node1&#45;&gt;Node12</title>
<path fill="none" stroke="midnightblue" d="M465.25,-224.324C479.578,-215.822 501.642,-202.729 518.378,-192.797"/>
<polygon fill="midnightblue" stroke="midnightblue" points="520.231,-195.768 527.045,-187.655 516.659,-189.748 520.231,-195.768"/>
</g>
<!-- Node13 -->
<g id="node13" class="node"><title>Node13</title>
<polygon fill="white" stroke="#bfbfbf" points="603.63,-168.5 603.63,-187.5 649.63,-187.5 649.63,-168.5 603.63,-168.5"/>
<text text-anchor="middle" x="626.63" y="-175.5" font-family="Helvetica,sans-Serif" font-size="10.00">chrono</text>
</g>
<!-- Node1&#45;&gt;Node13 -->
<g id="edge17" class="edge"><title>Node1&#45;&gt;Node13</title>
<path fill="none" stroke="midnightblue" d="M478.517,-224.444C509.789,-214.849 560.46,-199.302 593.665,-189.114"/>
<polygon fill="midnightblue" stroke="midnightblue" points="594.835,-192.416 603.369,-186.137 592.782,-185.724 594.835,-192.416"/>
</g>
<!-- Node3 -->
<g id="node3" class="node"><title>Node3</title>
<g id="a_node3"><a xlink:href="Estimator_8hpp.html" target="_top" xlink:title="Estimator/Estimator.hpp">
<polygon fill="white" stroke="red" points="13.6295,-56.5 13.6295,-75.5 135.63,-75.5 135.63,-56.5 13.6295,-56.5"/>
<text text-anchor="middle" x="74.6295" y="-63.5" font-family="Helvetica,sans-Serif" font-size="10.00">Estimator/Estimator.hpp</text>
</a>
</g>
</g>
<!-- Node2&#45;&gt;Node3 -->
<g id="edge2" class="edge"><title>Node2&#45;&gt;Node3</title>
<path fill="none" stroke="midnightblue" d="M113.618,-168.497C69.8931,-161.354 18.1815,-149.478 4.62952,-132 -11.2092,-111.573 18.1849,-91.9257 43.605,-79.6801"/>
<polygon fill="midnightblue" stroke="midnightblue" points="45.0644,-82.8614 52.6993,-75.5157 42.15,-76.4969 45.0644,-82.8614"/>
</g>
<!-- Node2&#45;&gt;Node4 -->
<g id="edge3" class="edge"><title>Node2&#45;&gt;Node4</title>
<path fill="none" stroke="midnightblue" d="M200.862,-168.444C223.013,-159.517 257.948,-145.439 283.066,-135.317"/>
<polygon fill="midnightblue" stroke="midnightblue" points="284.529,-138.501 292.496,-131.516 281.913,-132.008 284.529,-138.501"/>
</g>
<!-- Node5 -->
<g id="node5" class="node"><title>Node5</title>
<g id="a_node5"><a xlink:href="Optimizer_8hpp.html" target="_top" xlink:title="Optimizer/Optimizer.hpp">
<polygon fill="white" stroke="black" points="13.6295,-112.5 13.6295,-131.5 135.63,-131.5 135.63,-112.5 13.6295,-112.5"/>
<text text-anchor="middle" x="74.6295" y="-119.5" font-family="Helvetica,sans-Serif" font-size="10.00">Optimizer/Optimizer.hpp</text>
</a>
</g>
</g>
<!-- Node2&#45;&gt;Node5 -->
<g id="edge4" class="edge"><title>Node2&#45;&gt;Node5</title>
<path fill="none" stroke="midnightblue" d="M162.759,-168.324C145.921,-159.664 119.823,-146.242 100.392,-136.249"/>
<polygon fill="midnightblue" stroke="midnightblue" points="101.951,-133.116 91.4577,-131.655 98.7499,-139.341 101.951,-133.116"/>
</g>
<!-- Node8 -->
<g id="node8" class="node"><title>Node8</title>
<polygon fill="white" stroke="#bfbfbf" points="153.63,-112.5 153.63,-131.5 205.63,-131.5 205.63,-112.5 153.63,-112.5"/>
<text text-anchor="middle" x="179.63" y="-119.5" font-family="Helvetica,sans-Serif" font-size="10.00">memory</text>
</g>
<!-- Node2&#45;&gt;Node8 -->
<g id="edge8" class="edge"><title>Node2&#45;&gt;Node8</title>
<path fill="none" stroke="midnightblue" d="M179.63,-168.083C179.63,-161.006 179.63,-150.861 179.63,-141.986"/>
<polygon fill="midnightblue" stroke="midnightblue" points="183.13,-141.751 179.63,-131.751 176.13,-141.751 183.13,-141.751"/>
</g>
<!-- Node5&#45;&gt;Node3 -->
<g id="edge7" class="edge"><title>Node5&#45;&gt;Node3</title>
<path fill="none" stroke="midnightblue" d="M74.6295,-112.083C74.6295,-105.006 74.6295,-94.8611 74.6295,-85.9865"/>
<polygon fill="midnightblue" stroke="midnightblue" points="78.1296,-85.751 74.6295,-75.7511 71.1296,-85.7511 78.1296,-85.751"/>
</g>
<!-- Node6 -->
<g id="node6" class="node"><title>Node6</title>
<g id="a_node6"><a xlink:href="FitParameter_8hpp.html" target="_top" xlink:title="Core/FitParameter.hpp">
<polygon fill="white" stroke="red" points="287.63,-56.5 287.63,-75.5 403.63,-75.5 403.63,-56.5 287.63,-56.5"/>
<text text-anchor="middle" x="345.63" y="-63.5" font-family="Helvetica,sans-Serif" font-size="10.00">Core/FitParameter.hpp</text>
</a>
</g>
</g>
<!-- Node5&#45;&gt;Node6 -->
<g id="edge5" class="edge"><title>Node5&#45;&gt;Node6</title>
<path fill="none" stroke="midnightblue" d="M117.57,-112.444C165.143,-102.964 241.873,-87.6747 293.018,-77.4835"/>
<polygon fill="midnightblue" stroke="midnightblue" points="293.766,-80.9032 302.89,-75.5164 292.398,-74.0382 293.766,-80.9032"/>
</g>
<!-- Node6&#45;&gt;Node7 -->
<g id="edge6" class="edge"><title>Node6&#45;&gt;Node7</title>
<path fill="none" stroke="midnightblue" d="M352.73,-56.083C358.867,-48.3768 367.899,-37.0333 375.369,-27.6531"/>
<polygon fill="midnightblue" stroke="midnightblue" points="378.17,-29.7542 381.661,-19.7511 372.694,-25.3936 378.17,-29.7542"/>
</g>
<!-- Node9&#45;&gt;Node3 -->
<g id="edge12" class="edge"><title>Node9&#45;&gt;Node3</title>
<path fill="none" stroke="midnightblue" d="M477.995,-112.473C386.863,-102.2 234.921,-85.0704 145.821,-75.0258"/>
<polygon fill="midnightblue" stroke="midnightblue" points="146.136,-71.5392 135.807,-73.8968 145.352,-78.4951 146.136,-71.5392"/>
</g>
<!-- Node9&#45;&gt;Node6 -->
<g id="edge11" class="edge"><title>Node9&#45;&gt;Node6</title>
<path fill="none" stroke="midnightblue" d="M520.671,-112.444C484.843,-103.142 427.466,-88.246 388.239,-78.062"/>
<polygon fill="midnightblue" stroke="midnightblue" points="388.992,-74.6417 378.434,-75.5164 387.233,-81.4171 388.992,-74.6417"/>
</g>
<!-- Node10 -->
<g id="node10" class="node"><title>Node10</title>
<polygon fill="white" stroke="#bfbfbf" points="627.13,-56.5 627.13,-75.5 772.13,-75.5 772.13,-56.5 627.13,-56.5"/>
<text text-anchor="middle" x="699.63" y="-63.5" font-family="Helvetica,sans-Serif" font-size="10.00">common/GGlobalDefines.hpp</text>
</g>
<!-- Node9&#45;&gt;Node10 -->
<g id="edge13" class="edge"><title>Node9&#45;&gt;Node10</title>
<path fill="none" stroke="midnightblue" d="M576.764,-112.444C601.112,-103.438 639.637,-89.1891 667.053,-79.049"/>
<polygon fill="midnightblue" stroke="midnightblue" points="668.439,-82.2681 676.604,-75.5164 666.01,-75.7028 668.439,-82.2681"/>
</g>
<!-- Node11 -->
<g id="node11" class="node"><title>Node11</title>
<polygon fill="white" stroke="#bfbfbf" points="472.13,-56.5 472.13,-75.5 609.13,-75.5 609.13,-56.5 472.13,-56.5"/>
<text text-anchor="middle" x="540.63" y="-63.5" font-family="Helvetica,sans-Serif" font-size="10.00">geneva/GParameterSet.hpp</text>
</g>
<!-- Node9&#45;&gt;Node11 -->
<g id="edge14" class="edge"><title>Node9&#45;&gt;Node11</title>
<path fill="none" stroke="midnightblue" d="M551.483,-112.083C549.76,-104.927 547.282,-94.6353 545.129,-85.6911"/>
<polygon fill="midnightblue" stroke="midnightblue" points="548.48,-84.6541 542.736,-75.7511 541.674,-86.2925 548.48,-84.6541"/>
</g>
</g>
</svg>
