<?xml version="1.0" encoding="UTF-8" standalone="no"?>
<!DOCTYPE svg PUBLIC "-//W3C//DTD SVG 1.1//EN"
 "http://www.w3.org/Graphics/SVG/1.1/DTD/svg11.dtd">
<!-- Generated by graphviz version 2.38.0 (20140413.2041)
 -->
<!-- Title: Optimizer/Geneva/GenevaResult.hpp Pages: 1 -->
<svg width="340pt" height="207pt"
 viewBox="0.00 0.00 340.00 207.00" xmlns="http://www.w3.org/2000/svg" xmlns:xlink="http://www.w3.org/1999/xlink">
<g id="graph0" class="graph" transform="scale(1 1) rotate(0) translate(4 203)">
<title>Optimizer/Geneva/GenevaResult.hpp</title>
<polygon fill="white" stroke="none" points="-4,4 -4,-203 336,-203 336,4 -4,4"/>
<!-- Node1 -->
<g id="node1" class="node"><title>Node1</title>
<polygon fill="#bfbfbf" stroke="black" points="92.5,-179.5 92.5,-198.5 271.5,-198.5 271.5,-179.5 92.5,-179.5"/>
<text text-anchor="middle" x="182" y="-186.5" font-family="Helvetica,sans-Serif" font-size="10.00">Optimizer/Geneva/GenevaResult.hpp</text>
</g>
<!-- Node2 -->
<g id="node2" class="node"><title>Node2</title>
<g id="a_node2"><a xlink:href="FitResult_8hpp.html" target="_top" xlink:title="Core/FitResult.hpp">
<polygon fill="white" stroke="black" points="132.5,-123.5 132.5,-142.5 231.5,-142.5 231.5,-123.5 132.5,-123.5"/>
<text text-anchor="middle" x="182" y="-130.5" font-family="Helvetica,sans-Serif" font-size="10.00">Core/FitResult.hpp</text>
</a>
</g>
</g>
<!-- Node1&#45;&gt;Node2 -->
<g id="edge1" class="edge"><title>Node1&#45;&gt;Node2</title>
<path fill="none" stroke="midnightblue" d="M182,-179.083C182,-172.006 182,-161.861 182,-152.986"/>
<polygon fill="midnightblue" stroke="midnightblue" points="185.5,-152.751 182,-142.751 178.5,-152.751 185.5,-152.751"/>
</g>
<!-- Node3 -->
<g id="node3" class="node"><title>Node3</title>
<g id="a_node3"><a xlink:href="FitParameter_8hpp.html" target="_top" xlink:title="Core/FitParameter.hpp">
<polygon fill="white" stroke="red" points="0,-62 0,-81 116,-81 116,-62 0,-62"/>
<text text-anchor="middle" x="58" y="-69" font-family="Helvetica,sans-Serif" font-size="10.00">Core/FitParameter.hpp</text>
</a>
</g>
</g>
<!-- Node2&#45;&gt;Node3 -->
<g id="edge2" class="edge"><title>Node2&#45;&gt;Node3</title>
<path fill="none" stroke="midnightblue" d="M164.234,-123.475C143.516,-113.534 109.048,-96.9947 85.0111,-85.461"/>
<polygon fill="midnightblue" stroke="midnightblue" points="86.2632,-82.1797 75.7332,-81.0091 83.2349,-88.4908 86.2632,-82.1797"/>
</g>
<!-- Node4 -->
<g id="node4" class="node"><title>Node4</title>
<g id="a_node4"><a xlink:href="Function_8hpp.html" target="_top" xlink:title="Core/Function.hpp">
<polygon fill="white" stroke="red" points="52.5,-0.5 52.5,-19.5 149.5,-19.5 149.5,-0.5 52.5,-0.5"/>
<text text-anchor="middle" x="101" y="-7.5" font-family="Helvetica,sans-Serif" font-size="10.00">Core/Function.hpp</text>
</a>
</g>
</g>
<!-- Node2&#45;&gt;Node4 -->
<g id="edge4" class="edge"><title>Node2&#45;&gt;Node4</title>
<path fill="none" stroke="midnightblue" d="M176.175,-123.298C162.864,-103.414 130.021,-54.3521 112.479,-28.1471"/>
<polygon fill="midnightblue" stroke="midnightblue" points="115.244,-25.9861 106.773,-19.6232 109.427,-29.8801 115.244,-25.9861"/>
</g>
<!-- Node5 -->
<g id="node5" class="node"><title>Node5</title>
<polygon fill="white" stroke="#bfbfbf" points="172.5,-56.5 172.5,-86.5 267.5,-86.5 267.5,-56.5 172.5,-56.5"/>
<text text-anchor="start" x="180.5" y="-74.5" font-family="Helvetica,sans-Serif" font-size="10.00">boost/serialization</text>
<text text-anchor="middle" x="220" y="-63.5" font-family="Helvetica,sans-Serif" font-size="10.00">/vector.hpp</text>
</g>
<!-- Node2&#45;&gt;Node5 -->
<g id="edge5" class="edge"><title>Node2&#45;&gt;Node5</title>
<path fill="none" stroke="midnightblue" d="M187.444,-123.475C192.158,-116.094 199.194,-105.077 205.521,-95.1714"/>
<polygon fill="midnightblue" stroke="midnightblue" points="208.611,-96.8347 211.044,-86.523 202.712,-93.067 208.611,-96.8347"/>
</g>
<!-- Node6 -->
<g id="node6" class="node"><title>Node6</title>
<polygon fill="white" stroke="#bfbfbf" points="286,-62 286,-81 332,-81 332,-62 286,-62"/>
<text text-anchor="middle" x="309" y="-69" font-family="Helvetica,sans-Serif" font-size="10.00">chrono</text>
</g>
<!-- Node2&#45;&gt;Node6 -->
<g id="edge6" class="edge"><title>Node2&#45;&gt;Node6</title>
<path fill="none" stroke="midnightblue" d="M200.196,-123.475C221.509,-113.49 257.031,-96.8476 281.663,-85.3075"/>
<polygon fill="midnightblue" stroke="midnightblue" points="283.267,-88.4211 290.838,-81.0091 280.297,-82.0822 283.267,-88.4211"/>
</g>
<!-- Node3&#45;&gt;Node4 -->
<g id="edge3" class="edge"><title>Node3&#45;&gt;Node4</title>
<path fill="none" stroke="midnightblue" d="M64.1609,-61.9751C70.6109,-53.0501 80.9041,-38.8071 88.9726,-27.6425"/>
<polygon fill="midnightblue" stroke="midnightblue" points="91.8299,-29.6642 94.8506,-19.5091 86.1564,-25.564 91.8299,-29.6642"/>
</g>
</g>
</svg>
