<?xml version="1.0" encoding="UTF-8" standalone="no"?>
<!DOCTYPE svg PUBLIC "-//W3C//DTD SVG 1.1//EN"
 "http://www.w3.org/Graphics/SVG/1.1/DTD/svg11.dtd">
<!-- Generated by graphviz version 2.38.0 (20140413.2041)
 -->
<!-- Title: Data/Generate.cpp Pages: 1 -->
<!--zoomable 240 -->
<svg id="main" version="1.1" xmlns="http://www.w3.org/2000/svg" xmlns:xlink="http://www.w3.org/1999/xlink" xml:space="preserve" onload="init(evt)">
<style type="text/css"><![CDATA[
.edge:hover path { stroke: red; }
.edge:hover polygon { stroke: red; fill: red; }
]]></style>
<script type="text/javascript"><![CDATA[
var edges = document.getElementsByTagName('g');
if (edges && edges.length) {
  for (var i=0;i<edges.length;i++) {
    if (edges[i].id.substr(0,4)=='edge') {
      edges[i].setAttribute('class','edge');
    }
  }
}
]]></script>
        <defs>
                <circle id="rim" cx="0" cy="0" r="7"/>
                <circle id="rim2" cx="0" cy="0" r="3.5"/>
                <g id="zoomPlus">
                        <use xlink:href="#rim" fill="#404040">
                                <set attributeName="fill" to="#808080" begin="zoomplus.mouseover" end="zoomplus.mouseout"/>
                        </use>
                        <path d="M-4,0h8M0,-4v8" fill="none" stroke="white" stroke-width="1.5" pointer-events="none"/>
                </g>
                <g id="zoomMin">
                        <use xlink:href="#rim" fill="#404040">
                                <set attributeName="fill" to="#808080" begin="zoomminus.mouseover" end="zoomminus.mouseout"/>
                        </use>
                        <path d="M-4,0h8" fill="none" stroke="white" stroke-width="1.5" pointer-events="none"/>
                </g>
                <g id="dirArrow">
                        <path fill="none" stroke="white" stroke-width="1.5" d="M0,-3.0v7 M-2.5,-0.5L0,-3.0L2.5,-0.5"/>
                </g>
               <g id="resetDef">
                       <use xlink:href="#rim2" fill="#404040">
                               <set attributeName="fill" to="#808080" begin="reset.mouseover" end="reset.mouseout"/>
                       </use>
               </g>
        </defs>

<script type="text/javascript">
var viewWidth = 4857;
var viewHeight = 240;
var sectionId = 'dynsection-0';
</script>
<script xlink:href="svgpan.js"/>
<svg id="graph" class="graph">
<g id="viewport">
<title>Data/Generate.cpp</title>
<polygon fill="white" stroke="none" points="-4,4 -4,-236 4852.5,-236 4852.5,4 -4,4"/>
<!-- Node1 -->
<g id="node1" class="node"><title>Node1</title>
<polygon fill="#bfbfbf" stroke="black" points="2207.5,-212.5 2207.5,-231.5 2306.5,-231.5 2306.5,-212.5 2207.5,-212.5"/>
<text text-anchor="middle" x="2257" y="-219.5" font-family="Helvetica,sans-Serif" font-size="10.00">Data/Generate.cpp</text>
</g>
<!-- Node2 -->
<g id="node2" class="node"><title>Node2</title>
<polygon fill="white" stroke="#bfbfbf" points="0,-140 0,-159 56,-159 56,-140 0,-140"/>
<text text-anchor="middle" x="28" y="-147" font-family="Helvetica,sans-Serif" font-size="10.00">algorithm</text>
</g>
<!-- Node1&#45;&gt;Node2 -->
<g id="edge1" class="edge"><title>Node1&#45;&gt;Node2</title>
<path fill="none" stroke="midnightblue" d="M2207.38,-220.789C1891.44,-219.346 170.254,-209.946 65,-176 58.081,-173.769 51.2965,-169.783 45.4654,-165.615"/>
<polygon fill="midnightblue" stroke="midnightblue" points="47.2351,-162.556 37.2047,-159.144 42.918,-168.066 47.2351,-162.556"/>
</g>
<!-- Node3 -->
<g id="node3" class="node"><title>Node3</title>
<g id="a_node3"><a xlink:href="Exceptions_8hpp.html" target="_top" xlink:title="ComPWA exceptions. ">
<polygon fill="white" stroke="black" points="74,-140 74,-159 182,-159 182,-140 74,-140"/>
<text text-anchor="middle" x="128" y="-147" font-family="Helvetica,sans-Serif" font-size="10.00">Core/Exceptions.hpp</text>
</a>
</g>
</g>
<!-- Node1&#45;&gt;Node3 -->
<g id="edge2" class="edge"><title>Node1&#45;&gt;Node3</title>
<path fill="none" stroke="midnightblue" d="M2207.12,-220.726C1913.21,-219.004 413.341,-208.661 211,-176 193.543,-173.182 174.657,-167.593 159.317,-162.363"/>
<polygon fill="midnightblue" stroke="midnightblue" points="160.394,-159.032 149.799,-159.011 158.069,-165.634 160.394,-159.032"/>
</g>
<!-- Node6 -->
<g id="node6" class="node"><title>Node6</title>
<g id="a_node6"><a xlink:href="Generator_8hpp.html" target="_top" xlink:title="Core/Generator.hpp">
<polygon fill="white" stroke="black" points="494,-140 494,-159 596,-159 596,-140 494,-140"/>
<text text-anchor="middle" x="545" y="-147" font-family="Helvetica,sans-Serif" font-size="10.00">Core/Generator.hpp</text>
</a>
</g>
</g>
<!-- Node1&#45;&gt;Node6 -->
<g id="edge5" class="edge"><title>Node1&#45;&gt;Node6</title>
<path fill="none" stroke="midnightblue" d="M2207.09,-220.662C1948.78,-218.778 769.601,-208.45 610,-176 596.729,-173.302 582.662,-168.102 571.021,-163.098"/>
<polygon fill="midnightblue" stroke="midnightblue" points="572.441,-159.899 561.884,-159 569.576,-166.286 572.441,-159.899"/>
</g>
<!-- Node9 -->
<g id="node9" class="node"><title>Node9</title>
<g id="a_node9"><a xlink:href="Random_8hpp.html" target="_top" xlink:title="Core/Random.hpp">
<polygon fill="white" stroke="red" points="576,-62 576,-81 672,-81 672,-62 576,-62"/>
<text text-anchor="middle" x="624" y="-69" font-family="Helvetica,sans-Serif" font-size="10.00">Core/Random.hpp</text>
</a>
</g>
</g>
<!-- Node1&#45;&gt;Node9 -->
<g id="edge16" class="edge"><title>Node1&#45;&gt;Node9</title>
<path fill="none" stroke="midnightblue" d="M2207.1,-220.46C1938.38,-217.448 674.532,-201.921 644,-176 619.781,-155.439 619.212,-115.171 621.354,-91.3777"/>
<polygon fill="midnightblue" stroke="midnightblue" points="624.862,-91.5147 622.532,-81.1791 617.908,-90.7114 624.862,-91.5147"/>
</g>
<!-- Node10 -->
<g id="node10" class="node"><title>Node10</title>
<g id="a_node10"><a xlink:href="Kinematics_8hpp.html" target="_top" xlink:title="Core/Kinematics.hpp">
<polygon fill="white" stroke="black" points="161,-62 161,-81 269,-81 269,-62 161,-62"/>
<text text-anchor="middle" x="215" y="-69" font-family="Helvetica,sans-Serif" font-size="10.00">Core/Kinematics.hpp</text>
</a>
</g>
</g>
<!-- Node1&#45;&gt;Node10 -->
<g id="edge9" class="edge"><title>Node1&#45;&gt;Node10</title>
<path fill="none" stroke="midnightblue" d="M2207.13,-220.64C1901.75,-218.347 296.187,-204.924 255,-176 227.373,-156.598 218.826,-115.258 216.182,-91.1074"/>
<polygon fill="midnightblue" stroke="midnightblue" points="219.664,-90.7445 215.318,-81.0819 212.69,-91.3455 219.664,-90.7445"/>
</g>
<!-- Node11 -->
<g id="node11" class="node"><title>Node11</title>
<g id="a_node11"><a xlink:href="Logging_8hpp.html" target="_top" xlink:title="Core/Logging.hpp">
<polygon fill="white" stroke="black" points="652.5,-140 652.5,-159 745.5,-159 745.5,-140 652.5,-140"/>
<text text-anchor="middle" x="699" y="-147" font-family="Helvetica,sans-Serif" font-size="10.00">Core/Logging.hpp</text>
</a>
</g>
</g>
<!-- Node1&#45;&gt;Node11 -->
<g id="edge12" class="edge"><title>Node1&#45;&gt;Node11</title>
<path fill="none" stroke="midnightblue" d="M2207.49,-220.679C1963.94,-218.943 898.88,-209.48 755,-176 743.919,-173.422 732.366,-168.575 722.651,-163.794"/>
<polygon fill="midnightblue" stroke="midnightblue" points="724.124,-160.615 713.635,-159.121 720.903,-166.83 724.124,-160.615"/>
</g>
<!-- Node13 -->
<g id="node13" class="node"><title>Node13</title>
<g id="a_node13"><a xlink:href="ProgressBar_8hpp.html" target="_top" xlink:title="Core/ProgressBar.hpp">
<polygon fill="white" stroke="black" points="763.5,-140 763.5,-159 876.5,-159 876.5,-140 763.5,-140"/>
<text text-anchor="middle" x="820" y="-147" font-family="Helvetica,sans-Serif" font-size="10.00">Core/ProgressBar.hpp</text>
</a>
</g>
</g>
<!-- Node1&#45;&gt;Node13 -->
<g id="edge14" class="edge"><title>Node1&#45;&gt;Node13</title>
<path fill="none" stroke="midnightblue" d="M2207.33,-220.355C1976.86,-217.231 1017.27,-202.712 886,-176 872.646,-173.283 858.472,-168.132 846.696,-163.167"/>
<polygon fill="midnightblue" stroke="midnightblue" points="848.002,-159.918 837.439,-159.097 845.185,-166.326 848.002,-159.918"/>
</g>
<!-- Node15 -->
<g id="node15" class="node"><title>Node15</title>
<g id="a_node15"><a xlink:href="DataSet_8hpp.html" target="_top" xlink:title="Data/DataSet.hpp">
<polygon fill="white" stroke="black" points="380.5,-140 380.5,-159 475.5,-159 475.5,-140 380.5,-140"/>
<text text-anchor="middle" x="428" y="-147" font-family="Helvetica,sans-Serif" font-size="10.00">Data/DataSet.hpp</text>
</a>
</g>
</g>
<!-- Node1&#45;&gt;Node15 -->
<g id="edge17" class="edge"><title>Node1&#45;&gt;Node15</title>
<path fill="none" stroke="midnightblue" d="M2207.32,-220.903C1937.77,-220.222 656.723,-214.947 485,-176 473.74,-173.446 461.984,-168.604 452.093,-163.819"/>
<polygon fill="midnightblue" stroke="midnightblue" points="453.411,-160.563 442.912,-159.141 450.232,-166.8 453.411,-160.563"/>
</g>
<!-- Node18 -->
<g id="node18" class="node"><title>Node18</title>
<g id="a_node18"><a xlink:href="Generate_8hpp.html" target="_top" xlink:title="Some useful functions for Monte&#45;Carlo event generation. ">
<polygon fill="white" stroke="black" points="263.5,-140 263.5,-159 362.5,-159 362.5,-140 263.5,-140"/>
<text text-anchor="middle" x="313" y="-147" font-family="Helvetica,sans-Serif" font-size="10.00">Data/Generate.hpp</text>
</a>
</g>
</g>
<!-- Node1&#45;&gt;Node18 -->
<g id="edge23" class="edge"><title>Node1&#45;&gt;Node18</title>
<path fill="none" stroke="midnightblue" d="M2207.4,-220.948C1927.91,-220.505 555.656,-216.281 372,-176 360.271,-173.427 347.977,-168.512 337.667,-163.678"/>
<polygon fill="midnightblue" stroke="midnightblue" points="338.989,-160.427 328.472,-159.147 335.895,-166.707 338.989,-160.427"/>
</g>
<!-- Node19 -->
<g id="node19" class="node"><title>Node19</title>
<polygon fill="white" stroke="#bfbfbf" points="895,-134.5 895,-164.5 1007,-164.5 1007,-134.5 895,-134.5"/>
<text text-anchor="start" x="903" y="-152.5" font-family="Helvetica,sans-Serif" font-size="10.00">ThirdParty/parallelstl</text>
<text text-anchor="middle" x="951" y="-141.5" font-family="Helvetica,sans-Serif" font-size="10.00">/include/pstl/algorithm</text>
</g>
<!-- Node1&#45;&gt;Node19 -->
<g id="edge27" class="edge"><title>Node1&#45;&gt;Node19</title>
<path fill="none" stroke="midnightblue" d="M2207.22,-221.389C2005.73,-222.625 1250.31,-223.898 1017,-176 1008.26,-174.205 999.161,-171.375 990.616,-168.242"/>
<polygon fill="midnightblue" stroke="midnightblue" points="991.84,-164.963 981.251,-164.615 989.312,-171.49 991.84,-164.963"/>
</g>
<!-- Node20 -->
<g id="node20" class="node"><title>Node20</title>
<polygon fill="white" stroke="#bfbfbf" points="1025.5,-123.5 1025.5,-175.5 1180.5,-175.5 1180.5,-123.5 1025.5,-123.5"/>
<text text-anchor="start" x="1033.5" y="-163.5" font-family="Helvetica,sans-Serif" font-size="10.00">/home/travis/build</text>
<text text-anchor="start" x="1033.5" y="-152.5" font-family="Helvetica,sans-Serif" font-size="10.00">/spflueger/ComPWA/ThirdParty</text>
<text text-anchor="start" x="1033.5" y="-141.5" font-family="Helvetica,sans-Serif" font-size="10.00">/parallelstl/include/pstl</text>
<text text-anchor="middle" x="1103" y="-130.5" font-family="Helvetica,sans-Serif" font-size="10.00">/internal/pstl_config.h</text>
</g>
<!-- Node1&#45;&gt;Node20 -->
<g id="edge28" class="edge"><title>Node1&#45;&gt;Node20</title>
<path fill="none" stroke="midnightblue" d="M2207.26,-220.503C2027.25,-218.46 1409.35,-209.254 1190.68,-175.859"/>
<polygon fill="midnightblue" stroke="midnightblue" points="1191,-172.365 1180.57,-174.25 1189.9,-179.278 1191,-172.365"/>
</g>
<!-- Node21 -->
<g id="node21" class="node"><title>Node21</title>
<polygon fill="white" stroke="#bfbfbf" points="1198.5,-123.5 1198.5,-175.5 1353.5,-175.5 1353.5,-123.5 1198.5,-123.5"/>
<text text-anchor="start" x="1206.5" y="-163.5" font-family="Helvetica,sans-Serif" font-size="10.00">/home/travis/build</text>
<text text-anchor="start" x="1206.5" y="-152.5" font-family="Helvetica,sans-Serif" font-size="10.00">/spflueger/ComPWA/ThirdParty</text>
<text text-anchor="start" x="1206.5" y="-141.5" font-family="Helvetica,sans-Serif" font-size="10.00">/parallelstl/include/pstl</text>
<text text-anchor="middle" x="1276" y="-130.5" font-family="Helvetica,sans-Serif" font-size="10.00">/internal/glue_algorithm_defs.h</text>
</g>
<!-- Node1&#45;&gt;Node21 -->
<g id="edge29" class="edge"><title>Node1&#45;&gt;Node21</title>
<path fill="none" stroke="midnightblue" d="M2207.38,-220.035C2047.55,-216.691 1546.5,-204.309 1363.6,-175.849"/>
<polygon fill="midnightblue" stroke="midnightblue" points="1364.01,-172.369 1353.58,-174.218 1362.88,-179.278 1364.01,-172.369"/>
</g>
<!-- Node22 -->
<g id="node22" class="node"><title>Node22</title>
<polygon fill="white" stroke="#bfbfbf" points="1371.5,-140 1371.5,-159 1430.5,-159 1430.5,-140 1371.5,-140"/>
<text text-anchor="middle" x="1401" y="-147" font-family="Helvetica,sans-Serif" font-size="10.00">functional</text>
</g>
<!-- Node1&#45;&gt;Node22 -->
<g id="edge30" class="edge"><title>Node1&#45;&gt;Node22</title>
<path fill="none" stroke="midnightblue" d="M2207.49,-221.612C2053.33,-222.998 1583.66,-223.139 1440,-176 1432.67,-173.594 1425.38,-169.439 1419.13,-165.174"/>
<polygon fill="midnightblue" stroke="midnightblue" points="1420.94,-162.162 1410.82,-159.036 1416.78,-167.793 1420.94,-162.162"/>
</g>
<!-- Node23 -->
<g id="node23" class="node"><title>Node23</title>
<polygon fill="white" stroke="#bfbfbf" points="1448.5,-123.5 1448.5,-175.5 1603.5,-175.5 1603.5,-123.5 1448.5,-123.5"/>
<text text-anchor="start" x="1456.5" y="-163.5" font-family="Helvetica,sans-Serif" font-size="10.00">/home/travis/build</text>
<text text-anchor="start" x="1456.5" y="-152.5" font-family="Helvetica,sans-Serif" font-size="10.00">/spflueger/ComPWA/ThirdParty</text>
<text text-anchor="start" x="1456.5" y="-141.5" font-family="Helvetica,sans-Serif" font-size="10.00">/parallelstl/include/pstl</text>
<text text-anchor="middle" x="1526" y="-130.5" font-family="Helvetica,sans-Serif" font-size="10.00">/internal/execution_defs.h</text>
</g>
<!-- Node1&#45;&gt;Node23 -->
<g id="edge31" class="edge"><title>Node1&#45;&gt;Node23</title>
<path fill="none" stroke="midnightblue" d="M2207.27,-221.152C2100.16,-220.703 1839.76,-215.427 1613.65,-175.925"/>
<polygon fill="midnightblue" stroke="midnightblue" points="1614.05,-172.441 1603.59,-174.141 1612.83,-179.334 1614.05,-172.441"/>
</g>
<!-- Node24 -->
<g id="node24" class="node"><title>Node24</title>
<polygon fill="white" stroke="#bfbfbf" points="1622,-140 1622,-159 1684,-159 1684,-140 1622,-140"/>
<text text-anchor="middle" x="1653" y="-147" font-family="Helvetica,sans-Serif" font-size="10.00">type_traits</text>
</g>
<!-- Node1&#45;&gt;Node24 -->
<g id="edge32" class="edge"><title>Node1&#45;&gt;Node24</title>
<path fill="none" stroke="midnightblue" d="M2207.08,-220.098C2087.52,-217.446 1787.64,-207.74 1693,-176 1685.66,-173.537 1678.31,-169.441 1671.95,-165.245"/>
<polygon fill="midnightblue" stroke="midnightblue" points="1673.64,-162.151 1663.46,-159.204 1669.58,-167.854 1673.64,-162.151"/>
</g>
<!-- Node25 -->
<g id="node25" class="node"><title>Node25</title>
<polygon fill="white" stroke="#bfbfbf" points="1702,-134.5 1702,-164.5 1816,-164.5 1816,-134.5 1702,-134.5"/>
<text text-anchor="start" x="1710" y="-152.5" font-family="Helvetica,sans-Serif" font-size="10.00">ThirdParty/parallelstl</text>
<text text-anchor="middle" x="1759" y="-141.5" font-family="Helvetica,sans-Serif" font-size="10.00">/include/pstl/execution</text>
</g>
<!-- Node1&#45;&gt;Node25 -->
<g id="edge33" class="edge"><title>Node1&#45;&gt;Node25</title>
<path fill="none" stroke="midnightblue" d="M2207.18,-219.978C2126.18,-217.39 1961.39,-208.252 1826,-176 1817.56,-173.989 1808.75,-171.182 1800.39,-168.162"/>
<polygon fill="midnightblue" stroke="midnightblue" points="1801.43,-164.815 1790.84,-164.554 1798.96,-171.363 1801.43,-164.815"/>
</g>
<!-- Node26 -->
<g id="node26" class="node"><title>Node26</title>
<polygon fill="white" stroke="#bfbfbf" points="1834.5,-123.5 1834.5,-175.5 1989.5,-175.5 1989.5,-123.5 1834.5,-123.5"/>
<text text-anchor="start" x="1842.5" y="-163.5" font-family="Helvetica,sans-Serif" font-size="10.00">/home/travis/build</text>
<text text-anchor="start" x="1842.5" y="-152.5" font-family="Helvetica,sans-Serif" font-size="10.00">/spflueger/ComPWA/ThirdParty</text>
<text text-anchor="start" x="1842.5" y="-141.5" font-family="Helvetica,sans-Serif" font-size="10.00">/parallelstl/include/pstl</text>
<text text-anchor="middle" x="1912" y="-130.5" font-family="Helvetica,sans-Serif" font-size="10.00">/internal/glue_algorithm_impl.h</text>
</g>
<!-- Node1&#45;&gt;Node26 -->
<g id="edge34" class="edge"><title>Node1&#45;&gt;Node26</title>
<path fill="none" stroke="midnightblue" d="M2207.21,-214.014C2157.14,-206.611 2077.59,-193.818 1999.66,-176.044"/>
<polygon fill="midnightblue" stroke="midnightblue" points="2000.2,-172.577 1989.67,-173.736 1998.63,-179.398 2000.2,-172.577"/>
</g>
<!-- Node27 -->
<g id="node27" class="node"><title>Node27</title>
<polygon fill="white" stroke="#bfbfbf" points="2007.5,-123.5 2007.5,-175.5 2162.5,-175.5 2162.5,-123.5 2007.5,-123.5"/>
<text text-anchor="start" x="2015.5" y="-163.5" font-family="Helvetica,sans-Serif" font-size="10.00">/home/travis/build</text>
<text text-anchor="start" x="2015.5" y="-152.5" font-family="Helvetica,sans-Serif" font-size="10.00">/spflueger/ComPWA/ThirdParty</text>
<text text-anchor="start" x="2015.5" y="-141.5" font-family="Helvetica,sans-Serif" font-size="10.00">/parallelstl/include/pstl</text>
<text text-anchor="middle" x="2085" y="-130.5" font-family="Helvetica,sans-Serif" font-size="10.00">/internal/utils.h</text>
</g>
<!-- Node1&#45;&gt;Node27 -->
<g id="edge35" class="edge"><title>Node1&#45;&gt;Node27</title>
<path fill="none" stroke="midnightblue" d="M2236.25,-212.496C2216.18,-204.268 2184.59,-191.322 2155.47,-179.384"/>
<polygon fill="midnightblue" stroke="midnightblue" points="2156.7,-176.105 2146.12,-175.551 2154.04,-182.582 2156.7,-176.105"/>
</g>
<!-- Node28 -->
<g id="node28" class="node"><title>Node28</title>
<polygon fill="white" stroke="#bfbfbf" points="2180.5,-140 2180.5,-159 2215.5,-159 2215.5,-140 2180.5,-140"/>
<text text-anchor="middle" x="2198" y="-147" font-family="Helvetica,sans-Serif" font-size="10.00">new</text>
</g>
<!-- Node1&#45;&gt;Node28 -->
<g id="edge36" class="edge"><title>Node1&#45;&gt;Node28</title>
<path fill="none" stroke="midnightblue" d="M2249.77,-212.355C2240.39,-201.15 2223.83,-181.37 2211.97,-167.192"/>
<polygon fill="midnightblue" stroke="midnightblue" points="2214.4,-164.638 2205.29,-159.215 2209.03,-169.131 2214.4,-164.638"/>
</g>
<!-- Node29 -->
<g id="node29" class="node"><title>Node29</title>
<polygon fill="white" stroke="#bfbfbf" points="2233.5,-140 2233.5,-159 2280.5,-159 2280.5,-140 2233.5,-140"/>
<text text-anchor="middle" x="2257" y="-147" font-family="Helvetica,sans-Serif" font-size="10.00">iterator</text>
</g>
<!-- Node1&#45;&gt;Node29 -->
<g id="edge37" class="edge"><title>Node1&#45;&gt;Node29</title>
<path fill="none" stroke="midnightblue" d="M2257,-212.355C2257,-201.679 2257,-183.217 2257,-169.234"/>
<polygon fill="midnightblue" stroke="midnightblue" points="2260.5,-169.215 2257,-159.215 2253.5,-169.215 2260.5,-169.215"/>
</g>
<!-- Node30 -->
<g id="node30" class="node"><title>Node30</title>
<polygon fill="white" stroke="#bfbfbf" points="2298.5,-123.5 2298.5,-175.5 2453.5,-175.5 2453.5,-123.5 2298.5,-123.5"/>
<text text-anchor="start" x="2306.5" y="-163.5" font-family="Helvetica,sans-Serif" font-size="10.00">/home/travis/build</text>
<text text-anchor="start" x="2306.5" y="-152.5" font-family="Helvetica,sans-Serif" font-size="10.00">/spflueger/ComPWA/ThirdParty</text>
<text text-anchor="start" x="2306.5" y="-141.5" font-family="Helvetica,sans-Serif" font-size="10.00">/parallelstl/include/pstl</text>
<text text-anchor="middle" x="2376" y="-130.5" font-family="Helvetica,sans-Serif" font-size="10.00">/internal/algorithm_impl.h</text>
</g>
<!-- Node1&#45;&gt;Node30 -->
<g id="edge38" class="edge"><title>Node1&#45;&gt;Node30</title>
<path fill="none" stroke="midnightblue" d="M2271.59,-212.355C2284.94,-204.448 2305.5,-192.27 2324.85,-180.804"/>
<polygon fill="midnightblue" stroke="midnightblue" points="2326.81,-183.712 2333.63,-175.604 2323.24,-177.69 2326.81,-183.712"/>
</g>
<!-- Node31 -->
<g id="node31" class="node"><title>Node31</title>
<polygon fill="white" stroke="#bfbfbf" points="2472,-140 2472,-159 2512,-159 2512,-140 2472,-140"/>
<text text-anchor="middle" x="2492" y="-147" font-family="Helvetica,sans-Serif" font-size="10.00">utility</text>
</g>
<!-- Node1&#45;&gt;Node31 -->
<g id="edge39" class="edge"><title>Node1&#45;&gt;Node31</title>
<path fill="none" stroke="midnightblue" d="M2306.79,-217.186C2350.03,-212.265 2413.34,-201.109 2463,-176 2467.96,-173.493 2472.75,-169.936 2476.95,-166.273"/>
<polygon fill="midnightblue" stroke="midnightblue" points="2479.4,-168.778 2484.22,-159.344 2474.57,-163.711 2479.4,-168.778"/>
</g>
<!-- Node32 -->
<g id="node32" class="node"><title>Node32</title>
<polygon fill="white" stroke="#bfbfbf" points="2530.5,-123.5 2530.5,-175.5 2685.5,-175.5 2685.5,-123.5 2530.5,-123.5"/>
<text text-anchor="start" x="2538.5" y="-163.5" font-family="Helvetica,sans-Serif" font-size="10.00">/home/travis/build</text>
<text text-anchor="start" x="2538.5" y="-152.5" font-family="Helvetica,sans-Serif" font-size="10.00">/spflueger/ComPWA/ThirdParty</text>
<text text-anchor="start" x="2538.5" y="-141.5" font-family="Helvetica,sans-Serif" font-size="10.00">/parallelstl/include/pstl</text>
<text text-anchor="middle" x="2608" y="-130.5" font-family="Helvetica,sans-Serif" font-size="10.00">/internal/execution_impl.h</text>
</g>
<!-- Node1&#45;&gt;Node32 -->
<g id="edge40" class="edge"><title>Node1&#45;&gt;Node32</title>
<path fill="none" stroke="midnightblue" d="M2306.97,-214.251C2358.24,-206.932 2440.42,-194.106 2520.57,-175.987"/>
<polygon fill="midnightblue" stroke="midnightblue" points="2521.36,-179.396 2530.33,-173.751 2519.8,-172.572 2521.36,-179.396"/>
</g>
<!-- Node33 -->
<g id="node33" class="node"><title>Node33</title>
<polygon fill="white" stroke="#bfbfbf" points="2703.5,-123.5 2703.5,-175.5 2858.5,-175.5 2858.5,-123.5 2703.5,-123.5"/>
<text text-anchor="start" x="2711.5" y="-163.5" font-family="Helvetica,sans-Serif" font-size="10.00">/home/travis/build</text>
<text text-anchor="start" x="2711.5" y="-152.5" font-family="Helvetica,sans-Serif" font-size="10.00">/spflueger/ComPWA/ThirdParty</text>
<text text-anchor="start" x="2711.5" y="-141.5" font-family="Helvetica,sans-Serif" font-size="10.00">/parallelstl/include/pstl</text>
<text text-anchor="middle" x="2781" y="-130.5" font-family="Helvetica,sans-Serif" font-size="10.00">/internal/memory_impl.h</text>
</g>
<!-- Node1&#45;&gt;Node33 -->
<g id="edge41" class="edge"><title>Node1&#45;&gt;Node33</title>
<path fill="none" stroke="midnightblue" d="M2306.71,-218.903C2386.57,-214.878 2548.42,-204.023 2693.38,-176.175"/>
<polygon fill="midnightblue" stroke="midnightblue" points="2694.2,-179.581 2703.35,-174.229 2692.86,-172.711 2694.2,-179.581"/>
</g>
<!-- Node34 -->
<g id="node34" class="node"><title>Node34</title>
<polygon fill="white" stroke="#bfbfbf" points="2876.5,-123.5 2876.5,-175.5 3033.5,-175.5 3033.5,-123.5 2876.5,-123.5"/>
<text text-anchor="start" x="2884.5" y="-163.5" font-family="Helvetica,sans-Serif" font-size="10.00">/home/travis/build</text>
<text text-anchor="start" x="2884.5" y="-152.5" font-family="Helvetica,sans-Serif" font-size="10.00">/spflueger/ComPWA/ThirdParty</text>
<text text-anchor="start" x="2884.5" y="-141.5" font-family="Helvetica,sans-Serif" font-size="10.00">/parallelstl/include/pstl</text>
<text text-anchor="middle" x="2955" y="-130.5" font-family="Helvetica,sans-Serif" font-size="10.00">/internal/unseq_backend_simd.h</text>
</g>
<!-- Node1&#45;&gt;Node34 -->
<g id="edge42" class="edge"><title>Node1&#45;&gt;Node34</title>
<path fill="none" stroke="midnightblue" d="M2306.55,-220.886C2409.51,-219.89 2654.03,-213.574 2866.37,-176.136"/>
<polygon fill="midnightblue" stroke="midnightblue" points="2867.23,-179.537 2876.46,-174.329 2866,-172.647 2867.23,-179.537"/>
</g>
<!-- Node35 -->
<g id="node35" class="node"><title>Node35</title>
<polygon fill="white" stroke="#bfbfbf" points="3051.5,-123.5 3051.5,-175.5 3206.5,-175.5 3206.5,-123.5 3051.5,-123.5"/>
<text text-anchor="start" x="3059.5" y="-163.5" font-family="Helvetica,sans-Serif" font-size="10.00">/home/travis/build</text>
<text text-anchor="start" x="3059.5" y="-152.5" font-family="Helvetica,sans-Serif" font-size="10.00">/spflueger/ComPWA/ThirdParty</text>
<text text-anchor="start" x="3059.5" y="-141.5" font-family="Helvetica,sans-Serif" font-size="10.00">/parallelstl/include/pstl</text>
<text text-anchor="middle" x="3129" y="-130.5" font-family="Helvetica,sans-Serif" font-size="10.00">/internal/parallel_backend.h</text>
</g>
<!-- Node1&#45;&gt;Node35 -->
<g id="edge43" class="edge"><title>Node1&#45;&gt;Node35</title>
<path fill="none" stroke="midnightblue" d="M2306.56,-219.661C2452.75,-215.478 2881.48,-201.49 3041.25,-176.081"/>
<polygon fill="midnightblue" stroke="midnightblue" points="3042.09,-179.489 3051.38,-174.39 3040.94,-172.584 3042.09,-179.489"/>
</g>
<!-- Node36 -->
<g id="node36" class="node"><title>Node36</title>
<polygon fill="white" stroke="#bfbfbf" points="3224.5,-123.5 3224.5,-175.5 3379.5,-175.5 3379.5,-123.5 3224.5,-123.5"/>
<text text-anchor="start" x="3232.5" y="-163.5" font-family="Helvetica,sans-Serif" font-size="10.00">/home/travis/build</text>
<text text-anchor="start" x="3232.5" y="-152.5" font-family="Helvetica,sans-Serif" font-size="10.00">/spflueger/ComPWA/ThirdParty</text>
<text text-anchor="start" x="3232.5" y="-141.5" font-family="Helvetica,sans-Serif" font-size="10.00">/parallelstl/include/pstl</text>
<text text-anchor="middle" x="3302" y="-130.5" font-family="Helvetica,sans-Serif" font-size="10.00">/internal/parallel_backend_tbb.h</text>
</g>
<!-- Node1&#45;&gt;Node36 -->
<g id="edge44" class="edge"><title>Node1&#45;&gt;Node36</title>
<path fill="none" stroke="midnightblue" d="M2306.63,-220.251C2474.16,-217.481 3018.8,-206.439 3214.23,-176.076"/>
<polygon fill="midnightblue" stroke="midnightblue" points="3215.07,-179.485 3224.38,-174.427 3213.95,-172.576 3215.07,-179.485"/>
</g>
<!-- Node37 -->
<g id="node37" class="node"><title>Node37</title>
<polygon fill="white" stroke="#bfbfbf" points="3397.5,-140 3397.5,-159 3446.5,-159 3446.5,-140 3397.5,-140"/>
<text text-anchor="middle" x="3422" y="-147" font-family="Helvetica,sans-Serif" font-size="10.00">cassert</text>
</g>
<!-- Node1&#45;&gt;Node37 -->
<g id="edge45" class="edge"><title>Node1&#45;&gt;Node37</title>
<path fill="none" stroke="midnightblue" d="M2306.52,-220.802C2511.34,-219.743 3286.47,-213.287 3389,-176 3395.19,-173.749 3401.15,-169.878 3406.26,-165.822"/>
<polygon fill="midnightblue" stroke="midnightblue" points="3408.74,-168.303 3413.94,-159.076 3404.12,-163.041 3408.74,-168.303"/>
</g>
<!-- Node38 -->
<g id="node38" class="node"><title>Node38</title>
<polygon fill="white" stroke="#bfbfbf" points="3464,-123.5 3464,-175.5 3622,-175.5 3622,-123.5 3464,-123.5"/>
<text text-anchor="start" x="3472" y="-163.5" font-family="Helvetica,sans-Serif" font-size="10.00">/home/travis/build</text>
<text text-anchor="start" x="3472" y="-152.5" font-family="Helvetica,sans-Serif" font-size="10.00">/spflueger/ComPWA/ThirdParty</text>
<text text-anchor="start" x="3472" y="-141.5" font-family="Helvetica,sans-Serif" font-size="10.00">/parallelstl/include/pstl</text>
<text text-anchor="middle" x="3543" y="-130.5" font-family="Helvetica,sans-Serif" font-size="10.00">/internal/parallel_backend_utils.h</text>
</g>
<!-- Node1&#45;&gt;Node38 -->
<g id="edge46" class="edge"><title>Node1&#45;&gt;Node38</title>
<path fill="none" stroke="midnightblue" d="M2306.7,-220.772C2500.92,-219.631 3209.58,-213.07 3453.65,-176.198"/>
<polygon fill="midnightblue" stroke="midnightblue" points="3454.19,-179.656 3463.53,-174.647 3453.11,-172.74 3454.19,-179.656"/>
</g>
<!-- Node39 -->
<g id="node39" class="node"><title>Node39</title>
<polygon fill="white" stroke="#bfbfbf" points="3640,-140 3640,-159 3744,-159 3744,-140 3640,-140"/>
<text text-anchor="middle" x="3692" y="-147" font-family="Helvetica,sans-Serif" font-size="10.00">tbb/blocked_range.h</text>
</g>
<!-- Node1&#45;&gt;Node39 -->
<g id="edge47" class="edge"><title>Node1&#45;&gt;Node39</title>
<path fill="none" stroke="midnightblue" d="M2306.79,-220.436C2537.85,-217.677 3499.82,-204.557 3631,-176 3643.19,-173.346 3656.03,-168.347 3666.77,-163.473"/>
<polygon fill="midnightblue" stroke="midnightblue" points="3668.43,-166.559 3675.96,-159.104 3665.42,-160.237 3668.43,-166.559"/>
</g>
<!-- Node40 -->
<g id="node40" class="node"><title>Node40</title>
<polygon fill="white" stroke="#bfbfbf" points="3762.5,-140 3762.5,-159 3851.5,-159 3851.5,-140 3762.5,-140"/>
<text text-anchor="middle" x="3807" y="-147" font-family="Helvetica,sans-Serif" font-size="10.00">tbb/parallel_for.h</text>
</g>
<!-- Node1&#45;&gt;Node40 -->
<g id="edge48" class="edge"><title>Node1&#45;&gt;Node40</title>
<path fill="none" stroke="midnightblue" d="M2306.72,-220.711C2550.11,-219.133 3610.01,-210.33 3753,-176 3763.62,-173.449 3774.65,-168.677 3783.95,-163.944"/>
<polygon fill="midnightblue" stroke="midnightblue" points="3785.78,-166.938 3792.93,-159.122 3782.46,-160.772 3785.78,-166.938"/>
</g>
<!-- Node41 -->
<g id="node41" class="node"><title>Node41</title>
<polygon fill="white" stroke="#bfbfbf" points="3869.5,-140 3869.5,-159 3976.5,-159 3976.5,-140 3869.5,-140"/>
<text text-anchor="middle" x="3923" y="-147" font-family="Helvetica,sans-Serif" font-size="10.00">tbb/parallel_reduce.h</text>
</g>
<!-- Node1&#45;&gt;Node41 -->
<g id="edge49" class="edge"><title>Node1&#45;&gt;Node41</title>
<path fill="none" stroke="midnightblue" d="M2306.87,-220.671C2561.01,-218.851 3706.09,-208.875 3861,-176 3873.38,-173.373 3886.42,-168.378 3897.34,-163.501"/>
<polygon fill="midnightblue" stroke="midnightblue" points="3899.11,-166.536 3906.68,-159.125 3896.14,-160.196 3899.11,-166.536"/>
</g>
<!-- Node42 -->
<g id="node42" class="node"><title>Node42</title>
<polygon fill="white" stroke="#bfbfbf" points="3994,-140 3994,-159 4092,-159 4092,-140 3994,-140"/>
<text text-anchor="middle" x="4043" y="-147" font-family="Helvetica,sans-Serif" font-size="10.00">tbb/parallel_scan.h</text>
</g>
<!-- Node1&#45;&gt;Node42 -->
<g id="edge50" class="edge"><title>Node1&#45;&gt;Node42</title>
<path fill="none" stroke="midnightblue" d="M2306.78,-220.869C2572.58,-220.014 3818.73,-213.993 3986,-176 3997.26,-173.443 4009.01,-168.6 4018.91,-163.816"/>
<polygon fill="midnightblue" stroke="midnightblue" points="4020.77,-166.796 4028.09,-159.138 4017.59,-160.559 4020.77,-166.796"/>
</g>
<!-- Node43 -->
<g id="node43" class="node"><title>Node43</title>
<polygon fill="white" stroke="#bfbfbf" points="4110,-140 4110,-159 4216,-159 4216,-140 4110,-140"/>
<text text-anchor="middle" x="4163" y="-147" font-family="Helvetica,sans-Serif" font-size="10.00">tbb/parallel_invoke.h</text>
</g>
<!-- Node1&#45;&gt;Node43 -->
<g id="edge51" class="edge"><title>Node1&#45;&gt;Node43</title>
<path fill="none" stroke="midnightblue" d="M2306.86,-220.867C2583.24,-219.988 3921.3,-213.795 4101,-176 4113.47,-173.377 4126.61,-168.334 4137.57,-163.42"/>
<polygon fill="midnightblue" stroke="midnightblue" points="4139.38,-166.438 4146.94,-159.017 4136.41,-160.102 4139.38,-166.438"/>
</g>
<!-- Node44 -->
<g id="node44" class="node"><title>Node44</title>
<polygon fill="white" stroke="#bfbfbf" points="4233.5,-140 4233.5,-159 4322.5,-159 4322.5,-140 4233.5,-140"/>
<text text-anchor="middle" x="4278" y="-147" font-family="Helvetica,sans-Serif" font-size="10.00">tbb/task_arena.h</text>
</g>
<!-- Node1&#45;&gt;Node44 -->
<g id="edge52" class="edge"><title>Node1&#45;&gt;Node44</title>
<path fill="none" stroke="midnightblue" d="M2306.92,-221.12C2594.51,-221.642 4033.71,-221.93 4225,-176 4235.46,-173.487 4246.29,-168.722 4255.42,-163.984"/>
<polygon fill="midnightblue" stroke="midnightblue" points="4257.14,-167.033 4264.22,-159.153 4253.77,-160.897 4257.14,-167.033"/>
</g>
<!-- Node45 -->
<g id="node45" class="node"><title>Node45</title>
<polygon fill="white" stroke="#bfbfbf" points="4340.5,-140 4340.5,-159 4437.5,-159 4437.5,-140 4340.5,-140"/>
<text text-anchor="middle" x="4389" y="-147" font-family="Helvetica,sans-Serif" font-size="10.00">tbb/tbb_allocator.h</text>
</g>
<!-- Node1&#45;&gt;Node45 -->
<g id="edge53" class="edge"><title>Node1&#45;&gt;Node45</title>
<path fill="none" stroke="midnightblue" d="M2306.69,-221.102C2602.83,-221.556 4128.98,-221.649 4332,-176 4343.26,-173.467 4355.02,-168.628 4364.91,-163.841"/>
<polygon fill="midnightblue" stroke="midnightblue" points="4366.77,-166.82 4374.09,-159.157 4363.59,-160.584 4366.77,-166.82"/>
</g>
<!-- Node46 -->
<g id="node46" class="node"><title>Node46</title>
<polygon fill="white" stroke="#bfbfbf" points="4455.5,-123.5 4455.5,-175.5 4610.5,-175.5 4610.5,-123.5 4455.5,-123.5"/>
<text text-anchor="start" x="4463.5" y="-163.5" font-family="Helvetica,sans-Serif" font-size="10.00">/home/travis/build</text>
<text text-anchor="start" x="4463.5" y="-152.5" font-family="Helvetica,sans-Serif" font-size="10.00">/spflueger/ComPWA/ThirdParty</text>
<text text-anchor="start" x="4463.5" y="-141.5" font-family="Helvetica,sans-Serif" font-size="10.00">/parallelstl/include/pstl</text>
<text text-anchor="middle" x="4533" y="-130.5" font-family="Helvetica,sans-Serif" font-size="10.00">/internal/parallel_impl.h</text>
</g>
<!-- Node1&#45;&gt;Node46 -->
<g id="edge54" class="edge"><title>Node1&#45;&gt;Node46</title>
<path fill="none" stroke="midnightblue" d="M2306.86,-220.775C2608.57,-219.308 4185.45,-210.122 4445.36,-175.957"/>
<polygon fill="midnightblue" stroke="midnightblue" points="4445.99,-179.401 4455.4,-174.522 4445,-172.472 4445.99,-179.401"/>
</g>
<!-- Node47 -->
<g id="node47" class="node"><title>Node47</title>
<polygon fill="white" stroke="#bfbfbf" points="4629,-140 4629,-159 4675,-159 4675,-140 4629,-140"/>
<text text-anchor="middle" x="4652" y="-147" font-family="Helvetica,sans-Serif" font-size="10.00">atomic</text>
</g>
<!-- Node1&#45;&gt;Node47 -->
<g id="edge55" class="edge"><title>Node1&#45;&gt;Node47</title>
<path fill="none" stroke="midnightblue" d="M2306.74,-220.958C2637.32,-220.569 4507.42,-216.576 4620,-176 4626.08,-173.809 4631.88,-169.955 4636.83,-165.897"/>
<polygon fill="midnightblue" stroke="midnightblue" points="4639.22,-168.452 4644.26,-159.132 4634.51,-163.276 4639.22,-168.452"/>
</g>
<!-- Node48 -->
<g id="node48" class="node"><title>Node48</title>
<polygon fill="white" stroke="#bfbfbf" points="4693.5,-123.5 4693.5,-175.5 4848.5,-175.5 4848.5,-123.5 4693.5,-123.5"/>
<text text-anchor="start" x="4701.5" y="-163.5" font-family="Helvetica,sans-Serif" font-size="10.00">/home/travis/build</text>
<text text-anchor="start" x="4701.5" y="-152.5" font-family="Helvetica,sans-Serif" font-size="10.00">/spflueger/ComPWA/ThirdParty</text>
<text text-anchor="start" x="4701.5" y="-141.5" font-family="Helvetica,sans-Serif" font-size="10.00">/parallelstl/include/pstl</text>
<text text-anchor="middle" x="4771" y="-130.5" font-family="Helvetica,sans-Serif" font-size="10.00">/internal/glue_execution_defs.h</text>
</g>
<!-- Node1&#45;&gt;Node48 -->
<g id="edge56" class="edge"><title>Node1&#45;&gt;Node48</title>
<path fill="none" stroke="midnightblue" d="M2306.64,-220.874C2626.92,-219.956 4397.43,-213.284 4683.52,-175.749"/>
<polygon fill="midnightblue" stroke="midnightblue" points="4684.03,-179.212 4693.44,-174.344 4683.05,-172.281 4684.03,-179.212"/>
</g>
<!-- Node4 -->
<g id="node4" class="node"><title>Node4</title>
<polygon fill="white" stroke="#bfbfbf" points="83.5,-62 83.5,-81 142.5,-81 142.5,-62 83.5,-62"/>
<text text-anchor="middle" x="113" y="-69" font-family="Helvetica,sans-Serif" font-size="10.00">exception</text>
</g>
<!-- Node3&#45;&gt;Node4 -->
<g id="edge3" class="edge"><title>Node3&#45;&gt;Node4</title>
<path fill="none" stroke="midnightblue" d="M126.279,-139.782C123.951,-127.985 119.737,-106.635 116.679,-91.1421"/>
<polygon fill="midnightblue" stroke="midnightblue" points="120.071,-90.2495 114.701,-81.1165 113.203,-91.605 120.071,-90.2495"/>
</g>
<!-- Node5 -->
<g id="node5" class="node"><title>Node5</title>
<polygon fill="white" stroke="#bfbfbf" points="194.5,-0.5 194.5,-19.5 235.5,-19.5 235.5,-0.5 194.5,-0.5"/>
<text text-anchor="middle" x="215" y="-7.5" font-family="Helvetica,sans-Serif" font-size="10.00">string</text>
</g>
<!-- Node3&#45;&gt;Node5 -->
<g id="edge4" class="edge"><title>Node3&#45;&gt;Node5</title>
<path fill="none" stroke="midnightblue" d="M116.288,-139.977C94.7034,-123.231 52.7196,-85.1296 74,-56 99.1667,-21.5508 150.998,-12.858 184.321,-11.0028"/>
<polygon fill="midnightblue" stroke="midnightblue" points="184.573,-14.4958 194.432,-10.6168 184.306,-7.50091 184.573,-14.4958"/>
</g>
<!-- Node7 -->
<g id="node7" class="node"><title>Node7</title>
<g id="a_node7"><a xlink:href="Event_8hpp.html" target="_top" xlink:title="Core/Event.hpp">
<polygon fill="white" stroke="red" points="472.5,-62 472.5,-81 557.5,-81 557.5,-62 472.5,-62"/>
<text text-anchor="middle" x="515" y="-69" font-family="Helvetica,sans-Serif" font-size="10.00">Core/Event.hpp</text>
</a>
</g>
</g>
<!-- Node6&#45;&gt;Node7 -->
<g id="edge6" class="edge"><title>Node6&#45;&gt;Node7</title>
<path fill="none" stroke="midnightblue" d="M541.559,-139.782C536.857,-127.87 528.31,-106.22 522.181,-90.6926"/>
<polygon fill="midnightblue" stroke="midnightblue" points="525.329,-89.1329 518.401,-81.1165 518.817,-91.7032 525.329,-89.1329"/>
</g>
<!-- Node6&#45;&gt;Node9 -->
<g id="edge8" class="edge"><title>Node6&#45;&gt;Node9</title>
<path fill="none" stroke="midnightblue" d="M554.062,-139.782C567.158,-127.183 591.58,-103.689 607.816,-88.0694"/>
<polygon fill="midnightblue" stroke="midnightblue" points="610.263,-90.5717 615.043,-81.1165 605.41,-85.5271 610.263,-90.5717"/>
</g>
<!-- Node8 -->
<g id="node8" class="node"><title>Node8</title>
<polygon fill="white" stroke="#bfbfbf" points="384,-0.5 384,-19.5 428,-19.5 428,-0.5 384,-0.5"/>
<text text-anchor="middle" x="406" y="-7.5" font-family="Helvetica,sans-Serif" font-size="10.00">vector</text>
</g>
<!-- Node7&#45;&gt;Node8 -->
<g id="edge7" class="edge"><title>Node7&#45;&gt;Node8</title>
<path fill="none" stroke="midnightblue" d="M499.383,-61.9751C481.414,-52.1664 451.679,-35.9346 430.594,-24.425"/>
<polygon fill="midnightblue" stroke="midnightblue" points="432.042,-21.2284 421.588,-19.5091 428.689,-27.3726 432.042,-21.2284"/>
</g>
<!-- Node10&#45;&gt;Node5 -->
<g id="edge10" class="edge"><title>Node10&#45;&gt;Node5</title>
<path fill="none" stroke="midnightblue" d="M215,-61.9751C215,-53.5803 215,-40.4806 215,-29.6631"/>
<polygon fill="midnightblue" stroke="midnightblue" points="218.5,-29.5091 215,-19.5091 211.5,-29.5091 218.5,-29.5091"/>
</g>
<!-- Node10&#45;&gt;Node8 -->
<g id="edge11" class="edge"><title>Node10&#45;&gt;Node8</title>
<path fill="none" stroke="midnightblue" d="M242.366,-61.9751C277.157,-51.1369 337.123,-32.4565 373.996,-20.9698"/>
<polygon fill="midnightblue" stroke="midnightblue" points="375.237,-24.2491 383.744,-17.9332 373.155,-17.5658 375.237,-24.2491"/>
</g>
<!-- Node12 -->
<g id="node12" class="node"><title>Node12</title>
<polygon fill="white" stroke="#bfbfbf" points="690.5,-56.5 690.5,-86.5 817.5,-86.5 817.5,-56.5 690.5,-56.5"/>
<text text-anchor="start" x="698.5" y="-74.5" font-family="Helvetica,sans-Serif" font-size="10.00">ThirdParty/easyloggingpp</text>
<text text-anchor="middle" x="754" y="-63.5" font-family="Helvetica,sans-Serif" font-size="10.00">/easylogging++.h</text>
</g>
<!-- Node11&#45;&gt;Node12 -->
<g id="edge13" class="edge"><title>Node11&#45;&gt;Node12</title>
<path fill="none" stroke="midnightblue" d="M705.309,-139.782C713.187,-128.896 726.953,-109.875 737.841,-94.8282"/>
<polygon fill="midnightblue" stroke="midnightblue" points="740.827,-96.673 743.854,-86.5198 735.156,-92.5691 740.827,-96.673"/>
</g>
<!-- Node14 -->
<g id="node14" class="node"><title>Node14</title>
<polygon fill="white" stroke="#bfbfbf" points="835.5,-62 835.5,-81 876.5,-81 876.5,-62 835.5,-62"/>
<text text-anchor="middle" x="856" y="-69" font-family="Helvetica,sans-Serif" font-size="10.00">ctime</text>
</g>
<!-- Node13&#45;&gt;Node14 -->
<g id="edge15" class="edge"><title>Node13&#45;&gt;Node14</title>
<path fill="none" stroke="midnightblue" d="M824.13,-139.782C829.826,-127.756 840.225,-105.802 847.594,-90.2464"/>
<polygon fill="midnightblue" stroke="midnightblue" points="850.801,-91.6522 851.919,-81.1165 844.474,-88.6556 850.801,-91.6522"/>
</g>
<!-- Node15&#45;&gt;Node7 -->
<g id="edge19" class="edge"><title>Node15&#45;&gt;Node7</title>
<path fill="none" stroke="midnightblue" d="M437.98,-139.782C452.402,-127.183 479.297,-103.689 497.177,-88.0694"/>
<polygon fill="midnightblue" stroke="midnightblue" points="499.908,-90.3313 505.136,-81.1165 495.303,-85.0595 499.908,-90.3313"/>
</g>
<!-- Node16 -->
<g id="node16" class="node"><title>Node16</title>
<polygon fill="white" stroke="#bfbfbf" points="287,-62 287,-81 339,-81 339,-62 287,-62"/>
<text text-anchor="middle" x="313" y="-69" font-family="Helvetica,sans-Serif" font-size="10.00">memory</text>
</g>
<!-- Node15&#45;&gt;Node16 -->
<g id="edge18" class="edge"><title>Node15&#45;&gt;Node16</title>
<path fill="none" stroke="midnightblue" d="M414.808,-139.782C395.225,-126.84 358.242,-102.399 334.652,-86.8094"/>
<polygon fill="midnightblue" stroke="midnightblue" points="336.311,-83.71 326.038,-81.1165 332.451,-89.55 336.311,-83.71"/>
</g>
<!-- Node17 -->
<g id="node17" class="node"><title>Node17</title>
<g id="a_node17"><a xlink:href="Function_8hpp.html" target="_top" xlink:title="Core/Function.hpp">
<polygon fill="white" stroke="red" points="357.5,-62 357.5,-81 454.5,-81 454.5,-62 357.5,-62"/>
<text text-anchor="middle" x="406" y="-69" font-family="Helvetica,sans-Serif" font-size="10.00">Core/Function.hpp</text>
</a>
</g>
</g>
<!-- Node15&#45;&gt;Node17 -->
<g id="edge20" class="edge"><title>Node15&#45;&gt;Node17</title>
<path fill="none" stroke="midnightblue" d="M425.476,-139.782C422.061,-127.985 415.881,-106.635 411.396,-91.1421"/>
<polygon fill="midnightblue" stroke="midnightblue" points="414.637,-89.7489 408.494,-81.1165 407.913,-91.6954 414.637,-89.7489"/>
</g>
<!-- Node17&#45;&gt;Node5 -->
<g id="edge21" class="edge"><title>Node17&#45;&gt;Node5</title>
<path fill="none" stroke="midnightblue" d="M378.634,-61.9751C343.277,-50.9606 281.92,-31.8469 245.224,-20.4152"/>
<polygon fill="midnightblue" stroke="midnightblue" points="246.158,-17.0404 235.569,-17.4077 244.076,-23.7236 246.158,-17.0404"/>
</g>
<!-- Node17&#45;&gt;Node8 -->
<g id="edge22" class="edge"><title>Node17&#45;&gt;Node8</title>
<path fill="none" stroke="midnightblue" d="M406,-61.9751C406,-53.5803 406,-40.4806 406,-29.6631"/>
<polygon fill="midnightblue" stroke="midnightblue" points="409.5,-29.5091 406,-19.5091 402.5,-29.5091 409.5,-29.5091"/>
</g>
<!-- Node18&#45;&gt;Node7 -->
<g id="edge25" class="edge"><title>Node18&#45;&gt;Node7</title>
<path fill="none" stroke="midnightblue" d="M331.994,-139.898C343.491,-134.789 358.495,-128.296 372,-123 408.288,-108.77 450.429,-94.1094 479.518,-84.2755"/>
<polygon fill="midnightblue" stroke="midnightblue" points="480.87,-87.5135 489.231,-81.007 478.637,-80.879 480.87,-87.5135"/>
</g>
<!-- Node18&#45;&gt;Node16 -->
<g id="edge24" class="edge"><title>Node18&#45;&gt;Node16</title>
<path fill="none" stroke="midnightblue" d="M313,-139.782C313,-127.985 313,-106.635 313,-91.1421"/>
<polygon fill="midnightblue" stroke="midnightblue" points="316.5,-91.1165 313,-81.1165 309.5,-91.1165 316.5,-91.1165"/>
</g>
<!-- Node18&#45;&gt;Node17 -->
<g id="edge26" class="edge"><title>Node18&#45;&gt;Node17</title>
<path fill="none" stroke="midnightblue" d="M323.668,-139.782C339.225,-127.069 368.358,-103.261 387.467,-87.6454"/>
<polygon fill="midnightblue" stroke="midnightblue" points="389.928,-90.1545 395.456,-81.1165 385.498,-84.7342 389.928,-90.1545"/>
</g>
</g>
</svg>
        <g id="navigator" transform="translate(0 0)" fill="#404254">
                <rect fill="#f2f5e9" fill-opacity="0.5" stroke="#606060" stroke-width=".5" x="0" y="0" width="60" height="60"/>
                <use id="zoomplus" xlink:href="#zoomPlus" x="17" y="9" onmousedown="handleZoom(evt,'in')"/>
                <use id="zoomminus" xlink:href="#zoomMin" x="42" y="9" onmousedown="handleZoom(evt,'out')"/>
                <use id="reset" xlink:href="#resetDef" x="30" y="36" onmousedown="handleReset()"/>
                <g id="arrowUp" xlink:href="#dirArrow" transform="translate(30 24)" onmousedown="handlePan(0,-1)">
                  <use xlink:href="#rim" fill="#404040">
                        <set attributeName="fill" to="#808080" begin="arrowUp.mouseover" end="arrowUp.mouseout"/>
                  </use>
                  <path fill="none" stroke="white" stroke-width="1.5" d="M0,-3.0v7 M-2.5,-0.5L0,-3.0L2.5,-0.5"/>
                </g>
                <g id="arrowRight" xlink:href="#dirArrow" transform="rotate(90) translate(36 -43)" onmousedown="handlePan(1,0)">
                  <use xlink:href="#rim" fill="#404040">
                        <set attributeName="fill" to="#808080" begin="arrowRight.mouseover" end="arrowRight.mouseout"/>
                  </use>
                  <path fill="none" stroke="white" stroke-width="1.5" d="M0,-3.0v7 M-2.5,-0.5L0,-3.0L2.5,-0.5"/>
                </g>
                <g id="arrowDown" xlink:href="#dirArrow" transform="rotate(180) translate(-30 -48)" onmousedown="handlePan(0,1)">
                  <use xlink:href="#rim" fill="#404040">
                        <set attributeName="fill" to="#808080" begin="arrowDown.mouseover" end="arrowDown.mouseout"/>
                  </use>
                  <path fill="none" stroke="white" stroke-width="1.5" d="M0,-3.0v7 M-2.5,-0.5L0,-3.0L2.5,-0.5"/>
                </g>
                <g id="arrowLeft" xlink:href="#dirArrow" transform="rotate(270) translate(-36 17)" onmousedown="handlePan(-1,0)">
                  <use xlink:href="#rim" fill="#404040">
                        <set attributeName="fill" to="#808080" begin="arrowLeft.mouseover" end="arrowLeft.mouseout"/>
                  </use>
                  <path fill="none" stroke="white" stroke-width="1.5" d="M0,-3.0v7 M-2.5,-0.5L0,-3.0L2.5,-0.5"/>
                </g>
        </g>
        <svg viewBox="0 0 15 15" width="100%" height="30px" preserveAspectRatio="xMaxYMin meet">
         <g id="arrow_out" transform="scale(0.3 0.3)">
          <a xlink:href="Generate_8cpp__incl_org.svg" target="_base">
           <rect id="button" ry="5" rx="5" y="6" x="6" height="38" width="38"
                fill="#f2f5e9" fill-opacity="0.5" stroke="#606060" stroke-width="1.0"/>
           <path id="arrow"
             d="M 11.500037,31.436501 C 11.940474,20.09759 22.043105,11.32322 32.158766,21.979434 L 37.068811,17.246167 C 37.068811,17.246167 37.088388,32 37.088388,32 L 22.160133,31.978069 C 22.160133,31.978069 26.997745,27.140456 26.997745,27.140456 C 18.528582,18.264221 13.291696,25.230495 11.500037,31.436501 z"
             style="fill:#404040;"/>
          </a>
         </g>
        </svg>
</svg>
