<?xml version="1.0" encoding="UTF-8" standalone="no"?>
<!DOCTYPE svg PUBLIC "-//W3C//DTD SVG 1.1//EN"
 "http://www.w3.org/Graphics/SVG/1.1/DTD/svg11.dtd">
<!-- Generated by graphviz version 2.38.0 (20140413.2041)
 -->
<!-- Title: Core/Generator.hpp Pages: 1 -->
<svg width="257pt" height="196pt"
 viewBox="0.00 0.00 257.00 196.00" xmlns="http://www.w3.org/2000/svg" xmlns:xlink="http://www.w3.org/1999/xlink">
<g id="graph0" class="graph" transform="scale(1 1) rotate(0) translate(4 192)">
<title>Core/Generator.hpp</title>
<polygon fill="white" stroke="none" points="-4,4 -4,-192 253,-192 253,4 -4,4"/>
<!-- Node1 -->
<g id="node1" class="node"><title>Node1</title>
<polygon fill="#bfbfbf" stroke="black" points="95,-168.5 95,-187.5 197,-187.5 197,-168.5 95,-168.5"/>
<text text-anchor="middle" x="146" y="-175.5" font-family="Helvetica,sans-Serif" font-size="10.00">Core/Generator.hpp</text>
</g>
<!-- Node2 -->
<g id="node2" class="node"><title>Node2</title>
<g id="a_node2"><a xlink:href="Event_8hpp.html" target="_top" xlink:title="Core/Event.hpp">
<polygon fill="white" stroke="black" points="49.5,-112.5 49.5,-131.5 134.5,-131.5 134.5,-112.5 49.5,-112.5"/>
<text text-anchor="middle" x="92" y="-119.5" font-family="Helvetica,sans-Serif" font-size="10.00">Core/Event.hpp</text>
</a>
</g>
</g>
<!-- Node1&#45;&gt;Node2 -->
<g id="edge1" class="edge"><title>Node1&#45;&gt;Node2</title>
<path fill="none" stroke="midnightblue" d="M137.083,-168.083C129.22,-160.22 117.569,-148.569 108.081,-139.081"/>
<polygon fill="midnightblue" stroke="midnightblue" points="110.297,-136.347 100.751,-131.751 105.347,-141.297 110.297,-136.347"/>
</g>
<!-- Node5 -->
<g id="node5" class="node"><title>Node5</title>
<g id="a_node5"><a xlink:href="Random_8hpp.html" target="_top" xlink:title="Core/Random.hpp">
<polygon fill="white" stroke="black" points="153,-112.5 153,-131.5 249,-131.5 249,-112.5 153,-112.5"/>
<text text-anchor="middle" x="201" y="-119.5" font-family="Helvetica,sans-Serif" font-size="10.00">Core/Random.hpp</text>
</a>
</g>
</g>
<!-- Node1&#45;&gt;Node5 -->
<g id="edge5" class="edge"><title>Node1&#45;&gt;Node5</title>
<path fill="none" stroke="midnightblue" d="M155.082,-168.083C163.171,-160.141 175.195,-148.335 184.91,-138.797"/>
<polygon fill="midnightblue" stroke="midnightblue" points="187.403,-141.254 192.087,-131.751 182.499,-136.26 187.403,-141.254"/>
</g>
<!-- Node3 -->
<g id="node3" class="node"><title>Node3</title>
<g id="a_node3"><a xlink:href="Particle_8hpp.html" target="_top" xlink:title="Particle and FourMomentum class. ">
<polygon fill="white" stroke="red" points="0,-56.5 0,-75.5 92,-75.5 92,-56.5 0,-56.5"/>
<text text-anchor="middle" x="46" y="-63.5" font-family="Helvetica,sans-Serif" font-size="10.00">Core/Particle.hpp</text>
</a>
</g>
</g>
<!-- Node2&#45;&gt;Node3 -->
<g id="edge2" class="edge"><title>Node2&#45;&gt;Node3</title>
<path fill="none" stroke="midnightblue" d="M84.404,-112.083C77.7725,-104.298 67.979,-92.8015 59.9419,-83.3665"/>
<polygon fill="midnightblue" stroke="midnightblue" points="62.6037,-81.0939 53.4546,-75.7511 57.275,-85.6332 62.6037,-81.0939"/>
</g>
<!-- Node4 -->
<g id="node4" class="node"><title>Node4</title>
<polygon fill="white" stroke="#bfbfbf" points="61,-0.5 61,-19.5 105,-19.5 105,-0.5 61,-0.5"/>
<text text-anchor="middle" x="83" y="-7.5" font-family="Helvetica,sans-Serif" font-size="10.00">vector</text>
</g>
<!-- Node2&#45;&gt;Node4 -->
<g id="edge4" class="edge"><title>Node2&#45;&gt;Node4</title>
<path fill="none" stroke="midnightblue" d="M95.0654,-112.12C98.9857,-99.5591 104.835,-75.9125 101,-56 99.2099,-46.7047 95.517,-36.8887 91.9393,-28.8048"/>
<polygon fill="midnightblue" stroke="midnightblue" points="95.0564,-27.2089 87.6212,-19.6611 88.7267,-30.1981 95.0564,-27.2089"/>
</g>
<!-- Node3&#45;&gt;Node4 -->
<g id="edge3" class="edge"><title>Node3&#45;&gt;Node4</title>
<path fill="none" stroke="midnightblue" d="M52.1098,-56.083C57.2822,-48.5341 64.8461,-37.4948 71.1944,-28.2298"/>
<polygon fill="midnightblue" stroke="midnightblue" points="74.2388,-29.9787 77.0039,-19.7511 68.4643,-26.0221 74.2388,-29.9787"/>
</g>
<!-- Node6 -->
<g id="node6" class="node"><title>Node6</title>
<polygon fill="white" stroke="#bfbfbf" points="176.5,-56.5 176.5,-75.5 225.5,-75.5 225.5,-56.5 176.5,-56.5"/>
<text text-anchor="middle" x="201" y="-63.5" font-family="Helvetica,sans-Serif" font-size="10.00">random</text>
</g>
<!-- Node5&#45;&gt;Node6 -->
<g id="edge6" class="edge"><title>Node5&#45;&gt;Node6</title>
<path fill="none" stroke="midnightblue" d="M201,-112.083C201,-105.006 201,-94.8611 201,-85.9865"/>
<polygon fill="midnightblue" stroke="midnightblue" points="204.5,-85.751 201,-75.7511 197.5,-85.7511 204.5,-85.751"/>
</g>
</g>
</svg>
