<?xml version="1.0" encoding="UTF-8" standalone="no"?>
<!DOCTYPE svg PUBLIC "-//W3C//DTD SVG 1.1//EN"
 "http://www.w3.org/Graphics/SVG/1.1/DTD/svg11.dtd">
<!-- Generated by graphviz version 2.38.0 (20140413.2041)
 -->
<!-- Title: Optimizer/Geneva/GenevaIF.hpp Pages: 1 -->
<svg width="436pt" height="252pt"
 viewBox="0.00 0.00 435.50 252.00" xmlns="http://www.w3.org/2000/svg" xmlns:xlink="http://www.w3.org/1999/xlink">
<g id="graph0" class="graph" transform="scale(1 1) rotate(0) translate(4 248)">
<title>Optimizer/Geneva/GenevaIF.hpp</title>
<polygon fill="white" stroke="none" points="-4,4 -4,-248 431.5,-248 431.5,4 -4,4"/>
<!-- Node1 -->
<g id="node1" class="node"><title>Node1</title>
<polygon fill="#bfbfbf" stroke="black" points="222.5,-224.5 222.5,-243.5 382.5,-243.5 382.5,-224.5 222.5,-224.5"/>
<text text-anchor="middle" x="302.5" y="-231.5" font-family="Helvetica,sans-Serif" font-size="10.00">Optimizer/Geneva/GenevaIF.hpp</text>
</g>
<!-- Node2 -->
<g id="node2" class="node"><title>Node2</title>
<g id="a_node2"><a xlink:href="Estimator_8hpp.html" target="_top" xlink:title="Estimator/Estimator.hpp">
<polygon fill="white" stroke="black" points="244.5,-112.5 244.5,-131.5 366.5,-131.5 366.5,-112.5 244.5,-112.5"/>
<text text-anchor="middle" x="305.5" y="-119.5" font-family="Helvetica,sans-Serif" font-size="10.00">Estimator/Estimator.hpp</text>
</a>
</g>
</g>
<!-- Node1&#45;&gt;Node2 -->
<g id="edge1" class="edge"><title>Node1&#45;&gt;Node2</title>
<path fill="none" stroke="midnightblue" d="M309.39,-224.319C315.769,-215.684 324.808,-201.77 328.5,-188 332.897,-171.6 325.361,-153.419 317.765,-140.465"/>
<polygon fill="midnightblue" stroke="midnightblue" points="320.485,-138.223 312.141,-131.694 314.592,-142.001 320.485,-138.223"/>
</g>
<!-- Node4 -->
<g id="node4" class="node"><title>Node4</title>
<g id="a_node4"><a xlink:href="GenevaResult_8hpp.html" target="_top" xlink:title="Optimizer/Geneva/GenevaResult.hpp">
<polygon fill="white" stroke="black" points="0,-168.5 0,-187.5 179,-187.5 179,-168.5 0,-168.5"/>
<text text-anchor="middle" x="89.5" y="-175.5" font-family="Helvetica,sans-Serif" font-size="10.00">Optimizer/Geneva/GenevaResult.hpp</text>
</a>
</g>
</g>
<!-- Node1&#45;&gt;Node4 -->
<g id="edge3" class="edge"><title>Node1&#45;&gt;Node4</title>
<path fill="none" stroke="midnightblue" d="M268.75,-224.444C231.982,-215.122 173.054,-200.183 132.878,-189.997"/>
<polygon fill="midnightblue" stroke="midnightblue" points="133.646,-186.581 123.093,-187.516 131.926,-193.367 133.646,-186.581"/>
</g>
<!-- Node7 -->
<g id="node7" class="node"><title>Node7</title>
<g id="a_node7"><a xlink:href="Optimizer_8hpp.html" target="_top" xlink:title="Optimizer/Optimizer.hpp">
<polygon fill="white" stroke="black" points="197.5,-168.5 197.5,-187.5 319.5,-187.5 319.5,-168.5 197.5,-168.5"/>
<text text-anchor="middle" x="258.5" y="-175.5" font-family="Helvetica,sans-Serif" font-size="10.00">Optimizer/Optimizer.hpp</text>
</a>
</g>
</g>
<!-- Node1&#45;&gt;Node7 -->
<g id="edge8" class="edge"><title>Node1&#45;&gt;Node7</title>
<path fill="none" stroke="midnightblue" d="M295.234,-224.083C288.955,-216.377 279.712,-205.033 272.069,-195.653"/>
<polygon fill="midnightblue" stroke="midnightblue" points="274.661,-193.293 265.631,-187.751 269.234,-197.714 274.661,-193.293"/>
</g>
<!-- Node8 -->
<g id="node8" class="node"><title>Node8</title>
<polygon fill="white" stroke="#bfbfbf" points="375.5,-168.5 375.5,-187.5 427.5,-187.5 427.5,-168.5 375.5,-168.5"/>
<text text-anchor="middle" x="401.5" y="-175.5" font-family="Helvetica,sans-Serif" font-size="10.00">memory</text>
</g>
<!-- Node1&#45;&gt;Node8 -->
<g id="edge11" class="edge"><title>Node1&#45;&gt;Node8</title>
<path fill="none" stroke="midnightblue" d="M318.406,-224.324C334.138,-215.743 358.442,-202.486 376.709,-192.522"/>
<polygon fill="midnightblue" stroke="midnightblue" points="378.53,-195.516 385.633,-187.655 375.178,-189.37 378.53,-195.516"/>
</g>
<!-- Node3 -->
<g id="node3" class="node"><title>Node3</title>
<g id="a_node3"><a xlink:href="Function_8hpp.html" target="_top" xlink:title="Core/Function.hpp">
<polygon fill="white" stroke="red" points="168,-0.5 168,-19.5 265,-19.5 265,-0.5 168,-0.5"/>
<text text-anchor="middle" x="216.5" y="-7.5" font-family="Helvetica,sans-Serif" font-size="10.00">Core/Function.hpp</text>
</a>
</g>
</g>
<!-- Node2&#45;&gt;Node3 -->
<g id="edge2" class="edge"><title>Node2&#45;&gt;Node3</title>
<path fill="none" stroke="midnightblue" d="M304.35,-112.164C302.234,-98.8105 296.671,-73.2237 283.5,-56 273.334,-42.706 258.07,-32.0215 244.678,-24.4053"/>
<polygon fill="midnightblue" stroke="midnightblue" points="246.256,-21.2802 235.791,-19.6284 242.942,-27.4459 246.256,-21.2802"/>
</g>
<!-- Node5 -->
<g id="node5" class="node"><title>Node5</title>
<g id="a_node5"><a xlink:href="FitResult_8hpp.html" target="_top" xlink:title="Core/FitResult.hpp">
<polygon fill="white" stroke="red" points="81,-112.5 81,-131.5 180,-131.5 180,-112.5 81,-112.5"/>
<text text-anchor="middle" x="130.5" y="-119.5" font-family="Helvetica,sans-Serif" font-size="10.00">Core/FitResult.hpp</text>
</a>
</g>
</g>
<!-- Node4&#45;&gt;Node5 -->
<g id="edge4" class="edge"><title>Node4&#45;&gt;Node5</title>
<path fill="none" stroke="midnightblue" d="M96.2703,-168.083C102.062,-160.455 110.558,-149.264 117.638,-139.941"/>
<polygon fill="midnightblue" stroke="midnightblue" points="120.596,-141.832 123.856,-131.751 115.021,-137.599 120.596,-141.832"/>
</g>
<!-- Node5&#45;&gt;Node3 -->
<g id="edge7" class="edge"><title>Node5&#45;&gt;Node3</title>
<path fill="none" stroke="midnightblue" d="M131.177,-112.174C132.59,-98.8351 136.861,-73.2663 149.5,-56 159.318,-42.5875 174.423,-31.9427 187.808,-24.3806"/>
<polygon fill="midnightblue" stroke="midnightblue" points="189.529,-27.4293 196.713,-19.6417 186.241,-21.2498 189.529,-27.4293"/>
</g>
<!-- Node6 -->
<g id="node6" class="node"><title>Node6</title>
<g id="a_node6"><a xlink:href="FitParameter_8hpp.html" target="_top" xlink:title="Core/FitParameter.hpp">
<polygon fill="white" stroke="red" points="158.5,-56.5 158.5,-75.5 274.5,-75.5 274.5,-56.5 158.5,-56.5"/>
<text text-anchor="middle" x="216.5" y="-63.5" font-family="Helvetica,sans-Serif" font-size="10.00">Core/FitParameter.hpp</text>
</a>
</g>
</g>
<!-- Node5&#45;&gt;Node6 -->
<g id="edge5" class="edge"><title>Node5&#45;&gt;Node6</title>
<path fill="none" stroke="midnightblue" d="M144.317,-112.324C157.733,-103.9 178.324,-90.9709 194.086,-81.0741"/>
<polygon fill="midnightblue" stroke="midnightblue" points="196.109,-83.9364 202.717,-75.6545 192.387,-78.0081 196.109,-83.9364"/>
</g>
<!-- Node6&#45;&gt;Node3 -->
<g id="edge6" class="edge"><title>Node6&#45;&gt;Node3</title>
<path fill="none" stroke="midnightblue" d="M216.5,-56.083C216.5,-49.0059 216.5,-38.8611 216.5,-29.9865"/>
<polygon fill="midnightblue" stroke="midnightblue" points="220,-29.751 216.5,-19.7511 213,-29.7511 220,-29.751"/>
</g>
<!-- Node7&#45;&gt;Node2 -->
<g id="edge10" class="edge"><title>Node7&#45;&gt;Node2</title>
<path fill="none" stroke="midnightblue" d="M266.261,-168.083C273.037,-160.298 283.043,-148.801 291.255,-139.367"/>
<polygon fill="midnightblue" stroke="midnightblue" points="293.958,-141.592 297.883,-131.751 288.678,-136.996 293.958,-141.592"/>
</g>
<!-- Node7&#45;&gt;Node6 -->
<g id="edge9" class="edge"><title>Node7&#45;&gt;Node6</title>
<path fill="none" stroke="midnightblue" d="M253.411,-168.265C248.374,-159.362 240.687,-145.045 235.5,-132 229.391,-116.637 224.261,-98.5383 220.877,-85.3456"/>
<polygon fill="midnightblue" stroke="midnightblue" points="224.261,-84.452 218.462,-75.5853 217.466,-86.1332 224.261,-84.452"/>
</g>
</g>
</svg>
