<?xml version="1.0" encoding="UTF-8" standalone="no"?>
<!DOCTYPE svg PUBLIC "-//W3C//DTD SVG 1.1//EN"
 "http://www.w3.org/Graphics/SVG/1.1/DTD/svg11.dtd">
<!-- Generated by graphviz version 2.38.0 (20140413.2041)
 -->
<!-- Title: Data/Generate.hpp Pages: 1 -->
<svg width="352pt" height="196pt"
 viewBox="0.00 0.00 351.50 196.00" xmlns="http://www.w3.org/2000/svg" xmlns:xlink="http://www.w3.org/1999/xlink">
<g id="graph0" class="graph" transform="scale(1 1) rotate(0) translate(4 192)">
<title>Data/Generate.hpp</title>
<polygon fill="white" stroke="none" points="-4,4 -4,-192 347.5,-192 347.5,4 -4,4"/>
<!-- Node1 -->
<g id="node1" class="node"><title>Node1</title>
<polygon fill="#bfbfbf" stroke="black" points="63.5,-168.5 63.5,-187.5 162.5,-187.5 162.5,-168.5 63.5,-168.5"/>
<text text-anchor="middle" x="113" y="-175.5" font-family="Helvetica,sans-Serif" font-size="10.00">Data/Generate.hpp</text>
</g>
<!-- Node2 -->
<g id="node2" class="node"><title>Node2</title>
<polygon fill="white" stroke="#bfbfbf" points="0,-112.5 0,-131.5 52,-131.5 52,-112.5 0,-112.5"/>
<text text-anchor="middle" x="26" y="-119.5" font-family="Helvetica,sans-Serif" font-size="10.00">memory</text>
</g>
<!-- Node1&#45;&gt;Node2 -->
<g id="edge1" class="edge"><title>Node1&#45;&gt;Node2</title>
<path fill="none" stroke="midnightblue" d="M99.0219,-168.324C85.4504,-159.9 64.6198,-146.971 48.675,-137.074"/>
<polygon fill="midnightblue" stroke="midnightblue" points="50.2856,-133.954 39.9434,-131.655 46.594,-139.902 50.2856,-133.954"/>
</g>
<!-- Node3 -->
<g id="node3" class="node"><title>Node3</title>
<g id="a_node3"><a xlink:href="Event_8hpp.html" target="_top" xlink:title="Core/Event.hpp">
<polygon fill="white" stroke="black" points="70.5,-112.5 70.5,-131.5 155.5,-131.5 155.5,-112.5 70.5,-112.5"/>
<text text-anchor="middle" x="113" y="-119.5" font-family="Helvetica,sans-Serif" font-size="10.00">Core/Event.hpp</text>
</a>
</g>
</g>
<!-- Node1&#45;&gt;Node3 -->
<g id="edge2" class="edge"><title>Node1&#45;&gt;Node3</title>
<path fill="none" stroke="midnightblue" d="M113,-168.083C113,-161.006 113,-150.861 113,-141.986"/>
<polygon fill="midnightblue" stroke="midnightblue" points="116.5,-141.751 113,-131.751 109.5,-141.751 116.5,-141.751"/>
</g>
<!-- Node6 -->
<g id="node6" class="node"><title>Node6</title>
<g id="a_node6"><a xlink:href="Function_8hpp.html" target="_top" xlink:title="Core/Function.hpp">
<polygon fill="white" stroke="black" points="173.5,-112.5 173.5,-131.5 270.5,-131.5 270.5,-112.5 173.5,-112.5"/>
<text text-anchor="middle" x="222" y="-119.5" font-family="Helvetica,sans-Serif" font-size="10.00">Core/Function.hpp</text>
</a>
</g>
</g>
<!-- Node1&#45;&gt;Node6 -->
<g id="edge6" class="edge"><title>Node1&#45;&gt;Node6</title>
<path fill="none" stroke="midnightblue" d="M130.513,-168.324C148.072,-159.625 175.331,-146.12 195.531,-136.113"/>
<polygon fill="midnightblue" stroke="midnightblue" points="197.124,-139.23 204.531,-131.655 194.016,-132.958 197.124,-139.23"/>
</g>
<!-- Node4 -->
<g id="node4" class="node"><title>Node4</title>
<g id="a_node4"><a xlink:href="Particle_8hpp.html" target="_top" xlink:title="Particle and FourMomentum class. ">
<polygon fill="white" stroke="red" points="15,-56.5 15,-75.5 107,-75.5 107,-56.5 15,-56.5"/>
<text text-anchor="middle" x="61" y="-63.5" font-family="Helvetica,sans-Serif" font-size="10.00">Core/Particle.hpp</text>
</a>
</g>
</g>
<!-- Node3&#45;&gt;Node4 -->
<g id="edge3" class="edge"><title>Node3&#45;&gt;Node4</title>
<path fill="none" stroke="midnightblue" d="M104.413,-112.083C96.841,-104.22 85.6218,-92.5688 76.4856,-83.0813"/>
<polygon fill="midnightblue" stroke="midnightblue" points="78.8845,-80.5266 69.427,-75.7511 73.8423,-85.3821 78.8845,-80.5266"/>
</g>
<!-- Node5 -->
<g id="node5" class="node"><title>Node5</title>
<polygon fill="white" stroke="#bfbfbf" points="113,-0.5 113,-19.5 157,-19.5 157,-0.5 113,-0.5"/>
<text text-anchor="middle" x="135" y="-7.5" font-family="Helvetica,sans-Serif" font-size="10.00">vector</text>
</g>
<!-- Node3&#45;&gt;Node5 -->
<g id="edge5" class="edge"><title>Node3&#45;&gt;Node5</title>
<path fill="none" stroke="midnightblue" d="M114.726,-112.368C118.277,-94.617 126.467,-53.6664 131.281,-29.5974"/>
<polygon fill="midnightblue" stroke="midnightblue" points="134.753,-30.0837 133.282,-19.5914 127.888,-28.7108 134.753,-30.0837"/>
</g>
<!-- Node4&#45;&gt;Node5 -->
<g id="edge4" class="edge"><title>Node4&#45;&gt;Node5</title>
<path fill="none" stroke="midnightblue" d="M72.8894,-56.324C84.1502,-48.1066 101.287,-35.6017 114.709,-25.8069"/>
<polygon fill="midnightblue" stroke="midnightblue" points="116.88,-28.5559 122.894,-19.8339 112.753,-22.9014 116.88,-28.5559"/>
</g>
<!-- Node6&#45;&gt;Node5 -->
<g id="edge9" class="edge"><title>Node6&#45;&gt;Node5</title>
<path fill="none" stroke="midnightblue" d="M215.173,-112.368C200.752,-94.135 166.973,-51.4257 148.189,-27.6752"/>
<polygon fill="midnightblue" stroke="midnightblue" points="150.744,-25.2636 141.795,-19.5914 145.253,-29.606 150.744,-25.2636"/>
</g>
<!-- Node7 -->
<g id="node7" class="node"><title>Node7</title>
<polygon fill="white" stroke="#bfbfbf" points="201.5,-56.5 201.5,-75.5 242.5,-75.5 242.5,-56.5 201.5,-56.5"/>
<text text-anchor="middle" x="222" y="-63.5" font-family="Helvetica,sans-Serif" font-size="10.00">string</text>
</g>
<!-- Node6&#45;&gt;Node7 -->
<g id="edge7" class="edge"><title>Node6&#45;&gt;Node7</title>
<path fill="none" stroke="midnightblue" d="M222,-112.083C222,-105.006 222,-94.8611 222,-85.9865"/>
<polygon fill="midnightblue" stroke="midnightblue" points="225.5,-85.751 222,-75.7511 218.5,-85.7511 225.5,-85.751"/>
</g>
<!-- Node8 -->
<g id="node8" class="node"><title>Node8</title>
<polygon fill="white" stroke="#bfbfbf" points="260.5,-56.5 260.5,-75.5 343.5,-75.5 343.5,-56.5 260.5,-56.5"/>
<text text-anchor="middle" x="302" y="-63.5" font-family="Helvetica,sans-Serif" font-size="10.00">unordered_map</text>
</g>
<!-- Node6&#45;&gt;Node8 -->
<g id="edge8" class="edge"><title>Node6&#45;&gt;Node8</title>
<path fill="none" stroke="midnightblue" d="M234.853,-112.324C247.216,-103.979 266.13,-91.2122 280.737,-81.3524"/>
<polygon fill="midnightblue" stroke="midnightblue" points="282.848,-84.1503 289.179,-75.6545 278.932,-78.3483 282.848,-84.1503"/>
</g>
</g>
</svg>
