<?xml version="1.0" encoding="UTF-8" standalone="no"?>
<!DOCTYPE svg PUBLIC "-//W3C//DTD SVG 1.1//EN"
 "http://www.w3.org/Graphics/SVG/1.1/DTD/svg11.dtd">
<!-- Generated by graphviz version 2.38.0 (20140413.2041)
 -->
<!-- Title: Optimizer/Geneva/GFMinIndividual.cpp Pages: 1 -->
<svg width="969pt" height="207pt"
 viewBox="0.00 0.00 969.00 207.00" xmlns="http://www.w3.org/2000/svg" xmlns:xlink="http://www.w3.org/1999/xlink">
<g id="graph0" class="graph" transform="scale(1 1) rotate(0) translate(4 203)">
<title>Optimizer/Geneva/GFMinIndividual.cpp</title>
<polygon fill="white" stroke="none" points="-4,4 -4,-203 965,-203 965,4 -4,4"/>
<!-- Node1 -->
<g id="node1" class="node"><title>Node1</title>
<polygon fill="#bfbfbf" stroke="black" points="558,-179.5 558,-198.5 746,-198.5 746,-179.5 558,-179.5"/>
<text text-anchor="middle" x="652" y="-186.5" font-family="Helvetica,sans-Serif" font-size="10.00">Optimizer/Geneva/GFMinIndividual.cpp</text>
</g>
<!-- Node2 -->
<g id="node2" class="node"><title>Node2</title>
<g id="a_node2"><a xlink:href="GFMinIndividual_8hpp.html" target="_top" xlink:title="GFMinIndividual.hpp">
<polygon fill="white" stroke="black" points="294,-118 294,-137 400,-137 400,-118 294,-118"/>
<text text-anchor="middle" x="347" y="-125" font-family="Helvetica,sans-Serif" font-size="10.00">GFMinIndividual.hpp</text>
</a>
</g>
</g>
<!-- Node1&#45;&gt;Node2 -->
<g id="edge1" class="edge"><title>Node1&#45;&gt;Node2</title>
<path fill="none" stroke="midnightblue" d="M608.301,-179.475C553.491,-168.783 459.557,-150.458 400.503,-138.937"/>
<polygon fill="midnightblue" stroke="midnightblue" points="401.103,-135.489 390.618,-137.009 399.763,-142.359 401.103,-135.489"/>
</g>
<!-- Node4 -->
<g id="node4" class="node"><title>Node4</title>
<g id="a_node4"><a xlink:href="Logging_8hpp.html" target="_top" xlink:title="Core/Logging.hpp">
<polygon fill="white" stroke="red" points="283.5,-0.5 283.5,-19.5 376.5,-19.5 376.5,-0.5 283.5,-0.5"/>
<text text-anchor="middle" x="330" y="-7.5" font-family="Helvetica,sans-Serif" font-size="10.00">Core/Logging.hpp</text>
</a>
</g>
</g>
<!-- Node1&#45;&gt;Node4 -->
<g id="edge7" class="edge"><title>Node1&#45;&gt;Node4</title>
<path fill="none" stroke="midnightblue" d="M645.573,-179.309C639.167,-170.441 629.265,-156.15 622,-143 601.51,-105.909 616.405,-82.0705 583,-56 553.163,-32.714 451.738,-20.5275 386.727,-14.9564"/>
<polygon fill="midnightblue" stroke="midnightblue" points="386.878,-11.457 376.623,-14.1184 386.299,-18.433 386.878,-11.457"/>
</g>
<!-- Node8 -->
<g id="node8" class="node"><title>Node8</title>
<polygon fill="white" stroke="#bfbfbf" points="631,-112.5 631,-142.5 773,-142.5 773,-112.5 631,-112.5"/>
<text text-anchor="start" x="639" y="-130.5" font-family="Helvetica,sans-Serif" font-size="10.00">geneva/GConstrainedDouble</text>
<text text-anchor="middle" x="702" y="-119.5" font-family="Helvetica,sans-Serif" font-size="10.00">Object.hpp</text>
</g>
<!-- Node1&#45;&gt;Node8 -->
<g id="edge8" class="edge"><title>Node1&#45;&gt;Node8</title>
<path fill="none" stroke="midnightblue" d="M659.164,-179.475C665.556,-171.869 675.194,-160.399 683.71,-150.265"/>
<polygon fill="midnightblue" stroke="midnightblue" points="686.462,-152.43 690.216,-142.523 681.103,-147.927 686.462,-152.43"/>
</g>
<!-- Node9 -->
<g id="node9" class="node"><title>Node9</title>
<polygon fill="white" stroke="#bfbfbf" points="791,-118 791,-137 961,-137 961,-118 791,-118"/>
<text text-anchor="middle" x="876" y="-125" font-family="Helvetica,sans-Serif" font-size="10.00">geneva/GDoubleGaussAdaptor.hpp</text>
</g>
<!-- Node1&#45;&gt;Node9 -->
<g id="edge9" class="edge"><title>Node1&#45;&gt;Node9</title>
<path fill="none" stroke="midnightblue" d="M684.094,-179.475C723.599,-168.982 790.779,-151.137 834.261,-139.587"/>
<polygon fill="midnightblue" stroke="midnightblue" points="835.199,-142.959 843.966,-137.009 833.402,-136.194 835.199,-142.959"/>
</g>
<!-- Node3 -->
<g id="node3" class="node"><title>Node3</title>
<g id="a_node3"><a xlink:href="FitParameter_8hpp.html" target="_top" xlink:title="Core/FitParameter.hpp">
<polygon fill="white" stroke="red" points="0,-56.5 0,-75.5 116,-75.5 116,-56.5 0,-56.5"/>
<text text-anchor="middle" x="58" y="-63.5" font-family="Helvetica,sans-Serif" font-size="10.00">Core/FitParameter.hpp</text>
</a>
</g>
</g>
<!-- Node2&#45;&gt;Node3 -->
<g id="edge2" class="edge"><title>Node2&#45;&gt;Node3</title>
<path fill="none" stroke="midnightblue" d="M305.593,-117.975C253.874,-107.327 165.387,-89.1092 109.391,-77.5806"/>
<polygon fill="midnightblue" stroke="midnightblue" points="109.83,-74.0976 99.3298,-75.5091 108.419,-80.9538 109.83,-74.0976"/>
</g>
<!-- Node5 -->
<g id="node5" class="node"><title>Node5</title>
<g id="a_node5"><a xlink:href="Estimator_8hpp.html" target="_top" xlink:title="Estimator/Estimator.hpp">
<polygon fill="white" stroke="red" points="134,-56.5 134,-75.5 256,-75.5 256,-56.5 134,-56.5"/>
<text text-anchor="middle" x="195" y="-63.5" font-family="Helvetica,sans-Serif" font-size="10.00">Estimator/Estimator.hpp</text>
</a>
</g>
</g>
<!-- Node2&#45;&gt;Node5 -->
<g id="edge4" class="edge"><title>Node2&#45;&gt;Node5</title>
<path fill="none" stroke="midnightblue" d="M325.222,-117.975C299.262,-107.813 255.689,-90.7564 226.165,-79.1996"/>
<polygon fill="midnightblue" stroke="midnightblue" points="227.325,-75.8951 216.737,-75.5091 224.774,-82.4135 227.325,-75.8951"/>
</g>
<!-- Node6 -->
<g id="node6" class="node"><title>Node6</title>
<polygon fill="white" stroke="#bfbfbf" points="274.5,-56.5 274.5,-75.5 419.5,-75.5 419.5,-56.5 274.5,-56.5"/>
<text text-anchor="middle" x="347" y="-63.5" font-family="Helvetica,sans-Serif" font-size="10.00">common/GGlobalDefines.hpp</text>
</g>
<!-- Node2&#45;&gt;Node6 -->
<g id="edge5" class="edge"><title>Node2&#45;&gt;Node6</title>
<path fill="none" stroke="midnightblue" d="M347,-117.975C347,-109.58 347,-96.4806 347,-85.6631"/>
<polygon fill="midnightblue" stroke="midnightblue" points="350.5,-85.5091 347,-75.5091 343.5,-85.5091 350.5,-85.5091"/>
</g>
<!-- Node7 -->
<g id="node7" class="node"><title>Node7</title>
<polygon fill="white" stroke="#bfbfbf" points="437.5,-56.5 437.5,-75.5 574.5,-75.5 574.5,-56.5 437.5,-56.5"/>
<text text-anchor="middle" x="506" y="-63.5" font-family="Helvetica,sans-Serif" font-size="10.00">geneva/GParameterSet.hpp</text>
</g>
<!-- Node2&#45;&gt;Node7 -->
<g id="edge6" class="edge"><title>Node2&#45;&gt;Node7</title>
<path fill="none" stroke="midnightblue" d="M369.781,-117.975C397.055,-107.769 442.913,-90.608 473.801,-79.0492"/>
<polygon fill="midnightblue" stroke="midnightblue" points="475.122,-82.2919 483.261,-75.5091 472.669,-75.7359 475.122,-82.2919"/>
</g>
<!-- Node3&#45;&gt;Node4 -->
<g id="edge3" class="edge"><title>Node3&#45;&gt;Node4</title>
<path fill="none" stroke="midnightblue" d="M101.099,-56.4435C148.847,-46.9641 225.861,-31.6747 277.194,-21.4835"/>
<polygon fill="midnightblue" stroke="midnightblue" points="277.975,-24.8968 287.102,-19.5164 276.612,-18.0308 277.975,-24.8968"/>
</g>
</g>
</svg>
