<?xml version="1.0" encoding="UTF-8" standalone="no"?>
<!DOCTYPE svg PUBLIC "-//W3C//DTD SVG 1.1//EN"
 "http://www.w3.org/Graphics/SVG/1.1/DTD/svg11.dtd">
<!-- Generated by graphviz version 2.38.0 (20140413.2041)
 -->
<!-- Title: Physics/HelicityFormalism/HelicityKinematics.hpp Pages: 1 -->
<!--zoomable 229 -->
<svg id="main" version="1.1" xmlns="http://www.w3.org/2000/svg" xmlns:xlink="http://www.w3.org/1999/xlink" xml:space="preserve" onload="init(evt)">
<style type="text/css"><![CDATA[
.edge:hover path { stroke: red; }
.edge:hover polygon { stroke: red; fill: red; }
]]></style>
<script type="text/javascript"><![CDATA[
var edges = document.getElementsByTagName('g');
if (edges && edges.length) {
  for (var i=0;i<edges.length;i++) {
    if (edges[i].id.substr(0,4)=='edge') {
      edges[i].setAttribute('class','edge');
    }
  }
}
]]></script>
        <defs>
                <circle id="rim" cx="0" cy="0" r="7"/>
                <circle id="rim2" cx="0" cy="0" r="3.5"/>
                <g id="zoomPlus">
                        <use xlink:href="#rim" fill="#404040">
                                <set attributeName="fill" to="#808080" begin="zoomplus.mouseover" end="zoomplus.mouseout"/>
                        </use>
                        <path d="M-4,0h8M0,-4v8" fill="none" stroke="white" stroke-width="1.5" pointer-events="none"/>
                </g>
                <g id="zoomMin">
                        <use xlink:href="#rim" fill="#404040">
                                <set attributeName="fill" to="#808080" begin="zoomminus.mouseover" end="zoomminus.mouseout"/>
                        </use>
                        <path d="M-4,0h8" fill="none" stroke="white" stroke-width="1.5" pointer-events="none"/>
                </g>
                <g id="dirArrow">
                        <path fill="none" stroke="white" stroke-width="1.5" d="M0,-3.0v7 M-2.5,-0.5L0,-3.0L2.5,-0.5"/>
                </g>
               <g id="resetDef">
                       <use xlink:href="#rim2" fill="#404040">
                               <set attributeName="fill" to="#808080" begin="reset.mouseover" end="reset.mouseout"/>
                       </use>
               </g>
        </defs>

<script type="text/javascript">
var viewWidth = 531;
var viewHeight = 229;
var sectionId = 'dynsection-0';
</script>
<script xlink:href="svgpan.js"/>
<svg id="graph" class="graph">
<g id="viewport">
<title>Physics/HelicityFormalism/HelicityKinematics.hpp</title>
<polygon fill="white" stroke="none" points="-4,4 -4,-225 526.767,-225 526.767,4 -4,4"/>
<!-- Node1 -->
<g id="node1" class="node"><title>Node1</title>
<polygon fill="#bfbfbf" stroke="black" points="74.4954,-190.5 74.4954,-220.5 208.495,-220.5 208.495,-190.5 74.4954,-190.5"/>
<text text-anchor="start" x="82.4954" y="-208.5" font-family="Helvetica,sans-Serif" font-size="10.00">Physics/HelicityFormalism</text>
<text text-anchor="middle" x="141.495" y="-197.5" font-family="Helvetica,sans-Serif" font-size="10.00">/HelicityKinematics.hpp</text>
</g>
<!-- Node2 -->
<g id="node2" class="node"><title>Node2</title>
<polygon fill="white" stroke="#bfbfbf" points="136.495,-6 136.495,-25 180.495,-25 180.495,-6 136.495,-6"/>
<text text-anchor="middle" x="158.495" y="-13" font-family="Helvetica,sans-Serif" font-size="10.00">vector</text>
</g>
<!-- Node1&#45;&gt;Node2 -->
<g id="edge1" class="edge"><title>Node1&#45;&gt;Node2</title>
<path fill="none" stroke="midnightblue" d="M74.2019,-196.279C47.9793,-189.415 20.4423,-176.874 4.4954,-154 -3.3841,-142.698 1.14142,-136.363 4.4954,-123 11.3688,-95.614 13.5092,-85.8895 34.4954,-67 60.692,-43.4206 99.3577,-30.057 126.531,-23.0796"/>
<polygon fill="midnightblue" stroke="midnightblue" points="127.436,-26.4619 136.333,-20.7102 125.791,-19.6579 127.436,-26.4619"/>
</g>
<!-- Node3 -->
<g id="node3" class="node"><title>Node3</title>
<g id="a_node3"><a xlink:href="Kinematics_8hpp.html" target="_top" xlink:title="Core/Kinematics.hpp">
<polygon fill="white" stroke="black" points="13.4954,-129 13.4954,-148 121.495,-148 121.495,-129 13.4954,-129"/>
<text text-anchor="middle" x="67.4954" y="-136" font-family="Helvetica,sans-Serif" font-size="10.00">Core/Kinematics.hpp</text>
</a>
</g>
</g>
<!-- Node1&#45;&gt;Node3 -->
<g id="edge2" class="edge"><title>Node1&#45;&gt;Node3</title>
<path fill="none" stroke="midnightblue" d="M125.438,-190.396C113.558,-179.96 97.3809,-165.751 85.1391,-154.998"/>
<polygon fill="midnightblue" stroke="midnightblue" points="87.2168,-152.164 77.3938,-148.195 82.5972,-157.424 87.2168,-152.164"/>
</g>
<!-- Node5 -->
<g id="node5" class="node"><title>Node5</title>
<g id="a_node5"><a xlink:href="ParticleStateTransitionKinematicsInfo_8hpp.html" target="_top" xlink:title="Physics/ParticleStateTransition\lKinematicsInfo.hpp">
<polygon fill="white" stroke="black" points="139.495,-123.5 139.495,-153.5 293.495,-153.5 293.495,-123.5 139.495,-123.5"/>
<text text-anchor="start" x="147.495" y="-141.5" font-family="Helvetica,sans-Serif" font-size="10.00">Physics/ParticleStateTransition</text>
<text text-anchor="middle" x="216.495" y="-130.5" font-family="Helvetica,sans-Serif" font-size="10.00">KinematicsInfo.hpp</text>
</a>
</g>
</g>
<!-- Node1&#45;&gt;Node5 -->
<g id="edge5" class="edge"><title>Node1&#45;&gt;Node5</title>
<path fill="none" stroke="midnightblue" d="M157.769,-190.396C167.892,-181.623 181.092,-170.183 192.413,-160.371"/>
<polygon fill="midnightblue" stroke="midnightblue" points="194.989,-162.771 200.253,-153.577 190.404,-157.481 194.989,-162.771"/>
</g>
<!-- Node10 -->
<g id="node10" class="node"><title>Node10</title>
<g id="a_node10"><a xlink:href="SubSystem_8hpp.html" target="_top" xlink:title="Contains SubSystem class. ">
<polygon fill="white" stroke="black" points="259.995,-67.5 259.995,-86.5 384.995,-86.5 384.995,-67.5 259.995,-67.5"/>
<text text-anchor="middle" x="322.495" y="-74.5" font-family="Helvetica,sans-Serif" font-size="10.00">Physics/SubSystem.hpp</text>
</a>
</g>
</g>
<!-- Node1&#45;&gt;Node10 -->
<g id="edge16" class="edge"><title>Node1&#45;&gt;Node10</title>
<path fill="none" stroke="midnightblue" d="M208.579,-198.495C241.024,-192.221 278.124,-179.535 302.495,-154 317.114,-138.683 321.359,-114.008 322.435,-96.9493"/>
<polygon fill="midnightblue" stroke="midnightblue" points="325.945,-96.6701 322.762,-86.5648 318.949,-96.4496 325.945,-96.6701"/>
</g>
<!-- Node3&#45;&gt;Node2 -->
<g id="edge4" class="edge"><title>Node3&#45;&gt;Node2</title>
<path fill="none" stroke="midnightblue" d="M59.5672,-128.65C48.0434,-114.662 29.3985,-86.9859 42.4954,-67 60.9634,-38.8179 98.9509,-26.2776 126.433,-20.7525"/>
<polygon fill="midnightblue" stroke="midnightblue" points="127.167,-24.1767 136.389,-18.9605 125.927,-17.2874 127.167,-24.1767"/>
</g>
<!-- Node4 -->
<g id="node4" class="node"><title>Node4</title>
<polygon fill="white" stroke="#bfbfbf" points="51.9954,-67.5 51.9954,-86.5 92.9954,-86.5 92.9954,-67.5 51.9954,-67.5"/>
<text text-anchor="middle" x="72.4954" y="-74.5" font-family="Helvetica,sans-Serif" font-size="10.00">string</text>
</g>
<!-- Node3&#45;&gt;Node4 -->
<g id="edge3" class="edge"><title>Node3&#45;&gt;Node4</title>
<path fill="none" stroke="midnightblue" d="M68.2118,-128.975C68.9172,-120.58 70.018,-107.481 70.9271,-96.6631"/>
<polygon fill="midnightblue" stroke="midnightblue" points="74.4306,-96.7671 71.7803,-86.5091 67.4552,-96.1808 74.4306,-96.7671"/>
</g>
<!-- Node5&#45;&gt;Node2 -->
<g id="edge8" class="edge"><title>Node5&#45;&gt;Node2</title>
<path fill="none" stroke="midnightblue" d="M181.355,-123.451C165.881,-115.287 149.254,-103.335 140.495,-87 131.486,-70.1962 139.358,-48.6996 147.336,-33.8855"/>
<polygon fill="midnightblue" stroke="midnightblue" points="150.372,-35.6274 152.418,-25.232 144.336,-32.0824 150.372,-35.6274"/>
</g>
<!-- Node5&#45;&gt;Node4 -->
<g id="edge7" class="edge"><title>Node5&#45;&gt;Node4</title>
<path fill="none" stroke="midnightblue" d="M182.369,-123.399C158.063,-113.356 125.707,-99.9865 102.409,-90.3602"/>
<polygon fill="midnightblue" stroke="midnightblue" points="103.608,-87.0685 93.0291,-86.4844 100.935,-93.538 103.608,-87.0685"/>
</g>
<!-- Node6 -->
<g id="node6" class="node"><title>Node6</title>
<polygon fill="white" stroke="#bfbfbf" points="477.995,-6 477.995,-25 512.995,-25 512.995,-6 477.995,-6"/>
<text text-anchor="middle" x="495.495" y="-13" font-family="Helvetica,sans-Serif" font-size="10.00">map</text>
</g>
<!-- Node5&#45;&gt;Node6 -->
<g id="edge6" class="edge"><title>Node5&#45;&gt;Node6</title>
<path fill="none" stroke="midnightblue" d="M293.685,-135.452C372.922,-131.528 488.486,-120.119 516.495,-87 529.318,-71.8383 518.818,-49.0873 508.596,-33.5589"/>
<polygon fill="midnightblue" stroke="midnightblue" points="511.425,-31.498 502.788,-25.3625 505.714,-35.5453 511.425,-31.498"/>
</g>
<!-- Node7 -->
<g id="node7" class="node"><title>Node7</title>
<g id="a_node7"><a xlink:href="Particle_8hpp.html" target="_top" xlink:title="Particle and FourMomentum class. ">
<polygon fill="white" stroke="red" points="149.495,-67.5 149.495,-86.5 241.495,-86.5 241.495,-67.5 149.495,-67.5"/>
<text text-anchor="middle" x="195.495" y="-74.5" font-family="Helvetica,sans-Serif" font-size="10.00">Core/Particle.hpp</text>
</a>
</g>
</g>
<!-- Node5&#45;&gt;Node7 -->
<g id="edge9" class="edge"><title>Node5&#45;&gt;Node7</title>
<path fill="none" stroke="midnightblue" d="M211.519,-123.399C208.656,-115.288 205.027,-105.007 201.947,-96.2807"/>
<polygon fill="midnightblue" stroke="midnightblue" points="205.18,-94.9228 198.551,-86.6578 198.579,-97.2526 205.18,-94.9228"/>
</g>
<!-- Node9 -->
<g id="node9" class="node"><title>Node9</title>
<g id="a_node9"><a xlink:href="Properties_8hpp.html" target="_top" xlink:title="Core/Properties.hpp">
<polygon fill="white" stroke="red" points="403.495,-67.5 403.495,-86.5 507.495,-86.5 507.495,-67.5 403.495,-67.5"/>
<text text-anchor="middle" x="455.495" y="-74.5" font-family="Helvetica,sans-Serif" font-size="10.00">Core/Properties.hpp</text>
</a>
</g>
</g>
<!-- Node5&#45;&gt;Node9 -->
<g id="edge12" class="edge"><title>Node5&#45;&gt;Node9</title>
<path fill="none" stroke="midnightblue" d="M272.832,-123.475C315.145,-112.941 372.284,-98.7158 411.319,-88.9978"/>
<polygon fill="midnightblue" stroke="midnightblue" points="412.469,-92.3186 421.327,-86.5064 410.778,-85.5259 412.469,-92.3186"/>
</g>
<!-- Node7&#45;&gt;Node2 -->
<g id="edge10" class="edge"><title>Node7&#45;&gt;Node2</title>
<path fill="none" stroke="midnightblue" d="M190.194,-67.4751C184.754,-58.7268 176.137,-44.8691 169.259,-33.8093"/>
<polygon fill="midnightblue" stroke="midnightblue" points="172.04,-31.6528 163.787,-25.0091 166.095,-35.3494 172.04,-31.6528"/>
</g>
<!-- Node8 -->
<g id="node8" class="node"><title>Node8</title>
<polygon fill="white" stroke="#bfbfbf" points="314.995,-0.5 314.995,-30.5 415.995,-30.5 415.995,-0.5 314.995,-0.5"/>
<text text-anchor="start" x="322.995" y="-18.5" font-family="Helvetica,sans-Serif" font-size="10.00">boost/property_tree</text>
<text text-anchor="middle" x="365.495" y="-7.5" font-family="Helvetica,sans-Serif" font-size="10.00">/ptree.hpp</text>
</g>
<!-- Node7&#45;&gt;Node8 -->
<g id="edge11" class="edge"><title>Node7&#45;&gt;Node8</title>
<path fill="none" stroke="midnightblue" d="M219.852,-67.4751C244.813,-58.7388 284.332,-44.9073 315.91,-33.855"/>
<polygon fill="midnightblue" stroke="midnightblue" points="317.147,-37.13 325.43,-30.523 314.835,-30.523 317.147,-37.13"/>
</g>
<!-- Node9&#45;&gt;Node2 -->
<g id="edge15" class="edge"><title>Node9&#45;&gt;Node2</title>
<path fill="none" stroke="midnightblue" d="M411.956,-67.4836C366.243,-58.5152 292.284,-43.9292 228.495,-31 216.077,-28.483 202.431,-25.6675 190.511,-23.1918"/>
<polygon fill="midnightblue" stroke="midnightblue" points="191.058,-19.7307 180.554,-21.1197 189.631,-26.5838 191.058,-19.7307"/>
</g>
<!-- Node9&#45;&gt;Node6 -->
<g id="edge14" class="edge"><title>Node9&#45;&gt;Node6</title>
<path fill="none" stroke="midnightblue" d="M461.226,-67.4751C467.167,-58.6384 476.612,-44.5886 484.084,-33.475"/>
<polygon fill="midnightblue" stroke="midnightblue" points="487.1,-35.2608 489.775,-25.0091 481.291,-31.3554 487.1,-35.2608"/>
</g>
<!-- Node9&#45;&gt;Node8 -->
<g id="edge13" class="edge"><title>Node9&#45;&gt;Node8</title>
<path fill="none" stroke="midnightblue" d="M442.601,-67.4751C430.297,-59.3413 411.313,-46.7909 395.262,-36.1788"/>
<polygon fill="midnightblue" stroke="midnightblue" points="396.979,-33.1182 386.707,-30.523 393.118,-38.9575 396.979,-33.1182"/>
</g>
<!-- Node10&#45;&gt;Node2 -->
<g id="edge18" class="edge"><title>Node10&#45;&gt;Node2</title>
<path fill="none" stroke="midnightblue" d="M298.998,-67.4751C270.467,-57.1238 222.218,-39.619 190.358,-28.06"/>
<polygon fill="midnightblue" stroke="midnightblue" points="191.23,-24.6531 180.636,-24.5326 188.843,-31.2334 191.23,-24.6531"/>
</g>
<!-- Node10&#45;&gt;Node8 -->
<g id="edge19" class="edge"><title>Node10&#45;&gt;Node8</title>
<path fill="none" stroke="midnightblue" d="M328.656,-67.4751C334.045,-60.0192 342.115,-48.8519 349.33,-38.8685"/>
<polygon fill="midnightblue" stroke="midnightblue" points="352.34,-40.6781 355.361,-30.523 346.667,-36.5779 352.34,-40.6781"/>
</g>
<!-- Node11 -->
<g id="node11" class="node"><title>Node11</title>
<polygon fill="white" stroke="#bfbfbf" points="237.995,-6 237.995,-25 296.995,-25 296.995,-6 237.995,-6"/>
<text text-anchor="middle" x="267.495" y="-13" font-family="Helvetica,sans-Serif" font-size="10.00">functional</text>
</g>
<!-- Node10&#45;&gt;Node11 -->
<g id="edge17" class="edge"><title>Node10&#45;&gt;Node11</title>
<path fill="none" stroke="midnightblue" d="M314.615,-67.4751C306.202,-58.3733 292.676,-43.741 282.27,-32.483"/>
<polygon fill="midnightblue" stroke="midnightblue" points="284.719,-29.9766 275.361,-25.0091 279.579,-34.7282 284.719,-29.9766"/>
</g>
</g>
</svg>
        <g id="navigator" transform="translate(0 0)" fill="#404254">
                <rect fill="#f2f5e9" fill-opacity="0.5" stroke="#606060" stroke-width=".5" x="0" y="0" width="60" height="60"/>
                <use id="zoomplus" xlink:href="#zoomPlus" x="17" y="9" onmousedown="handleZoom(evt,'in')"/>
                <use id="zoomminus" xlink:href="#zoomMin" x="42" y="9" onmousedown="handleZoom(evt,'out')"/>
                <use id="reset" xlink:href="#resetDef" x="30" y="36" onmousedown="handleReset()"/>
                <g id="arrowUp" xlink:href="#dirArrow" transform="translate(30 24)" onmousedown="handlePan(0,-1)">
                  <use xlink:href="#rim" fill="#404040">
                        <set attributeName="fill" to="#808080" begin="arrowUp.mouseover" end="arrowUp.mouseout"/>
                  </use>
                  <path fill="none" stroke="white" stroke-width="1.5" d="M0,-3.0v7 M-2.5,-0.5L0,-3.0L2.5,-0.5"/>
                </g>
                <g id="arrowRight" xlink:href="#dirArrow" transform="rotate(90) translate(36 -43)" onmousedown="handlePan(1,0)">
                  <use xlink:href="#rim" fill="#404040">
                        <set attributeName="fill" to="#808080" begin="arrowRight.mouseover" end="arrowRight.mouseout"/>
                  </use>
                  <path fill="none" stroke="white" stroke-width="1.5" d="M0,-3.0v7 M-2.5,-0.5L0,-3.0L2.5,-0.5"/>
                </g>
                <g id="arrowDown" xlink:href="#dirArrow" transform="rotate(180) translate(-30 -48)" onmousedown="handlePan(0,1)">
                  <use xlink:href="#rim" fill="#404040">
                        <set attributeName="fill" to="#808080" begin="arrowDown.mouseover" end="arrowDown.mouseout"/>
                  </use>
                  <path fill="none" stroke="white" stroke-width="1.5" d="M0,-3.0v7 M-2.5,-0.5L0,-3.0L2.5,-0.5"/>
                </g>
                <g id="arrowLeft" xlink:href="#dirArrow" transform="rotate(270) translate(-36 17)" onmousedown="handlePan(-1,0)">
                  <use xlink:href="#rim" fill="#404040">
                        <set attributeName="fill" to="#808080" begin="arrowLeft.mouseover" end="arrowLeft.mouseout"/>
                  </use>
                  <path fill="none" stroke="white" stroke-width="1.5" d="M0,-3.0v7 M-2.5,-0.5L0,-3.0L2.5,-0.5"/>
                </g>
        </g>
        <svg viewBox="0 0 15 15" width="100%" height="30px" preserveAspectRatio="xMaxYMin meet">
         <g id="arrow_out" transform="scale(0.3 0.3)">
          <a xlink:href="HelicityKinematics_8hpp__incl_org.svg" target="_base">
           <rect id="button" ry="5" rx="5" y="6" x="6" height="38" width="38"
                fill="#f2f5e9" fill-opacity="0.5" stroke="#606060" stroke-width="1.0"/>
           <path id="arrow"
             d="M 11.500037,31.436501 C 11.940474,20.09759 22.043105,11.32322 32.158766,21.979434 L 37.068811,17.246167 C 37.068811,17.246167 37.088388,32 37.088388,32 L 22.160133,31.978069 C 22.160133,31.978069 26.997745,27.140456 26.997745,27.140456 C 18.528582,18.264221 13.291696,25.230495 11.500037,31.436501 z"
             style="fill:#404040;"/>
          </a>
         </g>
        </svg>
</svg>
