<?xml version="1.0" encoding="UTF-8" standalone="no"?>
<!DOCTYPE svg PUBLIC "-//W3C//DTD SVG 1.1//EN"
 "http://www.w3.org/Graphics/SVG/1.1/DTD/svg11.dtd">
<!-- Generated by graphviz version 2.38.0 (20140413.2041)
 -->
<!-- Title: Physics/HelicityFormalism/HelicityKinematics.hpp Pages: 1 -->
<svg width="1247pt" height="162pt"
 viewBox="0.00 0.00 1247.00 162.00" xmlns="http://www.w3.org/2000/svg" xmlns:xlink="http://www.w3.org/1999/xlink">
<g id="graph0" class="graph" transform="scale(1 1) rotate(0) translate(4 158)">
<title>Physics/HelicityFormalism/HelicityKinematics.hpp</title>
<polygon fill="white" stroke="none" points="-4,4 -4,-158 1243,-158 1243,4 -4,4"/>
<!-- Node1 -->
<g id="node1" class="node"><title>Node1</title>
<polygon fill="#bfbfbf" stroke="black" points="538.5,-123.5 538.5,-153.5 672.5,-153.5 672.5,-123.5 538.5,-123.5"/>
<text text-anchor="start" x="546.5" y="-141.5" font-family="Helvetica,sans-Serif" font-size="10.00">Physics/HelicityFormalism</text>
<text text-anchor="middle" x="605.5" y="-130.5" font-family="Helvetica,sans-Serif" font-size="10.00">/HelicityKinematics.hpp</text>
</g>
<!-- Node2 -->
<g id="node2" class="node"><title>Node2</title>
<g id="a_node2"><a xlink:href="DalitzFitD03K_8cpp.html" target="_top" xlink:title="Executable for Dalitz plot analysis of the decay D0 &#45;&gt; K_S K+ K&#45;. ">
<polygon fill="white" stroke="black" points="0,-56.5 0,-86.5 143,-86.5 143,-56.5 0,-56.5"/>
<text text-anchor="start" x="8" y="-74.5" font-family="Helvetica,sans-Serif" font-size="10.00">Examples/DalitzAnalysis</text>
<text text-anchor="middle" x="71.5" y="-63.5" font-family="Helvetica,sans-Serif" font-size="10.00">_D0KsKK/DalitzFitD03K.cpp</text>
</a>
</g>
</g>
<!-- Node1&#45;&gt;Node2 -->
<g id="edge1" class="edge"><title>Node1&#45;&gt;Node2</title>
<path fill="none" stroke="midnightblue" d="M528.006,-130.434C437.646,-121.831 283.897,-106.064 152.5,-87 149.39,-86.5487 146.216,-86.0679 143.012,-85.566"/>
<polygon fill="midnightblue" stroke="midnightblue" points="527.88,-133.938 538.166,-131.397 528.54,-126.969 527.88,-133.938"/>
</g>
<!-- Node3 -->
<g id="node3" class="node"><title>Node3</title>
<g id="a_node3"><a xlink:href="DalitzFitApp_8cpp.html" target="_top" xlink:title="Simple Dalitz plot analysis with ComPWA. ">
<polygon fill="white" stroke="black" points="161.5,-56.5 161.5,-86.5 261.5,-86.5 261.5,-56.5 161.5,-56.5"/>
<text text-anchor="start" x="169.5" y="-74.5" font-family="Helvetica,sans-Serif" font-size="10.00">Examples/DalitzFit</text>
<text text-anchor="middle" x="211.5" y="-63.5" font-family="Helvetica,sans-Serif" font-size="10.00">/DalitzFitApp.cpp</text>
</a>
</g>
</g>
<!-- Node1&#45;&gt;Node3 -->
<g id="edge2" class="edge"><title>Node1&#45;&gt;Node3</title>
<path fill="none" stroke="midnightblue" d="M528.232,-127.892C460.109,-118.936 358.31,-104.371 270.5,-87 267.603,-86.4269 264.633,-85.8056 261.643,-85.1537"/>
<polygon fill="midnightblue" stroke="midnightblue" points="528.081,-131.402 538.451,-129.226 528.988,-124.46 528.081,-131.402"/>
</g>
<!-- Node4 -->
<g id="node4" class="node"><title>Node4</title>
<g id="a_node4"><a xlink:href="EvtGenFit_8cpp.html" target="_top" xlink:title="Examples/EvtGen/EvtGenFit.cpp">
<polygon fill="white" stroke="black" points="279.5,-62 279.5,-81 441.5,-81 441.5,-62 279.5,-62"/>
<text text-anchor="middle" x="360.5" y="-69" font-family="Helvetica,sans-Serif" font-size="10.00">Examples/EvtGen/EvtGenFit.cpp</text>
</a>
</g>
</g>
<!-- Node1&#45;&gt;Node4 -->
<g id="edge3" class="edge"><title>Node1&#45;&gt;Node4</title>
<path fill="none" stroke="midnightblue" d="M542.969,-120.91C494.987,-108.18 430.71,-91.1273 392.646,-81.0287"/>
<polygon fill="midnightblue" stroke="midnightblue" points="542.077,-124.295 552.64,-123.476 543.872,-117.529 542.077,-124.295"/>
</g>
<!-- Node5 -->
<g id="node5" class="node"><title>Node5</title>
<g id="a_node5"><a xlink:href="SimFit_8cpp.html" target="_top" xlink:title="Examples/SimFit/SimFit.cpp">
<polygon fill="white" stroke="black" points="459.5,-62 459.5,-81 601.5,-81 601.5,-62 459.5,-62"/>
<text text-anchor="middle" x="530.5" y="-69" font-family="Helvetica,sans-Serif" font-size="10.00">Examples/SimFit/SimFit.cpp</text>
</a>
</g>
</g>
<!-- Node1&#45;&gt;Node5 -->
<g id="edge4" class="edge"><title>Node1&#45;&gt;Node5</title>
<path fill="none" stroke="midnightblue" d="M581.468,-116.672C567.62,-104.671 550.946,-90.2203 540.532,-81.1945"/>
<polygon fill="midnightblue" stroke="midnightblue" points="579.377,-119.492 589.226,-123.396 583.961,-114.202 579.377,-119.492"/>
</g>
<!-- Node6 -->
<g id="node6" class="node"><title>Node6</title>
<g id="a_node6"><a xlink:href="BuilderXML_8cpp.html" target="_top" xlink:title="Physics/BuilderXML.cpp">
<polygon fill="white" stroke="black" points="619.5,-62 619.5,-81 743.5,-81 743.5,-62 619.5,-62"/>
<text text-anchor="middle" x="681.5" y="-69" font-family="Helvetica,sans-Serif" font-size="10.00">Physics/BuilderXML.cpp</text>
</a>
</g>
</g>
<!-- Node1&#45;&gt;Node6 -->
<g id="edge5" class="edge"><title>Node1&#45;&gt;Node6</title>
<path fill="none" stroke="midnightblue" d="M629.853,-116.672C643.885,-104.671 660.781,-90.2203 671.334,-81.1945"/>
<polygon fill="midnightblue" stroke="midnightblue" points="627.316,-114.236 621.991,-123.396 631.865,-119.556 627.316,-114.236"/>
</g>
<!-- Node7 -->
<g id="node7" class="node"><title>Node7</title>
<g id="a_node7"><a xlink:href="HelicityKinematics_8cpp.html" target="_top" xlink:title="Physics/HelicityFormalism\l/HelicityKinematics.cpp">
<polygon fill="white" stroke="black" points="761.5,-56.5 761.5,-86.5 895.5,-86.5 895.5,-56.5 761.5,-56.5"/>
<text text-anchor="start" x="769.5" y="-74.5" font-family="Helvetica,sans-Serif" font-size="10.00">Physics/HelicityFormalism</text>
<text text-anchor="middle" x="828.5" y="-63.5" font-family="Helvetica,sans-Serif" font-size="10.00">/HelicityKinematics.cpp</text>
</a>
</g>
</g>
<!-- Node1&#45;&gt;Node7 -->
<g id="edge6" class="edge"><title>Node1&#45;&gt;Node7</title>
<path fill="none" stroke="midnightblue" d="M663.549,-120.58C699.769,-110.022 745.845,-96.5921 780.089,-86.6109"/>
<polygon fill="midnightblue" stroke="midnightblue" points="662.234,-117.317 653.613,-123.476 664.193,-124.038 662.234,-117.317"/>
</g>
<!-- Node8 -->
<g id="node8" class="node"><title>Node8</title>
<g id="a_node8"><a xlink:href="BOSSAdapter_8hpp.html" target="_top" xlink:title="Tools/Adapters/BOSSAdapter.hpp">
<polygon fill="white" stroke="black" points="913.5,-62 913.5,-81 1079.5,-81 1079.5,-62 913.5,-62"/>
<text text-anchor="middle" x="996.5" y="-69" font-family="Helvetica,sans-Serif" font-size="10.00">Tools/Adapters/BOSSAdapter.hpp</text>
</a>
</g>
</g>
<!-- Node1&#45;&gt;Node8 -->
<g id="edge7" class="edge"><title>Node1&#45;&gt;Node8</title>
<path fill="none" stroke="midnightblue" d="M682.936,-124.627C760.666,-111.705 878.207,-92.1651 945.11,-81.043"/>
<polygon fill="midnightblue" stroke="midnightblue" points="682.006,-121.234 672.715,-126.326 683.154,-128.139 682.006,-121.234"/>
</g>
<!-- Node10 -->
<g id="node10" class="node"><title>Node10</title>
<g id="a_node10"><a xlink:href="DalitzPlot_8cpp.html" target="_top" xlink:title="Tools/Plotting/DalitzPlot.cpp">
<polygon fill="white" stroke="black" points="1098,-62 1098,-81 1239,-81 1239,-62 1098,-62"/>
<text text-anchor="middle" x="1168.5" y="-69" font-family="Helvetica,sans-Serif" font-size="10.00">Tools/Plotting/DalitzPlot.cpp</text>
</a>
</g>
</g>
<!-- Node1&#45;&gt;Node10 -->
<g id="edge9" class="edge"><title>Node1&#45;&gt;Node10</title>
<path fill="none" stroke="midnightblue" d="M683.054,-131.199C778.651,-123.016 945.959,-107.34 1088.5,-87 1100.24,-85.325 1112.89,-83.1881 1124.58,-81.0727"/>
<polygon fill="midnightblue" stroke="midnightblue" points="682.561,-127.728 672.894,-132.063 683.155,-134.703 682.561,-127.728"/>
</g>
<!-- Node9 -->
<g id="node9" class="node"><title>Node9</title>
<g id="a_node9"><a xlink:href="BOSSAdapter_8cpp.html" target="_top" xlink:title="Tools/Adapters/BOSSAdapter.cpp">
<polygon fill="white" stroke="black" points="913.5,-0.5 913.5,-19.5 1079.5,-19.5 1079.5,-0.5 913.5,-0.5"/>
<text text-anchor="middle" x="996.5" y="-7.5" font-family="Helvetica,sans-Serif" font-size="10.00">Tools/Adapters/BOSSAdapter.cpp</text>
</a>
</g>
</g>
<!-- Node8&#45;&gt;Node9 -->
<g id="edge8" class="edge"><title>Node8&#45;&gt;Node9</title>
<path fill="none" stroke="midnightblue" d="M996.5,-51.8165C996.5,-40.9962 996.5,-27.898 996.5,-19.5091"/>
<polygon fill="midnightblue" stroke="midnightblue" points="993,-51.9751 996.5,-61.9751 1000,-51.9751 993,-51.9751"/>
</g>
</g>
</svg>
