<?xml version="1.0" encoding="UTF-8" standalone="no"?>
<!DOCTYPE svg PUBLIC "-//W3C//DTD SVG 1.1//EN"
 "http://www.w3.org/Graphics/SVG/1.1/DTD/svg11.dtd">
<!-- Generated by graphviz version 2.38.0 (20140413.2041)
 -->
<!-- Title: Physics/HelicityFormalism/HelicityKinematics.cpp Pages: 1 -->
<!--zoomable 419 -->
<svg id="main" version="1.1" xmlns="http://www.w3.org/2000/svg" xmlns:xlink="http://www.w3.org/1999/xlink" xml:space="preserve" onload="init(evt)">
<style type="text/css"><![CDATA[
.edge:hover path { stroke: red; }
.edge:hover polygon { stroke: red; fill: red; }
]]></style>
<script type="text/javascript"><![CDATA[
var edges = document.getElementsByTagName('g');
if (edges && edges.length) {
  for (var i=0;i<edges.length;i++) {
    if (edges[i].id.substr(0,4)=='edge') {
      edges[i].setAttribute('class','edge');
    }
  }
}
]]></script>
        <defs>
                <circle id="rim" cx="0" cy="0" r="7"/>
                <circle id="rim2" cx="0" cy="0" r="3.5"/>
                <g id="zoomPlus">
                        <use xlink:href="#rim" fill="#404040">
                                <set attributeName="fill" to="#808080" begin="zoomplus.mouseover" end="zoomplus.mouseout"/>
                        </use>
                        <path d="M-4,0h8M0,-4v8" fill="none" stroke="white" stroke-width="1.5" pointer-events="none"/>
                </g>
                <g id="zoomMin">
                        <use xlink:href="#rim" fill="#404040">
                                <set attributeName="fill" to="#808080" begin="zoomminus.mouseover" end="zoomminus.mouseout"/>
                        </use>
                        <path d="M-4,0h8" fill="none" stroke="white" stroke-width="1.5" pointer-events="none"/>
                </g>
                <g id="dirArrow">
                        <path fill="none" stroke="white" stroke-width="1.5" d="M0,-3.0v7 M-2.5,-0.5L0,-3.0L2.5,-0.5"/>
                </g>
               <g id="resetDef">
                       <use xlink:href="#rim2" fill="#404040">
                               <set attributeName="fill" to="#808080" begin="reset.mouseover" end="reset.mouseout"/>
                       </use>
               </g>
        </defs>

<script type="text/javascript">
var viewWidth = 1257;
var viewHeight = 419;
var sectionId = 'dynsection-0';
</script>
<script xlink:href="svgpan.js"/>
<svg id="graph" class="graph">
<g id="viewport">
<title>Physics/HelicityFormalism/HelicityKinematics.cpp</title>
<polygon fill="white" stroke="none" points="-4,4 -4,-415 1252.5,-415 1252.5,4 -4,4"/>
<!-- Node1 -->
<g id="node1" class="node"><title>Node1</title>
<polygon fill="#bfbfbf" stroke="black" points="255,-380.5 255,-410.5 389,-410.5 389,-380.5 255,-380.5"/>
<text text-anchor="start" x="263" y="-398.5" font-family="Helvetica,sans-Serif" font-size="10.00">Physics/HelicityFormalism</text>
<text text-anchor="middle" x="322" y="-387.5" font-family="Helvetica,sans-Serif" font-size="10.00">/HelicityKinematics.cpp</text>
</g>
<!-- Node2 -->
<g id="node2" class="node"><title>Node2</title>
<polygon fill="white" stroke="#bfbfbf" points="0,-129 0,-148 56,-148 56,-129 0,-129"/>
<text text-anchor="middle" x="28" y="-136" font-family="Helvetica,sans-Serif" font-size="10.00">algorithm</text>
</g>
<!-- Node1&#45;&gt;Node2 -->
<g id="edge1" class="edge"><title>Node1&#45;&gt;Node2</title>
<path fill="none" stroke="midnightblue" d="M254.814,-384.667C223.307,-377.456 186.696,-365.087 159,-344 92.3182,-293.229 50.2088,-198.009 34.715,-157.976"/>
<polygon fill="midnightblue" stroke="midnightblue" points="37.9224,-156.561 31.1262,-148.433 31.3704,-159.025 37.9224,-156.561"/>
</g>
<!-- Node3 -->
<g id="node3" class="node"><title>Node3</title>
<polygon fill="white" stroke="#bfbfbf" points="74,-129 74,-148 118,-148 118,-129 74,-129"/>
<text text-anchor="middle" x="96" y="-136" font-family="Helvetica,sans-Serif" font-size="10.00">cmath</text>
</g>
<!-- Node1&#45;&gt;Node3 -->
<g id="edge2" class="edge"><title>Node1&#45;&gt;Node3</title>
<path fill="none" stroke="midnightblue" d="M255.806,-380.486C232.464,-372.866 207.464,-361.32 189,-344 132.697,-291.186 107.864,-197.795 99.494,-158.142"/>
<polygon fill="midnightblue" stroke="midnightblue" points="102.911,-157.381 97.5197,-148.261 96.0468,-158.753 102.911,-157.381"/>
</g>
<!-- Node4 -->
<g id="node4" class="node"><title>Node4</title>
<polygon fill="white" stroke="#bfbfbf" points="136.5,-129 136.5,-148 187.5,-148 187.5,-129 136.5,-129"/>
<text text-anchor="middle" x="162" y="-136" font-family="Helvetica,sans-Serif" font-size="10.00">numeric</text>
</g>
<!-- Node1&#45;&gt;Node4 -->
<g id="edge3" class="edge"><title>Node1&#45;&gt;Node4</title>
<path fill="none" stroke="midnightblue" d="M272.302,-380.5C251.955,-372.621 229.581,-360.885 214,-344 164.933,-290.828 160.625,-197.98 161.219,-158.324"/>
<polygon fill="midnightblue" stroke="midnightblue" points="164.72,-158.318 161.499,-148.225 157.723,-158.124 164.72,-158.318"/>
</g>
<!-- Node5 -->
<g id="node5" class="node"><title>Node5</title>
<polygon fill="white" stroke="#bfbfbf" points="205.5,-129 205.5,-148 264.5,-148 264.5,-129 205.5,-129"/>
<text text-anchor="middle" x="235" y="-136" font-family="Helvetica,sans-Serif" font-size="10.00">stdexcept</text>
</g>
<!-- Node1&#45;&gt;Node5 -->
<g id="edge4" class="edge"><title>Node1&#45;&gt;Node5</title>
<path fill="none" stroke="midnightblue" d="M289.338,-380.497C272.711,-371.988 253.263,-359.716 240,-344 198.589,-294.929 198.224,-273.035 186,-210 184.308,-201.274 182.66,-198.238 186,-190 191.722,-175.886 203.492,-163.542 214.062,-154.591"/>
<polygon fill="midnightblue" stroke="midnightblue" points="216.491,-157.132 222.144,-148.172 212.137,-151.651 216.491,-157.132"/>
</g>
<!-- Node6 -->
<g id="node6" class="node"><title>Node6</title>
<polygon fill="white" stroke="#bfbfbf" points="1107,-319 1107,-338 1145,-338 1145,-319 1107,-319"/>
<text text-anchor="middle" x="1126" y="-326" font-family="Helvetica,sans-Serif" font-size="10.00">tuple</text>
</g>
<!-- Node1&#45;&gt;Node6 -->
<g id="edge5" class="edge"><title>Node1&#45;&gt;Node6</title>
<path fill="none" stroke="midnightblue" d="M389.25,-393.088C551.423,-389.202 960.414,-376.404 1093,-344 1095.36,-343.423 1097.76,-342.688 1100.14,-341.856"/>
<polygon fill="midnightblue" stroke="midnightblue" points="1101.64,-345.026 1109.61,-338.045 1099.02,-338.532 1101.64,-345.026"/>
</g>
<!-- Node7 -->
<g id="node7" class="node"><title>Node7</title>
<g id="a_node7"><a xlink:href="Event_8hpp.html" target="_top" xlink:title="Core/Event.hpp">
<polygon fill="white" stroke="black" points="233.5,-252 233.5,-271 318.5,-271 318.5,-252 233.5,-252"/>
<text text-anchor="middle" x="276" y="-259" font-family="Helvetica,sans-Serif" font-size="10.00">Core/Event.hpp</text>
</a>
</g>
</g>
<!-- Node1&#45;&gt;Node7 -->
<g id="edge6" class="edge"><title>Node1&#45;&gt;Node7</title>
<path fill="none" stroke="midnightblue" d="M316.525,-380.406C312.644,-370.308 307.372,-356.364 303,-344 295.41,-322.534 287.265,-297.669 281.929,-281.103"/>
<polygon fill="midnightblue" stroke="midnightblue" points="285.11,-279.559 278.726,-271.104 278.444,-281.695 285.11,-279.559"/>
</g>
<!-- Node8 -->
<g id="node8" class="node"><title>Node8</title>
<g id="a_node8"><a xlink:href="Particle_8hpp.html" target="_top" xlink:title="Particle and FourMomentum class. ">
<polygon fill="white" stroke="red" points="195,-190.5 195,-209.5 287,-209.5 287,-190.5 195,-190.5"/>
<text text-anchor="middle" x="241" y="-197.5" font-family="Helvetica,sans-Serif" font-size="10.00">Core/Particle.hpp</text>
</a>
</g>
</g>
<!-- Node1&#45;&gt;Node8 -->
<g id="edge17" class="edge"><title>Node1&#45;&gt;Node8</title>
<path fill="none" stroke="midnightblue" d="M304.338,-380.466C280.732,-360.453 240.015,-321.205 224,-277 216.973,-257.604 224.361,-234.331 231.478,-218.693"/>
<polygon fill="midnightblue" stroke="midnightblue" points="234.661,-220.151 235.961,-209.636 228.388,-217.046 234.661,-220.151"/>
</g>
<!-- Node11 -->
<g id="node11" class="node"><title>Node11</title>
<g id="a_node11"><a xlink:href="Logging_8hpp.html" target="_top" xlink:title="Core/Logging.hpp">
<polygon fill="white" stroke="black" points="973.5,-67.5 973.5,-86.5 1066.5,-86.5 1066.5,-67.5 973.5,-67.5"/>
<text text-anchor="middle" x="1020" y="-74.5" font-family="Helvetica,sans-Serif" font-size="10.00">Core/Logging.hpp</text>
</a>
</g>
</g>
<!-- Node1&#45;&gt;Node11 -->
<g id="edge15" class="edge"><title>Node1&#45;&gt;Node11</title>
<path fill="none" stroke="midnightblue" d="M389.179,-389.834C574.445,-376.075 1079,-332.205 1079,-262.5 1079,-262.5 1079,-262.5 1079,-199 1079,-164.183 1076.26,-153.789 1060,-123 1054.29,-112.185 1045.44,-101.856 1037.52,-93.8282"/>
<polygon fill="midnightblue" stroke="midnightblue" points="1039.69,-91.0536 1030.06,-86.6342 1034.83,-96.0938 1039.69,-91.0536"/>
</g>
<!-- Node13 -->
<g id="node13" class="node"><title>Node13</title>
<g id="a_node13"><a xlink:href="Properties_8hpp.html" target="_top" xlink:title="Core/Properties.hpp">
<polygon fill="white" stroke="black" points="718,-190.5 718,-209.5 822,-209.5 822,-190.5 718,-190.5"/>
<text text-anchor="middle" x="770" y="-197.5" font-family="Helvetica,sans-Serif" font-size="10.00">Core/Properties.hpp</text>
</a>
</g>
</g>
<!-- Node1&#45;&gt;Node13 -->
<g id="edge18" class="edge"><title>Node1&#45;&gt;Node13</title>
<path fill="none" stroke="midnightblue" d="M389.294,-386.598C501.267,-371.903 718.015,-336.359 763,-277 775.355,-260.697 775.354,-236.42 773.407,-219.714"/>
<polygon fill="midnightblue" stroke="midnightblue" points="776.827,-218.916 771.876,-209.549 769.905,-219.959 776.827,-218.916"/>
</g>
<!-- Node19 -->
<g id="node19" class="node"><title>Node19</title>
<g id="a_node19"><a xlink:href="DataSet_8hpp.html" target="_top" xlink:title="Data/DataSet.hpp">
<polygon fill="white" stroke="black" points="312.5,-319 312.5,-338 407.5,-338 407.5,-319 312.5,-319"/>
<text text-anchor="middle" x="360" y="-326" font-family="Helvetica,sans-Serif" font-size="10.00">Data/DataSet.hpp</text>
</a>
</g>
</g>
<!-- Node1&#45;&gt;Node19 -->
<g id="edge29" class="edge"><title>Node1&#45;&gt;Node19</title>
<path fill="none" stroke="midnightblue" d="M330.245,-380.396C335.994,-370.562 343.702,-357.378 349.832,-346.892"/>
<polygon fill="midnightblue" stroke="midnightblue" points="352.892,-348.594 354.917,-338.195 346.848,-345.061 352.892,-348.594"/>
</g>
<!-- Node21 -->
<g id="node21" class="node"><title>Node21</title>
<g id="a_node21"><a xlink:href="HelicityKinematics_8hpp.html" target="_top" xlink:title="Physics/HelicityFormalism\l/HelicityKinematics.hpp">
<polygon fill="white" stroke="black" points="445,-313.5 445,-343.5 579,-343.5 579,-313.5 445,-313.5"/>
<text text-anchor="start" x="453" y="-331.5" font-family="Helvetica,sans-Serif" font-size="10.00">Physics/HelicityFormalism</text>
<text text-anchor="middle" x="512" y="-320.5" font-family="Helvetica,sans-Serif" font-size="10.00">/HelicityKinematics.hpp</text>
</a>
</g>
</g>
<!-- Node1&#45;&gt;Node21 -->
<g id="edge33" class="edge"><title>Node1&#45;&gt;Node21</title>
<path fill="none" stroke="midnightblue" d="M363.227,-380.396C391.984,-370.558 430.543,-357.367 461.2,-346.879"/>
<polygon fill="midnightblue" stroke="midnightblue" points="462.525,-350.125 470.853,-343.577 460.259,-343.502 462.525,-350.125"/>
</g>
<!-- Node25 -->
<g id="node25" class="node"><title>Node25</title>
<polygon fill="white" stroke="#bfbfbf" points="1163.5,-319 1163.5,-338 1248.5,-338 1248.5,-319 1163.5,-319"/>
<text text-anchor="middle" x="1206" y="-326" font-family="Helvetica,sans-Serif" font-size="10.00">qft++/Vector4.h</text>
</g>
<!-- Node1&#45;&gt;Node25 -->
<g id="edge45" class="edge"><title>Node1&#45;&gt;Node25</title>
<path fill="none" stroke="midnightblue" d="M389.136,-395.207C531.283,-395.66 872.674,-391.215 1154,-344 1159.13,-343.14 1164.47,-341.972 1169.7,-340.67"/>
<polygon fill="midnightblue" stroke="midnightblue" points="1170.76,-344.008 1179.52,-338.047 1168.96,-337.245 1170.76,-344.008"/>
</g>
<!-- Node7&#45;&gt;Node8 -->
<g id="edge7" class="edge"><title>Node7&#45;&gt;Node8</title>
<path fill="none" stroke="midnightblue" d="M270.985,-251.975C265.839,-243.227 257.688,-229.369 251.182,-218.309"/>
<polygon fill="midnightblue" stroke="midnightblue" points="254.092,-216.354 246.005,-209.509 248.059,-219.903 254.092,-216.354"/>
</g>
<!-- Node9 -->
<g id="node9" class="node"><title>Node9</title>
<polygon fill="white" stroke="#bfbfbf" points="537,-6 537,-25 581,-25 581,-6 537,-6"/>
<text text-anchor="middle" x="559" y="-13" font-family="Helvetica,sans-Serif" font-size="10.00">vector</text>
</g>
<!-- Node7&#45;&gt;Node9 -->
<g id="edge14" class="edge"><title>Node7&#45;&gt;Node9</title>
<path fill="none" stroke="midnightblue" d="M279.504,-251.765C294.561,-214.255 353.087,-68.6539 355,-67 403.827,-24.7824 482.594,-16.7977 526.601,-15.8935"/>
<polygon fill="midnightblue" stroke="midnightblue" points="526.774,-19.3921 536.741,-15.799 526.709,-12.3924 526.774,-19.3921"/>
</g>
<!-- Node8&#45;&gt;Node2 -->
<g id="edge8" class="edge"><title>Node8&#45;&gt;Node2</title>
<path fill="none" stroke="midnightblue" d="M201.809,-190.439C165.879,-182.248 111.376,-168.953 65,-154 62.7284,-153.268 60.3952,-152.468 58.0583,-151.634"/>
<polygon fill="midnightblue" stroke="midnightblue" points="59.1733,-148.314 48.5809,-148.084 56.7179,-154.869 59.1733,-148.314"/>
</g>
<!-- Node8&#45;&gt;Node3 -->
<g id="edge9" class="edge"><title>Node8&#45;&gt;Node3</title>
<path fill="none" stroke="midnightblue" d="M218.12,-190.444C194.982,-181.679 158.267,-167.468 127,-154 125.803,-153.484 124.583,-152.951 123.354,-152.406"/>
<polygon fill="midnightblue" stroke="midnightblue" points="124.498,-149.081 113.947,-148.123 121.598,-155.452 124.498,-149.081"/>
</g>
<!-- Node8&#45;&gt;Node4 -->
<g id="edge10" class="edge"><title>Node8&#45;&gt;Node4</title>
<path fill="none" stroke="midnightblue" d="M229.681,-190.475C217.127,-181.02 196.649,-165.596 181.501,-154.187"/>
<polygon fill="midnightblue" stroke="midnightblue" points="183.391,-151.23 173.298,-148.009 179.18,-156.821 183.391,-151.23"/>
</g>
<!-- Node8&#45;&gt;Node5 -->
<g id="edge11" class="edge"><title>Node8&#45;&gt;Node5</title>
<path fill="none" stroke="midnightblue" d="M240.14,-190.475C239.294,-182.08 237.973,-168.981 236.882,-158.163"/>
<polygon fill="midnightblue" stroke="midnightblue" points="240.344,-157.607 235.858,-148.009 233.379,-158.31 240.344,-157.607"/>
</g>
<!-- Node8&#45;&gt;Node9 -->
<g id="edge12" class="edge"><title>Node8&#45;&gt;Node9</title>
<path fill="none" stroke="midnightblue" d="M247.78,-190.301C254.554,-181.426 265.072,-167.131 273,-154 295.396,-116.906 282.614,-93.3657 317,-67 349.544,-42.0461 468.359,-26.2065 526.506,-19.7795"/>
<polygon fill="midnightblue" stroke="midnightblue" points="527.055,-23.2406 536.622,-18.6889 526.305,-16.281 527.055,-23.2406"/>
</g>
<!-- Node10 -->
<g id="node10" class="node"><title>Node10</title>
<polygon fill="white" stroke="#bfbfbf" points="473.5,-123.5 473.5,-153.5 574.5,-153.5 574.5,-123.5 473.5,-123.5"/>
<text text-anchor="start" x="481.5" y="-141.5" font-family="Helvetica,sans-Serif" font-size="10.00">boost/property_tree</text>
<text text-anchor="middle" x="524" y="-130.5" font-family="Helvetica,sans-Serif" font-size="10.00">/ptree.hpp</text>
</g>
<!-- Node8&#45;&gt;Node10 -->
<g id="edge13" class="edge"><title>Node8&#45;&gt;Node10</title>
<path fill="none" stroke="midnightblue" d="M281.547,-190.475C329.172,-180.462 408.631,-163.756 463.536,-152.212"/>
<polygon fill="midnightblue" stroke="midnightblue" points="464.424,-155.602 473.489,-150.12 462.983,-148.752 464.424,-155.602"/>
</g>
<!-- Node12 -->
<g id="node12" class="node"><title>Node12</title>
<polygon fill="white" stroke="#bfbfbf" points="956.5,-0.5 956.5,-30.5 1083.5,-30.5 1083.5,-0.5 956.5,-0.5"/>
<text text-anchor="start" x="964.5" y="-18.5" font-family="Helvetica,sans-Serif" font-size="10.00">ThirdParty/easyloggingpp</text>
<text text-anchor="middle" x="1020" y="-7.5" font-family="Helvetica,sans-Serif" font-size="10.00">/easylogging++.h</text>
</g>
<!-- Node11&#45;&gt;Node12 -->
<g id="edge16" class="edge"><title>Node11&#45;&gt;Node12</title>
<path fill="none" stroke="midnightblue" d="M1020,-67.4751C1020,-60.471 1020,-50.1919 1020,-40.6956"/>
<polygon fill="midnightblue" stroke="midnightblue" points="1023.5,-40.5229 1020,-30.523 1016.5,-40.523 1023.5,-40.5229"/>
</g>
<!-- Node13&#45;&gt;Node9 -->
<g id="edge28" class="edge"><title>Node13&#45;&gt;Node9</title>
<path fill="none" stroke="midnightblue" d="M764.577,-190.395C749.707,-167.417 705.983,-103.866 655,-67 634.017,-51.8272 607.88,-38.3848 588.178,-29.191"/>
<polygon fill="midnightblue" stroke="midnightblue" points="589.624,-26.0038 579.074,-25.0301 586.714,-32.3703 589.624,-26.0038"/>
</g>
<!-- Node13&#45;&gt;Node10 -->
<g id="edge25" class="edge"><title>Node13&#45;&gt;Node10</title>
<path fill="none" stroke="midnightblue" d="M734.754,-190.475C695.56,-180.995 631.561,-165.516 584.355,-154.098"/>
<polygon fill="midnightblue" stroke="midnightblue" points="585.095,-150.676 574.552,-151.727 583.449,-157.48 585.095,-150.676"/>
</g>
<!-- Node14 -->
<g id="node14" class="node"><title>Node14</title>
<g id="a_node14"><a xlink:href="Exceptions_8hpp.html" target="_top" xlink:title="ComPWA exceptions. ">
<polygon fill="white" stroke="red" points="895,-129 895,-148 1003,-148 1003,-129 895,-129"/>
<text text-anchor="middle" x="949" y="-136" font-family="Helvetica,sans-Serif" font-size="10.00">Core/Exceptions.hpp</text>
</a>
</g>
</g>
<!-- Node13&#45;&gt;Node14 -->
<g id="edge19" class="edge"><title>Node13&#45;&gt;Node14</title>
<path fill="none" stroke="midnightblue" d="M795.646,-190.475C826.617,-180.18 878.873,-162.81 913.651,-151.25"/>
<polygon fill="midnightblue" stroke="midnightblue" points="915.016,-154.485 923.401,-148.009 912.808,-147.842 915.016,-154.485"/>
</g>
<!-- Node15 -->
<g id="node15" class="node"><title>Node15</title>
<g id="a_node15"><a xlink:href="FitParameter_8hpp.html" target="_top" xlink:title="Core/FitParameter.hpp">
<polygon fill="white" stroke="red" points="761,-129 761,-148 877,-148 877,-129 761,-129"/>
<text text-anchor="middle" x="819" y="-136" font-family="Helvetica,sans-Serif" font-size="10.00">Core/FitParameter.hpp</text>
</a>
</g>
</g>
<!-- Node13&#45;&gt;Node15 -->
<g id="edge20" class="edge"><title>Node13&#45;&gt;Node15</title>
<path fill="none" stroke="midnightblue" d="M777.021,-190.475C784.443,-181.462 796.333,-167.025 805.567,-155.812"/>
<polygon fill="midnightblue" stroke="midnightblue" points="808.337,-157.953 811.993,-148.009 802.934,-153.503 808.337,-157.953"/>
</g>
<!-- Node17 -->
<g id="node17" class="node"><title>Node17</title>
<polygon fill="white" stroke="#bfbfbf" points="669.5,-129 669.5,-148 704.5,-148 704.5,-129 669.5,-129"/>
<text text-anchor="middle" x="687" y="-136" font-family="Helvetica,sans-Serif" font-size="10.00">map</text>
</g>
<!-- Node13&#45;&gt;Node17 -->
<g id="edge26" class="edge"><title>Node13&#45;&gt;Node17</title>
<path fill="none" stroke="midnightblue" d="M758.108,-190.475C744.795,-180.931 723,-165.307 707.043,-153.868"/>
<polygon fill="midnightblue" stroke="midnightblue" points="709.036,-150.991 698.87,-148.009 704.958,-156.68 709.036,-150.991"/>
</g>
<!-- Node18 -->
<g id="node18" class="node"><title>Node18</title>
<polygon fill="white" stroke="#bfbfbf" points="1021,-129 1021,-148 1051,-148 1051,-129 1021,-129"/>
<text text-anchor="middle" x="1036" y="-136" font-family="Helvetica,sans-Serif" font-size="10.00">set</text>
</g>
<!-- Node13&#45;&gt;Node18 -->
<g id="edge27" class="edge"><title>Node13&#45;&gt;Node18</title>
<path fill="none" stroke="midnightblue" d="M822.45,-194.723C872.482,-189.383 949.295,-177.865 1012,-154 1012.88,-153.667 1013.76,-153.301 1014.63,-152.911"/>
<polygon fill="midnightblue" stroke="midnightblue" points="1016.55,-155.857 1023.73,-148.069 1013.26,-149.678 1016.55,-155.857"/>
</g>
<!-- Node15&#45;&gt;Node9 -->
<g id="edge24" class="edge"><title>Node15&#45;&gt;Node9</title>
<path fill="none" stroke="midnightblue" d="M826.27,-128.656C837.248,-114.181 855.239,-85.2218 840,-67 808.599,-29.4521 658.394,-19.7824 591.39,-17.3238"/>
<polygon fill="midnightblue" stroke="midnightblue" points="591.12,-13.8129 581.009,-16.9767 590.886,-20.809 591.12,-13.8129"/>
</g>
<!-- Node15&#45;&gt;Node11 -->
<g id="edge23" class="edge"><title>Node15&#45;&gt;Node11</title>
<path fill="none" stroke="midnightblue" d="M847.798,-128.975C882.874,-118.592 942.263,-101.012 981.307,-89.4538"/>
<polygon fill="midnightblue" stroke="midnightblue" points="982.66,-92.7036 991.255,-86.5091 980.673,-85.9916 982.66,-92.7036"/>
</g>
<!-- Node16 -->
<g id="node16" class="node"><title>Node16</title>
<g id="a_node16"><a xlink:href="Function_8hpp.html" target="_top" xlink:title="Core/Function.hpp">
<polygon fill="white" stroke="red" points="734.5,-67.5 734.5,-86.5 831.5,-86.5 831.5,-67.5 734.5,-67.5"/>
<text text-anchor="middle" x="783" y="-74.5" font-family="Helvetica,sans-Serif" font-size="10.00">Core/Function.hpp</text>
</a>
</g>
</g>
<!-- Node15&#45;&gt;Node16 -->
<g id="edge21" class="edge"><title>Node15&#45;&gt;Node16</title>
<path fill="none" stroke="midnightblue" d="M813.842,-128.975C808.549,-120.227 800.165,-106.369 793.473,-95.3093"/>
<polygon fill="midnightblue" stroke="midnightblue" points="796.32,-93.2531 788.148,-86.5091 790.33,-96.8768 796.32,-93.2531"/>
</g>
<!-- Node16&#45;&gt;Node9 -->
<g id="edge22" class="edge"><title>Node16&#45;&gt;Node9</title>
<path fill="none" stroke="midnightblue" d="M750.906,-67.4751C708.326,-56.1648 633.596,-36.3145 591.042,-25.0112"/>
<polygon fill="midnightblue" stroke="midnightblue" points="591.772,-21.5837 581.208,-22.3991 589.975,-28.3491 591.772,-21.5837"/>
</g>
<!-- Node19&#45;&gt;Node7 -->
<g id="edge31" class="edge"><title>Node19&#45;&gt;Node7</title>
<path fill="none" stroke="midnightblue" d="M348.671,-318.734C334.943,-308.111 311.601,-290.049 295.08,-277.264"/>
<polygon fill="midnightblue" stroke="midnightblue" points="297.2,-274.479 287.149,-271.127 292.916,-280.015 297.2,-274.479"/>
</g>
<!-- Node19&#45;&gt;Node16 -->
<g id="edge32" class="edge"><title>Node19&#45;&gt;Node16</title>
<path fill="none" stroke="midnightblue" d="M367.701,-318.655C375.922,-308.917 388.981,-292.571 398,-277 435.322,-212.563 404.856,-168.244 464,-123 484.25,-107.509 637.486,-91.2563 723.994,-83.1856"/>
<polygon fill="midnightblue" stroke="midnightblue" points="724.564,-86.6479 734.199,-82.2425 723.92,-79.6776 724.564,-86.6479"/>
</g>
<!-- Node20 -->
<g id="node20" class="node"><title>Node20</title>
<polygon fill="white" stroke="#bfbfbf" points="337,-252 337,-271 389,-271 389,-252 337,-252"/>
<text text-anchor="middle" x="363" y="-259" font-family="Helvetica,sans-Serif" font-size="10.00">memory</text>
</g>
<!-- Node19&#45;&gt;Node20 -->
<g id="edge30" class="edge"><title>Node19&#45;&gt;Node20</title>
<path fill="none" stroke="midnightblue" d="M360.405,-318.734C360.845,-309.183 361.564,-293.618 362.133,-281.283"/>
<polygon fill="midnightblue" stroke="midnightblue" points="365.637,-281.278 362.602,-271.127 358.644,-280.955 365.637,-281.278"/>
</g>
<!-- Node21&#45;&gt;Node9 -->
<g id="edge34" class="edge"><title>Node21&#45;&gt;Node9</title>
<path fill="none" stroke="midnightblue" d="M497.401,-313.436C474.612,-289.783 433.789,-239.734 440,-190 447.059,-133.479 440.377,-111.446 476,-67 489.529,-50.1202 510.334,-37.4788 527.729,-29.0656"/>
<polygon fill="midnightblue" stroke="midnightblue" points="529.343,-32.176 536.974,-24.8265 526.425,-25.813 529.343,-32.176"/>
</g>
<!-- Node22 -->
<g id="node22" class="node"><title>Node22</title>
<g id="a_node22"><a xlink:href="Kinematics_8hpp.html" target="_top" xlink:title="Core/Kinematics.hpp">
<polygon fill="white" stroke="red" points="505,-67.5 505,-86.5 613,-86.5 613,-67.5 505,-67.5"/>
<text text-anchor="middle" x="559" y="-74.5" font-family="Helvetica,sans-Serif" font-size="10.00">Core/Kinematics.hpp</text>
</a>
</g>
</g>
<!-- Node21&#45;&gt;Node22 -->
<g id="edge35" class="edge"><title>Node21&#45;&gt;Node22</title>
<path fill="none" stroke="midnightblue" d="M524.298,-313.158C541.398,-292.169 571.548,-251.097 583,-210 593.38,-172.753 592.378,-160.512 583,-123 580.561,-113.245 575.563,-103.29 570.757,-95.231"/>
<polygon fill="midnightblue" stroke="midnightblue" points="573.691,-93.3225 565.367,-86.768 567.787,-97.0828 573.691,-93.3225"/>
</g>
<!-- Node23 -->
<g id="node23" class="node"><title>Node23</title>
<g id="a_node23"><a xlink:href="ParticleStateTransitionKinematicsInfo_8hpp.html" target="_top" xlink:title="Physics/ParticleStateTransition\lKinematicsInfo.hpp">
<polygon fill="white" stroke="red" points="600,-246.5 600,-276.5 754,-276.5 754,-246.5 600,-246.5"/>
<text text-anchor="start" x="608" y="-264.5" font-family="Helvetica,sans-Serif" font-size="10.00">Physics/ParticleStateTransition</text>
<text text-anchor="middle" x="677" y="-253.5" font-family="Helvetica,sans-Serif" font-size="10.00">KinematicsInfo.hpp</text>
</a>
</g>
</g>
<!-- Node21&#45;&gt;Node23 -->
<g id="edge37" class="edge"><title>Node21&#45;&gt;Node23</title>
<path fill="none" stroke="midnightblue" d="M547.803,-313.396C572.452,-303.686 605.393,-290.709 631.843,-280.289"/>
<polygon fill="midnightblue" stroke="midnightblue" points="633.246,-283.498 641.267,-276.577 630.68,-276.985 633.246,-283.498"/>
</g>
<!-- Node24 -->
<g id="node24" class="node"><title>Node24</title>
<g id="a_node24"><a xlink:href="SubSystem_8hpp.html" target="_top" xlink:title="Contains SubSystem class. ">
<polygon fill="white" stroke="red" points="449.5,-190.5 449.5,-209.5 574.5,-209.5 574.5,-190.5 449.5,-190.5"/>
<text text-anchor="middle" x="512" y="-197.5" font-family="Helvetica,sans-Serif" font-size="10.00">Physics/SubSystem.hpp</text>
</a>
</g>
</g>
<!-- Node21&#45;&gt;Node24 -->
<g id="edge42" class="edge"><title>Node21&#45;&gt;Node24</title>
<path fill="none" stroke="midnightblue" d="M512,-313.479C512,-290.719 512,-245.702 512,-220.058"/>
<polygon fill="midnightblue" stroke="midnightblue" points="515.5,-219.789 512,-209.789 508.5,-219.789 515.5,-219.789"/>
</g>
<!-- Node22&#45;&gt;Node9 -->
<g id="edge36" class="edge"><title>Node22&#45;&gt;Node9</title>
<path fill="none" stroke="midnightblue" d="M559,-67.4751C559,-59.0803 559,-45.9806 559,-35.1631"/>
<polygon fill="midnightblue" stroke="midnightblue" points="562.5,-35.0091 559,-25.0091 555.5,-35.0091 562.5,-35.0091"/>
</g>
<!-- Node23&#45;&gt;Node8 -->
<g id="edge40" class="edge"><title>Node23&#45;&gt;Node8</title>
<path fill="none" stroke="midnightblue" d="M599.805,-249.965C512.963,-238.114 374.015,-219.152 296.992,-208.641"/>
<polygon fill="midnightblue" stroke="midnightblue" points="297.384,-205.162 287.002,-207.278 296.437,-212.098 297.384,-205.162"/>
</g>
<!-- Node23&#45;&gt;Node9 -->
<g id="edge39" class="edge"><title>Node23&#45;&gt;Node9</title>
<path fill="none" stroke="midnightblue" d="M675.899,-246.149C672.704,-212.273 661.016,-125.777 622,-67 612.111,-52.1021 596.435,-39.5124 583.194,-30.6295"/>
<polygon fill="midnightblue" stroke="midnightblue" points="584.829,-27.5212 574.517,-25.0893 581.062,-33.4211 584.829,-27.5212"/>
</g>
<!-- Node23&#45;&gt;Node13 -->
<g id="edge41" class="edge"><title>Node23&#45;&gt;Node13</title>
<path fill="none" stroke="midnightblue" d="M699.04,-246.399C713.808,-236.951 733.177,-224.559 747.947,-215.109"/>
<polygon fill="midnightblue" stroke="midnightblue" points="749.93,-217.995 756.468,-209.658 746.158,-212.099 749.93,-217.995"/>
</g>
<!-- Node23&#45;&gt;Node17 -->
<g id="edge38" class="edge"><title>Node23&#45;&gt;Node17</title>
<path fill="none" stroke="midnightblue" d="M678.186,-246.145C680,-224.203 683.461,-182.327 685.464,-158.091"/>
<polygon fill="midnightblue" stroke="midnightblue" points="688.958,-158.306 686.293,-148.052 681.981,-157.73 688.958,-158.306"/>
</g>
<!-- Node24&#45;&gt;Node9 -->
<g id="edge43" class="edge"><title>Node24&#45;&gt;Node9</title>
<path fill="none" stroke="midnightblue" d="M497.63,-190.33C486.12,-182.469 470.811,-169.722 464,-154 458.523,-141.358 460.464,-136.316 464,-123 471.358,-95.2945 477.377,-88.7928 496,-67 507.912,-53.0596 524.1,-40.18 537.084,-30.917"/>
<polygon fill="midnightblue" stroke="midnightblue" points="539.238,-33.6826 545.469,-25.1134 535.254,-27.9269 539.238,-33.6826"/>
</g>
<!-- Node24&#45;&gt;Node10 -->
<g id="edge44" class="edge"><title>Node24&#45;&gt;Node10</title>
<path fill="none" stroke="midnightblue" d="M513.719,-190.475C515.147,-183.396 517.25,-172.97 519.182,-163.39"/>
<polygon fill="midnightblue" stroke="midnightblue" points="522.626,-164.018 521.172,-153.523 515.764,-162.634 522.626,-164.018"/>
</g>
</g>
</svg>
        <g id="navigator" transform="translate(0 0)" fill="#404254">
                <rect fill="#f2f5e9" fill-opacity="0.5" stroke="#606060" stroke-width=".5" x="0" y="0" width="60" height="60"/>
                <use id="zoomplus" xlink:href="#zoomPlus" x="17" y="9" onmousedown="handleZoom(evt,'in')"/>
                <use id="zoomminus" xlink:href="#zoomMin" x="42" y="9" onmousedown="handleZoom(evt,'out')"/>
                <use id="reset" xlink:href="#resetDef" x="30" y="36" onmousedown="handleReset()"/>
                <g id="arrowUp" xlink:href="#dirArrow" transform="translate(30 24)" onmousedown="handlePan(0,-1)">
                  <use xlink:href="#rim" fill="#404040">
                        <set attributeName="fill" to="#808080" begin="arrowUp.mouseover" end="arrowUp.mouseout"/>
                  </use>
                  <path fill="none" stroke="white" stroke-width="1.5" d="M0,-3.0v7 M-2.5,-0.5L0,-3.0L2.5,-0.5"/>
                </g>
                <g id="arrowRight" xlink:href="#dirArrow" transform="rotate(90) translate(36 -43)" onmousedown="handlePan(1,0)">
                  <use xlink:href="#rim" fill="#404040">
                        <set attributeName="fill" to="#808080" begin="arrowRight.mouseover" end="arrowRight.mouseout"/>
                  </use>
                  <path fill="none" stroke="white" stroke-width="1.5" d="M0,-3.0v7 M-2.5,-0.5L0,-3.0L2.5,-0.5"/>
                </g>
                <g id="arrowDown" xlink:href="#dirArrow" transform="rotate(180) translate(-30 -48)" onmousedown="handlePan(0,1)">
                  <use xlink:href="#rim" fill="#404040">
                        <set attributeName="fill" to="#808080" begin="arrowDown.mouseover" end="arrowDown.mouseout"/>
                  </use>
                  <path fill="none" stroke="white" stroke-width="1.5" d="M0,-3.0v7 M-2.5,-0.5L0,-3.0L2.5,-0.5"/>
                </g>
                <g id="arrowLeft" xlink:href="#dirArrow" transform="rotate(270) translate(-36 17)" onmousedown="handlePan(-1,0)">
                  <use xlink:href="#rim" fill="#404040">
                        <set attributeName="fill" to="#808080" begin="arrowLeft.mouseover" end="arrowLeft.mouseout"/>
                  </use>
                  <path fill="none" stroke="white" stroke-width="1.5" d="M0,-3.0v7 M-2.5,-0.5L0,-3.0L2.5,-0.5"/>
                </g>
        </g>
        <svg viewBox="0 0 15 15" width="100%" height="30px" preserveAspectRatio="xMaxYMin meet">
         <g id="arrow_out" transform="scale(0.3 0.3)">
          <a xlink:href="HelicityKinematics_8cpp__incl_org.svg" target="_base">
           <rect id="button" ry="5" rx="5" y="6" x="6" height="38" width="38"
                fill="#f2f5e9" fill-opacity="0.5" stroke="#606060" stroke-width="1.0"/>
           <path id="arrow"
             d="M 11.500037,31.436501 C 11.940474,20.09759 22.043105,11.32322 32.158766,21.979434 L 37.068811,17.246167 C 37.068811,17.246167 37.088388,32 37.088388,32 L 22.160133,31.978069 C 22.160133,31.978069 26.997745,27.140456 26.997745,27.140456 C 18.528582,18.264221 13.291696,25.230495 11.500037,31.436501 z"
             style="fill:#404040;"/>
          </a>
         </g>
        </svg>
</svg>
