<?xml version="1.0" encoding="UTF-8" standalone="no"?>
<!DOCTYPE svg PUBLIC "-//W3C//DTD SVG 1.1//EN"
 "http://www.w3.org/Graphics/SVG/1.1/DTD/svg11.dtd">
<!-- Generated by graphviz version 2.38.0 (20140413.2041)
 -->
<!-- Title: Graphical Class Hierarchy Pages: 1 -->
<svg width="415pt" height="370pt"
 viewBox="0.00 0.00 415.00 370.00" xmlns="http://www.w3.org/2000/svg" xmlns:xlink="http://www.w3.org/1999/xlink">
<g id="graph0" class="graph" transform="scale(1 1) rotate(0) translate(4 366)">
<title>Graphical Class Hierarchy</title>
<polygon fill="white" stroke="none" points="-4,4 -4,-366 411,-366 411,4 -4,4"/>
<!-- Node1 -->
<g id="node1" class="node"><title>Node1</title>
<polygon fill="white" stroke="#bfbfbf" points="0,-171.5 0,-190.5 59,-190.5 59,-171.5 0,-171.5"/>
<text text-anchor="middle" x="29.5" y="-178.5" font-family="Helvetica,sans-Serif" font-size="10.00">exception</text>
</g>
<!-- Node2 -->
<g id="node2" class="node"><title>Node2</title>
<g id="a_node2"><a xlink:href="classComPWA_1_1Exception.html" target="_top" xlink:title="ComPWA Exceptions base class. ">
<polygon fill="white" stroke="black" points="95,-171.5 95,-190.5 205,-190.5 205,-171.5 95,-171.5"/>
<text text-anchor="middle" x="150" y="-178.5" font-family="Helvetica,sans-Serif" font-size="10.00">ComPWA::Exception</text>
</a>
</g>
</g>
<!-- Node1&#45;&gt;Node2 -->
<g id="edge1" class="edge"><title>Node1&#45;&gt;Node2</title>
<path fill="none" stroke="midnightblue" d="M69.4019,-181C77.4696,-181 86.1103,-181 94.6163,-181"/>
<polygon fill="midnightblue" stroke="midnightblue" points="69.1856,-177.5 59.1855,-181 69.1855,-184.5 69.1856,-177.5"/>
</g>
<!-- Node3 -->
<g id="node3" class="node"><title>Node3</title>
<g id="a_node3"><a xlink:href="classComPWA_1_1BadConfig.html" target="_top" xlink:title="Config is not complete. ">
<polygon fill="white" stroke="black" points="267.5,-342.5 267.5,-361.5 380.5,-361.5 380.5,-342.5 267.5,-342.5"/>
<text text-anchor="middle" x="324" y="-349.5" font-family="Helvetica,sans-Serif" font-size="10.00">ComPWA::BadConfig</text>
</a>
</g>
</g>
<!-- Node2&#45;&gt;Node3 -->
<g id="edge2" class="edge"><title>Node2&#45;&gt;Node3</title>
<path fill="none" stroke="midnightblue" d="M156.869,-200.386C167.813,-233.091 194.535,-298.983 241,-333 248.782,-338.697 258.002,-342.72 267.401,-345.552"/>
<polygon fill="midnightblue" stroke="midnightblue" points="160.138,-199.118 153.757,-190.66 153.472,-201.251 160.138,-199.118"/>
</g>
<!-- Node4 -->
<g id="node4" class="node"><title>Node4</title>
<g id="a_node4"><a xlink:href="classComPWA_1_1BadIndex.html" target="_top" xlink:title="Index out of range. ">
<polygon fill="white" stroke="black" points="270,-304.5 270,-323.5 378,-323.5 378,-304.5 270,-304.5"/>
<text text-anchor="middle" x="324" y="-311.5" font-family="Helvetica,sans-Serif" font-size="10.00">ComPWA::BadIndex</text>
</a>
</g>
</g>
<!-- Node2&#45;&gt;Node4 -->
<g id="edge3" class="edge"><title>Node2&#45;&gt;Node4</title>
<path fill="none" stroke="midnightblue" d="M160.548,-199.846C174.568,-225.524 203.211,-271.039 241,-295 249.639,-300.478 259.685,-304.38 269.721,-307.16"/>
<polygon fill="midnightblue" stroke="midnightblue" points="163.517,-197.973 155.75,-190.767 157.327,-201.243 163.517,-197.973"/>
</g>
<!-- Node5 -->
<g id="node5" class="node"><title>Node5</title>
<g id="a_node5"><a xlink:href="classComPWA_1_1BadParameter.html" target="_top" xlink:title="Parameter not existing. ">
<polygon fill="white" stroke="black" points="259.5,-266.5 259.5,-285.5 388.5,-285.5 388.5,-266.5 259.5,-266.5"/>
<text text-anchor="middle" x="324" y="-273.5" font-family="Helvetica,sans-Serif" font-size="10.00">ComPWA::BadParameter</text>
</a>
</g>
</g>
<!-- Node2&#45;&gt;Node5 -->
<g id="edge4" class="edge"><title>Node2&#45;&gt;Node5</title>
<path fill="none" stroke="midnightblue" d="M166.647,-198.354C183.359,-215.81 211.46,-242.199 241,-257 248.708,-260.862 257.219,-263.953 265.753,-266.424"/>
<polygon fill="midnightblue" stroke="midnightblue" points="168.783,-195.514 159.401,-190.593 163.666,-200.291 168.783,-195.514"/>
</g>
<!-- Node6 -->
<g id="node6" class="node"><title>Node6</title>
<g id="a_node6"><a xlink:href="classComPWA_1_1BeyondPhsp.html" target="_top" xlink:title="Data beyond phasespace requested. ">
<polygon fill="white" stroke="black" points="263,-228.5 263,-247.5 385,-247.5 385,-228.5 263,-228.5"/>
<text text-anchor="middle" x="324" y="-235.5" font-family="Helvetica,sans-Serif" font-size="10.00">ComPWA::BeyondPhsp</text>
</a>
</g>
</g>
<!-- Node2&#45;&gt;Node6 -->
<g id="edge5" class="edge"><title>Node2&#45;&gt;Node6</title>
<path fill="none" stroke="midnightblue" d="M180.553,-194.996C197.885,-202.818 220.366,-212.308 241,-219 251.981,-222.561 263.994,-225.734 275.356,-228.419"/>
<polygon fill="midnightblue" stroke="midnightblue" points="181.545,-191.601 170.996,-190.617 178.629,-197.964 181.545,-191.601"/>
</g>
<!-- Node7 -->
<g id="node7" class="node"><title>Node7</title>
<g id="a_node7"><a xlink:href="classComPWA_1_1CorruptFile.html" target="_top" xlink:title="Input data file is corrupt or incomplete. ">
<polygon fill="white" stroke="black" points="266.5,-190.5 266.5,-209.5 381.5,-209.5 381.5,-190.5 266.5,-190.5"/>
<text text-anchor="middle" x="324" y="-197.5" font-family="Helvetica,sans-Serif" font-size="10.00">ComPWA::CorruptFile</text>
</a>
</g>
</g>
<!-- Node2&#45;&gt;Node7 -->
<g id="edge6" class="edge"><title>Node2&#45;&gt;Node7</title>
<path fill="none" stroke="midnightblue" d="M215.615,-188.138C232.262,-189.977 250.051,-191.942 266.264,-193.733"/>
<polygon fill="midnightblue" stroke="midnightblue" points="215.746,-184.631 205.422,-187.012 214.977,-191.589 215.746,-184.631"/>
</g>
<!-- Node8 -->
<g id="node8" class="node"><title>Node8</title>
<g id="a_node8"><a xlink:href="classComPWA_1_1ParameterFixed.html" target="_top" xlink:title="Parameter cannot be changed. ">
<polygon fill="white" stroke="black" points="256,-152.5 256,-171.5 392,-171.5 392,-152.5 256,-152.5"/>
<text text-anchor="middle" x="324" y="-159.5" font-family="Helvetica,sans-Serif" font-size="10.00">ComPWA::ParameterFixed</text>
</a>
</g>
</g>
<!-- Node2&#45;&gt;Node8 -->
<g id="edge7" class="edge"><title>Node2&#45;&gt;Node8</title>
<path fill="none" stroke="midnightblue" d="M215.386,-173.888C228.631,-172.424 242.609,-170.88 255.946,-169.407"/>
<polygon fill="midnightblue" stroke="midnightblue" points="214.977,-170.411 205.422,-174.988 215.746,-177.369 214.977,-170.411"/>
</g>
<!-- Node9 -->
<g id="node9" class="node"><title>Node9</title>
<g id="a_node9"><a xlink:href="classComPWA_1_1ParameterOutOfBound.html" target="_top" xlink:title="Parameter out of bound. ">
<polygon fill="white" stroke="black" points="241,-114.5 241,-133.5 407,-133.5 407,-114.5 241,-114.5"/>
<text text-anchor="middle" x="324" y="-121.5" font-family="Helvetica,sans-Serif" font-size="10.00">ComPWA::ParameterOutOfBound</text>
</a>
</g>
</g>
<!-- Node2&#45;&gt;Node9 -->
<g id="edge8" class="edge"><title>Node2&#45;&gt;Node9</title>
<path fill="none" stroke="midnightblue" d="M180.553,-167.004C197.885,-159.182 220.366,-149.692 241,-143 251.981,-139.439 263.994,-136.266 275.356,-133.581"/>
<polygon fill="midnightblue" stroke="midnightblue" points="178.629,-164.036 170.996,-171.383 181.545,-170.399 178.629,-164.036"/>
</g>
<!-- Node10 -->
<g id="node10" class="node"><title>Node10</title>
<g id="a_node10"><a xlink:href="classComPWA_1_1TreeBuildError.html" target="_top" xlink:title="Error in tree at construction. ">
<polygon fill="white" stroke="black" points="259.5,-76.5 259.5,-95.5 388.5,-95.5 388.5,-76.5 259.5,-76.5"/>
<text text-anchor="middle" x="324" y="-83.5" font-family="Helvetica,sans-Serif" font-size="10.00">ComPWA::TreeBuildError</text>
</a>
</g>
</g>
<!-- Node2&#45;&gt;Node10 -->
<g id="edge9" class="edge"><title>Node2&#45;&gt;Node10</title>
<path fill="none" stroke="midnightblue" d="M166.647,-163.646C183.359,-146.19 211.46,-119.801 241,-105 248.708,-101.138 257.219,-98.0467 265.753,-95.5763"/>
<polygon fill="midnightblue" stroke="midnightblue" points="163.666,-161.709 159.401,-171.407 168.783,-166.486 163.666,-161.709"/>
</g>
<!-- Node11 -->
<g id="node11" class="node"><title>Node11</title>
<g id="a_node11"><a xlink:href="classComPWA_1_1WrongParType.html" target="_top" xlink:title="Parameter of wrong type. ">
<polygon fill="white" stroke="black" points="258,-38.5 258,-57.5 390,-57.5 390,-38.5 258,-38.5"/>
<text text-anchor="middle" x="324" y="-45.5" font-family="Helvetica,sans-Serif" font-size="10.00">ComPWA::WrongParType</text>
</a>
</g>
</g>
<!-- Node2&#45;&gt;Node11 -->
<g id="edge10" class="edge"><title>Node2&#45;&gt;Node11</title>
<path fill="none" stroke="midnightblue" d="M160.548,-162.154C174.568,-136.476 203.211,-90.9608 241,-67 247.171,-63.0873 254.059,-59.9782 261.149,-57.5081"/>
<polygon fill="midnightblue" stroke="midnightblue" points="157.327,-160.757 155.75,-171.233 163.517,-164.027 157.327,-160.757"/>
</g>
<!-- Node12 -->
<g id="node12" class="node"><title>Node12</title>
<g id="a_node12"><a xlink:href="classComPWA_1_1WrongVariableID.html" target="_top" xlink:title="Variable not found. ">
<polygon fill="white" stroke="black" points="253.5,-0.5 253.5,-19.5 394.5,-19.5 394.5,-0.5 253.5,-0.5"/>
<text text-anchor="middle" x="324" y="-7.5" font-family="Helvetica,sans-Serif" font-size="10.00">ComPWA::WrongVariableID</text>
</a>
</g>
</g>
<!-- Node2&#45;&gt;Node12 -->
<g id="edge11" class="edge"><title>Node2&#45;&gt;Node12</title>
<path fill="none" stroke="midnightblue" d="M156.869,-161.614C167.813,-128.909 194.535,-63.017 241,-29 246.306,-25.1155 252.28,-22.0095 258.524,-19.5284"/>
<polygon fill="midnightblue" stroke="midnightblue" points="153.472,-160.749 153.757,-171.34 160.138,-162.882 153.472,-160.749"/>
</g>
</g>
</svg>
