<?xml version="1.0" encoding="UTF-8" standalone="no"?>
<!DOCTYPE svg PUBLIC "-//W3C//DTD SVG 1.1//EN"
 "http://www.w3.org/Graphics/SVG/1.1/DTD/svg11.dtd">
<!-- Generated by graphviz version 2.38.0 (20140413.2041)
 -->
<!-- Title: Graphical Class Hierarchy Pages: 1 -->
<svg width="348pt" height="137pt"
 viewBox="0.00 0.00 348.00 137.00" xmlns="http://www.w3.org/2000/svg" xmlns:xlink="http://www.w3.org/1999/xlink">
<g id="graph0" class="graph" transform="scale(1 1) rotate(0) translate(4 133)">
<title>Graphical Class Hierarchy</title>
<polygon fill="white" stroke="none" points="-4,4 -4,-133 344,-133 344,4 -4,4"/>
<!-- Node1 -->
<g id="node1" class="node"><title>Node1</title>
<g id="a_node1"><a xlink:href="classComPWA_1_1Physics_1_1Dynamics_1_1FormFactor.html" target="_top" xlink:title="Defines interface for form factors It should be noted that when exchanging various form factor implem...">
<polygon fill="white" stroke="black" points="0,-49.5 0,-79.5 152,-79.5 152,-49.5 0,-49.5"/>
<text text-anchor="start" x="8" y="-67.5" font-family="Helvetica,sans-Serif" font-size="10.00">ComPWA::Physics::Dynamics</text>
<text text-anchor="middle" x="76" y="-56.5" font-family="Helvetica,sans-Serif" font-size="10.00">::FormFactor</text>
</a>
</g>
</g>
<!-- Node2 -->
<g id="node2" class="node"><title>Node2</title>
<g id="a_node2"><a xlink:href="classComPWA_1_1Physics_1_1Dynamics_1_1BlattWeisskopfFormFactor.html" target="_top" xlink:title="Blatt&#45;Weisskopf form factors with normalization F(x=mR) = 1. ">
<polygon fill="white" stroke="black" points="188,-98.5 188,-128.5 340,-128.5 340,-98.5 188,-98.5"/>
<text text-anchor="start" x="196" y="-116.5" font-family="Helvetica,sans-Serif" font-size="10.00">ComPWA::Physics::Dynamics</text>
<text text-anchor="middle" x="264" y="-105.5" font-family="Helvetica,sans-Serif" font-size="10.00">::BlattWeisskopfFormFactor</text>
</a>
</g>
</g>
<!-- Node1&#45;&gt;Node2 -->
<g id="edge1" class="edge"><title>Node1&#45;&gt;Node2</title>
<path fill="none" stroke="midnightblue" d="M143.895,-82.1229C164.244,-87.4837 186.408,-93.3225 206.038,-98.4938"/>
<polygon fill="midnightblue" stroke="midnightblue" points="144.632,-78.6977 134.07,-79.5346 142.849,-85.4667 144.632,-78.6977"/>
</g>
<!-- Node3 -->
<g id="node3" class="node"><title>Node3</title>
<g id="a_node3"><a xlink:href="classComPWA_1_1Physics_1_1Dynamics_1_1CrystalBarrelFormFactor.html" target="_top" xlink:title="Form factor for a0(980) used by Crystal Barrel (Phys.Rev.D78&#45;074023) ">
<polygon fill="white" stroke="black" points="188,-49.5 188,-79.5 340,-79.5 340,-49.5 188,-49.5"/>
<text text-anchor="start" x="196" y="-67.5" font-family="Helvetica,sans-Serif" font-size="10.00">ComPWA::Physics::Dynamics</text>
<text text-anchor="middle" x="264" y="-56.5" font-family="Helvetica,sans-Serif" font-size="10.00">::CrystalBarrelFormFactor</text>
</a>
</g>
</g>
<!-- Node1&#45;&gt;Node3 -->
<g id="edge2" class="edge"><title>Node1&#45;&gt;Node3</title>
<path fill="none" stroke="midnightblue" d="M162.147,-64.5C170.742,-64.5 179.426,-64.5 187.905,-64.5"/>
<polygon fill="midnightblue" stroke="midnightblue" points="162.117,-61.0001 152.117,-64.5 162.117,-68.0001 162.117,-61.0001"/>
</g>
<!-- Node4 -->
<g id="node4" class="node"><title>Node4</title>
<g id="a_node4"><a xlink:href="classComPWA_1_1Physics_1_1Dynamics_1_1NoFormFactor.html" target="_top" xlink:title="ComPWA::Physics::Dynamics\l::NoFormFactor">
<polygon fill="white" stroke="black" points="188,-0.5 188,-30.5 340,-30.5 340,-0.5 188,-0.5"/>
<text text-anchor="start" x="196" y="-18.5" font-family="Helvetica,sans-Serif" font-size="10.00">ComPWA::Physics::Dynamics</text>
<text text-anchor="middle" x="264" y="-7.5" font-family="Helvetica,sans-Serif" font-size="10.00">::NoFormFactor</text>
</a>
</g>
</g>
<!-- Node1&#45;&gt;Node4 -->
<g id="edge3" class="edge"><title>Node1&#45;&gt;Node4</title>
<path fill="none" stroke="midnightblue" d="M143.895,-46.8771C164.244,-41.5163 186.408,-35.6775 206.038,-30.5062"/>
<polygon fill="midnightblue" stroke="midnightblue" points="142.849,-43.5333 134.07,-49.4654 144.632,-50.3023 142.849,-43.5333"/>
</g>
</g>
</svg>
