<?xml version="1.0" encoding="UTF-8" standalone="no"?>
<!DOCTYPE svg PUBLIC "-//W3C//DTD SVG 1.1//EN"
 "http://www.w3.org/Graphics/SVG/1.1/DTD/svg11.dtd">
<!-- Generated by graphviz version 2.38.0 (20140413.2041)
 -->
<!-- Title: Graphical Class Hierarchy Pages: 1 -->
<svg width="392pt" height="66pt"
 viewBox="0.00 0.00 392.00 66.00" xmlns="http://www.w3.org/2000/svg" xmlns:xlink="http://www.w3.org/1999/xlink">
<g id="graph0" class="graph" transform="scale(1 1) rotate(0) translate(4 62)">
<title>Graphical Class Hierarchy</title>
<polygon fill="white" stroke="none" points="-4,4 -4,-62 388,-62 388,4 -4,4"/>
<!-- Node1 -->
<g id="node1" class="node"><title>Node1</title>
<g id="a_node1"><a xlink:href="classComPWA_1_1Data_1_1DataCorrection.html" target="_top" xlink:title="ComPWA::Data::DataCorrection">
<polygon fill="white" stroke="black" points="0,-19.5 0,-38.5 160,-38.5 160,-19.5 0,-19.5"/>
<text text-anchor="middle" x="80" y="-26.5" font-family="Helvetica,sans-Serif" font-size="10.00">ComPWA::Data::DataCorrection</text>
</a>
</g>
</g>
<!-- Node2 -->
<g id="node2" class="node"><title>Node2</title>
<g id="a_node2"><a xlink:href="classComPWA_1_1Data_1_1MomentumCorrection.html" target="_top" xlink:title="ComPWA::Data::MomentumCorrection">
<polygon fill="white" stroke="black" points="196,-38.5 196,-57.5 384,-57.5 384,-38.5 196,-38.5"/>
<text text-anchor="middle" x="290" y="-45.5" font-family="Helvetica,sans-Serif" font-size="10.00">ComPWA::Data::MomentumCorrection</text>
</a>
</g>
</g>
<!-- Node1&#45;&gt;Node2 -->
<g id="edge1" class="edge"><title>Node1&#45;&gt;Node2</title>
<path fill="none" stroke="midnightblue" d="M170.379,-37.1644C178.765,-37.9304 187.28,-38.7083 195.701,-39.4775"/>
<polygon fill="midnightblue" stroke="midnightblue" points="170.506,-33.6616 160.229,-36.2373 169.869,-40.6325 170.506,-33.6616"/>
</g>
<!-- Node3 -->
<g id="node3" class="node"><title>Node3</title>
<g id="a_node3"><a xlink:href="classComPWA_1_1Data_1_1UnitCorrection.html" target="_top" xlink:title="ComPWA::Data::UnitCorrection">
<polygon fill="white" stroke="black" points="211.5,-0.5 211.5,-19.5 368.5,-19.5 368.5,-0.5 211.5,-0.5"/>
<text text-anchor="middle" x="290" y="-7.5" font-family="Helvetica,sans-Serif" font-size="10.00">ComPWA::Data::UnitCorrection</text>
</a>
</g>
</g>
<!-- Node1&#45;&gt;Node3 -->
<g id="edge2" class="edge"><title>Node1&#45;&gt;Node3</title>
<path fill="none" stroke="midnightblue" d="M170.54,-20.8208C184.131,-19.5794 198.057,-18.3073 211.366,-17.0916"/>
<polygon fill="midnightblue" stroke="midnightblue" points="169.869,-17.3675 160.229,-21.7627 170.506,-24.3384 169.869,-17.3675"/>
</g>
</g>
</svg>
