<?xml version="1.0" encoding="UTF-8" standalone="no"?>
<!DOCTYPE svg PUBLIC "-//W3C//DTD SVG 1.1//EN"
 "http://www.w3.org/Graphics/SVG/1.1/DTD/svg11.dtd">
<!-- Generated by graphviz version 2.38.0 (20140413.2041)
 -->
<!-- Title: Graphical Class Hierarchy Pages: 1 -->
<svg width="362pt" height="88pt"
 viewBox="0.00 0.00 362.00 88.00" xmlns="http://www.w3.org/2000/svg" xmlns:xlink="http://www.w3.org/1999/xlink">
<g id="graph0" class="graph" transform="scale(1 1) rotate(0) translate(4 84)">
<title>Graphical Class Hierarchy</title>
<polygon fill="white" stroke="none" points="-4,4 -4,-84 358,-84 358,4 -4,4"/>
<!-- Node1 -->
<g id="node1" class="node"><title>Node1</title>
<g id="a_node1"><a xlink:href="classComPWA_1_1PhaseSpaceEventGenerator.html" target="_top" xlink:title="Interface class for PHSP event generators. ">
<polygon fill="white" stroke="black" points="0,-30 0,-49 191,-49 191,-30 0,-30"/>
<text text-anchor="middle" x="95.5" y="-37" font-family="Helvetica,sans-Serif" font-size="10.00">ComPWA::PhaseSpaceEventGenerator</text>
</a>
</g>
</g>
<!-- Node2 -->
<g id="node2" class="node"><title>Node2</title>
<g id="a_node2"><a xlink:href="classComPWA_1_1Data_1_1EvtGen_1_1EvtGenGenerator.html" target="_top" xlink:title="ComPWA::Data::EvtGen\l::EvtGenGenerator">
<polygon fill="white" stroke="black" points="227,-49.5 227,-79.5 354,-79.5 354,-49.5 227,-49.5"/>
<text text-anchor="start" x="235" y="-67.5" font-family="Helvetica,sans-Serif" font-size="10.00">ComPWA::Data::EvtGen</text>
<text text-anchor="middle" x="290.5" y="-56.5" font-family="Helvetica,sans-Serif" font-size="10.00">::EvtGenGenerator</text>
</a>
</g>
</g>
<!-- Node1&#45;&gt;Node2 -->
<g id="edge1" class="edge"><title>Node1&#45;&gt;Node2</title>
<path fill="none" stroke="midnightblue" d="M180.224,-50.345C195.885,-52.3737 212.003,-54.4615 226.888,-56.3897"/>
<polygon fill="midnightblue" stroke="midnightblue" points="180.382,-46.8364 170.016,-49.0227 179.483,-53.7784 180.382,-46.8364"/>
</g>
<!-- Node3 -->
<g id="node3" class="node"><title>Node3</title>
<g id="a_node3"><a xlink:href="classComPWA_1_1Data_1_1Root_1_1RootGenerator.html" target="_top" xlink:title="ComPWA::Data::Root\l::RootGenerator">
<polygon fill="white" stroke="black" points="233,-0.5 233,-30.5 348,-30.5 348,-0.5 233,-0.5"/>
<text text-anchor="start" x="241" y="-18.5" font-family="Helvetica,sans-Serif" font-size="10.00">ComPWA::Data::Root</text>
<text text-anchor="middle" x="290.5" y="-7.5" font-family="Helvetica,sans-Serif" font-size="10.00">::RootGenerator</text>
</a>
</g>
</g>
<!-- Node1&#45;&gt;Node3 -->
<g id="edge2" class="edge"><title>Node1&#45;&gt;Node3</title>
<path fill="none" stroke="midnightblue" d="M183.454,-28.6871C200.264,-26.5967 217.465,-24.4578 232.988,-22.5274"/>
<polygon fill="midnightblue" stroke="midnightblue" points="182.548,-25.2727 173.056,-29.9801 183.411,-32.2192 182.548,-25.2727"/>
</g>
</g>
</svg>
