<?xml version="1.0" encoding="UTF-8" standalone="no"?>
<!DOCTYPE svg PUBLIC "-//W3C//DTD SVG 1.1//EN"
 "http://www.w3.org/Graphics/SVG/1.1/DTD/svg11.dtd">
<!-- Generated by graphviz version 2.38.0 (20140413.2041)
 -->
<!-- Title: Graphical Class Hierarchy Pages: 1 -->
<svg width="293pt" height="78pt"
 viewBox="0.00 0.00 293.00 77.50" xmlns="http://www.w3.org/2000/svg" xmlns:xlink="http://www.w3.org/1999/xlink">
<g id="graph0" class="graph" transform="scale(1 1) rotate(0) translate(4 73.5)">
<title>Graphical Class Hierarchy</title>
<polygon fill="white" stroke="none" points="-4,4 -4,-73.5 289,-73.5 289,4 -4,4"/>
<!-- Node1 -->
<g id="node1" class="node"><title>Node1</title>
<polygon fill="white" stroke="#bfbfbf" points="0,-50 0,-69 125,-69 125,-50 0,-50"/>
<text text-anchor="middle" x="62.5" y="-57" font-family="Helvetica,sans-Serif" font-size="10.00">enable_shared_from_this</text>
</g>
<!-- Node2 -->
<g id="node2" class="node"><title>Node2</title>
<g id="a_node2"><a xlink:href="classComPWA_1_1FunctionTree_1_1TreeNode.html" target="_top" xlink:title="TreeNode is the basic building block of the FunctionTree. ">
<polygon fill="white" stroke="black" points="161,-22.5 161,-52.5 285,-52.5 285,-22.5 161,-22.5"/>
<text text-anchor="start" x="169" y="-40.5" font-family="Helvetica,sans-Serif" font-size="10.00">ComPWA::FunctionTree</text>
<text text-anchor="middle" x="223" y="-29.5" font-family="Helvetica,sans-Serif" font-size="10.00">::TreeNode</text>
</a>
</g>
</g>
<!-- Node1&#45;&gt;Node2 -->
<g id="edge1" class="edge"><title>Node1&#45;&gt;Node2</title>
<path fill="none" stroke="midnightblue" d="M135.239,-49.5426C143.828,-48.3503 152.537,-47.1416 160.955,-45.9731"/>
<polygon fill="midnightblue" stroke="midnightblue" points="134.658,-46.0895 125.234,-50.9312 135.62,-53.0231 134.658,-46.0895"/>
</g>
<!-- Node3 -->
<g id="node3" class="node"><title>Node3</title>
<g id="a_node3"><a xlink:href="classComPWA_1_1FunctionTree_1_1ParObserver.html" target="_top" xlink:title="ParObserver Base class parameter observer. ">
<polygon fill="white" stroke="black" points="0.5,-0.5 0.5,-30.5 124.5,-30.5 124.5,-0.5 0.5,-0.5"/>
<text text-anchor="start" x="8.5" y="-18.5" font-family="Helvetica,sans-Serif" font-size="10.00">ComPWA::FunctionTree</text>
<text text-anchor="middle" x="62.5" y="-7.5" font-family="Helvetica,sans-Serif" font-size="10.00">::ParObserver</text>
</a>
</g>
</g>
<!-- Node3&#45;&gt;Node2 -->
<g id="edge2" class="edge"><title>Node3&#45;&gt;Node2</title>
<path fill="none" stroke="midnightblue" d="M134.885,-25.4084C143.565,-26.6131 152.371,-27.8354 160.883,-29.0168"/>
<polygon fill="midnightblue" stroke="midnightblue" points="135.167,-21.9139 124.78,-24.0058 134.204,-28.8475 135.167,-21.9139"/>
</g>
</g>
</svg>
