<?xml version="1.0" encoding="UTF-8" standalone="no"?>
<!DOCTYPE svg PUBLIC "-//W3C//DTD SVG 1.1//EN"
 "http://www.w3.org/Graphics/SVG/1.1/DTD/svg11.dtd">
<!-- Generated by graphviz version 2.38.0 (20140413.2041)
 -->
<!-- Title: Graphical Class Hierarchy Pages: 1 -->
<svg width="379pt" height="78pt"
 viewBox="0.00 0.00 379.00 77.50" xmlns="http://www.w3.org/2000/svg" xmlns:xlink="http://www.w3.org/1999/xlink">
<g id="graph0" class="graph" transform="scale(1 1) rotate(0) translate(4 73.5)">
<title>Graphical Class Hierarchy</title>
<polygon fill="white" stroke="none" points="-4,4 -4,-73.5 375,-73.5 375,4 -4,4"/>
<!-- Node1 -->
<g id="node1" class="node"><title>Node1</title>
<g id="a_node1"><a xlink:href="classComPWA_1_1UniformRealNumberGenerator.html" target="_top" xlink:title="ComPWA::UniformRealNumber\lGenerator">
<polygon fill="white" stroke="black" points="0,-17 0,-47 156,-47 156,-17 0,-17"/>
<text text-anchor="start" x="8" y="-35" font-family="Helvetica,sans-Serif" font-size="10.00">ComPWA::UniformRealNumber</text>
<text text-anchor="middle" x="78" y="-24" font-family="Helvetica,sans-Serif" font-size="10.00">Generator</text>
</a>
</g>
</g>
<!-- Node2 -->
<g id="node2" class="node"><title>Node2</title>
<g id="a_node2"><a xlink:href="classComPWA_1_1Data_1_1Root_1_1RootUniformRealGenerator.html" target="_top" xlink:title="ComPWA::Data::Root\l::RootUniformRealGenerator">
<polygon fill="white" stroke="black" points="211,-39 211,-69 352,-69 352,-39 211,-39"/>
<text text-anchor="start" x="219" y="-57" font-family="Helvetica,sans-Serif" font-size="10.00">ComPWA::Data::Root</text>
<text text-anchor="middle" x="281.5" y="-46" font-family="Helvetica,sans-Serif" font-size="10.00">::RootUniformRealGenerator</text>
</a>
</g>
</g>
<!-- Node1&#45;&gt;Node2 -->
<g id="edge1" class="edge"><title>Node1&#45;&gt;Node2</title>
<path fill="none" stroke="midnightblue" d="M166.262,-41.5273C181.141,-43.1518 196.42,-44.82 210.768,-46.3866"/>
<polygon fill="midnightblue" stroke="midnightblue" points="166.362,-38.0176 156.041,-40.4114 165.602,-44.9762 166.362,-38.0176"/>
</g>
<!-- Node3 -->
<g id="node3" class="node"><title>Node3</title>
<g id="a_node3"><a xlink:href="classComPWA_1_1StdUniformRealGenerator.html" target="_top" xlink:title="ComPWA::StdUniformRealGenerator">
<polygon fill="white" stroke="black" points="192,-0.5 192,-19.5 371,-19.5 371,-0.5 192,-0.5"/>
<text text-anchor="middle" x="281.5" y="-7.5" font-family="Helvetica,sans-Serif" font-size="10.00">ComPWA::StdUniformRealGenerator</text>
</a>
</g>
</g>
<!-- Node1&#45;&gt;Node3 -->
<g id="edge2" class="edge"><title>Node1&#45;&gt;Node3</title>
<path fill="none" stroke="midnightblue" d="M166.161,-22.4837C175.194,-21.4974 184.376,-20.4949 193.409,-19.5087"/>
<polygon fill="midnightblue" stroke="midnightblue" points="165.602,-19.0238 156.041,-23.5886 166.362,-25.9824 165.602,-19.0238"/>
</g>
</g>
</svg>
