<?xml version="1.0" encoding="UTF-8" standalone="no"?>
<!DOCTYPE svg PUBLIC "-//W3C//DTD SVG 1.1//EN"
 "http://www.w3.org/Graphics/SVG/1.1/DTD/svg11.dtd">
<!-- Generated by graphviz version 2.38.0 (20140413.2041)
 -->
<!-- Title: Graphical Class Hierarchy Pages: 1 -->
<svg width="536pt" height="99pt"
 viewBox="0.00 0.00 536.00 98.50" xmlns="http://www.w3.org/2000/svg" xmlns:xlink="http://www.w3.org/1999/xlink">
<g id="graph0" class="graph" transform="scale(1 1) rotate(0) translate(4 94.5)">
<title>Graphical Class Hierarchy</title>
<polygon fill="white" stroke="none" points="-4,4 -4,-94.5 532,-94.5 532,4 -4,4"/>
<!-- Node1 -->
<g id="node1" class="node"><title>Node1</title>
<g id="a_node1"><a xlink:href="structComPWA_1_1Physics_1_1Dynamics_1_1InputInfo.html" target="_top" xlink:title="ComPWA::Physics::Dynamics\l::InputInfo">
<polygon fill="white" stroke="black" points="0,-33 0,-63 152,-63 152,-33 0,-33"/>
<text text-anchor="start" x="8" y="-51" font-family="Helvetica,sans-Serif" font-size="10.00">ComPWA::Physics::Dynamics</text>
<text text-anchor="middle" x="76" y="-40" font-family="Helvetica,sans-Serif" font-size="10.00">::InputInfo</text>
</a>
</g>
</g>
<!-- Node2 -->
<g id="node2" class="node"><title>Node2</title>
<g id="a_node2"><a xlink:href="structComPWA_1_1Physics_1_1Dynamics_1_1Flatte_1_1InputInfo.html" target="_top" xlink:title="ComPWA::Physics::Dynamics\l::Flatte::InputInfo">
<polygon fill="white" stroke="black" points="188,-60 188,-90 340,-90 340,-60 188,-60"/>
<text text-anchor="start" x="196" y="-78" font-family="Helvetica,sans-Serif" font-size="10.00">ComPWA::Physics::Dynamics</text>
<text text-anchor="middle" x="264" y="-67" font-family="Helvetica,sans-Serif" font-size="10.00">::Flatte::InputInfo</text>
</a>
</g>
</g>
<!-- Node1&#45;&gt;Node2 -->
<g id="edge1" class="edge"><title>Node1&#45;&gt;Node2</title>
<path fill="none" stroke="midnightblue" d="M162.147,-60.3601C170.742,-61.6077 179.426,-62.8684 187.905,-64.0991"/>
<polygon fill="midnightblue" stroke="midnightblue" points="162.516,-56.8771 152.117,-58.9041 161.511,-63.8044 162.516,-56.8771"/>
</g>
<!-- Node3 -->
<g id="node3" class="node"><title>Node3</title>
<g id="a_node3"><a xlink:href="structComPWA_1_1Physics_1_1Dynamics_1_1RelativisticBreitWigner_1_1InputInfo.html" target="_top" xlink:title="ComPWA::Physics::Dynamics\l::RelativisticBreitWigner\l::InputInfo">
<polygon fill="white" stroke="black" points="188,-0.5 188,-41.5 340,-41.5 340,-0.5 188,-0.5"/>
<text text-anchor="start" x="196" y="-29.5" font-family="Helvetica,sans-Serif" font-size="10.00">ComPWA::Physics::Dynamics</text>
<text text-anchor="start" x="196" y="-18.5" font-family="Helvetica,sans-Serif" font-size="10.00">::RelativisticBreitWigner</text>
<text text-anchor="middle" x="264" y="-7.5" font-family="Helvetica,sans-Serif" font-size="10.00">::InputInfo</text>
</a>
</g>
</g>
<!-- Node1&#45;&gt;Node3 -->
<g id="edge2" class="edge"><title>Node1&#45;&gt;Node3</title>
<path fill="none" stroke="midnightblue" d="M162.147,-35.6399C170.742,-34.3923 179.426,-33.1316 187.905,-31.9009"/>
<polygon fill="midnightblue" stroke="midnightblue" points="161.511,-32.1956 152.117,-37.0959 162.516,-39.1229 161.511,-32.1956"/>
</g>
<!-- Node4 -->
<g id="node4" class="node"><title>Node4</title>
<g id="a_node4"><a xlink:href="structComPWA_1_1Physics_1_1Dynamics_1_1Voigtian_1_1InputInfo.html" target="_top" xlink:title="ComPWA::Physics::Dynamics\l::Voigtian::InputInfo">
<polygon fill="white" stroke="black" points="376,-6 376,-36 528,-36 528,-6 376,-6"/>
<text text-anchor="start" x="384" y="-24" font-family="Helvetica,sans-Serif" font-size="10.00">ComPWA::Physics::Dynamics</text>
<text text-anchor="middle" x="452" y="-13" font-family="Helvetica,sans-Serif" font-size="10.00">::Voigtian::InputInfo</text>
</a>
</g>
</g>
<!-- Node3&#45;&gt;Node4 -->
<g id="edge3" class="edge"><title>Node3&#45;&gt;Node4</title>
<path fill="none" stroke="midnightblue" d="M350.147,-21C358.742,-21 367.426,-21 375.905,-21"/>
<polygon fill="midnightblue" stroke="midnightblue" points="350.117,-17.5001 340.117,-21 350.117,-24.5001 350.117,-17.5001"/>
</g>
</g>
</svg>
