<?xml version="1.0" encoding="UTF-8" standalone="no"?>
<!DOCTYPE svg PUBLIC "-//W3C//DTD SVG 1.1//EN"
 "http://www.w3.org/Graphics/SVG/1.1/DTD/svg11.dtd">
<!-- Generated by graphviz version 2.38.0 (20140413.2041)
 -->
<!-- Title: Graphical Class Hierarchy Pages: 1 -->
<svg width="328pt" height="88pt"
 viewBox="0.00 0.00 328.00 88.00" xmlns="http://www.w3.org/2000/svg" xmlns:xlink="http://www.w3.org/1999/xlink">
<g id="graph0" class="graph" transform="scale(1 1) rotate(0) translate(4 84)">
<title>Graphical Class Hierarchy</title>
<polygon fill="white" stroke="none" points="-4,4 -4,-84 324,-84 324,4 -4,4"/>
<!-- Node1 -->
<g id="node1" class="node"><title>Node1</title>
<g id="a_node1"><a xlink:href="classComPWA_1_1Function.html" target="_top" xlink:title="Interface template for a general Function of the form OutputType Function(InputTypes) The concept clo...">
<polygon fill="white" stroke="black" points="0,-24.5 0,-54.5 143,-54.5 143,-24.5 0,-24.5"/>
<text text-anchor="start" x="8" y="-42.5" font-family="Helvetica,sans-Serif" font-size="10.00">ComPWA::Function&lt; Output</text>
<text text-anchor="middle" x="71.5" y="-31.5" font-family="Helvetica,sans-Serif" font-size="10.00">Type, InputTypes &gt;</text>
</a>
</g>
</g>
<!-- Node2 -->
<g id="node2" class="node"><title>Node2</title>
<g id="a_node2"><a xlink:href="classComPWA_1_1FunctionTree_1_1FunctionTreeIntensity.html" target="_top" xlink:title="ComPWA::FunctionTree\l::FunctionTreeIntensity">
<polygon fill="white" stroke="black" points="187.5,-49.5 187.5,-79.5 311.5,-79.5 311.5,-49.5 187.5,-49.5"/>
<text text-anchor="start" x="195.5" y="-67.5" font-family="Helvetica,sans-Serif" font-size="10.00">ComPWA::FunctionTree</text>
<text text-anchor="middle" x="249.5" y="-56.5" font-family="Helvetica,sans-Serif" font-size="10.00">::FunctionTreeIntensity</text>
</a>
</g>
</g>
<!-- Node1&#45;&gt;Node2 -->
<g id="edge1" class="edge"><title>Node1&#45;&gt;Node2</title>
<path fill="none" stroke="midnightblue" d="M153.1,-50.9489C164.584,-52.5801 176.237,-54.2354 187.27,-55.8025"/>
<polygon fill="midnightblue" stroke="midnightblue" points="153.465,-47.4656 143.072,-49.5244 152.48,-54.396 153.465,-47.4656"/>
</g>
<!-- Node3 -->
<g id="node3" class="node"><title>Node3</title>
<g id="a_node3"><a xlink:href="classComPWA_1_1Physics_1_1EvtGen_1_1EvtGenIF.html" target="_top" xlink:title="ComPWA::Physics::EvtGen\l::EvtGenIF">
<polygon fill="white" stroke="black" points="179,-0.5 179,-30.5 320,-30.5 320,-0.5 179,-0.5"/>
<text text-anchor="start" x="187" y="-18.5" font-family="Helvetica,sans-Serif" font-size="10.00">ComPWA::Physics::EvtGen</text>
<text text-anchor="middle" x="249.5" y="-7.5" font-family="Helvetica,sans-Serif" font-size="10.00">::EvtGenIF</text>
</a>
</g>
</g>
<!-- Node1&#45;&gt;Node3 -->
<g id="edge2" class="edge"><title>Node1&#45;&gt;Node3</title>
<path fill="none" stroke="midnightblue" d="M153.08,-28.5118C161.659,-27.342 170.333,-26.1591 178.772,-25.0083"/>
<polygon fill="midnightblue" stroke="midnightblue" points="152.507,-25.0574 143.072,-29.8766 153.453,-31.9933 152.507,-25.0574"/>
</g>
</g>
</svg>
