<?xml version="1.0" encoding="UTF-8" standalone="no"?>
<!DOCTYPE svg PUBLIC "-//W3C//DTD SVG 1.1//EN"
 "http://www.w3.org/Graphics/SVG/1.1/DTD/svg11.dtd">
<!-- Generated by graphviz version 2.38.0 (20140413.2041)
 -->
<!-- Title: Graphical Class Hierarchy Pages: 1 -->
<svg width="310pt" height="88pt"
 viewBox="0.00 0.00 310.00 88.00" xmlns="http://www.w3.org/2000/svg" xmlns:xlink="http://www.w3.org/1999/xlink">
<g id="graph0" class="graph" transform="scale(1 1) rotate(0) translate(4 84)">
<title>Graphical Class Hierarchy</title>
<polygon fill="white" stroke="none" points="-4,4 -4,-84 306,-84 306,4 -4,4"/>
<!-- Node1 -->
<g id="node1" class="node"><title>Node1</title>
<g id="a_node1"><a xlink:href="classComPWA_1_1Kinematics.html" target="_top" xlink:title="The Kinematics interface is responsible for converting an Event into a DataPoint. ...">
<polygon fill="white" stroke="black" points="0,-30 0,-49 116,-49 116,-30 0,-30"/>
<text text-anchor="middle" x="58" y="-37" font-family="Helvetica,sans-Serif" font-size="10.00">ComPWA::Kinematics</text>
</a>
</g>
</g>
<!-- Node2 -->
<g id="node2" class="node"><title>Node2</title>
<g id="a_node2"><a xlink:href="classComPWA_1_1Physics_1_1EvtGen_1_1DalitzKinematics.html" target="_top" xlink:title="Implementation of the ComPWA::Kinematics interface for amplitude models using the helicity formalism...">
<polygon fill="white" stroke="black" points="156.5,-49.5 156.5,-79.5 297.5,-79.5 297.5,-49.5 156.5,-49.5"/>
<text text-anchor="start" x="164.5" y="-67.5" font-family="Helvetica,sans-Serif" font-size="10.00">ComPWA::Physics::EvtGen</text>
<text text-anchor="middle" x="227" y="-56.5" font-family="Helvetica,sans-Serif" font-size="10.00">::DalitzKinematics</text>
</a>
</g>
</g>
<!-- Node1&#45;&gt;Node2 -->
<g id="edge1" class="edge"><title>Node1&#45;&gt;Node2</title>
<path fill="none" stroke="midnightblue" d="M126.181,-49.5571C136.081,-51.0391 146.299,-52.5687 156.249,-54.0583"/>
<polygon fill="midnightblue" stroke="midnightblue" points="126.413,-46.0528 116.005,-48.0337 125.376,-52.9757 126.413,-46.0528"/>
</g>
<!-- Node3 -->
<g id="node3" class="node"><title>Node3</title>
<g id="a_node3"><a xlink:href="classComPWA_1_1Physics_1_1HelicityFormalism_1_1HelicityKinematics.html" target="_top" xlink:title="Implementation of the ComPWA::Kinematics interface for amplitude models using the helicity formalism...">
<polygon fill="white" stroke="black" points="152,-0.5 152,-30.5 302,-30.5 302,-0.5 152,-0.5"/>
<text text-anchor="start" x="160" y="-18.5" font-family="Helvetica,sans-Serif" font-size="10.00">ComPWA::Physics::Helicity</text>
<text text-anchor="middle" x="227" y="-7.5" font-family="Helvetica,sans-Serif" font-size="10.00">Formalism::HelicityKinematics</text>
</a>
</g>
</g>
<!-- Node1&#45;&gt;Node3 -->
<g id="edge2" class="edge"><title>Node1&#45;&gt;Node3</title>
<path fill="none" stroke="midnightblue" d="M126.165,-29.8475C134.61,-28.6339 143.286,-27.3871 151.83,-26.1591"/>
<polygon fill="midnightblue" stroke="midnightblue" points="125.405,-26.4207 116.005,-31.3077 126.401,-33.3495 125.405,-26.4207"/>
</g>
</g>
</svg>
