<?xml version="1.0" encoding="UTF-8" standalone="no"?>
<!DOCTYPE svg PUBLIC "-//W3C//DTD SVG 1.1//EN"
 "http://www.w3.org/Graphics/SVG/1.1/DTD/svg11.dtd">
<!-- Generated by graphviz version 2.38.0 (20140413.2041)
 -->
<!-- Title: Graphical Class Hierarchy Pages: 1 -->
<svg width="270pt" height="88pt"
 viewBox="0.00 0.00 270.00 88.00" xmlns="http://www.w3.org/2000/svg" xmlns:xlink="http://www.w3.org/1999/xlink">
<g id="graph0" class="graph" transform="scale(1 1) rotate(0) translate(4 84)">
<title>Graphical Class Hierarchy</title>
<polygon fill="white" stroke="none" points="-4,4 -4,-84 266,-84 266,4 -4,4"/>
<!-- Node1 -->
<g id="node1" class="node"><title>Node1</title>
<g id="a_node1"><a xlink:href="structComPWA_1_1FitResult.html" target="_top" xlink:title="Data structure which resembles a general fit result. ">
<polygon fill="white" stroke="black" points="0,-30 0,-49 107,-49 107,-30 0,-30"/>
<text text-anchor="middle" x="53.5" y="-37" font-family="Helvetica,sans-Serif" font-size="10.00">ComPWA::FitResult</text>
</a>
</g>
</g>
<!-- Node2 -->
<g id="node2" class="node"><title>Node2</title>
<g id="a_node2"><a xlink:href="structComPWA_1_1Optimizer_1_1Geneva_1_1GenevaResult.html" target="_top" xlink:title="ComPWA::Optimizer::\lGeneva::GenevaResult">
<polygon fill="white" stroke="black" points="143,-49.5 143,-79.5 262,-79.5 262,-49.5 143,-49.5"/>
<text text-anchor="start" x="151" y="-67.5" font-family="Helvetica,sans-Serif" font-size="10.00">ComPWA::Optimizer::</text>
<text text-anchor="middle" x="202.5" y="-56.5" font-family="Helvetica,sans-Serif" font-size="10.00">Geneva::GenevaResult</text>
</a>
</g>
</g>
<!-- Node1&#45;&gt;Node2 -->
<g id="edge1" class="edge"><title>Node1&#45;&gt;Node2</title>
<path fill="none" stroke="midnightblue" d="M117.107,-50.1474C125.688,-51.6069 134.472,-53.1007 142.977,-54.5471"/>
<polygon fill="midnightblue" stroke="midnightblue" points="117.6,-46.6812 107.155,-48.455 116.427,-53.5821 117.6,-46.6812"/>
</g>
<!-- Node3 -->
<g id="node3" class="node"><title>Node3</title>
<g id="a_node3"><a xlink:href="structComPWA_1_1Optimizer_1_1Minuit2_1_1MinuitResult.html" target="_top" xlink:title="ComPWA::Optimizer::\lMinuit2::MinuitResult">
<polygon fill="white" stroke="black" points="145,-0.5 145,-30.5 260,-30.5 260,-0.5 145,-0.5"/>
<text text-anchor="start" x="153" y="-18.5" font-family="Helvetica,sans-Serif" font-size="10.00">ComPWA::Optimizer::</text>
<text text-anchor="middle" x="202.5" y="-7.5" font-family="Helvetica,sans-Serif" font-size="10.00">Minuit2::MinuitResult</text>
</a>
</g>
</g>
<!-- Node1&#45;&gt;Node3 -->
<g id="edge2" class="edge"><title>Node1&#45;&gt;Node3</title>
<path fill="none" stroke="midnightblue" d="M117.087,-29.2817C126.352,-27.769 135.854,-26.2177 144.985,-24.7269"/>
<polygon fill="midnightblue" stroke="midnightblue" points="116.461,-25.8376 107.155,-30.9032 117.588,-32.7461 116.461,-25.8376"/>
</g>
</g>
</svg>
