<?xml version="1.0" encoding="UTF-8" standalone="no"?>
<!DOCTYPE svg PUBLIC "-//W3C//DTD SVG 1.1//EN"
 "http://www.w3.org/Graphics/SVG/1.1/DTD/svg11.dtd">
<!-- Generated by graphviz version 2.38.0 (20140413.2041)
 -->
<!-- Title: Graphical Class Hierarchy Pages: 1 -->
<svg width="470pt" height="186pt"
 viewBox="0.00 0.00 470.00 186.00" xmlns="http://www.w3.org/2000/svg" xmlns:xlink="http://www.w3.org/1999/xlink">
<g id="graph0" class="graph" transform="scale(1 1) rotate(0) translate(4 182)">
<title>Graphical Class Hierarchy</title>
<polygon fill="white" stroke="none" points="-4,4 -4,-182 466,-182 466,4 -4,4"/>
<!-- Node1 -->
<g id="node1" class="node"><title>Node1</title>
<g id="a_node1"><a xlink:href="classComPWA_1_1Function.html" target="_top" xlink:title="ComPWA::Function\&lt; double \&gt;">
<polygon fill="white" stroke="black" points="0,-79 0,-98 151,-98 151,-79 0,-79"/>
<text text-anchor="middle" x="75.5" y="-86" font-family="Helvetica,sans-Serif" font-size="10.00">ComPWA::Function&lt; double &gt;</text>
</a>
</g>
</g>
<!-- Node2 -->
<g id="node2" class="node"><title>Node2</title>
<g id="a_node2"><a xlink:href="classComPWA_1_1Estimator_1_1Estimator.html" target="_top" xlink:title="ComPWA::Estimator::\lEstimator\&lt; double \&gt;">
<polygon fill="white" stroke="black" points="187,-73.5 187,-103.5 302,-103.5 302,-73.5 187,-73.5"/>
<text text-anchor="start" x="195" y="-91.5" font-family="Helvetica,sans-Serif" font-size="10.00">ComPWA::Estimator::</text>
<text text-anchor="middle" x="244.5" y="-80.5" font-family="Helvetica,sans-Serif" font-size="10.00">Estimator&lt; double &gt;</text>
</a>
</g>
</g>
<!-- Node1&#45;&gt;Node2 -->
<g id="edge1" class="edge"><title>Node1&#45;&gt;Node2</title>
<path fill="none" stroke="midnightblue" d="M161.356,-88.5C170.011,-88.5 178.648,-88.5 186.892,-88.5"/>
<polygon fill="midnightblue" stroke="midnightblue" points="161.208,-85.0001 151.208,-88.5 161.208,-92.0001 161.208,-85.0001"/>
</g>
<!-- Node3 -->
<g id="node3" class="node"><title>Node3</title>
<g id="a_node3"><a xlink:href="classComPWA_1_1Estimator_1_1ChiOneD_1_1ChiOneD.html" target="_top" xlink:title="ComPWA::Estimator::\lChiOneD::ChiOneD">
<polygon fill="white" stroke="black" points="342.5,-147.5 342.5,-177.5 457.5,-177.5 457.5,-147.5 342.5,-147.5"/>
<text text-anchor="start" x="350.5" y="-165.5" font-family="Helvetica,sans-Serif" font-size="10.00">ComPWA::Estimator::</text>
<text text-anchor="middle" x="400" y="-154.5" font-family="Helvetica,sans-Serif" font-size="10.00">ChiOneD::ChiOneD</text>
</a>
</g>
</g>
<!-- Node2&#45;&gt;Node3 -->
<g id="edge2" class="edge"><title>Node2&#45;&gt;Node3</title>
<path fill="none" stroke="midnightblue" d="M280.445,-108.682C297.546,-118.224 318.586,-129.474 338,-138.5 344.605,-141.571 351.719,-144.606 358.676,-147.432"/>
<polygon fill="midnightblue" stroke="midnightblue" points="281.816,-105.437 271.384,-103.582 278.382,-111.537 281.816,-105.437"/>
</g>
<!-- Node4 -->
<g id="node4" class="node"><title>Node4</title>
<g id="a_node4"><a xlink:href="classComPWA_1_1Estimator_1_1MinLogLH.html" target="_top" xlink:title="Negative Log Likelihood&#45;Estimator. ">
<polygon fill="white" stroke="black" points="342.5,-98.5 342.5,-128.5 457.5,-128.5 457.5,-98.5 342.5,-98.5"/>
<text text-anchor="start" x="350.5" y="-116.5" font-family="Helvetica,sans-Serif" font-size="10.00">ComPWA::Estimator::</text>
<text text-anchor="middle" x="400" y="-105.5" font-family="Helvetica,sans-Serif" font-size="10.00">MinLogLH</text>
</a>
</g>
</g>
<!-- Node2&#45;&gt;Node4 -->
<g id="edge3" class="edge"><title>Node2&#45;&gt;Node4</title>
<path fill="none" stroke="midnightblue" d="M312.152,-99.3553C322.186,-100.99 332.455,-102.662 342.255,-104.258"/>
<polygon fill="midnightblue" stroke="midnightblue" points="312.654,-95.8911 302.222,-97.738 311.529,-102.8 312.654,-95.8911"/>
</g>
<!-- Node5 -->
<g id="node5" class="node"><title>Node5</title>
<g id="a_node5"><a xlink:href="classComPWA_1_1Estimator_1_1SumMinLogLH.html" target="_top" xlink:title="Calculates the combined likelihood of multiple MinLogLH. ">
<polygon fill="white" stroke="black" points="342.5,-49.5 342.5,-79.5 457.5,-79.5 457.5,-49.5 342.5,-49.5"/>
<text text-anchor="start" x="350.5" y="-67.5" font-family="Helvetica,sans-Serif" font-size="10.00">ComPWA::Estimator::</text>
<text text-anchor="middle" x="400" y="-56.5" font-family="Helvetica,sans-Serif" font-size="10.00">SumMinLogLH</text>
</a>
</g>
</g>
<!-- Node2&#45;&gt;Node5 -->
<g id="edge4" class="edge"><title>Node2&#45;&gt;Node5</title>
<path fill="none" stroke="midnightblue" d="M312.152,-78.0789C322.186,-76.51 332.455,-74.9045 342.255,-73.3721"/>
<polygon fill="midnightblue" stroke="midnightblue" points="311.561,-74.6287 302.222,-79.6315 312.642,-81.5446 311.561,-74.6287"/>
</g>
<!-- Node6 -->
<g id="node6" class="node"><title>Node6</title>
<g id="a_node6"><a xlink:href="classComPWA_1_1FunctionTree_1_1FunctionTreeEstimator.html" target="_top" xlink:title="ComPWA::FunctionTree\l::FunctionTreeEstimator">
<polygon fill="white" stroke="black" points="338,-0.5 338,-30.5 462,-30.5 462,-0.5 338,-0.5"/>
<text text-anchor="start" x="346" y="-18.5" font-family="Helvetica,sans-Serif" font-size="10.00">ComPWA::FunctionTree</text>
<text text-anchor="middle" x="400" y="-7.5" font-family="Helvetica,sans-Serif" font-size="10.00">::FunctionTreeEstimator</text>
</a>
</g>
</g>
<!-- Node2&#45;&gt;Node6 -->
<g id="edge5" class="edge"><title>Node2&#45;&gt;Node6</title>
<path fill="none" stroke="midnightblue" d="M282.075,-68.5584C298.929,-59.6191 319.301,-49.1624 338,-40.5 345.27,-37.1325 353.124,-33.7373 360.701,-30.5815"/>
<polygon fill="midnightblue" stroke="midnightblue" points="280.279,-65.5496 273.106,-73.3476 283.576,-71.7244 280.279,-65.5496"/>
</g>
</g>
</svg>
