<?xml version="1.0" encoding="UTF-8" standalone="no"?>
<!DOCTYPE svg PUBLIC "-//W3C//DTD SVG 1.1//EN"
 "http://www.w3.org/Graphics/SVG/1.1/DTD/svg11.dtd">
<!-- Generated by graphviz version 2.38.0 (20140413.2041)
 -->
<!-- Title: Graphical Class Hierarchy Pages: 1 -->
<svg width="320pt" height="705pt"
 viewBox="0.00 0.00 320.00 705.00" xmlns="http://www.w3.org/2000/svg" xmlns:xlink="http://www.w3.org/1999/xlink">
<g id="graph0" class="graph" transform="scale(1 1) rotate(0) translate(4 701)">
<title>Graphical Class Hierarchy</title>
<polygon fill="white" stroke="none" points="-4,4 -4,-701 316,-701 316,4 -4,4"/>
<!-- Node1 -->
<g id="node1" class="node"><title>Node1</title>
<g id="a_node1"><a xlink:href="classComPWA_1_1FunctionTree_1_1Strategy.html" target="_top" xlink:title="Virtual base class for operations of FunctionTree nodes. ">
<polygon fill="white" stroke="black" points="0,-333.5 0,-363.5 124,-363.5 124,-333.5 0,-333.5"/>
<text text-anchor="start" x="8" y="-351.5" font-family="Helvetica,sans-Serif" font-size="10.00">ComPWA::FunctionTree</text>
<text text-anchor="middle" x="62" y="-340.5" font-family="Helvetica,sans-Serif" font-size="10.00">::Strategy</text>
</a>
</g>
</g>
<!-- Node2 -->
<g id="node2" class="node"><title>Node2</title>
<g id="a_node2"><a xlink:href="classComPWA_1_1FunctionTree_1_1AbsSquare.html" target="_top" xlink:title="ComPWA::FunctionTree\l::AbsSquare">
<polygon fill="white" stroke="black" points="174,-666.5 174,-696.5 298,-696.5 298,-666.5 174,-666.5"/>
<text text-anchor="start" x="182" y="-684.5" font-family="Helvetica,sans-Serif" font-size="10.00">ComPWA::FunctionTree</text>
<text text-anchor="middle" x="236" y="-673.5" font-family="Helvetica,sans-Serif" font-size="10.00">::AbsSquare</text>
</a>
</g>
</g>
<!-- Node1&#45;&gt;Node2 -->
<g id="edge1" class="edge"><title>Node1&#45;&gt;Node2</title>
<path fill="none" stroke="midnightblue" d="M63.4711,-374.026C65.953,-432.516 80.2897,-577.348 160,-657.5 164.049,-661.571 168.788,-664.953 173.882,-667.761"/>
<polygon fill="midnightblue" stroke="midnightblue" points="66.9624,-373.708 63.1246,-363.833 59.9665,-373.946 66.9624,-373.708"/>
</g>
<!-- Node3 -->
<g id="node3" class="node"><title>Node3</title>
<g id="a_node3"><a xlink:href="classComPWA_1_1FunctionTree_1_1AddAll.html" target="_top" xlink:title="Calculates the square root of input double values and double parameters. ">
<polygon fill="white" stroke="black" points="174,-617.5 174,-647.5 298,-647.5 298,-617.5 174,-617.5"/>
<text text-anchor="start" x="182" y="-635.5" font-family="Helvetica,sans-Serif" font-size="10.00">ComPWA::FunctionTree</text>
<text text-anchor="middle" x="236" y="-624.5" font-family="Helvetica,sans-Serif" font-size="10.00">::AddAll</text>
</a>
</g>
</g>
<!-- Node1&#45;&gt;Node3 -->
<g id="edge2" class="edge"><title>Node1&#45;&gt;Node3</title>
<path fill="none" stroke="midnightblue" d="M65.2164,-373.825C71.0856,-425.411 91.6274,-543.293 160,-608.5 164.056,-612.368 168.737,-615.613 173.738,-618.335"/>
<polygon fill="midnightblue" stroke="midnightblue" points="68.6671,-373.17 64.1483,-363.587 61.7049,-373.896 68.6671,-373.17"/>
</g>
<!-- Node4 -->
<g id="node4" class="node"><title>Node4</title>
<g id="a_node4"><a xlink:href="classComPWA_1_1FunctionTree_1_1ComplexConjugate.html" target="_top" xlink:title="ComPWA::FunctionTree\l::ComplexConjugate">
<polygon fill="white" stroke="black" points="174,-568.5 174,-598.5 298,-598.5 298,-568.5 174,-568.5"/>
<text text-anchor="start" x="182" y="-586.5" font-family="Helvetica,sans-Serif" font-size="10.00">ComPWA::FunctionTree</text>
<text text-anchor="middle" x="236" y="-575.5" font-family="Helvetica,sans-Serif" font-size="10.00">::ComplexConjugate</text>
</a>
</g>
</g>
<!-- Node1&#45;&gt;Node4 -->
<g id="edge3" class="edge"><title>Node1&#45;&gt;Node4</title>
<path fill="none" stroke="midnightblue" d="M67.6743,-373.643C77.1649,-417.678 102.838,-508.878 160,-559.5 164.094,-563.126 168.74,-566.204 173.664,-568.818"/>
<polygon fill="midnightblue" stroke="midnightblue" points="71.0856,-372.855 65.6482,-363.762 64.2283,-374.261 71.0856,-372.855"/>
</g>
<!-- Node5 -->
<g id="node5" class="node"><title>Node5</title>
<g id="a_node5"><a xlink:href="classComPWA_1_1FunctionTree_1_1Complexify.html" target="_top" xlink:title="ComPWA::FunctionTree\l::Complexify">
<polygon fill="white" stroke="black" points="174,-519.5 174,-549.5 298,-549.5 298,-519.5 174,-519.5"/>
<text text-anchor="start" x="182" y="-537.5" font-family="Helvetica,sans-Serif" font-size="10.00">ComPWA::FunctionTree</text>
<text text-anchor="middle" x="236" y="-526.5" font-family="Helvetica,sans-Serif" font-size="10.00">::Complexify</text>
</a>
</g>
</g>
<!-- Node1&#45;&gt;Node5 -->
<g id="edge4" class="edge"><title>Node1&#45;&gt;Node5</title>
<path fill="none" stroke="midnightblue" d="M71.6043,-373.348C85.0482,-408.608 114.326,-472.93 160,-509.5 164.821,-513.36 170.265,-516.636 175.963,-519.413"/>
<polygon fill="midnightblue" stroke="midnightblue" points="74.8306,-371.981 68.0854,-363.811 68.2633,-374.404 74.8306,-371.981"/>
</g>
<!-- Node6 -->
<g id="node6" class="node"><title>Node6</title>
<g id="a_node6"><a xlink:href="classComPWA_1_1FunctionTree_1_1Exp.html" target="_top" xlink:title="ComPWA::FunctionTree::Exp">
<polygon fill="white" stroke="black" points="162.5,-481 162.5,-500 309.5,-500 309.5,-481 162.5,-481"/>
<text text-anchor="middle" x="236" y="-488" font-family="Helvetica,sans-Serif" font-size="10.00">ComPWA::FunctionTree::Exp</text>
</a>
</g>
</g>
<!-- Node1&#45;&gt;Node6 -->
<g id="edge5" class="edge"><title>Node1&#45;&gt;Node6</title>
<path fill="none" stroke="midnightblue" d="M75.4096,-372.394C91.2365,-400.457 121.261,-446.364 160,-471.5 165.972,-475.375 172.686,-478.46 179.578,-480.916"/>
<polygon fill="midnightblue" stroke="midnightblue" points="78.4727,-370.7 70.5944,-363.616 72.3355,-374.067 78.4727,-370.7"/>
</g>
<!-- Node7 -->
<g id="node7" class="node"><title>Node7</title>
<g id="a_node7"><a xlink:href="classComPWA_1_1FunctionTree_1_1Inverse.html" target="_top" xlink:title="Calculates the inverse of input double values and double parameters. ">
<polygon fill="white" stroke="black" points="174,-431.5 174,-461.5 298,-461.5 298,-431.5 174,-431.5"/>
<text text-anchor="start" x="182" y="-449.5" font-family="Helvetica,sans-Serif" font-size="10.00">ComPWA::FunctionTree</text>
<text text-anchor="middle" x="236" y="-438.5" font-family="Helvetica,sans-Serif" font-size="10.00">::Inverse</text>
</a>
</g>
</g>
<!-- Node1&#45;&gt;Node7 -->
<g id="edge6" class="edge"><title>Node1&#45;&gt;Node7</title>
<path fill="none" stroke="midnightblue" d="M87.0294,-370.591C105.747,-386.826 133.006,-408.423 160,-422.5 166.425,-425.85 173.404,-428.842 180.432,-431.48"/>
<polygon fill="midnightblue" stroke="midnightblue" points="89.1231,-367.771 79.3095,-363.778 84.491,-373.019 89.1231,-367.771"/>
</g>
<!-- Node8 -->
<g id="node8" class="node"><title>Node8</title>
<g id="a_node8"><a xlink:href="classComPWA_1_1FunctionTree_1_1LogOf.html" target="_top" xlink:title="ComPWA::FunctionTree\l::LogOf">
<polygon fill="white" stroke="black" points="174,-382.5 174,-412.5 298,-412.5 298,-382.5 174,-382.5"/>
<text text-anchor="start" x="182" y="-400.5" font-family="Helvetica,sans-Serif" font-size="10.00">ComPWA::FunctionTree</text>
<text text-anchor="middle" x="236" y="-389.5" font-family="Helvetica,sans-Serif" font-size="10.00">::LogOf</text>
</a>
</g>
</g>
<!-- Node1&#45;&gt;Node8 -->
<g id="edge7" class="edge"><title>Node1&#45;&gt;Node8</title>
<path fill="none" stroke="midnightblue" d="M125.812,-366.394C144.312,-371.664 164.359,-377.376 182.166,-382.448"/>
<polygon fill="midnightblue" stroke="midnightblue" points="126.585,-362.975 116.009,-363.601 124.668,-369.707 126.585,-362.975"/>
</g>
<!-- Node9 -->
<g id="node9" class="node"><title>Node9</title>
<g id="a_node9"><a xlink:href="classComPWA_1_1FunctionTree_1_1MultAll.html" target="_top" xlink:title="ComPWA::FunctionTree\l::MultAll">
<polygon fill="white" stroke="black" points="174,-333.5 174,-363.5 298,-363.5 298,-333.5 174,-333.5"/>
<text text-anchor="start" x="182" y="-351.5" font-family="Helvetica,sans-Serif" font-size="10.00">ComPWA::FunctionTree</text>
<text text-anchor="middle" x="236" y="-340.5" font-family="Helvetica,sans-Serif" font-size="10.00">::MultAll</text>
</a>
</g>
</g>
<!-- Node1&#45;&gt;Node9 -->
<g id="edge8" class="edge"><title>Node1&#45;&gt;Node9</title>
<path fill="none" stroke="midnightblue" d="M134.476,-348.5C147.535,-348.5 161.055,-348.5 173.782,-348.5"/>
<polygon fill="midnightblue" stroke="midnightblue" points="134.125,-345 124.125,-348.5 134.125,-352 134.125,-345"/>
</g>
<!-- Node10 -->
<g id="node10" class="node"><title>Node10</title>
<g id="a_node10"><a xlink:href="classComPWA_1_1FunctionTree_1_1Pow.html" target="_top" xlink:title="ComPWA::FunctionTree::Pow">
<polygon fill="white" stroke="black" points="161.5,-295 161.5,-314 310.5,-314 310.5,-295 161.5,-295"/>
<text text-anchor="middle" x="236" y="-302" font-family="Helvetica,sans-Serif" font-size="10.00">ComPWA::FunctionTree::Pow</text>
</a>
</g>
</g>
<!-- Node1&#45;&gt;Node10 -->
<g id="edge9" class="edge"><title>Node1&#45;&gt;Node10</title>
<path fill="none" stroke="midnightblue" d="M131.612,-330.948C154.207,-325.168 178.474,-318.96 197.815,-314.012"/>
<polygon fill="midnightblue" stroke="midnightblue" points="130.532,-327.612 121.712,-333.481 132.267,-334.393 130.532,-327.612"/>
</g>
<!-- Node11 -->
<g id="node11" class="node"><title>Node11</title>
<g id="a_node11"><a xlink:href="classComPWA_1_1FunctionTree_1_1SquareRoot.html" target="_top" xlink:title="Calculates the square root of input double values and double parameters. ">
<polygon fill="white" stroke="black" points="174,-245.5 174,-275.5 298,-275.5 298,-245.5 174,-245.5"/>
<text text-anchor="start" x="182" y="-263.5" font-family="Helvetica,sans-Serif" font-size="10.00">ComPWA::FunctionTree</text>
<text text-anchor="middle" x="236" y="-252.5" font-family="Helvetica,sans-Serif" font-size="10.00">::SquareRoot</text>
</a>
</g>
</g>
<!-- Node1&#45;&gt;Node11 -->
<g id="edge10" class="edge"><title>Node1&#45;&gt;Node11</title>
<path fill="none" stroke="midnightblue" d="M91.0396,-327.549C109.831,-314.211 135.526,-297.289 160,-285.5 167.543,-281.867 175.75,-278.546 183.875,-275.594"/>
<polygon fill="midnightblue" stroke="midnightblue" points="88.9915,-324.711 82.9207,-333.394 93.0813,-330.392 88.9915,-324.711"/>
</g>
<!-- Node12 -->
<g id="node12" class="node"><title>Node12</title>
<g id="a_node12"><a xlink:href="classComPWA_1_1Physics_1_1Dynamics_1_1BreitWignerStrategy.html" target="_top" xlink:title="ComPWA::Physics::Dynamics\l::BreitWignerStrategy">
<polygon fill="white" stroke="black" points="160,-196.5 160,-226.5 312,-226.5 312,-196.5 160,-196.5"/>
<text text-anchor="start" x="168" y="-214.5" font-family="Helvetica,sans-Serif" font-size="10.00">ComPWA::Physics::Dynamics</text>
<text text-anchor="middle" x="236" y="-203.5" font-family="Helvetica,sans-Serif" font-size="10.00">::BreitWignerStrategy</text>
</a>
</g>
</g>
<!-- Node1&#45;&gt;Node12 -->
<g id="edge11" class="edge"><title>Node1&#45;&gt;Node12</title>
<path fill="none" stroke="midnightblue" d="M78.0302,-324.53C95.0316,-299.259 124.959,-259.932 160,-236.5 165.705,-232.685 172.042,-229.407 178.547,-226.601"/>
<polygon fill="midnightblue" stroke="midnightblue" points="74.9332,-322.869 72.3659,-333.149 80.783,-326.714 74.9332,-322.869"/>
</g>
<!-- Node13 -->
<g id="node13" class="node"><title>Node13</title>
<g id="a_node13"><a xlink:href="classComPWA_1_1Physics_1_1Dynamics_1_1FlatteStrategy.html" target="_top" xlink:title="ComPWA::Physics::Dynamics\l::FlatteStrategy">
<polygon fill="white" stroke="black" points="160,-147.5 160,-177.5 312,-177.5 312,-147.5 160,-147.5"/>
<text text-anchor="start" x="168" y="-165.5" font-family="Helvetica,sans-Serif" font-size="10.00">ComPWA::Physics::Dynamics</text>
<text text-anchor="middle" x="236" y="-154.5" font-family="Helvetica,sans-Serif" font-size="10.00">::FlatteStrategy</text>
</a>
</g>
</g>
<!-- Node1&#45;&gt;Node13 -->
<g id="edge12" class="edge"><title>Node1&#45;&gt;Node13</title>
<path fill="none" stroke="midnightblue" d="M71.6043,-323.652C85.0482,-288.392 114.326,-224.07 160,-187.5 164.821,-183.64 170.265,-180.364 175.963,-177.587"/>
<polygon fill="midnightblue" stroke="midnightblue" points="68.2633,-322.596 68.0854,-333.189 74.8306,-325.019 68.2633,-322.596"/>
</g>
<!-- Node14 -->
<g id="node14" class="node"><title>Node14</title>
<g id="a_node14"><a xlink:href="classComPWA_1_1Physics_1_1Dynamics_1_1FormFactorStrategy.html" target="_top" xlink:title="ComPWA::Physics::Dynamics\l::FormFactorStrategy">
<polygon fill="white" stroke="black" points="160,-98.5 160,-128.5 312,-128.5 312,-98.5 160,-98.5"/>
<text text-anchor="start" x="168" y="-116.5" font-family="Helvetica,sans-Serif" font-size="10.00">ComPWA::Physics::Dynamics</text>
<text text-anchor="middle" x="236" y="-105.5" font-family="Helvetica,sans-Serif" font-size="10.00">::FormFactorStrategy</text>
</a>
</g>
</g>
<!-- Node1&#45;&gt;Node14 -->
<g id="edge13" class="edge"><title>Node1&#45;&gt;Node14</title>
<path fill="none" stroke="midnightblue" d="M67.7723,-323.544C77.416,-279.823 103.321,-189.215 160,-138.5 164.296,-134.656 169.201,-131.401 174.4,-128.644"/>
<polygon fill="midnightblue" stroke="midnightblue" points="64.3423,-322.847 65.7104,-333.354 71.1926,-324.287 64.3423,-322.847"/>
</g>
<!-- Node15 -->
<g id="node15" class="node"><title>Node15</title>
<g id="a_node15"><a xlink:href="classComPWA_1_1Physics_1_1Dynamics_1_1VoigtianStrategy.html" target="_top" xlink:title="ComPWA::Physics::Dynamics\l::VoigtianStrategy">
<polygon fill="white" stroke="black" points="160,-49.5 160,-79.5 312,-79.5 312,-49.5 160,-49.5"/>
<text text-anchor="start" x="168" y="-67.5" font-family="Helvetica,sans-Serif" font-size="10.00">ComPWA::Physics::Dynamics</text>
<text text-anchor="middle" x="236" y="-56.5" font-family="Helvetica,sans-Serif" font-size="10.00">::VoigtianStrategy</text>
</a>
</g>
</g>
<!-- Node1&#45;&gt;Node15 -->
<g id="edge14" class="edge"><title>Node1&#45;&gt;Node15</title>
<path fill="none" stroke="midnightblue" d="M65.3553,-322.971C71.4573,-271.514 92.3706,-154.699 160,-89.5 164.051,-85.5944 168.729,-82.2985 173.728,-79.5173"/>
<polygon fill="midnightblue" stroke="midnightblue" points="61.845,-322.876 64.2387,-333.197 68.8037,-323.636 61.845,-322.876"/>
</g>
<!-- Node16 -->
<g id="node16" class="node"><title>Node16</title>
<g id="a_node16"><a xlink:href="classComPWA_1_1Physics_1_1HelicityFormalism_1_1WignerDStrategy.html" target="_top" xlink:title="ComPWA::Physics::Helicity\lFormalism::WignerDStrategy">
<polygon fill="white" stroke="black" points="164.5,-0.5 164.5,-30.5 307.5,-30.5 307.5,-0.5 164.5,-0.5"/>
<text text-anchor="start" x="172.5" y="-18.5" font-family="Helvetica,sans-Serif" font-size="10.00">ComPWA::Physics::Helicity</text>
<text text-anchor="middle" x="236" y="-7.5" font-family="Helvetica,sans-Serif" font-size="10.00">Formalism::WignerDStrategy</text>
</a>
</g>
</g>
<!-- Node1&#45;&gt;Node16 -->
<g id="edge15" class="edge"><title>Node1&#45;&gt;Node16</title>
<path fill="none" stroke="midnightblue" d="M63.5651,-323.121C66.2451,-264.955 80.97,-120.857 160,-40.5 163.753,-36.6836 168.104,-33.4498 172.782,-30.7097"/>
<polygon fill="midnightblue" stroke="midnightblue" points="60.0624,-323.132 63.1831,-333.256 67.0574,-323.395 60.0624,-323.132"/>
</g>
</g>
</svg>
