<?xml version="1.0" encoding="UTF-8" standalone="no"?>
<!DOCTYPE svg PUBLIC "-//W3C//DTD SVG 1.1//EN"
 "http://www.w3.org/Graphics/SVG/1.1/DTD/svg11.dtd">
<!-- Generated by graphviz version 2.38.0 (20140413.2041)
 -->
<!-- Title: Graphical Class Hierarchy Pages: 1 -->
<svg width="292pt" height="88pt"
 viewBox="0.00 0.00 292.00 88.00" xmlns="http://www.w3.org/2000/svg" xmlns:xlink="http://www.w3.org/1999/xlink">
<g id="graph0" class="graph" transform="scale(1 1) rotate(0) translate(4 84)">
<title>Graphical Class Hierarchy</title>
<polygon fill="white" stroke="none" points="-4,4 -4,-84 288,-84 288,4 -4,4"/>
<!-- Node1 -->
<g id="node1" class="node"><title>Node1</title>
<g id="a_node1"><a xlink:href="classComPWA_1_1FunctionTree_1_1Parameter.html" target="_top" xlink:title="Base class for internal parameter. ">
<polygon fill="white" stroke="black" points="0,-24.5 0,-54.5 124,-54.5 124,-24.5 0,-24.5"/>
<text text-anchor="start" x="8" y="-42.5" font-family="Helvetica,sans-Serif" font-size="10.00">ComPWA::FunctionTree</text>
<text text-anchor="middle" x="62" y="-31.5" font-family="Helvetica,sans-Serif" font-size="10.00">::Parameter</text>
</a>
</g>
</g>
<!-- Node2 -->
<g id="node2" class="node"><title>Node2</title>
<g id="a_node2"><a xlink:href="classComPWA_1_1FunctionTree_1_1FitParameter.html" target="_top" xlink:title="ComPWA::FunctionTree\l::FitParameter">
<polygon fill="white" stroke="black" points="160,-49.5 160,-79.5 284,-79.5 284,-49.5 160,-49.5"/>
<text text-anchor="start" x="168" y="-67.5" font-family="Helvetica,sans-Serif" font-size="10.00">ComPWA::FunctionTree</text>
<text text-anchor="middle" x="222" y="-56.5" font-family="Helvetica,sans-Serif" font-size="10.00">::FitParameter</text>
</a>
</g>
</g>
<!-- Node1&#45;&gt;Node2 -->
<g id="edge1" class="edge"><title>Node1&#45;&gt;Node2</title>
<path fill="none" stroke="midnightblue" d="M134.086,-50.7477C142.673,-52.1065 151.387,-53.4853 159.815,-54.8188"/>
<polygon fill="midnightblue" stroke="midnightblue" points="134.511,-47.2716 124.087,-49.1657 133.417,-54.1856 134.511,-47.2716"/>
</g>
<!-- Node3 -->
<g id="node3" class="node"><title>Node3</title>
<g id="a_node3"><a xlink:href="classComPWA_1_1FunctionTree_1_1Value.html" target="_top" xlink:title="ComPWA::FunctionTree\l::Value\&lt; T \&gt;">
<polygon fill="white" stroke="black" points="160,-0.5 160,-30.5 284,-30.5 284,-0.5 160,-0.5"/>
<text text-anchor="start" x="168" y="-18.5" font-family="Helvetica,sans-Serif" font-size="10.00">ComPWA::FunctionTree</text>
<text text-anchor="middle" x="222" y="-7.5" font-family="Helvetica,sans-Serif" font-size="10.00">::Value&lt; T &gt;</text>
</a>
</g>
</g>
<!-- Node1&#45;&gt;Node3 -->
<g id="edge2" class="edge"><title>Node1&#45;&gt;Node3</title>
<path fill="none" stroke="midnightblue" d="M134.086,-28.7022C142.673,-27.3977 151.387,-26.0742 159.815,-24.7939"/>
<polygon fill="midnightblue" stroke="midnightblue" points="133.448,-25.2588 124.087,-30.221 134.499,-32.1794 133.448,-25.2588"/>
</g>
</g>
</svg>
