<?xml version="1.0" encoding="UTF-8" standalone="no"?>
<!DOCTYPE svg PUBLIC "-//W3C//DTD SVG 1.1//EN"
 "http://www.w3.org/Graphics/SVG/1.1/DTD/svg11.dtd">
<!-- Generated by graphviz version 2.38.0 (20140413.2041)
 -->
<!-- Title: Tools/Integration.hpp Pages: 1 -->
<svg width="652pt" height="140pt"
 viewBox="0.00 0.00 652.00 140.00" xmlns="http://www.w3.org/2000/svg" xmlns:xlink="http://www.w3.org/1999/xlink">
<g id="graph0" class="graph" transform="scale(1 1) rotate(0) translate(4 136)">
<title>Tools/Integration.hpp</title>
<polygon fill="white" stroke="none" points="-4,4 -4,-136 648,-136 648,4 -4,4"/>
<!-- Node1 -->
<g id="node1" class="node"><title>Node1</title>
<polygon fill="#bfbfbf" stroke="black" points="338,-112.5 338,-131.5 446,-131.5 446,-112.5 338,-112.5"/>
<text text-anchor="middle" x="392" y="-119.5" font-family="Helvetica,sans-Serif" font-size="10.00">Tools/Integration.hpp</text>
</g>
<!-- Node2 -->
<g id="node2" class="node"><title>Node2</title>
<g id="a_node2"><a xlink:href="EvtGenIF_8hpp.html" target="_top" xlink:title="Physics/EvtGen/EvtGenIF.hpp">
<polygon fill="white" stroke="black" points="92,-56.5 92,-75.5 244,-75.5 244,-56.5 92,-56.5"/>
<text text-anchor="middle" x="168" y="-63.5" font-family="Helvetica,sans-Serif" font-size="10.00">Physics/EvtGen/EvtGenIF.hpp</text>
</a>
</g>
</g>
<!-- Node1&#45;&gt;Node2 -->
<g id="edge1" class="edge"><title>Node1&#45;&gt;Node2</title>
<path fill="none" stroke="midnightblue" d="M346.737,-110.088C304.418,-99.8865 242.091,-84.8612 203.327,-75.5164"/>
<polygon fill="midnightblue" stroke="midnightblue" points="345.965,-113.502 356.507,-112.444 347.605,-106.697 345.965,-113.502"/>
</g>
<!-- Node5 -->
<g id="node5" class="node"><title>Node5</title>
<g id="a_node5"><a xlink:href="BuilderXML_8cpp.html" target="_top" xlink:title="Physics/BuilderXML.cpp">
<polygon fill="white" stroke="black" points="262,-56.5 262,-75.5 386,-75.5 386,-56.5 262,-56.5"/>
<text text-anchor="middle" x="324" y="-63.5" font-family="Helvetica,sans-Serif" font-size="10.00">Physics/BuilderXML.cpp</text>
</a>
</g>
</g>
<!-- Node1&#45;&gt;Node5 -->
<g id="edge4" class="edge"><title>Node1&#45;&gt;Node5</title>
<path fill="none" stroke="midnightblue" d="M373.238,-106.101C361,-96.3824 345.441,-84.0269 335.124,-75.8339"/>
<polygon fill="midnightblue" stroke="midnightblue" points="371.067,-108.846 381.075,-112.324 375.42,-103.364 371.067,-108.846"/>
</g>
<!-- Node6 -->
<g id="node6" class="node"><title>Node6</title>
<g id="a_node6"><a xlink:href="FitFractions_8cpp.html" target="_top" xlink:title="Tools/FitFractions.cpp">
<polygon fill="white" stroke="black" points="404,-56.5 404,-75.5 518,-75.5 518,-56.5 404,-56.5"/>
<text text-anchor="middle" x="461" y="-63.5" font-family="Helvetica,sans-Serif" font-size="10.00">Tools/FitFractions.cpp</text>
</a>
</g>
</g>
<!-- Node1&#45;&gt;Node6 -->
<g id="edge5" class="edge"><title>Node1&#45;&gt;Node6</title>
<path fill="none" stroke="midnightblue" d="M411.038,-106.101C423.456,-96.3824 439.243,-84.0269 449.712,-75.8339"/>
<polygon fill="midnightblue" stroke="midnightblue" points="408.804,-103.405 403.086,-112.324 413.118,-108.917 408.804,-103.405"/>
</g>
<!-- Node7 -->
<g id="node7" class="node"><title>Node7</title>
<g id="a_node7"><a xlink:href="Integration_8cpp.html" target="_top" xlink:title="Tools/Integration.cpp">
<polygon fill="white" stroke="black" points="536,-56.5 536,-75.5 644,-75.5 644,-56.5 536,-56.5"/>
<text text-anchor="middle" x="590" y="-63.5" font-family="Helvetica,sans-Serif" font-size="10.00">Tools/Integration.cpp</text>
</a>
</g>
</g>
<!-- Node1&#45;&gt;Node7 -->
<g id="edge6" class="edge"><title>Node1&#45;&gt;Node7</title>
<path fill="none" stroke="midnightblue" d="M433.438,-109.699C470.807,-99.507 524.943,-84.7429 558.773,-75.5164"/>
<polygon fill="midnightblue" stroke="midnightblue" points="432.1,-106.436 423.374,-112.444 433.942,-113.189 432.1,-106.436"/>
</g>
<!-- Node3 -->
<g id="node3" class="node"><title>Node3</title>
<g id="a_node3"><a xlink:href="EvtGenFit_8cpp.html" target="_top" xlink:title="Examples/EvtGen/EvtGenFit.cpp">
<polygon fill="white" stroke="black" points="0,-0.5 0,-19.5 162,-19.5 162,-0.5 0,-0.5"/>
<text text-anchor="middle" x="81" y="-7.5" font-family="Helvetica,sans-Serif" font-size="10.00">Examples/EvtGen/EvtGenFit.cpp</text>
</a>
</g>
</g>
<!-- Node2&#45;&gt;Node3 -->
<g id="edge2" class="edge"><title>Node2&#45;&gt;Node3</title>
<path fill="none" stroke="midnightblue" d="M145.284,-50.9005C129.331,-40.9986 108.503,-28.0705 94.9434,-19.6545"/>
<polygon fill="midnightblue" stroke="midnightblue" points="143.68,-54.024 154.022,-56.324 147.371,-48.0765 143.68,-54.024"/>
</g>
<!-- Node4 -->
<g id="node4" class="node"><title>Node4</title>
<g id="a_node4"><a xlink:href="EvtGenIF_8cpp.html" target="_top" xlink:title="Physics/EvtGen/EvtGenIF.cpp">
<polygon fill="white" stroke="black" points="180,-0.5 180,-19.5 332,-19.5 332,-0.5 180,-0.5"/>
<text text-anchor="middle" x="256" y="-7.5" font-family="Helvetica,sans-Serif" font-size="10.00">Physics/EvtGen/EvtGenIF.cpp</text>
</a>
</g>
</g>
<!-- Node2&#45;&gt;Node4 -->
<g id="edge3" class="edge"><title>Node2&#45;&gt;Node4</title>
<path fill="none" stroke="midnightblue" d="M190.977,-50.9005C207.113,-40.9986 228.181,-28.0705 241.896,-19.6545"/>
<polygon fill="midnightblue" stroke="midnightblue" points="188.831,-48.1106 182.139,-56.324 192.493,-54.0769 188.831,-48.1106"/>
</g>
</g>
</svg>
