<?xml version="1.0" encoding="UTF-8" standalone="no"?>
<!DOCTYPE svg PUBLIC "-//W3C//DTD SVG 1.1//EN"
 "http://www.w3.org/Graphics/SVG/1.1/DTD/svg11.dtd">
<!-- Generated by graphviz version 2.38.0 (20140413.2041)
 -->
<!-- Title: Tools/Integration.cpp Pages: 1 -->
<!--zoomable 218 -->
<svg id="main" version="1.1" xmlns="http://www.w3.org/2000/svg" xmlns:xlink="http://www.w3.org/1999/xlink" xml:space="preserve" onload="init(evt)">
<style type="text/css"><![CDATA[
.edge:hover path { stroke: red; }
.edge:hover polygon { stroke: red; fill: red; }
]]></style>
<script type="text/javascript"><![CDATA[
var edges = document.getElementsByTagName('g');
if (edges && edges.length) {
  for (var i=0;i<edges.length;i++) {
    if (edges[i].id.substr(0,4)=='edge') {
      edges[i].setAttribute('class','edge');
    }
  }
}
]]></script>
        <defs>
                <circle id="rim" cx="0" cy="0" r="7"/>
                <circle id="rim2" cx="0" cy="0" r="3.5"/>
                <g id="zoomPlus">
                        <use xlink:href="#rim" fill="#404040">
                                <set attributeName="fill" to="#808080" begin="zoomplus.mouseover" end="zoomplus.mouseout"/>
                        </use>
                        <path d="M-4,0h8M0,-4v8" fill="none" stroke="white" stroke-width="1.5" pointer-events="none"/>
                </g>
                <g id="zoomMin">
                        <use xlink:href="#rim" fill="#404040">
                                <set attributeName="fill" to="#808080" begin="zoomminus.mouseover" end="zoomminus.mouseout"/>
                        </use>
                        <path d="M-4,0h8" fill="none" stroke="white" stroke-width="1.5" pointer-events="none"/>
                </g>
                <g id="dirArrow">
                        <path fill="none" stroke="white" stroke-width="1.5" d="M0,-3.0v7 M-2.5,-0.5L0,-3.0L2.5,-0.5"/>
                </g>
               <g id="resetDef">
                       <use xlink:href="#rim2" fill="#404040">
                               <set attributeName="fill" to="#808080" begin="reset.mouseover" end="reset.mouseout"/>
                       </use>
               </g>
        </defs>

<script type="text/javascript">
var viewWidth = 769;
var viewHeight = 218;
var sectionId = 'dynsection-0';
</script>
<script xlink:href="svgpan.js"/>
<svg id="graph" class="graph">
<g id="viewport">
<title>Tools/Integration.cpp</title>
<polygon fill="white" stroke="none" points="-4,4 -4,-214 765.34,-214 765.34,4 -4,4"/>
<!-- Node1 -->
<g id="node1" class="node"><title>Node1</title>
<polygon fill="#bfbfbf" stroke="black" points="308.34,-190.5 308.34,-209.5 416.34,-209.5 416.34,-190.5 308.34,-190.5"/>
<text text-anchor="middle" x="362.34" y="-197.5" font-family="Helvetica,sans-Serif" font-size="10.00">Tools/Integration.cpp</text>
</g>
<!-- Node2 -->
<g id="node2" class="node"><title>Node2</title>
<g id="a_node2"><a xlink:href="Integration_8hpp.html" target="_top" xlink:title="Integration.hpp">
<polygon fill="white" stroke="black" points="168.84,-129 168.84,-148 249.84,-148 249.84,-129 168.84,-129"/>
<text text-anchor="middle" x="209.34" y="-136" font-family="Helvetica,sans-Serif" font-size="10.00">Integration.hpp</text>
</a>
</g>
</g>
<!-- Node1&#45;&gt;Node2 -->
<g id="edge1" class="edge"><title>Node1&#45;&gt;Node2</title>
<path fill="none" stroke="midnightblue" d="M340.419,-190.475C314.288,-180.313 270.428,-163.256 240.711,-151.7"/>
<polygon fill="midnightblue" stroke="midnightblue" points="241.81,-148.372 231.221,-148.009 239.272,-154.896 241.81,-148.372"/>
</g>
<!-- Node4 -->
<g id="node4" class="node"><title>Node4</title>
<polygon fill="white" stroke="#bfbfbf" points="194.34,-0.5 194.34,-19.5 238.34,-19.5 238.34,-0.5 194.34,-0.5"/>
<text text-anchor="middle" x="216.34" y="-7.5" font-family="Helvetica,sans-Serif" font-size="10.00">vector</text>
</g>
<!-- Node1&#45;&gt;Node4 -->
<g id="edge13" class="edge"><title>Node1&#45;&gt;Node4</title>
<path fill="none" stroke="midnightblue" d="M308.094,-197.661C227.955,-194.657 83.0075,-184.98 42.3405,-154 6.20802,-126.474 -15.0909,-91.4241 13.3405,-56 34.4265,-29.7278 132.669,-17.8447 184.355,-13.3342"/>
<polygon fill="midnightblue" stroke="midnightblue" points="184.659,-16.8212 194.334,-12.5047 184.079,-9.84522 184.659,-16.8212"/>
</g>
<!-- Node5 -->
<g id="node5" class="node"><title>Node5</title>
<g id="a_node5"><a xlink:href="Logging_8hpp.html" target="_top" xlink:title="Core/Logging.hpp">
<polygon fill="white" stroke="black" points="51.8405,-129 51.8405,-148 144.84,-148 144.84,-129 51.8405,-129"/>
<text text-anchor="middle" x="98.3405" y="-136" font-family="Helvetica,sans-Serif" font-size="10.00">Core/Logging.hpp</text>
</a>
</g>
</g>
<!-- Node1&#45;&gt;Node5 -->
<g id="edge4" class="edge"><title>Node1&#45;&gt;Node5</title>
<path fill="none" stroke="midnightblue" d="M323.005,-190.466C282.08,-181.544 216.16,-167.05 159.34,-154 154.298,-152.842 149.025,-151.614 143.781,-150.382"/>
<polygon fill="midnightblue" stroke="midnightblue" points="144.337,-146.917 133.801,-148.025 142.729,-153.73 144.337,-146.917"/>
</g>
<!-- Node7 -->
<g id="node7" class="node"><title>Node7</title>
<g id="a_node7"><a xlink:href="DataSet_8hpp.html" target="_top" xlink:title="Data/DataSet.hpp">
<polygon fill="white" stroke="black" points="267.84,-129 267.84,-148 362.84,-148 362.84,-129 267.84,-129"/>
<text text-anchor="middle" x="315.34" y="-136" font-family="Helvetica,sans-Serif" font-size="10.00">Data/DataSet.hpp</text>
</a>
</g>
</g>
<!-- Node1&#45;&gt;Node7 -->
<g id="edge6" class="edge"><title>Node1&#45;&gt;Node7</title>
<path fill="none" stroke="midnightblue" d="M355.607,-190.475C348.556,-181.55 337.306,-167.307 328.487,-156.143"/>
<polygon fill="midnightblue" stroke="midnightblue" points="331.007,-153.687 322.062,-148.009 325.514,-158.026 331.007,-153.687"/>
</g>
<!-- Node10 -->
<g id="node10" class="node"><title>Node10</title>
<polygon fill="white" stroke="#bfbfbf" points="381.34,-129 381.34,-148 437.34,-148 437.34,-129 381.34,-129"/>
<text text-anchor="middle" x="409.34" y="-136" font-family="Helvetica,sans-Serif" font-size="10.00">algorithm</text>
</g>
<!-- Node1&#45;&gt;Node10 -->
<g id="edge11" class="edge"><title>Node1&#45;&gt;Node10</title>
<path fill="none" stroke="midnightblue" d="M369.074,-190.475C376.124,-181.55 387.375,-167.307 396.194,-156.143"/>
<polygon fill="midnightblue" stroke="midnightblue" points="399.167,-158.026 402.619,-148.009 393.674,-153.687 399.167,-158.026"/>
</g>
<!-- Node11 -->
<g id="node11" class="node"><title>Node11</title>
<polygon fill="white" stroke="#bfbfbf" points="455.34,-129 455.34,-148 499.34,-148 499.34,-129 455.34,-129"/>
<text text-anchor="middle" x="477.34" y="-136" font-family="Helvetica,sans-Serif" font-size="10.00">cmath</text>
</g>
<!-- Node1&#45;&gt;Node11 -->
<g id="edge12" class="edge"><title>Node1&#45;&gt;Node11</title>
<path fill="none" stroke="midnightblue" d="M378.817,-190.475C397.946,-180.578 429.714,-164.142 451.992,-152.615"/>
<polygon fill="midnightblue" stroke="midnightblue" points="453.621,-155.713 460.894,-148.009 450.404,-149.496 453.621,-155.713"/>
</g>
<!-- Node12 -->
<g id="node12" class="node"><title>Node12</title>
<polygon fill="white" stroke="#bfbfbf" points="517.34,-123.5 517.34,-153.5 629.34,-153.5 629.34,-123.5 517.34,-123.5"/>
<text text-anchor="start" x="525.34" y="-141.5" font-family="Helvetica,sans-Serif" font-size="10.00">ThirdParty/parallelstl</text>
<text text-anchor="middle" x="573.34" y="-130.5" font-family="Helvetica,sans-Serif" font-size="10.00">/include/pstl/algorithm</text>
</g>
<!-- Node1&#45;&gt;Node12 -->
<g id="edge14" class="edge"><title>Node1&#45;&gt;Node12</title>
<path fill="none" stroke="midnightblue" d="M392.572,-190.475C424.086,-181.588 474.299,-167.429 513.814,-156.286"/>
<polygon fill="midnightblue" stroke="midnightblue" points="514.937,-159.606 523.612,-153.523 513.037,-152.868 514.937,-159.606"/>
</g>
<!-- Node13 -->
<g id="node13" class="node"><title>Node13</title>
<polygon fill="white" stroke="#bfbfbf" points="647.34,-123.5 647.34,-153.5 761.34,-153.5 761.34,-123.5 647.34,-123.5"/>
<text text-anchor="start" x="655.34" y="-141.5" font-family="Helvetica,sans-Serif" font-size="10.00">ThirdParty/parallelstl</text>
<text text-anchor="middle" x="704.34" y="-130.5" font-family="Helvetica,sans-Serif" font-size="10.00">/include/pstl/execution</text>
</g>
<!-- Node1&#45;&gt;Node13 -->
<g id="edge15" class="edge"><title>Node1&#45;&gt;Node13</title>
<path fill="none" stroke="midnightblue" d="M416.438,-191.073C470.018,-183.022 554.636,-169.767 637.099,-154.179"/>
<polygon fill="midnightblue" stroke="midnightblue" points="637.974,-157.575 647.142,-152.267 636.664,-150.699 637.974,-157.575"/>
</g>
<!-- Node3 -->
<g id="node3" class="node"><title>Node3</title>
<g id="a_node3"><a xlink:href="Function_8hpp.html" target="_top" xlink:title="Core/Function.hpp">
<polygon fill="white" stroke="red" points="167.84,-62 167.84,-81 264.84,-81 264.84,-62 167.84,-62"/>
<text text-anchor="middle" x="216.34" y="-69" font-family="Helvetica,sans-Serif" font-size="10.00">Core/Function.hpp</text>
</a>
</g>
</g>
<!-- Node2&#45;&gt;Node3 -->
<g id="edge2" class="edge"><title>Node2&#45;&gt;Node3</title>
<path fill="none" stroke="midnightblue" d="M210.285,-128.734C211.313,-119.183 212.989,-103.618 214.318,-91.2829"/>
<polygon fill="midnightblue" stroke="midnightblue" points="217.82,-91.4446 215.411,-81.1273 210.861,-90.695 217.82,-91.4446"/>
</g>
<!-- Node3&#45;&gt;Node4 -->
<g id="edge3" class="edge"><title>Node3&#45;&gt;Node4</title>
<path fill="none" stroke="midnightblue" d="M216.34,-61.9751C216.34,-53.5803 216.34,-40.4806 216.34,-29.6631"/>
<polygon fill="midnightblue" stroke="midnightblue" points="219.841,-29.5091 216.34,-19.5091 212.841,-29.5091 219.841,-29.5091"/>
</g>
<!-- Node6 -->
<g id="node6" class="node"><title>Node6</title>
<polygon fill="white" stroke="#bfbfbf" points="22.8405,-56.5 22.8405,-86.5 149.84,-86.5 149.84,-56.5 22.8405,-56.5"/>
<text text-anchor="start" x="30.8405" y="-74.5" font-family="Helvetica,sans-Serif" font-size="10.00">ThirdParty/easyloggingpp</text>
<text text-anchor="middle" x="86.3405" y="-63.5" font-family="Helvetica,sans-Serif" font-size="10.00">/easylogging++.h</text>
</g>
<!-- Node5&#45;&gt;Node6 -->
<g id="edge5" class="edge"><title>Node5&#45;&gt;Node6</title>
<path fill="none" stroke="midnightblue" d="M96.7221,-128.734C95.2095,-120.541 92.88,-107.923 90.8107,-96.7136"/>
<polygon fill="midnightblue" stroke="midnightblue" points="94.1989,-95.7874 88.9415,-86.589 87.3152,-97.0583 94.1989,-95.7874"/>
</g>
<!-- Node7&#45;&gt;Node3 -->
<g id="edge10" class="edge"><title>Node7&#45;&gt;Node3</title>
<path fill="none" stroke="midnightblue" d="M301.989,-128.734C285.586,-117.964 257.54,-99.55 238.028,-86.7395"/>
<polygon fill="midnightblue" stroke="midnightblue" points="239.761,-83.69 229.481,-81.1273 235.919,-89.5415 239.761,-83.69"/>
</g>
<!-- Node8 -->
<g id="node8" class="node"><title>Node8</title>
<polygon fill="white" stroke="#bfbfbf" points="386.34,-62 386.34,-81 438.34,-81 438.34,-62 386.34,-62"/>
<text text-anchor="middle" x="412.34" y="-69" font-family="Helvetica,sans-Serif" font-size="10.00">memory</text>
</g>
<!-- Node7&#45;&gt;Node8 -->
<g id="edge7" class="edge"><title>Node7&#45;&gt;Node8</title>
<path fill="none" stroke="midnightblue" d="M328.422,-128.734C344.494,-117.964 371.974,-99.55 391.091,-86.7395"/>
<polygon fill="midnightblue" stroke="midnightblue" points="393.107,-89.6017 399.466,-81.1273 389.21,-83.7865 393.107,-89.6017"/>
</g>
<!-- Node9 -->
<g id="node9" class="node"><title>Node9</title>
<g id="a_node9"><a xlink:href="Event_8hpp.html" target="_top" xlink:title="Core/Event.hpp">
<polygon fill="white" stroke="red" points="282.84,-62 282.84,-81 367.84,-81 367.84,-62 282.84,-62"/>
<text text-anchor="middle" x="325.34" y="-69" font-family="Helvetica,sans-Serif" font-size="10.00">Core/Event.hpp</text>
</a>
</g>
</g>
<!-- Node7&#45;&gt;Node9 -->
<g id="edge8" class="edge"><title>Node7&#45;&gt;Node9</title>
<path fill="none" stroke="midnightblue" d="M316.689,-128.734C318.159,-119.183 320.553,-103.618 322.451,-91.2829"/>
<polygon fill="midnightblue" stroke="midnightblue" points="325.952,-91.5432 324.013,-81.1273 319.033,-90.4788 325.952,-91.5432"/>
</g>
<!-- Node9&#45;&gt;Node4 -->
<g id="edge9" class="edge"><title>Node9&#45;&gt;Node4</title>
<path fill="none" stroke="midnightblue" d="M309.723,-61.9751C291.755,-52.1664 262.019,-35.9346 240.934,-24.425"/>
<polygon fill="midnightblue" stroke="midnightblue" points="242.383,-21.2284 231.929,-19.5091 239.029,-27.3726 242.383,-21.2284"/>
</g>
</g>
</svg>
        <g id="navigator" transform="translate(0 0)" fill="#404254">
                <rect fill="#f2f5e9" fill-opacity="0.5" stroke="#606060" stroke-width=".5" x="0" y="0" width="60" height="60"/>
                <use id="zoomplus" xlink:href="#zoomPlus" x="17" y="9" onmousedown="handleZoom(evt,'in')"/>
                <use id="zoomminus" xlink:href="#zoomMin" x="42" y="9" onmousedown="handleZoom(evt,'out')"/>
                <use id="reset" xlink:href="#resetDef" x="30" y="36" onmousedown="handleReset()"/>
                <g id="arrowUp" xlink:href="#dirArrow" transform="translate(30 24)" onmousedown="handlePan(0,-1)">
                  <use xlink:href="#rim" fill="#404040">
                        <set attributeName="fill" to="#808080" begin="arrowUp.mouseover" end="arrowUp.mouseout"/>
                  </use>
                  <path fill="none" stroke="white" stroke-width="1.5" d="M0,-3.0v7 M-2.5,-0.5L0,-3.0L2.5,-0.5"/>
                </g>
                <g id="arrowRight" xlink:href="#dirArrow" transform="rotate(90) translate(36 -43)" onmousedown="handlePan(1,0)">
                  <use xlink:href="#rim" fill="#404040">
                        <set attributeName="fill" to="#808080" begin="arrowRight.mouseover" end="arrowRight.mouseout"/>
                  </use>
                  <path fill="none" stroke="white" stroke-width="1.5" d="M0,-3.0v7 M-2.5,-0.5L0,-3.0L2.5,-0.5"/>
                </g>
                <g id="arrowDown" xlink:href="#dirArrow" transform="rotate(180) translate(-30 -48)" onmousedown="handlePan(0,1)">
                  <use xlink:href="#rim" fill="#404040">
                        <set attributeName="fill" to="#808080" begin="arrowDown.mouseover" end="arrowDown.mouseout"/>
                  </use>
                  <path fill="none" stroke="white" stroke-width="1.5" d="M0,-3.0v7 M-2.5,-0.5L0,-3.0L2.5,-0.5"/>
                </g>
                <g id="arrowLeft" xlink:href="#dirArrow" transform="rotate(270) translate(-36 17)" onmousedown="handlePan(-1,0)">
                  <use xlink:href="#rim" fill="#404040">
                        <set attributeName="fill" to="#808080" begin="arrowLeft.mouseover" end="arrowLeft.mouseout"/>
                  </use>
                  <path fill="none" stroke="white" stroke-width="1.5" d="M0,-3.0v7 M-2.5,-0.5L0,-3.0L2.5,-0.5"/>
                </g>
        </g>
        <svg viewBox="0 0 15 15" width="100%" height="30px" preserveAspectRatio="xMaxYMin meet">
         <g id="arrow_out" transform="scale(0.3 0.3)">
          <a xlink:href="Integration_8cpp__incl_org.svg" target="_base">
           <rect id="button" ry="5" rx="5" y="6" x="6" height="38" width="38"
                fill="#f2f5e9" fill-opacity="0.5" stroke="#606060" stroke-width="1.0"/>
           <path id="arrow"
             d="M 11.500037,31.436501 C 11.940474,20.09759 22.043105,11.32322 32.158766,21.979434 L 37.068811,17.246167 C 37.068811,17.246167 37.088388,32 37.088388,32 L 22.160133,31.978069 C 22.160133,31.978069 26.997745,27.140456 26.997745,27.140456 C 18.528582,18.264221 13.291696,25.230495 11.500037,31.436501 z"
             style="fill:#404040;"/>
          </a>
         </g>
        </svg>
</svg>
