<?xml version="1.0" encoding="UTF-8" standalone="no"?>
<!DOCTYPE svg PUBLIC "-//W3C//DTD SVG 1.1//EN"
 "http://www.w3.org/Graphics/SVG/1.1/DTD/svg11.dtd">
<!-- Generated by graphviz version 2.38.0 (20140413.2041)
 -->
<!-- Title: Core/Kinematics.hpp Pages: 1 -->
<!--zoomable 218 -->
<svg id="main" version="1.1" xmlns="http://www.w3.org/2000/svg" xmlns:xlink="http://www.w3.org/1999/xlink" xml:space="preserve" onload="init(evt)">
<style type="text/css"><![CDATA[
.edge:hover path { stroke: red; }
.edge:hover polygon { stroke: red; fill: red; }
]]></style>
<script type="text/javascript"><![CDATA[
var edges = document.getElementsByTagName('g');
if (edges && edges.length) {
  for (var i=0;i<edges.length;i++) {
    if (edges[i].id.substr(0,4)=='edge') {
      edges[i].setAttribute('class','edge');
    }
  }
}
]]></script>
        <defs>
                <circle id="rim" cx="0" cy="0" r="7"/>
                <circle id="rim2" cx="0" cy="0" r="3.5"/>
                <g id="zoomPlus">
                        <use xlink:href="#rim" fill="#404040">
                                <set attributeName="fill" to="#808080" begin="zoomplus.mouseover" end="zoomplus.mouseout"/>
                        </use>
                        <path d="M-4,0h8M0,-4v8" fill="none" stroke="white" stroke-width="1.5" pointer-events="none"/>
                </g>
                <g id="zoomMin">
                        <use xlink:href="#rim" fill="#404040">
                                <set attributeName="fill" to="#808080" begin="zoomminus.mouseover" end="zoomminus.mouseout"/>
                        </use>
                        <path d="M-4,0h8" fill="none" stroke="white" stroke-width="1.5" pointer-events="none"/>
                </g>
                <g id="dirArrow">
                        <path fill="none" stroke="white" stroke-width="1.5" d="M0,-3.0v7 M-2.5,-0.5L0,-3.0L2.5,-0.5"/>
                </g>
               <g id="resetDef">
                       <use xlink:href="#rim2" fill="#404040">
                               <set attributeName="fill" to="#808080" begin="reset.mouseover" end="reset.mouseout"/>
                       </use>
               </g>
        </defs>

<script type="text/javascript">
var viewWidth = 2329;
var viewHeight = 218;
var sectionId = 'dynsection-1';
</script>
<script xlink:href="svgpan.js"/>
<svg id="graph" class="graph">
<g id="viewport">
<title>Core/Kinematics.hpp</title>
<polygon fill="white" stroke="none" points="-4,4 -4,-214 2324.5,-214 2324.5,4 -4,4"/>
<!-- Node1 -->
<g id="node1" class="node"><title>Node1</title>
<polygon fill="#bfbfbf" stroke="black" points="526.5,-190.5 526.5,-209.5 634.5,-209.5 634.5,-190.5 526.5,-190.5"/>
<text text-anchor="middle" x="580.5" y="-197.5" font-family="Helvetica,sans-Serif" font-size="10.00">Core/Kinematics.hpp</text>
</g>
<!-- Node2 -->
<g id="node2" class="node"><title>Node2</title>
<g id="a_node2"><a xlink:href="DataCorrection_8cpp.html" target="_top" xlink:title="Data/DataCorrection.cpp">
<polygon fill="white" stroke="black" points="0,-129 0,-148 125,-148 125,-129 0,-129"/>
<text text-anchor="middle" x="62.5" y="-136" font-family="Helvetica,sans-Serif" font-size="10.00">Data/DataCorrection.cpp</text>
</a>
</g>
</g>
<!-- Node1&#45;&gt;Node2 -->
<g id="edge1" class="edge"><title>Node1&#45;&gt;Node2</title>
<path fill="none" stroke="midnightblue" d="M516.274,-194.585C429.215,-188.134 269.052,-174.611 133.5,-154 122.803,-152.374 111.281,-150.204 100.695,-148.039"/>
<polygon fill="midnightblue" stroke="midnightblue" points="516.035,-198.077 526.265,-195.318 516.548,-191.096 516.035,-198.077"/>
</g>
<!-- Node3 -->
<g id="node3" class="node"><title>Node3</title>
<g id="a_node3"><a xlink:href="DataSet_8cpp.html" target="_top" xlink:title="Data/DataSet.cpp">
<polygon fill="white" stroke="black" points="143,-129 143,-148 238,-148 238,-129 143,-129"/>
<text text-anchor="middle" x="190.5" y="-136" font-family="Helvetica,sans-Serif" font-size="10.00">Data/DataSet.cpp</text>
</a>
</g>
</g>
<!-- Node1&#45;&gt;Node3 -->
<g id="edge2" class="edge"><title>Node1&#45;&gt;Node3</title>
<path fill="none" stroke="midnightblue" d="M516.315,-192.655C448.794,-185.444 339.615,-172.26 246.5,-154 238.123,-152.357 229.135,-150.207 220.866,-148.067"/>
<polygon fill="midnightblue" stroke="midnightblue" points="516.064,-196.148 526.377,-193.718 516.8,-189.187 516.064,-196.148"/>
</g>
<!-- Node4 -->
<g id="node4" class="node"><title>Node4</title>
<g id="a_node4"><a xlink:href="Generate_8cpp.html" target="_top" xlink:title="Data/Generate.cpp">
<polygon fill="white" stroke="black" points="256,-129 256,-148 355,-148 355,-129 256,-129"/>
<text text-anchor="middle" x="305.5" y="-136" font-family="Helvetica,sans-Serif" font-size="10.00">Data/Generate.cpp</text>
</a>
</g>
</g>
<!-- Node1&#45;&gt;Node4 -->
<g id="edge3" class="edge"><title>Node1&#45;&gt;Node4</title>
<path fill="none" stroke="midnightblue" d="M527.513,-188.508C483.716,-179.705 419.949,-166.585 364.5,-154 356.374,-152.156 347.645,-150.069 339.458,-148.065"/>
<polygon fill="midnightblue" stroke="midnightblue" points="526.878,-191.951 537.371,-190.485 528.254,-185.087 526.878,-191.951"/>
</g>
<!-- Node5 -->
<g id="node5" class="node"><title>Node5</title>
<g id="a_node5"><a xlink:href="RootDataIO_8cpp.html" target="_top" xlink:title="Data/Root/RootDataIO.cpp">
<polygon fill="white" stroke="black" points="373.5,-129 373.5,-148 509.5,-148 509.5,-129 373.5,-129"/>
<text text-anchor="middle" x="441.5" y="-136" font-family="Helvetica,sans-Serif" font-size="10.00">Data/Root/RootDataIO.cpp</text>
</a>
</g>
</g>
<!-- Node1&#45;&gt;Node5 -->
<g id="edge4" class="edge"><title>Node1&#45;&gt;Node5</title>
<path fill="none" stroke="midnightblue" d="M551.25,-186.48C524.255,-174.924 484.896,-158.076 461.378,-148.009"/>
<polygon fill="midnightblue" stroke="midnightblue" points="550.014,-189.757 560.585,-190.475 552.769,-183.322 550.014,-189.757"/>
</g>
<!-- Node6 -->
<g id="node6" class="node"><title>Node6</title>
<g id="a_node6"><a xlink:href="MinLogLH_8cpp.html" target="_top" xlink:title="Estimator/MinLogLH\l/MinLogLH.cpp">
<polygon fill="white" stroke="black" points="527.5,-123.5 527.5,-153.5 633.5,-153.5 633.5,-123.5 527.5,-123.5"/>
<text text-anchor="start" x="535.5" y="-141.5" font-family="Helvetica,sans-Serif" font-size="10.00">Estimator/MinLogLH</text>
<text text-anchor="middle" x="580.5" y="-130.5" font-family="Helvetica,sans-Serif" font-size="10.00">/MinLogLH.cpp</text>
</a>
</g>
</g>
<!-- Node1&#45;&gt;Node6 -->
<g id="edge5" class="edge"><title>Node1&#45;&gt;Node6</title>
<path fill="none" stroke="midnightblue" d="M580.5,-180.235C580.5,-171.586 580.5,-161.497 580.5,-153.523"/>
<polygon fill="midnightblue" stroke="midnightblue" points="577,-180.475 580.5,-190.475 584,-180.475 577,-180.475"/>
</g>
<!-- Node7 -->
<g id="node7" class="node"><title>Node7</title>
<g id="a_node7"><a xlink:href="SumMinLogLH_8cpp.html" target="_top" xlink:title="Estimator/MinLogLH\l/SumMinLogLH.cpp">
<polygon fill="white" stroke="black" points="651.5,-123.5 651.5,-153.5 757.5,-153.5 757.5,-123.5 651.5,-123.5"/>
<text text-anchor="start" x="659.5" y="-141.5" font-family="Helvetica,sans-Serif" font-size="10.00">Estimator/MinLogLH</text>
<text text-anchor="middle" x="704.5" y="-130.5" font-family="Helvetica,sans-Serif" font-size="10.00">/SumMinLogLH.cpp</text>
</a>
</g>
</g>
<!-- Node1&#45;&gt;Node7 -->
<g id="edge6" class="edge"><title>Node1&#45;&gt;Node7</title>
<path fill="none" stroke="midnightblue" d="M607.447,-186.07C627.463,-176.465 654.737,-163.378 675.276,-153.523"/>
<polygon fill="midnightblue" stroke="midnightblue" points="605.768,-182.993 598.266,-190.475 608.796,-189.304 605.768,-182.993"/>
</g>
<!-- Node8 -->
<g id="node8" class="node"><title>Node8</title>
<g id="a_node8"><a xlink:href="HelicityKinematics_8hpp.html" target="_top" xlink:title="Physics/HelicityFormalism\l/HelicityKinematics.hpp">
<polygon fill="white" stroke="black" points="1271.5,-123.5 1271.5,-153.5 1405.5,-153.5 1405.5,-123.5 1271.5,-123.5"/>
<text text-anchor="start" x="1279.5" y="-141.5" font-family="Helvetica,sans-Serif" font-size="10.00">Physics/HelicityFormalism</text>
<text text-anchor="middle" x="1338.5" y="-130.5" font-family="Helvetica,sans-Serif" font-size="10.00">/HelicityKinematics.hpp</text>
</a>
</g>
</g>
<!-- Node1&#45;&gt;Node8 -->
<g id="edge7" class="edge"><title>Node1&#45;&gt;Node8</title>
<path fill="none" stroke="midnightblue" d="M645.013,-193.936C787.274,-182.769 1126.74,-156.122 1271.38,-144.769"/>
<polygon fill="midnightblue" stroke="midnightblue" points="644.405,-190.473 634.709,-194.745 644.953,-197.451 644.405,-190.473"/>
</g>
<!-- Node16 -->
<g id="node16" class="node"><title>Node16</title>
<g id="a_node16"><a xlink:href="BOSSAdapter_8cpp.html" target="_top" xlink:title="Tools/Adapters/BOSSAdapter.cpp">
<polygon fill="white" stroke="black" points="1124.5,-0.5 1124.5,-19.5 1290.5,-19.5 1290.5,-0.5 1124.5,-0.5"/>
<text text-anchor="middle" x="1207.5" y="-7.5" font-family="Helvetica,sans-Serif" font-size="10.00">Tools/Adapters/BOSSAdapter.cpp</text>
</a>
</g>
</g>
<!-- Node1&#45;&gt;Node16 -->
<g id="edge22" class="edge"><title>Node1&#45;&gt;Node16</title>
<path fill="none" stroke="midnightblue" d="M644.685,-198.01C684.064,-194.181 733.158,-183.192 766.5,-154 801.648,-123.227 767.482,-84.4958 804.5,-56 852.964,-18.693 1021.28,-11.2982 1124.44,-10.3975"/>
<polygon fill="midnightblue" stroke="midnightblue" points="644.311,-194.529 634.639,-198.854 644.897,-201.504 644.311,-194.529"/>
</g>
<!-- Node18 -->
<g id="node18" class="node"><title>Node18</title>
<g id="a_node18"><a xlink:href="DalitzKinematics_8hpp.html" target="_top" xlink:title="Contains DalitzKinematics class. ">
<polygon fill="white" stroke="black" points="1898.5,-129 1898.5,-148 2082.5,-148 2082.5,-129 1898.5,-129"/>
<text text-anchor="middle" x="1990.5" y="-136" font-family="Helvetica,sans-Serif" font-size="10.00">Physics/EvtGen/DalitzKinematics.hpp</text>
</a>
</g>
</g>
<!-- Node1&#45;&gt;Node18 -->
<g id="edge17" class="edge"><title>Node1&#45;&gt;Node18</title>
<path fill="none" stroke="midnightblue" d="M644.983,-196.279C871.753,-186.71 1633.12,-154.581 1898.41,-143.386"/>
<polygon fill="midnightblue" stroke="midnightblue" points="644.753,-192.785 634.91,-196.704 645.048,-199.779 644.753,-192.785"/>
</g>
<!-- Node9 -->
<g id="node9" class="node"><title>Node9</title>
<g id="a_node9"><a xlink:href="DalitzFitD03K_8cpp.html" target="_top" xlink:title="Executable for Dalitz plot analysis of the decay D0 &#45;&gt; K_S K+ K&#45;. ">
<polygon fill="white" stroke="black" points="1267,-56.5 1267,-86.5 1410,-86.5 1410,-56.5 1267,-56.5"/>
<text text-anchor="start" x="1275" y="-74.5" font-family="Helvetica,sans-Serif" font-size="10.00">Examples/DalitzAnalysis</text>
<text text-anchor="middle" x="1338.5" y="-63.5" font-family="Helvetica,sans-Serif" font-size="10.00">_D0KsKK/DalitzFitD03K.cpp</text>
</a>
</g>
</g>
<!-- Node8&#45;&gt;Node9 -->
<g id="edge8" class="edge"><title>Node8&#45;&gt;Node9</title>
<path fill="none" stroke="midnightblue" d="M1338.5,-113.108C1338.5,-104.154 1338.5,-94.3227 1338.5,-86.5765"/>
<polygon fill="midnightblue" stroke="midnightblue" points="1335,-113.396 1338.5,-123.396 1342,-113.396 1335,-113.396"/>
</g>
<!-- Node10 -->
<g id="node10" class="node"><title>Node10</title>
<g id="a_node10"><a xlink:href="DalitzFitApp_8cpp.html" target="_top" xlink:title="Simple Dalitz plot analysis with ComPWA. ">
<polygon fill="white" stroke="black" points="1428.5,-56.5 1428.5,-86.5 1528.5,-86.5 1528.5,-56.5 1428.5,-56.5"/>
<text text-anchor="start" x="1436.5" y="-74.5" font-family="Helvetica,sans-Serif" font-size="10.00">Examples/DalitzFit</text>
<text text-anchor="middle" x="1478.5" y="-63.5" font-family="Helvetica,sans-Serif" font-size="10.00">/DalitzFitApp.cpp</text>
</a>
</g>
</g>
<!-- Node8&#45;&gt;Node10 -->
<g id="edge9" class="edge"><title>Node8&#45;&gt;Node10</title>
<path fill="none" stroke="midnightblue" d="M1378.07,-119.131C1400.31,-108.802 1427.65,-96.1103 1448.18,-86.5765"/>
<polygon fill="midnightblue" stroke="midnightblue" points="1376.47,-116.01 1368.88,-123.396 1379.42,-122.359 1376.47,-116.01"/>
</g>
<!-- Node11 -->
<g id="node11" class="node"><title>Node11</title>
<g id="a_node11"><a xlink:href="EvtGenFit_8cpp.html" target="_top" xlink:title="Examples/EvtGen/EvtGenFit.cpp">
<polygon fill="white" stroke="black" points="1857.5,-0.5 1857.5,-19.5 2019.5,-19.5 2019.5,-0.5 1857.5,-0.5"/>
<text text-anchor="middle" x="1938.5" y="-7.5" font-family="Helvetica,sans-Serif" font-size="10.00">Examples/EvtGen/EvtGenFit.cpp</text>
</a>
</g>
</g>
<!-- Node8&#45;&gt;Node11 -->
<g id="edge10" class="edge"><title>Node8&#45;&gt;Node11</title>
<path fill="none" stroke="midnightblue" d="M1416.32,-137.902C1546.97,-137.328 1803.77,-130.483 1881.5,-87 1909.14,-71.5406 1927.38,-36.5203 1934.78,-19.9764"/>
<polygon fill="midnightblue" stroke="midnightblue" points="1415.98,-134.403 1405.99,-137.935 1416,-141.402 1415.98,-134.403"/>
</g>
<!-- Node12 -->
<g id="node12" class="node"><title>Node12</title>
<g id="a_node12"><a xlink:href="SimFit_8cpp.html" target="_top" xlink:title="Examples/SimFit/SimFit.cpp">
<polygon fill="white" stroke="black" points="1730.5,-62 1730.5,-81 1872.5,-81 1872.5,-62 1730.5,-62"/>
<text text-anchor="middle" x="1801.5" y="-69" font-family="Helvetica,sans-Serif" font-size="10.00">Examples/SimFit/SimFit.cpp</text>
</a>
</g>
</g>
<!-- Node8&#45;&gt;Node12 -->
<g id="edge11" class="edge"><title>Node8&#45;&gt;Node12</title>
<path fill="none" stroke="midnightblue" d="M1415.91,-128.404C1493.38,-119.04 1615.91,-103.52 1721.5,-87 1732.94,-85.2108 1745.25,-83.0802 1756.71,-81.0103"/>
<polygon fill="midnightblue" stroke="midnightblue" points="1415.26,-124.957 1405.75,-129.628 1416.1,-131.907 1415.26,-124.957"/>
</g>
<!-- Node13 -->
<g id="node13" class="node"><title>Node13</title>
<g id="a_node13"><a xlink:href="BuilderXML_8cpp.html" target="_top" xlink:title="Physics/BuilderXML.cpp">
<polygon fill="white" stroke="black" points="813.5,-62 813.5,-81 937.5,-81 937.5,-62 813.5,-62"/>
<text text-anchor="middle" x="875.5" y="-69" font-family="Helvetica,sans-Serif" font-size="10.00">Physics/BuilderXML.cpp</text>
</a>
</g>
</g>
<!-- Node8&#45;&gt;Node13 -->
<g id="edge12" class="edge"><title>Node8&#45;&gt;Node13</title>
<path fill="none" stroke="midnightblue" d="M1260.96,-129.21C1181.71,-120.337 1055.17,-105.071 946.5,-87 936.199,-85.287 925.115,-83.1606 914.837,-81.0689"/>
<polygon fill="midnightblue" stroke="midnightblue" points="1261.02,-132.738 1271.35,-130.366 1261.8,-125.781 1261.02,-132.738"/>
</g>
<!-- Node14 -->
<g id="node14" class="node"><title>Node14</title>
<g id="a_node14"><a xlink:href="HelicityKinematics_8cpp.html" target="_top" xlink:title="Physics/HelicityFormalism\l/HelicityKinematics.cpp">
<polygon fill="white" stroke="black" points="955.5,-56.5 955.5,-86.5 1089.5,-86.5 1089.5,-56.5 955.5,-56.5"/>
<text text-anchor="start" x="963.5" y="-74.5" font-family="Helvetica,sans-Serif" font-size="10.00">Physics/HelicityFormalism</text>
<text text-anchor="middle" x="1022.5" y="-63.5" font-family="Helvetica,sans-Serif" font-size="10.00">/HelicityKinematics.cpp</text>
</a>
</g>
</g>
<!-- Node8&#45;&gt;Node14 -->
<g id="edge13" class="edge"><title>Node8&#45;&gt;Node14</title>
<path fill="none" stroke="midnightblue" d="M1261.54,-121.669C1208.98,-110.859 1140.03,-96.6751 1089.69,-86.3209"/>
<polygon fill="midnightblue" stroke="midnightblue" points="1260.98,-125.129 1271.48,-123.715 1262.39,-118.272 1260.98,-125.129"/>
</g>
<!-- Node15 -->
<g id="node15" class="node"><title>Node15</title>
<g id="a_node15"><a xlink:href="BOSSAdapter_8hpp.html" target="_top" xlink:title="Tools/Adapters/BOSSAdapter.hpp">
<polygon fill="white" stroke="black" points="1546.5,-62 1546.5,-81 1712.5,-81 1712.5,-62 1546.5,-62"/>
<text text-anchor="middle" x="1629.5" y="-69" font-family="Helvetica,sans-Serif" font-size="10.00">Tools/Adapters/BOSSAdapter.hpp</text>
</a>
</g>
</g>
<!-- Node8&#45;&gt;Node15 -->
<g id="edge14" class="edge"><title>Node8&#45;&gt;Node15</title>
<path fill="none" stroke="midnightblue" d="M1411.35,-121.228C1468.48,-108.466 1545.73,-91.2116 1591.32,-81.0287"/>
<polygon fill="midnightblue" stroke="midnightblue" points="1410.28,-117.88 1401.28,-123.476 1411.81,-124.712 1410.28,-117.88"/>
</g>
<!-- Node17 -->
<g id="node17" class="node"><title>Node17</title>
<g id="a_node17"><a xlink:href="DalitzPlot_8cpp.html" target="_top" xlink:title="Tools/Plotting/DalitzPlot.cpp">
<polygon fill="white" stroke="black" points="1108,-62 1108,-81 1249,-81 1249,-62 1108,-62"/>
<text text-anchor="middle" x="1178.5" y="-69" font-family="Helvetica,sans-Serif" font-size="10.00">Tools/Plotting/DalitzPlot.cpp</text>
</a>
</g>
</g>
<!-- Node8&#45;&gt;Node17 -->
<g id="edge16" class="edge"><title>Node8&#45;&gt;Node17</title>
<path fill="none" stroke="midnightblue" d="M1294.49,-119.621C1263.52,-107.04 1223.46,-90.7661 1199.44,-81.007"/>
<polygon fill="midnightblue" stroke="midnightblue" points="1293.2,-122.875 1303.78,-123.396 1295.84,-116.389 1293.2,-122.875"/>
</g>
<!-- Node15&#45;&gt;Node16 -->
<g id="edge15" class="edge"><title>Node15&#45;&gt;Node16</title>
<path fill="none" stroke="midnightblue" d="M1566.49,-60.3916C1556.79,-58.8863 1546.88,-57.3785 1537.5,-56 1445.83,-42.5266 1339.61,-28.2881 1272.99,-19.522"/>
<polygon fill="midnightblue" stroke="midnightblue" points="1566.08,-63.8695 1576.5,-61.954 1567.16,-56.9533 1566.08,-63.8695"/>
</g>
<!-- Node18&#45;&gt;Node11 -->
<g id="edge18" class="edge"><title>Node18&#45;&gt;Node11</title>
<path fill="none" stroke="midnightblue" d="M1977.42,-120.623C1970.64,-111.176 1962.71,-98.9277 1957.5,-87 1947.37,-63.8188 1941.93,-34.2029 1939.71,-19.7399"/>
<polygon fill="midnightblue" stroke="midnightblue" points="1974.67,-122.784 1983.44,-128.72 1980.28,-118.607 1974.67,-122.784"/>
</g>
<!-- Node19 -->
<g id="node19" class="node"><title>Node19</title>
<g id="a_node19"><a xlink:href="EvtGenIF_8hpp.html" target="_top" xlink:title="Physics/EvtGen/EvtGenIF.hpp">
<polygon fill="white" stroke="red" points="1966.5,-62 1966.5,-81 2118.5,-81 2118.5,-62 1966.5,-62"/>
<text text-anchor="middle" x="2042.5" y="-69" font-family="Helvetica,sans-Serif" font-size="10.00">Physics/EvtGen/EvtGenIF.hpp</text>
</a>
</g>
</g>
<!-- Node18&#45;&gt;Node19 -->
<g id="edge19" class="edge"><title>Node18&#45;&gt;Node19</title>
<path fill="none" stroke="midnightblue" d="M2003.88,-120.77C2014.02,-108.097 2027.54,-91.201 2035.6,-81.1273"/>
<polygon fill="midnightblue" stroke="midnightblue" points="2001.03,-118.739 1997.51,-128.734 2006.49,-123.112 2001.03,-118.739"/>
</g>
<!-- Node20 -->
<g id="node20" class="node"><title>Node20</title>
<g id="a_node20"><a xlink:href="DalitzKinematics_8cpp.html" target="_top" xlink:title="Physics/EvtGen/DalitzKinematics.cpp">
<polygon fill="white" stroke="black" points="2136.5,-62 2136.5,-81 2320.5,-81 2320.5,-62 2136.5,-62"/>
<text text-anchor="middle" x="2228.5" y="-69" font-family="Helvetica,sans-Serif" font-size="10.00">Physics/EvtGen/DalitzKinematics.cpp</text>
</a>
</g>
</g>
<!-- Node18&#45;&gt;Node20 -->
<g id="edge21" class="edge"><title>Node18&#45;&gt;Node20</title>
<path fill="none" stroke="midnightblue" d="M2031.98,-126.172C2079.04,-113.319 2154.75,-92.6427 2197.14,-81.0637"/>
<polygon fill="midnightblue" stroke="midnightblue" points="2030.83,-122.857 2022.1,-128.869 2032.67,-129.61 2030.83,-122.857"/>
</g>
<!-- Node19&#45;&gt;Node11 -->
<g id="edge20" class="edge"><title>Node19&#45;&gt;Node11</title>
<path fill="none" stroke="midnightblue" d="M2018.73,-56.9006C1998.62,-45.3957 1970.43,-29.2667 1953.37,-19.5091"/>
<polygon fill="midnightblue" stroke="midnightblue" points="2017.18,-60.0471 2027.6,-61.9751 2020.66,-53.9712 2017.18,-60.0471"/>
</g>
</g>
</svg>
        <g id="navigator" transform="translate(0 0)" fill="#404254">
                <rect fill="#f2f5e9" fill-opacity="0.5" stroke="#606060" stroke-width=".5" x="0" y="0" width="60" height="60"/>
                <use id="zoomplus" xlink:href="#zoomPlus" x="17" y="9" onmousedown="handleZoom(evt,'in')"/>
                <use id="zoomminus" xlink:href="#zoomMin" x="42" y="9" onmousedown="handleZoom(evt,'out')"/>
                <use id="reset" xlink:href="#resetDef" x="30" y="36" onmousedown="handleReset()"/>
                <g id="arrowUp" xlink:href="#dirArrow" transform="translate(30 24)" onmousedown="handlePan(0,-1)">
                  <use xlink:href="#rim" fill="#404040">
                        <set attributeName="fill" to="#808080" begin="arrowUp.mouseover" end="arrowUp.mouseout"/>
                  </use>
                  <path fill="none" stroke="white" stroke-width="1.5" d="M0,-3.0v7 M-2.5,-0.5L0,-3.0L2.5,-0.5"/>
                </g>
                <g id="arrowRight" xlink:href="#dirArrow" transform="rotate(90) translate(36 -43)" onmousedown="handlePan(1,0)">
                  <use xlink:href="#rim" fill="#404040">
                        <set attributeName="fill" to="#808080" begin="arrowRight.mouseover" end="arrowRight.mouseout"/>
                  </use>
                  <path fill="none" stroke="white" stroke-width="1.5" d="M0,-3.0v7 M-2.5,-0.5L0,-3.0L2.5,-0.5"/>
                </g>
                <g id="arrowDown" xlink:href="#dirArrow" transform="rotate(180) translate(-30 -48)" onmousedown="handlePan(0,1)">
                  <use xlink:href="#rim" fill="#404040">
                        <set attributeName="fill" to="#808080" begin="arrowDown.mouseover" end="arrowDown.mouseout"/>
                  </use>
                  <path fill="none" stroke="white" stroke-width="1.5" d="M0,-3.0v7 M-2.5,-0.5L0,-3.0L2.5,-0.5"/>
                </g>
                <g id="arrowLeft" xlink:href="#dirArrow" transform="rotate(270) translate(-36 17)" onmousedown="handlePan(-1,0)">
                  <use xlink:href="#rim" fill="#404040">
                        <set attributeName="fill" to="#808080" begin="arrowLeft.mouseover" end="arrowLeft.mouseout"/>
                  </use>
                  <path fill="none" stroke="white" stroke-width="1.5" d="M0,-3.0v7 M-2.5,-0.5L0,-3.0L2.5,-0.5"/>
                </g>
        </g>
        <svg viewBox="0 0 15 15" width="100%" height="30px" preserveAspectRatio="xMaxYMin meet">
         <g id="arrow_out" transform="scale(0.3 0.3)">
          <a xlink:href="Kinematics_8hpp__dep__incl_org.svg" target="_base">
           <rect id="button" ry="5" rx="5" y="6" x="6" height="38" width="38"
                fill="#f2f5e9" fill-opacity="0.5" stroke="#606060" stroke-width="1.0"/>
           <path id="arrow"
             d="M 11.500037,31.436501 C 11.940474,20.09759 22.043105,11.32322 32.158766,21.979434 L 37.068811,17.246167 C 37.068811,17.246167 37.088388,32 37.088388,32 L 22.160133,31.978069 C 22.160133,31.978069 26.997745,27.140456 26.997745,27.140456 C 18.528582,18.264221 13.291696,25.230495 11.500037,31.436501 z"
             style="fill:#404040;"/>
          </a>
         </g>
        </svg>
</svg>
