<?xml version="1.0" encoding="UTF-8" standalone="no"?>
<!DOCTYPE svg PUBLIC "-//W3C//DTD SVG 1.1//EN"
 "http://www.w3.org/Graphics/SVG/1.1/DTD/svg11.dtd">
<!-- Generated by graphviz version 2.38.0 (20140413.2041)
 -->
<!-- Title: Core/Logging.cpp Pages: 1 -->
<svg width="298pt" height="151pt"
 viewBox="0.00 0.00 297.50 151.00" xmlns="http://www.w3.org/2000/svg" xmlns:xlink="http://www.w3.org/1999/xlink">
<g id="graph0" class="graph" transform="scale(1 1) rotate(0) translate(4 147)">
<title>Core/Logging.cpp</title>
<polygon fill="white" stroke="none" points="-4,4 -4,-147 293.5,-147 293.5,4 -4,4"/>
<!-- Node1 -->
<g id="node1" class="node"><title>Node1</title>
<polygon fill="#bfbfbf" stroke="black" points="63.5,-123.5 63.5,-142.5 156.5,-142.5 156.5,-123.5 63.5,-123.5"/>
<text text-anchor="middle" x="110" y="-130.5" font-family="Helvetica,sans-Serif" font-size="10.00">Core/Logging.cpp</text>
</g>
<!-- Node2 -->
<g id="node2" class="node"><title>Node2</title>
<polygon fill="white" stroke="#bfbfbf" points="0,-67.5 0,-86.5 38,-86.5 38,-67.5 0,-67.5"/>
<text text-anchor="middle" x="19" y="-74.5" font-family="Helvetica,sans-Serif" font-size="10.00">array</text>
</g>
<!-- Node1&#45;&gt;Node2 -->
<g id="edge1" class="edge"><title>Node1&#45;&gt;Node2</title>
<path fill="none" stroke="midnightblue" d="M95.3793,-123.324C81.0511,-114.822 58.9875,-101.729 42.2513,-91.7975"/>
<polygon fill="midnightblue" stroke="midnightblue" points="43.9704,-88.7478 33.5844,-86.6545 40.3982,-94.7677 43.9704,-88.7478"/>
</g>
<!-- Node3 -->
<g id="node3" class="node"><title>Node3</title>
<polygon fill="white" stroke="#bfbfbf" points="56,-67.5 56,-86.5 102,-86.5 102,-67.5 56,-67.5"/>
<text text-anchor="middle" x="79" y="-74.5" font-family="Helvetica,sans-Serif" font-size="10.00">chrono</text>
</g>
<!-- Node1&#45;&gt;Node3 -->
<g id="edge2" class="edge"><title>Node1&#45;&gt;Node3</title>
<path fill="none" stroke="midnightblue" d="M104.881,-123.083C100.592,-115.613 94.3418,-104.724 89.0577,-95.5199"/>
<polygon fill="midnightblue" stroke="midnightblue" points="92.0379,-93.6811 84.0238,-86.7511 85.9671,-97.1662 92.0379,-93.6811"/>
</g>
<!-- Node4 -->
<g id="node4" class="node"><title>Node4</title>
<polygon fill="white" stroke="#bfbfbf" points="120.5,-67.5 120.5,-86.5 161.5,-86.5 161.5,-67.5 120.5,-67.5"/>
<text text-anchor="middle" x="141" y="-74.5" font-family="Helvetica,sans-Serif" font-size="10.00">ctime</text>
</g>
<!-- Node1&#45;&gt;Node4 -->
<g id="edge3" class="edge"><title>Node1&#45;&gt;Node4</title>
<path fill="none" stroke="midnightblue" d="M115.119,-123.083C119.408,-115.613 125.658,-104.724 130.942,-95.5199"/>
<polygon fill="midnightblue" stroke="midnightblue" points="134.033,-97.1662 135.976,-86.7511 127.962,-93.6811 134.033,-97.1662"/>
</g>
<!-- Node5 -->
<g id="node5" class="node"><title>Node5</title>
<g id="a_node5"><a xlink:href="Logging_8hpp.html" target="_top" xlink:title="Core/Logging.hpp">
<polygon fill="white" stroke="black" points="179.5,-67.5 179.5,-86.5 272.5,-86.5 272.5,-67.5 179.5,-67.5"/>
<text text-anchor="middle" x="226" y="-74.5" font-family="Helvetica,sans-Serif" font-size="10.00">Core/Logging.hpp</text>
</a>
</g>
</g>
<!-- Node1&#45;&gt;Node5 -->
<g id="edge4" class="edge"><title>Node1&#45;&gt;Node5</title>
<path fill="none" stroke="midnightblue" d="M128.381,-123.444C147.216,-114.675 176.731,-100.935 198.379,-90.8579"/>
<polygon fill="midnightblue" stroke="midnightblue" points="200.117,-93.9098 207.705,-86.5164 197.162,-87.5637 200.117,-93.9098"/>
</g>
<!-- Node6 -->
<g id="node6" class="node"><title>Node6</title>
<polygon fill="white" stroke="#bfbfbf" points="162.5,-0.5 162.5,-30.5 289.5,-30.5 289.5,-0.5 162.5,-0.5"/>
<text text-anchor="start" x="170.5" y="-18.5" font-family="Helvetica,sans-Serif" font-size="10.00">ThirdParty/easyloggingpp</text>
<text text-anchor="middle" x="226" y="-7.5" font-family="Helvetica,sans-Serif" font-size="10.00">/easylogging++.h</text>
</g>
<!-- Node5&#45;&gt;Node6 -->
<g id="edge5" class="edge"><title>Node5&#45;&gt;Node6</title>
<path fill="none" stroke="midnightblue" d="M226,-67.4751C226,-60.471 226,-50.1919 226,-40.6956"/>
<polygon fill="midnightblue" stroke="midnightblue" points="229.5,-40.5229 226,-30.523 222.5,-40.523 229.5,-40.5229"/>
</g>
</g>
</svg>
