<?xml version="1.0" encoding="UTF-8" standalone="no"?>
<!DOCTYPE svg PUBLIC "-//W3C//DTD SVG 1.1//EN"
 "http://www.w3.org/Graphics/SVG/1.1/DTD/svg11.dtd">
<!-- Generated by graphviz version 2.38.0 (20140413.2041)
 -->
<!-- Title: Estimator/MinLogLH/MinLogLH.hpp Pages: 1 -->
<svg width="708pt" height="296pt"
 viewBox="0.00 0.00 708.20 296.00" xmlns="http://www.w3.org/2000/svg" xmlns:xlink="http://www.w3.org/1999/xlink">
<g id="graph0" class="graph" transform="scale(1 1) rotate(0) translate(4 292)">
<title>Estimator/MinLogLH/MinLogLH.hpp</title>
<polygon fill="white" stroke="none" points="-4,4 -4,-292 704.198,-292 704.198,4 -4,4"/>
<!-- Node1 -->
<g id="node1" class="node"><title>Node1</title>
<polygon fill="#bfbfbf" stroke="black" points="164.698,-257.5 164.698,-287.5 270.698,-287.5 270.698,-257.5 164.698,-257.5"/>
<text text-anchor="start" x="172.698" y="-275.5" font-family="Helvetica,sans-Serif" font-size="10.00">Estimator/MinLogLH</text>
<text text-anchor="middle" x="217.698" y="-264.5" font-family="Helvetica,sans-Serif" font-size="10.00">/MinLogLH.hpp</text>
</g>
<!-- Node2 -->
<g id="node2" class="node"><title>Node2</title>
<polygon fill="white" stroke="#bfbfbf" points="56.6977,-62 56.6977,-81 108.698,-81 108.698,-62 56.6977,-62"/>
<text text-anchor="middle" x="82.6977" y="-69" font-family="Helvetica,sans-Serif" font-size="10.00">memory</text>
</g>
<!-- Node1&#45;&gt;Node2 -->
<g id="edge1" class="edge"><title>Node1&#45;&gt;Node2</title>
<path fill="none" stroke="midnightblue" d="M164.694,-269.596C129.281,-265.225 85.057,-253.115 61.6977,-221 32.9382,-181.461 57.6665,-120.031 72.8898,-90.0957"/>
<polygon fill="midnightblue" stroke="midnightblue" points="75.9997,-91.702 77.5972,-81.2283 69.8169,-88.4197 75.9997,-91.702"/>
</g>
<!-- Node3 -->
<g id="node3" class="node"><title>Node3</title>
<polygon fill="white" stroke="#bfbfbf" points="225.698,-0.5 225.698,-19.5 269.698,-19.5 269.698,-0.5 225.698,-0.5"/>
<text text-anchor="middle" x="247.698" y="-7.5" font-family="Helvetica,sans-Serif" font-size="10.00">vector</text>
</g>
<!-- Node1&#45;&gt;Node3 -->
<g id="edge2" class="edge"><title>Node1&#45;&gt;Node3</title>
<path fill="none" stroke="midnightblue" d="M164.38,-262.974C119.385,-254.562 60.0587,-240.184 45.6977,-221 23.4145,-191.234 -45.7616,-171.053 47.6977,-56 68.5426,-30.3387 164.467,-18.2231 215.519,-13.5074"/>
<polygon fill="midnightblue" stroke="midnightblue" points="216.034,-16.9757 225.688,-12.6113 215.42,-10.0027 216.034,-16.9757"/>
</g>
<!-- Node4 -->
<g id="node4" class="node"><title>Node4</title>
<g id="a_node4"><a xlink:href="FitParameter_8hpp.html" target="_top" xlink:title="Core/FitParameter.hpp">
<polygon fill="white" stroke="black" points="471.698,-129 471.698,-148 587.698,-148 587.698,-129 471.698,-129"/>
<text text-anchor="middle" x="529.698" y="-136" font-family="Helvetica,sans-Serif" font-size="10.00">Core/FitParameter.hpp</text>
</a>
</g>
</g>
<!-- Node1&#45;&gt;Node4 -->
<g id="edge3" class="edge"><title>Node1&#45;&gt;Node4</title>
<path fill="none" stroke="midnightblue" d="M270.786,-260.41C306.869,-251.922 355.215,-238.664 395.698,-221 438.596,-202.282 484.299,-171.957 509.7,-154.05"/>
<polygon fill="midnightblue" stroke="midnightblue" points="511.989,-156.717 518.097,-148.06 507.924,-151.018 511.989,-156.717"/>
</g>
<!-- Node10 -->
<g id="node10" class="node"><title>Node10</title>
<g id="a_node10"><a xlink:href="FunctionTreeEstimator_8hpp.html" target="_top" xlink:title="Core/FunctionTree/Function\lTreeEstimator.hpp">
<polygon fill="white" stroke="black" points="226.698,-190.5 226.698,-220.5 364.698,-220.5 364.698,-190.5 226.698,-190.5"/>
<text text-anchor="start" x="234.698" y="-208.5" font-family="Helvetica,sans-Serif" font-size="10.00">Core/FunctionTree/Function</text>
<text text-anchor="middle" x="295.698" y="-197.5" font-family="Helvetica,sans-Serif" font-size="10.00">TreeEstimator.hpp</text>
</a>
</g>
</g>
<!-- Node1&#45;&gt;Node10 -->
<g id="edge12" class="edge"><title>Node1&#45;&gt;Node10</title>
<path fill="none" stroke="midnightblue" d="M234.623,-257.396C245.253,-248.538 259.145,-236.96 270.994,-227.086"/>
<polygon fill="midnightblue" stroke="midnightblue" points="273.364,-229.667 278.806,-220.577 268.883,-224.29 273.364,-229.667"/>
</g>
<!-- Node12 -->
<g id="node12" class="node"><title>Node12</title>
<g id="a_node12"><a xlink:href="Estimator_8hpp.html" target="_top" xlink:title="Estimator/Estimator.hpp">
<polygon fill="white" stroke="black" points="331.698,-129 331.698,-148 453.698,-148 453.698,-129 331.698,-129"/>
<text text-anchor="middle" x="392.698" y="-136" font-family="Helvetica,sans-Serif" font-size="10.00">Estimator/Estimator.hpp</text>
</a>
</g>
</g>
<!-- Node1&#45;&gt;Node12 -->
<g id="edge26" class="edge"><title>Node1&#45;&gt;Node12</title>
<path fill="none" stroke="midnightblue" d="M270.749,-267.461C304.794,-262.064 347.4,-249.606 373.698,-221 389.332,-203.994 392.875,-176.673 393.315,-158.411"/>
<polygon fill="midnightblue" stroke="midnightblue" points="396.815,-158.368 393.269,-148.384 389.815,-158.4 396.815,-158.368"/>
</g>
<!-- Node13 -->
<g id="node13" class="node"><title>Node13</title>
<g id="a_node13"><a xlink:href="FunctionTreeIntensity_8hpp.html" target="_top" xlink:title="Core/FunctionTree/Function\lTreeIntensity.hpp">
<polygon fill="white" stroke="black" points="70.6977,-190.5 70.6977,-220.5 208.698,-220.5 208.698,-190.5 70.6977,-190.5"/>
<text text-anchor="start" x="78.6977" y="-208.5" font-family="Helvetica,sans-Serif" font-size="10.00">Core/FunctionTree/Function</text>
<text text-anchor="middle" x="139.698" y="-197.5" font-family="Helvetica,sans-Serif" font-size="10.00">TreeIntensity.hpp</text>
</a>
</g>
</g>
<!-- Node1&#45;&gt;Node13 -->
<g id="edge22" class="edge"><title>Node1&#45;&gt;Node13</title>
<path fill="none" stroke="midnightblue" d="M200.773,-257.396C190.143,-248.538 176.25,-236.96 164.401,-227.086"/>
<polygon fill="midnightblue" stroke="midnightblue" points="166.512,-224.29 156.589,-220.577 162.031,-229.667 166.512,-224.29"/>
</g>
<!-- Node4&#45;&gt;Node3 -->
<g id="edge10" class="edge"><title>Node4&#45;&gt;Node3</title>
<path fill="none" stroke="midnightblue" d="M522.273,-128.89C505.777,-109.961 466.163,-65.6403 448.698,-56 394.41,-26.0341 321.444,-16.0169 280.012,-12.6723"/>
<polygon fill="midnightblue" stroke="midnightblue" points="280.169,-9.17459 269.942,-11.9418 279.663,-16.1562 280.169,-9.17459"/>
</g>
<!-- Node5 -->
<g id="node5" class="node"><title>Node5</title>
<g id="a_node5"><a xlink:href="Function_8hpp.html" target="_top" xlink:title="Core/Function.hpp">
<polygon fill="white" stroke="red" points="343.198,-62 343.198,-81 440.198,-81 440.198,-62 343.198,-62"/>
<text text-anchor="middle" x="391.698" y="-69" font-family="Helvetica,sans-Serif" font-size="10.00">Core/Function.hpp</text>
</a>
</g>
</g>
<!-- Node4&#45;&gt;Node5 -->
<g id="edge4" class="edge"><title>Node4&#45;&gt;Node5</title>
<path fill="none" stroke="midnightblue" d="M511.372,-128.869C487.762,-117.748 446.508,-98.3167 419.146,-85.4286"/>
<polygon fill="midnightblue" stroke="midnightblue" points="420.637,-82.262 410.099,-81.1672 417.654,-88.5947 420.637,-82.262"/>
</g>
<!-- Node6 -->
<g id="node6" class="node"><title>Node6</title>
<polygon fill="white" stroke="#bfbfbf" points="371.198,-0.5 371.198,-19.5 412.198,-19.5 412.198,-0.5 371.198,-0.5"/>
<text text-anchor="middle" x="391.698" y="-7.5" font-family="Helvetica,sans-Serif" font-size="10.00">string</text>
</g>
<!-- Node4&#45;&gt;Node6 -->
<g id="edge9" class="edge"><title>Node4&#45;&gt;Node6</title>
<path fill="none" stroke="midnightblue" d="M537.554,-128.795C550.928,-112.893 575.06,-78.696 557.698,-56 541.356,-34.6385 465.812,-21.0575 422.479,-14.8848"/>
<polygon fill="midnightblue" stroke="midnightblue" points="422.852,-11.4032 412.468,-13.5088 421.899,-18.338 422.852,-11.4032"/>
</g>
<!-- Node7 -->
<g id="node7" class="node"><title>Node7</title>
<g id="a_node7"><a xlink:href="Logging_8hpp.html" target="_top" xlink:title="Core/Logging.hpp">
<polygon fill="white" stroke="red" points="232.198,-62 232.198,-81 325.198,-81 325.198,-62 232.198,-62"/>
<text text-anchor="middle" x="278.698" y="-69" font-family="Helvetica,sans-Serif" font-size="10.00">Core/Logging.hpp</text>
</a>
</g>
</g>
<!-- Node4&#45;&gt;Node7 -->
<g id="edge7" class="edge"><title>Node4&#45;&gt;Node7</title>
<path fill="none" stroke="midnightblue" d="M496.39,-128.979C457.381,-118.985 390.823,-101.889 333.698,-87 329.559,-85.9213 325.246,-84.7925 320.937,-83.6615"/>
<polygon fill="midnightblue" stroke="midnightblue" points="321.533,-80.1993 310.972,-81.0409 319.753,-86.9691 321.533,-80.1993"/>
</g>
<!-- Node8 -->
<g id="node8" class="node"><title>Node8</title>
<polygon fill="white" stroke="#bfbfbf" points="496.698,-62 496.698,-81 548.698,-81 548.698,-62 496.698,-62"/>
<text text-anchor="middle" x="522.698" y="-69" font-family="Helvetica,sans-Serif" font-size="10.00">ostream</text>
</g>
<!-- Node4&#45;&gt;Node8 -->
<g id="edge8" class="edge"><title>Node4&#45;&gt;Node8</title>
<path fill="none" stroke="midnightblue" d="M528.754,-128.734C527.725,-119.183 526.049,-103.618 524.72,-91.2829"/>
<polygon fill="midnightblue" stroke="midnightblue" points="528.177,-90.695 523.627,-81.1273 521.218,-91.4446 528.177,-90.695"/>
</g>
<!-- Node9 -->
<g id="node9" class="node"><title>Node9</title>
<polygon fill="white" stroke="#bfbfbf" points="605.198,-56.5 605.198,-86.5 700.198,-86.5 700.198,-56.5 605.198,-56.5"/>
<text text-anchor="start" x="613.198" y="-74.5" font-family="Helvetica,sans-Serif" font-size="10.00">boost/serialization</text>
<text text-anchor="middle" x="652.698" y="-63.5" font-family="Helvetica,sans-Serif" font-size="10.00">/nvp.hpp</text>
</g>
<!-- Node4&#45;&gt;Node9 -->
<g id="edge11" class="edge"><title>Node4&#45;&gt;Node9</title>
<path fill="none" stroke="midnightblue" d="M546.031,-128.869C564.031,-119.357 593.534,-103.765 616.954,-91.3888"/>
<polygon fill="midnightblue" stroke="midnightblue" points="618.712,-94.4184 625.918,-86.6516 615.442,-88.2295 618.712,-94.4184"/>
</g>
<!-- Node5&#45;&gt;Node3 -->
<g id="edge6" class="edge"><title>Node5&#45;&gt;Node3</title>
<path fill="none" stroke="midnightblue" d="M371.066,-61.9751C346.579,-51.8571 305.551,-34.9046 277.588,-23.3507"/>
<polygon fill="midnightblue" stroke="midnightblue" points="278.87,-20.0932 268.291,-19.5091 276.197,-26.5627 278.87,-20.0932"/>
</g>
<!-- Node5&#45;&gt;Node6 -->
<g id="edge5" class="edge"><title>Node5&#45;&gt;Node6</title>
<path fill="none" stroke="midnightblue" d="M391.698,-61.9751C391.698,-53.5803 391.698,-40.4806 391.698,-29.6631"/>
<polygon fill="midnightblue" stroke="midnightblue" points="395.198,-29.5091 391.698,-19.5091 388.198,-29.5091 395.198,-29.5091"/>
</g>
<!-- Node10&#45;&gt;Node2 -->
<g id="edge13" class="edge"><title>Node10&#45;&gt;Node2</title>
<path fill="none" stroke="midnightblue" d="M226.238,-190.619C184.695,-181.161 136.916,-167.876 120.698,-154 101.55,-137.618 91.4411,-109.493 86.5851,-90.9467"/>
<polygon fill="midnightblue" stroke="midnightblue" points="89.9559,-89.9914 84.2552,-81.0609 83.1426,-91.5972 89.9559,-89.9914"/>
</g>
<!-- Node10&#45;&gt;Node4 -->
<g id="edge14" class="edge"><title>Node10&#45;&gt;Node4</title>
<path fill="none" stroke="midnightblue" d="M346.184,-190.476C388.948,-178.597 449.465,-161.787 489.134,-150.768"/>
<polygon fill="midnightblue" stroke="midnightblue" points="490.296,-154.077 498.995,-148.029 488.423,-147.333 490.296,-154.077"/>
</g>
<!-- Node11 -->
<g id="node11" class="node"><title>Node11</title>
<g id="a_node11"><a xlink:href="ParameterList_8hpp.html" target="_top" xlink:title="ParameterList class. ">
<polygon fill="white" stroke="red" points="129.698,-123.5 129.698,-153.5 275.698,-153.5 275.698,-123.5 129.698,-123.5"/>
<text text-anchor="start" x="137.698" y="-141.5" font-family="Helvetica,sans-Serif" font-size="10.00">Core/FunctionTree/Parameter</text>
<text text-anchor="middle" x="202.698" y="-130.5" font-family="Helvetica,sans-Serif" font-size="10.00">List.hpp</text>
</a>
</g>
</g>
<!-- Node10&#45;&gt;Node11 -->
<g id="edge15" class="edge"><title>Node10&#45;&gt;Node11</title>
<path fill="none" stroke="midnightblue" d="M275.518,-190.396C262.6,-181.367 245.641,-169.514 231.339,-159.518"/>
<polygon fill="midnightblue" stroke="midnightblue" points="233.039,-156.436 222.838,-153.577 229.029,-162.174 233.039,-156.436"/>
</g>
<!-- Node10&#45;&gt;Node12 -->
<g id="edge20" class="edge"><title>Node10&#45;&gt;Node12</title>
<path fill="none" stroke="midnightblue" d="M316.745,-190.396C333.012,-179.496 355.422,-164.479 371.681,-153.584"/>
<polygon fill="midnightblue" stroke="midnightblue" points="373.644,-156.481 380.003,-148.007 369.747,-150.666 373.644,-156.481"/>
</g>
<!-- Node11&#45;&gt;Node2 -->
<g id="edge16" class="edge"><title>Node11&#45;&gt;Node2</title>
<path fill="none" stroke="midnightblue" d="M176.659,-123.396C156.07,-112.243 127.525,-96.7812 107.314,-85.8336"/>
<polygon fill="midnightblue" stroke="midnightblue" points="108.863,-82.6924 98.4029,-81.007 105.529,-88.8474 108.863,-82.6924"/>
</g>
<!-- Node11&#45;&gt;Node3 -->
<g id="edge18" class="edge"><title>Node11&#45;&gt;Node3</title>
<path fill="none" stroke="midnightblue" d="M195.654,-123.493C188.231,-106.637 178.983,-77.8747 189.698,-56 196.22,-42.6839 208.794,-32.177 220.571,-24.6761"/>
<polygon fill="midnightblue" stroke="midnightblue" points="222.468,-27.6205 229.308,-19.5294 218.916,-21.5891 222.468,-27.6205"/>
</g>
<!-- Node11&#45;&gt;Node6 -->
<g id="edge17" class="edge"><title>Node11&#45;&gt;Node6</title>
<path fill="none" stroke="midnightblue" d="M202.076,-123.342C202.088,-105.246 204.949,-74.1001 222.698,-56 259.169,-18.8068 322.66,-11.2544 360.574,-10.3186"/>
<polygon fill="midnightblue" stroke="midnightblue" points="361.039,-13.8141 371.003,-10.2127 360.968,-6.81447 361.039,-13.8141"/>
</g>
<!-- Node11&#45;&gt;Node7 -->
<g id="edge19" class="edge"><title>Node11&#45;&gt;Node7</title>
<path fill="none" stroke="midnightblue" d="M219.189,-123.396C231.391,-112.96 248.005,-98.7507 260.577,-87.9978"/>
<polygon fill="midnightblue" stroke="midnightblue" points="263.207,-90.3541 268.532,-81.1945 258.657,-85.0344 263.207,-90.3541"/>
</g>
<!-- Node12&#45;&gt;Node5 -->
<g id="edge21" class="edge"><title>Node12&#45;&gt;Node5</title>
<path fill="none" stroke="midnightblue" d="M392.563,-128.734C392.416,-119.183 392.176,-103.618 391.987,-91.2829"/>
<polygon fill="midnightblue" stroke="midnightblue" points="395.484,-91.0722 391.83,-81.1273 388.485,-91.18 395.484,-91.0722"/>
</g>
<!-- Node13&#45;&gt;Node2 -->
<g id="edge23" class="edge"><title>Node13&#45;&gt;Node2</title>
<path fill="none" stroke="midnightblue" d="M119.006,-190.437C107.626,-181.459 94.4747,-168.752 87.6977,-154 78.5619,-134.114 78.6262,-108.575 80.1169,-91.4319"/>
<polygon fill="midnightblue" stroke="midnightblue" points="83.6417,-91.4062 81.2813,-81.0777 76.6856,-90.6239 83.6417,-91.4062"/>
</g>
<!-- Node13&#45;&gt;Node5 -->
<g id="edge24" class="edge"><title>Node13&#45;&gt;Node5</title>
<path fill="none" stroke="midnightblue" d="M194.304,-190.415C222.329,-181.981 256.427,-169.803 284.698,-154 303.723,-143.365 305.453,-136.33 322.698,-123 338.787,-110.563 357.416,-96.9755 371.259,-87.0303"/>
<polygon fill="midnightblue" stroke="midnightblue" points="373.493,-89.735 379.589,-81.0696 369.42,-84.0422 373.493,-89.735"/>
</g>
<!-- Node13&#45;&gt;Node11 -->
<g id="edge25" class="edge"><title>Node13&#45;&gt;Node11</title>
<path fill="none" stroke="midnightblue" d="M153.368,-190.396C161.706,-181.793 172.529,-170.626 181.913,-160.945"/>
<polygon fill="midnightblue" stroke="midnightblue" points="184.608,-163.193 189.054,-153.577 179.581,-158.321 184.608,-163.193"/>
</g>
</g>
</svg>
