<?xml version="1.0" encoding="UTF-8" standalone="no"?>
<!DOCTYPE svg PUBLIC "-//W3C//DTD SVG 1.1//EN"
 "http://www.w3.org/Graphics/SVG/1.1/DTD/svg11.dtd">
<!-- Generated by graphviz version 2.38.0 (20140413.2041)
 -->
<!-- Title: Estimator/MinLogLH/MinLogLH.cpp Pages: 1 -->
<svg width="1401pt" height="352pt"
 viewBox="0.00 0.00 1401.31 352.00" xmlns="http://www.w3.org/2000/svg" xmlns:xlink="http://www.w3.org/1999/xlink">
<g id="graph0" class="graph" transform="scale(1 1) rotate(0) translate(4 348)">
<title>Estimator/MinLogLH/MinLogLH.cpp</title>
<polygon fill="white" stroke="none" points="-4,4 -4,-348 1397.31,-348 1397.31,4 -4,4"/>
<!-- Node1 -->
<g id="node1" class="node"><title>Node1</title>
<polygon fill="#bfbfbf" stroke="black" points="592.309,-313.5 592.309,-343.5 698.309,-343.5 698.309,-313.5 592.309,-313.5"/>
<text text-anchor="start" x="600.309" y="-331.5" font-family="Helvetica,sans-Serif" font-size="10.00">Estimator/MinLogLH</text>
<text text-anchor="middle" x="645.309" y="-320.5" font-family="Helvetica,sans-Serif" font-size="10.00">/MinLogLH.cpp</text>
</g>
<!-- Node2 -->
<g id="node2" class="node"><title>Node2</title>
<g id="a_node2"><a xlink:href="MinLogLH_8hpp.html" target="_top" xlink:title="MinLogLH.hpp">
<polygon fill="white" stroke="black" points="259.309,-257.5 259.309,-276.5 339.309,-276.5 339.309,-257.5 259.309,-257.5"/>
<text text-anchor="middle" x="299.309" y="-264.5" font-family="Helvetica,sans-Serif" font-size="10.00">MinLogLH.hpp</text>
</a>
</g>
</g>
<!-- Node1&#45;&gt;Node2 -->
<g id="edge1" class="edge"><title>Node1&#45;&gt;Node2</title>
<path fill="none" stroke="midnightblue" d="M592.005,-318.334C525.878,-306.962 413.989,-287.721 349.391,-276.612"/>
<polygon fill="midnightblue" stroke="midnightblue" points="349.893,-273.147 339.444,-274.902 348.706,-280.046 349.893,-273.147"/>
</g>
<!-- Node9 -->
<g id="node9" class="node"><title>Node9</title>
<g id="a_node9"><a xlink:href="ParameterList_8hpp.html" target="_top" xlink:title="ParameterList class. ">
<polygon fill="white" stroke="red" points="596.309,-123.5 596.309,-153.5 742.309,-153.5 742.309,-123.5 596.309,-123.5"/>
<text text-anchor="start" x="604.309" y="-141.5" font-family="Helvetica,sans-Serif" font-size="10.00">Core/FunctionTree/Parameter</text>
<text text-anchor="middle" x="669.309" y="-130.5" font-family="Helvetica,sans-Serif" font-size="10.00">List.hpp</text>
</a>
</g>
</g>
<!-- Node1&#45;&gt;Node9 -->
<g id="edge25" class="edge"><title>Node1&#45;&gt;Node9</title>
<path fill="none" stroke="midnightblue" d="M647.113,-313.369C651.188,-281.445 661.146,-203.441 666.223,-163.671"/>
<polygon fill="midnightblue" stroke="midnightblue" points="669.722,-163.901 667.517,-153.538 662.779,-163.014 669.722,-163.901"/>
</g>
<!-- Node13 -->
<g id="node13" class="node"><title>Node13</title>
<g id="a_node13"><a xlink:href="TreeNode_8hpp.html" target="_top" xlink:title="TreeNode class. ">
<polygon fill="white" stroke="black" points="711.309,-257.5 711.309,-276.5 873.309,-276.5 873.309,-257.5 711.309,-257.5"/>
<text text-anchor="middle" x="792.309" y="-264.5" font-family="Helvetica,sans-Serif" font-size="10.00">Core/FunctionTree/TreeNode.hpp</text>
</a>
</g>
</g>
<!-- Node1&#45;&gt;Node13 -->
<g id="edge26" class="edge"><title>Node1&#45;&gt;Node13</title>
<path fill="none" stroke="midnightblue" d="M680.146,-313.399C704.81,-303.416 737.594,-290.147 761.344,-280.534"/>
<polygon fill="midnightblue" stroke="midnightblue" points="762.963,-283.654 770.919,-276.658 760.337,-277.165 762.963,-283.654"/>
</g>
<!-- Node17 -->
<g id="node17" class="node"><title>Node17</title>
<g id="a_node17"><a xlink:href="Kinematics_8hpp.html" target="_top" xlink:title="Core/Kinematics.hpp">
<polygon fill="white" stroke="black" points="89.309,-67.5 89.309,-86.5 197.309,-86.5 197.309,-67.5 89.309,-67.5"/>
<text text-anchor="middle" x="143.309" y="-74.5" font-family="Helvetica,sans-Serif" font-size="10.00">Core/Kinematics.hpp</text>
</a>
</g>
</g>
<!-- Node1&#45;&gt;Node17 -->
<g id="edge36" class="edge"><title>Node1&#45;&gt;Node17</title>
<path fill="none" stroke="midnightblue" d="M591.918,-328.428C487.952,-327.946 254.027,-315.468 88.309,-221 39.706,-193.294 -23.352,-168.422 9.30898,-123 25.3795,-100.651 53.0932,-89.2473 79.1617,-83.4884"/>
<polygon fill="midnightblue" stroke="midnightblue" points="79.9069,-86.909 89.0444,-81.5465 78.5572,-80.0403 79.9069,-86.909"/>
</g>
<!-- Node18 -->
<g id="node18" class="node"><title>Node18</title>
<g id="a_node18"><a xlink:href="Particle_8hpp.html" target="_top" xlink:title="Particle and FourMomentum class. ">
<polygon fill="white" stroke="black" points="1062.31,-67.5 1062.31,-86.5 1154.31,-86.5 1154.31,-67.5 1062.31,-67.5"/>
<text text-anchor="middle" x="1108.31" y="-74.5" font-family="Helvetica,sans-Serif" font-size="10.00">Core/Particle.hpp</text>
</a>
</g>
</g>
<!-- Node1&#45;&gt;Node18 -->
<g id="edge39" class="edge"><title>Node1&#45;&gt;Node18</title>
<path fill="none" stroke="midnightblue" d="M698.642,-325.063C821.039,-318.239 1116.2,-294.365 1176.31,-221 1209.43,-180.571 1155.85,-121.319 1126.08,-93.5024"/>
<polygon fill="midnightblue" stroke="midnightblue" points="1128.16,-90.6652 1118.41,-86.5319 1123.46,-95.8466 1128.16,-90.6652"/>
</g>
<!-- Node25 -->
<g id="node25" class="node"><title>Node25</title>
<g id="a_node25"><a xlink:href="DataSet_8hpp.html" target="_top" xlink:title="Data/DataSet.hpp">
<polygon fill="white" stroke="black" points="521.809,-196 521.809,-215 616.809,-215 616.809,-196 521.809,-196"/>
<text text-anchor="middle" x="569.309" y="-203" font-family="Helvetica,sans-Serif" font-size="10.00">Data/DataSet.hpp</text>
</a>
</g>
</g>
<!-- Node1&#45;&gt;Node25 -->
<g id="edge48" class="edge"><title>Node1&#45;&gt;Node25</title>
<path fill="none" stroke="midnightblue" d="M636.292,-313.145C622.262,-290.806 595.252,-247.804 580.17,-223.792"/>
<polygon fill="midnightblue" stroke="midnightblue" points="582.963,-221.659 574.681,-215.052 577.036,-225.382 582.963,-221.659"/>
</g>
<!-- Node3 -->
<g id="node3" class="node"><title>Node3</title>
<polygon fill="white" stroke="#bfbfbf" points="485.309,-67.5 485.309,-86.5 537.309,-86.5 537.309,-67.5 485.309,-67.5"/>
<text text-anchor="middle" x="511.309" y="-74.5" font-family="Helvetica,sans-Serif" font-size="10.00">memory</text>
</g>
<!-- Node2&#45;&gt;Node3 -->
<g id="edge2" class="edge"><title>Node2&#45;&gt;Node3</title>
<path fill="none" stroke="midnightblue" d="M339.706,-260.43C385.293,-253.342 455.551,-239.73 474.309,-221 508.1,-187.26 512.309,-126.944 512.093,-96.5655"/>
<polygon fill="midnightblue" stroke="midnightblue" points="515.59,-96.4174 511.846,-86.5064 508.592,-96.5894 515.59,-96.4174"/>
</g>
<!-- Node4 -->
<g id="node4" class="node"><title>Node4</title>
<polygon fill="white" stroke="#bfbfbf" points="569.309,-6 569.309,-25 613.309,-25 613.309,-6 569.309,-6"/>
<text text-anchor="middle" x="591.309" y="-13" font-family="Helvetica,sans-Serif" font-size="10.00">vector</text>
</g>
<!-- Node2&#45;&gt;Node4 -->
<g id="edge3" class="edge"><title>Node2&#45;&gt;Node4</title>
<path fill="none" stroke="midnightblue" d="M299.665,-257.297C300.651,-242.371 304.358,-211.427 318.309,-190 377.11,-99.6901 501.156,-47.2828 559.591,-26.7"/>
<polygon fill="midnightblue" stroke="midnightblue" points="560.731,-30.0091 569.048,-23.4461 558.454,-23.3899 560.731,-30.0091"/>
</g>
<!-- Node5 -->
<g id="node5" class="node"><title>Node5</title>
<g id="a_node5"><a xlink:href="FitParameter_8hpp.html" target="_top" xlink:title="Core/FitParameter.hpp">
<polygon fill="white" stroke="red" points="18.309,-129 18.309,-148 134.309,-148 134.309,-129 18.309,-129"/>
<text text-anchor="middle" x="76.309" y="-136" font-family="Helvetica,sans-Serif" font-size="10.00">Core/FitParameter.hpp</text>
</a>
</g>
</g>
<!-- Node2&#45;&gt;Node5 -->
<g id="edge4" class="edge"><title>Node2&#45;&gt;Node5</title>
<path fill="none" stroke="midnightblue" d="M259.077,-265.799C218.587,-263.574 156.406,-254.381 115.309,-221 95.656,-205.037 85.2815,-176.803 80.2981,-158.118"/>
<polygon fill="midnightblue" stroke="midnightblue" points="83.643,-157.058 77.9072,-148.15 76.8361,-158.69 83.643,-157.058"/>
</g>
<!-- Node8 -->
<g id="node8" class="node"><title>Node8</title>
<g id="a_node8"><a xlink:href="FunctionTreeEstimator_8hpp.html" target="_top" xlink:title="Core/FunctionTree/Function\lTreeEstimator.hpp">
<polygon fill="white" stroke="black" points="133.309,-190.5 133.309,-220.5 271.309,-220.5 271.309,-190.5 133.309,-190.5"/>
<text text-anchor="start" x="141.309" y="-208.5" font-family="Helvetica,sans-Serif" font-size="10.00">Core/FunctionTree/Function</text>
<text text-anchor="middle" x="202.309" y="-197.5" font-family="Helvetica,sans-Serif" font-size="10.00">TreeEstimator.hpp</text>
</a>
</g>
</g>
<!-- Node2&#45;&gt;Node8 -->
<g id="edge10" class="edge"><title>Node2&#45;&gt;Node8</title>
<path fill="none" stroke="midnightblue" d="M285.411,-257.475C272.028,-249.266 251.311,-236.558 233.911,-225.885"/>
<polygon fill="midnightblue" stroke="midnightblue" points="235.524,-222.768 225.17,-220.523 231.864,-228.735 235.524,-222.768"/>
</g>
<!-- Node11 -->
<g id="node11" class="node"><title>Node11</title>
<g id="a_node11"><a xlink:href="Estimator_8hpp.html" target="_top" xlink:title="Estimator/Estimator.hpp">
<polygon fill="white" stroke="black" points="152.309,-129 152.309,-148 274.309,-148 274.309,-129 152.309,-129"/>
<text text-anchor="middle" x="213.309" y="-136" font-family="Helvetica,sans-Serif" font-size="10.00">Estimator/Estimator.hpp</text>
</a>
</g>
</g>
<!-- Node2&#45;&gt;Node11 -->
<g id="edge24" class="edge"><title>Node2&#45;&gt;Node11</title>
<path fill="none" stroke="midnightblue" d="M259.27,-261.367C212.881,-255.078 140.696,-242.134 124.309,-221 115.866,-210.112 117.376,-201.906 124.309,-190 134.891,-171.828 154.715,-159.664 172.971,-151.838"/>
<polygon fill="midnightblue" stroke="midnightblue" points="174.313,-155.071 182.318,-148.131 171.732,-148.564 174.313,-155.071"/>
</g>
<!-- Node12 -->
<g id="node12" class="node"><title>Node12</title>
<g id="a_node12"><a xlink:href="FunctionTreeIntensity_8hpp.html" target="_top" xlink:title="Core/FunctionTree/Function\lTreeIntensity.hpp">
<polygon fill="white" stroke="black" points="327.309,-190.5 327.309,-220.5 465.309,-220.5 465.309,-190.5 327.309,-190.5"/>
<text text-anchor="start" x="335.309" y="-208.5" font-family="Helvetica,sans-Serif" font-size="10.00">Core/FunctionTree/Function</text>
<text text-anchor="middle" x="396.309" y="-197.5" font-family="Helvetica,sans-Serif" font-size="10.00">TreeIntensity.hpp</text>
</a>
</g>
</g>
<!-- Node2&#45;&gt;Node12 -->
<g id="edge20" class="edge"><title>Node2&#45;&gt;Node12</title>
<path fill="none" stroke="midnightblue" d="M313.207,-257.475C326.59,-249.266 347.307,-236.558 364.707,-225.885"/>
<polygon fill="midnightblue" stroke="midnightblue" points="366.754,-228.735 373.448,-220.523 363.094,-222.768 366.754,-228.735"/>
</g>
<!-- Node5&#45;&gt;Node4 -->
<g id="edge9" class="edge"><title>Node5&#45;&gt;Node4</title>
<path fill="none" stroke="midnightblue" d="M101.094,-128.827C127.511,-119.362 170.394,-103.363 206.309,-87 223.677,-79.0873 226.16,-72.9038 244.309,-67 355.992,-30.6701 496.407,-20.4171 558.827,-17.5701"/>
<polygon fill="midnightblue" stroke="midnightblue" points="559.359,-21.0508 569.203,-17.1333 559.065,-14.057 559.359,-21.0508"/>
</g>
<!-- Node6 -->
<g id="node6" class="node"><title>Node6</title>
<g id="a_node6"><a xlink:href="Function_8hpp.html" target="_top" xlink:title="Core/Function.hpp">
<polygon fill="white" stroke="red" points="253.809,-67.5 253.809,-86.5 350.809,-86.5 350.809,-67.5 253.809,-67.5"/>
<text text-anchor="middle" x="302.309" y="-74.5" font-family="Helvetica,sans-Serif" font-size="10.00">Core/Function.hpp</text>
</a>
</g>
</g>
<!-- Node5&#45;&gt;Node6 -->
<g id="edge5" class="edge"><title>Node5&#45;&gt;Node6</title>
<path fill="none" stroke="midnightblue" d="M108.689,-128.975C148.547,-118.482 216.328,-100.637 260.197,-89.087"/>
<polygon fill="midnightblue" stroke="midnightblue" points="261.209,-92.4398 269.989,-86.5091 259.427,-85.6705 261.209,-92.4398"/>
</g>
<!-- Node7 -->
<g id="node7" class="node"><title>Node7</title>
<polygon fill="white" stroke="#bfbfbf" points="281.809,-6 281.809,-25 322.809,-25 322.809,-6 281.809,-6"/>
<text text-anchor="middle" x="302.309" y="-13" font-family="Helvetica,sans-Serif" font-size="10.00">string</text>
</g>
<!-- Node5&#45;&gt;Node7 -->
<g id="edge8" class="edge"><title>Node5&#45;&gt;Node7</title>
<path fill="none" stroke="midnightblue" d="M73.8559,-128.945C70.2462,-114.371 65.4279,-84.5994 80.309,-67 104.713,-38.1376 216.556,-24.2149 271.571,-19.0184"/>
<polygon fill="midnightblue" stroke="midnightblue" points="272.13,-22.4822 281.773,-18.0936 271.498,-15.5107 272.13,-22.4822"/>
</g>
<!-- Node6&#45;&gt;Node4 -->
<g id="edge7" class="edge"><title>Node6&#45;&gt;Node4</title>
<path fill="none" stroke="midnightblue" d="M343.716,-67.4751C401.83,-55.5103 506.365,-33.9884 559.067,-23.138"/>
<polygon fill="midnightblue" stroke="midnightblue" points="560.101,-26.4987 569.19,-21.0539 558.689,-19.6425 560.101,-26.4987"/>
</g>
<!-- Node6&#45;&gt;Node7 -->
<g id="edge6" class="edge"><title>Node6&#45;&gt;Node7</title>
<path fill="none" stroke="midnightblue" d="M302.309,-67.4751C302.309,-59.0803 302.309,-45.9806 302.309,-35.1631"/>
<polygon fill="midnightblue" stroke="midnightblue" points="305.809,-35.0091 302.309,-25.0091 298.809,-35.0091 305.809,-35.0091"/>
</g>
<!-- Node8&#45;&gt;Node3 -->
<g id="edge11" class="edge"><title>Node8&#45;&gt;Node3</title>
<path fill="none" stroke="midnightblue" d="M236.558,-190.479C297.311,-165.608 422.983,-114.159 480.885,-90.4551"/>
<polygon fill="midnightblue" stroke="midnightblue" points="482.299,-93.6581 490.228,-86.6303 479.647,-87.18 482.299,-93.6581"/>
</g>
<!-- Node8&#45;&gt;Node5 -->
<g id="edge12" class="edge"><title>Node8&#45;&gt;Node5</title>
<path fill="none" stroke="midnightblue" d="M174.969,-190.396C153.252,-179.193 123.106,-163.641 101.868,-152.685"/>
<polygon fill="midnightblue" stroke="midnightblue" points="103.291,-149.481 92.7995,-148.007 100.082,-155.702 103.291,-149.481"/>
</g>
<!-- Node8&#45;&gt;Node9 -->
<g id="edge13" class="edge"><title>Node8&#45;&gt;Node9</title>
<path fill="none" stroke="midnightblue" d="M271.468,-194.874C355.202,-183.219 496.128,-163.604 585.827,-151.12"/>
<polygon fill="midnightblue" stroke="midnightblue" points="586.542,-154.554 595.964,-149.709 585.577,-147.621 586.542,-154.554"/>
</g>
<!-- Node8&#45;&gt;Node11 -->
<g id="edge18" class="edge"><title>Node8&#45;&gt;Node11</title>
<path fill="none" stroke="midnightblue" d="M204.696,-190.396C206.292,-180.963 208.41,-168.448 210.146,-158.189"/>
<polygon fill="midnightblue" stroke="midnightblue" points="213.62,-158.638 211.838,-148.195 206.718,-157.47 213.62,-158.638"/>
</g>
<!-- Node9&#45;&gt;Node3 -->
<g id="edge15" class="edge"><title>Node9&#45;&gt;Node3</title>
<path fill="none" stroke="midnightblue" d="M631.865,-123.399C605.119,-113.327 569.488,-99.9093 543.91,-90.2769"/>
<polygon fill="midnightblue" stroke="midnightblue" points="544.891,-86.9066 534.299,-86.6578 542.424,-93.4575 544.891,-86.9066"/>
</g>
<!-- Node9&#45;&gt;Node4 -->
<g id="edge17" class="edge"><title>Node9&#45;&gt;Node4</title>
<path fill="none" stroke="midnightblue" d="M660.055,-123.145C645.591,-100.707 617.688,-57.4217 602.25,-33.4731"/>
<polygon fill="midnightblue" stroke="midnightblue" points="605.182,-31.5608 596.822,-25.0522 599.298,-35.3535 605.182,-31.5608"/>
</g>
<!-- Node9&#45;&gt;Node7 -->
<g id="edge16" class="edge"><title>Node9&#45;&gt;Node7</title>
<path fill="none" stroke="midnightblue" d="M649.406,-123.43C625.864,-107.437 584.975,-81.6545 546.309,-67 472.567,-39.0517 380.117,-25.2994 332.999,-19.6974"/>
<polygon fill="midnightblue" stroke="midnightblue" points="333.176,-16.195 322.843,-18.5338 332.38,-23.1495 333.176,-16.195"/>
</g>
<!-- Node10 -->
<g id="node10" class="node"><title>Node10</title>
<polygon fill="white" stroke="#bfbfbf" points="881.309,-6 881.309,-25 935.309,-25 935.309,-6 881.309,-6"/>
<text text-anchor="middle" x="908.309" y="-13" font-family="Helvetica,sans-Serif" font-size="10.00">iostream</text>
</g>
<!-- Node9&#45;&gt;Node10 -->
<g id="edge14" class="edge"><title>Node9&#45;&gt;Node10</title>
<path fill="none" stroke="midnightblue" d="M697.193,-123.383C743.769,-99.8028 836.748,-52.7295 882.149,-29.744"/>
<polygon fill="midnightblue" stroke="midnightblue" points="883.997,-32.7317 891.338,-25.0922 880.835,-26.4865 883.997,-32.7317"/>
</g>
<!-- Node11&#45;&gt;Node6 -->
<g id="edge19" class="edge"><title>Node11&#45;&gt;Node6</title>
<path fill="none" stroke="midnightblue" d="M226.061,-128.975C240.336,-119.431 263.706,-103.807 280.817,-92.3683"/>
<polygon fill="midnightblue" stroke="midnightblue" points="283.213,-94.9766 289.581,-86.5091 279.323,-89.1572 283.213,-94.9766"/>
</g>
<!-- Node12&#45;&gt;Node3 -->
<g id="edge21" class="edge"><title>Node12&#45;&gt;Node3</title>
<path fill="none" stroke="midnightblue" d="M409.055,-190.479C430.492,-166.899 473.646,-119.429 496.433,-94.3633"/>
<polygon fill="midnightblue" stroke="midnightblue" points="499.182,-96.5423 503.319,-86.7885 494.003,-91.8336 499.182,-96.5423"/>
</g>
<!-- Node12&#45;&gt;Node6 -->
<g id="edge22" class="edge"><title>Node12&#45;&gt;Node6</title>
<path fill="none" stroke="midnightblue" d="M385.89,-190.479C368.521,-167.104 333.706,-120.253 314.958,-95.0222"/>
<polygon fill="midnightblue" stroke="midnightblue" points="317.613,-92.7276 308.84,-86.7885 311.995,-96.9027 317.613,-92.7276"/>
</g>
<!-- Node12&#45;&gt;Node9 -->
<g id="edge23" class="edge"><title>Node12&#45;&gt;Node9</title>
<path fill="none" stroke="midnightblue" d="M455.21,-190.476C497.762,-180.345 555.379,-166.626 600.124,-155.973"/>
<polygon fill="midnightblue" stroke="midnightblue" points="601.126,-159.332 610.043,-153.611 599.504,-152.522 601.126,-159.332"/>
</g>
<!-- Node13&#45;&gt;Node3 -->
<g id="edge28" class="edge"><title>Node13&#45;&gt;Node3</title>
<path fill="none" stroke="midnightblue" d="M772.262,-257.382C734.225,-240.542 649.801,-200.793 587.309,-154 580.687,-149.041 546.767,-114.48 526.549,-93.7108"/>
<polygon fill="midnightblue" stroke="midnightblue" points="529.036,-91.2479 519.556,-86.5163 524.016,-96.1267 529.036,-91.2479"/>
</g>
<!-- Node13&#45;&gt;Node7 -->
<g id="edge29" class="edge"><title>Node13&#45;&gt;Node7</title>
<path fill="none" stroke="midnightblue" d="M790.906,-257.326C786.239,-229.468 770.447,-142.935 751.309,-123 692.602,-61.8503 424.134,-29.0229 332.818,-19.4789"/>
<polygon fill="midnightblue" stroke="midnightblue" points="333.133,-15.993 322.828,-18.4545 332.419,-22.9565 333.133,-15.993"/>
</g>
<!-- Node13&#45;&gt;Node9 -->
<g id="edge35" class="edge"><title>Node13&#45;&gt;Node9</title>
<path fill="none" stroke="midnightblue" d="M783.855,-257.305C764.804,-237.712 718.04,-189.618 690.514,-161.308"/>
<polygon fill="midnightblue" stroke="midnightblue" points="692.779,-158.618 683.299,-153.888 687.761,-163.498 692.779,-158.618"/>
</g>
<!-- Node14 -->
<g id="node14" class="node"><title>Node14</title>
<polygon fill="white" stroke="#bfbfbf" points="1038.81,-129 1038.81,-148 1091.81,-148 1091.81,-129 1038.81,-129"/>
<text text-anchor="middle" x="1065.31" y="-136" font-family="Helvetica,sans-Serif" font-size="10.00">complex</text>
</g>
<!-- Node13&#45;&gt;Node14 -->
<g id="edge27" class="edge"><title>Node13&#45;&gt;Node14</title>
<path fill="none" stroke="midnightblue" d="M873.693,-261.652C976.033,-255.338 1140.7,-242.032 1159.31,-221 1183.45,-193.721 1134.99,-167.014 1099.11,-151.964"/>
<polygon fill="midnightblue" stroke="midnightblue" points="1099.97,-148.539 1089.39,-148.037 1097.35,-155.029 1099.97,-148.539"/>
</g>
<!-- Node15 -->
<g id="node15" class="node"><title>Node15</title>
<g id="a_node15"><a xlink:href="Functions_8hpp.html" target="_top" xlink:title="This file contains Functions implementing the Strategy interface so they can be used inside a node of...">
<polygon fill="white" stroke="red" points="796.309,-196 796.309,-215 958.309,-215 958.309,-196 796.309,-196"/>
<text text-anchor="middle" x="877.309" y="-203" font-family="Helvetica,sans-Serif" font-size="10.00">Core/FunctionTree/Functions.hpp</text>
</a>
</g>
</g>
<!-- Node13&#45;&gt;Node15 -->
<g id="edge30" class="edge"><title>Node13&#45;&gt;Node15</title>
<path fill="none" stroke="midnightblue" d="M804.487,-257.475C818.121,-247.931 840.441,-232.307 856.783,-220.868"/>
<polygon fill="midnightblue" stroke="midnightblue" points="858.968,-223.611 865.153,-215.009 854.954,-217.876 858.968,-223.611"/>
</g>
<!-- Node16 -->
<g id="node16" class="node"><title>Node16</title>
<g id="a_node16"><a xlink:href="ParObserver_8hpp.html" target="_top" xlink:title="ParObserver class. ">
<polygon fill="white" stroke="black" points="976.309,-196 976.309,-215 1150.31,-215 1150.31,-196 976.309,-196"/>
<text text-anchor="middle" x="1063.31" y="-203" font-family="Helvetica,sans-Serif" font-size="10.00">Core/FunctionTree/ParObserver.hpp</text>
</a>
</g>
</g>
<!-- Node13&#45;&gt;Node16 -->
<g id="edge34" class="edge"><title>Node13&#45;&gt;Node16</title>
<path fill="none" stroke="midnightblue" d="M831.137,-257.475C879.434,-246.871 961.922,-228.76 1014.46,-217.224"/>
<polygon fill="midnightblue" stroke="midnightblue" points="1015.54,-220.572 1024.55,-215.009 1014.04,-213.735 1015.54,-220.572"/>
</g>
<!-- Node15&#45;&gt;Node4 -->
<g id="edge32" class="edge"><title>Node15&#45;&gt;Node4</title>
<path fill="none" stroke="midnightblue" d="M882.643,-195.995C891.844,-180.122 908.254,-145.556 892.309,-123 829.998,-34.8565 688.315,-19.1865 624.069,-16.7345"/>
<polygon fill="midnightblue" stroke="midnightblue" points="623.826,-13.2259 613.727,-16.4302 623.62,-20.2229 623.826,-13.2259"/>
</g>
<!-- Node15&#45;&gt;Node9 -->
<g id="edge33" class="edge"><title>Node15&#45;&gt;Node9</title>
<path fill="none" stroke="midnightblue" d="M849.688,-195.869C817.734,-185.883 764.34,-169.197 723.914,-156.564"/>
<polygon fill="midnightblue" stroke="midnightblue" points="724.788,-153.17 714.199,-153.528 722.7,-159.852 724.788,-153.17"/>
</g>
<!-- Node15&#45;&gt;Node14 -->
<g id="edge31" class="edge"><title>Node15&#45;&gt;Node14</title>
<path fill="none" stroke="midnightblue" d="M902.274,-195.869C935.233,-184.473 993.427,-164.353 1030.64,-151.487"/>
<polygon fill="midnightblue" stroke="midnightblue" points="1032.23,-154.639 1040.54,-148.064 1029.95,-148.024 1032.23,-154.639"/>
</g>
<!-- Node17&#45;&gt;Node4 -->
<g id="edge38" class="edge"><title>Node17&#45;&gt;Node4</title>
<path fill="none" stroke="midnightblue" d="M197.348,-68.8229C291.59,-56.3064 483.202,-30.8579 559.205,-20.7638"/>
<polygon fill="midnightblue" stroke="midnightblue" points="559.688,-24.2305 569.14,-19.4443 558.767,-17.2914 559.688,-24.2305"/>
</g>
<!-- Node17&#45;&gt;Node7 -->
<g id="edge37" class="edge"><title>Node17&#45;&gt;Node7</title>
<path fill="none" stroke="midnightblue" d="M166.09,-67.4751C193.984,-57.0368 241.316,-39.3243 272.193,-27.7699"/>
<polygon fill="midnightblue" stroke="midnightblue" points="273.455,-31.0347 281.594,-24.2519 271.001,-24.4787 273.455,-31.0347"/>
</g>
<!-- Node18&#45;&gt;Node4 -->
<g id="edge46" class="edge"><title>Node18&#45;&gt;Node4</title>
<path fill="none" stroke="midnightblue" d="M1061.97,-70.6674C958.729,-58.7852 711.926,-30.3815 623.508,-20.2057"/>
<polygon fill="midnightblue" stroke="midnightblue" points="623.866,-16.7239 613.531,-19.0575 623.066,-23.678 623.866,-16.7239"/>
</g>
<!-- Node18&#45;&gt;Node10 -->
<g id="edge43" class="edge"><title>Node18&#45;&gt;Node10</title>
<path fill="none" stroke="midnightblue" d="M1072.44,-67.4244C1038.97,-59.1253 987.811,-45.6749 944.309,-31 942.182,-30.2825 939.999,-29.5063 937.811,-28.6987"/>
<polygon fill="midnightblue" stroke="midnightblue" points="938.928,-25.3783 928.339,-25.0424 936.407,-31.9087 938.928,-25.3783"/>
</g>
<!-- Node19 -->
<g id="node19" class="node"><title>Node19</title>
<polygon fill="white" stroke="#bfbfbf" points="1219.31,-6 1219.31,-25 1275.31,-25 1275.31,-6 1219.31,-6"/>
<text text-anchor="middle" x="1247.31" y="-13" font-family="Helvetica,sans-Serif" font-size="10.00">algorithm</text>
</g>
<!-- Node18&#45;&gt;Node19 -->
<g id="edge40" class="edge"><title>Node18&#45;&gt;Node19</title>
<path fill="none" stroke="midnightblue" d="M1128.22,-67.4751C1151.76,-57.4013 1191.12,-40.5525 1218.1,-29.0023"/>
<polygon fill="midnightblue" stroke="midnightblue" points="1219.61,-32.162 1227.43,-25.0091 1216.86,-25.7267 1219.61,-32.162"/>
</g>
<!-- Node20 -->
<g id="node20" class="node"><title>Node20</title>
<polygon fill="white" stroke="#bfbfbf" points="1293.31,-6 1293.31,-25 1331.31,-25 1331.31,-6 1293.31,-6"/>
<text text-anchor="middle" x="1312.31" y="-13" font-family="Helvetica,sans-Serif" font-size="10.00">array</text>
</g>
<!-- Node18&#45;&gt;Node20 -->
<g id="edge41" class="edge"><title>Node18&#45;&gt;Node20</title>
<path fill="none" stroke="midnightblue" d="M1153.3,-67.4515C1189.38,-59.8959 1240.99,-47.5087 1284.31,-31 1285.52,-30.5395 1286.74,-30.0405 1287.97,-29.514"/>
<polygon fill="midnightblue" stroke="midnightblue" points="1289.67,-32.581 1297.19,-25.1236 1286.66,-26.2602 1289.67,-32.581"/>
</g>
<!-- Node21 -->
<g id="node21" class="node"><title>Node21</title>
<polygon fill="white" stroke="#bfbfbf" points="1349.31,-6 1349.31,-25 1393.31,-25 1393.31,-6 1349.31,-6"/>
<text text-anchor="middle" x="1371.31" y="-13" font-family="Helvetica,sans-Serif" font-size="10.00">cmath</text>
</g>
<!-- Node18&#45;&gt;Node21 -->
<g id="edge42" class="edge"><title>Node18&#45;&gt;Node21</title>
<path fill="none" stroke="midnightblue" d="M1154.49,-70.4515C1201.93,-63.9665 1277.49,-51.4368 1340.31,-31 1341.98,-30.4566 1343.68,-29.8453 1345.37,-29.1891"/>
<polygon fill="midnightblue" stroke="midnightblue" points="1347.08,-32.2658 1354.88,-25.0989 1344.31,-25.8355 1347.08,-32.2658"/>
</g>
<!-- Node22 -->
<g id="node22" class="node"><title>Node22</title>
<polygon fill="white" stroke="#bfbfbf" points="953.809,-6 953.809,-25 1004.81,-25 1004.81,-6 953.809,-6"/>
<text text-anchor="middle" x="979.309" y="-13" font-family="Helvetica,sans-Serif" font-size="10.00">numeric</text>
</g>
<!-- Node18&#45;&gt;Node22 -->
<g id="edge44" class="edge"><title>Node18&#45;&gt;Node22</title>
<path fill="none" stroke="midnightblue" d="M1089.83,-67.4751C1068.18,-57.4897 1032.1,-40.8476 1007.08,-29.3075"/>
<polygon fill="midnightblue" stroke="midnightblue" points="1008.3,-26.0193 997.757,-25.0091 1005.37,-32.3757 1008.3,-26.0193"/>
</g>
<!-- Node23 -->
<g id="node23" class="node"><title>Node23</title>
<polygon fill="white" stroke="#bfbfbf" points="1022.81,-6 1022.81,-25 1081.81,-25 1081.81,-6 1022.81,-6"/>
<text text-anchor="middle" x="1052.31" y="-13" font-family="Helvetica,sans-Serif" font-size="10.00">stdexcept</text>
</g>
<!-- Node18&#45;&gt;Node23 -->
<g id="edge45" class="edge"><title>Node18&#45;&gt;Node23</title>
<path fill="none" stroke="midnightblue" d="M1100.29,-67.4751C1091.72,-58.3733 1077.95,-43.741 1067.35,-32.483"/>
<polygon fill="midnightblue" stroke="midnightblue" points="1069.72,-29.8923 1060.32,-25.0091 1064.62,-34.6899 1069.72,-29.8923"/>
</g>
<!-- Node24 -->
<g id="node24" class="node"><title>Node24</title>
<polygon fill="white" stroke="#bfbfbf" points="1099.81,-0.5 1099.81,-30.5 1200.81,-30.5 1200.81,-0.5 1099.81,-0.5"/>
<text text-anchor="start" x="1107.81" y="-18.5" font-family="Helvetica,sans-Serif" font-size="10.00">boost/property_tree</text>
<text text-anchor="middle" x="1150.31" y="-7.5" font-family="Helvetica,sans-Serif" font-size="10.00">/ptree.hpp</text>
</g>
<!-- Node18&#45;&gt;Node24 -->
<g id="edge47" class="edge"><title>Node18&#45;&gt;Node24</title>
<path fill="none" stroke="midnightblue" d="M1114.33,-67.4751C1119.59,-60.0192 1127.47,-48.8519 1134.52,-38.8685"/>
<polygon fill="midnightblue" stroke="midnightblue" points="1137.5,-40.7111 1140.41,-30.523 1131.78,-36.6743 1137.5,-40.7111"/>
</g>
<!-- Node25&#45;&gt;Node3 -->
<g id="edge49" class="edge"><title>Node25&#45;&gt;Node3</title>
<path fill="none" stroke="midnightblue" d="M565.322,-195.805C555.927,-175.313 532.237,-123.645 519.581,-96.0416"/>
<polygon fill="midnightblue" stroke="midnightblue" points="522.673,-94.387 515.323,-86.7557 516.31,-97.3045 522.673,-94.387"/>
</g>
<!-- Node25&#45;&gt;Node6 -->
<g id="edge53" class="edge"><title>Node25&#45;&gt;Node6</title>
<path fill="none" stroke="midnightblue" d="M550.957,-195.805C504.832,-173.952 383.868,-116.641 329.482,-90.8741"/>
<polygon fill="midnightblue" stroke="midnightblue" points="330.972,-87.7071 320.436,-86.5884 327.975,-94.033 330.972,-87.7071"/>
</g>
<!-- Node26 -->
<g id="node26" class="node"><title>Node26</title>
<g id="a_node26"><a xlink:href="Event_8hpp.html" target="_top" xlink:title="Core/Event.hpp">
<polygon fill="white" stroke="black" points="798.809,-129 798.809,-148 883.809,-148 883.809,-129 798.809,-129"/>
<text text-anchor="middle" x="841.309" y="-136" font-family="Helvetica,sans-Serif" font-size="10.00">Core/Event.hpp</text>
</a>
</g>
</g>
<!-- Node25&#45;&gt;Node26 -->
<g id="edge50" class="edge"><title>Node25&#45;&gt;Node26</title>
<path fill="none" stroke="midnightblue" d="M605.148,-195.936C654.072,-184.244 741.8,-163.28 795.46,-150.457"/>
<polygon fill="midnightblue" stroke="midnightblue" points="796.478,-153.812 805.391,-148.083 794.851,-147.004 796.478,-153.812"/>
</g>
<!-- Node26&#45;&gt;Node4 -->
<g id="edge52" class="edge"><title>Node26&#45;&gt;Node4</title>
<path fill="none" stroke="midnightblue" d="M823.729,-128.992C780.711,-108.171 669.909,-54.5423 618.392,-29.608"/>
<polygon fill="midnightblue" stroke="midnightblue" points="619.73,-26.3672 609.204,-25.161 616.68,-32.668 619.73,-26.3672"/>
</g>
<!-- Node26&#45;&gt;Node18 -->
<g id="edge51" class="edge"><title>Node26&#45;&gt;Node18</title>
<path fill="none" stroke="midnightblue" d="M879.564,-128.975C927.148,-118.371 1008.42,-100.26 1060.18,-88.7244"/>
<polygon fill="midnightblue" stroke="midnightblue" points="1061.13,-92.1005 1070.13,-86.5091 1059.6,-85.2681 1061.13,-92.1005"/>
</g>
</g>
</svg>
