<?xml version="1.0" encoding="UTF-8" standalone="no"?>
<!DOCTYPE svg PUBLIC "-//W3C//DTD SVG 1.1//EN"
 "http://www.w3.org/Graphics/SVG/1.1/DTD/svg11.dtd">
<!-- Generated by graphviz version 2.38.0 (20140413.2041)
 -->
<!-- Title: Optimizer/Minuit2/MinuitResult.cpp Pages: 1 -->
<!--zoomable 162 -->
<svg id="main" version="1.1" xmlns="http://www.w3.org/2000/svg" xmlns:xlink="http://www.w3.org/1999/xlink" xml:space="preserve" onload="init(evt)">
<style type="text/css"><![CDATA[
.edge:hover path { stroke: red; }
.edge:hover polygon { stroke: red; fill: red; }
]]></style>
<script type="text/javascript"><![CDATA[
var edges = document.getElementsByTagName('g');
if (edges && edges.length) {
  for (var i=0;i<edges.length;i++) {
    if (edges[i].id.substr(0,4)=='edge') {
      edges[i].setAttribute('class','edge');
    }
  }
}
]]></script>
        <defs>
                <circle id="rim" cx="0" cy="0" r="7"/>
                <circle id="rim2" cx="0" cy="0" r="3.5"/>
                <g id="zoomPlus">
                        <use xlink:href="#rim" fill="#404040">
                                <set attributeName="fill" to="#808080" begin="zoomplus.mouseover" end="zoomplus.mouseout"/>
                        </use>
                        <path d="M-4,0h8M0,-4v8" fill="none" stroke="white" stroke-width="1.5" pointer-events="none"/>
                </g>
                <g id="zoomMin">
                        <use xlink:href="#rim" fill="#404040">
                                <set attributeName="fill" to="#808080" begin="zoomminus.mouseover" end="zoomminus.mouseout"/>
                        </use>
                        <path d="M-4,0h8" fill="none" stroke="white" stroke-width="1.5" pointer-events="none"/>
                </g>
                <g id="dirArrow">
                        <path fill="none" stroke="white" stroke-width="1.5" d="M0,-3.0v7 M-2.5,-0.5L0,-3.0L2.5,-0.5"/>
                </g>
               <g id="resetDef">
                       <use xlink:href="#rim2" fill="#404040">
                               <set attributeName="fill" to="#808080" begin="reset.mouseover" end="reset.mouseout"/>
                       </use>
               </g>
        </defs>

<script type="text/javascript">
var viewWidth = 589;
var viewHeight = 162;
var sectionId = 'dynsection-0';
</script>
<script xlink:href="svgpan.js"/>
<svg id="graph" class="graph">
<g id="viewport">
<title>Optimizer/Minuit2/MinuitResult.cpp</title>
<polygon fill="white" stroke="none" points="-4,4 -4,-158 584.5,-158 584.5,4 -4,4"/>
<!-- Node1 -->
<g id="node1" class="node"><title>Node1</title>
<polygon fill="#bfbfbf" stroke="black" points="221.5,-123.5 221.5,-153.5 343.5,-153.5 343.5,-123.5 221.5,-123.5"/>
<text text-anchor="start" x="229.5" y="-141.5" font-family="Helvetica,sans-Serif" font-size="10.00">Optimizer/Minuit2/Minuit</text>
<text text-anchor="middle" x="282.5" y="-130.5" font-family="Helvetica,sans-Serif" font-size="10.00">Result.cpp</text>
</g>
<!-- Node2 -->
<g id="node2" class="node"><title>Node2</title>
<g id="a_node2"><a xlink:href="MinuitResult_8hpp.html" target="_top" xlink:title="MinuitResult.hpp">
<polygon fill="white" stroke="black" points="61.5,-67.5 61.5,-86.5 151.5,-86.5 151.5,-67.5 61.5,-67.5"/>
<text text-anchor="middle" x="106.5" y="-74.5" font-family="Helvetica,sans-Serif" font-size="10.00">MinuitResult.hpp</text>
</a>
</g>
</g>
<!-- Node1&#45;&gt;Node2 -->
<g id="edge1" class="edge"><title>Node1&#45;&gt;Node2</title>
<path fill="none" stroke="midnightblue" d="M240.79,-123.399C210.511,-113.163 170.009,-99.4703 141.428,-89.8082"/>
<polygon fill="midnightblue" stroke="midnightblue" points="142.447,-86.458 131.853,-86.5709 140.205,-93.0893 142.447,-86.458"/>
</g>
<!-- Node5 -->
<g id="node5" class="node"><title>Node5</title>
<g id="a_node5"><a xlink:href="Logging_8hpp.html" target="_top" xlink:title="Core/Logging.hpp">
<polygon fill="white" stroke="red" points="170,-67.5 170,-86.5 263,-86.5 263,-67.5 170,-67.5"/>
<text text-anchor="middle" x="216.5" y="-74.5" font-family="Helvetica,sans-Serif" font-size="10.00">Core/Logging.hpp</text>
</a>
</g>
</g>
<!-- Node1&#45;&gt;Node5 -->
<g id="edge4" class="edge"><title>Node1&#45;&gt;Node5</title>
<path fill="none" stroke="midnightblue" d="M266.859,-123.399C256.873,-114.397 243.922,-102.721 233.655,-93.4652"/>
<polygon fill="midnightblue" stroke="midnightblue" points="235.875,-90.7541 226.104,-86.6578 231.187,-95.9533 235.875,-90.7541"/>
</g>
<!-- Node6 -->
<g id="node6" class="node"><title>Node6</title>
<polygon fill="white" stroke="#bfbfbf" points="281,-67.5 281,-86.5 418,-86.5 418,-67.5 281,-67.5"/>
<text text-anchor="middle" x="349.5" y="-74.5" font-family="Helvetica,sans-Serif" font-size="10.00">Minuit2/FunctionMinimum.h</text>
</g>
<!-- Node1&#45;&gt;Node6 -->
<g id="edge5" class="edge"><title>Node1&#45;&gt;Node6</title>
<path fill="none" stroke="midnightblue" d="M298.378,-123.399C308.515,-114.397 321.662,-102.721 332.085,-93.4652"/>
<polygon fill="midnightblue" stroke="midnightblue" points="334.598,-95.915 339.751,-86.6578 329.95,-90.681 334.598,-95.915"/>
</g>
<!-- Node7 -->
<g id="node7" class="node"><title>Node7</title>
<polygon fill="white" stroke="#bfbfbf" points="436.5,-67.5 436.5,-86.5 580.5,-86.5 580.5,-67.5 436.5,-67.5"/>
<text text-anchor="middle" x="508.5" y="-74.5" font-family="Helvetica,sans-Serif" font-size="10.00">Minuit2/MnUserParameters.h</text>
</g>
<!-- Node1&#45;&gt;Node7 -->
<g id="edge6" class="edge"><title>Node1&#45;&gt;Node7</title>
<path fill="none" stroke="midnightblue" d="M335.773,-123.475C375.614,-112.986 429.355,-98.8367 466.255,-89.1221"/>
<polygon fill="midnightblue" stroke="midnightblue" points="467.411,-92.4371 476.19,-86.5064 465.629,-85.6678 467.411,-92.4371"/>
</g>
<!-- Node3 -->
<g id="node3" class="node"><title>Node3</title>
<g id="a_node3"><a xlink:href="FitResult_8hpp.html" target="_top" xlink:title="Core/FitResult.hpp">
<polygon fill="white" stroke="red" points="0,-6 0,-25 99,-25 99,-6 0,-6"/>
<text text-anchor="middle" x="49.5" y="-13" font-family="Helvetica,sans-Serif" font-size="10.00">Core/FitResult.hpp</text>
</a>
</g>
</g>
<!-- Node2&#45;&gt;Node3 -->
<g id="edge2" class="edge"><title>Node2&#45;&gt;Node3</title>
<path fill="none" stroke="midnightblue" d="M98.3333,-67.4751C89.6139,-58.3733 75.5964,-43.741 64.8114,-32.483"/>
<polygon fill="midnightblue" stroke="midnightblue" points="67.0967,-29.809 57.6516,-25.0091 62.0419,-34.6515 67.0967,-29.809"/>
</g>
<!-- Node4 -->
<g id="node4" class="node"><title>Node4</title>
<polygon fill="white" stroke="#bfbfbf" points="117,-0.5 117,-30.5 212,-30.5 212,-0.5 117,-0.5"/>
<text text-anchor="start" x="125" y="-18.5" font-family="Helvetica,sans-Serif" font-size="10.00">boost/serialization</text>
<text text-anchor="middle" x="164.5" y="-7.5" font-family="Helvetica,sans-Serif" font-size="10.00">/base_object.hpp</text>
</g>
<!-- Node2&#45;&gt;Node4 -->
<g id="edge3" class="edge"><title>Node2&#45;&gt;Node4</title>
<path fill="none" stroke="midnightblue" d="M114.81,-67.4751C122.298,-59.7932 133.627,-48.1717 143.577,-37.9643"/>
<polygon fill="midnightblue" stroke="midnightblue" points="146.357,-40.1268 150.831,-30.523 141.344,-35.2407 146.357,-40.1268"/>
</g>
</g>
</svg>
        <g id="navigator" transform="translate(0 0)" fill="#404254">
                <rect fill="#f2f5e9" fill-opacity="0.5" stroke="#606060" stroke-width=".5" x="0" y="0" width="60" height="60"/>
                <use id="zoomplus" xlink:href="#zoomPlus" x="17" y="9" onmousedown="handleZoom(evt,'in')"/>
                <use id="zoomminus" xlink:href="#zoomMin" x="42" y="9" onmousedown="handleZoom(evt,'out')"/>
                <use id="reset" xlink:href="#resetDef" x="30" y="36" onmousedown="handleReset()"/>
                <g id="arrowUp" xlink:href="#dirArrow" transform="translate(30 24)" onmousedown="handlePan(0,-1)">
                  <use xlink:href="#rim" fill="#404040">
                        <set attributeName="fill" to="#808080" begin="arrowUp.mouseover" end="arrowUp.mouseout"/>
                  </use>
                  <path fill="none" stroke="white" stroke-width="1.5" d="M0,-3.0v7 M-2.5,-0.5L0,-3.0L2.5,-0.5"/>
                </g>
                <g id="arrowRight" xlink:href="#dirArrow" transform="rotate(90) translate(36 -43)" onmousedown="handlePan(1,0)">
                  <use xlink:href="#rim" fill="#404040">
                        <set attributeName="fill" to="#808080" begin="arrowRight.mouseover" end="arrowRight.mouseout"/>
                  </use>
                  <path fill="none" stroke="white" stroke-width="1.5" d="M0,-3.0v7 M-2.5,-0.5L0,-3.0L2.5,-0.5"/>
                </g>
                <g id="arrowDown" xlink:href="#dirArrow" transform="rotate(180) translate(-30 -48)" onmousedown="handlePan(0,1)">
                  <use xlink:href="#rim" fill="#404040">
                        <set attributeName="fill" to="#808080" begin="arrowDown.mouseover" end="arrowDown.mouseout"/>
                  </use>
                  <path fill="none" stroke="white" stroke-width="1.5" d="M0,-3.0v7 M-2.5,-0.5L0,-3.0L2.5,-0.5"/>
                </g>
                <g id="arrowLeft" xlink:href="#dirArrow" transform="rotate(270) translate(-36 17)" onmousedown="handlePan(-1,0)">
                  <use xlink:href="#rim" fill="#404040">
                        <set attributeName="fill" to="#808080" begin="arrowLeft.mouseover" end="arrowLeft.mouseout"/>
                  </use>
                  <path fill="none" stroke="white" stroke-width="1.5" d="M0,-3.0v7 M-2.5,-0.5L0,-3.0L2.5,-0.5"/>
                </g>
        </g>
        <svg viewBox="0 0 15 15" width="100%" height="30px" preserveAspectRatio="xMaxYMin meet">
         <g id="arrow_out" transform="scale(0.3 0.3)">
          <a xlink:href="MinuitResult_8cpp__incl_org.svg" target="_base">
           <rect id="button" ry="5" rx="5" y="6" x="6" height="38" width="38"
                fill="#f2f5e9" fill-opacity="0.5" stroke="#606060" stroke-width="1.0"/>
           <path id="arrow"
             d="M 11.500037,31.436501 C 11.940474,20.09759 22.043105,11.32322 32.158766,21.979434 L 37.068811,17.246167 C 37.068811,17.246167 37.088388,32 37.088388,32 L 22.160133,31.978069 C 22.160133,31.978069 26.997745,27.140456 26.997745,27.140456 C 18.528582,18.264221 13.291696,25.230495 11.500037,31.436501 z"
             style="fill:#404040;"/>
          </a>
         </g>
        </svg>
</svg>
