<?xml version="1.0" encoding="UTF-8" standalone="no"?>
<!DOCTYPE svg PUBLIC "-//W3C//DTD SVG 1.1//EN"
 "http://www.w3.org/Graphics/SVG/1.1/DTD/svg11.dtd">
<!-- Generated by graphviz version 2.38.0 (20140413.2041)
 -->
<!-- Title: Optimizer/Minuit2/MinuitIF.hpp Pages: 1 -->
<!--zoomable 352 -->
<svg id="main" version="1.1" xmlns="http://www.w3.org/2000/svg" xmlns:xlink="http://www.w3.org/1999/xlink" xml:space="preserve" onload="init(evt)">
<style type="text/css"><![CDATA[
.edge:hover path { stroke: red; }
.edge:hover polygon { stroke: red; fill: red; }
]]></style>
<script type="text/javascript"><![CDATA[
var edges = document.getElementsByTagName('g');
if (edges && edges.length) {
  for (var i=0;i<edges.length;i++) {
    if (edges[i].id.substr(0,4)=='edge') {
      edges[i].setAttribute('class','edge');
    }
  }
}
]]></script>
        <defs>
                <circle id="rim" cx="0" cy="0" r="7"/>
                <circle id="rim2" cx="0" cy="0" r="3.5"/>
                <g id="zoomPlus">
                        <use xlink:href="#rim" fill="#404040">
                                <set attributeName="fill" to="#808080" begin="zoomplus.mouseover" end="zoomplus.mouseout"/>
                        </use>
                        <path d="M-4,0h8M0,-4v8" fill="none" stroke="white" stroke-width="1.5" pointer-events="none"/>
                </g>
                <g id="zoomMin">
                        <use xlink:href="#rim" fill="#404040">
                                <set attributeName="fill" to="#808080" begin="zoomminus.mouseover" end="zoomminus.mouseout"/>
                        </use>
                        <path d="M-4,0h8" fill="none" stroke="white" stroke-width="1.5" pointer-events="none"/>
                </g>
                <g id="dirArrow">
                        <path fill="none" stroke="white" stroke-width="1.5" d="M0,-3.0v7 M-2.5,-0.5L0,-3.0L2.5,-0.5"/>
                </g>
               <g id="resetDef">
                       <use xlink:href="#rim2" fill="#404040">
                               <set attributeName="fill" to="#808080" begin="reset.mouseover" end="reset.mouseout"/>
                       </use>
               </g>
        </defs>

<script type="text/javascript">
var viewWidth = 581;
var viewHeight = 352;
var sectionId = 'dynsection-0';
</script>
<script xlink:href="svgpan.js"/>
<svg id="graph" class="graph">
<g id="viewport">
<title>Optimizer/Minuit2/MinuitIF.hpp</title>
<polygon fill="white" stroke="none" points="-4,4 -4,-348 576.5,-348 576.5,4 -4,4"/>
<!-- Node1 -->
<g id="node1" class="node"><title>Node1</title>
<polygon fill="#bfbfbf" stroke="black" points="179,-313.5 179,-343.5 301,-343.5 301,-313.5 179,-313.5"/>
<text text-anchor="start" x="187" y="-331.5" font-family="Helvetica,sans-Serif" font-size="10.00">Optimizer/Minuit2/Minuit</text>
<text text-anchor="middle" x="240" y="-320.5" font-family="Helvetica,sans-Serif" font-size="10.00">IF.hpp</text>
</g>
<!-- Node2 -->
<g id="node2" class="node"><title>Node2</title>
<g id="a_node2"><a xlink:href="FitParameter_8hpp.html" target="_top" xlink:title="Core/FitParameter.hpp">
<polygon fill="white" stroke="black" points="245,-123.5 245,-142.5 361,-142.5 361,-123.5 245,-123.5"/>
<text text-anchor="middle" x="303" y="-130.5" font-family="Helvetica,sans-Serif" font-size="10.00">Core/FitParameter.hpp</text>
</a>
</g>
</g>
<!-- Node1&#45;&gt;Node2 -->
<g id="edge1" class="edge"><title>Node1&#45;&gt;Node2</title>
<path fill="none" stroke="midnightblue" d="M265.225,-313.469C295.884,-294.656 345.562,-257.989 362,-210 366.465,-196.966 368.112,-191.348 362,-179 355.397,-165.659 342.735,-155.194 330.829,-147.726"/>
<polygon fill="midnightblue" stroke="midnightblue" points="332.391,-144.587 321.984,-142.602 328.882,-150.643 332.391,-144.587"/>
</g>
<!-- Node9 -->
<g id="node9" class="node"><title>Node9</title>
<g id="a_node9"><a xlink:href="MinuitResult_8hpp.html" target="_top" xlink:title="Optimizer/Minuit2/Minuit\lResult.hpp">
<polygon fill="white" stroke="black" points="179,-246.5 179,-276.5 301,-276.5 301,-246.5 179,-246.5"/>
<text text-anchor="start" x="187" y="-264.5" font-family="Helvetica,sans-Serif" font-size="10.00">Optimizer/Minuit2/Minuit</text>
<text text-anchor="middle" x="240" y="-253.5" font-family="Helvetica,sans-Serif" font-size="10.00">Result.hpp</text>
</a>
</g>
</g>
<!-- Node1&#45;&gt;Node9 -->
<g id="edge10" class="edge"><title>Node1&#45;&gt;Node9</title>
<path fill="none" stroke="midnightblue" d="M240,-313.396C240,-305.645 240,-295.812 240,-286.86"/>
<polygon fill="midnightblue" stroke="midnightblue" points="243.5,-286.576 240,-276.577 236.5,-286.577 243.5,-286.576"/>
</g>
<!-- Node12 -->
<g id="node12" class="node"><title>Node12</title>
<g id="a_node12"><a xlink:href="Optimizer_8hpp.html" target="_top" xlink:title="Optimizer/Optimizer.hpp">
<polygon fill="white" stroke="black" points="0,-185 0,-204 122,-204 122,-185 0,-185"/>
<text text-anchor="middle" x="61" y="-192" font-family="Helvetica,sans-Serif" font-size="10.00">Optimizer/Optimizer.hpp</text>
</a>
</g>
</g>
<!-- Node1&#45;&gt;Node12 -->
<g id="edge15" class="edge"><title>Node1&#45;&gt;Node12</title>
<path fill="none" stroke="midnightblue" d="M220.323,-313.44C206.258,-303.358 186.909,-289.419 170,-277 138.533,-253.888 102.277,-226.658 80.5234,-210.255"/>
<polygon fill="midnightblue" stroke="midnightblue" points="82.4985,-207.36 72.4081,-204.13 78.2817,-212.948 82.4985,-207.36"/>
</g>
<!-- Node3 -->
<g id="node3" class="node"><title>Node3</title>
<g id="a_node3"><a xlink:href="Function_8hpp.html" target="_top" xlink:title="Core/Function.hpp">
<polygon fill="white" stroke="red" points="103.5,-62 103.5,-81 200.5,-81 200.5,-62 103.5,-62"/>
<text text-anchor="middle" x="152" y="-69" font-family="Helvetica,sans-Serif" font-size="10.00">Core/Function.hpp</text>
</a>
</g>
</g>
<!-- Node2&#45;&gt;Node3 -->
<g id="edge2" class="edge"><title>Node2&#45;&gt;Node3</title>
<path fill="none" stroke="midnightblue" d="M281.365,-123.475C255.576,-113.313 212.289,-96.2564 182.96,-84.6996"/>
<polygon fill="midnightblue" stroke="midnightblue" points="184.181,-81.4189 173.594,-81.0091 181.615,-87.9315 184.181,-81.4189"/>
</g>
<!-- Node4 -->
<g id="node4" class="node"><title>Node4</title>
<polygon fill="white" stroke="#bfbfbf" points="158.5,-0.5 158.5,-19.5 199.5,-19.5 199.5,-0.5 158.5,-0.5"/>
<text text-anchor="middle" x="179" y="-7.5" font-family="Helvetica,sans-Serif" font-size="10.00">string</text>
</g>
<!-- Node2&#45;&gt;Node4 -->
<g id="edge7" class="edge"><title>Node2&#45;&gt;Node4</title>
<path fill="none" stroke="midnightblue" d="M294.082,-123.298C273.348,-103.066 221.654,-52.6217 195.181,-26.7893"/>
<polygon fill="midnightblue" stroke="midnightblue" points="197.439,-24.1022 187.837,-19.6232 192.55,-29.1122 197.439,-24.1022"/>
</g>
<!-- Node5 -->
<g id="node5" class="node"><title>Node5</title>
<polygon fill="white" stroke="#bfbfbf" points="231,-0.5 231,-19.5 275,-19.5 275,-0.5 231,-0.5"/>
<text text-anchor="middle" x="253" y="-7.5" font-family="Helvetica,sans-Serif" font-size="10.00">vector</text>
</g>
<!-- Node2&#45;&gt;Node5 -->
<g id="edge8" class="edge"><title>Node2&#45;&gt;Node5</title>
<path fill="none" stroke="midnightblue" d="M299.404,-123.298C291.296,-103.676 271.446,-55.6382 260.518,-29.1933"/>
<polygon fill="midnightblue" stroke="midnightblue" points="263.617,-27.5285 256.563,-19.6232 257.148,-30.2019 263.617,-27.5285"/>
</g>
<!-- Node6 -->
<g id="node6" class="node"><title>Node6</title>
<g id="a_node6"><a xlink:href="Logging_8hpp.html" target="_top" xlink:title="Core/Logging.hpp">
<polygon fill="white" stroke="red" points="295.5,-62 295.5,-81 388.5,-81 388.5,-62 295.5,-62"/>
<text text-anchor="middle" x="342" y="-69" font-family="Helvetica,sans-Serif" font-size="10.00">Core/Logging.hpp</text>
</a>
</g>
</g>
<!-- Node2&#45;&gt;Node6 -->
<g id="edge5" class="edge"><title>Node2&#45;&gt;Node6</title>
<path fill="none" stroke="midnightblue" d="M308.588,-123.475C314.38,-114.638 323.589,-100.589 330.874,-89.475"/>
<polygon fill="midnightblue" stroke="midnightblue" points="333.868,-91.2913 336.423,-81.0091 328.013,-87.4539 333.868,-91.2913"/>
</g>
<!-- Node7 -->
<g id="node7" class="node"><title>Node7</title>
<polygon fill="white" stroke="#bfbfbf" points="407,-62 407,-81 459,-81 459,-62 407,-62"/>
<text text-anchor="middle" x="433" y="-69" font-family="Helvetica,sans-Serif" font-size="10.00">ostream</text>
</g>
<!-- Node2&#45;&gt;Node7 -->
<g id="edge6" class="edge"><title>Node2&#45;&gt;Node7</title>
<path fill="none" stroke="midnightblue" d="M321.626,-123.475C343.443,-113.49 379.804,-96.8476 405.017,-85.3075"/>
<polygon fill="midnightblue" stroke="midnightblue" points="406.772,-88.3534 414.409,-81.0091 403.859,-81.9884 406.772,-88.3534"/>
</g>
<!-- Node8 -->
<g id="node8" class="node"><title>Node8</title>
<polygon fill="white" stroke="#bfbfbf" points="477.5,-56.5 477.5,-86.5 572.5,-86.5 572.5,-56.5 477.5,-56.5"/>
<text text-anchor="start" x="485.5" y="-74.5" font-family="Helvetica,sans-Serif" font-size="10.00">boost/serialization</text>
<text text-anchor="middle" x="525" y="-63.5" font-family="Helvetica,sans-Serif" font-size="10.00">/nvp.hpp</text>
</g>
<!-- Node2&#45;&gt;Node8 -->
<g id="edge9" class="edge"><title>Node2&#45;&gt;Node8</title>
<path fill="none" stroke="midnightblue" d="M334.807,-123.475C369.326,-114.223 425.166,-99.2572 467.432,-87.9292"/>
<polygon fill="midnightblue" stroke="midnightblue" points="468.565,-91.2492 477.318,-85.2797 466.753,-84.4879 468.565,-91.2492"/>
</g>
<!-- Node3&#45;&gt;Node4 -->
<g id="edge3" class="edge"><title>Node3&#45;&gt;Node4</title>
<path fill="none" stroke="midnightblue" d="M155.868,-61.9751C159.798,-53.3152 166,-39.6486 170.993,-28.6453"/>
<polygon fill="midnightblue" stroke="midnightblue" points="174.194,-30.0617 175.139,-19.5091 167.819,-27.1691 174.194,-30.0617"/>
</g>
<!-- Node3&#45;&gt;Node5 -->
<g id="edge4" class="edge"><title>Node3&#45;&gt;Node5</title>
<path fill="none" stroke="midnightblue" d="M166.471,-61.9751C182.971,-52.2548 210.178,-36.2266 229.681,-24.7372"/>
<polygon fill="midnightblue" stroke="midnightblue" points="231.716,-27.6005 238.556,-19.5091 228.163,-21.5693 231.716,-27.6005"/>
</g>
<!-- Node10 -->
<g id="node10" class="node"><title>Node10</title>
<g id="a_node10"><a xlink:href="FitResult_8hpp.html" target="_top" xlink:title="Core/FitResult.hpp">
<polygon fill="white" stroke="red" points="253.5,-185 253.5,-204 352.5,-204 352.5,-185 253.5,-185"/>
<text text-anchor="middle" x="303" y="-192" font-family="Helvetica,sans-Serif" font-size="10.00">Core/FitResult.hpp</text>
</a>
</g>
</g>
<!-- Node9&#45;&gt;Node10 -->
<g id="edge11" class="edge"><title>Node9&#45;&gt;Node10</title>
<path fill="none" stroke="midnightblue" d="M253.67,-246.396C263.59,-236.161 277.029,-222.296 287.374,-211.622"/>
<polygon fill="midnightblue" stroke="midnightblue" points="290.126,-213.811 294.573,-204.195 285.1,-208.939 290.126,-213.811"/>
</g>
<!-- Node11 -->
<g id="node11" class="node"><title>Node11</title>
<polygon fill="white" stroke="#bfbfbf" points="140.5,-179.5 140.5,-209.5 235.5,-209.5 235.5,-179.5 140.5,-179.5"/>
<text text-anchor="start" x="148.5" y="-197.5" font-family="Helvetica,sans-Serif" font-size="10.00">boost/serialization</text>
<text text-anchor="middle" x="188" y="-186.5" font-family="Helvetica,sans-Serif" font-size="10.00">/base_object.hpp</text>
</g>
<!-- Node9&#45;&gt;Node11 -->
<g id="edge14" class="edge"><title>Node9&#45;&gt;Node11</title>
<path fill="none" stroke="midnightblue" d="M228.717,-246.396C221.971,-237.963 213.254,-227.067 205.617,-217.522"/>
<polygon fill="midnightblue" stroke="midnightblue" points="208.241,-215.199 199.261,-209.577 202.775,-219.572 208.241,-215.199"/>
</g>
<!-- Node10&#45;&gt;Node2 -->
<g id="edge12" class="edge"><title>Node10&#45;&gt;Node2</title>
<path fill="none" stroke="midnightblue" d="M303,-184.975C303,-176.58 303,-163.481 303,-152.663"/>
<polygon fill="midnightblue" stroke="midnightblue" points="306.5,-152.509 303,-142.509 299.5,-152.509 306.5,-152.509"/>
</g>
<!-- Node10&#45;&gt;Node3 -->
<g id="edge13" class="edge"><title>Node10&#45;&gt;Node3</title>
<path fill="none" stroke="midnightblue" d="M290.996,-184.746C277.476,-174.819 254.921,-158.054 236,-143 212.782,-124.528 186.705,-102.421 169.852,-87.9489"/>
<polygon fill="midnightblue" stroke="midnightblue" points="171.806,-85.0118 161.945,-81.1369 167.237,-90.3153 171.806,-85.0118"/>
</g>
<!-- Node12&#45;&gt;Node2 -->
<g id="edge16" class="edge"><title>Node12&#45;&gt;Node2</title>
<path fill="none" stroke="midnightblue" d="M95.6727,-184.975C138.532,-174.437 211.543,-156.486 258.499,-144.941"/>
<polygon fill="midnightblue" stroke="midnightblue" points="259.516,-148.296 268.392,-142.509 257.845,-141.498 259.516,-148.296"/>
</g>
<!-- Node13 -->
<g id="node13" class="node"><title>Node13</title>
<g id="a_node13"><a xlink:href="Estimator_8hpp.html" target="_top" xlink:title="Estimator/Estimator.hpp">
<polygon fill="white" stroke="black" points="56,-123.5 56,-142.5 178,-142.5 178,-123.5 56,-123.5"/>
<text text-anchor="middle" x="117" y="-130.5" font-family="Helvetica,sans-Serif" font-size="10.00">Estimator/Estimator.hpp</text>
</a>
</g>
</g>
<!-- Node12&#45;&gt;Node13 -->
<g id="edge17" class="edge"><title>Node12&#45;&gt;Node13</title>
<path fill="none" stroke="midnightblue" d="M69.0234,-184.975C77.5898,-175.873 91.3614,-161.241 101.957,-149.983"/>
<polygon fill="midnightblue" stroke="midnightblue" points="104.686,-152.19 108.991,-142.509 99.5891,-147.392 104.686,-152.19"/>
</g>
<!-- Node13&#45;&gt;Node3 -->
<g id="edge18" class="edge"><title>Node13&#45;&gt;Node3</title>
<path fill="none" stroke="midnightblue" d="M122.015,-123.475C127.161,-114.727 135.312,-100.869 141.818,-89.8093"/>
<polygon fill="midnightblue" stroke="midnightblue" points="144.941,-91.403 146.995,-81.0091 138.908,-87.8539 144.941,-91.403"/>
</g>
</g>
</svg>
        <g id="navigator" transform="translate(0 0)" fill="#404254">
                <rect fill="#f2f5e9" fill-opacity="0.5" stroke="#606060" stroke-width=".5" x="0" y="0" width="60" height="60"/>
                <use id="zoomplus" xlink:href="#zoomPlus" x="17" y="9" onmousedown="handleZoom(evt,'in')"/>
                <use id="zoomminus" xlink:href="#zoomMin" x="42" y="9" onmousedown="handleZoom(evt,'out')"/>
                <use id="reset" xlink:href="#resetDef" x="30" y="36" onmousedown="handleReset()"/>
                <g id="arrowUp" xlink:href="#dirArrow" transform="translate(30 24)" onmousedown="handlePan(0,-1)">
                  <use xlink:href="#rim" fill="#404040">
                        <set attributeName="fill" to="#808080" begin="arrowUp.mouseover" end="arrowUp.mouseout"/>
                  </use>
                  <path fill="none" stroke="white" stroke-width="1.5" d="M0,-3.0v7 M-2.5,-0.5L0,-3.0L2.5,-0.5"/>
                </g>
                <g id="arrowRight" xlink:href="#dirArrow" transform="rotate(90) translate(36 -43)" onmousedown="handlePan(1,0)">
                  <use xlink:href="#rim" fill="#404040">
                        <set attributeName="fill" to="#808080" begin="arrowRight.mouseover" end="arrowRight.mouseout"/>
                  </use>
                  <path fill="none" stroke="white" stroke-width="1.5" d="M0,-3.0v7 M-2.5,-0.5L0,-3.0L2.5,-0.5"/>
                </g>
                <g id="arrowDown" xlink:href="#dirArrow" transform="rotate(180) translate(-30 -48)" onmousedown="handlePan(0,1)">
                  <use xlink:href="#rim" fill="#404040">
                        <set attributeName="fill" to="#808080" begin="arrowDown.mouseover" end="arrowDown.mouseout"/>
                  </use>
                  <path fill="none" stroke="white" stroke-width="1.5" d="M0,-3.0v7 M-2.5,-0.5L0,-3.0L2.5,-0.5"/>
                </g>
                <g id="arrowLeft" xlink:href="#dirArrow" transform="rotate(270) translate(-36 17)" onmousedown="handlePan(-1,0)">
                  <use xlink:href="#rim" fill="#404040">
                        <set attributeName="fill" to="#808080" begin="arrowLeft.mouseover" end="arrowLeft.mouseout"/>
                  </use>
                  <path fill="none" stroke="white" stroke-width="1.5" d="M0,-3.0v7 M-2.5,-0.5L0,-3.0L2.5,-0.5"/>
                </g>
        </g>
        <svg viewBox="0 0 15 15" width="100%" height="30px" preserveAspectRatio="xMaxYMin meet">
         <g id="arrow_out" transform="scale(0.3 0.3)">
          <a xlink:href="MinuitIF_8hpp__incl_org.svg" target="_base">
           <rect id="button" ry="5" rx="5" y="6" x="6" height="38" width="38"
                fill="#f2f5e9" fill-opacity="0.5" stroke="#606060" stroke-width="1.0"/>
           <path id="arrow"
             d="M 11.500037,31.436501 C 11.940474,20.09759 22.043105,11.32322 32.158766,21.979434 L 37.068811,17.246167 C 37.068811,17.246167 37.088388,32 37.088388,32 L 22.160133,31.978069 C 22.160133,31.978069 26.997745,27.140456 26.997745,27.140456 C 18.528582,18.264221 13.291696,25.230495 11.500037,31.436501 z"
             style="fill:#404040;"/>
          </a>
         </g>
        </svg>
</svg>
