<?xml version="1.0" encoding="UTF-8" standalone="no"?>
<!DOCTYPE svg PUBLIC "-//W3C//DTD SVG 1.1//EN"
 "http://www.w3.org/Graphics/SVG/1.1/DTD/svg11.dtd">
<!-- Generated by graphviz version 2.38.0 (20140413.2041)
 -->
<!-- Title: Optimizer/Minuit2/MinuitIF.cpp Pages: 1 -->
<!--zoomable 274 -->
<svg id="main" version="1.1" xmlns="http://www.w3.org/2000/svg" xmlns:xlink="http://www.w3.org/1999/xlink" xml:space="preserve" onload="init(evt)">
<style type="text/css"><![CDATA[
.edge:hover path { stroke: red; }
.edge:hover polygon { stroke: red; fill: red; }
]]></style>
<script type="text/javascript"><![CDATA[
var edges = document.getElementsByTagName('g');
if (edges && edges.length) {
  for (var i=0;i<edges.length;i++) {
    if (edges[i].id.substr(0,4)=='edge') {
      edges[i].setAttribute('class','edge');
    }
  }
}
]]></script>
        <defs>
                <circle id="rim" cx="0" cy="0" r="7"/>
                <circle id="rim2" cx="0" cy="0" r="3.5"/>
                <g id="zoomPlus">
                        <use xlink:href="#rim" fill="#404040">
                                <set attributeName="fill" to="#808080" begin="zoomplus.mouseover" end="zoomplus.mouseout"/>
                        </use>
                        <path d="M-4,0h8M0,-4v8" fill="none" stroke="white" stroke-width="1.5" pointer-events="none"/>
                </g>
                <g id="zoomMin">
                        <use xlink:href="#rim" fill="#404040">
                                <set attributeName="fill" to="#808080" begin="zoomminus.mouseover" end="zoomminus.mouseout"/>
                        </use>
                        <path d="M-4,0h8" fill="none" stroke="white" stroke-width="1.5" pointer-events="none"/>
                </g>
                <g id="dirArrow">
                        <path fill="none" stroke="white" stroke-width="1.5" d="M0,-3.0v7 M-2.5,-0.5L0,-3.0L2.5,-0.5"/>
                </g>
               <g id="resetDef">
                       <use xlink:href="#rim2" fill="#404040">
                               <set attributeName="fill" to="#808080" begin="reset.mouseover" end="reset.mouseout"/>
                       </use>
               </g>
        </defs>

<script type="text/javascript">
var viewWidth = 2711;
var viewHeight = 274;
var sectionId = 'dynsection-0';
</script>
<script xlink:href="svgpan.js"/>
<svg id="graph" class="graph">
<g id="viewport">
<title>Optimizer/Minuit2/MinuitIF.cpp</title>
<polygon fill="white" stroke="none" points="-4,4 -4,-270 2707.38,-270 2707.38,4 -4,4"/>
<!-- Node1 -->
<g id="node1" class="node"><title>Node1</title>
<polygon fill="#bfbfbf" stroke="black" points="1555.38,-235.5 1555.38,-265.5 1677.38,-265.5 1677.38,-235.5 1555.38,-235.5"/>
<text text-anchor="start" x="1563.38" y="-253.5" font-family="Helvetica,sans-Serif" font-size="10.00">Optimizer/Minuit2/Minuit</text>
<text text-anchor="middle" x="1616.38" y="-242.5" font-family="Helvetica,sans-Serif" font-size="10.00">IF.cpp</text>
</g>
<!-- Node2 -->
<g id="node2" class="node"><title>Node2</title>
<g id="a_node2"><a xlink:href="MinuitIF_8hpp.html" target="_top" xlink:title="MinuitIF.hpp">
<polygon fill="white" stroke="black" points="182.879,-179.5 182.879,-198.5 253.879,-198.5 253.879,-179.5 182.879,-179.5"/>
<text text-anchor="middle" x="218.379" y="-186.5" font-family="Helvetica,sans-Serif" font-size="10.00">MinuitIF.hpp</text>
</a>
</g>
</g>
<!-- Node1&#45;&gt;Node2 -->
<g id="edge1" class="edge"><title>Node1&#45;&gt;Node2</title>
<path fill="none" stroke="midnightblue" d="M1554.96,-246.886C1318.63,-236.828 470.906,-200.748 264.115,-191.947"/>
<polygon fill="midnightblue" stroke="midnightblue" points="264.056,-188.441 253.917,-191.513 263.759,-195.435 264.056,-188.441"/>
</g>
<!-- Node3 -->
<g id="node3" class="node"><title>Node3</title>
<g id="a_node3"><a xlink:href="FitParameter_8hpp.html" target="_top" xlink:title="Core/FitParameter.hpp">
<polygon fill="white" stroke="red" points="331.379,-56.5 331.379,-75.5 447.379,-75.5 447.379,-56.5 331.379,-56.5"/>
<text text-anchor="middle" x="389.379" y="-63.5" font-family="Helvetica,sans-Serif" font-size="10.00">Core/FitParameter.hpp</text>
</a>
</g>
</g>
<!-- Node1&#45;&gt;Node3 -->
<g id="edge19" class="edge"><title>Node1&#45;&gt;Node3</title>
<path fill="none" stroke="midnightblue" d="M1555.03,-247.145C1442.31,-242.247 1194.88,-228.836 988.379,-199 868.376,-181.662 830.792,-195.249 721.379,-143 701.711,-133.608 703.298,-120.849 683.379,-112 673.12,-107.442 541.09,-88.3054 457.49,-76.504"/>
<polygon fill="midnightblue" stroke="midnightblue" points="457.937,-73.0325 447.547,-75.1027 456.961,-79.964 457.937,-73.0325"/>
</g>
<!-- Node4 -->
<g id="node4" class="node"><title>Node4</title>
<g id="a_node4"><a xlink:href="Logging_8hpp.html" target="_top" xlink:title="Core/Logging.hpp">
<polygon fill="white" stroke="red" points="342.879,-0.5 342.879,-19.5 435.879,-19.5 435.879,-0.5 342.879,-0.5"/>
<text text-anchor="middle" x="389.379" y="-7.5" font-family="Helvetica,sans-Serif" font-size="10.00">Core/Logging.hpp</text>
</a>
</g>
</g>
<!-- Node1&#45;&gt;Node4 -->
<g id="edge20" class="edge"><title>Node1&#45;&gt;Node4</title>
<path fill="none" stroke="midnightblue" d="M1555.28,-249.822C1316.26,-250.699 444.477,-250.241 173.379,-199 99.7609,-185.085 57.6717,-204.147 14.379,-143 -65.5324,-30.1323 209.37,-13.0817 332.625,-11.0012"/>
<polygon fill="midnightblue" stroke="midnightblue" points="332.7,-14.5006 342.649,-10.8594 332.601,-7.5013 332.7,-14.5006"/>
</g>
<!-- Node5 -->
<g id="node5" class="node"><title>Node5</title>
<polygon fill="white" stroke="#bfbfbf" points="1443.88,-0.5 1443.88,-19.5 1484.88,-19.5 1484.88,-0.5 1443.88,-0.5"/>
<text text-anchor="middle" x="1464.38" y="-7.5" font-family="Helvetica,sans-Serif" font-size="10.00">string</text>
</g>
<!-- Node1&#45;&gt;Node5 -->
<g id="edge41" class="edge"><title>Node1&#45;&gt;Node5</title>
<path fill="none" stroke="midnightblue" d="M1555.17,-240.837C1529.01,-233.908 1500.59,-221.439 1483.38,-199 1444.64,-148.501 1453.71,-66.5723 1460.37,-29.852"/>
<polygon fill="midnightblue" stroke="midnightblue" points="1463.88,-30.1032 1462.38,-19.6156 1457.02,-28.7515 1463.88,-30.1032"/>
</g>
<!-- Node6 -->
<g id="node6" class="node"><title>Node6</title>
<polygon fill="white" stroke="#bfbfbf" points="990.379,-0.5 990.379,-19.5 1034.38,-19.5 1034.38,-0.5 990.379,-0.5"/>
<text text-anchor="middle" x="1012.38" y="-7.5" font-family="Helvetica,sans-Serif" font-size="10.00">vector</text>
</g>
<!-- Node1&#45;&gt;Node6 -->
<g id="edge42" class="edge"><title>Node1&#45;&gt;Node6</title>
<path fill="none" stroke="midnightblue" d="M1555.22,-238.135C1526.48,-230.569 1492.99,-218.343 1467.38,-199 1429.9,-170.69 1445.91,-138.857 1407.38,-112 1291.66,-31.3492 1116.76,-15.059 1044.93,-11.7997"/>
<polygon fill="midnightblue" stroke="midnightblue" points="1044.83,-8.29323 1034.7,-11.3938 1044.55,-15.2877 1044.83,-8.29323"/>
</g>
<!-- Node10 -->
<g id="node10" class="node"><title>Node10</title>
<g id="a_node10"><a xlink:href="MinuitFcn_8hpp.html" target="_top" xlink:title="MinuitFcn.hpp">
<polygon fill="white" stroke="black" points="505.379,-179.5 505.379,-198.5 583.379,-198.5 583.379,-179.5 505.379,-179.5"/>
<text text-anchor="middle" x="544.379" y="-186.5" font-family="Helvetica,sans-Serif" font-size="10.00">MinuitFcn.hpp</text>
</a>
</g>
</g>
<!-- Node1&#45;&gt;Node10 -->
<g id="edge10" class="edge"><title>Node1&#45;&gt;Node10</title>
<path fill="none" stroke="midnightblue" d="M1555.33,-248.029C1398.85,-243.909 970.703,-230.438 615.379,-199 608.231,-198.368 600.696,-197.563 593.31,-196.695"/>
<polygon fill="midnightblue" stroke="midnightblue" points="593.734,-193.221 583.383,-195.483 592.886,-200.169 593.734,-193.221"/>
</g>
<!-- Node12 -->
<g id="node12" class="node"><title>Node12</title>
<polygon fill="white" stroke="#bfbfbf" points="554.379,-118 554.379,-137 604.379,-137 604.379,-118 554.379,-118"/>
<text text-anchor="middle" x="579.379" y="-125" font-family="Helvetica,sans-Serif" font-size="10.00">iomanip</text>
</g>
<!-- Node1&#45;&gt;Node12 -->
<g id="edge40" class="edge"><title>Node1&#45;&gt;Node12</title>
<path fill="none" stroke="midnightblue" d="M1555.25,-247.996C1361.72,-242.983 770.33,-225.635 688.379,-199 652.371,-187.297 616.681,-160.592 596.399,-143.616"/>
<polygon fill="midnightblue" stroke="midnightblue" points="598.564,-140.861 588.694,-137.008 594.006,-146.175 598.564,-140.861"/>
</g>
<!-- Node15 -->
<g id="node15" class="node"><title>Node15</title>
<g id="a_node15"><a xlink:href="Exceptions_8hpp.html" target="_top" xlink:title="ComPWA exceptions. ">
<polygon fill="white" stroke="black" points="1492.38,-179.5 1492.38,-198.5 1600.38,-198.5 1600.38,-179.5 1492.38,-179.5"/>
<text text-anchor="middle" x="1546.38" y="-186.5" font-family="Helvetica,sans-Serif" font-size="10.00">Core/Exceptions.hpp</text>
</a>
</g>
</g>
<!-- Node1&#45;&gt;Node15 -->
<g id="edge16" class="edge"><title>Node1&#45;&gt;Node15</title>
<path fill="none" stroke="midnightblue" d="M1599.79,-235.399C1589.09,-226.308 1575.19,-214.49 1564.25,-205.191"/>
<polygon fill="midnightblue" stroke="midnightblue" points="1566.45,-202.468 1556.56,-198.658 1561.92,-207.801 1566.45,-202.468"/>
</g>
<!-- Node17 -->
<g id="node17" class="node"><title>Node17</title>
<g id="a_node17"><a xlink:href="Utils_8hpp.html" target="_top" xlink:title="Core/Utils.hpp">
<polygon fill="white" stroke="black" points="997.379,-179.5 997.379,-198.5 1077.38,-198.5 1077.38,-179.5 997.379,-179.5"/>
<text text-anchor="middle" x="1037.38" y="-186.5" font-family="Helvetica,sans-Serif" font-size="10.00">Core/Utils.hpp</text>
</a>
</g>
</g>
<!-- Node1&#45;&gt;Node17 -->
<g id="edge21" class="edge"><title>Node1&#45;&gt;Node17</title>
<path fill="none" stroke="midnightblue" d="M1555.24,-243.217C1440.18,-231.393 1193.52,-206.045 1087.5,-195.15"/>
<polygon fill="midnightblue" stroke="midnightblue" points="1087.69,-191.652 1077.39,-194.111 1086.97,-198.615 1087.69,-191.652"/>
</g>
<!-- Node24 -->
<g id="node24" class="node"><title>Node24</title>
<polygon fill="white" stroke="#bfbfbf" points="1618.88,-179.5 1618.88,-198.5 1755.88,-198.5 1755.88,-179.5 1618.88,-179.5"/>
<text text-anchor="middle" x="1687.38" y="-186.5" font-family="Helvetica,sans-Serif" font-size="10.00">Minuit2/FunctionMinimum.h</text>
</g>
<!-- Node1&#45;&gt;Node24 -->
<g id="edge31" class="edge"><title>Node1&#45;&gt;Node24</title>
<path fill="none" stroke="midnightblue" d="M1633.2,-235.399C1644.05,-226.308 1658.16,-214.49 1669.25,-205.191"/>
<polygon fill="midnightblue" stroke="midnightblue" points="1671.63,-207.763 1677.05,-198.658 1667.14,-202.398 1671.63,-207.763"/>
</g>
<!-- Node25 -->
<g id="node25" class="node"><title>Node25</title>
<polygon fill="white" stroke="#bfbfbf" points="1773.88,-179.5 1773.88,-198.5 1880.88,-198.5 1880.88,-179.5 1773.88,-179.5"/>
<text text-anchor="middle" x="1827.38" y="-186.5" font-family="Helvetica,sans-Serif" font-size="10.00">Minuit2/MinosError.h</text>
</g>
<!-- Node1&#45;&gt;Node25 -->
<g id="edge32" class="edge"><title>Node1&#45;&gt;Node25</title>
<path fill="none" stroke="midnightblue" d="M1666.12,-235.475C1703.15,-225.03 1753.06,-210.958 1787.5,-201.247"/>
<polygon fill="midnightblue" stroke="midnightblue" points="1788.54,-204.589 1797.21,-198.506 1786.64,-197.852 1788.54,-204.589"/>
</g>
<!-- Node26 -->
<g id="node26" class="node"><title>Node26</title>
<polygon fill="white" stroke="#bfbfbf" points="1898.88,-179.5 1898.88,-198.5 1999.88,-198.5 1999.88,-179.5 1898.88,-179.5"/>
<text text-anchor="middle" x="1949.38" y="-186.5" font-family="Helvetica,sans-Serif" font-size="10.00">Minuit2/MnHesse.h</text>
</g>
<!-- Node1&#45;&gt;Node26 -->
<g id="edge33" class="edge"><title>Node1&#45;&gt;Node26</title>
<path fill="none" stroke="midnightblue" d="M1677.46,-238.587C1738.51,-227.677 1831.7,-211.026 1891.58,-200.328"/>
<polygon fill="midnightblue" stroke="midnightblue" points="1892.4,-203.737 1901.62,-198.533 1891.16,-196.846 1892.4,-203.737"/>
</g>
<!-- Node27 -->
<g id="node27" class="node"><title>Node27</title>
<polygon fill="white" stroke="#bfbfbf" points="2018.38,-179.5 2018.38,-198.5 2120.38,-198.5 2120.38,-179.5 2018.38,-179.5"/>
<text text-anchor="middle" x="2069.38" y="-186.5" font-family="Helvetica,sans-Serif" font-size="10.00">Minuit2/MnMigrad.h</text>
</g>
<!-- Node1&#45;&gt;Node27 -->
<g id="edge34" class="edge"><title>Node1&#45;&gt;Node27</title>
<path fill="none" stroke="midnightblue" d="M1677.7,-242.027C1753.03,-232.755 1885,-216.218 2008.33,-199.123"/>
<polygon fill="midnightblue" stroke="midnightblue" points="2008.9,-202.576 2018.33,-197.733 2007.94,-195.643 2008.9,-202.576"/>
</g>
<!-- Node28 -->
<g id="node28" class="node"><title>Node28</title>
<polygon fill="white" stroke="#bfbfbf" points="2138.88,-179.5 2138.88,-198.5 2237.88,-198.5 2237.88,-179.5 2138.88,-179.5"/>
<text text-anchor="middle" x="2188.38" y="-186.5" font-family="Helvetica,sans-Serif" font-size="10.00">Minuit2/MnMinos.h</text>
</g>
<!-- Node1&#45;&gt;Node28 -->
<g id="edge35" class="edge"><title>Node1&#45;&gt;Node28</title>
<path fill="none" stroke="midnightblue" d="M1677.7,-244.527C1772.15,-236.631 1959.17,-220.069 2128.72,-199.017"/>
<polygon fill="midnightblue" stroke="midnightblue" points="2129.34,-202.467 2138.83,-197.754 2128.47,-195.521 2129.34,-202.467"/>
</g>
<!-- Node29 -->
<g id="node29" class="node"><title>Node29</title>
<polygon fill="white" stroke="#bfbfbf" points="2255.88,-179.5 2255.88,-198.5 2348.88,-198.5 2348.88,-179.5 2255.88,-179.5"/>
<text text-anchor="middle" x="2302.38" y="-186.5" font-family="Helvetica,sans-Serif" font-size="10.00">Minuit2/MnPrint.h</text>
</g>
<!-- Node1&#45;&gt;Node29 -->
<g id="edge36" class="edge"><title>Node1&#45;&gt;Node29</title>
<path fill="none" stroke="midnightblue" d="M1677.46,-246.288C1788.55,-240.079 2031.27,-224.829 2245.43,-199.153"/>
<polygon fill="midnightblue" stroke="midnightblue" points="2246.1,-202.598 2255.61,-197.922 2245.26,-195.648 2246.1,-202.598"/>
</g>
<!-- Node30 -->
<g id="node30" class="node"><title>Node30</title>
<polygon fill="white" stroke="#bfbfbf" points="2367.38,-179.5 2367.38,-198.5 2477.38,-198.5 2477.38,-179.5 2367.38,-179.5"/>
<text text-anchor="middle" x="2422.38" y="-186.5" font-family="Helvetica,sans-Serif" font-size="10.00">Minuit2/MnStrategy.h</text>
</g>
<!-- Node1&#45;&gt;Node30 -->
<g id="edge37" class="edge"><title>Node1&#45;&gt;Node30</title>
<path fill="none" stroke="midnightblue" d="M1677.58,-246.823C1803.06,-241.012 2098.72,-225.659 2357.3,-199.041"/>
<polygon fill="midnightblue" stroke="midnightblue" points="2357.67,-202.521 2367.25,-198.008 2356.94,-195.558 2357.67,-202.521"/>
</g>
<!-- Node31 -->
<g id="node31" class="node"><title>Node31</title>
<polygon fill="white" stroke="#bfbfbf" points="2495.38,-179.5 2495.38,-198.5 2639.38,-198.5 2639.38,-179.5 2495.38,-179.5"/>
<text text-anchor="middle" x="2567.38" y="-186.5" font-family="Helvetica,sans-Serif" font-size="10.00">Minuit2/MnUserParameters.h</text>
</g>
<!-- Node1&#45;&gt;Node31 -->
<g id="edge38" class="edge"><title>Node1&#45;&gt;Node31</title>
<path fill="none" stroke="midnightblue" d="M1677.63,-247.055C1818.32,-241.2 2175.57,-224.965 2484.91,-199.083"/>
<polygon fill="midnightblue" stroke="midnightblue" points="2485.3,-202.562 2494.97,-198.236 2484.72,-195.587 2485.3,-202.562"/>
</g>
<!-- Node32 -->
<g id="node32" class="node"><title>Node32</title>
<polygon fill="white" stroke="#bfbfbf" points="2657.38,-179.5 2657.38,-198.5 2703.38,-198.5 2703.38,-179.5 2657.38,-179.5"/>
<text text-anchor="middle" x="2680.38" y="-186.5" font-family="Helvetica,sans-Serif" font-size="10.00">chrono</text>
</g>
<!-- Node1&#45;&gt;Node32 -->
<g id="edge39" class="edge"><title>Node1&#45;&gt;Node32</title>
<path fill="none" stroke="midnightblue" d="M1677.65,-248.312C1866.72,-244.365 2440.24,-230.223 2646.95,-198.808"/>
<polygon fill="midnightblue" stroke="midnightblue" points="2647.77,-202.222 2657.1,-197.203 2646.67,-195.308 2647.77,-202.222"/>
</g>
<!-- Node2&#45;&gt;Node3 -->
<g id="edge2" class="edge"><title>Node2&#45;&gt;Node3</title>
<path fill="none" stroke="midnightblue" d="M210.391,-179.101C197.718,-163.877 176.035,-132.499 192.379,-112 208.39,-91.9192 270.525,-80.0884 320.788,-73.6392"/>
<polygon fill="midnightblue" stroke="midnightblue" points="321.492,-77.0791 330.989,-72.382 320.636,-70.1316 321.492,-77.0791"/>
</g>
<!-- Node7 -->
<g id="node7" class="node"><title>Node7</title>
<g id="a_node7"><a xlink:href="MinuitResult_8hpp.html" target="_top" xlink:title="Optimizer/Minuit2/Minuit\lResult.hpp">
<polygon fill="white" stroke="red" points="23.379,-112.5 23.379,-142.5 145.379,-142.5 145.379,-112.5 23.379,-112.5"/>
<text text-anchor="start" x="31.379" y="-130.5" font-family="Helvetica,sans-Serif" font-size="10.00">Optimizer/Minuit2/Minuit</text>
<text text-anchor="middle" x="84.379" y="-119.5" font-family="Helvetica,sans-Serif" font-size="10.00">Result.hpp</text>
</a>
</g>
</g>
<!-- Node2&#45;&gt;Node7 -->
<g id="edge6" class="edge"><title>Node2&#45;&gt;Node7</title>
<path fill="none" stroke="midnightblue" d="M199.18,-179.475C180.014,-170.965 149.959,-157.619 125.408,-146.718"/>
<polygon fill="midnightblue" stroke="midnightblue" points="126.52,-143.382 115.96,-142.523 123.679,-149.78 126.52,-143.382"/>
</g>
<!-- Node8 -->
<g id="node8" class="node"><title>Node8</title>
<g id="a_node8"><a xlink:href="Optimizer_8hpp.html" target="_top" xlink:title="Optimizer/Optimizer.hpp">
<polygon fill="white" stroke="black" points="201.379,-118 201.379,-137 323.379,-137 323.379,-118 201.379,-118"/>
<text text-anchor="middle" x="262.379" y="-125" font-family="Helvetica,sans-Serif" font-size="10.00">Optimizer/Optimizer.hpp</text>
</a>
</g>
</g>
<!-- Node2&#45;&gt;Node8 -->
<g id="edge7" class="edge"><title>Node2&#45;&gt;Node8</title>
<path fill="none" stroke="midnightblue" d="M224.683,-179.475C231.283,-170.55 241.816,-156.307 250.072,-145.143"/>
<polygon fill="midnightblue" stroke="midnightblue" points="252.955,-147.131 256.087,-137.009 247.327,-142.968 252.955,-147.131"/>
</g>
<!-- Node3&#45;&gt;Node4 -->
<g id="edge3" class="edge"><title>Node3&#45;&gt;Node4</title>
<path fill="none" stroke="midnightblue" d="M389.379,-56.083C389.379,-49.0059 389.379,-38.8611 389.379,-29.9865"/>
<polygon fill="midnightblue" stroke="midnightblue" points="392.879,-29.751 389.379,-19.7511 385.879,-29.7511 392.879,-29.751"/>
</g>
<!-- Node3&#45;&gt;Node5 -->
<g id="edge4" class="edge"><title>Node3&#45;&gt;Node5</title>
<path fill="none" stroke="midnightblue" d="M447.448,-56.8783C450.466,-56.5569 453.456,-56.261 456.379,-56 840.845,-21.6643 1310.26,-13.0975 1433.55,-11.3774"/>
<polygon fill="midnightblue" stroke="midnightblue" points="1433.8,-14.8744 1443.75,-11.2398 1433.71,-7.87503 1433.8,-14.8744"/>
</g>
<!-- Node3&#45;&gt;Node6 -->
<g id="edge5" class="edge"><title>Node3&#45;&gt;Node6</title>
<path fill="none" stroke="midnightblue" d="M447.461,-57.0072C450.475,-56.6521 453.462,-56.3138 456.379,-56 655.138,-34.6223 894.862,-18.4619 980.26,-13.0042"/>
<polygon fill="midnightblue" stroke="midnightblue" points="980.597,-16.49 990.355,-12.3631 980.153,-9.50404 980.597,-16.49"/>
</g>
<!-- Node8&#45;&gt;Node3 -->
<g id="edge8" class="edge"><title>Node8&#45;&gt;Node3</title>
<path fill="none" stroke="midnightblue" d="M280.575,-117.975C301.888,-107.99 337.41,-91.3476 362.042,-79.8075"/>
<polygon fill="midnightblue" stroke="midnightblue" points="363.646,-82.9211 371.217,-75.5091 360.676,-76.5822 363.646,-82.9211"/>
</g>
<!-- Node9 -->
<g id="node9" class="node"><title>Node9</title>
<g id="a_node9"><a xlink:href="Estimator_8hpp.html" target="_top" xlink:title="Estimator/Estimator.hpp">
<polygon fill="white" stroke="red" points="465.379,-56.5 465.379,-75.5 587.379,-75.5 587.379,-56.5 465.379,-56.5"/>
<text text-anchor="middle" x="526.379" y="-63.5" font-family="Helvetica,sans-Serif" font-size="10.00">Estimator/Estimator.hpp</text>
</a>
</g>
</g>
<!-- Node8&#45;&gt;Node9 -->
<g id="edge9" class="edge"><title>Node8&#45;&gt;Node9</title>
<path fill="none" stroke="midnightblue" d="M300.204,-117.975C347.253,-107.371 427.611,-89.2602 478.795,-77.7244"/>
<polygon fill="midnightblue" stroke="midnightblue" points="479.639,-81.1222 488.624,-75.5091 478.099,-74.2934 479.639,-81.1222"/>
</g>
<!-- Node10&#45;&gt;Node9 -->
<g id="edge11" class="edge"><title>Node10&#45;&gt;Node9</title>
<path fill="none" stroke="midnightblue" d="M543.084,-179.298C540.178,-159.763 533.083,-112.065 529.138,-85.5471"/>
<polygon fill="midnightblue" stroke="midnightblue" points="532.595,-84.9993 527.662,-75.6232 525.671,-86.0294 532.595,-84.9993"/>
</g>
<!-- Node11 -->
<g id="node11" class="node"><title>Node11</title>
<polygon fill="white" stroke="#bfbfbf" points="341.879,-118 341.879,-137 444.879,-137 444.879,-118 341.879,-118"/>
<text text-anchor="middle" x="393.379" y="-125" font-family="Helvetica,sans-Serif" font-size="10.00">Minuit2/FCNBase.h</text>
</g>
<!-- Node10&#45;&gt;Node11 -->
<g id="edge12" class="edge"><title>Node10&#45;&gt;Node11</title>
<path fill="none" stroke="midnightblue" d="M522.744,-179.475C496.955,-169.313 453.668,-152.256 424.339,-140.7"/>
<polygon fill="midnightblue" stroke="midnightblue" points="425.56,-137.419 414.973,-137.009 422.994,-143.932 425.56,-137.419"/>
</g>
<!-- Node10&#45;&gt;Node12 -->
<g id="edge13" class="edge"><title>Node10&#45;&gt;Node12</title>
<path fill="none" stroke="midnightblue" d="M549.394,-179.475C554.54,-170.727 562.691,-156.869 569.197,-145.809"/>
<polygon fill="midnightblue" stroke="midnightblue" points="572.32,-147.403 574.374,-137.009 566.287,-143.854 572.32,-147.403"/>
</g>
<!-- Node13 -->
<g id="node13" class="node"><title>Node13</title>
<polygon fill="white" stroke="#bfbfbf" points="462.879,-118 462.879,-137 497.879,-137 497.879,-118 462.879,-118"/>
<text text-anchor="middle" x="480.379" y="-125" font-family="Helvetica,sans-Serif" font-size="10.00">map</text>
</g>
<!-- Node10&#45;&gt;Node13 -->
<g id="edge14" class="edge"><title>Node10&#45;&gt;Node13</title>
<path fill="none" stroke="midnightblue" d="M535.209,-179.475C525.229,-170.197 509.067,-155.171 496.869,-143.831"/>
<polygon fill="midnightblue" stroke="midnightblue" points="499.239,-141.255 489.532,-137.009 494.472,-146.381 499.239,-141.255"/>
</g>
<!-- Node14 -->
<g id="node14" class="node"><title>Node14</title>
<polygon fill="white" stroke="#bfbfbf" points="622.379,-118 622.379,-137 674.379,-137 674.379,-118 622.379,-118"/>
<text text-anchor="middle" x="648.379" y="-125" font-family="Helvetica,sans-Serif" font-size="10.00">sstream</text>
</g>
<!-- Node10&#45;&gt;Node14 -->
<g id="edge15" class="edge"><title>Node10&#45;&gt;Node14</title>
<path fill="none" stroke="midnightblue" d="M559.28,-179.475C576.347,-169.711 604.54,-153.581 624.641,-142.081"/>
<polygon fill="midnightblue" stroke="midnightblue" points="626.564,-145.013 633.506,-137.009 623.088,-138.937 626.564,-145.013"/>
</g>
<!-- Node15&#45;&gt;Node5 -->
<g id="edge18" class="edge"><title>Node15&#45;&gt;Node5</title>
<path fill="none" stroke="midnightblue" d="M1541.58,-179.473C1536.59,-170.496 1528.64,-155.903 1522.38,-143 1502.96,-103.003 1482.57,-54.9615 1471.9,-29.2945"/>
<polygon fill="midnightblue" stroke="midnightblue" points="1475.01,-27.6568 1467.95,-19.7529 1468.54,-30.3314 1475.01,-27.6568"/>
</g>
<!-- Node16 -->
<g id="node16" class="node"><title>Node16</title>
<polygon fill="white" stroke="#bfbfbf" points="1530.88,-118 1530.88,-137 1589.88,-137 1589.88,-118 1530.88,-118"/>
<text text-anchor="middle" x="1560.38" y="-125" font-family="Helvetica,sans-Serif" font-size="10.00">exception</text>
</g>
<!-- Node15&#45;&gt;Node16 -->
<g id="edge17" class="edge"><title>Node15&#45;&gt;Node16</title>
<path fill="none" stroke="midnightblue" d="M1548.38,-179.475C1550.38,-170.992 1553.51,-157.704 1556.07,-146.822"/>
<polygon fill="midnightblue" stroke="midnightblue" points="1559.49,-147.545 1558.38,-137.009 1552.68,-145.942 1559.49,-147.545"/>
</g>
<!-- Node17&#45;&gt;Node4 -->
<g id="edge22" class="edge"><title>Node17&#45;&gt;Node4</title>
<path fill="none" stroke="midnightblue" d="M1030.72,-179.242C1017.88,-163.063 988.007,-128.625 954.379,-112 783.215,-27.3788 551.735,-12.8503 446.131,-10.8948"/>
<polygon fill="midnightblue" stroke="midnightblue" points="446.06,-7.39334 436.007,-10.7391 445.952,-14.3925 446.06,-7.39334"/>
</g>
<!-- Node17&#45;&gt;Node6 -->
<g id="edge30" class="edge"><title>Node17&#45;&gt;Node6</title>
<path fill="none" stroke="midnightblue" d="M1036.17,-179.463C1032.35,-152.428 1020.46,-68.2392 1015.08,-30.109"/>
<polygon fill="midnightblue" stroke="midnightblue" points="1018.5,-29.2806 1013.63,-19.8684 1011.56,-30.2596 1018.5,-29.2806"/>
</g>
<!-- Node17&#45;&gt;Node14 -->
<g id="edge29" class="edge"><title>Node17&#45;&gt;Node14</title>
<path fill="none" stroke="midnightblue" d="M997.363,-183.014C937.28,-175.367 820.254,-159.847 721.379,-143 709.36,-140.952 696.283,-138.444 684.562,-136.093"/>
<polygon fill="midnightblue" stroke="midnightblue" points="685.167,-132.645 674.67,-134.083 683.773,-139.504 685.167,-132.645"/>
</g>
<!-- Node18 -->
<g id="node18" class="node"><title>Node18</title>
<polygon fill="white" stroke="#bfbfbf" points="1160.38,-112.5 1160.38,-142.5 1270.38,-142.5 1270.38,-112.5 1160.38,-112.5"/>
<text text-anchor="start" x="1168.38" y="-130.5" font-family="Helvetica,sans-Serif" font-size="10.00">boost/algorithm/string</text>
<text text-anchor="middle" x="1215.38" y="-119.5" font-family="Helvetica,sans-Serif" font-size="10.00">/predicate.hpp</text>
</g>
<!-- Node17&#45;&gt;Node18 -->
<g id="edge23" class="edge"><title>Node17&#45;&gt;Node18</title>
<path fill="none" stroke="midnightblue" d="M1062.88,-179.475C1089.13,-170.701 1130.75,-156.788 1163.89,-145.712"/>
<polygon fill="midnightblue" stroke="midnightblue" points="1165.05,-149.013 1173.43,-142.523 1162.83,-142.374 1165.05,-149.013"/>
</g>
<!-- Node19 -->
<g id="node19" class="node"><title>Node19</title>
<polygon fill="white" stroke="#bfbfbf" points="1288.38,-112.5 1288.38,-142.5 1398.38,-142.5 1398.38,-112.5 1288.38,-112.5"/>
<text text-anchor="start" x="1296.38" y="-130.5" font-family="Helvetica,sans-Serif" font-size="10.00">boost/algorithm/string</text>
<text text-anchor="middle" x="1343.38" y="-119.5" font-family="Helvetica,sans-Serif" font-size="10.00">/trim.hpp</text>
</g>
<!-- Node17&#45;&gt;Node19 -->
<g id="edge24" class="edge"><title>Node17&#45;&gt;Node19</title>
<path fill="none" stroke="midnightblue" d="M1077.72,-180.994C1123.86,-172.871 1201.91,-158.798 1278.44,-143.149"/>
<polygon fill="midnightblue" stroke="midnightblue" points="1279.16,-146.575 1288.25,-141.133 1277.75,-139.718 1279.16,-146.575"/>
</g>
<!-- Node20 -->
<g id="node20" class="node"><title>Node20</title>
<polygon fill="white" stroke="#bfbfbf" points="730.379,-118 730.379,-137 826.379,-137 826.379,-118 730.379,-118"/>
<text text-anchor="middle" x="778.379" y="-125" font-family="Helvetica,sans-Serif" font-size="10.00">boost/optional.hpp</text>
</g>
<!-- Node17&#45;&gt;Node20 -->
<g id="edge25" class="edge"><title>Node17&#45;&gt;Node20</title>
<path fill="none" stroke="midnightblue" d="M997.437,-179.471C956.63,-170.67 891.472,-156.379 835.379,-143 830.72,-141.889 825.855,-140.698 821.015,-139.494"/>
<polygon fill="midnightblue" stroke="midnightblue" points="821.743,-136.068 811.192,-137.026 820.037,-142.857 821.743,-136.068"/>
</g>
<!-- Node21 -->
<g id="node21" class="node"><title>Node21</title>
<polygon fill="white" stroke="#bfbfbf" points="844.879,-112.5 844.879,-142.5 945.879,-142.5 945.879,-112.5 844.879,-112.5"/>
<text text-anchor="start" x="852.879" y="-130.5" font-family="Helvetica,sans-Serif" font-size="10.00">boost/property_tree</text>
<text text-anchor="middle" x="895.379" y="-119.5" font-family="Helvetica,sans-Serif" font-size="10.00">/ptree.hpp</text>
</g>
<!-- Node17&#45;&gt;Node21 -->
<g id="edge26" class="edge"><title>Node17&#45;&gt;Node21</title>
<path fill="none" stroke="midnightblue" d="M1017.03,-179.475C996.544,-170.889 964.309,-157.383 938.168,-146.429"/>
<polygon fill="midnightblue" stroke="midnightblue" points="939.421,-143.16 928.846,-142.523 936.716,-149.616 939.421,-143.16"/>
</g>
<!-- Node22 -->
<g id="node22" class="node"><title>Node22</title>
<polygon fill="white" stroke="#bfbfbf" points="1040.38,-118 1040.38,-137 1084.38,-137 1084.38,-118 1040.38,-118"/>
<text text-anchor="middle" x="1062.38" y="-125" font-family="Helvetica,sans-Serif" font-size="10.00">cmath</text>
</g>
<!-- Node17&#45;&gt;Node22 -->
<g id="edge27" class="edge"><title>Node17&#45;&gt;Node22</title>
<path fill="none" stroke="midnightblue" d="M1040.96,-179.475C1044.56,-170.904 1050.22,-157.427 1054.82,-146.483"/>
<polygon fill="midnightblue" stroke="midnightblue" points="1058.16,-147.584 1058.8,-137.009 1051.7,-144.873 1058.16,-147.584"/>
</g>
<!-- Node23 -->
<g id="node23" class="node"><title>Node23</title>
<polygon fill="white" stroke="#bfbfbf" points="1102.38,-118 1102.38,-137 1142.38,-137 1142.38,-118 1102.38,-118"/>
<text text-anchor="middle" x="1122.38" y="-125" font-family="Helvetica,sans-Serif" font-size="10.00">limits</text>
</g>
<!-- Node17&#45;&gt;Node23 -->
<g id="edge28" class="edge"><title>Node17&#45;&gt;Node23</title>
<path fill="none" stroke="midnightblue" d="M1049.56,-179.475C1063.19,-169.931 1085.51,-154.307 1101.85,-142.868"/>
<polygon fill="midnightblue" stroke="midnightblue" points="1104.04,-145.611 1110.22,-137.009 1100.02,-139.876 1104.04,-145.611"/>
</g>
</g>
</svg>
        <g id="navigator" transform="translate(0 0)" fill="#404254">
                <rect fill="#f2f5e9" fill-opacity="0.5" stroke="#606060" stroke-width=".5" x="0" y="0" width="60" height="60"/>
                <use id="zoomplus" xlink:href="#zoomPlus" x="17" y="9" onmousedown="handleZoom(evt,'in')"/>
                <use id="zoomminus" xlink:href="#zoomMin" x="42" y="9" onmousedown="handleZoom(evt,'out')"/>
                <use id="reset" xlink:href="#resetDef" x="30" y="36" onmousedown="handleReset()"/>
                <g id="arrowUp" xlink:href="#dirArrow" transform="translate(30 24)" onmousedown="handlePan(0,-1)">
                  <use xlink:href="#rim" fill="#404040">
                        <set attributeName="fill" to="#808080" begin="arrowUp.mouseover" end="arrowUp.mouseout"/>
                  </use>
                  <path fill="none" stroke="white" stroke-width="1.5" d="M0,-3.0v7 M-2.5,-0.5L0,-3.0L2.5,-0.5"/>
                </g>
                <g id="arrowRight" xlink:href="#dirArrow" transform="rotate(90) translate(36 -43)" onmousedown="handlePan(1,0)">
                  <use xlink:href="#rim" fill="#404040">
                        <set attributeName="fill" to="#808080" begin="arrowRight.mouseover" end="arrowRight.mouseout"/>
                  </use>
                  <path fill="none" stroke="white" stroke-width="1.5" d="M0,-3.0v7 M-2.5,-0.5L0,-3.0L2.5,-0.5"/>
                </g>
                <g id="arrowDown" xlink:href="#dirArrow" transform="rotate(180) translate(-30 -48)" onmousedown="handlePan(0,1)">
                  <use xlink:href="#rim" fill="#404040">
                        <set attributeName="fill" to="#808080" begin="arrowDown.mouseover" end="arrowDown.mouseout"/>
                  </use>
                  <path fill="none" stroke="white" stroke-width="1.5" d="M0,-3.0v7 M-2.5,-0.5L0,-3.0L2.5,-0.5"/>
                </g>
                <g id="arrowLeft" xlink:href="#dirArrow" transform="rotate(270) translate(-36 17)" onmousedown="handlePan(-1,0)">
                  <use xlink:href="#rim" fill="#404040">
                        <set attributeName="fill" to="#808080" begin="arrowLeft.mouseover" end="arrowLeft.mouseout"/>
                  </use>
                  <path fill="none" stroke="white" stroke-width="1.5" d="M0,-3.0v7 M-2.5,-0.5L0,-3.0L2.5,-0.5"/>
                </g>
        </g>
        <svg viewBox="0 0 15 15" width="100%" height="30px" preserveAspectRatio="xMaxYMin meet">
         <g id="arrow_out" transform="scale(0.3 0.3)">
          <a xlink:href="MinuitIF_8cpp__incl_org.svg" target="_base">
           <rect id="button" ry="5" rx="5" y="6" x="6" height="38" width="38"
                fill="#f2f5e9" fill-opacity="0.5" stroke="#606060" stroke-width="1.0"/>
           <path id="arrow"
             d="M 11.500037,31.436501 C 11.940474,20.09759 22.043105,11.32322 32.158766,21.979434 L 37.068811,17.246167 C 37.068811,17.246167 37.088388,32 37.088388,32 L 22.160133,31.978069 C 22.160133,31.978069 26.997745,27.140456 26.997745,27.140456 C 18.528582,18.264221 13.291696,25.230495 11.500037,31.436501 z"
             style="fill:#404040;"/>
          </a>
         </g>
        </svg>
</svg>
