<?xml version="1.0" encoding="UTF-8" standalone="no"?>
<!DOCTYPE svg PUBLIC "-//W3C//DTD SVG 1.1//EN"
 "http://www.w3.org/Graphics/SVG/1.1/DTD/svg11.dtd">
<!-- Generated by graphviz version 2.38.0 (20140413.2041)
 -->
<!-- Title: Optimizer/Minuit2/MinuitResult.hpp Pages: 1 -->
<svg width="353pt" height="229pt"
 viewBox="0.00 0.00 352.50 229.00" xmlns="http://www.w3.org/2000/svg" xmlns:xlink="http://www.w3.org/1999/xlink">
<g id="graph0" class="graph" transform="scale(1 1) rotate(0) translate(4 225)">
<title>Optimizer/Minuit2/MinuitResult.hpp</title>
<polygon fill="white" stroke="none" points="-4,4 -4,-225 348.5,-225 348.5,4 -4,4"/>
<!-- Node1 -->
<g id="node1" class="node"><title>Node1</title>
<polygon fill="#bfbfbf" stroke="black" points="178,-190.5 178,-220.5 300,-220.5 300,-190.5 178,-190.5"/>
<text text-anchor="start" x="186" y="-208.5" font-family="Helvetica,sans-Serif" font-size="10.00">Optimizer/Minuit2/Minuit</text>
<text text-anchor="middle" x="239" y="-197.5" font-family="Helvetica,sans-Serif" font-size="10.00">Result.hpp</text>
</g>
<!-- Node2 -->
<g id="node2" class="node"><title>Node2</title>
<g id="a_node2"><a xlink:href="FitResult_8hpp.html" target="_top" xlink:title="Core/FitResult.hpp">
<polygon fill="white" stroke="black" points="132.5,-129 132.5,-148 231.5,-148 231.5,-129 132.5,-129"/>
<text text-anchor="middle" x="182" y="-136" font-family="Helvetica,sans-Serif" font-size="10.00">Core/FitResult.hpp</text>
</a>
</g>
</g>
<!-- Node1&#45;&gt;Node2 -->
<g id="edge1" class="edge"><title>Node1&#45;&gt;Node2</title>
<path fill="none" stroke="midnightblue" d="M226.632,-190.396C217.744,-180.261 205.736,-166.567 196.414,-155.937"/>
<polygon fill="midnightblue" stroke="midnightblue" points="198.849,-153.406 189.624,-148.195 193.586,-158.021 198.849,-153.406"/>
</g>
<!-- Node7 -->
<g id="node7" class="node"><title>Node7</title>
<polygon fill="white" stroke="#bfbfbf" points="249.5,-123.5 249.5,-153.5 344.5,-153.5 344.5,-123.5 249.5,-123.5"/>
<text text-anchor="start" x="257.5" y="-141.5" font-family="Helvetica,sans-Serif" font-size="10.00">boost/serialization</text>
<text text-anchor="middle" x="297" y="-130.5" font-family="Helvetica,sans-Serif" font-size="10.00">/base_object.hpp</text>
</g>
<!-- Node1&#45;&gt;Node7 -->
<g id="edge7" class="edge"><title>Node1&#45;&gt;Node7</title>
<path fill="none" stroke="midnightblue" d="M251.585,-190.396C259.186,-181.878 269.029,-170.847 277.608,-161.233"/>
<polygon fill="midnightblue" stroke="midnightblue" points="280.393,-163.368 284.439,-153.577 275.17,-158.708 280.393,-163.368"/>
</g>
<!-- Node3 -->
<g id="node3" class="node"><title>Node3</title>
<g id="a_node3"><a xlink:href="FitParameter_8hpp.html" target="_top" xlink:title="Core/FitParameter.hpp">
<polygon fill="white" stroke="red" points="0,-62 0,-81 116,-81 116,-62 0,-62"/>
<text text-anchor="middle" x="58" y="-69" font-family="Helvetica,sans-Serif" font-size="10.00">Core/FitParameter.hpp</text>
</a>
</g>
</g>
<!-- Node2&#45;&gt;Node3 -->
<g id="edge2" class="edge"><title>Node2&#45;&gt;Node3</title>
<path fill="none" stroke="midnightblue" d="M165.534,-128.869C144.596,-117.893 108.219,-98.8243 83.6365,-85.9385"/>
<polygon fill="midnightblue" stroke="midnightblue" points="85.0162,-82.7101 74.5343,-81.1672 81.7663,-88.9099 85.0162,-82.7101"/>
</g>
<!-- Node4 -->
<g id="node4" class="node"><title>Node4</title>
<g id="a_node4"><a xlink:href="Function_8hpp.html" target="_top" xlink:title="Core/Function.hpp">
<polygon fill="white" stroke="red" points="52.5,-0.5 52.5,-19.5 149.5,-19.5 149.5,-0.5 52.5,-0.5"/>
<text text-anchor="middle" x="101" y="-7.5" font-family="Helvetica,sans-Serif" font-size="10.00">Core/Function.hpp</text>
</a>
</g>
</g>
<!-- Node2&#45;&gt;Node4 -->
<g id="edge4" class="edge"><title>Node2&#45;&gt;Node4</title>
<path fill="none" stroke="midnightblue" d="M176.433,-128.805C163.196,-108.133 129.643,-55.7323 112.089,-28.3176"/>
<polygon fill="midnightblue" stroke="midnightblue" points="114.946,-26.2899 106.606,-19.7557 109.051,-30.0646 114.946,-26.2899"/>
</g>
<!-- Node5 -->
<g id="node5" class="node"><title>Node5</title>
<polygon fill="white" stroke="#bfbfbf" points="172.5,-56.5 172.5,-86.5 267.5,-86.5 267.5,-56.5 172.5,-56.5"/>
<text text-anchor="start" x="180.5" y="-74.5" font-family="Helvetica,sans-Serif" font-size="10.00">boost/serialization</text>
<text text-anchor="middle" x="220" y="-63.5" font-family="Helvetica,sans-Serif" font-size="10.00">/vector.hpp</text>
</g>
<!-- Node2&#45;&gt;Node5 -->
<g id="edge5" class="edge"><title>Node2&#45;&gt;Node5</title>
<path fill="none" stroke="midnightblue" d="M187.125,-128.734C192.112,-120.203 199.904,-106.874 206.651,-95.3345"/>
<polygon fill="midnightblue" stroke="midnightblue" points="209.738,-96.9885 211.763,-86.589 203.695,-93.4555 209.738,-96.9885"/>
</g>
<!-- Node6 -->
<g id="node6" class="node"><title>Node6</title>
<polygon fill="white" stroke="#bfbfbf" points="286,-62 286,-81 332,-81 332,-62 286,-62"/>
<text text-anchor="middle" x="309" y="-69" font-family="Helvetica,sans-Serif" font-size="10.00">chrono</text>
</g>
<!-- Node2&#45;&gt;Node6 -->
<g id="edge6" class="edge"><title>Node2&#45;&gt;Node6</title>
<path fill="none" stroke="midnightblue" d="M198.865,-128.869C220.403,-117.845 257.896,-98.6554 283.077,-85.7678"/>
<polygon fill="midnightblue" stroke="midnightblue" points="284.758,-88.8389 292.066,-81.1672 281.569,-82.6077 284.758,-88.8389"/>
</g>
<!-- Node3&#45;&gt;Node4 -->
<g id="edge3" class="edge"><title>Node3&#45;&gt;Node4</title>
<path fill="none" stroke="midnightblue" d="M64.1609,-61.9751C70.6109,-53.0501 80.9041,-38.8071 88.9726,-27.6425"/>
<polygon fill="midnightblue" stroke="midnightblue" points="91.8299,-29.6642 94.8506,-19.5091 86.1564,-25.564 91.8299,-29.6642"/>
</g>
</g>
</svg>
