<?xml version="1.0" encoding="UTF-8" standalone="no"?>
<!DOCTYPE svg PUBLIC "-//W3C//DTD SVG 1.1//EN"
 "http://www.w3.org/Graphics/SVG/1.1/DTD/svg11.dtd">
<!-- Generated by graphviz version 2.38.0 (20140413.2041)
 -->
<!-- Title: Optimizer/Minuit2/MinuitIF.hpp Pages: 1 -->
<svg width="750pt" height="106pt"
 viewBox="0.00 0.00 749.50 106.00" xmlns="http://www.w3.org/2000/svg" xmlns:xlink="http://www.w3.org/1999/xlink">
<g id="graph0" class="graph" transform="scale(1 1) rotate(0) translate(4 102)">
<title>Optimizer/Minuit2/MinuitIF.hpp</title>
<polygon fill="white" stroke="none" points="-4,4 -4,-102 745.5,-102 745.5,4 -4,4"/>
<!-- Node1 -->
<g id="node1" class="node"><title>Node1</title>
<polygon fill="#bfbfbf" stroke="black" points="299.5,-67.5 299.5,-97.5 421.5,-97.5 421.5,-67.5 299.5,-67.5"/>
<text text-anchor="start" x="307.5" y="-85.5" font-family="Helvetica,sans-Serif" font-size="10.00">Optimizer/Minuit2/Minuit</text>
<text text-anchor="middle" x="360.5" y="-74.5" font-family="Helvetica,sans-Serif" font-size="10.00">IF.hpp</text>
</g>
<!-- Node2 -->
<g id="node2" class="node"><title>Node2</title>
<g id="a_node2"><a xlink:href="DalitzFitD03K_8cpp.html" target="_top" xlink:title="Executable for Dalitz plot analysis of the decay D0 &#45;&gt; K_S K+ K&#45;. ">
<polygon fill="white" stroke="black" points="0,-0.5 0,-30.5 143,-30.5 143,-0.5 0,-0.5"/>
<text text-anchor="start" x="8" y="-18.5" font-family="Helvetica,sans-Serif" font-size="10.00">Examples/DalitzAnalysis</text>
<text text-anchor="middle" x="71.5" y="-7.5" font-family="Helvetica,sans-Serif" font-size="10.00">_D0KsKK/DalitzFitD03K.cpp</text>
</a>
</g>
</g>
<!-- Node1&#45;&gt;Node2 -->
<g id="edge1" class="edge"><title>Node1&#45;&gt;Node2</title>
<path fill="none" stroke="midnightblue" d="M289.281,-65.4819C241.671,-54.7738 179.628,-40.8194 133.947,-30.5452"/>
<polygon fill="midnightblue" stroke="midnightblue" points="288.686,-68.9355 299.211,-67.7152 290.222,-62.1061 288.686,-68.9355"/>
</g>
<!-- Node3 -->
<g id="node3" class="node"><title>Node3</title>
<g id="a_node3"><a xlink:href="DalitzFitApp_8cpp.html" target="_top" xlink:title="Simple Dalitz plot analysis with ComPWA. ">
<polygon fill="white" stroke="black" points="161.5,-0.5 161.5,-30.5 261.5,-30.5 261.5,-0.5 161.5,-0.5"/>
<text text-anchor="start" x="169.5" y="-18.5" font-family="Helvetica,sans-Serif" font-size="10.00">Examples/DalitzFit</text>
<text text-anchor="middle" x="211.5" y="-7.5" font-family="Helvetica,sans-Serif" font-size="10.00">/DalitzFitApp.cpp</text>
</a>
</g>
</g>
<!-- Node1&#45;&gt;Node3 -->
<g id="edge2" class="edge"><title>Node1&#45;&gt;Node3</title>
<path fill="none" stroke="midnightblue" d="M318.708,-63.2687C294.976,-52.9159 265.72,-40.1528 243.768,-30.5765"/>
<polygon fill="midnightblue" stroke="midnightblue" points="317.604,-66.6054 328.169,-67.396 320.403,-60.1894 317.604,-66.6054"/>
</g>
<!-- Node4 -->
<g id="node4" class="node"><title>Node4</title>
<g id="a_node4"><a xlink:href="EvtGenFit_8cpp.html" target="_top" xlink:title="Examples/EvtGen/EvtGenFit.cpp">
<polygon fill="white" stroke="black" points="279.5,-6 279.5,-25 441.5,-25 441.5,-6 279.5,-6"/>
<text text-anchor="middle" x="360.5" y="-13" font-family="Helvetica,sans-Serif" font-size="10.00">Examples/EvtGen/EvtGenFit.cpp</text>
</a>
</g>
</g>
<!-- Node1&#45;&gt;Node4 -->
<g id="edge3" class="edge"><title>Node1&#45;&gt;Node4</title>
<path fill="none" stroke="midnightblue" d="M360.5,-57.2495C360.5,-46.017 360.5,-33.3767 360.5,-25.1945"/>
<polygon fill="midnightblue" stroke="midnightblue" points="357,-57.3959 360.5,-67.396 364,-57.396 357,-57.3959"/>
</g>
<!-- Node5 -->
<g id="node5" class="node"><title>Node5</title>
<g id="a_node5"><a xlink:href="SimFit_8cpp.html" target="_top" xlink:title="Examples/SimFit/SimFit.cpp">
<polygon fill="white" stroke="black" points="459.5,-6 459.5,-25 601.5,-25 601.5,-6 459.5,-6"/>
<text text-anchor="middle" x="530.5" y="-13" font-family="Helvetica,sans-Serif" font-size="10.00">Examples/SimFit/SimFit.cpp</text>
</a>
</g>
</g>
<!-- Node1&#45;&gt;Node5 -->
<g id="edge4" class="edge"><title>Node1&#45;&gt;Node5</title>
<path fill="none" stroke="midnightblue" d="M406.835,-63.7838C439.797,-51.1807 482.617,-34.8082 508.251,-25.007"/>
<polygon fill="midnightblue" stroke="midnightblue" points="405.478,-60.5553 397.387,-67.396 407.978,-67.0937 405.478,-60.5553"/>
</g>
<!-- Node6 -->
<g id="node6" class="node"><title>Node6</title>
<g id="a_node6"><a xlink:href="MinuitIF_8cpp.html" target="_top" xlink:title="Optimizer/Minuit2/Minuit\lIF.cpp">
<polygon fill="white" stroke="black" points="619.5,-0.5 619.5,-30.5 741.5,-30.5 741.5,-0.5 619.5,-0.5"/>
<text text-anchor="start" x="627.5" y="-18.5" font-family="Helvetica,sans-Serif" font-size="10.00">Optimizer/Minuit2/Minuit</text>
<text text-anchor="middle" x="680.5" y="-7.5" font-family="Helvetica,sans-Serif" font-size="10.00">IF.cpp</text>
</a>
</g>
</g>
<!-- Node1&#45;&gt;Node6 -->
<g id="edge5" class="edge"><title>Node1&#45;&gt;Node6</title>
<path fill="none" stroke="midnightblue" d="M431.718,-67.2112C481.749,-57.1494 550.231,-43.3292 610.5,-31 613.418,-30.403 616.404,-29.7906 619.42,-29.1707"/>
<polygon fill="midnightblue" stroke="midnightblue" points="430.763,-63.8331 421.649,-69.2356 432.142,-70.6958 430.763,-63.8331"/>
</g>
</g>
</svg>
