<?xml version="1.0" encoding="UTF-8" standalone="no"?>
<!DOCTYPE svg PUBLIC "-//W3C//DTD SVG 1.1//EN"
 "http://www.w3.org/Graphics/SVG/1.1/DTD/svg11.dtd">
<!-- Generated by graphviz version 2.38.0 (20140413.2041)
 -->
<!-- Title: Optimizer/Minuit2/MinuitFcn.hpp Pages: 1 -->
<svg width="444pt" height="151pt"
 viewBox="0.00 0.00 444.00 151.00" xmlns="http://www.w3.org/2000/svg" xmlns:xlink="http://www.w3.org/1999/xlink">
<g id="graph0" class="graph" transform="scale(1 1) rotate(0) translate(4 147)">
<title>Optimizer/Minuit2/MinuitFcn.hpp</title>
<polygon fill="white" stroke="none" points="-4,4 -4,-147 440,-147 440,4 -4,4"/>
<!-- Node1 -->
<g id="node1" class="node"><title>Node1</title>
<polygon fill="#bfbfbf" stroke="black" points="226,-112.5 226,-142.5 348,-142.5 348,-112.5 226,-112.5"/>
<text text-anchor="start" x="234" y="-130.5" font-family="Helvetica,sans-Serif" font-size="10.00">Optimizer/Minuit2/Minuit</text>
<text text-anchor="middle" x="287" y="-119.5" font-family="Helvetica,sans-Serif" font-size="10.00">Fcn.hpp</text>
</g>
<!-- Node2 -->
<g id="node2" class="node"><title>Node2</title>
<g id="a_node2"><a xlink:href="Estimator_8hpp.html" target="_top" xlink:title="Estimator/Estimator.hpp">
<polygon fill="white" stroke="black" points="0,-56.5 0,-75.5 122,-75.5 122,-56.5 0,-56.5"/>
<text text-anchor="middle" x="61" y="-63.5" font-family="Helvetica,sans-Serif" font-size="10.00">Estimator/Estimator.hpp</text>
</a>
</g>
</g>
<!-- Node1&#45;&gt;Node2 -->
<g id="edge1" class="edge"><title>Node1&#45;&gt;Node2</title>
<path fill="none" stroke="midnightblue" d="M233.727,-112.475C193.886,-101.986 140.145,-87.8367 103.245,-78.1221"/>
<polygon fill="midnightblue" stroke="midnightblue" points="103.871,-74.6678 93.3099,-75.5064 102.089,-81.4371 103.871,-74.6678"/>
</g>
<!-- Node4 -->
<g id="node4" class="node"><title>Node4</title>
<polygon fill="white" stroke="#bfbfbf" points="140.5,-56.5 140.5,-75.5 243.5,-75.5 243.5,-56.5 140.5,-56.5"/>
<text text-anchor="middle" x="192" y="-63.5" font-family="Helvetica,sans-Serif" font-size="10.00">Minuit2/FCNBase.h</text>
</g>
<!-- Node1&#45;&gt;Node4 -->
<g id="edge3" class="edge"><title>Node1&#45;&gt;Node4</title>
<path fill="none" stroke="midnightblue" d="M264.486,-112.399C249.401,-102.951 229.615,-90.5589 214.527,-81.1089"/>
<polygon fill="midnightblue" stroke="midnightblue" points="216.156,-77.9996 205.823,-75.6578 212.441,-83.9321 216.156,-77.9996"/>
</g>
<!-- Node5 -->
<g id="node5" class="node"><title>Node5</title>
<polygon fill="white" stroke="#bfbfbf" points="262,-56.5 262,-75.5 312,-75.5 312,-56.5 262,-56.5"/>
<text text-anchor="middle" x="287" y="-63.5" font-family="Helvetica,sans-Serif" font-size="10.00">iomanip</text>
</g>
<!-- Node1&#45;&gt;Node5 -->
<g id="edge4" class="edge"><title>Node1&#45;&gt;Node5</title>
<path fill="none" stroke="midnightblue" d="M287,-112.399C287,-104.466 287,-94.458 287,-85.8583"/>
<polygon fill="midnightblue" stroke="midnightblue" points="290.5,-85.6577 287,-75.6578 283.5,-85.6578 290.5,-85.6577"/>
</g>
<!-- Node6 -->
<g id="node6" class="node"><title>Node6</title>
<polygon fill="white" stroke="#bfbfbf" points="330.5,-56.5 330.5,-75.5 365.5,-75.5 365.5,-56.5 330.5,-56.5"/>
<text text-anchor="middle" x="348" y="-63.5" font-family="Helvetica,sans-Serif" font-size="10.00">map</text>
</g>
<!-- Node1&#45;&gt;Node6 -->
<g id="edge5" class="edge"><title>Node1&#45;&gt;Node6</title>
<path fill="none" stroke="midnightblue" d="M301.456,-112.399C310.594,-103.486 322.419,-91.9523 331.862,-82.7408"/>
<polygon fill="midnightblue" stroke="midnightblue" points="334.409,-85.1458 339.124,-75.6578 329.522,-80.1348 334.409,-85.1458"/>
</g>
<!-- Node7 -->
<g id="node7" class="node"><title>Node7</title>
<polygon fill="white" stroke="#bfbfbf" points="384,-56.5 384,-75.5 436,-75.5 436,-56.5 384,-56.5"/>
<text text-anchor="middle" x="410" y="-63.5" font-family="Helvetica,sans-Serif" font-size="10.00">sstream</text>
</g>
<!-- Node1&#45;&gt;Node7 -->
<g id="edge6" class="edge"><title>Node1&#45;&gt;Node7</title>
<path fill="none" stroke="midnightblue" d="M316.149,-112.399C336.418,-102.595 363.241,-89.6194 383.019,-80.052"/>
<polygon fill="midnightblue" stroke="midnightblue" points="384.624,-83.1632 392.102,-75.6578 381.576,-76.8618 384.624,-83.1632"/>
</g>
<!-- Node3 -->
<g id="node3" class="node"><title>Node3</title>
<g id="a_node3"><a xlink:href="Function_8hpp.html" target="_top" xlink:title="Core/Function.hpp">
<polygon fill="white" stroke="red" points="12.5,-0.5 12.5,-19.5 109.5,-19.5 109.5,-0.5 12.5,-0.5"/>
<text text-anchor="middle" x="61" y="-7.5" font-family="Helvetica,sans-Serif" font-size="10.00">Core/Function.hpp</text>
</a>
</g>
</g>
<!-- Node2&#45;&gt;Node3 -->
<g id="edge2" class="edge"><title>Node2&#45;&gt;Node3</title>
<path fill="none" stroke="midnightblue" d="M61,-56.083C61,-49.0059 61,-38.8611 61,-29.9865"/>
<polygon fill="midnightblue" stroke="midnightblue" points="64.5001,-29.751 61,-19.7511 57.5001,-29.7511 64.5001,-29.751"/>
</g>
</g>
</svg>
