<?xml version="1.0" encoding="UTF-8" standalone="no"?>
<!DOCTYPE svg PUBLIC "-//W3C//DTD SVG 1.1//EN"
 "http://www.w3.org/Graphics/SVG/1.1/DTD/svg11.dtd">
<!-- Generated by graphviz version 2.38.0 (20140413.2041)
 -->
<!-- Title: Optimizer/Optimizer.hpp Pages: 1 -->
<svg width="928pt" height="162pt"
 viewBox="0.00 0.00 927.50 162.00" xmlns="http://www.w3.org/2000/svg" xmlns:xlink="http://www.w3.org/1999/xlink">
<g id="graph0" class="graph" transform="scale(1 1) rotate(0) translate(4 158)">
<title>Optimizer/Optimizer.hpp</title>
<polygon fill="white" stroke="none" points="-4,4 -4,-158 923.5,-158 923.5,4 -4,4"/>
<!-- Node1 -->
<g id="node1" class="node"><title>Node1</title>
<polygon fill="#bfbfbf" stroke="black" points="538.5,-134.5 538.5,-153.5 660.5,-153.5 660.5,-134.5 538.5,-134.5"/>
<text text-anchor="middle" x="599.5" y="-141.5" font-family="Helvetica,sans-Serif" font-size="10.00">Optimizer/Optimizer.hpp</text>
</g>
<!-- Node2 -->
<g id="node2" class="node"><title>Node2</title>
<g id="a_node2"><a xlink:href="MinuitIF_8hpp.html" target="_top" xlink:title="Optimizer/Minuit2/Minuit\lIF.hpp">
<polygon fill="white" stroke="black" points="379.5,-67.5 379.5,-97.5 501.5,-97.5 501.5,-67.5 379.5,-67.5"/>
<text text-anchor="start" x="387.5" y="-85.5" font-family="Helvetica,sans-Serif" font-size="10.00">Optimizer/Minuit2/Minuit</text>
<text text-anchor="middle" x="440.5" y="-74.5" font-family="Helvetica,sans-Serif" font-size="10.00">IF.hpp</text>
</a>
</g>
</g>
<!-- Node1&#45;&gt;Node2 -->
<g id="edge1" class="edge"><title>Node1&#45;&gt;Node2</title>
<path fill="none" stroke="midnightblue" d="M567.025,-130.847C541.196,-121.182 505.028,-107.647 477.973,-97.523"/>
<polygon fill="midnightblue" stroke="midnightblue" points="566.127,-134.248 576.719,-134.475 568.58,-127.692 566.127,-134.248"/>
</g>
<!-- Node8 -->
<g id="node8" class="node"><title>Node8</title>
<g id="a_node8"><a xlink:href="GenevaIF_8hpp.html" target="_top" xlink:title="This class provides a wrapper around the Geneva library. ">
<polygon fill="white" stroke="black" points="679.5,-73 679.5,-92 839.5,-92 839.5,-73 679.5,-73"/>
<text text-anchor="middle" x="759.5" y="-80" font-family="Helvetica,sans-Serif" font-size="10.00">Optimizer/Geneva/GenevaIF.hpp</text>
</a>
</g>
</g>
<!-- Node1&#45;&gt;Node8 -->
<g id="edge7" class="edge"><title>Node1&#45;&gt;Node8</title>
<path fill="none" stroke="midnightblue" d="M631.949,-130.933C663.047,-119.368 709.192,-102.208 736.618,-92.0091"/>
<polygon fill="midnightblue" stroke="midnightblue" points="630.577,-127.709 622.424,-134.475 633.017,-134.27 630.577,-127.709"/>
</g>
<!-- Node3 -->
<g id="node3" class="node"><title>Node3</title>
<g id="a_node3"><a xlink:href="DalitzFitD03K_8cpp.html" target="_top" xlink:title="Executable for Dalitz plot analysis of the decay D0 &#45;&gt; K_S K+ K&#45;. ">
<polygon fill="white" stroke="black" points="0,-0.5 0,-30.5 143,-30.5 143,-0.5 0,-0.5"/>
<text text-anchor="start" x="8" y="-18.5" font-family="Helvetica,sans-Serif" font-size="10.00">Examples/DalitzAnalysis</text>
<text text-anchor="middle" x="71.5" y="-7.5" font-family="Helvetica,sans-Serif" font-size="10.00">_D0KsKK/DalitzFitD03K.cpp</text>
</a>
</g>
</g>
<!-- Node2&#45;&gt;Node3 -->
<g id="edge2" class="edge"><title>Node2&#45;&gt;Node3</title>
<path fill="none" stroke="midnightblue" d="M369.043,-69.0429C310.759,-58.8647 226.295,-44.0749 152.5,-31 149.405,-30.4517 146.244,-29.8905 143.051,-29.3228"/>
<polygon fill="midnightblue" stroke="midnightblue" points="368.798,-72.5529 379.251,-70.825 370.002,-65.6572 368.798,-72.5529"/>
</g>
<!-- Node4 -->
<g id="node4" class="node"><title>Node4</title>
<g id="a_node4"><a xlink:href="DalitzFitApp_8cpp.html" target="_top" xlink:title="Simple Dalitz plot analysis with ComPWA. ">
<polygon fill="white" stroke="black" points="161.5,-0.5 161.5,-30.5 261.5,-30.5 261.5,-0.5 161.5,-0.5"/>
<text text-anchor="start" x="169.5" y="-18.5" font-family="Helvetica,sans-Serif" font-size="10.00">Examples/DalitzFit</text>
<text text-anchor="middle" x="211.5" y="-7.5" font-family="Helvetica,sans-Serif" font-size="10.00">/DalitzFitApp.cpp</text>
</a>
</g>
</g>
<!-- Node2&#45;&gt;Node4 -->
<g id="edge3" class="edge"><title>Node2&#45;&gt;Node4</title>
<path fill="none" stroke="midnightblue" d="M381.365,-64.7149C344.099,-54.1373 296.529,-40.6348 261.214,-30.6109"/>
<polygon fill="midnightblue" stroke="midnightblue" points="380.517,-68.1124 391.092,-67.476 382.428,-61.3784 380.517,-68.1124"/>
</g>
<!-- Node5 -->
<g id="node5" class="node"><title>Node5</title>
<g id="a_node5"><a xlink:href="EvtGenFit_8cpp.html" target="_top" xlink:title="Examples/EvtGen/EvtGenFit.cpp">
<polygon fill="white" stroke="black" points="279.5,-6 279.5,-25 441.5,-25 441.5,-6 279.5,-6"/>
<text text-anchor="middle" x="360.5" y="-13" font-family="Helvetica,sans-Serif" font-size="10.00">Examples/EvtGen/EvtGenFit.cpp</text>
</a>
</g>
</g>
<!-- Node2&#45;&gt;Node5 -->
<g id="edge4" class="edge"><title>Node2&#45;&gt;Node5</title>
<path fill="none" stroke="midnightblue" d="M415.279,-61.008C400.428,-48.9412 382.413,-34.3046 371.201,-25.1945"/>
<polygon fill="midnightblue" stroke="midnightblue" points="413.173,-63.8064 423.141,-67.396 417.587,-58.3736 413.173,-63.8064"/>
</g>
<!-- Node6 -->
<g id="node6" class="node"><title>Node6</title>
<g id="a_node6"><a xlink:href="SimFit_8cpp.html" target="_top" xlink:title="Examples/SimFit/SimFit.cpp">
<polygon fill="white" stroke="black" points="459.5,-6 459.5,-25 601.5,-25 601.5,-6 459.5,-6"/>
<text text-anchor="middle" x="530.5" y="-13" font-family="Helvetica,sans-Serif" font-size="10.00">Examples/SimFit/SimFit.cpp</text>
</a>
</g>
</g>
<!-- Node2&#45;&gt;Node6 -->
<g id="edge5" class="edge"><title>Node2&#45;&gt;Node6</title>
<path fill="none" stroke="midnightblue" d="M468.461,-61.3056C485.362,-49.0999 506.024,-34.1772 518.721,-25.007"/>
<polygon fill="midnightblue" stroke="midnightblue" points="466.086,-58.7036 460.029,-67.396 470.185,-64.3784 466.086,-58.7036"/>
</g>
<!-- Node7 -->
<g id="node7" class="node"><title>Node7</title>
<g id="a_node7"><a xlink:href="MinuitIF_8cpp.html" target="_top" xlink:title="Optimizer/Minuit2/Minuit\lIF.cpp">
<polygon fill="white" stroke="black" points="619.5,-0.5 619.5,-30.5 741.5,-30.5 741.5,-0.5 619.5,-0.5"/>
<text text-anchor="start" x="627.5" y="-18.5" font-family="Helvetica,sans-Serif" font-size="10.00">Optimizer/Minuit2/Minuit</text>
<text text-anchor="middle" x="680.5" y="-7.5" font-family="Helvetica,sans-Serif" font-size="10.00">IF.cpp</text>
</a>
</g>
</g>
<!-- Node2&#45;&gt;Node7 -->
<g id="edge6" class="edge"><title>Node2&#45;&gt;Node7</title>
<path fill="none" stroke="midnightblue" d="M501.978,-64.8498C541.107,-54.2523 591.229,-40.6775 628.398,-30.6109"/>
<polygon fill="midnightblue" stroke="midnightblue" points="501.018,-61.4835 492.281,-67.476 502.848,-68.2401 501.018,-61.4835"/>
</g>
<!-- Node9 -->
<g id="node9" class="node"><title>Node9</title>
<g id="a_node9"><a xlink:href="GenevaIF_8cpp.html" target="_top" xlink:title="Optimizer/Geneva/GenevaIF.cpp">
<polygon fill="white" stroke="black" points="759.5,-6 759.5,-25 919.5,-25 919.5,-6 759.5,-6"/>
<text text-anchor="middle" x="839.5" y="-13" font-family="Helvetica,sans-Serif" font-size="10.00">Optimizer/Geneva/GenevaIF.cpp</text>
</a>
</g>
</g>
<!-- Node8&#45;&gt;Node9 -->
<g id="edge8" class="edge"><title>Node8&#45;&gt;Node9</title>
<path fill="none" stroke="midnightblue" d="M778.314,-66.2134C794.076,-53.407 816.007,-35.5884 828.882,-25.1273"/>
<polygon fill="midnightblue" stroke="midnightblue" points="775.843,-63.7114 770.289,-72.7338 780.257,-69.1443 775.843,-63.7114"/>
</g>
</g>
</svg>
