<?xml version="1.0" encoding="UTF-8" standalone="no"?>
<!DOCTYPE svg PUBLIC "-//W3C//DTD SVG 1.1//EN"
 "http://www.w3.org/Graphics/SVG/1.1/DTD/svg11.dtd">
<!-- Generated by graphviz version 2.38.0 (20140413.2041)
 -->
<!-- Title: Optimizer/Optimizer.hpp Pages: 1 -->
<svg width="490pt" height="207pt"
 viewBox="0.00 0.00 489.50 207.00" xmlns="http://www.w3.org/2000/svg" xmlns:xlink="http://www.w3.org/1999/xlink">
<g id="graph0" class="graph" transform="scale(1 1) rotate(0) translate(4 203)">
<title>Optimizer/Optimizer.hpp</title>
<polygon fill="white" stroke="none" points="-4,4 -4,-203 485.5,-203 485.5,4 -4,4"/>
<!-- Node1 -->
<g id="node1" class="node"><title>Node1</title>
<polygon fill="#bfbfbf" stroke="black" points="290.5,-179.5 290.5,-198.5 412.5,-198.5 412.5,-179.5 290.5,-179.5"/>
<text text-anchor="middle" x="351.5" y="-186.5" font-family="Helvetica,sans-Serif" font-size="10.00">Optimizer/Optimizer.hpp</text>
</g>
<!-- Node2 -->
<g id="node2" class="node"><title>Node2</title>
<g id="a_node2"><a xlink:href="FitParameter_8hpp.html" target="_top" xlink:title="Core/FitParameter.hpp">
<polygon fill="white" stroke="black" points="225.5,-123.5 225.5,-142.5 341.5,-142.5 341.5,-123.5 225.5,-123.5"/>
<text text-anchor="middle" x="283.5" y="-130.5" font-family="Helvetica,sans-Serif" font-size="10.00">Core/FitParameter.hpp</text>
</a>
</g>
</g>
<!-- Node1&#45;&gt;Node2 -->
<g id="edge1" class="edge"><title>Node1&#45;&gt;Node2</title>
<path fill="none" stroke="midnightblue" d="M340.575,-179.324C330.325,-171.185 314.779,-158.839 302.499,-149.087"/>
<polygon fill="midnightblue" stroke="midnightblue" points="304.632,-146.312 294.624,-142.834 300.279,-151.794 304.632,-146.312"/>
</g>
<!-- Node9 -->
<g id="node9" class="node"><title>Node9</title>
<g id="a_node9"><a xlink:href="Estimator_8hpp.html" target="_top" xlink:title="Estimator/Estimator.hpp">
<polygon fill="white" stroke="black" points="359.5,-123.5 359.5,-142.5 481.5,-142.5 481.5,-123.5 359.5,-123.5"/>
<text text-anchor="middle" x="420.5" y="-130.5" font-family="Helvetica,sans-Serif" font-size="10.00">Estimator/Estimator.hpp</text>
</a>
</g>
</g>
<!-- Node1&#45;&gt;Node9 -->
<g id="edge10" class="edge"><title>Node1&#45;&gt;Node9</title>
<path fill="none" stroke="midnightblue" d="M362.586,-179.324C372.986,-171.185 388.761,-158.839 401.222,-149.087"/>
<polygon fill="midnightblue" stroke="midnightblue" points="403.494,-151.753 409.212,-142.834 399.18,-146.241 403.494,-151.753"/>
</g>
<!-- Node3 -->
<g id="node3" class="node"><title>Node3</title>
<g id="a_node3"><a xlink:href="Function_8hpp.html" target="_top" xlink:title="Core/Function.hpp">
<polygon fill="white" stroke="red" points="372,-62 372,-81 469,-81 469,-62 372,-62"/>
<text text-anchor="middle" x="420.5" y="-69" font-family="Helvetica,sans-Serif" font-size="10.00">Core/Function.hpp</text>
</a>
</g>
</g>
<!-- Node2&#45;&gt;Node3 -->
<g id="edge2" class="edge"><title>Node2&#45;&gt;Node3</title>
<path fill="none" stroke="midnightblue" d="M303.129,-123.475C326.324,-113.401 365.119,-96.5525 391.713,-85.0023"/>
<polygon fill="midnightblue" stroke="midnightblue" points="393.13,-88.203 400.908,-81.0091 390.341,-81.7824 393.13,-88.203"/>
</g>
<!-- Node4 -->
<g id="node4" class="node"><title>Node4</title>
<polygon fill="white" stroke="#bfbfbf" points="386,-0.5 386,-19.5 427,-19.5 427,-0.5 386,-0.5"/>
<text text-anchor="middle" x="406.5" y="-7.5" font-family="Helvetica,sans-Serif" font-size="10.00">string</text>
</g>
<!-- Node2&#45;&gt;Node4 -->
<g id="edge7" class="edge"><title>Node2&#45;&gt;Node4</title>
<path fill="none" stroke="midnightblue" d="M292.346,-123.298C312.913,-103.066 364.19,-52.6217 390.45,-26.7893"/>
<polygon fill="midnightblue" stroke="midnightblue" points="393.06,-29.1312 397.734,-19.6232 388.151,-24.141 393.06,-29.1312"/>
</g>
<!-- Node5 -->
<g id="node5" class="node"><title>Node5</title>
<polygon fill="white" stroke="#bfbfbf" points="296.5,-0.5 296.5,-19.5 340.5,-19.5 340.5,-0.5 296.5,-0.5"/>
<text text-anchor="middle" x="318.5" y="-7.5" font-family="Helvetica,sans-Serif" font-size="10.00">vector</text>
</g>
<!-- Node2&#45;&gt;Node5 -->
<g id="edge8" class="edge"><title>Node2&#45;&gt;Node5</title>
<path fill="none" stroke="midnightblue" d="M286.017,-123.298C291.668,-103.763 305.465,-56.0646 313.135,-29.5471"/>
<polygon fill="midnightblue" stroke="midnightblue" points="316.589,-30.2019 316.006,-19.6232 309.865,-28.2568 316.589,-30.2019"/>
</g>
<!-- Node6 -->
<g id="node6" class="node"><title>Node6</title>
<g id="a_node6"><a xlink:href="Logging_8hpp.html" target="_top" xlink:title="Core/Logging.hpp">
<polygon fill="white" stroke="red" points="0,-62 0,-81 93,-81 93,-62 0,-62"/>
<text text-anchor="middle" x="46.5" y="-69" font-family="Helvetica,sans-Serif" font-size="10.00">Core/Logging.hpp</text>
</a>
</g>
</g>
<!-- Node2&#45;&gt;Node6 -->
<g id="edge5" class="edge"><title>Node2&#45;&gt;Node6</title>
<path fill="none" stroke="midnightblue" d="M248.776,-123.473C212.321,-114.496 153.344,-99.9026 102.5,-87 98.1667,-85.9004 93.6472,-84.7447 89.1371,-83.5858"/>
<polygon fill="midnightblue" stroke="midnightblue" points="89.9123,-80.1712 79.3552,-81.0639 88.1647,-86.9496 89.9123,-80.1712"/>
</g>
<!-- Node7 -->
<g id="node7" class="node"><title>Node7</title>
<polygon fill="white" stroke="#bfbfbf" points="111.5,-62 111.5,-81 163.5,-81 163.5,-62 111.5,-62"/>
<text text-anchor="middle" x="137.5" y="-69" font-family="Helvetica,sans-Serif" font-size="10.00">ostream</text>
</g>
<!-- Node2&#45;&gt;Node7 -->
<g id="edge6" class="edge"><title>Node2&#45;&gt;Node7</title>
<path fill="none" stroke="midnightblue" d="M262.201,-123.421C239.841,-114.402 203.67,-99.7748 172.5,-87 170.91,-86.3484 169.28,-85.6787 167.635,-85.0016"/>
<polygon fill="midnightblue" stroke="midnightblue" points="168.796,-81.6945 158.217,-81.1134 166.125,-88.1648 168.796,-81.6945"/>
</g>
<!-- Node8 -->
<g id="node8" class="node"><title>Node8</title>
<polygon fill="white" stroke="#bfbfbf" points="182,-56.5 182,-86.5 277,-86.5 277,-56.5 182,-56.5"/>
<text text-anchor="start" x="190" y="-74.5" font-family="Helvetica,sans-Serif" font-size="10.00">boost/serialization</text>
<text text-anchor="middle" x="229.5" y="-63.5" font-family="Helvetica,sans-Serif" font-size="10.00">/nvp.hpp</text>
</g>
<!-- Node2&#45;&gt;Node8 -->
<g id="edge9" class="edge"><title>Node2&#45;&gt;Node8</title>
<path fill="none" stroke="midnightblue" d="M275.763,-123.475C268.791,-115.793 258.244,-104.172 248.98,-93.9643"/>
<polygon fill="midnightblue" stroke="midnightblue" points="251.539,-91.5758 242.227,-86.523 246.356,-96.2802 251.539,-91.5758"/>
</g>
<!-- Node3&#45;&gt;Node4 -->
<g id="edge3" class="edge"><title>Node3&#45;&gt;Node4</title>
<path fill="none" stroke="midnightblue" d="M418.494,-61.9751C416.498,-53.4919 413.372,-40.2043 410.811,-29.3222"/>
<polygon fill="midnightblue" stroke="midnightblue" points="414.2,-28.4416 408.502,-19.5091 407.386,-30.0449 414.2,-28.4416"/>
</g>
<!-- Node3&#45;&gt;Node5 -->
<g id="edge4" class="edge"><title>Node3&#45;&gt;Node5</title>
<path fill="none" stroke="midnightblue" d="M405.886,-61.9751C389.147,-52.2106 361.496,-36.0807 341.781,-24.5808"/>
<polygon fill="midnightblue" stroke="midnightblue" points="343.488,-21.5246 333.087,-19.5091 339.961,-27.5711 343.488,-21.5246"/>
</g>
<!-- Node9&#45;&gt;Node3 -->
<g id="edge11" class="edge"><title>Node9&#45;&gt;Node3</title>
<path fill="none" stroke="midnightblue" d="M420.5,-123.475C420.5,-115.08 420.5,-101.981 420.5,-91.1631"/>
<polygon fill="midnightblue" stroke="midnightblue" points="424,-91.0091 420.5,-81.0091 417,-91.0091 424,-91.0091"/>
</g>
</g>
</svg>
