<?xml version="1.0" encoding="UTF-8" standalone="no"?>
<!DOCTYPE svg PUBLIC "-//W3C//DTD SVG 1.1//EN"
 "http://www.w3.org/Graphics/SVG/1.1/DTD/svg11.dtd">
<!-- Generated by graphviz version 2.38.0 (20140413.2041)
 -->
<!-- Title: Core/FunctionTree/Parameter.hpp Pages: 1 -->
<svg width="1154pt" height="95pt"
 viewBox="0.00 0.00 1153.50 95.00" xmlns="http://www.w3.org/2000/svg" xmlns:xlink="http://www.w3.org/1999/xlink">
<g id="graph0" class="graph" transform="scale(1 1) rotate(0) translate(4 91)">
<title>Core/FunctionTree/Parameter.hpp</title>
<polygon fill="white" stroke="none" points="-4,4 -4,-91 1149.5,-91 1149.5,4 -4,4"/>
<!-- Node1 -->
<g id="node1" class="node"><title>Node1</title>
<polygon fill="#bfbfbf" stroke="black" points="347,-67.5 347,-86.5 511,-86.5 511,-67.5 347,-67.5"/>
<text text-anchor="middle" x="429" y="-74.5" font-family="Helvetica,sans-Serif" font-size="10.00">Core/FunctionTree/Parameter.hpp</text>
</g>
<!-- Node2 -->
<g id="node2" class="node"><title>Node2</title>
<polygon fill="white" stroke="#bfbfbf" points="0,-6 0,-25 56,-25 56,-6 0,-6"/>
<text text-anchor="middle" x="28" y="-13" font-family="Helvetica,sans-Serif" font-size="10.00">algorithm</text>
</g>
<!-- Node1&#45;&gt;Node2 -->
<g id="edge1" class="edge"><title>Node1&#45;&gt;Node2</title>
<path fill="none" stroke="midnightblue" d="M346.961,-71.7362C272.47,-66.4845 160.054,-55.0942 65,-31 62.3333,-30.324 59.5996,-29.5069 56.8845,-28.6089"/>
<polygon fill="midnightblue" stroke="midnightblue" points="57.8799,-25.2465 47.2859,-25.1104 55.4828,-31.8233 57.8799,-25.2465"/>
</g>
<!-- Node3 -->
<g id="node3" class="node"><title>Node3</title>
<polygon fill="white" stroke="#bfbfbf" points="74.5,-6 74.5,-25 127.5,-25 127.5,-6 74.5,-6"/>
<text text-anchor="middle" x="101" y="-13" font-family="Helvetica,sans-Serif" font-size="10.00">complex</text>
</g>
<!-- Node1&#45;&gt;Node3 -->
<g id="edge2" class="edge"><title>Node1&#45;&gt;Node3</title>
<path fill="none" stroke="midnightblue" d="M346.758,-68.435C287.663,-61.7683 206.496,-50.0767 137,-31 134.498,-30.3133 131.935,-29.5052 129.385,-28.6278"/>
<polygon fill="midnightblue" stroke="midnightblue" points="130.367,-25.2578 119.775,-25.01 127.901,-31.8089 130.367,-25.2578"/>
</g>
<!-- Node4 -->
<g id="node4" class="node"><title>Node4</title>
<polygon fill="white" stroke="#bfbfbf" points="146,-6 146,-25 196,-25 196,-6 146,-6"/>
<text text-anchor="middle" x="171" y="-13" font-family="Helvetica,sans-Serif" font-size="10.00">fstream</text>
</g>
<!-- Node1&#45;&gt;Node4 -->
<g id="edge3" class="edge"><title>Node1&#45;&gt;Node4</title>
<path fill="none" stroke="midnightblue" d="M369.692,-67.4875C324.057,-60.1249 259.746,-47.9759 205,-31 202.859,-30.336 200.668,-29.5831 198.483,-28.7781"/>
<polygon fill="midnightblue" stroke="midnightblue" points="199.678,-25.4869 189.094,-25.0279 197.082,-31.9875 199.678,-25.4869"/>
</g>
<!-- Node5 -->
<g id="node5" class="node"><title>Node5</title>
<polygon fill="white" stroke="#bfbfbf" points="214,-6 214,-25 266,-25 266,-6 214,-6"/>
<text text-anchor="middle" x="240" y="-13" font-family="Helvetica,sans-Serif" font-size="10.00">memory</text>
</g>
<!-- Node1&#45;&gt;Node5 -->
<g id="edge4" class="edge"><title>Node1&#45;&gt;Node5</title>
<path fill="none" stroke="midnightblue" d="M395.926,-67.4513C364.516,-59.0709 316.118,-45.4767 275,-31 273.092,-30.3283 271.138,-29.6088 269.176,-28.8626"/>
<polygon fill="midnightblue" stroke="midnightblue" points="270.063,-25.4489 259.477,-25.0076 267.477,-31.9539 270.063,-25.4489"/>
</g>
<!-- Node6 -->
<g id="node6" class="node"><title>Node6</title>
<polygon fill="white" stroke="#bfbfbf" points="284.5,-6 284.5,-25 325.5,-25 325.5,-6 284.5,-6"/>
<text text-anchor="middle" x="305" y="-13" font-family="Helvetica,sans-Serif" font-size="10.00">string</text>
</g>
<!-- Node1&#45;&gt;Node6 -->
<g id="edge5" class="edge"><title>Node1&#45;&gt;Node6</title>
<path fill="none" stroke="midnightblue" d="M410.97,-67.3932C392.04,-58.3511 361.414,-43.7057 335,-31 334.01,-30.5236 333.001,-30.038 331.982,-29.5472"/>
<polygon fill="midnightblue" stroke="midnightblue" points="333.289,-26.2918 322.762,-25.0984 330.247,-32.5963 333.289,-26.2918"/>
</g>
<!-- Node7 -->
<g id="node7" class="node"><title>Node7</title>
<polygon fill="white" stroke="#bfbfbf" points="344,-6 344,-25 388,-25 388,-6 344,-6"/>
<text text-anchor="middle" x="366" y="-13" font-family="Helvetica,sans-Serif" font-size="10.00">vector</text>
</g>
<!-- Node1&#45;&gt;Node7 -->
<g id="edge6" class="edge"><title>Node1&#45;&gt;Node7</title>
<path fill="none" stroke="midnightblue" d="M419.974,-67.4751C410.243,-58.285 394.542,-43.4563 382.577,-32.156"/>
<polygon fill="midnightblue" stroke="midnightblue" points="384.683,-29.3308 375.01,-25.0091 379.877,-34.4199 384.683,-29.3308"/>
</g>
<!-- Node8 -->
<g id="node8" class="node"><title>Node8</title>
<g id="a_node8"><a xlink:href="ParObserver_8hpp.html" target="_top" xlink:title="ParObserver class. ">
<polygon fill="white" stroke="black" points="406,-6 406,-25 580,-25 580,-6 406,-6"/>
<text text-anchor="middle" x="493" y="-13" font-family="Helvetica,sans-Serif" font-size="10.00">Core/FunctionTree/ParObserver.hpp</text>
</a>
</g>
</g>
<!-- Node1&#45;&gt;Node8 -->
<g id="edge7" class="edge"><title>Node1&#45;&gt;Node8</title>
<path fill="none" stroke="midnightblue" d="M438.17,-67.4751C448.15,-58.1966 464.312,-43.1706 476.509,-31.831"/>
<polygon fill="midnightblue" stroke="midnightblue" points="478.907,-34.3814 483.847,-25.0091 474.14,-29.2547 478.907,-34.3814"/>
</g>
<!-- Node9 -->
<g id="node9" class="node"><title>Node9</title>
<polygon fill="white" stroke="#bfbfbf" points="598.5,-0.5 598.5,-30.5 693.5,-30.5 693.5,-0.5 598.5,-0.5"/>
<text text-anchor="start" x="606.5" y="-18.5" font-family="Helvetica,sans-Serif" font-size="10.00">boost/serialization</text>
<text text-anchor="middle" x="646" y="-7.5" font-family="Helvetica,sans-Serif" font-size="10.00">/level.hpp</text>
</g>
<!-- Node1&#45;&gt;Node9 -->
<g id="edge8" class="edge"><title>Node1&#45;&gt;Node9</title>
<path fill="none" stroke="midnightblue" d="M460.091,-67.4751C493.437,-58.3319 547.137,-43.6077 588.269,-32.3295"/>
<polygon fill="midnightblue" stroke="midnightblue" points="589.45,-35.6349 598.169,-29.6151 587.599,-28.8841 589.45,-35.6349"/>
</g>
<!-- Node10 -->
<g id="node10" class="node"><title>Node10</title>
<polygon fill="white" stroke="#bfbfbf" points="711.5,-0.5 711.5,-30.5 806.5,-30.5 806.5,-0.5 711.5,-0.5"/>
<text text-anchor="start" x="719.5" y="-18.5" font-family="Helvetica,sans-Serif" font-size="10.00">boost/serialization</text>
<text text-anchor="middle" x="759" y="-7.5" font-family="Helvetica,sans-Serif" font-size="10.00">/nvp.hpp</text>
</g>
<!-- Node1&#45;&gt;Node10 -->
<g id="edge9" class="edge"><title>Node1&#45;&gt;Node10</title>
<path fill="none" stroke="midnightblue" d="M490.782,-67.4863C544.225,-59.7505 623.749,-47.3548 701.452,-31.2253"/>
<polygon fill="midnightblue" stroke="midnightblue" points="702.343,-34.6148 711.41,-29.1353 700.905,-27.764 702.343,-34.6148"/>
</g>
<!-- Node11 -->
<g id="node11" class="node"><title>Node11</title>
<polygon fill="white" stroke="#bfbfbf" points="824.5,-0.5 824.5,-30.5 919.5,-30.5 919.5,-0.5 824.5,-0.5"/>
<text text-anchor="start" x="832.5" y="-18.5" font-family="Helvetica,sans-Serif" font-size="10.00">boost/serialization</text>
<text text-anchor="middle" x="872" y="-7.5" font-family="Helvetica,sans-Serif" font-size="10.00">/serialization.hpp</text>
</g>
<!-- Node1&#45;&gt;Node11 -->
<g id="edge10" class="edge"><title>Node1&#45;&gt;Node11</title>
<path fill="none" stroke="midnightblue" d="M511.03,-69.7592C587.399,-63.1963 704.503,-51.2165 814.502,-31.1304"/>
<polygon fill="midnightblue" stroke="midnightblue" points="815.246,-34.5523 824.441,-29.2896 813.971,-27.6694 815.246,-34.5523"/>
</g>
<!-- Node12 -->
<g id="node12" class="node"><title>Node12</title>
<polygon fill="white" stroke="#bfbfbf" points="937.5,-0.5 937.5,-30.5 1032.5,-30.5 1032.5,-0.5 937.5,-0.5"/>
<text text-anchor="start" x="945.5" y="-18.5" font-family="Helvetica,sans-Serif" font-size="10.00">boost/serialization</text>
<text text-anchor="middle" x="985" y="-7.5" font-family="Helvetica,sans-Serif" font-size="10.00">/shared_ptr.hpp</text>
</g>
<!-- Node1&#45;&gt;Node12 -->
<g id="edge11" class="edge"><title>Node1&#45;&gt;Node12</title>
<path fill="none" stroke="midnightblue" d="M511.382,-72.719C608.792,-67.9107 775.854,-56.7509 927.492,-31.0867"/>
<polygon fill="midnightblue" stroke="midnightblue" points="928.193,-34.5175 937.457,-29.3752 927.008,-27.6185 928.193,-34.5175"/>
</g>
<!-- Node13 -->
<g id="node13" class="node"><title>Node13</title>
<polygon fill="white" stroke="#bfbfbf" points="1050.5,-0.5 1050.5,-30.5 1145.5,-30.5 1145.5,-0.5 1050.5,-0.5"/>
<text text-anchor="start" x="1058.5" y="-18.5" font-family="Helvetica,sans-Serif" font-size="10.00">boost/serialization</text>
<text text-anchor="middle" x="1098" y="-7.5" font-family="Helvetica,sans-Serif" font-size="10.00">/tracking.hpp</text>
</g>
<!-- Node1&#45;&gt;Node13 -->
<g id="edge12" class="edge"><title>Node1&#45;&gt;Node13</title>
<path fill="none" stroke="midnightblue" d="M511.355,-74.6524C627.532,-71.7082 846.161,-62.3419 1040.36,-31.0801"/>
<polygon fill="midnightblue" stroke="midnightblue" points="1041.16,-34.4957 1050.47,-29.4295 1040.03,-27.5872 1041.16,-34.4957"/>
</g>
</g>
</svg>
