<?xml version="1.0" encoding="UTF-8" standalone="no"?>
<!DOCTYPE svg PUBLIC "-//W3C//DTD SVG 1.1//EN"
 "http://www.w3.org/Graphics/SVG/1.1/DTD/svg11.dtd">
<!-- Generated by graphviz version 2.38.0 (20140413.2041)
 -->
<!-- Title: Core/FunctionTree/ParameterList.cpp Pages: 1 -->
<!--zoomable 408 -->
<svg id="main" version="1.1" xmlns="http://www.w3.org/2000/svg" xmlns:xlink="http://www.w3.org/1999/xlink" xml:space="preserve" onload="init(evt)">
<style type="text/css"><![CDATA[
.edge:hover path { stroke: red; }
.edge:hover polygon { stroke: red; fill: red; }
]]></style>
<script type="text/javascript"><![CDATA[
var edges = document.getElementsByTagName('g');
if (edges && edges.length) {
  for (var i=0;i<edges.length;i++) {
    if (edges[i].id.substr(0,4)=='edge') {
      edges[i].setAttribute('class','edge');
    }
  }
}
]]></script>
        <defs>
                <circle id="rim" cx="0" cy="0" r="7"/>
                <circle id="rim2" cx="0" cy="0" r="3.5"/>
                <g id="zoomPlus">
                        <use xlink:href="#rim" fill="#404040">
                                <set attributeName="fill" to="#808080" begin="zoomplus.mouseover" end="zoomplus.mouseout"/>
                        </use>
                        <path d="M-4,0h8M0,-4v8" fill="none" stroke="white" stroke-width="1.5" pointer-events="none"/>
                </g>
                <g id="zoomMin">
                        <use xlink:href="#rim" fill="#404040">
                                <set attributeName="fill" to="#808080" begin="zoomminus.mouseover" end="zoomminus.mouseout"/>
                        </use>
                        <path d="M-4,0h8" fill="none" stroke="white" stroke-width="1.5" pointer-events="none"/>
                </g>
                <g id="dirArrow">
                        <path fill="none" stroke="white" stroke-width="1.5" d="M0,-3.0v7 M-2.5,-0.5L0,-3.0L2.5,-0.5"/>
                </g>
               <g id="resetDef">
                       <use xlink:href="#rim2" fill="#404040">
                               <set attributeName="fill" to="#808080" begin="reset.mouseover" end="reset.mouseout"/>
                       </use>
               </g>
        </defs>

<script type="text/javascript">
var viewWidth = 1458;
var viewHeight = 408;
var sectionId = 'dynsection-0';
</script>
<script xlink:href="svgpan.js"/>
<svg id="graph" class="graph">
<g id="viewport">
<title>Core/FunctionTree/ParameterList.cpp</title>
<polygon fill="white" stroke="none" points="-4,4 -4,-404 1454,-404 1454,4 -4,4"/>
<!-- Node1 -->
<g id="node1" class="node"><title>Node1</title>
<polygon fill="#bfbfbf" stroke="black" points="87,-369.5 87,-399.5 233,-399.5 233,-369.5 87,-369.5"/>
<text text-anchor="start" x="95" y="-387.5" font-family="Helvetica,sans-Serif" font-size="10.00">Core/FunctionTree/Parameter</text>
<text text-anchor="middle" x="160" y="-376.5" font-family="Helvetica,sans-Serif" font-size="10.00">List.cpp</text>
</g>
<!-- Node2 -->
<g id="node2" class="node"><title>Node2</title>
<polygon fill="white" stroke="#bfbfbf" points="256,-129 256,-148 310,-148 310,-129 256,-129"/>
<text text-anchor="middle" x="283" y="-136" font-family="Helvetica,sans-Serif" font-size="10.00">iostream</text>
</g>
<!-- Node1&#45;&gt;Node2 -->
<g id="edge1" class="edge"><title>Node1&#45;&gt;Node2</title>
<path fill="none" stroke="midnightblue" d="M151.539,-369.393C137.203,-343.505 111.68,-287.285 133,-246 157.379,-198.792 213.417,-167.965 249.673,-152.165"/>
<polygon fill="midnightblue" stroke="midnightblue" points="251.468,-155.207 259.331,-148.105 248.756,-148.753 251.468,-155.207"/>
</g>
<!-- Node3 -->
<g id="node3" class="node"><title>Node3</title>
<polygon fill="white" stroke="#bfbfbf" points="142.5,-252 142.5,-271 177.5,-271 177.5,-252 142.5,-252"/>
<text text-anchor="middle" x="160" y="-259" font-family="Helvetica,sans-Serif" font-size="10.00">map</text>
</g>
<!-- Node1&#45;&gt;Node3 -->
<g id="edge2" class="edge"><title>Node1&#45;&gt;Node3</title>
<path fill="none" stroke="midnightblue" d="M160,-369.145C160,-347.203 160,-305.327 160,-281.091"/>
<polygon fill="midnightblue" stroke="midnightblue" points="163.5,-281.052 160,-271.052 156.5,-281.052 163.5,-281.052"/>
</g>
<!-- Node4 -->
<g id="node4" class="node"><title>Node4</title>
<polygon fill="white" stroke="#bfbfbf" points="148,-62 148,-81 200,-81 200,-62 148,-62"/>
<text text-anchor="middle" x="174" y="-69" font-family="Helvetica,sans-Serif" font-size="10.00">memory</text>
</g>
<!-- Node1&#45;&gt;Node4 -->
<g id="edge3" class="edge"><title>Node1&#45;&gt;Node4</title>
<path fill="none" stroke="midnightblue" d="M128.899,-369.376C92.753,-350.578 38,-313.661 38,-262.5 38,-262.5 38,-262.5 38,-199 38,-164.183 34.4596,-149.536 57,-123 60.0146,-119.451 109.679,-98.7238 143.323,-84.951"/>
<polygon fill="midnightblue" stroke="midnightblue" points="144.822,-88.1193 152.757,-81.0989 142.176,-81.6386 144.822,-88.1193"/>
</g>
<!-- Node5 -->
<g id="node5" class="node"><title>Node5</title>
<polygon fill="white" stroke="#bfbfbf" points="1119.5,-0.5 1119.5,-19.5 1160.5,-19.5 1160.5,-0.5 1119.5,-0.5"/>
<text text-anchor="middle" x="1140" y="-7.5" font-family="Helvetica,sans-Serif" font-size="10.00">string</text>
</g>
<!-- Node1&#45;&gt;Node5 -->
<g id="edge4" class="edge"><title>Node1&#45;&gt;Node5</title>
<path fill="none" stroke="midnightblue" d="M233.245,-384.202C397.708,-384.809 808.505,-380.912 1148,-333 1284.48,-313.739 1450,-400.331 1450,-262.5 1450,-262.5 1450,-262.5 1450,-137.5 1450,-95.0044 1435.17,-79.8524 1400,-56 1362.98,-30.8947 1231.16,-17.9063 1170.7,-13.157"/>
<polygon fill="midnightblue" stroke="midnightblue" points="1170.85,-9.65875 1160.62,-12.3898 1170.32,-16.6386 1170.85,-9.65875"/>
</g>
<!-- Node6 -->
<g id="node6" class="node"><title>Node6</title>
<polygon fill="white" stroke="#bfbfbf" points="282,-0.5 282,-19.5 326,-19.5 326,-0.5 282,-0.5"/>
<text text-anchor="middle" x="304" y="-7.5" font-family="Helvetica,sans-Serif" font-size="10.00">vector</text>
</g>
<!-- Node1&#45;&gt;Node6 -->
<g id="edge5" class="edge"><title>Node1&#45;&gt;Node6</title>
<path fill="none" stroke="midnightblue" d="M111.125,-369.359C64.0723,-352.387 0,-318.919 0,-262.5 0,-262.5 0,-262.5 0,-137.5 0,-98.0789 3.99,-80.3394 35,-56 71.2667,-27.5347 208.012,-16.3368 271.386,-12.6074"/>
<polygon fill="midnightblue" stroke="midnightblue" points="271.826,-16.0883 281.614,-12.0332 271.434,-9.09929 271.826,-16.0883"/>
</g>
<!-- Node7 -->
<g id="node7" class="node"><title>Node7</title>
<g id="a_node7"><a xlink:href="Exceptions_8hpp.html" target="_top" xlink:title="ComPWA exceptions. ">
<polygon fill="white" stroke="black" points="1314,-129 1314,-148 1422,-148 1422,-129 1314,-129"/>
<text text-anchor="middle" x="1368" y="-136" font-family="Helvetica,sans-Serif" font-size="10.00">Core/Exceptions.hpp</text>
</a>
</g>
</g>
<!-- Node1&#45;&gt;Node7 -->
<g id="edge6" class="edge"><title>Node1&#45;&gt;Node7</title>
<path fill="none" stroke="midnightblue" d="M233.19,-381.487C475.499,-374.189 1241.07,-345.839 1326,-277 1362.11,-247.733 1367.91,-188.293 1368.39,-158.059"/>
<polygon fill="midnightblue" stroke="midnightblue" points="1371.89,-158.017 1368.36,-148.026 1364.89,-158.035 1371.89,-158.017"/>
</g>
<!-- Node9 -->
<g id="node9" class="node"><title>Node9</title>
<g id="a_node9"><a xlink:href="DataSet_8hpp.html" target="_top" xlink:title="Data/DataSet.hpp">
<polygon fill="white" stroke="black" points="66.5,-129 66.5,-148 161.5,-148 161.5,-129 66.5,-129"/>
<text text-anchor="middle" x="114" y="-136" font-family="Helvetica,sans-Serif" font-size="10.00">Data/DataSet.hpp</text>
</a>
</g>
</g>
<!-- Node1&#45;&gt;Node9 -->
<g id="edge9" class="edge"><title>Node1&#45;&gt;Node9</title>
<path fill="none" stroke="midnightblue" d="M134.587,-369.484C121.654,-360.832 107.181,-348.43 100,-333 72.4386,-273.778 94.6712,-193.234 107.071,-157.662"/>
<polygon fill="midnightblue" stroke="midnightblue" points="110.405,-158.733 110.537,-148.139 103.828,-156.339 110.405,-158.733"/>
</g>
<!-- Node12 -->
<g id="node12" class="node"><title>Node12</title>
<g id="a_node12"><a xlink:href="FunctionTree_2FitParameter_8hpp.html" target="_top" xlink:title="Implementations of Parameter for various data types. ">
<polygon fill="white" stroke="black" points="864,-190.5 864,-209.5 956,-209.5 956,-190.5 864,-190.5"/>
<text text-anchor="middle" x="910" y="-197.5" font-family="Helvetica,sans-Serif" font-size="10.00">FitParameter.hpp</text>
</a>
</g>
</g>
<!-- Node1&#45;&gt;Node12 -->
<g id="edge16" class="edge"><title>Node1&#45;&gt;Node12</title>
<path fill="none" stroke="midnightblue" d="M233.045,-380.778C443.113,-372.191 1037.41,-342.282 1093,-277 1131.82,-231.409 1033.25,-212.68 966.17,-205.362"/>
<polygon fill="midnightblue" stroke="midnightblue" points="966.418,-201.869 956.112,-204.323 965.699,-208.832 966.418,-201.869"/>
</g>
<!-- Node23 -->
<g id="node23" class="node"><title>Node23</title>
<g id="a_node23"><a xlink:href="ParameterList_8hpp.html" target="_top" xlink:title="ParameterList class. ">
<polygon fill="white" stroke="black" points="641,-313.5 641,-332.5 737,-332.5 737,-313.5 641,-313.5"/>
<text text-anchor="middle" x="689" y="-320.5" font-family="Helvetica,sans-Serif" font-size="10.00">ParameterList.hpp</text>
</a>
</g>
</g>
<!-- Node1&#45;&gt;Node23 -->
<g id="edge38" class="edge"><title>Node1&#45;&gt;Node23</title>
<path fill="none" stroke="midnightblue" d="M233.277,-375.258C339.333,-363.329 533.506,-341.489 630.552,-330.574"/>
<polygon fill="midnightblue" stroke="midnightblue" points="631.218,-334.021 640.764,-329.425 630.436,-327.065 631.218,-334.021"/>
</g>
<!-- Node7&#45;&gt;Node5 -->
<g id="edge8" class="edge"><title>Node7&#45;&gt;Node5</title>
<path fill="none" stroke="midnightblue" d="M1373.49,-128.74C1382.93,-112.443 1399.62,-77.198 1382,-56 1355.51,-24.1336 1230.28,-14.7234 1171.11,-12.0335"/>
<polygon fill="midnightblue" stroke="midnightblue" points="1171.01,-8.52616 1160.87,-11.6055 1170.71,-15.5201 1171.01,-8.52616"/>
</g>
<!-- Node8 -->
<g id="node8" class="node"><title>Node8</title>
<polygon fill="white" stroke="#bfbfbf" points="1314.5,-62 1314.5,-81 1373.5,-81 1373.5,-62 1314.5,-62"/>
<text text-anchor="middle" x="1344" y="-69" font-family="Helvetica,sans-Serif" font-size="10.00">exception</text>
</g>
<!-- Node7&#45;&gt;Node8 -->
<g id="edge7" class="edge"><title>Node7&#45;&gt;Node8</title>
<path fill="none" stroke="midnightblue" d="M1364.76,-128.734C1361.16,-118.988 1355.25,-102.981 1350.66,-90.5318"/>
<polygon fill="midnightblue" stroke="midnightblue" points="1353.93,-89.2959 1347.19,-81.1273 1347.37,-91.7206 1353.93,-89.2959"/>
</g>
<!-- Node9&#45;&gt;Node4 -->
<g id="edge10" class="edge"><title>Node9&#45;&gt;Node4</title>
<path fill="none" stroke="midnightblue" d="M122.092,-128.734C131.538,-118.5 147.356,-101.364 159.053,-88.6924"/>
<polygon fill="midnightblue" stroke="midnightblue" points="161.825,-90.8494 166.036,-81.1273 156.682,-86.1014 161.825,-90.8494"/>
</g>
<!-- Node10 -->
<g id="node10" class="node"><title>Node10</title>
<g id="a_node10"><a xlink:href="Event_8hpp.html" target="_top" xlink:title="Core/Event.hpp">
<polygon fill="white" stroke="red" points="44.5,-62 44.5,-81 129.5,-81 129.5,-62 44.5,-62"/>
<text text-anchor="middle" x="87" y="-69" font-family="Helvetica,sans-Serif" font-size="10.00">Core/Event.hpp</text>
</a>
</g>
</g>
<!-- Node9&#45;&gt;Node10 -->
<g id="edge11" class="edge"><title>Node9&#45;&gt;Node10</title>
<path fill="none" stroke="midnightblue" d="M110.359,-128.734C106.31,-118.988 99.6611,-102.981 94.4901,-90.5318"/>
<polygon fill="midnightblue" stroke="midnightblue" points="97.652,-89.0196 90.5836,-81.1273 91.1875,-91.7049 97.652,-89.0196"/>
</g>
<!-- Node11 -->
<g id="node11" class="node"><title>Node11</title>
<g id="a_node11"><a xlink:href="Function_8hpp.html" target="_top" xlink:title="Core/Function.hpp">
<polygon fill="white" stroke="red" points="408.5,-62 408.5,-81 505.5,-81 505.5,-62 408.5,-62"/>
<text text-anchor="middle" x="457" y="-69" font-family="Helvetica,sans-Serif" font-size="10.00">Core/Function.hpp</text>
</a>
</g>
</g>
<!-- Node9&#45;&gt;Node11 -->
<g id="edge13" class="edge"><title>Node9&#45;&gt;Node11</title>
<path fill="none" stroke="midnightblue" d="M159.194,-128.936C221.744,-117.082 334.596,-95.6961 401.975,-82.9276"/>
<polygon fill="midnightblue" stroke="midnightblue" points="402.805,-86.3325 411.979,-81.0317 401.502,-79.4549 402.805,-86.3325"/>
</g>
<!-- Node10&#45;&gt;Node6 -->
<g id="edge12" class="edge"><title>Node10&#45;&gt;Node6</title>
<path fill="none" stroke="midnightblue" d="M117.513,-61.9603C124.567,-59.9948 132.043,-57.9186 139,-56 185.103,-43.2854 238.509,-28.7565 271.779,-19.7295"/>
<polygon fill="midnightblue" stroke="midnightblue" points="273.103,-22.9969 281.838,-17.0013 271.27,-16.241 273.103,-22.9969"/>
</g>
<!-- Node11&#45;&gt;Node5 -->
<g id="edge14" class="edge"><title>Node11&#45;&gt;Node5</title>
<path fill="none" stroke="midnightblue" d="M489.841,-61.9364C499.498,-59.6915 510.122,-57.4862 520,-56 744.333,-22.2477 1018.28,-13.5841 1109.11,-11.5646"/>
<polygon fill="midnightblue" stroke="midnightblue" points="1109.34,-15.0606 1119.27,-11.35 1109.2,-8.06217 1109.34,-15.0606"/>
</g>
<!-- Node11&#45;&gt;Node6 -->
<g id="edge15" class="edge"><title>Node11&#45;&gt;Node6</title>
<path fill="none" stroke="midnightblue" d="M435.079,-61.9751C408.948,-51.8129 365.088,-34.7564 335.37,-23.1996"/>
<polygon fill="midnightblue" stroke="midnightblue" points="336.469,-19.8716 325.881,-19.5091 333.932,-26.3956 336.469,-19.8716"/>
</g>
<!-- Node12&#45;&gt;Node2 -->
<g id="edge19" class="edge"><title>Node12&#45;&gt;Node2</title>
<path fill="none" stroke="midnightblue" d="M863.927,-197.003C768.823,-192.495 544.018,-179.849 357,-154 344.964,-152.336 331.928,-149.973 320.2,-147.636"/>
<polygon fill="midnightblue" stroke="midnightblue" points="320.787,-144.184 310.288,-145.608 319.383,-151.042 320.787,-144.184"/>
</g>
<!-- Node12&#45;&gt;Node5 -->
<g id="edge22" class="edge"><title>Node12&#45;&gt;Node5</title>
<path fill="none" stroke="midnightblue" d="M956.352,-193.387C1005.73,-186.502 1079.54,-173.315 1100,-154 1134.91,-121.046 1140.2,-60.3728 1140.49,-29.7409"/>
<polygon fill="midnightblue" stroke="midnightblue" points="1143.98,-29.5635 1140.4,-19.5923 1136.98,-29.6205 1143.98,-29.5635"/>
</g>
<!-- Node12&#45;&gt;Node7 -->
<g id="edge25" class="edge"><title>Node12&#45;&gt;Node7</title>
<path fill="none" stroke="midnightblue" d="M956.012,-193.022C1038.11,-182.357 1210.01,-160.025 1303.73,-147.85"/>
<polygon fill="midnightblue" stroke="midnightblue" points="1304.46,-151.284 1313.93,-146.525 1303.56,-144.342 1304.46,-151.284"/>
</g>
<!-- Node13 -->
<g id="node13" class="node"><title>Node13</title>
<polygon fill="white" stroke="#bfbfbf" points="720,-129 720,-148 764,-148 764,-129 720,-129"/>
<text text-anchor="middle" x="742" y="-136" font-family="Helvetica,sans-Serif" font-size="10.00">cmath</text>
</g>
<!-- Node12&#45;&gt;Node13 -->
<g id="edge17" class="edge"><title>Node12&#45;&gt;Node13</title>
<path fill="none" stroke="midnightblue" d="M880.506,-190.434C852.512,-182.042 809.422,-168.439 773,-154 771.585,-153.439 770.142,-152.845 768.692,-152.23"/>
<polygon fill="midnightblue" stroke="midnightblue" points="769.777,-148.882 759.219,-148.001 766.924,-155.274 769.777,-148.882"/>
</g>
<!-- Node14 -->
<g id="node14" class="node"><title>Node14</title>
<polygon fill="white" stroke="#bfbfbf" points="562.5,-62 562.5,-81 615.5,-81 615.5,-62 562.5,-62"/>
<text text-anchor="middle" x="589" y="-69" font-family="Helvetica,sans-Serif" font-size="10.00">complex</text>
</g>
<!-- Node12&#45;&gt;Node14 -->
<g id="edge18" class="edge"><title>Node12&#45;&gt;Node14</title>
<path fill="none" stroke="midnightblue" d="M863.912,-199.881C781.422,-200.364 613.71,-196.005 577,-154 561.753,-136.555 570.609,-108.552 579.167,-90.3392"/>
<polygon fill="midnightblue" stroke="midnightblue" points="582.322,-91.8575 583.737,-81.3576 576.083,-88.6834 582.322,-91.8575"/>
</g>
<!-- Node15 -->
<g id="node15" class="node"><title>Node15</title>
<polygon fill="white" stroke="#bfbfbf" points="1168,-129 1168,-148 1220,-148 1220,-129 1168,-129"/>
<text text-anchor="middle" x="1194" y="-136" font-family="Helvetica,sans-Serif" font-size="10.00">sstream</text>
</g>
<!-- Node12&#45;&gt;Node15 -->
<g id="edge20" class="edge"><title>Node12&#45;&gt;Node15</title>
<path fill="none" stroke="midnightblue" d="M956.38,-192.781C1005.85,-185.608 1086.24,-172.394 1154,-154 1156.81,-153.238 1159.7,-152.367 1162.58,-151.44"/>
<polygon fill="midnightblue" stroke="midnightblue" points="1163.88,-154.694 1172.2,-148.14 1161.61,-148.072 1163.88,-154.694"/>
</g>
<!-- Node16 -->
<g id="node16" class="node"><title>Node16</title>
<polygon fill="white" stroke="#bfbfbf" points="782.5,-129 782.5,-148 841.5,-148 841.5,-129 782.5,-129"/>
<text text-anchor="middle" x="812" y="-136" font-family="Helvetica,sans-Serif" font-size="10.00">stdexcept</text>
</g>
<!-- Node12&#45;&gt;Node16 -->
<g id="edge21" class="edge"><title>Node12&#45;&gt;Node16</title>
<path fill="none" stroke="midnightblue" d="M895.959,-190.475C879.949,-180.755 853.55,-164.727 834.626,-153.237"/>
<polygon fill="midnightblue" stroke="midnightblue" points="836.379,-150.207 826.015,-148.009 832.746,-156.191 836.379,-150.207"/>
</g>
<!-- Node17 -->
<g id="node17" class="node"><title>Node17</title>
<polygon fill="white" stroke="#bfbfbf" points="859.5,-123.5 859.5,-153.5 960.5,-153.5 960.5,-123.5 859.5,-123.5"/>
<text text-anchor="start" x="867.5" y="-141.5" font-family="Helvetica,sans-Serif" font-size="10.00">boost/property_tree</text>
<text text-anchor="middle" x="910" y="-130.5" font-family="Helvetica,sans-Serif" font-size="10.00">/ptree_fwd.hpp</text>
</g>
<!-- Node12&#45;&gt;Node17 -->
<g id="edge23" class="edge"><title>Node12&#45;&gt;Node17</title>
<path fill="none" stroke="midnightblue" d="M910,-190.475C910,-183.471 910,-173.192 910,-163.696"/>
<polygon fill="midnightblue" stroke="midnightblue" points="913.5,-163.523 910,-153.523 906.5,-163.523 913.5,-163.523"/>
</g>
<!-- Node18 -->
<g id="node18" class="node"><title>Node18</title>
<polygon fill="white" stroke="#bfbfbf" points="978.5,-123.5 978.5,-153.5 1073.5,-153.5 1073.5,-123.5 978.5,-123.5"/>
<text text-anchor="start" x="986.5" y="-141.5" font-family="Helvetica,sans-Serif" font-size="10.00">boost/serialization</text>
<text text-anchor="middle" x="1026" y="-130.5" font-family="Helvetica,sans-Serif" font-size="10.00">/utility.hpp</text>
</g>
<!-- Node12&#45;&gt;Node18 -->
<g id="edge24" class="edge"><title>Node12&#45;&gt;Node18</title>
<path fill="none" stroke="midnightblue" d="M926.62,-190.475C942.991,-182.078 968.541,-168.973 989.634,-158.153"/>
<polygon fill="midnightblue" stroke="midnightblue" points="991.361,-161.201 998.661,-153.523 988.166,-154.973 991.361,-161.201"/>
</g>
<!-- Node19 -->
<g id="node19" class="node"><title>Node19</title>
<g id="a_node19"><a xlink:href="FitParameter_8hpp.html" target="_top" xlink:title="Core/FitParameter.hpp">
<polygon fill="white" stroke="red" points="586,-129 586,-148 702,-148 702,-129 586,-129"/>
<text text-anchor="middle" x="644" y="-136" font-family="Helvetica,sans-Serif" font-size="10.00">Core/FitParameter.hpp</text>
</a>
</g>
</g>
<!-- Node12&#45;&gt;Node19 -->
<g id="edge26" class="edge"><title>Node12&#45;&gt;Node19</title>
<path fill="none" stroke="midnightblue" d="M871.889,-190.475C824.483,-179.871 743.516,-161.76 691.944,-150.224"/>
<polygon fill="midnightblue" stroke="midnightblue" points="692.564,-146.776 682.041,-148.009 691.035,-153.608 692.564,-146.776"/>
</g>
<!-- Node20 -->
<g id="node20" class="node"><title>Node20</title>
<g id="a_node20"><a xlink:href="Logging_8hpp.html" target="_top" xlink:title="Core/Logging.hpp">
<polygon fill="white" stroke="red" points="1018.5,-62 1018.5,-81 1111.5,-81 1111.5,-62 1018.5,-62"/>
<text text-anchor="middle" x="1065" y="-69" font-family="Helvetica,sans-Serif" font-size="10.00">Core/Logging.hpp</text>
</a>
</g>
</g>
<!-- Node12&#45;&gt;Node20 -->
<g id="edge37" class="edge"><title>Node12&#45;&gt;Node20</title>
<path fill="none" stroke="midnightblue" d="M956.36,-193.259C1001.9,-186.554 1066.72,-173.79 1082,-154 1096.31,-135.466 1085.7,-107.752 1075.98,-89.8988"/>
<polygon fill="midnightblue" stroke="midnightblue" points="1078.91,-87.9754 1070.84,-81.1156 1072.87,-91.5134 1078.91,-87.9754"/>
</g>
<!-- Node21 -->
<g id="node21" class="node"><title>Node21</title>
<g id="a_node21"><a xlink:href="Parameter_8hpp.html" target="_top" xlink:title="Parameter base class. ">
<polygon fill="white" stroke="red" points="366,-129 366,-148 530,-148 530,-129 366,-129"/>
<text text-anchor="middle" x="448" y="-136" font-family="Helvetica,sans-Serif" font-size="10.00">Core/FunctionTree/Parameter.hpp</text>
</a>
</g>
</g>
<!-- Node12&#45;&gt;Node21 -->
<g id="edge31" class="edge"><title>Node12&#45;&gt;Node21</title>
<path fill="none" stroke="midnightblue" d="M863.726,-193.725C794.229,-185.709 658.805,-169.725 544,-154 533.812,-152.605 523.029,-151.051 512.512,-149.493"/>
<polygon fill="midnightblue" stroke="midnightblue" points="512.945,-146.02 502.538,-148.004 511.912,-152.943 512.945,-146.02"/>
</g>
<!-- Node19&#45;&gt;Node5 -->
<g id="edge29" class="edge"><title>Node19&#45;&gt;Node5</title>
<path fill="none" stroke="midnightblue" d="M677.702,-128.905C769.264,-105.553 1021.61,-41.1932 1109.41,-18.8014"/>
<polygon fill="midnightblue" stroke="midnightblue" points="1110.46,-22.1471 1119.28,-16.2843 1108.73,-15.3643 1110.46,-22.1471"/>
</g>
<!-- Node19&#45;&gt;Node6 -->
<g id="edge30" class="edge"><title>Node19&#45;&gt;Node6</title>
<path fill="none" stroke="midnightblue" d="M644.739,-128.809C645.642,-111.984 644.968,-74.9521 624,-56 582.234,-18.2503 409.278,-12.0325 336.501,-11.1077"/>
<polygon fill="midnightblue" stroke="midnightblue" points="336.151,-7.60415 326.117,-11.0036 336.081,-14.6038 336.151,-7.60415"/>
</g>
<!-- Node19&#45;&gt;Node11 -->
<g id="edge27" class="edge"><title>Node19&#45;&gt;Node11</title>
<path fill="none" stroke="midnightblue" d="M619.168,-128.869C586.384,-117.473 528.5,-97.3528 491.485,-84.4869"/>
<polygon fill="midnightblue" stroke="midnightblue" points="492.232,-81.041 481.637,-81.0637 489.934,-87.653 492.232,-81.041"/>
</g>
<!-- Node19&#45;&gt;Node20 -->
<g id="edge28" class="edge"><title>Node19&#45;&gt;Node20</title>
<path fill="none" stroke="midnightblue" d="M681.117,-128.973C690.816,-126.88 701.277,-124.743 711,-123 815.544,-104.255 938.461,-88.01 1008.5,-79.2954"/>
<polygon fill="midnightblue" stroke="midnightblue" points="1008.95,-82.7669 1018.44,-78.0649 1008.09,-75.8199 1008.95,-82.7669"/>
</g>
<!-- Node21&#45;&gt;Node4 -->
<g id="edge33" class="edge"><title>Node21&#45;&gt;Node4</title>
<path fill="none" stroke="midnightblue" d="M411.898,-128.936C359.447,-116.493 262.721,-93.5469 210.21,-81.0899"/>
<polygon fill="midnightblue" stroke="midnightblue" points="210.861,-77.6474 200.323,-78.7446 209.245,-84.4583 210.861,-77.6474"/>
</g>
<!-- Node21&#45;&gt;Node5 -->
<g id="edge34" class="edge"><title>Node21&#45;&gt;Node5</title>
<path fill="none" stroke="midnightblue" d="M459.259,-128.985C472.436,-118.997 494.887,-101.906 514,-87 531.46,-73.383 532.389,-64.0906 553,-56 655.801,-15.6464 1003.33,-11.3553 1109.16,-10.9979"/>
<polygon fill="midnightblue" stroke="midnightblue" points="1109.48,-14.4972 1119.47,-10.9733 1109.46,-7.49726 1109.48,-14.4972"/>
</g>
<!-- Node21&#45;&gt;Node6 -->
<g id="edge35" class="edge"><title>Node21&#45;&gt;Node6</title>
<path fill="none" stroke="midnightblue" d="M438.945,-128.718C423.204,-113.541 389.637,-81.577 360,-56 348.079,-45.7123 334.296,-34.6272 323.387,-26.0332"/>
<polygon fill="midnightblue" stroke="midnightblue" points="325.377,-23.1459 315.345,-19.7379 321.062,-28.658 325.377,-23.1459"/>
</g>
<!-- Node21&#45;&gt;Node14 -->
<g id="edge32" class="edge"><title>Node21&#45;&gt;Node14</title>
<path fill="none" stroke="midnightblue" d="M466.724,-128.869C490.848,-117.748 532.998,-98.3167 560.955,-85.4286"/>
<polygon fill="midnightblue" stroke="midnightblue" points="562.583,-88.5323 570.199,-81.1672 559.652,-82.1752 562.583,-88.5323"/>
</g>
<!-- Node22 -->
<g id="node22" class="node"><title>Node22</title>
<polygon fill="white" stroke="#bfbfbf" points="256.5,-56.5 256.5,-86.5 351.5,-86.5 351.5,-56.5 256.5,-56.5"/>
<text text-anchor="start" x="264.5" y="-74.5" font-family="Helvetica,sans-Serif" font-size="10.00">boost/serialization</text>
<text text-anchor="middle" x="304" y="-63.5" font-family="Helvetica,sans-Serif" font-size="10.00">/shared_ptr.hpp</text>
</g>
<!-- Node21&#45;&gt;Node22 -->
<g id="edge36" class="edge"><title>Node21&#45;&gt;Node22</title>
<path fill="none" stroke="midnightblue" d="M428.878,-128.869C407.457,-119.199 372.12,-103.249 344.493,-90.778"/>
<polygon fill="midnightblue" stroke="midnightblue" points="345.632,-87.4522 335.078,-86.5281 342.752,-93.8324 345.632,-87.4522"/>
</g>
<!-- Node23&#45;&gt;Node2 -->
<g id="edge39" class="edge"><title>Node23&#45;&gt;Node2</title>
<path fill="none" stroke="midnightblue" d="M640.745,-322.389C552.716,-322.099 370.807,-316.573 324,-277 288.746,-247.195 283.048,-188.484 282.588,-158.339"/>
<polygon fill="midnightblue" stroke="midnightblue" points="286.088,-158.314 282.618,-148.303 279.088,-158.293 286.088,-158.314"/>
</g>
<!-- Node23&#45;&gt;Node3 -->
<g id="edge40" class="edge"><title>Node23&#45;&gt;Node3</title>
<path fill="none" stroke="midnightblue" d="M640.8,-322.927C550.948,-323.502 352.425,-319.311 192,-277 189.844,-276.431 187.651,-275.729 185.475,-274.944"/>
<polygon fill="midnightblue" stroke="midnightblue" points="186.799,-271.704 176.22,-271.118 184.125,-278.173 186.799,-271.704"/>
</g>
<!-- Node23&#45;&gt;Node4 -->
<g id="edge41" class="edge"><title>Node23&#45;&gt;Node4</title>
<path fill="none" stroke="midnightblue" d="M640.887,-320.334C529.486,-316.047 260.949,-303.1 230,-277 174.047,-229.812 171.229,-132.555 172.76,-91.4755"/>
<polygon fill="midnightblue" stroke="midnightblue" points="176.267,-91.4253 173.28,-81.2603 169.276,-91.0693 176.267,-91.4253"/>
</g>
<!-- Node23&#45;&gt;Node5 -->
<g id="edge43" class="edge"><title>Node23&#45;&gt;Node5</title>
<path fill="none" stroke="midnightblue" d="M737.097,-322.44C878.993,-322.458 1286,-312.768 1286,-201 1286,-201 1286,-201 1286,-137.5 1286,-76.6713 1212.72,-38.5383 1169.99,-21.4748"/>
<polygon fill="midnightblue" stroke="midnightblue" points="1171.2,-18.1906 1160.61,-17.8701 1168.69,-24.7246 1171.2,-18.1906"/>
</g>
<!-- Node23&#45;&gt;Node6 -->
<g id="edge44" class="edge"><title>Node23&#45;&gt;Node6</title>
<path fill="none" stroke="midnightblue" d="M640.975,-322.383C548.684,-322.187 350.986,-316.96 298,-277 217.518,-216.303 203.04,-146.713 247,-56 253.397,-42.7996 265.752,-32.3032 277.329,-24.7794"/>
<polygon fill="midnightblue" stroke="midnightblue" points="279.155,-27.7653 285.918,-19.6099 275.546,-21.7678 279.155,-27.7653"/>
</g>
<!-- Node23&#45;&gt;Node7 -->
<g id="edge47" class="edge"><title>Node23&#45;&gt;Node7</title>
<path fill="none" stroke="midnightblue" d="M737.092,-321.174C873.111,-318.463 1253.73,-308.147 1300,-277 1321.33,-262.641 1349.17,-191.71 1361.57,-157.722"/>
<polygon fill="midnightblue" stroke="midnightblue" points="1364.93,-158.698 1365.02,-148.104 1358.35,-156.333 1364.93,-158.698"/>
</g>
<!-- Node23&#45;&gt;Node12 -->
<g id="edge48" class="edge"><title>Node23&#45;&gt;Node12</title>
<path fill="none" stroke="midnightblue" d="M737.038,-319.895C835.307,-315.094 1051.94,-301.79 1074,-277 1109.2,-237.444 1026.75,-217.015 966.445,-207.683"/>
<polygon fill="midnightblue" stroke="midnightblue" points="966.633,-204.173 956.229,-206.174 965.61,-211.098 966.633,-204.173"/>
</g>
<!-- Node23&#45;&gt;Node15 -->
<g id="edge42" class="edge"><title>Node23&#45;&gt;Node15</title>
<path fill="none" stroke="midnightblue" d="M737.096,-321.41C830.724,-319.499 1033.5,-311.39 1093,-277 1141.17,-249.156 1173.03,-188.138 1186.58,-157.625"/>
<polygon fill="midnightblue" stroke="midnightblue" points="1189.89,-158.779 1190.61,-148.208 1183.46,-156.027 1189.89,-158.779"/>
</g>
<!-- Node23&#45;&gt;Node20 -->
<g id="edge51" class="edge"><title>Node23&#45;&gt;Node20</title>
<path fill="none" stroke="midnightblue" d="M737.239,-321.509C836.259,-319.782 1058.72,-312.003 1125,-277 1198.03,-238.432 1278.06,-189.44 1229,-123 1204.57,-89.9215 1158.81,-77.8321 1121.83,-73.7146"/>
<polygon fill="midnightblue" stroke="midnightblue" points="1121.93,-70.2094 1111.65,-72.7538 1121.28,-77.1784 1121.93,-70.2094"/>
</g>
<!-- Node23&#45;&gt;Node22 -->
<g id="edge45" class="edge"><title>Node23&#45;&gt;Node22</title>
<path fill="none" stroke="midnightblue" d="M640.759,-321.909C558.938,-320.735 397.84,-313.681 357,-277 304.552,-229.893 337.486,-191.03 319,-123 316.613,-114.215 313.815,-104.628 311.286,-96.19"/>
<polygon fill="midnightblue" stroke="midnightblue" points="314.629,-95.1544 308.38,-86.5986 307.93,-97.1838 314.629,-95.1544"/>
</g>
<!-- Node24 -->
<g id="node24" class="node"><title>Node24</title>
<polygon fill="white" stroke="#bfbfbf" points="366.5,-246.5 366.5,-276.5 461.5,-276.5 461.5,-246.5 366.5,-246.5"/>
<text text-anchor="start" x="374.5" y="-264.5" font-family="Helvetica,sans-Serif" font-size="10.00">boost/serialization</text>
<text text-anchor="middle" x="414" y="-253.5" font-family="Helvetica,sans-Serif" font-size="10.00">/vector.hpp</text>
</g>
<!-- Node23&#45;&gt;Node24 -->
<g id="edge46" class="edge"><title>Node23&#45;&gt;Node24</title>
<path fill="none" stroke="midnightblue" d="M644.614,-313.453C602.541,-305.214 537.347,-292.091 471.295,-277.007"/>
<polygon fill="midnightblue" stroke="midnightblue" points="472.076,-273.595 461.546,-274.767 470.509,-280.418 472.076,-273.595"/>
</g>
<!-- Node25 -->
<g id="node25" class="node"><title>Node25</title>
<g id="a_node25"><a xlink:href="Value_8hpp.html" target="_top" xlink:title="Template implementation of Parameter for simple values. ">
<polygon fill="white" stroke="red" points="480,-252 480,-271 624,-271 624,-252 480,-252"/>
<text text-anchor="middle" x="552" y="-259" font-family="Helvetica,sans-Serif" font-size="10.00">Core/FunctionTree/Value.hpp</text>
</a>
</g>
</g>
<!-- Node23&#45;&gt;Node25 -->
<g id="edge49" class="edge"><title>Node23&#45;&gt;Node25</title>
<path fill="none" stroke="midnightblue" d="M669.371,-313.475C646.176,-303.401 607.381,-286.553 580.787,-275.002"/>
<polygon fill="midnightblue" stroke="midnightblue" points="582.159,-271.782 571.592,-271.009 579.37,-278.203 582.159,-271.782"/>
</g>
<!-- Node26 -->
<g id="node26" class="node"><title>Node26</title>
<polygon fill="white" stroke="#bfbfbf" points="642,-252 642,-271 736,-271 736,-252 642,-252"/>
<text text-anchor="middle" x="689" y="-259" font-family="Helvetica,sans-Serif" font-size="10.00">boost/version.hpp</text>
</g>
<!-- Node23&#45;&gt;Node26 -->
<g id="edge52" class="edge"><title>Node23&#45;&gt;Node26</title>
<path fill="none" stroke="midnightblue" d="M689,-313.475C689,-305.08 689,-291.981 689,-281.163"/>
<polygon fill="midnightblue" stroke="midnightblue" points="692.5,-281.009 689,-271.009 685.5,-281.009 692.5,-281.009"/>
</g>
<!-- Node27 -->
<g id="node27" class="node"><title>Node27</title>
<polygon fill="white" stroke="#bfbfbf" points="754.5,-246.5 754.5,-276.5 849.5,-276.5 849.5,-246.5 754.5,-246.5"/>
<text text-anchor="start" x="762.5" y="-264.5" font-family="Helvetica,sans-Serif" font-size="10.00">boost/serialization</text>
<text text-anchor="middle" x="802" y="-253.5" font-family="Helvetica,sans-Serif" font-size="10.00">/split_free.hpp</text>
</g>
<!-- Node23&#45;&gt;Node27 -->
<g id="edge53" class="edge"><title>Node23&#45;&gt;Node27</title>
<path fill="none" stroke="midnightblue" d="M705.19,-313.475C721.067,-305.115 745.803,-292.09 766.298,-281.299"/>
<polygon fill="midnightblue" stroke="midnightblue" points="768.15,-284.279 775.368,-276.523 764.889,-278.085 768.15,-284.279"/>
</g>
<!-- Node28 -->
<g id="node28" class="node"><title>Node28</title>
<polygon fill="white" stroke="#bfbfbf" points="867.5,-252 867.5,-271 996.5,-271 996.5,-252 867.5,-252"/>
<text text-anchor="middle" x="932" y="-259" font-family="Helvetica,sans-Serif" font-size="10.00">boost/unordered_map.hpp</text>
</g>
<!-- Node23&#45;&gt;Node28 -->
<g id="edge54" class="edge"><title>Node23&#45;&gt;Node28</title>
<path fill="none" stroke="midnightblue" d="M723.816,-313.475C766.852,-302.937 840.165,-284.986 887.315,-273.441"/>
<polygon fill="midnightblue" stroke="midnightblue" points="888.368,-276.787 897.249,-271.009 886.703,-269.988 888.368,-276.787"/>
</g>
<!-- Node29 -->
<g id="node29" class="node"><title>Node29</title>
<polygon fill="white" stroke="#bfbfbf" points="1014.5,-252 1014.5,-271 1065.5,-271 1065.5,-252 1014.5,-252"/>
<text text-anchor="middle" x="1040" y="-259" font-family="Helvetica,sans-Serif" font-size="10.00">typeinfo</text>
</g>
<!-- Node23&#45;&gt;Node29 -->
<g id="edge55" class="edge"><title>Node23&#45;&gt;Node29</title>
<path fill="none" stroke="midnightblue" d="M737.139,-318.919C799.76,-314.059 912.131,-302.413 1005,-277 1007.44,-276.332 1009.94,-275.536 1012.43,-274.667"/>
<polygon fill="midnightblue" stroke="midnightblue" points="1013.7,-277.926 1021.78,-271.064 1011.19,-271.394 1013.7,-277.926"/>
</g>
<!-- Node25&#45;&gt;Node12 -->
<g id="edge50" class="edge"><title>Node25&#45;&gt;Node12</title>
<path fill="none" stroke="midnightblue" d="M599.092,-251.938C610.206,-249.954 622.016,-247.875 633,-246 709.408,-232.955 797.831,-218.744 853.823,-209.855"/>
<polygon fill="midnightblue" stroke="midnightblue" points="854.562,-213.281 863.891,-208.258 853.466,-206.368 854.562,-213.281"/>
</g>
</g>
</svg>
        <g id="navigator" transform="translate(0 0)" fill="#404254">
                <rect fill="#f2f5e9" fill-opacity="0.5" stroke="#606060" stroke-width=".5" x="0" y="0" width="60" height="60"/>
                <use id="zoomplus" xlink:href="#zoomPlus" x="17" y="9" onmousedown="handleZoom(evt,'in')"/>
                <use id="zoomminus" xlink:href="#zoomMin" x="42" y="9" onmousedown="handleZoom(evt,'out')"/>
                <use id="reset" xlink:href="#resetDef" x="30" y="36" onmousedown="handleReset()"/>
                <g id="arrowUp" xlink:href="#dirArrow" transform="translate(30 24)" onmousedown="handlePan(0,-1)">
                  <use xlink:href="#rim" fill="#404040">
                        <set attributeName="fill" to="#808080" begin="arrowUp.mouseover" end="arrowUp.mouseout"/>
                  </use>
                  <path fill="none" stroke="white" stroke-width="1.5" d="M0,-3.0v7 M-2.5,-0.5L0,-3.0L2.5,-0.5"/>
                </g>
                <g id="arrowRight" xlink:href="#dirArrow" transform="rotate(90) translate(36 -43)" onmousedown="handlePan(1,0)">
                  <use xlink:href="#rim" fill="#404040">
                        <set attributeName="fill" to="#808080" begin="arrowRight.mouseover" end="arrowRight.mouseout"/>
                  </use>
                  <path fill="none" stroke="white" stroke-width="1.5" d="M0,-3.0v7 M-2.5,-0.5L0,-3.0L2.5,-0.5"/>
                </g>
                <g id="arrowDown" xlink:href="#dirArrow" transform="rotate(180) translate(-30 -48)" onmousedown="handlePan(0,1)">
                  <use xlink:href="#rim" fill="#404040">
                        <set attributeName="fill" to="#808080" begin="arrowDown.mouseover" end="arrowDown.mouseout"/>
                  </use>
                  <path fill="none" stroke="white" stroke-width="1.5" d="M0,-3.0v7 M-2.5,-0.5L0,-3.0L2.5,-0.5"/>
                </g>
                <g id="arrowLeft" xlink:href="#dirArrow" transform="rotate(270) translate(-36 17)" onmousedown="handlePan(-1,0)">
                  <use xlink:href="#rim" fill="#404040">
                        <set attributeName="fill" to="#808080" begin="arrowLeft.mouseover" end="arrowLeft.mouseout"/>
                  </use>
                  <path fill="none" stroke="white" stroke-width="1.5" d="M0,-3.0v7 M-2.5,-0.5L0,-3.0L2.5,-0.5"/>
                </g>
        </g>
        <svg viewBox="0 0 15 15" width="100%" height="30px" preserveAspectRatio="xMaxYMin meet">
         <g id="arrow_out" transform="scale(0.3 0.3)">
          <a xlink:href="ParameterList_8cpp__incl_org.svg" target="_base">
           <rect id="button" ry="5" rx="5" y="6" x="6" height="38" width="38"
                fill="#f2f5e9" fill-opacity="0.5" stroke="#606060" stroke-width="1.0"/>
           <path id="arrow"
             d="M 11.500037,31.436501 C 11.940474,20.09759 22.043105,11.32322 32.158766,21.979434 L 37.068811,17.246167 C 37.068811,17.246167 37.088388,32 37.088388,32 L 22.160133,31.978069 C 22.160133,31.978069 26.997745,27.140456 26.997745,27.140456 C 18.528582,18.264221 13.291696,25.230495 11.500037,31.436501 z"
             style="fill:#404040;"/>
          </a>
         </g>
        </svg>
</svg>
