<?xml version="1.0" encoding="UTF-8" standalone="no"?>
<!DOCTYPE svg PUBLIC "-//W3C//DTD SVG 1.1//EN"
 "http://www.w3.org/Graphics/SVG/1.1/DTD/svg11.dtd">
<!-- Generated by graphviz version 2.38.0 (20140413.2041)
 -->
<!-- Title: Core/FunctionTree/ParameterList.hpp Pages: 1 -->
<!--zoomable 296 -->
<svg id="main" version="1.1" xmlns="http://www.w3.org/2000/svg" xmlns:xlink="http://www.w3.org/1999/xlink" xml:space="preserve" onload="init(evt)">
<style type="text/css"><![CDATA[
.edge:hover path { stroke: red; }
.edge:hover polygon { stroke: red; fill: red; }
]]></style>
<script type="text/javascript"><![CDATA[
var edges = document.getElementsByTagName('g');
if (edges && edges.length) {
  for (var i=0;i<edges.length;i++) {
    if (edges[i].id.substr(0,4)=='edge') {
      edges[i].setAttribute('class','edge');
    }
  }
}
]]></script>
        <defs>
                <circle id="rim" cx="0" cy="0" r="7"/>
                <circle id="rim2" cx="0" cy="0" r="3.5"/>
                <g id="zoomPlus">
                        <use xlink:href="#rim" fill="#404040">
                                <set attributeName="fill" to="#808080" begin="zoomplus.mouseover" end="zoomplus.mouseout"/>
                        </use>
                        <path d="M-4,0h8M0,-4v8" fill="none" stroke="white" stroke-width="1.5" pointer-events="none"/>
                </g>
                <g id="zoomMin">
                        <use xlink:href="#rim" fill="#404040">
                                <set attributeName="fill" to="#808080" begin="zoomminus.mouseover" end="zoomminus.mouseout"/>
                        </use>
                        <path d="M-4,0h8" fill="none" stroke="white" stroke-width="1.5" pointer-events="none"/>
                </g>
                <g id="dirArrow">
                        <path fill="none" stroke="white" stroke-width="1.5" d="M0,-3.0v7 M-2.5,-0.5L0,-3.0L2.5,-0.5"/>
                </g>
               <g id="resetDef">
                       <use xlink:href="#rim2" fill="#404040">
                               <set attributeName="fill" to="#808080" begin="reset.mouseover" end="reset.mouseout"/>
                       </use>
               </g>
        </defs>

<script type="text/javascript">
var viewWidth = 1884;
var viewHeight = 296;
var sectionId = 'dynsection-1';
</script>
<script xlink:href="svgpan.js"/>
<svg id="graph" class="graph">
<g id="viewport">
<title>Core/FunctionTree/ParameterList.hpp</title>
<polygon fill="white" stroke="none" points="-4,4 -4,-292 1879.76,-292 1879.76,4 -4,4"/>
<!-- Node1 -->
<g id="node1" class="node"><title>Node1</title>
<polygon fill="#bfbfbf" stroke="black" points="930,-257.5 930,-287.5 1076,-287.5 1076,-257.5 930,-257.5"/>
<text text-anchor="start" x="938" y="-275.5" font-family="Helvetica,sans-Serif" font-size="10.00">Core/FunctionTree/Parameter</text>
<text text-anchor="middle" x="1003" y="-264.5" font-family="Helvetica,sans-Serif" font-size="10.00">List.hpp</text>
</g>
<!-- Node2 -->
<g id="node2" class="node"><title>Node2</title>
<g id="a_node2"><a xlink:href="Functions_8hpp.html" target="_top" xlink:title="This file contains Functions implementing the Strategy interface so they can be used inside a node of...">
<polygon fill="white" stroke="black" points="408,-196 408,-215 570,-215 570,-196 408,-196"/>
<text text-anchor="middle" x="489" y="-203" font-family="Helvetica,sans-Serif" font-size="10.00">Core/FunctionTree/Functions.hpp</text>
</a>
</g>
</g>
<!-- Node1&#45;&gt;Node2 -->
<g id="edge1" class="edge"><title>Node1&#45;&gt;Node2</title>
<path fill="none" stroke="midnightblue" d="M919.727,-260.969C818.592,-248.18 649.967,-226.856 556.525,-215.039"/>
<polygon fill="midnightblue" stroke="midnightblue" points="919.542,-264.474 929.902,-262.256 920.42,-257.529 919.542,-264.474"/>
</g>
<!-- Node4 -->
<g id="node4" class="node"><title>Node4</title>
<g id="a_node4"><a xlink:href="TreeNode_8hpp.html" target="_top" xlink:title="TreeNode class. ">
<polygon fill="white" stroke="red" points="699,-129 699,-148 861,-148 861,-129 699,-129"/>
<text text-anchor="middle" x="780" y="-136" font-family="Helvetica,sans-Serif" font-size="10.00">Core/FunctionTree/TreeNode.hpp</text>
</a>
</g>
</g>
<!-- Node1&#45;&gt;Node4 -->
<g id="edge28" class="edge"><title>Node1&#45;&gt;Node4</title>
<path fill="none" stroke="midnightblue" d="M947.153,-254.052C924,-245.669 897.378,-234.488 875,-221 839.266,-199.462 803.695,-164.387 788.144,-148.196"/>
<polygon fill="midnightblue" stroke="midnightblue" points="946.247,-257.443 956.841,-257.472 948.577,-250.843 946.247,-257.443"/>
</g>
<!-- Node8 -->
<g id="node8" class="node"><title>Node8</title>
<g id="a_node8"><a xlink:href="MinLogLH_8cpp.html" target="_top" xlink:title="Estimator/MinLogLH\l/MinLogLH.cpp">
<polygon fill="white" stroke="black" points="1052,-56.5 1052,-86.5 1158,-86.5 1158,-56.5 1052,-56.5"/>
<text text-anchor="start" x="1060" y="-74.5" font-family="Helvetica,sans-Serif" font-size="10.00">Estimator/MinLogLH</text>
<text text-anchor="middle" x="1105" y="-63.5" font-family="Helvetica,sans-Serif" font-size="10.00">/MinLogLH.cpp</text>
</a>
</g>
</g>
<!-- Node1&#45;&gt;Node8 -->
<g id="edge44" class="edge"><title>Node1&#45;&gt;Node8</title>
<path fill="none" stroke="midnightblue" d="M992.264,-247.796C979.859,-216.504 964.134,-160.946 989,-123 997.367,-110.232 1030.85,-96.441 1059.7,-86.5022"/>
<polygon fill="midnightblue" stroke="midnightblue" points="989.198,-249.538 996.28,-257.418 995.658,-246.841 989.198,-249.538"/>
</g>
<!-- Node9 -->
<g id="node9" class="node"><title>Node9</title>
<g id="a_node9"><a xlink:href="SumMinLogLH_8cpp.html" target="_top" xlink:title="Estimator/MinLogLH\l/SumMinLogLH.cpp">
<polygon fill="white" stroke="black" points="1176,-56.5 1176,-86.5 1282,-86.5 1282,-56.5 1176,-56.5"/>
<text text-anchor="start" x="1184" y="-74.5" font-family="Helvetica,sans-Serif" font-size="10.00">Estimator/MinLogLH</text>
<text text-anchor="middle" x="1229" y="-63.5" font-family="Helvetica,sans-Serif" font-size="10.00">/SumMinLogLH.cpp</text>
</a>
</g>
</g>
<!-- Node1&#45;&gt;Node9 -->
<g id="edge45" class="edge"><title>Node1&#45;&gt;Node9</title>
<path fill="none" stroke="midnightblue" d="M998.483,-247.102C993.969,-214.567 991.499,-157.125 1022,-123 1023.32,-121.528 1114.97,-99.5535 1175.86,-85.0811"/>
<polygon fill="midnightblue" stroke="midnightblue" points="995.045,-247.772 1000.05,-257.111 1001.96,-246.69 995.045,-247.772"/>
</g>
<!-- Node13 -->
<g id="node13" class="node"><title>Node13</title>
<g id="a_node13"><a xlink:href="FunctionTreeEstimator_8hpp.html" target="_top" xlink:title="Core/FunctionTree/Function\lTreeEstimator.hpp">
<polygon fill="white" stroke="black" points="1031,-190.5 1031,-220.5 1169,-220.5 1169,-190.5 1031,-190.5"/>
<text text-anchor="start" x="1039" y="-208.5" font-family="Helvetica,sans-Serif" font-size="10.00">Core/FunctionTree/Function</text>
<text text-anchor="middle" x="1100" y="-197.5" font-family="Helvetica,sans-Serif" font-size="10.00">TreeEstimator.hpp</text>
</a>
</g>
</g>
<!-- Node1&#45;&gt;Node13 -->
<g id="edge16" class="edge"><title>Node1&#45;&gt;Node13</title>
<path fill="none" stroke="midnightblue" d="M1032.5,-251.734C1047.51,-241.676 1065.4,-229.685 1078.99,-220.577"/>
<polygon fill="midnightblue" stroke="midnightblue" points="1030.41,-248.922 1024.05,-257.396 1034.3,-254.737 1030.41,-248.922"/>
</g>
<!-- Node19 -->
<g id="node19" class="node"><title>Node19</title>
<g id="a_node19"><a xlink:href="FunctionTreeIntensity_8hpp.html" target="_top" xlink:title="Core/FunctionTree/Function\lTreeIntensity.hpp">
<polygon fill="white" stroke="black" points="1386,-190.5 1386,-220.5 1524,-220.5 1524,-190.5 1386,-190.5"/>
<text text-anchor="start" x="1394" y="-208.5" font-family="Helvetica,sans-Serif" font-size="10.00">Core/FunctionTree/Function</text>
<text text-anchor="middle" x="1455" y="-197.5" font-family="Helvetica,sans-Serif" font-size="10.00">TreeIntensity.hpp</text>
</a>
</g>
</g>
<!-- Node1&#45;&gt;Node19 -->
<g id="edge29" class="edge"><title>Node1&#45;&gt;Node19</title>
<path fill="none" stroke="midnightblue" d="M1086.12,-259.547C1172.18,-247.171 1305.11,-228.055 1385.69,-216.467"/>
<polygon fill="midnightblue" stroke="midnightblue" points="1085.52,-256.097 1076.12,-260.984 1086.52,-263.025 1085.52,-256.097"/>
</g>
<!-- Node23 -->
<g id="node23" class="node"><title>Node23</title>
<g id="a_node23"><a xlink:href="ParameterList_8cpp.html" target="_top" xlink:title="Core/FunctionTree/Parameter\lList.cpp">
<polygon fill="white" stroke="black" points="1542,-190.5 1542,-220.5 1688,-220.5 1688,-190.5 1542,-190.5"/>
<text text-anchor="start" x="1550" y="-208.5" font-family="Helvetica,sans-Serif" font-size="10.00">Core/FunctionTree/Parameter</text>
<text text-anchor="middle" x="1615" y="-197.5" font-family="Helvetica,sans-Serif" font-size="10.00">List.cpp</text>
</a>
</g>
</g>
<!-- Node1&#45;&gt;Node23 -->
<g id="edge43" class="edge"><title>Node1&#45;&gt;Node23</title>
<path fill="none" stroke="midnightblue" d="M1086.26,-265.638C1190.84,-257.8 1375.67,-242.371 1533,-221 1535.87,-220.611 1538.78,-220.194 1541.73,-219.756"/>
<polygon fill="midnightblue" stroke="midnightblue" points="1085.8,-262.163 1076.08,-266.396 1086.32,-269.144 1085.8,-262.163"/>
</g>
<!-- Node3 -->
<g id="node3" class="node"><title>Node3</title>
<g id="a_node3"><a xlink:href="Functions_8cpp.html" target="_top" xlink:title="Core/FunctionTree/Functions.cpp">
<polygon fill="white" stroke="black" points="0,-129 0,-148 162,-148 162,-129 0,-129"/>
<text text-anchor="middle" x="81" y="-136" font-family="Helvetica,sans-Serif" font-size="10.00">Core/FunctionTree/Functions.cpp</text>
</a>
</g>
</g>
<!-- Node2&#45;&gt;Node3 -->
<g id="edge2" class="edge"><title>Node2&#45;&gt;Node3</title>
<path fill="none" stroke="midnightblue" d="M425.292,-194.35C345.288,-181.605 209.457,-159.965 134.553,-148.032"/>
<polygon fill="midnightblue" stroke="midnightblue" points="424.815,-197.819 435.242,-195.936 425.917,-190.906 424.815,-197.819"/>
</g>
<!-- Node2&#45;&gt;Node4 -->
<g id="edge3" class="edge"><title>Node2&#45;&gt;Node4</title>
<path fill="none" stroke="midnightblue" d="M537.245,-193.724C594.546,-180.924 688.969,-159.833 741.573,-148.083"/>
<polygon fill="midnightblue" stroke="midnightblue" points="536.339,-190.34 527.342,-195.936 537.865,-197.171 536.339,-190.34"/>
</g>
<!-- Node7 -->
<g id="node7" class="node"><title>Node7</title>
<g id="a_node7"><a xlink:href="TreeNode_8cpp.html" target="_top" xlink:title="Core/FunctionTree/TreeNode.cpp">
<polygon fill="white" stroke="black" points="408,-62 408,-81 570,-81 570,-62 408,-62"/>
<text text-anchor="middle" x="489" y="-69" font-family="Helvetica,sans-Serif" font-size="10.00">Core/FunctionTree/TreeNode.cpp</text>
</a>
</g>
</g>
<!-- Node2&#45;&gt;Node7 -->
<g id="edge12" class="edge"><title>Node2&#45;&gt;Node7</title>
<path fill="none" stroke="midnightblue" d="M489,-185.775C489,-156.746 489,-102.038 489,-81.0212"/>
<polygon fill="midnightblue" stroke="midnightblue" points="485.5,-185.839 489,-195.839 492.5,-185.839 485.5,-185.839"/>
</g>
<!-- Node10 -->
<g id="node10" class="node"><title>Node10</title>
<g id="a_node10"><a xlink:href="FormFactor_8hpp.html" target="_top" xlink:title="Physics/Dynamics/FormFactor.hpp">
<polygon fill="white" stroke="red" points="218.5,-62 218.5,-81 389.5,-81 389.5,-62 218.5,-62"/>
<text text-anchor="middle" x="304" y="-69" font-family="Helvetica,sans-Serif" font-size="10.00">Physics/Dynamics/FormFactor.hpp</text>
</a>
</g>
</g>
<!-- Node2&#45;&gt;Node10 -->
<g id="edge13" class="edge"><title>Node2&#45;&gt;Node10</title>
<path fill="none" stroke="midnightblue" d="M468.432,-189.825C429.648,-162.152 346.832,-103.061 315.943,-81.0212"/>
<polygon fill="midnightblue" stroke="midnightblue" points="466.688,-192.88 476.862,-195.839 470.754,-187.182 466.688,-192.88"/>
</g>
<!-- Node11 -->
<g id="node11" class="node"><title>Node11</title>
<g id="a_node11"><a xlink:href="Voigtian_8hpp.html" target="_top" xlink:title="This file contains the declaration of the Voigtian class, which is used the implementation of voigt f...">
<polygon fill="white" stroke="red" points="169,-0.5 169,-19.5 325,-19.5 325,-0.5 169,-0.5"/>
<text text-anchor="middle" x="247" y="-7.5" font-family="Helvetica,sans-Serif" font-size="10.00">Physics/Dynamics/Voigtian.hpp</text>
</a>
</g>
</g>
<!-- Node2&#45;&gt;Node11 -->
<g id="edge14" class="edge"><title>Node2&#45;&gt;Node11</title>
<path fill="none" stroke="midnightblue" d="M404.486,-194.075C338.922,-181.057 252.17,-151.933 209,-87 193.727,-64.0278 221.043,-34.0641 236.878,-19.5807"/>
<polygon fill="midnightblue" stroke="midnightblue" points="403.93,-197.531 414.407,-195.955 405.234,-190.654 403.93,-197.531"/>
</g>
<!-- Node12 -->
<g id="node12" class="node"><title>Node12</title>
<g id="a_node12"><a xlink:href="WignerD_8hpp.html" target="_top" xlink:title="Physics/HelicityFormalism\l/WignerD.hpp">
<polygon fill="white" stroke="red" points="588,-56.5 588,-86.5 722,-86.5 722,-56.5 588,-56.5"/>
<text text-anchor="start" x="596" y="-74.5" font-family="Helvetica,sans-Serif" font-size="10.00">Physics/HelicityFormalism</text>
<text text-anchor="middle" x="655" y="-63.5" font-family="Helvetica,sans-Serif" font-size="10.00">/WignerD.hpp</text>
</a>
</g>
</g>
<!-- Node2&#45;&gt;Node12 -->
<g id="edge15" class="edge"><title>Node2&#45;&gt;Node12</title>
<path fill="none" stroke="midnightblue" d="M508.109,-189.305C540.534,-163.521 605.864,-111.572 637.304,-86.5716"/>
<polygon fill="midnightblue" stroke="midnightblue" points="505.54,-186.876 499.892,-195.839 509.897,-192.355 505.54,-186.876"/>
</g>
<!-- Node5 -->
<g id="node5" class="node"><title>Node5</title>
<g id="a_node5"><a xlink:href="FunctionTreeEstimator_8cpp.html" target="_top" xlink:title="Core/FunctionTree/Function\lTreeEstimator.cpp">
<polygon fill="white" stroke="black" points="740,-56.5 740,-86.5 878,-86.5 878,-56.5 740,-56.5"/>
<text text-anchor="start" x="748" y="-74.5" font-family="Helvetica,sans-Serif" font-size="10.00">Core/FunctionTree/Function</text>
<text text-anchor="middle" x="809" y="-63.5" font-family="Helvetica,sans-Serif" font-size="10.00">TreeEstimator.cpp</text>
</a>
</g>
</g>
<!-- Node4&#45;&gt;Node5 -->
<g id="edge4" class="edge"><title>Node4&#45;&gt;Node5</title>
<path fill="none" stroke="midnightblue" d="M788.08,-119.39C792.706,-109.02 798.426,-96.2013 802.714,-86.589"/>
<polygon fill="midnightblue" stroke="midnightblue" points="784.789,-118.175 783.911,-128.734 791.182,-121.028 784.789,-118.175"/>
</g>
<!-- Node6 -->
<g id="node6" class="node"><title>Node6</title>
<g id="a_node6"><a xlink:href="FunctionTreeIntensity_8cpp.html" target="_top" xlink:title="Core/FunctionTree/Function\lTreeIntensity.cpp">
<polygon fill="white" stroke="black" points="896,-56.5 896,-86.5 1034,-86.5 1034,-56.5 896,-56.5"/>
<text text-anchor="start" x="904" y="-74.5" font-family="Helvetica,sans-Serif" font-size="10.00">Core/FunctionTree/Function</text>
<text text-anchor="middle" x="965" y="-63.5" font-family="Helvetica,sans-Serif" font-size="10.00">TreeIntensity.cpp</text>
</a>
</g>
</g>
<!-- Node4&#45;&gt;Node6 -->
<g id="edge5" class="edge"><title>Node4&#45;&gt;Node6</title>
<path fill="none" stroke="midnightblue" d="M814.183,-125.49C845.546,-114.47 892.016,-98.143 925.074,-86.5281"/>
<polygon fill="midnightblue" stroke="midnightblue" points="812.841,-122.251 804.567,-128.869 815.161,-128.856 812.841,-122.251"/>
</g>
<!-- Node4&#45;&gt;Node7 -->
<g id="edge6" class="edge"><title>Node4&#45;&gt;Node7</title>
<path fill="none" stroke="midnightblue" d="M731.755,-126.724C674.454,-113.924 580.031,-92.8334 527.427,-81.0834"/>
<polygon fill="midnightblue" stroke="midnightblue" points="731.135,-130.171 741.658,-128.936 732.661,-123.34 731.135,-130.171"/>
</g>
<!-- Node4&#45;&gt;Node8 -->
<g id="edge7" class="edge"><title>Node4&#45;&gt;Node8</title>
<path fill="none" stroke="midnightblue" d="M837.585,-127.129C890.958,-117.353 972.509,-102.004 1043,-87 1045.92,-86.3786 1048.91,-85.727 1051.93,-85.0585"/>
<polygon fill="midnightblue" stroke="midnightblue" points="836.835,-123.708 827.627,-128.948 838.093,-130.594 836.835,-123.708"/>
</g>
<!-- Node4&#45;&gt;Node9 -->
<g id="edge8" class="edge"><title>Node4&#45;&gt;Node9</title>
<path fill="none" stroke="midnightblue" d="M871.522,-128.168C950.193,-119.524 1066.51,-105.259 1167,-87 1169.94,-86.4664 1172.94,-85.884 1175.97,-85.2692"/>
<polygon fill="midnightblue" stroke="midnightblue" points="870.719,-124.735 861.158,-129.298 871.478,-131.693 870.719,-124.735"/>
</g>
<!-- Node4&#45;&gt;Node10 -->
<g id="edge9" class="edge"><title>Node4&#45;&gt;Node10</title>
<path fill="none" stroke="midnightblue" d="M702.396,-127.668C625.363,-117.802 503.942,-101.962 399,-87 385.869,-85.1278 371.732,-83.0201 358.48,-81.0036"/>
<polygon fill="midnightblue" stroke="midnightblue" points="702.135,-131.163 712.498,-128.961 703.023,-124.22 702.135,-131.163"/>
</g>
<!-- Node4&#45;&gt;Node12 -->
<g id="edge11" class="edge"><title>Node4&#45;&gt;Node12</title>
<path fill="none" stroke="midnightblue" d="M754.412,-124.194C733.386,-113.261 703.673,-97.8102 682.215,-86.6516"/>
<polygon fill="midnightblue" stroke="midnightblue" points="752.914,-127.36 763.401,-128.869 756.144,-121.15 752.914,-127.36"/>
</g>
<!-- Node10&#45;&gt;Node11 -->
<g id="edge10" class="edge"><title>Node10&#45;&gt;Node11</title>
<path fill="none" stroke="midnightblue" d="M288.67,-54.4975C277.881,-43.2356 263.865,-28.6044 255.152,-19.5091"/>
<polygon fill="midnightblue" stroke="midnightblue" points="286.388,-57.1751 295.833,-61.9751 291.443,-52.3327 286.388,-57.1751"/>
</g>
<!-- Node13&#45;&gt;Node5 -->
<g id="edge17" class="edge"><title>Node13&#45;&gt;Node5</title>
<path fill="none" stroke="midnightblue" d="M1041.17,-187.468C1013.35,-178.681 979.951,-167.065 951,-154 906.437,-133.89 857.654,-104.012 830.439,-86.5704"/>
<polygon fill="midnightblue" stroke="midnightblue" points="1040.18,-190.824 1050.77,-190.456 1042.26,-184.141 1040.18,-190.824"/>
</g>
<!-- Node14 -->
<g id="node14" class="node"><title>Node14</title>
<g id="a_node14"><a xlink:href="MinLogLH_8hpp.html" target="_top" xlink:title="Estimator/MinLogLH\l/MinLogLH.hpp">
<polygon fill="white" stroke="red" points="1193,-123.5 1193,-153.5 1299,-153.5 1299,-123.5 1193,-123.5"/>
<text text-anchor="start" x="1201" y="-141.5" font-family="Helvetica,sans-Serif" font-size="10.00">Estimator/MinLogLH</text>
<text text-anchor="middle" x="1246" y="-130.5" font-family="Helvetica,sans-Serif" font-size="10.00">/MinLogLH.hpp</text>
</a>
</g>
</g>
<!-- Node13&#45;&gt;Node14 -->
<g id="edge18" class="edge"><title>Node13&#45;&gt;Node14</title>
<path fill="none" stroke="midnightblue" d="M1140.95,-186.269C1164.2,-175.916 1192.87,-163.153 1214.38,-153.577"/>
<polygon fill="midnightblue" stroke="midnightblue" points="1139.39,-183.131 1131.68,-190.396 1142.24,-189.526 1139.39,-183.131"/>
</g>
<!-- Node17 -->
<g id="node17" class="node"><title>Node17</title>
<g id="a_node17"><a xlink:href="SimFit_8cpp.html" target="_top" xlink:title="Examples/SimFit/SimFit.cpp">
<polygon fill="white" stroke="black" points="1300,-62 1300,-81 1442,-81 1442,-62 1300,-62"/>
<text text-anchor="middle" x="1371" y="-69" font-family="Helvetica,sans-Serif" font-size="10.00">Examples/SimFit/SimFit.cpp</text>
</a>
</g>
</g>
<!-- Node13&#45;&gt;Node17 -->
<g id="edge27" class="edge"><title>Node13&#45;&gt;Node17</title>
<path fill="none" stroke="midnightblue" d="M1119.84,-182.932C1139.82,-161.647 1169.68,-131.14 1184,-123 1208.77,-108.913 1282.72,-91.3413 1329.86,-81.0754"/>
<polygon fill="midnightblue" stroke="midnightblue" points="1117.23,-180.597 1112.97,-190.298 1122.35,-185.371 1117.23,-180.597"/>
</g>
<!-- Node18 -->
<g id="node18" class="node"><title>Node18</title>
<g id="a_node18"><a xlink:href="SumMinLogLH_8hpp.html" target="_top" xlink:title="Estimator/MinLogLH\l/SumMinLogLH.hpp">
<polygon fill="white" stroke="black" points="1031,-123.5 1031,-153.5 1137,-153.5 1137,-123.5 1031,-123.5"/>
<text text-anchor="start" x="1039" y="-141.5" font-family="Helvetica,sans-Serif" font-size="10.00">Estimator/MinLogLH</text>
<text text-anchor="middle" x="1084" y="-130.5" font-family="Helvetica,sans-Serif" font-size="10.00">/SumMinLogLH.hpp</text>
</a>
</g>
</g>
<!-- Node13&#45;&gt;Node18 -->
<g id="edge24" class="edge"><title>Node13&#45;&gt;Node18</title>
<path fill="none" stroke="midnightblue" d="M1094.07,-180.403C1091.84,-171.37 1089.39,-161.408 1087.46,-153.577"/>
<polygon fill="midnightblue" stroke="midnightblue" points="1090.74,-181.522 1096.53,-190.396 1097.54,-179.849 1090.74,-181.522"/>
</g>
<!-- Node14&#45;&gt;Node8 -->
<g id="edge19" class="edge"><title>Node14&#45;&gt;Node8</title>
<path fill="none" stroke="midnightblue" d="M1206.15,-119.131C1183.75,-108.802 1156.22,-96.1103 1135.54,-86.5765"/>
<polygon fill="midnightblue" stroke="midnightblue" points="1204.86,-122.388 1215.41,-123.396 1207.79,-116.031 1204.86,-122.388"/>
</g>
<!-- Node14&#45;&gt;Node9 -->
<g id="edge20" class="edge"><title>Node14&#45;&gt;Node9</title>
<path fill="none" stroke="midnightblue" d="M1239.77,-113.697C1237.39,-104.587 1234.75,-94.4929 1232.68,-86.5765"/>
<polygon fill="midnightblue" stroke="midnightblue" points="1236.39,-114.607 1242.31,-123.396 1243.17,-112.836 1236.39,-114.607"/>
</g>
<!-- Node15 -->
<g id="node15" class="node"><title>Node15</title>
<g id="a_node15"><a xlink:href="DalitzFitD03K_8cpp.html" target="_top" xlink:title="Executable for Dalitz plot analysis of the decay D0 &#45;&gt; K_S K+ K&#45;. ">
<polygon fill="white" stroke="black" points="1553.5,-56.5 1553.5,-86.5 1696.5,-86.5 1696.5,-56.5 1553.5,-56.5"/>
<text text-anchor="start" x="1561.5" y="-74.5" font-family="Helvetica,sans-Serif" font-size="10.00">Examples/DalitzAnalysis</text>
<text text-anchor="middle" x="1625" y="-63.5" font-family="Helvetica,sans-Serif" font-size="10.00">_D0KsKK/DalitzFitD03K.cpp</text>
</a>
</g>
</g>
<!-- Node14&#45;&gt;Node15 -->
<g id="edge21" class="edge"><title>Node14&#45;&gt;Node15</title>
<path fill="none" stroke="midnightblue" d="M1309.12,-122.862C1398.78,-105.481 1491.2,-91.3604 1553.29,-82.424"/>
<polygon fill="midnightblue" stroke="midnightblue" points="1308.19,-119.477 1299.05,-124.83 1309.53,-126.347 1308.19,-119.477"/>
</g>
<!-- Node16 -->
<g id="node16" class="node"><title>Node16</title>
<g id="a_node16"><a xlink:href="DalitzFitApp_8cpp.html" target="_top" xlink:title="Simple Dalitz plot analysis with ComPWA. ">
<polygon fill="white" stroke="black" points="1727,-56.5 1727,-86.5 1827,-86.5 1827,-56.5 1727,-56.5"/>
<text text-anchor="start" x="1735" y="-74.5" font-family="Helvetica,sans-Serif" font-size="10.00">Examples/DalitzFit</text>
<text text-anchor="middle" x="1777" y="-63.5" font-family="Helvetica,sans-Serif" font-size="10.00">/DalitzFitApp.cpp</text>
</a>
</g>
</g>
<!-- Node14&#45;&gt;Node16 -->
<g id="edge22" class="edge"><title>Node14&#45;&gt;Node16</title>
<path fill="none" stroke="midnightblue" d="M1309.1,-122.98C1484.68,-95.403 1532.93,-112.053 1705,-87 1712.07,-85.9712 1719.49,-84.6987 1726.77,-83.3382"/>
<polygon fill="midnightblue" stroke="midnightblue" points="1308.33,-119.559 1299,-124.592 1309.43,-126.471 1308.33,-119.559"/>
</g>
<!-- Node14&#45;&gt;Node17 -->
<g id="edge23" class="edge"><title>Node14&#45;&gt;Node17</title>
<path fill="none" stroke="midnightblue" d="M1282.27,-118.638C1306.19,-106.203 1336.36,-90.5137 1354.64,-81.007"/>
<polygon fill="midnightblue" stroke="midnightblue" points="1280.38,-115.677 1273.12,-123.396 1283.61,-121.888 1280.38,-115.677"/>
</g>
<!-- Node18&#45;&gt;Node9 -->
<g id="edge25" class="edge"><title>Node18&#45;&gt;Node9</title>
<path fill="none" stroke="midnightblue" d="M1124.67,-119.269C1147.76,-108.916 1176.24,-96.1528 1197.6,-86.5765"/>
<polygon fill="midnightblue" stroke="midnightblue" points="1123.16,-116.112 1115.46,-123.396 1126.02,-122.499 1123.16,-116.112"/>
</g>
<!-- Node18&#45;&gt;Node17 -->
<g id="edge26" class="edge"><title>Node18&#45;&gt;Node17</title>
<path fill="none" stroke="midnightblue" d="M1147.27,-123.17C1204.13,-110.292 1285.76,-91.8043 1333.09,-81.0862"/>
<polygon fill="midnightblue" stroke="midnightblue" points="1146.29,-119.804 1137.31,-125.426 1147.84,-126.631 1146.29,-119.804"/>
</g>
<!-- Node19&#45;&gt;Node6 -->
<g id="edge30" class="edge"><title>Node19&#45;&gt;Node6</title>
<path fill="none" stroke="midnightblue" d="M1375.47,-202.924C1267.1,-199.489 1079.91,-188.581 1022,-154 995.76,-138.332 978.557,-105.369 970.438,-86.5174"/>
<polygon fill="midnightblue" stroke="midnightblue" points="1375.6,-206.43 1385.7,-203.234 1375.81,-199.433 1375.6,-206.43"/>
</g>
<!-- Node19&#45;&gt;Node14 -->
<g id="edge31" class="edge"><title>Node19&#45;&gt;Node14</title>
<path fill="none" stroke="midnightblue" d="M1400.16,-187.444C1366.28,-176.908 1323.33,-163.549 1291.37,-153.611"/>
<polygon fill="midnightblue" stroke="midnightblue" points="1399.32,-190.848 1409.91,-190.476 1401.4,-184.164 1399.32,-190.848"/>
</g>
<!-- Node19&#45;&gt;Node15 -->
<g id="edge32" class="edge"><title>Node19&#45;&gt;Node15</title>
<path fill="none" stroke="midnightblue" d="M1534.17,-188.474C1594.32,-175.918 1667.51,-159.658 1672,-154 1689.27,-132.254 1662.87,-103.45 1643.19,-86.5508"/>
<polygon fill="midnightblue" stroke="midnightblue" points="1533.34,-185.072 1524.26,-190.534 1534.76,-191.925 1533.34,-185.072"/>
</g>
<!-- Node19&#45;&gt;Node16 -->
<g id="edge40" class="edge"><title>Node19&#45;&gt;Node16</title>
<path fill="none" stroke="midnightblue" d="M1534.31,-190.12C1623.18,-181.345 1820.72,-207.729 1869,-154 1892.32,-128.05 1848.32,-102.003 1813.49,-86.568"/>
<polygon fill="midnightblue" stroke="midnightblue" points="1533.78,-186.658 1524.28,-191.335 1534.62,-193.607 1533.78,-186.658"/>
</g>
<!-- Node19&#45;&gt;Node17 -->
<g id="edge41" class="edge"><title>Node19&#45;&gt;Node17</title>
<path fill="none" stroke="midnightblue" d="M1476.81,-182.479C1490.92,-165.484 1504.51,-141.782 1492,-123 1476.98,-100.457 1449.78,-87.9599 1424.97,-81.0402"/>
<polygon fill="midnightblue" stroke="midnightblue" points="1473.96,-180.421 1469.96,-190.232 1479.21,-185.058 1473.96,-180.421"/>
</g>
<!-- Node20 -->
<g id="node20" class="node"><title>Node20</title>
<g id="a_node20"><a xlink:href="BuilderXML_8hpp.html" target="_top" xlink:title="Physics/BuilderXML.hpp">
<polygon fill="white" stroke="red" points="1539,-129 1539,-148 1663,-148 1663,-129 1539,-129"/>
<text text-anchor="middle" x="1601" y="-136" font-family="Helvetica,sans-Serif" font-size="10.00">Physics/BuilderXML.hpp</text>
</a>
</g>
</g>
<!-- Node19&#45;&gt;Node20 -->
<g id="edge33" class="edge"><title>Node19&#45;&gt;Node20</title>
<path fill="none" stroke="midnightblue" d="M1495.89,-186.295C1524.05,-173.76 1560.16,-157.682 1581.89,-148.007"/>
<polygon fill="midnightblue" stroke="midnightblue" points="1494.39,-183.131 1486.68,-190.396 1497.24,-189.526 1494.39,-183.131"/>
</g>
<!-- Node21 -->
<g id="node21" class="node"><title>Node21</title>
<g id="a_node21"><a xlink:href="DalitzPlot_8hpp.html" target="_top" xlink:title="Tools/Plotting/DalitzPlot.hpp">
<polygon fill="white" stroke="red" points="1719.5,-129 1719.5,-148 1860.5,-148 1860.5,-129 1719.5,-129"/>
<text text-anchor="middle" x="1790" y="-136" font-family="Helvetica,sans-Serif" font-size="10.00">Tools/Plotting/DalitzPlot.hpp</text>
</a>
</g>
</g>
<!-- Node19&#45;&gt;Node21 -->
<g id="edge37" class="edge"><title>Node19&#45;&gt;Node21</title>
<path fill="none" stroke="midnightblue" d="M1533.99,-189.173C1600.22,-176.323 1692.35,-158.447 1746.13,-148.013"/>
<polygon fill="midnightblue" stroke="midnightblue" points="1533.16,-185.77 1524.01,-191.111 1534.49,-192.642 1533.16,-185.77"/>
</g>
<!-- Node22 -->
<g id="node22" class="node"><title>Node22</title>
<g id="a_node22"><a xlink:href="BOSSAdapter_8hpp.html" target="_top" xlink:title="Tools/Adapters/BOSSAdapter.hpp">
<polygon fill="white" stroke="red" points="1317,-129 1317,-148 1483,-148 1483,-129 1317,-129"/>
<text text-anchor="middle" x="1400" y="-136" font-family="Helvetica,sans-Serif" font-size="10.00">Tools/Adapters/BOSSAdapter.hpp</text>
</a>
</g>
</g>
<!-- Node19&#45;&gt;Node22 -->
<g id="edge42" class="edge"><title>Node19&#45;&gt;Node22</title>
<path fill="none" stroke="midnightblue" d="M1436.52,-182.657C1426.54,-170.865 1414.78,-156.967 1407.36,-148.195"/>
<polygon fill="midnightblue" stroke="midnightblue" points="1433.93,-185.023 1443.07,-190.396 1439.28,-180.501 1433.93,-185.023"/>
</g>
<!-- Node20&#45;&gt;Node15 -->
<g id="edge34" class="edge"><title>Node20&#45;&gt;Node15</title>
<path fill="none" stroke="midnightblue" d="M1607.81,-119.065C1611.61,-108.753 1616.29,-96.1012 1619.8,-86.589"/>
<polygon fill="midnightblue" stroke="midnightblue" points="1604.42,-118.141 1604.24,-128.734 1610.98,-120.565 1604.42,-118.141"/>
</g>
<!-- Node20&#45;&gt;Node16 -->
<g id="edge35" class="edge"><title>Node20&#45;&gt;Node16</title>
<path fill="none" stroke="midnightblue" d="M1633.91,-125.346C1663.74,-114.329 1707.7,-98.0927 1739.02,-86.5281"/>
<polygon fill="midnightblue" stroke="midnightblue" points="1632.54,-122.121 1624.37,-128.869 1634.96,-128.687 1632.54,-122.121"/>
</g>
<!-- Node20&#45;&gt;Node17 -->
<g id="edge36" class="edge"><title>Node20&#45;&gt;Node17</title>
<path fill="none" stroke="midnightblue" d="M1560.63,-126.091C1515.13,-113.232 1442.19,-92.6185 1401.3,-81.0637"/>
<polygon fill="midnightblue" stroke="midnightblue" points="1559.88,-129.517 1570.46,-128.869 1561.79,-122.781 1559.88,-129.517"/>
</g>
<!-- Node21&#45;&gt;Node15 -->
<g id="edge38" class="edge"><title>Node21&#45;&gt;Node15</title>
<path fill="none" stroke="midnightblue" d="M1758.78,-125.202C1730.82,-114.188 1689.84,-98.0424 1660.61,-86.5281"/>
<polygon fill="midnightblue" stroke="midnightblue" points="1757.5,-128.46 1768.09,-128.869 1760.07,-121.947 1757.5,-128.46"/>
</g>
<!-- Node21&#45;&gt;Node16 -->
<g id="edge39" class="edge"><title>Node21&#45;&gt;Node16</title>
<path fill="none" stroke="midnightblue" d="M1786.25,-118.739C1784.2,-108.487 1781.7,-96.0011 1779.82,-86.589"/>
<polygon fill="midnightblue" stroke="midnightblue" points="1782.85,-119.614 1788.25,-128.734 1789.72,-118.242 1782.85,-119.614"/>
</g>
</g>
</svg>
        <g id="navigator" transform="translate(0 0)" fill="#404254">
                <rect fill="#f2f5e9" fill-opacity="0.5" stroke="#606060" stroke-width=".5" x="0" y="0" width="60" height="60"/>
                <use id="zoomplus" xlink:href="#zoomPlus" x="17" y="9" onmousedown="handleZoom(evt,'in')"/>
                <use id="zoomminus" xlink:href="#zoomMin" x="42" y="9" onmousedown="handleZoom(evt,'out')"/>
                <use id="reset" xlink:href="#resetDef" x="30" y="36" onmousedown="handleReset()"/>
                <g id="arrowUp" xlink:href="#dirArrow" transform="translate(30 24)" onmousedown="handlePan(0,-1)">
                  <use xlink:href="#rim" fill="#404040">
                        <set attributeName="fill" to="#808080" begin="arrowUp.mouseover" end="arrowUp.mouseout"/>
                  </use>
                  <path fill="none" stroke="white" stroke-width="1.5" d="M0,-3.0v7 M-2.5,-0.5L0,-3.0L2.5,-0.5"/>
                </g>
                <g id="arrowRight" xlink:href="#dirArrow" transform="rotate(90) translate(36 -43)" onmousedown="handlePan(1,0)">
                  <use xlink:href="#rim" fill="#404040">
                        <set attributeName="fill" to="#808080" begin="arrowRight.mouseover" end="arrowRight.mouseout"/>
                  </use>
                  <path fill="none" stroke="white" stroke-width="1.5" d="M0,-3.0v7 M-2.5,-0.5L0,-3.0L2.5,-0.5"/>
                </g>
                <g id="arrowDown" xlink:href="#dirArrow" transform="rotate(180) translate(-30 -48)" onmousedown="handlePan(0,1)">
                  <use xlink:href="#rim" fill="#404040">
                        <set attributeName="fill" to="#808080" begin="arrowDown.mouseover" end="arrowDown.mouseout"/>
                  </use>
                  <path fill="none" stroke="white" stroke-width="1.5" d="M0,-3.0v7 M-2.5,-0.5L0,-3.0L2.5,-0.5"/>
                </g>
                <g id="arrowLeft" xlink:href="#dirArrow" transform="rotate(270) translate(-36 17)" onmousedown="handlePan(-1,0)">
                  <use xlink:href="#rim" fill="#404040">
                        <set attributeName="fill" to="#808080" begin="arrowLeft.mouseover" end="arrowLeft.mouseout"/>
                  </use>
                  <path fill="none" stroke="white" stroke-width="1.5" d="M0,-3.0v7 M-2.5,-0.5L0,-3.0L2.5,-0.5"/>
                </g>
        </g>
        <svg viewBox="0 0 15 15" width="100%" height="30px" preserveAspectRatio="xMaxYMin meet">
         <g id="arrow_out" transform="scale(0.3 0.3)">
          <a xlink:href="ParameterList_8hpp__dep__incl_org.svg" target="_base">
           <rect id="button" ry="5" rx="5" y="6" x="6" height="38" width="38"
                fill="#f2f5e9" fill-opacity="0.5" stroke="#606060" stroke-width="1.0"/>
           <path id="arrow"
             d="M 11.500037,31.436501 C 11.940474,20.09759 22.043105,11.32322 32.158766,21.979434 L 37.068811,17.246167 C 37.068811,17.246167 37.088388,32 37.088388,32 L 22.160133,31.978069 C 22.160133,31.978069 26.997745,27.140456 26.997745,27.140456 C 18.528582,18.264221 13.291696,25.230495 11.500037,31.436501 z"
             style="fill:#404040;"/>
          </a>
         </g>
        </svg>
</svg>
