<?xml version="1.0" encoding="UTF-8" standalone="no"?>
<!DOCTYPE svg PUBLIC "-//W3C//DTD SVG 1.1//EN"
 "http://www.w3.org/Graphics/SVG/1.1/DTD/svg11.dtd">
<!-- Generated by graphviz version 2.38.0 (20140413.2041)
 -->
<!-- Title: Core/FunctionTree/ParameterList.hpp Pages: 1 -->
<!--zoomable 296 -->
<svg id="main" version="1.1" xmlns="http://www.w3.org/2000/svg" xmlns:xlink="http://www.w3.org/1999/xlink" xml:space="preserve" onload="init(evt)">
<style type="text/css"><![CDATA[
.edge:hover path { stroke: red; }
.edge:hover polygon { stroke: red; fill: red; }
]]></style>
<script type="text/javascript"><![CDATA[
var edges = document.getElementsByTagName('g');
if (edges && edges.length) {
  for (var i=0;i<edges.length;i++) {
    if (edges[i].id.substr(0,4)=='edge') {
      edges[i].setAttribute('class','edge');
    }
  }
}
]]></script>
        <defs>
                <circle id="rim" cx="0" cy="0" r="7"/>
                <circle id="rim2" cx="0" cy="0" r="3.5"/>
                <g id="zoomPlus">
                        <use xlink:href="#rim" fill="#404040">
                                <set attributeName="fill" to="#808080" begin="zoomplus.mouseover" end="zoomplus.mouseout"/>
                        </use>
                        <path d="M-4,0h8M0,-4v8" fill="none" stroke="white" stroke-width="1.5" pointer-events="none"/>
                </g>
                <g id="zoomMin">
                        <use xlink:href="#rim" fill="#404040">
                                <set attributeName="fill" to="#808080" begin="zoomminus.mouseover" end="zoomminus.mouseout"/>
                        </use>
                        <path d="M-4,0h8" fill="none" stroke="white" stroke-width="1.5" pointer-events="none"/>
                </g>
                <g id="dirArrow">
                        <path fill="none" stroke="white" stroke-width="1.5" d="M0,-3.0v7 M-2.5,-0.5L0,-3.0L2.5,-0.5"/>
                </g>
               <g id="resetDef">
                       <use xlink:href="#rim2" fill="#404040">
                               <set attributeName="fill" to="#808080" begin="reset.mouseover" end="reset.mouseout"/>
                       </use>
               </g>
        </defs>

<script type="text/javascript">
var viewWidth = 1661;
var viewHeight = 296;
var sectionId = 'dynsection-0';
</script>
<script xlink:href="svgpan.js"/>
<svg id="graph" class="graph">
<g id="viewport">
<title>Core/FunctionTree/ParameterList.hpp</title>
<polygon fill="white" stroke="none" points="-4,4 -4,-292 1657.2,-292 1657.2,4 -4,4"/>
<!-- Node1 -->
<g id="node1" class="node"><title>Node1</title>
<polygon fill="#bfbfbf" stroke="black" points="458.696,-257.5 458.696,-287.5 604.696,-287.5 604.696,-257.5 458.696,-257.5"/>
<text text-anchor="start" x="466.696" y="-275.5" font-family="Helvetica,sans-Serif" font-size="10.00">Core/FunctionTree/Parameter</text>
<text text-anchor="middle" x="531.696" y="-264.5" font-family="Helvetica,sans-Serif" font-size="10.00">List.hpp</text>
</g>
<!-- Node2 -->
<g id="node2" class="node"><title>Node2</title>
<polygon fill="white" stroke="#bfbfbf" points="247.696,-73 247.696,-92 301.696,-92 301.696,-73 247.696,-73"/>
<text text-anchor="middle" x="274.696" y="-80" font-family="Helvetica,sans-Serif" font-size="10.00">iostream</text>
</g>
<!-- Node1&#45;&gt;Node2 -->
<g id="edge1" class="edge"><title>Node1&#45;&gt;Node2</title>
<path fill="none" stroke="midnightblue" d="M482.202,-257.417C457.639,-249.077 428.261,-236.982 404.696,-221 353.666,-186.392 307.585,-128.621 286.625,-100.254"/>
<polygon fill="midnightblue" stroke="midnightblue" points="289.44,-98.174 280.728,-92.1441 283.778,-102.29 289.44,-98.174"/>
</g>
<!-- Node3 -->
<g id="node3" class="node"><title>Node3</title>
<polygon fill="white" stroke="#bfbfbf" points="33.1956,-196 33.1956,-215 68.1956,-215 68.1956,-196 33.1956,-196"/>
<text text-anchor="middle" x="50.6956" y="-203" font-family="Helvetica,sans-Serif" font-size="10.00">map</text>
</g>
<!-- Node1&#45;&gt;Node3 -->
<g id="edge2" class="edge"><title>Node1&#45;&gt;Node3</title>
<path fill="none" stroke="midnightblue" d="M458.444,-270.26C368.451,-267.151 211.83,-256.562 82.6956,-221 80.5456,-220.408 78.357,-219.689 76.1847,-218.892"/>
<polygon fill="midnightblue" stroke="midnightblue" points="77.5128,-215.654 66.9355,-215.045 74.8246,-222.117 77.5128,-215.654"/>
</g>
<!-- Node4 -->
<g id="node4" class="node"><title>Node4</title>
<polygon fill="white" stroke="#bfbfbf" points="188.696,-6 188.696,-25 240.696,-25 240.696,-6 188.696,-6"/>
<text text-anchor="middle" x="214.696" y="-13" font-family="Helvetica,sans-Serif" font-size="10.00">memory</text>
</g>
<!-- Node1&#45;&gt;Node4 -->
<g id="edge3" class="edge"><title>Node1&#45;&gt;Node4</title>
<path fill="none" stroke="midnightblue" d="M458.458,-269.547C324.785,-265.223 52.3065,-252.596 23.6956,-221 -10.61,-183.115 -15.618,-147.9 66.6956,-67 103.082,-31.2383 127.555,-47.8925 175.696,-31 177.939,-30.2129 180.249,-29.3887 182.573,-28.5497"/>
<polygon fill="midnightblue" stroke="midnightblue" points="183.875,-31.8005 192.062,-25.0761 181.468,-25.2271 183.875,-31.8005"/>
</g>
<!-- Node5 -->
<g id="node5" class="node"><title>Node5</title>
<polygon fill="white" stroke="#bfbfbf" points="319.696,-73 319.696,-92 371.696,-92 371.696,-73 319.696,-73"/>
<text text-anchor="middle" x="345.696" y="-80" font-family="Helvetica,sans-Serif" font-size="10.00">sstream</text>
</g>
<!-- Node1&#45;&gt;Node5 -->
<g id="edge4" class="edge"><title>Node1&#45;&gt;Node5</title>
<path fill="none" stroke="midnightblue" d="M495.645,-257.488C476.665,-248.907 453.841,-236.572 436.696,-221 397.63,-185.517 367.636,-129.83 353.908,-101.441"/>
<polygon fill="midnightblue" stroke="midnightblue" points="357.031,-99.8571 349.6,-92.3053 350.7,-102.843 357.031,-99.8571"/>
</g>
<!-- Node6 -->
<g id="node6" class="node"><title>Node6</title>
<polygon fill="white" stroke="#bfbfbf" points="379.196,-6 379.196,-25 420.196,-25 420.196,-6 379.196,-6"/>
<text text-anchor="middle" x="399.696" y="-13" font-family="Helvetica,sans-Serif" font-size="10.00">string</text>
</g>
<!-- Node1&#45;&gt;Node6 -->
<g id="edge5" class="edge"><title>Node1&#45;&gt;Node6</title>
<path fill="none" stroke="midnightblue" d="M458.638,-257.723C427.912,-249.902 392.653,-238.148 363.696,-221 296.632,-181.285 268.813,-169.888 238.696,-98 233.372,-85.2924 230.365,-77.9739 238.696,-67 274.687,-19.5896 311.756,-51.3434 367.696,-31 369.311,-30.4124 370.959,-29.7784 372.613,-29.1154"/>
<polygon fill="midnightblue" stroke="midnightblue" points="374.137,-32.2702 381.956,-25.121 371.385,-25.8337 374.137,-32.2702"/>
</g>
<!-- Node7 -->
<g id="node7" class="node"><title>Node7</title>
<polygon fill="white" stroke="#bfbfbf" points="1055.7,-6 1055.7,-25 1099.7,-25 1099.7,-6 1055.7,-6"/>
<text text-anchor="middle" x="1077.7" y="-13" font-family="Helvetica,sans-Serif" font-size="10.00">vector</text>
</g>
<!-- Node1&#45;&gt;Node7 -->
<g id="edge6" class="edge"><title>Node1&#45;&gt;Node7</title>
<path fill="none" stroke="midnightblue" d="M604.929,-261.967C753.188,-240.987 1080.27,-185.6 1144.7,-98 1152.86,-86.9006 1150.84,-79.3306 1144.7,-67 1136.65,-50.8527 1120.7,-38.5084 1106.38,-30.0673"/>
<polygon fill="midnightblue" stroke="midnightblue" points="1107.76,-26.8303 1097.31,-25.0832 1104.39,-32.9656 1107.76,-26.8303"/>
</g>
<!-- Node8 -->
<g id="node8" class="node"><title>Node8</title>
<polygon fill="white" stroke="#bfbfbf" points="264.196,-0.5 264.196,-30.5 359.196,-30.5 359.196,-0.5 264.196,-0.5"/>
<text text-anchor="start" x="272.196" y="-18.5" font-family="Helvetica,sans-Serif" font-size="10.00">boost/serialization</text>
<text text-anchor="middle" x="311.696" y="-7.5" font-family="Helvetica,sans-Serif" font-size="10.00">/shared_ptr.hpp</text>
</g>
<!-- Node1&#45;&gt;Node8 -->
<g id="edge7" class="edge"><title>Node1&#45;&gt;Node8</title>
<path fill="none" stroke="midnightblue" d="M458.48,-267.5C368.224,-261.492 220.973,-247.857 173.696,-221 112.679,-186.338 98.0221,-164.184 74.6956,-98 47.0117,-19.4526 168.353,-48.8751 249.696,-31 251.146,-30.6812 252.616,-30.3559 254.098,-30.0257"/>
<polygon fill="midnightblue" stroke="midnightblue" points="255.013,-33.4071 263.998,-27.7913 253.472,-26.5788 255.013,-33.4071"/>
</g>
<!-- Node9 -->
<g id="node9" class="node"><title>Node9</title>
<polygon fill="white" stroke="#bfbfbf" points="446.196,-190.5 446.196,-220.5 541.196,-220.5 541.196,-190.5 446.196,-190.5"/>
<text text-anchor="start" x="454.196" y="-208.5" font-family="Helvetica,sans-Serif" font-size="10.00">boost/serialization</text>
<text text-anchor="middle" x="493.696" y="-197.5" font-family="Helvetica,sans-Serif" font-size="10.00">/vector.hpp</text>
</g>
<!-- Node1&#45;&gt;Node9 -->
<g id="edge8" class="edge"><title>Node1&#45;&gt;Node9</title>
<path fill="none" stroke="midnightblue" d="M523.45,-257.396C518.67,-249.219 512.535,-238.725 507.079,-229.393"/>
<polygon fill="midnightblue" stroke="midnightblue" points="509.994,-227.443 501.925,-220.577 503.95,-230.976 509.994,-227.443"/>
</g>
<!-- Node10 -->
<g id="node10" class="node"><title>Node10</title>
<g id="a_node10"><a xlink:href="Exceptions_8hpp.html" target="_top" xlink:title="ComPWA exceptions. ">
<polygon fill="white" stroke="black" points="83.6956,-73 83.6956,-92 191.696,-92 191.696,-73 83.6956,-73"/>
<text text-anchor="middle" x="137.696" y="-80" font-family="Helvetica,sans-Serif" font-size="10.00">Core/Exceptions.hpp</text>
</a>
</g>
</g>
<!-- Node1&#45;&gt;Node10 -->
<g id="edge9" class="edge"><title>Node1&#45;&gt;Node10</title>
<path fill="none" stroke="midnightblue" d="M458.597,-267.929C375.064,-262.532 244.841,-249.698 205.696,-221 165.702,-191.68 147.912,-132.264 141.184,-102.048"/>
<polygon fill="midnightblue" stroke="midnightblue" points="144.565,-101.111 139.124,-92.0203 137.708,-102.52 144.565,-101.111"/>
</g>
<!-- Node12 -->
<g id="node12" class="node"><title>Node12</title>
<g id="a_node12"><a xlink:href="FunctionTree_2FitParameter_8hpp.html" target="_top" xlink:title="Implementations of Parameter for various data types. ">
<polygon fill="white" stroke="black" points="531.696,-134.5 531.696,-153.5 707.696,-153.5 707.696,-134.5 531.696,-134.5"/>
<text text-anchor="middle" x="619.696" y="-141.5" font-family="Helvetica,sans-Serif" font-size="10.00">Core/FunctionTree/FitParameter.hpp</text>
</a>
</g>
</g>
<!-- Node1&#45;&gt;Node12 -->
<g id="edge12" class="edge"><title>Node1&#45;&gt;Node12</title>
<path fill="none" stroke="midnightblue" d="M541.449,-257.479C557.71,-234.104 590.302,-187.253 607.854,-162.022"/>
<polygon fill="midnightblue" stroke="midnightblue" points="610.744,-163.996 613.582,-153.789 604.998,-159.999 610.744,-163.996"/>
</g>
<!-- Node19 -->
<g id="node19" class="node"><title>Node19</title>
<g id="a_node19"><a xlink:href="Logging_8hpp.html" target="_top" xlink:title="Core/Logging.hpp">
<polygon fill="white" stroke="red" points="1155.2,-6 1155.2,-25 1248.2,-25 1248.2,-6 1155.2,-6"/>
<text text-anchor="middle" x="1201.7" y="-13" font-family="Helvetica,sans-Serif" font-size="10.00">Core/Logging.hpp</text>
</a>
</g>
</g>
<!-- Node1&#45;&gt;Node19 -->
<g id="edge36" class="edge"><title>Node1&#45;&gt;Node19</title>
<path fill="none" stroke="midnightblue" d="M604.982,-266.842C682.764,-260.741 808.816,-247.534 914.696,-221 996.69,-200.452 1017.81,-193.218 1092.7,-154 1131.47,-133.695 1147.26,-132.883 1173.7,-98 1187.92,-79.2275 1195.24,-52.7233 1198.77,-35.0955"/>
<polygon fill="midnightblue" stroke="midnightblue" points="1202.22,-35.649 1200.53,-25.1894 1195.33,-34.4181 1202.22,-35.649"/>
</g>
<!-- Node21 -->
<g id="node21" class="node"><title>Node21</title>
<g id="a_node21"><a xlink:href="Value_8hpp.html" target="_top" xlink:title="Template implementation of Parameter for simple values. ">
<polygon fill="white" stroke="black" points="597.696,-196 597.696,-215 741.696,-215 741.696,-196 597.696,-196"/>
<text text-anchor="middle" x="669.696" y="-203" font-family="Helvetica,sans-Serif" font-size="10.00">Core/FunctionTree/Value.hpp</text>
</a>
</g>
</g>
<!-- Node1&#45;&gt;Node21 -->
<g id="edge33" class="edge"><title>Node1&#45;&gt;Node21</title>
<path fill="none" stroke="midnightblue" d="M561.64,-257.396C585.639,-246.092 619.038,-230.361 642.329,-219.39"/>
<polygon fill="midnightblue" stroke="midnightblue" points="644.079,-222.435 651.635,-215.007 641.096,-216.102 644.079,-222.435"/>
</g>
<!-- Node23 -->
<g id="node23" class="node"><title>Node23</title>
<polygon fill="white" stroke="#bfbfbf" points="1229.7,-196 1229.7,-215 1323.7,-215 1323.7,-196 1229.7,-196"/>
<text text-anchor="middle" x="1276.7" y="-203" font-family="Helvetica,sans-Serif" font-size="10.00">boost/version.hpp</text>
</g>
<!-- Node1&#45;&gt;Node23 -->
<g id="edge37" class="edge"><title>Node1&#45;&gt;Node23</title>
<path fill="none" stroke="midnightblue" d="M604.764,-269.929C730.342,-266.378 994.913,-255.167 1215.7,-221 1221.98,-220.028 1228.57,-218.744 1235,-217.342"/>
<polygon fill="midnightblue" stroke="midnightblue" points="1235.95,-220.717 1244.91,-215.069 1234.38,-213.894 1235.95,-220.717"/>
</g>
<!-- Node24 -->
<g id="node24" class="node"><title>Node24</title>
<polygon fill="white" stroke="#bfbfbf" points="1342.2,-190.5 1342.2,-220.5 1437.2,-220.5 1437.2,-190.5 1342.2,-190.5"/>
<text text-anchor="start" x="1350.2" y="-208.5" font-family="Helvetica,sans-Serif" font-size="10.00">boost/serialization</text>
<text text-anchor="middle" x="1389.7" y="-197.5" font-family="Helvetica,sans-Serif" font-size="10.00">/split_free.hpp</text>
</g>
<!-- Node1&#45;&gt;Node24 -->
<g id="edge38" class="edge"><title>Node1&#45;&gt;Node24</title>
<path fill="none" stroke="midnightblue" d="M604.809,-271.425C744.533,-270.295 1059.07,-262.999 1331.84,-220.913"/>
<polygon fill="midnightblue" stroke="midnightblue" points="1332.6,-224.337 1341.94,-219.336 1331.52,-217.421 1332.6,-224.337"/>
</g>
<!-- Node25 -->
<g id="node25" class="node"><title>Node25</title>
<polygon fill="white" stroke="#bfbfbf" points="1455.2,-196 1455.2,-215 1584.2,-215 1584.2,-196 1455.2,-196"/>
<text text-anchor="middle" x="1519.7" y="-203" font-family="Helvetica,sans-Serif" font-size="10.00">boost/unordered_map.hpp</text>
</g>
<!-- Node1&#45;&gt;Node25 -->
<g id="edge39" class="edge"><title>Node1&#45;&gt;Node25</title>
<path fill="none" stroke="midnightblue" d="M604.955,-270.953C760.574,-269.025 1135.35,-260.314 1446.7,-221 1454.9,-219.964 1463.56,-218.54 1471.94,-216.987"/>
<polygon fill="midnightblue" stroke="midnightblue" points="1472.82,-220.382 1481.97,-215.046 1471.49,-213.51 1472.82,-220.382"/>
</g>
<!-- Node26 -->
<g id="node26" class="node"><title>Node26</title>
<polygon fill="white" stroke="#bfbfbf" points="1602.2,-196 1602.2,-215 1653.2,-215 1653.2,-196 1602.2,-196"/>
<text text-anchor="middle" x="1627.7" y="-203" font-family="Helvetica,sans-Serif" font-size="10.00">typeinfo</text>
</g>
<!-- Node1&#45;&gt;Node26 -->
<g id="edge40" class="edge"><title>Node1&#45;&gt;Node26</title>
<path fill="none" stroke="midnightblue" d="M605.056,-271.384C813.29,-270.521 1405.12,-264.223 1593.7,-221 1596.21,-220.423 1598.78,-219.669 1601.32,-218.808"/>
<polygon fill="midnightblue" stroke="midnightblue" points="1602.76,-222.003 1610.8,-215.104 1600.21,-215.483 1602.76,-222.003"/>
</g>
<!-- Node10&#45;&gt;Node6 -->
<g id="edge11" class="edge"><title>Node10&#45;&gt;Node6</title>
<path fill="none" stroke="midnightblue" d="M177.602,-72.9646C241.032,-59.3657 358.663,-34.0011 367.696,-31 369.562,-30.3798 371.466,-29.6857 373.369,-28.9462"/>
<polygon fill="midnightblue" stroke="midnightblue" points="374.843,-32.1229 382.689,-25.0022 372.115,-25.6764 374.843,-32.1229"/>
</g>
<!-- Node11 -->
<g id="node11" class="node"><title>Node11</title>
<polygon fill="white" stroke="#bfbfbf" points="108.196,-6 108.196,-25 167.196,-25 167.196,-6 108.196,-6"/>
<text text-anchor="middle" x="137.696" y="-13" font-family="Helvetica,sans-Serif" font-size="10.00">exception</text>
</g>
<!-- Node10&#45;&gt;Node11 -->
<g id="edge10" class="edge"><title>Node10&#45;&gt;Node11</title>
<path fill="none" stroke="midnightblue" d="M137.696,-72.7338C137.696,-63.1826 137.696,-47.6183 137.696,-35.2829"/>
<polygon fill="midnightblue" stroke="midnightblue" points="141.196,-35.1273 137.696,-25.1273 134.196,-35.1273 141.196,-35.1273"/>
</g>
<!-- Node12&#45;&gt;Node2 -->
<g id="edge15" class="edge"><title>Node12&#45;&gt;Node2</title>
<path fill="none" stroke="midnightblue" d="M531.657,-135.808C469.206,-129.349 383.836,-117.752 310.696,-98 308.191,-97.3237 305.626,-96.5229 303.075,-95.6502"/>
<polygon fill="midnightblue" stroke="midnightblue" points="304.055,-92.2798 293.463,-92.0406 301.594,-98.8329 304.055,-92.2798"/>
</g>
<!-- Node12&#45;&gt;Node5 -->
<g id="edge16" class="edge"><title>Node12&#45;&gt;Node5</title>
<path fill="none" stroke="midnightblue" d="M561.894,-134.492C514.175,-126.848 444.922,-114.32 385.696,-98 382.892,-97.2274 380.004,-96.3494 377.125,-95.4167"/>
<polygon fill="midnightblue" stroke="midnightblue" points="378.096,-92.0496 367.501,-92.1088 375.82,-98.6694 378.096,-92.0496"/>
</g>
<!-- Node12&#45;&gt;Node6 -->
<g id="edge18" class="edge"><title>Node12&#45;&gt;Node6</title>
<path fill="none" stroke="midnightblue" d="M543.973,-134.471C494.712,-127.386 436.442,-115.591 418.696,-98 402.118,-81.5679 398.865,-53.6625 398.741,-35.1559"/>
<polygon fill="midnightblue" stroke="midnightblue" points="402.243,-35.1129 398.977,-25.034 395.244,-34.9497 402.243,-35.1129"/>
</g>
<!-- Node12&#45;&gt;Node10 -->
<g id="edge21" class="edge"><title>Node12&#45;&gt;Node10</title>
<path fill="none" stroke="midnightblue" d="M542.639,-134.471C465.628,-125.813 343.869,-111.758 238.696,-98 226.826,-96.4472 214.184,-94.7038 202.006,-92.9786"/>
<polygon fill="midnightblue" stroke="midnightblue" points="202.307,-89.4861 191.913,-91.5383 201.318,-96.4159 202.307,-89.4861"/>
</g>
<!-- Node13 -->
<g id="node13" class="node"><title>Node13</title>
<polygon fill="white" stroke="#bfbfbf" points="647.696,-73 647.696,-92 691.696,-92 691.696,-73 647.696,-73"/>
<text text-anchor="middle" x="669.696" y="-80" font-family="Helvetica,sans-Serif" font-size="10.00">cmath</text>
</g>
<!-- Node12&#45;&gt;Node13 -->
<g id="edge13" class="edge"><title>Node12&#45;&gt;Node13</title>
<path fill="none" stroke="midnightblue" d="M626.859,-134.475C634.434,-125.462 646.566,-111.025 655.988,-99.8118"/>
<polygon fill="midnightblue" stroke="midnightblue" points="658.791,-101.917 662.545,-92.0091 653.432,-97.4132 658.791,-101.917"/>
</g>
<!-- Node14 -->
<g id="node14" class="node"><title>Node14</title>
<polygon fill="white" stroke="#bfbfbf" points="538.196,-6 538.196,-25 591.196,-25 591.196,-6 538.196,-6"/>
<text text-anchor="middle" x="564.696" y="-13" font-family="Helvetica,sans-Serif" font-size="10.00">complex</text>
</g>
<!-- Node12&#45;&gt;Node14 -->
<g id="edge14" class="edge"><title>Node12&#45;&gt;Node14</title>
<path fill="none" stroke="midnightblue" d="M618.587,-134.213C616.52,-119.682 611.29,-89.9714 600.696,-67 595.033,-54.7235 586.265,-42.341 578.8,-32.9098"/>
<polygon fill="midnightblue" stroke="midnightblue" points="581.49,-30.6701 572.437,-25.1659 576.081,-35.1142 581.49,-30.6701"/>
</g>
<!-- Node15 -->
<g id="node15" class="node"><title>Node15</title>
<polygon fill="white" stroke="#bfbfbf" points="710.196,-73 710.196,-92 769.196,-92 769.196,-73 710.196,-73"/>
<text text-anchor="middle" x="739.696" y="-80" font-family="Helvetica,sans-Serif" font-size="10.00">stdexcept</text>
</g>
<!-- Node12&#45;&gt;Node15 -->
<g id="edge17" class="edge"><title>Node12&#45;&gt;Node15</title>
<path fill="none" stroke="midnightblue" d="M636.889,-134.475C656.938,-124.534 690.294,-107.995 713.556,-96.461"/>
<polygon fill="midnightblue" stroke="midnightblue" points="715.13,-99.5871 722.534,-92.0091 712.02,-93.3157 715.13,-99.5871"/>
</g>
<!-- Node16 -->
<g id="node16" class="node"><title>Node16</title>
<polygon fill="white" stroke="#bfbfbf" points="787.196,-67.5 787.196,-97.5 888.196,-97.5 888.196,-67.5 787.196,-67.5"/>
<text text-anchor="start" x="795.196" y="-85.5" font-family="Helvetica,sans-Serif" font-size="10.00">boost/property_tree</text>
<text text-anchor="middle" x="837.696" y="-74.5" font-family="Helvetica,sans-Serif" font-size="10.00">/ptree_fwd.hpp</text>
</g>
<!-- Node12&#45;&gt;Node16 -->
<g id="edge19" class="edge"><title>Node12&#45;&gt;Node16</title>
<path fill="none" stroke="midnightblue" d="M650.93,-134.475C683.777,-125.51 736.283,-111.179 777.27,-99.9924"/>
<polygon fill="midnightblue" stroke="midnightblue" points="778.43,-103.304 787.156,-97.2942 776.587,-96.5508 778.43,-103.304"/>
</g>
<!-- Node17 -->
<g id="node17" class="node"><title>Node17</title>
<polygon fill="white" stroke="#bfbfbf" points="906.196,-67.5 906.196,-97.5 1001.2,-97.5 1001.2,-67.5 906.196,-67.5"/>
<text text-anchor="start" x="914.196" y="-85.5" font-family="Helvetica,sans-Serif" font-size="10.00">boost/serialization</text>
<text text-anchor="middle" x="953.696" y="-74.5" font-family="Helvetica,sans-Serif" font-size="10.00">/utility.hpp</text>
</g>
<!-- Node12&#45;&gt;Node17 -->
<g id="edge20" class="edge"><title>Node12&#45;&gt;Node17</title>
<path fill="none" stroke="midnightblue" d="M682.937,-134.472C737.166,-126.77 817.562,-114.432 896.05,-98.2413"/>
<polygon fill="midnightblue" stroke="midnightblue" points="897.033,-101.612 906.108,-96.1428 895.604,-94.7591 897.033,-101.612"/>
</g>
<!-- Node18 -->
<g id="node18" class="node"><title>Node18</title>
<g id="a_node18"><a xlink:href="FitParameter_8hpp.html" target="_top" xlink:title="Core/FitParameter.hpp">
<polygon fill="white" stroke="red" points="1019.7,-73 1019.7,-92 1135.7,-92 1135.7,-73 1019.7,-73"/>
<text text-anchor="middle" x="1077.7" y="-80" font-family="Helvetica,sans-Serif" font-size="10.00">Core/FitParameter.hpp</text>
</a>
</g>
</g>
<!-- Node12&#45;&gt;Node18 -->
<g id="edge22" class="edge"><title>Node12&#45;&gt;Node18</title>
<path fill="none" stroke="midnightblue" d="M702.174,-134.474C798.868,-124.308 953.225,-107.502 1010.7,-98 1017.4,-96.8913 1024.45,-95.5556 1031.35,-94.1495"/>
<polygon fill="midnightblue" stroke="midnightblue" points="1032.24,-97.5391 1041.31,-92.057 1030.8,-90.6888 1032.24,-97.5391"/>
</g>
<!-- Node12&#45;&gt;Node19 -->
<g id="edge32" class="edge"><title>Node12&#45;&gt;Node19</title>
<path fill="none" stroke="midnightblue" d="M707.721,-134.799C710.749,-134.528 713.747,-134.261 716.696,-134 811.771,-125.591 1061.97,-145.608 1144.7,-98 1169.56,-83.6915 1186.16,-53.6286 1194.75,-34.2866"/>
<polygon fill="midnightblue" stroke="midnightblue" points="1197.98,-35.627 1198.6,-25.0505 1191.52,-32.9298 1197.98,-35.627"/>
</g>
<!-- Node20 -->
<g id="node20" class="node"><title>Node20</title>
<g id="a_node20"><a xlink:href="Parameter_8hpp.html" target="_top" xlink:title="Parameter base class. ">
<polygon fill="white" stroke="red" points="427.696,-73 427.696,-92 591.696,-92 591.696,-73 427.696,-73"/>
<text text-anchor="middle" x="509.696" y="-80" font-family="Helvetica,sans-Serif" font-size="10.00">Core/FunctionTree/Parameter.hpp</text>
</a>
</g>
</g>
<!-- Node12&#45;&gt;Node20 -->
<g id="edge26" class="edge"><title>Node12&#45;&gt;Node20</title>
<path fill="none" stroke="midnightblue" d="M603.935,-134.475C585.72,-124.622 555.523,-108.288 534.228,-96.7697"/>
<polygon fill="midnightblue" stroke="midnightblue" points="535.888,-93.6883 525.427,-92.0091 532.557,-99.8453 535.888,-93.6883"/>
</g>
<!-- Node18&#45;&gt;Node6 -->
<g id="edge24" class="edge"><title>Node18&#45;&gt;Node6</title>
<path fill="none" stroke="midnightblue" d="M1042.74,-72.9774C1032.47,-70.7335 1021.18,-68.5183 1010.7,-67 798.095,-36.2067 742.581,-51.0011 528.696,-31 494.971,-27.8463 456.383,-23.398 430.266,-20.262"/>
<polygon fill="midnightblue" stroke="midnightblue" points="430.574,-16.7739 420.226,-19.0474 429.733,-23.7232 430.574,-16.7739"/>
</g>
<!-- Node18&#45;&gt;Node7 -->
<g id="edge25" class="edge"><title>Node18&#45;&gt;Node7</title>
<path fill="none" stroke="midnightblue" d="M1077.7,-72.7338C1077.7,-63.1826 1077.7,-47.6183 1077.7,-35.2829"/>
<polygon fill="midnightblue" stroke="midnightblue" points="1081.2,-35.1273 1077.7,-25.1273 1074.2,-35.1273 1081.2,-35.1273"/>
</g>
<!-- Node18&#45;&gt;Node19 -->
<g id="edge23" class="edge"><title>Node18&#45;&gt;Node19</title>
<path fill="none" stroke="midnightblue" d="M1094.16,-72.8685C1115.1,-61.8932 1151.48,-42.8243 1176.06,-29.9385"/>
<polygon fill="midnightblue" stroke="midnightblue" points="1177.93,-32.9099 1185.16,-25.1672 1174.68,-26.7101 1177.93,-32.9099"/>
</g>
<!-- Node20&#45;&gt;Node4 -->
<g id="edge28" class="edge"><title>Node20&#45;&gt;Node4</title>
<path fill="none" stroke="midnightblue" d="M453.91,-72.9679C401.861,-64.4166 322.3,-49.8295 254.696,-31 251.894,-30.2196 249.008,-29.3363 246.129,-28.4001"/>
<polygon fill="midnightblue" stroke="midnightblue" points="247.102,-25.0334 236.507,-25.0865 244.823,-31.6519 247.102,-25.0334"/>
</g>
<!-- Node20&#45;&gt;Node6 -->
<g id="edge29" class="edge"><title>Node20&#45;&gt;Node6</title>
<path fill="none" stroke="midnightblue" d="M494.861,-72.7338C476.388,-61.8182 444.624,-43.0487 422.916,-30.2209"/>
<polygon fill="midnightblue" stroke="midnightblue" points="424.686,-27.2014 414.296,-25.1273 421.124,-33.2279 424.686,-27.2014"/>
</g>
<!-- Node20&#45;&gt;Node7 -->
<g id="edge30" class="edge"><title>Node20&#45;&gt;Node7</title>
<path fill="none" stroke="midnightblue" d="M584.244,-72.969C709.493,-58.6359 957.122,-30.2981 1045.45,-20.1896"/>
<polygon fill="midnightblue" stroke="midnightblue" points="1046.12,-23.6366 1055.65,-19.0223 1045.32,-16.682 1046.12,-23.6366"/>
</g>
<!-- Node20&#45;&gt;Node8 -->
<g id="edge31" class="edge"><title>Node20&#45;&gt;Node8</title>
<path fill="none" stroke="midnightblue" d="M483.403,-72.8685C453.178,-62.9461 402.801,-46.4085 364.41,-33.8051"/>
<polygon fill="midnightblue" stroke="midnightblue" points="365.02,-30.3218 354.427,-30.5281 362.837,-36.9726 365.02,-30.3218"/>
</g>
<!-- Node20&#45;&gt;Node14 -->
<g id="edge27" class="edge"><title>Node20&#45;&gt;Node14</title>
<path fill="none" stroke="midnightblue" d="M517.113,-72.7338C525.69,-62.5979 539.996,-45.6899 550.687,-33.0556"/>
<polygon fill="midnightblue" stroke="midnightblue" points="553.608,-35.022 557.396,-25.1273 548.264,-30.5004 553.608,-35.022"/>
</g>
<!-- Node21&#45;&gt;Node12 -->
<g id="edge34" class="edge"><title>Node21&#45;&gt;Node12</title>
<path fill="none" stroke="midnightblue" d="M662.532,-195.975C654.958,-186.962 642.826,-172.525 633.403,-161.312"/>
<polygon fill="midnightblue" stroke="midnightblue" points="635.959,-158.913 626.846,-153.509 630.6,-163.417 635.959,-158.913"/>
</g>
<!-- Node22 -->
<g id="node22" class="node"><title>Node22</title>
<polygon fill="white" stroke="#bfbfbf" points="726.196,-134.5 726.196,-153.5 773.196,-153.5 773.196,-134.5 726.196,-134.5"/>
<text text-anchor="middle" x="749.696" y="-141.5" font-family="Helvetica,sans-Serif" font-size="10.00">iterator</text>
</g>
<!-- Node21&#45;&gt;Node22 -->
<g id="edge35" class="edge"><title>Node21&#45;&gt;Node22</title>
<path fill="none" stroke="midnightblue" d="M681.158,-195.975C693.871,-186.52 714.608,-171.096 729.948,-159.687"/>
<polygon fill="midnightblue" stroke="midnightblue" points="732.32,-162.285 738.255,-153.509 728.142,-156.669 732.32,-162.285"/>
</g>
</g>
</svg>
        <g id="navigator" transform="translate(0 0)" fill="#404254">
                <rect fill="#f2f5e9" fill-opacity="0.5" stroke="#606060" stroke-width=".5" x="0" y="0" width="60" height="60"/>
                <use id="zoomplus" xlink:href="#zoomPlus" x="17" y="9" onmousedown="handleZoom(evt,'in')"/>
                <use id="zoomminus" xlink:href="#zoomMin" x="42" y="9" onmousedown="handleZoom(evt,'out')"/>
                <use id="reset" xlink:href="#resetDef" x="30" y="36" onmousedown="handleReset()"/>
                <g id="arrowUp" xlink:href="#dirArrow" transform="translate(30 24)" onmousedown="handlePan(0,-1)">
                  <use xlink:href="#rim" fill="#404040">
                        <set attributeName="fill" to="#808080" begin="arrowUp.mouseover" end="arrowUp.mouseout"/>
                  </use>
                  <path fill="none" stroke="white" stroke-width="1.5" d="M0,-3.0v7 M-2.5,-0.5L0,-3.0L2.5,-0.5"/>
                </g>
                <g id="arrowRight" xlink:href="#dirArrow" transform="rotate(90) translate(36 -43)" onmousedown="handlePan(1,0)">
                  <use xlink:href="#rim" fill="#404040">
                        <set attributeName="fill" to="#808080" begin="arrowRight.mouseover" end="arrowRight.mouseout"/>
                  </use>
                  <path fill="none" stroke="white" stroke-width="1.5" d="M0,-3.0v7 M-2.5,-0.5L0,-3.0L2.5,-0.5"/>
                </g>
                <g id="arrowDown" xlink:href="#dirArrow" transform="rotate(180) translate(-30 -48)" onmousedown="handlePan(0,1)">
                  <use xlink:href="#rim" fill="#404040">
                        <set attributeName="fill" to="#808080" begin="arrowDown.mouseover" end="arrowDown.mouseout"/>
                  </use>
                  <path fill="none" stroke="white" stroke-width="1.5" d="M0,-3.0v7 M-2.5,-0.5L0,-3.0L2.5,-0.5"/>
                </g>
                <g id="arrowLeft" xlink:href="#dirArrow" transform="rotate(270) translate(-36 17)" onmousedown="handlePan(-1,0)">
                  <use xlink:href="#rim" fill="#404040">
                        <set attributeName="fill" to="#808080" begin="arrowLeft.mouseover" end="arrowLeft.mouseout"/>
                  </use>
                  <path fill="none" stroke="white" stroke-width="1.5" d="M0,-3.0v7 M-2.5,-0.5L0,-3.0L2.5,-0.5"/>
                </g>
        </g>
        <svg viewBox="0 0 15 15" width="100%" height="30px" preserveAspectRatio="xMaxYMin meet">
         <g id="arrow_out" transform="scale(0.3 0.3)">
          <a xlink:href="ParameterList_8hpp__incl_org.svg" target="_base">
           <rect id="button" ry="5" rx="5" y="6" x="6" height="38" width="38"
                fill="#f2f5e9" fill-opacity="0.5" stroke="#606060" stroke-width="1.0"/>
           <path id="arrow"
             d="M 11.500037,31.436501 C 11.940474,20.09759 22.043105,11.32322 32.158766,21.979434 L 37.068811,17.246167 C 37.068811,17.246167 37.088388,32 37.088388,32 L 22.160133,31.978069 C 22.160133,31.978069 26.997745,27.140456 26.997745,27.140456 C 18.528582,18.264221 13.291696,25.230495 11.500037,31.436501 z"
             style="fill:#404040;"/>
          </a>
         </g>
        </svg>
</svg>
