<?xml version="1.0" encoding="UTF-8" standalone="no"?>
<!DOCTYPE svg PUBLIC "-//W3C//DTD SVG 1.1//EN"
 "http://www.w3.org/Graphics/SVG/1.1/DTD/svg11.dtd">
<!-- Generated by graphviz version 2.38.0 (20140413.2041)
 -->
<!-- Title: Core/FunctionTree/Parameter.hpp Pages: 1 -->
<svg width="808pt" height="274pt"
 viewBox="0.00 0.00 807.50 274.00" xmlns="http://www.w3.org/2000/svg" xmlns:xlink="http://www.w3.org/1999/xlink">
<g id="graph0" class="graph" transform="scale(1 1) rotate(0) translate(4 270)">
<title>Core/FunctionTree/Parameter.hpp</title>
<polygon fill="white" stroke="none" points="-4,4 -4,-270 803.5,-270 803.5,4 -4,4"/>
<!-- Node1 -->
<g id="node1" class="node"><title>Node1</title>
<polygon fill="#bfbfbf" stroke="black" points="260,-246.5 260,-265.5 424,-265.5 424,-246.5 260,-246.5"/>
<text text-anchor="middle" x="342" y="-253.5" font-family="Helvetica,sans-Serif" font-size="10.00">Core/FunctionTree/Parameter.hpp</text>
</g>
<!-- Node2 -->
<g id="node2" class="node"><title>Node2</title>
<g id="a_node2"><a xlink:href="FunctionTree_2FitParameter_8hpp.html" target="_top" xlink:title="Implementations of Parameter for various data types. ">
<polygon fill="white" stroke="black" points="254,-190.5 254,-209.5 430,-209.5 430,-190.5 254,-190.5"/>
<text text-anchor="middle" x="342" y="-197.5" font-family="Helvetica,sans-Serif" font-size="10.00">Core/FunctionTree/FitParameter.hpp</text>
</a>
</g>
</g>
<!-- Node1&#45;&gt;Node2 -->
<g id="edge1" class="edge"><title>Node1&#45;&gt;Node2</title>
<path fill="none" stroke="midnightblue" d="M342,-235.805C342,-226.91 342,-216.78 342,-209.751"/>
<polygon fill="midnightblue" stroke="midnightblue" points="338.5,-236.083 342,-246.083 345.5,-236.083 338.5,-236.083"/>
</g>
<!-- Node3 -->
<g id="node3" class="node"><title>Node3</title>
<g id="a_node3"><a xlink:href="FitParameter_8cpp.html" target="_top" xlink:title="Core/FunctionTree/FitParameter.cpp">
<polygon fill="white" stroke="black" points="0,-134.5 0,-153.5 176,-153.5 176,-134.5 0,-134.5"/>
<text text-anchor="middle" x="88" y="-141.5" font-family="Helvetica,sans-Serif" font-size="10.00">Core/FunctionTree/FitParameter.cpp</text>
</a>
</g>
</g>
<!-- Node2&#45;&gt;Node3 -->
<g id="edge2" class="edge"><title>Node2&#45;&gt;Node3</title>
<path fill="none" stroke="midnightblue" d="M291.885,-188.346C243.883,-178.141 172.385,-162.94 128.059,-153.516"/>
<polygon fill="midnightblue" stroke="midnightblue" points="291.244,-191.787 301.753,-190.444 292.699,-184.94 291.244,-191.787"/>
</g>
<!-- Node4 -->
<g id="node4" class="node"><title>Node4</title>
<g id="a_node4"><a xlink:href="Functions_8hpp.html" target="_top" xlink:title="This file contains Functions implementing the Strategy interface so they can be used inside a node of...">
<polygon fill="white" stroke="red" points="156,-6 156,-25 318,-25 318,-6 156,-6"/>
<text text-anchor="middle" x="237" y="-13" font-family="Helvetica,sans-Serif" font-size="10.00">Core/FunctionTree/Functions.hpp</text>
</a>
</g>
</g>
<!-- Node2&#45;&gt;Node4 -->
<g id="edge3" class="edge"><title>Node2&#45;&gt;Node4</title>
<path fill="none" stroke="midnightblue" d="M300.064,-186.726C283.086,-179.735 264.755,-169.244 253,-154 222.475,-114.415 230.991,-48.384 235.257,-25.0142"/>
<polygon fill="midnightblue" stroke="midnightblue" points="299.254,-190.162 309.845,-190.447 301.743,-183.62 299.254,-190.162"/>
</g>
<!-- Node5 -->
<g id="node5" class="node"><title>Node5</title>
<g id="a_node5"><a xlink:href="ParameterList_8hpp.html" target="_top" xlink:title="ParameterList class. ">
<polygon fill="white" stroke="red" points="250,-67.5 250,-97.5 396,-97.5 396,-67.5 250,-67.5"/>
<text text-anchor="start" x="258" y="-85.5" font-family="Helvetica,sans-Serif" font-size="10.00">Core/FunctionTree/Parameter</text>
<text text-anchor="middle" x="323" y="-74.5" font-family="Helvetica,sans-Serif" font-size="10.00">List.hpp</text>
</a>
</g>
</g>
<!-- Node2&#45;&gt;Node5 -->
<g id="edge4" class="edge"><title>Node2&#45;&gt;Node5</title>
<path fill="none" stroke="midnightblue" d="M301.478,-186.536C285.989,-179.574 269.918,-169.156 261,-154 248.188,-132.226 273.619,-110.974 295.68,-97.5943"/>
<polygon fill="midnightblue" stroke="midnightblue" points="300.397,-189.876 310.977,-190.436 303.056,-183.4 300.397,-189.876"/>
</g>
<!-- Node6 -->
<g id="node6" class="node"><title>Node6</title>
<g id="a_node6"><a xlink:href="ParameterList_8cpp.html" target="_top" xlink:title="Core/FunctionTree/Parameter\lList.cpp">
<polygon fill="white" stroke="black" points="352,-0.5 352,-30.5 498,-30.5 498,-0.5 352,-0.5"/>
<text text-anchor="start" x="360" y="-18.5" font-family="Helvetica,sans-Serif" font-size="10.00">Core/FunctionTree/Parameter</text>
<text text-anchor="middle" x="425" y="-7.5" font-family="Helvetica,sans-Serif" font-size="10.00">List.cpp</text>
</a>
</g>
</g>
<!-- Node2&#45;&gt;Node6 -->
<g id="edge9" class="edge"><title>Node2&#45;&gt;Node6</title>
<path fill="none" stroke="midnightblue" d="M382.414,-186.472C397.885,-179.499 413.972,-169.091 423,-154 446.532,-114.663 435.891,-56.988 429.1,-30.6088"/>
<polygon fill="midnightblue" stroke="midnightblue" points="380.841,-183.334 372.929,-190.381 383.508,-189.806 380.841,-183.334"/>
</g>
<!-- Node7 -->
<g id="node7" class="node"><title>Node7</title>
<g id="a_node7"><a xlink:href="Value_8hpp.html" target="_top" xlink:title="Template implementation of Parameter for simple values. ">
<polygon fill="white" stroke="red" points="270,-134.5 270,-153.5 414,-153.5 414,-134.5 270,-134.5"/>
<text text-anchor="middle" x="342" y="-141.5" font-family="Helvetica,sans-Serif" font-size="10.00">Core/FunctionTree/Value.hpp</text>
</a>
</g>
</g>
<!-- Node2&#45;&gt;Node7 -->
<g id="edge7" class="edge"><title>Node2&#45;&gt;Node7</title>
<path fill="none" stroke="midnightblue" d="M342,-179.805C342,-170.91 342,-160.78 342,-153.751"/>
<polygon fill="midnightblue" stroke="midnightblue" points="338.5,-180.083 342,-190.083 345.5,-180.083 338.5,-180.083"/>
</g>
<!-- Node8 -->
<g id="node8" class="node"><title>Node8</title>
<g id="a_node8"><a xlink:href="EvtGenIF_8hpp.html" target="_top" xlink:title="Physics/EvtGen/EvtGenIF.hpp">
<polygon fill="white" stroke="red" points="470,-134.5 470,-153.5 622,-153.5 622,-134.5 470,-134.5"/>
<text text-anchor="middle" x="546" y="-141.5" font-family="Helvetica,sans-Serif" font-size="10.00">Physics/EvtGen/EvtGenIF.hpp</text>
</a>
</g>
</g>
<!-- Node2&#45;&gt;Node8 -->
<g id="edge10" class="edge"><title>Node2&#45;&gt;Node8</title>
<path fill="none" stroke="midnightblue" d="M384.201,-187.829C422.718,-177.633 478.822,-162.782 513.827,-153.516"/>
<polygon fill="midnightblue" stroke="midnightblue" points="383.096,-184.501 374.324,-190.444 384.887,-191.268 383.096,-184.501"/>
</g>
<!-- Node9 -->
<g id="node9" class="node"><title>Node9</title>
<g id="a_node9"><a xlink:href="Coupling_8hpp.html" target="_top" xlink:title="Physics/Dynamics/Coupling.hpp">
<polygon fill="white" stroke="red" points="640.5,-134.5 640.5,-153.5 799.5,-153.5 799.5,-134.5 640.5,-134.5"/>
<text text-anchor="middle" x="720" y="-141.5" font-family="Helvetica,sans-Serif" font-size="10.00">Physics/Dynamics/Coupling.hpp</text>
</a>
</g>
</g>
<!-- Node2&#45;&gt;Node9 -->
<g id="edge11" class="edge"><title>Node2&#45;&gt;Node9</title>
<path fill="none" stroke="midnightblue" d="M412.144,-188.979C483.547,-178.779 593.04,-163.137 660.385,-153.516"/>
<polygon fill="midnightblue" stroke="midnightblue" points="411.3,-185.564 401.895,-190.444 412.29,-192.494 411.3,-185.564"/>
</g>
<!-- Node5&#45;&gt;Node4 -->
<g id="edge5" class="edge"><title>Node5&#45;&gt;Node4</title>
<path fill="none" stroke="midnightblue" d="M296.33,-61.3425C280.281,-49.2128 260.668,-34.389 248.504,-25.1945"/>
<polygon fill="midnightblue" stroke="midnightblue" points="294.251,-64.1585 304.339,-67.396 298.472,-58.5741 294.251,-64.1585"/>
</g>
<!-- Node5&#45;&gt;Node6 -->
<g id="edge6" class="edge"><title>Node5&#45;&gt;Node6</title>
<path fill="none" stroke="midnightblue" d="M353.576,-62.0151C369.449,-51.8999 388.484,-39.7698 402.911,-30.5765"/>
<polygon fill="midnightblue" stroke="midnightblue" points="351.685,-59.0702 345.132,-67.396 355.447,-64.9734 351.685,-59.0702"/>
</g>
<!-- Node7&#45;&gt;Node5 -->
<g id="edge8" class="edge"><title>Node7&#45;&gt;Node5</title>
<path fill="none" stroke="midnightblue" d="M336.193,-124.816C333.391,-116.041 330.081,-105.676 327.478,-97.523"/>
<polygon fill="midnightblue" stroke="midnightblue" points="332.902,-126.014 339.278,-134.475 339.57,-123.884 332.902,-126.014"/>
</g>
</g>
</svg>
