<?xml version="1.0" encoding="UTF-8" standalone="no"?>
<!DOCTYPE svg PUBLIC "-//W3C//DTD SVG 1.1//EN"
 "http://www.w3.org/Graphics/SVG/1.1/DTD/svg11.dtd">
<!-- Generated by graphviz version 2.38.0 (20140413.2041)
 -->
<!-- Title: Core/Particle.hpp Pages: 1 -->
<svg width="583pt" height="95pt"
 viewBox="0.00 0.00 582.50 95.00" xmlns="http://www.w3.org/2000/svg" xmlns:xlink="http://www.w3.org/1999/xlink">
<g id="graph0" class="graph" transform="scale(1 1) rotate(0) translate(4 91)">
<title>Core/Particle.hpp</title>
<polygon fill="white" stroke="none" points="-4,4 -4,-91 578.5,-91 578.5,4 -4,4"/>
<!-- Node1 -->
<g id="node1" class="node"><title>Node1</title>
<polygon fill="#bfbfbf" stroke="black" points="208,-67.5 208,-86.5 300,-86.5 300,-67.5 208,-67.5"/>
<text text-anchor="middle" x="254" y="-74.5" font-family="Helvetica,sans-Serif" font-size="10.00">Core/Particle.hpp</text>
</g>
<!-- Node2 -->
<g id="node2" class="node"><title>Node2</title>
<polygon fill="white" stroke="#bfbfbf" points="0,-6 0,-25 56,-25 56,-6 0,-6"/>
<text text-anchor="middle" x="28" y="-13" font-family="Helvetica,sans-Serif" font-size="10.00">algorithm</text>
</g>
<!-- Node1&#45;&gt;Node2 -->
<g id="edge1" class="edge"><title>Node1&#45;&gt;Node2</title>
<path fill="none" stroke="midnightblue" d="M210.37,-67.4223C171.759,-59.4039 114.085,-46.3787 65,-31 62.7225,-30.2864 60.3848,-29.5009 58.0449,-28.676"/>
<polygon fill="midnightblue" stroke="midnightblue" points="59.154,-25.3543 48.5612,-25.1458 56.712,-31.9145 59.154,-25.3543"/>
</g>
<!-- Node3 -->
<g id="node3" class="node"><title>Node3</title>
<polygon fill="white" stroke="#bfbfbf" points="74,-6 74,-25 112,-25 112,-6 74,-6"/>
<text text-anchor="middle" x="93" y="-13" font-family="Helvetica,sans-Serif" font-size="10.00">array</text>
</g>
<!-- Node1&#45;&gt;Node3 -->
<g id="edge2" class="edge"><title>Node1&#45;&gt;Node3</title>
<path fill="none" stroke="midnightblue" d="M224.729,-67.4971C197.46,-59.2488 155.882,-45.8322 121,-31 119.967,-30.5609 118.92,-30.0991 117.868,-29.6211"/>
<polygon fill="midnightblue" stroke="midnightblue" points="119.02,-26.2888 108.497,-25.0556 115.954,-32.5818 119.02,-26.2888"/>
</g>
<!-- Node4 -->
<g id="node4" class="node"><title>Node4</title>
<polygon fill="white" stroke="#bfbfbf" points="130,-6 130,-25 174,-25 174,-6 130,-6"/>
<text text-anchor="middle" x="152" y="-13" font-family="Helvetica,sans-Serif" font-size="10.00">cmath</text>
</g>
<!-- Node1&#45;&gt;Node4 -->
<g id="edge3" class="edge"><title>Node1&#45;&gt;Node4</title>
<path fill="none" stroke="midnightblue" d="M239.386,-67.4751C222.647,-57.7106 194.996,-41.5807 175.281,-30.0808"/>
<polygon fill="midnightblue" stroke="midnightblue" points="176.988,-27.0246 166.587,-25.0091 173.461,-33.0711 176.988,-27.0246"/>
</g>
<!-- Node5 -->
<g id="node5" class="node"><title>Node5</title>
<polygon fill="white" stroke="#bfbfbf" points="192,-6 192,-25 246,-25 246,-6 192,-6"/>
<text text-anchor="middle" x="219" y="-13" font-family="Helvetica,sans-Serif" font-size="10.00">iostream</text>
</g>
<!-- Node1&#45;&gt;Node5 -->
<g id="edge4" class="edge"><title>Node1&#45;&gt;Node5</title>
<path fill="none" stroke="midnightblue" d="M248.985,-67.4751C243.839,-58.7268 235.688,-44.8691 229.182,-33.8093"/>
<polygon fill="midnightblue" stroke="midnightblue" points="232.092,-31.8539 224.005,-25.0091 226.059,-35.403 232.092,-31.8539"/>
</g>
<!-- Node6 -->
<g id="node6" class="node"><title>Node6</title>
<polygon fill="white" stroke="#bfbfbf" points="264.5,-6 264.5,-25 315.5,-25 315.5,-6 264.5,-6"/>
<text text-anchor="middle" x="290" y="-13" font-family="Helvetica,sans-Serif" font-size="10.00">numeric</text>
</g>
<!-- Node1&#45;&gt;Node6 -->
<g id="edge5" class="edge"><title>Node1&#45;&gt;Node6</title>
<path fill="none" stroke="midnightblue" d="M259.158,-67.4751C264.451,-58.7268 272.835,-44.8691 279.527,-33.8093"/>
<polygon fill="midnightblue" stroke="midnightblue" points="282.67,-35.3768 284.852,-25.0091 276.68,-31.7531 282.67,-35.3768"/>
</g>
<!-- Node7 -->
<g id="node7" class="node"><title>Node7</title>
<polygon fill="white" stroke="#bfbfbf" points="333.5,-6 333.5,-25 392.5,-25 392.5,-6 333.5,-6"/>
<text text-anchor="middle" x="363" y="-13" font-family="Helvetica,sans-Serif" font-size="10.00">stdexcept</text>
</g>
<!-- Node1&#45;&gt;Node7 -->
<g id="edge6" class="edge"><title>Node1&#45;&gt;Node7</title>
<path fill="none" stroke="midnightblue" d="M269.617,-67.4751C287.586,-57.6664 317.321,-41.4346 338.406,-29.925"/>
<polygon fill="midnightblue" stroke="midnightblue" points="340.311,-32.8726 347.412,-25.0091 336.958,-26.7284 340.311,-32.8726"/>
</g>
<!-- Node8 -->
<g id="node8" class="node"><title>Node8</title>
<polygon fill="white" stroke="#bfbfbf" points="411,-6 411,-25 455,-25 455,-6 411,-6"/>
<text text-anchor="middle" x="433" y="-13" font-family="Helvetica,sans-Serif" font-size="10.00">vector</text>
</g>
<!-- Node1&#45;&gt;Node8 -->
<g id="edge7" class="edge"><title>Node1&#45;&gt;Node8</title>
<path fill="none" stroke="midnightblue" d="M286.785,-67.4763C317.078,-59.2622 363.136,-45.9107 402,-31 403.422,-30.4546 404.869,-29.8732 406.323,-29.2683"/>
<polygon fill="midnightblue" stroke="midnightblue" points="408.08,-32.3183 415.809,-25.0712 405.248,-25.9169 408.08,-32.3183"/>
</g>
<!-- Node9 -->
<g id="node9" class="node"><title>Node9</title>
<polygon fill="white" stroke="#bfbfbf" points="473.5,-0.5 473.5,-30.5 574.5,-30.5 574.5,-0.5 473.5,-0.5"/>
<text text-anchor="start" x="481.5" y="-18.5" font-family="Helvetica,sans-Serif" font-size="10.00">boost/property_tree</text>
<text text-anchor="middle" x="524" y="-7.5" font-family="Helvetica,sans-Serif" font-size="10.00">/ptree.hpp</text>
</g>
<!-- Node1&#45;&gt;Node9 -->
<g id="edge8" class="edge"><title>Node1&#45;&gt;Node9</title>
<path fill="none" stroke="midnightblue" d="M295.51,-67.4376C335.852,-59.0418 399.099,-45.684 463.378,-31.1086"/>
<polygon fill="midnightblue" stroke="midnightblue" points="464.309,-34.4864 473.283,-28.8548 462.755,-27.6609 464.309,-34.4864"/>
</g>
</g>
</svg>
