<?xml version="1.0" encoding="UTF-8" standalone="no"?>
<!DOCTYPE svg PUBLIC "-//W3C//DTD SVG 1.1//EN"
 "http://www.w3.org/Graphics/SVG/1.1/DTD/svg11.dtd">
<!-- Generated by graphviz version 2.38.0 (20140413.2041)
 -->
<!-- Title: Core/Particle.hpp Pages: 1 -->
<!--zoomable 296 -->
<svg id="main" version="1.1" xmlns="http://www.w3.org/2000/svg" xmlns:xlink="http://www.w3.org/1999/xlink" xml:space="preserve" onload="init(evt)">
<style type="text/css"><![CDATA[
.edge:hover path { stroke: red; }
.edge:hover polygon { stroke: red; fill: red; }
]]></style>
<script type="text/javascript"><![CDATA[
var edges = document.getElementsByTagName('g');
if (edges && edges.length) {
  for (var i=0;i<edges.length;i++) {
    if (edges[i].id.substr(0,4)=='edge') {
      edges[i].setAttribute('class','edge');
    }
  }
}
]]></script>
        <defs>
                <circle id="rim" cx="0" cy="0" r="7"/>
                <circle id="rim2" cx="0" cy="0" r="3.5"/>
                <g id="zoomPlus">
                        <use xlink:href="#rim" fill="#404040">
                                <set attributeName="fill" to="#808080" begin="zoomplus.mouseover" end="zoomplus.mouseout"/>
                        </use>
                        <path d="M-4,0h8M0,-4v8" fill="none" stroke="white" stroke-width="1.5" pointer-events="none"/>
                </g>
                <g id="zoomMin">
                        <use xlink:href="#rim" fill="#404040">
                                <set attributeName="fill" to="#808080" begin="zoomminus.mouseover" end="zoomminus.mouseout"/>
                        </use>
                        <path d="M-4,0h8" fill="none" stroke="white" stroke-width="1.5" pointer-events="none"/>
                </g>
                <g id="dirArrow">
                        <path fill="none" stroke="white" stroke-width="1.5" d="M0,-3.0v7 M-2.5,-0.5L0,-3.0L2.5,-0.5"/>
                </g>
               <g id="resetDef">
                       <use xlink:href="#rim2" fill="#404040">
                               <set attributeName="fill" to="#808080" begin="reset.mouseover" end="reset.mouseout"/>
                       </use>
               </g>
        </defs>

<script type="text/javascript">
var viewWidth = 2211;
var viewHeight = 296;
var sectionId = 'dynsection-1';
</script>
<script xlink:href="svgpan.js"/>
<svg id="graph" class="graph">
<g id="viewport">
<title>Core/Particle.hpp</title>
<polygon fill="white" stroke="none" points="-4,4 -4,-292 2206.86,-292 2206.86,4 -4,4"/>
<!-- Node1 -->
<g id="node1" class="node"><title>Node1</title>
<polygon fill="#bfbfbf" stroke="black" points="1239.5,-268.5 1239.5,-287.5 1331.5,-287.5 1331.5,-268.5 1239.5,-268.5"/>
<text text-anchor="middle" x="1285.5" y="-275.5" font-family="Helvetica,sans-Serif" font-size="10.00">Core/Particle.hpp</text>
</g>
<!-- Node2 -->
<g id="node2" class="node"><title>Node2</title>
<g id="a_node2"><a xlink:href="Event_8hpp.html" target="_top" xlink:title="Core/Event.hpp">
<polygon fill="white" stroke="black" points="814,-207 814,-226 899,-226 899,-207 814,-207"/>
<text text-anchor="middle" x="856.5" y="-214" font-family="Helvetica,sans-Serif" font-size="10.00">Core/Event.hpp</text>
</a>
</g>
</g>
<!-- Node1&#45;&gt;Node2 -->
<g id="edge1" class="edge"><title>Node1&#45;&gt;Node2</title>
<path fill="none" stroke="midnightblue" d="M1229.23,-269.195C1142.22,-257.128 976.977,-234.209 899.112,-223.41"/>
<polygon fill="midnightblue" stroke="midnightblue" points="1228.8,-272.669 1239.18,-270.576 1229.76,-265.735 1228.8,-272.669"/>
</g>
<!-- Node6 -->
<g id="node6" class="node"><title>Node6</title>
<g id="a_node6"><a xlink:href="MinLogLH_8cpp.html" target="_top" xlink:title="Estimator/MinLogLH\l/MinLogLH.cpp">
<polygon fill="white" stroke="black" points="464.5,-67.5 464.5,-97.5 570.5,-97.5 570.5,-67.5 464.5,-67.5"/>
<text text-anchor="start" x="472.5" y="-85.5" font-family="Helvetica,sans-Serif" font-size="10.00">Estimator/MinLogLH</text>
<text text-anchor="middle" x="517.5" y="-74.5" font-family="Helvetica,sans-Serif" font-size="10.00">/MinLogLH.cpp</text>
</a>
</g>
</g>
<!-- Node1&#45;&gt;Node6 -->
<g id="edge52" class="edge"><title>Node1&#45;&gt;Node6</title>
<path fill="none" stroke="midnightblue" d="M1229.39,-273.332C1057.69,-261.52 548.165,-221.906 502.5,-165 486.923,-145.588 499.249,-115.193 508.88,-97.5244"/>
<polygon fill="midnightblue" stroke="midnightblue" points="1229.27,-276.831 1239.49,-274.021 1229.75,-269.848 1229.27,-276.831"/>
</g>
<!-- Node12 -->
<g id="node12" class="node"><title>Node12</title>
<g id="a_node12"><a xlink:href="DalitzKinematics_8cpp.html" target="_top" xlink:title="Physics/EvtGen/DalitzKinematics.cpp">
<polygon fill="white" stroke="black" points="1857.5,-73 1857.5,-92 2041.5,-92 2041.5,-73 1857.5,-73"/>
<text text-anchor="middle" x="1949.5" y="-80" font-family="Helvetica,sans-Serif" font-size="10.00">Physics/EvtGen/DalitzKinematics.cpp</text>
</a>
</g>
</g>
<!-- Node1&#45;&gt;Node12 -->
<g id="edge59" class="edge"><title>Node1&#45;&gt;Node12</title>
<path fill="none" stroke="midnightblue" d="M1341.76,-274.364C1531.02,-264.923 2135.87,-229.857 2191.5,-165 2238.4,-110.32 2128.25,-92.2193 2041.53,-86.2915"/>
<polygon fill="midnightblue" stroke="midnightblue" points="1341.56,-270.87 1331.75,-274.859 1341.91,-277.861 1341.56,-270.87"/>
</g>
<!-- Node13 -->
<g id="node13" class="node"><title>Node13</title>
<g id="a_node13"><a xlink:href="HelicityKinematics_8cpp.html" target="_top" xlink:title="Physics/HelicityFormalism\l/HelicityKinematics.cpp">
<polygon fill="white" stroke="black" points="1459.5,-67.5 1459.5,-97.5 1593.5,-97.5 1593.5,-67.5 1459.5,-67.5"/>
<text text-anchor="start" x="1467.5" y="-85.5" font-family="Helvetica,sans-Serif" font-size="10.00">Physics/HelicityFormalism</text>
<text text-anchor="middle" x="1526.5" y="-74.5" font-family="Helvetica,sans-Serif" font-size="10.00">/HelicityKinematics.cpp</text>
</a>
</g>
</g>
<!-- Node1&#45;&gt;Node13 -->
<g id="edge60" class="edge"><title>Node1&#45;&gt;Node13</title>
<path fill="none" stroke="midnightblue" d="M1337.56,-265.877C1390.27,-251.766 1469.9,-222.068 1512.5,-165 1527.27,-145.213 1528.51,-115.224 1527.74,-97.6746"/>
<polygon fill="midnightblue" stroke="midnightblue" points="1336.53,-262.528 1327.72,-268.414 1338.28,-269.306 1336.53,-262.528"/>
</g>
<!-- Node24 -->
<g id="node24" class="node"><title>Node24</title>
<g id="a_node24"><a xlink:href="SumMinLogLH_8cpp.html" target="_top" xlink:title="Estimator/MinLogLH\l/SumMinLogLH.cpp">
<polygon fill="white" stroke="black" points="1232.5,-134.5 1232.5,-164.5 1338.5,-164.5 1338.5,-134.5 1232.5,-134.5"/>
<text text-anchor="start" x="1240.5" y="-152.5" font-family="Helvetica,sans-Serif" font-size="10.00">Estimator/MinLogLH</text>
<text text-anchor="middle" x="1285.5" y="-141.5" font-family="Helvetica,sans-Serif" font-size="10.00">/SumMinLogLH.cpp</text>
</a>
</g>
</g>
<!-- Node1&#45;&gt;Node24 -->
<g id="edge53" class="edge"><title>Node1&#45;&gt;Node24</title>
<path fill="none" stroke="midnightblue" d="M1285.5,-258.108C1285.5,-232.629 1285.5,-187.811 1285.5,-164.888"/>
<polygon fill="midnightblue" stroke="midnightblue" points="1282,-258.305 1285.5,-268.305 1289,-258.305 1282,-258.305"/>
</g>
<!-- Node25 -->
<g id="node25" class="node"><title>Node25</title>
<g id="a_node25"><a xlink:href="ParticleStateTransitionKinematicsInfo_8hpp.html" target="_top" xlink:title="Physics/ParticleStateTransition\lKinematicsInfo.hpp">
<polygon fill="white" stroke="black" points="1593.5,-201.5 1593.5,-231.5 1747.5,-231.5 1747.5,-201.5 1593.5,-201.5"/>
<text text-anchor="start" x="1601.5" y="-219.5" font-family="Helvetica,sans-Serif" font-size="10.00">Physics/ParticleStateTransition</text>
<text text-anchor="middle" x="1670.5" y="-208.5" font-family="Helvetica,sans-Serif" font-size="10.00">KinematicsInfo.hpp</text>
</a>
</g>
</g>
<!-- Node1&#45;&gt;Node25 -->
<g id="edge36" class="edge"><title>Node1&#45;&gt;Node25</title>
<path fill="none" stroke="midnightblue" d="M1341.83,-268.294C1408.29,-258.024 1519.12,-240.895 1593.48,-229.403"/>
<polygon fill="midnightblue" stroke="midnightblue" points="1340.91,-264.896 1331.56,-269.882 1341.97,-271.814 1340.91,-264.896"/>
</g>
<!-- Node29 -->
<g id="node29" class="node"><title>Node29</title>
<g id="a_node29"><a xlink:href="DalitzPlot_8hpp.html" target="_top" xlink:title="Tools/Plotting/DalitzPlot.hpp">
<polygon fill="white" stroke="black" points="275,-140 275,-159 416,-159 416,-140 275,-140"/>
<text text-anchor="middle" x="345.5" y="-147" font-family="Helvetica,sans-Serif" font-size="10.00">Tools/Plotting/DalitzPlot.hpp</text>
</a>
</g>
</g>
<!-- Node1&#45;&gt;Node29 -->
<g id="edge54" class="edge"><title>Node1&#45;&gt;Node29</title>
<path fill="none" stroke="midnightblue" d="M1229.33,-275.611C1056.54,-271.099 540.186,-255.764 468.5,-232 420.842,-216.201 374.06,-176.821 354.749,-159.229"/>
<polygon fill="midnightblue" stroke="midnightblue" points="1229.4,-279.113 1239.49,-275.873 1229.58,-272.116 1229.4,-279.113"/>
</g>
<!-- Node3 -->
<g id="node3" class="node"><title>Node3</title>
<g id="a_node3"><a xlink:href="Event_8cpp.html" target="_top" xlink:title="Core/Event.cpp">
<polygon fill="white" stroke="black" points="549,-140 549,-159 634,-159 634,-140 549,-140"/>
<text text-anchor="middle" x="591.5" y="-147" font-family="Helvetica,sans-Serif" font-size="10.00">Core/Event.cpp</text>
</a>
</g>
</g>
<!-- Node2&#45;&gt;Node3 -->
<g id="edge2" class="edge"><title>Node2&#45;&gt;Node3</title>
<path fill="none" stroke="midnightblue" d="M810.809,-204.558C768.642,-194.425 704.304,-178.872 648.5,-165 640.87,-163.103 632.673,-161.036 624.94,-159.072"/>
<polygon fill="midnightblue" stroke="midnightblue" points="810.229,-208.019 820.77,-206.95 811.863,-201.212 810.229,-208.019"/>
</g>
<!-- Node4 -->
<g id="node4" class="node"><title>Node4</title>
<g id="a_node4"><a xlink:href="DataSet_8hpp.html" target="_top" xlink:title="Data/DataSet.hpp">
<polygon fill="white" stroke="red" points="1005,-140 1005,-159 1100,-159 1100,-140 1005,-140"/>
<text text-anchor="middle" x="1052.5" y="-147" font-family="Helvetica,sans-Serif" font-size="10.00">Data/DataSet.hpp</text>
</a>
</g>
</g>
<!-- Node2&#45;&gt;Node4 -->
<g id="edge3" class="edge"><title>Node2&#45;&gt;Node4</title>
<path fill="none" stroke="midnightblue" d="M892.379,-203.601C931.24,-190.714 992.274,-170.473 1026.68,-159.064"/>
<polygon fill="midnightblue" stroke="midnightblue" points="890.917,-200.399 882.527,-206.869 893.121,-207.043 890.917,-200.399"/>
</g>
<!-- Node5 -->
<g id="node5" class="node"><title>Node5</title>
<g id="a_node5"><a xlink:href="RootEfficiency_8cpp.html" target="_top" xlink:title="Data/Root/RootEfficiency.cpp">
<polygon fill="white" stroke="black" points="937.5,-73 937.5,-92 1085.5,-92 1085.5,-73 937.5,-73"/>
<text text-anchor="middle" x="1011.5" y="-80" font-family="Helvetica,sans-Serif" font-size="10.00">Data/Root/RootEfficiency.cpp</text>
</a>
</g>
</g>
<!-- Node2&#45;&gt;Node5 -->
<g id="edge28" class="edge"><title>Node2&#45;&gt;Node5</title>
<path fill="none" stroke="midnightblue" d="M803.915,-209.572C739.411,-200.257 643.066,-178.467 681.5,-134 717.628,-92.2003 872.94,-106.7 927.5,-98 939.045,-96.1591 951.464,-94.0735 963.118,-92.0696"/>
<polygon fill="midnightblue" stroke="midnightblue" points="803.584,-213.059 813.969,-210.961 804.542,-206.125 803.584,-213.059"/>
</g>
<!-- Node8 -->
<g id="node8" class="node"><title>Node8</title>
<g id="a_node8"><a xlink:href="DalitzFitD03K_8cpp.html" target="_top" xlink:title="Executable for Dalitz plot analysis of the decay D0 &#45;&gt; K_S K+ K&#45;. ">
<polygon fill="white" stroke="black" points="171,-0.5 171,-30.5 314,-30.5 314,-0.5 171,-0.5"/>
<text text-anchor="start" x="179" y="-18.5" font-family="Helvetica,sans-Serif" font-size="10.00">Examples/DalitzAnalysis</text>
<text text-anchor="middle" x="242.5" y="-7.5" font-family="Helvetica,sans-Serif" font-size="10.00">_D0KsKK/DalitzFitD03K.cpp</text>
</a>
</g>
</g>
<!-- Node2&#45;&gt;Node8 -->
<g id="edge31" class="edge"><title>Node2&#45;&gt;Node8</title>
<path fill="none" stroke="midnightblue" d="M803.563,-214.398C666.22,-211.066 306.294,-199.137 265.5,-165 225.885,-131.85 233.791,-61.1452 239.406,-30.8089"/>
<polygon fill="midnightblue" stroke="midnightblue" points="803.755,-217.904 813.835,-214.641 803.92,-210.906 803.755,-217.904"/>
</g>
<!-- Node10 -->
<g id="node10" class="node"><title>Node10</title>
<g id="a_node10"><a xlink:href="EvtGenIF_8hpp.html" target="_top" xlink:title="Physics/EvtGen/EvtGenIF.hpp">
<polygon fill="white" stroke="red" points="1687.5,-73 1687.5,-92 1839.5,-92 1839.5,-73 1687.5,-73"/>
<text text-anchor="middle" x="1763.5" y="-80" font-family="Helvetica,sans-Serif" font-size="10.00">Physics/EvtGen/EvtGenIF.hpp</text>
</a>
</g>
</g>
<!-- Node2&#45;&gt;Node10 -->
<g id="edge32" class="edge"><title>Node2&#45;&gt;Node10</title>
<path fill="none" stroke="midnightblue" d="M909.248,-212.851C968.417,-208.396 1066.33,-196.52 1144.5,-165 1167.36,-155.78 1167.26,-142.224 1190.5,-134 1363.78,-72.6883 1419.41,-114.244 1602.5,-98 1630.18,-95.5447 1660.52,-92.8199 1687.34,-90.4012"/>
<polygon fill="midnightblue" stroke="midnightblue" points="908.749,-209.378 899.022,-213.576 909.244,-216.36 908.749,-209.378"/>
</g>
<!-- Node2&#45;&gt;Node12 -->
<g id="edge33" class="edge"><title>Node2&#45;&gt;Node12</title>
<path fill="none" stroke="midnightblue" d="M909.178,-214.966C975.239,-212.603 1090.83,-202.803 1181.5,-165 1202.91,-156.072 1201.68,-141.883 1223.5,-134 1354.34,-86.7295 1710.08,-111.897 1848.5,-98 1864.01,-96.4427 1880.79,-94.2427 1896.14,-92.0258"/>
<polygon fill="midnightblue" stroke="midnightblue" points="908.898,-211.473 899.013,-215.284 909.117,-218.469 908.898,-211.473"/>
</g>
<!-- Node2&#45;&gt;Node13 -->
<g id="edge34" class="edge"><title>Node2&#45;&gt;Node13</title>
<path fill="none" stroke="midnightblue" d="M909.176,-211.345C961.507,-205.763 1043.16,-193.07 1108.5,-165 1130.48,-155.557 1130.17,-142.583 1152.5,-134 1277.02,-86.1316 1318.68,-118.513 1450.5,-98 1453.42,-97.5456 1456.4,-97.0622 1459.41,-96.5582"/>
<polygon fill="midnightblue" stroke="midnightblue" points="908.708,-207.874 899.114,-212.369 909.417,-214.838 908.708,-207.874"/>
</g>
<!-- Node14 -->
<g id="node14" class="node"><title>Node14</title>
<g id="a_node14"><a xlink:href="DalitzPlot_8cpp.html" target="_top" xlink:title="Tools/Plotting/DalitzPlot.cpp">
<polygon fill="white" stroke="black" points="778,-73 778,-92 919,-92 919,-73 778,-73"/>
<text text-anchor="middle" x="848.5" y="-80" font-family="Helvetica,sans-Serif" font-size="10.00">Tools/Plotting/DalitzPlot.cpp</text>
</a>
</g>
</g>
<!-- Node2&#45;&gt;Node14 -->
<g id="edge35" class="edge"><title>Node2&#45;&gt;Node14</title>
<path fill="none" stroke="midnightblue" d="M803.759,-215.03C722.575,-213.062 572.846,-204.079 539.5,-165 431.476,-38.4052 279.661,-180.713 768.5,-98 779.495,-96.1397 791.322,-94.0467 802.421,-92.0417"/>
<polygon fill="midnightblue" stroke="midnightblue" points="803.712,-218.53 813.785,-215.246 803.863,-211.531 803.712,-218.53"/>
</g>
<!-- Node16 -->
<g id="node16" class="node"><title>Node16</title>
<g id="a_node16"><a xlink:href="Generator_8hpp.html" target="_top" xlink:title="Core/Generator.hpp">
<polygon fill="white" stroke="red" points="884.5,-140 884.5,-159 986.5,-159 986.5,-140 884.5,-140"/>
<text text-anchor="middle" x="935.5" y="-147" font-family="Helvetica,sans-Serif" font-size="10.00">Core/Generator.hpp</text>
</a>
</g>
</g>
<!-- Node2&#45;&gt;Node16 -->
<g id="edge16" class="edge"><title>Node2&#45;&gt;Node16</title>
<path fill="none" stroke="midnightblue" d="M875.079,-200.213C890.644,-187.407 912.3,-169.588 925.015,-159.127"/>
<polygon fill="midnightblue" stroke="midnightblue" points="872.653,-197.677 867.154,-206.734 877.1,-203.083 872.653,-197.677"/>
</g>
<!-- Node17 -->
<g id="node17" class="node"><title>Node17</title>
<g id="a_node17"><a xlink:href="EvtGenGenerator_8hpp.html" target="_top" xlink:title="Data/EvtGen/EvtGenGenerator.hpp">
<polygon fill="white" stroke="black" points="589,-73 589,-92 760,-92 760,-73 589,-73"/>
<text text-anchor="middle" x="674.5" y="-80" font-family="Helvetica,sans-Serif" font-size="10.00">Data/EvtGen/EvtGenGenerator.hpp</text>
</a>
</g>
</g>
<!-- Node2&#45;&gt;Node17 -->
<g id="edge22" class="edge"><title>Node2&#45;&gt;Node17</title>
<path fill="none" stroke="midnightblue" d="M856.896,-196.533C856.24,-178.228 852.368,-150.876 836.5,-134 820.255,-116.723 760.368,-101.203 718.158,-92.064"/>
<polygon fill="midnightblue" stroke="midnightblue" points="853.397,-196.612 856.968,-206.587 860.397,-196.562 853.397,-196.612"/>
</g>
<!-- Node19 -->
<g id="node19" class="node"><title>Node19</title>
<g id="a_node19"><a xlink:href="AsciiDataIO_8hpp.html" target="_top" xlink:title="Data/Ascii/AsciiDataIO.hpp">
<polygon fill="white" stroke="red" points="691,-140 691,-159 828,-159 828,-140 691,-140"/>
<text text-anchor="middle" x="759.5" y="-147" font-family="Helvetica,sans-Serif" font-size="10.00">Data/Ascii/AsciiDataIO.hpp</text>
</a>
</g>
</g>
<!-- Node2&#45;&gt;Node19 -->
<g id="edge19" class="edge"><title>Node2&#45;&gt;Node19</title>
<path fill="none" stroke="midnightblue" d="M835.003,-201.095C815.814,-188.236 788.347,-169.831 772.375,-159.127"/>
<polygon fill="midnightblue" stroke="midnightblue" points="833.162,-204.075 843.418,-206.734 837.059,-198.259 833.162,-204.075"/>
</g>
<!-- Node20 -->
<g id="node20" class="node"><title>Node20</title>
<g id="a_node20"><a xlink:href="DataCorrection_8hpp.html" target="_top" xlink:title="Data/DataCorrection.hpp">
<polygon fill="white" stroke="red" points="0,-73 0,-92 125,-92 125,-73 0,-73"/>
<text text-anchor="middle" x="62.5" y="-80" font-family="Helvetica,sans-Serif" font-size="10.00">Data/DataCorrection.hpp</text>
</a>
</g>
</g>
<!-- Node2&#45;&gt;Node20 -->
<g id="edge20" class="edge"><title>Node2&#45;&gt;Node20</title>
<path fill="none" stroke="midnightblue" d="M803.965,-215.884C637.063,-216.594 126.742,-214.652 73.5,-165 53.2431,-146.109 57.371,-109.046 60.5586,-92.2015"/>
<polygon fill="midnightblue" stroke="midnightblue" points="804.006,-219.384 813.989,-215.836 803.972,-212.384 804.006,-219.384"/>
</g>
<!-- Node21 -->
<g id="node21" class="node"><title>Node21</title>
<g id="a_node21"><a xlink:href="Generate_8hpp.html" target="_top" xlink:title="Some useful functions for Monte&#45;Carlo event generation. ">
<polygon fill="white" stroke="red" points="309,-73 309,-92 408,-92 408,-73 309,-73"/>
<text text-anchor="middle" x="358.5" y="-80" font-family="Helvetica,sans-Serif" font-size="10.00">Data/Generate.hpp</text>
</a>
</g>
</g>
<!-- Node2&#45;&gt;Node21 -->
<g id="edge23" class="edge"><title>Node2&#45;&gt;Node21</title>
<path fill="none" stroke="midnightblue" d="M803.512,-214.056C733.023,-210.772 605.346,-200.039 502.5,-165 449.476,-146.935 393.68,-109.103 370.1,-92.0999"/>
<polygon fill="midnightblue" stroke="midnightblue" points="803.762,-217.57 813.904,-214.505 804.064,-210.576 803.762,-217.57"/>
</g>
<!-- Node22 -->
<g id="node22" class="node"><title>Node22</title>
<g id="a_node22"><a xlink:href="RootDataIO_8hpp.html" target="_top" xlink:title="Data/Root/RootDataIO.hpp">
<polygon fill="white" stroke="red" points="82.5,-140 82.5,-159 218.5,-159 218.5,-140 82.5,-140"/>
<text text-anchor="middle" x="150.5" y="-147" font-family="Helvetica,sans-Serif" font-size="10.00">Data/Root/RootDataIO.hpp</text>
</a>
</g>
</g>
<!-- Node2&#45;&gt;Node22 -->
<g id="edge26" class="edge"><title>Node2&#45;&gt;Node22</title>
<path fill="none" stroke="midnightblue" d="M803.715,-212.912C696,-207.259 443.238,-192.099 232.5,-165 220.025,-163.396 206.559,-161.207 194.216,-159.017"/>
<polygon fill="midnightblue" stroke="midnightblue" points="803.818,-216.421 813.986,-213.445 804.181,-209.431 803.818,-216.421"/>
</g>
<!-- Node23 -->
<g id="node23" class="node"><title>Node23</title>
<g id="a_node23"><a xlink:href="RootGenerator_8cpp.html" target="_top" xlink:title="Data/Root/RootGenerator.cpp">
<polygon fill="white" stroke="black" points="1357,-140 1357,-159 1504,-159 1504,-140 1357,-140"/>
<text text-anchor="middle" x="1430.5" y="-147" font-family="Helvetica,sans-Serif" font-size="10.00">Data/Root/RootGenerator.cpp</text>
</a>
</g>
</g>
<!-- Node2&#45;&gt;Node23 -->
<g id="edge29" class="edge"><title>Node2&#45;&gt;Node23</title>
<path fill="none" stroke="midnightblue" d="M909.28,-211.3C999.376,-203.856 1188.53,-187.033 1347.5,-165 1359.67,-163.313 1372.79,-161.172 1384.93,-159.057"/>
<polygon fill="midnightblue" stroke="midnightblue" points="908.992,-207.812 899.312,-212.119 909.565,-214.788 908.992,-207.812"/>
</g>
<!-- Node2&#45;&gt;Node24 -->
<g id="edge30" class="edge"><title>Node2&#45;&gt;Node24</title>
<path fill="none" stroke="midnightblue" d="M908.998,-209.422C979.596,-200.964 1108.93,-184.471 1218.5,-165 1222.95,-164.209 1227.56,-163.333 1232.18,-162.415"/>
<polygon fill="midnightblue" stroke="midnightblue" points="908.533,-205.953 899.017,-210.611 909.361,-212.903 908.533,-205.953"/>
</g>
<!-- Node4&#45;&gt;Node5 -->
<g id="edge4" class="edge"><title>Node4&#45;&gt;Node5</title>
<path fill="none" stroke="midnightblue" d="M1041.48,-131.035C1033.55,-118.45 1023.17,-102.007 1016.94,-92.1273"/>
<polygon fill="midnightblue" stroke="midnightblue" points="1038.68,-133.143 1046.97,-139.734 1044.6,-129.409 1038.68,-133.143"/>
</g>
<!-- Node4&#45;&gt;Node6 -->
<g id="edge5" class="edge"><title>Node4&#45;&gt;Node6</title>
<path fill="none" stroke="midnightblue" d="M1012.7,-137.499C1006.96,-136.169 1001.1,-134.948 995.5,-134 812.524,-103.022 762.767,-127.206 579.5,-98 576.553,-97.5303 573.537,-96.9984 570.501,-96.4226"/>
<polygon fill="midnightblue" stroke="midnightblue" points="1012.27,-140.998 1022.82,-139.976 1013.94,-134.199 1012.27,-140.998"/>
</g>
<!-- Node7 -->
<g id="node7" class="node"><title>Node7</title>
<g id="a_node7"><a xlink:href="BuilderXML_8hpp.html" target="_top" xlink:title="Physics/BuilderXML.hpp">
<polygon fill="white" stroke="red" points="1103.5,-73 1103.5,-92 1227.5,-92 1227.5,-73 1103.5,-73"/>
<text text-anchor="middle" x="1165.5" y="-80" font-family="Helvetica,sans-Serif" font-size="10.00">Physics/BuilderXML.hpp</text>
</a>
</g>
</g>
<!-- Node4&#45;&gt;Node7 -->
<g id="edge6" class="edge"><title>Node4&#45;&gt;Node7</title>
<path fill="none" stroke="midnightblue" d="M1076.64,-134.615C1099.03,-121.737 1131.64,-102.976 1150.5,-92.1273"/>
<polygon fill="midnightblue" stroke="midnightblue" points="1074.66,-131.714 1067.74,-139.734 1078.15,-137.781 1074.66,-131.714"/>
</g>
<!-- Node9 -->
<g id="node9" class="node"><title>Node9</title>
<g id="a_node9"><a xlink:href="DalitzFitApp_8cpp.html" target="_top" xlink:title="Simple Dalitz plot analysis with ComPWA. ">
<polygon fill="white" stroke="black" points="1115.5,-0.5 1115.5,-30.5 1215.5,-30.5 1215.5,-0.5 1115.5,-0.5"/>
<text text-anchor="start" x="1123.5" y="-18.5" font-family="Helvetica,sans-Serif" font-size="10.00">Examples/DalitzFit</text>
<text text-anchor="middle" x="1165.5" y="-7.5" font-family="Helvetica,sans-Serif" font-size="10.00">/DalitzFitApp.cpp</text>
</a>
</g>
</g>
<!-- Node4&#45;&gt;Node9 -->
<g id="edge9" class="edge"><title>Node4&#45;&gt;Node9</title>
<path fill="none" stroke="midnightblue" d="M1097.61,-137.568C1150.68,-124.494 1232.18,-103.661 1236.5,-98 1244.85,-87.044 1242.82,-79.2444 1236.5,-67 1228.25,-51.0029 1212.33,-38.9661 1197.65,-30.6644"/>
<polygon fill="midnightblue" stroke="midnightblue" points="1096.61,-134.21 1087.73,-139.993 1098.28,-141.008 1096.61,-134.21"/>
</g>
<!-- Node4&#45;&gt;Node10 -->
<g id="edge10" class="edge"><title>Node4&#45;&gt;Node10</title>
<path fill="none" stroke="midnightblue" d="M1110.13,-139.499C1123.99,-137.514 1138.75,-135.545 1152.5,-134 1351.88,-111.593 1402.58,-114.999 1602.5,-98 1630.18,-95.6461 1660.53,-92.9443 1687.35,-90.5157"/>
<polygon fill="midnightblue" stroke="midnightblue" points="1109.62,-136.036 1100.23,-140.942 1110.63,-142.963 1109.62,-136.036"/>
</g>
<!-- Node4&#45;&gt;Node12 -->
<g id="edge12" class="edge"><title>Node4&#45;&gt;Node12</title>
<path fill="none" stroke="midnightblue" d="M1109.98,-141.811C1134.73,-139.099 1164.01,-136.115 1190.5,-134 1482.45,-110.69 1557.04,-126.838 1848.5,-98 1864.1,-96.4564 1880.99,-94.2471 1896.4,-92.0169"/>
<polygon fill="midnightblue" stroke="midnightblue" points="1109.58,-138.334 1100.03,-142.913 1110.35,-145.291 1109.58,-138.334"/>
</g>
<!-- Node4&#45;&gt;Node13 -->
<g id="edge13" class="edge"><title>Node4&#45;&gt;Node13</title>
<path fill="none" stroke="midnightblue" d="M1095.36,-137.756C1101.75,-136.363 1108.28,-135.057 1114.5,-134 1262.57,-108.852 1301.95,-120.092 1450.5,-98 1453.42,-97.5653 1456.4,-97.0983 1459.41,-96.6076"/>
<polygon fill="midnightblue" stroke="midnightblue" points="1094.47,-134.368 1085.49,-139.991 1096.02,-141.195 1094.47,-134.368"/>
</g>
<!-- Node4&#45;&gt;Node14 -->
<g id="edge14" class="edge"><title>Node4&#45;&gt;Node14</title>
<path fill="none" stroke="midnightblue" d="M1015.67,-136.765C975.25,-123.886 911.336,-103.521 875.377,-92.0637"/>
<polygon fill="midnightblue" stroke="midnightblue" points="1014.82,-140.167 1025.41,-139.869 1016.94,-133.498 1014.82,-140.167"/>
</g>
<!-- Node15 -->
<g id="node15" class="node"><title>Node15</title>
<g id="a_node15"><a xlink:href="RootPlotData_8cpp.html" target="_top" xlink:title="Tools/Plotting/RootPlotData.cpp">
<polygon fill="white" stroke="black" points="1283.5,-73 1283.5,-92 1441.5,-92 1441.5,-73 1283.5,-73"/>
<text text-anchor="middle" x="1362.5" y="-80" font-family="Helvetica,sans-Serif" font-size="10.00">Tools/Plotting/RootPlotData.cpp</text>
</a>
</g>
</g>
<!-- Node4&#45;&gt;Node15 -->
<g id="edge15" class="edge"><title>Node4&#45;&gt;Node15</title>
<path fill="none" stroke="midnightblue" d="M1098.05,-137.689C1103.59,-136.422 1109.17,-135.166 1114.5,-134 1185.75,-118.416 1268.88,-101.809 1318.52,-92.058"/>
<polygon fill="midnightblue" stroke="midnightblue" points="1097.15,-134.304 1088.2,-139.966 1098.73,-141.125 1097.15,-134.304"/>
</g>
<!-- Node7&#45;&gt;Node8 -->
<g id="edge7" class="edge"><title>Node7&#45;&gt;Node8</title>
<path fill="none" stroke="midnightblue" d="M1118.79,-70.9791C1110.72,-69.4438 1102.39,-68.0347 1094.5,-67 806.905,-29.3043 460.975,-19.7298 314.074,-17.3111"/>
<polygon fill="midnightblue" stroke="midnightblue" points="1118.33,-74.4552 1128.82,-72.9725 1119.69,-67.5896 1118.33,-74.4552"/>
</g>
<!-- Node7&#45;&gt;Node9 -->
<g id="edge8" class="edge"><title>Node7&#45;&gt;Node9</title>
<path fill="none" stroke="midnightblue" d="M1165.5,-62.4107C1165.5,-52.222 1165.5,-39.901 1165.5,-30.589"/>
<polygon fill="midnightblue" stroke="midnightblue" points="1162,-62.7338 1165.5,-72.7338 1169,-62.7338 1162,-62.7338"/>
</g>
<!-- Node11 -->
<g id="node11" class="node"><title>Node11</title>
<g id="a_node11"><a xlink:href="EvtGenFit_8cpp.html" target="_top" xlink:title="Examples/EvtGen/EvtGenFit.cpp">
<polygon fill="white" stroke="black" points="1854.5,-6 1854.5,-25 2016.5,-25 2016.5,-6 1854.5,-6"/>
<text text-anchor="middle" x="1935.5" y="-13" font-family="Helvetica,sans-Serif" font-size="10.00">Examples/EvtGen/EvtGenFit.cpp</text>
</a>
</g>
</g>
<!-- Node10&#45;&gt;Node11 -->
<g id="edge11" class="edge"><title>Node10&#45;&gt;Node11</title>
<path fill="none" stroke="midnightblue" d="M1795.86,-69.2706C1830,-56.3699 1882.91,-36.3757 1912.84,-25.0637"/>
<polygon fill="midnightblue" stroke="midnightblue" points="1794.46,-66.0594 1786.34,-72.8685 1796.93,-72.6074 1794.46,-66.0594"/>
</g>
<!-- Node16&#45;&gt;Node17 -->
<g id="edge17" class="edge"><title>Node16&#45;&gt;Node17</title>
<path fill="none" stroke="midnightblue" d="M891.267,-137.484C839.784,-124.663 755.854,-103.76 708.966,-92.0834"/>
<polygon fill="midnightblue" stroke="midnightblue" points="890.561,-140.915 901.11,-139.936 892.253,-134.123 890.561,-140.915"/>
</g>
<!-- Node18 -->
<g id="node18" class="node"><title>Node18</title>
<g id="a_node18"><a xlink:href="EvtGenGenerator_8cpp.html" target="_top" xlink:title="Data/EvtGen/EvtGenGenerator.cpp">
<polygon fill="white" stroke="black" points="1536,-6 1536,-25 1707,-25 1707,-6 1536,-6"/>
<text text-anchor="middle" x="1621.5" y="-13" font-family="Helvetica,sans-Serif" font-size="10.00">Data/EvtGen/EvtGenGenerator.cpp</text>
</a>
</g>
</g>
<!-- Node17&#45;&gt;Node18 -->
<g id="edge18" class="edge"><title>Node17&#45;&gt;Node18</title>
<path fill="none" stroke="midnightblue" d="M734.376,-71.4031C745.687,-69.7404 757.437,-68.1781 768.5,-67 1048.41,-37.192 1382.01,-23.8276 1535.93,-18.9068"/>
<polygon fill="midnightblue" stroke="midnightblue" points="733.51,-67.9943 724.146,-72.9502 734.557,-74.9156 733.51,-67.9943"/>
</g>
<!-- Node20&#45;&gt;Node8 -->
<g id="edge21" class="edge"><title>Node20&#45;&gt;Node8</title>
<path fill="none" stroke="midnightblue" d="M96.1559,-69.3465C126.666,-58.3289 171.628,-42.0927 203.653,-30.5281"/>
<polygon fill="midnightblue" stroke="midnightblue" points="94.6194,-66.1801 86.4026,-72.8685 96.9969,-72.7639 94.6194,-66.1801"/>
</g>
<!-- Node21&#45;&gt;Node8 -->
<g id="edge24" class="edge"><title>Node21&#45;&gt;Node8</title>
<path fill="none" stroke="midnightblue" d="M333.967,-67.7528C314.468,-56.8271 287.299,-41.6031 267.643,-30.589"/>
<polygon fill="midnightblue" stroke="midnightblue" points="332.421,-70.8988 342.856,-72.7338 335.843,-64.7921 332.421,-70.8988"/>
</g>
<!-- Node21&#45;&gt;Node9 -->
<g id="edge25" class="edge"><title>Node21&#45;&gt;Node9</title>
<path fill="none" stroke="midnightblue" d="M401.545,-70.7909C408.517,-69.333 415.684,-67.9977 422.5,-67 681.234,-29.1307 994.9,-19.5777 1115.21,-17.2356"/>
<polygon fill="midnightblue" stroke="midnightblue" points="400.55,-67.4258 391.534,-72.9894 402.052,-74.2629 400.55,-67.4258"/>
</g>
<!-- Node22&#45;&gt;Node8 -->
<g id="edge27" class="edge"><title>Node22&#45;&gt;Node8</title>
<path fill="none" stroke="midnightblue" d="M157.25,-130.458C164.157,-113.254 175.926,-87.0661 190.5,-67 200.41,-53.3557 214.192,-40.159 225.078,-30.6796"/>
<polygon fill="midnightblue" stroke="midnightblue" points="153.951,-129.285 153.596,-139.874 160.477,-131.817 153.951,-129.285"/>
</g>
<!-- Node25&#45;&gt;Node7 -->
<g id="edge39" class="edge"><title>Node25&#45;&gt;Node7</title>
<path fill="none" stroke="midnightblue" d="M1636.73,-196.402C1598.2,-174.915 1537.33,-141.963 1512.5,-134 1499.09,-129.7 1323.85,-105.242 1227.67,-92.0065"/>
<polygon fill="midnightblue" stroke="midnightblue" points="1635.1,-199.501 1645.54,-201.33 1638.52,-193.392 1635.1,-199.501"/>
</g>
<!-- Node25&#45;&gt;Node15 -->
<g id="edge51" class="edge"><title>Node25&#45;&gt;Node15</title>
<path fill="none" stroke="midnightblue" d="M1653.24,-193.54C1637.37,-174.863 1612.15,-148.788 1584.5,-134 1555.48,-118.482 1470.3,-101.787 1414.29,-92.0112"/>
<polygon fill="midnightblue" stroke="midnightblue" points="1650.58,-195.814 1659.65,-201.284 1655.97,-191.35 1650.58,-195.814"/>
</g>
<!-- Node25&#45;&gt;Node18 -->
<g id="edge37" class="edge"><title>Node25&#45;&gt;Node18</title>
<path fill="none" stroke="midnightblue" d="M1716.02,-197.454C1736.08,-188.736 1759.58,-177.462 1779.5,-165 1797.98,-153.439 1797.59,-142.864 1817.5,-134 1913.23,-91.3885 1982.3,-177.55 2050.5,-98 2059.47,-87.5402 2059.66,-77.2961 2050.5,-67 2039.22,-54.3116 1829.15,-34.2983 1707.23,-23.6767"/>
<polygon fill="midnightblue" stroke="midnightblue" points="1714.59,-194.256 1706.77,-201.398 1717.34,-200.695 1714.59,-194.256"/>
</g>
<!-- Node25&#45;&gt;Node23 -->
<g id="edge38" class="edge"><title>Node25&#45;&gt;Node23</title>
<path fill="none" stroke="midnightblue" d="M1608.95,-198.83C1561.98,-186.109 1499.2,-169.106 1461.99,-159.029"/>
<polygon fill="midnightblue" stroke="midnightblue" points="1608.15,-202.24 1618.72,-201.476 1609.98,-195.483 1608.15,-202.24"/>
</g>
<!-- Node26 -->
<g id="node26" class="node"><title>Node26</title>
<g id="a_node26"><a xlink:href="HelicityKinematics_8hpp.html" target="_top" xlink:title="Physics/HelicityFormalism\l/HelicityKinematics.hpp">
<polygon fill="white" stroke="red" points="1636.5,-134.5 1636.5,-164.5 1770.5,-164.5 1770.5,-134.5 1636.5,-134.5"/>
<text text-anchor="start" x="1644.5" y="-152.5" font-family="Helvetica,sans-Serif" font-size="10.00">Physics/HelicityFormalism</text>
<text text-anchor="middle" x="1703.5" y="-141.5" font-family="Helvetica,sans-Serif" font-size="10.00">/HelicityKinematics.hpp</text>
</a>
</g>
</g>
<!-- Node25&#45;&gt;Node26 -->
<g id="edge40" class="edge"><title>Node25&#45;&gt;Node26</title>
<path fill="none" stroke="midnightblue" d="M1682.29,-192.283C1686.99,-183.022 1692.25,-172.663 1696.35,-164.577"/>
<polygon fill="midnightblue" stroke="midnightblue" points="1679.07,-190.895 1677.66,-201.396 1685.31,-194.064 1679.07,-190.895"/>
</g>
<!-- Node27 -->
<g id="node27" class="node"><title>Node27</title>
<g id="a_node27"><a xlink:href="DalitzKinematics_8hpp.html" target="_top" xlink:title="Contains DalitzKinematics class. ">
<polygon fill="white" stroke="black" points="1998.5,-140 1998.5,-159 2182.5,-159 2182.5,-140 1998.5,-140"/>
<text text-anchor="middle" x="2090.5" y="-147" font-family="Helvetica,sans-Serif" font-size="10.00">Physics/EvtGen/DalitzKinematics.hpp</text>
</a>
</g>
</g>
<!-- Node25&#45;&gt;Node27 -->
<g id="edge46" class="edge"><title>Node25&#45;&gt;Node27</title>
<path fill="none" stroke="midnightblue" d="M1757.51,-202.033C1841.03,-189.109 1964.62,-169.982 2035.38,-159.031"/>
<polygon fill="midnightblue" stroke="midnightblue" points="1756.88,-198.59 1747.53,-203.578 1757.95,-205.507 1756.88,-198.59"/>
</g>
<!-- Node28 -->
<g id="node28" class="node"><title>Node28</title>
<g id="a_node28"><a xlink:href="ParticleStateTransitionKinematicsInfo_8cpp.html" target="_top" xlink:title="Physics/ParticleStateTransition\lKinematicsInfo.cpp">
<polygon fill="white" stroke="black" points="1826.5,-134.5 1826.5,-164.5 1980.5,-164.5 1980.5,-134.5 1826.5,-134.5"/>
<text text-anchor="start" x="1834.5" y="-152.5" font-family="Helvetica,sans-Serif" font-size="10.00">Physics/ParticleStateTransition</text>
<text text-anchor="middle" x="1903.5" y="-141.5" font-family="Helvetica,sans-Serif" font-size="10.00">KinematicsInfo.cpp</text>
</a>
</g>
</g>
<!-- Node25&#45;&gt;Node28 -->
<g id="edge50" class="edge"><title>Node25&#45;&gt;Node28</title>
<path fill="none" stroke="midnightblue" d="M1730.67,-198.715C1768.58,-188.137 1816.99,-174.635 1852.92,-164.611"/>
<polygon fill="midnightblue" stroke="midnightblue" points="1729.46,-195.418 1720.77,-201.476 1731.34,-202.16 1729.46,-195.418"/>
</g>
<!-- Node26&#45;&gt;Node8 -->
<g id="edge41" class="edge"><title>Node26&#45;&gt;Node8</title>
<path fill="none" stroke="midnightblue" d="M1674.92,-128.403C1662.55,-119.417 1648.06,-108.501 1635.5,-98 1620.06,-85.0908 1621.07,-74.7554 1602.5,-67 1542.71,-42.0299 586.697,-22.7713 314.373,-17.7719"/>
<polygon fill="midnightblue" stroke="midnightblue" points="1672.94,-131.287 1683.1,-134.286 1677.03,-125.605 1672.94,-131.287"/>
</g>
<!-- Node26&#45;&gt;Node9 -->
<g id="edge42" class="edge"><title>Node26&#45;&gt;Node9</title>
<path fill="none" stroke="midnightblue" d="M1691.2,-125.66C1679.57,-106.505 1660.22,-80.2224 1635.5,-67 1563.77,-28.6258 1321.27,-19.4009 1215.51,-17.1917"/>
<polygon fill="midnightblue" stroke="midnightblue" points="1688.23,-127.516 1696.29,-134.402 1694.29,-123.998 1688.23,-127.516"/>
</g>
<!-- Node26&#45;&gt;Node11 -->
<g id="edge43" class="edge"><title>Node26&#45;&gt;Node11</title>
<path fill="none" stroke="midnightblue" d="M1780.7,-138.533C1881.59,-125.326 2046.09,-103.098 2050.5,-98 2079.24,-64.7791 2011.14,-38.0765 1967.87,-25.0841"/>
<polygon fill="midnightblue" stroke="midnightblue" points="1780,-135.094 1770.54,-139.861 1780.91,-142.035 1780,-135.094"/>
</g>
<!-- Node26&#45;&gt;Node13 -->
<g id="edge44" class="edge"><title>Node26&#45;&gt;Node13</title>
<path fill="none" stroke="midnightblue" d="M1655.35,-130.819C1626.9,-120.371 1591.37,-107.323 1564.83,-97.5765"/>
<polygon fill="midnightblue" stroke="midnightblue" points="1654.5,-134.234 1665.09,-134.396 1656.91,-127.663 1654.5,-134.234"/>
</g>
<!-- Node26&#45;&gt;Node14 -->
<g id="edge45" class="edge"><title>Node26&#45;&gt;Node14</title>
<path fill="none" stroke="midnightblue" d="M1626.25,-142.385C1591.49,-139.698 1549.94,-136.575 1512.5,-134 1253.06,-116.157 1186.66,-129.243 928.5,-98 916.028,-96.4907 902.559,-94.2783 890.294,-92.0341"/>
<polygon fill="midnightblue" stroke="midnightblue" points="1626.1,-145.883 1636.34,-143.167 1626.64,-138.904 1626.1,-145.883"/>
</g>
<!-- Node27&#45;&gt;Node10 -->
<g id="edge48" class="edge"><title>Node27&#45;&gt;Node10</title>
<path fill="none" stroke="midnightblue" d="M2037.47,-137.958C1973.11,-125.165 1865.84,-103.843 1806.42,-92.0317"/>
<polygon fill="midnightblue" stroke="midnightblue" points="2036.92,-141.419 2047.41,-139.936 2038.29,-134.553 2036.92,-141.419"/>
</g>
<!-- Node27&#45;&gt;Node11 -->
<g id="edge47" class="edge"><title>Node27&#45;&gt;Node11</title>
<path fill="none" stroke="midnightblue" d="M2105.44,-132.174C2119.59,-114.67 2136.59,-86.7384 2121.5,-67 2106.26,-47.0651 2045.02,-33.1536 1996.92,-25.0509"/>
<polygon fill="midnightblue" stroke="midnightblue" points="2102.72,-129.973 2098.88,-139.848 2108.04,-134.523 2102.72,-129.973"/>
</g>
<!-- Node27&#45;&gt;Node12 -->
<g id="edge49" class="edge"><title>Node27&#45;&gt;Node12</title>
<path fill="none" stroke="midnightblue" d="M2062.54,-135.613C2034.62,-122.739 1992.46,-103.306 1968.3,-92.1672"/>
<polygon fill="midnightblue" stroke="midnightblue" points="2061.23,-138.86 2071.78,-139.869 2064.16,-132.503 2061.23,-138.86"/>
</g>
<!-- Node29&#45;&gt;Node8 -->
<g id="edge55" class="edge"><title>Node29&#45;&gt;Node8</title>
<path fill="none" stroke="midnightblue" d="M314.692,-135.391C298.217,-126.934 278.84,-114.429 266.5,-98 251.264,-77.7146 245.667,-47.8973 243.635,-30.5138"/>
<polygon fill="midnightblue" stroke="midnightblue" points="313.457,-138.682 323.982,-139.901 316.515,-132.385 313.457,-138.682"/>
</g>
<!-- Node29&#45;&gt;Node9 -->
<g id="edge56" class="edge"><title>Node29&#45;&gt;Node9</title>
<path fill="none" stroke="midnightblue" d="M326.245,-133.228C306.394,-115.705 280.784,-86.8397 299.5,-67 327.646,-37.1653 935.151,-21.5352 1115.47,-17.5414"/>
<polygon fill="midnightblue" stroke="midnightblue" points="324.093,-135.992 333.991,-139.771 328.61,-130.644 324.093,-135.992"/>
</g>
<!-- Node29&#45;&gt;Node11 -->
<g id="edge57" class="edge"><title>Node29&#45;&gt;Node11</title>
<path fill="none" stroke="midnightblue" d="M366.529,-133.982C380.772,-124.043 399.94,-110.457 416.5,-98 434.195,-84.6895 434.701,-74.5942 455.5,-67 587.062,-18.9635 1575.6,-37.6067 1715.5,-31 1761.48,-28.8288 1812.8,-25.498 1854.31,-22.5761"/>
<polygon fill="midnightblue" stroke="midnightblue" points="364.172,-131.358 357.958,-139.939 368.167,-137.106 364.172,-131.358"/>
</g>
<!-- Node29&#45;&gt;Node14 -->
<g id="edge58" class="edge"><title>Node29&#45;&gt;Node14</title>
<path fill="none" stroke="midnightblue" d="M426.159,-140.337C511.418,-131.366 649.724,-115.837 768.5,-98 780.086,-96.2601 792.568,-94.1242 804.148,-92.032"/>
<polygon fill="midnightblue" stroke="midnightblue" points="425.61,-136.876 416.03,-141.399 426.34,-143.837 425.61,-136.876"/>
</g>
</g>
</svg>
        <g id="navigator" transform="translate(0 0)" fill="#404254">
                <rect fill="#f2f5e9" fill-opacity="0.5" stroke="#606060" stroke-width=".5" x="0" y="0" width="60" height="60"/>
                <use id="zoomplus" xlink:href="#zoomPlus" x="17" y="9" onmousedown="handleZoom(evt,'in')"/>
                <use id="zoomminus" xlink:href="#zoomMin" x="42" y="9" onmousedown="handleZoom(evt,'out')"/>
                <use id="reset" xlink:href="#resetDef" x="30" y="36" onmousedown="handleReset()"/>
                <g id="arrowUp" xlink:href="#dirArrow" transform="translate(30 24)" onmousedown="handlePan(0,-1)">
                  <use xlink:href="#rim" fill="#404040">
                        <set attributeName="fill" to="#808080" begin="arrowUp.mouseover" end="arrowUp.mouseout"/>
                  </use>
                  <path fill="none" stroke="white" stroke-width="1.5" d="M0,-3.0v7 M-2.5,-0.5L0,-3.0L2.5,-0.5"/>
                </g>
                <g id="arrowRight" xlink:href="#dirArrow" transform="rotate(90) translate(36 -43)" onmousedown="handlePan(1,0)">
                  <use xlink:href="#rim" fill="#404040">
                        <set attributeName="fill" to="#808080" begin="arrowRight.mouseover" end="arrowRight.mouseout"/>
                  </use>
                  <path fill="none" stroke="white" stroke-width="1.5" d="M0,-3.0v7 M-2.5,-0.5L0,-3.0L2.5,-0.5"/>
                </g>
                <g id="arrowDown" xlink:href="#dirArrow" transform="rotate(180) translate(-30 -48)" onmousedown="handlePan(0,1)">
                  <use xlink:href="#rim" fill="#404040">
                        <set attributeName="fill" to="#808080" begin="arrowDown.mouseover" end="arrowDown.mouseout"/>
                  </use>
                  <path fill="none" stroke="white" stroke-width="1.5" d="M0,-3.0v7 M-2.5,-0.5L0,-3.0L2.5,-0.5"/>
                </g>
                <g id="arrowLeft" xlink:href="#dirArrow" transform="rotate(270) translate(-36 17)" onmousedown="handlePan(-1,0)">
                  <use xlink:href="#rim" fill="#404040">
                        <set attributeName="fill" to="#808080" begin="arrowLeft.mouseover" end="arrowLeft.mouseout"/>
                  </use>
                  <path fill="none" stroke="white" stroke-width="1.5" d="M0,-3.0v7 M-2.5,-0.5L0,-3.0L2.5,-0.5"/>
                </g>
        </g>
        <svg viewBox="0 0 15 15" width="100%" height="30px" preserveAspectRatio="xMaxYMin meet">
         <g id="arrow_out" transform="scale(0.3 0.3)">
          <a xlink:href="Particle_8hpp__dep__incl_org.svg" target="_base">
           <rect id="button" ry="5" rx="5" y="6" x="6" height="38" width="38"
                fill="#f2f5e9" fill-opacity="0.5" stroke="#606060" stroke-width="1.0"/>
           <path id="arrow"
             d="M 11.500037,31.436501 C 11.940474,20.09759 22.043105,11.32322 32.158766,21.979434 L 37.068811,17.246167 C 37.068811,17.246167 37.088388,32 37.088388,32 L 22.160133,31.978069 C 22.160133,31.978069 26.997745,27.140456 26.997745,27.140456 C 18.528582,18.264221 13.291696,25.230495 11.500037,31.436501 z"
             style="fill:#404040;"/>
          </a>
         </g>
        </svg>
</svg>
