<?xml version="1.0" encoding="UTF-8" standalone="no"?>
<!DOCTYPE svg PUBLIC "-//W3C//DTD SVG 1.1//EN"
 "http://www.w3.org/Graphics/SVG/1.1/DTD/svg11.dtd">
<!-- Generated by graphviz version 2.38.0 (20140413.2041)
 -->
<!-- Title: Physics/ParticleStateTransitionKinematicsInfo.hpp Pages: 1 -->
<svg width="990pt" height="218pt"
 viewBox="0.00 0.00 990.45 218.00" xmlns="http://www.w3.org/2000/svg" xmlns:xlink="http://www.w3.org/1999/xlink">
<g id="graph0" class="graph" transform="scale(1 1) rotate(0) translate(4 214)">
<title>Physics/ParticleStateTransitionKinematicsInfo.hpp</title>
<polygon fill="white" stroke="none" points="-4,4 -4,-214 986.449,-214 986.449,4 -4,4"/>
<!-- Node1 -->
<g id="node1" class="node"><title>Node1</title>
<polygon fill="#bfbfbf" stroke="black" points="511.824,-179.5 511.824,-209.5 665.824,-209.5 665.824,-179.5 511.824,-179.5"/>
<text text-anchor="start" x="519.824" y="-197.5" font-family="Helvetica,sans-Serif" font-size="10.00">Physics/ParticleStateTransition</text>
<text text-anchor="middle" x="588.824" y="-186.5" font-family="Helvetica,sans-Serif" font-size="10.00">KinematicsInfo.hpp</text>
</g>
<!-- Node2 -->
<g id="node2" class="node"><title>Node2</title>
<polygon fill="white" stroke="#bfbfbf" points="586.324,-62 586.324,-81 621.324,-81 621.324,-62 586.324,-62"/>
<text text-anchor="middle" x="603.824" y="-69" font-family="Helvetica,sans-Serif" font-size="10.00">map</text>
</g>
<!-- Node1&#45;&gt;Node2 -->
<g id="edge1" class="edge"><title>Node1&#45;&gt;Node2</title>
<path fill="none" stroke="midnightblue" d="M590.604,-179.145C593.324,-157.203 598.515,-115.327 601.52,-91.0906"/>
<polygon fill="midnightblue" stroke="midnightblue" points="605.007,-91.4068 602.764,-81.0522 598.06,-90.5456 605.007,-91.4068"/>
</g>
<!-- Node3 -->
<g id="node3" class="node"><title>Node3</title>
<polygon fill="white" stroke="#bfbfbf" points="893.324,-0.5 893.324,-19.5 934.324,-19.5 934.324,-0.5 893.324,-0.5"/>
<text text-anchor="middle" x="913.824" y="-7.5" font-family="Helvetica,sans-Serif" font-size="10.00">string</text>
</g>
<!-- Node1&#45;&gt;Node3 -->
<g id="edge2" class="edge"><title>Node1&#45;&gt;Node3</title>
<path fill="none" stroke="midnightblue" d="M666.159,-183.378C768.209,-168.252 939.34,-136.159 976.824,-87 985.178,-76.0439 983.129,-68.2508 976.824,-56 969.698,-42.1513 956.115,-31.6199 943.381,-24.24"/>
<polygon fill="midnightblue" stroke="midnightblue" points="944.832,-21.0472 934.363,-19.4209 941.533,-27.221 944.832,-21.0472"/>
</g>
<!-- Node4 -->
<g id="node4" class="node"><title>Node4</title>
<polygon fill="white" stroke="#bfbfbf" points="545.824,-0.5 545.824,-19.5 589.824,-19.5 589.824,-0.5 545.824,-0.5"/>
<text text-anchor="middle" x="567.824" y="-7.5" font-family="Helvetica,sans-Serif" font-size="10.00">vector</text>
</g>
<!-- Node1&#45;&gt;Node4 -->
<g id="edge3" class="edge"><title>Node1&#45;&gt;Node4</title>
<path fill="none" stroke="midnightblue" d="M511.542,-187.876C338.054,-173.812 -61.88,-132.625 8.8243,-56 44.6433,-17.1816 421.391,-11.8391 535.35,-11.1122"/>
<polygon fill="midnightblue" stroke="midnightblue" points="535.558,-14.6112 545.538,-11.0553 535.519,-7.61129 535.558,-14.6112"/>
</g>
<!-- Node5 -->
<g id="node5" class="node"><title>Node5</title>
<g id="a_node5"><a xlink:href="Particle_8hpp.html" target="_top" xlink:title="Particle and FourMomentum class. ">
<polygon fill="white" stroke="black" points="261.824,-123.5 261.824,-142.5 353.824,-142.5 353.824,-123.5 261.824,-123.5"/>
<text text-anchor="middle" x="307.824" y="-130.5" font-family="Helvetica,sans-Serif" font-size="10.00">Core/Particle.hpp</text>
</a>
</g>
</g>
<!-- Node1&#45;&gt;Node5 -->
<g id="edge4" class="edge"><title>Node1&#45;&gt;Node5</title>
<path fill="none" stroke="midnightblue" d="M522.587,-179.475C472.204,-168.806 403.94,-154.352 358.016,-144.628"/>
<polygon fill="midnightblue" stroke="midnightblue" points="358.505,-141.154 347.997,-142.506 357.055,-148.002 358.505,-141.154"/>
</g>
<!-- Node13 -->
<g id="node13" class="node"><title>Node13</title>
<g id="a_node13"><a xlink:href="Properties_8hpp.html" target="_top" xlink:title="Core/Properties.hpp">
<polygon fill="white" stroke="black" points="616.824,-123.5 616.824,-142.5 720.824,-142.5 720.824,-123.5 616.824,-123.5"/>
<text text-anchor="middle" x="668.824" y="-130.5" font-family="Helvetica,sans-Serif" font-size="10.00">Core/Properties.hpp</text>
</a>
</g>
</g>
<!-- Node1&#45;&gt;Node13 -->
<g id="edge13" class="edge"><title>Node1&#45;&gt;Node13</title>
<path fill="none" stroke="midnightblue" d="M607.783,-179.399C620.247,-170.129 636.521,-158.025 649.131,-148.647"/>
<polygon fill="midnightblue" stroke="midnightblue" points="651.248,-151.434 657.184,-142.658 647.071,-145.817 651.248,-151.434"/>
</g>
<!-- Node5&#45;&gt;Node4 -->
<g id="edge11" class="edge"><title>Node5&#45;&gt;Node4</title>
<path fill="none" stroke="midnightblue" d="M334.841,-123.488C357.961,-115.641 391.707,-102.83 418.824,-87 437.947,-75.8374 438.72,-67.1928 457.824,-56 482.792,-41.372 513.417,-29.2659 536.008,-21.3087"/>
<polygon fill="midnightblue" stroke="midnightblue" points="537.148,-24.6179 545.464,-18.054 534.869,-17.999 537.148,-24.6179"/>
</g>
<!-- Node6 -->
<g id="node6" class="node"><title>Node6</title>
<polygon fill="white" stroke="#bfbfbf" points="17.8243,-62 17.8243,-81 73.8243,-81 73.8243,-62 17.8243,-62"/>
<text text-anchor="middle" x="45.8243" y="-69" font-family="Helvetica,sans-Serif" font-size="10.00">algorithm</text>
</g>
<!-- Node5&#45;&gt;Node6 -->
<g id="edge5" class="edge"><title>Node5&#45;&gt;Node6</title>
<path fill="none" stroke="midnightblue" d="M261.571,-125.196C215.677,-117.875 143.601,-104.835 82.8243,-87 80.3914,-86.286 77.8945,-85.4783 75.4022,-84.6183"/>
<polygon fill="midnightblue" stroke="midnightblue" points="76.5501,-81.3112 65.9568,-81.131 74.1256,-87.878 76.5501,-81.3112"/>
</g>
<!-- Node7 -->
<g id="node7" class="node"><title>Node7</title>
<polygon fill="white" stroke="#bfbfbf" points="91.8243,-62 91.8243,-81 129.824,-81 129.824,-62 91.8243,-62"/>
<text text-anchor="middle" x="110.824" y="-69" font-family="Helvetica,sans-Serif" font-size="10.00">array</text>
</g>
<!-- Node5&#45;&gt;Node7 -->
<g id="edge6" class="edge"><title>Node5&#45;&gt;Node7</title>
<path fill="none" stroke="midnightblue" d="M265.697,-123.463C231.009,-115.801 180.877,-103.264 138.824,-87 137.618,-86.5335 136.396,-86.0296 135.171,-85.4992"/>
<polygon fill="midnightblue" stroke="midnightblue" points="136.483,-82.2468 125.951,-81.0948 133.465,-88.5632 136.483,-82.2468"/>
</g>
<!-- Node8 -->
<g id="node8" class="node"><title>Node8</title>
<polygon fill="white" stroke="#bfbfbf" points="147.824,-62 147.824,-81 191.824,-81 191.824,-62 147.824,-62"/>
<text text-anchor="middle" x="169.824" y="-69" font-family="Helvetica,sans-Serif" font-size="10.00">cmath</text>
</g>
<!-- Node5&#45;&gt;Node8 -->
<g id="edge7" class="edge"><title>Node5&#45;&gt;Node8</title>
<path fill="none" stroke="midnightblue" d="M286.807,-123.447C265.154,-114.569 230.479,-100.165 200.824,-87 199.633,-86.4711 198.418,-85.9264 197.193,-85.3725"/>
<polygon fill="midnightblue" stroke="midnightblue" points="198.349,-82.0518 187.801,-81.0546 195.425,-88.4118 198.349,-82.0518"/>
</g>
<!-- Node9 -->
<g id="node9" class="node"><title>Node9</title>
<polygon fill="white" stroke="#bfbfbf" points="209.824,-62 209.824,-81 263.824,-81 263.824,-62 209.824,-62"/>
<text text-anchor="middle" x="236.824" y="-69" font-family="Helvetica,sans-Serif" font-size="10.00">iostream</text>
</g>
<!-- Node5&#45;&gt;Node9 -->
<g id="edge8" class="edge"><title>Node5&#45;&gt;Node9</title>
<path fill="none" stroke="midnightblue" d="M297.652,-123.475C286.474,-114.108 268.308,-98.8839 254.733,-87.5081"/>
<polygon fill="midnightblue" stroke="midnightblue" points="256.891,-84.7496 246.978,-81.0091 252.394,-90.1148 256.891,-84.7496"/>
</g>
<!-- Node10 -->
<g id="node10" class="node"><title>Node10</title>
<polygon fill="white" stroke="#bfbfbf" points="282.324,-62 282.324,-81 333.324,-81 333.324,-62 282.324,-62"/>
<text text-anchor="middle" x="307.824" y="-69" font-family="Helvetica,sans-Serif" font-size="10.00">numeric</text>
</g>
<!-- Node5&#45;&gt;Node10 -->
<g id="edge9" class="edge"><title>Node5&#45;&gt;Node10</title>
<path fill="none" stroke="midnightblue" d="M307.824,-123.475C307.824,-115.08 307.824,-101.981 307.824,-91.1631"/>
<polygon fill="midnightblue" stroke="midnightblue" points="311.324,-91.0091 307.824,-81.0091 304.324,-91.0091 311.324,-91.0091"/>
</g>
<!-- Node11 -->
<g id="node11" class="node"><title>Node11</title>
<polygon fill="white" stroke="#bfbfbf" points="351.324,-62 351.324,-81 410.324,-81 410.324,-62 351.324,-62"/>
<text text-anchor="middle" x="380.824" y="-69" font-family="Helvetica,sans-Serif" font-size="10.00">stdexcept</text>
</g>
<!-- Node5&#45;&gt;Node11 -->
<g id="edge10" class="edge"><title>Node5&#45;&gt;Node11</title>
<path fill="none" stroke="midnightblue" d="M318.283,-123.475C329.776,-114.108 348.454,-98.8839 362.411,-87.5081"/>
<polygon fill="midnightblue" stroke="midnightblue" points="364.844,-90.04 370.385,-81.0091 360.422,-84.614 364.844,-90.04"/>
</g>
<!-- Node12 -->
<g id="node12" class="node"><title>Node12</title>
<polygon fill="white" stroke="#bfbfbf" points="467.324,-56.5 467.324,-86.5 568.324,-86.5 568.324,-56.5 467.324,-56.5"/>
<text text-anchor="start" x="475.324" y="-74.5" font-family="Helvetica,sans-Serif" font-size="10.00">boost/property_tree</text>
<text text-anchor="middle" x="517.824" y="-63.5" font-family="Helvetica,sans-Serif" font-size="10.00">/ptree.hpp</text>
</g>
<!-- Node5&#45;&gt;Node12 -->
<g id="edge12" class="edge"><title>Node5&#45;&gt;Node12</title>
<path fill="none" stroke="midnightblue" d="M337.912,-123.475C369.278,-114.588 419.252,-100.429 458.58,-89.2859"/>
<polygon fill="midnightblue" stroke="midnightblue" points="459.664,-92.6165 468.331,-86.523 457.756,-85.8816 459.664,-92.6165"/>
</g>
<!-- Node13&#45;&gt;Node2 -->
<g id="edge20" class="edge"><title>Node13&#45;&gt;Node2</title>
<path fill="none" stroke="midnightblue" d="M659.511,-123.475C649.375,-114.197 632.96,-99.1706 620.572,-87.831"/>
<polygon fill="midnightblue" stroke="midnightblue" points="622.859,-85.1795 613.12,-81.0091 618.133,-90.3429 622.859,-85.1795"/>
</g>
<!-- Node13&#45;&gt;Node4 -->
<g id="edge22" class="edge"><title>Node13&#45;&gt;Node4</title>
<path fill="none" stroke="midnightblue" d="M673.525,-123.154C680.857,-108.011 692.803,-76.7503 678.824,-56 661.364,-30.0803 626.147,-19.0847 600.041,-14.4234"/>
<polygon fill="midnightblue" stroke="midnightblue" points="600.259,-10.9152 589.839,-12.835 599.182,-17.8319 600.259,-10.9152"/>
</g>
<!-- Node13&#45;&gt;Node12 -->
<g id="edge19" class="edge"><title>Node13&#45;&gt;Node12</title>
<path fill="none" stroke="midnightblue" d="M647.19,-123.475C625.305,-114.852 590.822,-101.264 562.96,-90.2852"/>
<polygon fill="midnightblue" stroke="midnightblue" points="563.999,-86.9328 553.412,-86.523 561.433,-93.4454 563.999,-86.9328"/>
</g>
<!-- Node14 -->
<g id="node14" class="node"><title>Node14</title>
<g id="a_node14"><a xlink:href="Exceptions_8hpp.html" target="_top" xlink:title="ComPWA exceptions. ">
<polygon fill="white" stroke="red" points="859.824,-62 859.824,-81 967.824,-81 967.824,-62 859.824,-62"/>
<text text-anchor="middle" x="913.824" y="-69" font-family="Helvetica,sans-Serif" font-size="10.00">Core/Exceptions.hpp</text>
</a>
</g>
</g>
<!-- Node13&#45;&gt;Node14 -->
<g id="edge14" class="edge"><title>Node13&#45;&gt;Node14</title>
<path fill="none" stroke="midnightblue" d="M703.927,-123.475C747.318,-112.937 821.234,-94.9863 868.771,-83.4415"/>
<polygon fill="midnightblue" stroke="midnightblue" points="869.895,-86.7703 878.787,-81.0091 868.243,-79.968 869.895,-86.7703"/>
</g>
<!-- Node15 -->
<g id="node15" class="node"><title>Node15</title>
<g id="a_node15"><a xlink:href="FitParameter_8hpp.html" target="_top" xlink:title="Core/FitParameter.hpp">
<polygon fill="white" stroke="red" points="725.824,-62 725.824,-81 841.824,-81 841.824,-62 725.824,-62"/>
<text text-anchor="middle" x="783.824" y="-69" font-family="Helvetica,sans-Serif" font-size="10.00">Core/FitParameter.hpp</text>
</a>
</g>
</g>
<!-- Node13&#45;&gt;Node15 -->
<g id="edge16" class="edge"><title>Node13&#45;&gt;Node15</title>
<path fill="none" stroke="midnightblue" d="M685.301,-123.475C704.43,-113.578 736.198,-97.1416 758.476,-85.6151"/>
<polygon fill="midnightblue" stroke="midnightblue" points="760.105,-88.713 767.378,-81.0091 756.888,-82.4958 760.105,-88.713"/>
</g>
<!-- Node16 -->
<g id="node16" class="node"><title>Node16</title>
<polygon fill="white" stroke="#bfbfbf" points="639.824,-62 639.824,-81 669.824,-81 669.824,-62 639.824,-62"/>
<text text-anchor="middle" x="654.824" y="-69" font-family="Helvetica,sans-Serif" font-size="10.00">set</text>
</g>
<!-- Node13&#45;&gt;Node16 -->
<g id="edge21" class="edge"><title>Node13&#45;&gt;Node16</title>
<path fill="none" stroke="midnightblue" d="M666.818,-123.475C664.822,-114.992 661.696,-101.704 659.135,-90.8222"/>
<polygon fill="midnightblue" stroke="midnightblue" points="662.524,-89.9416 656.826,-81.0091 655.71,-91.5449 662.524,-89.9416"/>
</g>
<!-- Node14&#45;&gt;Node3 -->
<g id="edge15" class="edge"><title>Node14&#45;&gt;Node3</title>
<path fill="none" stroke="midnightblue" d="M913.824,-61.9751C913.824,-53.5803 913.824,-40.4806 913.824,-29.6631"/>
<polygon fill="midnightblue" stroke="midnightblue" points="917.324,-29.5091 913.824,-19.5091 910.324,-29.5091 917.324,-29.5091"/>
</g>
<!-- Node15&#45;&gt;Node3 -->
<g id="edge17" class="edge"><title>Node15&#45;&gt;Node3</title>
<path fill="none" stroke="midnightblue" d="M802.45,-61.9751C824.267,-51.9897 860.628,-35.3476 885.842,-23.8075"/>
<polygon fill="midnightblue" stroke="midnightblue" points="887.597,-26.8534 895.233,-19.5091 884.684,-20.4884 887.597,-26.8534"/>
</g>
<!-- Node15&#45;&gt;Node4 -->
<g id="edge18" class="edge"><title>Node15&#45;&gt;Node4</title>
<path fill="none" stroke="midnightblue" d="M752.877,-61.9751C712.12,-50.748 640.814,-31.1059 599.632,-19.7619"/>
<polygon fill="midnightblue" stroke="midnightblue" points="600.418,-16.3482 589.848,-17.0667 598.559,-23.0968 600.418,-16.3482"/>
</g>
</g>
</svg>
