<?xml version="1.0" encoding="UTF-8" standalone="no"?>
<!DOCTYPE svg PUBLIC "-//W3C//DTD SVG 1.1//EN"
 "http://www.w3.org/Graphics/SVG/1.1/DTD/svg11.dtd">
<!-- Generated by graphviz version 2.38.0 (20140413.2041)
 -->
<!-- Title: Physics/ParticleStateTransitionKinematicsInfo.hpp Pages: 1 -->
<!--zoomable 229 -->
<svg id="main" version="1.1" xmlns="http://www.w3.org/2000/svg" xmlns:xlink="http://www.w3.org/1999/xlink" xml:space="preserve" onload="init(evt)">
<style type="text/css"><![CDATA[
.edge:hover path { stroke: red; }
.edge:hover polygon { stroke: red; fill: red; }
]]></style>
<script type="text/javascript"><![CDATA[
var edges = document.getElementsByTagName('g');
if (edges && edges.length) {
  for (var i=0;i<edges.length;i++) {
    if (edges[i].id.substr(0,4)=='edge') {
      edges[i].setAttribute('class','edge');
    }
  }
}
]]></script>
        <defs>
                <circle id="rim" cx="0" cy="0" r="7"/>
                <circle id="rim2" cx="0" cy="0" r="3.5"/>
                <g id="zoomPlus">
                        <use xlink:href="#rim" fill="#404040">
                                <set attributeName="fill" to="#808080" begin="zoomplus.mouseover" end="zoomplus.mouseout"/>
                        </use>
                        <path d="M-4,0h8M0,-4v8" fill="none" stroke="white" stroke-width="1.5" pointer-events="none"/>
                </g>
                <g id="zoomMin">
                        <use xlink:href="#rim" fill="#404040">
                                <set attributeName="fill" to="#808080" begin="zoomminus.mouseover" end="zoomminus.mouseout"/>
                        </use>
                        <path d="M-4,0h8" fill="none" stroke="white" stroke-width="1.5" pointer-events="none"/>
                </g>
                <g id="dirArrow">
                        <path fill="none" stroke="white" stroke-width="1.5" d="M0,-3.0v7 M-2.5,-0.5L0,-3.0L2.5,-0.5"/>
                </g>
               <g id="resetDef">
                       <use xlink:href="#rim2" fill="#404040">
                               <set attributeName="fill" to="#808080" begin="reset.mouseover" end="reset.mouseout"/>
                       </use>
               </g>
        </defs>

<script type="text/javascript">
var viewWidth = 1532;
var viewHeight = 229;
var sectionId = 'dynsection-1';
</script>
<script xlink:href="svgpan.js"/>
<svg id="graph" class="graph">
<g id="viewport">
<title>Physics/ParticleStateTransitionKinematicsInfo.hpp</title>
<polygon fill="white" stroke="none" points="-4,4 -4,-225 1527.89,-225 1527.89,4 -4,4"/>
<!-- Node1 -->
<g id="node1" class="node"><title>Node1</title>
<polygon fill="#bfbfbf" stroke="black" points="531.887,-190.5 531.887,-220.5 685.887,-220.5 685.887,-190.5 531.887,-190.5"/>
<text text-anchor="start" x="539.887" y="-208.5" font-family="Helvetica,sans-Serif" font-size="10.00">Physics/ParticleStateTransition</text>
<text text-anchor="middle" x="608.887" y="-197.5" font-family="Helvetica,sans-Serif" font-size="10.00">KinematicsInfo.hpp</text>
</g>
<!-- Node2 -->
<g id="node2" class="node"><title>Node2</title>
<g id="a_node2"><a xlink:href="EvtGenGenerator_8cpp.html" target="_top" xlink:title="Data/EvtGen/EvtGenGenerator.cpp">
<polygon fill="white" stroke="black" points="43.3869,-129 43.3869,-148 214.387,-148 214.387,-129 43.3869,-129"/>
<text text-anchor="middle" x="128.887" y="-136" font-family="Helvetica,sans-Serif" font-size="10.00">Data/EvtGen/EvtGenGenerator.cpp</text>
</a>
</g>
</g>
<!-- Node1&#45;&gt;Node2 -->
<g id="edge1" class="edge"><title>Node1&#45;&gt;Node2</title>
<path fill="none" stroke="midnightblue" d="M521.251,-193.617C442.964,-183.756 325.181,-168.579 222.887,-154 209.973,-152.159 196.077,-150.074 183.036,-148.07"/>
<polygon fill="midnightblue" stroke="midnightblue" points="521.193,-197.137 531.552,-194.912 522.067,-190.192 521.193,-197.137"/>
</g>
<!-- Node3 -->
<g id="node3" class="node"><title>Node3</title>
<g id="a_node3"><a xlink:href="RootGenerator_8cpp.html" target="_top" xlink:title="Data/Root/RootGenerator.cpp">
<polygon fill="white" stroke="black" points="232.387,-129 232.387,-148 379.387,-148 379.387,-129 232.387,-129"/>
<text text-anchor="middle" x="305.887" y="-136" font-family="Helvetica,sans-Serif" font-size="10.00">Data/Root/RootGenerator.cpp</text>
</a>
</g>
</g>
<!-- Node1&#45;&gt;Node3 -->
<g id="edge2" class="edge"><title>Node1&#45;&gt;Node3</title>
<path fill="none" stroke="midnightblue" d="M533.405,-188.307C473.875,-175.537 393.21,-158.233 345.644,-148.029"/>
<polygon fill="midnightblue" stroke="midnightblue" points="533.002,-191.801 543.513,-190.476 534.47,-184.956 533.002,-191.801"/>
</g>
<!-- Node4 -->
<g id="node4" class="node"><title>Node4</title>
<g id="a_node4"><a xlink:href="BuilderXML_8hpp.html" target="_top" xlink:title="Physics/BuilderXML.hpp">
<polygon fill="white" stroke="black" points="397.887,-129 397.887,-148 521.887,-148 521.887,-129 397.887,-129"/>
<text text-anchor="middle" x="459.887" y="-136" font-family="Helvetica,sans-Serif" font-size="10.00">Physics/BuilderXML.hpp</text>
</a>
</g>
</g>
<!-- Node1&#45;&gt;Node4 -->
<g id="edge3" class="edge"><title>Node1&#45;&gt;Node4</title>
<path fill="none" stroke="midnightblue" d="M567.156,-186.295C538.422,-173.76 501.566,-157.682 479.388,-148.007"/>
<polygon fill="midnightblue" stroke="midnightblue" points="565.991,-189.605 576.556,-190.396 568.79,-183.189 565.991,-189.605"/>
</g>
<!-- Node10 -->
<g id="node10" class="node"><title>Node10</title>
<g id="a_node10"><a xlink:href="HelicityKinematics_8hpp.html" target="_top" xlink:title="Physics/HelicityFormalism\l/HelicityKinematics.hpp">
<polygon fill="white" stroke="black" points="541.887,-123.5 541.887,-153.5 675.887,-153.5 675.887,-123.5 541.887,-123.5"/>
<text text-anchor="start" x="549.887" y="-141.5" font-family="Helvetica,sans-Serif" font-size="10.00">Physics/HelicityFormalism</text>
<text text-anchor="middle" x="608.887" y="-130.5" font-family="Helvetica,sans-Serif" font-size="10.00">/HelicityKinematics.hpp</text>
</a>
</g>
</g>
<!-- Node1&#45;&gt;Node10 -->
<g id="edge9" class="edge"><title>Node1&#45;&gt;Node10</title>
<path fill="none" stroke="midnightblue" d="M608.887,-180.108C608.887,-171.154 608.887,-161.323 608.887,-153.577"/>
<polygon fill="midnightblue" stroke="midnightblue" points="605.387,-180.396 608.887,-190.396 612.387,-180.396 605.387,-180.396"/>
</g>
<!-- Node15 -->
<g id="node15" class="node"><title>Node15</title>
<g id="a_node15"><a xlink:href="DalitzKinematics_8hpp.html" target="_top" xlink:title="Contains DalitzKinematics class. ">
<polygon fill="white" stroke="black" points="906.887,-129 906.887,-148 1090.89,-148 1090.89,-129 906.887,-129"/>
<text text-anchor="middle" x="998.887" y="-136" font-family="Helvetica,sans-Serif" font-size="10.00">Physics/EvtGen/DalitzKinematics.hpp</text>
</a>
</g>
</g>
<!-- Node1&#45;&gt;Node15 -->
<g id="edge19" class="edge"><title>Node1&#45;&gt;Node15</title>
<path fill="none" stroke="midnightblue" d="M696.153,-189.956C773.526,-177.06 883.879,-158.668 947.771,-148.019"/>
<polygon fill="midnightblue" stroke="midnightblue" points="695.227,-186.562 685.938,-191.658 696.378,-193.466 695.227,-186.562"/>
</g>
<!-- Node18 -->
<g id="node18" class="node"><title>Node18</title>
<g id="a_node18"><a xlink:href="ParticleStateTransitionKinematicsInfo_8cpp.html" target="_top" xlink:title="Physics/ParticleStateTransition\lKinematicsInfo.cpp">
<polygon fill="white" stroke="black" points="1108.89,-123.5 1108.89,-153.5 1262.89,-153.5 1262.89,-123.5 1108.89,-123.5"/>
<text text-anchor="start" x="1116.89" y="-141.5" font-family="Helvetica,sans-Serif" font-size="10.00">Physics/ParticleStateTransition</text>
<text text-anchor="middle" x="1185.89" y="-130.5" font-family="Helvetica,sans-Serif" font-size="10.00">KinematicsInfo.cpp</text>
</a>
</g>
</g>
<!-- Node1&#45;&gt;Node18 -->
<g id="edge24" class="edge"><title>Node1&#45;&gt;Node18</title>
<path fill="none" stroke="midnightblue" d="M696.222,-197.232C794.562,-188.649 959.029,-173.098 1099.89,-154 1102.74,-153.613 1105.64,-153.204 1108.57,-152.778"/>
<polygon fill="midnightblue" stroke="midnightblue" points="695.694,-193.764 686.034,-198.116 696.299,-200.738 695.694,-193.764"/>
</g>
<!-- Node19 -->
<g id="node19" class="node"><title>Node19</title>
<g id="a_node19"><a xlink:href="RootPlotData_8cpp.html" target="_top" xlink:title="Tools/Plotting/RootPlotData.cpp">
<polygon fill="white" stroke="black" points="1280.89,-129 1280.89,-148 1438.89,-148 1438.89,-129 1280.89,-129"/>
<text text-anchor="middle" x="1359.89" y="-136" font-family="Helvetica,sans-Serif" font-size="10.00">Tools/Plotting/RootPlotData.cpp</text>
</a>
</g>
</g>
<!-- Node1&#45;&gt;Node19 -->
<g id="edge25" class="edge"><title>Node1&#45;&gt;Node19</title>
<path fill="none" stroke="midnightblue" d="M695.975,-200.295C822.937,-193.614 1066.14,-178.738 1271.89,-154 1285.26,-152.392 1299.71,-150.202 1312.96,-148.012"/>
<polygon fill="midnightblue" stroke="midnightblue" points="695.723,-196.803 685.919,-200.82 696.087,-203.794 695.723,-196.803"/>
</g>
<!-- Node5 -->
<g id="node5" class="node"><title>Node5</title>
<g id="a_node5"><a xlink:href="DalitzFitD03K_8cpp.html" target="_top" xlink:title="Executable for Dalitz plot analysis of the decay D0 &#45;&gt; K_S K+ K&#45;. ">
<polygon fill="white" stroke="black" points="318.387,-56.5 318.387,-86.5 461.387,-86.5 461.387,-56.5 318.387,-56.5"/>
<text text-anchor="start" x="326.387" y="-74.5" font-family="Helvetica,sans-Serif" font-size="10.00">Examples/DalitzAnalysis</text>
<text text-anchor="middle" x="389.887" y="-63.5" font-family="Helvetica,sans-Serif" font-size="10.00">_D0KsKK/DalitzFitD03K.cpp</text>
</a>
</g>
</g>
<!-- Node4&#45;&gt;Node5 -->
<g id="edge4" class="edge"><title>Node4&#45;&gt;Node5</title>
<path fill="none" stroke="midnightblue" d="M443.117,-121.928C431.541,-111.179 416.274,-97.0024 405.06,-86.589"/>
<polygon fill="midnightblue" stroke="midnightblue" points="440.737,-124.494 450.446,-128.734 445.5,-119.364 440.737,-124.494"/>
</g>
<!-- Node6 -->
<g id="node6" class="node"><title>Node6</title>
<g id="a_node6"><a xlink:href="DalitzFitApp_8cpp.html" target="_top" xlink:title="Simple Dalitz plot analysis with ComPWA. ">
<polygon fill="white" stroke="black" points="479.887,-56.5 479.887,-86.5 579.887,-86.5 579.887,-56.5 479.887,-56.5"/>
<text text-anchor="start" x="487.887" y="-74.5" font-family="Helvetica,sans-Serif" font-size="10.00">Examples/DalitzFit</text>
<text text-anchor="middle" x="529.887" y="-63.5" font-family="Helvetica,sans-Serif" font-size="10.00">/DalitzFitApp.cpp</text>
</a>
</g>
</g>
<!-- Node4&#45;&gt;Node6 -->
<g id="edge5" class="edge"><title>Node4&#45;&gt;Node6</title>
<path fill="none" stroke="midnightblue" d="M476.657,-121.928C488.233,-111.179 503.5,-97.0024 514.714,-86.589"/>
<polygon fill="midnightblue" stroke="midnightblue" points="474.274,-119.364 469.327,-128.734 479.037,-124.494 474.274,-119.364"/>
</g>
<!-- Node7 -->
<g id="node7" class="node"><title>Node7</title>
<g id="a_node7"><a xlink:href="SimFit_8cpp.html" target="_top" xlink:title="Examples/SimFit/SimFit.cpp">
<polygon fill="white" stroke="black" points="15.8869,-62 15.8869,-81 157.887,-81 157.887,-62 15.8869,-62"/>
<text text-anchor="middle" x="86.8869" y="-69" font-family="Helvetica,sans-Serif" font-size="10.00">Examples/SimFit/SimFit.cpp</text>
</a>
</g>
</g>
<!-- Node4&#45;&gt;Node7 -->
<g id="edge6" class="edge"><title>Node4&#45;&gt;Node7</title>
<path fill="none" stroke="midnightblue" d="M408.702,-126.948C401.715,-125.579 394.63,-124.228 387.887,-123 289.98,-105.173 264.963,-103.875 166.887,-87 156.036,-85.1331 144.371,-83.0577 133.395,-81.0743"/>
<polygon fill="midnightblue" stroke="midnightblue" points="408.327,-130.442 418.817,-128.954 409.688,-123.575 408.327,-130.442"/>
</g>
<!-- Node8 -->
<g id="node8" class="node"><title>Node8</title>
<g id="a_node8"><a xlink:href="BuilderXML_8cpp.html" target="_top" xlink:title="Physics/BuilderXML.cpp">
<polygon fill="white" stroke="black" points="175.887,-62 175.887,-81 299.887,-81 299.887,-62 175.887,-62"/>
<text text-anchor="middle" x="237.887" y="-69" font-family="Helvetica,sans-Serif" font-size="10.00">Physics/BuilderXML.cpp</text>
</a>
</g>
</g>
<!-- Node4&#45;&gt;Node8 -->
<g id="edge7" class="edge"><title>Node4&#45;&gt;Node8</title>
<path fill="none" stroke="midnightblue" d="M420.644,-126.01C376.707,-113.145 306.516,-92.5942 267.135,-81.0637"/>
<polygon fill="midnightblue" stroke="midnightblue" points="419.826,-129.417 430.407,-128.869 421.793,-122.699 419.826,-129.417"/>
</g>
<!-- Node9 -->
<g id="node9" class="node"><title>Node9</title>
<g id="a_node9"><a xlink:href="BOSSAdapter_8cpp.html" target="_top" xlink:title="Tools/Adapters/BOSSAdapter.cpp">
<polygon fill="white" stroke="black" points="251.887,-0.5 251.887,-19.5 417.887,-19.5 417.887,-0.5 251.887,-0.5"/>
<text text-anchor="middle" x="334.887" y="-7.5" font-family="Helvetica,sans-Serif" font-size="10.00">Tools/Adapters/BOSSAdapter.cpp</text>
</a>
</g>
</g>
<!-- Node4&#45;&gt;Node9 -->
<g id="edge8" class="edge"><title>Node4&#45;&gt;Node9</title>
<path fill="none" stroke="midnightblue" d="M411.129,-126.965C403.377,-125.497 395.43,-124.113 387.887,-123 345.82,-116.794 35.5053,-118.45 6.88689,-87 -2.38593,-76.8097 -2.1692,-66.3834 6.88689,-56 38.0554,-20.2634 165.304,-11.8996 251.831,-10.469"/>
<polygon fill="midnightblue" stroke="midnightblue" points="410.67,-130.441 421.156,-128.927 412.014,-123.571 410.67,-130.441"/>
</g>
<!-- Node10&#45;&gt;Node5 -->
<g id="edge10" class="edge"><title>Node10&#45;&gt;Node5</title>
<path fill="none" stroke="midnightblue" d="M551.879,-120.58C516.309,-110.022 471.059,-96.5921 437.43,-86.6109"/>
<polygon fill="midnightblue" stroke="midnightblue" points="551.054,-123.986 561.637,-123.476 553.046,-117.275 551.054,-123.986"/>
</g>
<!-- Node10&#45;&gt;Node6 -->
<g id="edge11" class="edge"><title>Node10&#45;&gt;Node6</title>
<path fill="none" stroke="midnightblue" d="M583.83,-116.883C571.824,-107.005 557.755,-95.4293 546.995,-86.5765"/>
<polygon fill="midnightblue" stroke="midnightblue" points="581.799,-119.745 591.745,-123.396 586.247,-114.34 581.799,-119.745"/>
</g>
<!-- Node10&#45;&gt;Node7 -->
<g id="edge13" class="edge"><title>Node10&#45;&gt;Node7</title>
<path fill="none" stroke="midnightblue" d="M531.553,-123.095C531.33,-123.063 531.108,-123.031 530.887,-123 369.937,-100.123 327.887,-109.515 166.887,-87 155.005,-85.3383 142.193,-83.1816 130.38,-81.0417"/>
<polygon fill="midnightblue" stroke="midnightblue" points="531.311,-126.598 541.723,-124.639 532.361,-119.678 531.311,-126.598"/>
</g>
<!-- Node10&#45;&gt;Node8 -->
<g id="edge14" class="edge"><title>Node10&#45;&gt;Node8</title>
<path fill="none" stroke="midnightblue" d="M531.549,-123.115C531.328,-123.077 531.107,-123.038 530.887,-123 432.411,-105.865 407.208,-105.004 308.887,-87 298.987,-85.1871 288.341,-83.0913 278.382,-81.0664"/>
<polygon fill="midnightblue" stroke="midnightblue" points="531.224,-126.612 541.681,-124.905 532.442,-119.719 531.224,-126.612"/>
</g>
<!-- Node11 -->
<g id="node11" class="node"><title>Node11</title>
<g id="a_node11"><a xlink:href="EvtGenFit_8cpp.html" target="_top" xlink:title="Examples/EvtGen/EvtGenFit.cpp">
<polygon fill="white" stroke="black" points="1060.89,-0.5 1060.89,-19.5 1222.89,-19.5 1222.89,-0.5 1060.89,-0.5"/>
<text text-anchor="middle" x="1141.89" y="-7.5" font-family="Helvetica,sans-Serif" font-size="10.00">Examples/EvtGen/EvtGenFit.cpp</text>
</a>
</g>
</g>
<!-- Node10&#45;&gt;Node11 -->
<g id="edge12" class="edge"><title>Node10&#45;&gt;Node11</title>
<path fill="none" stroke="midnightblue" d="M686.161,-136.744C753.895,-133.499 853.635,-122.34 932.887,-87 952.793,-78.1233 951.462,-65.8868 970.887,-56 1007,-37.619 1051.33,-26.2293 1085.81,-19.5081"/>
<polygon fill="midnightblue" stroke="midnightblue" points="685.829,-133.255 675.99,-137.184 686.132,-140.249 685.829,-133.255"/>
</g>
<!-- Node12 -->
<g id="node12" class="node"><title>Node12</title>
<g id="a_node12"><a xlink:href="HelicityKinematics_8cpp.html" target="_top" xlink:title="Physics/HelicityFormalism\l/HelicityKinematics.cpp">
<polygon fill="white" stroke="black" points="979.887,-56.5 979.887,-86.5 1113.89,-86.5 1113.89,-56.5 979.887,-56.5"/>
<text text-anchor="start" x="987.887" y="-74.5" font-family="Helvetica,sans-Serif" font-size="10.00">Physics/HelicityFormalism</text>
<text text-anchor="middle" x="1046.89" y="-63.5" font-family="Helvetica,sans-Serif" font-size="10.00">/HelicityKinematics.cpp</text>
</a>
</g>
</g>
<!-- Node10&#45;&gt;Node12 -->
<g id="edge15" class="edge"><title>Node10&#45;&gt;Node12</title>
<path fill="none" stroke="midnightblue" d="M686.062,-127.413C758.451,-117.755 869.665,-102.413 965.887,-87 970.401,-86.277 975.052,-85.5081 979.735,-84.7162"/>
<polygon fill="midnightblue" stroke="midnightblue" points="685.562,-123.949 676.111,-128.738 686.485,-130.888 685.562,-123.949"/>
</g>
<!-- Node13 -->
<g id="node13" class="node"><title>Node13</title>
<g id="a_node13"><a xlink:href="BOSSAdapter_8hpp.html" target="_top" xlink:title="Tools/Adapters/BOSSAdapter.hpp">
<polygon fill="white" stroke="black" points="597.887,-62 597.887,-81 763.887,-81 763.887,-62 597.887,-62"/>
<text text-anchor="middle" x="680.887" y="-69" font-family="Helvetica,sans-Serif" font-size="10.00">Tools/Adapters/BOSSAdapter.hpp</text>
</a>
</g>
</g>
<!-- Node10&#45;&gt;Node13 -->
<g id="edge16" class="edge"><title>Node10&#45;&gt;Node13</title>
<path fill="none" stroke="midnightblue" d="M631.958,-116.672C645.252,-104.671 661.258,-90.2203 671.256,-81.1945"/>
<polygon fill="midnightblue" stroke="midnightblue" points="629.587,-114.097 624.51,-123.396 634.278,-119.293 629.587,-114.097"/>
</g>
<!-- Node14 -->
<g id="node14" class="node"><title>Node14</title>
<g id="a_node14"><a xlink:href="DalitzPlot_8cpp.html" target="_top" xlink:title="Tools/Plotting/DalitzPlot.cpp">
<polygon fill="white" stroke="black" points="782.387,-62 782.387,-81 923.387,-81 923.387,-62 782.387,-62"/>
<text text-anchor="middle" x="852.887" y="-69" font-family="Helvetica,sans-Serif" font-size="10.00">Tools/Plotting/DalitzPlot.cpp</text>
</a>
</g>
</g>
<!-- Node10&#45;&gt;Node14 -->
<g id="edge18" class="edge"><title>Node10&#45;&gt;Node14</title>
<path fill="none" stroke="midnightblue" d="M671.462,-120.83C719.216,-108.109 783.042,-91.1062 820.872,-81.0287"/>
<polygon fill="midnightblue" stroke="midnightblue" points="670.293,-117.52 661.531,-123.476 672.095,-124.284 670.293,-117.52"/>
</g>
<!-- Node13&#45;&gt;Node9 -->
<g id="edge17" class="edge"><title>Node13&#45;&gt;Node9</title>
<path fill="none" stroke="midnightblue" d="M621.335,-60.2591C554.384,-48.7459 446.887,-30.2602 384.368,-19.5091"/>
<polygon fill="midnightblue" stroke="midnightblue" points="620.865,-63.7296 631.314,-61.9751 622.051,-56.8309 620.865,-63.7296"/>
</g>
<!-- Node15&#45;&gt;Node11 -->
<g id="edge20" class="edge"><title>Node15&#45;&gt;Node11</title>
<path fill="none" stroke="midnightblue" d="M1056.5,-126.133C1080.14,-118.709 1105.89,-106.6 1122.89,-87 1139.82,-67.4794 1142.08,-35.0707 1142.13,-19.6574"/>
<polygon fill="midnightblue" stroke="midnightblue" points="1055.5,-122.779 1046.88,-128.942 1057.46,-129.499 1055.5,-122.779"/>
</g>
<!-- Node16 -->
<g id="node16" class="node"><title>Node16</title>
<g id="a_node16"><a xlink:href="EvtGenIF_8hpp.html" target="_top" xlink:title="Physics/EvtGen/EvtGenIF.hpp">
<polygon fill="white" stroke="red" points="1169.89,-62 1169.89,-81 1321.89,-81 1321.89,-62 1169.89,-62"/>
<text text-anchor="middle" x="1245.89" y="-69" font-family="Helvetica,sans-Serif" font-size="10.00">Physics/EvtGen/EvtGenIF.hpp</text>
</a>
</g>
</g>
<!-- Node15&#45;&gt;Node16 -->
<g id="edge21" class="edge"><title>Node15&#45;&gt;Node16</title>
<path fill="none" stroke="midnightblue" d="M1041.36,-126.323C1090.13,-113.489 1169.08,-92.7118 1213.27,-81.0834"/>
<polygon fill="midnightblue" stroke="midnightblue" points="1040.21,-123.006 1031.43,-128.936 1041.99,-129.775 1040.21,-123.006"/>
</g>
<!-- Node17 -->
<g id="node17" class="node"><title>Node17</title>
<g id="a_node17"><a xlink:href="DalitzKinematics_8cpp.html" target="_top" xlink:title="Physics/EvtGen/DalitzKinematics.cpp">
<polygon fill="white" stroke="black" points="1339.89,-62 1339.89,-81 1523.89,-81 1523.89,-62 1339.89,-62"/>
<text text-anchor="middle" x="1431.89" y="-69" font-family="Helvetica,sans-Serif" font-size="10.00">Physics/EvtGen/DalitzKinematics.cpp</text>
</a>
</g>
</g>
<!-- Node15&#45;&gt;Node17 -->
<g id="edge23" class="edge"><title>Node15&#45;&gt;Node17</title>
<path fill="none" stroke="midnightblue" d="M1065.98,-127.428C1150.82,-114.693 1295.4,-92.9893 1375.05,-81.0317"/>
<polygon fill="midnightblue" stroke="midnightblue" points="1065.31,-123.99 1055.94,-128.936 1066.35,-130.912 1065.31,-123.99"/>
</g>
<!-- Node16&#45;&gt;Node11 -->
<g id="edge22" class="edge"><title>Node16&#45;&gt;Node11</title>
<path fill="none" stroke="midnightblue" d="M1222.12,-56.9006C1202.01,-45.3957 1173.82,-29.2667 1156.76,-19.5091"/>
<polygon fill="midnightblue" stroke="midnightblue" points="1220.57,-60.0471 1230.99,-61.9751 1224.04,-53.9712 1220.57,-60.0471"/>
</g>
</g>
</svg>
        <g id="navigator" transform="translate(0 0)" fill="#404254">
                <rect fill="#f2f5e9" fill-opacity="0.5" stroke="#606060" stroke-width=".5" x="0" y="0" width="60" height="60"/>
                <use id="zoomplus" xlink:href="#zoomPlus" x="17" y="9" onmousedown="handleZoom(evt,'in')"/>
                <use id="zoomminus" xlink:href="#zoomMin" x="42" y="9" onmousedown="handleZoom(evt,'out')"/>
                <use id="reset" xlink:href="#resetDef" x="30" y="36" onmousedown="handleReset()"/>
                <g id="arrowUp" xlink:href="#dirArrow" transform="translate(30 24)" onmousedown="handlePan(0,-1)">
                  <use xlink:href="#rim" fill="#404040">
                        <set attributeName="fill" to="#808080" begin="arrowUp.mouseover" end="arrowUp.mouseout"/>
                  </use>
                  <path fill="none" stroke="white" stroke-width="1.5" d="M0,-3.0v7 M-2.5,-0.5L0,-3.0L2.5,-0.5"/>
                </g>
                <g id="arrowRight" xlink:href="#dirArrow" transform="rotate(90) translate(36 -43)" onmousedown="handlePan(1,0)">
                  <use xlink:href="#rim" fill="#404040">
                        <set attributeName="fill" to="#808080" begin="arrowRight.mouseover" end="arrowRight.mouseout"/>
                  </use>
                  <path fill="none" stroke="white" stroke-width="1.5" d="M0,-3.0v7 M-2.5,-0.5L0,-3.0L2.5,-0.5"/>
                </g>
                <g id="arrowDown" xlink:href="#dirArrow" transform="rotate(180) translate(-30 -48)" onmousedown="handlePan(0,1)">
                  <use xlink:href="#rim" fill="#404040">
                        <set attributeName="fill" to="#808080" begin="arrowDown.mouseover" end="arrowDown.mouseout"/>
                  </use>
                  <path fill="none" stroke="white" stroke-width="1.5" d="M0,-3.0v7 M-2.5,-0.5L0,-3.0L2.5,-0.5"/>
                </g>
                <g id="arrowLeft" xlink:href="#dirArrow" transform="rotate(270) translate(-36 17)" onmousedown="handlePan(-1,0)">
                  <use xlink:href="#rim" fill="#404040">
                        <set attributeName="fill" to="#808080" begin="arrowLeft.mouseover" end="arrowLeft.mouseout"/>
                  </use>
                  <path fill="none" stroke="white" stroke-width="1.5" d="M0,-3.0v7 M-2.5,-0.5L0,-3.0L2.5,-0.5"/>
                </g>
        </g>
        <svg viewBox="0 0 15 15" width="100%" height="30px" preserveAspectRatio="xMaxYMin meet">
         <g id="arrow_out" transform="scale(0.3 0.3)">
          <a xlink:href="ParticleStateTransitionKinematicsInfo_8hpp__dep__incl_org.svg" target="_base">
           <rect id="button" ry="5" rx="5" y="6" x="6" height="38" width="38"
                fill="#f2f5e9" fill-opacity="0.5" stroke="#606060" stroke-width="1.0"/>
           <path id="arrow"
             d="M 11.500037,31.436501 C 11.940474,20.09759 22.043105,11.32322 32.158766,21.979434 L 37.068811,17.246167 C 37.068811,17.246167 37.088388,32 37.088388,32 L 22.160133,31.978069 C 22.160133,31.978069 26.997745,27.140456 26.997745,27.140456 C 18.528582,18.264221 13.291696,25.230495 11.500037,31.436501 z"
             style="fill:#404040;"/>
          </a>
         </g>
        </svg>
</svg>
