<?xml version="1.0" encoding="UTF-8" standalone="no"?>
<!DOCTYPE svg PUBLIC "-//W3C//DTD SVG 1.1//EN"
 "http://www.w3.org/Graphics/SVG/1.1/DTD/svg11.dtd">
<!-- Generated by graphviz version 2.38.0 (20140413.2041)
 -->
<!-- Title: Physics/ParticleStateTransitionKinematicsInfo.cpp Pages: 1 -->
<svg width="333pt" height="218pt"
 viewBox="0.00 0.00 333.05 218.00" xmlns="http://www.w3.org/2000/svg" xmlns:xlink="http://www.w3.org/1999/xlink">
<g id="graph0" class="graph" transform="scale(1 1) rotate(0) translate(4 214)">
<title>Physics/ParticleStateTransitionKinematicsInfo.cpp</title>
<polygon fill="white" stroke="none" points="-4,4 -4,-214 329.045,-214 329.045,4 -4,4"/>
<!-- Node1 -->
<g id="node1" class="node"><title>Node1</title>
<polygon fill="#bfbfbf" stroke="black" points="48.045,-179.5 48.045,-209.5 202.045,-209.5 202.045,-179.5 48.045,-179.5"/>
<text text-anchor="start" x="56.045" y="-197.5" font-family="Helvetica,sans-Serif" font-size="10.00">Physics/ParticleStateTransition</text>
<text text-anchor="middle" x="125.045" y="-186.5" font-family="Helvetica,sans-Serif" font-size="10.00">KinematicsInfo.cpp</text>
</g>
<!-- Node2 -->
<g id="node2" class="node"><title>Node2</title>
<g id="a_node2"><a xlink:href="ParticleStateTransitionKinematicsInfo_8hpp.html" target="_top" xlink:title="ParticleStateTransitionKinematics\lInfo.hpp">
<polygon fill="white" stroke="black" points="43.045,-112.5 43.045,-142.5 207.045,-142.5 207.045,-112.5 43.045,-112.5"/>
<text text-anchor="start" x="51.045" y="-130.5" font-family="Helvetica,sans-Serif" font-size="10.00">ParticleStateTransitionKinematics</text>
<text text-anchor="middle" x="125.045" y="-119.5" font-family="Helvetica,sans-Serif" font-size="10.00">Info.hpp</text>
</a>
</g>
</g>
<!-- Node1&#45;&gt;Node2 -->
<g id="edge1" class="edge"><title>Node1&#45;&gt;Node2</title>
<path fill="none" stroke="midnightblue" d="M125.045,-179.396C125.045,-171.645 125.045,-161.812 125.045,-152.86"/>
<polygon fill="midnightblue" stroke="midnightblue" points="128.545,-152.576 125.045,-142.577 121.545,-152.577 128.545,-152.576"/>
</g>
<!-- Node3 -->
<g id="node3" class="node"><title>Node3</title>
<polygon fill="white" stroke="#bfbfbf" points="37.545,-0.5 37.545,-19.5 72.545,-19.5 72.545,-0.5 37.545,-0.5"/>
<text text-anchor="middle" x="55.045" y="-7.5" font-family="Helvetica,sans-Serif" font-size="10.00">map</text>
</g>
<!-- Node2&#45;&gt;Node3 -->
<g id="edge2" class="edge"><title>Node2&#45;&gt;Node3</title>
<path fill="none" stroke="midnightblue" d="M54.3076,-112.458C34.7549,-104.976 15.7196,-93.523 4.04501,-76 -8.17581,-57.6571 12.6498,-37.9154 31.2527,-25.063"/>
<polygon fill="midnightblue" stroke="midnightblue" points="33.3137,-27.8977 39.7839,-19.508 29.494,-22.0316 33.3137,-27.8977"/>
</g>
<!-- Node4 -->
<g id="node4" class="node"><title>Node4</title>
<polygon fill="white" stroke="#bfbfbf" points="13.545,-56.5 13.545,-75.5 54.545,-75.5 54.545,-56.5 13.545,-56.5"/>
<text text-anchor="middle" x="34.045" y="-63.5" font-family="Helvetica,sans-Serif" font-size="10.00">string</text>
</g>
<!-- Node2&#45;&gt;Node4 -->
<g id="edge3" class="edge"><title>Node2&#45;&gt;Node4</title>
<path fill="none" stroke="midnightblue" d="M103.479,-112.399C89.1653,-103.04 70.4334,-90.7924 56.0335,-81.3771"/>
<polygon fill="midnightblue" stroke="midnightblue" points="57.5714,-78.2009 47.2863,-75.6578 53.7406,-84.0597 57.5714,-78.2009"/>
</g>
<!-- Node5 -->
<g id="node5" class="node"><title>Node5</title>
<polygon fill="white" stroke="#bfbfbf" points="183.045,-0.5 183.045,-19.5 227.045,-19.5 227.045,-0.5 183.045,-0.5"/>
<text text-anchor="middle" x="205.045" y="-7.5" font-family="Helvetica,sans-Serif" font-size="10.00">vector</text>
</g>
<!-- Node2&#45;&gt;Node5 -->
<g id="edge4" class="edge"><title>Node2&#45;&gt;Node5</title>
<path fill="none" stroke="midnightblue" d="M147.991,-112.486C160.885,-103.524 176.298,-90.8172 186.045,-76 195.232,-62.0338 200.075,-43.5299 202.565,-29.8374"/>
<polygon fill="midnightblue" stroke="midnightblue" points="206.068,-30.0919 204.148,-19.6725 199.151,-29.0151 206.068,-30.0919"/>
</g>
<!-- Node6 -->
<g id="node6" class="node"><title>Node6</title>
<g id="a_node6"><a xlink:href="Particle_8hpp.html" target="_top" xlink:title="Particle and FourMomentum class. ">
<polygon fill="white" stroke="red" points="233.045,-56.5 233.045,-75.5 325.045,-75.5 325.045,-56.5 233.045,-56.5"/>
<text text-anchor="middle" x="279.045" y="-63.5" font-family="Helvetica,sans-Serif" font-size="10.00">Core/Particle.hpp</text>
</a>
</g>
</g>
<!-- Node2&#45;&gt;Node6 -->
<g id="edge5" class="edge"><title>Node2&#45;&gt;Node6</title>
<path fill="none" stroke="midnightblue" d="M161.541,-112.399C187.61,-102.327 222.339,-88.9093 247.269,-79.2769"/>
<polygon fill="midnightblue" stroke="midnightblue" points="248.57,-82.5266 256.637,-75.6578 246.047,-75.997 248.57,-82.5266"/>
</g>
<!-- Node7 -->
<g id="node7" class="node"><title>Node7</title>
<g id="a_node7"><a xlink:href="Properties_8hpp.html" target="_top" xlink:title="Core/Properties.hpp">
<polygon fill="white" stroke="red" points="73.045,-56.5 73.045,-75.5 177.045,-75.5 177.045,-56.5 73.045,-56.5"/>
<text text-anchor="middle" x="125.045" y="-63.5" font-family="Helvetica,sans-Serif" font-size="10.00">Core/Properties.hpp</text>
</a>
</g>
</g>
<!-- Node2&#45;&gt;Node7 -->
<g id="edge7" class="edge"><title>Node2&#45;&gt;Node7</title>
<path fill="none" stroke="midnightblue" d="M125.045,-112.399C125.045,-104.466 125.045,-94.458 125.045,-85.8583"/>
<polygon fill="midnightblue" stroke="midnightblue" points="128.545,-85.6577 125.045,-75.6578 121.545,-85.6578 128.545,-85.6577"/>
</g>
<!-- Node6&#45;&gt;Node5 -->
<g id="edge6" class="edge"><title>Node6&#45;&gt;Node5</title>
<path fill="none" stroke="midnightblue" d="M267.156,-56.324C255.895,-48.1066 238.758,-35.6017 225.336,-25.8069"/>
<polygon fill="midnightblue" stroke="midnightblue" points="227.292,-22.9014 217.151,-19.8339 223.165,-28.5559 227.292,-22.9014"/>
</g>
<!-- Node7&#45;&gt;Node3 -->
<g id="edge8" class="edge"><title>Node7&#45;&gt;Node3</title>
<path fill="none" stroke="midnightblue" d="M113.798,-56.324C103.248,-48.1849 87.2443,-35.8395 74.6028,-26.0874"/>
<polygon fill="midnightblue" stroke="midnightblue" points="76.552,-23.1707 66.4964,-19.8339 72.2764,-28.7132 76.552,-23.1707"/>
</g>
<!-- Node7&#45;&gt;Node5 -->
<g id="edge9" class="edge"><title>Node7&#45;&gt;Node5</title>
<path fill="none" stroke="midnightblue" d="M137.898,-56.324C150.261,-47.979 169.175,-35.2122 183.782,-25.3524"/>
<polygon fill="midnightblue" stroke="midnightblue" points="185.893,-28.1503 192.224,-19.6545 181.977,-22.3483 185.893,-28.1503"/>
</g>
</g>
</svg>
