<?xml version="1.0" encoding="UTF-8" standalone="no"?>
<!DOCTYPE svg PUBLIC "-//W3C//DTD SVG 1.1//EN"
 "http://www.w3.org/Graphics/SVG/1.1/DTD/svg11.dtd">
<!-- Generated by graphviz version 2.38.0 (20140413.2041)
 -->
<!-- Title: Physics/PhspVolume.cpp Pages: 1 -->
<svg width="469pt" height="140pt"
 viewBox="0.00 0.00 469.00 140.00" xmlns="http://www.w3.org/2000/svg" xmlns:xlink="http://www.w3.org/1999/xlink">
<g id="graph0" class="graph" transform="scale(1 1) rotate(0) translate(4 136)">
<title>Physics/PhspVolume.cpp</title>
<polygon fill="white" stroke="none" points="-4,4 -4,-136 465,-136 465,4 -4,4"/>
<!-- Node1 -->
<g id="node1" class="node"><title>Node1</title>
<polygon fill="#bfbfbf" stroke="black" points="237,-112.5 237,-131.5 366,-131.5 366,-112.5 237,-112.5"/>
<text text-anchor="middle" x="301.5" y="-119.5" font-family="Helvetica,sans-Serif" font-size="10.00">Physics/PhspVolume.cpp</text>
</g>
<!-- Node2 -->
<g id="node2" class="node"><title>Node2</title>
<g id="a_node2"><a xlink:href="PhspVolume_8hpp.html" target="_top" xlink:title="Function to calculate the available phase space volume of arbitrary decays. ">
<polygon fill="white" stroke="black" points="0,-56.5 0,-75.5 129,-75.5 129,-56.5 0,-56.5"/>
<text text-anchor="middle" x="64.5" y="-63.5" font-family="Helvetica,sans-Serif" font-size="10.00">Physics/PhspVolume.hpp</text>
</a>
</g>
</g>
<!-- Node1&#45;&gt;Node2 -->
<g id="edge1" class="edge"><title>Node1&#45;&gt;Node2</title>
<path fill="none" stroke="midnightblue" d="M263.947,-112.444C222.689,-103.043 156.356,-87.9291 111.634,-77.7393"/>
<polygon fill="midnightblue" stroke="midnightblue" points="112.405,-74.3255 101.878,-75.5164 110.85,-81.1506 112.405,-74.3255"/>
</g>
<!-- Node5 -->
<g id="node5" class="node"><title>Node5</title>
<g id="a_node5"><a xlink:href="Exceptions_8hpp.html" target="_top" xlink:title="ComPWA exceptions. ">
<polygon fill="white" stroke="black" points="147.5,-56.5 147.5,-75.5 255.5,-75.5 255.5,-56.5 147.5,-56.5"/>
<text text-anchor="middle" x="201.5" y="-63.5" font-family="Helvetica,sans-Serif" font-size="10.00">Core/Exceptions.hpp</text>
</a>
</g>
</g>
<!-- Node1&#45;&gt;Node5 -->
<g id="edge4" class="edge"><title>Node1&#45;&gt;Node5</title>
<path fill="none" stroke="midnightblue" d="M285.433,-112.324C269.542,-103.743 244.993,-90.486 226.542,-80.5224"/>
<polygon fill="midnightblue" stroke="midnightblue" points="227.989,-77.3264 217.527,-75.6545 224.663,-83.4857 227.989,-77.3264"/>
</g>
<!-- Node8 -->
<g id="node8" class="node"><title>Node8</title>
<polygon fill="white" stroke="#bfbfbf" points="273.5,-56.5 273.5,-75.5 329.5,-75.5 329.5,-56.5 273.5,-56.5"/>
<text text-anchor="middle" x="301.5" y="-63.5" font-family="Helvetica,sans-Serif" font-size="10.00">algorithm</text>
</g>
<!-- Node1&#45;&gt;Node8 -->
<g id="edge7" class="edge"><title>Node1&#45;&gt;Node8</title>
<path fill="none" stroke="midnightblue" d="M301.5,-112.083C301.5,-105.006 301.5,-94.8611 301.5,-85.9865"/>
<polygon fill="midnightblue" stroke="midnightblue" points="305,-85.751 301.5,-75.7511 298,-85.7511 305,-85.751"/>
</g>
<!-- Node9 -->
<g id="node9" class="node"><title>Node9</title>
<polygon fill="white" stroke="#bfbfbf" points="347.5,-56.5 347.5,-75.5 391.5,-75.5 391.5,-56.5 347.5,-56.5"/>
<text text-anchor="middle" x="369.5" y="-63.5" font-family="Helvetica,sans-Serif" font-size="10.00">cmath</text>
</g>
<!-- Node1&#45;&gt;Node9 -->
<g id="edge8" class="edge"><title>Node1&#45;&gt;Node9</title>
<path fill="none" stroke="midnightblue" d="M312.425,-112.324C322.675,-104.185 338.221,-91.8395 350.501,-82.0874"/>
<polygon fill="midnightblue" stroke="midnightblue" points="352.721,-84.7937 358.376,-75.8339 348.368,-79.3119 352.721,-84.7937"/>
</g>
<!-- Node10 -->
<g id="node10" class="node"><title>Node10</title>
<polygon fill="white" stroke="#bfbfbf" points="410,-56.5 410,-75.5 461,-75.5 461,-56.5 410,-56.5"/>
<text text-anchor="middle" x="435.5" y="-63.5" font-family="Helvetica,sans-Serif" font-size="10.00">numeric</text>
</g>
<!-- Node1&#45;&gt;Node10 -->
<g id="edge9" class="edge"><title>Node1&#45;&gt;Node10</title>
<path fill="none" stroke="midnightblue" d="M322.733,-112.444C344.884,-103.517 379.819,-89.4387 404.936,-79.3168"/>
<polygon fill="midnightblue" stroke="midnightblue" points="406.4,-82.5006 414.367,-75.5164 403.783,-76.0079 406.4,-82.5006"/>
</g>
<!-- Node3 -->
<g id="node3" class="node"><title>Node3</title>
<polygon fill="white" stroke="#bfbfbf" points="14.5,-0.5 14.5,-19.5 54.5,-19.5 54.5,-0.5 14.5,-0.5"/>
<text text-anchor="middle" x="34.5" y="-7.5" font-family="Helvetica,sans-Serif" font-size="10.00">utility</text>
</g>
<!-- Node2&#45;&gt;Node3 -->
<g id="edge2" class="edge"><title>Node2&#45;&gt;Node3</title>
<path fill="none" stroke="midnightblue" d="M59.5461,-56.083C55.3959,-48.6127 49.3469,-37.7244 44.2333,-28.5199"/>
<polygon fill="midnightblue" stroke="midnightblue" points="47.2777,-26.7929 39.3617,-19.7511 41.1586,-30.1924 47.2777,-26.7929"/>
</g>
<!-- Node4 -->
<g id="node4" class="node"><title>Node4</title>
<polygon fill="white" stroke="#bfbfbf" points="72.5,-0.5 72.5,-19.5 116.5,-19.5 116.5,-0.5 72.5,-0.5"/>
<text text-anchor="middle" x="94.5" y="-7.5" font-family="Helvetica,sans-Serif" font-size="10.00">vector</text>
</g>
<!-- Node2&#45;&gt;Node4 -->
<g id="edge3" class="edge"><title>Node2&#45;&gt;Node4</title>
<path fill="none" stroke="midnightblue" d="M69.4539,-56.083C73.6041,-48.6127 79.6531,-37.7244 84.7667,-28.5199"/>
<polygon fill="midnightblue" stroke="midnightblue" points="87.8414,-30.1924 89.6383,-19.7511 81.7223,-26.7929 87.8414,-30.1924"/>
</g>
<!-- Node6 -->
<g id="node6" class="node"><title>Node6</title>
<polygon fill="white" stroke="#bfbfbf" points="153,-0.5 153,-19.5 212,-19.5 212,-0.5 153,-0.5"/>
<text text-anchor="middle" x="182.5" y="-7.5" font-family="Helvetica,sans-Serif" font-size="10.00">exception</text>
</g>
<!-- Node5&#45;&gt;Node6 -->
<g id="edge5" class="edge"><title>Node5&#45;&gt;Node6</title>
<path fill="none" stroke="midnightblue" d="M198.363,-56.083C195.817,-48.8486 192.144,-38.4087 188.973,-29.3968"/>
<polygon fill="midnightblue" stroke="midnightblue" points="192.2,-28.0225 185.579,-19.7511 185.597,-30.3459 192.2,-28.0225"/>
</g>
<!-- Node7 -->
<g id="node7" class="node"><title>Node7</title>
<polygon fill="white" stroke="#bfbfbf" points="230,-0.5 230,-19.5 271,-19.5 271,-0.5 230,-0.5"/>
<text text-anchor="middle" x="250.5" y="-7.5" font-family="Helvetica,sans-Serif" font-size="10.00">string</text>
</g>
<!-- Node5&#45;&gt;Node7 -->
<g id="edge6" class="edge"><title>Node5&#45;&gt;Node7</title>
<path fill="none" stroke="midnightblue" d="M209.591,-56.083C216.655,-48.2982 227.088,-36.8015 235.649,-27.3665"/>
<polygon fill="midnightblue" stroke="midnightblue" points="238.431,-29.5087 242.559,-19.7511 233.247,-24.8047 238.431,-29.5087"/>
</g>
</g>
</svg>
