<?xml version="1.0" encoding="UTF-8" standalone="no"?>
<!DOCTYPE svg PUBLIC "-//W3C//DTD SVG 1.1//EN"
 "http://www.w3.org/Graphics/SVG/1.1/DTD/svg11.dtd">
<!-- Generated by graphviz version 2.38.0 (20140413.2041)
 -->
<!-- Title: Physics/PhspVolume.hpp Pages: 1 -->
<svg width="137pt" height="84pt"
 viewBox="0.00 0.00 137.00 84.00" xmlns="http://www.w3.org/2000/svg" xmlns:xlink="http://www.w3.org/1999/xlink">
<g id="graph0" class="graph" transform="scale(1 1) rotate(0) translate(4 80)">
<title>Physics/PhspVolume.hpp</title>
<polygon fill="white" stroke="none" points="-4,4 -4,-80 133,-80 133,4 -4,4"/>
<!-- Node1 -->
<g id="node1" class="node"><title>Node1</title>
<polygon fill="#bfbfbf" stroke="black" points="0,-56.5 0,-75.5 129,-75.5 129,-56.5 0,-56.5"/>
<text text-anchor="middle" x="64.5" y="-63.5" font-family="Helvetica,sans-Serif" font-size="10.00">Physics/PhspVolume.hpp</text>
</g>
<!-- Node2 -->
<g id="node2" class="node"><title>Node2</title>
<polygon fill="white" stroke="#bfbfbf" points="14.5,-0.5 14.5,-19.5 54.5,-19.5 54.5,-0.5 14.5,-0.5"/>
<text text-anchor="middle" x="34.5" y="-7.5" font-family="Helvetica,sans-Serif" font-size="10.00">utility</text>
</g>
<!-- Node1&#45;&gt;Node2 -->
<g id="edge1" class="edge"><title>Node1&#45;&gt;Node2</title>
<path fill="none" stroke="midnightblue" d="M59.5461,-56.083C55.3959,-48.6127 49.3469,-37.7244 44.2333,-28.5199"/>
<polygon fill="midnightblue" stroke="midnightblue" points="47.2777,-26.7929 39.3617,-19.7511 41.1586,-30.1924 47.2777,-26.7929"/>
</g>
<!-- Node3 -->
<g id="node3" class="node"><title>Node3</title>
<polygon fill="white" stroke="#bfbfbf" points="72.5,-0.5 72.5,-19.5 116.5,-19.5 116.5,-0.5 72.5,-0.5"/>
<text text-anchor="middle" x="94.5" y="-7.5" font-family="Helvetica,sans-Serif" font-size="10.00">vector</text>
</g>
<!-- Node1&#45;&gt;Node3 -->
<g id="edge2" class="edge"><title>Node1&#45;&gt;Node3</title>
<path fill="none" stroke="midnightblue" d="M69.4539,-56.083C73.6041,-48.6127 79.6531,-37.7244 84.7667,-28.5199"/>
<polygon fill="midnightblue" stroke="midnightblue" points="87.8414,-30.1924 89.6383,-19.7511 81.7223,-26.7929 87.8414,-30.1924"/>
</g>
</g>
</svg>
