<?xml version="1.0" encoding="UTF-8" standalone="no"?>
<!DOCTYPE svg PUBLIC "-//W3C//DTD SVG 1.1//EN"
 "http://www.w3.org/Graphics/SVG/1.1/DTD/svg11.dtd">
<!-- Generated by graphviz version 2.38.0 (20140413.2041)
 -->
<!-- Title: Core/ProgressBar.hpp Pages: 1 -->
<svg width="867pt" height="84pt"
 viewBox="0.00 0.00 866.50 84.00" xmlns="http://www.w3.org/2000/svg" xmlns:xlink="http://www.w3.org/1999/xlink">
<g id="graph0" class="graph" transform="scale(1 1) rotate(0) translate(4 80)">
<title>Core/ProgressBar.hpp</title>
<polygon fill="white" stroke="none" points="-4,4 -4,-80 862.5,-80 862.5,4 -4,4"/>
<!-- Node1 -->
<g id="node1" class="node"><title>Node1</title>
<polygon fill="#bfbfbf" stroke="black" points="336,-56.5 336,-75.5 449,-75.5 449,-56.5 336,-56.5"/>
<text text-anchor="middle" x="392.5" y="-63.5" font-family="Helvetica,sans-Serif" font-size="10.00">Core/ProgressBar.hpp</text>
</g>
<!-- Node2 -->
<g id="node2" class="node"><title>Node2</title>
<g id="a_node2"><a xlink:href="ProgressBar_8cpp.html" target="_top" xlink:title="Core/ProgressBar.cpp">
<polygon fill="white" stroke="black" points="0,-0.5 0,-19.5 113,-19.5 113,-0.5 0,-0.5"/>
<text text-anchor="middle" x="56.5" y="-7.5" font-family="Helvetica,sans-Serif" font-size="10.00">Core/ProgressBar.cpp</text>
</a>
</g>
</g>
<!-- Node1&#45;&gt;Node2 -->
<g id="edge1" class="edge"><title>Node1&#45;&gt;Node2</title>
<path fill="none" stroke="midnightblue" d="M329.368,-54.8537C265.884,-44.6509 169.108,-29.0977 109.491,-19.5164"/>
<polygon fill="midnightblue" stroke="midnightblue" points="328.831,-58.3123 339.26,-56.4435 329.942,-51.401 328.831,-58.3123"/>
</g>
<!-- Node3 -->
<g id="node3" class="node"><title>Node3</title>
<g id="a_node3"><a xlink:href="Generate_8cpp.html" target="_top" xlink:title="Data/Generate.cpp">
<polygon fill="white" stroke="black" points="131,-0.5 131,-19.5 230,-19.5 230,-0.5 131,-0.5"/>
<text text-anchor="middle" x="180.5" y="-7.5" font-family="Helvetica,sans-Serif" font-size="10.00">Data/Generate.cpp</text>
</a>
</g>
</g>
<!-- Node1&#45;&gt;Node3 -->
<g id="edge2" class="edge"><title>Node1&#45;&gt;Node3</title>
<path fill="none" stroke="midnightblue" d="M349.154,-53.959C309.113,-43.7598 250.467,-28.8217 213.935,-19.5164"/>
<polygon fill="midnightblue" stroke="midnightblue" points="348.353,-57.3668 358.908,-56.4435 350.081,-50.5834 348.353,-57.3668"/>
</g>
<!-- Node4 -->
<g id="node4" class="node"><title>Node4</title>
<g id="a_node4"><a xlink:href="SimFit_8cpp.html" target="_top" xlink:title="Examples/SimFit/SimFit.cpp">
<polygon fill="white" stroke="black" points="248.5,-0.5 248.5,-19.5 390.5,-19.5 390.5,-0.5 248.5,-0.5"/>
<text text-anchor="middle" x="319.5" y="-7.5" font-family="Helvetica,sans-Serif" font-size="10.00">Examples/SimFit/SimFit.cpp</text>
</a>
</g>
</g>
<!-- Node1&#45;&gt;Node4 -->
<g id="edge3" class="edge"><title>Node1&#45;&gt;Node4</title>
<path fill="none" stroke="midnightblue" d="M372.358,-50.1008C359.221,-40.3824 342.518,-28.0269 331.442,-19.8339"/>
<polygon fill="midnightblue" stroke="midnightblue" points="370.65,-53.1907 380.771,-56.324 374.813,-47.5631 370.65,-53.1907"/>
</g>
<!-- Node5 -->
<g id="node5" class="node"><title>Node5</title>
<g id="a_node5"><a xlink:href="FitFractions_8cpp.html" target="_top" xlink:title="Tools/FitFractions.cpp">
<polygon fill="white" stroke="black" points="408.5,-0.5 408.5,-19.5 522.5,-19.5 522.5,-0.5 408.5,-0.5"/>
<text text-anchor="middle" x="465.5" y="-7.5" font-family="Helvetica,sans-Serif" font-size="10.00">Tools/FitFractions.cpp</text>
</a>
</g>
</g>
<!-- Node1&#45;&gt;Node5 -->
<g id="edge4" class="edge"><title>Node1&#45;&gt;Node5</title>
<path fill="none" stroke="midnightblue" d="M412.642,-50.1008C425.779,-40.3824 442.482,-28.0269 453.558,-19.8339"/>
<polygon fill="midnightblue" stroke="midnightblue" points="410.187,-47.5631 404.229,-56.324 414.35,-53.1907 410.187,-47.5631"/>
</g>
<!-- Node6 -->
<g id="node6" class="node"><title>Node6</title>
<g id="a_node6"><a xlink:href="DalitzPlot_8cpp.html" target="_top" xlink:title="Tools/Plotting/DalitzPlot.cpp">
<polygon fill="white" stroke="black" points="541,-0.5 541,-19.5 682,-19.5 682,-0.5 541,-0.5"/>
<text text-anchor="middle" x="611.5" y="-7.5" font-family="Helvetica,sans-Serif" font-size="10.00">Tools/Plotting/DalitzPlot.cpp</text>
</a>
</g>
</g>
<!-- Node1&#45;&gt;Node6 -->
<g id="edge5" class="edge"><title>Node1&#45;&gt;Node6</title>
<path fill="none" stroke="midnightblue" d="M437.015,-54.0237C478.384,-43.8232 539.143,-28.8414 576.961,-19.5164"/>
<polygon fill="midnightblue" stroke="midnightblue" points="436.072,-50.6512 427.201,-56.4435 437.748,-57.4476 436.072,-50.6512"/>
</g>
<!-- Node7 -->
<g id="node7" class="node"><title>Node7</title>
<g id="a_node7"><a xlink:href="RootPlotData_8cpp.html" target="_top" xlink:title="Tools/Plotting/RootPlotData.cpp">
<polygon fill="white" stroke="black" points="700.5,-0.5 700.5,-19.5 858.5,-19.5 858.5,-0.5 700.5,-0.5"/>
<text text-anchor="middle" x="779.5" y="-7.5" font-family="Helvetica,sans-Serif" font-size="10.00">Tools/Plotting/RootPlotData.cpp</text>
</a>
</g>
</g>
<!-- Node1&#45;&gt;Node7 -->
<g id="edge6" class="edge"><title>Node1&#45;&gt;Node7</title>
<path fill="none" stroke="midnightblue" d="M459.181,-55.6956C532.091,-45.5221 647.928,-29.3588 718.508,-19.5106"/>
<polygon fill="midnightblue" stroke="midnightblue" points="458.608,-52.2416 449.188,-57.0901 459.575,-59.1745 458.608,-52.2416"/>
</g>
</g>
</svg>
