<?xml version="1.0" encoding="UTF-8" standalone="no"?>
<!DOCTYPE svg PUBLIC "-//W3C//DTD SVG 1.1//EN"
 "http://www.w3.org/Graphics/SVG/1.1/DTD/svg11.dtd">
<!-- Generated by graphviz version 2.38.0 (20140413.2041)
 -->
<!-- Title: Core/ProgressBar.cpp Pages: 1 -->
<svg width="258pt" height="140pt"
 viewBox="0.00 0.00 257.50 140.00" xmlns="http://www.w3.org/2000/svg" xmlns:xlink="http://www.w3.org/1999/xlink">
<g id="graph0" class="graph" transform="scale(1 1) rotate(0) translate(4 136)">
<title>Core/ProgressBar.cpp</title>
<polygon fill="white" stroke="none" points="-4,4 -4,-136 253.5,-136 253.5,4 -4,4"/>
<!-- Node1 -->
<g id="node1" class="node"><title>Node1</title>
<polygon fill="#bfbfbf" stroke="black" points="98,-112.5 98,-131.5 211,-131.5 211,-112.5 98,-112.5"/>
<text text-anchor="middle" x="154.5" y="-119.5" font-family="Helvetica,sans-Serif" font-size="10.00">Core/ProgressBar.cpp</text>
</g>
<!-- Node2 -->
<g id="node2" class="node"><title>Node2</title>
<g id="a_node2"><a xlink:href="ProgressBar_8hpp.html" target="_top" xlink:title="Core/ProgressBar.hpp">
<polygon fill="white" stroke="black" points="0,-56.5 0,-75.5 113,-75.5 113,-56.5 0,-56.5"/>
<text text-anchor="middle" x="56.5" y="-63.5" font-family="Helvetica,sans-Serif" font-size="10.00">Core/ProgressBar.hpp</text>
</a>
</g>
</g>
<!-- Node1&#45;&gt;Node2 -->
<g id="edge1" class="edge"><title>Node1&#45;&gt;Node2</title>
<path fill="none" stroke="midnightblue" d="M138.755,-112.324C123.181,-103.743 99.1227,-90.486 81.0407,-80.5224"/>
<polygon fill="midnightblue" stroke="midnightblue" points="82.6539,-77.4152 72.2063,-75.6545 79.2756,-83.546 82.6539,-77.4152"/>
</g>
<!-- Node4 -->
<g id="node4" class="node"><title>Node4</title>
<polygon fill="white" stroke="#bfbfbf" points="131.5,-56.5 131.5,-75.5 177.5,-75.5 177.5,-56.5 131.5,-56.5"/>
<text text-anchor="middle" x="154.5" y="-63.5" font-family="Helvetica,sans-Serif" font-size="10.00">chrono</text>
</g>
<!-- Node1&#45;&gt;Node4 -->
<g id="edge3" class="edge"><title>Node1&#45;&gt;Node4</title>
<path fill="none" stroke="midnightblue" d="M154.5,-112.083C154.5,-105.006 154.5,-94.8611 154.5,-85.9865"/>
<polygon fill="midnightblue" stroke="midnightblue" points="158,-85.751 154.5,-75.7511 151,-85.7511 158,-85.751"/>
</g>
<!-- Node5 -->
<g id="node5" class="node"><title>Node5</title>
<polygon fill="white" stroke="#bfbfbf" points="195.5,-56.5 195.5,-75.5 249.5,-75.5 249.5,-56.5 195.5,-56.5"/>
<text text-anchor="middle" x="222.5" y="-63.5" font-family="Helvetica,sans-Serif" font-size="10.00">iostream</text>
</g>
<!-- Node1&#45;&gt;Node5 -->
<g id="edge4" class="edge"><title>Node1&#45;&gt;Node5</title>
<path fill="none" stroke="midnightblue" d="M165.425,-112.324C175.675,-104.185 191.221,-91.8395 203.501,-82.0874"/>
<polygon fill="midnightblue" stroke="midnightblue" points="205.721,-84.7937 211.376,-75.8339 201.368,-79.3119 205.721,-84.7937"/>
</g>
<!-- Node3 -->
<g id="node3" class="node"><title>Node3</title>
<polygon fill="white" stroke="#bfbfbf" points="36,-0.5 36,-19.5 77,-19.5 77,-0.5 36,-0.5"/>
<text text-anchor="middle" x="56.5" y="-7.5" font-family="Helvetica,sans-Serif" font-size="10.00">ctime</text>
</g>
<!-- Node2&#45;&gt;Node3 -->
<g id="edge2" class="edge"><title>Node2&#45;&gt;Node3</title>
<path fill="none" stroke="midnightblue" d="M56.5,-56.083C56.5,-49.0059 56.5,-38.8611 56.5,-29.9865"/>
<polygon fill="midnightblue" stroke="midnightblue" points="60.0001,-29.751 56.5,-19.7511 53.0001,-29.7511 60.0001,-29.751"/>
</g>
</g>
</svg>
