<?xml version="1.0" encoding="UTF-8" standalone="no"?>
<!DOCTYPE svg PUBLIC "-//W3C//DTD SVG 1.1//EN"
 "http://www.w3.org/Graphics/SVG/1.1/DTD/svg11.dtd">
<!-- Generated by graphviz version 2.38.0 (20140413.2041)
 -->
<!-- Title: Core/Properties.hpp Pages: 1 -->
<!--zoomable 285 -->
<svg id="main" version="1.1" xmlns="http://www.w3.org/2000/svg" xmlns:xlink="http://www.w3.org/1999/xlink" xml:space="preserve" onload="init(evt)">
<style type="text/css"><![CDATA[
.edge:hover path { stroke: red; }
.edge:hover polygon { stroke: red; fill: red; }
]]></style>
<script type="text/javascript"><![CDATA[
var edges = document.getElementsByTagName('g');
if (edges && edges.length) {
  for (var i=0;i<edges.length;i++) {
    if (edges[i].id.substr(0,4)=='edge') {
      edges[i].setAttribute('class','edge');
    }
  }
}
]]></script>
        <defs>
                <circle id="rim" cx="0" cy="0" r="7"/>
                <circle id="rim2" cx="0" cy="0" r="3.5"/>
                <g id="zoomPlus">
                        <use xlink:href="#rim" fill="#404040">
                                <set attributeName="fill" to="#808080" begin="zoomplus.mouseover" end="zoomplus.mouseout"/>
                        </use>
                        <path d="M-4,0h8M0,-4v8" fill="none" stroke="white" stroke-width="1.5" pointer-events="none"/>
                </g>
                <g id="zoomMin">
                        <use xlink:href="#rim" fill="#404040">
                                <set attributeName="fill" to="#808080" begin="zoomminus.mouseover" end="zoomminus.mouseout"/>
                        </use>
                        <path d="M-4,0h8" fill="none" stroke="white" stroke-width="1.5" pointer-events="none"/>
                </g>
                <g id="dirArrow">
                        <path fill="none" stroke="white" stroke-width="1.5" d="M0,-3.0v7 M-2.5,-0.5L0,-3.0L2.5,-0.5"/>
                </g>
               <g id="resetDef">
                       <use xlink:href="#rim2" fill="#404040">
                               <set attributeName="fill" to="#808080" begin="reset.mouseover" end="reset.mouseout"/>
                       </use>
               </g>
        </defs>

<script type="text/javascript">
var viewWidth = 2076;
var viewHeight = 285;
var sectionId = 'dynsection-1';
</script>
<script xlink:href="svgpan.js"/>
<svg id="graph" class="graph">
<g id="viewport">
<title>Core/Properties.hpp</title>
<polygon fill="white" stroke="none" points="-4,4 -4,-281 2072,-281 2072,4 -4,4"/>
<!-- Node1 -->
<g id="node1" class="node"><title>Node1</title>
<polygon fill="#bfbfbf" stroke="black" points="926,-257.5 926,-276.5 1030,-276.5 1030,-257.5 926,-257.5"/>
<text text-anchor="middle" x="978" y="-264.5" font-family="Helvetica,sans-Serif" font-size="10.00">Core/Properties.hpp</text>
</g>
<!-- Node2 -->
<g id="node2" class="node"><title>Node2</title>
<g id="a_node2"><a xlink:href="Properties_8cpp.html" target="_top" xlink:title="Core/Properties.cpp">
<polygon fill="white" stroke="black" points="0,-196 0,-215 104,-215 104,-196 0,-196"/>
<text text-anchor="middle" x="52" y="-203" font-family="Helvetica,sans-Serif" font-size="10.00">Core/Properties.cpp</text>
</a>
</g>
</g>
<!-- Node1&#45;&gt;Node2 -->
<g id="edge1" class="edge"><title>Node1&#45;&gt;Node2</title>
<path fill="none" stroke="midnightblue" d="M915.597,-266.229C773.402,-265.99 414.682,-261.077 118,-221 107.42,-219.571 96.0225,-217.326 85.725,-215.025"/>
<polygon fill="midnightblue" stroke="midnightblue" points="915.857,-269.729 925.861,-266.239 915.864,-262.729 915.857,-269.729"/>
</g>
<!-- Node3 -->
<g id="node3" class="node"><title>Node3</title>
<g id="a_node3"><a xlink:href="DataCorrection_8hpp.html" target="_top" xlink:title="Data/DataCorrection.hpp">
<polygon fill="white" stroke="black" points="160.5,-196 160.5,-215 285.5,-215 285.5,-196 160.5,-196"/>
<text text-anchor="middle" x="223" y="-203" font-family="Helvetica,sans-Serif" font-size="10.00">Data/DataCorrection.hpp</text>
</a>
</g>
</g>
<!-- Node1&#45;&gt;Node3 -->
<g id="edge2" class="edge"><title>Node1&#45;&gt;Node3</title>
<path fill="none" stroke="midnightblue" d="M915.837,-264.365C796.186,-260.668 525.724,-249.639 300,-221 287.99,-219.476 275.024,-217.259 263.218,-215.016"/>
<polygon fill="midnightblue" stroke="midnightblue" points="915.809,-267.866 925.91,-264.67 916.02,-260.869 915.809,-267.866"/>
</g>
<!-- Node4 -->
<g id="node4" class="node"><title>Node4</title>
<g id="a_node4"><a xlink:href="DataCorrection_8cpp.html" target="_top" xlink:title="Data/DataCorrection.cpp">
<polygon fill="white" stroke="black" points="69.5,-129 69.5,-148 194.5,-148 194.5,-129 69.5,-129"/>
<text text-anchor="middle" x="132" y="-136" font-family="Helvetica,sans-Serif" font-size="10.00">Data/DataCorrection.cpp</text>
</a>
</g>
</g>
<!-- Node1&#45;&gt;Node4 -->
<g id="edge5" class="edge"><title>Node1&#45;&gt;Node4</title>
<path fill="none" stroke="midnightblue" d="M915.673,-264.639C728.143,-260.278 180.19,-245.49 151,-221 129.296,-202.791 129.633,-165.035 131.025,-148.075"/>
<polygon fill="midnightblue" stroke="midnightblue" points="915.839,-268.144 925.917,-264.875 916,-261.145 915.839,-268.144"/>
</g>
<!-- Node6 -->
<g id="node6" class="node"><title>Node6</title>
<g id="a_node6"><a xlink:href="EvtGenGenerator_8cpp.html" target="_top" xlink:title="Data/EvtGen/EvtGenGenerator.cpp">
<polygon fill="white" stroke="black" points="1275.5,-129 1275.5,-148 1446.5,-148 1446.5,-129 1275.5,-129"/>
<text text-anchor="middle" x="1361" y="-136" font-family="Helvetica,sans-Serif" font-size="10.00">Data/EvtGen/EvtGenGenerator.cpp</text>
</a>
</g>
</g>
<!-- Node1&#45;&gt;Node6 -->
<g id="edge6" class="edge"><title>Node1&#45;&gt;Node6</title>
<path fill="none" stroke="midnightblue" d="M1013.7,-254.21C1090.21,-228.938 1268.48,-170.057 1335.19,-148.024"/>
<polygon fill="midnightblue" stroke="midnightblue" points="1012.42,-250.945 1004.02,-257.405 1014.62,-257.592 1012.42,-250.945"/>
</g>
<!-- Node7 -->
<g id="node7" class="node"><title>Node7</title>
<g id="a_node7"><a xlink:href="ParticleStateTransitionKinematicsInfo_8hpp.html" target="_top" xlink:title="Physics/ParticleStateTransition\lKinematicsInfo.hpp">
<polygon fill="white" stroke="black" points="901,-190.5 901,-220.5 1055,-220.5 1055,-190.5 901,-190.5"/>
<text text-anchor="start" x="909" y="-208.5" font-family="Helvetica,sans-Serif" font-size="10.00">Physics/ParticleStateTransition</text>
<text text-anchor="middle" x="978" y="-197.5" font-family="Helvetica,sans-Serif" font-size="10.00">KinematicsInfo.hpp</text>
</a>
</g>
</g>
<!-- Node1&#45;&gt;Node7 -->
<g id="edge7" class="edge"><title>Node1&#45;&gt;Node7</title>
<path fill="none" stroke="midnightblue" d="M978,-247.235C978,-238.586 978,-228.497 978,-220.523"/>
<polygon fill="midnightblue" stroke="midnightblue" points="974.5,-247.475 978,-257.475 981.5,-247.475 974.5,-247.475"/>
</g>
<!-- Node8 -->
<g id="node8" class="node"><title>Node8</title>
<g id="a_node8"><a xlink:href="RootGenerator_8cpp.html" target="_top" xlink:title="Data/Root/RootGenerator.cpp">
<polygon fill="white" stroke="black" points="365.5,-129 365.5,-148 512.5,-148 512.5,-129 365.5,-129"/>
<text text-anchor="middle" x="439" y="-136" font-family="Helvetica,sans-Serif" font-size="10.00">Data/Root/RootGenerator.cpp</text>
</a>
</g>
</g>
<!-- Node1&#45;&gt;Node8 -->
<g id="edge32" class="edge"><title>Node1&#45;&gt;Node8</title>
<path fill="none" stroke="midnightblue" d="M915.919,-258.044C860.694,-250.41 777.931,-237.599 707,-221 615.847,-199.668 510.243,-164.335 463.462,-148.118"/>
<polygon fill="midnightblue" stroke="midnightblue" points="915.519,-261.522 925.901,-259.409 916.468,-254.587 915.519,-261.522"/>
</g>
<!-- Node10 -->
<g id="node10" class="node"><title>Node10</title>
<g id="a_node10"><a xlink:href="DalitzFitApp_8cpp.html" target="_top" xlink:title="Simple Dalitz plot analysis with ComPWA. ">
<polygon fill="white" stroke="black" points="402,-56.5 402,-86.5 502,-86.5 502,-56.5 402,-56.5"/>
<text text-anchor="start" x="410" y="-74.5" font-family="Helvetica,sans-Serif" font-size="10.00">Examples/DalitzFit</text>
<text text-anchor="middle" x="452" y="-63.5" font-family="Helvetica,sans-Serif" font-size="10.00">/DalitzFitApp.cpp</text>
</a>
</g>
</g>
<!-- Node1&#45;&gt;Node10 -->
<g id="edge33" class="edge"><title>Node1&#45;&gt;Node10</title>
<path fill="none" stroke="midnightblue" d="M915.564,-265.861C765.911,-264.92 396.146,-258.757 356,-221 324.139,-191.034 323.72,-160.029 347,-123 359.22,-103.563 381.244,-91.4349 401.976,-83.955"/>
<polygon fill="midnightblue" stroke="midnightblue" points="915.931,-269.363 925.951,-265.92 915.971,-262.364 915.931,-269.363"/>
</g>
<!-- Node11 -->
<g id="node11" class="node"><title>Node11</title>
<g id="a_node11"><a xlink:href="SimFit_8cpp.html" target="_top" xlink:title="Examples/SimFit/SimFit.cpp">
<polygon fill="white" stroke="black" points="643,-62 643,-81 785,-81 785,-62 643,-62"/>
<text text-anchor="middle" x="714" y="-69" font-family="Helvetica,sans-Serif" font-size="10.00">Examples/SimFit/SimFit.cpp</text>
</a>
</g>
</g>
<!-- Node1&#45;&gt;Node11 -->
<g id="edge35" class="edge"><title>Node1&#45;&gt;Node11</title>
<path fill="none" stroke="midnightblue" d="M927.281,-254.892C873.446,-240.539 789.459,-210.405 740,-154 721.2,-132.56 715.975,-97.4361 714.537,-81.2143"/>
<polygon fill="midnightblue" stroke="midnightblue" points="926.41,-258.282 936.968,-257.391 928.159,-251.504 926.41,-258.282"/>
</g>
<!-- Node12 -->
<g id="node12" class="node"><title>Node12</title>
<g id="a_node12"><a xlink:href="BuilderXML_8cpp.html" target="_top" xlink:title="Physics/BuilderXML.cpp">
<polygon fill="white" stroke="black" points="1665,-0.5 1665,-19.5 1789,-19.5 1789,-0.5 1665,-0.5"/>
<text text-anchor="middle" x="1727" y="-7.5" font-family="Helvetica,sans-Serif" font-size="10.00">Physics/BuilderXML.cpp</text>
</a>
</g>
</g>
<!-- Node1&#45;&gt;Node12 -->
<g id="edge36" class="edge"><title>Node1&#45;&gt;Node12</title>
<path fill="none" stroke="midnightblue" d="M1040.69,-266.767C1177.56,-267.59 1498.75,-264.644 1597,-221 1683.6,-182.53 1717.56,-53.9773 1725.23,-19.5454"/>
<polygon fill="midnightblue" stroke="midnightblue" points="1040.4,-263.265 1030.37,-266.696 1040.35,-270.265 1040.4,-263.265"/>
</g>
<!-- Node14 -->
<g id="node14" class="node"><title>Node14</title>
<g id="a_node14"><a xlink:href="EvtGenFit_8cpp.html" target="_top" xlink:title="Examples/EvtGen/EvtGenFit.cpp">
<polygon fill="white" stroke="black" points="1084,-62 1084,-81 1246,-81 1246,-62 1084,-62"/>
<text text-anchor="middle" x="1165" y="-69" font-family="Helvetica,sans-Serif" font-size="10.00">Examples/EvtGen/EvtGenFit.cpp</text>
</a>
</g>
</g>
<!-- Node1&#45;&gt;Node14 -->
<g id="edge34" class="edge"><title>Node1&#45;&gt;Node14</title>
<path fill="none" stroke="midnightblue" d="M1040.32,-265.15C1188.88,-261.664 1557.07,-243.94 1632,-154 1640.82,-143.415 1641.2,-133.253 1632,-123 1619.28,-108.834 1376.6,-88.4619 1246.24,-78.4769"/>
<polygon fill="midnightblue" stroke="midnightblue" points="1039.93,-261.657 1030.01,-265.377 1040.09,-268.656 1039.93,-261.657"/>
</g>
<!-- Node15 -->
<g id="node15" class="node"><title>Node15</title>
<g id="a_node15"><a xlink:href="HelicityKinematics_8cpp.html" target="_top" xlink:title="Physics/HelicityFormalism\l/HelicityKinematics.cpp">
<polygon fill="white" stroke="black" points="1415,-56.5 1415,-86.5 1549,-86.5 1549,-56.5 1415,-56.5"/>
<text text-anchor="start" x="1423" y="-74.5" font-family="Helvetica,sans-Serif" font-size="10.00">Physics/HelicityFormalism</text>
<text text-anchor="middle" x="1482" y="-63.5" font-family="Helvetica,sans-Serif" font-size="10.00">/HelicityKinematics.cpp</text>
</a>
</g>
</g>
<!-- Node1&#45;&gt;Node15 -->
<g id="edge43" class="edge"><title>Node1&#45;&gt;Node15</title>
<path fill="none" stroke="midnightblue" d="M1040.67,-264.796C1167.88,-261.736 1452.12,-251.6 1544,-221 1596.88,-203.389 1623.11,-202.815 1650,-154 1674.52,-109.493 1606.03,-88.9341 1549.23,-79.6825"/>
<polygon fill="midnightblue" stroke="midnightblue" points="1040.23,-261.305 1030.32,-265.037 1040.4,-268.303 1040.23,-261.305"/>
</g>
<!-- Node18 -->
<g id="node18" class="node"><title>Node18</title>
<g id="a_node18"><a xlink:href="RootPlotData_8cpp.html" target="_top" xlink:title="Tools/Plotting/RootPlotData.cpp">
<polygon fill="white" stroke="black" points="1465,-129 1465,-148 1623,-148 1623,-129 1465,-129"/>
<text text-anchor="middle" x="1544" y="-136" font-family="Helvetica,sans-Serif" font-size="10.00">Tools/Plotting/RootPlotData.cpp</text>
</a>
</g>
</g>
<!-- Node1&#45;&gt;Node18 -->
<g id="edge44" class="edge"><title>Node1&#45;&gt;Node18</title>
<path fill="none" stroke="midnightblue" d="M1026.33,-255.198C1136.81,-230.506 1405.97,-170.349 1505.86,-148.024"/>
<polygon fill="midnightblue" stroke="midnightblue" points="1025.45,-251.808 1016.46,-257.405 1026.98,-258.639 1025.45,-251.808"/>
</g>
<!-- Node19 -->
<g id="node19" class="node"><title>Node19</title>
<g id="a_node19"><a xlink:href="RootDataIO_8cpp.html" target="_top" xlink:title="Data/Root/RootDataIO.cpp">
<polygon fill="white" stroke="black" points="1932,-196 1932,-215 2068,-215 2068,-196 1932,-196"/>
<text text-anchor="middle" x="2000" y="-203" font-family="Helvetica,sans-Serif" font-size="10.00">Data/Root/RootDataIO.cpp</text>
</a>
</g>
</g>
<!-- Node1&#45;&gt;Node19 -->
<g id="edge26" class="edge"><title>Node1&#45;&gt;Node19</title>
<path fill="none" stroke="midnightblue" d="M1040.18,-265.957C1191.57,-265.217 1591.22,-259.449 1922,-221 1934.45,-219.553 1947.91,-217.302 1960.08,-215.002"/>
<polygon fill="midnightblue" stroke="midnightblue" points="1040.12,-262.457 1030.14,-266 1040.15,-269.457 1040.12,-262.457"/>
</g>
<!-- Node20 -->
<g id="node20" class="node"><title>Node20</title>
<g id="a_node20"><a xlink:href="RootGenerator_8hpp.html" target="_top" xlink:title="Data/Root/RootGenerator.hpp">
<polygon fill="white" stroke="black" points="365.5,-196 365.5,-215 512.5,-215 512.5,-196 365.5,-196"/>
<text text-anchor="middle" x="439" y="-203" font-family="Helvetica,sans-Serif" font-size="10.00">Data/Root/RootGenerator.hpp</text>
</a>
</g>
</g>
<!-- Node1&#45;&gt;Node20 -->
<g id="edge27" class="edge"><title>Node1&#45;&gt;Node20</title>
<path fill="none" stroke="midnightblue" d="M915.881,-259.143C815.96,-248.112 619.934,-226.473 512.955,-214.664"/>
<polygon fill="midnightblue" stroke="midnightblue" points="915.505,-262.622 925.829,-260.241 916.273,-255.665 915.505,-262.622"/>
</g>
<!-- Node21 -->
<g id="node21" class="node"><title>Node21</title>
<g id="a_node21"><a xlink:href="Coupling_8hpp.html" target="_top" xlink:title="Physics/Dynamics/Coupling.hpp">
<polygon fill="white" stroke="black" points="1754.5,-196 1754.5,-215 1913.5,-215 1913.5,-196 1754.5,-196"/>
<text text-anchor="middle" x="1834" y="-203" font-family="Helvetica,sans-Serif" font-size="10.00">Physics/Dynamics/Coupling.hpp</text>
</a>
</g>
</g>
<!-- Node1&#45;&gt;Node21 -->
<g id="edge37" class="edge"><title>Node1&#45;&gt;Node21</title>
<path fill="none" stroke="midnightblue" d="M1040.61,-264.337C1171.16,-260.424 1481.83,-248.782 1741,-221 1755.3,-219.467 1770.76,-217.275 1784.89,-215.058"/>
<polygon fill="midnightblue" stroke="midnightblue" points="1040.3,-260.845 1030.41,-264.638 1040.51,-267.842 1040.3,-260.845"/>
</g>
<!-- Node3&#45;&gt;Node4 -->
<g id="edge3" class="edge"><title>Node3&#45;&gt;Node4</title>
<path fill="none" stroke="midnightblue" d="M202.587,-189.92C184.597,-177.069 158.995,-158.782 144.078,-148.127"/>
<polygon fill="midnightblue" stroke="midnightblue" points="200.556,-192.769 210.727,-195.734 204.624,-187.073 200.556,-192.769"/>
</g>
<!-- Node5 -->
<g id="node5" class="node"><title>Node5</title>
<g id="a_node5"><a xlink:href="DalitzFitD03K_8cpp.html" target="_top" xlink:title="Executable for Dalitz plot analysis of the decay D0 &#45;&gt; K_S K+ K&#45;. ">
<polygon fill="white" stroke="black" points="214.5,-56.5 214.5,-86.5 357.5,-86.5 357.5,-56.5 214.5,-56.5"/>
<text text-anchor="start" x="222.5" y="-74.5" font-family="Helvetica,sans-Serif" font-size="10.00">Examples/DalitzAnalysis</text>
<text text-anchor="middle" x="286" y="-63.5" font-family="Helvetica,sans-Serif" font-size="10.00">_D0KsKK/DalitzFitD03K.cpp</text>
</a>
</g>
</g>
<!-- Node3&#45;&gt;Node5 -->
<g id="edge4" class="edge"><title>Node3&#45;&gt;Node5</title>
<path fill="none" stroke="midnightblue" d="M226.46,-185.703C230.066,-168.687 236.658,-143.26 247,-123 253.85,-109.582 264.428,-96.168 272.841,-86.5409"/>
<polygon fill="midnightblue" stroke="midnightblue" points="223.023,-185.042 224.512,-195.532 229.889,-186.403 223.023,-185.042"/>
</g>
<!-- Node7&#45;&gt;Node6 -->
<g id="edge8" class="edge"><title>Node7&#45;&gt;Node6</title>
<path fill="none" stroke="midnightblue" d="M1065.08,-189.722C1141.03,-176.832 1248.54,-158.585 1310.9,-148.003"/>
<polygon fill="midnightblue" stroke="midnightblue" points="1064.32,-186.301 1055.05,-191.424 1065.49,-193.202 1064.32,-186.301"/>
</g>
<!-- Node7&#45;&gt;Node8 -->
<g id="edge9" class="edge"><title>Node7&#45;&gt;Node8</title>
<path fill="none" stroke="midnightblue" d="M890.667,-196.469C798.73,-187.631 649.877,-172.233 522,-154 509.98,-152.286 497.03,-150.16 485.016,-148.068"/>
<polygon fill="midnightblue" stroke="midnightblue" points="890.474,-199.966 900.762,-197.435 891.141,-192.998 890.474,-199.966"/>
</g>
<!-- Node9 -->
<g id="node9" class="node"><title>Node9</title>
<g id="a_node9"><a xlink:href="BuilderXML_8hpp.html" target="_top" xlink:title="Physics/BuilderXML.hpp">
<polygon fill="white" stroke="red" points="531,-129 531,-148 655,-148 655,-129 531,-129"/>
<text text-anchor="middle" x="593" y="-136" font-family="Helvetica,sans-Serif" font-size="10.00">Physics/BuilderXML.hpp</text>
</a>
</g>
</g>
<!-- Node7&#45;&gt;Node9 -->
<g id="edge10" class="edge"><title>Node7&#45;&gt;Node9</title>
<path fill="none" stroke="midnightblue" d="M890.468,-189.722C814.122,-176.832 706.045,-158.585 643.365,-148.003"/>
<polygon fill="midnightblue" stroke="midnightblue" points="890.109,-193.211 900.553,-191.424 891.275,-186.308 890.109,-193.211"/>
</g>
<!-- Node13 -->
<g id="node13" class="node"><title>Node13</title>
<g id="a_node13"><a xlink:href="HelicityKinematics_8hpp.html" target="_top" xlink:title="Physics/HelicityFormalism\l/HelicityKinematics.hpp">
<polygon fill="white" stroke="red" points="749,-123.5 749,-153.5 883,-153.5 883,-123.5 749,-123.5"/>
<text text-anchor="start" x="757" y="-141.5" font-family="Helvetica,sans-Serif" font-size="10.00">Physics/HelicityFormalism</text>
<text text-anchor="middle" x="816" y="-130.5" font-family="Helvetica,sans-Serif" font-size="10.00">/HelicityKinematics.hpp</text>
</a>
</g>
</g>
<!-- Node7&#45;&gt;Node13 -->
<g id="edge15" class="edge"><title>Node7&#45;&gt;Node13</title>
<path fill="none" stroke="midnightblue" d="M933.249,-186.544C907.326,-176.143 875.162,-163.238 851.083,-153.577"/>
<polygon fill="midnightblue" stroke="midnightblue" points="932.264,-189.92 942.848,-190.396 934.871,-183.424 932.264,-189.92"/>
</g>
<!-- Node16 -->
<g id="node16" class="node"><title>Node16</title>
<g id="a_node16"><a xlink:href="DalitzKinematics_8hpp.html" target="_top" xlink:title="Contains DalitzKinematics class. ">
<polygon fill="white" stroke="red" points="1073,-129 1073,-148 1257,-148 1257,-129 1073,-129"/>
<text text-anchor="middle" x="1165" y="-136" font-family="Helvetica,sans-Serif" font-size="10.00">Physics/EvtGen/DalitzKinematics.hpp</text>
</a>
</g>
</g>
<!-- Node7&#45;&gt;Node16 -->
<g id="edge22" class="edge"><title>Node7&#45;&gt;Node16</title>
<path fill="none" stroke="midnightblue" d="M1028.04,-187.108C1064.42,-174.462 1112.09,-157.892 1140.53,-148.007"/>
<polygon fill="midnightblue" stroke="midnightblue" points="1026.87,-183.807 1018.58,-190.396 1029.17,-190.419 1026.87,-183.807"/>
</g>
<!-- Node17 -->
<g id="node17" class="node"><title>Node17</title>
<g id="a_node17"><a xlink:href="ParticleStateTransitionKinematicsInfo_8cpp.html" target="_top" xlink:title="Physics/ParticleStateTransition\lKinematicsInfo.cpp">
<polygon fill="white" stroke="black" points="901,-123.5 901,-153.5 1055,-153.5 1055,-123.5 901,-123.5"/>
<text text-anchor="start" x="909" y="-141.5" font-family="Helvetica,sans-Serif" font-size="10.00">Physics/ParticleStateTransition</text>
<text text-anchor="middle" x="978" y="-130.5" font-family="Helvetica,sans-Serif" font-size="10.00">KinematicsInfo.cpp</text>
</a>
</g>
</g>
<!-- Node7&#45;&gt;Node17 -->
<g id="edge24" class="edge"><title>Node7&#45;&gt;Node17</title>
<path fill="none" stroke="midnightblue" d="M978,-180.108C978,-171.154 978,-161.323 978,-153.577"/>
<polygon fill="midnightblue" stroke="midnightblue" points="974.5,-180.396 978,-190.396 981.5,-180.396 974.5,-180.396"/>
</g>
<!-- Node7&#45;&gt;Node18 -->
<g id="edge25" class="edge"><title>Node7&#45;&gt;Node18</title>
<path fill="none" stroke="midnightblue" d="M1065.63,-196.707C1161.44,-187.84 1319.43,-172.206 1455,-154 1467.88,-152.271 1481.76,-150.138 1494.64,-148.046"/>
<polygon fill="midnightblue" stroke="midnightblue" points="1065.04,-193.246 1055.41,-197.649 1065.69,-200.216 1065.04,-193.246"/>
</g>
<!-- Node9&#45;&gt;Node5 -->
<g id="edge11" class="edge"><title>Node9&#45;&gt;Node5</title>
<path fill="none" stroke="midnightblue" d="M542.573,-126.823C490.66,-115.832 409.511,-98.6506 352.402,-86.5592"/>
<polygon fill="midnightblue" stroke="midnightblue" points="542.041,-130.288 552.549,-128.936 543.491,-123.44 542.041,-130.288"/>
</g>
<!-- Node9&#45;&gt;Node10 -->
<g id="edge12" class="edge"><title>Node9&#45;&gt;Node10</title>
<path fill="none" stroke="midnightblue" d="M565.062,-124.621C541.21,-113.625 506.971,-97.8413 482.43,-86.5281"/>
<polygon fill="midnightblue" stroke="midnightblue" points="563.73,-127.86 574.276,-128.869 566.66,-121.503 563.73,-127.86"/>
</g>
<!-- Node9&#45;&gt;Node11 -->
<g id="edge13" class="edge"><title>Node9&#45;&gt;Node11</title>
<path fill="none" stroke="midnightblue" d="M618.208,-123.959C642.196,-111.073 677.565,-92.0727 697.94,-81.1273"/>
<polygon fill="midnightblue" stroke="midnightblue" points="616.472,-120.918 609.319,-128.734 619.784,-127.085 616.472,-120.918"/>
</g>
<!-- Node9&#45;&gt;Node12 -->
<g id="edge14" class="edge"><title>Node9&#45;&gt;Node12</title>
<path fill="none" stroke="midnightblue" d="M596.568,-119.159C601.405,-99.7878 612.091,-70.1335 634,-56 677.489,-27.9454 1439.51,-15.0392 1664.78,-11.8258"/>
<polygon fill="midnightblue" stroke="midnightblue" points="593.147,-118.421 594.402,-128.941 599.982,-119.935 593.147,-118.421"/>
</g>
<!-- Node13&#45;&gt;Node5 -->
<g id="edge16" class="edge"><title>Node13&#45;&gt;Node5</title>
<path fill="none" stroke="midnightblue" d="M738.861,-128.663C654.035,-118.859 513.731,-102.386 393,-87 381.564,-85.5425 369.447,-83.9485 357.637,-82.3676"/>
<polygon fill="midnightblue" stroke="midnightblue" points="738.59,-132.155 748.925,-129.825 739.393,-125.201 738.59,-132.155"/>
</g>
<!-- Node13&#45;&gt;Node10 -->
<g id="edge17" class="edge"><title>Node13&#45;&gt;Node10</title>
<path fill="none" stroke="midnightblue" d="M738.959,-123.743C667.532,-110.988 563.337,-92.3817 502.123,-81.4505"/>
<polygon fill="midnightblue" stroke="midnightblue" points="738.353,-127.19 748.813,-125.502 739.584,-120.299 738.353,-127.19"/>
</g>
<!-- Node13&#45;&gt;Node11 -->
<g id="edge19" class="edge"><title>Node13&#45;&gt;Node11</title>
<path fill="none" stroke="midnightblue" d="M785.36,-117.975C766.019,-105.649 742.004,-90.3455 727.349,-81.007"/>
<polygon fill="midnightblue" stroke="midnightblue" points="783.553,-120.973 793.868,-123.396 787.315,-115.07 783.553,-120.973"/>
</g>
<!-- Node13&#45;&gt;Node12 -->
<g id="edge20" class="edge"><title>Node13&#45;&gt;Node12</title>
<path fill="none" stroke="midnightblue" d="M860.756,-119.853C911.742,-100.593 997.981,-70.5637 1075,-56 1288.78,-15.5762 1548.1,-10.4625 1664.8,-10.442"/>
<polygon fill="midnightblue" stroke="midnightblue" points="859.449,-116.605 851.349,-123.435 861.94,-123.147 859.449,-116.605"/>
</g>
<!-- Node13&#45;&gt;Node14 -->
<g id="edge18" class="edge"><title>Node13&#45;&gt;Node14</title>
<path fill="none" stroke="midnightblue" d="M892.969,-122.824C978.151,-106.839 1065.75,-90.7027 1118.13,-81.0881"/>
<polygon fill="midnightblue" stroke="midnightblue" points="892.315,-119.385 883.133,-124.671 893.607,-126.265 892.315,-119.385"/>
</g>
<!-- Node13&#45;&gt;Node15 -->
<g id="edge21" class="edge"><title>Node13&#45;&gt;Node15</title>
<path fill="none" stroke="midnightblue" d="M893.059,-122.976C1008.34,-108.009 1286.27,-86.8349 1414.89,-77.3669"/>
<polygon fill="midnightblue" stroke="midnightblue" points="892.521,-119.517 883.075,-124.314 893.451,-126.455 892.521,-119.517"/>
</g>
<!-- Node16&#45;&gt;Node14 -->
<g id="edge23" class="edge"><title>Node16&#45;&gt;Node14</title>
<path fill="none" stroke="midnightblue" d="M1165,-118.537C1165,-106.17 1165,-90.6198 1165,-81.1273"/>
<polygon fill="midnightblue" stroke="midnightblue" points="1161.5,-118.734 1165,-128.734 1168.5,-118.734 1161.5,-118.734"/>
</g>
<!-- Node20&#45;&gt;Node5 -->
<g id="edge29" class="edge"><title>Node20&#45;&gt;Node5</title>
<path fill="none" stroke="midnightblue" d="M408.558,-191.824C389.578,-182.989 365.358,-169.944 347,-154 324.049,-134.067 304.402,-104.128 293.98,-86.6275"/>
<polygon fill="midnightblue" stroke="midnightblue" points="407.122,-195.015 417.677,-195.935 409.999,-188.634 407.122,-195.015"/>
</g>
<!-- Node20&#45;&gt;Node8 -->
<g id="edge28" class="edge"><title>Node20&#45;&gt;Node8</title>
<path fill="none" stroke="midnightblue" d="M439,-185.537C439,-173.17 439,-157.62 439,-148.127"/>
<polygon fill="midnightblue" stroke="midnightblue" points="435.5,-185.734 439,-195.734 442.5,-185.734 435.5,-185.734"/>
</g>
<!-- Node20&#45;&gt;Node10 -->
<g id="edge30" class="edge"><title>Node20&#45;&gt;Node10</title>
<path fill="none" stroke="midnightblue" d="M402.295,-191.956C384.982,-183.976 365.972,-171.741 356,-154 349.249,-141.99 348.878,-134.794 356,-123 366.319,-105.912 384.552,-94.317 402.375,-86.5957"/>
<polygon fill="midnightblue" stroke="midnightblue" points="401.099,-195.251 411.67,-195.958 403.847,-188.813 401.099,-195.251"/>
</g>
<!-- Node20&#45;&gt;Node11 -->
<g id="edge31" class="edge"><title>Node20&#45;&gt;Node11</title>
<path fill="none" stroke="midnightblue" d="M522.672,-201.32C568.045,-195.975 623.049,-183.275 664,-154 690.198,-135.272 705.404,-98.1246 711.232,-81.2301"/>
<polygon fill="midnightblue" stroke="midnightblue" points="522.12,-197.859 512.552,-202.411 522.87,-204.819 522.12,-197.859"/>
</g>
<!-- Node22 -->
<g id="node22" class="node"><title>Node22</title>
<g id="a_node22"><a xlink:href="Flatte_8hpp.html" target="_top" xlink:title="Physics/Dynamics/Flatte.hpp">
<polygon fill="white" stroke="red" points="1755,-62 1755,-81 1901,-81 1901,-62 1755,-62"/>
<text text-anchor="middle" x="1828" y="-69" font-family="Helvetica,sans-Serif" font-size="10.00">Physics/Dynamics/Flatte.hpp</text>
</a>
</g>
</g>
<!-- Node21&#45;&gt;Node22 -->
<g id="edge38" class="edge"><title>Node21&#45;&gt;Node22</title>
<path fill="none" stroke="midnightblue" d="M1833.15,-185.775C1831.83,-156.746 1829.34,-102.038 1828.39,-81.0212"/>
<polygon fill="midnightblue" stroke="midnightblue" points="1829.66,-186.008 1833.61,-195.839 1836.65,-185.69 1829.66,-186.008"/>
</g>
<!-- Node23 -->
<g id="node23" class="node"><title>Node23</title>
<g id="a_node23"><a xlink:href="RelativisticBreitWigner_8hpp.html" target="_top" xlink:title="Physics/Dynamics/Relativistic\lBreitWigner.hpp">
<polygon fill="white" stroke="red" points="1853.5,-123.5 1853.5,-153.5 2004.5,-153.5 2004.5,-123.5 1853.5,-123.5"/>
<text text-anchor="start" x="1861.5" y="-141.5" font-family="Helvetica,sans-Serif" font-size="10.00">Physics/Dynamics/Relativistic</text>
<text text-anchor="middle" x="1929" y="-130.5" font-family="Helvetica,sans-Serif" font-size="10.00">BreitWigner.hpp</text>
</a>
</g>
</g>
<!-- Node21&#45;&gt;Node23 -->
<g id="edge40" class="edge"><title>Node21&#45;&gt;Node23</title>
<path fill="none" stroke="midnightblue" d="M1855.41,-189.849C1871.27,-179 1892.75,-164.303 1908.41,-153.589"/>
<polygon fill="midnightblue" stroke="midnightblue" points="1853.09,-187.198 1846.81,-195.734 1857.04,-192.976 1853.09,-187.198"/>
</g>
<!-- Node22&#45;&gt;Node12 -->
<g id="edge39" class="edge"><title>Node22&#45;&gt;Node12</title>
<path fill="none" stroke="midnightblue" d="M1804.65,-56.7441C1785.14,-45.2498 1757.93,-29.2226 1741.44,-19.5091"/>
<polygon fill="midnightblue" stroke="midnightblue" points="1803.14,-59.9149 1813.53,-61.9751 1806.69,-53.8836 1803.14,-59.9149"/>
</g>
<!-- Node23&#45;&gt;Node12 -->
<g id="edge42" class="edge"><title>Node23&#45;&gt;Node12</title>
<path fill="none" stroke="midnightblue" d="M1929.73,-113.188C1928.92,-95.0668 1924.78,-70.9626 1910,-56 1893.1,-38.8937 1835.27,-26.5952 1789.08,-19.2234"/>
<polygon fill="midnightblue" stroke="midnightblue" points="1926.23,-113.356 1929.87,-123.306 1933.23,-113.259 1926.23,-113.356"/>
</g>
<!-- Node23&#45;&gt;Node22 -->
<g id="edge41" class="edge"><title>Node23&#45;&gt;Node22</title>
<path fill="none" stroke="midnightblue" d="M1898.66,-117.975C1879.51,-105.649 1855.73,-90.3455 1841.22,-81.007"/>
<polygon fill="midnightblue" stroke="midnightblue" points="1896.78,-120.927 1907.08,-123.396 1900.57,-115.041 1896.78,-120.927"/>
</g>
</g>
</svg>
        <g id="navigator" transform="translate(0 0)" fill="#404254">
                <rect fill="#f2f5e9" fill-opacity="0.5" stroke="#606060" stroke-width=".5" x="0" y="0" width="60" height="60"/>
                <use id="zoomplus" xlink:href="#zoomPlus" x="17" y="9" onmousedown="handleZoom(evt,'in')"/>
                <use id="zoomminus" xlink:href="#zoomMin" x="42" y="9" onmousedown="handleZoom(evt,'out')"/>
                <use id="reset" xlink:href="#resetDef" x="30" y="36" onmousedown="handleReset()"/>
                <g id="arrowUp" xlink:href="#dirArrow" transform="translate(30 24)" onmousedown="handlePan(0,-1)">
                  <use xlink:href="#rim" fill="#404040">
                        <set attributeName="fill" to="#808080" begin="arrowUp.mouseover" end="arrowUp.mouseout"/>
                  </use>
                  <path fill="none" stroke="white" stroke-width="1.5" d="M0,-3.0v7 M-2.5,-0.5L0,-3.0L2.5,-0.5"/>
                </g>
                <g id="arrowRight" xlink:href="#dirArrow" transform="rotate(90) translate(36 -43)" onmousedown="handlePan(1,0)">
                  <use xlink:href="#rim" fill="#404040">
                        <set attributeName="fill" to="#808080" begin="arrowRight.mouseover" end="arrowRight.mouseout"/>
                  </use>
                  <path fill="none" stroke="white" stroke-width="1.5" d="M0,-3.0v7 M-2.5,-0.5L0,-3.0L2.5,-0.5"/>
                </g>
                <g id="arrowDown" xlink:href="#dirArrow" transform="rotate(180) translate(-30 -48)" onmousedown="handlePan(0,1)">
                  <use xlink:href="#rim" fill="#404040">
                        <set attributeName="fill" to="#808080" begin="arrowDown.mouseover" end="arrowDown.mouseout"/>
                  </use>
                  <path fill="none" stroke="white" stroke-width="1.5" d="M0,-3.0v7 M-2.5,-0.5L0,-3.0L2.5,-0.5"/>
                </g>
                <g id="arrowLeft" xlink:href="#dirArrow" transform="rotate(270) translate(-36 17)" onmousedown="handlePan(-1,0)">
                  <use xlink:href="#rim" fill="#404040">
                        <set attributeName="fill" to="#808080" begin="arrowLeft.mouseover" end="arrowLeft.mouseout"/>
                  </use>
                  <path fill="none" stroke="white" stroke-width="1.5" d="M0,-3.0v7 M-2.5,-0.5L0,-3.0L2.5,-0.5"/>
                </g>
        </g>
        <svg viewBox="0 0 15 15" width="100%" height="30px" preserveAspectRatio="xMaxYMin meet">
         <g id="arrow_out" transform="scale(0.3 0.3)">
          <a xlink:href="Properties_8hpp__dep__incl_org.svg" target="_base">
           <rect id="button" ry="5" rx="5" y="6" x="6" height="38" width="38"
                fill="#f2f5e9" fill-opacity="0.5" stroke="#606060" stroke-width="1.0"/>
           <path id="arrow"
             d="M 11.500037,31.436501 C 11.940474,20.09759 22.043105,11.32322 32.158766,21.979434 L 37.068811,17.246167 C 37.068811,17.246167 37.088388,32 37.088388,32 L 22.160133,31.978069 C 22.160133,31.978069 26.997745,27.140456 26.997745,27.140456 C 18.528582,18.264221 13.291696,25.230495 11.500037,31.436501 z"
             style="fill:#404040;"/>
          </a>
         </g>
        </svg>
</svg>
