<?xml version="1.0" encoding="UTF-8" standalone="no"?>
<!DOCTYPE svg PUBLIC "-//W3C//DTD SVG 1.1//EN"
 "http://www.w3.org/Graphics/SVG/1.1/DTD/svg11.dtd">
<!-- Generated by graphviz version 2.38.0 (20140413.2041)
 -->
<!-- Title: Core/Properties.cpp Pages: 1 -->
<!--zoomable 218 -->
<svg id="main" version="1.1" xmlns="http://www.w3.org/2000/svg" xmlns:xlink="http://www.w3.org/1999/xlink" xml:space="preserve" onload="init(evt)">
<style type="text/css"><![CDATA[
.edge:hover path { stroke: red; }
.edge:hover polygon { stroke: red; fill: red; }
]]></style>
<script type="text/javascript"><![CDATA[
var edges = document.getElementsByTagName('g');
if (edges && edges.length) {
  for (var i=0;i<edges.length;i++) {
    if (edges[i].id.substr(0,4)=='edge') {
      edges[i].setAttribute('class','edge');
    }
  }
}
]]></script>
        <defs>
                <circle id="rim" cx="0" cy="0" r="7"/>
                <circle id="rim2" cx="0" cy="0" r="3.5"/>
                <g id="zoomPlus">
                        <use xlink:href="#rim" fill="#404040">
                                <set attributeName="fill" to="#808080" begin="zoomplus.mouseover" end="zoomplus.mouseout"/>
                        </use>
                        <path d="M-4,0h8M0,-4v8" fill="none" stroke="white" stroke-width="1.5" pointer-events="none"/>
                </g>
                <g id="zoomMin">
                        <use xlink:href="#rim" fill="#404040">
                                <set attributeName="fill" to="#808080" begin="zoomminus.mouseover" end="zoomminus.mouseout"/>
                        </use>
                        <path d="M-4,0h8" fill="none" stroke="white" stroke-width="1.5" pointer-events="none"/>
                </g>
                <g id="dirArrow">
                        <path fill="none" stroke="white" stroke-width="1.5" d="M0,-3.0v7 M-2.5,-0.5L0,-3.0L2.5,-0.5"/>
                </g>
               <g id="resetDef">
                       <use xlink:href="#rim2" fill="#404040">
                               <set attributeName="fill" to="#808080" begin="reset.mouseover" end="reset.mouseout"/>
                       </use>
               </g>
        </defs>

<script type="text/javascript">
var viewWidth = 1304;
var viewHeight = 218;
var sectionId = 'dynsection-0';
</script>
<script xlink:href="svgpan.js"/>
<svg id="graph" class="graph">
<g id="viewport">
<title>Core/Properties.cpp</title>
<polygon fill="white" stroke="none" points="-4,4 -4,-214 1299.5,-214 1299.5,4 -4,4"/>
<!-- Node1 -->
<g id="node1" class="node"><title>Node1</title>
<polygon fill="#bfbfbf" stroke="black" points="915,-190.5 915,-209.5 1019,-209.5 1019,-190.5 915,-190.5"/>
<text text-anchor="middle" x="967" y="-197.5" font-family="Helvetica,sans-Serif" font-size="10.00">Core/Properties.cpp</text>
</g>
<!-- Node2 -->
<g id="node2" class="node"><title>Node2</title>
<g id="a_node2"><a xlink:href="Properties_8hpp.html" target="_top" xlink:title="Properties.hpp">
<polygon fill="white" stroke="black" points="198,-129 198,-148 278,-148 278,-129 198,-129"/>
<text text-anchor="middle" x="238" y="-136" font-family="Helvetica,sans-Serif" font-size="10.00">Properties.hpp</text>
</a>
</g>
</g>
<!-- Node1&#45;&gt;Node2 -->
<g id="edge1" class="edge"><title>Node1&#45;&gt;Node2</title>
<path fill="none" stroke="midnightblue" d="M914.865,-194.745C780.176,-183.752 421.87,-154.507 288.74,-143.641"/>
<polygon fill="midnightblue" stroke="midnightblue" points="288.68,-140.125 278.428,-142.8 288.11,-147.102 288.68,-140.125"/>
</g>
<!-- Node5 -->
<g id="node5" class="node"><title>Node5</title>
<g id="a_node5"><a xlink:href="Logging_8hpp.html" target="_top" xlink:title="Core/Logging.hpp">
<polygon fill="white" stroke="red" points="697.5,-0.5 697.5,-19.5 790.5,-19.5 790.5,-0.5 697.5,-0.5"/>
<text text-anchor="middle" x="744" y="-7.5" font-family="Helvetica,sans-Serif" font-size="10.00">Core/Logging.hpp</text>
</a>
</g>
</g>
<!-- Node1&#45;&gt;Node5 -->
<g id="edge10" class="edge"><title>Node1&#45;&gt;Node5</title>
<path fill="none" stroke="midnightblue" d="M995.291,-190.466C1058.31,-170.115 1200.62,-115.939 1147,-56 1124.34,-30.674 906.639,-17.9532 800.976,-13.2296"/>
<polygon fill="midnightblue" stroke="midnightblue" points="800.948,-9.72514 790.805,-12.7842 800.642,-16.7184 800.948,-9.72514"/>
</g>
<!-- Node10 -->
<g id="node10" class="node"><title>Node10</title>
<g id="a_node10"><a xlink:href="Utils_8hpp.html" target="_top" xlink:title="Core/Utils.hpp">
<polygon fill="white" stroke="black" points="728,-129 728,-148 808,-148 808,-129 728,-129"/>
<text text-anchor="middle" x="768" y="-136" font-family="Helvetica,sans-Serif" font-size="10.00">Core/Utils.hpp</text>
</a>
</g>
</g>
<!-- Node1&#45;&gt;Node10 -->
<g id="edge11" class="edge"><title>Node1&#45;&gt;Node10</title>
<path fill="none" stroke="midnightblue" d="M938.488,-190.475C903.762,-180.092 844.963,-162.512 806.308,-150.954"/>
<polygon fill="midnightblue" stroke="midnightblue" points="807.043,-147.52 796.459,-148.009 805.037,-154.227 807.043,-147.52"/>
</g>
<!-- Node17 -->
<g id="node17" class="node"><title>Node17</title>
<polygon fill="white" stroke="#bfbfbf" points="1194.5,-123.5 1194.5,-153.5 1295.5,-153.5 1295.5,-123.5 1194.5,-123.5"/>
<text text-anchor="start" x="1202.5" y="-141.5" font-family="Helvetica,sans-Serif" font-size="10.00">boost/property_tree</text>
<text text-anchor="middle" x="1245" y="-130.5" font-family="Helvetica,sans-Serif" font-size="10.00">/xml_parser.hpp</text>
</g>
<!-- Node1&#45;&gt;Node17 -->
<g id="edge21" class="edge"><title>Node1&#45;&gt;Node17</title>
<path fill="none" stroke="midnightblue" d="M1008.26,-190.427C1051.19,-181.473 1120.35,-166.954 1180,-154 1181.45,-153.686 1182.91,-153.366 1184.39,-153.044"/>
<polygon fill="midnightblue" stroke="midnightblue" points="1185.25,-156.438 1194.27,-150.875 1183.75,-149.601 1185.25,-156.438"/>
</g>
<!-- Node3 -->
<g id="node3" class="node"><title>Node3</title>
<g id="a_node3"><a xlink:href="Exceptions_8hpp.html" target="_top" xlink:title="ComPWA exceptions. ">
<polygon fill="white" stroke="red" points="48,-62 48,-81 156,-81 156,-62 48,-62"/>
<text text-anchor="middle" x="102" y="-69" font-family="Helvetica,sans-Serif" font-size="10.00">Core/Exceptions.hpp</text>
</a>
</g>
</g>
<!-- Node2&#45;&gt;Node3 -->
<g id="edge2" class="edge"><title>Node2&#45;&gt;Node3</title>
<path fill="none" stroke="midnightblue" d="M219.94,-128.869C196.773,-117.796 156.371,-98.4862 129.405,-85.5978"/>
<polygon fill="midnightblue" stroke="midnightblue" points="130.666,-82.3216 120.134,-81.1672 127.648,-88.6373 130.666,-82.3216"/>
</g>
<!-- Node4 -->
<g id="node4" class="node"><title>Node4</title>
<g id="a_node4"><a xlink:href="FitParameter_8hpp.html" target="_top" xlink:title="Core/FitParameter.hpp">
<polygon fill="white" stroke="red" points="266,-62 266,-81 382,-81 382,-62 266,-62"/>
<text text-anchor="middle" x="324" y="-69" font-family="Helvetica,sans-Serif" font-size="10.00">Core/FitParameter.hpp</text>
</a>
</g>
</g>
<!-- Node2&#45;&gt;Node4 -->
<g id="edge3" class="edge"><title>Node2&#45;&gt;Node4</title>
<path fill="none" stroke="midnightblue" d="M249.598,-128.734C263.654,-118.111 287.551,-100.049 304.466,-87.2642"/>
<polygon fill="midnightblue" stroke="midnightblue" points="306.718,-89.9492 312.585,-81.1273 302.497,-84.3648 306.718,-89.9492"/>
</g>
<!-- Node6 -->
<g id="node6" class="node"><title>Node6</title>
<polygon fill="white" stroke="#bfbfbf" points="302,-0.5 302,-19.5 346,-19.5 346,-0.5 302,-0.5"/>
<text text-anchor="middle" x="324" y="-7.5" font-family="Helvetica,sans-Serif" font-size="10.00">vector</text>
</g>
<!-- Node2&#45;&gt;Node6 -->
<g id="edge9" class="edge"><title>Node2&#45;&gt;Node6</title>
<path fill="none" stroke="midnightblue" d="M238.004,-128.822C238.418,-112.964 241.235,-78.837 257,-56 266.378,-42.4147 281.314,-31.8029 294.707,-24.3051"/>
<polygon fill="midnightblue" stroke="midnightblue" points="296.417,-27.3603 303.645,-19.6134 293.164,-21.1623 296.417,-27.3603"/>
</g>
<!-- Node7 -->
<g id="node7" class="node"><title>Node7</title>
<polygon fill="white" stroke="#bfbfbf" points="400.5,-56.5 400.5,-86.5 501.5,-86.5 501.5,-56.5 400.5,-56.5"/>
<text text-anchor="start" x="408.5" y="-74.5" font-family="Helvetica,sans-Serif" font-size="10.00">boost/property_tree</text>
<text text-anchor="middle" x="451" y="-63.5" font-family="Helvetica,sans-Serif" font-size="10.00">/ptree.hpp</text>
</g>
<!-- Node2&#45;&gt;Node7 -->
<g id="edge6" class="edge"><title>Node2&#45;&gt;Node7</title>
<path fill="none" stroke="midnightblue" d="M266.285,-128.869C299.076,-118.862 353.916,-102.127 395.344,-89.4841"/>
<polygon fill="midnightblue" stroke="midnightblue" points="396.488,-92.7945 405.031,-86.5281 394.445,-86.0993 396.488,-92.7945"/>
</g>
<!-- Node8 -->
<g id="node8" class="node"><title>Node8</title>
<polygon fill="white" stroke="#bfbfbf" points="174.5,-62 174.5,-81 209.5,-81 209.5,-62 174.5,-62"/>
<text text-anchor="middle" x="192" y="-69" font-family="Helvetica,sans-Serif" font-size="10.00">map</text>
</g>
<!-- Node2&#45;&gt;Node8 -->
<g id="edge7" class="edge"><title>Node2&#45;&gt;Node8</title>
<path fill="none" stroke="midnightblue" d="M231.796,-128.734C224.692,-118.695 212.887,-102.014 203.975,-89.4213"/>
<polygon fill="midnightblue" stroke="midnightblue" points="206.739,-87.2682 198.105,-81.1273 201.025,-91.3119 206.739,-87.2682"/>
</g>
<!-- Node9 -->
<g id="node9" class="node"><title>Node9</title>
<polygon fill="white" stroke="#bfbfbf" points="0,-62 0,-81 30,-81 30,-62 0,-62"/>
<text text-anchor="middle" x="15" y="-69" font-family="Helvetica,sans-Serif" font-size="10.00">set</text>
</g>
<!-- Node2&#45;&gt;Node9 -->
<g id="edge8" class="edge"><title>Node2&#45;&gt;Node9</title>
<path fill="none" stroke="midnightblue" d="M197.999,-130.943C157.004,-123.403 91.9453,-109.136 39,-87 38.2926,-86.7043 37.5814,-86.39 36.8696,-86.0607"/>
<polygon fill="midnightblue" stroke="midnightblue" points="38.3,-82.856 27.8346,-81.2049 34.9862,-89.022 38.3,-82.856"/>
</g>
<!-- Node4&#45;&gt;Node5 -->
<g id="edge4" class="edge"><title>Node4&#45;&gt;Node5</title>
<path fill="none" stroke="midnightblue" d="M361.304,-61.9634C371.247,-59.8478 382.004,-57.7017 392,-56 495.551,-38.3718 617.305,-24.2642 687.085,-16.8069"/>
<polygon fill="midnightblue" stroke="midnightblue" points="687.835,-20.247 697.41,-15.7115 687.097,-13.2861 687.835,-20.247"/>
</g>
<!-- Node4&#45;&gt;Node6 -->
<g id="edge5" class="edge"><title>Node4&#45;&gt;Node6</title>
<path fill="none" stroke="midnightblue" d="M324,-61.9751C324,-53.5803 324,-40.4806 324,-29.6631"/>
<polygon fill="midnightblue" stroke="midnightblue" points="327.5,-29.5091 324,-19.5091 320.5,-29.5091 327.5,-29.5091"/>
</g>
<!-- Node10&#45;&gt;Node5 -->
<g id="edge12" class="edge"><title>Node10&#45;&gt;Node5</title>
<path fill="none" stroke="midnightblue" d="M766.35,-128.805C762.497,-108.494 752.832,-57.5532 747.562,-29.7768"/>
<polygon fill="midnightblue" stroke="midnightblue" points="750.964,-28.928 745.661,-19.7557 744.087,-30.2329 750.964,-28.928"/>
</g>
<!-- Node10&#45;&gt;Node6 -->
<g id="edge20" class="edge"><title>Node10&#45;&gt;Node6</title>
<path fill="none" stroke="midnightblue" d="M746.3,-128.847C724.5,-119.75 690.312,-104.364 663,-87 644.607,-75.3063 644.934,-64.8148 625,-56 533.75,-15.6492 413.347,-10.3417 356.446,-10.3345"/>
<polygon fill="midnightblue" stroke="midnightblue" points="356.241,-6.83549 346.261,-10.3912 356.28,-13.8354 356.241,-6.83549"/>
</g>
<!-- Node10&#45;&gt;Node7 -->
<g id="edge16" class="edge"><title>Node10&#45;&gt;Node7</title>
<path fill="none" stroke="midnightblue" d="M727.825,-130.16C679.082,-121.133 594.18,-105.017 511.51,-87.0575"/>
<polygon fill="midnightblue" stroke="midnightblue" points="512.22,-83.63 501.704,-84.9158 510.727,-90.4689 512.22,-83.63"/>
</g>
<!-- Node11 -->
<g id="node11" class="node"><title>Node11</title>
<polygon fill="white" stroke="#bfbfbf" points="900,-56.5 900,-86.5 1010,-86.5 1010,-56.5 900,-56.5"/>
<text text-anchor="start" x="908" y="-74.5" font-family="Helvetica,sans-Serif" font-size="10.00">boost/algorithm/string</text>
<text text-anchor="middle" x="955" y="-63.5" font-family="Helvetica,sans-Serif" font-size="10.00">/predicate.hpp</text>
</g>
<!-- Node10&#45;&gt;Node11 -->
<g id="edge13" class="edge"><title>Node10&#45;&gt;Node11</title>
<path fill="none" stroke="midnightblue" d="M792.832,-128.869C821.257,-118.988 868.551,-102.549 904.751,-89.9662"/>
<polygon fill="midnightblue" stroke="midnightblue" points="906.346,-93.1174 914.642,-86.5281 904.048,-86.5054 906.346,-93.1174"/>
</g>
<!-- Node12 -->
<g id="node12" class="node"><title>Node12</title>
<polygon fill="white" stroke="#bfbfbf" points="1028,-56.5 1028,-86.5 1138,-86.5 1138,-56.5 1028,-56.5"/>
<text text-anchor="start" x="1036" y="-74.5" font-family="Helvetica,sans-Serif" font-size="10.00">boost/algorithm/string</text>
<text text-anchor="middle" x="1083" y="-63.5" font-family="Helvetica,sans-Serif" font-size="10.00">/trim.hpp</text>
</g>
<!-- Node10&#45;&gt;Node12 -->
<g id="edge14" class="edge"><title>Node10&#45;&gt;Node12</title>
<path fill="none" stroke="midnightblue" d="M808.056,-129.752C855.615,-120.484 937.596,-104.292 1017.61,-87.2699"/>
<polygon fill="midnightblue" stroke="midnightblue" points="1018.81,-90.592 1027.86,-85.0817 1017.35,-83.7462 1018.81,-90.592"/>
</g>
<!-- Node13 -->
<g id="node13" class="node"><title>Node13</title>
<polygon fill="white" stroke="#bfbfbf" points="520,-62 520,-81 616,-81 616,-62 520,-62"/>
<text text-anchor="middle" x="568" y="-69" font-family="Helvetica,sans-Serif" font-size="10.00">boost/optional.hpp</text>
</g>
<!-- Node10&#45;&gt;Node13 -->
<g id="edge15" class="edge"><title>Node10&#45;&gt;Node13</title>
<path fill="none" stroke="midnightblue" d="M741.442,-128.869C706.079,-117.376 643.41,-97.0082 603.873,-84.1586"/>
<polygon fill="midnightblue" stroke="midnightblue" points="604.942,-80.826 594.35,-81.0637 602.778,-87.4832 604.942,-80.826"/>
</g>
<!-- Node14 -->
<g id="node14" class="node"><title>Node14</title>
<polygon fill="white" stroke="#bfbfbf" points="672,-62 672,-81 716,-81 716,-62 672,-62"/>
<text text-anchor="middle" x="694" y="-69" font-family="Helvetica,sans-Serif" font-size="10.00">cmath</text>
</g>
<!-- Node10&#45;&gt;Node14 -->
<g id="edge17" class="edge"><title>Node10&#45;&gt;Node14</title>
<path fill="none" stroke="midnightblue" d="M758.02,-128.734C746.148,-118.305 726.115,-100.709 711.616,-87.9732"/>
<polygon fill="midnightblue" stroke="midnightblue" points="713.645,-85.0971 703.822,-81.1273 709.025,-90.3564 713.645,-85.0971"/>
</g>
<!-- Node15 -->
<g id="node15" class="node"><title>Node15</title>
<polygon fill="white" stroke="#bfbfbf" points="772,-62 772,-81 812,-81 812,-62 772,-62"/>
<text text-anchor="middle" x="792" y="-69" font-family="Helvetica,sans-Serif" font-size="10.00">limits</text>
</g>
<!-- Node10&#45;&gt;Node15 -->
<g id="edge18" class="edge"><title>Node10&#45;&gt;Node15</title>
<path fill="none" stroke="midnightblue" d="M771.237,-128.734C774.835,-118.988 780.746,-102.981 785.342,-90.5318"/>
<polygon fill="midnightblue" stroke="midnightblue" points="788.634,-91.7206 788.815,-81.1273 782.067,-89.2959 788.634,-91.7206"/>
</g>
<!-- Node16 -->
<g id="node16" class="node"><title>Node16</title>
<polygon fill="white" stroke="#bfbfbf" points="830,-62 830,-81 882,-81 882,-62 830,-62"/>
<text text-anchor="middle" x="856" y="-69" font-family="Helvetica,sans-Serif" font-size="10.00">sstream</text>
</g>
<!-- Node10&#45;&gt;Node16 -->
<g id="edge19" class="edge"><title>Node10&#45;&gt;Node16</title>
<path fill="none" stroke="midnightblue" d="M779.868,-128.734C794.25,-118.111 818.704,-100.049 836.012,-87.2642"/>
<polygon fill="midnightblue" stroke="midnightblue" points="838.356,-89.884 844.32,-81.1273 834.197,-84.2534 838.356,-89.884"/>
</g>
</g>
</svg>
        <g id="navigator" transform="translate(0 0)" fill="#404254">
                <rect fill="#f2f5e9" fill-opacity="0.5" stroke="#606060" stroke-width=".5" x="0" y="0" width="60" height="60"/>
                <use id="zoomplus" xlink:href="#zoomPlus" x="17" y="9" onmousedown="handleZoom(evt,'in')"/>
                <use id="zoomminus" xlink:href="#zoomMin" x="42" y="9" onmousedown="handleZoom(evt,'out')"/>
                <use id="reset" xlink:href="#resetDef" x="30" y="36" onmousedown="handleReset()"/>
                <g id="arrowUp" xlink:href="#dirArrow" transform="translate(30 24)" onmousedown="handlePan(0,-1)">
                  <use xlink:href="#rim" fill="#404040">
                        <set attributeName="fill" to="#808080" begin="arrowUp.mouseover" end="arrowUp.mouseout"/>
                  </use>
                  <path fill="none" stroke="white" stroke-width="1.5" d="M0,-3.0v7 M-2.5,-0.5L0,-3.0L2.5,-0.5"/>
                </g>
                <g id="arrowRight" xlink:href="#dirArrow" transform="rotate(90) translate(36 -43)" onmousedown="handlePan(1,0)">
                  <use xlink:href="#rim" fill="#404040">
                        <set attributeName="fill" to="#808080" begin="arrowRight.mouseover" end="arrowRight.mouseout"/>
                  </use>
                  <path fill="none" stroke="white" stroke-width="1.5" d="M0,-3.0v7 M-2.5,-0.5L0,-3.0L2.5,-0.5"/>
                </g>
                <g id="arrowDown" xlink:href="#dirArrow" transform="rotate(180) translate(-30 -48)" onmousedown="handlePan(0,1)">
                  <use xlink:href="#rim" fill="#404040">
                        <set attributeName="fill" to="#808080" begin="arrowDown.mouseover" end="arrowDown.mouseout"/>
                  </use>
                  <path fill="none" stroke="white" stroke-width="1.5" d="M0,-3.0v7 M-2.5,-0.5L0,-3.0L2.5,-0.5"/>
                </g>
                <g id="arrowLeft" xlink:href="#dirArrow" transform="rotate(270) translate(-36 17)" onmousedown="handlePan(-1,0)">
                  <use xlink:href="#rim" fill="#404040">
                        <set attributeName="fill" to="#808080" begin="arrowLeft.mouseover" end="arrowLeft.mouseout"/>
                  </use>
                  <path fill="none" stroke="white" stroke-width="1.5" d="M0,-3.0v7 M-2.5,-0.5L0,-3.0L2.5,-0.5"/>
                </g>
        </g>
        <svg viewBox="0 0 15 15" width="100%" height="30px" preserveAspectRatio="xMaxYMin meet">
         <g id="arrow_out" transform="scale(0.3 0.3)">
          <a xlink:href="Properties_8cpp__incl_org.svg" target="_base">
           <rect id="button" ry="5" rx="5" y="6" x="6" height="38" width="38"
                fill="#f2f5e9" fill-opacity="0.5" stroke="#606060" stroke-width="1.0"/>
           <path id="arrow"
             d="M 11.500037,31.436501 C 11.940474,20.09759 22.043105,11.32322 32.158766,21.979434 L 37.068811,17.246167 C 37.068811,17.246167 37.088388,32 37.088388,32 L 22.160133,31.978069 C 22.160133,31.978069 26.997745,27.140456 26.997745,27.140456 C 18.528582,18.264221 13.291696,25.230495 11.500037,31.436501 z"
             style="fill:#404040;"/>
          </a>
         </g>
        </svg>
</svg>
