<?xml version="1.0" encoding="UTF-8" standalone="no"?>
<!DOCTYPE svg PUBLIC "-//W3C//DTD SVG 1.1//EN"
 "http://www.w3.org/Graphics/SVG/1.1/DTD/svg11.dtd">
<!-- Generated by graphviz version 2.38.0 (20140413.2041)
 -->
<!-- Title: Core/Random.hpp Pages: 1 -->
<svg width="786pt" height="196pt"
 viewBox="0.00 0.00 785.72 196.00" xmlns="http://www.w3.org/2000/svg" xmlns:xlink="http://www.w3.org/1999/xlink">
<g id="graph0" class="graph" transform="scale(1 1) rotate(0) translate(4 192)">
<title>Core/Random.hpp</title>
<polygon fill="white" stroke="none" points="-4,4 -4,-192 781.722,-192 781.722,4 -4,4"/>
<!-- Node1 -->
<g id="node1" class="node"><title>Node1</title>
<polygon fill="#bfbfbf" stroke="black" points="527.722,-168.5 527.722,-187.5 623.722,-187.5 623.722,-168.5 527.722,-168.5"/>
<text text-anchor="middle" x="575.722" y="-175.5" font-family="Helvetica,sans-Serif" font-size="10.00">Core/Random.hpp</text>
</g>
<!-- Node2 -->
<g id="node2" class="node"><title>Node2</title>
<g id="a_node2"><a xlink:href="Generator_8hpp.html" target="_top" xlink:title="Core/Generator.hpp">
<polygon fill="white" stroke="black" points="383.722,-112.5 383.722,-131.5 485.722,-131.5 485.722,-112.5 383.722,-112.5"/>
<text text-anchor="middle" x="434.722" y="-119.5" font-family="Helvetica,sans-Serif" font-size="10.00">Core/Generator.hpp</text>
</a>
</g>
</g>
<!-- Node1&#45;&gt;Node2 -->
<g id="edge1" class="edge"><title>Node1&#45;&gt;Node2</title>
<path fill="none" stroke="midnightblue" d="M543.794,-164.772C517.308,-154.629 480.33,-140.467 456.96,-131.516"/>
<polygon fill="midnightblue" stroke="midnightblue" points="542.79,-168.136 553.38,-168.444 545.294,-161.599 542.79,-168.136"/>
</g>
<!-- Node4 -->
<g id="node4" class="node"><title>Node4</title>
<g id="a_node4"><a xlink:href="EvtGenGenerator_8cpp.html" target="_top" xlink:title="Data/EvtGen/EvtGenGenerator.cpp">
<polygon fill="white" stroke="black" points="105.222,-0.5 105.222,-19.5 276.222,-19.5 276.222,-0.5 105.222,-0.5"/>
<text text-anchor="middle" x="190.722" y="-7.5" font-family="Helvetica,sans-Serif" font-size="10.00">Data/EvtGen/EvtGenGenerator.cpp</text>
</a>
</g>
</g>
<!-- Node1&#45;&gt;Node4 -->
<g id="edge9" class="edge"><title>Node1&#45;&gt;Node4</title>
<path fill="none" stroke="midnightblue" d="M517.019,-175.672C385.401,-171.33 73.1862,-152.962 8.72217,-76 -23.3788,-37.6756 43.5422,-21.9438 105.092,-15.4881"/>
<polygon fill="midnightblue" stroke="midnightblue" points="517.201,-179.18 527.306,-175.995 517.421,-172.183 517.201,-179.18"/>
</g>
<!-- Node5 -->
<g id="node5" class="node"><title>Node5</title>
<g id="a_node5"><a xlink:href="Generate_8cpp.html" target="_top" xlink:title="Data/Generate.cpp">
<polygon fill="white" stroke="black" points="526.222,-56.5 526.222,-75.5 625.222,-75.5 625.222,-56.5 526.222,-56.5"/>
<text text-anchor="middle" x="575.722" y="-63.5" font-family="Helvetica,sans-Serif" font-size="10.00">Data/Generate.cpp</text>
</a>
</g>
</g>
<!-- Node1&#45;&gt;Node5 -->
<g id="edge10" class="edge"><title>Node1&#45;&gt;Node5</title>
<path fill="none" stroke="midnightblue" d="M575.722,-158.348C575.722,-134.254 575.722,-93.3079 575.722,-75.5914"/>
<polygon fill="midnightblue" stroke="midnightblue" points="572.222,-158.368 575.722,-168.368 579.222,-158.369 572.222,-158.368"/>
</g>
<!-- Node8 -->
<g id="node8" class="node"><title>Node8</title>
<g id="a_node8"><a xlink:href="RootGenerator_8cpp.html" target="_top" xlink:title="Data/Root/RootGenerator.cpp">
<polygon fill="white" stroke="black" points="428.222,-0.5 428.222,-19.5 575.222,-19.5 575.222,-0.5 428.222,-0.5"/>
<text text-anchor="middle" x="501.722" y="-7.5" font-family="Helvetica,sans-Serif" font-size="10.00">Data/Root/RootGenerator.cpp</text>
</a>
</g>
</g>
<!-- Node1&#45;&gt;Node8 -->
<g id="edge11" class="edge"><title>Node1&#45;&gt;Node8</title>
<path fill="none" stroke="midnightblue" d="M593.532,-161.265C618.552,-137.231 658.433,-90.531 633.722,-56 620.055,-36.9011 597.794,-25.8149 575.413,-19.4113"/>
<polygon fill="midnightblue" stroke="midnightblue" points="590.979,-158.859 586.031,-168.228 595.741,-163.99 590.979,-158.859"/>
</g>
<!-- Node9 -->
<g id="node9" class="node"><title>Node9</title>
<g id="a_node9"><a xlink:href="Random_8cpp.html" target="_top" xlink:title="Core/Random.cpp">
<polygon fill="white" stroke="black" points="681.722,-112.5 681.722,-131.5 777.722,-131.5 777.722,-112.5 681.722,-112.5"/>
<text text-anchor="middle" x="729.722" y="-119.5" font-family="Helvetica,sans-Serif" font-size="10.00">Core/Random.cpp</text>
</a>
</g>
</g>
<!-- Node1&#45;&gt;Node9 -->
<g id="edge8" class="edge"><title>Node1&#45;&gt;Node9</title>
<path fill="none" stroke="midnightblue" d="M609.833,-165.039C638.809,-154.879 679.684,-140.546 705.435,-131.516"/>
<polygon fill="midnightblue" stroke="midnightblue" points="608.402,-161.832 600.124,-168.444 610.719,-168.437 608.402,-161.832"/>
</g>
<!-- Node3 -->
<g id="node3" class="node"><title>Node3</title>
<g id="a_node3"><a xlink:href="EvtGenGenerator_8hpp.html" target="_top" xlink:title="Data/EvtGen/EvtGenGenerator.hpp">
<polygon fill="white" stroke="black" points="172.222,-56.5 172.222,-75.5 343.222,-75.5 343.222,-56.5 172.222,-56.5"/>
<text text-anchor="middle" x="257.722" y="-63.5" font-family="Helvetica,sans-Serif" font-size="10.00">Data/EvtGen/EvtGenGenerator.hpp</text>
</a>
</g>
</g>
<!-- Node2&#45;&gt;Node3 -->
<g id="edge2" class="edge"><title>Node2&#45;&gt;Node3</title>
<path fill="none" stroke="midnightblue" d="M396.819,-109.436C363.447,-99.2551 315.621,-84.664 285.637,-75.5164"/>
<polygon fill="midnightblue" stroke="midnightblue" points="396.09,-112.873 406.676,-112.444 398.133,-106.178 396.09,-112.873"/>
</g>
<!-- Node2&#45;&gt;Node5 -->
<g id="edge4" class="edge"><title>Node2&#45;&gt;Node5</title>
<path fill="none" stroke="midnightblue" d="M466.651,-108.772C493.136,-98.6287 530.114,-84.4669 553.485,-75.5164"/>
<polygon fill="midnightblue" stroke="midnightblue" points="465.151,-105.599 457.064,-112.444 467.654,-112.136 465.151,-105.599"/>
</g>
<!-- Node6 -->
<g id="node6" class="node"><title>Node6</title>
<g id="a_node6"><a xlink:href="RootDataIO_8cpp.html" target="_top" xlink:title="Data/Root/RootDataIO.cpp">
<polygon fill="white" stroke="black" points="17.7222,-56.5 17.7222,-75.5 153.722,-75.5 153.722,-56.5 17.7222,-56.5"/>
<text text-anchor="middle" x="85.7222" y="-63.5" font-family="Helvetica,sans-Serif" font-size="10.00">Data/Root/RootDataIO.cpp</text>
</a>
</g>
</g>
<!-- Node2&#45;&gt;Node6 -->
<g id="edge5" class="edge"><title>Node2&#45;&gt;Node6</title>
<path fill="none" stroke="midnightblue" d="M373.374,-111.508C307.557,-101.324 203.984,-85.2984 140.726,-75.5106"/>
<polygon fill="midnightblue" stroke="midnightblue" points="373.183,-115.02 383.601,-113.09 374.254,-108.102 373.183,-115.02"/>
</g>
<!-- Node7 -->
<g id="node7" class="node"><title>Node7</title>
<g id="a_node7"><a xlink:href="RootGenerator_8hpp.html" target="_top" xlink:title="Data/Root/RootGenerator.hpp">
<polygon fill="white" stroke="red" points="361.222,-56.5 361.222,-75.5 508.222,-75.5 508.222,-56.5 361.222,-56.5"/>
<text text-anchor="middle" x="434.722" y="-63.5" font-family="Helvetica,sans-Serif" font-size="10.00">Data/Root/RootGenerator.hpp</text>
</a>
</g>
</g>
<!-- Node2&#45;&gt;Node7 -->
<g id="edge6" class="edge"><title>Node2&#45;&gt;Node7</title>
<path fill="none" stroke="midnightblue" d="M434.722,-101.805C434.722,-92.9102 434.722,-82.7798 434.722,-75.7511"/>
<polygon fill="midnightblue" stroke="midnightblue" points="431.222,-102.083 434.722,-112.083 438.222,-102.083 431.222,-102.083"/>
</g>
<!-- Node3&#45;&gt;Node4 -->
<g id="edge3" class="edge"><title>Node3&#45;&gt;Node4</title>
<path fill="none" stroke="midnightblue" d="M238.887,-49.8197C226.884,-40.1452 211.75,-27.9481 201.683,-19.8339"/>
<polygon fill="midnightblue" stroke="midnightblue" points="236.975,-52.7738 246.957,-56.324 241.368,-47.3236 236.975,-52.7738"/>
</g>
<!-- Node7&#45;&gt;Node8 -->
<g id="edge7" class="edge"><title>Node7&#45;&gt;Node8</title>
<path fill="none" stroke="midnightblue" d="M453.557,-49.8197C465.561,-40.1452 480.694,-27.9481 490.762,-19.8339"/>
<polygon fill="midnightblue" stroke="midnightblue" points="451.077,-47.3236 445.487,-56.324 455.469,-52.7738 451.077,-47.3236"/>
</g>
</g>
</svg>
