<?xml version="1.0" encoding="UTF-8" standalone="no"?>
<!DOCTYPE svg PUBLIC "-//W3C//DTD SVG 1.1//EN"
 "http://www.w3.org/Graphics/SVG/1.1/DTD/svg11.dtd">
<!-- Generated by graphviz version 2.38.0 (20140413.2041)
 -->
<!-- Title: Physics/Dynamics/RelativisticBreitWigner.cpp Pages: 1 -->
<svg width="256pt" height="263pt"
 viewBox="0.00 0.00 256.00 263.00" xmlns="http://www.w3.org/2000/svg" xmlns:xlink="http://www.w3.org/1999/xlink">
<g id="graph0" class="graph" transform="scale(1 1) rotate(0) translate(4 259)">
<title>Physics/Dynamics/RelativisticBreitWigner.cpp</title>
<polygon fill="white" stroke="none" points="-4,4 -4,-259 252,-259 252,4 -4,4"/>
<!-- Node1 -->
<g id="node1" class="node"><title>Node1</title>
<polygon fill="#bfbfbf" stroke="black" points="67.5,-224.5 67.5,-254.5 218.5,-254.5 218.5,-224.5 67.5,-224.5"/>
<text text-anchor="start" x="75.5" y="-242.5" font-family="Helvetica,sans-Serif" font-size="10.00">Physics/Dynamics/Relativistic</text>
<text text-anchor="middle" x="143" y="-231.5" font-family="Helvetica,sans-Serif" font-size="10.00">BreitWigner.cpp</text>
</g>
<!-- Node2 -->
<g id="node2" class="node"><title>Node2</title>
<g id="a_node2"><a xlink:href="RelativisticBreitWigner_8hpp.html" target="_top" xlink:title="RelativisticBreitWigner.hpp">
<polygon fill="white" stroke="black" points="75.5,-168.5 75.5,-187.5 210.5,-187.5 210.5,-168.5 75.5,-168.5"/>
<text text-anchor="middle" x="143" y="-175.5" font-family="Helvetica,sans-Serif" font-size="10.00">RelativisticBreitWigner.hpp</text>
</a>
</g>
</g>
<!-- Node1&#45;&gt;Node2 -->
<g id="edge1" class="edge"><title>Node1&#45;&gt;Node2</title>
<path fill="none" stroke="midnightblue" d="M143,-224.399C143,-216.466 143,-206.458 143,-197.858"/>
<polygon fill="midnightblue" stroke="midnightblue" points="146.5,-197.658 143,-187.658 139.5,-197.658 146.5,-197.658"/>
</g>
<!-- Node3 -->
<g id="node3" class="node"><title>Node3</title>
<g id="a_node3"><a xlink:href="TreeNode_8hpp.html" target="_top" xlink:title="TreeNode class. ">
<polygon fill="white" stroke="red" points="0,-0.5 0,-19.5 162,-19.5 162,-0.5 0,-0.5"/>
<text text-anchor="middle" x="81" y="-7.5" font-family="Helvetica,sans-Serif" font-size="10.00">Core/FunctionTree/TreeNode.hpp</text>
</a>
</g>
</g>
<!-- Node2&#45;&gt;Node3 -->
<g id="edge2" class="edge"><title>Node2&#45;&gt;Node3</title>
<path fill="none" stroke="midnightblue" d="M113.879,-168.441C96.3573,-161.62 75.4775,-150.141 65,-132 46.1756,-99.4072 61.1765,-53.7909 72.1261,-28.9147"/>
<polygon fill="midnightblue" stroke="midnightblue" points="75.4053,-30.1639 76.4602,-19.6218 69.0614,-27.2051 75.4053,-30.1639"/>
</g>
<!-- Node4 -->
<g id="node4" class="node"><title>Node4</title>
<g id="a_node4"><a xlink:href="Coupling_8hpp.html" target="_top" xlink:title="Coupling.hpp">
<polygon fill="white" stroke="red" points="74,-112.5 74,-131.5 148,-131.5 148,-112.5 74,-112.5"/>
<text text-anchor="middle" x="111" y="-119.5" font-family="Helvetica,sans-Serif" font-size="10.00">Coupling.hpp</text>
</a>
</g>
</g>
<!-- Node2&#45;&gt;Node4 -->
<g id="edge3" class="edge"><title>Node2&#45;&gt;Node4</title>
<path fill="none" stroke="midnightblue" d="M137.716,-168.083C133.289,-160.613 126.837,-149.724 121.382,-140.52"/>
<polygon fill="midnightblue" stroke="midnightblue" points="124.295,-138.57 116.186,-131.751 118.273,-142.138 124.295,-138.57"/>
</g>
<!-- Node5 -->
<g id="node5" class="node"><title>Node5</title>
<g id="a_node5"><a xlink:href="FormFactor_8hpp.html" target="_top" xlink:title="FormFactor.hpp">
<polygon fill="white" stroke="red" points="74,-56.5 74,-75.5 160,-75.5 160,-56.5 74,-56.5"/>
<text text-anchor="middle" x="117" y="-63.5" font-family="Helvetica,sans-Serif" font-size="10.00">FormFactor.hpp</text>
</a>
</g>
</g>
<!-- Node2&#45;&gt;Node5 -->
<g id="edge6" class="edge"><title>Node2&#45;&gt;Node5</title>
<path fill="none" stroke="midnightblue" d="M147.921,-168.35C154.463,-155.667 164.384,-131.422 157,-112 152.665,-100.598 143.969,-90.2394 135.79,-82.343"/>
<polygon fill="midnightblue" stroke="midnightblue" points="138.041,-79.6595 128.266,-75.5728 133.358,-84.8633 138.041,-79.6595"/>
</g>
<!-- Node6 -->
<g id="node6" class="node"><title>Node6</title>
<polygon fill="white" stroke="#bfbfbf" points="204,-112.5 204,-131.5 248,-131.5 248,-112.5 204,-112.5"/>
<text text-anchor="middle" x="226" y="-119.5" font-family="Helvetica,sans-Serif" font-size="10.00">vector</text>
</g>
<!-- Node2&#45;&gt;Node6 -->
<g id="edge7" class="edge"><title>Node2&#45;&gt;Node6</title>
<path fill="none" stroke="midnightblue" d="M156.335,-168.324C169.162,-159.979 188.785,-147.212 203.94,-137.352"/>
<polygon fill="midnightblue" stroke="midnightblue" points="206.224,-140.042 212.698,-131.655 202.407,-134.174 206.224,-140.042"/>
</g>
<!-- Node4&#45;&gt;Node5 -->
<g id="edge4" class="edge"><title>Node4&#45;&gt;Node5</title>
<path fill="none" stroke="midnightblue" d="M111.991,-112.083C112.786,-104.927 113.929,-94.6353 114.923,-85.6911"/>
<polygon fill="midnightblue" stroke="midnightblue" points="118.402,-86.0765 116.028,-75.7511 111.445,-85.3034 118.402,-86.0765"/>
</g>
<!-- Node5&#45;&gt;Node3 -->
<g id="edge5" class="edge"><title>Node5&#45;&gt;Node3</title>
<path fill="none" stroke="midnightblue" d="M111.055,-56.083C106.023,-48.5341 98.6632,-37.4948 92.4865,-28.2298"/>
<polygon fill="midnightblue" stroke="midnightblue" points="95.2933,-26.1301 86.8341,-19.7511 89.4689,-30.0131 95.2933,-26.1301"/>
</g>
</g>
</svg>
