<?xml version="1.0" encoding="UTF-8" standalone="no"?>
<!DOCTYPE svg PUBLIC "-//W3C//DTD SVG 1.1//EN"
 "http://www.w3.org/Graphics/SVG/1.1/DTD/svg11.dtd">
<!-- Generated by graphviz version 2.38.0 (20140413.2041)
 -->
<!-- Title: Physics/Dynamics/RelativisticBreitWigner.hpp Pages: 1 -->
<svg width="588pt" height="162pt"
 viewBox="0.00 0.00 587.50 162.00" xmlns="http://www.w3.org/2000/svg" xmlns:xlink="http://www.w3.org/1999/xlink">
<g id="graph0" class="graph" transform="scale(1 1) rotate(0) translate(4 158)">
<title>Physics/Dynamics/RelativisticBreitWigner.hpp</title>
<polygon fill="white" stroke="none" points="-4,4 -4,-158 583.5,-158 583.5,4 -4,4"/>
<!-- Node1 -->
<g id="node1" class="node"><title>Node1</title>
<polygon fill="#bfbfbf" stroke="black" points="203.5,-123.5 203.5,-153.5 354.5,-153.5 354.5,-123.5 203.5,-123.5"/>
<text text-anchor="start" x="211.5" y="-141.5" font-family="Helvetica,sans-Serif" font-size="10.00">Physics/Dynamics/Relativistic</text>
<text text-anchor="middle" x="279" y="-130.5" font-family="Helvetica,sans-Serif" font-size="10.00">BreitWigner.hpp</text>
</g>
<!-- Node2 -->
<g id="node2" class="node"><title>Node2</title>
<g id="a_node2"><a xlink:href="Flatte_8hpp.html" target="_top" xlink:title="Physics/Dynamics/Flatte.hpp">
<polygon fill="white" stroke="black" points="52,-62 52,-81 198,-81 198,-62 52,-62"/>
<text text-anchor="middle" x="125" y="-69" font-family="Helvetica,sans-Serif" font-size="10.00">Physics/Dynamics/Flatte.hpp</text>
</a>
</g>
</g>
<!-- Node1&#45;&gt;Node2 -->
<g id="edge1" class="edge"><title>Node1&#45;&gt;Node2</title>
<path fill="none" stroke="midnightblue" d="M236.255,-119.458C206.502,-106.9 168.177,-90.724 145.155,-81.007"/>
<polygon fill="midnightblue" stroke="midnightblue" points="235.01,-122.732 245.584,-123.396 237.732,-116.283 235.01,-122.732"/>
</g>
<!-- Node3 -->
<g id="node3" class="node"><title>Node3</title>
<g id="a_node3"><a xlink:href="BuilderXML_8cpp.html" target="_top" xlink:title="Physics/BuilderXML.cpp">
<polygon fill="white" stroke="black" points="164,-0.5 164,-19.5 288,-19.5 288,-0.5 164,-0.5"/>
<text text-anchor="middle" x="226" y="-7.5" font-family="Helvetica,sans-Serif" font-size="10.00">Physics/BuilderXML.cpp</text>
</a>
</g>
</g>
<!-- Node1&#45;&gt;Node3 -->
<g id="edge4" class="edge"><title>Node1&#45;&gt;Node3</title>
<path fill="none" stroke="midnightblue" d="M261.464,-115.089C255.541,-106.658 249.338,-96.7465 245,-87 234.713,-63.8889 229.345,-34.2413 227.178,-19.7557"/>
<polygon fill="midnightblue" stroke="midnightblue" points="258.718,-117.263 267.445,-123.271 264.369,-113.132 258.718,-117.263"/>
</g>
<!-- Node5 -->
<g id="node5" class="node"><title>Node5</title>
<g id="a_node5"><a xlink:href="Voigtian_8hpp.html" target="_top" xlink:title="This file contains the declaration of the Voigtian class, which is used the implementation of voigt f...">
<polygon fill="white" stroke="black" points="254,-62 254,-81 410,-81 410,-62 254,-62"/>
<text text-anchor="middle" x="332" y="-69" font-family="Helvetica,sans-Serif" font-size="10.00">Physics/Dynamics/Voigtian.hpp</text>
</a>
</g>
</g>
<!-- Node1&#45;&gt;Node5 -->
<g id="edge5" class="edge"><title>Node1&#45;&gt;Node5</title>
<path fill="none" stroke="midnightblue" d="M297.088,-115.316C306.643,-103.598 317.826,-89.8829 324.911,-81.1945"/>
<polygon fill="midnightblue" stroke="midnightblue" points="294.107,-113.434 290.5,-123.396 299.532,-117.858 294.107,-113.434"/>
</g>
<!-- Node7 -->
<g id="node7" class="node"><title>Node7</title>
<g id="a_node7"><a xlink:href="RelativisticBreitWigner_8cpp.html" target="_top" xlink:title="Physics/Dynamics/Relativistic\lBreitWigner.cpp">
<polygon fill="white" stroke="black" points="428.5,-56.5 428.5,-86.5 579.5,-86.5 579.5,-56.5 428.5,-56.5"/>
<text text-anchor="start" x="436.5" y="-74.5" font-family="Helvetica,sans-Serif" font-size="10.00">Physics/Dynamics/Relativistic</text>
<text text-anchor="middle" x="504" y="-63.5" font-family="Helvetica,sans-Serif" font-size="10.00">BreitWigner.cpp</text>
</a>
</g>
</g>
<!-- Node1&#45;&gt;Node7 -->
<g id="edge8" class="edge"><title>Node1&#45;&gt;Node7</title>
<path fill="none" stroke="midnightblue" d="M337.57,-120.58C374.114,-110.022 420.604,-96.5921 455.155,-86.6109"/>
<polygon fill="midnightblue" stroke="midnightblue" points="336.18,-117.338 327.545,-123.476 338.123,-124.063 336.18,-117.338"/>
</g>
<!-- Node2&#45;&gt;Node3 -->
<g id="edge2" class="edge"><title>Node2&#45;&gt;Node3</title>
<path fill="none" stroke="midnightblue" d="M148.35,-56.7441C167.862,-45.2498 195.068,-29.2226 211.556,-19.5091"/>
<polygon fill="midnightblue" stroke="midnightblue" points="146.31,-53.8836 139.471,-61.9751 149.863,-59.9149 146.31,-53.8836"/>
</g>
<!-- Node4 -->
<g id="node4" class="node"><title>Node4</title>
<g id="a_node4"><a xlink:href="Flatte_8cpp.html" target="_top" xlink:title="Physics/Dynamics/Flatte.cpp">
<polygon fill="white" stroke="black" points="0,-0.5 0,-19.5 146,-19.5 146,-0.5 0,-0.5"/>
<text text-anchor="middle" x="73" y="-7.5" font-family="Helvetica,sans-Serif" font-size="10.00">Physics/Dynamics/Flatte.cpp</text>
</a>
</g>
</g>
<!-- Node2&#45;&gt;Node4 -->
<g id="edge3" class="edge"><title>Node2&#45;&gt;Node4</title>
<path fill="none" stroke="midnightblue" d="M110.727,-54.1685C100.924,-42.952 88.3082,-28.5161 80.4365,-19.5091"/>
<polygon fill="midnightblue" stroke="midnightblue" points="108.334,-56.7486 117.55,-61.9751 113.604,-52.1422 108.334,-56.7486"/>
</g>
<!-- Node5&#45;&gt;Node3 -->
<g id="edge6" class="edge"><title>Node5&#45;&gt;Node3</title>
<path fill="none" stroke="midnightblue" d="M308.05,-57.0565C287.537,-45.5417 258.621,-29.3109 241.159,-19.5091"/>
<polygon fill="midnightblue" stroke="midnightblue" points="306.379,-60.1323 316.813,-61.9751 309.806,-54.0282 306.379,-60.1323"/>
</g>
<!-- Node6 -->
<g id="node6" class="node"><title>Node6</title>
<g id="a_node6"><a xlink:href="Voigtian_8cpp.html" target="_top" xlink:title="Physics/Dynamics/Voigtian.cpp">
<polygon fill="white" stroke="black" points="306,-0.5 306,-19.5 462,-19.5 462,-0.5 306,-0.5"/>
<text text-anchor="middle" x="384" y="-7.5" font-family="Helvetica,sans-Serif" font-size="10.00">Physics/Dynamics/Voigtian.cpp</text>
</a>
</g>
</g>
<!-- Node5&#45;&gt;Node6 -->
<g id="edge7" class="edge"><title>Node5&#45;&gt;Node6</title>
<path fill="none" stroke="midnightblue" d="M346.273,-54.1685C356.076,-42.952 368.692,-28.5161 376.563,-19.5091"/>
<polygon fill="midnightblue" stroke="midnightblue" points="343.396,-52.1422 339.45,-61.9751 348.666,-56.7486 343.396,-52.1422"/>
</g>
</g>
</svg>
