<?xml version="1.0" encoding="UTF-8" standalone="no"?>
<!DOCTYPE svg PUBLIC "-//W3C//DTD SVG 1.1//EN"
 "http://www.w3.org/Graphics/SVG/1.1/DTD/svg11.dtd">
<!-- Generated by graphviz version 2.38.0 (20140413.2041)
 -->
<!-- Title: Data/Root/RootDataIO.hpp Pages: 1 -->
<svg width="223pt" height="196pt"
 viewBox="0.00 0.00 222.50 196.00" xmlns="http://www.w3.org/2000/svg" xmlns:xlink="http://www.w3.org/1999/xlink">
<g id="graph0" class="graph" transform="scale(1 1) rotate(0) translate(4 192)">
<title>Data/Root/RootDataIO.hpp</title>
<polygon fill="white" stroke="none" points="-4,4 -4,-192 218.5,-192 218.5,4 -4,4"/>
<!-- Node1 -->
<g id="node1" class="node"><title>Node1</title>
<polygon fill="#bfbfbf" stroke="black" points="23,-168.5 23,-187.5 159,-187.5 159,-168.5 23,-168.5"/>
<text text-anchor="middle" x="91" y="-175.5" font-family="Helvetica,sans-Serif" font-size="10.00">Data/Root/RootDataIO.hpp</text>
</g>
<!-- Node2 -->
<g id="node2" class="node"><title>Node2</title>
<polygon fill="white" stroke="#bfbfbf" points="0,-112.5 0,-131.5 52,-131.5 52,-112.5 0,-112.5"/>
<text text-anchor="middle" x="26" y="-119.5" font-family="Helvetica,sans-Serif" font-size="10.00">memory</text>
</g>
<!-- Node1&#45;&gt;Node2 -->
<g id="edge1" class="edge"><title>Node1&#45;&gt;Node2</title>
<path fill="none" stroke="midnightblue" d="M80.5566,-168.324C70.8538,-160.263 56.1847,-148.077 44.5003,-138.369"/>
<polygon fill="midnightblue" stroke="midnightblue" points="46.5619,-135.532 36.6334,-131.834 42.0887,-140.916 46.5619,-135.532"/>
</g>
<!-- Node3 -->
<g id="node3" class="node"><title>Node3</title>
<polygon fill="white" stroke="#bfbfbf" points="70.5,-112.5 70.5,-131.5 111.5,-131.5 111.5,-112.5 70.5,-112.5"/>
<text text-anchor="middle" x="91" y="-119.5" font-family="Helvetica,sans-Serif" font-size="10.00">string</text>
</g>
<!-- Node1&#45;&gt;Node3 -->
<g id="edge2" class="edge"><title>Node1&#45;&gt;Node3</title>
<path fill="none" stroke="midnightblue" d="M91,-168.083C91,-161.006 91,-150.861 91,-141.986"/>
<polygon fill="midnightblue" stroke="midnightblue" points="94.5001,-141.751 91,-131.751 87.5001,-141.751 94.5001,-141.751"/>
</g>
<!-- Node4 -->
<g id="node4" class="node"><title>Node4</title>
<g id="a_node4"><a xlink:href="Event_8hpp.html" target="_top" xlink:title="Core/Event.hpp">
<polygon fill="white" stroke="black" points="129.5,-112.5 129.5,-131.5 214.5,-131.5 214.5,-112.5 129.5,-112.5"/>
<text text-anchor="middle" x="172" y="-119.5" font-family="Helvetica,sans-Serif" font-size="10.00">Core/Event.hpp</text>
</a>
</g>
</g>
<!-- Node1&#45;&gt;Node4 -->
<g id="edge3" class="edge"><title>Node1&#45;&gt;Node4</title>
<path fill="none" stroke="midnightblue" d="M104.014,-168.324C116.532,-159.979 135.682,-147.212 150.471,-137.352"/>
<polygon fill="midnightblue" stroke="midnightblue" points="152.639,-140.114 159.018,-131.655 148.756,-134.289 152.639,-140.114"/>
</g>
<!-- Node5 -->
<g id="node5" class="node"><title>Node5</title>
<g id="a_node5"><a xlink:href="Particle_8hpp.html" target="_top" xlink:title="Particle and FourMomentum class. ">
<polygon fill="white" stroke="red" points="89,-56.5 89,-75.5 181,-75.5 181,-56.5 89,-56.5"/>
<text text-anchor="middle" x="135" y="-63.5" font-family="Helvetica,sans-Serif" font-size="10.00">Core/Particle.hpp</text>
</a>
</g>
</g>
<!-- Node4&#45;&gt;Node5 -->
<g id="edge4" class="edge"><title>Node4&#45;&gt;Node5</title>
<path fill="none" stroke="midnightblue" d="M165.89,-112.083C160.718,-104.534 153.154,-93.4948 146.806,-84.2298"/>
<polygon fill="midnightblue" stroke="midnightblue" points="149.536,-82.0221 140.996,-75.7511 143.761,-85.9787 149.536,-82.0221"/>
</g>
<!-- Node6 -->
<g id="node6" class="node"><title>Node6</title>
<polygon fill="white" stroke="#bfbfbf" points="150,-0.5 150,-19.5 194,-19.5 194,-0.5 150,-0.5"/>
<text text-anchor="middle" x="172" y="-7.5" font-family="Helvetica,sans-Serif" font-size="10.00">vector</text>
</g>
<!-- Node4&#45;&gt;Node6 -->
<g id="edge6" class="edge"><title>Node4&#45;&gt;Node6</title>
<path fill="none" stroke="midnightblue" d="M177.093,-112.274C183.7,-99.8968 193.942,-76.4667 190,-56 188.21,-46.7047 184.517,-36.8887 180.939,-28.8048"/>
<polygon fill="midnightblue" stroke="midnightblue" points="184.056,-27.2089 176.621,-19.6611 177.727,-30.1981 184.056,-27.2089"/>
</g>
<!-- Node5&#45;&gt;Node6 -->
<g id="edge5" class="edge"><title>Node5&#45;&gt;Node6</title>
<path fill="none" stroke="midnightblue" d="M141.11,-56.083C146.282,-48.5341 153.846,-37.4948 160.194,-28.2298"/>
<polygon fill="midnightblue" stroke="midnightblue" points="163.239,-29.9787 166.004,-19.7511 157.464,-26.0221 163.239,-29.9787"/>
</g>
</g>
</svg>
