<?xml version="1.0" encoding="UTF-8" standalone="no"?>
<!DOCTYPE svg PUBLIC "-//W3C//DTD SVG 1.1//EN"
 "http://www.w3.org/Graphics/SVG/1.1/DTD/svg11.dtd">
<!-- Generated by graphviz version 2.38.0 (20140413.2041)
 -->
<!-- Title: Data/Root/RootGenerator.hpp Pages: 1 -->
<!--zoomable 95 -->
<svg id="main" version="1.1" xmlns="http://www.w3.org/2000/svg" xmlns:xlink="http://www.w3.org/1999/xlink" xml:space="preserve" onload="init(evt)">
<style type="text/css"><![CDATA[
.edge:hover path { stroke: red; }
.edge:hover polygon { stroke: red; fill: red; }
]]></style>
<script type="text/javascript"><![CDATA[
var edges = document.getElementsByTagName('g');
if (edges && edges.length) {
  for (var i=0;i<edges.length;i++) {
    if (edges[i].id.substr(0,4)=='edge') {
      edges[i].setAttribute('class','edge');
    }
  }
}
]]></script>
        <defs>
                <circle id="rim" cx="0" cy="0" r="7"/>
                <circle id="rim2" cx="0" cy="0" r="3.5"/>
                <g id="zoomPlus">
                        <use xlink:href="#rim" fill="#404040">
                                <set attributeName="fill" to="#808080" begin="zoomplus.mouseover" end="zoomplus.mouseout"/>
                        </use>
                        <path d="M-4,0h8M0,-4v8" fill="none" stroke="white" stroke-width="1.5" pointer-events="none"/>
                </g>
                <g id="zoomMin">
                        <use xlink:href="#rim" fill="#404040">
                                <set attributeName="fill" to="#808080" begin="zoomminus.mouseover" end="zoomminus.mouseout"/>
                        </use>
                        <path d="M-4,0h8" fill="none" stroke="white" stroke-width="1.5" pointer-events="none"/>
                </g>
                <g id="dirArrow">
                        <path fill="none" stroke="white" stroke-width="1.5" d="M0,-3.0v7 M-2.5,-0.5L0,-3.0L2.5,-0.5"/>
                </g>
               <g id="resetDef">
                       <use xlink:href="#rim2" fill="#404040">
                               <set attributeName="fill" to="#808080" begin="reset.mouseover" end="reset.mouseout"/>
                       </use>
               </g>
        </defs>

<script type="text/javascript">
var viewWidth = 595;
var viewHeight = 95;
var sectionId = 'dynsection-1';
</script>
<script xlink:href="svgpan.js"/>
<svg id="graph" class="graph">
<g id="viewport">
<title>Data/Root/RootGenerator.hpp</title>
<polygon fill="white" stroke="none" points="-4,4 -4,-91 590.5,-91 590.5,4 -4,4"/>
<!-- Node1 -->
<g id="node1" class="node"><title>Node1</title>
<polygon fill="#bfbfbf" stroke="black" points="233,-67.5 233,-86.5 380,-86.5 380,-67.5 233,-67.5"/>
<text text-anchor="middle" x="306.5" y="-74.5" font-family="Helvetica,sans-Serif" font-size="10.00">Data/Root/RootGenerator.hpp</text>
</g>
<!-- Node2 -->
<g id="node2" class="node"><title>Node2</title>
<g id="a_node2"><a xlink:href="RootGenerator_8cpp.html" target="_top" xlink:title="Data/Root/RootGenerator.cpp">
<polygon fill="white" stroke="black" points="0,-6 0,-25 147,-25 147,-6 0,-6"/>
<text text-anchor="middle" x="73.5" y="-13" font-family="Helvetica,sans-Serif" font-size="10.00">Data/Root/RootGenerator.cpp</text>
</a>
</g>
</g>
<!-- Node1&#45;&gt;Node2 -->
<g id="edge1" class="edge"><title>Node1&#45;&gt;Node2</title>
<path fill="none" stroke="midnightblue" d="M263.301,-64.9685C218.057,-53.4147 147.971,-35.5173 106.821,-25.0091"/>
<polygon fill="midnightblue" stroke="midnightblue" points="262.562,-68.392 273.117,-67.4751 264.294,-61.6096 262.562,-68.392"/>
</g>
<!-- Node3 -->
<g id="node3" class="node"><title>Node3</title>
<g id="a_node3"><a xlink:href="DalitzFitD03K_8cpp.html" target="_top" xlink:title="Executable for Dalitz plot analysis of the decay D0 &#45;&gt; K_S K+ K&#45;. ">
<polygon fill="white" stroke="black" points="165,-0.5 165,-30.5 308,-30.5 308,-0.5 165,-0.5"/>
<text text-anchor="start" x="173" y="-18.5" font-family="Helvetica,sans-Serif" font-size="10.00">Examples/DalitzAnalysis</text>
<text text-anchor="middle" x="236.5" y="-7.5" font-family="Helvetica,sans-Serif" font-size="10.00">_D0KsKK/DalitzFitD03K.cpp</text>
</a>
</g>
</g>
<!-- Node1&#45;&gt;Node3 -->
<g id="edge2" class="edge"><title>Node1&#45;&gt;Node3</title>
<path fill="none" stroke="midnightblue" d="M288.761,-60.9215C277.769,-51.579 263.749,-39.6616 252.998,-30.523"/>
<polygon fill="midnightblue" stroke="midnightblue" points="286.585,-63.6654 296.471,-67.4751 291.118,-58.3318 286.585,-63.6654"/>
</g>
<!-- Node4 -->
<g id="node4" class="node"><title>Node4</title>
<g id="a_node4"><a xlink:href="DalitzFitApp_8cpp.html" target="_top" xlink:title="Simple Dalitz plot analysis with ComPWA. ">
<polygon fill="white" stroke="black" points="326.5,-0.5 326.5,-30.5 426.5,-30.5 426.5,-0.5 326.5,-0.5"/>
<text text-anchor="start" x="334.5" y="-18.5" font-family="Helvetica,sans-Serif" font-size="10.00">Examples/DalitzFit</text>
<text text-anchor="middle" x="376.5" y="-7.5" font-family="Helvetica,sans-Serif" font-size="10.00">/DalitzFitApp.cpp</text>
</a>
</g>
</g>
<!-- Node1&#45;&gt;Node4 -->
<g id="edge3" class="edge"><title>Node1&#45;&gt;Node4</title>
<path fill="none" stroke="midnightblue" d="M324.239,-60.9215C335.231,-51.579 349.251,-39.6616 360.002,-30.523"/>
<polygon fill="midnightblue" stroke="midnightblue" points="321.882,-58.3318 316.529,-67.4751 326.415,-63.6654 321.882,-58.3318"/>
</g>
<!-- Node5 -->
<g id="node5" class="node"><title>Node5</title>
<g id="a_node5"><a xlink:href="SimFit_8cpp.html" target="_top" xlink:title="Examples/SimFit/SimFit.cpp">
<polygon fill="white" stroke="black" points="444.5,-6 444.5,-25 586.5,-25 586.5,-6 444.5,-6"/>
<text text-anchor="middle" x="515.5" y="-13" font-family="Helvetica,sans-Serif" font-size="10.00">Examples/SimFit/SimFit.cpp</text>
</a>
</g>
</g>
<!-- Node1&#45;&gt;Node5 -->
<g id="edge4" class="edge"><title>Node1&#45;&gt;Node5</title>
<path fill="none" stroke="midnightblue" d="M346.277,-64.6759C386.888,-53.1144 449.01,-35.429 485.611,-25.0091"/>
<polygon fill="midnightblue" stroke="midnightblue" points="345.104,-61.3707 336.445,-67.4751 347.021,-68.1032 345.104,-61.3707"/>
</g>
</g>
</svg>
        <g id="navigator" transform="translate(0 0)" fill="#404254">
                <rect fill="#f2f5e9" fill-opacity="0.5" stroke="#606060" stroke-width=".5" x="0" y="0" width="60" height="60"/>
                <use id="zoomplus" xlink:href="#zoomPlus" x="17" y="9" onmousedown="handleZoom(evt,'in')"/>
                <use id="zoomminus" xlink:href="#zoomMin" x="42" y="9" onmousedown="handleZoom(evt,'out')"/>
                <use id="reset" xlink:href="#resetDef" x="30" y="36" onmousedown="handleReset()"/>
                <g id="arrowUp" xlink:href="#dirArrow" transform="translate(30 24)" onmousedown="handlePan(0,-1)">
                  <use xlink:href="#rim" fill="#404040">
                        <set attributeName="fill" to="#808080" begin="arrowUp.mouseover" end="arrowUp.mouseout"/>
                  </use>
                  <path fill="none" stroke="white" stroke-width="1.5" d="M0,-3.0v7 M-2.5,-0.5L0,-3.0L2.5,-0.5"/>
                </g>
                <g id="arrowRight" xlink:href="#dirArrow" transform="rotate(90) translate(36 -43)" onmousedown="handlePan(1,0)">
                  <use xlink:href="#rim" fill="#404040">
                        <set attributeName="fill" to="#808080" begin="arrowRight.mouseover" end="arrowRight.mouseout"/>
                  </use>
                  <path fill="none" stroke="white" stroke-width="1.5" d="M0,-3.0v7 M-2.5,-0.5L0,-3.0L2.5,-0.5"/>
                </g>
                <g id="arrowDown" xlink:href="#dirArrow" transform="rotate(180) translate(-30 -48)" onmousedown="handlePan(0,1)">
                  <use xlink:href="#rim" fill="#404040">
                        <set attributeName="fill" to="#808080" begin="arrowDown.mouseover" end="arrowDown.mouseout"/>
                  </use>
                  <path fill="none" stroke="white" stroke-width="1.5" d="M0,-3.0v7 M-2.5,-0.5L0,-3.0L2.5,-0.5"/>
                </g>
                <g id="arrowLeft" xlink:href="#dirArrow" transform="rotate(270) translate(-36 17)" onmousedown="handlePan(-1,0)">
                  <use xlink:href="#rim" fill="#404040">
                        <set attributeName="fill" to="#808080" begin="arrowLeft.mouseover" end="arrowLeft.mouseout"/>
                  </use>
                  <path fill="none" stroke="white" stroke-width="1.5" d="M0,-3.0v7 M-2.5,-0.5L0,-3.0L2.5,-0.5"/>
                </g>
        </g>
        <svg viewBox="0 0 15 15" width="100%" height="30px" preserveAspectRatio="xMaxYMin meet">
         <g id="arrow_out" transform="scale(0.3 0.3)">
          <a xlink:href="RootGenerator_8hpp__dep__incl_org.svg" target="_base">
           <rect id="button" ry="5" rx="5" y="6" x="6" height="38" width="38"
                fill="#f2f5e9" fill-opacity="0.5" stroke="#606060" stroke-width="1.0"/>
           <path id="arrow"
             d="M 11.500037,31.436501 C 11.940474,20.09759 22.043105,11.32322 32.158766,21.979434 L 37.068811,17.246167 C 37.068811,17.246167 37.088388,32 37.088388,32 L 22.160133,31.978069 C 22.160133,31.978069 26.997745,27.140456 26.997745,27.140456 C 18.528582,18.264221 13.291696,25.230495 11.500037,31.436501 z"
             style="fill:#404040;"/>
          </a>
         </g>
        </svg>
</svg>
