<?xml version="1.0" encoding="UTF-8" standalone="no"?>
<!DOCTYPE svg PUBLIC "-//W3C//DTD SVG 1.1//EN"
 "http://www.w3.org/Graphics/SVG/1.1/DTD/svg11.dtd">
<!-- Generated by graphviz version 2.38.0 (20140413.2041)
 -->
<!-- Title: Data/Root/RootEfficiency.hpp Pages: 1 -->
<svg width="318pt" height="95pt"
 viewBox="0.00 0.00 317.50 95.00" xmlns="http://www.w3.org/2000/svg" xmlns:xlink="http://www.w3.org/1999/xlink">
<g id="graph0" class="graph" transform="scale(1 1) rotate(0) translate(4 91)">
<title>Data/Root/RootEfficiency.hpp</title>
<polygon fill="white" stroke="none" points="-4,4 -4,-91 313.5,-91 313.5,4 -4,4"/>
<!-- Node1 -->
<g id="node1" class="node"><title>Node1</title>
<polygon fill="#bfbfbf" stroke="black" points="82,-67.5 82,-86.5 230,-86.5 230,-67.5 82,-67.5"/>
<text text-anchor="middle" x="156" y="-74.5" font-family="Helvetica,sans-Serif" font-size="10.00">Data/Root/RootEfficiency.hpp</text>
</g>
<!-- Node2 -->
<g id="node2" class="node"><title>Node2</title>
<g id="a_node2"><a xlink:href="RootEfficiency_8cpp.html" target="_top" xlink:title="Data/Root/RootEfficiency.cpp">
<polygon fill="white" stroke="black" points="0,-6 0,-25 148,-25 148,-6 0,-6"/>
<text text-anchor="middle" x="74" y="-13" font-family="Helvetica,sans-Serif" font-size="10.00">Data/Root/RootEfficiency.cpp</text>
</a>
</g>
</g>
<!-- Node1&#45;&gt;Node2 -->
<g id="edge1" class="edge"><title>Node1&#45;&gt;Node2</title>
<path fill="none" stroke="midnightblue" d="M135.733,-61.2938C120.003,-49.8803 98.7484,-34.4577 85.7268,-25.0091"/>
<polygon fill="midnightblue" stroke="midnightblue" points="134.102,-64.435 144.251,-67.4751 138.213,-58.7693 134.102,-64.435"/>
</g>
<!-- Node3 -->
<g id="node3" class="node"><title>Node3</title>
<g id="a_node3"><a xlink:href="DalitzFitD03K_8cpp.html" target="_top" xlink:title="Executable for Dalitz plot analysis of the decay D0 &#45;&gt; K_S K+ K&#45;. ">
<polygon fill="white" stroke="black" points="166.5,-0.5 166.5,-30.5 309.5,-30.5 309.5,-0.5 166.5,-0.5"/>
<text text-anchor="start" x="174.5" y="-18.5" font-family="Helvetica,sans-Serif" font-size="10.00">Examples/DalitzAnalysis</text>
<text text-anchor="middle" x="238" y="-7.5" font-family="Helvetica,sans-Serif" font-size="10.00">_D0KsKK/DalitzFitD03K.cpp</text>
</a>
</g>
</g>
<!-- Node1&#45;&gt;Node3 -->
<g id="edge2" class="edge"><title>Node1&#45;&gt;Node3</title>
<path fill="none" stroke="midnightblue" d="M176.027,-61.468C189.01,-52.0474 205.833,-39.8408 218.674,-30.523"/>
<polygon fill="midnightblue" stroke="midnightblue" points="173.787,-58.7693 167.749,-67.4751 177.898,-64.435 173.787,-58.7693"/>
</g>
</g>
</svg>
