<?xml version="1.0" encoding="UTF-8" standalone="no"?>
<!DOCTYPE svg PUBLIC "-//W3C//DTD SVG 1.1//EN"
 "http://www.w3.org/Graphics/SVG/1.1/DTD/svg11.dtd">
<!-- Generated by graphviz version 2.38.0 (20140413.2041)
 -->
<!-- Title: Data/Root/RootDataIO.hpp Pages: 1 -->
<svg width="306pt" height="95pt"
 viewBox="0.00 0.00 305.50 95.00" xmlns="http://www.w3.org/2000/svg" xmlns:xlink="http://www.w3.org/1999/xlink">
<g id="graph0" class="graph" transform="scale(1 1) rotate(0) translate(4 91)">
<title>Data/Root/RootDataIO.hpp</title>
<polygon fill="white" stroke="none" points="-4,4 -4,-91 301.5,-91 301.5,4 -4,4"/>
<!-- Node1 -->
<g id="node1" class="node"><title>Node1</title>
<polygon fill="#bfbfbf" stroke="black" points="79,-67.5 79,-86.5 215,-86.5 215,-67.5 79,-67.5"/>
<text text-anchor="middle" x="147" y="-74.5" font-family="Helvetica,sans-Serif" font-size="10.00">Data/Root/RootDataIO.hpp</text>
</g>
<!-- Node2 -->
<g id="node2" class="node"><title>Node2</title>
<g id="a_node2"><a xlink:href="RootDataIO_8cpp.html" target="_top" xlink:title="Data/Root/RootDataIO.cpp">
<polygon fill="white" stroke="black" points="0,-6 0,-25 136,-25 136,-6 0,-6"/>
<text text-anchor="middle" x="68" y="-13" font-family="Helvetica,sans-Serif" font-size="10.00">Data/Root/RootDataIO.cpp</text>
</a>
</g>
</g>
<!-- Node1&#45;&gt;Node2 -->
<g id="edge1" class="edge"><title>Node1&#45;&gt;Node2</title>
<path fill="none" stroke="midnightblue" d="M127.474,-61.2938C112.32,-49.8803 91.843,-34.4577 79.2978,-25.0091"/>
<polygon fill="midnightblue" stroke="midnightblue" points="125.588,-64.2547 135.681,-67.4751 129.799,-58.6631 125.588,-64.2547"/>
</g>
<!-- Node3 -->
<g id="node3" class="node"><title>Node3</title>
<g id="a_node3"><a xlink:href="DalitzFitD03K_8cpp.html" target="_top" xlink:title="Executable for Dalitz plot analysis of the decay D0 &#45;&gt; K_S K+ K&#45;. ">
<polygon fill="white" stroke="black" points="154.5,-0.5 154.5,-30.5 297.5,-30.5 297.5,-0.5 154.5,-0.5"/>
<text text-anchor="start" x="162.5" y="-18.5" font-family="Helvetica,sans-Serif" font-size="10.00">Examples/DalitzAnalysis</text>
<text text-anchor="middle" x="226" y="-7.5" font-family="Helvetica,sans-Serif" font-size="10.00">_D0KsKK/DalitzFitD03K.cpp</text>
</a>
</g>
</g>
<!-- Node1&#45;&gt;Node3 -->
<g id="edge2" class="edge"><title>Node1&#45;&gt;Node3</title>
<path fill="none" stroke="midnightblue" d="M166.656,-61.1955C179.114,-51.8129 195.129,-39.7512 207.381,-30.523"/>
<polygon fill="midnightblue" stroke="midnightblue" points="164.201,-58.6631 158.319,-67.4751 168.412,-64.2547 164.201,-58.6631"/>
</g>
</g>
</svg>
