<?xml version="1.0" encoding="UTF-8" standalone="no"?>
<!DOCTYPE svg PUBLIC "-//W3C//DTD SVG 1.1//EN"
 "http://www.w3.org/Graphics/SVG/1.1/DTD/svg11.dtd">
<!-- Generated by graphviz version 2.38.0 (20140413.2041)
 -->
<!-- Title: Data/Root/RootDataIO.cpp Pages: 1 -->
<!--zoomable 274 -->
<svg id="main" version="1.1" xmlns="http://www.w3.org/2000/svg" xmlns:xlink="http://www.w3.org/1999/xlink" xml:space="preserve" onload="init(evt)">
<style type="text/css"><![CDATA[
.edge:hover path { stroke: red; }
.edge:hover polygon { stroke: red; fill: red; }
]]></style>
<script type="text/javascript"><![CDATA[
var edges = document.getElementsByTagName('g');
if (edges && edges.length) {
  for (var i=0;i<edges.length;i++) {
    if (edges[i].id.substr(0,4)=='edge') {
      edges[i].setAttribute('class','edge');
    }
  }
}
]]></script>
        <defs>
                <circle id="rim" cx="0" cy="0" r="7"/>
                <circle id="rim2" cx="0" cy="0" r="3.5"/>
                <g id="zoomPlus">
                        <use xlink:href="#rim" fill="#404040">
                                <set attributeName="fill" to="#808080" begin="zoomplus.mouseover" end="zoomplus.mouseout"/>
                        </use>
                        <path d="M-4,0h8M0,-4v8" fill="none" stroke="white" stroke-width="1.5" pointer-events="none"/>
                </g>
                <g id="zoomMin">
                        <use xlink:href="#rim" fill="#404040">
                                <set attributeName="fill" to="#808080" begin="zoomminus.mouseover" end="zoomminus.mouseout"/>
                        </use>
                        <path d="M-4,0h8" fill="none" stroke="white" stroke-width="1.5" pointer-events="none"/>
                </g>
                <g id="dirArrow">
                        <path fill="none" stroke="white" stroke-width="1.5" d="M0,-3.0v7 M-2.5,-0.5L0,-3.0L2.5,-0.5"/>
                </g>
               <g id="resetDef">
                       <use xlink:href="#rim2" fill="#404040">
                               <set attributeName="fill" to="#808080" begin="reset.mouseover" end="reset.mouseout"/>
                       </use>
               </g>
        </defs>

<script type="text/javascript">
var viewWidth = 1375;
var viewHeight = 274;
var sectionId = 'dynsection-0';
</script>
<script xlink:href="svgpan.js"/>
<svg id="graph" class="graph">
<g id="viewport">
<title>Data/Root/RootDataIO.cpp</title>
<polygon fill="white" stroke="none" points="-4,4 -4,-270 1371,-270 1371,4 -4,4"/>
<!-- Node1 -->
<g id="node1" class="node"><title>Node1</title>
<polygon fill="#bfbfbf" stroke="black" points="707,-246.5 707,-265.5 843,-265.5 843,-246.5 707,-246.5"/>
<text text-anchor="middle" x="775" y="-253.5" font-family="Helvetica,sans-Serif" font-size="10.00">Data/Root/RootDataIO.cpp</text>
</g>
<!-- Node2 -->
<g id="node2" class="node"><title>Node2</title>
<polygon fill="white" stroke="#bfbfbf" points="165.5,-190.5 165.5,-209.5 194.5,-209.5 194.5,-190.5 165.5,-190.5"/>
<text text-anchor="middle" x="180" y="-197.5" font-family="Helvetica,sans-Serif" font-size="10.00">list</text>
</g>
<!-- Node1&#45;&gt;Node2 -->
<g id="edge1" class="edge"><title>Node1&#45;&gt;Node2</title>
<path fill="none" stroke="midnightblue" d="M706.85,-255.743C600.757,-255.565 389.945,-249.851 204.457,-209.393"/>
<polygon fill="midnightblue" stroke="midnightblue" points="205.046,-205.938 194.525,-207.187 203.529,-212.772 205.046,-205.938"/>
</g>
<!-- Node3 -->
<g id="node3" class="node"><title>Node3</title>
<g id="a_node3"><a xlink:href="RootDataIO_8hpp.html" target="_top" xlink:title="RootDataIO.hpp">
<polygon fill="white" stroke="black" points="213,-190.5 213,-209.5 301,-209.5 301,-190.5 213,-190.5"/>
<text text-anchor="middle" x="257" y="-197.5" font-family="Helvetica,sans-Serif" font-size="10.00">RootDataIO.hpp</text>
</a>
</g>
</g>
<!-- Node1&#45;&gt;Node3 -->
<g id="edge2" class="edge"><title>Node1&#45;&gt;Node3</title>
<path fill="none" stroke="midnightblue" d="M706.671,-249.528C616.715,-242.047 453.719,-227.534 315,-210 313.749,-209.842 312.483,-209.678 311.207,-209.509"/>
<polygon fill="midnightblue" stroke="midnightblue" points="311.683,-206.042 301.297,-208.137 310.723,-212.976 311.683,-206.042"/>
</g>
<!-- Node8 -->
<g id="node8" class="node"><title>Node8</title>
<polygon fill="white" stroke="#bfbfbf" points="775,-190.5 775,-209.5 831,-209.5 831,-190.5 775,-190.5"/>
<text text-anchor="middle" x="803" y="-197.5" font-family="Helvetica,sans-Serif" font-size="10.00">TChain.h</text>
</g>
<!-- Node1&#45;&gt;Node8 -->
<g id="edge7" class="edge"><title>Node1&#45;&gt;Node8</title>
<path fill="none" stroke="midnightblue" d="M779.624,-246.083C783.456,-238.691 789.024,-227.953 793.765,-218.811"/>
<polygon fill="midnightblue" stroke="midnightblue" points="796.966,-220.24 798.462,-209.751 790.752,-217.018 796.966,-220.24"/>
</g>
<!-- Node9 -->
<g id="node9" class="node"><title>Node9</title>
<polygon fill="white" stroke="#bfbfbf" points="849.5,-190.5 849.5,-209.5 934.5,-209.5 934.5,-190.5 849.5,-190.5"/>
<text text-anchor="middle" x="892" y="-197.5" font-family="Helvetica,sans-Serif" font-size="10.00">TClonesArray.h</text>
</g>
<!-- Node1&#45;&gt;Node9 -->
<g id="edge8" class="edge"><title>Node1&#45;&gt;Node9</title>
<path fill="none" stroke="midnightblue" d="M793.539,-246.444C812.623,-237.636 842.575,-223.812 864.436,-213.722"/>
<polygon fill="midnightblue" stroke="midnightblue" points="865.935,-216.885 873.548,-209.516 863.001,-210.529 865.935,-216.885"/>
</g>
<!-- Node10 -->
<g id="node10" class="node"><title>Node10</title>
<polygon fill="white" stroke="#bfbfbf" points="953,-190.5 953,-209.5 1005,-209.5 1005,-190.5 953,-190.5"/>
<text text-anchor="middle" x="979" y="-197.5" font-family="Helvetica,sans-Serif" font-size="10.00">TError.h</text>
</g>
<!-- Node1&#45;&gt;Node10 -->
<g id="edge9" class="edge"><title>Node1&#45;&gt;Node10</title>
<path fill="none" stroke="midnightblue" d="M807.324,-246.444C844.349,-236.643 904.835,-220.632 943.242,-210.465"/>
<polygon fill="midnightblue" stroke="midnightblue" points="944.205,-213.831 952.976,-207.889 942.414,-207.064 944.205,-213.831"/>
</g>
<!-- Node11 -->
<g id="node11" class="node"><title>Node11</title>
<polygon fill="white" stroke="#bfbfbf" points="1023.5,-190.5 1023.5,-209.5 1070.5,-209.5 1070.5,-190.5 1023.5,-190.5"/>
<text text-anchor="middle" x="1047" y="-197.5" font-family="Helvetica,sans-Serif" font-size="10.00">TFile.h</text>
</g>
<!-- Node1&#45;&gt;Node11 -->
<g id="edge10" class="edge"><title>Node1&#45;&gt;Node11</title>
<path fill="none" stroke="midnightblue" d="M826.999,-246.447C873.399,-238.536 943.381,-225.921 1013.39,-209.988"/>
<polygon fill="midnightblue" stroke="midnightblue" points="1014.3,-213.369 1023.26,-207.718 1012.73,-206.547 1014.3,-213.369"/>
</g>
<!-- Node12 -->
<g id="node12" class="node"><title>Node12</title>
<polygon fill="white" stroke="#bfbfbf" points="1089,-190.5 1089,-209.5 1181,-209.5 1181,-190.5 1089,-190.5"/>
<text text-anchor="middle" x="1135" y="-197.5" font-family="Helvetica,sans-Serif" font-size="10.00">TLorentzVector.h</text>
</g>
<!-- Node1&#45;&gt;Node12 -->
<g id="edge11" class="edge"><title>Node1&#45;&gt;Node12</title>
<path fill="none" stroke="midnightblue" d="M834.654,-246.481C894.005,-237.942 987.957,-224.252 1078.87,-210.157"/>
<polygon fill="midnightblue" stroke="midnightblue" points="1079.45,-213.609 1088.79,-208.615 1078.38,-206.692 1079.45,-213.609"/>
</g>
<!-- Node13 -->
<g id="node13" class="node"><title>Node13</title>
<polygon fill="white" stroke="#bfbfbf" points="1199,-190.5 1199,-209.5 1263,-209.5 1263,-190.5 1199,-190.5"/>
<text text-anchor="middle" x="1231" y="-197.5" font-family="Helvetica,sans-Serif" font-size="10.00">TParticle.h</text>
</g>
<!-- Node1&#45;&gt;Node13 -->
<g id="edge12" class="edge"><title>Node1&#45;&gt;Node13</title>
<path fill="none" stroke="midnightblue" d="M843.236,-249.877C923.629,-243.33 1061.38,-230.52 1188.89,-210.023"/>
<polygon fill="midnightblue" stroke="midnightblue" points="1189.53,-213.465 1198.83,-208.405 1188.4,-206.556 1189.53,-213.465"/>
</g>
<!-- Node14 -->
<g id="node14" class="node"><title>Node14</title>
<polygon fill="white" stroke="#bfbfbf" points="1281,-190.5 1281,-209.5 1367,-209.5 1367,-190.5 1281,-190.5"/>
<text text-anchor="middle" x="1324" y="-197.5" font-family="Helvetica,sans-Serif" font-size="10.00">TParticlePDG.h</text>
</g>
<!-- Node1&#45;&gt;Node14 -->
<g id="edge13" class="edge"><title>Node1&#45;&gt;Node14</title>
<path fill="none" stroke="midnightblue" d="M843.122,-250.589C937.089,-244.113 1111.96,-230.658 1270.95,-210.039"/>
<polygon fill="midnightblue" stroke="midnightblue" points="1271.45,-213.503 1280.91,-208.735 1270.54,-206.563 1271.45,-213.503"/>
</g>
<!-- Node15 -->
<g id="node15" class="node"><title>Node15</title>
<g id="a_node15"><a xlink:href="Exceptions_8hpp.html" target="_top" xlink:title="ComPWA exceptions. ">
<polygon fill="white" stroke="black" points="452,-129 452,-148 560,-148 560,-129 452,-129"/>
<text text-anchor="middle" x="506" y="-136" font-family="Helvetica,sans-Serif" font-size="10.00">Core/Exceptions.hpp</text>
</a>
</g>
</g>
<!-- Node1&#45;&gt;Node15 -->
<g id="edge14" class="edge"><title>Node1&#45;&gt;Node15</title>
<path fill="none" stroke="midnightblue" d="M724.578,-246.438C690.104,-239.43 643.96,-227.739 606,-210 574.626,-195.339 542.656,-170.759 523.573,-154.84"/>
<polygon fill="midnightblue" stroke="midnightblue" points="525.648,-152.009 515.761,-148.201 521.115,-157.344 525.648,-152.009"/>
</g>
<!-- Node17 -->
<g id="node17" class="node"><title>Node17</title>
<g id="a_node17"><a xlink:href="Generator_8hpp.html" target="_top" xlink:title="Core/Generator.hpp">
<polygon fill="white" stroke="black" points="357,-190.5 357,-209.5 459,-209.5 459,-190.5 357,-190.5"/>
<text text-anchor="middle" x="408" y="-197.5" font-family="Helvetica,sans-Serif" font-size="10.00">Core/Generator.hpp</text>
</a>
</g>
</g>
<!-- Node1&#45;&gt;Node17 -->
<g id="edge17" class="edge"><title>Node1&#45;&gt;Node17</title>
<path fill="none" stroke="midnightblue" d="M716.848,-246.444C649.272,-236.501 538.255,-220.166 469.345,-210.026"/>
<polygon fill="midnightblue" stroke="midnightblue" points="469.48,-206.509 459.077,-208.515 468.461,-213.434 469.48,-206.509"/>
</g>
<!-- Node19 -->
<g id="node19" class="node"><title>Node19</title>
<g id="a_node19"><a xlink:href="Kinematics_8hpp.html" target="_top" xlink:title="Core/Kinematics.hpp">
<polygon fill="white" stroke="black" points="108,-129 108,-148 216,-148 216,-129 108,-129"/>
<text text-anchor="middle" x="162" y="-136" font-family="Helvetica,sans-Serif" font-size="10.00">Core/Kinematics.hpp</text>
</a>
</g>
</g>
<!-- Node1&#45;&gt;Node19 -->
<g id="edge20" class="edge"><title>Node1&#45;&gt;Node19</title>
<path fill="none" stroke="midnightblue" d="M706.877,-255.675C621.266,-254.755 470.684,-247.245 348,-210 329.738,-204.456 327.529,-197.549 310,-190 273.932,-174.467 231.372,-160.365 201.172,-151.035"/>
<polygon fill="midnightblue" stroke="midnightblue" points="202.018,-147.634 191.432,-148.059 199.972,-154.328 202.018,-147.634"/>
</g>
<!-- Node20 -->
<g id="node20" class="node"><title>Node20</title>
<g id="a_node20"><a xlink:href="Logging_8hpp.html" target="_top" xlink:title="Core/Logging.hpp">
<polygon fill="white" stroke="black" points="891.5,-67.5 891.5,-86.5 984.5,-86.5 984.5,-67.5 891.5,-67.5"/>
<text text-anchor="middle" x="938" y="-74.5" font-family="Helvetica,sans-Serif" font-size="10.00">Core/Logging.hpp</text>
</a>
</g>
</g>
<!-- Node1&#45;&gt;Node20 -->
<g id="edge23" class="edge"><title>Node1&#45;&gt;Node20</title>
<path fill="none" stroke="midnightblue" d="M770.081,-246.289C763.102,-232.639 752.583,-206.106 766,-190 822.689,-121.951 905.311,-222.049 962,-154 976.198,-136.957 963.202,-111.456 951.503,-94.7732"/>
<polygon fill="midnightblue" stroke="midnightblue" points="954.117,-92.4245 945.318,-86.5221 948.516,-96.623 954.117,-92.4245"/>
</g>
<!-- Node22 -->
<g id="node22" class="node"><title>Node22</title>
<g id="a_node22"><a xlink:href="Properties_8hpp.html" target="_top" xlink:title="Core/Properties.hpp">
<polygon fill="white" stroke="black" points="615,-190.5 615,-209.5 719,-209.5 719,-190.5 615,-190.5"/>
<text text-anchor="middle" x="667" y="-197.5" font-family="Helvetica,sans-Serif" font-size="10.00">Core/Properties.hpp</text>
</a>
</g>
</g>
<!-- Node1&#45;&gt;Node22 -->
<g id="edge25" class="edge"><title>Node1&#45;&gt;Node22</title>
<path fill="none" stroke="midnightblue" d="M757.648,-246.324C740.328,-237.664 713.485,-224.242 693.498,-214.249"/>
<polygon fill="midnightblue" stroke="midnightblue" points="694.819,-210.996 684.309,-209.655 691.688,-217.257 694.819,-210.996"/>
</g>
<!-- Node4 -->
<g id="node4" class="node"><title>Node4</title>
<polygon fill="white" stroke="#bfbfbf" points="0,-129 0,-148 52,-148 52,-129 0,-129"/>
<text text-anchor="middle" x="26" y="-136" font-family="Helvetica,sans-Serif" font-size="10.00">memory</text>
</g>
<!-- Node3&#45;&gt;Node4 -->
<g id="edge3" class="edge"><title>Node3&#45;&gt;Node4</title>
<path fill="none" stroke="midnightblue" d="M214.522,-190.475C175.568,-182.308 116.443,-169.029 66,-154 63.3697,-153.216 60.6602,-152.355 57.9501,-151.454"/>
<polygon fill="midnightblue" stroke="midnightblue" points="58.8668,-148.068 48.272,-148.093 56.5702,-154.68 58.8668,-148.068"/>
</g>
<!-- Node5 -->
<g id="node5" class="node"><title>Node5</title>
<polygon fill="white" stroke="#bfbfbf" points="279.5,-67.5 279.5,-86.5 320.5,-86.5 320.5,-67.5 279.5,-67.5"/>
<text text-anchor="middle" x="300" y="-74.5" font-family="Helvetica,sans-Serif" font-size="10.00">string</text>
</g>
<!-- Node3&#45;&gt;Node5 -->
<g id="edge4" class="edge"><title>Node3&#45;&gt;Node5</title>
<path fill="none" stroke="midnightblue" d="M217.96,-190.452C173.582,-180.344 106.304,-163.674 99,-154 90.6985,-143.004 90.3874,-133.754 99,-123 119.974,-96.8115 218.199,-84.8371 269.153,-80.3099"/>
<polygon fill="midnightblue" stroke="midnightblue" points="269.595,-83.7851 279.264,-79.4544 269.005,-76.8101 269.595,-83.7851"/>
</g>
<!-- Node6 -->
<g id="node6" class="node"><title>Node6</title>
<g id="a_node6"><a xlink:href="Event_8hpp.html" target="_top" xlink:title="Core/Event.hpp">
<polygon fill="white" stroke="red" points="234.5,-129 234.5,-148 319.5,-148 319.5,-129 234.5,-129"/>
<text text-anchor="middle" x="277" y="-136" font-family="Helvetica,sans-Serif" font-size="10.00">Core/Event.hpp</text>
</a>
</g>
</g>
<!-- Node3&#45;&gt;Node6 -->
<g id="edge5" class="edge"><title>Node3&#45;&gt;Node6</title>
<path fill="none" stroke="midnightblue" d="M259.866,-190.475C262.717,-181.992 267.183,-168.704 270.841,-157.822"/>
<polygon fill="midnightblue" stroke="midnightblue" points="274.271,-158.603 274.14,-148.009 267.636,-156.373 274.271,-158.603"/>
</g>
<!-- Node7 -->
<g id="node7" class="node"><title>Node7</title>
<polygon fill="white" stroke="#bfbfbf" points="560,-67.5 560,-86.5 604,-86.5 604,-67.5 560,-67.5"/>
<text text-anchor="middle" x="582" y="-74.5" font-family="Helvetica,sans-Serif" font-size="10.00">vector</text>
</g>
<!-- Node6&#45;&gt;Node7 -->
<g id="edge6" class="edge"><title>Node6&#45;&gt;Node7</title>
<path fill="none" stroke="midnightblue" d="M305.47,-128.97C313.074,-126.855 321.315,-124.707 329,-123 424.009,-101.899 449.652,-106.515 545,-87 546.498,-86.6935 548.027,-86.3689 549.569,-86.032"/>
<polygon fill="midnightblue" stroke="midnightblue" points="550.793,-89.3422 559.755,-83.6914 549.225,-82.52 550.793,-89.3422"/>
</g>
<!-- Node15&#45;&gt;Node5 -->
<g id="edge16" class="edge"><title>Node15&#45;&gt;Node5</title>
<path fill="none" stroke="midnightblue" d="M476.485,-128.975C437.678,-117.766 369.829,-98.1691 330.525,-86.8167"/>
<polygon fill="midnightblue" stroke="midnightblue" points="331.292,-83.3951 320.713,-83.9827 329.349,-90.1202 331.292,-83.3951"/>
</g>
<!-- Node16 -->
<g id="node16" class="node"><title>Node16</title>
<polygon fill="white" stroke="#bfbfbf" points="476.5,-67.5 476.5,-86.5 535.5,-86.5 535.5,-67.5 476.5,-67.5"/>
<text text-anchor="middle" x="506" y="-74.5" font-family="Helvetica,sans-Serif" font-size="10.00">exception</text>
</g>
<!-- Node15&#45;&gt;Node16 -->
<g id="edge15" class="edge"><title>Node15&#45;&gt;Node16</title>
<path fill="none" stroke="midnightblue" d="M506,-128.975C506,-120.58 506,-107.481 506,-96.6631"/>
<polygon fill="midnightblue" stroke="midnightblue" points="509.5,-96.5091 506,-86.5091 502.5,-96.5091 509.5,-96.5091"/>
</g>
<!-- Node17&#45;&gt;Node6 -->
<g id="edge18" class="edge"><title>Node17&#45;&gt;Node6</title>
<path fill="none" stroke="midnightblue" d="M389.231,-190.475C367.149,-180.445 330.281,-163.7 304.861,-152.155"/>
<polygon fill="midnightblue" stroke="midnightblue" points="306.287,-148.958 295.734,-148.009 303.392,-155.331 306.287,-148.958"/>
</g>
<!-- Node18 -->
<g id="node18" class="node"><title>Node18</title>
<g id="a_node18"><a xlink:href="Random_8hpp.html" target="_top" xlink:title="Core/Random.hpp">
<polygon fill="white" stroke="red" points="338,-129 338,-148 434,-148 434,-129 338,-129"/>
<text text-anchor="middle" x="386" y="-136" font-family="Helvetica,sans-Serif" font-size="10.00">Core/Random.hpp</text>
</a>
</g>
</g>
<!-- Node17&#45;&gt;Node18 -->
<g id="edge19" class="edge"><title>Node17&#45;&gt;Node18</title>
<path fill="none" stroke="midnightblue" d="M404.848,-190.475C401.679,-181.904 396.696,-168.427 392.649,-157.483"/>
<polygon fill="midnightblue" stroke="midnightblue" points="395.897,-156.175 389.146,-148.009 389.332,-158.602 395.897,-156.175"/>
</g>
<!-- Node19&#45;&gt;Node5 -->
<g id="edge21" class="edge"><title>Node19&#45;&gt;Node5</title>
<path fill="none" stroke="midnightblue" d="M181.772,-128.975C205.136,-118.901 244.214,-102.053 271.003,-90.5023"/>
<polygon fill="midnightblue" stroke="midnightblue" points="272.468,-93.6824 280.265,-86.5091 269.696,-87.2544 272.468,-93.6824"/>
</g>
<!-- Node19&#45;&gt;Node7 -->
<g id="edge22" class="edge"><title>Node19&#45;&gt;Node7</title>
<path fill="none" stroke="midnightblue" d="M195.86,-128.959C205.254,-126.794 215.486,-124.625 225,-123 366.077,-98.9103 404.074,-111.963 545,-87 546.505,-86.7333 548.041,-86.4414 549.588,-86.131"/>
<polygon fill="midnightblue" stroke="midnightblue" points="550.778,-89.453 559.792,-83.8849 549.273,-82.6166 550.778,-89.453"/>
</g>
<!-- Node21 -->
<g id="node21" class="node"><title>Node21</title>
<polygon fill="white" stroke="#bfbfbf" points="874.5,-0.5 874.5,-30.5 1001.5,-30.5 1001.5,-0.5 874.5,-0.5"/>
<text text-anchor="start" x="882.5" y="-18.5" font-family="Helvetica,sans-Serif" font-size="10.00">ThirdParty/easyloggingpp</text>
<text text-anchor="middle" x="938" y="-7.5" font-family="Helvetica,sans-Serif" font-size="10.00">/easylogging++.h</text>
</g>
<!-- Node20&#45;&gt;Node21 -->
<g id="edge24" class="edge"><title>Node20&#45;&gt;Node21</title>
<path fill="none" stroke="midnightblue" d="M938,-67.4751C938,-60.471 938,-50.1919 938,-40.6956"/>
<polygon fill="midnightblue" stroke="midnightblue" points="941.5,-40.5229 938,-30.523 934.5,-40.523 941.5,-40.5229"/>
</g>
<!-- Node22&#45;&gt;Node7 -->
<g id="edge34" class="edge"><title>Node22&#45;&gt;Node7</title>
<path fill="none" stroke="midnightblue" d="M651.105,-190.464C637.856,-182.602 619.372,-169.782 608,-154 595.547,-136.718 588.698,-113.002 585.199,-96.6823"/>
<polygon fill="midnightblue" stroke="midnightblue" points="588.612,-95.8941 583.285,-86.736 581.738,-97.2173 588.612,-95.8941"/>
</g>
<!-- Node22&#45;&gt;Node15 -->
<g id="edge26" class="edge"><title>Node22&#45;&gt;Node15</title>
<path fill="none" stroke="midnightblue" d="M643.933,-190.475C616.315,-180.269 569.88,-163.108 538.604,-151.549"/>
<polygon fill="midnightblue" stroke="midnightblue" points="539.618,-148.193 529.025,-148.009 537.191,-154.759 539.618,-148.193"/>
</g>
<!-- Node23 -->
<g id="node23" class="node"><title>Node23</title>
<g id="a_node23"><a xlink:href="FitParameter_8hpp.html" target="_top" xlink:title="Core/FitParameter.hpp">
<polygon fill="white" stroke="red" points="837,-129 837,-148 953,-148 953,-129 837,-129"/>
<text text-anchor="middle" x="895" y="-136" font-family="Helvetica,sans-Serif" font-size="10.00">Core/FitParameter.hpp</text>
</a>
</g>
</g>
<!-- Node22&#45;&gt;Node23 -->
<g id="edge27" class="edge"><title>Node22&#45;&gt;Node23</title>
<path fill="none" stroke="midnightblue" d="M699.667,-190.475C739.877,-179.982 808.258,-162.137 852.515,-150.587"/>
<polygon fill="midnightblue" stroke="midnightblue" points="853.602,-153.921 862.394,-148.009 851.834,-147.148 853.602,-153.921"/>
</g>
<!-- Node24 -->
<g id="node24" class="node"><title>Node24</title>
<polygon fill="white" stroke="#bfbfbf" points="616.5,-123.5 616.5,-153.5 717.5,-153.5 717.5,-123.5 616.5,-123.5"/>
<text text-anchor="start" x="624.5" y="-141.5" font-family="Helvetica,sans-Serif" font-size="10.00">boost/property_tree</text>
<text text-anchor="middle" x="667" y="-130.5" font-family="Helvetica,sans-Serif" font-size="10.00">/ptree.hpp</text>
</g>
<!-- Node22&#45;&gt;Node24 -->
<g id="edge31" class="edge"><title>Node22&#45;&gt;Node24</title>
<path fill="none" stroke="midnightblue" d="M667,-190.475C667,-183.471 667,-173.192 667,-163.696"/>
<polygon fill="midnightblue" stroke="midnightblue" points="670.5,-163.523 667,-153.523 663.5,-163.523 670.5,-163.523"/>
</g>
<!-- Node25 -->
<g id="node25" class="node"><title>Node25</title>
<polygon fill="white" stroke="#bfbfbf" points="735.5,-129 735.5,-148 770.5,-148 770.5,-129 735.5,-129"/>
<text text-anchor="middle" x="753" y="-136" font-family="Helvetica,sans-Serif" font-size="10.00">map</text>
</g>
<!-- Node22&#45;&gt;Node25 -->
<g id="edge32" class="edge"><title>Node22&#45;&gt;Node25</title>
<path fill="none" stroke="midnightblue" d="M679.322,-190.475C693.116,-180.931 715.699,-165.307 732.232,-153.868"/>
<polygon fill="midnightblue" stroke="midnightblue" points="734.469,-156.577 740.701,-148.009 730.486,-150.82 734.469,-156.577"/>
</g>
<!-- Node26 -->
<g id="node26" class="node"><title>Node26</title>
<polygon fill="white" stroke="#bfbfbf" points="789,-129 789,-148 819,-148 819,-129 789,-129"/>
<text text-anchor="middle" x="804" y="-136" font-family="Helvetica,sans-Serif" font-size="10.00">set</text>
</g>
<!-- Node22&#45;&gt;Node26 -->
<g id="edge33" class="edge"><title>Node22&#45;&gt;Node26</title>
<path fill="none" stroke="midnightblue" d="M691.753,-190.476C714.992,-182.164 750.501,-168.661 780,-154 780.545,-153.729 781.094,-153.45 781.645,-153.165"/>
<polygon fill="midnightblue" stroke="midnightblue" points="783.51,-156.131 790.512,-148.179 780.08,-150.03 783.51,-156.131"/>
</g>
<!-- Node23&#45;&gt;Node5 -->
<g id="edge29" class="edge"><title>Node23&#45;&gt;Node5</title>
<path fill="none" stroke="midnightblue" d="M859.689,-128.972C849.51,-126.755 838.357,-124.556 828,-123 730.882,-108.414 428.523,-86.8587 330.8,-80.1032"/>
<polygon fill="midnightblue" stroke="midnightblue" points="330.911,-76.6027 320.694,-79.407 330.43,-83.5861 330.911,-76.6027"/>
</g>
<!-- Node23&#45;&gt;Node7 -->
<g id="edge30" class="edge"><title>Node23&#45;&gt;Node7</title>
<path fill="none" stroke="midnightblue" d="M856.426,-128.93C847.13,-126.926 837.22,-124.84 828,-123 751.406,-107.71 660.983,-91.688 613.989,-83.5127"/>
<polygon fill="midnightblue" stroke="midnightblue" points="614.548,-80.0575 604.097,-81.7962 613.351,-86.9544 614.548,-80.0575"/>
</g>
<!-- Node23&#45;&gt;Node20 -->
<g id="edge28" class="edge"><title>Node23&#45;&gt;Node20</title>
<path fill="none" stroke="midnightblue" d="M901.161,-128.975C907.611,-120.05 917.904,-105.807 925.973,-94.6425"/>
<polygon fill="midnightblue" stroke="midnightblue" points="928.83,-96.6642 931.851,-86.5091 923.156,-92.564 928.83,-96.6642"/>
</g>
</g>
</svg>
        <g id="navigator" transform="translate(0 0)" fill="#404254">
                <rect fill="#f2f5e9" fill-opacity="0.5" stroke="#606060" stroke-width=".5" x="0" y="0" width="60" height="60"/>
                <use id="zoomplus" xlink:href="#zoomPlus" x="17" y="9" onmousedown="handleZoom(evt,'in')"/>
                <use id="zoomminus" xlink:href="#zoomMin" x="42" y="9" onmousedown="handleZoom(evt,'out')"/>
                <use id="reset" xlink:href="#resetDef" x="30" y="36" onmousedown="handleReset()"/>
                <g id="arrowUp" xlink:href="#dirArrow" transform="translate(30 24)" onmousedown="handlePan(0,-1)">
                  <use xlink:href="#rim" fill="#404040">
                        <set attributeName="fill" to="#808080" begin="arrowUp.mouseover" end="arrowUp.mouseout"/>
                  </use>
                  <path fill="none" stroke="white" stroke-width="1.5" d="M0,-3.0v7 M-2.5,-0.5L0,-3.0L2.5,-0.5"/>
                </g>
                <g id="arrowRight" xlink:href="#dirArrow" transform="rotate(90) translate(36 -43)" onmousedown="handlePan(1,0)">
                  <use xlink:href="#rim" fill="#404040">
                        <set attributeName="fill" to="#808080" begin="arrowRight.mouseover" end="arrowRight.mouseout"/>
                  </use>
                  <path fill="none" stroke="white" stroke-width="1.5" d="M0,-3.0v7 M-2.5,-0.5L0,-3.0L2.5,-0.5"/>
                </g>
                <g id="arrowDown" xlink:href="#dirArrow" transform="rotate(180) translate(-30 -48)" onmousedown="handlePan(0,1)">
                  <use xlink:href="#rim" fill="#404040">
                        <set attributeName="fill" to="#808080" begin="arrowDown.mouseover" end="arrowDown.mouseout"/>
                  </use>
                  <path fill="none" stroke="white" stroke-width="1.5" d="M0,-3.0v7 M-2.5,-0.5L0,-3.0L2.5,-0.5"/>
                </g>
                <g id="arrowLeft" xlink:href="#dirArrow" transform="rotate(270) translate(-36 17)" onmousedown="handlePan(-1,0)">
                  <use xlink:href="#rim" fill="#404040">
                        <set attributeName="fill" to="#808080" begin="arrowLeft.mouseover" end="arrowLeft.mouseout"/>
                  </use>
                  <path fill="none" stroke="white" stroke-width="1.5" d="M0,-3.0v7 M-2.5,-0.5L0,-3.0L2.5,-0.5"/>
                </g>
        </g>
        <svg viewBox="0 0 15 15" width="100%" height="30px" preserveAspectRatio="xMaxYMin meet">
         <g id="arrow_out" transform="scale(0.3 0.3)">
          <a xlink:href="RootDataIO_8cpp__incl_org.svg" target="_base">
           <rect id="button" ry="5" rx="5" y="6" x="6" height="38" width="38"
                fill="#f2f5e9" fill-opacity="0.5" stroke="#606060" stroke-width="1.0"/>
           <path id="arrow"
             d="M 11.500037,31.436501 C 11.940474,20.09759 22.043105,11.32322 32.158766,21.979434 L 37.068811,17.246167 C 37.068811,17.246167 37.088388,32 37.088388,32 L 22.160133,31.978069 C 22.160133,31.978069 26.997745,27.140456 26.997745,27.140456 C 18.528582,18.264221 13.291696,25.230495 11.500037,31.436501 z"
             style="fill:#404040;"/>
          </a>
         </g>
        </svg>
</svg>
