<?xml version="1.0" encoding="UTF-8" standalone="no"?>
<!DOCTYPE svg PUBLIC "-//W3C//DTD SVG 1.1//EN"
 "http://www.w3.org/Graphics/SVG/1.1/DTD/svg11.dtd">
<!-- Generated by graphviz version 2.38.0 (20140413.2041)
 -->
<!-- Title: Data/Root/RootGenerator.cpp Pages: 1 -->
<!--zoomable 319 -->
<svg id="main" version="1.1" xmlns="http://www.w3.org/2000/svg" xmlns:xlink="http://www.w3.org/1999/xlink" xml:space="preserve" onload="init(evt)">
<style type="text/css"><![CDATA[
.edge:hover path { stroke: red; }
.edge:hover polygon { stroke: red; fill: red; }
]]></style>
<script type="text/javascript"><![CDATA[
var edges = document.getElementsByTagName('g');
if (edges && edges.length) {
  for (var i=0;i<edges.length;i++) {
    if (edges[i].id.substr(0,4)=='edge') {
      edges[i].setAttribute('class','edge');
    }
  }
}
]]></script>
        <defs>
                <circle id="rim" cx="0" cy="0" r="7"/>
                <circle id="rim2" cx="0" cy="0" r="3.5"/>
                <g id="zoomPlus">
                        <use xlink:href="#rim" fill="#404040">
                                <set attributeName="fill" to="#808080" begin="zoomplus.mouseover" end="zoomplus.mouseout"/>
                        </use>
                        <path d="M-4,0h8M0,-4v8" fill="none" stroke="white" stroke-width="1.5" pointer-events="none"/>
                </g>
                <g id="zoomMin">
                        <use xlink:href="#rim" fill="#404040">
                                <set attributeName="fill" to="#808080" begin="zoomminus.mouseover" end="zoomminus.mouseout"/>
                        </use>
                        <path d="M-4,0h8" fill="none" stroke="white" stroke-width="1.5" pointer-events="none"/>
                </g>
                <g id="dirArrow">
                        <path fill="none" stroke="white" stroke-width="1.5" d="M0,-3.0v7 M-2.5,-0.5L0,-3.0L2.5,-0.5"/>
                </g>
               <g id="resetDef">
                       <use xlink:href="#rim2" fill="#404040">
                               <set attributeName="fill" to="#808080" begin="reset.mouseover" end="reset.mouseout"/>
                       </use>
               </g>
        </defs>

<script type="text/javascript">
var viewWidth = 863;
var viewHeight = 319;
var sectionId = 'dynsection-0';
</script>
<script xlink:href="svgpan.js"/>
<svg id="graph" class="graph">
<g id="viewport">
<title>Data/Root/RootGenerator.cpp</title>
<polygon fill="white" stroke="none" points="-4,4 -4,-315 859.258,-315 859.258,4 -4,4"/>
<!-- Node1 -->
<g id="node1" class="node"><title>Node1</title>
<polygon fill="#bfbfbf" stroke="black" points="469.258,-291.5 469.258,-310.5 616.258,-310.5 616.258,-291.5 469.258,-291.5"/>
<text text-anchor="middle" x="542.758" y="-298.5" font-family="Helvetica,sans-Serif" font-size="10.00">Data/Root/RootGenerator.cpp</text>
</g>
<!-- Node2 -->
<g id="node2" class="node"><title>Node2</title>
<g id="a_node2"><a xlink:href="RootGenerator_8hpp.html" target="_top" xlink:title="Data/Root/RootGenerator.hpp">
<polygon fill="white" stroke="black" points="315.258,-230 315.258,-249 462.258,-249 462.258,-230 315.258,-230"/>
<text text-anchor="middle" x="388.758" y="-237" font-family="Helvetica,sans-Serif" font-size="10.00">Data/Root/RootGenerator.hpp</text>
</a>
</g>
</g>
<!-- Node1&#45;&gt;Node2 -->
<g id="edge1" class="edge"><title>Node1&#45;&gt;Node2</title>
<path fill="none" stroke="midnightblue" d="M520.694,-291.475C494.392,-281.313 450.245,-264.256 420.334,-252.7"/>
<polygon fill="midnightblue" stroke="midnightblue" points="421.371,-249.348 410.782,-249.009 418.848,-255.878 421.371,-249.348"/>
</g>
<!-- Node10 -->
<g id="node10" class="node"><title>Node10</title>
<g id="a_node10"><a xlink:href="Event_8hpp.html" target="_top" xlink:title="Core/Event.hpp">
<polygon fill="white" stroke="black" points="505.258,-112.5 505.258,-131.5 590.258,-131.5 590.258,-112.5 505.258,-112.5"/>
<text text-anchor="middle" x="547.758" y="-119.5" font-family="Helvetica,sans-Serif" font-size="10.00">Core/Event.hpp</text>
</a>
</g>
</g>
<!-- Node1&#45;&gt;Node10 -->
<g id="edge17" class="edge"><title>Node1&#45;&gt;Node10</title>
<path fill="none" stroke="midnightblue" d="M542.427,-291.342C541.693,-270.235 540.186,-214.45 542.758,-168 543.237,-159.358 544.229,-149.825 545.204,-141.767"/>
<polygon fill="midnightblue" stroke="midnightblue" points="548.707,-141.969 546.516,-131.603 541.764,-141.073 548.707,-141.969"/>
</g>
<!-- Node12 -->
<g id="node12" class="node"><title>Node12</title>
<g id="a_node12"><a xlink:href="Random_8hpp.html" target="_top" xlink:title="Core/Random.hpp">
<polygon fill="white" stroke="red" points="8.75822,-112.5 8.75822,-131.5 104.758,-131.5 104.758,-112.5 8.75822,-112.5"/>
<text text-anchor="middle" x="56.7582" y="-119.5" font-family="Helvetica,sans-Serif" font-size="10.00">Core/Random.hpp</text>
</a>
</g>
</g>
<!-- Node1&#45;&gt;Node12 -->
<g id="edge20" class="edge"><title>Node1&#45;&gt;Node12</title>
<path fill="none" stroke="midnightblue" d="M469.178,-295.88C335.675,-286.691 62.0181,-259.407 4.75822,-188 -9.27537,-170.499 12.8283,-150.324 32.4049,-137.151"/>
<polygon fill="midnightblue" stroke="midnightblue" points="34.5268,-139.95 41.0828,-131.627 30.7676,-134.045 34.5268,-139.95"/>
</g>
<!-- Node13 -->
<g id="node13" class="node"><title>Node13</title>
<g id="a_node13"><a xlink:href="Properties_8hpp.html" target="_top" xlink:title="Core/Properties.hpp">
<polygon fill="white" stroke="red" points="611.758,-168.5 611.758,-187.5 715.758,-187.5 715.758,-168.5 611.758,-168.5"/>
<text text-anchor="middle" x="663.758" y="-175.5" font-family="Helvetica,sans-Serif" font-size="10.00">Core/Properties.hpp</text>
</a>
</g>
</g>
<!-- Node1&#45;&gt;Node13 -->
<g id="edge19" class="edge"><title>Node1&#45;&gt;Node13</title>
<path fill="none" stroke="midnightblue" d="M545.147,-291.467C549.778,-276.251 561.27,-244.145 580.758,-224 594.477,-209.819 613.646,-199.024 630.106,-191.567"/>
<polygon fill="midnightblue" stroke="midnightblue" points="631.618,-194.727 639.423,-187.562 628.853,-188.296 631.618,-194.727"/>
</g>
<!-- Node15 -->
<g id="node15" class="node"><title>Node15</title>
<g id="a_node15"><a xlink:href="Logging_8hpp.html" target="_top" xlink:title="Core/Logging.hpp">
<polygon fill="white" stroke="red" points="762.258,-230 762.258,-249 855.258,-249 855.258,-230 762.258,-230"/>
<text text-anchor="middle" x="808.758" y="-237" font-family="Helvetica,sans-Serif" font-size="10.00">Core/Logging.hpp</text>
</a>
</g>
</g>
<!-- Node1&#45;&gt;Node15 -->
<g id="edge18" class="edge"><title>Node1&#45;&gt;Node15</title>
<path fill="none" stroke="midnightblue" d="M585.11,-291.473C627.607,-282.787 694.884,-268.687 752.758,-255 757.401,-253.902 762.248,-252.712 767.065,-251.503"/>
<polygon fill="midnightblue" stroke="midnightblue" points="768.006,-254.875 776.833,-249.015 766.279,-248.091 768.006,-254.875"/>
</g>
<!-- Node16 -->
<g id="node16" class="node"><title>Node16</title>
<g id="a_node16"><a xlink:href="ParticleStateTransitionKinematicsInfo_8hpp.html" target="_top" xlink:title="Physics/ParticleStateTransition\lKinematicsInfo.hpp">
<polygon fill="white" stroke="black" points="589.758,-224.5 589.758,-254.5 743.758,-254.5 743.758,-224.5 589.758,-224.5"/>
<text text-anchor="start" x="597.758" y="-242.5" font-family="Helvetica,sans-Serif" font-size="10.00">Physics/ParticleStateTransition</text>
<text text-anchor="middle" x="666.758" y="-231.5" font-family="Helvetica,sans-Serif" font-size="10.00">KinematicsInfo.hpp</text>
</a>
</g>
</g>
<!-- Node1&#45;&gt;Node16 -->
<g id="edge21" class="edge"><title>Node1&#45;&gt;Node16</title>
<path fill="none" stroke="midnightblue" d="M560.524,-291.475C578.182,-283.002 605.827,-269.737 628.489,-258.863"/>
<polygon fill="midnightblue" stroke="midnightblue" points="630.032,-262.005 637.534,-254.523 627.004,-255.694 630.032,-262.005"/>
</g>
<!-- Node3 -->
<g id="node3" class="node"><title>Node3</title>
<polygon fill="white" stroke="#bfbfbf" points="443.758,-168.5 443.758,-187.5 495.758,-187.5 495.758,-168.5 443.758,-168.5"/>
<text text-anchor="middle" x="469.758" y="-175.5" font-family="Helvetica,sans-Serif" font-size="10.00">memory</text>
</g>
<!-- Node2&#45;&gt;Node3 -->
<g id="edge2" class="edge"><title>Node2&#45;&gt;Node3</title>
<path fill="none" stroke="midnightblue" d="M400.364,-229.975C413.235,-220.52 434.232,-205.096 449.764,-193.687"/>
<polygon fill="midnightblue" stroke="midnightblue" points="452.187,-196.25 458.174,-187.509 448.043,-190.608 452.187,-196.25"/>
</g>
<!-- Node4 -->
<g id="node4" class="node"><title>Node4</title>
<polygon fill="white" stroke="#bfbfbf" points="13.7582,-168.5 13.7582,-187.5 65.7582,-187.5 65.7582,-168.5 13.7582,-168.5"/>
<text text-anchor="middle" x="39.7582" y="-175.5" font-family="Helvetica,sans-Serif" font-size="10.00">sstream</text>
</g>
<!-- Node2&#45;&gt;Node4 -->
<g id="edge3" class="edge"><title>Node2&#45;&gt;Node4</title>
<path fill="none" stroke="midnightblue" d="M324.694,-229.962C263.253,-221.374 167.709,-206.978 76.0703,-188.122"/>
<polygon fill="midnightblue" stroke="midnightblue" points="76.5737,-184.652 66.0706,-186.043 75.1489,-191.506 76.5737,-184.652"/>
</g>
<!-- Node5 -->
<g id="node5" class="node"><title>Node5</title>
<polygon fill="white" stroke="#bfbfbf" points="552.258,-168.5 552.258,-187.5 593.258,-187.5 593.258,-168.5 552.258,-168.5"/>
<text text-anchor="middle" x="572.758" y="-175.5" font-family="Helvetica,sans-Serif" font-size="10.00">string</text>
</g>
<!-- Node2&#45;&gt;Node5 -->
<g id="edge4" class="edge"><title>Node2&#45;&gt;Node5</title>
<path fill="none" stroke="midnightblue" d="M415.121,-229.975C448.766,-219.095 506.847,-200.314 542.334,-188.838"/>
<polygon fill="midnightblue" stroke="midnightblue" points="543.699,-192.075 552.137,-185.668 541.545,-185.415 543.699,-192.075"/>
</g>
<!-- Node6 -->
<g id="node6" class="node"><title>Node6</title>
<polygon fill="white" stroke="#bfbfbf" points="607.758,-0.5 607.758,-19.5 651.758,-19.5 651.758,-0.5 607.758,-0.5"/>
<text text-anchor="middle" x="629.758" y="-7.5" font-family="Helvetica,sans-Serif" font-size="10.00">vector</text>
</g>
<!-- Node2&#45;&gt;Node6 -->
<g id="edge5" class="edge"><title>Node2&#45;&gt;Node6</title>
<path fill="none" stroke="midnightblue" d="M315.221,-232.44C259.195,-224.682 195.878,-207.18 222.758,-168 310.226,-40.5094 517.015,-16.5131 597.195,-12.0227"/>
<polygon fill="midnightblue" stroke="midnightblue" points="597.827,-15.496 607.643,-11.5098 597.484,-8.50441 597.827,-15.496"/>
</g>
<!-- Node7 -->
<g id="node7" class="node"><title>Node7</title>
<polygon fill="white" stroke="#bfbfbf" points="83.7582,-168.5 83.7582,-187.5 175.758,-187.5 175.758,-168.5 83.7582,-168.5"/>
<text text-anchor="middle" x="129.758" y="-175.5" font-family="Helvetica,sans-Serif" font-size="10.00">TLorentzVector.h</text>
</g>
<!-- Node2&#45;&gt;Node7 -->
<g id="edge6" class="edge"><title>Node2&#45;&gt;Node7</title>
<path fill="none" stroke="midnightblue" d="M351.65,-229.975C305.587,-219.393 226.984,-201.336 176.755,-189.797"/>
<polygon fill="midnightblue" stroke="midnightblue" points="177.328,-186.337 166.798,-187.509 175.76,-193.159 177.328,-186.337"/>
</g>
<!-- Node8 -->
<g id="node8" class="node"><title>Node8</title>
<polygon fill="white" stroke="#bfbfbf" points="352.258,-168.5 352.258,-187.5 425.258,-187.5 425.258,-168.5 352.258,-168.5"/>
<text text-anchor="middle" x="388.758" y="-175.5" font-family="Helvetica,sans-Serif" font-size="10.00">TRandom3.h</text>
</g>
<!-- Node2&#45;&gt;Node8 -->
<g id="edge7" class="edge"><title>Node2&#45;&gt;Node8</title>
<path fill="none" stroke="midnightblue" d="M388.758,-229.975C388.758,-221.58 388.758,-208.481 388.758,-197.663"/>
<polygon fill="midnightblue" stroke="midnightblue" points="392.258,-197.509 388.758,-187.509 385.258,-197.509 392.258,-197.509"/>
</g>
<!-- Node9 -->
<g id="node9" class="node"><title>Node9</title>
<g id="a_node9"><a xlink:href="Generator_8hpp.html" target="_top" xlink:title="Core/Generator.hpp">
<polygon fill="white" stroke="black" points="231.758,-168.5 231.758,-187.5 333.758,-187.5 333.758,-168.5 231.758,-168.5"/>
<text text-anchor="middle" x="282.758" y="-175.5" font-family="Helvetica,sans-Serif" font-size="10.00">Core/Generator.hpp</text>
</a>
</g>
</g>
<!-- Node2&#45;&gt;Node9 -->
<g id="edge8" class="edge"><title>Node2&#45;&gt;Node9</title>
<path fill="none" stroke="midnightblue" d="M373.571,-229.975C356.097,-220.166 327.18,-203.935 306.675,-192.425"/>
<polygon fill="midnightblue" stroke="midnightblue" points="308.351,-189.352 297.917,-187.509 304.924,-195.456 308.351,-189.352"/>
</g>
<!-- Node2&#45;&gt;Node13 -->
<g id="edge14" class="edge"><title>Node2&#45;&gt;Node13</title>
<path fill="none" stroke="midnightblue" d="M428.159,-229.975C477.271,-219.349 561.224,-201.185 614.524,-189.652"/>
<polygon fill="midnightblue" stroke="midnightblue" points="615.397,-193.045 624.431,-187.509 613.916,-186.203 615.397,-193.045"/>
</g>
<!-- Node9&#45;&gt;Node10 -->
<g id="edge9" class="edge"><title>Node9&#45;&gt;Node10</title>
<path fill="none" stroke="midnightblue" d="M324.748,-168.444C371.171,-158.984 445.986,-143.738 495.999,-133.547"/>
<polygon fill="midnightblue" stroke="midnightblue" points="496.865,-136.943 505.965,-131.516 495.467,-130.084 496.865,-136.943"/>
</g>
<!-- Node9&#45;&gt;Node12 -->
<g id="edge13" class="edge"><title>Node9&#45;&gt;Node12</title>
<path fill="none" stroke="midnightblue" d="M246.948,-168.444C207.771,-159.083 144.882,-144.056 102.243,-133.868"/>
<polygon fill="midnightblue" stroke="midnightblue" points="102.941,-130.436 92.401,-131.516 101.314,-137.245 102.941,-130.436"/>
</g>
<!-- Node10&#45;&gt;Node6 -->
<g id="edge12" class="edge"><title>Node10&#45;&gt;Node6</title>
<path fill="none" stroke="midnightblue" d="M554.193,-112.368C567.785,-94.135 599.623,-51.4257 617.328,-27.6752"/>
<polygon fill="midnightblue" stroke="midnightblue" points="620.183,-29.7007 623.354,-19.5914 614.571,-25.5171 620.183,-29.7007"/>
</g>
<!-- Node11 -->
<g id="node11" class="node"><title>Node11</title>
<g id="a_node11"><a xlink:href="Particle_8hpp.html" target="_top" xlink:title="Particle and FourMomentum class. ">
<polygon fill="white" stroke="red" points="657.758,-56.5 657.758,-75.5 749.758,-75.5 749.758,-56.5 657.758,-56.5"/>
<text text-anchor="middle" x="703.758" y="-63.5" font-family="Helvetica,sans-Serif" font-size="10.00">Core/Particle.hpp</text>
</a>
</g>
</g>
<!-- Node10&#45;&gt;Node11 -->
<g id="edge10" class="edge"><title>Node10&#45;&gt;Node11</title>
<path fill="none" stroke="midnightblue" d="M572.477,-112.444C598.607,-103.399 640.018,-89.064 669.335,-78.9158"/>
<polygon fill="midnightblue" stroke="midnightblue" points="670.85,-82.0951 679.155,-75.5164 668.56,-75.4801 670.85,-82.0951"/>
</g>
<!-- Node11&#45;&gt;Node6 -->
<g id="edge11" class="edge"><title>Node11&#45;&gt;Node6</title>
<path fill="none" stroke="midnightblue" d="M691.869,-56.324C680.608,-48.1066 663.472,-35.6017 650.049,-25.8069"/>
<polygon fill="midnightblue" stroke="midnightblue" points="652.005,-22.9014 641.864,-19.8339 647.879,-28.5559 652.005,-22.9014"/>
</g>
<!-- Node13&#45;&gt;Node6 -->
<g id="edge16" class="edge"><title>Node13&#45;&gt;Node6</title>
<path fill="none" stroke="midnightblue" d="M661.93,-168.075C656.578,-141.945 640.862,-65.2106 633.563,-29.577"/>
<polygon fill="midnightblue" stroke="midnightblue" points="636.949,-28.6624 631.513,-19.5681 630.091,-30.067 636.949,-28.6624"/>
</g>
<!-- Node14 -->
<g id="node14" class="node"><title>Node14</title>
<polygon fill="white" stroke="#bfbfbf" points="682.258,-112.5 682.258,-131.5 717.258,-131.5 717.258,-112.5 682.258,-112.5"/>
<text text-anchor="middle" x="699.758" y="-119.5" font-family="Helvetica,sans-Serif" font-size="10.00">map</text>
</g>
<!-- Node13&#45;&gt;Node14 -->
<g id="edge15" class="edge"><title>Node13&#45;&gt;Node14</title>
<path fill="none" stroke="midnightblue" d="M669.703,-168.083C674.736,-160.534 682.095,-149.495 688.272,-140.23"/>
<polygon fill="midnightblue" stroke="midnightblue" points="691.289,-142.013 693.924,-131.751 685.465,-138.13 691.289,-142.013"/>
</g>
<!-- Node16&#45;&gt;Node5 -->
<g id="edge23" class="edge"><title>Node16&#45;&gt;Node5</title>
<path fill="none" stroke="midnightblue" d="M644.482,-224.399C629.555,-214.951 609.977,-202.559 595.048,-193.109"/>
<polygon fill="midnightblue" stroke="midnightblue" points="596.758,-190.049 586.436,-187.658 593.014,-195.964 596.758,-190.049"/>
</g>
<!-- Node16&#45;&gt;Node6 -->
<g id="edge24" class="edge"><title>Node16&#45;&gt;Node6</title>
<path fill="none" stroke="midnightblue" d="M710.767,-224.307C727.852,-216.434 745.699,-204.754 755.758,-188 785.965,-137.69 792.739,-103.842 758.758,-56 736.95,-25.2953 692.569,-15.3677 662.006,-12.2557"/>
<polygon fill="midnightblue" stroke="midnightblue" points="662.085,-8.75044 651.831,-11.4163 661.51,-15.7267 662.085,-8.75044"/>
</g>
<!-- Node16&#45;&gt;Node11 -->
<g id="edge25" class="edge"><title>Node16&#45;&gt;Node11</title>
<path fill="none" stroke="midnightblue" d="M700.167,-224.338C715.146,-216.094 731.316,-204.106 739.758,-188 757.984,-153.23 733.082,-107.88 716.48,-83.7772"/>
<polygon fill="midnightblue" stroke="midnightblue" points="719.312,-81.7202 710.632,-75.6461 713.63,-85.8079 719.312,-81.7202"/>
</g>
<!-- Node16&#45;&gt;Node13 -->
<g id="edge26" class="edge"><title>Node16&#45;&gt;Node13</title>
<path fill="none" stroke="midnightblue" d="M666.047,-224.399C665.647,-216.466 665.143,-206.458 664.709,-197.858"/>
<polygon fill="midnightblue" stroke="midnightblue" points="668.194,-197.469 664.195,-187.658 661.203,-197.821 668.194,-197.469"/>
</g>
<!-- Node16&#45;&gt;Node14 -->
<g id="edge22" class="edge"><title>Node16&#45;&gt;Node14</title>
<path fill="none" stroke="midnightblue" d="M691.345,-224.295C703.853,-215.585 717.843,-203.189 724.758,-188 732.085,-171.907 722.881,-152.987 713.643,-139.723"/>
<polygon fill="midnightblue" stroke="midnightblue" points="716.275,-137.402 707.444,-131.548 710.697,-141.631 716.275,-137.402"/>
</g>
</g>
</svg>
        <g id="navigator" transform="translate(0 0)" fill="#404254">
                <rect fill="#f2f5e9" fill-opacity="0.5" stroke="#606060" stroke-width=".5" x="0" y="0" width="60" height="60"/>
                <use id="zoomplus" xlink:href="#zoomPlus" x="17" y="9" onmousedown="handleZoom(evt,'in')"/>
                <use id="zoomminus" xlink:href="#zoomMin" x="42" y="9" onmousedown="handleZoom(evt,'out')"/>
                <use id="reset" xlink:href="#resetDef" x="30" y="36" onmousedown="handleReset()"/>
                <g id="arrowUp" xlink:href="#dirArrow" transform="translate(30 24)" onmousedown="handlePan(0,-1)">
                  <use xlink:href="#rim" fill="#404040">
                        <set attributeName="fill" to="#808080" begin="arrowUp.mouseover" end="arrowUp.mouseout"/>
                  </use>
                  <path fill="none" stroke="white" stroke-width="1.5" d="M0,-3.0v7 M-2.5,-0.5L0,-3.0L2.5,-0.5"/>
                </g>
                <g id="arrowRight" xlink:href="#dirArrow" transform="rotate(90) translate(36 -43)" onmousedown="handlePan(1,0)">
                  <use xlink:href="#rim" fill="#404040">
                        <set attributeName="fill" to="#808080" begin="arrowRight.mouseover" end="arrowRight.mouseout"/>
                  </use>
                  <path fill="none" stroke="white" stroke-width="1.5" d="M0,-3.0v7 M-2.5,-0.5L0,-3.0L2.5,-0.5"/>
                </g>
                <g id="arrowDown" xlink:href="#dirArrow" transform="rotate(180) translate(-30 -48)" onmousedown="handlePan(0,1)">
                  <use xlink:href="#rim" fill="#404040">
                        <set attributeName="fill" to="#808080" begin="arrowDown.mouseover" end="arrowDown.mouseout"/>
                  </use>
                  <path fill="none" stroke="white" stroke-width="1.5" d="M0,-3.0v7 M-2.5,-0.5L0,-3.0L2.5,-0.5"/>
                </g>
                <g id="arrowLeft" xlink:href="#dirArrow" transform="rotate(270) translate(-36 17)" onmousedown="handlePan(-1,0)">
                  <use xlink:href="#rim" fill="#404040">
                        <set attributeName="fill" to="#808080" begin="arrowLeft.mouseover" end="arrowLeft.mouseout"/>
                  </use>
                  <path fill="none" stroke="white" stroke-width="1.5" d="M0,-3.0v7 M-2.5,-0.5L0,-3.0L2.5,-0.5"/>
                </g>
        </g>
        <svg viewBox="0 0 15 15" width="100%" height="30px" preserveAspectRatio="xMaxYMin meet">
         <g id="arrow_out" transform="scale(0.3 0.3)">
          <a xlink:href="RootGenerator_8cpp__incl_org.svg" target="_base">
           <rect id="button" ry="5" rx="5" y="6" x="6" height="38" width="38"
                fill="#f2f5e9" fill-opacity="0.5" stroke="#606060" stroke-width="1.0"/>
           <path id="arrow"
             d="M 11.500037,31.436501 C 11.940474,20.09759 22.043105,11.32322 32.158766,21.979434 L 37.068811,17.246167 C 37.068811,17.246167 37.088388,32 37.088388,32 L 22.160133,31.978069 C 22.160133,31.978069 26.997745,27.140456 26.997745,27.140456 C 18.528582,18.264221 13.291696,25.230495 11.500037,31.436501 z"
             style="fill:#404040;"/>
          </a>
         </g>
        </svg>
</svg>
