<?xml version="1.0" encoding="UTF-8" standalone="no"?>
<!DOCTYPE svg PUBLIC "-//W3C//DTD SVG 1.1//EN"
 "http://www.w3.org/Graphics/SVG/1.1/DTD/svg11.dtd">
<!-- Generated by graphviz version 2.38.0 (20140413.2041)
 -->
<!-- Title: Data/Root/RootGenerator.hpp Pages: 1 -->
<svg width="595pt" height="95pt"
 viewBox="0.00 0.00 594.50 95.00" xmlns="http://www.w3.org/2000/svg" xmlns:xlink="http://www.w3.org/1999/xlink">
<g id="graph0" class="graph" transform="scale(1 1) rotate(0) translate(4 91)">
<title>Data/Root/RootGenerator.hpp</title>
<polygon fill="white" stroke="none" points="-4,4 -4,-91 590.5,-91 590.5,4 -4,4"/>
<!-- Node1 -->
<g id="node1" class="node"><title>Node1</title>
<polygon fill="#bfbfbf" stroke="black" points="233,-67.5 233,-86.5 380,-86.5 380,-67.5 233,-67.5"/>
<text text-anchor="middle" x="306.5" y="-74.5" font-family="Helvetica,sans-Serif" font-size="10.00">Data/Root/RootGenerator.hpp</text>
</g>
<!-- Node2 -->
<g id="node2" class="node"><title>Node2</title>
<g id="a_node2"><a xlink:href="RootGenerator_8cpp.html" target="_top" xlink:title="Data/Root/RootGenerator.cpp">
<polygon fill="white" stroke="black" points="0,-6 0,-25 147,-25 147,-6 0,-6"/>
<text text-anchor="middle" x="73.5" y="-13" font-family="Helvetica,sans-Serif" font-size="10.00">Data/Root/RootGenerator.cpp</text>
</a>
</g>
</g>
<!-- Node1&#45;&gt;Node2 -->
<g id="edge1" class="edge"><title>Node1&#45;&gt;Node2</title>
<path fill="none" stroke="midnightblue" d="M263.301,-64.9685C218.057,-53.4147 147.971,-35.5173 106.821,-25.0091"/>
<polygon fill="midnightblue" stroke="midnightblue" points="262.562,-68.392 273.117,-67.4751 264.294,-61.6096 262.562,-68.392"/>
</g>
<!-- Node3 -->
<g id="node3" class="node"><title>Node3</title>
<g id="a_node3"><a xlink:href="DalitzFitD03K_8cpp.html" target="_top" xlink:title="Executable for Dalitz plot analysis of the decay D0 &#45;&gt; K_S K+ K&#45;. ">
<polygon fill="white" stroke="black" points="165,-0.5 165,-30.5 308,-30.5 308,-0.5 165,-0.5"/>
<text text-anchor="start" x="173" y="-18.5" font-family="Helvetica,sans-Serif" font-size="10.00">Examples/DalitzAnalysis</text>
<text text-anchor="middle" x="236.5" y="-7.5" font-family="Helvetica,sans-Serif" font-size="10.00">_D0KsKK/DalitzFitD03K.cpp</text>
</a>
</g>
</g>
<!-- Node1&#45;&gt;Node3 -->
<g id="edge2" class="edge"><title>Node1&#45;&gt;Node3</title>
<path fill="none" stroke="midnightblue" d="M288.761,-60.9215C277.769,-51.579 263.749,-39.6616 252.998,-30.523"/>
<polygon fill="midnightblue" stroke="midnightblue" points="286.585,-63.6654 296.471,-67.4751 291.118,-58.3318 286.585,-63.6654"/>
</g>
<!-- Node4 -->
<g id="node4" class="node"><title>Node4</title>
<g id="a_node4"><a xlink:href="DalitzFitApp_8cpp.html" target="_top" xlink:title="Simple Dalitz plot analysis with ComPWA. ">
<polygon fill="white" stroke="black" points="326.5,-0.5 326.5,-30.5 426.5,-30.5 426.5,-0.5 326.5,-0.5"/>
<text text-anchor="start" x="334.5" y="-18.5" font-family="Helvetica,sans-Serif" font-size="10.00">Examples/DalitzFit</text>
<text text-anchor="middle" x="376.5" y="-7.5" font-family="Helvetica,sans-Serif" font-size="10.00">/DalitzFitApp.cpp</text>
</a>
</g>
</g>
<!-- Node1&#45;&gt;Node4 -->
<g id="edge3" class="edge"><title>Node1&#45;&gt;Node4</title>
<path fill="none" stroke="midnightblue" d="M324.239,-60.9215C335.231,-51.579 349.251,-39.6616 360.002,-30.523"/>
<polygon fill="midnightblue" stroke="midnightblue" points="321.882,-58.3318 316.529,-67.4751 326.415,-63.6654 321.882,-58.3318"/>
</g>
<!-- Node5 -->
<g id="node5" class="node"><title>Node5</title>
<g id="a_node5"><a xlink:href="SimFit_8cpp.html" target="_top" xlink:title="Examples/SimFit/SimFit.cpp">
<polygon fill="white" stroke="black" points="444.5,-6 444.5,-25 586.5,-25 586.5,-6 444.5,-6"/>
<text text-anchor="middle" x="515.5" y="-13" font-family="Helvetica,sans-Serif" font-size="10.00">Examples/SimFit/SimFit.cpp</text>
</a>
</g>
</g>
<!-- Node1&#45;&gt;Node5 -->
<g id="edge4" class="edge"><title>Node1&#45;&gt;Node5</title>
<path fill="none" stroke="midnightblue" d="M346.277,-64.6759C386.888,-53.1144 449.01,-35.429 485.611,-25.0091"/>
<polygon fill="midnightblue" stroke="midnightblue" points="345.104,-61.3707 336.445,-67.4751 347.021,-68.1032 345.104,-61.3707"/>
</g>
</g>
</svg>
