<?xml version="1.0" encoding="UTF-8" standalone="no"?>
<!DOCTYPE svg PUBLIC "-//W3C//DTD SVG 1.1//EN"
 "http://www.w3.org/Graphics/SVG/1.1/DTD/svg11.dtd">
<!-- Generated by graphviz version 2.38.0 (20140413.2041)
 -->
<!-- Title: Tools/Plotting/RootPlotData.cpp Pages: 1 -->
<!--zoomable 330 -->
<svg id="main" version="1.1" xmlns="http://www.w3.org/2000/svg" xmlns:xlink="http://www.w3.org/1999/xlink" xml:space="preserve" onload="init(evt)">
<style type="text/css"><![CDATA[
.edge:hover path { stroke: red; }
.edge:hover polygon { stroke: red; fill: red; }
]]></style>
<script type="text/javascript"><![CDATA[
var edges = document.getElementsByTagName('g');
if (edges && edges.length) {
  for (var i=0;i<edges.length;i++) {
    if (edges[i].id.substr(0,4)=='edge') {
      edges[i].setAttribute('class','edge');
    }
  }
}
]]></script>
        <defs>
                <circle id="rim" cx="0" cy="0" r="7"/>
                <circle id="rim2" cx="0" cy="0" r="3.5"/>
                <g id="zoomPlus">
                        <use xlink:href="#rim" fill="#404040">
                                <set attributeName="fill" to="#808080" begin="zoomplus.mouseover" end="zoomplus.mouseout"/>
                        </use>
                        <path d="M-4,0h8M0,-4v8" fill="none" stroke="white" stroke-width="1.5" pointer-events="none"/>
                </g>
                <g id="zoomMin">
                        <use xlink:href="#rim" fill="#404040">
                                <set attributeName="fill" to="#808080" begin="zoomminus.mouseover" end="zoomminus.mouseout"/>
                        </use>
                        <path d="M-4,0h8" fill="none" stroke="white" stroke-width="1.5" pointer-events="none"/>
                </g>
                <g id="dirArrow">
                        <path fill="none" stroke="white" stroke-width="1.5" d="M0,-3.0v7 M-2.5,-0.5L0,-3.0L2.5,-0.5"/>
                </g>
               <g id="resetDef">
                       <use xlink:href="#rim2" fill="#404040">
                               <set attributeName="fill" to="#808080" begin="reset.mouseover" end="reset.mouseout"/>
                       </use>
               </g>
        </defs>

<script type="text/javascript">
var viewWidth = 1083;
var viewHeight = 330;
var sectionId = 'dynsection-0';
</script>
<script xlink:href="svgpan.js"/>
<svg id="graph" class="graph">
<g id="viewport">
<title>Tools/Plotting/RootPlotData.cpp</title>
<polygon fill="white" stroke="none" points="-4,4 -4,-326 1079.3,-326 1079.3,4 -4,4"/>
<!-- Node1 -->
<g id="node1" class="node"><title>Node1</title>
<polygon fill="#bfbfbf" stroke="black" points="600.296,-302.5 600.296,-321.5 758.296,-321.5 758.296,-302.5 600.296,-302.5"/>
<text text-anchor="middle" x="679.296" y="-309.5" font-family="Helvetica,sans-Serif" font-size="10.00">Tools/Plotting/RootPlotData.cpp</text>
</g>
<!-- Node2 -->
<g id="node2" class="node"><title>Node2</title>
<g id="a_node2"><a xlink:href="RootPlotData_8hpp.html" target="_top" xlink:title="Tools/Plotting/RootPlotData.hpp">
<polygon fill="white" stroke="black" points="313.296,-179.5 313.296,-198.5 471.296,-198.5 471.296,-179.5 313.296,-179.5"/>
<text text-anchor="middle" x="392.296" y="-186.5" font-family="Helvetica,sans-Serif" font-size="10.00">Tools/Plotting/RootPlotData.hpp</text>
</a>
</g>
</g>
<!-- Node1&#45;&gt;Node2 -->
<g id="edge1" class="edge"><title>Node1&#45;&gt;Node2</title>
<path fill="none" stroke="midnightblue" d="M607.984,-302.442C570.12,-295.959 523.622,-284.824 485.296,-266 454.414,-250.833 424.707,-223.645 407.489,-206.233"/>
<polygon fill="midnightblue" stroke="midnightblue" points="409.552,-203.331 400.089,-198.566 404.515,-208.192 409.552,-203.331"/>
</g>
<!-- Node8 -->
<g id="node8" class="node"><title>Node8</title>
<g id="a_node8"><a xlink:href="Logging_8hpp.html" target="_top" xlink:title="Core/Logging.hpp">
<polygon fill="white" stroke="red" points="570.796,-62 570.796,-81 663.796,-81 663.796,-62 570.796,-62"/>
<text text-anchor="middle" x="617.296" y="-69" font-family="Helvetica,sans-Serif" font-size="10.00">Core/Logging.hpp</text>
</a>
</g>
</g>
<!-- Node1&#45;&gt;Node8 -->
<g id="edge12" class="edge"><title>Node1&#45;&gt;Node8</title>
<path fill="none" stroke="midnightblue" d="M692.935,-302.474C723.723,-282.097 793.991,-228.567 768.296,-179 743.629,-131.418 686.846,-100.582 650.371,-84.9007"/>
<polygon fill="midnightblue" stroke="midnightblue" points="651.695,-81.6605 641.117,-81.0586 649.011,-88.1255 651.695,-81.6605"/>
</g>
<!-- Node9 -->
<g id="node9" class="node"><title>Node9</title>
<polygon fill="white" stroke="#bfbfbf" points="465.796,-123.5 465.796,-142.5 512.796,-142.5 512.796,-123.5 465.796,-123.5"/>
<text text-anchor="middle" x="489.296" y="-130.5" font-family="Helvetica,sans-Serif" font-size="10.00">TFile.h</text>
</g>
<!-- Node1&#45;&gt;Node9 -->
<g id="edge37" class="edge"><title>Node1&#45;&gt;Node9</title>
<path fill="none" stroke="midnightblue" d="M667.631,-302.405C655.886,-293.611 637.396,-279.377 622.296,-266 577.47,-226.29 528.342,-175.438 504.276,-149.999"/>
<polygon fill="midnightblue" stroke="midnightblue" points="506.785,-147.558 497.38,-142.679 501.69,-152.358 506.785,-147.558"/>
</g>
<!-- Node10 -->
<g id="node10" class="node"><title>Node10</title>
<g id="a_node10"><a xlink:href="ProgressBar_8hpp.html" target="_top" xlink:title="Core/ProgressBar.hpp">
<polygon fill="white" stroke="black" points="799.796,-241 799.796,-260 912.796,-260 912.796,-241 799.796,-241"/>
<text text-anchor="middle" x="856.296" y="-248" font-family="Helvetica,sans-Serif" font-size="10.00">Core/ProgressBar.hpp</text>
</a>
</g>
</g>
<!-- Node1&#45;&gt;Node10 -->
<g id="edge13" class="edge"><title>Node1&#45;&gt;Node10</title>
<path fill="none" stroke="midnightblue" d="M704.655,-302.475C735.28,-292.18 786.952,-274.81 821.341,-263.25"/>
<polygon fill="midnightblue" stroke="midnightblue" points="822.619,-266.513 830.983,-260.009 820.389,-259.878 822.619,-266.513"/>
</g>
<!-- Node12 -->
<g id="node12" class="node"><title>Node12</title>
<g id="a_node12"><a xlink:href="Properties_8hpp.html" target="_top" xlink:title="Core/Properties.hpp">
<polygon fill="white" stroke="black" points="95.2956,-179.5 95.2956,-198.5 199.296,-198.5 199.296,-179.5 95.2956,-179.5"/>
<text text-anchor="middle" x="147.296" y="-186.5" font-family="Helvetica,sans-Serif" font-size="10.00">Core/Properties.hpp</text>
</a>
</g>
</g>
<!-- Node1&#45;&gt;Node12 -->
<g id="edge15" class="edge"><title>Node1&#45;&gt;Node12</title>
<path fill="none" stroke="midnightblue" d="M600.229,-308.483C467.069,-303.578 209.287,-290.963 176.296,-266 158.474,-252.515 151.604,-226.66 148.956,-208.882"/>
<polygon fill="midnightblue" stroke="midnightblue" points="152.415,-208.331 147.773,-198.807 145.463,-209.147 152.415,-208.331"/>
</g>
<!-- Node16 -->
<g id="node16" class="node"><title>Node16</title>
<g id="a_node16"><a xlink:href="DataSet_8hpp.html" target="_top" xlink:title="Data/DataSet.hpp">
<polygon fill="white" stroke="black" points="631.796,-241 631.796,-260 726.796,-260 726.796,-241 631.796,-241"/>
<text text-anchor="middle" x="679.296" y="-248" font-family="Helvetica,sans-Serif" font-size="10.00">Data/DataSet.hpp</text>
</a>
</g>
</g>
<!-- Node1&#45;&gt;Node16 -->
<g id="edge23" class="edge"><title>Node1&#45;&gt;Node16</title>
<path fill="none" stroke="midnightblue" d="M679.296,-302.475C679.296,-294.08 679.296,-280.981 679.296,-270.163"/>
<polygon fill="midnightblue" stroke="midnightblue" points="682.796,-270.009 679.296,-260.009 675.796,-270.009 682.796,-270.009"/>
</g>
<!-- Node20 -->
<g id="node20" class="node"><title>Node20</title>
<g id="a_node20"><a xlink:href="ParticleStateTransitionKinematicsInfo_8hpp.html" target="_top" xlink:title="Physics/ParticleStateTransition\lKinematicsInfo.hpp">
<polygon fill="white" stroke="black" points="185.296,-235.5 185.296,-265.5 339.296,-265.5 339.296,-235.5 185.296,-235.5"/>
<text text-anchor="start" x="193.296" y="-253.5" font-family="Helvetica,sans-Serif" font-size="10.00">Physics/ParticleStateTransition</text>
<text text-anchor="middle" x="262.296" y="-242.5" font-family="Helvetica,sans-Serif" font-size="10.00">KinematicsInfo.hpp</text>
</a>
</g>
</g>
<!-- Node1&#45;&gt;Node20 -->
<g id="edge31" class="edge"><title>Node1&#45;&gt;Node20</title>
<path fill="none" stroke="midnightblue" d="M619.55,-302.475C548.821,-292.383 430.438,-275.492 349.478,-263.94"/>
<polygon fill="midnightblue" stroke="midnightblue" points="349.696,-260.435 339.302,-262.488 348.707,-267.365 349.696,-260.435"/>
</g>
<!-- Node21 -->
<g id="node21" class="node"><title>Node21</title>
<polygon fill="white" stroke="#bfbfbf" points="931.296,-241 931.296,-260 1007.3,-260 1007.3,-241 931.296,-241"/>
<text text-anchor="middle" x="969.296" y="-248" font-family="Helvetica,sans-Serif" font-size="10.00">TParameter.h</text>
</g>
<!-- Node1&#45;&gt;Node21 -->
<g id="edge38" class="edge"><title>Node1&#45;&gt;Node21</title>
<path fill="none" stroke="midnightblue" d="M734.928,-302.434C784.216,-294.423 857.973,-281.403 921.296,-266 925.181,-265.055 929.218,-263.982 933.227,-262.858"/>
<polygon fill="midnightblue" stroke="midnightblue" points="934.409,-266.159 943.03,-260 932.45,-259.438 934.409,-266.159"/>
</g>
<!-- Node22 -->
<g id="node22" class="node"><title>Node22</title>
<polygon fill="white" stroke="#bfbfbf" points="1025.3,-241 1025.3,-260 1075.3,-260 1075.3,-241 1025.3,-241"/>
<text text-anchor="middle" x="1050.3" y="-248" font-family="Helvetica,sans-Serif" font-size="10.00">TTree.h</text>
</g>
<!-- Node1&#45;&gt;Node22 -->
<g id="edge39" class="edge"><title>Node1&#45;&gt;Node22</title>
<path fill="none" stroke="midnightblue" d="M758.465,-306.488C827.531,-301.125 929.919,-289.713 1016.3,-266 1018.59,-265.369 1020.94,-264.617 1023.27,-263.791"/>
<polygon fill="midnightblue" stroke="midnightblue" points="1024.6,-267.029 1032.62,-260.106 1022.04,-260.516 1024.6,-267.029"/>
</g>
<!-- Node3 -->
<g id="node3" class="node"><title>Node3</title>
<polygon fill="white" stroke="#bfbfbf" points="201.796,-123.5 201.796,-142.5 236.796,-142.5 236.796,-123.5 201.796,-123.5"/>
<text text-anchor="middle" x="219.296" y="-130.5" font-family="Helvetica,sans-Serif" font-size="10.00">map</text>
</g>
<!-- Node2&#45;&gt;Node3 -->
<g id="edge2" class="edge"><title>Node2&#45;&gt;Node3</title>
<path fill="none" stroke="midnightblue" d="M364.883,-179.444C332.558,-169.354 279.144,-152.681 246.785,-142.581"/>
<polygon fill="midnightblue" stroke="midnightblue" points="247.661,-139.187 237.072,-139.549 245.575,-145.869 247.661,-139.187"/>
</g>
<!-- Node4 -->
<g id="node4" class="node"><title>Node4</title>
<g id="a_node4"><a xlink:href="FitParameter_8hpp.html" target="_top" xlink:title="Core/FitParameter.hpp">
<polygon fill="white" stroke="red" points="293.296,-123.5 293.296,-142.5 409.296,-142.5 409.296,-123.5 293.296,-123.5"/>
<text text-anchor="middle" x="351.296" y="-130.5" font-family="Helvetica,sans-Serif" font-size="10.00">Core/FitParameter.hpp</text>
</a>
</g>
</g>
<!-- Node2&#45;&gt;Node4 -->
<g id="edge3" class="edge"><title>Node2&#45;&gt;Node4</title>
<path fill="none" stroke="midnightblue" d="M385.525,-179.083C379.734,-171.455 371.237,-160.264 364.158,-150.941"/>
<polygon fill="midnightblue" stroke="midnightblue" points="366.775,-148.599 357.94,-142.751 361.2,-152.832 366.775,-148.599"/>
</g>
<!-- Node5 -->
<g id="node5" class="node"><title>Node5</title>
<g id="a_node5"><a xlink:href="Function_8hpp.html" target="_top" xlink:title="Core/Function.hpp">
<polygon fill="white" stroke="red" points="416.796,-62 416.796,-81 513.796,-81 513.796,-62 416.796,-62"/>
<text text-anchor="middle" x="465.296" y="-69" font-family="Helvetica,sans-Serif" font-size="10.00">Core/Function.hpp</text>
</a>
</g>
</g>
<!-- Node2&#45;&gt;Node5 -->
<g id="edge10" class="edge"><title>Node2&#45;&gt;Node5</title>
<path fill="none" stroke="midnightblue" d="M397.783,-179.319C409.779,-160.339 438.53,-114.848 454.369,-89.7882"/>
<polygon fill="midnightblue" stroke="midnightblue" points="457.361,-91.6051 459.745,-81.282 451.444,-87.8652 457.361,-91.6051"/>
</g>
<!-- Node2&#45;&gt;Node9 -->
<g id="edge11" class="edge"><title>Node2&#45;&gt;Node9</title>
<path fill="none" stroke="midnightblue" d="M407.88,-179.324C423.295,-170.743 447.108,-157.486 465.005,-147.522"/>
<polygon fill="midnightblue" stroke="midnightblue" points="466.715,-150.577 473.75,-142.655 463.31,-144.461 466.715,-150.577"/>
</g>
<!-- Node4&#45;&gt;Node5 -->
<g id="edge4" class="edge"><title>Node4&#45;&gt;Node5</title>
<path fill="none" stroke="midnightblue" d="M367.629,-123.475C386.507,-113.622 417.802,-97.2883 439.871,-85.7697"/>
<polygon fill="midnightblue" stroke="midnightblue" points="441.747,-88.7389 448.993,-81.0091 438.508,-82.5333 441.747,-88.7389"/>
</g>
<!-- Node6 -->
<g id="node6" class="node"><title>Node6</title>
<polygon fill="white" stroke="#bfbfbf" points="112.796,-0.5 112.796,-19.5 153.796,-19.5 153.796,-0.5 112.796,-0.5"/>
<text text-anchor="middle" x="133.296" y="-7.5" font-family="Helvetica,sans-Serif" font-size="10.00">string</text>
</g>
<!-- Node4&#45;&gt;Node6 -->
<g id="edge8" class="edge"><title>Node4&#45;&gt;Node6</title>
<path fill="none" stroke="midnightblue" d="M335.966,-123.492C298.688,-102.8 203.038,-49.71 157.758,-24.5779"/>
<polygon fill="midnightblue" stroke="midnightblue" points="159.342,-21.4539 148.9,-19.661 155.945,-27.5743 159.342,-21.4539"/>
</g>
<!-- Node7 -->
<g id="node7" class="node"><title>Node7</title>
<polygon fill="white" stroke="#bfbfbf" points="345.296,-0.5 345.296,-19.5 389.296,-19.5 389.296,-0.5 345.296,-0.5"/>
<text text-anchor="middle" x="367.296" y="-7.5" font-family="Helvetica,sans-Serif" font-size="10.00">vector</text>
</g>
<!-- Node4&#45;&gt;Node7 -->
<g id="edge9" class="edge"><title>Node4&#45;&gt;Node7</title>
<path fill="none" stroke="midnightblue" d="M330.448,-123.427C315.718,-116.129 297.091,-104.091 288.296,-87 281.991,-74.7492 281.372,-67.9118 288.296,-56 298.44,-38.5462 318.167,-27.3002 335.369,-20.4157"/>
<polygon fill="midnightblue" stroke="midnightblue" points="336.925,-23.5737 345.114,-16.8522 334.521,-16.9994 336.925,-23.5737"/>
</g>
<!-- Node4&#45;&gt;Node8 -->
<g id="edge7" class="edge"><title>Node4&#45;&gt;Node8</title>
<path fill="none" stroke="midnightblue" d="M389.407,-123.475C436.813,-112.871 517.779,-94.7602 569.351,-83.2244"/>
<polygon fill="midnightblue" stroke="midnightblue" points="570.26,-86.6077 579.255,-81.0091 568.732,-79.7765 570.26,-86.6077"/>
</g>
<!-- Node5&#45;&gt;Node6 -->
<g id="edge5" class="edge"><title>Node5&#45;&gt;Node6</title>
<path fill="none" stroke="midnightblue" d="M433.191,-61.974C424.795,-59.8817 415.732,-57.7443 407.296,-56 319.59,-37.8666 214.875,-22.3525 164.032,-15.2063"/>
<polygon fill="midnightblue" stroke="midnightblue" points="164.413,-11.7257 154.026,-13.8105 163.446,-18.6586 164.413,-11.7257"/>
</g>
<!-- Node5&#45;&gt;Node7 -->
<g id="edge6" class="edge"><title>Node5&#45;&gt;Node7</title>
<path fill="none" stroke="midnightblue" d="M451.255,-61.9751C435.245,-52.2548 408.845,-36.2266 389.922,-24.7372"/>
<polygon fill="midnightblue" stroke="midnightblue" points="391.675,-21.7072 381.311,-19.5091 388.042,-27.6907 391.675,-21.7072"/>
</g>
<!-- Node11 -->
<g id="node11" class="node"><title>Node11</title>
<polygon fill="white" stroke="#bfbfbf" points="835.796,-179.5 835.796,-198.5 876.796,-198.5 876.796,-179.5 835.796,-179.5"/>
<text text-anchor="middle" x="856.296" y="-186.5" font-family="Helvetica,sans-Serif" font-size="10.00">ctime</text>
</g>
<!-- Node10&#45;&gt;Node11 -->
<g id="edge14" class="edge"><title>Node10&#45;&gt;Node11</title>
<path fill="none" stroke="midnightblue" d="M856.296,-240.975C856.296,-232.58 856.296,-219.481 856.296,-208.663"/>
<polygon fill="midnightblue" stroke="midnightblue" points="859.796,-208.509 856.296,-198.509 852.796,-208.509 859.796,-208.509"/>
</g>
<!-- Node12&#45;&gt;Node3 -->
<g id="edge20" class="edge"><title>Node12&#45;&gt;Node3</title>
<path fill="none" stroke="midnightblue" d="M158.864,-179.324C169.716,-171.185 186.176,-158.839 199.179,-149.087"/>
<polygon fill="midnightblue" stroke="midnightblue" points="201.617,-151.634 207.517,-142.834 197.417,-146.034 201.617,-151.634"/>
</g>
<!-- Node12&#45;&gt;Node4 -->
<g id="edge18" class="edge"><title>Node12&#45;&gt;Node4</title>
<path fill="none" stroke="midnightblue" d="M179.62,-179.444C214.685,-170.162 270.794,-155.309 309.26,-145.127"/>
<polygon fill="midnightblue" stroke="midnightblue" points="310.351,-148.459 319.122,-142.516 308.56,-141.692 310.351,-148.459"/>
</g>
<!-- Node12&#45;&gt;Node7 -->
<g id="edge22" class="edge"><title>Node12&#45;&gt;Node7</title>
<path fill="none" stroke="midnightblue" d="M149.047,-179.472C154.441,-155.552 173.182,-87.5132 217.296,-56 252.775,-30.6551 302.668,-19.405 334.993,-14.5367"/>
<polygon fill="midnightblue" stroke="midnightblue" points="335.809,-17.9572 345.235,-13.1193 334.85,-11.0232 335.809,-17.9572"/>
</g>
<!-- Node13 -->
<g id="node13" class="node"><title>Node13</title>
<g id="a_node13"><a xlink:href="Exceptions_8hpp.html" target="_top" xlink:title="ComPWA exceptions. ">
<polygon fill="white" stroke="red" points="19.2956,-62 19.2956,-81 127.296,-81 127.296,-62 19.2956,-62"/>
<text text-anchor="middle" x="73.2956" y="-69" font-family="Helvetica,sans-Serif" font-size="10.00">Core/Exceptions.hpp</text>
</a>
</g>
</g>
<!-- Node12&#45;&gt;Node13 -->
<g id="edge16" class="edge"><title>Node12&#45;&gt;Node13</title>
<path fill="none" stroke="midnightblue" d="M141.734,-179.319C129.573,-160.339 100.428,-114.848 84.3721,-89.7882"/>
<polygon fill="midnightblue" stroke="midnightblue" points="87.264,-87.8139 78.9222,-81.282 81.3699,-91.5902 87.264,-87.8139"/>
</g>
<!-- Node14 -->
<g id="node14" class="node"><title>Node14</title>
<polygon fill="white" stroke="#bfbfbf" points="297.796,-56.5 297.796,-86.5 398.796,-86.5 398.796,-56.5 297.796,-56.5"/>
<text text-anchor="start" x="305.796" y="-74.5" font-family="Helvetica,sans-Serif" font-size="10.00">boost/property_tree</text>
<text text-anchor="middle" x="348.296" y="-63.5" font-family="Helvetica,sans-Serif" font-size="10.00">/ptree.hpp</text>
</g>
<!-- Node12&#45;&gt;Node14 -->
<g id="edge19" class="edge"><title>Node12&#45;&gt;Node14</title>
<path fill="none" stroke="midnightblue" d="M150.953,-179.494C157.335,-165.641 171.806,-138.229 192.296,-123 220.231,-102.237 257.067,-89.7881 287.929,-82.4472"/>
<polygon fill="midnightblue" stroke="midnightblue" points="288.736,-85.8533 297.721,-80.2392 287.196,-79.0247 288.736,-85.8533"/>
</g>
<!-- Node15 -->
<g id="node15" class="node"><title>Node15</title>
<polygon fill="white" stroke="#bfbfbf" points="39.2956,-123.5 39.2956,-142.5 69.2956,-142.5 69.2956,-123.5 39.2956,-123.5"/>
<text text-anchor="middle" x="54.2956" y="-130.5" font-family="Helvetica,sans-Serif" font-size="10.00">set</text>
</g>
<!-- Node12&#45;&gt;Node15 -->
<g id="edge21" class="edge"><title>Node12&#45;&gt;Node15</title>
<path fill="none" stroke="midnightblue" d="M132.354,-179.324C117.71,-170.822 95.162,-157.729 78.0579,-147.797"/>
<polygon fill="midnightblue" stroke="midnightblue" points="79.606,-144.649 69.2006,-142.655 76.091,-150.703 79.606,-144.649"/>
</g>
<!-- Node13&#45;&gt;Node6 -->
<g id="edge17" class="edge"><title>Node13&#45;&gt;Node6</title>
<path fill="none" stroke="midnightblue" d="M81.8922,-61.9751C91.1595,-52.785 106.113,-37.9563 117.508,-26.656"/>
<polygon fill="midnightblue" stroke="midnightblue" points="120.079,-29.0358 124.715,-19.5091 115.15,-24.0653 120.079,-29.0358"/>
</g>
<!-- Node16&#45;&gt;Node5 -->
<g id="edge30" class="edge"><title>Node16&#45;&gt;Node5</title>
<path fill="none" stroke="midnightblue" d="M678.84,-240.835C677.134,-217.776 669.15,-154.524 632.296,-123 602.023,-97.1061 558.779,-84.4893 523.881,-78.3417"/>
<polygon fill="midnightblue" stroke="midnightblue" points="524.243,-74.8547 513.811,-76.7038 523.119,-81.7639 524.243,-74.8547"/>
</g>
<!-- Node17 -->
<g id="node17" class="node"><title>Node17</title>
<polygon fill="white" stroke="#bfbfbf" points="707.296,-179.5 707.296,-198.5 759.296,-198.5 759.296,-179.5 707.296,-179.5"/>
<text text-anchor="middle" x="733.296" y="-186.5" font-family="Helvetica,sans-Serif" font-size="10.00">memory</text>
</g>
<!-- Node16&#45;&gt;Node17 -->
<g id="edge24" class="edge"><title>Node16&#45;&gt;Node17</title>
<path fill="none" stroke="midnightblue" d="M687.033,-240.975C695.293,-231.873 708.573,-217.241 718.79,-205.983"/>
<polygon fill="midnightblue" stroke="midnightblue" points="721.444,-208.266 725.573,-198.509 716.261,-203.562 721.444,-208.266"/>
</g>
<!-- Node18 -->
<g id="node18" class="node"><title>Node18</title>
<g id="a_node18"><a xlink:href="Event_8hpp.html" target="_top" xlink:title="Core/Event.hpp">
<polygon fill="white" stroke="black" points="565.796,-179.5 565.796,-198.5 650.796,-198.5 650.796,-179.5 565.796,-179.5"/>
<text text-anchor="middle" x="608.296" y="-186.5" font-family="Helvetica,sans-Serif" font-size="10.00">Core/Event.hpp</text>
</a>
</g>
</g>
<!-- Node16&#45;&gt;Node18 -->
<g id="edge25" class="edge"><title>Node16&#45;&gt;Node18</title>
<path fill="none" stroke="midnightblue" d="M669.123,-240.975C657.946,-231.608 639.779,-216.384 626.204,-205.008"/>
<polygon fill="midnightblue" stroke="midnightblue" points="628.362,-202.25 618.449,-198.509 623.866,-207.615 628.362,-202.25"/>
</g>
<!-- Node18&#45;&gt;Node7 -->
<g id="edge29" class="edge"><title>Node18&#45;&gt;Node7</title>
<path fill="none" stroke="midnightblue" d="M618.59,-179.406C644.246,-156.986 706.58,-95.7133 672.296,-56 637.363,-15.5357 471.259,-10.8205 399.945,-10.7021"/>
<polygon fill="midnightblue" stroke="midnightblue" points="399.738,-7.20227 389.742,-10.716 399.747,-14.2023 399.738,-7.20227"/>
</g>
<!-- Node19 -->
<g id="node19" class="node"><title>Node19</title>
<g id="a_node19"><a xlink:href="Particle_8hpp.html" target="_top" xlink:title="Particle and FourMomentum class. ">
<polygon fill="white" stroke="red" points="531.296,-123.5 531.296,-142.5 623.296,-142.5 623.296,-123.5 531.296,-123.5"/>
<text text-anchor="middle" x="577.296" y="-130.5" font-family="Helvetica,sans-Serif" font-size="10.00">Core/Particle.hpp</text>
</a>
</g>
</g>
<!-- Node18&#45;&gt;Node19 -->
<g id="edge26" class="edge"><title>Node18&#45;&gt;Node19</title>
<path fill="none" stroke="midnightblue" d="M603.177,-179.083C598.888,-171.613 592.637,-160.724 587.353,-151.52"/>
<polygon fill="midnightblue" stroke="midnightblue" points="590.334,-149.681 582.319,-142.751 584.263,-153.166 590.334,-149.681"/>
</g>
<!-- Node19&#45;&gt;Node7 -->
<g id="edge27" class="edge"><title>Node19&#45;&gt;Node7</title>
<path fill="none" stroke="midnightblue" d="M573.378,-123.253C565.829,-107.4 547.732,-73.9089 522.296,-56 485.185,-29.8718 432.987,-18.7923 399.648,-14.1782"/>
<polygon fill="midnightblue" stroke="midnightblue" points="399.89,-10.681 389.529,-12.8965 399.01,-17.6255 399.89,-10.681"/>
</g>
<!-- Node19&#45;&gt;Node14 -->
<g id="edge28" class="edge"><title>Node19&#45;&gt;Node14</title>
<path fill="none" stroke="midnightblue" d="M544.486,-123.475C509.262,-114.323 452.516,-99.5792 409.093,-88.2967"/>
<polygon fill="midnightblue" stroke="midnightblue" points="409.764,-84.8548 399.205,-85.7275 408.003,-91.6298 409.764,-84.8548"/>
</g>
<!-- Node20&#45;&gt;Node3 -->
<g id="edge32" class="edge"><title>Node20&#45;&gt;Node3</title>
<path fill="none" stroke="midnightblue" d="M257.023,-235.337C249.24,-214.433 234.675,-175.31 226.097,-152.27"/>
<polygon fill="midnightblue" stroke="midnightblue" points="229.292,-150.82 222.523,-142.669 222.732,-153.262 229.292,-150.82"/>
</g>
<!-- Node20&#45;&gt;Node6 -->
<g id="edge33" class="edge"><title>Node20&#45;&gt;Node6</title>
<path fill="none" stroke="midnightblue" d="M185.253,-236.279C153.155,-228.57 116.423,-216.75 86.2956,-199 55.9694,-181.133 49.1179,-172.743 30.2956,-143 9.07934,-109.474 -12.4341,-88.5189 10.2956,-56 30.9471,-26.4544 73.19,-16.2449 102.363,-12.7536"/>
<polygon fill="midnightblue" stroke="midnightblue" points="102.852,-16.2223 112.456,-11.7479 102.158,-9.2568 102.852,-16.2223"/>
</g>
<!-- Node20&#45;&gt;Node7 -->
<g id="edge34" class="edge"><title>Node20&#45;&gt;Node7</title>
<path fill="none" stroke="midnightblue" d="M259.368,-235.355C253.126,-201.188 242.014,-112.792 280.296,-56 293.003,-37.148 316.166,-25.7134 335.398,-19.0905"/>
<polygon fill="midnightblue" stroke="midnightblue" points="336.539,-22.4007 345.021,-16.052 334.431,-15.7256 336.539,-22.4007"/>
</g>
<!-- Node20&#45;&gt;Node12 -->
<g id="edge36" class="edge"><title>Node20&#45;&gt;Node12</title>
<path fill="none" stroke="midnightblue" d="M235.042,-235.399C216.264,-225.684 191.469,-212.855 173.028,-203.314"/>
<polygon fill="midnightblue" stroke="midnightblue" points="174.519,-200.145 164.029,-198.658 171.302,-206.362 174.519,-200.145"/>
</g>
<!-- Node20&#45;&gt;Node19 -->
<g id="edge35" class="edge"><title>Node20&#45;&gt;Node19</title>
<path fill="none" stroke="midnightblue" d="M339.359,-238.673C382.083,-230.955 435.472,-218.429 480.296,-199 510.161,-186.055 540.723,-163.777 559.358,-148.966"/>
<polygon fill="midnightblue" stroke="midnightblue" points="561.699,-151.574 567.264,-142.558 557.292,-146.136 561.699,-151.574"/>
</g>
</g>
</svg>
        <g id="navigator" transform="translate(0 0)" fill="#404254">
                <rect fill="#f2f5e9" fill-opacity="0.5" stroke="#606060" stroke-width=".5" x="0" y="0" width="60" height="60"/>
                <use id="zoomplus" xlink:href="#zoomPlus" x="17" y="9" onmousedown="handleZoom(evt,'in')"/>
                <use id="zoomminus" xlink:href="#zoomMin" x="42" y="9" onmousedown="handleZoom(evt,'out')"/>
                <use id="reset" xlink:href="#resetDef" x="30" y="36" onmousedown="handleReset()"/>
                <g id="arrowUp" xlink:href="#dirArrow" transform="translate(30 24)" onmousedown="handlePan(0,-1)">
                  <use xlink:href="#rim" fill="#404040">
                        <set attributeName="fill" to="#808080" begin="arrowUp.mouseover" end="arrowUp.mouseout"/>
                  </use>
                  <path fill="none" stroke="white" stroke-width="1.5" d="M0,-3.0v7 M-2.5,-0.5L0,-3.0L2.5,-0.5"/>
                </g>
                <g id="arrowRight" xlink:href="#dirArrow" transform="rotate(90) translate(36 -43)" onmousedown="handlePan(1,0)">
                  <use xlink:href="#rim" fill="#404040">
                        <set attributeName="fill" to="#808080" begin="arrowRight.mouseover" end="arrowRight.mouseout"/>
                  </use>
                  <path fill="none" stroke="white" stroke-width="1.5" d="M0,-3.0v7 M-2.5,-0.5L0,-3.0L2.5,-0.5"/>
                </g>
                <g id="arrowDown" xlink:href="#dirArrow" transform="rotate(180) translate(-30 -48)" onmousedown="handlePan(0,1)">
                  <use xlink:href="#rim" fill="#404040">
                        <set attributeName="fill" to="#808080" begin="arrowDown.mouseover" end="arrowDown.mouseout"/>
                  </use>
                  <path fill="none" stroke="white" stroke-width="1.5" d="M0,-3.0v7 M-2.5,-0.5L0,-3.0L2.5,-0.5"/>
                </g>
                <g id="arrowLeft" xlink:href="#dirArrow" transform="rotate(270) translate(-36 17)" onmousedown="handlePan(-1,0)">
                  <use xlink:href="#rim" fill="#404040">
                        <set attributeName="fill" to="#808080" begin="arrowLeft.mouseover" end="arrowLeft.mouseout"/>
                  </use>
                  <path fill="none" stroke="white" stroke-width="1.5" d="M0,-3.0v7 M-2.5,-0.5L0,-3.0L2.5,-0.5"/>
                </g>
        </g>
        <svg viewBox="0 0 15 15" width="100%" height="30px" preserveAspectRatio="xMaxYMin meet">
         <g id="arrow_out" transform="scale(0.3 0.3)">
          <a xlink:href="RootPlotData_8cpp__incl_org.svg" target="_base">
           <rect id="button" ry="5" rx="5" y="6" x="6" height="38" width="38"
                fill="#f2f5e9" fill-opacity="0.5" stroke="#606060" stroke-width="1.0"/>
           <path id="arrow"
             d="M 11.500037,31.436501 C 11.940474,20.09759 22.043105,11.32322 32.158766,21.979434 L 37.068811,17.246167 C 37.068811,17.246167 37.088388,32 37.088388,32 L 22.160133,31.978069 C 22.160133,31.978069 26.997745,27.140456 26.997745,27.140456 C 18.528582,18.264221 13.291696,25.230495 11.500037,31.436501 z"
             style="fill:#404040;"/>
          </a>
         </g>
        </svg>
</svg>
