<?xml version="1.0" encoding="UTF-8" standalone="no"?>
<!DOCTYPE svg PUBLIC "-//W3C//DTD SVG 1.1//EN"
 "http://www.w3.org/Graphics/SVG/1.1/DTD/svg11.dtd">
<!-- Generated by graphviz version 2.38.0 (20140413.2041)
 -->
<!-- Title: Data/Root/RootEfficiency.hpp Pages: 1 -->
<svg width="336pt" height="140pt"
 viewBox="0.00 0.00 336.00 140.00" xmlns="http://www.w3.org/2000/svg" xmlns:xlink="http://www.w3.org/1999/xlink">
<g id="graph0" class="graph" transform="scale(1 1) rotate(0) translate(4 136)">
<title>Data/Root/RootEfficiency.hpp</title>
<polygon fill="white" stroke="none" points="-4,4 -4,-136 332,-136 332,4 -4,4"/>
<!-- Node1 -->
<g id="node1" class="node"><title>Node1</title>
<polygon fill="#bfbfbf" stroke="black" points="64,-112.5 64,-131.5 212,-131.5 212,-112.5 64,-112.5"/>
<text text-anchor="middle" x="138" y="-119.5" font-family="Helvetica,sans-Serif" font-size="10.00">Data/Root/RootEfficiency.hpp</text>
</g>
<!-- Node2 -->
<g id="node2" class="node"><title>Node2</title>
<polygon fill="white" stroke="#bfbfbf" points="0,-56.5 0,-75.5 52,-75.5 52,-56.5 0,-56.5"/>
<text text-anchor="middle" x="26" y="-63.5" font-family="Helvetica,sans-Serif" font-size="10.00">memory</text>
</g>
<!-- Node1&#45;&gt;Node2 -->
<g id="edge1" class="edge"><title>Node1&#45;&gt;Node2</title>
<path fill="none" stroke="midnightblue" d="M120.005,-112.324C101.962,-103.625 73.9531,-90.1202 53.1973,-80.113"/>
<polygon fill="midnightblue" stroke="midnightblue" points="54.4778,-76.8449 43.9501,-75.6545 51.4377,-83.1502 54.4778,-76.8449"/>
</g>
<!-- Node3 -->
<g id="node3" class="node"><title>Node3</title>
<polygon fill="white" stroke="#bfbfbf" points="70,-56.5 70,-75.5 114,-75.5 114,-56.5 70,-56.5"/>
<text text-anchor="middle" x="92" y="-63.5" font-family="Helvetica,sans-Serif" font-size="10.00">vector</text>
</g>
<!-- Node1&#45;&gt;Node3 -->
<g id="edge2" class="edge"><title>Node1&#45;&gt;Node3</title>
<path fill="none" stroke="midnightblue" d="M130.404,-112.083C123.773,-104.298 113.979,-92.8015 105.942,-83.3665"/>
<polygon fill="midnightblue" stroke="midnightblue" points="108.604,-81.0939 99.4546,-75.7511 103.275,-85.6332 108.604,-81.0939"/>
</g>
<!-- Node4 -->
<g id="node4" class="node"><title>Node4</title>
<g id="a_node4"><a xlink:href="Efficiency_8hpp.html" target="_top" xlink:title="Efficiency base class. ">
<polygon fill="white" stroke="black" points="132.5,-56.5 132.5,-75.5 235.5,-75.5 235.5,-56.5 132.5,-56.5"/>
<text text-anchor="middle" x="184" y="-63.5" font-family="Helvetica,sans-Serif" font-size="10.00">Core/Efficiency.hpp</text>
</a>
</g>
</g>
<!-- Node1&#45;&gt;Node4 -->
<g id="edge3" class="edge"><title>Node1&#45;&gt;Node4</title>
<path fill="none" stroke="midnightblue" d="M145.596,-112.083C152.227,-104.298 162.021,-92.8015 170.058,-83.3665"/>
<polygon fill="midnightblue" stroke="midnightblue" points="172.725,-85.6332 176.545,-75.7511 167.396,-81.0939 172.725,-85.6332"/>
</g>
<!-- Node6 -->
<g id="node6" class="node"><title>Node6</title>
<polygon fill="white" stroke="#bfbfbf" points="254,-56.5 254,-75.5 328,-75.5 328,-56.5 254,-56.5"/>
<text text-anchor="middle" x="291" y="-63.5" font-family="Helvetica,sans-Serif" font-size="10.00">TEfficiency.h</text>
</g>
<!-- Node1&#45;&gt;Node6 -->
<g id="edge5" class="edge"><title>Node1&#45;&gt;Node6</title>
<path fill="none" stroke="midnightblue" d="M162.243,-112.444C187.871,-103.399 228.485,-89.064 257.238,-78.9158"/>
<polygon fill="midnightblue" stroke="midnightblue" points="258.605,-82.1452 266.87,-75.5164 256.275,-75.5442 258.605,-82.1452"/>
</g>
<!-- Node5 -->
<g id="node5" class="node"><title>Node5</title>
<g id="a_node5"><a xlink:href="Logging_8hpp.html" target="_top" xlink:title="Core/Logging.hpp">
<polygon fill="white" stroke="red" points="137.5,-0.5 137.5,-19.5 230.5,-19.5 230.5,-0.5 137.5,-0.5"/>
<text text-anchor="middle" x="184" y="-7.5" font-family="Helvetica,sans-Serif" font-size="10.00">Core/Logging.hpp</text>
</a>
</g>
</g>
<!-- Node4&#45;&gt;Node5 -->
<g id="edge4" class="edge"><title>Node4&#45;&gt;Node5</title>
<path fill="none" stroke="midnightblue" d="M184,-56.083C184,-49.0059 184,-38.8611 184,-29.9865"/>
<polygon fill="midnightblue" stroke="midnightblue" points="187.5,-29.751 184,-19.7511 180.5,-29.7511 187.5,-29.751"/>
</g>
</g>
</svg>
