<?xml version="1.0" encoding="UTF-8" standalone="no"?>
<!DOCTYPE svg PUBLIC "-//W3C//DTD SVG 1.1//EN"
 "http://www.w3.org/Graphics/SVG/1.1/DTD/svg11.dtd">
<!-- Generated by graphviz version 2.38.0 (20140413.2041)
 -->
<!-- Title: Tools/Plotting/RootPlotData.hpp Pages: 1 -->
<svg width="477pt" height="207pt"
 viewBox="0.00 0.00 477.00 207.00" xmlns="http://www.w3.org/2000/svg" xmlns:xlink="http://www.w3.org/1999/xlink">
<g id="graph0" class="graph" transform="scale(1 1) rotate(0) translate(4 203)">
<title>Tools/Plotting/RootPlotData.hpp</title>
<polygon fill="white" stroke="none" points="-4,4 -4,-203 473,-203 473,4 -4,4"/>
<!-- Node1 -->
<g id="node1" class="node"><title>Node1</title>
<polygon fill="#bfbfbf" stroke="black" points="269.5,-179.5 269.5,-198.5 427.5,-198.5 427.5,-179.5 269.5,-179.5"/>
<text text-anchor="middle" x="348.5" y="-186.5" font-family="Helvetica,sans-Serif" font-size="10.00">Tools/Plotting/RootPlotData.hpp</text>
</g>
<!-- Node2 -->
<g id="node2" class="node"><title>Node2</title>
<polygon fill="white" stroke="#bfbfbf" points="194,-123.5 194,-142.5 229,-142.5 229,-123.5 194,-123.5"/>
<text text-anchor="middle" x="211.5" y="-130.5" font-family="Helvetica,sans-Serif" font-size="10.00">map</text>
</g>
<!-- Node1&#45;&gt;Node2 -->
<g id="edge1" class="edge"><title>Node1&#45;&gt;Node2</title>
<path fill="none" stroke="midnightblue" d="M326.792,-179.444C302.946,-170.045 264.609,-154.934 238.758,-144.744"/>
<polygon fill="midnightblue" stroke="midnightblue" points="239.772,-141.382 229.186,-140.971 237.206,-147.894 239.772,-141.382"/>
</g>
<!-- Node3 -->
<g id="node3" class="node"><title>Node3</title>
<g id="a_node3"><a xlink:href="FitParameter_8hpp.html" target="_top" xlink:title="Core/FitParameter.hpp">
<polygon fill="white" stroke="black" points="247.5,-123.5 247.5,-142.5 363.5,-142.5 363.5,-123.5 247.5,-123.5"/>
<text text-anchor="middle" x="305.5" y="-130.5" font-family="Helvetica,sans-Serif" font-size="10.00">Core/FitParameter.hpp</text>
</a>
</g>
</g>
<!-- Node1&#45;&gt;Node3 -->
<g id="edge2" class="edge"><title>Node1&#45;&gt;Node3</title>
<path fill="none" stroke="midnightblue" d="M341.399,-179.083C335.263,-171.377 326.23,-160.033 318.761,-150.653"/>
<polygon fill="midnightblue" stroke="midnightblue" points="321.436,-148.394 312.468,-142.751 315.96,-152.754 321.436,-148.394"/>
</g>
<!-- Node4 -->
<g id="node4" class="node"><title>Node4</title>
<g id="a_node4"><a xlink:href="Function_8hpp.html" target="_top" xlink:title="Core/Function.hpp">
<polygon fill="white" stroke="red" points="372,-62 372,-81 469,-81 469,-62 372,-62"/>
<text text-anchor="middle" x="420.5" y="-69" font-family="Helvetica,sans-Serif" font-size="10.00">Core/Function.hpp</text>
</a>
</g>
</g>
<!-- Node1&#45;&gt;Node4 -->
<g id="edge11" class="edge"><title>Node1&#45;&gt;Node4</title>
<path fill="none" stroke="midnightblue" d="M353.912,-179.319C365.743,-160.339 394.101,-114.848 409.723,-89.7882"/>
<polygon fill="midnightblue" stroke="midnightblue" points="412.706,-91.6197 415.025,-81.282 406.765,-87.9167 412.706,-91.6197"/>
</g>
<!-- Node10 -->
<g id="node10" class="node"><title>Node10</title>
<polygon fill="white" stroke="#bfbfbf" points="420,-123.5 420,-142.5 467,-142.5 467,-123.5 420,-123.5"/>
<text text-anchor="middle" x="443.5" y="-130.5" font-family="Helvetica,sans-Serif" font-size="10.00">TFile.h</text>
</g>
<!-- Node1&#45;&gt;Node10 -->
<g id="edge12" class="edge"><title>Node1&#45;&gt;Node10</title>
<path fill="none" stroke="midnightblue" d="M363.763,-179.324C378.721,-170.822 401.755,-157.729 419.227,-147.797"/>
<polygon fill="midnightblue" stroke="midnightblue" points="421.31,-150.639 428.274,-142.655 417.851,-144.553 421.31,-150.639"/>
</g>
<!-- Node3&#45;&gt;Node4 -->
<g id="edge3" class="edge"><title>Node3&#45;&gt;Node4</title>
<path fill="none" stroke="midnightblue" d="M321.977,-123.475C341.105,-113.578 372.873,-97.1416 395.152,-85.6151"/>
<polygon fill="midnightblue" stroke="midnightblue" points="396.781,-88.713 404.054,-81.0091 393.564,-82.4958 396.781,-88.713"/>
</g>
<!-- Node5 -->
<g id="node5" class="node"><title>Node5</title>
<polygon fill="white" stroke="#bfbfbf" points="386,-0.5 386,-19.5 427,-19.5 427,-0.5 386,-0.5"/>
<text text-anchor="middle" x="406.5" y="-7.5" font-family="Helvetica,sans-Serif" font-size="10.00">string</text>
</g>
<!-- Node3&#45;&gt;Node5 -->
<g id="edge8" class="edge"><title>Node3&#45;&gt;Node5</title>
<path fill="none" stroke="midnightblue" d="M311.639,-123.324C321.912,-108.953 343.441,-79.4669 363.5,-56 372.013,-46.0406 382.108,-35.4207 390.377,-27"/>
<polygon fill="midnightblue" stroke="midnightblue" points="393.07,-29.2554 397.634,-19.6939 388.103,-24.3224 393.07,-29.2554"/>
</g>
<!-- Node6 -->
<g id="node6" class="node"><title>Node6</title>
<polygon fill="white" stroke="#bfbfbf" points="296.5,-0.5 296.5,-19.5 340.5,-19.5 340.5,-0.5 296.5,-0.5"/>
<text text-anchor="middle" x="318.5" y="-7.5" font-family="Helvetica,sans-Serif" font-size="10.00">vector</text>
</g>
<!-- Node3&#45;&gt;Node6 -->
<g id="edge9" class="edge"><title>Node3&#45;&gt;Node6</title>
<path fill="none" stroke="midnightblue" d="M306.435,-123.298C308.524,-103.85 313.613,-56.49 316.469,-29.9036"/>
<polygon fill="midnightblue" stroke="midnightblue" points="319.985,-29.9399 317.574,-19.6232 313.025,-29.192 319.985,-29.9399"/>
</g>
<!-- Node7 -->
<g id="node7" class="node"><title>Node7</title>
<g id="a_node7"><a xlink:href="Logging_8hpp.html" target="_top" xlink:title="Core/Logging.hpp">
<polygon fill="white" stroke="red" points="0,-62 0,-81 93,-81 93,-62 0,-62"/>
<text text-anchor="middle" x="46.5" y="-69" font-family="Helvetica,sans-Serif" font-size="10.00">Core/Logging.hpp</text>
</a>
</g>
</g>
<!-- Node3&#45;&gt;Node7 -->
<g id="edge6" class="edge"><title>Node3&#45;&gt;Node7</title>
<path fill="none" stroke="midnightblue" d="M264.962,-123.453C223.917,-114.696 158.66,-100.491 102.5,-87 98.0401,-85.9286 93.3892,-84.778 88.7573,-83.6106"/>
<polygon fill="midnightblue" stroke="midnightblue" points="89.2842,-80.1329 78.7293,-81.052 87.5536,-86.9157 89.2842,-80.1329"/>
</g>
<!-- Node8 -->
<g id="node8" class="node"><title>Node8</title>
<polygon fill="white" stroke="#bfbfbf" points="111.5,-62 111.5,-81 163.5,-81 163.5,-62 111.5,-62"/>
<text text-anchor="middle" x="137.5" y="-69" font-family="Helvetica,sans-Serif" font-size="10.00">ostream</text>
</g>
<!-- Node3&#45;&gt;Node8 -->
<g id="edge7" class="edge"><title>Node3&#45;&gt;Node8</title>
<path fill="none" stroke="midnightblue" d="M278.567,-123.469C251.567,-114.781 208.894,-100.678 172.5,-87 170.653,-86.3058 168.758,-85.5752 166.852,-84.8262"/>
<polygon fill="midnightblue" stroke="midnightblue" points="167.982,-81.5078 157.398,-81.0121 165.362,-87.9994 167.982,-81.5078"/>
</g>
<!-- Node9 -->
<g id="node9" class="node"><title>Node9</title>
<polygon fill="white" stroke="#bfbfbf" points="182,-56.5 182,-86.5 277,-86.5 277,-56.5 182,-56.5"/>
<text text-anchor="start" x="190" y="-74.5" font-family="Helvetica,sans-Serif" font-size="10.00">boost/serialization</text>
<text text-anchor="middle" x="229.5" y="-63.5" font-family="Helvetica,sans-Serif" font-size="10.00">/nvp.hpp</text>
</g>
<!-- Node3&#45;&gt;Node9 -->
<g id="edge10" class="edge"><title>Node3&#45;&gt;Node9</title>
<path fill="none" stroke="midnightblue" d="M294.611,-123.475C284.414,-115.492 268.783,-103.254 255.391,-92.7703"/>
<polygon fill="midnightblue" stroke="midnightblue" points="257.443,-89.9316 247.412,-86.523 253.128,-95.4434 257.443,-89.9316"/>
</g>
<!-- Node4&#45;&gt;Node5 -->
<g id="edge4" class="edge"><title>Node4&#45;&gt;Node5</title>
<path fill="none" stroke="midnightblue" d="M418.494,-61.9751C416.498,-53.4919 413.372,-40.2043 410.811,-29.3222"/>
<polygon fill="midnightblue" stroke="midnightblue" points="414.2,-28.4416 408.502,-19.5091 407.386,-30.0449 414.2,-28.4416"/>
</g>
<!-- Node4&#45;&gt;Node6 -->
<g id="edge5" class="edge"><title>Node4&#45;&gt;Node6</title>
<path fill="none" stroke="midnightblue" d="M405.886,-61.9751C389.147,-52.2106 361.496,-36.0807 341.781,-24.5808"/>
<polygon fill="midnightblue" stroke="midnightblue" points="343.488,-21.5246 333.087,-19.5091 339.961,-27.5711 343.488,-21.5246"/>
</g>
</g>
</svg>
