<?xml version="1.0" encoding="UTF-8" standalone="no"?>
<!DOCTYPE svg PUBLIC "-//W3C//DTD SVG 1.1//EN"
 "http://www.w3.org/Graphics/SVG/1.1/DTD/svg11.dtd">
<!-- Generated by graphviz version 2.38.0 (20140413.2041)
 -->
<!-- Title: ComPWA::Physics::Dynamics::RelativisticBreitWigner::InputInfo Pages: 1 -->
<svg width="160pt" height="248pt"
 viewBox="0.00 0.00 160.00 248.00" xmlns="http://www.w3.org/2000/svg" xmlns:xlink="http://www.w3.org/1999/xlink">
<g id="graph0" class="graph" transform="scale(1 1) rotate(0) translate(4 244)">
<title>ComPWA::Physics::Dynamics::RelativisticBreitWigner::InputInfo</title>
<polygon fill="white" stroke="none" points="-4,4 -4,-244 156,-244 156,4 -4,4"/>
<!-- Node1 -->
<g id="node1" class="node"><title>Node1</title>
<polygon fill="#bfbfbf" stroke="black" points="0,-0.5 0,-79.5 152,-79.5 152,-0.5 0,-0.5"/>
<text text-anchor="start" x="8" y="-67.5" font-family="Helvetica,sans-Serif" font-size="10.00">ComPWA::Physics::Dynamics</text>
<text text-anchor="start" x="8" y="-56.5" font-family="Helvetica,sans-Serif" font-size="10.00">::RelativisticBreitWigner</text>
<text text-anchor="middle" x="76" y="-45.5" font-family="Helvetica,sans-Serif" font-size="10.00">::InputInfo</text>
<polyline fill="none" stroke="black" points="0,-38.5 152,-38.5 "/>
<text text-anchor="start" x="8" y="-26.5" font-family="Helvetica,sans-Serif" font-size="10.00">+ Width</text>
<polyline fill="none" stroke="black" points="0,-19.5 152,-19.5 "/>
<text text-anchor="middle" x="76" y="-7.5" font-family="Helvetica,sans-Serif" font-size="10.00"> </text>
</g>
<!-- Node2 -->
<g id="node2" class="node"><title>Node2</title>
<g id="a_node2"><a xlink:href="structComPWA_1_1Physics_1_1Dynamics_1_1InputInfo.html" target="_top" xlink:title="{ComPWA::Physics::Dynamics\l::InputInfo\n|+ Type\l+ L\l+ DaughterMasses\l+ Mass\l+ MesonRadius\l+ FormFactorFunctor\l|}">
<polygon fill="white" stroke="black" points="0,-116.5 0,-239.5 152,-239.5 152,-116.5 0,-116.5"/>
<text text-anchor="start" x="8" y="-227.5" font-family="Helvetica,sans-Serif" font-size="10.00">ComPWA::Physics::Dynamics</text>
<text text-anchor="middle" x="76" y="-216.5" font-family="Helvetica,sans-Serif" font-size="10.00">::InputInfo</text>
<polyline fill="none" stroke="black" points="0,-209.5 152,-209.5 "/>
<text text-anchor="start" x="8" y="-197.5" font-family="Helvetica,sans-Serif" font-size="10.00">+ Type</text>
<text text-anchor="start" x="8" y="-186.5" font-family="Helvetica,sans-Serif" font-size="10.00">+ L</text>
<text text-anchor="start" x="8" y="-175.5" font-family="Helvetica,sans-Serif" font-size="10.00">+ DaughterMasses</text>
<text text-anchor="start" x="8" y="-164.5" font-family="Helvetica,sans-Serif" font-size="10.00">+ Mass</text>
<text text-anchor="start" x="8" y="-153.5" font-family="Helvetica,sans-Serif" font-size="10.00">+ MesonRadius</text>
<text text-anchor="start" x="8" y="-142.5" font-family="Helvetica,sans-Serif" font-size="10.00">+ FormFactorFunctor</text>
<polyline fill="none" stroke="black" points="0,-135.5 152,-135.5 "/>
<text text-anchor="middle" x="76" y="-123.5" font-family="Helvetica,sans-Serif" font-size="10.00"> </text>
</a>
</g>
</g>
<!-- Node2&#45;&gt;Node1 -->
<g id="edge1" class="edge"><title>Node2&#45;&gt;Node1</title>
<path fill="none" stroke="midnightblue" d="M76,-105.911C76,-96.8309 76,-87.824 76,-79.5403"/>
<polygon fill="none" stroke="midnightblue" points="72.5001,-106.16 76,-116.16 79.5001,-106.16 72.5001,-106.16"/>
</g>
</g>
</svg>
