<?xml version="1.0" encoding="UTF-8" standalone="no"?>
<!DOCTYPE svg PUBLIC "-//W3C//DTD SVG 1.1//EN"
 "http://www.w3.org/Graphics/SVG/1.1/DTD/svg11.dtd">
<!-- Generated by graphviz version 2.38.0 (20140413.2041)
 -->
<!-- Title: ComPWA::FitResult Pages: 1 -->
<svg width="266pt" height="380pt"
 viewBox="0.00 0.00 266.00 380.00" xmlns="http://www.w3.org/2000/svg" xmlns:xlink="http://www.w3.org/1999/xlink">
<g id="graph0" class="graph" transform="scale(1 1) rotate(0) translate(4 376)">
<title>ComPWA::FitResult</title>
<polygon fill="white" stroke="none" points="-4,4 -4,-376 262,-376 262,4 -4,4"/>
<!-- Node1 -->
<g id="node1" class="node"><title>Node1</title>
<polygon fill="#bfbfbf" stroke="black" points="70.5,-237.5 70.5,-371.5 186.5,-371.5 186.5,-237.5 70.5,-237.5"/>
<text text-anchor="middle" x="128.5" y="-359.5" font-family="Helvetica,sans-Serif" font-size="10.00">ComPWA::FitResult</text>
<polyline fill="none" stroke="black" points="70.5,-352.5 186.5,-352.5 "/>
<text text-anchor="start" x="78.5" y="-340.5" font-family="Helvetica,sans-Serif" font-size="10.00">+ InitialParameters</text>
<text text-anchor="start" x="78.5" y="-329.5" font-family="Helvetica,sans-Serif" font-size="10.00">+ FinalParameters</text>
<text text-anchor="start" x="78.5" y="-318.5" font-family="Helvetica,sans-Serif" font-size="10.00">+ NumFreeParameters</text>
<text text-anchor="start" x="78.5" y="-307.5" font-family="Helvetica,sans-Serif" font-size="10.00">+ IsValid</text>
<text text-anchor="start" x="78.5" y="-296.5" font-family="Helvetica,sans-Serif" font-size="10.00">+ InitialEstimatorValue</text>
<text text-anchor="start" x="78.5" y="-285.5" font-family="Helvetica,sans-Serif" font-size="10.00">+ FinalEstimatorValue</text>
<text text-anchor="start" x="78.5" y="-274.5" font-family="Helvetica,sans-Serif" font-size="10.00">+ FitDuration</text>
<text text-anchor="start" x="78.5" y="-263.5" font-family="Helvetica,sans-Serif" font-size="10.00">+ CovarianceMatrix</text>
<polyline fill="none" stroke="black" points="70.5,-256.5 186.5,-256.5 "/>
<text text-anchor="start" x="78.5" y="-244.5" font-family="Helvetica,sans-Serif" font-size="10.00">&#45; serialize()</text>
</g>
<!-- Node2 -->
<g id="node2" class="node"><title>Node2</title>
<g id="a_node2"><a xlink:href="structComPWA_1_1Optimizer_1_1Geneva_1_1GenevaResult.html" target="_top" xlink:title="{ComPWA::Optimizer::\lGeneva::GenevaResult\n||+ GenevaResult()\l+ GenevaResult()\l}">
<polygon fill="white" stroke="black" points="0,-61 0,-140 119,-140 119,-61 0,-61"/>
<text text-anchor="start" x="8" y="-128" font-family="Helvetica,sans-Serif" font-size="10.00">ComPWA::Optimizer::</text>
<text text-anchor="middle" x="59.5" y="-117" font-family="Helvetica,sans-Serif" font-size="10.00">Geneva::GenevaResult</text>
<polyline fill="none" stroke="black" points="0,-110 119,-110 "/>
<text text-anchor="middle" x="59.5" y="-98" font-family="Helvetica,sans-Serif" font-size="10.00"> </text>
<polyline fill="none" stroke="black" points="0,-91 119,-91 "/>
<text text-anchor="start" x="8" y="-79" font-family="Helvetica,sans-Serif" font-size="10.00">+ GenevaResult()</text>
<text text-anchor="start" x="8" y="-68" font-family="Helvetica,sans-Serif" font-size="10.00">+ GenevaResult()</text>
</a>
</g>
</g>
<!-- Node1&#45;&gt;Node2 -->
<g id="edge1" class="edge"><title>Node1&#45;&gt;Node2</title>
<path fill="none" stroke="midnightblue" d="M102.635,-227.779C92.4257,-197.891 81.1383,-164.847 72.6713,-140.06"/>
<polygon fill="none" stroke="midnightblue" points="99.3622,-229.026 105.907,-237.358 105.986,-226.763 99.3622,-229.026"/>
</g>
<!-- Node3 -->
<g id="node3" class="node"><title>Node3</title>
<g id="a_node3"><a xlink:href="structComPWA_1_1Optimizer_1_1Minuit2_1_1MinuitResult.html" target="_top" xlink:title="{ComPWA::Optimizer::\lMinuit2::MinuitResult\n|+ CovPosDef\l+ HasValidParameters\l+ HasValidCov\l+ HasAccCov\l+ HasReachedCallLimit\l+ EdmAboveMax\l+ HesseFailed\l+ ErrorDef\l+ NFcn\l+ Edm\l+ GlobalCC\l|+ MinuitResult()\l+ MinuitResult()\l&#45; serialize()\l}">
<polygon fill="white" stroke="black" points="137,-0.5 137,-200.5 258,-200.5 258,-0.5 137,-0.5"/>
<text text-anchor="start" x="145" y="-188.5" font-family="Helvetica,sans-Serif" font-size="10.00">ComPWA::Optimizer::</text>
<text text-anchor="middle" x="197.5" y="-177.5" font-family="Helvetica,sans-Serif" font-size="10.00">Minuit2::MinuitResult</text>
<polyline fill="none" stroke="black" points="137,-170.5 258,-170.5 "/>
<text text-anchor="start" x="145" y="-158.5" font-family="Helvetica,sans-Serif" font-size="10.00">+ CovPosDef</text>
<text text-anchor="start" x="145" y="-147.5" font-family="Helvetica,sans-Serif" font-size="10.00">+ HasValidParameters</text>
<text text-anchor="start" x="145" y="-136.5" font-family="Helvetica,sans-Serif" font-size="10.00">+ HasValidCov</text>
<text text-anchor="start" x="145" y="-125.5" font-family="Helvetica,sans-Serif" font-size="10.00">+ HasAccCov</text>
<text text-anchor="start" x="145" y="-114.5" font-family="Helvetica,sans-Serif" font-size="10.00">+ HasReachedCallLimit</text>
<text text-anchor="start" x="145" y="-103.5" font-family="Helvetica,sans-Serif" font-size="10.00">+ EdmAboveMax</text>
<text text-anchor="start" x="145" y="-92.5" font-family="Helvetica,sans-Serif" font-size="10.00">+ HesseFailed</text>
<text text-anchor="start" x="145" y="-81.5" font-family="Helvetica,sans-Serif" font-size="10.00">+ ErrorDef</text>
<text text-anchor="start" x="145" y="-70.5" font-family="Helvetica,sans-Serif" font-size="10.00">+ NFcn</text>
<text text-anchor="start" x="145" y="-59.5" font-family="Helvetica,sans-Serif" font-size="10.00">+ Edm</text>
<text text-anchor="start" x="145" y="-48.5" font-family="Helvetica,sans-Serif" font-size="10.00">+ GlobalCC</text>
<polyline fill="none" stroke="black" points="137,-41.5 258,-41.5 "/>
<text text-anchor="start" x="145" y="-29.5" font-family="Helvetica,sans-Serif" font-size="10.00">+ MinuitResult()</text>
<text text-anchor="start" x="145" y="-18.5" font-family="Helvetica,sans-Serif" font-size="10.00">+ MinuitResult()</text>
<text text-anchor="start" x="145" y="-7.5" font-family="Helvetica,sans-Serif" font-size="10.00">&#45; serialize()</text>
</a>
</g>
</g>
<!-- Node1&#45;&gt;Node3 -->
<g id="edge2" class="edge"><title>Node1&#45;&gt;Node3</title>
<path fill="none" stroke="midnightblue" d="M154.335,-227.868C157.361,-219.009 160.482,-209.871 163.597,-200.752"/>
<polygon fill="none" stroke="midnightblue" points="151.014,-226.763 151.093,-237.358 157.638,-229.026 151.014,-226.763"/>
</g>
</g>
</svg>
