<?xml version="1.0" encoding="UTF-8" standalone="no"?>
<!DOCTYPE svg PUBLIC "-//W3C//DTD SVG 1.1//EN"
 "http://www.w3.org/Graphics/SVG/1.1/DTD/svg11.dtd">
<!-- Generated by graphviz version 2.38.0 (20140413.2041)
 -->
<!-- Title: ComPWA::Physics::Dynamics::InputInfo Pages: 1 -->
<svg width="330pt" height="353pt"
 viewBox="0.00 0.00 330.00 353.00" xmlns="http://www.w3.org/2000/svg" xmlns:xlink="http://www.w3.org/1999/xlink">
<g id="graph0" class="graph" transform="scale(1 1) rotate(0) translate(4 349)">
<title>ComPWA::Physics::Dynamics::InputInfo</title>
<polygon fill="white" stroke="none" points="-4,4 -4,-349 326,-349 326,4 -4,4"/>
<!-- Node1 -->
<g id="node1" class="node"><title>Node1</title>
<polygon fill="#bfbfbf" stroke="black" points="85,-221.5 85,-344.5 237,-344.5 237,-221.5 85,-221.5"/>
<text text-anchor="start" x="93" y="-332.5" font-family="Helvetica,sans-Serif" font-size="10.00">ComPWA::Physics::Dynamics</text>
<text text-anchor="middle" x="161" y="-321.5" font-family="Helvetica,sans-Serif" font-size="10.00">::InputInfo</text>
<polyline fill="none" stroke="black" points="85,-314.5 237,-314.5 "/>
<text text-anchor="start" x="93" y="-302.5" font-family="Helvetica,sans-Serif" font-size="10.00">+ Type</text>
<text text-anchor="start" x="93" y="-291.5" font-family="Helvetica,sans-Serif" font-size="10.00">+ L</text>
<text text-anchor="start" x="93" y="-280.5" font-family="Helvetica,sans-Serif" font-size="10.00">+ DaughterMasses</text>
<text text-anchor="start" x="93" y="-269.5" font-family="Helvetica,sans-Serif" font-size="10.00">+ Mass</text>
<text text-anchor="start" x="93" y="-258.5" font-family="Helvetica,sans-Serif" font-size="10.00">+ MesonRadius</text>
<text text-anchor="start" x="93" y="-247.5" font-family="Helvetica,sans-Serif" font-size="10.00">+ FormFactorFunctor</text>
<polyline fill="none" stroke="black" points="85,-240.5 237,-240.5 "/>
<text text-anchor="middle" x="161" y="-228.5" font-family="Helvetica,sans-Serif" font-size="10.00"> </text>
</g>
<!-- Node2 -->
<g id="node2" class="node"><title>Node2</title>
<g id="a_node2"><a xlink:href="structComPWA_1_1Physics_1_1Dynamics_1_1Flatte_1_1InputInfo.html" target="_top" xlink:title="{ComPWA::Physics::Dynamics\l::Flatte::InputInfo\n|+ G\l+ HiddenCouplings\l|}">
<polygon fill="white" stroke="black" points="0,-105.5 0,-184.5 152,-184.5 152,-105.5 0,-105.5"/>
<text text-anchor="start" x="8" y="-172.5" font-family="Helvetica,sans-Serif" font-size="10.00">ComPWA::Physics::Dynamics</text>
<text text-anchor="middle" x="76" y="-161.5" font-family="Helvetica,sans-Serif" font-size="10.00">::Flatte::InputInfo</text>
<polyline fill="none" stroke="black" points="0,-154.5 152,-154.5 "/>
<text text-anchor="start" x="8" y="-142.5" font-family="Helvetica,sans-Serif" font-size="10.00">+ G</text>
<text text-anchor="start" x="8" y="-131.5" font-family="Helvetica,sans-Serif" font-size="10.00">+ HiddenCouplings</text>
<polyline fill="none" stroke="black" points="0,-124.5 152,-124.5 "/>
<text text-anchor="middle" x="76" y="-112.5" font-family="Helvetica,sans-Serif" font-size="10.00"> </text>
</a>
</g>
</g>
<!-- Node1&#45;&gt;Node2 -->
<g id="edge1" class="edge"><title>Node1&#45;&gt;Node2</title>
<path fill="none" stroke="midnightblue" d="M117.668,-212.67C111.623,-202.996 105.599,-193.358 100.088,-184.54"/>
<polygon fill="none" stroke="midnightblue" points="114.707,-214.535 122.975,-221.16 120.643,-210.825 114.707,-214.535"/>
</g>
<!-- Node3 -->
<g id="node3" class="node"><title>Node3</title>
<g id="a_node3"><a xlink:href="structComPWA_1_1Physics_1_1Dynamics_1_1RelativisticBreitWigner_1_1InputInfo.html" target="_top" xlink:title="{ComPWA::Physics::Dynamics\l::RelativisticBreitWigner\l::InputInfo\n|+ Width\l|}">
<polygon fill="white" stroke="black" points="170,-105.5 170,-184.5 322,-184.5 322,-105.5 170,-105.5"/>
<text text-anchor="start" x="178" y="-172.5" font-family="Helvetica,sans-Serif" font-size="10.00">ComPWA::Physics::Dynamics</text>
<text text-anchor="start" x="178" y="-161.5" font-family="Helvetica,sans-Serif" font-size="10.00">::RelativisticBreitWigner</text>
<text text-anchor="middle" x="246" y="-150.5" font-family="Helvetica,sans-Serif" font-size="10.00">::InputInfo</text>
<polyline fill="none" stroke="black" points="170,-143.5 322,-143.5 "/>
<text text-anchor="start" x="178" y="-131.5" font-family="Helvetica,sans-Serif" font-size="10.00">+ Width</text>
<polyline fill="none" stroke="black" points="170,-124.5 322,-124.5 "/>
<text text-anchor="middle" x="246" y="-112.5" font-family="Helvetica,sans-Serif" font-size="10.00"> </text>
</a>
</g>
</g>
<!-- Node1&#45;&gt;Node3 -->
<g id="edge2" class="edge"><title>Node1&#45;&gt;Node3</title>
<path fill="none" stroke="midnightblue" d="M204.332,-212.67C210.377,-202.996 216.401,-193.358 221.912,-184.54"/>
<polygon fill="none" stroke="midnightblue" points="201.357,-210.825 199.025,-221.16 207.293,-214.535 201.357,-210.825"/>
</g>
<!-- Node4 -->
<g id="node4" class="node"><title>Node4</title>
<g id="a_node4"><a xlink:href="structComPWA_1_1Physics_1_1Dynamics_1_1Voigtian_1_1InputInfo.html" target="_top" xlink:title="{ComPWA::Physics::Dynamics\l::Voigtian::InputInfo\n|+ Sigma\l|}">
<polygon fill="white" stroke="black" points="170,-0.5 170,-68.5 322,-68.5 322,-0.5 170,-0.5"/>
<text text-anchor="start" x="178" y="-56.5" font-family="Helvetica,sans-Serif" font-size="10.00">ComPWA::Physics::Dynamics</text>
<text text-anchor="middle" x="246" y="-45.5" font-family="Helvetica,sans-Serif" font-size="10.00">::Voigtian::InputInfo</text>
<polyline fill="none" stroke="black" points="170,-38.5 322,-38.5 "/>
<text text-anchor="start" x="178" y="-26.5" font-family="Helvetica,sans-Serif" font-size="10.00">+ Sigma</text>
<polyline fill="none" stroke="black" points="170,-19.5 322,-19.5 "/>
<text text-anchor="middle" x="246" y="-7.5" font-family="Helvetica,sans-Serif" font-size="10.00"> </text>
</a>
</g>
</g>
<!-- Node3&#45;&gt;Node4 -->
<g id="edge3" class="edge"><title>Node3&#45;&gt;Node4</title>
<path fill="none" stroke="midnightblue" d="M246,-95.3492C246,-86.2824 246,-77.0048 246,-68.5439"/>
<polygon fill="none" stroke="midnightblue" points="242.5,-95.4414 246,-105.441 249.5,-95.4415 242.5,-95.4414"/>
</g>
</g>
</svg>
