<?xml version="1.0" encoding="UTF-8" standalone="no"?>
<!DOCTYPE svg PUBLIC "-//W3C//DTD SVG 1.1//EN"
 "http://www.w3.org/Graphics/SVG/1.1/DTD/svg11.dtd">
<!-- Generated by graphviz version 2.38.0 (20140413.2041)
 -->
<!-- Title: ComPWA::Optimizer::Minuit2::MinuitResult Pages: 1 -->
<svg width="129pt" height="380pt"
 viewBox="0.00 0.00 129.00 380.00" xmlns="http://www.w3.org/2000/svg" xmlns:xlink="http://www.w3.org/1999/xlink">
<g id="graph0" class="graph" transform="scale(1 1) rotate(0) translate(4 376)">
<title>ComPWA::Optimizer::Minuit2::MinuitResult</title>
<polygon fill="white" stroke="none" points="-4,4 -4,-376 125,-376 125,4 -4,4"/>
<!-- Node1 -->
<g id="node1" class="node"><title>Node1</title>
<polygon fill="#bfbfbf" stroke="black" points="-7.10543e-15,-0.5 -7.10543e-15,-200.5 121,-200.5 121,-0.5 -7.10543e-15,-0.5"/>
<text text-anchor="start" x="8" y="-188.5" font-family="Helvetica,sans-Serif" font-size="10.00">ComPWA::Optimizer::</text>
<text text-anchor="middle" x="60.5" y="-177.5" font-family="Helvetica,sans-Serif" font-size="10.00">Minuit2::MinuitResult</text>
<polyline fill="none" stroke="black" points="-7.10543e-15,-170.5 121,-170.5 "/>
<text text-anchor="start" x="8" y="-158.5" font-family="Helvetica,sans-Serif" font-size="10.00">+ CovPosDef</text>
<text text-anchor="start" x="8" y="-147.5" font-family="Helvetica,sans-Serif" font-size="10.00">+ HasValidParameters</text>
<text text-anchor="start" x="8" y="-136.5" font-family="Helvetica,sans-Serif" font-size="10.00">+ HasValidCov</text>
<text text-anchor="start" x="8" y="-125.5" font-family="Helvetica,sans-Serif" font-size="10.00">+ HasAccCov</text>
<text text-anchor="start" x="8" y="-114.5" font-family="Helvetica,sans-Serif" font-size="10.00">+ HasReachedCallLimit</text>
<text text-anchor="start" x="8" y="-103.5" font-family="Helvetica,sans-Serif" font-size="10.00">+ EdmAboveMax</text>
<text text-anchor="start" x="8" y="-92.5" font-family="Helvetica,sans-Serif" font-size="10.00">+ HesseFailed</text>
<text text-anchor="start" x="8" y="-81.5" font-family="Helvetica,sans-Serif" font-size="10.00">+ ErrorDef</text>
<text text-anchor="start" x="8" y="-70.5" font-family="Helvetica,sans-Serif" font-size="10.00">+ NFcn</text>
<text text-anchor="start" x="8" y="-59.5" font-family="Helvetica,sans-Serif" font-size="10.00">+ Edm</text>
<text text-anchor="start" x="8" y="-48.5" font-family="Helvetica,sans-Serif" font-size="10.00">+ GlobalCC</text>
<polyline fill="none" stroke="black" points="-7.10543e-15,-41.5 121,-41.5 "/>
<text text-anchor="start" x="8" y="-29.5" font-family="Helvetica,sans-Serif" font-size="10.00">+ MinuitResult()</text>
<text text-anchor="start" x="8" y="-18.5" font-family="Helvetica,sans-Serif" font-size="10.00">+ MinuitResult()</text>
<text text-anchor="start" x="8" y="-7.5" font-family="Helvetica,sans-Serif" font-size="10.00">&#45; serialize()</text>
</g>
<!-- Node2 -->
<g id="node2" class="node"><title>Node2</title>
<g id="a_node2"><a xlink:href="structComPWA_1_1FitResult.html" target="_top" xlink:title="Data structure which resembles a general fit result. ">
<polygon fill="white" stroke="black" points="2.5,-237.5 2.5,-371.5 118.5,-371.5 118.5,-237.5 2.5,-237.5"/>
<text text-anchor="middle" x="60.5" y="-359.5" font-family="Helvetica,sans-Serif" font-size="10.00">ComPWA::FitResult</text>
<polyline fill="none" stroke="black" points="2.5,-352.5 118.5,-352.5 "/>
<text text-anchor="start" x="10.5" y="-340.5" font-family="Helvetica,sans-Serif" font-size="10.00">+ InitialParameters</text>
<text text-anchor="start" x="10.5" y="-329.5" font-family="Helvetica,sans-Serif" font-size="10.00">+ FinalParameters</text>
<text text-anchor="start" x="10.5" y="-318.5" font-family="Helvetica,sans-Serif" font-size="10.00">+ NumFreeParameters</text>
<text text-anchor="start" x="10.5" y="-307.5" font-family="Helvetica,sans-Serif" font-size="10.00">+ IsValid</text>
<text text-anchor="start" x="10.5" y="-296.5" font-family="Helvetica,sans-Serif" font-size="10.00">+ InitialEstimatorValue</text>
<text text-anchor="start" x="10.5" y="-285.5" font-family="Helvetica,sans-Serif" font-size="10.00">+ FinalEstimatorValue</text>
<text text-anchor="start" x="10.5" y="-274.5" font-family="Helvetica,sans-Serif" font-size="10.00">+ FitDuration</text>
<text text-anchor="start" x="10.5" y="-263.5" font-family="Helvetica,sans-Serif" font-size="10.00">+ CovarianceMatrix</text>
<polyline fill="none" stroke="black" points="2.5,-256.5 118.5,-256.5 "/>
<text text-anchor="start" x="10.5" y="-244.5" font-family="Helvetica,sans-Serif" font-size="10.00">&#45; serialize()</text>
</a>
</g>
</g>
<!-- Node2&#45;&gt;Node1 -->
<g id="edge1" class="edge"><title>Node2&#45;&gt;Node1</title>
<path fill="none" stroke="midnightblue" d="M60.5,-227.302C60.5,-218.62 60.5,-209.677 60.5,-200.752"/>
<polygon fill="none" stroke="midnightblue" points="57.0001,-227.358 60.5,-237.358 64.0001,-227.358 57.0001,-227.358"/>
</g>
</g>
</svg>
