<?xml version="1.0" encoding="UTF-8" standalone="no"?>
<!DOCTYPE svg PUBLIC "-//W3C//DTD SVG 1.1//EN"
 "http://www.w3.org/Graphics/SVG/1.1/DTD/svg11.dtd">
<!-- Generated by graphviz version 2.38.0 (20140413.2041)
 -->
<!-- Title: ComPWA::FitParameter&lt; T &gt; Pages: 1 -->
<svg width="155pt" height="237pt"
 viewBox="0.00 0.00 155.00 237.00" xmlns="http://www.w3.org/2000/svg" xmlns:xlink="http://www.w3.org/1999/xlink">
<g id="graph0" class="graph" transform="scale(1 1) rotate(0) translate(4 233)">
<title>ComPWA::FitParameter&lt; T &gt;</title>
<polygon fill="white" stroke="none" points="-4,4 -4,-233 151,-233 151,4 -4,4"/>
<!-- Node1 -->
<g id="node1" class="node"><title>Node1</title>
<polygon fill="#bfbfbf" stroke="black" points="0,-0.5 0,-123.5 147,-123.5 147,-0.5 0,-0.5"/>
<text text-anchor="middle" x="73.5" y="-111.5" font-family="Helvetica,sans-Serif" font-size="10.00">ComPWA::FitParameter&lt; T &gt;</text>
<polyline fill="none" stroke="black" points="0,-104.5 147,-104.5 "/>
<text text-anchor="start" x="8" y="-92.5" font-family="Helvetica,sans-Serif" font-size="10.00">+ HasBounds</text>
<text text-anchor="start" x="8" y="-81.5" font-family="Helvetica,sans-Serif" font-size="10.00">+ IsFixed</text>
<text text-anchor="start" x="8" y="-70.5" font-family="Helvetica,sans-Serif" font-size="10.00">+ Error</text>
<text text-anchor="start" x="8" y="-59.5" font-family="Helvetica,sans-Serif" font-size="10.00">+ Name</text>
<text text-anchor="start" x="8" y="-48.5" font-family="Helvetica,sans-Serif" font-size="10.00">+ Bounds</text>
<polyline fill="none" stroke="black" points="0,-41.5 147,-41.5 "/>
<text text-anchor="start" x="8" y="-29.5" font-family="Helvetica,sans-Serif" font-size="10.00">+ FitParameter()</text>
<text text-anchor="start" x="8" y="-18.5" font-family="Helvetica,sans-Serif" font-size="10.00">+ FitParameter()</text>
<text text-anchor="start" x="8" y="-7.5" font-family="Helvetica,sans-Serif" font-size="10.00">+ FitParameter()</text>
</g>
<!-- Node2 -->
<g id="node2" class="node"><title>Node2</title>
<polygon fill="white" stroke="#bfbfbf" points="59,-171.5 59,-228.5 88,-228.5 88,-171.5 59,-171.5"/>
<text text-anchor="middle" x="73.5" y="-216.5" font-family="Helvetica,sans-Serif" font-size="10.00">T</text>
<polyline fill="none" stroke="#bfbfbf" points="59,-209.5 88,-209.5 "/>
<text text-anchor="middle" x="73.5" y="-197.5" font-family="Helvetica,sans-Serif" font-size="10.00"> </text>
<polyline fill="none" stroke="#bfbfbf" points="59,-190.5 88,-190.5 "/>
<text text-anchor="middle" x="73.5" y="-178.5" font-family="Helvetica,sans-Serif" font-size="10.00"> </text>
</g>
<!-- Node2&#45;&gt;Node1 -->
<g id="edge1" class="edge"><title>Node2&#45;&gt;Node1</title>
<path fill="none" stroke="#404040" d="M73.5,-171.478C73.5,-161.009 73.5,-148.526 73.5,-135.818"/>
<polygon fill="none" stroke="#404040" points="73.5001,-135.623 69.5,-129.623 73.5,-123.623 77.5,-129.623 73.5001,-135.623"/>
<text text-anchor="middle" x="90.5" y="-145" font-family="Helvetica,sans-Serif" font-size="10.00"> +Value</text>
</g>
</g>
</svg>
