<?xml version="1.0" encoding="UTF-8" standalone="no"?>
<!DOCTYPE svg PUBLIC "-//W3C//DTD SVG 1.1//EN"
 "http://www.w3.org/Graphics/SVG/1.1/DTD/svg11.dtd">
<!-- Generated by graphviz version 2.38.0 (20140413.2041)
 -->
<!-- Title: ComPWA::Physics::Dynamics::Voigtian::InputInfo Pages: 1 -->
<svg width="160pt" height="353pt"
 viewBox="0.00 0.00 160.00 353.00" xmlns="http://www.w3.org/2000/svg" xmlns:xlink="http://www.w3.org/1999/xlink">
<g id="graph0" class="graph" transform="scale(1 1) rotate(0) translate(4 349)">
<title>ComPWA::Physics::Dynamics::Voigtian::InputInfo</title>
<polygon fill="white" stroke="none" points="-4,4 -4,-349 156,-349 156,4 -4,4"/>
<!-- Node1 -->
<g id="node1" class="node"><title>Node1</title>
<polygon fill="#bfbfbf" stroke="black" points="0,-0.5 0,-68.5 152,-68.5 152,-0.5 0,-0.5"/>
<text text-anchor="start" x="8" y="-56.5" font-family="Helvetica,sans-Serif" font-size="10.00">ComPWA::Physics::Dynamics</text>
<text text-anchor="middle" x="76" y="-45.5" font-family="Helvetica,sans-Serif" font-size="10.00">::Voigtian::InputInfo</text>
<polyline fill="none" stroke="black" points="0,-38.5 152,-38.5 "/>
<text text-anchor="start" x="8" y="-26.5" font-family="Helvetica,sans-Serif" font-size="10.00">+ Sigma</text>
<polyline fill="none" stroke="black" points="0,-19.5 152,-19.5 "/>
<text text-anchor="middle" x="76" y="-7.5" font-family="Helvetica,sans-Serif" font-size="10.00"> </text>
</g>
<!-- Node2 -->
<g id="node2" class="node"><title>Node2</title>
<g id="a_node2"><a xlink:href="structComPWA_1_1Physics_1_1Dynamics_1_1RelativisticBreitWigner_1_1InputInfo.html" target="_top" xlink:title="{ComPWA::Physics::Dynamics\l::RelativisticBreitWigner\l::InputInfo\n|+ Width\l|}">
<polygon fill="white" stroke="black" points="0,-105.5 0,-184.5 152,-184.5 152,-105.5 0,-105.5"/>
<text text-anchor="start" x="8" y="-172.5" font-family="Helvetica,sans-Serif" font-size="10.00">ComPWA::Physics::Dynamics</text>
<text text-anchor="start" x="8" y="-161.5" font-family="Helvetica,sans-Serif" font-size="10.00">::RelativisticBreitWigner</text>
<text text-anchor="middle" x="76" y="-150.5" font-family="Helvetica,sans-Serif" font-size="10.00">::InputInfo</text>
<polyline fill="none" stroke="black" points="0,-143.5 152,-143.5 "/>
<text text-anchor="start" x="8" y="-131.5" font-family="Helvetica,sans-Serif" font-size="10.00">+ Width</text>
<polyline fill="none" stroke="black" points="0,-124.5 152,-124.5 "/>
<text text-anchor="middle" x="76" y="-112.5" font-family="Helvetica,sans-Serif" font-size="10.00"> </text>
</a>
</g>
</g>
<!-- Node2&#45;&gt;Node1 -->
<g id="edge1" class="edge"><title>Node2&#45;&gt;Node1</title>
<path fill="none" stroke="midnightblue" d="M76,-95.3492C76,-86.2824 76,-77.0048 76,-68.5439"/>
<polygon fill="none" stroke="midnightblue" points="72.5001,-95.4414 76,-105.441 79.5001,-95.4415 72.5001,-95.4414"/>
</g>
<!-- Node3 -->
<g id="node3" class="node"><title>Node3</title>
<g id="a_node3"><a xlink:href="structComPWA_1_1Physics_1_1Dynamics_1_1InputInfo.html" target="_top" xlink:title="{ComPWA::Physics::Dynamics\l::InputInfo\n|+ Type\l+ L\l+ DaughterMasses\l+ Mass\l+ MesonRadius\l+ FormFactorFunctor\l|}">
<polygon fill="white" stroke="black" points="0,-221.5 0,-344.5 152,-344.5 152,-221.5 0,-221.5"/>
<text text-anchor="start" x="8" y="-332.5" font-family="Helvetica,sans-Serif" font-size="10.00">ComPWA::Physics::Dynamics</text>
<text text-anchor="middle" x="76" y="-321.5" font-family="Helvetica,sans-Serif" font-size="10.00">::InputInfo</text>
<polyline fill="none" stroke="black" points="0,-314.5 152,-314.5 "/>
<text text-anchor="start" x="8" y="-302.5" font-family="Helvetica,sans-Serif" font-size="10.00">+ Type</text>
<text text-anchor="start" x="8" y="-291.5" font-family="Helvetica,sans-Serif" font-size="10.00">+ L</text>
<text text-anchor="start" x="8" y="-280.5" font-family="Helvetica,sans-Serif" font-size="10.00">+ DaughterMasses</text>
<text text-anchor="start" x="8" y="-269.5" font-family="Helvetica,sans-Serif" font-size="10.00">+ Mass</text>
<text text-anchor="start" x="8" y="-258.5" font-family="Helvetica,sans-Serif" font-size="10.00">+ MesonRadius</text>
<text text-anchor="start" x="8" y="-247.5" font-family="Helvetica,sans-Serif" font-size="10.00">+ FormFactorFunctor</text>
<polyline fill="none" stroke="black" points="0,-240.5 152,-240.5 "/>
<text text-anchor="middle" x="76" y="-228.5" font-family="Helvetica,sans-Serif" font-size="10.00"> </text>
</a>
</g>
</g>
<!-- Node3&#45;&gt;Node2 -->
<g id="edge2" class="edge"><title>Node3&#45;&gt;Node2</title>
<path fill="none" stroke="midnightblue" d="M76,-210.911C76,-201.831 76,-192.824 76,-184.54"/>
<polygon fill="none" stroke="midnightblue" points="72.5001,-211.16 76,-221.16 79.5001,-211.16 72.5001,-211.16"/>
</g>
</g>
</svg>
