<?xml version="1.0" encoding="UTF-8" standalone="no"?>
<!DOCTYPE svg PUBLIC "-//W3C//DTD SVG 1.1//EN"
 "http://www.w3.org/Graphics/SVG/1.1/DTD/svg11.dtd">
<!-- Generated by graphviz version 2.38.0 (20140413.2041)
 -->
<!-- Title: Physics/SubSystem.hpp Pages: 1 -->
<svg width="1527pt" height="218pt"
 viewBox="0.00 0.00 1527.00 218.00" xmlns="http://www.w3.org/2000/svg" xmlns:xlink="http://www.w3.org/1999/xlink">
<g id="graph0" class="graph" transform="scale(1 1) rotate(0) translate(4 214)">
<title>Physics/SubSystem.hpp</title>
<polygon fill="white" stroke="none" points="-4,4 -4,-214 1523,-214 1523,4 -4,4"/>
<!-- Node1 -->
<g id="node1" class="node"><title>Node1</title>
<polygon fill="#bfbfbf" stroke="black" points="1243,-190.5 1243,-209.5 1368,-209.5 1368,-190.5 1243,-190.5"/>
<text text-anchor="middle" x="1305.5" y="-197.5" font-family="Helvetica,sans-Serif" font-size="10.00">Physics/SubSystem.hpp</text>
</g>
<!-- Node2 -->
<g id="node2" class="node"><title>Node2</title>
<g id="a_node2"><a xlink:href="HelicityKinematics_8hpp.html" target="_top" xlink:title="Physics/HelicityFormalism\l/HelicityKinematics.hpp">
<polygon fill="white" stroke="black" points="472.5,-123.5 472.5,-153.5 606.5,-153.5 606.5,-123.5 472.5,-123.5"/>
<text text-anchor="start" x="480.5" y="-141.5" font-family="Helvetica,sans-Serif" font-size="10.00">Physics/HelicityFormalism</text>
<text text-anchor="middle" x="539.5" y="-130.5" font-family="Helvetica,sans-Serif" font-size="10.00">/HelicityKinematics.hpp</text>
</a>
</g>
</g>
<!-- Node1&#45;&gt;Node2 -->
<g id="edge1" class="edge"><title>Node1&#45;&gt;Node2</title>
<path fill="none" stroke="midnightblue" d="M1232.46,-193.327C1084.18,-181.808 749.759,-155.832 606.596,-144.712"/>
<polygon fill="midnightblue" stroke="midnightblue" points="1232.57,-196.846 1242.82,-194.131 1233.12,-189.867 1232.57,-196.846"/>
</g>
<!-- Node11 -->
<g id="node11" class="node"><title>Node11</title>
<g id="a_node11"><a xlink:href="DalitzKinematics_8hpp.html" target="_top" xlink:title="Contains DalitzKinematics class. ">
<polygon fill="white" stroke="black" points="1153.5,-129 1153.5,-148 1337.5,-148 1337.5,-129 1153.5,-129"/>
<text text-anchor="middle" x="1245.5" y="-136" font-family="Helvetica,sans-Serif" font-size="10.00">Physics/EvtGen/DalitzKinematics.hpp</text>
</a>
</g>
</g>
<!-- Node1&#45;&gt;Node11 -->
<g id="edge10" class="edge"><title>Node1&#45;&gt;Node11</title>
<path fill="none" stroke="midnightblue" d="M1289.69,-183.325C1278.29,-172.02 1263.34,-157.193 1254.08,-148.009"/>
<polygon fill="midnightblue" stroke="midnightblue" points="1287.34,-185.919 1296.9,-190.475 1292.27,-180.948 1287.34,-185.919"/>
</g>
<!-- Node12 -->
<g id="node12" class="node"><title>Node12</title>
<g id="a_node12"><a xlink:href="EvtGenIF_8hpp.html" target="_top" xlink:title="Physics/EvtGen/EvtGenIF.hpp">
<polygon fill="white" stroke="red" points="1355.5,-62 1355.5,-81 1507.5,-81 1507.5,-62 1355.5,-62"/>
<text text-anchor="middle" x="1431.5" y="-69" font-family="Helvetica,sans-Serif" font-size="10.00">Physics/EvtGen/EvtGenIF.hpp</text>
</a>
</g>
</g>
<!-- Node1&#45;&gt;Node12 -->
<g id="edge15" class="edge"><title>Node1&#45;&gt;Node12</title>
<path fill="none" stroke="midnightblue" d="M1321.26,-183.174C1348.09,-156.238 1401.77,-102.352 1422.78,-81.2557"/>
<polygon fill="midnightblue" stroke="midnightblue" points="1318.74,-180.75 1314.16,-190.305 1323.7,-185.69 1318.74,-180.75"/>
</g>
<!-- Node14 -->
<g id="node14" class="node"><title>Node14</title>
<g id="a_node14"><a xlink:href="SubSystem_8cpp.html" target="_top" xlink:title="Physics/SubSystem.cpp">
<polygon fill="white" stroke="black" points="1394,-129 1394,-148 1519,-148 1519,-129 1394,-129"/>
<text text-anchor="middle" x="1456.5" y="-136" font-family="Helvetica,sans-Serif" font-size="10.00">Physics/SubSystem.cpp</text>
</a>
</g>
</g>
<!-- Node1&#45;&gt;Node14 -->
<g id="edge16" class="edge"><title>Node1&#45;&gt;Node14</title>
<path fill="none" stroke="midnightblue" d="M1336.51,-186.782C1365.85,-175.22 1409.13,-158.164 1434.91,-148.009"/>
<polygon fill="midnightblue" stroke="midnightblue" points="1335.16,-183.553 1327.13,-190.475 1337.72,-190.065 1335.16,-183.553"/>
</g>
<!-- Node3 -->
<g id="node3" class="node"><title>Node3</title>
<g id="a_node3"><a xlink:href="DalitzFitD03K_8cpp.html" target="_top" xlink:title="Executable for Dalitz plot analysis of the decay D0 &#45;&gt; K_S K+ K&#45;. ">
<polygon fill="white" stroke="black" points="0,-56.5 0,-86.5 143,-86.5 143,-56.5 0,-56.5"/>
<text text-anchor="start" x="8" y="-74.5" font-family="Helvetica,sans-Serif" font-size="10.00">Examples/DalitzAnalysis</text>
<text text-anchor="middle" x="71.5" y="-63.5" font-family="Helvetica,sans-Serif" font-size="10.00">_D0KsKK/DalitzFitD03K.cpp</text>
</a>
</g>
</g>
<!-- Node2&#45;&gt;Node3 -->
<g id="edge2" class="edge"><title>Node2&#45;&gt;Node3</title>
<path fill="none" stroke="midnightblue" d="M461.991,-128.481C383.752,-119.12 259.52,-103.552 152.5,-87 149.394,-86.5196 146.224,-86.0147 143.023,-85.4931"/>
<polygon fill="midnightblue" stroke="midnightblue" points="461.902,-131.995 472.246,-129.704 462.731,-125.044 461.902,-131.995"/>
</g>
<!-- Node4 -->
<g id="node4" class="node"><title>Node4</title>
<g id="a_node4"><a xlink:href="DalitzFitApp_8cpp.html" target="_top" xlink:title="Simple Dalitz plot analysis with ComPWA. ">
<polygon fill="white" stroke="black" points="161.5,-56.5 161.5,-86.5 261.5,-86.5 261.5,-56.5 161.5,-56.5"/>
<text text-anchor="start" x="169.5" y="-74.5" font-family="Helvetica,sans-Serif" font-size="10.00">Examples/DalitzFit</text>
<text text-anchor="middle" x="211.5" y="-63.5" font-family="Helvetica,sans-Serif" font-size="10.00">/DalitzFitApp.cpp</text>
</a>
</g>
</g>
<!-- Node2&#45;&gt;Node4 -->
<g id="edge3" class="edge"><title>Node2&#45;&gt;Node4</title>
<path fill="none" stroke="midnightblue" d="M462.421,-123.466C409.698,-113.692 338.26,-100.108 275.5,-87 271.039,-86.0683 266.41,-85.0738 261.774,-84.0587"/>
<polygon fill="midnightblue" stroke="midnightblue" points="461.904,-126.93 472.374,-125.307 463.177,-120.046 461.904,-126.93"/>
</g>
<!-- Node5 -->
<g id="node5" class="node"><title>Node5</title>
<g id="a_node5"><a xlink:href="EvtGenFit_8cpp.html" target="_top" xlink:title="Examples/EvtGen/EvtGenFit.cpp">
<polygon fill="white" stroke="black" points="1044.5,-0.5 1044.5,-19.5 1206.5,-19.5 1206.5,-0.5 1044.5,-0.5"/>
<text text-anchor="middle" x="1125.5" y="-7.5" font-family="Helvetica,sans-Serif" font-size="10.00">Examples/EvtGen/EvtGenFit.cpp</text>
</a>
</g>
</g>
<!-- Node2&#45;&gt;Node5 -->
<g id="edge4" class="edge"><title>Node2&#45;&gt;Node5</title>
<path fill="none" stroke="midnightblue" d="M462.111,-133.874C377.097,-127.237 258.78,-108.534 308.5,-56 333.537,-29.5457 842.992,-16.594 1044.49,-12.4909"/>
<polygon fill="midnightblue" stroke="midnightblue" points="462.07,-137.38 472.3,-134.625 462.585,-130.399 462.07,-137.38"/>
</g>
<!-- Node6 -->
<g id="node6" class="node"><title>Node6</title>
<g id="a_node6"><a xlink:href="SimFit_8cpp.html" target="_top" xlink:title="Examples/SimFit/SimFit.cpp">
<polygon fill="white" stroke="black" points="317.5,-62 317.5,-81 459.5,-81 459.5,-62 317.5,-62"/>
<text text-anchor="middle" x="388.5" y="-69" font-family="Helvetica,sans-Serif" font-size="10.00">Examples/SimFit/SimFit.cpp</text>
</a>
</g>
</g>
<!-- Node2&#45;&gt;Node6 -->
<g id="edge5" class="edge"><title>Node2&#45;&gt;Node6</title>
<path fill="none" stroke="midnightblue" d="M497.209,-119.295C468.089,-106.76 430.738,-90.682 408.262,-81.007"/>
<polygon fill="midnightblue" stroke="midnightblue" points="496.166,-122.657 506.735,-123.396 498.934,-116.227 496.166,-122.657"/>
</g>
<!-- Node7 -->
<g id="node7" class="node"><title>Node7</title>
<g id="a_node7"><a xlink:href="BuilderXML_8cpp.html" target="_top" xlink:title="Physics/BuilderXML.cpp">
<polygon fill="white" stroke="black" points="477.5,-62 477.5,-81 601.5,-81 601.5,-62 477.5,-62"/>
<text text-anchor="middle" x="539.5" y="-69" font-family="Helvetica,sans-Serif" font-size="10.00">Physics/BuilderXML.cpp</text>
</a>
</g>
</g>
<!-- Node2&#45;&gt;Node7 -->
<g id="edge6" class="edge"><title>Node2&#45;&gt;Node7</title>
<path fill="none" stroke="midnightblue" d="M539.5,-113.25C539.5,-102.017 539.5,-89.3767 539.5,-81.1945"/>
<polygon fill="midnightblue" stroke="midnightblue" points="536,-113.396 539.5,-123.396 543,-113.396 536,-113.396"/>
</g>
<!-- Node8 -->
<g id="node8" class="node"><title>Node8</title>
<g id="a_node8"><a xlink:href="HelicityKinematics_8cpp.html" target="_top" xlink:title="Physics/HelicityFormalism\l/HelicityKinematics.cpp">
<polygon fill="white" stroke="black" points="619.5,-56.5 619.5,-86.5 753.5,-86.5 753.5,-56.5 619.5,-56.5"/>
<text text-anchor="start" x="627.5" y="-74.5" font-family="Helvetica,sans-Serif" font-size="10.00">Physics/HelicityFormalism</text>
<text text-anchor="middle" x="686.5" y="-63.5" font-family="Helvetica,sans-Serif" font-size="10.00">/HelicityKinematics.cpp</text>
</a>
</g>
</g>
<!-- Node2&#45;&gt;Node8 -->
<g id="edge7" class="edge"><title>Node2&#45;&gt;Node8</title>
<path fill="none" stroke="midnightblue" d="M580.731,-119.269C604.144,-108.916 633.008,-96.1528 654.665,-86.5765"/>
<polygon fill="midnightblue" stroke="midnightblue" points="579.127,-116.151 571.397,-123.396 581.958,-122.553 579.127,-116.151"/>
</g>
<!-- Node9 -->
<g id="node9" class="node"><title>Node9</title>
<g id="a_node9"><a xlink:href="BOSSAdapter_8hpp.html" target="_top" xlink:title="Tools/Adapters/BOSSAdapter.hpp">
<polygon fill="white" stroke="red" points="771.5,-62 771.5,-81 937.5,-81 937.5,-62 771.5,-62"/>
<text text-anchor="middle" x="854.5" y="-69" font-family="Helvetica,sans-Serif" font-size="10.00">Tools/Adapters/BOSSAdapter.hpp</text>
</a>
</g>
</g>
<!-- Node2&#45;&gt;Node9 -->
<g id="edge8" class="edge"><title>Node2&#45;&gt;Node9</title>
<path fill="none" stroke="midnightblue" d="M616.809,-121.547C678.717,-108.773 763.17,-91.3459 812.959,-81.072"/>
<polygon fill="midnightblue" stroke="midnightblue" points="615.775,-118.187 606.689,-123.636 617.19,-125.042 615.775,-118.187"/>
</g>
<!-- Node10 -->
<g id="node10" class="node"><title>Node10</title>
<g id="a_node10"><a xlink:href="DalitzPlot_8cpp.html" target="_top" xlink:title="Tools/Plotting/DalitzPlot.cpp">
<polygon fill="white" stroke="black" points="956,-62 956,-81 1097,-81 1097,-62 956,-62"/>
<text text-anchor="middle" x="1026.5" y="-69" font-family="Helvetica,sans-Serif" font-size="10.00">Tools/Plotting/DalitzPlot.cpp</text>
</a>
</g>
</g>
<!-- Node2&#45;&gt;Node10 -->
<g id="edge9" class="edge"><title>Node2&#45;&gt;Node10</title>
<path fill="none" stroke="midnightblue" d="M616.622,-129.229C698.608,-120.134 831.97,-104.471 946.5,-87 957.942,-85.2546 970.262,-83.1396 981.724,-81.071"/>
<polygon fill="midnightblue" stroke="midnightblue" points="616.191,-125.756 606.636,-130.333 616.96,-132.713 616.191,-125.756"/>
</g>
<!-- Node11&#45;&gt;Node5 -->
<g id="edge11" class="edge"><title>Node11&#45;&gt;Node5</title>
<path fill="none" stroke="midnightblue" d="M1203.17,-125.591C1182.66,-117.769 1159.33,-105.482 1144.5,-87 1128.33,-66.8429 1125.7,-34.7425 1125.41,-19.5305"/>
<polygon fill="midnightblue" stroke="midnightblue" points="1202.06,-128.911 1212.66,-128.978 1204.42,-122.319 1202.06,-128.911"/>
</g>
<!-- Node11&#45;&gt;Node12 -->
<g id="edge12" class="edge"><title>Node11&#45;&gt;Node12</title>
<path fill="none" stroke="midnightblue" d="M1280.02,-125.436C1316.92,-112.542 1374.49,-92.4243 1406.99,-81.0637"/>
<polygon fill="midnightblue" stroke="midnightblue" points="1278.48,-122.265 1270.2,-128.869 1280.79,-128.874 1278.48,-122.265"/>
</g>
<!-- Node13 -->
<g id="node13" class="node"><title>Node13</title>
<g id="a_node13"><a xlink:href="DalitzKinematics_8cpp.html" target="_top" xlink:title="Physics/EvtGen/DalitzKinematics.cpp">
<polygon fill="white" stroke="black" points="1153.5,-62 1153.5,-81 1337.5,-81 1337.5,-62 1153.5,-62"/>
<text text-anchor="middle" x="1245.5" y="-69" font-family="Helvetica,sans-Serif" font-size="10.00">Physics/EvtGen/DalitzKinematics.cpp</text>
</a>
</g>
</g>
<!-- Node11&#45;&gt;Node13 -->
<g id="edge14" class="edge"><title>Node11&#45;&gt;Node13</title>
<path fill="none" stroke="midnightblue" d="M1245.5,-118.537C1245.5,-106.17 1245.5,-90.6198 1245.5,-81.1273"/>
<polygon fill="midnightblue" stroke="midnightblue" points="1242,-118.734 1245.5,-128.734 1249,-118.734 1242,-118.734"/>
</g>
<!-- Node12&#45;&gt;Node5 -->
<g id="edge13" class="edge"><title>Node12&#45;&gt;Node5</title>
<path fill="none" stroke="midnightblue" d="M1377.73,-60.0456C1318.45,-48.5184 1224.21,-30.1939 1169.26,-19.5091"/>
<polygon fill="midnightblue" stroke="midnightblue" points="1377.17,-63.502 1387.66,-61.9751 1378.51,-56.6307 1377.17,-63.502"/>
</g>
</g>
</svg>
