<?xml version="1.0" encoding="UTF-8" standalone="no"?>
<!DOCTYPE svg PUBLIC "-//W3C//DTD SVG 1.1//EN"
 "http://www.w3.org/Graphics/SVG/1.1/DTD/svg11.dtd">
<!-- Generated by graphviz version 2.38.0 (20140413.2041)
 -->
<!-- Title: Physics/SubSystem.cpp Pages: 1 -->
<svg width="249pt" height="151pt"
 viewBox="0.00 0.00 249.00 151.00" xmlns="http://www.w3.org/2000/svg" xmlns:xlink="http://www.w3.org/1999/xlink">
<g id="graph0" class="graph" transform="scale(1 1) rotate(0) translate(4 147)">
<title>Physics/SubSystem.cpp</title>
<polygon fill="white" stroke="none" points="-4,4 -4,-147 245,-147 245,4 -4,4"/>
<!-- Node1 -->
<g id="node1" class="node"><title>Node1</title>
<polygon fill="#bfbfbf" stroke="black" points="37,-123.5 37,-142.5 162,-142.5 162,-123.5 37,-123.5"/>
<text text-anchor="middle" x="99.5" y="-130.5" font-family="Helvetica,sans-Serif" font-size="10.00">Physics/SubSystem.cpp</text>
</g>
<!-- Node2 -->
<g id="node2" class="node"><title>Node2</title>
<g id="a_node2"><a xlink:href="SubSystem_8hpp.html" target="_top" xlink:title="Contains SubSystem class. ">
<polygon fill="white" stroke="black" points="56.5,-67.5 56.5,-86.5 142.5,-86.5 142.5,-67.5 56.5,-67.5"/>
<text text-anchor="middle" x="99.5" y="-74.5" font-family="Helvetica,sans-Serif" font-size="10.00">SubSystem.hpp</text>
</a>
</g>
</g>
<!-- Node1&#45;&gt;Node2 -->
<g id="edge1" class="edge"><title>Node1&#45;&gt;Node2</title>
<path fill="none" stroke="midnightblue" d="M99.5,-123.083C99.5,-116.006 99.5,-105.861 99.5,-96.9865"/>
<polygon fill="midnightblue" stroke="midnightblue" points="103,-96.751 99.5,-86.7511 96.0001,-96.7511 103,-96.751"/>
</g>
<!-- Node3 -->
<g id="node3" class="node"><title>Node3</title>
<polygon fill="white" stroke="#bfbfbf" points="0,-6 0,-25 59,-25 59,-6 0,-6"/>
<text text-anchor="middle" x="29.5" y="-13" font-family="Helvetica,sans-Serif" font-size="10.00">functional</text>
</g>
<!-- Node2&#45;&gt;Node3 -->
<g id="edge2" class="edge"><title>Node2&#45;&gt;Node3</title>
<path fill="none" stroke="midnightblue" d="M89.4707,-67.4751C78.4509,-58.1082 60.5399,-42.8839 47.1565,-31.5081"/>
<polygon fill="midnightblue" stroke="midnightblue" points="49.3969,-28.8188 39.5107,-25.0091 44.8633,-34.1524 49.3969,-28.8188"/>
</g>
<!-- Node4 -->
<g id="node4" class="node"><title>Node4</title>
<polygon fill="white" stroke="#bfbfbf" points="77.5,-6 77.5,-25 121.5,-25 121.5,-6 77.5,-6"/>
<text text-anchor="middle" x="99.5" y="-13" font-family="Helvetica,sans-Serif" font-size="10.00">vector</text>
</g>
<!-- Node2&#45;&gt;Node4 -->
<g id="edge3" class="edge"><title>Node2&#45;&gt;Node4</title>
<path fill="none" stroke="midnightblue" d="M99.5,-67.4751C99.5,-59.0803 99.5,-45.9806 99.5,-35.1631"/>
<polygon fill="midnightblue" stroke="midnightblue" points="103,-35.0091 99.5,-25.0091 96.0001,-35.0091 103,-35.0091"/>
</g>
<!-- Node5 -->
<g id="node5" class="node"><title>Node5</title>
<polygon fill="white" stroke="#bfbfbf" points="140,-0.5 140,-30.5 241,-30.5 241,-0.5 140,-0.5"/>
<text text-anchor="start" x="148" y="-18.5" font-family="Helvetica,sans-Serif" font-size="10.00">boost/property_tree</text>
<text text-anchor="middle" x="190.5" y="-7.5" font-family="Helvetica,sans-Serif" font-size="10.00">/ptree.hpp</text>
</g>
<!-- Node2&#45;&gt;Node5 -->
<g id="edge4" class="edge"><title>Node2&#45;&gt;Node5</title>
<path fill="none" stroke="midnightblue" d="M112.538,-67.4751C124.978,-59.3413 144.173,-46.7909 160.403,-36.1788"/>
<polygon fill="midnightblue" stroke="midnightblue" points="162.599,-38.9249 169.053,-30.523 158.768,-33.0661 162.599,-38.9249"/>
</g>
</g>
</svg>
