<?xml version="1.0" encoding="UTF-8" standalone="no"?>
<!DOCTYPE svg PUBLIC "-//W3C//DTD SVG 1.1//EN"
 "http://www.w3.org/Graphics/SVG/1.1/DTD/svg11.dtd">
<!-- Generated by graphviz version 2.38.0 (20140413.2041)
 -->
<!-- Title: Estimator/MinLogLH/SumMinLogLH.cpp Pages: 1 -->
<svg width="1426pt" height="363pt"
 viewBox="0.00 0.00 1425.50 363.00" xmlns="http://www.w3.org/2000/svg" xmlns:xlink="http://www.w3.org/1999/xlink">
<g id="graph0" class="graph" transform="scale(1 1) rotate(0) translate(4 359)">
<title>Estimator/MinLogLH/SumMinLogLH.cpp</title>
<polygon fill="white" stroke="none" points="-4,4 -4,-359 1421.5,-359 1421.5,4 -4,4"/>
<!-- Node1 -->
<g id="node1" class="node"><title>Node1</title>
<polygon fill="#bfbfbf" stroke="black" points="783.5,-324.5 783.5,-354.5 889.5,-354.5 889.5,-324.5 783.5,-324.5"/>
<text text-anchor="start" x="791.5" y="-342.5" font-family="Helvetica,sans-Serif" font-size="10.00">Estimator/MinLogLH</text>
<text text-anchor="middle" x="836.5" y="-331.5" font-family="Helvetica,sans-Serif" font-size="10.00">/SumMinLogLH.cpp</text>
</g>
<!-- Node2 -->
<g id="node2" class="node"><title>Node2</title>
<g id="a_node2"><a xlink:href="SumMinLogLH_8hpp.html" target="_top" xlink:title="Estimator/MinLogLH\l/SumMinLogLH.hpp">
<polygon fill="white" stroke="black" points="205.5,-257.5 205.5,-287.5 311.5,-287.5 311.5,-257.5 205.5,-257.5"/>
<text text-anchor="start" x="213.5" y="-275.5" font-family="Helvetica,sans-Serif" font-size="10.00">Estimator/MinLogLH</text>
<text text-anchor="middle" x="258.5" y="-264.5" font-family="Helvetica,sans-Serif" font-size="10.00">/SumMinLogLH.hpp</text>
</a>
</g>
</g>
<!-- Node1&#45;&gt;Node2 -->
<g id="edge1" class="edge"><title>Node1&#45;&gt;Node2</title>
<path fill="none" stroke="midnightblue" d="M783.347,-332.996C697.226,-324.011 521.864,-305.443 373.5,-288 356.784,-286.035 338.715,-283.806 321.961,-281.695"/>
<polygon fill="midnightblue" stroke="midnightblue" points="322.084,-278.183 311.724,-280.4 321.205,-285.128 322.084,-278.183"/>
</g>
<!-- Node9 -->
<g id="node9" class="node"><title>Node9</title>
<g id="a_node9"><a xlink:href="ParameterList_8hpp.html" target="_top" xlink:title="ParameterList class. ">
<polygon fill="white" stroke="red" points="594.5,-123.5 594.5,-153.5 740.5,-153.5 740.5,-123.5 594.5,-123.5"/>
<text text-anchor="start" x="602.5" y="-141.5" font-family="Helvetica,sans-Serif" font-size="10.00">Core/FunctionTree/Parameter</text>
<text text-anchor="middle" x="667.5" y="-130.5" font-family="Helvetica,sans-Serif" font-size="10.00">List.hpp</text>
</a>
</g>
</g>
<!-- Node1&#45;&gt;Node9 -->
<g id="edge28" class="edge"><title>Node1&#45;&gt;Node9</title>
<path fill="none" stroke="midnightblue" d="M808.53,-324.345C774.289,-305.524 717.092,-268.974 686.5,-221 675.542,-203.817 670.888,-180.994 668.92,-163.872"/>
<polygon fill="midnightblue" stroke="midnightblue" points="672.373,-163.199 667.975,-153.56 665.402,-163.838 672.373,-163.199"/>
</g>
<!-- Node12 -->
<g id="node12" class="node"><title>Node12</title>
<g id="a_node12"><a xlink:href="Event_8hpp.html" target="_top" xlink:title="Core/Event.hpp">
<polygon fill="white" stroke="black" points="1258,-263 1258,-282 1343,-282 1343,-263 1258,-263"/>
<text text-anchor="middle" x="1300.5" y="-270" font-family="Helvetica,sans-Serif" font-size="10.00">Core/Event.hpp</text>
</a>
</g>
</g>
<!-- Node1&#45;&gt;Node12 -->
<g id="edge19" class="edge"><title>Node1&#45;&gt;Node12</title>
<path fill="none" stroke="midnightblue" d="M889.514,-334.066C967.505,-327.06 1117.55,-311.736 1243.5,-288 1248.89,-286.984 1254.53,-285.755 1260.08,-284.447"/>
<polygon fill="midnightblue" stroke="midnightblue" points="1261.02,-287.822 1269.89,-282.039 1259.35,-281.024 1261.02,-287.822"/>
</g>
<!-- Node13 -->
<g id="node13" class="node"><title>Node13</title>
<g id="a_node13"><a xlink:href="Particle_8hpp.html" target="_top" xlink:title="Particle and FourMomentum class. ">
<polygon fill="white" stroke="red" points="1325.5,-196 1325.5,-215 1417.5,-215 1417.5,-196 1325.5,-196"/>
<text text-anchor="middle" x="1371.5" y="-203" font-family="Helvetica,sans-Serif" font-size="10.00">Core/Particle.hpp</text>
</a>
</g>
</g>
<!-- Node1&#45;&gt;Node13 -->
<g id="edge42" class="edge"><title>Node1&#45;&gt;Node13</title>
<path fill="none" stroke="midnightblue" d="M889.611,-336.725C1014.15,-332.081 1317.08,-317.819 1351.5,-288 1369.37,-272.521 1372.62,-243.927 1372.61,-225.058"/>
<polygon fill="midnightblue" stroke="midnightblue" points="1376.1,-224.894 1372.29,-215.008 1369.11,-225.113 1376.1,-224.894"/>
</g>
<!-- Node14 -->
<g id="node14" class="node"><title>Node14</title>
<g id="a_node14"><a xlink:href="FitResult_8hpp.html" target="_top" xlink:title="Core/FitResult.hpp">
<polygon fill="white" stroke="black" points="0,-196 0,-215 99,-215 99,-196 0,-196"/>
<text text-anchor="middle" x="49.5" y="-203" font-family="Helvetica,sans-Serif" font-size="10.00">Core/FitResult.hpp</text>
</a>
</g>
</g>
<!-- Node1&#45;&gt;Node14 -->
<g id="edge23" class="edge"><title>Node1&#45;&gt;Node14</title>
<path fill="none" stroke="midnightblue" d="M783.444,-337.208C650.486,-333.508 305.891,-320.94 196.5,-288 147.297,-273.184 96.2296,-240.188 69.1437,-221.034"/>
<polygon fill="midnightblue" stroke="midnightblue" points="71.0765,-218.113 60.9147,-215.115 66.989,-223.795 71.0765,-218.113"/>
</g>
<!-- Node16 -->
<g id="node16" class="node"><title>Node16</title>
<g id="a_node16"><a xlink:href="TreeNode_8hpp.html" target="_top" xlink:title="TreeNode class. ">
<polygon fill="white" stroke="black" points="925.5,-263 925.5,-282 1087.5,-282 1087.5,-263 925.5,-263"/>
<text text-anchor="middle" x="1006.5" y="-270" font-family="Helvetica,sans-Serif" font-size="10.00">Core/FunctionTree/TreeNode.hpp</text>
</a>
</g>
</g>
<!-- Node1&#45;&gt;Node16 -->
<g id="edge29" class="edge"><title>Node1&#45;&gt;Node16</title>
<path fill="none" stroke="midnightblue" d="M873.387,-324.396C903.612,-312.84 945.938,-296.656 974.689,-285.663"/>
<polygon fill="midnightblue" stroke="midnightblue" points="976.16,-288.848 984.251,-282.007 973.66,-282.309 976.16,-288.848"/>
</g>
<!-- Node20 -->
<g id="node20" class="node"><title>Node20</title>
<g id="a_node20"><a xlink:href="Kinematics_8hpp.html" target="_top" xlink:title="Core/Kinematics.hpp">
<polygon fill="white" stroke="black" points="1161.5,-62 1161.5,-81 1269.5,-81 1269.5,-62 1161.5,-62"/>
<text text-anchor="middle" x="1215.5" y="-69" font-family="Helvetica,sans-Serif" font-size="10.00">Core/Kinematics.hpp</text>
</a>
</g>
</g>
<!-- Node1&#45;&gt;Node20 -->
<g id="edge39" class="edge"><title>Node1&#45;&gt;Node20</title>
<path fill="none" stroke="midnightblue" d="M889.686,-333.376C955.806,-326.13 1063.94,-311.137 1096.5,-288 1166.54,-238.236 1199.96,-133.735 1211.08,-91.1547"/>
<polygon fill="midnightblue" stroke="midnightblue" points="1214.52,-91.8563 1213.54,-81.3064 1207.73,-90.1612 1214.52,-91.8563"/>
</g>
<!-- Node21 -->
<g id="node21" class="node"><title>Node21</title>
<g id="a_node21"><a xlink:href="MinLogLH_8hpp.html" target="_top" xlink:title="Estimator/MinLogLH\l/MinLogLH.hpp">
<polygon fill="white" stroke="black" points="382.5,-257.5 382.5,-287.5 488.5,-287.5 488.5,-257.5 382.5,-257.5"/>
<text text-anchor="start" x="390.5" y="-275.5" font-family="Helvetica,sans-Serif" font-size="10.00">Estimator/MinLogLH</text>
<text text-anchor="middle" x="435.5" y="-264.5" font-family="Helvetica,sans-Serif" font-size="10.00">/MinLogLH.hpp</text>
</a>
</g>
</g>
<!-- Node1&#45;&gt;Node21 -->
<g id="edge43" class="edge"><title>Node1&#45;&gt;Node21</title>
<path fill="none" stroke="midnightblue" d="M783.25,-329.869C709.747,-317.954 577.401,-296.501 498.889,-283.775"/>
<polygon fill="midnightblue" stroke="midnightblue" points="499.081,-280.261 488.65,-282.115 497.961,-287.17 499.081,-280.261"/>
</g>
<!-- Node3 -->
<g id="node3" class="node"><title>Node3</title>
<g id="a_node3"><a xlink:href="FitParameter_8hpp.html" target="_top" xlink:title="Core/FitParameter.hpp">
<polygon fill="white" stroke="red" points="118.5,-129 118.5,-148 234.5,-148 234.5,-129 118.5,-129"/>
<text text-anchor="middle" x="176.5" y="-136" font-family="Helvetica,sans-Serif" font-size="10.00">Core/FitParameter.hpp</text>
</a>
</g>
</g>
<!-- Node2&#45;&gt;Node3 -->
<g id="edge2" class="edge"><title>Node2&#45;&gt;Node3</title>
<path fill="none" stroke="midnightblue" d="M244.242,-257.354C235,-247.682 223.121,-234.259 214.5,-221 201.251,-200.623 190.063,-174.888 183.329,-157.848"/>
<polygon fill="midnightblue" stroke="midnightblue" points="186.586,-156.568 179.733,-148.488 180.052,-159.078 186.586,-156.568"/>
</g>
<!-- Node7 -->
<g id="node7" class="node"><title>Node7</title>
<g id="a_node7"><a xlink:href="FunctionTreeEstimator_8hpp.html" target="_top" xlink:title="Core/FunctionTree/Function\lTreeEstimator.hpp">
<polygon fill="white" stroke="black" points="231.5,-190.5 231.5,-220.5 369.5,-220.5 369.5,-190.5 231.5,-190.5"/>
<text text-anchor="start" x="239.5" y="-208.5" font-family="Helvetica,sans-Serif" font-size="10.00">Core/FunctionTree/Function</text>
<text text-anchor="middle" x="300.5" y="-197.5" font-family="Helvetica,sans-Serif" font-size="10.00">TreeEstimator.hpp</text>
</a>
</g>
</g>
<!-- Node2&#45;&gt;Node7 -->
<g id="edge8" class="edge"><title>Node2&#45;&gt;Node7</title>
<path fill="none" stroke="midnightblue" d="M267.613,-257.396C272.952,-249.134 279.819,-238.507 285.896,-229.102"/>
<polygon fill="midnightblue" stroke="midnightblue" points="288.917,-230.875 291.404,-220.577 283.037,-227.076 288.917,-230.875"/>
</g>
<!-- Node11 -->
<g id="node11" class="node"><title>Node11</title>
<g id="a_node11"><a xlink:href="Estimator_8hpp.html" target="_top" xlink:title="Estimator/Estimator.hpp">
<polygon fill="white" stroke="black" points="252.5,-129 252.5,-148 374.5,-148 374.5,-129 252.5,-129"/>
<text text-anchor="middle" x="313.5" y="-136" font-family="Helvetica,sans-Serif" font-size="10.00">Estimator/Estimator.hpp</text>
</a>
</g>
</g>
<!-- Node2&#45;&gt;Node11 -->
<g id="edge18" class="edge"><title>Node2&#45;&gt;Node11</title>
<path fill="none" stroke="midnightblue" d="M244.258,-257.465C229.175,-240.83 209.238,-212.527 222.5,-190 233.272,-171.702 253.33,-159.562 271.879,-151.782"/>
<polygon fill="midnightblue" stroke="midnightblue" points="273.323,-154.976 281.384,-148.101 270.795,-148.449 273.323,-154.976"/>
</g>
<!-- Node4 -->
<g id="node4" class="node"><title>Node4</title>
<g id="a_node4"><a xlink:href="Function_8hpp.html" target="_top" xlink:title="Core/Function.hpp">
<polygon fill="white" stroke="red" points="243,-62 243,-81 340,-81 340,-62 243,-62"/>
<text text-anchor="middle" x="291.5" y="-69" font-family="Helvetica,sans-Serif" font-size="10.00">Core/Function.hpp</text>
</a>
</g>
</g>
<!-- Node3&#45;&gt;Node4 -->
<g id="edge3" class="edge"><title>Node3&#45;&gt;Node4</title>
<path fill="none" stroke="midnightblue" d="M192.009,-128.734C211.408,-117.769 244.826,-98.8809 267.528,-86.0495"/>
<polygon fill="midnightblue" stroke="midnightblue" points="269.253,-89.0949 276.236,-81.1273 265.808,-83.001 269.253,-89.0949"/>
</g>
<!-- Node5 -->
<g id="node5" class="node"><title>Node5</title>
<polygon fill="white" stroke="#bfbfbf" points="647,-0.5 647,-19.5 688,-19.5 688,-0.5 647,-0.5"/>
<text text-anchor="middle" x="667.5" y="-7.5" font-family="Helvetica,sans-Serif" font-size="10.00">string</text>
</g>
<!-- Node3&#45;&gt;Node5 -->
<g id="edge6" class="edge"><title>Node3&#45;&gt;Node5</title>
<path fill="none" stroke="midnightblue" d="M176.161,-128.942C176.005,-112.015 178.321,-74.3137 200.5,-56 234.098,-28.2565 537.8,-15.4527 636.598,-11.9968"/>
<polygon fill="midnightblue" stroke="midnightblue" points="636.946,-15.4871 646.82,-11.6473 636.706,-8.49118 636.946,-15.4871"/>
</g>
<!-- Node6 -->
<g id="node6" class="node"><title>Node6</title>
<polygon fill="white" stroke="#bfbfbf" points="785.5,-0.5 785.5,-19.5 829.5,-19.5 829.5,-0.5 785.5,-0.5"/>
<text text-anchor="middle" x="807.5" y="-7.5" font-family="Helvetica,sans-Serif" font-size="10.00">vector</text>
</g>
<!-- Node3&#45;&gt;Node6 -->
<g id="edge7" class="edge"><title>Node3&#45;&gt;Node6</title>
<path fill="none" stroke="midnightblue" d="M179.583,-128.934C186.313,-111.643 204.115,-72.7873 233.5,-56 323.108,-4.80826 593.624,-28.1701 696.5,-20 723.001,-17.8954 753.056,-15.4552 775.202,-13.6471"/>
<polygon fill="midnightblue" stroke="midnightblue" points="775.707,-17.1176 785.388,-12.8145 775.137,-10.1409 775.707,-17.1176"/>
</g>
<!-- Node4&#45;&gt;Node5 -->
<g id="edge4" class="edge"><title>Node4&#45;&gt;Node5</title>
<path fill="none" stroke="midnightblue" d="M322.423,-61.9809C330.84,-59.841 339.985,-57.6785 348.5,-56 453.408,-35.3209 579.533,-20.4313 636.678,-14.2169"/>
<polygon fill="midnightblue" stroke="midnightblue" points="637.275,-17.673 646.844,-13.1242 636.527,-10.7131 637.275,-17.673"/>
</g>
<!-- Node4&#45;&gt;Node6 -->
<g id="edge5" class="edge"><title>Node4&#45;&gt;Node6</title>
<path fill="none" stroke="midnightblue" d="M321.489,-61.9654C330.148,-59.7483 339.649,-57.5505 348.5,-56 390.31,-48.6759 677.785,-22.6099 775.258,-13.8759"/>
<polygon fill="midnightblue" stroke="midnightblue" points="775.747,-17.3461 785.396,-12.9686 775.123,-10.374 775.747,-17.3461"/>
</g>
<!-- Node7&#45;&gt;Node3 -->
<g id="edge10" class="edge"><title>Node7&#45;&gt;Node3</title>
<path fill="none" stroke="midnightblue" d="M273.594,-190.396C252.222,-179.193 222.554,-163.641 201.653,-152.685"/>
<polygon fill="midnightblue" stroke="midnightblue" points="203.211,-149.55 192.729,-148.007 199.961,-155.75 203.211,-149.55"/>
</g>
<!-- Node8 -->
<g id="node8" class="node"><title>Node8</title>
<polygon fill="white" stroke="#bfbfbf" points="540.5,-62 540.5,-81 592.5,-81 592.5,-62 540.5,-62"/>
<text text-anchor="middle" x="566.5" y="-69" font-family="Helvetica,sans-Serif" font-size="10.00">memory</text>
</g>
<!-- Node7&#45;&gt;Node8 -->
<g id="edge9" class="edge"><title>Node7&#45;&gt;Node8</title>
<path fill="none" stroke="midnightblue" d="M328.643,-190.499C361.305,-174.252 416.791,-146.665 464.5,-123 490.173,-110.265 519.495,-95.7517 540.091,-85.5619"/>
<polygon fill="midnightblue" stroke="midnightblue" points="541.759,-88.6414 549.17,-81.0701 538.655,-82.3671 541.759,-88.6414"/>
</g>
<!-- Node7&#45;&gt;Node9 -->
<g id="edge11" class="edge"><title>Node7&#45;&gt;Node9</title>
<path fill="none" stroke="midnightblue" d="M369.53,-192.274C430.432,-181.488 519.344,-165.74 584.186,-154.256"/>
<polygon fill="midnightblue" stroke="midnightblue" points="585.142,-157.641 594.379,-152.451 583.922,-150.748 585.142,-157.641"/>
</g>
<!-- Node7&#45;&gt;Node11 -->
<g id="edge16" class="edge"><title>Node7&#45;&gt;Node11</title>
<path fill="none" stroke="midnightblue" d="M303.321,-190.396C305.207,-180.963 307.71,-168.448 309.762,-158.189"/>
<polygon fill="midnightblue" stroke="midnightblue" points="313.232,-158.687 311.761,-148.195 306.368,-157.314 313.232,-158.687"/>
</g>
<!-- Node9&#45;&gt;Node5 -->
<g id="edge13" class="edge"><title>Node9&#45;&gt;Node5</title>
<path fill="none" stroke="midnightblue" d="M667.5,-123.479C667.5,-100.719 667.5,-55.7023 667.5,-30.0582"/>
<polygon fill="midnightblue" stroke="midnightblue" points="671,-29.7885 667.5,-19.7885 664,-29.7886 671,-29.7885"/>
</g>
<!-- Node9&#45;&gt;Node6 -->
<g id="edge14" class="edge"><title>Node9&#45;&gt;Node6</title>
<path fill="none" stroke="midnightblue" d="M683.017,-123.479C709.341,-99.6938 762.565,-51.6016 790.108,-26.7145"/>
<polygon fill="midnightblue" stroke="midnightblue" points="792.7,-29.0898 797.774,-19.7885 788.007,-23.8959 792.7,-29.0898"/>
</g>
<!-- Node9&#45;&gt;Node8 -->
<g id="edge12" class="edge"><title>Node9&#45;&gt;Node8</title>
<path fill="none" stroke="midnightblue" d="M645.585,-123.396C628.647,-112.496 605.313,-97.4787 588.384,-86.5835"/>
<polygon fill="midnightblue" stroke="midnightblue" points="590.022,-83.4756 579.719,-81.007 586.234,-89.362 590.022,-83.4756"/>
</g>
<!-- Node10 -->
<g id="node10" class="node"><title>Node10</title>
<polygon fill="white" stroke="#bfbfbf" points="358,-56.5 358,-86.5 453,-86.5 453,-56.5 358,-56.5"/>
<text text-anchor="start" x="366" y="-74.5" font-family="Helvetica,sans-Serif" font-size="10.00">boost/serialization</text>
<text text-anchor="middle" x="405.5" y="-63.5" font-family="Helvetica,sans-Serif" font-size="10.00">/vector.hpp</text>
</g>
<!-- Node9&#45;&gt;Node10 -->
<g id="edge15" class="edge"><title>Node9&#45;&gt;Node10</title>
<path fill="none" stroke="midnightblue" d="M610.972,-123.476C567.29,-112.639 507.065,-97.6973 463.112,-86.7929"/>
<polygon fill="midnightblue" stroke="midnightblue" points="463.701,-83.3331 453.152,-84.3221 462.015,-90.1271 463.701,-83.3331"/>
</g>
<!-- Node11&#45;&gt;Node4 -->
<g id="edge17" class="edge"><title>Node11&#45;&gt;Node4</title>
<path fill="none" stroke="midnightblue" d="M310.533,-128.734C307.267,-119.085 301.925,-103.3 297.73,-90.9063"/>
<polygon fill="midnightblue" stroke="midnightblue" points="300.941,-89.4774 294.42,-81.1273 294.311,-91.7216 300.941,-89.4774"/>
</g>
<!-- Node12&#45;&gt;Node6 -->
<g id="edge22" class="edge"><title>Node12&#45;&gt;Node6</title>
<path fill="none" stroke="midnightblue" d="M1302.92,-262.934C1311.49,-230.488 1336.93,-114.049 1278.5,-56 1247.44,-25.1373 941.353,-14.4678 839.946,-11.7641"/>
<polygon fill="midnightblue" stroke="midnightblue" points="839.786,-8.25892 829.699,-11.4997 839.605,-15.2566 839.786,-8.25892"/>
</g>
<!-- Node12&#45;&gt;Node13 -->
<g id="edge20" class="edge"><title>Node12&#45;&gt;Node13</title>
<path fill="none" stroke="midnightblue" d="M1310.08,-262.734C1321.47,-252.305 1340.69,-234.709 1354.6,-221.973"/>
<polygon fill="midnightblue" stroke="midnightblue" points="1357.06,-224.461 1362.08,-215.127 1352.34,-219.298 1357.06,-224.461"/>
</g>
<!-- Node13&#45;&gt;Node6 -->
<g id="edge21" class="edge"><title>Node13&#45;&gt;Node6</title>
<path fill="none" stroke="midnightblue" d="M1370.99,-195.959C1368.93,-169.908 1358.86,-91.1061 1311.5,-56 1273.63,-27.9284 944.997,-15.2962 839.767,-11.9465"/>
<polygon fill="midnightblue" stroke="midnightblue" points="839.841,-8.44717 829.736,-11.6339 839.622,-15.4438 839.841,-8.44717"/>
</g>
<!-- Node14&#45;&gt;Node3 -->
<g id="edge24" class="edge"><title>Node14&#45;&gt;Node3</title>
<path fill="none" stroke="midnightblue" d="M66.3646,-195.869C87.9035,-184.845 125.396,-165.655 150.577,-152.768"/>
<polygon fill="midnightblue" stroke="midnightblue" points="152.258,-155.839 159.566,-148.167 149.069,-149.608 152.258,-155.839"/>
</g>
<!-- Node14&#45;&gt;Node4 -->
<g id="edge25" class="edge"><title>Node14&#45;&gt;Node4</title>
<path fill="none" stroke="midnightblue" d="M39.8755,-195.811C23.4345,-179.935 -6.52624,-145.779 12.5,-123 40.0008,-90.0746 159.391,-78.574 232.794,-74.587"/>
<polygon fill="midnightblue" stroke="midnightblue" points="233.024,-78.0799 242.831,-74.0728 232.665,-71.089 233.024,-78.0799"/>
</g>
<!-- Node14&#45;&gt;Node10 -->
<g id="edge26" class="edge"><title>Node14&#45;&gt;Node10</title>
<path fill="none" stroke="midnightblue" d="M45.4882,-195.579C38.7187,-179.012 27.4373,-143.336 45.5,-123 88.6826,-74.383 266.387,-97.2942 347.806,-86.6934"/>
<polygon fill="midnightblue" stroke="midnightblue" points="348.369,-90.148 357.707,-85.1411 347.285,-83.2324 348.369,-90.148"/>
</g>
<!-- Node15 -->
<g id="node15" class="node"><title>Node15</title>
<polygon fill="white" stroke="#bfbfbf" points="54.5,-129 54.5,-148 100.5,-148 100.5,-129 54.5,-129"/>
<text text-anchor="middle" x="77.5" y="-136" font-family="Helvetica,sans-Serif" font-size="10.00">chrono</text>
</g>
<!-- Node14&#45;&gt;Node15 -->
<g id="edge27" class="edge"><title>Node14&#45;&gt;Node15</title>
<path fill="none" stroke="midnightblue" d="M53.2762,-195.734C57.4745,-185.988 64.3699,-169.981 69.7325,-157.532"/>
<polygon fill="midnightblue" stroke="midnightblue" points="73.0418,-158.696 73.7836,-148.127 66.6129,-155.927 73.0418,-158.696"/>
</g>
<!-- Node16&#45;&gt;Node5 -->
<g id="edge32" class="edge"><title>Node16&#45;&gt;Node5</title>
<path fill="none" stroke="midnightblue" d="M1048.38,-262.995C1071.72,-255.915 1098.93,-243.253 1113.5,-221 1137.37,-184.556 1142.31,-157.338 1115.5,-123 1063.24,-56.0606 790.644,-23.2089 698.2,-13.8705"/>
<polygon fill="midnightblue" stroke="midnightblue" points="698.387,-10.372 688.091,-12.8712 697.698,-17.3381 698.387,-10.372"/>
</g>
<!-- Node16&#45;&gt;Node8 -->
<g id="edge31" class="edge"><title>Node16&#45;&gt;Node8</title>
<path fill="none" stroke="midnightblue" d="M1048.38,-262.995C1071.72,-255.915 1098.93,-243.253 1113.5,-221 1137.37,-184.556 1144.86,-155.185 1115.5,-123 1080.98,-85.157 720.313,-75.2915 603.086,-73.0749"/>
<polygon fill="midnightblue" stroke="midnightblue" points="602.898,-69.571 592.836,-72.889 602.771,-76.5699 602.898,-69.571"/>
</g>
<!-- Node16&#45;&gt;Node9 -->
<g id="edge38" class="edge"><title>Node16&#45;&gt;Node9</title>
<path fill="none" stroke="midnightblue" d="M989.054,-262.856C970.526,-253.416 940.639,-237.437 916.5,-221 898.484,-208.732 898.034,-199.669 878.5,-190 838.666,-170.284 790.724,-158.014 750.612,-150.515"/>
<polygon fill="midnightblue" stroke="midnightblue" points="751.055,-147.039 740.593,-148.71 749.813,-153.928 751.055,-147.039"/>
</g>
<!-- Node17 -->
<g id="node17" class="node"><title>Node17</title>
<polygon fill="white" stroke="#bfbfbf" points="1054,-129 1054,-148 1107,-148 1107,-129 1054,-129"/>
<text text-anchor="middle" x="1080.5" y="-136" font-family="Helvetica,sans-Serif" font-size="10.00">complex</text>
</g>
<!-- Node16&#45;&gt;Node17 -->
<g id="edge30" class="edge"><title>Node16&#45;&gt;Node17</title>
<path fill="none" stroke="midnightblue" d="M1037.83,-262.964C1058.46,-255.532 1083.92,-242.491 1096.5,-221 1108.07,-201.237 1099.13,-174.625 1090.67,-157.271"/>
<polygon fill="midnightblue" stroke="midnightblue" points="1093.67,-155.453 1085.9,-148.244 1087.48,-158.721 1093.67,-155.453"/>
</g>
<!-- Node18 -->
<g id="node18" class="node"><title>Node18</title>
<g id="a_node18"><a xlink:href="Functions_8hpp.html" target="_top" xlink:title="This file contains Functions implementing the Strategy interface so they can be used inside a node of...">
<polygon fill="white" stroke="red" points="925.5,-196 925.5,-215 1087.5,-215 1087.5,-196 925.5,-196"/>
<text text-anchor="middle" x="1006.5" y="-203" font-family="Helvetica,sans-Serif" font-size="10.00">Core/FunctionTree/Functions.hpp</text>
</a>
</g>
</g>
<!-- Node16&#45;&gt;Node18 -->
<g id="edge33" class="edge"><title>Node16&#45;&gt;Node18</title>
<path fill="none" stroke="midnightblue" d="M1006.5,-262.734C1006.5,-253.183 1006.5,-237.618 1006.5,-225.283"/>
<polygon fill="midnightblue" stroke="midnightblue" points="1010,-225.127 1006.5,-215.127 1003,-225.127 1010,-225.127"/>
</g>
<!-- Node19 -->
<g id="node19" class="node"><title>Node19</title>
<g id="a_node19"><a xlink:href="ParObserver_8hpp.html" target="_top" xlink:title="ParObserver class. ">
<polygon fill="white" stroke="black" points="695.5,-196 695.5,-215 869.5,-215 869.5,-196 695.5,-196"/>
<text text-anchor="middle" x="782.5" y="-203" font-family="Helvetica,sans-Serif" font-size="10.00">Core/FunctionTree/ParObserver.hpp</text>
</a>
</g>
</g>
<!-- Node16&#45;&gt;Node19 -->
<g id="edge37" class="edge"><title>Node16&#45;&gt;Node19</title>
<path fill="none" stroke="midnightblue" d="M976.755,-262.869C936.897,-251.303 866.066,-230.749 821.836,-217.914"/>
<polygon fill="midnightblue" stroke="midnightblue" points="822.591,-214.489 812.012,-215.064 820.64,-221.212 822.591,-214.489"/>
</g>
<!-- Node18&#45;&gt;Node6 -->
<g id="edge35" class="edge"><title>Node18&#45;&gt;Node6</title>
<path fill="none" stroke="midnightblue" d="M997.692,-195.936C966.946,-166.04 864.073,-66.0099 823.833,-26.8816"/>
<polygon fill="midnightblue" stroke="midnightblue" points="826.269,-24.3688 816.66,-19.9068 821.39,-29.3875 826.269,-24.3688"/>
</g>
<!-- Node18&#45;&gt;Node9 -->
<g id="edge36" class="edge"><title>Node18&#45;&gt;Node9</title>
<path fill="none" stroke="midnightblue" d="M961.833,-195.936C908.221,-185.656 817.22,-168.207 750.566,-155.427"/>
<polygon fill="midnightblue" stroke="midnightblue" points="750.982,-151.943 740.502,-153.497 749.664,-158.818 750.982,-151.943"/>
</g>
<!-- Node18&#45;&gt;Node17 -->
<g id="edge34" class="edge"><title>Node18&#45;&gt;Node17</title>
<path fill="none" stroke="midnightblue" d="M1016.48,-195.734C1028.35,-185.305 1048.39,-167.709 1062.88,-154.973"/>
<polygon fill="midnightblue" stroke="midnightblue" points="1065.47,-157.356 1070.68,-148.127 1060.86,-152.097 1065.47,-157.356"/>
</g>
<!-- Node20&#45;&gt;Node5 -->
<g id="edge40" class="edge"><title>Node20&#45;&gt;Node5</title>
<path fill="none" stroke="midnightblue" d="M1179.3,-61.9617C1169.06,-59.7711 1157.88,-57.5879 1147.5,-56 1103.24,-49.2301 797.617,-22.3382 698.476,-13.6922"/>
<polygon fill="midnightblue" stroke="midnightblue" points="698.488,-10.18 688.221,-12.7988 697.88,-17.1536 698.488,-10.18"/>
</g>
<!-- Node20&#45;&gt;Node6 -->
<g id="edge41" class="edge"><title>Node20&#45;&gt;Node6</title>
<path fill="none" stroke="midnightblue" d="M1178.19,-61.9934C1168.25,-59.8775 1157.49,-57.7238 1147.5,-56 1035.13,-36.6147 900.621,-21.0506 839.973,-14.4385"/>
<polygon fill="midnightblue" stroke="midnightblue" points="840.187,-10.9413 829.869,-13.3454 839.434,-17.9007 840.187,-10.9413"/>
</g>
<!-- Node21&#45;&gt;Node3 -->
<g id="edge46" class="edge"><title>Node21&#45;&gt;Node3</title>
<path fill="none" stroke="midnightblue" d="M382.395,-263.879C327.816,-255.189 247.405,-239.732 222.5,-221 201.443,-205.162 188.604,-176.684 182.022,-157.936"/>
<polygon fill="midnightblue" stroke="midnightblue" points="185.275,-156.62 178.855,-148.192 178.617,-158.784 185.275,-156.62"/>
</g>
<!-- Node21&#45;&gt;Node6 -->
<g id="edge45" class="edge"><title>Node21&#45;&gt;Node6</title>
<path fill="none" stroke="midnightblue" d="M437.132,-257.287C442.466,-217.96 463.179,-107.232 531.5,-56 550.764,-41.5542 705.921,-22.4734 774.782,-14.6167"/>
<polygon fill="midnightblue" stroke="midnightblue" points="775.516,-18.0562 785.059,-13.4545 774.729,-11.1005 775.516,-18.0562"/>
</g>
<!-- Node21&#45;&gt;Node7 -->
<g id="edge47" class="edge"><title>Node21&#45;&gt;Node7</title>
<path fill="none" stroke="midnightblue" d="M406.207,-257.396C386.482,-247.899 360.266,-235.276 338.878,-224.978"/>
<polygon fill="midnightblue" stroke="midnightblue" points="340.264,-221.761 329.736,-220.577 337.227,-228.068 340.264,-221.761"/>
</g>
<!-- Node21&#45;&gt;Node8 -->
<g id="edge44" class="edge"><title>Node21&#45;&gt;Node8</title>
<path fill="none" stroke="midnightblue" d="M444.921,-257.188C468.393,-221.532 529.422,-128.824 554.979,-90.0017"/>
<polygon fill="midnightblue" stroke="midnightblue" points="558.092,-91.6373 560.667,-81.3601 552.246,-87.7883 558.092,-91.6373"/>
</g>
<!-- Node21&#45;&gt;Node11 -->
<g id="edge52" class="edge"><title>Node21&#45;&gt;Node11</title>
<path fill="none" stroke="midnightblue" d="M427.372,-257.288C417.227,-240.231 398.728,-211.27 378.5,-190 365.538,-176.37 348.721,-163.406 335.441,-154.026"/>
<polygon fill="midnightblue" stroke="midnightblue" points="337.122,-150.934 326.902,-148.141 333.15,-156.698 337.122,-150.934"/>
</g>
<!-- Node22 -->
<g id="node22" class="node"><title>Node22</title>
<g id="a_node22"><a xlink:href="FunctionTreeIntensity_8hpp.html" target="_top" xlink:title="Core/FunctionTree/Function\lTreeIntensity.hpp">
<polygon fill="white" stroke="black" points="501.5,-190.5 501.5,-220.5 639.5,-220.5 639.5,-190.5 501.5,-190.5"/>
<text text-anchor="start" x="509.5" y="-208.5" font-family="Helvetica,sans-Serif" font-size="10.00">Core/FunctionTree/Function</text>
<text text-anchor="middle" x="570.5" y="-197.5" font-family="Helvetica,sans-Serif" font-size="10.00">TreeIntensity.hpp</text>
</a>
</g>
</g>
<!-- Node21&#45;&gt;Node22 -->
<g id="edge48" class="edge"><title>Node21&#45;&gt;Node22</title>
<path fill="none" stroke="midnightblue" d="M464.793,-257.396C484.518,-247.899 510.734,-235.276 532.122,-224.978"/>
<polygon fill="midnightblue" stroke="midnightblue" points="533.773,-228.068 541.264,-220.577 530.736,-221.761 533.773,-228.068"/>
</g>
<!-- Node22&#45;&gt;Node4 -->
<g id="edge50" class="edge"><title>Node22&#45;&gt;Node4</title>
<path fill="none" stroke="midnightblue" d="M540.906,-190.499C486.512,-164.764 371.404,-110.304 318.783,-85.4081"/>
<polygon fill="midnightblue" stroke="midnightblue" points="320.25,-82.2301 309.713,-81.1171 317.256,-88.5576 320.25,-82.2301"/>
</g>
<!-- Node22&#45;&gt;Node8 -->
<g id="edge49" class="edge"><title>Node22&#45;&gt;Node8</title>
<path fill="none" stroke="midnightblue" d="M570.072,-190.374C569.349,-166.504 567.884,-118.181 567.073,-91.4149"/>
<polygon fill="midnightblue" stroke="midnightblue" points="570.562,-90.9866 566.761,-81.0973 563.565,-91.1987 570.562,-90.9866"/>
</g>
<!-- Node22&#45;&gt;Node9 -->
<g id="edge51" class="edge"><title>Node22&#45;&gt;Node9</title>
<path fill="none" stroke="midnightblue" d="M591.548,-190.396C605.148,-181.282 623.044,-169.29 638.048,-159.236"/>
<polygon fill="midnightblue" stroke="midnightblue" points="640.135,-162.051 646.494,-153.577 636.238,-156.236 640.135,-162.051"/>
</g>
</g>
</svg>
