<?xml version="1.0" encoding="UTF-8" standalone="no"?>
<!DOCTYPE svg PUBLIC "-//W3C//DTD SVG 1.1//EN"
 "http://www.w3.org/Graphics/SVG/1.1/DTD/svg11.dtd">
<!-- Generated by graphviz version 2.38.0 (20140413.2041)
 -->
<!-- Title: Estimator/MinLogLH/SumMinLogLH.hpp Pages: 1 -->
<!--zoomable 296 -->
<svg id="main" version="1.1" xmlns="http://www.w3.org/2000/svg" xmlns:xlink="http://www.w3.org/1999/xlink" xml:space="preserve" onload="init(evt)">
<style type="text/css"><![CDATA[
.edge:hover path { stroke: red; }
.edge:hover polygon { stroke: red; fill: red; }
]]></style>
<script type="text/javascript"><![CDATA[
var edges = document.getElementsByTagName('g');
if (edges && edges.length) {
  for (var i=0;i<edges.length;i++) {
    if (edges[i].id.substr(0,4)=='edge') {
      edges[i].setAttribute('class','edge');
    }
  }
}
]]></script>
        <defs>
                <circle id="rim" cx="0" cy="0" r="7"/>
                <circle id="rim2" cx="0" cy="0" r="3.5"/>
                <g id="zoomPlus">
                        <use xlink:href="#rim" fill="#404040">
                                <set attributeName="fill" to="#808080" begin="zoomplus.mouseover" end="zoomplus.mouseout"/>
                        </use>
                        <path d="M-4,0h8M0,-4v8" fill="none" stroke="white" stroke-width="1.5" pointer-events="none"/>
                </g>
                <g id="zoomMin">
                        <use xlink:href="#rim" fill="#404040">
                                <set attributeName="fill" to="#808080" begin="zoomminus.mouseover" end="zoomminus.mouseout"/>
                        </use>
                        <path d="M-4,0h8" fill="none" stroke="white" stroke-width="1.5" pointer-events="none"/>
                </g>
                <g id="dirArrow">
                        <path fill="none" stroke="white" stroke-width="1.5" d="M0,-3.0v7 M-2.5,-0.5L0,-3.0L2.5,-0.5"/>
                </g>
               <g id="resetDef">
                       <use xlink:href="#rim2" fill="#404040">
                               <set attributeName="fill" to="#808080" begin="reset.mouseover" end="reset.mouseout"/>
                       </use>
               </g>
        </defs>

<script type="text/javascript">
var viewWidth = 624;
var viewHeight = 296;
var sectionId = 'dynsection-0';
</script>
<script xlink:href="svgpan.js"/>
<svg id="graph" class="graph">
<g id="viewport">
<title>Estimator/MinLogLH/SumMinLogLH.hpp</title>
<polygon fill="white" stroke="none" points="-4,4 -4,-292 619.5,-292 619.5,4 -4,4"/>
<!-- Node1 -->
<g id="node1" class="node"><title>Node1</title>
<polygon fill="#bfbfbf" stroke="black" points="207.5,-257.5 207.5,-287.5 313.5,-287.5 313.5,-257.5 207.5,-257.5"/>
<text text-anchor="start" x="215.5" y="-275.5" font-family="Helvetica,sans-Serif" font-size="10.00">Estimator/MinLogLH</text>
<text text-anchor="middle" x="260.5" y="-264.5" font-family="Helvetica,sans-Serif" font-size="10.00">/SumMinLogLH.hpp</text>
</g>
<!-- Node2 -->
<g id="node2" class="node"><title>Node2</title>
<g id="a_node2"><a xlink:href="FitParameter_8hpp.html" target="_top" xlink:title="Core/FitParameter.hpp">
<polygon fill="white" stroke="black" points="251.5,-129 251.5,-148 367.5,-148 367.5,-129 251.5,-129"/>
<text text-anchor="middle" x="309.5" y="-136" font-family="Helvetica,sans-Serif" font-size="10.00">Core/FitParameter.hpp</text>
</a>
</g>
</g>
<!-- Node1&#45;&gt;Node2 -->
<g id="edge1" class="edge"><title>Node1&#45;&gt;Node2</title>
<path fill="none" stroke="midnightblue" d="M262.462,-257.257C265.054,-240.667 270.389,-212.644 279.5,-190 284.239,-178.222 291.464,-165.955 297.636,-156.462"/>
<polygon fill="midnightblue" stroke="midnightblue" points="300.643,-158.263 303.326,-148.013 294.837,-154.352 300.643,-158.263"/>
</g>
<!-- Node9 -->
<g id="node9" class="node"><title>Node9</title>
<g id="a_node9"><a xlink:href="FunctionTreeEstimator_8hpp.html" target="_top" xlink:title="Core/FunctionTree/Function\lTreeEstimator.hpp">
<polygon fill="white" stroke="black" points="288.5,-190.5 288.5,-220.5 426.5,-220.5 426.5,-190.5 288.5,-190.5"/>
<text text-anchor="start" x="296.5" y="-208.5" font-family="Helvetica,sans-Serif" font-size="10.00">Core/FunctionTree/Function</text>
<text text-anchor="middle" x="357.5" y="-197.5" font-family="Helvetica,sans-Serif" font-size="10.00">TreeEstimator.hpp</text>
</a>
</g>
</g>
<!-- Node1&#45;&gt;Node9 -->
<g id="edge10" class="edge"><title>Node1&#45;&gt;Node9</title>
<path fill="none" stroke="midnightblue" d="M281.548,-257.396C295.148,-248.282 313.044,-236.29 328.048,-226.236"/>
<polygon fill="midnightblue" stroke="midnightblue" points="330.135,-229.051 336.494,-220.577 326.238,-223.236 330.135,-229.051"/>
</g>
<!-- Node12 -->
<g id="node12" class="node"><title>Node12</title>
<g id="a_node12"><a xlink:href="Estimator_8hpp.html" target="_top" xlink:title="Estimator/Estimator.hpp">
<polygon fill="white" stroke="black" points="111.5,-129 111.5,-148 233.5,-148 233.5,-129 111.5,-129"/>
<text text-anchor="middle" x="172.5" y="-136" font-family="Helvetica,sans-Serif" font-size="10.00">Estimator/Estimator.hpp</text>
</a>
</g>
</g>
<!-- Node1&#45;&gt;Node12 -->
<g id="edge20" class="edge"><title>Node1&#45;&gt;Node12</title>
<path fill="none" stroke="midnightblue" d="M251.082,-257.374C234.813,-232.969 201.502,-183.002 183.932,-156.648"/>
<polygon fill="midnightblue" stroke="midnightblue" points="186.691,-154.476 178.232,-148.097 180.866,-158.359 186.691,-154.476"/>
</g>
<!-- Node3 -->
<g id="node3" class="node"><title>Node3</title>
<g id="a_node3"><a xlink:href="Function_8hpp.html" target="_top" xlink:title="Core/Function.hpp">
<polygon fill="white" stroke="red" points="0,-62 0,-81 97,-81 97,-62 0,-62"/>
<text text-anchor="middle" x="48.5" y="-69" font-family="Helvetica,sans-Serif" font-size="10.00">Core/Function.hpp</text>
</a>
</g>
</g>
<!-- Node2&#45;&gt;Node3 -->
<g id="edge2" class="edge"><title>Node2&#45;&gt;Node3</title>
<path fill="none" stroke="midnightblue" d="M275.015,-128.934C234.625,-118.898 165.7,-101.763 106.5,-87 101.896,-85.8518 97.0861,-84.6512 92.2914,-83.4536"/>
<polygon fill="midnightblue" stroke="midnightblue" points="93.0913,-80.0459 82.541,-81.0173 91.3943,-86.8371 93.0913,-80.0459"/>
</g>
<!-- Node4 -->
<g id="node4" class="node"><title>Node4</title>
<polygon fill="white" stroke="#bfbfbf" points="338,-0.5 338,-19.5 379,-19.5 379,-0.5 338,-0.5"/>
<text text-anchor="middle" x="358.5" y="-7.5" font-family="Helvetica,sans-Serif" font-size="10.00">string</text>
</g>
<!-- Node2&#45;&gt;Node4 -->
<g id="edge7" class="edge"><title>Node2&#45;&gt;Node4</title>
<path fill="none" stroke="midnightblue" d="M312.868,-128.805C320.77,-108.404 340.643,-57.0998 351.37,-29.4078"/>
<polygon fill="midnightblue" stroke="midnightblue" points="354.76,-30.3448 355.108,-19.7557 348.233,-27.8164 354.76,-30.3448"/>
</g>
<!-- Node5 -->
<g id="node5" class="node"><title>Node5</title>
<polygon fill="white" stroke="#bfbfbf" points="275.5,-0.5 275.5,-19.5 319.5,-19.5 319.5,-0.5 275.5,-0.5"/>
<text text-anchor="middle" x="297.5" y="-7.5" font-family="Helvetica,sans-Serif" font-size="10.00">vector</text>
</g>
<!-- Node2&#45;&gt;Node5 -->
<g id="edge8" class="edge"><title>Node2&#45;&gt;Node5</title>
<path fill="none" stroke="midnightblue" d="M308.675,-128.805C306.748,-108.494 301.916,-57.5532 299.281,-29.7768"/>
<polygon fill="midnightblue" stroke="midnightblue" points="302.759,-29.3804 298.331,-19.7557 295.791,-30.0416 302.759,-29.3804"/>
</g>
<!-- Node6 -->
<g id="node6" class="node"><title>Node6</title>
<g id="a_node6"><a xlink:href="Logging_8hpp.html" target="_top" xlink:title="Core/Logging.hpp">
<polygon fill="white" stroke="red" points="376,-62 376,-81 469,-81 469,-62 376,-62"/>
<text text-anchor="middle" x="422.5" y="-69" font-family="Helvetica,sans-Serif" font-size="10.00">Core/Logging.hpp</text>
</a>
</g>
</g>
<!-- Node2&#45;&gt;Node6 -->
<g id="edge5" class="edge"><title>Node2&#45;&gt;Node6</title>
<path fill="none" stroke="midnightblue" d="M324.74,-128.734C343.716,-117.818 376.346,-99.0487 398.647,-86.2209"/>
<polygon fill="midnightblue" stroke="midnightblue" points="400.579,-89.1474 407.502,-81.1273 397.088,-83.0796 400.579,-89.1474"/>
</g>
<!-- Node7 -->
<g id="node7" class="node"><title>Node7</title>
<polygon fill="white" stroke="#bfbfbf" points="115.5,-62 115.5,-81 167.5,-81 167.5,-62 115.5,-62"/>
<text text-anchor="middle" x="141.5" y="-69" font-family="Helvetica,sans-Serif" font-size="10.00">ostream</text>
</g>
<!-- Node2&#45;&gt;Node7 -->
<g id="edge6" class="edge"><title>Node2&#45;&gt;Node7</title>
<path fill="none" stroke="midnightblue" d="M286.353,-128.95C259.755,-119.07 214.838,-102.216 176.5,-87 174.861,-86.3494 173.181,-85.6761 171.487,-84.9919"/>
<polygon fill="midnightblue" stroke="midnightblue" points="172.397,-81.5827 161.816,-81.0371 169.748,-88.0618 172.397,-81.5827"/>
</g>
<!-- Node8 -->
<g id="node8" class="node"><title>Node8</title>
<polygon fill="white" stroke="#bfbfbf" points="186,-56.5 186,-86.5 281,-86.5 281,-56.5 186,-56.5"/>
<text text-anchor="start" x="194" y="-74.5" font-family="Helvetica,sans-Serif" font-size="10.00">boost/serialization</text>
<text text-anchor="middle" x="233.5" y="-63.5" font-family="Helvetica,sans-Serif" font-size="10.00">/nvp.hpp</text>
</g>
<!-- Node2&#45;&gt;Node8 -->
<g id="edge9" class="edge"><title>Node2&#45;&gt;Node8</title>
<path fill="none" stroke="midnightblue" d="M299.25,-128.734C288.683,-119.696 271.82,-105.274 257.818,-93.2982"/>
<polygon fill="midnightblue" stroke="midnightblue" points="259.848,-90.4288 249.973,-86.589 255.298,-95.7486 259.848,-90.4288"/>
</g>
<!-- Node3&#45;&gt;Node4 -->
<g id="edge3" class="edge"><title>Node3&#45;&gt;Node4</title>
<path fill="none" stroke="midnightblue" d="M80.6023,-61.9623C88.9984,-59.8702 98.0618,-57.7357 106.5,-56 201.346,-36.4901 229.351,-42.0256 328.151,-19.7944"/>
<polygon fill="midnightblue" stroke="midnightblue" points="328.971,-23.1973 337.938,-17.5545 327.409,-16.3738 328.971,-23.1973"/>
</g>
<!-- Node3&#45;&gt;Node5 -->
<g id="edge4" class="edge"><title>Node3&#45;&gt;Node5</title>
<path fill="none" stroke="midnightblue" d="M82.2173,-61.9884C90.1751,-60.0023 98.6327,-57.9101 106.5,-56 162.331,-42.4448 227.492,-27.2202 265.461,-18.4083"/>
<polygon fill="midnightblue" stroke="midnightblue" points="266.468,-21.7678 275.419,-16.0996 264.887,-14.9487 266.468,-21.7678"/>
</g>
<!-- Node9&#45;&gt;Node2 -->
<g id="edge12" class="edge"><title>Node9&#45;&gt;Node2</title>
<path fill="none" stroke="midnightblue" d="M347.085,-190.396C339.675,-180.361 329.688,-166.838 321.872,-156.253"/>
<polygon fill="midnightblue" stroke="midnightblue" points="324.677,-154.16 315.921,-148.195 319.046,-158.318 324.677,-154.16"/>
</g>
<!-- Node10 -->
<g id="node10" class="node"><title>Node10</title>
<polygon fill="white" stroke="#bfbfbf" points="563.5,-62 563.5,-81 615.5,-81 615.5,-62 563.5,-62"/>
<text text-anchor="middle" x="589.5" y="-69" font-family="Helvetica,sans-Serif" font-size="10.00">memory</text>
</g>
<!-- Node9&#45;&gt;Node10 -->
<g id="edge11" class="edge"><title>Node9&#45;&gt;Node10</title>
<path fill="none" stroke="midnightblue" d="M426.738,-196.041C480.945,-188.014 550.417,-174.159 570.5,-154 586.974,-137.464 590.254,-109.585 590.412,-91.1128"/>
<polygon fill="midnightblue" stroke="midnightblue" points="593.909,-90.9352 590.197,-81.012 586.911,-91.0842 593.909,-90.9352"/>
</g>
<!-- Node11 -->
<g id="node11" class="node"><title>Node11</title>
<g id="a_node11"><a xlink:href="ParameterList_8hpp.html" target="_top" xlink:title="ParameterList class. ">
<polygon fill="white" stroke="red" points="415.5,-123.5 415.5,-153.5 561.5,-153.5 561.5,-123.5 415.5,-123.5"/>
<text text-anchor="start" x="423.5" y="-141.5" font-family="Helvetica,sans-Serif" font-size="10.00">Core/FunctionTree/Parameter</text>
<text text-anchor="middle" x="488.5" y="-130.5" font-family="Helvetica,sans-Serif" font-size="10.00">List.hpp</text>
</a>
</g>
</g>
<!-- Node9&#45;&gt;Node11 -->
<g id="edge13" class="edge"><title>Node9&#45;&gt;Node11</title>
<path fill="none" stroke="midnightblue" d="M385.925,-190.396C404.98,-180.941 430.276,-168.39 450.98,-158.117"/>
<polygon fill="midnightblue" stroke="midnightblue" points="452.728,-161.157 460.13,-153.577 449.617,-154.886 452.728,-161.157"/>
</g>
<!-- Node9&#45;&gt;Node12 -->
<g id="edge18" class="edge"><title>Node9&#45;&gt;Node12</title>
<path fill="none" stroke="midnightblue" d="M317.358,-190.396C284.179,-178.739 237.6,-162.373 206.301,-151.376"/>
<polygon fill="midnightblue" stroke="midnightblue" points="207.307,-148.02 196.712,-148.007 204.987,-154.624 207.307,-148.02"/>
</g>
<!-- Node11&#45;&gt;Node4 -->
<g id="edge15" class="edge"><title>Node11&#45;&gt;Node4</title>
<path fill="none" stroke="midnightblue" d="M499.197,-123.474C511.059,-106.077 526.65,-76.247 511.5,-56 496.844,-36.4129 429.521,-22.4253 389.223,-15.6396"/>
<polygon fill="midnightblue" stroke="midnightblue" points="389.557,-12.1479 379.124,-13.9941 388.431,-19.0568 389.557,-12.1479"/>
</g>
<!-- Node11&#45;&gt;Node5 -->
<g id="edge16" class="edge"><title>Node11&#45;&gt;Node5</title>
<path fill="none" stroke="midnightblue" d="M490.959,-123.449C493.242,-105.469 494.14,-74.4469 477.5,-56 433.918,-7.68504 397.729,-34.7857 329.641,-19.9888"/>
<polygon fill="midnightblue" stroke="midnightblue" points="330.36,-16.562 319.817,-17.6107 328.713,-23.3654 330.36,-16.562"/>
</g>
<!-- Node11&#45;&gt;Node6 -->
<g id="edge17" class="edge"><title>Node11&#45;&gt;Node6</title>
<path fill="none" stroke="midnightblue" d="M474.179,-123.396C463.684,-113.06 449.432,-99.0237 438.552,-88.309"/>
<polygon fill="midnightblue" stroke="midnightblue" points="440.909,-85.7177 431.328,-81.1945 435.997,-90.7052 440.909,-85.7177"/>
</g>
<!-- Node11&#45;&gt;Node10 -->
<g id="edge14" class="edge"><title>Node11&#45;&gt;Node10</title>
<path fill="none" stroke="midnightblue" d="M510.415,-123.396C527.353,-112.496 550.687,-97.4787 567.616,-86.5835"/>
<polygon fill="midnightblue" stroke="midnightblue" points="569.766,-89.362 576.281,-81.007 565.978,-83.4756 569.766,-89.362"/>
</g>
<!-- Node12&#45;&gt;Node3 -->
<g id="edge19" class="edge"><title>Node12&#45;&gt;Node3</title>
<path fill="none" stroke="midnightblue" d="M156.034,-128.869C135.096,-117.893 98.7188,-98.8243 74.1365,-85.9385"/>
<polygon fill="midnightblue" stroke="midnightblue" points="75.5162,-82.7101 65.0343,-81.1672 72.2663,-88.9099 75.5162,-82.7101"/>
</g>
</g>
</svg>
        <g id="navigator" transform="translate(0 0)" fill="#404254">
                <rect fill="#f2f5e9" fill-opacity="0.5" stroke="#606060" stroke-width=".5" x="0" y="0" width="60" height="60"/>
                <use id="zoomplus" xlink:href="#zoomPlus" x="17" y="9" onmousedown="handleZoom(evt,'in')"/>
                <use id="zoomminus" xlink:href="#zoomMin" x="42" y="9" onmousedown="handleZoom(evt,'out')"/>
                <use id="reset" xlink:href="#resetDef" x="30" y="36" onmousedown="handleReset()"/>
                <g id="arrowUp" xlink:href="#dirArrow" transform="translate(30 24)" onmousedown="handlePan(0,-1)">
                  <use xlink:href="#rim" fill="#404040">
                        <set attributeName="fill" to="#808080" begin="arrowUp.mouseover" end="arrowUp.mouseout"/>
                  </use>
                  <path fill="none" stroke="white" stroke-width="1.5" d="M0,-3.0v7 M-2.5,-0.5L0,-3.0L2.5,-0.5"/>
                </g>
                <g id="arrowRight" xlink:href="#dirArrow" transform="rotate(90) translate(36 -43)" onmousedown="handlePan(1,0)">
                  <use xlink:href="#rim" fill="#404040">
                        <set attributeName="fill" to="#808080" begin="arrowRight.mouseover" end="arrowRight.mouseout"/>
                  </use>
                  <path fill="none" stroke="white" stroke-width="1.5" d="M0,-3.0v7 M-2.5,-0.5L0,-3.0L2.5,-0.5"/>
                </g>
                <g id="arrowDown" xlink:href="#dirArrow" transform="rotate(180) translate(-30 -48)" onmousedown="handlePan(0,1)">
                  <use xlink:href="#rim" fill="#404040">
                        <set attributeName="fill" to="#808080" begin="arrowDown.mouseover" end="arrowDown.mouseout"/>
                  </use>
                  <path fill="none" stroke="white" stroke-width="1.5" d="M0,-3.0v7 M-2.5,-0.5L0,-3.0L2.5,-0.5"/>
                </g>
                <g id="arrowLeft" xlink:href="#dirArrow" transform="rotate(270) translate(-36 17)" onmousedown="handlePan(-1,0)">
                  <use xlink:href="#rim" fill="#404040">
                        <set attributeName="fill" to="#808080" begin="arrowLeft.mouseover" end="arrowLeft.mouseout"/>
                  </use>
                  <path fill="none" stroke="white" stroke-width="1.5" d="M0,-3.0v7 M-2.5,-0.5L0,-3.0L2.5,-0.5"/>
                </g>
        </g>
        <svg viewBox="0 0 15 15" width="100%" height="30px" preserveAspectRatio="xMaxYMin meet">
         <g id="arrow_out" transform="scale(0.3 0.3)">
          <a xlink:href="SumMinLogLH_8hpp__incl_org.svg" target="_base">
           <rect id="button" ry="5" rx="5" y="6" x="6" height="38" width="38"
                fill="#f2f5e9" fill-opacity="0.5" stroke="#606060" stroke-width="1.0"/>
           <path id="arrow"
             d="M 11.500037,31.436501 C 11.940474,20.09759 22.043105,11.32322 32.158766,21.979434 L 37.068811,17.246167 C 37.068811,17.246167 37.088388,32 37.088388,32 L 22.160133,31.978069 C 22.160133,31.978069 26.997745,27.140456 26.997745,27.140456 C 18.528582,18.264221 13.291696,25.230495 11.500037,31.436501 z"
             style="fill:#404040;"/>
          </a>
         </g>
        </svg>
</svg>
