<?xml version="1.0" encoding="UTF-8" standalone="no"?>
<!DOCTYPE svg PUBLIC "-//W3C//DTD SVG 1.1//EN"
 "http://www.w3.org/Graphics/SVG/1.1/DTD/svg11.dtd">
<!-- Generated by graphviz version 2.38.0 (20140413.2041)
 -->
<!-- Title: Core/TableFormatter.cpp Pages: 1 -->
<svg width="307pt" height="196pt"
 viewBox="0.00 0.00 307.00 196.00" xmlns="http://www.w3.org/2000/svg" xmlns:xlink="http://www.w3.org/1999/xlink">
<g id="graph0" class="graph" transform="scale(1 1) rotate(0) translate(4 192)">
<title>Core/TableFormatter.cpp</title>
<polygon fill="white" stroke="none" points="-4,4 -4,-192 303,-192 303,4 -4,4"/>
<!-- Node1 -->
<g id="node1" class="node"><title>Node1</title>
<polygon fill="#bfbfbf" stroke="black" points="53.5,-168.5 53.5,-187.5 178.5,-187.5 178.5,-168.5 53.5,-168.5"/>
<text text-anchor="middle" x="116" y="-175.5" font-family="Helvetica,sans-Serif" font-size="10.00">Core/TableFormatter.cpp</text>
</g>
<!-- Node2 -->
<g id="node2" class="node"><title>Node2</title>
<g id="a_node2"><a xlink:href="TableFormatter_8hpp.html" target="_top" xlink:title="TableFormatter.hpp">
<polygon fill="white" stroke="black" points="65.5,-112.5 65.5,-131.5 166.5,-131.5 166.5,-112.5 65.5,-112.5"/>
<text text-anchor="middle" x="116" y="-119.5" font-family="Helvetica,sans-Serif" font-size="10.00">TableFormatter.hpp</text>
</a>
</g>
</g>
<!-- Node1&#45;&gt;Node2 -->
<g id="edge1" class="edge"><title>Node1&#45;&gt;Node2</title>
<path fill="none" stroke="midnightblue" d="M116,-168.083C116,-161.006 116,-150.861 116,-141.986"/>
<polygon fill="midnightblue" stroke="midnightblue" points="119.5,-141.751 116,-131.751 112.5,-141.751 119.5,-141.751"/>
</g>
<!-- Node3 -->
<g id="node3" class="node"><title>Node3</title>
<polygon fill="white" stroke="#bfbfbf" points="0,-56.5 0,-75.5 50,-75.5 50,-56.5 0,-56.5"/>
<text text-anchor="middle" x="25" y="-63.5" font-family="Helvetica,sans-Serif" font-size="10.00">iomanip</text>
</g>
<!-- Node2&#45;&gt;Node3 -->
<g id="edge2" class="edge"><title>Node2&#45;&gt;Node3</title>
<path fill="none" stroke="midnightblue" d="M101.379,-112.324C87.0511,-103.822 64.9875,-90.7288 48.2513,-80.7975"/>
<polygon fill="midnightblue" stroke="midnightblue" points="49.9704,-77.7478 39.5844,-75.6545 46.3982,-83.7677 49.9704,-77.7478"/>
</g>
<!-- Node4 -->
<g id="node4" class="node"><title>Node4</title>
<polygon fill="white" stroke="#bfbfbf" points="62,-0.5 62,-19.5 114,-19.5 114,-0.5 62,-0.5"/>
<text text-anchor="middle" x="88" y="-7.5" font-family="Helvetica,sans-Serif" font-size="10.00">ostream</text>
</g>
<!-- Node2&#45;&gt;Node4 -->
<g id="edge3" class="edge"><title>Node2&#45;&gt;Node4</title>
<path fill="none" stroke="midnightblue" d="M113.086,-112.439C110.079,-103.435 105.368,-88.8197 102,-76 97.9623,-60.6293 94.2185,-42.9922 91.6202,-29.9717"/>
<polygon fill="midnightblue" stroke="midnightblue" points="95.0036,-29.0354 89.6532,-19.8908 88.1332,-30.3761 95.0036,-29.0354"/>
</g>
<!-- Node5 -->
<g id="node5" class="node"><title>Node5</title>
<polygon fill="white" stroke="#bfbfbf" points="153.5,-0.5 153.5,-19.5 194.5,-19.5 194.5,-0.5 153.5,-0.5"/>
<text text-anchor="middle" x="174" y="-7.5" font-family="Helvetica,sans-Serif" font-size="10.00">string</text>
</g>
<!-- Node2&#45;&gt;Node5 -->
<g id="edge4" class="edge"><title>Node2&#45;&gt;Node5</title>
<path fill="none" stroke="midnightblue" d="M117.351,-112.128C119.591,-99.1666 124.868,-74.5796 135,-56 140.791,-45.3806 149.435,-35.0685 157.114,-27.0009"/>
<polygon fill="midnightblue" stroke="midnightblue" points="159.755,-29.3092 164.331,-19.7534 154.795,-24.37 159.755,-29.3092"/>
</g>
<!-- Node6 -->
<g id="node6" class="node"><title>Node6</title>
<polygon fill="white" stroke="#bfbfbf" points="255,-0.5 255,-19.5 299,-19.5 299,-0.5 255,-0.5"/>
<text text-anchor="middle" x="277" y="-7.5" font-family="Helvetica,sans-Serif" font-size="10.00">vector</text>
</g>
<!-- Node2&#45;&gt;Node6 -->
<g id="edge5" class="edge"><title>Node2&#45;&gt;Node6</title>
<path fill="none" stroke="midnightblue" d="M166.693,-119.822C200.825,-116.168 244.011,-105.452 269,-76 279.68,-63.4127 280.819,-44.1959 279.804,-29.9179"/>
<polygon fill="midnightblue" stroke="midnightblue" points="283.257,-29.2974 278.669,-19.7471 276.3,-30.0735 283.257,-29.2974"/>
</g>
<!-- Node7 -->
<g id="node7" class="node"><title>Node7</title>
<g id="a_node7"><a xlink:href="FitParameter_8hpp.html" target="_top" xlink:title="Core/FitParameter.hpp">
<polygon fill="white" stroke="red" points="144,-56.5 144,-75.5 260,-75.5 260,-56.5 144,-56.5"/>
<text text-anchor="middle" x="202" y="-63.5" font-family="Helvetica,sans-Serif" font-size="10.00">Core/FitParameter.hpp</text>
</a>
</g>
</g>
<!-- Node2&#45;&gt;Node7 -->
<g id="edge6" class="edge"><title>Node2&#45;&gt;Node7</title>
<path fill="none" stroke="midnightblue" d="M129.817,-112.324C143.233,-103.9 163.824,-90.9709 179.586,-81.0741"/>
<polygon fill="midnightblue" stroke="midnightblue" points="181.609,-83.9364 188.217,-75.6545 177.887,-78.0081 181.609,-83.9364"/>
</g>
<!-- Node7&#45;&gt;Node4 -->
<g id="edge7" class="edge"><title>Node7&#45;&gt;Node4</title>
<path fill="none" stroke="midnightblue" d="M183.936,-56.4435C165.425,-47.6751 136.419,-33.9355 115.145,-23.8579"/>
<polygon fill="midnightblue" stroke="midnightblue" points="116.515,-20.6343 105.979,-19.5164 113.518,-26.9604 116.515,-20.6343"/>
</g>
<!-- Node7&#45;&gt;Node5 -->
<g id="edge8" class="edge"><title>Node7&#45;&gt;Node5</title>
<path fill="none" stroke="midnightblue" d="M197.376,-56.083C193.544,-48.6913 187.976,-37.9533 183.235,-28.8111"/>
<polygon fill="midnightblue" stroke="midnightblue" points="186.248,-27.0175 178.538,-19.7511 180.034,-30.2398 186.248,-27.0175"/>
</g>
<!-- Node7&#45;&gt;Node6 -->
<g id="edge9" class="edge"><title>Node7&#45;&gt;Node6</title>
<path fill="none" stroke="midnightblue" d="M214.05,-56.324C225.463,-48.1066 242.831,-35.6017 256.435,-25.8069"/>
<polygon fill="midnightblue" stroke="midnightblue" points="258.66,-28.5174 264.731,-19.8339 254.57,-22.8366 258.66,-28.5174"/>
</g>
</g>
</svg>
