<?xml version="1.0" encoding="UTF-8" standalone="no"?>
<!DOCTYPE svg PUBLIC "-//W3C//DTD SVG 1.1//EN"
 "http://www.w3.org/Graphics/SVG/1.1/DTD/svg11.dtd">
<!-- Generated by graphviz version 2.38.0 (20140413.2041)
 -->
<!-- Title: Core/TableFormatter.hpp Pages: 1 -->
<svg width="594pt" height="207pt"
 viewBox="0.00 0.00 594.00 207.00" xmlns="http://www.w3.org/2000/svg" xmlns:xlink="http://www.w3.org/1999/xlink">
<g id="graph0" class="graph" transform="scale(1 1) rotate(0) translate(4 203)">
<title>Core/TableFormatter.hpp</title>
<polygon fill="white" stroke="none" points="-4,4 -4,-203 590,-203 590,4 -4,4"/>
<!-- Node1 -->
<g id="node1" class="node"><title>Node1</title>
<polygon fill="#bfbfbf" stroke="black" points="69.5,-179.5 69.5,-198.5 194.5,-198.5 194.5,-179.5 69.5,-179.5"/>
<text text-anchor="middle" x="132" y="-186.5" font-family="Helvetica,sans-Serif" font-size="10.00">Core/TableFormatter.hpp</text>
</g>
<!-- Node2 -->
<g id="node2" class="node"><title>Node2</title>
<polygon fill="white" stroke="#bfbfbf" points="0,-123.5 0,-142.5 50,-142.5 50,-123.5 0,-123.5"/>
<text text-anchor="middle" x="25" y="-130.5" font-family="Helvetica,sans-Serif" font-size="10.00">iomanip</text>
</g>
<!-- Node1&#45;&gt;Node2 -->
<g id="edge1" class="edge"><title>Node1&#45;&gt;Node2</title>
<path fill="none" stroke="midnightblue" d="M114.809,-179.324C97.6491,-170.664 71.0543,-157.242 51.2527,-147.249"/>
<polygon fill="midnightblue" stroke="midnightblue" points="52.6532,-144.035 42.1487,-142.655 49.4993,-150.285 52.6532,-144.035"/>
</g>
<!-- Node3 -->
<g id="node3" class="node"><title>Node3</title>
<polygon fill="white" stroke="#bfbfbf" points="106,-62 106,-81 158,-81 158,-62 106,-62"/>
<text text-anchor="middle" x="132" y="-69" font-family="Helvetica,sans-Serif" font-size="10.00">ostream</text>
</g>
<!-- Node1&#45;&gt;Node3 -->
<g id="edge2" class="edge"><title>Node1&#45;&gt;Node3</title>
<path fill="none" stroke="midnightblue" d="M132,-179.319C132,-160.757 132,-116.839 132,-91.4734"/>
<polygon fill="midnightblue" stroke="midnightblue" points="135.5,-91.282 132,-81.282 128.5,-91.282 135.5,-91.282"/>
</g>
<!-- Node4 -->
<g id="node4" class="node"><title>Node4</title>
<polygon fill="white" stroke="#bfbfbf" points="165.5,-0.5 165.5,-19.5 206.5,-19.5 206.5,-0.5 165.5,-0.5"/>
<text text-anchor="middle" x="186" y="-7.5" font-family="Helvetica,sans-Serif" font-size="10.00">string</text>
</g>
<!-- Node1&#45;&gt;Node4 -->
<g id="edge3" class="edge"><title>Node1&#45;&gt;Node4</title>
<path fill="none" stroke="midnightblue" d="M125.355,-179.3C109.3,-157.141 71.5409,-97.401 97,-56 109.647,-35.4342 134.922,-23.9214 155.316,-17.7011"/>
<polygon fill="midnightblue" stroke="midnightblue" points="156.444,-21.0207 165.15,-14.9834 154.579,-14.2736 156.444,-21.0207"/>
</g>
<!-- Node5 -->
<g id="node5" class="node"><title>Node5</title>
<polygon fill="white" stroke="#bfbfbf" points="542,-0.5 542,-19.5 586,-19.5 586,-0.5 542,-0.5"/>
<text text-anchor="middle" x="564" y="-7.5" font-family="Helvetica,sans-Serif" font-size="10.00">vector</text>
</g>
<!-- Node1&#45;&gt;Node5 -->
<g id="edge4" class="edge"><title>Node1&#45;&gt;Node5</title>
<path fill="none" stroke="midnightblue" d="M194.708,-182.831C303.791,-172.395 521.244,-144.716 567,-87 579.786,-70.8724 575.891,-46.2118 570.887,-29.3864"/>
<polygon fill="midnightblue" stroke="midnightblue" points="574.11,-27.9906 567.603,-19.6296 567.476,-30.2236 574.11,-27.9906"/>
</g>
<!-- Node6 -->
<g id="node6" class="node"><title>Node6</title>
<g id="a_node6"><a xlink:href="FitParameter_8hpp.html" target="_top" xlink:title="Core/FitParameter.hpp">
<polygon fill="white" stroke="black" points="203,-123.5 203,-142.5 319,-142.5 319,-123.5 203,-123.5"/>
<text text-anchor="middle" x="261" y="-130.5" font-family="Helvetica,sans-Serif" font-size="10.00">Core/FitParameter.hpp</text>
</a>
</g>
</g>
<!-- Node1&#45;&gt;Node6 -->
<g id="edge5" class="edge"><title>Node1&#45;&gt;Node6</title>
<path fill="none" stroke="midnightblue" d="M152.44,-179.444C173.67,-170.557 207.099,-156.563 231.255,-146.451"/>
<polygon fill="midnightblue" stroke="midnightblue" points="232.782,-149.606 240.655,-142.516 230.079,-143.149 232.782,-149.606"/>
</g>
<!-- Node6&#45;&gt;Node3 -->
<g id="edge10" class="edge"><title>Node6&#45;&gt;Node3</title>
<path fill="none" stroke="midnightblue" d="M242.517,-123.475C220.868,-113.49 184.787,-96.8476 159.768,-85.3075"/>
<polygon fill="midnightblue" stroke="midnightblue" points="160.995,-82.0193 150.448,-81.0091 158.063,-88.3757 160.995,-82.0193"/>
</g>
<!-- Node6&#45;&gt;Node4 -->
<g id="edge11" class="edge"><title>Node6&#45;&gt;Node4</title>
<path fill="none" stroke="midnightblue" d="M245.336,-123.348C232.579,-115.498 215.087,-102.756 205,-87 193.907,-69.6715 189.29,-46.2831 187.368,-30.0483"/>
<polygon fill="midnightblue" stroke="midnightblue" points="190.814,-29.3077 186.392,-19.68 183.845,-29.9642 190.814,-29.3077"/>
</g>
<!-- Node6&#45;&gt;Node5 -->
<g id="edge12" class="edge"><title>Node6&#45;&gt;Node5</title>
<path fill="none" stroke="midnightblue" d="M319,-130.077C392.017,-126.454 511.817,-116.126 544,-87 559.933,-72.5806 563.831,-47.1368 564.472,-29.6917"/>
<polygon fill="midnightblue" stroke="midnightblue" points="567.972,-29.5946 564.517,-19.5791 560.972,-29.5635 567.972,-29.5946"/>
</g>
<!-- Node7 -->
<g id="node7" class="node"><title>Node7</title>
<g id="a_node7"><a xlink:href="Function_8hpp.html" target="_top" xlink:title="Core/Function.hpp">
<polygon fill="white" stroke="red" points="438.5,-62 438.5,-81 535.5,-81 535.5,-62 438.5,-62"/>
<text text-anchor="middle" x="487" y="-69" font-family="Helvetica,sans-Serif" font-size="10.00">Core/Function.hpp</text>
</a>
</g>
</g>
<!-- Node6&#45;&gt;Node7 -->
<g id="edge6" class="edge"><title>Node6&#45;&gt;Node7</title>
<path fill="none" stroke="midnightblue" d="M293.38,-123.475C333.238,-112.982 401.019,-95.1367 444.888,-83.587"/>
<polygon fill="midnightblue" stroke="midnightblue" points="445.9,-86.9398 454.68,-81.0091 444.118,-80.1705 445.9,-86.9398"/>
</g>
<!-- Node8 -->
<g id="node8" class="node"><title>Node8</title>
<g id="a_node8"><a xlink:href="Logging_8hpp.html" target="_top" xlink:title="Core/Logging.hpp">
<polygon fill="white" stroke="red" points="214.5,-62 214.5,-81 307.5,-81 307.5,-62 214.5,-62"/>
<text text-anchor="middle" x="261" y="-69" font-family="Helvetica,sans-Serif" font-size="10.00">Core/Logging.hpp</text>
</a>
</g>
</g>
<!-- Node6&#45;&gt;Node8 -->
<g id="edge9" class="edge"><title>Node6&#45;&gt;Node8</title>
<path fill="none" stroke="midnightblue" d="M261,-123.475C261,-115.08 261,-101.981 261,-91.1631"/>
<polygon fill="midnightblue" stroke="midnightblue" points="264.5,-91.0091 261,-81.0091 257.5,-91.0091 264.5,-91.0091"/>
</g>
<!-- Node9 -->
<g id="node9" class="node"><title>Node9</title>
<polygon fill="white" stroke="#bfbfbf" points="325.5,-56.5 325.5,-86.5 420.5,-86.5 420.5,-56.5 325.5,-56.5"/>
<text text-anchor="start" x="333.5" y="-74.5" font-family="Helvetica,sans-Serif" font-size="10.00">boost/serialization</text>
<text text-anchor="middle" x="373" y="-63.5" font-family="Helvetica,sans-Serif" font-size="10.00">/nvp.hpp</text>
</g>
<!-- Node6&#45;&gt;Node9 -->
<g id="edge13" class="edge"><title>Node6&#45;&gt;Node9</title>
<path fill="none" stroke="midnightblue" d="M277.047,-123.475C292.783,-115.115 317.301,-102.09 337.614,-91.2991"/>
<polygon fill="midnightblue" stroke="midnightblue" points="339.415,-94.3055 346.604,-86.523 336.131,-88.1237 339.415,-94.3055"/>
</g>
<!-- Node7&#45;&gt;Node4 -->
<g id="edge7" class="edge"><title>Node7&#45;&gt;Node4</title>
<path fill="none" stroke="midnightblue" d="M454.262,-61.9398C446.039,-59.8932 437.215,-57.7858 429,-56 352.959,-39.4705 262.692,-23.775 216.525,-16.0288"/>
<polygon fill="midnightblue" stroke="midnightblue" points="217.007,-12.5608 206.567,-14.3667 215.854,-19.4653 217.007,-12.5608"/>
</g>
<!-- Node7&#45;&gt;Node5 -->
<g id="edge8" class="edge"><title>Node7&#45;&gt;Node5</title>
<path fill="none" stroke="midnightblue" d="M498.032,-61.9751C510.268,-52.5199 530.229,-37.0961 544.993,-25.6871"/>
<polygon fill="midnightblue" stroke="midnightblue" points="547.215,-28.3931 552.988,-19.5091 542.935,-22.8541 547.215,-28.3931"/>
</g>
</g>
</svg>
