<?xml version="1.0" encoding="UTF-8" standalone="no"?>
<!DOCTYPE svg PUBLIC "-//W3C//DTD SVG 1.1//EN"
 "http://www.w3.org/Graphics/SVG/1.1/DTD/svg11.dtd">
<!-- Generated by graphviz version 2.38.0 (20140413.2041)
 -->
<!-- Title: Core/FunctionTree/TreeNode.hpp Pages: 1 -->
<!--zoomable 319 -->
<svg id="main" version="1.1" xmlns="http://www.w3.org/2000/svg" xmlns:xlink="http://www.w3.org/1999/xlink" xml:space="preserve" onload="init(evt)">
<style type="text/css"><![CDATA[
.edge:hover path { stroke: red; }
.edge:hover polygon { stroke: red; fill: red; }
]]></style>
<script type="text/javascript"><![CDATA[
var edges = document.getElementsByTagName('g');
if (edges && edges.length) {
  for (var i=0;i<edges.length;i++) {
    if (edges[i].id.substr(0,4)=='edge') {
      edges[i].setAttribute('class','edge');
    }
  }
}
]]></script>
        <defs>
                <circle id="rim" cx="0" cy="0" r="7"/>
                <circle id="rim2" cx="0" cy="0" r="3.5"/>
                <g id="zoomPlus">
                        <use xlink:href="#rim" fill="#404040">
                                <set attributeName="fill" to="#808080" begin="zoomplus.mouseover" end="zoomplus.mouseout"/>
                        </use>
                        <path d="M-4,0h8M0,-4v8" fill="none" stroke="white" stroke-width="1.5" pointer-events="none"/>
                </g>
                <g id="zoomMin">
                        <use xlink:href="#rim" fill="#404040">
                                <set attributeName="fill" to="#808080" begin="zoomminus.mouseover" end="zoomminus.mouseout"/>
                        </use>
                        <path d="M-4,0h8" fill="none" stroke="white" stroke-width="1.5" pointer-events="none"/>
                </g>
                <g id="dirArrow">
                        <path fill="none" stroke="white" stroke-width="1.5" d="M0,-3.0v7 M-2.5,-0.5L0,-3.0L2.5,-0.5"/>
                </g>
               <g id="resetDef">
                       <use xlink:href="#rim2" fill="#404040">
                               <set attributeName="fill" to="#808080" begin="reset.mouseover" end="reset.mouseout"/>
                       </use>
               </g>
        </defs>

<script type="text/javascript">
var viewWidth = 715;
var viewHeight = 319;
var sectionId = 'dynsection-0';
</script>
<script xlink:href="svgpan.js"/>
<svg id="graph" class="graph">
<g id="viewport">
<title>Core/FunctionTree/TreeNode.hpp</title>
<polygon fill="white" stroke="none" points="-4,4 -4,-315 710.5,-315 710.5,4 -4,4"/>
<!-- Node1 -->
<g id="node1" class="node"><title>Node1</title>
<polygon fill="#bfbfbf" stroke="black" points="350.5,-291.5 350.5,-310.5 512.5,-310.5 512.5,-291.5 350.5,-291.5"/>
<text text-anchor="middle" x="431.5" y="-298.5" font-family="Helvetica,sans-Serif" font-size="10.00">Core/FunctionTree/TreeNode.hpp</text>
</g>
<!-- Node2 -->
<g id="node2" class="node"><title>Node2</title>
<polygon fill="white" stroke="#bfbfbf" points="0,-56.5 0,-75.5 53,-75.5 53,-56.5 0,-56.5"/>
<text text-anchor="middle" x="26.5" y="-63.5" font-family="Helvetica,sans-Serif" font-size="10.00">complex</text>
</g>
<!-- Node1&#45;&gt;Node2 -->
<g id="edge1" class="edge"><title>Node1&#45;&gt;Node2</title>
<path fill="none" stroke="midnightblue" d="M350.228,-298.586C289.217,-294.958 204.794,-284.376 136.5,-255 70.9997,-226.826 52.5404,-200.713 33.5,-132 29.2805,-116.773 27.5801,-98.8838 26.9068,-85.7318"/>
<polygon fill="midnightblue" stroke="midnightblue" points="30.3989,-85.4471 26.5421,-75.5792 23.4035,-85.6985 30.3989,-85.4471"/>
</g>
<!-- Node3 -->
<g id="node3" class="node"><title>Node3</title>
<polygon fill="white" stroke="#bfbfbf" points="424.5,-112.5 424.5,-131.5 476.5,-131.5 476.5,-112.5 424.5,-112.5"/>
<text text-anchor="middle" x="450.5" y="-119.5" font-family="Helvetica,sans-Serif" font-size="10.00">memory</text>
</g>
<!-- Node1&#45;&gt;Node3 -->
<g id="edge2" class="edge"><title>Node1&#45;&gt;Node3</title>
<path fill="none" stroke="midnightblue" d="M433.214,-291.398C436.598,-274.02 444.103,-233.452 447.5,-199 449.4,-179.732 450.108,-157.604 450.365,-142.213"/>
<polygon fill="midnightblue" stroke="midnightblue" points="453.869,-141.956 450.487,-131.916 446.869,-141.874 453.869,-141.956"/>
</g>
<!-- Node4 -->
<g id="node4" class="node"><title>Node4</title>
<polygon fill="white" stroke="#bfbfbf" points="321,-0.5 321,-19.5 362,-19.5 362,-0.5 321,-0.5"/>
<text text-anchor="middle" x="341.5" y="-7.5" font-family="Helvetica,sans-Serif" font-size="10.00">string</text>
</g>
<!-- Node1&#45;&gt;Node4 -->
<g id="edge3" class="edge"><title>Node1&#45;&gt;Node4</title>
<path fill="none" stroke="midnightblue" d="M441.959,-291.331C462.144,-273.559 504.5,-230.757 504.5,-184.5 504.5,-184.5 504.5,-184.5 504.5,-121 504.5,-57.839 419.369,-28.5189 372.153,-17.1144"/>
<polygon fill="midnightblue" stroke="midnightblue" points="372.672,-13.6429 362.144,-14.8273 371.113,-20.467 372.672,-13.6429"/>
</g>
<!-- Node5 -->
<g id="node5" class="node"><title>Node5</title>
<g id="a_node5"><a xlink:href="Functions_8hpp.html" target="_top" xlink:title="This file contains Functions implementing the Strategy interface so they can be used inside a node of...">
<polygon fill="white" stroke="black" points="145.5,-235.5 145.5,-254.5 307.5,-254.5 307.5,-235.5 145.5,-235.5"/>
<text text-anchor="middle" x="226.5" y="-242.5" font-family="Helvetica,sans-Serif" font-size="10.00">Core/FunctionTree/Functions.hpp</text>
</a>
</g>
</g>
<!-- Node1&#45;&gt;Node5 -->
<g id="edge4" class="edge"><title>Node1&#45;&gt;Node5</title>
<path fill="none" stroke="midnightblue" d="M399.017,-291.444C363.78,-282.162 307.396,-267.309 268.741,-257.127"/>
<polygon fill="midnightblue" stroke="midnightblue" points="269.393,-253.679 258.831,-254.516 267.609,-260.448 269.393,-253.679"/>
</g>
<!-- Node10 -->
<g id="node10" class="node"><title>Node10</title>
<g id="a_node10"><a xlink:href="ParameterList_8hpp.html" target="_top" xlink:title="ParameterList class. ">
<polygon fill="white" stroke="red" points="292.5,-168.5 292.5,-198.5 438.5,-198.5 438.5,-168.5 292.5,-168.5"/>
<text text-anchor="start" x="300.5" y="-186.5" font-family="Helvetica,sans-Serif" font-size="10.00">Core/FunctionTree/Parameter</text>
<text text-anchor="middle" x="365.5" y="-175.5" font-family="Helvetica,sans-Serif" font-size="10.00">List.hpp</text>
</a>
</g>
</g>
<!-- Node1&#45;&gt;Node10 -->
<g id="edge21" class="edge"><title>Node1&#45;&gt;Node10</title>
<path fill="none" stroke="midnightblue" d="M426.539,-291.319C416.447,-273.657 393.236,-233.039 378.522,-207.289"/>
<polygon fill="midnightblue" stroke="midnightblue" points="381.526,-205.491 373.526,-198.545 375.448,-208.964 381.526,-205.491"/>
</g>
<!-- Node11 -->
<g id="node11" class="node"><title>Node11</title>
<g id="a_node11"><a xlink:href="ParObserver_8hpp.html" target="_top" xlink:title="ParObserver class. ">
<polygon fill="white" stroke="black" points="532.5,-235.5 532.5,-254.5 706.5,-254.5 706.5,-235.5 532.5,-235.5"/>
<text text-anchor="middle" x="619.5" y="-242.5" font-family="Helvetica,sans-Serif" font-size="10.00">Core/FunctionTree/ParObserver.hpp</text>
</a>
</g>
</g>
<!-- Node1&#45;&gt;Node11 -->
<g id="edge20" class="edge"><title>Node1&#45;&gt;Node11</title>
<path fill="none" stroke="midnightblue" d="M461.289,-291.444C493.329,-282.241 544.433,-267.562 579.853,-257.388"/>
<polygon fill="midnightblue" stroke="midnightblue" points="581.205,-260.641 589.85,-254.516 579.273,-253.913 581.205,-260.641"/>
</g>
<!-- Node5&#45;&gt;Node2 -->
<g id="edge5" class="edge"><title>Node5&#45;&gt;Node2</title>
<path fill="none" stroke="midnightblue" d="M188.654,-235.491C163.052,-228.506 129.327,-216.821 103.5,-199 71.0831,-176.631 64.3462,-166.584 45.5,-132 37.5887,-117.482 32.6358,-99.3007 29.7783,-85.861"/>
<polygon fill="midnightblue" stroke="midnightblue" points="33.1822,-85.0279 27.8519,-75.8715 26.3089,-86.3534 33.1822,-85.0279"/>
</g>
<!-- Node6 -->
<g id="node6" class="node"><title>Node6</title>
<polygon fill="white" stroke="#bfbfbf" points="113,-174 113,-193 160,-193 160,-174 113,-174"/>
<text text-anchor="middle" x="136.5" y="-181" font-family="Helvetica,sans-Serif" font-size="10.00">math.h</text>
</g>
<!-- Node5&#45;&gt;Node6 -->
<g id="edge6" class="edge"><title>Node5&#45;&gt;Node6</title>
<path fill="none" stroke="midnightblue" d="M213.605,-235.475C199.036,-225.843 175.098,-210.017 157.755,-198.552"/>
<polygon fill="midnightblue" stroke="midnightblue" points="159.643,-195.604 149.371,-193.009 155.783,-201.444 159.643,-195.604"/>
</g>
<!-- Node7 -->
<g id="node7" class="node"><title>Node7</title>
<polygon fill="white" stroke="#bfbfbf" points="286.5,-112.5 286.5,-131.5 330.5,-131.5 330.5,-112.5 286.5,-112.5"/>
<text text-anchor="middle" x="308.5" y="-119.5" font-family="Helvetica,sans-Serif" font-size="10.00">vector</text>
</g>
<!-- Node5&#45;&gt;Node7 -->
<g id="edge7" class="edge"><title>Node5&#45;&gt;Node7</title>
<path fill="none" stroke="midnightblue" d="M232.397,-235.298C245.872,-215.414 279.121,-166.352 296.88,-140.147"/>
<polygon fill="midnightblue" stroke="midnightblue" points="299.944,-141.865 302.656,-131.623 294.149,-137.938 299.944,-141.865"/>
</g>
<!-- Node8 -->
<g id="node8" class="node"><title>Node8</title>
<g id="a_node8"><a xlink:href="Exceptions_8hpp.html" target="_top" xlink:title="ComPWA exceptions. ">
<polygon fill="white" stroke="red" points="232.5,-56.5 232.5,-75.5 340.5,-75.5 340.5,-56.5 232.5,-56.5"/>
<text text-anchor="middle" x="286.5" y="-63.5" font-family="Helvetica,sans-Serif" font-size="10.00">Core/Exceptions.hpp</text>
</a>
</g>
</g>
<!-- Node5&#45;&gt;Node8 -->
<g id="edge8" class="edge"><title>Node5&#45;&gt;Node8</title>
<path fill="none" stroke="midnightblue" d="M229.394,-235.463C238.598,-208.311 267.343,-123.512 280.189,-85.6185"/>
<polygon fill="midnightblue" stroke="midnightblue" points="283.598,-86.4627 283.494,-75.8684 276.969,-84.2154 283.598,-86.4627"/>
</g>
<!-- Node9 -->
<g id="node9" class="node"><title>Node9</title>
<g id="a_node9"><a xlink:href="FunctionTree_2FitParameter_8hpp.html" target="_top" xlink:title="Implementations of Parameter for various data types. ">
<polygon fill="white" stroke="red" points="54.5,-112.5 54.5,-131.5 230.5,-131.5 230.5,-112.5 54.5,-112.5"/>
<text text-anchor="middle" x="142.5" y="-119.5" font-family="Helvetica,sans-Serif" font-size="10.00">Core/FunctionTree/FitParameter.hpp</text>
</a>
</g>
</g>
<!-- Node5&#45;&gt;Node9 -->
<g id="edge10" class="edge"><title>Node5&#45;&gt;Node9</title>
<path fill="none" stroke="midnightblue" d="M220.459,-235.298C206.655,-215.414 172.596,-166.352 154.404,-140.147"/>
<polygon fill="midnightblue" stroke="midnightblue" points="157.064,-137.842 148.486,-131.623 151.314,-141.834 157.064,-137.842"/>
</g>
<!-- Node5&#45;&gt;Node10 -->
<g id="edge14" class="edge"><title>Node5&#45;&gt;Node10</title>
<path fill="none" stroke="midnightblue" d="M246.415,-235.475C266.385,-226.927 297.75,-213.501 323.278,-202.573"/>
<polygon fill="midnightblue" stroke="midnightblue" points="324.925,-205.676 332.74,-198.523 322.17,-199.241 324.925,-205.676"/>
</g>
<!-- Node8&#45;&gt;Node4 -->
<g id="edge9" class="edge"><title>Node8&#45;&gt;Node4</title>
<path fill="none" stroke="midnightblue" d="M295.582,-56.083C303.671,-48.1409 315.695,-36.3354 325.41,-26.7973"/>
<polygon fill="midnightblue" stroke="midnightblue" points="327.903,-29.2545 332.587,-19.7511 322.999,-24.2595 327.903,-29.2545"/>
</g>
<!-- Node9&#45;&gt;Node2 -->
<g id="edge11" class="edge"><title>Node9&#45;&gt;Node2</title>
<path fill="none" stroke="midnightblue" d="M124.119,-112.444C105.284,-103.675 75.7688,-89.9355 54.1207,-79.8579"/>
<polygon fill="midnightblue" stroke="midnightblue" points="55.3375,-76.5637 44.7946,-75.5164 52.3833,-82.9098 55.3375,-76.5637"/>
</g>
<!-- Node9&#45;&gt;Node4 -->
<g id="edge12" class="edge"><title>Node9&#45;&gt;Node4</title>
<path fill="none" stroke="midnightblue" d="M151.287,-112.381C165.463,-98.8563 194.714,-72.4928 223.5,-56 251.465,-39.9775 286.222,-27.5181 310.75,-19.8129"/>
<polygon fill="midnightblue" stroke="midnightblue" points="312.046,-23.0764 320.586,-16.8052 309.999,-16.3824 312.046,-23.0764"/>
</g>
<!-- Node9&#45;&gt;Node8 -->
<g id="edge13" class="edge"><title>Node9&#45;&gt;Node8</title>
<path fill="none" stroke="midnightblue" d="M165.317,-112.444C189.332,-103.438 227.329,-89.1891 254.369,-79.049"/>
<polygon fill="midnightblue" stroke="midnightblue" points="255.655,-82.3049 263.79,-75.5164 253.197,-75.7506 255.655,-82.3049"/>
</g>
<!-- Node10&#45;&gt;Node3 -->
<g id="edge15" class="edge"><title>Node10&#45;&gt;Node3</title>
<path fill="none" stroke="midnightblue" d="M385.644,-168.399C398.887,-159.129 416.178,-147.025 429.576,-137.647"/>
<polygon fill="midnightblue" stroke="midnightblue" points="431.947,-140.26 438.132,-131.658 427.932,-134.525 431.947,-140.26"/>
</g>
<!-- Node10&#45;&gt;Node4 -->
<g id="edge16" class="edge"><title>Node10&#45;&gt;Node4</title>
<path fill="none" stroke="midnightblue" d="M364.682,-168.414C363.764,-154.154 362.06,-131.487 359.5,-112 355.7,-83.0795 349.396,-49.8273 345.346,-29.6212"/>
<polygon fill="midnightblue" stroke="midnightblue" points="348.732,-28.7067 343.308,-19.6053 341.872,-30.1024 348.732,-28.7067"/>
</g>
<!-- Node10&#45;&gt;Node7 -->
<g id="edge17" class="edge"><title>Node10&#45;&gt;Node7</title>
<path fill="none" stroke="midnightblue" d="M351.992,-168.399C343.538,-159.575 332.625,-148.183 323.845,-139.018"/>
<polygon fill="midnightblue" stroke="midnightblue" points="326.239,-136.458 316.794,-131.658 321.184,-141.3 326.239,-136.458"/>
</g>
<!-- Node10&#45;&gt;Node8 -->
<g id="edge18" class="edge"><title>Node10&#45;&gt;Node8</title>
<path fill="none" stroke="midnightblue" d="M362.523,-168.248C358.892,-153.244 351.683,-129.428 339.5,-112 331.288,-100.252 319.29,-89.7202 308.786,-81.8042"/>
<polygon fill="midnightblue" stroke="midnightblue" points="310.593,-78.793 300.43,-75.8007 306.509,-84.4779 310.593,-78.793"/>
</g>
<!-- Node10&#45;&gt;Node9 -->
<g id="edge19" class="edge"><title>Node10&#45;&gt;Node9</title>
<path fill="none" stroke="midnightblue" d="M312.934,-168.475C273.622,-157.986 220.594,-143.837 184.184,-134.122"/>
<polygon fill="midnightblue" stroke="midnightblue" points="184.945,-130.703 174.381,-131.506 183.141,-137.466 184.945,-130.703"/>
</g>
</g>
</svg>
        <g id="navigator" transform="translate(0 0)" fill="#404254">
                <rect fill="#f2f5e9" fill-opacity="0.5" stroke="#606060" stroke-width=".5" x="0" y="0" width="60" height="60"/>
                <use id="zoomplus" xlink:href="#zoomPlus" x="17" y="9" onmousedown="handleZoom(evt,'in')"/>
                <use id="zoomminus" xlink:href="#zoomMin" x="42" y="9" onmousedown="handleZoom(evt,'out')"/>
                <use id="reset" xlink:href="#resetDef" x="30" y="36" onmousedown="handleReset()"/>
                <g id="arrowUp" xlink:href="#dirArrow" transform="translate(30 24)" onmousedown="handlePan(0,-1)">
                  <use xlink:href="#rim" fill="#404040">
                        <set attributeName="fill" to="#808080" begin="arrowUp.mouseover" end="arrowUp.mouseout"/>
                  </use>
                  <path fill="none" stroke="white" stroke-width="1.5" d="M0,-3.0v7 M-2.5,-0.5L0,-3.0L2.5,-0.5"/>
                </g>
                <g id="arrowRight" xlink:href="#dirArrow" transform="rotate(90) translate(36 -43)" onmousedown="handlePan(1,0)">
                  <use xlink:href="#rim" fill="#404040">
                        <set attributeName="fill" to="#808080" begin="arrowRight.mouseover" end="arrowRight.mouseout"/>
                  </use>
                  <path fill="none" stroke="white" stroke-width="1.5" d="M0,-3.0v7 M-2.5,-0.5L0,-3.0L2.5,-0.5"/>
                </g>
                <g id="arrowDown" xlink:href="#dirArrow" transform="rotate(180) translate(-30 -48)" onmousedown="handlePan(0,1)">
                  <use xlink:href="#rim" fill="#404040">
                        <set attributeName="fill" to="#808080" begin="arrowDown.mouseover" end="arrowDown.mouseout"/>
                  </use>
                  <path fill="none" stroke="white" stroke-width="1.5" d="M0,-3.0v7 M-2.5,-0.5L0,-3.0L2.5,-0.5"/>
                </g>
                <g id="arrowLeft" xlink:href="#dirArrow" transform="rotate(270) translate(-36 17)" onmousedown="handlePan(-1,0)">
                  <use xlink:href="#rim" fill="#404040">
                        <set attributeName="fill" to="#808080" begin="arrowLeft.mouseover" end="arrowLeft.mouseout"/>
                  </use>
                  <path fill="none" stroke="white" stroke-width="1.5" d="M0,-3.0v7 M-2.5,-0.5L0,-3.0L2.5,-0.5"/>
                </g>
        </g>
        <svg viewBox="0 0 15 15" width="100%" height="30px" preserveAspectRatio="xMaxYMin meet">
         <g id="arrow_out" transform="scale(0.3 0.3)">
          <a xlink:href="TreeNode_8hpp__incl_org.svg" target="_base">
           <rect id="button" ry="5" rx="5" y="6" x="6" height="38" width="38"
                fill="#f2f5e9" fill-opacity="0.5" stroke="#606060" stroke-width="1.0"/>
           <path id="arrow"
             d="M 11.500037,31.436501 C 11.940474,20.09759 22.043105,11.32322 32.158766,21.979434 L 37.068811,17.246167 C 37.068811,17.246167 37.088388,32 37.088388,32 L 22.160133,31.978069 C 22.160133,31.978069 26.997745,27.140456 26.997745,27.140456 C 18.528582,18.264221 13.291696,25.230495 11.500037,31.436501 z"
             style="fill:#404040;"/>
          </a>
         </g>
        </svg>
</svg>
