<?xml version="1.0" encoding="UTF-8" standalone="no"?>
<!DOCTYPE svg PUBLIC "-//W3C//DTD SVG 1.1//EN"
 "http://www.w3.org/Graphics/SVG/1.1/DTD/svg11.dtd">
<!-- Generated by graphviz version 2.38.0 (20140413.2041)
 -->
<!-- Title: Core/FunctionTree/TreeNode.cpp Pages: 1 -->
<!--zoomable 375 -->
<svg id="main" version="1.1" xmlns="http://www.w3.org/2000/svg" xmlns:xlink="http://www.w3.org/1999/xlink" xml:space="preserve" onload="init(evt)">
<style type="text/css"><![CDATA[
.edge:hover path { stroke: red; }
.edge:hover polygon { stroke: red; fill: red; }
]]></style>
<script type="text/javascript"><![CDATA[
var edges = document.getElementsByTagName('g');
if (edges && edges.length) {
  for (var i=0;i<edges.length;i++) {
    if (edges[i].id.substr(0,4)=='edge') {
      edges[i].setAttribute('class','edge');
    }
  }
}
]]></script>
        <defs>
                <circle id="rim" cx="0" cy="0" r="7"/>
                <circle id="rim2" cx="0" cy="0" r="3.5"/>
                <g id="zoomPlus">
                        <use xlink:href="#rim" fill="#404040">
                                <set attributeName="fill" to="#808080" begin="zoomplus.mouseover" end="zoomplus.mouseout"/>
                        </use>
                        <path d="M-4,0h8M0,-4v8" fill="none" stroke="white" stroke-width="1.5" pointer-events="none"/>
                </g>
                <g id="zoomMin">
                        <use xlink:href="#rim" fill="#404040">
                                <set attributeName="fill" to="#808080" begin="zoomminus.mouseover" end="zoomminus.mouseout"/>
                        </use>
                        <path d="M-4,0h8" fill="none" stroke="white" stroke-width="1.5" pointer-events="none"/>
                </g>
                <g id="dirArrow">
                        <path fill="none" stroke="white" stroke-width="1.5" d="M0,-3.0v7 M-2.5,-0.5L0,-3.0L2.5,-0.5"/>
                </g>
               <g id="resetDef">
                       <use xlink:href="#rim2" fill="#404040">
                               <set attributeName="fill" to="#808080" begin="reset.mouseover" end="reset.mouseout"/>
                       </use>
               </g>
        </defs>

<script type="text/javascript">
var viewWidth = 637;
var viewHeight = 375;
var sectionId = 'dynsection-0';
</script>
<script xlink:href="svgpan.js"/>
<svg id="graph" class="graph">
<g id="viewport">
<title>Core/FunctionTree/TreeNode.cpp</title>
<polygon fill="white" stroke="none" points="-4,4 -4,-371 633,-371 633,4 -4,4"/>
<!-- Node1 -->
<g id="node1" class="node"><title>Node1</title>
<polygon fill="#bfbfbf" stroke="black" points="223,-347.5 223,-366.5 385,-366.5 385,-347.5 223,-347.5"/>
<text text-anchor="middle" x="304" y="-354.5" font-family="Helvetica,sans-Serif" font-size="10.00">Core/FunctionTree/TreeNode.cpp</text>
</g>
<!-- Node2 -->
<g id="node2" class="node"><title>Node2</title>
<polygon fill="white" stroke="#bfbfbf" points="30.5,-56.5 30.5,-75.5 83.5,-75.5 83.5,-56.5 30.5,-56.5"/>
<text text-anchor="middle" x="57" y="-63.5" font-family="Helvetica,sans-Serif" font-size="10.00">complex</text>
</g>
<!-- Node1&#45;&gt;Node2 -->
<g id="edge1" class="edge"><title>Node1&#45;&gt;Node2</title>
<path fill="none" stroke="midnightblue" d="M247.887,-347.472C160.048,-332.521 0,-298.128 0,-246 0,-246 0,-246 0,-182.5 0,-143.783 26.0743,-104.604 42.9524,-83.2979"/>
<polygon fill="midnightblue" stroke="midnightblue" points="45.6683,-85.5057 49.3127,-75.5574 40.2599,-81.0616 45.6683,-85.5057"/>
</g>
<!-- Node3 -->
<g id="node3" class="node"><title>Node3</title>
<polygon fill="white" stroke="#bfbfbf" points="527,-112.5 527,-131.5 579,-131.5 579,-112.5 527,-112.5"/>
<text text-anchor="middle" x="553" y="-119.5" font-family="Helvetica,sans-Serif" font-size="10.00">memory</text>
</g>
<!-- Node1&#45;&gt;Node3 -->
<g id="edge2" class="edge"><title>Node1&#45;&gt;Node3</title>
<path fill="none" stroke="midnightblue" d="M360.754,-347.465C417.481,-336.031 503.472,-310.354 555,-255 581.904,-226.098 581.197,-206.625 573,-168 571.003,-158.591 566.899,-148.762 562.925,-140.698"/>
<polygon fill="midnightblue" stroke="midnightblue" points="565.887,-138.81 558.13,-131.593 559.693,-142.072 565.887,-138.81"/>
</g>
<!-- Node4 -->
<g id="node4" class="node"><title>Node4</title>
<polygon fill="white" stroke="#bfbfbf" points="433.5,-0.5 433.5,-19.5 474.5,-19.5 474.5,-0.5 433.5,-0.5"/>
<text text-anchor="middle" x="454" y="-7.5" font-family="Helvetica,sans-Serif" font-size="10.00">string</text>
</g>
<!-- Node1&#45;&gt;Node4 -->
<g id="edge3" class="edge"><title>Node1&#45;&gt;Node4</title>
<path fill="none" stroke="midnightblue" d="M368.987,-347.446C463.831,-333.115 629,-300.356 629,-246 629,-246 629,-246 629,-121 629,-53.6601 534.97,-25.9382 484.761,-15.9357"/>
<polygon fill="midnightblue" stroke="midnightblue" points="485.236,-12.4637 474.762,-14.0623 483.946,-19.344 485.236,-12.4637"/>
</g>
<!-- Node5 -->
<g id="node5" class="node"><title>Node5</title>
<g id="a_node5"><a xlink:href="Functions_8hpp.html" target="_top" xlink:title="This file contains Functions implementing the Strategy interface so they can be used inside a node of...">
<polygon fill="white" stroke="black" points="179,-235.5 179,-254.5 257,-254.5 257,-235.5 179,-235.5"/>
<text text-anchor="middle" x="218" y="-242.5" font-family="Helvetica,sans-Serif" font-size="10.00">Functions.hpp</text>
</a>
</g>
</g>
<!-- Node1&#45;&gt;Node5 -->
<g id="edge4" class="edge"><title>Node1&#45;&gt;Node5</title>
<path fill="none" stroke="midnightblue" d="M293.231,-347.468C282.901,-338.944 267.255,-325.109 256,-311 244.308,-296.343 233.788,-277.704 226.798,-264.148"/>
<polygon fill="midnightblue" stroke="midnightblue" points="229.786,-262.297 222.179,-254.921 223.526,-265.43 229.786,-262.297"/>
</g>
<!-- Node11 -->
<g id="node11" class="node"><title>Node11</title>
<g id="a_node11"><a xlink:href="TreeNode_8hpp.html" target="_top" xlink:title="TreeNode class. ">
<polygon fill="white" stroke="black" points="265,-291.5 265,-310.5 343,-310.5 343,-291.5 265,-291.5"/>
<text text-anchor="middle" x="304" y="-298.5" font-family="Helvetica,sans-Serif" font-size="10.00">TreeNode.hpp</text>
</a>
</g>
</g>
<!-- Node1&#45;&gt;Node11 -->
<g id="edge20" class="edge"><title>Node1&#45;&gt;Node11</title>
<path fill="none" stroke="midnightblue" d="M304,-347.083C304,-340.006 304,-329.861 304,-320.986"/>
<polygon fill="midnightblue" stroke="midnightblue" points="307.5,-320.751 304,-310.751 300.5,-320.751 307.5,-320.751"/>
</g>
<!-- Node5&#45;&gt;Node2 -->
<g id="edge5" class="edge"><title>Node5&#45;&gt;Node2</title>
<path fill="none" stroke="midnightblue" d="M178.781,-239.058C151.703,-233.644 116.781,-222.372 95,-199 65.4203,-167.26 58.6915,-113.966 57.2739,-85.7838"/>
<polygon fill="midnightblue" stroke="midnightblue" points="60.7689,-85.5681 56.9446,-75.6876 53.7726,-85.7964 60.7689,-85.5681"/>
</g>
<!-- Node6 -->
<g id="node6" class="node"><title>Node6</title>
<polygon fill="white" stroke="#bfbfbf" points="104.5,-174 104.5,-193 151.5,-193 151.5,-174 104.5,-174"/>
<text text-anchor="middle" x="128" y="-181" font-family="Helvetica,sans-Serif" font-size="10.00">math.h</text>
</g>
<!-- Node5&#45;&gt;Node6 -->
<g id="edge6" class="edge"><title>Node5&#45;&gt;Node6</title>
<path fill="none" stroke="midnightblue" d="M205.105,-235.475C190.536,-225.843 166.598,-210.017 149.255,-198.552"/>
<polygon fill="midnightblue" stroke="midnightblue" points="151.143,-195.604 140.871,-193.009 147.283,-201.444 151.143,-195.604"/>
</g>
<!-- Node7 -->
<g id="node7" class="node"><title>Node7</title>
<polygon fill="white" stroke="#bfbfbf" points="150,-112.5 150,-131.5 194,-131.5 194,-112.5 150,-112.5"/>
<text text-anchor="middle" x="172" y="-119.5" font-family="Helvetica,sans-Serif" font-size="10.00">vector</text>
</g>
<!-- Node5&#45;&gt;Node7 -->
<g id="edge7" class="edge"><title>Node5&#45;&gt;Node7</title>
<path fill="none" stroke="midnightblue" d="M215.741,-235.421C211.894,-221.189 203.553,-191.898 194,-168 190.328,-158.815 185.576,-148.908 181.428,-140.734"/>
<polygon fill="midnightblue" stroke="midnightblue" points="184.497,-139.049 176.782,-131.788 178.285,-142.275 184.497,-139.049"/>
</g>
<!-- Node8 -->
<g id="node8" class="node"><title>Node8</title>
<g id="a_node8"><a xlink:href="Exceptions_8hpp.html" target="_top" xlink:title="ComPWA exceptions. ">
<polygon fill="white" stroke="red" points="318,-56.5 318,-75.5 426,-75.5 426,-56.5 318,-56.5"/>
<text text-anchor="middle" x="372" y="-63.5" font-family="Helvetica,sans-Serif" font-size="10.00">Core/Exceptions.hpp</text>
</a>
</g>
</g>
<!-- Node5&#45;&gt;Node8 -->
<g id="edge8" class="edge"><title>Node5&#45;&gt;Node8</title>
<path fill="none" stroke="midnightblue" d="M210.904,-235.186C193.235,-213.023 148.174,-155.098 141,-132 138.363,-123.511 135.347,-118.86 141,-112 161.785,-86.775 246.818,-75.5033 307.673,-70.5966"/>
<polygon fill="midnightblue" stroke="midnightblue" points="308.271,-74.0612 317.974,-69.8075 307.736,-67.0816 308.271,-74.0612"/>
</g>
<!-- Node9 -->
<g id="node9" class="node"><title>Node9</title>
<g id="a_node9"><a xlink:href="FunctionTree_2FitParameter_8hpp.html" target="_top" xlink:title="Implementations of Parameter for various data types. ">
<polygon fill="white" stroke="red" points="212,-112.5 212,-131.5 388,-131.5 388,-112.5 212,-112.5"/>
<text text-anchor="middle" x="300" y="-119.5" font-family="Helvetica,sans-Serif" font-size="10.00">Core/FunctionTree/FitParameter.hpp</text>
</a>
</g>
</g>
<!-- Node5&#45;&gt;Node9 -->
<g id="edge10" class="edge"><title>Node5&#45;&gt;Node9</title>
<path fill="none" stroke="midnightblue" d="M223.897,-235.298C237.372,-215.414 270.621,-166.352 288.38,-140.147"/>
<polygon fill="midnightblue" stroke="midnightblue" points="291.444,-141.865 294.156,-131.623 285.649,-137.938 291.444,-141.865"/>
</g>
<!-- Node10 -->
<g id="node10" class="node"><title>Node10</title>
<g id="a_node10"><a xlink:href="ParameterList_8hpp.html" target="_top" xlink:title="ParameterList class. ">
<polygon fill="white" stroke="red" points="284,-168.5 284,-198.5 430,-198.5 430,-168.5 284,-168.5"/>
<text text-anchor="start" x="292" y="-186.5" font-family="Helvetica,sans-Serif" font-size="10.00">Core/FunctionTree/Parameter</text>
<text text-anchor="middle" x="357" y="-175.5" font-family="Helvetica,sans-Serif" font-size="10.00">List.hpp</text>
</a>
</g>
</g>
<!-- Node5&#45;&gt;Node10 -->
<g id="edge14" class="edge"><title>Node5&#45;&gt;Node10</title>
<path fill="none" stroke="midnightblue" d="M237.915,-235.475C257.885,-226.927 289.25,-213.501 314.778,-202.573"/>
<polygon fill="midnightblue" stroke="midnightblue" points="316.425,-205.676 324.24,-198.523 313.67,-199.241 316.425,-205.676"/>
</g>
<!-- Node8&#45;&gt;Node4 -->
<g id="edge9" class="edge"><title>Node8&#45;&gt;Node4</title>
<path fill="none" stroke="midnightblue" d="M385.175,-56.324C397.847,-47.979 417.233,-35.2122 432.206,-25.3524"/>
<polygon fill="midnightblue" stroke="midnightblue" points="434.431,-28.0776 440.858,-19.6545 430.581,-22.2313 434.431,-28.0776"/>
</g>
<!-- Node9&#45;&gt;Node2 -->
<g id="edge11" class="edge"><title>Node9&#45;&gt;Node2</title>
<path fill="none" stroke="midnightblue" d="M261.496,-112.444C215.434,-102.208 138.887,-85.1972 93.6585,-75.1463"/>
<polygon fill="midnightblue" stroke="midnightblue" points="94.2097,-71.6835 83.6885,-72.9308 92.6911,-78.5168 94.2097,-71.6835"/>
</g>
<!-- Node9&#45;&gt;Node4 -->
<g id="edge12" class="edge"><title>Node9&#45;&gt;Node4</title>
<path fill="none" stroke="midnightblue" d="M298.517,-112.26C296.721,-98.569 295.436,-71.9821 309,-56 337.317,-22.634 389.895,-13.6193 423.353,-11.4042"/>
<polygon fill="midnightblue" stroke="midnightblue" points="423.675,-14.8926 433.49,-10.9016 423.329,-7.90118 423.675,-14.8926"/>
</g>
<!-- Node9&#45;&gt;Node8 -->
<g id="edge13" class="edge"><title>Node9&#45;&gt;Node8</title>
<path fill="none" stroke="midnightblue" d="M311.568,-112.324C322.42,-104.185 338.881,-91.8395 351.883,-82.0874"/>
<polygon fill="midnightblue" stroke="midnightblue" points="354.321,-84.6339 360.221,-75.8339 350.121,-79.0339 354.321,-84.6339"/>
</g>
<!-- Node10&#45;&gt;Node3 -->
<g id="edge15" class="edge"><title>Node10&#45;&gt;Node3</title>
<path fill="none" stroke="midnightblue" d="M403.449,-168.399C438.18,-157.856 484.985,-143.647 516.925,-133.951"/>
<polygon fill="midnightblue" stroke="midnightblue" points="518.186,-137.226 526.738,-130.972 516.153,-130.528 518.186,-137.226"/>
</g>
<!-- Node10&#45;&gt;Node4 -->
<g id="edge16" class="edge"><title>Node10&#45;&gt;Node4</title>
<path fill="none" stroke="midnightblue" d="M376.323,-168.313C387.896,-159.024 402.213,-146.036 412,-132 434.388,-99.8896 445.846,-54.724 450.82,-29.642"/>
<polygon fill="midnightblue" stroke="midnightblue" points="454.291,-30.1194 452.665,-19.6501 447.407,-28.8485 454.291,-30.1194"/>
</g>
<!-- Node10&#45;&gt;Node7 -->
<g id="edge17" class="edge"><title>Node10&#45;&gt;Node7</title>
<path fill="none" stroke="midnightblue" d="M313.158,-168.399C279.558,-157.593 233.986,-142.936 203.82,-133.234"/>
<polygon fill="midnightblue" stroke="midnightblue" points="204.812,-129.877 194.22,-130.147 202.669,-136.54 204.812,-129.877"/>
</g>
<!-- Node10&#45;&gt;Node8 -->
<g id="edge18" class="edge"><title>Node10&#45;&gt;Node8</title>
<path fill="none" stroke="midnightblue" d="M372.647,-168.247C381.664,-158.934 392.147,-145.943 397,-132 402.693,-115.644 394.189,-97.2428 385.593,-84.2048"/>
<polygon fill="midnightblue" stroke="midnightblue" points="388.201,-81.837 379.519,-75.7649 382.519,-85.926 388.201,-81.837"/>
</g>
<!-- Node10&#45;&gt;Node9 -->
<g id="edge19" class="edge"><title>Node10&#45;&gt;Node9</title>
<path fill="none" stroke="midnightblue" d="M343.492,-168.399C335.038,-159.575 324.125,-148.183 315.345,-139.018"/>
<polygon fill="midnightblue" stroke="midnightblue" points="317.739,-136.458 308.294,-131.658 312.684,-141.3 317.739,-136.458"/>
</g>
<!-- Node11&#45;&gt;Node2 -->
<g id="edge21" class="edge"><title>Node11&#45;&gt;Node2</title>
<path fill="none" stroke="midnightblue" d="M264.999,-295.029C211.936,-286.027 118.312,-261.731 72,-199 47.1977,-165.405 49.9751,-113.304 53.727,-85.6775"/>
<polygon fill="midnightblue" stroke="midnightblue" points="57.1903,-86.183 55.2636,-75.7649 50.2729,-85.1106 57.1903,-86.183"/>
</g>
<!-- Node11&#45;&gt;Node3 -->
<g id="edge22" class="edge"><title>Node11&#45;&gt;Node3</title>
<path fill="none" stroke="midnightblue" d="M343.182,-297.691C401.838,-293.381 508.345,-281.978 534,-255 563.168,-224.328 560.367,-170.149 556.381,-141.677"/>
<polygon fill="midnightblue" stroke="midnightblue" points="559.788,-140.819 554.747,-131.501 552.877,-141.93 559.788,-140.819"/>
</g>
<!-- Node11&#45;&gt;Node4 -->
<g id="edge23" class="edge"><title>Node11&#45;&gt;Node4</title>
<path fill="none" stroke="midnightblue" d="M306.956,-291.138C312.009,-277.28 323.582,-250.468 342,-235 377.213,-205.426 410.072,-234.746 439,-199 479.133,-149.408 466.864,-66.3999 458.712,-29.5703"/>
<polygon fill="midnightblue" stroke="midnightblue" points="462.087,-28.6352 456.377,-19.7111 455.276,-30.2486 462.087,-28.6352"/>
</g>
<!-- Node11&#45;&gt;Node5 -->
<g id="edge24" class="edge"><title>Node11&#45;&gt;Node5</title>
<path fill="none" stroke="midnightblue" d="M290.183,-291.324C276.767,-282.9 256.176,-269.971 240.414,-260.074"/>
<polygon fill="midnightblue" stroke="midnightblue" points="242.113,-257.008 231.783,-254.655 238.391,-262.936 242.113,-257.008"/>
</g>
<!-- Node11&#45;&gt;Node10 -->
<g id="edge26" class="edge"><title>Node11&#45;&gt;Node10</title>
<path fill="none" stroke="midnightblue" d="M302.872,-291.137C301.613,-278.188 300.723,-253.615 309,-235 313.891,-223.999 322.235,-213.919 330.607,-205.706"/>
<polygon fill="midnightblue" stroke="midnightblue" points="333.216,-208.062 338.206,-198.716 328.476,-202.911 333.216,-208.062"/>
</g>
<!-- Node12 -->
<g id="node12" class="node"><title>Node12</title>
<g id="a_node12"><a xlink:href="ParObserver_8hpp.html" target="_top" xlink:title="ParObserver class. ">
<polygon fill="white" stroke="black" points="351,-235.5 351,-254.5 525,-254.5 525,-235.5 351,-235.5"/>
<text text-anchor="middle" x="438" y="-242.5" font-family="Helvetica,sans-Serif" font-size="10.00">Core/FunctionTree/ParObserver.hpp</text>
</a>
</g>
</g>
<!-- Node11&#45;&gt;Node12 -->
<g id="edge25" class="edge"><title>Node11&#45;&gt;Node12</title>
<path fill="none" stroke="midnightblue" d="M325.233,-291.444C347.384,-282.517 382.319,-268.439 407.436,-258.317"/>
<polygon fill="midnightblue" stroke="midnightblue" points="408.9,-261.501 416.867,-254.516 406.283,-255.008 408.9,-261.501"/>
</g>
</g>
</svg>
        <g id="navigator" transform="translate(0 0)" fill="#404254">
                <rect fill="#f2f5e9" fill-opacity="0.5" stroke="#606060" stroke-width=".5" x="0" y="0" width="60" height="60"/>
                <use id="zoomplus" xlink:href="#zoomPlus" x="17" y="9" onmousedown="handleZoom(evt,'in')"/>
                <use id="zoomminus" xlink:href="#zoomMin" x="42" y="9" onmousedown="handleZoom(evt,'out')"/>
                <use id="reset" xlink:href="#resetDef" x="30" y="36" onmousedown="handleReset()"/>
                <g id="arrowUp" xlink:href="#dirArrow" transform="translate(30 24)" onmousedown="handlePan(0,-1)">
                  <use xlink:href="#rim" fill="#404040">
                        <set attributeName="fill" to="#808080" begin="arrowUp.mouseover" end="arrowUp.mouseout"/>
                  </use>
                  <path fill="none" stroke="white" stroke-width="1.5" d="M0,-3.0v7 M-2.5,-0.5L0,-3.0L2.5,-0.5"/>
                </g>
                <g id="arrowRight" xlink:href="#dirArrow" transform="rotate(90) translate(36 -43)" onmousedown="handlePan(1,0)">
                  <use xlink:href="#rim" fill="#404040">
                        <set attributeName="fill" to="#808080" begin="arrowRight.mouseover" end="arrowRight.mouseout"/>
                  </use>
                  <path fill="none" stroke="white" stroke-width="1.5" d="M0,-3.0v7 M-2.5,-0.5L0,-3.0L2.5,-0.5"/>
                </g>
                <g id="arrowDown" xlink:href="#dirArrow" transform="rotate(180) translate(-30 -48)" onmousedown="handlePan(0,1)">
                  <use xlink:href="#rim" fill="#404040">
                        <set attributeName="fill" to="#808080" begin="arrowDown.mouseover" end="arrowDown.mouseout"/>
                  </use>
                  <path fill="none" stroke="white" stroke-width="1.5" d="M0,-3.0v7 M-2.5,-0.5L0,-3.0L2.5,-0.5"/>
                </g>
                <g id="arrowLeft" xlink:href="#dirArrow" transform="rotate(270) translate(-36 17)" onmousedown="handlePan(-1,0)">
                  <use xlink:href="#rim" fill="#404040">
                        <set attributeName="fill" to="#808080" begin="arrowLeft.mouseover" end="arrowLeft.mouseout"/>
                  </use>
                  <path fill="none" stroke="white" stroke-width="1.5" d="M0,-3.0v7 M-2.5,-0.5L0,-3.0L2.5,-0.5"/>
                </g>
        </g>
        <svg viewBox="0 0 15 15" width="100%" height="30px" preserveAspectRatio="xMaxYMin meet">
         <g id="arrow_out" transform="scale(0.3 0.3)">
          <a xlink:href="TreeNode_8cpp__incl_org.svg" target="_base">
           <rect id="button" ry="5" rx="5" y="6" x="6" height="38" width="38"
                fill="#f2f5e9" fill-opacity="0.5" stroke="#606060" stroke-width="1.0"/>
           <path id="arrow"
             d="M 11.500037,31.436501 C 11.940474,20.09759 22.043105,11.32322 32.158766,21.979434 L 37.068811,17.246167 C 37.068811,17.246167 37.088388,32 37.088388,32 L 22.160133,31.978069 C 22.160133,31.978069 26.997745,27.140456 26.997745,27.140456 C 18.528582,18.264221 13.291696,25.230495 11.500037,31.436501 z"
             style="fill:#404040;"/>
          </a>
         </g>
        </svg>
</svg>
