<?xml version="1.0" encoding="UTF-8" standalone="no"?>
<!DOCTYPE svg PUBLIC "-//W3C//DTD SVG 1.1//EN"
 "http://www.w3.org/Graphics/SVG/1.1/DTD/svg11.dtd">
<!-- Generated by graphviz version 2.38.0 (20140413.2041)
 -->
<!-- Title: Core/FunctionTree/TreeNode.hpp Pages: 1 -->
<!--zoomable 341 -->
<svg id="main" version="1.1" xmlns="http://www.w3.org/2000/svg" xmlns:xlink="http://www.w3.org/1999/xlink" xml:space="preserve" onload="init(evt)">
<style type="text/css"><![CDATA[
.edge:hover path { stroke: red; }
.edge:hover polygon { stroke: red; fill: red; }
]]></style>
<script type="text/javascript"><![CDATA[
var edges = document.getElementsByTagName('g');
if (edges && edges.length) {
  for (var i=0;i<edges.length;i++) {
    if (edges[i].id.substr(0,4)=='edge') {
      edges[i].setAttribute('class','edge');
    }
  }
}
]]></script>
        <defs>
                <circle id="rim" cx="0" cy="0" r="7"/>
                <circle id="rim2" cx="0" cy="0" r="3.5"/>
                <g id="zoomPlus">
                        <use xlink:href="#rim" fill="#404040">
                                <set attributeName="fill" to="#808080" begin="zoomplus.mouseover" end="zoomplus.mouseout"/>
                        </use>
                        <path d="M-4,0h8M0,-4v8" fill="none" stroke="white" stroke-width="1.5" pointer-events="none"/>
                </g>
                <g id="zoomMin">
                        <use xlink:href="#rim" fill="#404040">
                                <set attributeName="fill" to="#808080" begin="zoomminus.mouseover" end="zoomminus.mouseout"/>
                        </use>
                        <path d="M-4,0h8" fill="none" stroke="white" stroke-width="1.5" pointer-events="none"/>
                </g>
                <g id="dirArrow">
                        <path fill="none" stroke="white" stroke-width="1.5" d="M0,-3.0v7 M-2.5,-0.5L0,-3.0L2.5,-0.5"/>
                </g>
               <g id="resetDef">
                       <use xlink:href="#rim2" fill="#404040">
                               <set attributeName="fill" to="#808080" begin="reset.mouseover" end="reset.mouseout"/>
                       </use>
               </g>
        </defs>

<script type="text/javascript">
var viewWidth = 1414;
var viewHeight = 341;
var sectionId = 'dynsection-1';
</script>
<script xlink:href="svgpan.js"/>
<svg id="graph" class="graph">
<g id="viewport">
<title>Core/FunctionTree/TreeNode.hpp</title>
<polygon fill="white" stroke="none" points="-4,4 -4,-337 1410.19,-337 1410.19,4 -4,4"/>
<!-- Node1 -->
<g id="node1" class="node"><title>Node1</title>
<polygon fill="#bfbfbf" stroke="black" points="526,-313.5 526,-332.5 688,-332.5 688,-313.5 526,-313.5"/>
<text text-anchor="middle" x="607" y="-320.5" font-family="Helvetica,sans-Serif" font-size="10.00">Core/FunctionTree/TreeNode.hpp</text>
</g>
<!-- Node2 -->
<g id="node2" class="node"><title>Node2</title>
<g id="a_node2"><a xlink:href="FunctionTreeEstimator_8cpp.html" target="_top" xlink:title="Core/FunctionTree/Function\lTreeEstimator.cpp">
<polygon fill="white" stroke="black" points="0,-246.5 0,-276.5 138,-276.5 138,-246.5 0,-246.5"/>
<text text-anchor="start" x="8" y="-264.5" font-family="Helvetica,sans-Serif" font-size="10.00">Core/FunctionTree/Function</text>
<text text-anchor="middle" x="69" y="-253.5" font-family="Helvetica,sans-Serif" font-size="10.00">TreeEstimator.cpp</text>
</a>
</g>
</g>
<!-- Node1&#45;&gt;Node2 -->
<g id="edge1" class="edge"><title>Node1&#45;&gt;Node2</title>
<path fill="none" stroke="midnightblue" d="M515.505,-315.388C422.477,-308.117 274.313,-295.027 147,-277 144.136,-276.594 141.217,-276.158 138.272,-275.698"/>
<polygon fill="midnightblue" stroke="midnightblue" points="515.49,-318.898 525.731,-316.181 516.032,-311.918 515.49,-318.898"/>
</g>
<!-- Node3 -->
<g id="node3" class="node"><title>Node3</title>
<g id="a_node3"><a xlink:href="FunctionTreeIntensity_8cpp.html" target="_top" xlink:title="Core/FunctionTree/Function\lTreeIntensity.cpp">
<polygon fill="white" stroke="black" points="156,-246.5 156,-276.5 294,-276.5 294,-246.5 156,-246.5"/>
<text text-anchor="start" x="164" y="-264.5" font-family="Helvetica,sans-Serif" font-size="10.00">Core/FunctionTree/Function</text>
<text text-anchor="middle" x="225" y="-253.5" font-family="Helvetica,sans-Serif" font-size="10.00">TreeIntensity.cpp</text>
</a>
</g>
</g>
<!-- Node1&#45;&gt;Node3 -->
<g id="edge2" class="edge"><title>Node1&#45;&gt;Node3</title>
<path fill="none" stroke="midnightblue" d="M534.869,-312.086C473.198,-303.427 382.137,-290.208 303,-277 300.147,-276.524 297.237,-276.028 294.299,-275.52"/>
<polygon fill="midnightblue" stroke="midnightblue" points="534.499,-315.568 544.888,-313.489 535.47,-308.636 534.499,-315.568"/>
</g>
<!-- Node4 -->
<g id="node4" class="node"><title>Node4</title>
<g id="a_node4"><a xlink:href="TreeNode_8cpp.html" target="_top" xlink:title="Core/FunctionTree/TreeNode.cpp">
<polygon fill="white" stroke="black" points="312,-252 312,-271 474,-271 474,-252 312,-252"/>
<text text-anchor="middle" x="393" y="-259" font-family="Helvetica,sans-Serif" font-size="10.00">Core/FunctionTree/TreeNode.cpp</text>
</a>
</g>
</g>
<!-- Node1&#45;&gt;Node4 -->
<g id="edge3" class="edge"><title>Node1&#45;&gt;Node4</title>
<path fill="none" stroke="midnightblue" d="M566.535,-310.749C524.959,-299.189 461.16,-281.451 423.604,-271.009"/>
<polygon fill="midnightblue" stroke="midnightblue" points="565.767,-314.168 576.339,-313.475 567.642,-307.424 565.767,-314.168"/>
</g>
<!-- Node5 -->
<g id="node5" class="node"><title>Node5</title>
<g id="a_node5"><a xlink:href="MinLogLH_8cpp.html" target="_top" xlink:title="Estimator/MinLogLH\l/MinLogLH.cpp">
<polygon fill="white" stroke="black" points="492,-246.5 492,-276.5 598,-276.5 598,-246.5 492,-246.5"/>
<text text-anchor="start" x="500" y="-264.5" font-family="Helvetica,sans-Serif" font-size="10.00">Estimator/MinLogLH</text>
<text text-anchor="middle" x="545" y="-253.5" font-family="Helvetica,sans-Serif" font-size="10.00">/MinLogLH.cpp</text>
</a>
</g>
</g>
<!-- Node1&#45;&gt;Node5 -->
<g id="edge4" class="edge"><title>Node1&#45;&gt;Node5</title>
<path fill="none" stroke="midnightblue" d="M590.712,-306.369C581.067,-297.113 568.948,-285.482 559.612,-276.523"/>
<polygon fill="midnightblue" stroke="midnightblue" points="588.478,-309.076 598.117,-313.475 593.325,-304.026 588.478,-309.076"/>
</g>
<!-- Node6 -->
<g id="node6" class="node"><title>Node6</title>
<g id="a_node6"><a xlink:href="SumMinLogLH_8cpp.html" target="_top" xlink:title="Estimator/MinLogLH\l/SumMinLogLH.cpp">
<polygon fill="white" stroke="black" points="616,-246.5 616,-276.5 722,-276.5 722,-246.5 616,-246.5"/>
<text text-anchor="start" x="624" y="-264.5" font-family="Helvetica,sans-Serif" font-size="10.00">Estimator/MinLogLH</text>
<text text-anchor="middle" x="669" y="-253.5" font-family="Helvetica,sans-Serif" font-size="10.00">/SumMinLogLH.cpp</text>
</a>
</g>
</g>
<!-- Node1&#45;&gt;Node6 -->
<g id="edge5" class="edge"><title>Node1&#45;&gt;Node6</title>
<path fill="none" stroke="midnightblue" d="M623.288,-306.369C632.933,-297.113 645.052,-285.482 654.388,-276.523"/>
<polygon fill="midnightblue" stroke="midnightblue" points="620.675,-304.026 615.883,-313.475 625.522,-309.076 620.675,-304.026"/>
</g>
<!-- Node7 -->
<g id="node7" class="node"><title>Node7</title>
<g id="a_node7"><a xlink:href="FormFactor_8hpp.html" target="_top" xlink:title="Physics/Dynamics/FormFactor.hpp">
<polygon fill="white" stroke="black" points="778.5,-252 778.5,-271 949.5,-271 949.5,-252 778.5,-252"/>
<text text-anchor="middle" x="864" y="-259" font-family="Helvetica,sans-Serif" font-size="10.00">Physics/Dynamics/FormFactor.hpp</text>
</a>
</g>
</g>
<!-- Node1&#45;&gt;Node7 -->
<g id="edge6" class="edge"><title>Node1&#45;&gt;Node7</title>
<path fill="none" stroke="midnightblue" d="M653.709,-311.186C703.578,-299.641 781.572,-281.584 827.246,-271.009"/>
<polygon fill="midnightblue" stroke="midnightblue" points="652.775,-307.81 643.822,-313.475 654.354,-314.629 652.775,-307.81"/>
</g>
<!-- Node11 -->
<g id="node11" class="node"><title>Node11</title>
<g id="a_node11"><a xlink:href="RelativisticBreitWigner_8hpp.html" target="_top" xlink:title="Physics/Dynamics/Relativistic\lBreitWigner.hpp">
<polygon fill="white" stroke="red" points="832.5,-112.5 832.5,-142.5 983.5,-142.5 983.5,-112.5 832.5,-112.5"/>
<text text-anchor="start" x="840.5" y="-130.5" font-family="Helvetica,sans-Serif" font-size="10.00">Physics/Dynamics/Relativistic</text>
<text text-anchor="middle" x="908" y="-119.5" font-family="Helvetica,sans-Serif" font-size="10.00">BreitWigner.hpp</text>
</a>
</g>
</g>
<!-- Node1&#45;&gt;Node11 -->
<g id="edge20" class="edge"><title>Node1&#45;&gt;Node11</title>
<path fill="none" stroke="midnightblue" d="M651.317,-310.609C675.874,-303.17 706.333,-292.027 731,-277 758.397,-260.31 812.1,-199.227 837,-179 853.085,-165.934 872.288,-152.39 886.665,-142.621"/>
<polygon fill="midnightblue" stroke="midnightblue" points="650.147,-307.304 641.533,-313.473 652.114,-314.022 650.147,-307.304"/>
</g>
<!-- Node14 -->
<g id="node14" class="node"><title>Node14</title>
<g id="a_node14"><a xlink:href="WignerD_8hpp.html" target="_top" xlink:title="Physics/HelicityFormalism\l/WignerD.hpp">
<polygon fill="white" stroke="black" points="1258,-246.5 1258,-276.5 1392,-276.5 1392,-246.5 1258,-246.5"/>
<text text-anchor="start" x="1266" y="-264.5" font-family="Helvetica,sans-Serif" font-size="10.00">Physics/HelicityFormalism</text>
<text text-anchor="middle" x="1325" y="-253.5" font-family="Helvetica,sans-Serif" font-size="10.00">/WignerD.hpp</text>
</a>
</g>
</g>
<!-- Node1&#45;&gt;Node14 -->
<g id="edge21" class="edge"><title>Node1&#45;&gt;Node14</title>
<path fill="none" stroke="midnightblue" d="M698.623,-314.407C845.114,-302.268 1128.69,-278.768 1257.91,-268.059"/>
<polygon fill="midnightblue" stroke="midnightblue" points="697.993,-310.947 688.316,-315.261 698.571,-317.924 697.993,-310.947"/>
</g>
<!-- Node8 -->
<g id="node8" class="node"><title>Node8</title>
<g id="a_node8"><a xlink:href="Coupling_8hpp.html" target="_top" xlink:title="Physics/Dynamics/Coupling.hpp">
<polygon fill="white" stroke="black" points="1043.5,-185 1043.5,-204 1202.5,-204 1202.5,-185 1043.5,-185"/>
<text text-anchor="middle" x="1123" y="-192" font-family="Helvetica,sans-Serif" font-size="10.00">Physics/Dynamics/Coupling.hpp</text>
</a>
</g>
</g>
<!-- Node7&#45;&gt;Node8 -->
<g id="edge7" class="edge"><title>Node7&#45;&gt;Node8</title>
<path fill="none" stroke="midnightblue" d="M907.894,-249.484C958.982,-236.663 1042.27,-215.76 1088.8,-204.083"/>
<polygon fill="midnightblue" stroke="midnightblue" points="906.973,-246.107 898.126,-251.936 908.677,-252.896 906.973,-246.107"/>
</g>
<!-- Node9 -->
<g id="node9" class="node"><title>Node9</title>
<g id="a_node9"><a xlink:href="Flatte_8hpp.html" target="_top" xlink:title="Physics/Dynamics/Flatte.hpp">
<polygon fill="white" stroke="red" points="1011,-56.5 1011,-75.5 1157,-75.5 1157,-56.5 1011,-56.5"/>
<text text-anchor="middle" x="1084" y="-63.5" font-family="Helvetica,sans-Serif" font-size="10.00">Physics/Dynamics/Flatte.hpp</text>
</a>
</g>
</g>
<!-- Node7&#45;&gt;Node9 -->
<g id="edge15" class="edge"><title>Node7&#45;&gt;Node9</title>
<path fill="none" stroke="midnightblue" d="M959.798,-260.126C1051.32,-257.488 1179.94,-247.043 1212,-210 1256.7,-158.35 1147.73,-97.7217 1102.54,-75.6152"/>
<polygon fill="midnightblue" stroke="midnightblue" points="959.574,-256.631 949.669,-260.391 959.757,-263.628 959.574,-256.631"/>
</g>
<!-- Node10 -->
<g id="node10" class="node"><title>Node10</title>
<g id="a_node10"><a xlink:href="BuilderXML_8cpp.html" target="_top" xlink:title="Physics/BuilderXML.cpp">
<polygon fill="white" stroke="black" points="907,-0.5 907,-19.5 1031,-19.5 1031,-0.5 907,-0.5"/>
<text text-anchor="middle" x="969" y="-7.5" font-family="Helvetica,sans-Serif" font-size="10.00">Physics/BuilderXML.cpp</text>
</a>
</g>
</g>
<!-- Node7&#45;&gt;Node10 -->
<g id="edge17" class="edge"><title>Node7&#45;&gt;Node10</title>
<path fill="none" stroke="midnightblue" d="M846.767,-244.562C809.345,-208.045 727.749,-116.796 776,-56 792.202,-35.5858 856.821,-23.5737 906.876,-17.1685"/>
<polygon fill="midnightblue" stroke="midnightblue" points="844.774,-247.499 854.425,-251.872 849.608,-242.435 844.774,-247.499"/>
</g>
<!-- Node7&#45;&gt;Node11 -->
<g id="edge16" class="edge"><title>Node7&#45;&gt;Node11</title>
<path fill="none" stroke="midnightblue" d="M853.65,-242.631C845.236,-225.597 836.226,-199.568 846,-179 853.389,-163.452 868.166,-151.118 881.441,-142.532"/>
<polygon fill="midnightblue" stroke="midnightblue" points="850.594,-244.337 858.39,-251.512 856.769,-241.042 850.594,-244.337"/>
</g>
<!-- Node12 -->
<g id="node12" class="node"><title>Node12</title>
<g id="a_node12"><a xlink:href="Voigtian_8hpp.html" target="_top" xlink:title="This file contains the declaration of the Voigtian class, which is used the implementation of voigt f...">
<polygon fill="white" stroke="red" points="785,-56.5 785,-75.5 941,-75.5 941,-56.5 785,-56.5"/>
<text text-anchor="middle" x="863" y="-63.5" font-family="Helvetica,sans-Serif" font-size="10.00">Physics/Dynamics/Voigtian.hpp</text>
</a>
</g>
</g>
<!-- Node7&#45;&gt;Node12 -->
<g id="edge18" class="edge"><title>Node7&#45;&gt;Node12</title>
<path fill="none" stroke="midnightblue" d="M852.539,-243.324C835.365,-215.326 806.72,-158.322 824,-112 829.564,-97.0832 842.547,-83.8287 852.01,-75.6346"/>
<polygon fill="midnightblue" stroke="midnightblue" points="849.714,-245.403 858.042,-251.953 855.616,-241.639 849.714,-245.403"/>
</g>
<!-- Node13 -->
<g id="node13" class="node"><title>Node13</title>
<g id="a_node13"><a xlink:href="FormFactor_8cpp.html" target="_top" xlink:title="Physics/Dynamics/FormFactor.cpp">
<polygon fill="white" stroke="black" points="854.5,-185 854.5,-204 1025.5,-204 1025.5,-185 854.5,-185"/>
<text text-anchor="middle" x="940" y="-192" font-family="Helvetica,sans-Serif" font-size="10.00">Physics/Dynamics/FormFactor.cpp</text>
</a>
</g>
</g>
<!-- Node7&#45;&gt;Node13 -->
<g id="edge19" class="edge"><title>Node7&#45;&gt;Node13</title>
<path fill="none" stroke="midnightblue" d="M881.874,-245.213C896.847,-232.407 917.681,-214.588 929.913,-204.127"/>
<polygon fill="midnightblue" stroke="midnightblue" points="879.574,-242.574 874.25,-251.734 884.124,-247.894 879.574,-242.574"/>
</g>
<!-- Node8&#45;&gt;Node9 -->
<g id="edge8" class="edge"><title>Node8&#45;&gt;Node9</title>
<path fill="none" stroke="midnightblue" d="M1117.35,-175.175C1108.83,-147.53 1093.01,-96.2184 1086.7,-75.7557"/>
<polygon fill="midnightblue" stroke="midnightblue" points="1114.03,-176.28 1120.32,-184.805 1120.72,-174.218 1114.03,-176.28"/>
</g>
<!-- Node8&#45;&gt;Node11 -->
<g id="edge10" class="edge"><title>Node8&#45;&gt;Node11</title>
<path fill="none" stroke="midnightblue" d="M1084.69,-181.917C1048.23,-170.895 993.318,-154.294 954.401,-142.528"/>
<polygon fill="midnightblue" stroke="midnightblue" points="1083.86,-185.325 1094.45,-184.869 1085.89,-178.624 1083.86,-185.325"/>
</g>
<!-- Node9&#45;&gt;Node10 -->
<g id="edge9" class="edge"><title>Node9&#45;&gt;Node10</title>
<path fill="none" stroke="midnightblue" d="M1056.52,-52.096C1035.03,-42.0073 1005.78,-28.2697 987.137,-19.5164"/>
<polygon fill="midnightblue" stroke="midnightblue" points="1055.24,-55.3612 1065.78,-56.4435 1058.21,-49.025 1055.24,-55.3612"/>
</g>
<!-- Node11&#45;&gt;Node9 -->
<g id="edge11" class="edge"><title>Node11&#45;&gt;Node9</title>
<path fill="none" stroke="midnightblue" d="M959.541,-109.076C992.142,-98.0543 1032.85,-84.2914 1058.65,-75.5709"/>
<polygon fill="midnightblue" stroke="midnightblue" points="958.062,-105.881 949.71,-112.399 960.304,-112.512 958.062,-105.881"/>
</g>
<!-- Node11&#45;&gt;Node10 -->
<g id="edge12" class="edge"><title>Node11&#45;&gt;Node10</title>
<path fill="none" stroke="midnightblue" d="M929.476,-104.697C936.827,-96.2807 944.56,-86.2222 950,-76 959.942,-57.3184 965.297,-32.7728 967.599,-19.8453"/>
<polygon fill="midnightblue" stroke="midnightblue" points="926.776,-102.464 922.633,-112.215 931.953,-107.176 926.776,-102.464"/>
</g>
<!-- Node11&#45;&gt;Node12 -->
<g id="edge13" class="edge"><title>Node11&#45;&gt;Node12</title>
<path fill="none" stroke="midnightblue" d="M891.289,-104.404C883.731,-94.411 875.238,-83.1815 869.548,-75.6578"/>
<polygon fill="midnightblue" stroke="midnightblue" points="888.512,-106.535 897.336,-112.399 894.095,-102.312 888.512,-106.535"/>
</g>
<!-- Node12&#45;&gt;Node10 -->
<g id="edge14" class="edge"><title>Node12&#45;&gt;Node10</title>
<path fill="none" stroke="midnightblue" d="M889.056,-51.7261C908.684,-41.7271 935.028,-28.3065 952.012,-19.6545"/>
<polygon fill="midnightblue" stroke="midnightblue" points="887.352,-48.666 880.031,-56.324 890.53,-54.9033 887.352,-48.666"/>
</g>
<!-- Node14&#45;&gt;Node10 -->
<g id="edge22" class="edge"><title>Node14&#45;&gt;Node10</title>
<path fill="none" stroke="midnightblue" d="M1368.91,-241.455C1381.57,-233.651 1393.88,-223.272 1401,-210 1407.51,-197.857 1408.13,-190.787 1401,-179 1323.6,-51.1247 1131.08,-20.3706 1031.25,-13.1214"/>
<polygon fill="midnightblue" stroke="midnightblue" points="1367.1,-238.459 1360.14,-246.451 1370.56,-244.54 1367.1,-238.459"/>
</g>
<!-- Node15 -->
<g id="node15" class="node"><title>Node15</title>
<g id="a_node15"><a xlink:href="WignerD_8cpp.html" target="_top" xlink:title="Physics/HelicityFormalism\l/WignerD.cpp">
<polygon fill="white" stroke="black" points="1258,-179.5 1258,-209.5 1392,-209.5 1392,-179.5 1258,-179.5"/>
<text text-anchor="start" x="1266" y="-197.5" font-family="Helvetica,sans-Serif" font-size="10.00">Physics/HelicityFormalism</text>
<text text-anchor="middle" x="1325" y="-186.5" font-family="Helvetica,sans-Serif" font-size="10.00">/WignerD.cpp</text>
</a>
</g>
</g>
<!-- Node14&#45;&gt;Node15 -->
<g id="edge23" class="edge"><title>Node14&#45;&gt;Node15</title>
<path fill="none" stroke="midnightblue" d="M1325,-236.108C1325,-227.154 1325,-217.323 1325,-209.577"/>
<polygon fill="midnightblue" stroke="midnightblue" points="1321.5,-236.396 1325,-246.396 1328.5,-236.396 1321.5,-236.396"/>
</g>
</g>
</svg>
        <g id="navigator" transform="translate(0 0)" fill="#404254">
                <rect fill="#f2f5e9" fill-opacity="0.5" stroke="#606060" stroke-width=".5" x="0" y="0" width="60" height="60"/>
                <use id="zoomplus" xlink:href="#zoomPlus" x="17" y="9" onmousedown="handleZoom(evt,'in')"/>
                <use id="zoomminus" xlink:href="#zoomMin" x="42" y="9" onmousedown="handleZoom(evt,'out')"/>
                <use id="reset" xlink:href="#resetDef" x="30" y="36" onmousedown="handleReset()"/>
                <g id="arrowUp" xlink:href="#dirArrow" transform="translate(30 24)" onmousedown="handlePan(0,-1)">
                  <use xlink:href="#rim" fill="#404040">
                        <set attributeName="fill" to="#808080" begin="arrowUp.mouseover" end="arrowUp.mouseout"/>
                  </use>
                  <path fill="none" stroke="white" stroke-width="1.5" d="M0,-3.0v7 M-2.5,-0.5L0,-3.0L2.5,-0.5"/>
                </g>
                <g id="arrowRight" xlink:href="#dirArrow" transform="rotate(90) translate(36 -43)" onmousedown="handlePan(1,0)">
                  <use xlink:href="#rim" fill="#404040">
                        <set attributeName="fill" to="#808080" begin="arrowRight.mouseover" end="arrowRight.mouseout"/>
                  </use>
                  <path fill="none" stroke="white" stroke-width="1.5" d="M0,-3.0v7 M-2.5,-0.5L0,-3.0L2.5,-0.5"/>
                </g>
                <g id="arrowDown" xlink:href="#dirArrow" transform="rotate(180) translate(-30 -48)" onmousedown="handlePan(0,1)">
                  <use xlink:href="#rim" fill="#404040">
                        <set attributeName="fill" to="#808080" begin="arrowDown.mouseover" end="arrowDown.mouseout"/>
                  </use>
                  <path fill="none" stroke="white" stroke-width="1.5" d="M0,-3.0v7 M-2.5,-0.5L0,-3.0L2.5,-0.5"/>
                </g>
                <g id="arrowLeft" xlink:href="#dirArrow" transform="rotate(270) translate(-36 17)" onmousedown="handlePan(-1,0)">
                  <use xlink:href="#rim" fill="#404040">
                        <set attributeName="fill" to="#808080" begin="arrowLeft.mouseover" end="arrowLeft.mouseout"/>
                  </use>
                  <path fill="none" stroke="white" stroke-width="1.5" d="M0,-3.0v7 M-2.5,-0.5L0,-3.0L2.5,-0.5"/>
                </g>
        </g>
        <svg viewBox="0 0 15 15" width="100%" height="30px" preserveAspectRatio="xMaxYMin meet">
         <g id="arrow_out" transform="scale(0.3 0.3)">
          <a xlink:href="TreeNode_8hpp__dep__incl_org.svg" target="_base">
           <rect id="button" ry="5" rx="5" y="6" x="6" height="38" width="38"
                fill="#f2f5e9" fill-opacity="0.5" stroke="#606060" stroke-width="1.0"/>
           <path id="arrow"
             d="M 11.500037,31.436501 C 11.940474,20.09759 22.043105,11.32322 32.158766,21.979434 L 37.068811,17.246167 C 37.068811,17.246167 37.088388,32 37.088388,32 L 22.160133,31.978069 C 22.160133,31.978069 26.997745,27.140456 26.997745,27.140456 C 18.528582,18.264221 13.291696,25.230495 11.500037,31.436501 z"
             style="fill:#404040;"/>
          </a>
         </g>
        </svg>
</svg>
