<?xml version="1.0" encoding="UTF-8" standalone="no"?>
<!DOCTYPE svg PUBLIC "-//W3C//DTD SVG 1.1//EN"
 "http://www.w3.org/Graphics/SVG/1.1/DTD/svg11.dtd">
<!-- Generated by graphviz version 2.38.0 (20140413.2041)
 -->
<!-- Title: Tools/UpdatePTreeParameter.hpp Pages: 1 -->
<svg width="647pt" height="218pt"
 viewBox="0.00 0.00 646.50 218.00" xmlns="http://www.w3.org/2000/svg" xmlns:xlink="http://www.w3.org/1999/xlink">
<g id="graph0" class="graph" transform="scale(1 1) rotate(0) translate(4 214)">
<title>Tools/UpdatePTreeParameter.hpp</title>
<polygon fill="white" stroke="none" points="-4,4 -4,-214 642.5,-214 642.5,4 -4,4"/>
<!-- Node1 -->
<g id="node1" class="node"><title>Node1</title>
<polygon fill="#bfbfbf" stroke="black" points="323.5,-190.5 323.5,-209.5 488.5,-209.5 488.5,-190.5 323.5,-190.5"/>
<text text-anchor="middle" x="406" y="-197.5" font-family="Helvetica,sans-Serif" font-size="10.00">Tools/UpdatePTreeParameter.hpp</text>
</g>
<!-- Node2 -->
<g id="node2" class="node"><title>Node2</title>
<g id="a_node2"><a xlink:href="FitParameter_8hpp.html" target="_top" xlink:title="Core/FitParameter.hpp">
<polygon fill="white" stroke="black" points="245,-129 245,-148 361,-148 361,-129 245,-129"/>
<text text-anchor="middle" x="303" y="-136" font-family="Helvetica,sans-Serif" font-size="10.00">Core/FitParameter.hpp</text>
</a>
</g>
</g>
<!-- Node1&#45;&gt;Node2 -->
<g id="edge1" class="edge"><title>Node1&#45;&gt;Node2</title>
<path fill="none" stroke="midnightblue" d="M391.243,-190.475C374.339,-180.711 346.417,-164.581 326.51,-153.081"/>
<polygon fill="midnightblue" stroke="midnightblue" points="328.14,-149.981 317.73,-148.009 324.638,-156.042 328.14,-149.981"/>
</g>
<!-- Node4 -->
<g id="node4" class="node"><title>Node4</title>
<polygon fill="white" stroke="#bfbfbf" points="450.5,-0.5 450.5,-19.5 491.5,-19.5 491.5,-0.5 450.5,-0.5"/>
<text text-anchor="middle" x="471" y="-7.5" font-family="Helvetica,sans-Serif" font-size="10.00">string</text>
</g>
<!-- Node1&#45;&gt;Node4 -->
<g id="edge11" class="edge"><title>Node1&#45;&gt;Node4</title>
<path fill="none" stroke="midnightblue" d="M413.367,-190.481C428.182,-172.718 461.174,-129.806 473,-87 478.261,-67.9581 476.686,-45.2037 474.471,-29.5867"/>
<polygon fill="midnightblue" stroke="midnightblue" points="477.91,-28.9308 472.833,-19.6317 471.003,-30.0673 477.91,-28.9308"/>
</g>
<!-- Node5 -->
<g id="node5" class="node"><title>Node5</title>
<polygon fill="white" stroke="#bfbfbf" points="0,-0.5 0,-19.5 44,-19.5 44,-0.5 0,-0.5"/>
<text text-anchor="middle" x="22" y="-7.5" font-family="Helvetica,sans-Serif" font-size="10.00">vector</text>
</g>
<!-- Node1&#45;&gt;Node5 -->
<g id="edge12" class="edge"><title>Node1&#45;&gt;Node5</title>
<path fill="none" stroke="midnightblue" d="M346.121,-190.442C248.122,-175.063 60.4982,-139.394 22,-87 9.82314,-70.4279 12.4734,-45.864 16.4102,-29.1823"/>
<polygon fill="midnightblue" stroke="midnightblue" points="19.7905,-30.0897 19.04,-19.5215 13.0363,-28.2511 19.7905,-30.0897"/>
</g>
<!-- Node9 -->
<g id="node9" class="node"><title>Node9</title>
<polygon fill="white" stroke="#bfbfbf" points="537.5,-123.5 537.5,-153.5 638.5,-153.5 638.5,-123.5 537.5,-123.5"/>
<text text-anchor="start" x="545.5" y="-141.5" font-family="Helvetica,sans-Serif" font-size="10.00">boost/property_tree</text>
<text text-anchor="middle" x="588" y="-130.5" font-family="Helvetica,sans-Serif" font-size="10.00">/ptree.hpp</text>
</g>
<!-- Node1&#45;&gt;Node9 -->
<g id="edge10" class="edge"><title>Node1&#45;&gt;Node9</title>
<path fill="none" stroke="midnightblue" d="M432.076,-190.475C458.914,-181.701 501.472,-167.788 535.351,-156.712"/>
<polygon fill="midnightblue" stroke="midnightblue" points="536.689,-159.957 545.106,-153.523 534.514,-153.304 536.689,-159.957"/>
</g>
<!-- Node3 -->
<g id="node3" class="node"><title>Node3</title>
<g id="a_node3"><a xlink:href="Function_8hpp.html" target="_top" xlink:title="Core/Function.hpp">
<polygon fill="white" stroke="red" points="50.5,-62 50.5,-81 147.5,-81 147.5,-62 50.5,-62"/>
<text text-anchor="middle" x="99" y="-69" font-family="Helvetica,sans-Serif" font-size="10.00">Core/Function.hpp</text>
</a>
</g>
</g>
<!-- Node2&#45;&gt;Node3 -->
<g id="edge2" class="edge"><title>Node2&#45;&gt;Node3</title>
<path fill="none" stroke="midnightblue" d="M275.91,-128.869C239.841,-117.376 175.918,-97.0082 135.59,-84.1586"/>
<polygon fill="midnightblue" stroke="midnightblue" points="136.467,-80.7648 125.877,-81.0637 134.342,-87.4344 136.467,-80.7648"/>
</g>
<!-- Node2&#45;&gt;Node4 -->
<g id="edge7" class="edge"><title>Node2&#45;&gt;Node4</title>
<path fill="none" stroke="midnightblue" d="M361.205,-131.238C392.221,-124.939 428.68,-112.31 452,-87 466.227,-71.5591 470.205,-47.104 471.121,-30.1212"/>
<polygon fill="midnightblue" stroke="midnightblue" points="474.628,-29.8367 471.354,-19.7604 467.63,-29.679 474.628,-29.8367"/>
</g>
<!-- Node2&#45;&gt;Node5 -->
<g id="edge8" class="edge"><title>Node2&#45;&gt;Node5</title>
<path fill="none" stroke="midnightblue" d="M244.742,-133.476C176.685,-127.577 69.7175,-114.192 41,-87 25.4456,-72.272 21.8387,-46.8993 21.3657,-29.5547"/>
<polygon fill="midnightblue" stroke="midnightblue" points="24.8658,-29.5252 21.4135,-19.5086 17.8659,-29.4918 24.8658,-29.5252"/>
</g>
<!-- Node6 -->
<g id="node6" class="node"><title>Node6</title>
<g id="a_node6"><a xlink:href="Logging_8hpp.html" target="_top" xlink:title="Core/Logging.hpp">
<polygon fill="white" stroke="red" points="165.5,-62 165.5,-81 258.5,-81 258.5,-62 165.5,-62"/>
<text text-anchor="middle" x="212" y="-69" font-family="Helvetica,sans-Serif" font-size="10.00">Core/Logging.hpp</text>
</a>
</g>
</g>
<!-- Node2&#45;&gt;Node6 -->
<g id="edge5" class="edge"><title>Node2&#45;&gt;Node6</title>
<path fill="none" stroke="midnightblue" d="M290.727,-128.734C275.855,-118.111 250.568,-100.049 232.67,-87.2642"/>
<polygon fill="midnightblue" stroke="midnightblue" points="234.25,-84.0917 224.078,-81.1273 230.181,-89.7878 234.25,-84.0917"/>
</g>
<!-- Node7 -->
<g id="node7" class="node"><title>Node7</title>
<polygon fill="white" stroke="#bfbfbf" points="277,-62 277,-81 329,-81 329,-62 277,-62"/>
<text text-anchor="middle" x="303" y="-69" font-family="Helvetica,sans-Serif" font-size="10.00">ostream</text>
</g>
<!-- Node2&#45;&gt;Node7 -->
<g id="edge6" class="edge"><title>Node2&#45;&gt;Node7</title>
<path fill="none" stroke="midnightblue" d="M303,-128.734C303,-119.183 303,-103.618 303,-91.2829"/>
<polygon fill="midnightblue" stroke="midnightblue" points="306.5,-91.1273 303,-81.1273 299.5,-91.1273 306.5,-91.1273"/>
</g>
<!-- Node8 -->
<g id="node8" class="node"><title>Node8</title>
<polygon fill="white" stroke="#bfbfbf" points="347.5,-56.5 347.5,-86.5 442.5,-86.5 442.5,-56.5 347.5,-56.5"/>
<text text-anchor="start" x="355.5" y="-74.5" font-family="Helvetica,sans-Serif" font-size="10.00">boost/serialization</text>
<text text-anchor="middle" x="395" y="-63.5" font-family="Helvetica,sans-Serif" font-size="10.00">/nvp.hpp</text>
</g>
<!-- Node2&#45;&gt;Node8 -->
<g id="edge9" class="edge"><title>Node2&#45;&gt;Node8</title>
<path fill="none" stroke="midnightblue" d="M315.408,-128.734C328.439,-119.527 349.378,-104.733 366.509,-92.6293"/>
<polygon fill="midnightblue" stroke="midnightblue" points="368.911,-95.2179 375.059,-86.589 364.872,-89.5008 368.911,-95.2179"/>
</g>
<!-- Node3&#45;&gt;Node4 -->
<g id="edge3" class="edge"><title>Node3&#45;&gt;Node4</title>
<path fill="none" stroke="midnightblue" d="M130.778,-61.9313C139.259,-59.8159 148.444,-57.6779 157,-56 260.062,-35.7877 383.828,-20.7167 440.256,-14.344"/>
<polygon fill="midnightblue" stroke="midnightblue" points="440.754,-17.8102 450.303,-13.2212 439.976,-10.8535 440.754,-17.8102"/>
</g>
<!-- Node3&#45;&gt;Node5 -->
<g id="edge4" class="edge"><title>Node3&#45;&gt;Node5</title>
<path fill="none" stroke="midnightblue" d="M87.9678,-61.9751C75.7316,-52.5199 55.7715,-37.0961 41.0069,-25.6871"/>
<polygon fill="midnightblue" stroke="midnightblue" points="43.0647,-22.8541 33.0118,-19.5091 38.7845,-28.3931 43.0647,-22.8541"/>
</g>
</g>
</svg>
