<?xml version="1.0" encoding="UTF-8" standalone="no"?>
<!DOCTYPE svg PUBLIC "-//W3C//DTD SVG 1.1//EN"
 "http://www.w3.org/Graphics/SVG/1.1/DTD/svg11.dtd">
<!-- Generated by graphviz version 2.38.0 (20140413.2041)
 -->
<!-- Title: Tools/UpdatePTreeParameter.cpp Pages: 1 -->
<svg width="318pt" height="207pt"
 viewBox="0.00 0.00 318.00 207.00" xmlns="http://www.w3.org/2000/svg" xmlns:xlink="http://www.w3.org/1999/xlink">
<g id="graph0" class="graph" transform="scale(1 1) rotate(0) translate(4 203)">
<title>Tools/UpdatePTreeParameter.cpp</title>
<polygon fill="white" stroke="none" points="-4,4 -4,-203 314,-203 314,4 -4,4"/>
<!-- Node1 -->
<g id="node1" class="node"><title>Node1</title>
<polygon fill="#bfbfbf" stroke="black" points="55,-179.5 55,-198.5 220,-198.5 220,-179.5 55,-179.5"/>
<text text-anchor="middle" x="137.5" y="-186.5" font-family="Helvetica,sans-Serif" font-size="10.00">Tools/UpdatePTreeParameter.cpp</text>
</g>
<!-- Node2 -->
<g id="node2" class="node"><title>Node2</title>
<g id="a_node2"><a xlink:href="UpdatePTreeParameter_8hpp.html" target="_top" xlink:title="This file contains functions which will update parameters&#39; value, range etc. ">
<polygon fill="white" stroke="black" points="68.5,-123.5 68.5,-142.5 206.5,-142.5 206.5,-123.5 68.5,-123.5"/>
<text text-anchor="middle" x="137.5" y="-130.5" font-family="Helvetica,sans-Serif" font-size="10.00">UpdatePTreeParameter.hpp</text>
</a>
</g>
</g>
<!-- Node1&#45;&gt;Node2 -->
<g id="edge1" class="edge"><title>Node1&#45;&gt;Node2</title>
<path fill="none" stroke="midnightblue" d="M137.5,-179.083C137.5,-172.006 137.5,-161.861 137.5,-152.986"/>
<polygon fill="midnightblue" stroke="midnightblue" points="141,-152.751 137.5,-142.751 134,-152.751 141,-152.751"/>
</g>
<!-- Node3 -->
<g id="node3" class="node"><title>Node3</title>
<g id="a_node3"><a xlink:href="FitParameter_8hpp.html" target="_top" xlink:title="Core/FitParameter.hpp">
<polygon fill="white" stroke="red" points="36.5,-62 36.5,-81 152.5,-81 152.5,-62 36.5,-62"/>
<text text-anchor="middle" x="94.5" y="-69" font-family="Helvetica,sans-Serif" font-size="10.00">Core/FitParameter.hpp</text>
</a>
</g>
</g>
<!-- Node2&#45;&gt;Node3 -->
<g id="edge2" class="edge"><title>Node2&#45;&gt;Node3</title>
<path fill="none" stroke="midnightblue" d="M131.339,-123.475C124.889,-114.55 114.596,-100.307 106.527,-89.1425"/>
<polygon fill="midnightblue" stroke="midnightblue" points="109.344,-87.064 100.649,-81.0091 103.67,-91.1642 109.344,-87.064"/>
</g>
<!-- Node4 -->
<g id="node4" class="node"><title>Node4</title>
<polygon fill="white" stroke="#bfbfbf" points="0,-0.5 0,-19.5 41,-19.5 41,-0.5 0,-0.5"/>
<text text-anchor="middle" x="20.5" y="-7.5" font-family="Helvetica,sans-Serif" font-size="10.00">string</text>
</g>
<!-- Node2&#45;&gt;Node4 -->
<g id="edge6" class="edge"><title>Node2&#45;&gt;Node4</title>
<path fill="none" stroke="midnightblue" d="M86.997,-123.442C65.2479,-117.091 41.6165,-106.073 27.5,-87 15.3309,-70.5584 15.2929,-46.3095 17.1804,-29.6482"/>
<polygon fill="midnightblue" stroke="midnightblue" points="20.6784,-29.9174 18.6694,-19.5148 13.7527,-28.8997 20.6784,-29.9174"/>
</g>
<!-- Node5 -->
<g id="node5" class="node"><title>Node5</title>
<polygon fill="white" stroke="#bfbfbf" points="115.5,-0.5 115.5,-19.5 159.5,-19.5 159.5,-0.5 115.5,-0.5"/>
<text text-anchor="middle" x="137.5" y="-7.5" font-family="Helvetica,sans-Serif" font-size="10.00">vector</text>
</g>
<!-- Node2&#45;&gt;Node5 -->
<g id="edge7" class="edge"><title>Node2&#45;&gt;Node5</title>
<path fill="none" stroke="midnightblue" d="M143.867,-123.232C149.76,-114.532 158.107,-100.572 161.5,-87 164.842,-73.6336 164.842,-69.3664 161.5,-56 159.061,-46.2452 154.063,-36.2896 149.257,-28.231"/>
<polygon fill="midnightblue" stroke="midnightblue" points="152.191,-26.3225 143.867,-19.768 146.287,-30.0828 152.191,-26.3225"/>
</g>
<!-- Node6 -->
<g id="node6" class="node"><title>Node6</title>
<polygon fill="white" stroke="#bfbfbf" points="209,-56.5 209,-86.5 310,-86.5 310,-56.5 209,-56.5"/>
<text text-anchor="start" x="217" y="-74.5" font-family="Helvetica,sans-Serif" font-size="10.00">boost/property_tree</text>
<text text-anchor="middle" x="259.5" y="-63.5" font-family="Helvetica,sans-Serif" font-size="10.00">/ptree.hpp</text>
</g>
<!-- Node2&#45;&gt;Node6 -->
<g id="edge5" class="edge"><title>Node2&#45;&gt;Node6</title>
<path fill="none" stroke="midnightblue" d="M154.98,-123.475C172.275,-115.04 199.31,-101.855 221.551,-91.008"/>
<polygon fill="midnightblue" stroke="midnightblue" points="223.293,-94.0524 230.747,-86.523 220.225,-87.7607 223.293,-94.0524"/>
</g>
<!-- Node3&#45;&gt;Node4 -->
<g id="edge3" class="edge"><title>Node3&#45;&gt;Node4</title>
<path fill="none" stroke="midnightblue" d="M83.8976,-61.9751C72.248,-52.6082 53.3136,-37.3839 39.1655,-26.0081"/>
<polygon fill="midnightblue" stroke="midnightblue" points="41.0692,-23.0477 31.0827,-19.5091 36.6828,-28.503 41.0692,-23.0477"/>
</g>
<!-- Node3&#45;&gt;Node5 -->
<g id="edge4" class="edge"><title>Node3&#45;&gt;Node5</title>
<path fill="none" stroke="midnightblue" d="M100.661,-61.9751C107.111,-53.0501 117.404,-38.8071 125.473,-27.6425"/>
<polygon fill="midnightblue" stroke="midnightblue" points="128.33,-29.6642 131.351,-19.5091 122.656,-25.564 128.33,-29.6642"/>
</g>
</g>
</svg>
