<?xml version="1.0" encoding="UTF-8" standalone="no"?>
<!DOCTYPE svg PUBLIC "-//W3C//DTD SVG 1.1//EN"
 "http://www.w3.org/Graphics/SVG/1.1/DTD/svg11.dtd">
<!-- Generated by graphviz version 2.38.0 (20140413.2041)
 -->
<!-- Title: Core/Utils.hpp Pages: 1 -->
<svg width="861pt" height="162pt"
 viewBox="0.00 0.00 860.50 162.00" xmlns="http://www.w3.org/2000/svg" xmlns:xlink="http://www.w3.org/1999/xlink">
<g id="graph0" class="graph" transform="scale(1 1) rotate(0) translate(4 158)">
<title>Core/Utils.hpp</title>
<polygon fill="white" stroke="none" points="-4,4 -4,-158 856.5,-158 856.5,4 -4,4"/>
<!-- Node1 -->
<g id="node1" class="node"><title>Node1</title>
<polygon fill="#bfbfbf" stroke="black" points="509.5,-134.5 509.5,-153.5 589.5,-153.5 589.5,-134.5 509.5,-134.5"/>
<text text-anchor="middle" x="549.5" y="-141.5" font-family="Helvetica,sans-Serif" font-size="10.00">Core/Utils.hpp</text>
</g>
<!-- Node2 -->
<g id="node2" class="node"><title>Node2</title>
<g id="a_node2"><a xlink:href="Logging_8hpp.html" target="_top" xlink:title="Core/Logging.hpp">
<polygon fill="white" stroke="black" points="17,-73 17,-92 110,-92 110,-73 17,-73"/>
<text text-anchor="middle" x="63.5" y="-80" font-family="Helvetica,sans-Serif" font-size="10.00">Core/Logging.hpp</text>
</a>
</g>
</g>
<!-- Node1&#45;&gt;Node2 -->
<g id="edge1" class="edge"><title>Node1&#45;&gt;Node2</title>
<path fill="none" stroke="midnightblue" d="M509.202,-140.793C432.729,-136.162 261.503,-123.667 119.5,-98 114.065,-97.0175 108.38,-95.7879 102.804,-94.4628"/>
<polygon fill="midnightblue" stroke="midnightblue" points="103.511,-91.0321 92.9616,-92.0069 101.817,-97.8239 103.511,-91.0321"/>
</g>
<!-- Node4 -->
<g id="node4" class="node"><title>Node4</title>
<polygon fill="white" stroke="#bfbfbf" points="128.5,-67.5 128.5,-97.5 238.5,-97.5 238.5,-67.5 128.5,-67.5"/>
<text text-anchor="start" x="136.5" y="-85.5" font-family="Helvetica,sans-Serif" font-size="10.00">boost/algorithm/string</text>
<text text-anchor="middle" x="183.5" y="-74.5" font-family="Helvetica,sans-Serif" font-size="10.00">/predicate.hpp</text>
</g>
<!-- Node1&#45;&gt;Node4 -->
<g id="edge3" class="edge"><title>Node1&#45;&gt;Node4</title>
<path fill="none" stroke="midnightblue" d="M509.282,-137.982C453.123,-130.761 347.828,-116.449 248.504,-98.1055"/>
<polygon fill="midnightblue" stroke="midnightblue" points="249.076,-94.6518 238.604,-96.2597 247.793,-101.533 249.076,-94.6518"/>
</g>
<!-- Node5 -->
<g id="node5" class="node"><title>Node5</title>
<polygon fill="white" stroke="#bfbfbf" points="256.5,-67.5 256.5,-97.5 366.5,-97.5 366.5,-67.5 256.5,-67.5"/>
<text text-anchor="start" x="264.5" y="-85.5" font-family="Helvetica,sans-Serif" font-size="10.00">boost/algorithm/string</text>
<text text-anchor="middle" x="311.5" y="-74.5" font-family="Helvetica,sans-Serif" font-size="10.00">/trim.hpp</text>
</g>
<!-- Node1&#45;&gt;Node5 -->
<g id="edge4" class="edge"><title>Node1&#45;&gt;Node5</title>
<path fill="none" stroke="midnightblue" d="M515.4,-134.475C479.313,-125.453 421.489,-110.997 376.62,-99.78"/>
<polygon fill="midnightblue" stroke="midnightblue" points="377.227,-96.3241 366.677,-97.2942 375.529,-103.115 377.227,-96.3241"/>
</g>
<!-- Node6 -->
<g id="node6" class="node"><title>Node6</title>
<polygon fill="white" stroke="#bfbfbf" points="384.5,-73 384.5,-92 480.5,-92 480.5,-73 384.5,-73"/>
<text text-anchor="middle" x="432.5" y="-80" font-family="Helvetica,sans-Serif" font-size="10.00">boost/optional.hpp</text>
</g>
<!-- Node1&#45;&gt;Node6 -->
<g id="edge5" class="edge"><title>Node1&#45;&gt;Node6</title>
<path fill="none" stroke="midnightblue" d="M532.737,-134.475C513.275,-124.578 480.955,-108.142 458.289,-96.6151"/>
<polygon fill="midnightblue" stroke="midnightblue" points="459.732,-93.4224 449.232,-92.0091 456.559,-99.6619 459.732,-93.4224"/>
</g>
<!-- Node7 -->
<g id="node7" class="node"><title>Node7</title>
<polygon fill="white" stroke="#bfbfbf" points="499,-67.5 499,-97.5 600,-97.5 600,-67.5 499,-67.5"/>
<text text-anchor="start" x="507" y="-85.5" font-family="Helvetica,sans-Serif" font-size="10.00">boost/property_tree</text>
<text text-anchor="middle" x="549.5" y="-74.5" font-family="Helvetica,sans-Serif" font-size="10.00">/ptree.hpp</text>
</g>
<!-- Node1&#45;&gt;Node7 -->
<g id="edge6" class="edge"><title>Node1&#45;&gt;Node7</title>
<path fill="none" stroke="midnightblue" d="M549.5,-134.475C549.5,-127.471 549.5,-117.192 549.5,-107.696"/>
<polygon fill="midnightblue" stroke="midnightblue" points="553,-107.523 549.5,-97.523 546,-107.523 553,-107.523"/>
</g>
<!-- Node8 -->
<g id="node8" class="node"><title>Node8</title>
<polygon fill="white" stroke="#bfbfbf" points="618.5,-73 618.5,-92 662.5,-92 662.5,-73 618.5,-73"/>
<text text-anchor="middle" x="640.5" y="-80" font-family="Helvetica,sans-Serif" font-size="10.00">cmath</text>
</g>
<!-- Node1&#45;&gt;Node8 -->
<g id="edge7" class="edge"><title>Node1&#45;&gt;Node8</title>
<path fill="none" stroke="midnightblue" d="M562.538,-134.475C577.269,-124.843 601.473,-109.017 619.009,-97.5517"/>
<polygon fill="midnightblue" stroke="midnightblue" points="621.032,-100.411 627.486,-92.0091 617.201,-94.5522 621.032,-100.411"/>
</g>
<!-- Node9 -->
<g id="node9" class="node"><title>Node9</title>
<polygon fill="white" stroke="#bfbfbf" points="680.5,-73 680.5,-92 720.5,-92 720.5,-73 680.5,-73"/>
<text text-anchor="middle" x="700.5" y="-80" font-family="Helvetica,sans-Serif" font-size="10.00">limits</text>
</g>
<!-- Node1&#45;&gt;Node9 -->
<g id="edge8" class="edge"><title>Node1&#45;&gt;Node9</title>
<path fill="none" stroke="midnightblue" d="M575.056,-134.495C599.966,-125.99 638.766,-112.169 671.5,-98 672.662,-97.4969 673.844,-96.9702 675.034,-96.428"/>
<polygon fill="midnightblue" stroke="midnightblue" points="676.574,-99.5712 684.086,-92.1004 673.554,-93.2558 676.574,-99.5712"/>
</g>
<!-- Node10 -->
<g id="node10" class="node"><title>Node10</title>
<polygon fill="white" stroke="#bfbfbf" points="738.5,-73 738.5,-92 790.5,-92 790.5,-73 738.5,-73"/>
<text text-anchor="middle" x="764.5" y="-80" font-family="Helvetica,sans-Serif" font-size="10.00">sstream</text>
</g>
<!-- Node1&#45;&gt;Node10 -->
<g id="edge9" class="edge"><title>Node1&#45;&gt;Node10</title>
<path fill="none" stroke="midnightblue" d="M589.663,-134.745C626.464,-126.762 682.242,-113.602 729.5,-98 731.421,-97.366 733.385,-96.675 735.354,-95.95"/>
<polygon fill="midnightblue" stroke="midnightblue" points="737.034,-99.0511 745.07,-92.1467 734.483,-92.5327 737.034,-99.0511"/>
</g>
<!-- Node11 -->
<g id="node11" class="node"><title>Node11</title>
<polygon fill="white" stroke="#bfbfbf" points="808.5,-73 808.5,-92 852.5,-92 852.5,-73 808.5,-73"/>
<text text-anchor="middle" x="830.5" y="-80" font-family="Helvetica,sans-Serif" font-size="10.00">vector</text>
</g>
<!-- Node1&#45;&gt;Node11 -->
<g id="edge10" class="edge"><title>Node1&#45;&gt;Node11</title>
<path fill="none" stroke="midnightblue" d="M589.674,-139.018C639.719,-133.322 727.423,-120.914 799.5,-98 801.174,-97.4678 802.875,-96.8652 804.574,-96.2155"/>
<polygon fill="midnightblue" stroke="midnightblue" points="806.272,-99.2958 814.087,-92.1423 803.517,-92.8608 806.272,-99.2958"/>
</g>
<!-- Node3 -->
<g id="node3" class="node"><title>Node3</title>
<polygon fill="white" stroke="#bfbfbf" points="0,-0.5 0,-30.5 127,-30.5 127,-0.5 0,-0.5"/>
<text text-anchor="start" x="8" y="-18.5" font-family="Helvetica,sans-Serif" font-size="10.00">ThirdParty/easyloggingpp</text>
<text text-anchor="middle" x="63.5" y="-7.5" font-family="Helvetica,sans-Serif" font-size="10.00">/easylogging++.h</text>
</g>
<!-- Node2&#45;&gt;Node3 -->
<g id="edge2" class="edge"><title>Node2&#45;&gt;Node3</title>
<path fill="none" stroke="midnightblue" d="M63.5,-72.7338C63.5,-64.5406 63.5,-51.9225 63.5,-40.7136"/>
<polygon fill="midnightblue" stroke="midnightblue" points="67.0001,-40.589 63.5,-30.589 60.0001,-40.5891 67.0001,-40.589"/>
</g>
</g>
</svg>
