<?xml version="1.0" encoding="UTF-8" standalone="no"?>
<!DOCTYPE svg PUBLIC "-//W3C//DTD SVG 1.1//EN"
 "http://www.w3.org/Graphics/SVG/1.1/DTD/svg11.dtd">
<!-- Generated by graphviz version 2.38.0 (20140413.2041)
 -->
<!-- Title: Core/Utils.hpp Pages: 1 -->
<svg width="564pt" height="95pt"
 viewBox="0.00 0.00 563.50 95.00" xmlns="http://www.w3.org/2000/svg" xmlns:xlink="http://www.w3.org/1999/xlink">
<g id="graph0" class="graph" transform="scale(1 1) rotate(0) translate(4 91)">
<title>Core/Utils.hpp</title>
<polygon fill="white" stroke="none" points="-4,4 -4,-91 559.5,-91 559.5,4 -4,4"/>
<!-- Node1 -->
<g id="node1" class="node"><title>Node1</title>
<polygon fill="#bfbfbf" stroke="black" points="244.5,-67.5 244.5,-86.5 324.5,-86.5 324.5,-67.5 244.5,-67.5"/>
<text text-anchor="middle" x="284.5" y="-74.5" font-family="Helvetica,sans-Serif" font-size="10.00">Core/Utils.hpp</text>
</g>
<!-- Node2 -->
<g id="node2" class="node"><title>Node2</title>
<g id="a_node2"><a xlink:href="FitResult_8cpp.html" target="_top" xlink:title="Core/FitResult.cpp">
<polygon fill="white" stroke="black" points="0,-6 0,-25 99,-25 99,-6 0,-6"/>
<text text-anchor="middle" x="49.5" y="-13" font-family="Helvetica,sans-Serif" font-size="10.00">Core/FitResult.cpp</text>
</a>
</g>
</g>
<!-- Node1&#45;&gt;Node2 -->
<g id="edge1" class="edge"><title>Node1&#45;&gt;Node2</title>
<path fill="none" stroke="midnightblue" d="M240.93,-64.9685C195.298,-53.4147 124.61,-35.5173 83.1073,-25.0091"/>
<polygon fill="midnightblue" stroke="midnightblue" points="240.277,-68.4135 250.83,-67.4751 241.995,-61.6276 240.277,-68.4135"/>
</g>
<!-- Node3 -->
<g id="node3" class="node"><title>Node3</title>
<g id="a_node3"><a xlink:href="FitParameter_8cpp.html" target="_top" xlink:title="Core/FunctionTree/FitParameter.cpp">
<polygon fill="white" stroke="black" points="117.5,-6 117.5,-25 293.5,-25 293.5,-6 117.5,-6"/>
<text text-anchor="middle" x="205.5" y="-13" font-family="Helvetica,sans-Serif" font-size="10.00">Core/FunctionTree/FitParameter.cpp</text>
</a>
</g>
</g>
<!-- Node1&#45;&gt;Node3 -->
<g id="edge2" class="edge"><title>Node1&#45;&gt;Node3</title>
<path fill="none" stroke="midnightblue" d="M264.974,-61.2938C249.82,-49.8803 229.343,-34.4577 216.798,-25.0091"/>
<polygon fill="midnightblue" stroke="midnightblue" points="263.088,-64.2547 273.181,-67.4751 267.299,-58.6631 263.088,-64.2547"/>
</g>
<!-- Node4 -->
<g id="node4" class="node"><title>Node4</title>
<g id="a_node4"><a xlink:href="Properties_8cpp.html" target="_top" xlink:title="Core/Properties.cpp">
<polygon fill="white" stroke="black" points="311.5,-6 311.5,-25 415.5,-25 415.5,-6 311.5,-6"/>
<text text-anchor="middle" x="363.5" y="-13" font-family="Helvetica,sans-Serif" font-size="10.00">Core/Properties.cpp</text>
</a>
</g>
</g>
<!-- Node1&#45;&gt;Node4 -->
<g id="edge3" class="edge"><title>Node1&#45;&gt;Node4</title>
<path fill="none" stroke="midnightblue" d="M304.026,-61.2938C319.18,-49.8803 339.657,-34.4577 352.202,-25.0091"/>
<polygon fill="midnightblue" stroke="midnightblue" points="301.701,-58.6631 295.819,-67.4751 305.912,-64.2547 301.701,-58.6631"/>
</g>
<!-- Node5 -->
<g id="node5" class="node"><title>Node5</title>
<g id="a_node5"><a xlink:href="MinuitIF_8cpp.html" target="_top" xlink:title="Optimizer/Minuit2/Minuit\lIF.cpp">
<polygon fill="white" stroke="black" points="433.5,-0.5 433.5,-30.5 555.5,-30.5 555.5,-0.5 433.5,-0.5"/>
<text text-anchor="start" x="441.5" y="-18.5" font-family="Helvetica,sans-Serif" font-size="10.00">Optimizer/Minuit2/Minuit</text>
<text text-anchor="middle" x="494.5" y="-7.5" font-family="Helvetica,sans-Serif" font-size="10.00">IF.cpp</text>
</a>
</g>
</g>
<!-- Node1&#45;&gt;Node5 -->
<g id="edge4" class="edge"><title>Node1&#45;&gt;Node5</title>
<path fill="none" stroke="midnightblue" d="M324.261,-64.7343C358.535,-55.0234 408.168,-40.9607 445.007,-30.523"/>
<polygon fill="midnightblue" stroke="midnightblue" points="323.255,-61.3816 314.588,-67.4751 325.163,-68.1164 323.255,-61.3816"/>
</g>
</g>
</svg>
