<?xml version="1.0" encoding="UTF-8" standalone="no"?>
<!DOCTYPE svg PUBLIC "-//W3C//DTD SVG 1.1//EN"
 "http://www.w3.org/Graphics/SVG/1.1/DTD/svg11.dtd">
<!-- Generated by graphviz version 2.38.0 (20140413.2041)
 -->
<!-- Title: Core/FunctionTree/Value.cpp Pages: 1 -->
<svg width="170pt" height="140pt"
 viewBox="0.00 0.00 170.00 140.00" xmlns="http://www.w3.org/2000/svg" xmlns:xlink="http://www.w3.org/1999/xlink">
<g id="graph0" class="graph" transform="scale(1 1) rotate(0) translate(4 136)">
<title>Core/FunctionTree/Value.cpp</title>
<polygon fill="white" stroke="none" points="-4,4 -4,-136 166,-136 166,4 -4,4"/>
<!-- Node1 -->
<g id="node1" class="node"><title>Node1</title>
<polygon fill="#bfbfbf" stroke="black" points="18,-112.5 18,-131.5 162,-131.5 162,-112.5 18,-112.5"/>
<text text-anchor="middle" x="90" y="-119.5" font-family="Helvetica,sans-Serif" font-size="10.00">Core/FunctionTree/Value.cpp</text>
</g>
<!-- Node2 -->
<g id="node2" class="node"><title>Node2</title>
<g id="a_node2"><a xlink:href="Value_8hpp.html" target="_top" xlink:title="Template implementation of Parameter for simple values. ">
<polygon fill="white" stroke="black" points="60,-56.5 60,-75.5 120,-75.5 120,-56.5 60,-56.5"/>
<text text-anchor="middle" x="90" y="-63.5" font-family="Helvetica,sans-Serif" font-size="10.00">Value.hpp</text>
</a>
</g>
</g>
<!-- Node1&#45;&gt;Node2 -->
<g id="edge1" class="edge"><title>Node1&#45;&gt;Node2</title>
<path fill="none" stroke="midnightblue" d="M90,-112.083C90,-105.006 90,-94.8611 90,-85.9865"/>
<polygon fill="midnightblue" stroke="midnightblue" points="93.5001,-85.751 90,-75.7511 86.5001,-85.7511 93.5001,-85.751"/>
</g>
<!-- Node3 -->
<g id="node3" class="node"><title>Node3</title>
<g id="a_node3"><a xlink:href="FunctionTree_2FitParameter_8hpp.html" target="_top" xlink:title="Implementations of Parameter for various data types. ">
<polygon fill="white" stroke="red" points="0,-0.5 0,-19.5 92,-19.5 92,-0.5 0,-0.5"/>
<text text-anchor="middle" x="46" y="-7.5" font-family="Helvetica,sans-Serif" font-size="10.00">FitParameter.hpp</text>
</a>
</g>
</g>
<!-- Node2&#45;&gt;Node3 -->
<g id="edge2" class="edge"><title>Node2&#45;&gt;Node3</title>
<path fill="none" stroke="midnightblue" d="M82.7343,-56.083C76.4552,-48.3768 67.2124,-37.0333 59.5692,-27.6531"/>
<polygon fill="midnightblue" stroke="midnightblue" points="62.1606,-25.2926 53.1305,-19.7511 56.7339,-29.7143 62.1606,-25.2926"/>
</g>
<!-- Node4 -->
<g id="node4" class="node"><title>Node4</title>
<polygon fill="white" stroke="#bfbfbf" points="110.5,-0.5 110.5,-19.5 157.5,-19.5 157.5,-0.5 110.5,-0.5"/>
<text text-anchor="middle" x="134" y="-7.5" font-family="Helvetica,sans-Serif" font-size="10.00">iterator</text>
</g>
<!-- Node2&#45;&gt;Node4 -->
<g id="edge3" class="edge"><title>Node2&#45;&gt;Node4</title>
<path fill="none" stroke="midnightblue" d="M97.2657,-56.083C103.545,-48.3768 112.788,-37.0333 120.431,-27.6531"/>
<polygon fill="midnightblue" stroke="midnightblue" points="123.266,-29.7143 126.869,-19.7511 117.839,-25.2926 123.266,-29.7143"/>
</g>
</g>
</svg>
