<?xml version="1.0" encoding="UTF-8" standalone="no"?>
<!DOCTYPE svg PUBLIC "-//W3C//DTD SVG 1.1//EN"
 "http://www.w3.org/Graphics/SVG/1.1/DTD/svg11.dtd">
<!-- Generated by graphviz version 2.38.0 (20140413.2041)
 -->
<!-- Title: Core/FunctionTree/Value.hpp Pages: 1 -->
<svg width="1055pt" height="207pt"
 viewBox="0.00 0.00 1054.50 207.00" xmlns="http://www.w3.org/2000/svg" xmlns:xlink="http://www.w3.org/1999/xlink">
<g id="graph0" class="graph" transform="scale(1 1) rotate(0) translate(4 203)">
<title>Core/FunctionTree/Value.hpp</title>
<polygon fill="white" stroke="none" points="-4,4 -4,-203 1050.5,-203 1050.5,4 -4,4"/>
<!-- Node1 -->
<g id="node1" class="node"><title>Node1</title>
<polygon fill="#bfbfbf" stroke="black" points="449,-179.5 449,-198.5 593,-198.5 593,-179.5 449,-179.5"/>
<text text-anchor="middle" x="521" y="-186.5" font-family="Helvetica,sans-Serif" font-size="10.00">Core/FunctionTree/Value.hpp</text>
</g>
<!-- Node2 -->
<g id="node2" class="node"><title>Node2</title>
<g id="a_node2"><a xlink:href="FunctionTree_2FitParameter_8hpp.html" target="_top" xlink:title="Implementations of Parameter for various data types. ">
<polygon fill="white" stroke="black" points="431,-123.5 431,-142.5 523,-142.5 523,-123.5 431,-123.5"/>
<text text-anchor="middle" x="477" y="-130.5" font-family="Helvetica,sans-Serif" font-size="10.00">FitParameter.hpp</text>
</a>
</g>
</g>
<!-- Node1&#45;&gt;Node2 -->
<g id="edge1" class="edge"><title>Node1&#45;&gt;Node2</title>
<path fill="none" stroke="midnightblue" d="M513.734,-179.083C507.455,-171.377 498.212,-160.033 490.569,-150.653"/>
<polygon fill="midnightblue" stroke="midnightblue" points="493.161,-148.293 484.131,-142.751 487.734,-152.714 493.161,-148.293"/>
</g>
<!-- Node15 -->
<g id="node15" class="node"><title>Node15</title>
<polygon fill="white" stroke="#bfbfbf" points="541.5,-123.5 541.5,-142.5 588.5,-142.5 588.5,-123.5 541.5,-123.5"/>
<text text-anchor="middle" x="565" y="-130.5" font-family="Helvetica,sans-Serif" font-size="10.00">iterator</text>
</g>
<!-- Node1&#45;&gt;Node15 -->
<g id="edge19" class="edge"><title>Node1&#45;&gt;Node15</title>
<path fill="none" stroke="midnightblue" d="M528.266,-179.083C534.545,-171.377 543.788,-160.033 551.431,-150.653"/>
<polygon fill="midnightblue" stroke="midnightblue" points="554.266,-152.714 557.869,-142.751 548.839,-148.293 554.266,-152.714"/>
</g>
<!-- Node3 -->
<g id="node3" class="node"><title>Node3</title>
<polygon fill="white" stroke="#bfbfbf" points="0,-62 0,-81 44,-81 44,-62 0,-62"/>
<text text-anchor="middle" x="22" y="-69" font-family="Helvetica,sans-Serif" font-size="10.00">cmath</text>
</g>
<!-- Node2&#45;&gt;Node3 -->
<g id="edge2" class="edge"><title>Node2&#45;&gt;Node3</title>
<path fill="none" stroke="midnightblue" d="M430.705,-131.176C352.687,-128.872 190.551,-120.133 58,-87 55.3342,-86.3337 52.6042,-85.5116 49.898,-84.6005"/>
<polygon fill="midnightblue" stroke="midnightblue" points="50.9515,-81.2576 40.3591,-81.0287 48.4967,-87.8132 50.9515,-81.2576"/>
</g>
<!-- Node4 -->
<g id="node4" class="node"><title>Node4</title>
<polygon fill="white" stroke="#bfbfbf" points="210.5,-0.5 210.5,-19.5 263.5,-19.5 263.5,-0.5 210.5,-0.5"/>
<text text-anchor="middle" x="237" y="-7.5" font-family="Helvetica,sans-Serif" font-size="10.00">complex</text>
</g>
<!-- Node2&#45;&gt;Node4 -->
<g id="edge3" class="edge"><title>Node2&#45;&gt;Node4</title>
<path fill="none" stroke="midnightblue" d="M430.697,-129.994C333.075,-125.289 113.262,-112.008 91,-87 56.1036,-47.799 146.427,-25.7282 200.258,-16.3852"/>
<polygon fill="midnightblue" stroke="midnightblue" points="200.878,-19.8302 210.168,-14.7362 199.729,-12.9252 200.878,-19.8302"/>
</g>
<!-- Node5 -->
<g id="node5" class="node"><title>Node5</title>
<polygon fill="white" stroke="#bfbfbf" points="100,-62 100,-81 154,-81 154,-62 100,-62"/>
<text text-anchor="middle" x="127" y="-69" font-family="Helvetica,sans-Serif" font-size="10.00">iostream</text>
</g>
<!-- Node2&#45;&gt;Node5 -->
<g id="edge4" class="edge"><title>Node2&#45;&gt;Node5</title>
<path fill="none" stroke="midnightblue" d="M430.804,-128.871C368.95,-123.895 256.203,-112.056 163,-87 160.495,-86.3265 157.929,-85.5277 155.377,-84.6564"/>
<polygon fill="midnightblue" stroke="midnightblue" points="156.357,-81.2858 145.765,-81.049 153.897,-87.8395 156.357,-81.2858"/>
</g>
<!-- Node6 -->
<g id="node6" class="node"><title>Node6</title>
<polygon fill="white" stroke="#bfbfbf" points="172,-62 172,-81 224,-81 224,-62 172,-62"/>
<text text-anchor="middle" x="198" y="-69" font-family="Helvetica,sans-Serif" font-size="10.00">sstream</text>
</g>
<!-- Node2&#45;&gt;Node6 -->
<g id="edge5" class="edge"><title>Node2&#45;&gt;Node6</title>
<path fill="none" stroke="midnightblue" d="M430.905,-126.444C381.334,-119.791 300.536,-106.975 233,-87 230.712,-86.3232 228.369,-85.547 226.033,-84.7131"/>
<polygon fill="midnightblue" stroke="midnightblue" points="227.217,-81.4184 216.628,-81.0679 224.688,-87.9454 227.217,-81.4184"/>
</g>
<!-- Node7 -->
<g id="node7" class="node"><title>Node7</title>
<polygon fill="white" stroke="#bfbfbf" points="242.5,-62 242.5,-81 301.5,-81 301.5,-62 242.5,-62"/>
<text text-anchor="middle" x="272" y="-69" font-family="Helvetica,sans-Serif" font-size="10.00">stdexcept</text>
</g>
<!-- Node2&#45;&gt;Node7 -->
<g id="edge6" class="edge"><title>Node2&#45;&gt;Node7</title>
<path fill="none" stroke="midnightblue" d="M441.752,-123.439C407.961,-114.998 355.64,-101.316 311,-87 308.592,-86.2279 306.114,-85.3959 303.63,-84.5348"/>
<polygon fill="midnightblue" stroke="midnightblue" points="304.746,-81.217 294.152,-81.1346 302.382,-87.8058 304.746,-81.217"/>
</g>
<!-- Node8 -->
<g id="node8" class="node"><title>Node8</title>
<polygon fill="white" stroke="#bfbfbf" points="765.5,-0.5 765.5,-19.5 806.5,-19.5 806.5,-0.5 765.5,-0.5"/>
<text text-anchor="middle" x="786" y="-7.5" font-family="Helvetica,sans-Serif" font-size="10.00">string</text>
</g>
<!-- Node2&#45;&gt;Node8 -->
<g id="edge7" class="edge"><title>Node2&#45;&gt;Node8</title>
<path fill="none" stroke="midnightblue" d="M523.216,-124.034C593.764,-111.815 720.664,-89.5812 725,-87 748.551,-72.9794 766.723,-46.2693 776.892,-28.5444"/>
<polygon fill="midnightblue" stroke="midnightblue" points="779.97,-30.2116 781.702,-19.7593 773.83,-26.8499 779.97,-30.2116"/>
</g>
<!-- Node9 -->
<g id="node9" class="node"><title>Node9</title>
<polygon fill="white" stroke="#bfbfbf" points="502.5,-56.5 502.5,-86.5 603.5,-86.5 603.5,-56.5 502.5,-56.5"/>
<text text-anchor="start" x="510.5" y="-74.5" font-family="Helvetica,sans-Serif" font-size="10.00">boost/property_tree</text>
<text text-anchor="middle" x="553" y="-63.5" font-family="Helvetica,sans-Serif" font-size="10.00">/ptree_fwd.hpp</text>
</g>
<!-- Node2&#45;&gt;Node9 -->
<g id="edge8" class="edge"><title>Node2&#45;&gt;Node9</title>
<path fill="none" stroke="midnightblue" d="M487.889,-123.475C498.086,-115.492 513.717,-103.254 527.109,-92.7703"/>
<polygon fill="midnightblue" stroke="midnightblue" points="529.372,-95.4434 535.088,-86.523 525.057,-89.9316 529.372,-95.4434"/>
</g>
<!-- Node10 -->
<g id="node10" class="node"><title>Node10</title>
<polygon fill="white" stroke="#bfbfbf" points="621.5,-56.5 621.5,-86.5 716.5,-86.5 716.5,-56.5 621.5,-56.5"/>
<text text-anchor="start" x="629.5" y="-74.5" font-family="Helvetica,sans-Serif" font-size="10.00">boost/serialization</text>
<text text-anchor="middle" x="669" y="-63.5" font-family="Helvetica,sans-Serif" font-size="10.00">/utility.hpp</text>
</g>
<!-- Node2&#45;&gt;Node10 -->
<g id="edge9" class="edge"><title>Node2&#45;&gt;Node10</title>
<path fill="none" stroke="midnightblue" d="M504.509,-123.475C532.943,-114.664 578.104,-100.668 613.918,-89.5698"/>
<polygon fill="midnightblue" stroke="midnightblue" points="615.234,-92.8263 623.749,-86.523 613.161,-86.14 615.234,-92.8263"/>
</g>
<!-- Node11 -->
<g id="node11" class="node"><title>Node11</title>
<g id="a_node11"><a xlink:href="Exceptions_8hpp.html" target="_top" xlink:title="ComPWA exceptions. ">
<polygon fill="white" stroke="red" points="773,-62 773,-81 881,-81 881,-62 773,-62"/>
<text text-anchor="middle" x="827" y="-69" font-family="Helvetica,sans-Serif" font-size="10.00">Core/Exceptions.hpp</text>
</a>
</g>
</g>
<!-- Node2&#45;&gt;Node11 -->
<g id="edge10" class="edge"><title>Node2&#45;&gt;Node11</title>
<path fill="none" stroke="midnightblue" d="M523.211,-124.421C526.185,-123.939 529.134,-123.462 532,-123 632.849,-106.752 658.569,-105.658 759,-87 765.309,-85.828 771.929,-84.5176 778.46,-83.1767"/>
<polygon fill="midnightblue" stroke="midnightblue" points="779.519,-86.5312 788.592,-81.0601 778.087,-79.6791 779.519,-86.5312"/>
</g>
<!-- Node12 -->
<g id="node12" class="node"><title>Node12</title>
<g id="a_node12"><a xlink:href="FitParameter_8hpp.html" target="_top" xlink:title="Core/FitParameter.hpp">
<polygon fill="white" stroke="red" points="899,-62 899,-81 1015,-81 1015,-62 899,-62"/>
<text text-anchor="middle" x="957" y="-69" font-family="Helvetica,sans-Serif" font-size="10.00">Core/FitParameter.hpp</text>
</a>
</g>
</g>
<!-- Node2&#45;&gt;Node12 -->
<g id="edge12" class="edge"><title>Node2&#45;&gt;Node12</title>
<path fill="none" stroke="midnightblue" d="M523.183,-124.23C526.164,-123.794 529.122,-123.38 532,-123 690.539,-102.078 732.045,-111.952 890,-87 896.871,-85.9145 904.098,-84.5688 911.159,-83.1382"/>
<polygon fill="midnightblue" stroke="midnightblue" points="912.259,-86.4835 921.326,-81.002 910.82,-79.6331 912.259,-86.4835"/>
</g>
<!-- Node13 -->
<g id="node13" class="node"><title>Node13</title>
<g id="a_node13"><a xlink:href="Logging_8hpp.html" target="_top" xlink:title="Core/Logging.hpp">
<polygon fill="white" stroke="red" points="953.5,-0.5 953.5,-19.5 1046.5,-19.5 1046.5,-0.5 953.5,-0.5"/>
<text text-anchor="middle" x="1000" y="-7.5" font-family="Helvetica,sans-Serif" font-size="10.00">Core/Logging.hpp</text>
</a>
</g>
</g>
<!-- Node2&#45;&gt;Node13 -->
<g id="edge18" class="edge"><title>Node2&#45;&gt;Node13</title>
<path fill="none" stroke="midnightblue" d="M523.171,-124.138C526.155,-123.725 529.117,-123.341 532,-123 586.434,-116.568 986.682,-127.148 1024,-87 1039.1,-70.7527 1025.88,-45.0506 1013.88,-28.1067"/>
<polygon fill="midnightblue" stroke="midnightblue" points="1016.36,-25.5749 1007.53,-19.7102 1010.77,-29.7973 1016.36,-25.5749"/>
</g>
<!-- Node14 -->
<g id="node14" class="node"><title>Node14</title>
<g id="a_node14"><a xlink:href="Parameter_8hpp.html" target="_top" xlink:title="Parameter base class. ">
<polygon fill="white" stroke="red" points="320,-62 320,-81 484,-81 484,-62 320,-62"/>
<text text-anchor="middle" x="402" y="-69" font-family="Helvetica,sans-Serif" font-size="10.00">Core/FunctionTree/Parameter.hpp</text>
</a>
</g>
</g>
<!-- Node2&#45;&gt;Node14 -->
<g id="edge15" class="edge"><title>Node2&#45;&gt;Node14</title>
<path fill="none" stroke="midnightblue" d="M466.254,-123.475C454.447,-114.108 435.257,-98.8839 420.918,-87.5081"/>
<polygon fill="midnightblue" stroke="midnightblue" points="422.735,-84.4822 412.726,-81.0091 418.385,-89.9661 422.735,-84.4822"/>
</g>
<!-- Node11&#45;&gt;Node8 -->
<g id="edge11" class="edge"><title>Node11&#45;&gt;Node8</title>
<path fill="none" stroke="midnightblue" d="M821.126,-61.9751C815.037,-53.1384 805.355,-39.0886 797.697,-27.975"/>
<polygon fill="midnightblue" stroke="midnightblue" points="800.42,-25.7575 791.863,-19.5091 794.656,-29.7294 800.42,-25.7575"/>
</g>
<!-- Node12&#45;&gt;Node8 -->
<g id="edge14" class="edge"><title>Node12&#45;&gt;Node8</title>
<path fill="none" stroke="midnightblue" d="M932.5,-61.9751C901.869,-51.3169 849.442,-33.0748 816.314,-21.548"/>
<polygon fill="midnightblue" stroke="midnightblue" points="817.293,-18.1828 806.698,-18.2021 814.993,-24.794 817.293,-18.1828"/>
</g>
<!-- Node12&#45;&gt;Node13 -->
<g id="edge13" class="edge"><title>Node12&#45;&gt;Node13</title>
<path fill="none" stroke="midnightblue" d="M963.161,-61.9751C969.611,-53.0501 979.904,-38.8071 987.973,-27.6425"/>
<polygon fill="midnightblue" stroke="midnightblue" points="990.83,-29.6642 993.851,-19.5091 985.156,-25.564 990.83,-29.6642"/>
</g>
<!-- Node14&#45;&gt;Node4 -->
<g id="edge16" class="edge"><title>Node14&#45;&gt;Node4</title>
<path fill="none" stroke="midnightblue" d="M378.36,-61.9751C350.056,-51.7687 302.467,-34.608 270.414,-23.0492"/>
<polygon fill="midnightblue" stroke="midnightblue" points="271.191,-19.6089 260.597,-19.5091 268.816,-26.1939 271.191,-19.6089"/>
</g>
<!-- Node14&#45;&gt;Node8 -->
<g id="edge17" class="edge"><title>Node14&#45;&gt;Node8</title>
<path fill="none" stroke="midnightblue" d="M455.404,-61.9392C467.748,-59.9747 480.83,-57.9042 493,-56 588.613,-41.0403 701.853,-23.7775 755.235,-15.6668"/>
<polygon fill="midnightblue" stroke="midnightblue" points="756.029,-19.0864 765.39,-14.1246 754.978,-12.1658 756.029,-19.0864"/>
</g>
</g>
</svg>
