<?xml version="1.0" encoding="UTF-8" standalone="no"?>
<!DOCTYPE svg PUBLIC "-//W3C//DTD SVG 1.1//EN"
 "http://www.w3.org/Graphics/SVG/1.1/DTD/svg11.dtd">
<!-- Generated by graphviz version 2.38.0 (20140413.2041)
 -->
<!-- Title: Physics/Dynamics/Voigtian.hpp Pages: 1 -->
<svg width="638pt" height="543pt"
 viewBox="0.00 0.00 638.00 543.00" xmlns="http://www.w3.org/2000/svg" xmlns:xlink="http://www.w3.org/1999/xlink">
<g id="graph0" class="graph" transform="scale(1 1) rotate(0) translate(4 539)">
<title>Physics/Dynamics/Voigtian.hpp</title>
<polygon fill="white" stroke="none" points="-4,4 -4,-539 634,-539 634,4 -4,4"/>
<!-- Node1 -->
<g id="node1" class="node"><title>Node1</title>
<polygon fill="#bfbfbf" stroke="black" points="380,-515.5 380,-534.5 536,-534.5 536,-515.5 380,-515.5"/>
<text text-anchor="middle" x="458" y="-522.5" font-family="Helvetica,sans-Serif" font-size="10.00">Physics/Dynamics/Voigtian.hpp</text>
</g>
<!-- Node2 -->
<g id="node2" class="node"><title>Node2</title>
<g id="a_node2"><a xlink:href="Functions_8hpp.html" target="_top" xlink:title="This file contains Functions implementing the Strategy interface so they can be used inside a node of...">
<polygon fill="white" stroke="black" points="203,-235.5 203,-254.5 365,-254.5 365,-235.5 203,-235.5"/>
<text text-anchor="middle" x="284" y="-242.5" font-family="Helvetica,sans-Serif" font-size="10.00">Core/FunctionTree/Functions.hpp</text>
</a>
</g>
</g>
<!-- Node1&#45;&gt;Node2 -->
<g id="edge1" class="edge"><title>Node1&#45;&gt;Node2</title>
<path fill="none" stroke="midnightblue" d="M379.787,-521.193C248.977,-514.345 0,-491.175 0,-414 0,-414 0,-414 0,-356 0,-308.112 142.184,-272.921 225.343,-256.433"/>
<polygon fill="midnightblue" stroke="midnightblue" points="226.033,-259.865 235.179,-254.516 224.694,-252.994 226.033,-259.865"/>
</g>
<!-- Node10 -->
<g id="node10" class="node"><title>Node10</title>
<g id="a_node10"><a xlink:href="FormFactor_8hpp.html" target="_top" xlink:title="FormFactor.hpp">
<polygon fill="white" stroke="black" points="384,-347.5 384,-366.5 470,-366.5 470,-347.5 384,-347.5"/>
<text text-anchor="middle" x="427" y="-354.5" font-family="Helvetica,sans-Serif" font-size="10.00">FormFactor.hpp</text>
</a>
</g>
</g>
<!-- Node1&#45;&gt;Node10 -->
<g id="edge14" class="edge"><title>Node1&#45;&gt;Node10</title>
<path fill="none" stroke="midnightblue" d="M465.412,-515.411C472.276,-506.844 482.006,-492.979 486,-479 488.442,-470.453 488.322,-467.58 486,-459 477.206,-426.51 455.066,-393.752 440.549,-374.693"/>
<polygon fill="midnightblue" stroke="midnightblue" points="443.23,-372.44 434.309,-366.725 437.719,-376.756 443.23,-372.44"/>
</g>
<!-- Node12 -->
<g id="node12" class="node"><title>Node12</title>
<g id="a_node12"><a xlink:href="RelativisticBreitWigner_8hpp.html" target="_top" xlink:title="RelativisticBreitWigner.hpp">
<polygon fill="white" stroke="black" points="342.5,-459.5 342.5,-478.5 477.5,-478.5 477.5,-459.5 342.5,-459.5"/>
<text text-anchor="middle" x="410" y="-466.5" font-family="Helvetica,sans-Serif" font-size="10.00">RelativisticBreitWigner.hpp</text>
</a>
</g>
</g>
<!-- Node1&#45;&gt;Node12 -->
<g id="edge22" class="edge"><title>Node1&#45;&gt;Node12</title>
<path fill="none" stroke="midnightblue" d="M450.074,-515.083C443.154,-507.298 432.935,-495.801 424.548,-486.367"/>
<polygon fill="midnightblue" stroke="midnightblue" points="427.038,-483.9 417.779,-478.751 421.806,-488.55 427.038,-483.9"/>
</g>
<!-- Node14 -->
<g id="node14" class="node"><title>Node14</title>
<g id="a_node14"><a xlink:href="Faddeeva_8hh_source.html" target="_top" xlink:title="This file contains the declaration of the Faddeeva package, which is used only in the Voigtian class ...">
<polygon fill="white" stroke="black" points="534,-403.5 534,-422.5 630,-422.5 630,-403.5 534,-403.5"/>
<text text-anchor="middle" x="582" y="-410.5" font-family="Helvetica,sans-Serif" font-size="10.00">Utils/Faddeeva.hh</text>
</a>
</g>
</g>
<!-- Node1&#45;&gt;Node14 -->
<g id="edge29" class="edge"><title>Node1&#45;&gt;Node14</title>
<path fill="none" stroke="midnightblue" d="M471.346,-515.346C484.27,-506.731 504.179,-492.832 520,-479 537.501,-463.699 555.642,-444.179 567.744,-430.541"/>
<polygon fill="midnightblue" stroke="midnightblue" points="570.481,-432.728 574.439,-422.9 565.216,-428.114 570.481,-432.728"/>
</g>
<!-- Node3 -->
<g id="node3" class="node"><title>Node3</title>
<polygon fill="white" stroke="#bfbfbf" points="449.5,-56.5 449.5,-75.5 502.5,-75.5 502.5,-56.5 449.5,-56.5"/>
<text text-anchor="middle" x="476" y="-63.5" font-family="Helvetica,sans-Serif" font-size="10.00">complex</text>
</g>
<!-- Node2&#45;&gt;Node3 -->
<g id="edge2" class="edge"><title>Node2&#45;&gt;Node3</title>
<path fill="none" stroke="midnightblue" d="M307.707,-235.389C324.872,-228.072 347.512,-216.026 362,-199 388.8,-167.505 367.946,-143.278 395,-112 407.376,-97.6925 425.473,-87.0341 441.424,-79.6914"/>
<polygon fill="midnightblue" stroke="midnightblue" points="443.22,-82.728 451.008,-75.545 440.441,-76.3034 443.22,-82.728"/>
</g>
<!-- Node4 -->
<g id="node4" class="node"><title>Node4</title>
<polygon fill="white" stroke="#bfbfbf" points="306.5,-174 306.5,-193 353.5,-193 353.5,-174 306.5,-174"/>
<text text-anchor="middle" x="330" y="-181" font-family="Helvetica,sans-Serif" font-size="10.00">math.h</text>
</g>
<!-- Node2&#45;&gt;Node4 -->
<g id="edge3" class="edge"><title>Node2&#45;&gt;Node4</title>
<path fill="none" stroke="midnightblue" d="M290.591,-235.475C297.491,-226.55 308.502,-212.307 317.134,-201.143"/>
<polygon fill="midnightblue" stroke="midnightblue" points="320.074,-203.061 323.422,-193.009 314.536,-198.78 320.074,-203.061"/>
</g>
<!-- Node5 -->
<g id="node5" class="node"><title>Node5</title>
<polygon fill="white" stroke="#bfbfbf" points="404,-112.5 404,-131.5 448,-131.5 448,-112.5 404,-112.5"/>
<text text-anchor="middle" x="426" y="-119.5" font-family="Helvetica,sans-Serif" font-size="10.00">vector</text>
</g>
<!-- Node2&#45;&gt;Node5 -->
<g id="edge4" class="edge"><title>Node2&#45;&gt;Node5</title>
<path fill="none" stroke="midnightblue" d="M326.913,-235.46C349.964,-228.921 377.387,-217.727 396,-199 411.586,-183.319 419.314,-158.561 422.975,-141.591"/>
<polygon fill="midnightblue" stroke="midnightblue" points="426.419,-142.214 424.835,-131.738 419.54,-140.915 426.419,-142.214"/>
</g>
<!-- Node6 -->
<g id="node6" class="node"><title>Node6</title>
<g id="a_node6"><a xlink:href="Exceptions_8hpp.html" target="_top" xlink:title="ComPWA exceptions. ">
<polygon fill="white" stroke="red" points="166,-56.5 166,-75.5 274,-75.5 274,-56.5 166,-56.5"/>
<text text-anchor="middle" x="220" y="-63.5" font-family="Helvetica,sans-Serif" font-size="10.00">Core/Exceptions.hpp</text>
</a>
</g>
</g>
<!-- Node2&#45;&gt;Node6 -->
<g id="edge5" class="edge"><title>Node2&#45;&gt;Node6</title>
<path fill="none" stroke="midnightblue" d="M283.898,-235.496C283.329,-213.794 279.825,-155.041 259,-112 253.732,-101.112 245.133,-90.7766 237.348,-82.7632"/>
<polygon fill="midnightblue" stroke="midnightblue" points="239.592,-80.063 229.988,-75.5893 234.706,-85.0757 239.592,-80.063"/>
</g>
<!-- Node8 -->
<g id="node8" class="node"><title>Node8</title>
<g id="a_node8"><a xlink:href="FunctionTree_2FitParameter_8hpp.html" target="_top" xlink:title="Implementations of Parameter for various data types. ">
<polygon fill="white" stroke="red" points="74,-112.5 74,-131.5 250,-131.5 250,-112.5 74,-112.5"/>
<text text-anchor="middle" x="162" y="-119.5" font-family="Helvetica,sans-Serif" font-size="10.00">Core/FunctionTree/FitParameter.hpp</text>
</a>
</g>
</g>
<!-- Node2&#45;&gt;Node8 -->
<g id="edge7" class="edge"><title>Node2&#45;&gt;Node8</title>
<path fill="none" stroke="midnightblue" d="M277.946,-235.486C267.323,-220.843 244.24,-190.316 221,-168 209.301,-156.766 194.838,-145.697 183.16,-137.349"/>
<polygon fill="midnightblue" stroke="midnightblue" points="185.063,-134.408 174.864,-131.537 181.046,-140.141 185.063,-134.408"/>
</g>
<!-- Node9 -->
<g id="node9" class="node"><title>Node9</title>
<g id="a_node9"><a xlink:href="ParameterList_8hpp.html" target="_top" xlink:title="ParameterList class. ">
<polygon fill="white" stroke="red" points="66,-168.5 66,-198.5 212,-198.5 212,-168.5 66,-168.5"/>
<text text-anchor="start" x="74" y="-186.5" font-family="Helvetica,sans-Serif" font-size="10.00">Core/FunctionTree/Parameter</text>
<text text-anchor="middle" x="139" y="-175.5" font-family="Helvetica,sans-Serif" font-size="10.00">List.hpp</text>
</a>
</g>
</g>
<!-- Node2&#45;&gt;Node9 -->
<g id="edge10" class="edge"><title>Node2&#45;&gt;Node9</title>
<path fill="none" stroke="midnightblue" d="M263.225,-235.475C242.302,-226.889 209.386,-213.383 182.693,-202.429"/>
<polygon fill="midnightblue" stroke="midnightblue" points="183.754,-199.081 173.174,-198.523 181.096,-205.557 183.754,-199.081"/>
</g>
<!-- Node7 -->
<g id="node7" class="node"><title>Node7</title>
<polygon fill="white" stroke="#bfbfbf" points="385.5,-0.5 385.5,-19.5 444.5,-19.5 444.5,-0.5 385.5,-0.5"/>
<text text-anchor="middle" x="415" y="-7.5" font-family="Helvetica,sans-Serif" font-size="10.00">exception</text>
</g>
<!-- Node6&#45;&gt;Node7 -->
<g id="edge6" class="edge"><title>Node6&#45;&gt;Node7</title>
<path fill="none" stroke="midnightblue" d="M250.898,-56.4435C284.568,-47.1196 338.536,-32.1746 375.318,-21.9889"/>
<polygon fill="midnightblue" stroke="midnightblue" points="376.502,-25.2927 385.205,-19.2508 374.634,-18.5466 376.502,-25.2927"/>
</g>
<!-- Node8&#45;&gt;Node3 -->
<g id="edge8" class="edge"><title>Node8&#45;&gt;Node3</title>
<path fill="none" stroke="midnightblue" d="M211.754,-112.444C275.082,-101.553 383.002,-82.9932 439.329,-73.3065"/>
<polygon fill="midnightblue" stroke="midnightblue" points="439.961,-76.7492 449.223,-71.6049 438.775,-69.8505 439.961,-76.7492"/>
</g>
<!-- Node8&#45;&gt;Node6 -->
<g id="edge9" class="edge"><title>Node8&#45;&gt;Node6</title>
<path fill="none" stroke="midnightblue" d="M171.319,-112.324C179.893,-104.341 192.812,-92.3128 203.188,-82.6529"/>
<polygon fill="midnightblue" stroke="midnightblue" points="205.578,-85.2098 210.512,-75.8339 200.808,-80.0865 205.578,-85.2098"/>
</g>
<!-- Node9&#45;&gt;Node5 -->
<g id="edge11" class="edge"><title>Node9&#45;&gt;Node5</title>
<path fill="none" stroke="midnightblue" d="M206.652,-168.475C265.719,-156.229 348.848,-138.995 393.912,-129.652"/>
<polygon fill="midnightblue" stroke="midnightblue" points="394.903,-133.021 403.984,-127.564 393.482,-126.167 394.903,-133.021"/>
</g>
<!-- Node9&#45;&gt;Node6 -->
<g id="edge12" class="edge"><title>Node9&#45;&gt;Node6</title>
<path fill="none" stroke="midnightblue" d="M105.562,-168.379C78.8988,-155.062 48.5375,-133.922 65,-112 76.3529,-96.8823 118.804,-85.1989 156.414,-77.5297"/>
<polygon fill="midnightblue" stroke="midnightblue" points="157.221,-80.9381 166.355,-75.5703 155.867,-74.0702 157.221,-80.9381"/>
</g>
<!-- Node9&#45;&gt;Node8 -->
<g id="edge13" class="edge"><title>Node9&#45;&gt;Node8</title>
<path fill="none" stroke="midnightblue" d="M144.451,-168.399C147.621,-160.199 151.648,-149.781 155.044,-140.994"/>
<polygon fill="midnightblue" stroke="midnightblue" points="158.312,-142.247 158.653,-131.658 151.783,-139.723 158.312,-142.247"/>
</g>
<!-- Node10&#45;&gt;Node2 -->
<g id="edge17" class="edge"><title>Node10&#45;&gt;Node2</title>
<path fill="none" stroke="midnightblue" d="M421.744,-347.441C413.143,-333.999 394.913,-307.746 374,-291 356.972,-277.365 335.141,-266.324 317.245,-258.592"/>
<polygon fill="midnightblue" stroke="midnightblue" points="318.34,-255.256 307.763,-254.641 315.648,-261.718 318.34,-255.256"/>
</g>
<!-- Node10&#45;&gt;Node3 -->
<g id="edge15" class="edge"><title>Node10&#45;&gt;Node3</title>
<path fill="none" stroke="midnightblue" d="M429.556,-347.141C438.049,-317.21 465.338,-216.962 475,-132 476.756,-116.562 476.912,-98.9298 476.682,-85.9284"/>
<polygon fill="midnightblue" stroke="midnightblue" points="480.179,-85.7684 476.41,-75.8665 473.181,-85.9574 480.179,-85.7684"/>
</g>
<!-- Node10&#45;&gt;Node7 -->
<g id="edge16" class="edge"><title>Node10&#45;&gt;Node7</title>
<path fill="none" stroke="midnightblue" d="M434.053,-347.404C463.942,-309.884 575.703,-157.789 511,-56 498.611,-36.5096 475.305,-25.3147 454.76,-18.9656"/>
<polygon fill="midnightblue" stroke="midnightblue" points="455.53,-15.5465 444.956,-16.223 453.644,-22.2877 455.53,-15.5465"/>
</g>
<!-- Node11 -->
<g id="node11" class="node"><title>Node11</title>
<g id="a_node11"><a xlink:href="TreeNode_8hpp.html" target="_top" xlink:title="TreeNode class. ">
<polygon fill="white" stroke="red" points="203,-291.5 203,-310.5 365,-310.5 365,-291.5 203,-291.5"/>
<text text-anchor="middle" x="284" y="-298.5" font-family="Helvetica,sans-Serif" font-size="10.00">Core/FunctionTree/TreeNode.hpp</text>
</a>
</g>
</g>
<!-- Node10&#45;&gt;Node11 -->
<g id="edge18" class="edge"><title>Node10&#45;&gt;Node11</title>
<path fill="none" stroke="midnightblue" d="M404.341,-347.444C380.598,-338.478 343.091,-324.314 316.262,-314.183"/>
<polygon fill="midnightblue" stroke="midnightblue" points="317.144,-310.775 306.553,-310.516 314.671,-317.324 317.144,-310.775"/>
</g>
<!-- Node11&#45;&gt;Node2 -->
<g id="edge20" class="edge"><title>Node11&#45;&gt;Node2</title>
<path fill="none" stroke="midnightblue" d="M284,-291.083C284,-284.006 284,-273.861 284,-264.986"/>
<polygon fill="midnightblue" stroke="midnightblue" points="287.5,-264.751 284,-254.751 280.5,-264.751 287.5,-264.751"/>
</g>
<!-- Node11&#45;&gt;Node3 -->
<g id="edge19" class="edge"><title>Node11&#45;&gt;Node3</title>
<path fill="none" stroke="midnightblue" d="M307.361,-291.495C326.502,-283.814 353.653,-271.233 374,-255 425.553,-213.872 431.654,-192.884 457,-132 463.354,-116.737 468.461,-98.6284 471.773,-85.4065"/>
<polygon fill="midnightblue" stroke="midnightblue" points="475.191,-86.1597 474.121,-75.6191 468.385,-84.5266 475.191,-86.1597"/>
</g>
<!-- Node11&#45;&gt;Node9 -->
<g id="edge21" class="edge"><title>Node11&#45;&gt;Node9</title>
<path fill="none" stroke="midnightblue" d="M260.143,-291.475C240.961,-283.858 214.006,-271.377 194,-255 177.586,-241.564 163.025,-222.386 153.015,-207.424"/>
<polygon fill="midnightblue" stroke="midnightblue" points="155.767,-205.234 147.395,-198.741 149.891,-209.038 155.767,-205.234"/>
</g>
<!-- Node12&#45;&gt;Node5 -->
<g id="edge28" class="edge"><title>Node12&#45;&gt;Node5</title>
<path fill="none" stroke="midnightblue" d="M418.77,-459.268C434.51,-442.902 467.026,-405.753 479,-367 504.718,-283.765 457.394,-180.843 435.86,-140.439"/>
<polygon fill="midnightblue" stroke="midnightblue" points="438.873,-138.655 431.001,-131.564 432.733,-142.017 438.873,-138.655"/>
</g>
<!-- Node12&#45;&gt;Node10 -->
<g id="edge27" class="edge"><title>Node12&#45;&gt;Node10</title>
<path fill="none" stroke="midnightblue" d="M411.334,-459.368C414.077,-441.617 420.406,-400.666 424.126,-376.597"/>
<polygon fill="midnightblue" stroke="midnightblue" points="427.604,-377.009 425.672,-366.591 420.686,-375.94 427.604,-377.009"/>
</g>
<!-- Node12&#45;&gt;Node11 -->
<g id="edge23" class="edge"><title>Node12&#45;&gt;Node11</title>
<path fill="none" stroke="midnightblue" d="M375.462,-459.35C355.374,-452.614 331.113,-441.258 316,-423 291.489,-393.388 285.573,-346.92 284.257,-321.034"/>
<polygon fill="midnightblue" stroke="midnightblue" points="287.745,-320.605 283.926,-310.722 280.749,-320.83 287.745,-320.605"/>
</g>
<!-- Node13 -->
<g id="node13" class="node"><title>Node13</title>
<g id="a_node13"><a xlink:href="Coupling_8hpp.html" target="_top" xlink:title="Coupling.hpp">
<polygon fill="white" stroke="red" points="325,-403.5 325,-422.5 399,-422.5 399,-403.5 325,-403.5"/>
<text text-anchor="middle" x="362" y="-410.5" font-family="Helvetica,sans-Serif" font-size="10.00">Coupling.hpp</text>
</a>
</g>
</g>
<!-- Node12&#45;&gt;Node13 -->
<g id="edge24" class="edge"><title>Node12&#45;&gt;Node13</title>
<path fill="none" stroke="midnightblue" d="M402.074,-459.083C395.154,-451.298 384.935,-439.801 376.548,-430.367"/>
<polygon fill="midnightblue" stroke="midnightblue" points="379.038,-427.9 369.779,-422.751 373.806,-432.55 379.038,-427.9"/>
</g>
<!-- Node13&#45;&gt;Node8 -->
<g id="edge25" class="edge"><title>Node13&#45;&gt;Node8</title>
<path fill="none" stroke="midnightblue" d="M324.833,-407.39C239.729,-395.8 38,-361.997 38,-302 38,-302 38,-302 38,-244 38,-209.183 34.4255,-194.507 57,-168 70.6955,-151.919 91.1696,-141.429 110.411,-134.662"/>
<polygon fill="midnightblue" stroke="midnightblue" points="111.59,-137.96 120.02,-131.542 109.428,-131.302 111.59,-137.96"/>
</g>
<!-- Node13&#45;&gt;Node10 -->
<g id="edge26" class="edge"><title>Node13&#45;&gt;Node10</title>
<path fill="none" stroke="midnightblue" d="M372.443,-403.324C382.146,-395.263 396.815,-383.077 408.5,-373.369"/>
<polygon fill="midnightblue" stroke="midnightblue" points="410.911,-375.916 416.367,-366.834 406.438,-370.532 410.911,-375.916"/>
</g>
<!-- Node14&#45;&gt;Node3 -->
<g id="edge30" class="edge"><title>Node14&#45;&gt;Node3</title>
<path fill="none" stroke="midnightblue" d="M579.304,-403.161C568.279,-367.031 525.532,-227.032 490,-112 487.28,-103.194 484.243,-93.4257 481.695,-85.2462"/>
<polygon fill="midnightblue" stroke="midnightblue" points="485.013,-84.1282 478.694,-75.6236 478.33,-86.2122 485.013,-84.1282"/>
</g>
</g>
</svg>
