<?xml version="1.0" encoding="UTF-8" standalone="no"?>
<!DOCTYPE svg PUBLIC "-//W3C//DTD SVG 1.1//EN"
 "http://www.w3.org/Graphics/SVG/1.1/DTD/svg11.dtd">
<!-- Generated by graphviz version 2.38.0 (20140413.2041)
 -->
<!-- Title: Physics/Dynamics/Voigtian.cpp Pages: 1 -->
<svg width="370pt" height="252pt"
 viewBox="0.00 0.00 370.00 252.00" xmlns="http://www.w3.org/2000/svg" xmlns:xlink="http://www.w3.org/1999/xlink">
<g id="graph0" class="graph" transform="scale(1 1) rotate(0) translate(4 248)">
<title>Physics/Dynamics/Voigtian.cpp</title>
<polygon fill="white" stroke="none" points="-4,4 -4,-248 366,-248 366,4 -4,4"/>
<!-- Node1 -->
<g id="node1" class="node"><title>Node1</title>
<polygon fill="#bfbfbf" stroke="black" points="54,-224.5 54,-243.5 210,-243.5 210,-224.5 54,-224.5"/>
<text text-anchor="middle" x="132" y="-231.5" font-family="Helvetica,sans-Serif" font-size="10.00">Physics/Dynamics/Voigtian.cpp</text>
</g>
<!-- Node2 -->
<g id="node2" class="node"><title>Node2</title>
<g id="a_node2"><a xlink:href="Voigtian_8hpp.html" target="_top" xlink:title="This file contains the declaration of the Voigtian class, which is used the implementation of voigt f...">
<polygon fill="white" stroke="black" points="96.5,-168.5 96.5,-187.5 167.5,-187.5 167.5,-168.5 96.5,-168.5"/>
<text text-anchor="middle" x="132" y="-175.5" font-family="Helvetica,sans-Serif" font-size="10.00">Voigtian.hpp</text>
</a>
</g>
</g>
<!-- Node1&#45;&gt;Node2 -->
<g id="edge1" class="edge"><title>Node1&#45;&gt;Node2</title>
<path fill="none" stroke="midnightblue" d="M132,-224.083C132,-217.006 132,-206.861 132,-197.986"/>
<polygon fill="midnightblue" stroke="midnightblue" points="135.5,-197.751 132,-187.751 128.5,-197.751 135.5,-197.751"/>
</g>
<!-- Node3 -->
<g id="node3" class="node"><title>Node3</title>
<g id="a_node3"><a xlink:href="Functions_8hpp.html" target="_top" xlink:title="This file contains Functions implementing the Strategy interface so they can be used inside a node of...">
<polygon fill="white" stroke="red" points="0,-0.5 0,-19.5 162,-19.5 162,-0.5 0,-0.5"/>
<text text-anchor="middle" x="81" y="-7.5" font-family="Helvetica,sans-Serif" font-size="10.00">Core/FunctionTree/Functions.hpp</text>
</a>
</g>
</g>
<!-- Node2&#45;&gt;Node3 -->
<g id="edge2" class="edge"><title>Node2&#45;&gt;Node3</title>
<path fill="none" stroke="midnightblue" d="M123.281,-168.272C107.666,-151.912 75.5748,-114.774 65,-76 60.7052,-60.2523 65.9392,-42.2186 71.539,-29.1476"/>
<polygon fill="midnightblue" stroke="midnightblue" points="74.8169,-30.4032 75.9332,-19.8674 68.4903,-27.4075 74.8169,-30.4032"/>
</g>
<!-- Node4 -->
<g id="node4" class="node"><title>Node4</title>
<g id="a_node4"><a xlink:href="FormFactor_8hpp.html" target="_top" xlink:title="FormFactor.hpp">
<polygon fill="white" stroke="red" points="74,-56.5 74,-75.5 160,-75.5 160,-56.5 74,-56.5"/>
<text text-anchor="middle" x="117" y="-63.5" font-family="Helvetica,sans-Serif" font-size="10.00">FormFactor.hpp</text>
</a>
</g>
</g>
<!-- Node2&#45;&gt;Node4 -->
<g id="edge3" class="edge"><title>Node2&#45;&gt;Node4</title>
<path fill="none" stroke="midnightblue" d="M124.327,-168.459C117.221,-159.927 107.146,-146.088 103,-132 98.371,-116.272 103.188,-97.9879 108.394,-84.8257"/>
<polygon fill="midnightblue" stroke="midnightblue" points="111.667,-86.0781 112.48,-75.5145 105.257,-83.2653 111.667,-86.0781"/>
</g>
<!-- Node5 -->
<g id="node5" class="node"><title>Node5</title>
<g id="a_node5"><a xlink:href="RelativisticBreitWigner_8hpp.html" target="_top" xlink:title="RelativisticBreitWigner.hpp">
<polygon fill="white" stroke="red" points="112.5,-112.5 112.5,-131.5 247.5,-131.5 247.5,-112.5 112.5,-112.5"/>
<text text-anchor="middle" x="180" y="-119.5" font-family="Helvetica,sans-Serif" font-size="10.00">RelativisticBreitWigner.hpp</text>
</a>
</g>
</g>
<!-- Node2&#45;&gt;Node5 -->
<g id="edge5" class="edge"><title>Node2&#45;&gt;Node5</title>
<path fill="none" stroke="midnightblue" d="M139.926,-168.083C146.846,-160.298 157.065,-148.801 165.452,-139.367"/>
<polygon fill="midnightblue" stroke="midnightblue" points="168.194,-141.55 172.221,-131.751 162.962,-136.9 168.194,-141.55"/>
</g>
<!-- Node6 -->
<g id="node6" class="node"><title>Node6</title>
<g id="a_node6"><a xlink:href="Faddeeva_8hh_source.html" target="_top" xlink:title="This file contains the declaration of the Faddeeva package, which is used only in the Voigtian class ...">
<polygon fill="white" stroke="red" points="266,-112.5 266,-131.5 362,-131.5 362,-112.5 266,-112.5"/>
<text text-anchor="middle" x="314" y="-119.5" font-family="Helvetica,sans-Serif" font-size="10.00">Utils/Faddeeva.hh</text>
</a>
</g>
</g>
<!-- Node2&#45;&gt;Node6 -->
<g id="edge7" class="edge"><title>Node2&#45;&gt;Node6</title>
<path fill="none" stroke="midnightblue" d="M160.838,-168.444C191.856,-159.241 241.329,-144.562 275.618,-134.388"/>
<polygon fill="midnightblue" stroke="midnightblue" points="276.705,-137.716 285.296,-131.516 274.714,-131.006 276.705,-137.716"/>
</g>
<!-- Node4&#45;&gt;Node3 -->
<g id="edge4" class="edge"><title>Node4&#45;&gt;Node3</title>
<path fill="none" stroke="midnightblue" d="M111.055,-56.083C106.023,-48.5341 98.6632,-37.4948 92.4865,-28.2298"/>
<polygon fill="midnightblue" stroke="midnightblue" points="95.2933,-26.1301 86.8341,-19.7511 89.4689,-30.0131 95.2933,-26.1301"/>
</g>
<!-- Node5&#45;&gt;Node4 -->
<g id="edge6" class="edge"><title>Node5&#45;&gt;Node4</title>
<path fill="none" stroke="midnightblue" d="M169.878,-112.324C160.474,-104.263 146.256,-92.0765 134.931,-82.3695"/>
<polygon fill="midnightblue" stroke="midnightblue" points="137.177,-79.6844 127.306,-75.8339 132.621,-84.9993 137.177,-79.6844"/>
</g>
</g>
</svg>
