<?xml version="1.0" encoding="UTF-8" standalone="no"?>
<!DOCTYPE svg PUBLIC "-//W3C//DTD SVG 1.1//EN"
 "http://www.w3.org/Graphics/SVG/1.1/DTD/svg11.dtd">
<!-- Generated by graphviz version 2.38.0 (20140413.2041)
 -->
<!-- Title: Physics/HelicityFormalism/WignerD.cpp Pages: 1 -->
<svg width="365pt" height="218pt"
 viewBox="0.00 0.00 365.00 218.00" xmlns="http://www.w3.org/2000/svg" xmlns:xlink="http://www.w3.org/1999/xlink">
<g id="graph0" class="graph" transform="scale(1 1) rotate(0) translate(4 214)">
<title>Physics/HelicityFormalism/WignerD.cpp</title>
<polygon fill="white" stroke="none" points="-4,4 -4,-214 361,-214 361,4 -4,4"/>
<!-- Node1 -->
<g id="node1" class="node"><title>Node1</title>
<polygon fill="#bfbfbf" stroke="black" points="69,-179.5 69,-209.5 203,-209.5 203,-179.5 69,-179.5"/>
<text text-anchor="start" x="77" y="-197.5" font-family="Helvetica,sans-Serif" font-size="10.00">Physics/HelicityFormalism</text>
<text text-anchor="middle" x="136" y="-186.5" font-family="Helvetica,sans-Serif" font-size="10.00">/WignerD.cpp</text>
</g>
<!-- Node2 -->
<g id="node2" class="node"><title>Node2</title>
<g id="a_node2"><a xlink:href="WignerD_8hpp.html" target="_top" xlink:title="WignerD.hpp">
<polygon fill="white" stroke="black" points="99,-123.5 99,-142.5 173,-142.5 173,-123.5 99,-123.5"/>
<text text-anchor="middle" x="136" y="-130.5" font-family="Helvetica,sans-Serif" font-size="10.00">WignerD.hpp</text>
</a>
</g>
</g>
<!-- Node1&#45;&gt;Node2 -->
<g id="edge1" class="edge"><title>Node1&#45;&gt;Node2</title>
<path fill="none" stroke="midnightblue" d="M136,-179.399C136,-171.466 136,-161.458 136,-152.858"/>
<polygon fill="midnightblue" stroke="midnightblue" points="139.5,-152.658 136,-142.658 132.5,-152.658 139.5,-152.658"/>
</g>
<!-- Node3 -->
<g id="node3" class="node"><title>Node3</title>
<g id="a_node3"><a xlink:href="Functions_8hpp.html" target="_top" xlink:title="This file contains Functions implementing the Strategy interface so they can be used inside a node of...">
<polygon fill="white" stroke="red" points="0,-0.5 0,-19.5 162,-19.5 162,-0.5 0,-0.5"/>
<text text-anchor="middle" x="81" y="-7.5" font-family="Helvetica,sans-Serif" font-size="10.00">Core/FunctionTree/Functions.hpp</text>
</a>
</g>
</g>
<!-- Node2&#45;&gt;Node3 -->
<g id="edge2" class="edge"><title>Node2&#45;&gt;Node3</title>
<path fill="none" stroke="midnightblue" d="M98.8978,-123.458C79.5552,-116.918 57.572,-105.724 46,-87 33.9038,-67.4279 50.1739,-42.9815 64.3397,-27.1848"/>
<polygon fill="midnightblue" stroke="midnightblue" points="67.0278,-29.4374 71.3943,-19.7842 61.961,-24.6076 67.0278,-29.4374"/>
</g>
<!-- Node4 -->
<g id="node4" class="node"><title>Node4</title>
<g id="a_node4"><a xlink:href="TreeNode_8hpp.html" target="_top" xlink:title="TreeNode class. ">
<polygon fill="white" stroke="red" points="55,-62 55,-81 217,-81 217,-62 55,-62"/>
<text text-anchor="middle" x="136" y="-69" font-family="Helvetica,sans-Serif" font-size="10.00">Core/FunctionTree/TreeNode.hpp</text>
</a>
</g>
</g>
<!-- Node2&#45;&gt;Node4 -->
<g id="edge3" class="edge"><title>Node2&#45;&gt;Node4</title>
<path fill="none" stroke="midnightblue" d="M136,-123.475C136,-115.08 136,-101.981 136,-91.1631"/>
<polygon fill="midnightblue" stroke="midnightblue" points="139.5,-91.0091 136,-81.0091 132.5,-91.0091 139.5,-91.0091"/>
</g>
<!-- Node5 -->
<g id="node5" class="node"><title>Node5</title>
<polygon fill="white" stroke="#bfbfbf" points="235,-56.5 235,-86.5 357,-86.5 357,-56.5 235,-56.5"/>
<text text-anchor="start" x="243" y="-74.5" font-family="Helvetica,sans-Serif" font-size="10.00">ThirdParty/qft++/include</text>
<text text-anchor="middle" x="296" y="-63.5" font-family="Helvetica,sans-Serif" font-size="10.00">/qft++/WignerD.h</text>
</g>
<!-- Node2&#45;&gt;Node5 -->
<g id="edge5" class="edge"><title>Node2&#45;&gt;Node5</title>
<path fill="none" stroke="midnightblue" d="M158.924,-123.475C182.214,-114.814 218.97,-101.145 248.561,-90.1415"/>
<polygon fill="midnightblue" stroke="midnightblue" points="250.138,-93.2891 258.291,-86.523 247.698,-86.7281 250.138,-93.2891"/>
</g>
<!-- Node4&#45;&gt;Node3 -->
<g id="edge4" class="edge"><title>Node4&#45;&gt;Node3</title>
<path fill="none" stroke="midnightblue" d="M128.12,-61.9751C119.706,-52.8733 106.181,-38.241 95.7742,-26.983"/>
<polygon fill="midnightblue" stroke="midnightblue" points="98.2237,-24.4766 88.8655,-19.5091 93.0833,-29.2282 98.2237,-24.4766"/>
</g>
</g>
</svg>
