<?xml version="1.0" encoding="UTF-8" standalone="no"?>
<!DOCTYPE svg PUBLIC "-//W3C//DTD SVG 1.1//EN"
 "http://www.w3.org/Graphics/SVG/1.1/DTD/svg11.dtd">
<!-- Generated by graphviz version 2.38.0 (20140413.2041)
 -->
<!-- Title: Physics/HelicityFormalism/WignerD.hpp Pages: 1 -->
<!--zoomable 397 -->
<svg id="main" version="1.1" xmlns="http://www.w3.org/2000/svg" xmlns:xlink="http://www.w3.org/1999/xlink" xml:space="preserve" onload="init(evt)">
<style type="text/css"><![CDATA[
.edge:hover path { stroke: red; }
.edge:hover polygon { stroke: red; fill: red; }
]]></style>
<script type="text/javascript"><![CDATA[
var edges = document.getElementsByTagName('g');
if (edges && edges.length) {
  for (var i=0;i<edges.length;i++) {
    if (edges[i].id.substr(0,4)=='edge') {
      edges[i].setAttribute('class','edge');
    }
  }
}
]]></script>
        <defs>
                <circle id="rim" cx="0" cy="0" r="7"/>
                <circle id="rim2" cx="0" cy="0" r="3.5"/>
                <g id="zoomPlus">
                        <use xlink:href="#rim" fill="#404040">
                                <set attributeName="fill" to="#808080" begin="zoomplus.mouseover" end="zoomplus.mouseout"/>
                        </use>
                        <path d="M-4,0h8M0,-4v8" fill="none" stroke="white" stroke-width="1.5" pointer-events="none"/>
                </g>
                <g id="zoomMin">
                        <use xlink:href="#rim" fill="#404040">
                                <set attributeName="fill" to="#808080" begin="zoomminus.mouseover" end="zoomminus.mouseout"/>
                        </use>
                        <path d="M-4,0h8" fill="none" stroke="white" stroke-width="1.5" pointer-events="none"/>
                </g>
                <g id="dirArrow">
                        <path fill="none" stroke="white" stroke-width="1.5" d="M0,-3.0v7 M-2.5,-0.5L0,-3.0L2.5,-0.5"/>
                </g>
               <g id="resetDef">
                       <use xlink:href="#rim2" fill="#404040">
                               <set attributeName="fill" to="#808080" begin="reset.mouseover" end="reset.mouseout"/>
                       </use>
               </g>
        </defs>

<script type="text/javascript">
var viewWidth = 543;
var viewHeight = 397;
var sectionId = 'dynsection-0';
</script>
<script xlink:href="svgpan.js"/>
<svg id="graph" class="graph">
<g id="viewport">
<title>Physics/HelicityFormalism/WignerD.hpp</title>
<polygon fill="white" stroke="none" points="-4,4 -4,-393 538.5,-393 538.5,4 -4,4"/>
<!-- Node1 -->
<g id="node1" class="node"><title>Node1</title>
<polygon fill="#bfbfbf" stroke="black" points="246.5,-358.5 246.5,-388.5 380.5,-388.5 380.5,-358.5 246.5,-358.5"/>
<text text-anchor="start" x="254.5" y="-376.5" font-family="Helvetica,sans-Serif" font-size="10.00">Physics/HelicityFormalism</text>
<text text-anchor="middle" x="313.5" y="-365.5" font-family="Helvetica,sans-Serif" font-size="10.00">/WignerD.hpp</text>
</g>
<!-- Node2 -->
<g id="node2" class="node"><title>Node2</title>
<g id="a_node2"><a xlink:href="Functions_8hpp.html" target="_top" xlink:title="This file contains Functions implementing the Strategy interface so they can be used inside a node of...">
<polygon fill="white" stroke="black" points="46.5,-235.5 46.5,-254.5 208.5,-254.5 208.5,-235.5 46.5,-235.5"/>
<text text-anchor="middle" x="127.5" y="-242.5" font-family="Helvetica,sans-Serif" font-size="10.00">Core/FunctionTree/Functions.hpp</text>
</a>
</g>
</g>
<!-- Node1&#45;&gt;Node2 -->
<g id="edge1" class="edge"><title>Node1&#45;&gt;Node2</title>
<path fill="none" stroke="midnightblue" d="M285.654,-358.345C267.521,-348.774 243.592,-335.467 223.5,-322 194.712,-302.705 163.657,-277.162 144.897,-261.155"/>
<polygon fill="midnightblue" stroke="midnightblue" points="147.058,-258.398 137.195,-254.528 142.493,-263.704 147.058,-258.398"/>
</g>
<!-- Node11 -->
<g id="node11" class="node"><title>Node11</title>
<g id="a_node11"><a xlink:href="TreeNode_8hpp.html" target="_top" xlink:title="TreeNode class. ">
<polygon fill="white" stroke="black" points="232.5,-297 232.5,-316 394.5,-316 394.5,-297 232.5,-297"/>
<text text-anchor="middle" x="313.5" y="-304" font-family="Helvetica,sans-Serif" font-size="10.00">Core/FunctionTree/TreeNode.hpp</text>
</a>
</g>
</g>
<!-- Node1&#45;&gt;Node11 -->
<g id="edge17" class="edge"><title>Node1&#45;&gt;Node11</title>
<path fill="none" stroke="midnightblue" d="M313.5,-358.396C313.5,-349.064 313.5,-336.714 313.5,-326.517"/>
<polygon fill="midnightblue" stroke="midnightblue" points="317,-326.195 313.5,-316.195 310,-326.195 317,-326.195"/>
</g>
<!-- Node13 -->
<g id="node13" class="node"><title>Node13</title>
<polygon fill="white" stroke="#bfbfbf" points="412.5,-291.5 412.5,-321.5 534.5,-321.5 534.5,-291.5 412.5,-291.5"/>
<text text-anchor="start" x="420.5" y="-309.5" font-family="Helvetica,sans-Serif" font-size="10.00">ThirdParty/qft++/include</text>
<text text-anchor="middle" x="473.5" y="-298.5" font-family="Helvetica,sans-Serif" font-size="10.00">/qft++/WignerD.h</text>
</g>
<!-- Node1&#45;&gt;Node13 -->
<g id="edge24" class="edge"><title>Node1&#45;&gt;Node13</title>
<path fill="none" stroke="midnightblue" d="M348.218,-358.396C372.015,-348.728 403.783,-335.823 429.374,-325.426"/>
<polygon fill="midnightblue" stroke="midnightblue" points="430.903,-328.583 438.85,-321.577 428.268,-322.098 430.903,-328.583"/>
</g>
<!-- Node3 -->
<g id="node3" class="node"><title>Node3</title>
<polygon fill="white" stroke="#bfbfbf" points="0,-56.5 0,-75.5 53,-75.5 53,-56.5 0,-56.5"/>
<text text-anchor="middle" x="26.5" y="-63.5" font-family="Helvetica,sans-Serif" font-size="10.00">complex</text>
</g>
<!-- Node2&#45;&gt;Node3 -->
<g id="edge2" class="edge"><title>Node2&#45;&gt;Node3</title>
<path fill="none" stroke="midnightblue" d="M117.102,-235.468C107.144,-226.943 92.1082,-213.108 81.5,-199 61.1846,-171.981 58.3118,-163.282 45.5,-132 39.2339,-116.7 34.1187,-98.5956 30.7808,-85.3844"/>
<polygon fill="midnightblue" stroke="midnightblue" points="34.1678,-84.4997 28.4087,-75.6068 27.3651,-86.1501 34.1678,-84.4997"/>
</g>
<!-- Node4 -->
<g id="node4" class="node"><title>Node4</title>
<polygon fill="white" stroke="#bfbfbf" points="105,-174 105,-193 152,-193 152,-174 105,-174"/>
<text text-anchor="middle" x="128.5" y="-181" font-family="Helvetica,sans-Serif" font-size="10.00">math.h</text>
</g>
<!-- Node2&#45;&gt;Node4 -->
<g id="edge3" class="edge"><title>Node2&#45;&gt;Node4</title>
<path fill="none" stroke="midnightblue" d="M127.643,-235.475C127.784,-227.08 128.005,-213.981 128.186,-203.163"/>
<polygon fill="midnightblue" stroke="midnightblue" points="131.688,-203.067 128.357,-193.009 124.689,-202.949 131.688,-203.067"/>
</g>
<!-- Node5 -->
<g id="node5" class="node"><title>Node5</title>
<polygon fill="white" stroke="#bfbfbf" points="54.5,-112.5 54.5,-131.5 98.5,-131.5 98.5,-112.5 54.5,-112.5"/>
<text text-anchor="middle" x="76.5" y="-119.5" font-family="Helvetica,sans-Serif" font-size="10.00">vector</text>
</g>
<!-- Node2&#45;&gt;Node5 -->
<g id="edge4" class="edge"><title>Node2&#45;&gt;Node5</title>
<path fill="none" stroke="midnightblue" d="M119.807,-235.314C112.54,-226.675 101.836,-212.758 95.5,-199 86.9852,-180.51 81.9323,-157.662 79.2037,-141.872"/>
<polygon fill="midnightblue" stroke="midnightblue" points="82.628,-141.118 77.6114,-131.786 75.7136,-142.209 82.628,-141.118"/>
</g>
<!-- Node6 -->
<g id="node6" class="node"><title>Node6</title>
<g id="a_node6"><a xlink:href="Exceptions_8hpp.html" target="_top" xlink:title="ComPWA exceptions. ">
<polygon fill="white" stroke="red" points="260.5,-56.5 260.5,-75.5 368.5,-75.5 368.5,-56.5 260.5,-56.5"/>
<text text-anchor="middle" x="314.5" y="-63.5" font-family="Helvetica,sans-Serif" font-size="10.00">Core/Exceptions.hpp</text>
</a>
</g>
</g>
<!-- Node2&#45;&gt;Node6 -->
<g id="edge5" class="edge"><title>Node2&#45;&gt;Node6</title>
<path fill="none" stroke="midnightblue" d="M151.903,-235.488C190.273,-220.771 264.176,-186.775 301.5,-132 310.714,-118.478 313.703,-99.9245 314.54,-86.1006"/>
<polygon fill="midnightblue" stroke="midnightblue" points="318.046,-85.9084 314.826,-75.8149 311.049,-85.7138 318.046,-85.9084"/>
</g>
<!-- Node8 -->
<g id="node8" class="node"><title>Node8</title>
<g id="a_node8"><a xlink:href="FunctionTree_2FitParameter_8hpp.html" target="_top" xlink:title="Implementations of Parameter for various data types. ">
<polygon fill="white" stroke="red" points="116.5,-112.5 116.5,-131.5 292.5,-131.5 292.5,-112.5 116.5,-112.5"/>
<text text-anchor="middle" x="204.5" y="-119.5" font-family="Helvetica,sans-Serif" font-size="10.00">Core/FunctionTree/FitParameter.hpp</text>
</a>
</g>
</g>
<!-- Node2&#45;&gt;Node8 -->
<g id="edge7" class="edge"><title>Node2&#45;&gt;Node8</title>
<path fill="none" stroke="midnightblue" d="M134.364,-235.236C141.25,-226.31 152.021,-211.976 160.5,-199 173.224,-179.526 186.411,-156.268 194.989,-140.655"/>
<polygon fill="midnightblue" stroke="midnightblue" points="198.203,-142.071 199.909,-131.615 192.054,-138.725 198.203,-142.071"/>
</g>
<!-- Node9 -->
<g id="node9" class="node"><title>Node9</title>
<g id="a_node9"><a xlink:href="ParameterList_8hpp.html" target="_top" xlink:title="ParameterList class. ">
<polygon fill="white" stroke="red" points="292.5,-168.5 292.5,-198.5 438.5,-198.5 438.5,-168.5 292.5,-168.5"/>
<text text-anchor="start" x="300.5" y="-186.5" font-family="Helvetica,sans-Serif" font-size="10.00">Core/FunctionTree/Parameter</text>
<text text-anchor="middle" x="365.5" y="-175.5" font-family="Helvetica,sans-Serif" font-size="10.00">List.hpp</text>
</a>
</g>
</g>
<!-- Node2&#45;&gt;Node9 -->
<g id="edge11" class="edge"><title>Node2&#45;&gt;Node9</title>
<path fill="none" stroke="midnightblue" d="M161.6,-235.475C197.448,-226.513 254.746,-212.188 299.487,-201.003"/>
<polygon fill="midnightblue" stroke="midnightblue" points="300.556,-204.344 309.408,-198.523 298.858,-197.553 300.556,-204.344"/>
</g>
<!-- Node7 -->
<g id="node7" class="node"><title>Node7</title>
<polygon fill="white" stroke="#bfbfbf" points="335,-0.5 335,-19.5 376,-19.5 376,-0.5 335,-0.5"/>
<text text-anchor="middle" x="355.5" y="-7.5" font-family="Helvetica,sans-Serif" font-size="10.00">string</text>
</g>
<!-- Node6&#45;&gt;Node7 -->
<g id="edge6" class="edge"><title>Node6&#45;&gt;Node7</title>
<path fill="none" stroke="midnightblue" d="M321.27,-56.083C327.062,-48.4554 335.558,-37.2645 342.638,-27.9408"/>
<polygon fill="midnightblue" stroke="midnightblue" points="345.596,-29.8321 348.856,-19.7511 340.021,-25.5991 345.596,-29.8321"/>
</g>
<!-- Node8&#45;&gt;Node3 -->
<g id="edge8" class="edge"><title>Node8&#45;&gt;Node3</title>
<path fill="none" stroke="midnightblue" d="M176.295,-112.444C145.646,-103.145 96.57,-88.2572 63.0015,-78.0735"/>
<polygon fill="midnightblue" stroke="midnightblue" points="63.7045,-74.6293 53.1191,-75.0755 61.6723,-81.3278 63.7045,-74.6293"/>
</g>
<!-- Node8&#45;&gt;Node6 -->
<g id="edge10" class="edge"><title>Node8&#45;&gt;Node6</title>
<path fill="none" stroke="midnightblue" d="M222.173,-112.324C239.894,-103.625 267.403,-90.1202 287.788,-80.113"/>
<polygon fill="midnightblue" stroke="midnightblue" points="289.436,-83.2031 296.87,-75.6545 286.351,-76.9195 289.436,-83.2031"/>
</g>
<!-- Node8&#45;&gt;Node7 -->
<g id="edge9" class="edge"><title>Node8&#45;&gt;Node7</title>
<path fill="none" stroke="midnightblue" d="M208.821,-112.274C215.981,-98.6034 231.521,-72.0431 251.5,-56 273.218,-38.5608 302.723,-26.6474 324.759,-19.4816"/>
<polygon fill="midnightblue" stroke="midnightblue" points="326.09,-22.7335 334.606,-16.4312 324.018,-16.047 326.09,-22.7335"/>
</g>
<!-- Node9&#45;&gt;Node5 -->
<g id="edge14" class="edge"><title>Node9&#45;&gt;Node5</title>
<path fill="none" stroke="midnightblue" d="M292.281,-169.967C242.858,-161.09 175.995,-148.276 108.715,-132.134"/>
<polygon fill="midnightblue" stroke="midnightblue" points="109.33,-128.682 98.7873,-129.728 107.682,-135.485 109.33,-128.682"/>
</g>
<!-- Node9&#45;&gt;Node6 -->
<g id="edge15" class="edge"><title>Node9&#45;&gt;Node6</title>
<path fill="none" stroke="midnightblue" d="M359.341,-168.448C353.097,-154.214 343.15,-131.566 334.5,-112 330.563,-103.093 326.169,-93.2036 322.506,-84.969"/>
<polygon fill="midnightblue" stroke="midnightblue" points="325.609,-83.3342 318.344,-75.6223 319.214,-86.1814 325.609,-83.3342"/>
</g>
<!-- Node9&#45;&gt;Node7 -->
<g id="edge13" class="edge"><title>Node9&#45;&gt;Node7</title>
<path fill="none" stroke="midnightblue" d="M369.776,-168.265C376.223,-144.641 386.749,-95.9764 377.5,-56 375.27,-46.3627 370.679,-36.4052 366.264,-28.3149"/>
<polygon fill="midnightblue" stroke="midnightblue" points="369.197,-26.3968 361.138,-19.5194 363.149,-29.9216 369.197,-26.3968"/>
</g>
<!-- Node9&#45;&gt;Node8 -->
<g id="edge16" class="edge"><title>Node9&#45;&gt;Node8</title>
<path fill="none" stroke="midnightblue" d="M327.345,-168.399C299.97,-158.283 263.463,-144.791 237.374,-135.149"/>
<polygon fill="midnightblue" stroke="midnightblue" points="238.52,-131.841 227.927,-131.658 236.094,-138.407 238.52,-131.841"/>
</g>
<!-- Node10 -->
<g id="node10" class="node"><title>Node10</title>
<polygon fill="white" stroke="#bfbfbf" points="424.5,-112.5 424.5,-131.5 476.5,-131.5 476.5,-112.5 424.5,-112.5"/>
<text text-anchor="middle" x="450.5" y="-119.5" font-family="Helvetica,sans-Serif" font-size="10.00">memory</text>
</g>
<!-- Node9&#45;&gt;Node10 -->
<g id="edge12" class="edge"><title>Node9&#45;&gt;Node10</title>
<path fill="none" stroke="midnightblue" d="M385.644,-168.399C398.887,-159.129 416.178,-147.025 429.576,-137.647"/>
<polygon fill="midnightblue" stroke="midnightblue" points="431.947,-140.26 438.132,-131.658 427.932,-134.525 431.947,-140.26"/>
</g>
<!-- Node11&#45;&gt;Node2 -->
<g id="edge21" class="edge"><title>Node11&#45;&gt;Node2</title>
<path fill="none" stroke="midnightblue" d="M286.851,-296.975C254.531,-286.636 199.903,-269.161 163.767,-257.602"/>
<polygon fill="midnightblue" stroke="midnightblue" points="164.691,-254.222 154.1,-254.509 162.558,-260.89 164.691,-254.222"/>
</g>
<!-- Node11&#45;&gt;Node3 -->
<g id="edge18" class="edge"><title>Node11&#45;&gt;Node3</title>
<path fill="none" stroke="midnightblue" d="M232.272,-301.484C160.277,-296.068 62.7522,-283.553 37.5,-255 -4.70288,-207.281 10.964,-123.295 20.8579,-85.8911"/>
<polygon fill="midnightblue" stroke="midnightblue" points="24.3379,-86.4441 23.6726,-75.8702 17.5987,-84.5511 24.3379,-86.4441"/>
</g>
<!-- Node11&#45;&gt;Node7 -->
<g id="edge20" class="edge"><title>Node11&#45;&gt;Node7</title>
<path fill="none" stroke="midnightblue" d="M361.205,-296.89C417.778,-283.611 504.5,-252.213 504.5,-184.5 504.5,-184.5 504.5,-184.5 504.5,-121 504.5,-62.6561 429.643,-31.7568 386.046,-18.7084"/>
<polygon fill="midnightblue" stroke="midnightblue" points="386.794,-15.2824 376.218,-15.9094 384.877,-22.0147 386.794,-15.2824"/>
</g>
<!-- Node11&#45;&gt;Node9 -->
<g id="edge23" class="edge"><title>Node11&#45;&gt;Node9</title>
<path fill="none" stroke="midnightblue" d="M348.758,-296.905C370.38,-289.616 396.358,-276.763 409.5,-255 419.598,-238.278 406.706,-219.523 392.318,-205.563"/>
<polygon fill="midnightblue" stroke="midnightblue" points="394.536,-202.85 384.772,-198.737 389.84,-208.041 394.536,-202.85"/>
</g>
<!-- Node11&#45;&gt;Node10 -->
<g id="edge19" class="edge"><title>Node11&#45;&gt;Node10</title>
<path fill="none" stroke="midnightblue" d="M349.49,-296.953C373.796,-289.517 405.058,-276.474 425.5,-255 454.757,-224.265 455.056,-170.547 452.78,-142.036"/>
<polygon fill="midnightblue" stroke="midnightblue" points="456.236,-141.417 451.762,-131.813 449.27,-142.111 456.236,-141.417"/>
</g>
<!-- Node12 -->
<g id="node12" class="node"><title>Node12</title>
<g id="a_node12"><a xlink:href="ParObserver_8hpp.html" target="_top" xlink:title="ParObserver class. ">
<polygon fill="white" stroke="black" points="226.5,-235.5 226.5,-254.5 400.5,-254.5 400.5,-235.5 226.5,-235.5"/>
<text text-anchor="middle" x="313.5" y="-242.5" font-family="Helvetica,sans-Serif" font-size="10.00">Core/FunctionTree/ParObserver.hpp</text>
</a>
</g>
</g>
<!-- Node11&#45;&gt;Node12 -->
<g id="edge22" class="edge"><title>Node11&#45;&gt;Node12</title>
<path fill="none" stroke="midnightblue" d="M313.5,-296.975C313.5,-288.58 313.5,-275.481 313.5,-264.663"/>
<polygon fill="midnightblue" stroke="midnightblue" points="317,-264.509 313.5,-254.509 310,-264.509 317,-264.509"/>
</g>
</g>
</svg>
        <g id="navigator" transform="translate(0 0)" fill="#404254">
                <rect fill="#f2f5e9" fill-opacity="0.5" stroke="#606060" stroke-width=".5" x="0" y="0" width="60" height="60"/>
                <use id="zoomplus" xlink:href="#zoomPlus" x="17" y="9" onmousedown="handleZoom(evt,'in')"/>
                <use id="zoomminus" xlink:href="#zoomMin" x="42" y="9" onmousedown="handleZoom(evt,'out')"/>
                <use id="reset" xlink:href="#resetDef" x="30" y="36" onmousedown="handleReset()"/>
                <g id="arrowUp" xlink:href="#dirArrow" transform="translate(30 24)" onmousedown="handlePan(0,-1)">
                  <use xlink:href="#rim" fill="#404040">
                        <set attributeName="fill" to="#808080" begin="arrowUp.mouseover" end="arrowUp.mouseout"/>
                  </use>
                  <path fill="none" stroke="white" stroke-width="1.5" d="M0,-3.0v7 M-2.5,-0.5L0,-3.0L2.5,-0.5"/>
                </g>
                <g id="arrowRight" xlink:href="#dirArrow" transform="rotate(90) translate(36 -43)" onmousedown="handlePan(1,0)">
                  <use xlink:href="#rim" fill="#404040">
                        <set attributeName="fill" to="#808080" begin="arrowRight.mouseover" end="arrowRight.mouseout"/>
                  </use>
                  <path fill="none" stroke="white" stroke-width="1.5" d="M0,-3.0v7 M-2.5,-0.5L0,-3.0L2.5,-0.5"/>
                </g>
                <g id="arrowDown" xlink:href="#dirArrow" transform="rotate(180) translate(-30 -48)" onmousedown="handlePan(0,1)">
                  <use xlink:href="#rim" fill="#404040">
                        <set attributeName="fill" to="#808080" begin="arrowDown.mouseover" end="arrowDown.mouseout"/>
                  </use>
                  <path fill="none" stroke="white" stroke-width="1.5" d="M0,-3.0v7 M-2.5,-0.5L0,-3.0L2.5,-0.5"/>
                </g>
                <g id="arrowLeft" xlink:href="#dirArrow" transform="rotate(270) translate(-36 17)" onmousedown="handlePan(-1,0)">
                  <use xlink:href="#rim" fill="#404040">
                        <set attributeName="fill" to="#808080" begin="arrowLeft.mouseover" end="arrowLeft.mouseout"/>
                  </use>
                  <path fill="none" stroke="white" stroke-width="1.5" d="M0,-3.0v7 M-2.5,-0.5L0,-3.0L2.5,-0.5"/>
                </g>
        </g>
        <svg viewBox="0 0 15 15" width="100%" height="30px" preserveAspectRatio="xMaxYMin meet">
         <g id="arrow_out" transform="scale(0.3 0.3)">
          <a xlink:href="WignerD_8hpp__incl_org.svg" target="_base">
           <rect id="button" ry="5" rx="5" y="6" x="6" height="38" width="38"
                fill="#f2f5e9" fill-opacity="0.5" stroke="#606060" stroke-width="1.0"/>
           <path id="arrow"
             d="M 11.500037,31.436501 C 11.940474,20.09759 22.043105,11.32322 32.158766,21.979434 L 37.068811,17.246167 C 37.068811,17.246167 37.088388,32 37.088388,32 L 22.160133,31.978069 C 22.160133,31.978069 26.997745,27.140456 26.997745,27.140456 C 18.528582,18.264221 13.291696,25.230495 11.500037,31.436501 z"
             style="fill:#404040;"/>
          </a>
         </g>
        </svg>
</svg>
